<?xml version="1.0" encoding="UTF-8" standalone="no"?>
<!DOCTYPE svg PUBLIC "-//W3C//DTD SVG 1.1//EN"
 "http://www.w3.org/Graphics/SVG/1.1/DTD/svg11.dtd">
<!-- Generated by graphviz version 2.43.0 (0)
 -->
<!-- Title: a_graph Pages: 1 -->
<svg width="1087pt" height="119pt"
 viewBox="0.00 0.00 1086.50 119.00" xmlns="http://www.w3.org/2000/svg" xmlns:xlink="http://www.w3.org/1999/xlink">
<g id="graph0" class="graph" transform="scale(1 1) rotate(0) translate(4 115)">
<title>a_graph</title>
<polygon fill="white" stroke="transparent" points="-4,4 -4,-115 1082.5,-115 1082.5,4 -4,4"/>
<!-- T762 -->
<g id="node1" class="node">
<title>T762</title>
<polygon fill="none" stroke="#0058ad" points="0,-81.5 0,-110.5 930,-110.5 930,-81.5 0,-81.5"/>
<text text-anchor="middle" x="325" y="-92.3" font-family="Times,serif" font-size="14.00" fill="#0058ad">r 26 [1 2 3 4 5 6 7 8 9 10 11 12 13 14 15 16 18 19 20 21 22 23 24 25 26 27 28 29 30 31]</text>
<polyline fill="none" stroke="#0058ad" points="650,-81.5 650,-110.5 "/>
<text text-anchor="middle" x="685" y="-92.3" font-family="Times,serif" font-size="14.00" fill="#0058ad">r 30 [1]</text>
<polyline fill="none" stroke="#0058ad" points="720,-81.5 720,-110.5 "/>
<text text-anchor="middle" x="755" y="-92.3" font-family="Times,serif" font-size="14.00" fill="#0058ad">a 26 32</text>
<polyline fill="none" stroke="#0058ad" points="790,-81.5 790,-110.5 "/>
<text text-anchor="middle" x="825" y="-92.3" font-family="Times,serif" font-size="14.00" fill="#0058ad">a 28 13</text>
<polyline fill="none" stroke="#0058ad" points="860,-81.5 860,-110.5 "/>
<text text-anchor="middle" x="895" y="-92.3" font-family="Times,serif" font-size="14.00" fill="#0058ad">r 30 [1]</text>
</g>
<!-- T763 -->
<g id="node2" class="node">
<title>T763</title>
<polygon fill="none" stroke="#0058ad" points="497.5,-0.5 497.5,-29.5 1078.5,-29.5 1078.5,-0.5 497.5,-0.5"/>
<text text-anchor="middle" x="532.5" y="-11.3" font-family="Times,serif" font-size="14.00" fill="#0058ad">r 30 [1]</text>
<polyline fill="none" stroke="#0058ad" points="567.5,-0.5 567.5,-29.5 "/>
<text text-anchor="middle" x="690" y="-11.3" font-family="Times,serif" font-size="14.00" fill="#0058ad">r 28 [1 2 3 4 5 6 7 8 9 10 11 12]</text>
<polyline fill="none" stroke="#0058ad" points="812.5,-0.5 812.5,-29.5 "/>
<text text-anchor="middle" x="843" y="-11.3" font-family="Times,serif" font-size="14.00" fill="#0058ad">a 30 2</text>
<polyline fill="none" stroke="#0058ad" points="873.5,-0.5 873.5,-29.5 "/>
<text text-anchor="middle" x="915" y="-11.3" font-family="Times,serif" font-size="14.00" fill="#0058ad">r 30 [1 2]</text>
<polyline fill="none" stroke="#0058ad" points="956.5,-0.5 956.5,-29.5 "/>
<text text-anchor="middle" x="987" y="-11.3" font-family="Times,serif" font-size="14.00" fill="#0058ad">a 31 1</text>
<polyline fill="none" stroke="#0058ad" points="1017.5,-0.5 1017.5,-29.5 "/>
<text text-anchor="middle" x="1048" y="-11.3" font-family="Times,serif" font-size="14.00" fill="#0058ad">a 30 3</text>
</g>
<!-- T762&#45;&gt;T763 -->
<g id="edge1" class="edge">
<title>T762:f1&#45;&gt;T763:f2</title>
<path fill="none" stroke="#5b00c0" d="M685,-81C685,-44.99 724.76,-59.17 759,-48 773.75,-43.19 819.98,-46.92 836.8,-38.24"/>
<polygon fill="#5b00c0" stroke="#5b00c0" points="839.79,-40.1 843,-30 834.19,-35.89 839.79,-40.1"/>
<text text-anchor="middle" x="768.5" y="-51.8" font-family="Times,serif" font-size="14.00" fill="#5b00c0">rw</text>
</g>
<!-- T763&#45;&gt;T762 -->
<g id="edge2" class="edge">
<title>T763:f1&#45;&gt;T762:f3</title>
<path fill="none" stroke="#5b00c0" d="M690,-30C690,-49.96 759.67,-40.1 778,-48 797.78,-56.52 817.64,-55.99 823.36,-70.94"/>
<polygon fill="#5b00c0" stroke="#5b00c0" points="819.94,-71.69 825,-81 826.85,-70.57 819.94,-71.69"/>
<text text-anchor="middle" x="826.5" y="-51.8" font-family="Times,serif" font-size="14.00" fill="#5b00c0">rw</text>
</g>
</g>
</svg>
