<?xml version="1.0" encoding="UTF-8" standalone="no"?>
<!DOCTYPE svg PUBLIC "-//W3C//DTD SVG 1.1//EN"
 "http://www.w3.org/Graphics/SVG/1.1/DTD/svg11.dtd">
<!-- Generated by graphviz version 2.43.0 (0)
 -->
<!-- Title: a_graph Pages: 1 -->
<svg width="1093pt" height="119pt"
 viewBox="0.00 0.00 1093.00 119.00" xmlns="http://www.w3.org/2000/svg" xmlns:xlink="http://www.w3.org/1999/xlink">
<g id="graph0" class="graph" transform="scale(1 1) rotate(0) translate(4 115)">
<title>a_graph</title>
<polygon fill="white" stroke="transparent" points="-4,4 -4,-115 1089,-115 1089,4 -4,4"/>
<!-- T856 -->
<g id="node1" class="node">
<title>T856</title>
<polygon fill="none" stroke="#0058ad" points="0,-81.5 0,-110.5 720,-110.5 720,-81.5 0,-81.5"/>
<text text-anchor="middle" x="41.5" y="-92.3" font-family="Times,serif" font-size="14.00" fill="#0058ad">r 54 [1 2]</text>
<polyline fill="none" stroke="#0058ad" points="83,-81.5 83,-110.5 "/>
<text text-anchor="middle" x="113.5" y="-92.3" font-family="Times,serif" font-size="14.00" fill="#0058ad">a 54 3</text>
<polyline fill="none" stroke="#0058ad" points="144,-81.5 144,-110.5 "/>
<text text-anchor="middle" x="401.5" y="-92.3" font-family="Times,serif" font-size="14.00" fill="#0058ad">r 50 [1 2 3 4 5 6 7 8 9 10 12 13 14 15 16 17 18 19 20 21 22 23 24 25]</text>
<polyline fill="none" stroke="#0058ad" points="659,-81.5 659,-110.5 "/>
<text text-anchor="middle" x="689.5" y="-92.3" font-family="Times,serif" font-size="14.00" fill="#0058ad">a 54 4</text>
</g>
<!-- T857 -->
<g id="node2" class="node">
<title>T857</title>
<polygon fill="none" stroke="#0058ad" points="109,-0.5 109,-29.5 1085,-29.5 1085,-0.5 109,-0.5"/>
<text text-anchor="middle" x="150.5" y="-11.3" font-family="Times,serif" font-size="14.00" fill="#0058ad">r 54 [1 2]</text>
<polyline fill="none" stroke="#0058ad" points="192,-0.5 192,-29.5 "/>
<text text-anchor="middle" x="233.5" y="-11.3" font-family="Times,serif" font-size="14.00" fill="#0058ad">r 54 [1 2]</text>
<polyline fill="none" stroke="#0058ad" points="275,-0.5 275,-29.5 "/>
<text text-anchor="middle" x="310" y="-11.3" font-family="Times,serif" font-size="14.00" fill="#0058ad">a 53 16</text>
<polyline fill="none" stroke="#0058ad" points="345,-0.5 345,-29.5 "/>
<text text-anchor="middle" x="380" y="-11.3" font-family="Times,serif" font-size="14.00" fill="#0058ad">a 50 26</text>
<polyline fill="none" stroke="#0058ad" points="415,-0.5 415,-29.5 "/>
<text text-anchor="middle" x="582.5" y="-11.3" font-family="Times,serif" font-size="14.00" fill="#0058ad">r 53 [1 2 3 4 5 6 7 8 9 10 11 12 13 14 15 16]</text>
<polyline fill="none" stroke="#0058ad" points="750,-0.5 750,-29.5 "/>
<text text-anchor="middle" x="917.5" y="-11.3" font-family="Times,serif" font-size="14.00" fill="#0058ad">r 53 [1 2 3 4 5 6 7 8 9 10 11 12 13 14 15 16]</text>
</g>
<!-- T856&#45;&gt;T857 -->
<g id="edge1" class="edge">
<title>T856:f2&#45;&gt;T857:f3</title>
<path fill="none" stroke="#5b00c0" d="M402,-81C402,-60.17 386.34,-55.76 381.44,-40.06"/>
<polygon fill="#5b00c0" stroke="#5b00c0" points="384.89,-39.4 380,-30 377.96,-40.4 384.89,-39.4"/>
<text text-anchor="middle" x="405.5" y="-51.8" font-family="Times,serif" font-size="14.00" fill="#5b00c0">rw</text>
</g>
<!-- T857&#45;&gt;T856 -->
<g id="edge2" class="edge">
<title>T857:f0&#45;&gt;T856:f1</title>
<path fill="none" stroke="#5b00c0" d="M150,-30C150,-54.07 122.67,-53.75 114.99,-70.96"/>
<polygon fill="#5b00c0" stroke="#5b00c0" points="111.51,-70.51 113,-81 118.38,-71.87 111.51,-70.51"/>
<text text-anchor="middle" x="152.5" y="-51.8" font-family="Times,serif" font-size="14.00" fill="#5b00c0">rw</text>
</g>
</g>
</svg>
