<?xml version="1.0" encoding="UTF-8" standalone="no"?>
<!DOCTYPE svg PUBLIC "-//W3C//DTD SVG 1.1//EN"
 "http://www.w3.org/Graphics/SVG/1.1/DTD/svg11.dtd">
<!-- Generated by graphviz version 2.43.0 (0)
 -->
<!-- Title: a_graph Pages: 1 -->
<svg width="659pt" height="119pt"
 viewBox="0.00 0.00 658.50 119.00" xmlns="http://www.w3.org/2000/svg" xmlns:xlink="http://www.w3.org/1999/xlink">
<g id="graph0" class="graph" transform="scale(1 1) rotate(0) translate(4 115)">
<title>a_graph</title>
<polygon fill="white" stroke="transparent" points="-4,4 -4,-115 654.5,-115 654.5,4 -4,4"/>
<!-- T389 -->
<g id="node1" class="node">
<title>T389</title>
<polygon fill="none" stroke="#0058ad" points="206.5,-81.5 206.5,-110.5 650.5,-110.5 650.5,-81.5 206.5,-81.5"/>
<text text-anchor="middle" x="245" y="-92.3" font-family="Times,serif" font-size="14.00" fill="#0058ad">r 167 nil</text>
<polyline fill="none" stroke="#0058ad" points="283.5,-81.5 283.5,-110.5 "/>
<text text-anchor="middle" x="317.5" y="-92.3" font-family="Times,serif" font-size="14.00" fill="#0058ad">r 169 2</text>
<polyline fill="none" stroke="#0058ad" points="351.5,-81.5 351.5,-110.5 "/>
<text text-anchor="middle" x="390" y="-92.3" font-family="Times,serif" font-size="14.00" fill="#0058ad">r 167 nil</text>
<polyline fill="none" stroke="#0058ad" points="428.5,-81.5 428.5,-110.5 "/>
<text text-anchor="middle" x="465.5" y="-92.3" font-family="Times,serif" font-size="14.00" fill="#0058ad">w 171 1</text>
<polyline fill="none" stroke="#0058ad" points="502.5,-81.5 502.5,-110.5 "/>
<text text-anchor="middle" x="539.5" y="-92.3" font-family="Times,serif" font-size="14.00" fill="#0058ad">w 171 2</text>
<polyline fill="none" stroke="#0058ad" points="576.5,-81.5 576.5,-110.5 "/>
<text text-anchor="middle" x="613.5" y="-92.3" font-family="Times,serif" font-size="14.00" fill="#0058ad">w 171 3</text>
</g>
<!-- T388 -->
<g id="node2" class="node">
<title>T388</title>
<polygon fill="none" stroke="#0058ad" points="0,-0.5 0,-29.5 583,-29.5 583,-0.5 0,-0.5"/>
<text text-anchor="middle" x="34" y="-11.3" font-family="Times,serif" font-size="14.00" fill="#0058ad">r 169 2</text>
<polyline fill="none" stroke="#0058ad" points="68,-0.5 68,-29.5 "/>
<text text-anchor="middle" x="102" y="-11.3" font-family="Times,serif" font-size="14.00" fill="#0058ad">r 169 2</text>
<polyline fill="none" stroke="#0058ad" points="136,-0.5 136,-29.5 "/>
<text text-anchor="middle" x="174.5" y="-11.3" font-family="Times,serif" font-size="14.00" fill="#0058ad">r 170 nil</text>
<polyline fill="none" stroke="#0058ad" points="213,-0.5 213,-29.5 "/>
<text text-anchor="middle" x="251.5" y="-11.3" font-family="Times,serif" font-size="14.00" fill="#0058ad">r 170 nil</text>
<polyline fill="none" stroke="#0058ad" points="290,-0.5 290,-29.5 "/>
<text text-anchor="middle" x="327" y="-11.3" font-family="Times,serif" font-size="14.00" fill="#0058ad">w 167 1</text>
<polyline fill="none" stroke="#0058ad" points="364,-0.5 364,-29.5 "/>
<text text-anchor="middle" x="401" y="-11.3" font-family="Times,serif" font-size="14.00" fill="#0058ad">w 163 2</text>
<polyline fill="none" stroke="#0058ad" points="438,-0.5 438,-29.5 "/>
<text text-anchor="middle" x="476.5" y="-11.3" font-family="Times,serif" font-size="14.00" fill="#0058ad">r 171 nil</text>
<polyline fill="none" stroke="#0058ad" points="515,-0.5 515,-29.5 "/>
<text text-anchor="middle" x="549" y="-11.3" font-family="Times,serif" font-size="14.00" fill="#0058ad">r 169 2</text>
</g>
<!-- T389&#45;&gt;T388 -->
<g id="edge1" class="edge">
<title>T389:f0&#45;&gt;T388:f4</title>
<path fill="none" stroke="#5b00c0" d="M244.5,-81C244.5,-41.59 313.26,-67.54 325.61,-39.87"/>
<polygon fill="#5b00c0" stroke="#5b00c0" points="329.06,-40.48 327.5,-30 322.18,-39.16 329.06,-40.48"/>
<text text-anchor="middle" x="326" y="-51.8" font-family="Times,serif" font-size="14.00" fill="#5b00c0">rw</text>
</g>
<!-- T388&#45;&gt;T389 -->
<g id="edge2" class="edge">
<title>T388:f6&#45;&gt;T389:f5</title>
<path fill="none" stroke="#5b00c0" d="M476.5,-30C476.5,-91.16 597.92,-24.79 612.14,-71"/>
<polygon fill="#5b00c0" stroke="#5b00c0" points="608.69,-71.56 613.5,-81 615.62,-70.62 608.69,-71.56"/>
<text text-anchor="middle" x="615" y="-51.8" font-family="Times,serif" font-size="14.00" fill="#5b00c0">rw</text>
</g>
</g>
</svg>
