<?xml version="1.0" encoding="UTF-8" standalone="no"?>
<!DOCTYPE svg PUBLIC "-//W3C//DTD SVG 1.1//EN"
 "http://www.w3.org/Graphics/SVG/1.1/DTD/svg11.dtd">
<!-- Generated by graphviz version 2.43.0 (0)
 -->
<!-- Title: a_graph Pages: 1 -->
<svg width="2299pt" height="119pt"
 viewBox="0.00 0.00 2299.00 119.00" xmlns="http://www.w3.org/2000/svg" xmlns:xlink="http://www.w3.org/1999/xlink">
<g id="graph0" class="graph" transform="scale(1 1) rotate(0) translate(4 115)">
<title>a_graph</title>
<polygon fill="white" stroke="transparent" points="-4,4 -4,-115 2295,-115 2295,4 -4,4"/>
<!-- T1171 -->
<g id="node1" class="node">
<title>T1171</title>
<polygon fill="none" stroke="#0058ad" points="0,-81.5 0,-110.5 2291,-110.5 2291,-81.5 0,-81.5"/>
<text text-anchor="middle" x="35" y="-92.3" font-family="Times,serif" font-size="14.00" fill="#0058ad">a 44 22</text>
<polyline fill="none" stroke="#0058ad" points="70,-81.5 70,-110.5 "/>
<text text-anchor="middle" x="228.5" y="-92.3" font-family="Times,serif" font-size="14.00" fill="#0058ad">r 43 [1 2 6 7 8 9 10 11 12 13 14 17 18 19]</text>
<polyline fill="none" stroke="#0058ad" points="387,-81.5 387,-110.5 "/>
<text text-anchor="middle" x="588.5" y="-92.3" font-family="Times,serif" font-size="14.00" fill="#0058ad">r 44 [1 2 3 4 5 6 7 8 9 10 11 12 13 14 15 16 19 20 22]</text>
<polyline fill="none" stroke="#0058ad" points="790,-81.5 790,-110.5 "/>
<text text-anchor="middle" x="948.5" y="-92.3" font-family="Times,serif" font-size="14.00" fill="#0058ad">r 43 [1 2 6 7 8 9 10 11 12 13 14 17 18 19]</text>
<polyline fill="none" stroke="#0058ad" points="1107,-81.5 1107,-110.5 "/>
<text text-anchor="middle" x="1137.5" y="-92.3" font-family="Times,serif" font-size="14.00" fill="#0058ad">a 45 3</text>
<polyline fill="none" stroke="#0058ad" points="1168,-81.5 1168,-110.5 "/>
<text text-anchor="middle" x="1369.5" y="-92.3" font-family="Times,serif" font-size="14.00" fill="#0058ad">r 44 [1 2 3 4 5 6 7 8 9 10 11 12 13 14 15 16 19 20 22]</text>
<polyline fill="none" stroke="#0058ad" points="1571,-81.5 1571,-110.5 "/>
<text text-anchor="middle" x="1729.5" y="-92.3" font-family="Times,serif" font-size="14.00" fill="#0058ad">r 43 [1 2 6 7 8 9 10 11 12 13 14 17 18 19]</text>
<polyline fill="none" stroke="#0058ad" points="1888,-81.5 1888,-110.5 "/>
<text text-anchor="middle" x="2089.5" y="-92.3" font-family="Times,serif" font-size="14.00" fill="#0058ad">r 44 [1 2 3 4 5 6 7 8 9 10 11 12 13 14 15 16 19 20 22]</text>
</g>
<!-- T1169 -->
<g id="node2" class="node">
<title>T1169</title>
<polygon fill="none" stroke="#0058ad" points="29.5,-0.5 29.5,-29.5 859.5,-29.5 859.5,-0.5 29.5,-0.5"/>
<text text-anchor="middle" x="64.5" y="-11.3" font-family="Times,serif" font-size="14.00" fill="#0058ad">a 43 20</text>
<polyline fill="none" stroke="#0058ad" points="99.5,-0.5 99.5,-29.5 "/>
<text text-anchor="middle" x="289.5" y="-11.3" font-family="Times,serif" font-size="14.00" fill="#0058ad">r 44 [1 2 3 4 5 6 7 8 9 10 11 12 13 14 15 16 19 20]</text>
<polyline fill="none" stroke="#0058ad" points="479.5,-0.5 479.5,-29.5 "/>
<text text-anchor="middle" x="669.5" y="-11.3" font-family="Times,serif" font-size="14.00" fill="#0058ad">r 44 [1 2 3 4 5 6 7 8 9 10 11 12 13 14 15 16 19 20]</text>
</g>
<!-- T1171&#45;&gt;T1169 -->
<g id="edge1" class="edge">
<title>T1171:f1&#45;&gt;T1169:f0</title>
<path fill="none" stroke="#5b00c0" d="M228.5,-81C228.5,-48.45 188.65,-72.45 157.5,-63 119.3,-51.41 73.6,-69.91 65.69,-40.26"/>
<polygon fill="#5b00c0" stroke="#5b00c0" points="69.13,-39.53 64.5,-30 62.18,-40.34 69.13,-39.53"/>
<text text-anchor="middle" x="167" y="-51.8" font-family="Times,serif" font-size="14.00" fill="#5b00c0">rw</text>
</g>
<!-- T1169&#45;&gt;T1171 -->
<g id="edge2" class="edge">
<title>T1169:f1&#45;&gt;T1171:f0</title>
<path fill="none" stroke="#5b00c0" d="M289.5,-30C289.5,-82.32 227.72,-52.34 176.5,-63 163.3,-65.75 70.45,-65.34 42.46,-74.84"/>
<polygon fill="#5b00c0" stroke="#5b00c0" points="40.27,-72.11 34.5,-81 44.55,-77.65 40.27,-72.11"/>
<text text-anchor="middle" x="295" y="-51.8" font-family="Times,serif" font-size="14.00" fill="#5b00c0">rw</text>
</g>
</g>
</svg>
