<?xml version="1.0" encoding="UTF-8" standalone="no"?>
<!DOCTYPE svg PUBLIC "-//W3C//DTD SVG 1.1//EN"
 "http://www.w3.org/Graphics/SVG/1.1/DTD/svg11.dtd">
<!-- Generated by graphviz version 2.43.0 (0)
 -->
<!-- Title: a_graph Pages: 1 -->
<svg width="1928pt" height="119pt"
 viewBox="0.00 0.00 1928.00 119.00" xmlns="http://www.w3.org/2000/svg" xmlns:xlink="http://www.w3.org/1999/xlink">
<g id="graph0" class="graph" transform="scale(1 1) rotate(0) translate(4 115)">
<title>a_graph</title>
<polygon fill="white" stroke="transparent" points="-4,4 -4,-115 1924,-115 1924,4 -4,4"/>
<!-- T768 -->
<g id="node1" class="node">
<title>T768</title>
<polygon fill="none" stroke="#0058ad" points="0,-81.5 0,-110.5 1920,-110.5 1920,-81.5 0,-81.5"/>
<text text-anchor="middle" x="82" y="-92.3" font-family="Times,serif" font-size="14.00" fill="#0058ad">r 30 [1 2 3 4 5 6 7 8]</text>
<polyline fill="none" stroke="#0058ad" points="164,-81.5 164,-110.5 "/>
<text text-anchor="middle" x="194.5" y="-92.3" font-family="Times,serif" font-size="14.00" fill="#0058ad">a 30 9</text>
<polyline fill="none" stroke="#0058ad" points="225,-81.5 225,-110.5 "/>
<text text-anchor="middle" x="480.5" y="-92.3" font-family="Times,serif" font-size="14.00" fill="#0058ad">r 27 [1 2 3 4 5 7 8 10 11 12 13 14 15 16 17 18 19 20 21 22 23 24 25]</text>
<polyline fill="none" stroke="#0058ad" points="736,-81.5 736,-110.5 "/>
<text text-anchor="middle" x="771" y="-92.3" font-family="Times,serif" font-size="14.00" fill="#0058ad">a 30 10</text>
<polyline fill="none" stroke="#0058ad" points="806,-81.5 806,-110.5 "/>
<text text-anchor="middle" x="906" y="-92.3" font-family="Times,serif" font-size="14.00" fill="#0058ad">r 30 [1 2 3 4 5 6 7 8 9 10]</text>
<polyline fill="none" stroke="#0058ad" points="1006,-81.5 1006,-110.5 "/>
<text text-anchor="middle" x="1261.5" y="-92.3" font-family="Times,serif" font-size="14.00" fill="#0058ad">r 27 [1 2 3 4 5 7 8 10 11 12 13 14 15 16 17 18 19 20 21 22 23 24 25]</text>
<polyline fill="none" stroke="#0058ad" points="1517,-81.5 1517,-110.5 "/>
<text text-anchor="middle" x="1718.5" y="-92.3" font-family="Times,serif" font-size="14.00" fill="#0058ad">r 28 [1 2 3 4 5 6 7 8 9 10 11 12 13 14 15 16 17 18 19]</text>
</g>
<!-- T769 -->
<g id="node2" class="node">
<title>T769</title>
<polygon fill="none" stroke="#0058ad" points="492.5,-0.5 492.5,-29.5 1479.5,-29.5 1479.5,-0.5 492.5,-0.5"/>
<text text-anchor="middle" x="527.5" y="-11.3" font-family="Times,serif" font-size="14.00" fill="#0058ad">a 28 20</text>
<polyline fill="none" stroke="#0058ad" points="562.5,-0.5 562.5,-29.5 "/>
<text text-anchor="middle" x="644.5" y="-11.3" font-family="Times,serif" font-size="14.00" fill="#0058ad">r 30 [1 2 3 4 5 6 7 8]</text>
<polyline fill="none" stroke="#0058ad" points="726.5,-0.5 726.5,-29.5 "/>
<text text-anchor="middle" x="939" y="-11.3" font-family="Times,serif" font-size="14.00" fill="#0058ad">r 28 [1 2 3 4 5 6 7 8 9 10 11 12 13 14 15 16 17 18 19 20]</text>
<polyline fill="none" stroke="#0058ad" points="1151.5,-0.5 1151.5,-29.5 "/>
<text text-anchor="middle" x="1233.5" y="-11.3" font-family="Times,serif" font-size="14.00" fill="#0058ad">r 30 [1 2 3 4 5 6 7 8]</text>
<polyline fill="none" stroke="#0058ad" points="1315.5,-0.5 1315.5,-29.5 "/>
<text text-anchor="middle" x="1397.5" y="-11.3" font-family="Times,serif" font-size="14.00" fill="#0058ad">r 30 [1 2 3 4 5 6 7 8]</text>
</g>
<!-- T768&#45;&gt;T769 -->
<g id="edge1" class="edge">
<title>T768:f6&#45;&gt;T769:f0</title>
<path fill="none" stroke="#5b00c0" d="M1719,-81C1719,-49.54 644.99,-61.71 535.91,-34.69"/>
<polygon fill="#5b00c0" stroke="#5b00c0" points="537.48,-31.56 527,-30 534.22,-37.75 537.48,-31.56"/>
<text text-anchor="middle" x="1499.5" y="-51.8" font-family="Times,serif" font-size="14.00" fill="#5b00c0">rw</text>
</g>
<!-- T769&#45;&gt;T768 -->
<g id="edge2" class="edge">
<title>T769:f1&#45;&gt;T768:f1</title>
<path fill="none" stroke="#5b00c0" d="M644,-30C644,-227.74 209.68,108.09 194.41,-70.89"/>
<polygon fill="#5b00c0" stroke="#5b00c0" points="190.91,-70.87 194,-81 197.9,-71.15 190.91,-70.87"/>
<text text-anchor="middle" x="650.5" y="-51.8" font-family="Times,serif" font-size="14.00" fill="#5b00c0">rw</text>
</g>
</g>
</svg>
