<?xml version="1.0" encoding="UTF-8" standalone="no"?>
<!DOCTYPE svg PUBLIC "-//W3C//DTD SVG 1.1//EN"
 "http://www.w3.org/Graphics/SVG/1.1/DTD/svg11.dtd">
<!-- Generated by graphviz version 2.43.0 (0)
 -->
<!-- Title: a_graph Pages: 1 -->
<svg width="329pt" height="119pt"
 viewBox="0.00 0.00 329.00 119.00" xmlns="http://www.w3.org/2000/svg" xmlns:xlink="http://www.w3.org/1999/xlink">
<g id="graph0" class="graph" transform="scale(1 1) rotate(0) translate(4 115)">
<title>a_graph</title>
<polygon fill="white" stroke="transparent" points="-4,4 -4,-115 325,-115 325,4 -4,4"/>
<!-- T3 -->
<g id="node1" class="node">
<title>T3</title>
<polygon fill="none" stroke="#0058ad" points="0,-81.5 0,-110.5 321,-110.5 321,-81.5 0,-81.5"/>
<text text-anchor="middle" x="26" y="-92.3" font-family="Times,serif" font-size="14.00" fill="#0058ad">r 2 []</text>
<polyline fill="none" stroke="#0058ad" points="52,-81.5 52,-110.5 "/>
<text text-anchor="middle" x="78" y="-92.3" font-family="Times,serif" font-size="14.00" fill="#0058ad">a 0 1</text>
<polyline fill="none" stroke="#0058ad" points="104,-81.5 104,-110.5 "/>
<text text-anchor="middle" x="134.5" y="-92.3" font-family="Times,serif" font-size="14.00" fill="#0058ad">r 0 [1]</text>
<polyline fill="none" stroke="#0058ad" points="165,-81.5 165,-110.5 "/>
<text text-anchor="middle" x="191" y="-92.3" font-family="Times,serif" font-size="14.00" fill="#0058ad">a 1 1</text>
<polyline fill="none" stroke="#0058ad" points="217,-81.5 217,-110.5 "/>
<text text-anchor="middle" x="243" y="-92.3" font-family="Times,serif" font-size="14.00" fill="#0058ad">a 0 2</text>
<polyline fill="none" stroke="#0058ad" points="269,-81.5 269,-110.5 "/>
<text text-anchor="middle" x="295" y="-92.3" font-family="Times,serif" font-size="14.00" fill="#0058ad">r 2 []</text>
</g>
<!-- T2 -->
<g id="node2" class="node">
<title>T2</title>
<polygon fill="none" stroke="#0058ad" points="30.5,-0.5 30.5,-29.5 186.5,-29.5 186.5,-0.5 30.5,-0.5"/>
<text text-anchor="middle" x="56.5" y="-11.3" font-family="Times,serif" font-size="14.00" fill="#0058ad">r 1 []</text>
<polyline fill="none" stroke="#0058ad" points="82.5,-0.5 82.5,-29.5 "/>
<text text-anchor="middle" x="108.5" y="-11.3" font-family="Times,serif" font-size="14.00" fill="#0058ad">r 1 []</text>
<polyline fill="none" stroke="#0058ad" points="134.5,-0.5 134.5,-29.5 "/>
<text text-anchor="middle" x="160.5" y="-11.3" font-family="Times,serif" font-size="14.00" fill="#0058ad">a 2 1</text>
</g>
<!-- T3&#45;&gt;T2 -->
<g id="edge1" class="edge">
<title>T3:f0&#45;&gt;T2:f2</title>
<path fill="none" stroke="#5b00c0" d="M25.5,-81C25.5,-74.24 121.61,-48.29 151.64,-35.53"/>
<polygon fill="#5b00c0" stroke="#5b00c0" points="153.87,-38.26 160.5,-30 150.16,-32.32 153.87,-38.26"/>
<text text-anchor="middle" x="123" y="-51.8" font-family="Times,serif" font-size="14.00" fill="#5b00c0">rw</text>
</g>
<!-- T2&#45;&gt;T3 -->
<g id="edge2" class="edge">
<title>T2:f0&#45;&gt;T3:f3</title>
<path fill="none" stroke="#5b00c0" d="M56.5,-30C56.5,-48.22 119.58,-41.23 136.5,-48 159.24,-57.11 183.52,-53.88 189.89,-70.88"/>
<polygon fill="#5b00c0" stroke="#5b00c0" points="186.47,-71.67 191.5,-81 193.39,-70.57 186.47,-71.67"/>
<text text-anchor="middle" x="193" y="-51.8" font-family="Times,serif" font-size="14.00" fill="#5b00c0">rw</text>
</g>
</g>
</svg>
