<?xml version="1.0" encoding="UTF-8" standalone="no"?>
<!DOCTYPE svg PUBLIC "-//W3C//DTD SVG 1.1//EN"
 "http://www.w3.org/Graphics/SVG/1.1/DTD/svg11.dtd">
<!-- Generated by graphviz version 2.43.0 (0)
 -->
<!-- Title: a_graph Pages: 1 -->
<svg width="1245pt" height="119pt"
 viewBox="0.00 0.00 1245.00 119.00" xmlns="http://www.w3.org/2000/svg" xmlns:xlink="http://www.w3.org/1999/xlink">
<g id="graph0" class="graph" transform="scale(1 1) rotate(0) translate(4 115)">
<title>a_graph</title>
<polygon fill="white" stroke="transparent" points="-4,4 -4,-115 1241,-115 1241,4 -4,4"/>
<!-- T1638 -->
<g id="node1" class="node">
<title>T1638</title>
<polygon fill="none" stroke="#0058ad" points="546,-81.5 546,-110.5 747,-110.5 747,-81.5 546,-81.5"/>
<text text-anchor="middle" x="576.5" y="-92.3" font-family="Times,serif" font-size="14.00" fill="#0058ad">r 64 []</text>
<polyline fill="none" stroke="#0058ad" points="607,-81.5 607,-110.5 "/>
<text text-anchor="middle" x="642" y="-92.3" font-family="Times,serif" font-size="14.00" fill="#0058ad">a 63 11</text>
<polyline fill="none" stroke="#0058ad" points="677,-81.5 677,-110.5 "/>
<text text-anchor="middle" x="712" y="-92.3" font-family="Times,serif" font-size="14.00" fill="#0058ad">a 58 22</text>
</g>
<!-- T1639 -->
<g id="node2" class="node">
<title>T1639</title>
<polygon fill="none" stroke="#0058ad" points="0,-0.5 0,-29.5 1237,-29.5 1237,-0.5 0,-0.5"/>
<text text-anchor="middle" x="224" y="-11.3" font-family="Times,serif" font-size="14.00" fill="#0058ad">r 58 [1 2 3 4 5 6 7 8 9 10 11 12 13 14 15 16 17 18 19 20 21]</text>
<polyline fill="none" stroke="#0058ad" points="448,-0.5 448,-29.5 "/>
<text text-anchor="middle" x="672" y="-11.3" font-family="Times,serif" font-size="14.00" fill="#0058ad">r 58 [1 2 3 4 5 6 7 8 9 10 11 12 13 14 15 16 17 18 19 20 21]</text>
<polyline fill="none" stroke="#0058ad" points="896,-0.5 896,-29.5 "/>
<text text-anchor="middle" x="931" y="-11.3" font-family="Times,serif" font-size="14.00" fill="#0058ad">a 62 31</text>
<polyline fill="none" stroke="#0058ad" points="966,-0.5 966,-29.5 "/>
<text text-anchor="middle" x="1001" y="-11.3" font-family="Times,serif" font-size="14.00" fill="#0058ad">a 62 32</text>
<polyline fill="none" stroke="#0058ad" points="1036,-0.5 1036,-29.5 "/>
<text text-anchor="middle" x="1066.5" y="-11.3" font-family="Times,serif" font-size="14.00" fill="#0058ad">a 64 1</text>
<polyline fill="none" stroke="#0058ad" points="1097,-0.5 1097,-29.5 "/>
<text text-anchor="middle" x="1132" y="-11.3" font-family="Times,serif" font-size="14.00" fill="#0058ad">r 64 [1]</text>
<polyline fill="none" stroke="#0058ad" points="1167,-0.5 1167,-29.5 "/>
<text text-anchor="middle" x="1202" y="-11.3" font-family="Times,serif" font-size="14.00" fill="#0058ad">r 64 [1]</text>
</g>
<!-- T1638&#45;&gt;T1639 -->
<g id="edge1" class="edge">
<title>T1638:f0&#45;&gt;T1639:f4</title>
<path fill="none" stroke="#5b00c0" d="M576.5,-81C576.5,-45.8 614.28,-56.24 648.5,-48 669.11,-43.03 999.88,-51.49 1057.86,-35.38"/>
<polygon fill="#5b00c0" stroke="#5b00c0" points="1059.86,-38.25 1066.5,-30 1056.16,-32.31 1059.86,-38.25"/>
<text text-anchor="middle" x="658" y="-51.8" font-family="Times,serif" font-size="14.00" fill="#5b00c0">rw</text>
</g>
<!-- T1639&#45;&gt;T1638 -->
<g id="edge2" class="edge">
<title>T1639:f0&#45;&gt;T1638:f2</title>
<path fill="none" stroke="#5b00c0" d="M223.5,-30C223.5,-54.69 644.2,-39.85 667.5,-48 687.25,-54.91 705.71,-56 710.99,-71.06"/>
<polygon fill="#5b00c0" stroke="#5b00c0" points="707.54,-71.64 712.5,-81 714.46,-70.59 707.54,-71.64"/>
<text text-anchor="middle" x="714" y="-51.8" font-family="Times,serif" font-size="14.00" fill="#5b00c0">rw</text>
</g>
</g>
</svg>
