<?xml version="1.0" encoding="UTF-8" standalone="no"?>
<!DOCTYPE svg PUBLIC "-//W3C//DTD SVG 1.1//EN"
 "http://www.w3.org/Graphics/SVG/1.1/DTD/svg11.dtd">
<!-- Generated by graphviz version 2.43.0 (0)
 -->
<!-- Title: a_graph Pages: 1 -->
<svg width="595pt" height="119pt"
 viewBox="0.00 0.00 595.00 119.00" xmlns="http://www.w3.org/2000/svg" xmlns:xlink="http://www.w3.org/1999/xlink">
<g id="graph0" class="graph" transform="scale(1 1) rotate(0) translate(4 115)">
<title>a_graph</title>
<polygon fill="white" stroke="transparent" points="-4,4 -4,-115 591,-115 591,4 -4,4"/>
<!-- T1386 -->
<g id="node1" class="node">
<title>T1386</title>
<polygon fill="none" stroke="#0058ad" points="0,-81.5 0,-110.5 587,-110.5 587,-81.5 0,-81.5"/>
<text text-anchor="middle" x="35" y="-92.3" font-family="Times,serif" font-size="14.00" fill="#0058ad">a 599 1</text>
<polyline fill="none" stroke="#0058ad" points="70,-81.5 70,-110.5 "/>
<text text-anchor="middle" x="105" y="-92.3" font-family="Times,serif" font-size="14.00" fill="#0058ad">a 595 1</text>
<polyline fill="none" stroke="#0058ad" points="140,-81.5 140,-110.5 "/>
<text text-anchor="middle" x="175" y="-92.3" font-family="Times,serif" font-size="14.00" fill="#0058ad">a 599 2</text>
<polyline fill="none" stroke="#0058ad" points="210,-81.5 210,-110.5 "/>
<text text-anchor="middle" x="249.5" y="-92.3" font-family="Times,serif" font-size="14.00" fill="#0058ad">r 597 [1]</text>
<polyline fill="none" stroke="#0058ad" points="289,-81.5 289,-110.5 "/>
<text text-anchor="middle" x="328.5" y="-92.3" font-family="Times,serif" font-size="14.00" fill="#0058ad">r 597 [1]</text>
<polyline fill="none" stroke="#0058ad" points="368,-81.5 368,-110.5 "/>
<text text-anchor="middle" x="403" y="-92.3" font-family="Times,serif" font-size="14.00" fill="#0058ad">a 599 3</text>
<polyline fill="none" stroke="#0058ad" points="438,-81.5 438,-110.5 "/>
<text text-anchor="middle" x="473" y="-92.3" font-family="Times,serif" font-size="14.00" fill="#0058ad">a 601 1</text>
<polyline fill="none" stroke="#0058ad" points="508,-81.5 508,-110.5 "/>
<text text-anchor="middle" x="547.5" y="-92.3" font-family="Times,serif" font-size="14.00" fill="#0058ad">r 597 [1]</text>
</g>
<!-- T1388 -->
<g id="node2" class="node">
<title>T1388</title>
<polygon fill="none" stroke="#0058ad" points="185.5,-0.5 185.5,-29.5 535.5,-29.5 535.5,-0.5 185.5,-0.5"/>
<text text-anchor="middle" x="220.5" y="-11.3" font-family="Times,serif" font-size="14.00" fill="#0058ad">r 600 []</text>
<polyline fill="none" stroke="#0058ad" points="255.5,-0.5 255.5,-29.5 "/>
<text text-anchor="middle" x="290.5" y="-11.3" font-family="Times,serif" font-size="14.00" fill="#0058ad">r 601 []</text>
<polyline fill="none" stroke="#0058ad" points="325.5,-0.5 325.5,-29.5 "/>
<text text-anchor="middle" x="360.5" y="-11.3" font-family="Times,serif" font-size="14.00" fill="#0058ad">a 600 1</text>
<polyline fill="none" stroke="#0058ad" points="395.5,-0.5 395.5,-29.5 "/>
<text text-anchor="middle" x="430.5" y="-11.3" font-family="Times,serif" font-size="14.00" fill="#0058ad">a 597 2</text>
<polyline fill="none" stroke="#0058ad" points="465.5,-0.5 465.5,-29.5 "/>
<text text-anchor="middle" x="500.5" y="-11.3" font-family="Times,serif" font-size="14.00" fill="#0058ad">r 601 []</text>
</g>
<!-- T1386&#45;&gt;T1388 -->
<g id="edge1" class="edge">
<title>T1386:f3&#45;&gt;T1388:f3</title>
<path fill="none" stroke="#5b00c0" d="M249.5,-81C249.5,-62.64 389.32,-53.3 423.18,-37.12"/>
<polygon fill="#5b00c0" stroke="#5b00c0" points="425.77,-39.48 430.5,-30 420.89,-34.46 425.77,-39.48"/>
<text text-anchor="middle" x="392" y="-51.8" font-family="Times,serif" font-size="14.00" fill="#5b00c0">rw</text>
</g>
<!-- T1388&#45;&gt;T1386 -->
<g id="edge2" class="edge">
<title>T1388:f1&#45;&gt;T1386:f6</title>
<path fill="none" stroke="#5b00c0" d="M290.5,-30C290.5,-55.87 380.82,-40.27 405.5,-48 433.8,-56.86 465.13,-49.62 472.08,-70.91"/>
<polygon fill="#5b00c0" stroke="#5b00c0" points="468.64,-71.58 473.5,-81 475.58,-70.61 468.64,-71.58"/>
<text text-anchor="middle" x="476" y="-51.8" font-family="Times,serif" font-size="14.00" fill="#5b00c0">rw</text>
</g>
</g>
</svg>
