<?xml version="1.0" encoding="UTF-8" standalone="no"?>
<!DOCTYPE svg PUBLIC "-//W3C//DTD SVG 1.1//EN"
 "http://www.w3.org/Graphics/SVG/1.1/DTD/svg11.dtd">
<!-- Generated by graphviz version 2.43.0 (0)
 -->
<!-- Title: a_graph Pages: 1 -->
<svg width="611pt" height="119pt"
 viewBox="0.00 0.00 611.00 119.00" xmlns="http://www.w3.org/2000/svg" xmlns:xlink="http://www.w3.org/1999/xlink">
<g id="graph0" class="graph" transform="scale(1 1) rotate(0) translate(4 115)">
<title>a_graph</title>
<polygon fill="white" stroke="transparent" points="-4,4 -4,-115 607,-115 607,4 -4,4"/>
<!-- T947 -->
<g id="node1" class="node">
<title>T947</title>
<polygon fill="none" stroke="#0058ad" points="37,-81.5 37,-110.5 603,-110.5 603,-81.5 37,-81.5"/>
<text text-anchor="middle" x="72" y="-92.3" font-family="Times,serif" font-size="14.00" fill="#0058ad">a 410 1</text>
<polyline fill="none" stroke="#0058ad" points="107,-81.5 107,-110.5 "/>
<text text-anchor="middle" x="142" y="-92.3" font-family="Times,serif" font-size="14.00" fill="#0058ad">a 394 3</text>
<polyline fill="none" stroke="#0058ad" points="177,-81.5 177,-110.5 "/>
<text text-anchor="middle" x="216.5" y="-92.3" font-family="Times,serif" font-size="14.00" fill="#0058ad">r 410 [1]</text>
<polyline fill="none" stroke="#0058ad" points="256,-81.5 256,-110.5 "/>
<text text-anchor="middle" x="295.5" y="-92.3" font-family="Times,serif" font-size="14.00" fill="#0058ad">r 410 [1]</text>
<polyline fill="none" stroke="#0058ad" points="335,-81.5 335,-110.5 "/>
<text text-anchor="middle" x="370" y="-92.3" font-family="Times,serif" font-size="14.00" fill="#0058ad">a 411 1</text>
<polyline fill="none" stroke="#0058ad" points="405,-81.5 405,-110.5 "/>
<text text-anchor="middle" x="458" y="-92.3" font-family="Times,serif" font-size="14.00" fill="#0058ad">r 404 [1 2 3]</text>
<polyline fill="none" stroke="#0058ad" points="511,-81.5 511,-110.5 "/>
<text text-anchor="middle" x="557" y="-92.3" font-family="Times,serif" font-size="14.00" fill="#0058ad">r 409 [1 2]</text>
</g>
<!-- T946 -->
<g id="node2" class="node">
<title>T946</title>
<polygon fill="none" stroke="#0058ad" points="0,-0.5 0,-29.5 420,-29.5 420,-0.5 0,-0.5"/>
<text text-anchor="middle" x="35" y="-11.3" font-family="Times,serif" font-size="14.00" fill="#0058ad">r 407 []</text>
<polyline fill="none" stroke="#0058ad" points="70,-0.5 70,-29.5 "/>
<text text-anchor="middle" x="105" y="-11.3" font-family="Times,serif" font-size="14.00" fill="#0058ad">a 407 1</text>
<polyline fill="none" stroke="#0058ad" points="140,-0.5 140,-29.5 "/>
<text text-anchor="middle" x="175" y="-11.3" font-family="Times,serif" font-size="14.00" fill="#0058ad">a 407 2</text>
<polyline fill="none" stroke="#0058ad" points="210,-0.5 210,-29.5 "/>
<text text-anchor="middle" x="245" y="-11.3" font-family="Times,serif" font-size="14.00" fill="#0058ad">a 409 3</text>
<polyline fill="none" stroke="#0058ad" points="280,-0.5 280,-29.5 "/>
<text text-anchor="middle" x="315" y="-11.3" font-family="Times,serif" font-size="14.00" fill="#0058ad">a 407 3</text>
<polyline fill="none" stroke="#0058ad" points="350,-0.5 350,-29.5 "/>
<text text-anchor="middle" x="385" y="-11.3" font-family="Times,serif" font-size="14.00" fill="#0058ad">r 410 []</text>
</g>
<!-- T947&#45;&gt;T946 -->
<g id="edge1" class="edge">
<title>T947:f6&#45;&gt;T946:f3</title>
<path fill="none" stroke="#5b00c0" d="M557,-81C557,55.94 260.64,-159.07 245.59,-40"/>
<polygon fill="#5b00c0" stroke="#5b00c0" points="249.09,-39.78 245,-30 242.1,-40.19 249.09,-39.78"/>
<text text-anchor="middle" x="562.5" y="-51.8" font-family="Times,serif" font-size="14.00" fill="#5b00c0">rw</text>
</g>
<!-- T946&#45;&gt;T947 -->
<g id="edge2" class="edge">
<title>T946:f5&#45;&gt;T947:f0</title>
<path fill="none" stroke="#5b00c0" d="M385,-30C385,-47.89 242.66,-45.11 225,-48 159.97,-58.64 80.85,-16.31 72.69,-70.95"/>
<polygon fill="#5b00c0" stroke="#5b00c0" points="69.19,-70.78 72,-81 76.18,-71.26 69.19,-70.78"/>
<text text-anchor="middle" x="234.5" y="-51.8" font-family="Times,serif" font-size="14.00" fill="#5b00c0">rw</text>
</g>
</g>
</svg>
