<?xml version="1.0" encoding="UTF-8" standalone="no"?>
<!DOCTYPE svg PUBLIC "-//W3C//DTD SVG 1.1//EN"
 "http://www.w3.org/Graphics/SVG/1.1/DTD/svg11.dtd">
<!-- Generated by graphviz version 2.40.1 (20161225.0304)
 -->
<!-- Title: g Pages: 1 -->
<svg width="550pt" height="121pt"
 viewBox="0.00 0.00 550.12 120.80" xmlns="http://www.w3.org/2000/svg" xmlns:xlink="http://www.w3.org/1999/xlink">
<g id="graph0" class="graph" transform="scale(1 1) rotate(0) translate(4 116.8)">
<title>g</title>
<polygon fill="#ffffff" stroke="transparent" points="-4,4 -4,-116.8 546.125,-116.8 546.125,4 -4,4"/>
<!-- T13379 -->
<g id="node1" class="node">
<title>T13379</title>
<polygon fill="none" stroke="#0058ad" points="0,-83.3 0,-112.3 499.8628,-112.3 499.8628,-83.3 0,-83.3"/>
<text text-anchor="middle" x="55.8205" y="-93.6" font-family="Times,serif" font-size="14.00" fill="#0058ad">[:append 2364 6]</text>
<polyline fill="none" stroke="#0058ad" points="111.641,-83.3 111.641,-112.3 "/>
<text text-anchor="middle" x="154.2378" y="-93.6" font-family="Times,serif" font-size="14.00" fill="#0058ad">[:r 2365 [2]]</text>
<polyline fill="none" stroke="#0058ad" points="196.8346,-83.3 196.8346,-112.3 "/>
<text text-anchor="middle" x="249.9314" y="-93.6" font-family="Times,serif" font-size="14.00" fill="#0058ad">[:r 2361 [1 3 4]]</text>
<polyline fill="none" stroke="#0058ad" points="303.0282,-83.3 303.0282,-112.3 "/>
<text text-anchor="middle" x="345.625" y="-93.6" font-family="Times,serif" font-size="14.00" fill="#0058ad">[:r 2365 [2]]</text>
<polyline fill="none" stroke="#0058ad" points="388.2218,-83.3 388.2218,-112.3 "/>
<text text-anchor="middle" x="444.0423" y="-93.6" font-family="Times,serif" font-size="14.00" fill="#0058ad">[:append 2365 3]</text>
</g>
<!-- T13381 -->
<g id="node2" class="node">
<title>T13381</title>
<polygon fill="none" stroke="#0058ad" points="116.5442,-.5 116.5442,-29.5 499.3186,-29.5 499.3186,-.5 116.5442,-.5"/>
<text text-anchor="middle" x="159.141" y="-10.8" font-family="Times,serif" font-size="14.00" fill="#0058ad">[:r 2365 [2]]</text>
<polyline fill="none" stroke="#0058ad" points="201.7378,-.5 201.7378,-29.5 "/>
<text text-anchor="middle" x="244.3346" y="-10.8" font-family="Times,serif" font-size="14.00" fill="#0058ad">[:r 2365 [2]]</text>
<polyline fill="none" stroke="#0058ad" points="286.9314,-.5 286.9314,-29.5 "/>
<text text-anchor="middle" x="340.0282" y="-10.8" font-family="Times,serif" font-size="14.00" fill="#0058ad">[:r 2364 [2 3 6]]</text>
<polyline fill="none" stroke="#0058ad" points="393.125,-.5 393.125,-29.5 "/>
<text text-anchor="middle" x="446.2218" y="-10.8" font-family="Times,serif" font-size="14.00" fill="#0058ad">[:r 2364 [2 3 6]]</text>
</g>
<!-- T13379&#45;&gt;T13381 -->
<g id="edge1" class="edge">
<title>T13379:f0&#45;&gt;T13381:f2</title>
<path fill="none" stroke="#c000a5" d="M55.9314,-82.8C55.9314,1.2165 159.1276,-63.3077 241.7378,-48 260.0574,-44.6054 316.8654,-49.8641 334.5918,-38.4941"/>
<polygon fill="#c000a5" stroke="#c000a5" points="337.5725,-40.3289 339.9314,-30 331.6462,-36.6035 337.5725,-40.3289"/>
<text text-anchor="middle" x="301.0282" y="-52.2" font-family="Times,serif" font-size="14.00" fill="#c000a5">T13379 (wr) T13381</text>
</g>
<!-- T13381&#45;&gt;T13379 -->
<g id="edge2" class="edge">
<title>T13381:f0&#45;&gt;T13379:f4</title>
<path fill="none" stroke="#5b00c0" d="M158.9314,-30C158.9314,-52.4227 338.1569,-42.6475 359.9314,-48 376.3334,-52.0319 424.0118,-59.5217 439.2148,-73.6735"/>
<polygon fill="#5b00c0" stroke="#5b00c0" points="436.2308,-75.5232 443.9314,-82.8 442.4495,-72.3093 436.2308,-75.5232"/>
<text text-anchor="middle" x="483.0282" y="-52.2" font-family="Times,serif" font-size="14.00" fill="#5b00c0">T13381 (rw) T13379</text>
</g>
</g>
</svg>
