<?xml version="1.0" encoding="UTF-8" standalone="no"?>
<!DOCTYPE svg PUBLIC "-//W3C//DTD SVG 1.1//EN"
 "http://www.w3.org/Graphics/SVG/1.1/DTD/svg11.dtd">
<!-- Generated by graphviz version 2.40.1 (20161225.0304)
 -->
<!-- Title: g Pages: 1 -->
<svg width="622pt" height="121pt"
 viewBox="0.00 0.00 622.25 120.80" xmlns="http://www.w3.org/2000/svg" xmlns:xlink="http://www.w3.org/1999/xlink">
<g id="graph0" class="graph" transform="scale(1 1) rotate(0) translate(4 116.8)">
<title>g</title>
<polygon fill="#ffffff" stroke="transparent" points="-4,4 -4,-116.8 618.25,-116.8 618.25,4 -4,4"/>
<!-- T10168 -->
<g id="node1" class="node">
<title>T10168</title>
<polygon fill="none" stroke="#0058ad" points="111.2904,-83.3 111.2904,-112.3 504.9596,-112.3 504.9596,-83.3 111.2904,-83.3"/>
<text text-anchor="middle" x="153.8872" y="-93.6" font-family="Times,serif" font-size="14.00" fill="#0058ad">[:r 1789 [4]]</text>
<polyline fill="none" stroke="#0058ad" points="196.484,-83.3 196.484,-112.3 "/>
<text text-anchor="middle" x="252.3045" y="-93.6" font-family="Times,serif" font-size="14.00" fill="#0058ad">[:append 1792 2]</text>
<polyline fill="none" stroke="#0058ad" points="308.125,-83.3 308.125,-112.3 "/>
<text text-anchor="middle" x="350.7218" y="-93.6" font-family="Times,serif" font-size="14.00" fill="#0058ad">[:r 1792 [2]]</text>
<polyline fill="none" stroke="#0058ad" points="393.3186,-83.3 393.3186,-112.3 "/>
<text text-anchor="middle" x="449.1391" y="-93.6" font-family="Times,serif" font-size="14.00" fill="#0058ad">[:append 1792 3]</text>
</g>
<!-- T10169 -->
<g id="node2" class="node">
<title>T10169</title>
<polygon fill="none" stroke="#0058ad" points="0,-.5 0,-29.5 614.25,-29.5 614.25,-.5 0,-.5"/>
<text text-anchor="middle" x="39.0968" y="-10.8" font-family="Times,serif" font-size="14.00" fill="#0058ad">[:r 1792 []]</text>
<polyline fill="none" stroke="#0058ad" points="78.1936,-.5 78.1936,-29.5 "/>
<text text-anchor="middle" x="117.2904" y="-10.8" font-family="Times,serif" font-size="14.00" fill="#0058ad">[:r 1790 []]</text>
<polyline fill="none" stroke="#0058ad" points="156.3872,-.5 156.3872,-29.5 "/>
<text text-anchor="middle" x="195.484" y="-10.8" font-family="Times,serif" font-size="14.00" fill="#0058ad">[:r 1792 []]</text>
<polyline fill="none" stroke="#0058ad" points="234.5808,-.5 234.5808,-29.5 "/>
<text text-anchor="middle" x="273.6776" y="-10.8" font-family="Times,serif" font-size="14.00" fill="#0058ad">[:r 1790 []]</text>
<polyline fill="none" stroke="#0058ad" points="312.7744,-.5 312.7744,-29.5 "/>
<text text-anchor="middle" x="368.5949" y="-10.8" font-family="Times,serif" font-size="14.00" fill="#0058ad">[:append 1789 6]</text>
<polyline fill="none" stroke="#0058ad" points="424.4154,-.5 424.4154,-29.5 "/>
<text text-anchor="middle" x="463.5122" y="-10.8" font-family="Times,serif" font-size="14.00" fill="#0058ad">[:r 1792 []]</text>
<polyline fill="none" stroke="#0058ad" points="502.609,-.5 502.609,-29.5 "/>
<text text-anchor="middle" x="558.4295" y="-10.8" font-family="Times,serif" font-size="14.00" fill="#0058ad">[:append 1790 1]</text>
</g>
<!-- T10168&#45;&gt;T10169 -->
<g id="edge1" class="edge">
<title>T10168:f0&#45;&gt;T10169:f4</title>
<path fill="none" stroke="#5b00c0" d="M154.125,-82.8C154.125,-70.7771 138.849,-75.7712 133.9314,-64.8 130.8774,-57.9865 128.858,-53.4783 133.9314,-48 149.6903,-30.9834 322.3917,-50.6067 360.6495,-36.8706"/>
<polygon fill="#5b00c0" stroke="#5b00c0" points="363.1307,-39.3439 368.125,-30 358.3939,-34.19 363.1307,-39.3439"/>
<text text-anchor="middle" x="193.2218" y="-52.2" font-family="Times,serif" font-size="14.00" fill="#5b00c0">T10168 (rw) T10169</text>
</g>
<!-- T10169&#45;&gt;T10168 -->
<g id="edge2" class="edge">
<title>T10169:f0&#45;&gt;T10168:f1</title>
<path fill="none" stroke="#5b00c0" d="M39.125,-30C39.125,-53.751 236.0531,-30.5127 252.125,-48 260.0563,-56.6298 255.9667,-63.2828 253.5206,-72.7302"/>
<polygon fill="#5b00c0" stroke="#5b00c0" points="250.031,-72.4142 252.125,-82.8 256.9648,-73.3752 250.031,-72.4142"/>
<text text-anchor="middle" x="316.2218" y="-52.2" font-family="Times,serif" font-size="14.00" fill="#5b00c0">T10169 (rw) T10168</text>
</g>
</g>
</svg>
