<?xml version="1.0" encoding="UTF-8" standalone="no"?>
<!DOCTYPE svg PUBLIC "-//W3C//DTD SVG 1.1//EN"
 "http://www.w3.org/Graphics/SVG/1.1/DTD/svg11.dtd">
<!-- Generated by graphviz version 2.43.0 (0)
 -->
<!-- Title: a_graph Pages: 1 -->
<svg width="3005pt" height="119pt"
 viewBox="0.00 0.00 3005.00 119.00" xmlns="http://www.w3.org/2000/svg" xmlns:xlink="http://www.w3.org/1999/xlink">
<g id="graph0" class="graph" transform="scale(1 1) rotate(0) translate(4 115)">
<title>a_graph</title>
<polygon fill="white" stroke="transparent" points="-4,4 -4,-115 3001,-115 3001,4 -4,4"/>
<!-- T4677 -->
<g id="node1" class="node">
<title>T4677</title>
<polygon fill="none" stroke="#0058ad" points="0,-81.5 0,-110.5 2997,-110.5 2997,-81.5 0,-81.5"/>
<text text-anchor="middle" x="194.5" y="-92.3" font-family="Times,serif" font-size="14.00" fill="#0058ad">r 178 [1 2 3 4 5 6 7 8 9 10 11 12 13 14 15 16 17 18]</text>
<polyline fill="none" stroke="#0058ad" points="389,-81.5 389,-110.5 "/>
<text text-anchor="middle" x="583.5" y="-92.3" font-family="Times,serif" font-size="14.00" fill="#0058ad">r 178 [1 2 3 4 5 6 7 8 9 10 11 12 13 14 15 16 17 18]</text>
<polyline fill="none" stroke="#0058ad" points="778,-81.5 778,-110.5 "/>
<text text-anchor="middle" x="1101" y="-92.3" font-family="Times,serif" font-size="14.00" fill="#0058ad">r 176 [1 2 3 4 5 7 8 9 10 11 12 13 14 15 16 17 18 19 20 21 22 23 24 25 26 27 28 29 30]</text>
<polyline fill="none" stroke="#0058ad" points="1424,-81.5 1424,-110.5 "/>
<text text-anchor="middle" x="1463.5" y="-92.3" font-family="Times,serif" font-size="14.00" fill="#0058ad">a 179 28</text>
<polyline fill="none" stroke="#0058ad" points="1503,-81.5 1503,-110.5 "/>
<text text-anchor="middle" x="1542.5" y="-92.3" font-family="Times,serif" font-size="14.00" fill="#0058ad">a 179 29</text>
<polyline fill="none" stroke="#0058ad" points="1582,-81.5 1582,-110.5 "/>
<text text-anchor="middle" x="1900.5" y="-92.3" font-family="Times,serif" font-size="14.00" fill="#0058ad">r 179 [1 2 3 4 5 6 7 8 9 10 11 12 13 14 15 16 17 18 19 20 21 22 23 24 25 26 27 28 29]</text>
<polyline fill="none" stroke="#0058ad" points="2219,-81.5 2219,-110.5 "/>
<text text-anchor="middle" x="2413.5" y="-92.3" font-family="Times,serif" font-size="14.00" fill="#0058ad">r 178 [1 2 3 4 5 6 7 8 9 10 11 12 13 14 15 16 17 18]</text>
<polyline fill="none" stroke="#0058ad" points="2608,-81.5 2608,-110.5 "/>
<text text-anchor="middle" x="2802.5" y="-92.3" font-family="Times,serif" font-size="14.00" fill="#0058ad">r 178 [1 2 3 4 5 6 7 8 9 10 11 12 13 14 15 16 17 18]</text>
</g>
<!-- T4676 -->
<g id="node2" class="node">
<title>T4676</title>
<polygon fill="none" stroke="#0058ad" points="738.5,-0.5 738.5,-29.5 2080.5,-29.5 2080.5,-0.5 738.5,-0.5"/>
<text text-anchor="middle" x="1034.5" y="-11.3" font-family="Times,serif" font-size="14.00" fill="#0058ad">r 179 [1 2 3 4 5 6 7 8 9 10 11 12 13 14 15 16 17 18 19 20 21 22 23 24 25 26 27]</text>
<polyline fill="none" stroke="#0058ad" points="1330.5,-0.5 1330.5,-29.5 "/>
<text text-anchor="middle" x="1370" y="-11.3" font-family="Times,serif" font-size="14.00" fill="#0058ad">a 176 31</text>
<polyline fill="none" stroke="#0058ad" points="1409.5,-0.5 1409.5,-29.5 "/>
<text text-anchor="middle" x="1449" y="-11.3" font-family="Times,serif" font-size="14.00" fill="#0058ad">a 178 19</text>
<polyline fill="none" stroke="#0058ad" points="1488.5,-0.5 1488.5,-29.5 "/>
<text text-anchor="middle" x="1784.5" y="-11.3" font-family="Times,serif" font-size="14.00" fill="#0058ad">r 179 [1 2 3 4 5 6 7 8 9 10 11 12 13 14 15 16 17 18 19 20 21 22 23 24 25 26 27]</text>
</g>
<!-- T4677&#45;&gt;T4676 -->
<g id="edge1" class="edge">
<title>T4677:f2&#45;&gt;T4676:f1</title>
<path fill="none" stroke="#5b00c0" d="M1100.5,-81C1100.5,-7.52 1190.26,-61.43 1262.5,-48 1282.5,-44.28 1344.93,-51.19 1363.94,-38.96"/>
<polygon fill="#5b00c0" stroke="#5b00c0" points="1367.2,-40.34 1369.5,-30 1361.25,-36.65 1367.2,-40.34"/>
<text text-anchor="middle" x="1272" y="-51.8" font-family="Times,serif" font-size="14.00" fill="#5b00c0">rw</text>
</g>
<!-- T4676&#45;&gt;T4677 -->
<g id="edge2" class="edge">
<title>T4676:f0&#45;&gt;T4677:f3</title>
<path fill="none" stroke="#5b00c0" d="M1034.5,-30C1034.5,-43.76 1267.85,-46.27 1281.5,-48 1359.39,-57.87 1454.51,-4 1462.9,-70.76"/>
<polygon fill="#5b00c0" stroke="#5b00c0" points="1459.42,-71.22 1463.5,-81 1466.41,-70.81 1459.42,-71.22"/>
<text text-anchor="middle" x="1470" y="-51.8" font-family="Times,serif" font-size="14.00" fill="#5b00c0">rw</text>
</g>
</g>
</svg>
