<?xml version="1.0" encoding="UTF-8" standalone="no"?>
<!DOCTYPE svg PUBLIC "-//W3C//DTD SVG 1.1//EN"
 "http://www.w3.org/Graphics/SVG/1.1/DTD/svg11.dtd">
<!-- Generated by graphviz version 2.43.0 (0)
 -->
<!-- Title: a_graph Pages: 1 -->
<svg width="2164pt" height="119pt"
 viewBox="0.00 0.00 2163.50 119.00" xmlns="http://www.w3.org/2000/svg" xmlns:xlink="http://www.w3.org/1999/xlink">
<g id="graph0" class="graph" transform="scale(1 1) rotate(0) translate(4 115)">
<title>a_graph</title>
<polygon fill="white" stroke="transparent" points="-4,4 -4,-115 2159.5,-115 2159.5,4 -4,4"/>
<!-- T5271 -->
<g id="node1" class="node">
<title>T5271</title>
<polygon fill="none" stroke="#0058ad" points="170.5,-81.5 170.5,-110.5 2155.5,-110.5 2155.5,-81.5 170.5,-81.5"/>
<text text-anchor="middle" x="399" y="-92.3" font-family="Times,serif" font-size="14.00" fill="#0058ad">r 202 [1 2 3 4 5 6 7 8 9 10 11 12 13 14 15 16 17 18 19 20 21]</text>
<polyline fill="none" stroke="#0058ad" points="627.5,-81.5 627.5,-110.5 "/>
<text text-anchor="middle" x="667" y="-92.3" font-family="Times,serif" font-size="14.00" fill="#0058ad">a 202 22</text>
<polyline fill="none" stroke="#0058ad" points="706.5,-81.5 706.5,-110.5 "/>
<text text-anchor="middle" x="923.5" y="-92.3" font-family="Times,serif" font-size="14.00" fill="#0058ad">r 203 [1 2 3 4 5 6 7 8 9 10 11 12 13 14 15 16 17 18 19 20]</text>
<polyline fill="none" stroke="#0058ad" points="1140.5,-81.5 1140.5,-110.5 "/>
<text text-anchor="middle" x="1357.5" y="-92.3" font-family="Times,serif" font-size="14.00" fill="#0058ad">r 203 [1 2 3 4 5 6 7 8 9 10 11 12 13 14 15 16 17 18 19 20]</text>
<polyline fill="none" stroke="#0058ad" points="1574.5,-81.5 1574.5,-110.5 "/>
<text text-anchor="middle" x="1614" y="-92.3" font-family="Times,serif" font-size="14.00" fill="#0058ad">a 202 23</text>
<polyline fill="none" stroke="#0058ad" points="1653.5,-81.5 1653.5,-110.5 "/>
<text text-anchor="middle" x="1904.5" y="-92.3" font-family="Times,serif" font-size="14.00" fill="#0058ad">r 202 [1 2 3 4 5 6 7 8 9 10 11 12 13 14 15 16 17 18 19 20 21 22 23]</text>
</g>
<!-- T5273 -->
<g id="node2" class="node">
<title>T5273</title>
<polygon fill="none" stroke="#0058ad" points="0,-0.5 0,-29.5 1884,-29.5 1884,-0.5 0,-0.5"/>
<text text-anchor="middle" x="217" y="-11.3" font-family="Times,serif" font-size="14.00" fill="#0058ad">r 203 [1 2 3 4 5 6 7 8 9 10 11 12 13 14 15 16 17 18 19 20]</text>
<polyline fill="none" stroke="#0058ad" points="434,-0.5 434,-29.5 "/>
<text text-anchor="middle" x="662.5" y="-11.3" font-family="Times,serif" font-size="14.00" fill="#0058ad">r 202 [1 2 3 4 5 6 7 8 9 10 11 12 13 14 15 16 17 18 19 20 21]</text>
<polyline fill="none" stroke="#0058ad" points="891,-0.5 891,-29.5 "/>
<text text-anchor="middle" x="930.5" y="-11.3" font-family="Times,serif" font-size="14.00" fill="#0058ad">a 203 21</text>
<polyline fill="none" stroke="#0058ad" points="970,-0.5 970,-29.5 "/>
<text text-anchor="middle" x="1198.5" y="-11.3" font-family="Times,serif" font-size="14.00" fill="#0058ad">r 203 [1 2 3 4 5 6 7 8 9 10 11 12 13 14 15 16 17 18 19 20 21]</text>
<polyline fill="none" stroke="#0058ad" points="1427,-0.5 1427,-29.5 "/>
<text text-anchor="middle" x="1655.5" y="-11.3" font-family="Times,serif" font-size="14.00" fill="#0058ad">r 202 [1 2 3 4 5 6 7 8 9 10 11 12 13 14 15 16 17 18 19 20 21]</text>
</g>
<!-- T5271&#45;&gt;T5273 -->
<g id="edge1" class="edge">
<title>T5271:f2&#45;&gt;T5273:f2</title>
<path fill="none" stroke="#5b00c0" d="M923,-81C923,-61.87 927.89,-55.07 929.5,-39.99"/>
<polygon fill="#5b00c0" stroke="#5b00c0" points="932.99,-40.16 930,-30 926,-39.81 932.99,-40.16"/>
<text text-anchor="middle" x="938.5" y="-51.8" font-family="Times,serif" font-size="14.00" fill="#5b00c0">rw</text>
</g>
<!-- T5273&#45;&gt;T5271 -->
<g id="edge2" class="edge">
<title>T5273:f1&#45;&gt;T5271:f1</title>
<path fill="none" stroke="#5b00c0" d="M662,-30C662,-48.86 665.43,-55.84 666.61,-70.62"/>
<polygon fill="#5b00c0" stroke="#5b00c0" points="663.12,-71.14 667,-81 670.12,-70.87 663.12,-71.14"/>
<text text-anchor="middle" x="675.5" y="-51.8" font-family="Times,serif" font-size="14.00" fill="#5b00c0">rw</text>
</g>
</g>
</svg>
