<?xml version="1.0" encoding="UTF-8" standalone="no"?>
<!DOCTYPE svg PUBLIC "-//W3C//DTD SVG 1.1//EN"
 "http://www.w3.org/Graphics/SVG/1.1/DTD/svg11.dtd">
<!-- Generated by graphviz version 2.43.0 (0)
 -->
<!-- Title: a_graph Pages: 1 -->
<svg width="1479pt" height="119pt"
 viewBox="0.00 0.00 1479.00 119.00" xmlns="http://www.w3.org/2000/svg" xmlns:xlink="http://www.w3.org/1999/xlink">
<g id="graph0" class="graph" transform="scale(1 1) rotate(0) translate(4 115)">
<title>a_graph</title>
<polygon fill="white" stroke="transparent" points="-4,4 -4,-115 1475,-115 1475,4 -4,4"/>
<!-- T2239 -->
<g id="node1" class="node">
<title>T2239</title>
<polygon fill="none" stroke="#0058ad" points="203.5,-81.5 203.5,-110.5 1365.5,-110.5 1365.5,-81.5 203.5,-81.5"/>
<text text-anchor="middle" x="238.5" y="-92.3" font-family="Times,serif" font-size="14.00" fill="#0058ad">a 85 17</text>
<polyline fill="none" stroke="#0058ad" points="273.5,-81.5 273.5,-110.5 "/>
<text text-anchor="middle" x="308.5" y="-92.3" font-family="Times,serif" font-size="14.00" fill="#0058ad">a 85 18</text>
<polyline fill="none" stroke="#0058ad" points="343.5,-81.5 343.5,-110.5 "/>
<text text-anchor="middle" x="587.5" y="-92.3" font-family="Times,serif" font-size="14.00" fill="#0058ad">r 83 [1 2 3 4 5 6 7 10 11 12 13 14 15 16 17 18 19 24 25 26 27 28]</text>
<polyline fill="none" stroke="#0058ad" points="831.5,-81.5 831.5,-110.5 "/>
<text text-anchor="middle" x="862" y="-92.3" font-family="Times,serif" font-size="14.00" fill="#0058ad">r 86 []</text>
<polyline fill="none" stroke="#0058ad" points="892.5,-81.5 892.5,-110.5 "/>
<text text-anchor="middle" x="927.5" y="-92.3" font-family="Times,serif" font-size="14.00" fill="#0058ad">a 85 19</text>
<polyline fill="none" stroke="#0058ad" points="962.5,-81.5 962.5,-110.5 "/>
<text text-anchor="middle" x="1164" y="-92.3" font-family="Times,serif" font-size="14.00" fill="#0058ad">r 85 [1 2 3 4 5 6 7 8 9 10 11 12 13 14 15 16 17 18 19]</text>
</g>
<!-- T2238 -->
<g id="node2" class="node">
<title>T2238</title>
<polygon fill="none" stroke="#0058ad" points="0,-0.5 0,-29.5 1471,-29.5 1471,-0.5 0,-0.5"/>
<text text-anchor="middle" x="167.5" y="-11.3" font-family="Times,serif" font-size="14.00" fill="#0058ad">r 85 [1 2 3 4 5 6 7 8 9 10 11 12 13 14 15 16]</text>
<polyline fill="none" stroke="#0058ad" points="335,-0.5 335,-29.5 "/>
<text text-anchor="middle" x="502.5" y="-11.3" font-family="Times,serif" font-size="14.00" fill="#0058ad">r 85 [1 2 3 4 5 6 7 8 9 10 11 12 13 14 15 16]</text>
<polyline fill="none" stroke="#0058ad" points="670,-0.5 670,-29.5 "/>
<text text-anchor="middle" x="705" y="-11.3" font-family="Times,serif" font-size="14.00" fill="#0058ad">a 83 29</text>
<polyline fill="none" stroke="#0058ad" points="740,-0.5 740,-29.5 "/>
<text text-anchor="middle" x="907.5" y="-11.3" font-family="Times,serif" font-size="14.00" fill="#0058ad">r 85 [1 2 3 4 5 6 7 8 9 10 11 12 13 14 15 16]</text>
<polyline fill="none" stroke="#0058ad" points="1075,-0.5 1075,-29.5 "/>
<text text-anchor="middle" x="1105.5" y="-11.3" font-family="Times,serif" font-size="14.00" fill="#0058ad">r 86 []</text>
<polyline fill="none" stroke="#0058ad" points="1136,-0.5 1136,-29.5 "/>
<text text-anchor="middle" x="1303.5" y="-11.3" font-family="Times,serif" font-size="14.00" fill="#0058ad">r 85 [1 2 3 4 5 6 7 8 9 10 11 12 13 14 15 16]</text>
</g>
<!-- T2239&#45;&gt;T2238 -->
<g id="edge1" class="edge">
<title>T2239:f2&#45;&gt;T2238:f2</title>
<path fill="none" stroke="#5b00c0" d="M587.5,-81C587.5,-28.26 688.63,-78.53 702.85,-40.28"/>
<polygon fill="#5b00c0" stroke="#5b00c0" points="706.37,-40.43 704.5,-30 699.46,-39.32 706.37,-40.43"/>
<text text-anchor="middle" x="706" y="-51.8" font-family="Times,serif" font-size="14.00" fill="#5b00c0">rw</text>
</g>
<!-- T2238&#45;&gt;T2239 -->
<g id="edge2" class="edge">
<title>T2238:f0&#45;&gt;T2239:f0</title>
<path fill="none" stroke="#5b00c0" d="M167.5,-30C167.5,-59.44 168.91,-88.56 192.38,-94.78"/>
<polygon fill="#5b00c0" stroke="#5b00c0" points="192.15,-98.28 202.5,-96 192.99,-91.33 192.15,-98.28"/>
<text text-anchor="middle" x="179" y="-51.8" font-family="Times,serif" font-size="14.00" fill="#5b00c0">rw</text>
</g>
</g>
</svg>
