<?xml version="1.0" encoding="UTF-8" standalone="no"?>
<!DOCTYPE svg PUBLIC "-//W3C//DTD SVG 1.1//EN"
 "http://www.w3.org/Graphics/SVG/1.1/DTD/svg11.dtd">
<!-- Generated by graphviz version 2.43.0 (0)
 -->
<!-- Title: a_graph Pages: 1 -->
<svg width="926pt" height="119pt"
 viewBox="0.00 0.00 925.50 119.00" xmlns="http://www.w3.org/2000/svg" xmlns:xlink="http://www.w3.org/1999/xlink">
<g id="graph0" class="graph" transform="scale(1 1) rotate(0) translate(4 115)">
<title>a_graph</title>
<polygon fill="white" stroke="transparent" points="-4,4 -4,-115 921.5,-115 921.5,4 -4,4"/>
<!-- T604 -->
<g id="node1" class="node">
<title>T604</title>
<polygon fill="none" stroke="#0058ad" points="0,-81.5 0,-110.5 915,-110.5 915,-81.5 0,-81.5"/>
<text text-anchor="middle" x="190" y="-92.3" font-family="Times,serif" font-size="14.00" fill="#0058ad">r 22 [1 2 3 4 5 6 7 8 9 10 11 12 13 14 15 16 17 19]</text>
<polyline fill="none" stroke="#0058ad" points="380,-81.5 380,-110.5 "/>
<text text-anchor="middle" x="415" y="-92.3" font-family="Times,serif" font-size="14.00" fill="#0058ad">a 22 21</text>
<polyline fill="none" stroke="#0058ad" points="450,-81.5 450,-110.5 "/>
<text text-anchor="middle" x="485" y="-92.3" font-family="Times,serif" font-size="14.00" fill="#0058ad">a 22 22</text>
<polyline fill="none" stroke="#0058ad" points="520,-81.5 520,-110.5 "/>
<text text-anchor="middle" x="582" y="-92.3" font-family="Times,serif" font-size="14.00" fill="#0058ad">r 23 [1 2 3 5 7]</text>
<polyline fill="none" stroke="#0058ad" points="644,-81.5 644,-110.5 "/>
<text text-anchor="middle" x="674.5" y="-92.3" font-family="Times,serif" font-size="14.00" fill="#0058ad">r 25 []</text>
<polyline fill="none" stroke="#0058ad" points="705,-81.5 705,-110.5 "/>
<text text-anchor="middle" x="740" y="-92.3" font-family="Times,serif" font-size="14.00" fill="#0058ad">a 22 23</text>
<polyline fill="none" stroke="#0058ad" points="775,-81.5 775,-110.5 "/>
<text text-anchor="middle" x="810" y="-92.3" font-family="Times,serif" font-size="14.00" fill="#0058ad">a 22 24</text>
<polyline fill="none" stroke="#0058ad" points="845,-81.5 845,-110.5 "/>
<text text-anchor="middle" x="880" y="-92.3" font-family="Times,serif" font-size="14.00" fill="#0058ad">a 22 25</text>
</g>
<!-- T605 -->
<g id="node2" class="node">
<title>T605</title>
<polygon fill="none" stroke="#0058ad" points="35.5,-0.5 35.5,-29.5 917.5,-29.5 917.5,-0.5 35.5,-0.5"/>
<text text-anchor="middle" x="66" y="-11.3" font-family="Times,serif" font-size="14.00" fill="#0058ad">r 25 []</text>
<polyline fill="none" stroke="#0058ad" points="96.5,-0.5 96.5,-29.5 "/>
<text text-anchor="middle" x="286.5" y="-11.3" font-family="Times,serif" font-size="14.00" fill="#0058ad">r 22 [1 2 3 4 5 6 7 8 9 10 11 12 13 14 15 16 17 19]</text>
<polyline fill="none" stroke="#0058ad" points="476.5,-0.5 476.5,-29.5 "/>
<text text-anchor="middle" x="666.5" y="-11.3" font-family="Times,serif" font-size="14.00" fill="#0058ad">r 22 [1 2 3 4 5 6 7 8 9 10 11 12 13 14 15 16 17 19]</text>
<polyline fill="none" stroke="#0058ad" points="856.5,-0.5 856.5,-29.5 "/>
<text text-anchor="middle" x="887" y="-11.3" font-family="Times,serif" font-size="14.00" fill="#0058ad">a 25 1</text>
</g>
<!-- T604&#45;&gt;T605 -->
<g id="edge1" class="edge">
<title>T604:f4&#45;&gt;T605:f3</title>
<path fill="none" stroke="#5b00c0" d="M674.5,-81C674.5,12.54 871.18,-116.48 886.55,-40.33"/>
<polygon fill="#5b00c0" stroke="#5b00c0" points="890.07,-40.28 887.5,-30 883.1,-39.64 890.07,-40.28"/>
<text text-anchor="middle" x="893" y="-51.8" font-family="Times,serif" font-size="14.00" fill="#5b00c0">rw</text>
</g>
<!-- T605&#45;&gt;T604 -->
<g id="edge2" class="edge">
<title>T605:f1&#45;&gt;T604:f1</title>
<path fill="none" stroke="#5b00c0" d="M286.5,-30C286.5,-87.41 399,-28.18 413.06,-71.01"/>
<polygon fill="#5b00c0" stroke="#5b00c0" points="409.61,-71.6 414.5,-81 416.54,-70.6 409.61,-71.6"/>
<text text-anchor="middle" x="417" y="-51.8" font-family="Times,serif" font-size="14.00" fill="#5b00c0">rw</text>
</g>
</g>
</svg>
