<?xml version="1.0" encoding="UTF-8" standalone="no"?>
<!DOCTYPE svg PUBLIC "-//W3C//DTD SVG 1.1//EN"
 "http://www.w3.org/Graphics/SVG/1.1/DTD/svg11.dtd">
<!-- Generated by graphviz version 2.43.0 (0)
 -->
<!-- Title: a_graph Pages: 1 -->
<svg width="891pt" height="119pt"
 viewBox="0.00 0.00 891.00 119.00" xmlns="http://www.w3.org/2000/svg" xmlns:xlink="http://www.w3.org/1999/xlink">
<g id="graph0" class="graph" transform="scale(1 1) rotate(0) translate(4 115)">
<title>a_graph</title>
<polygon fill="white" stroke="transparent" points="-4,4 -4,-115 887,-115 887,4 -4,4"/>
<!-- T2021 -->
<g id="node1" class="node">
<title>T2021</title>
<polygon fill="none" stroke="#0058ad" points="0,-81.5 0,-110.5 883,-110.5 883,-81.5 0,-81.5"/>
<text text-anchor="middle" x="35" y="-92.3" font-family="Times,serif" font-size="14.00" fill="#0058ad">a 78 10</text>
<polyline fill="none" stroke="#0058ad" points="70,-81.5 70,-110.5 "/>
<text text-anchor="middle" x="105" y="-92.3" font-family="Times,serif" font-size="14.00" fill="#0058ad">a 78 11</text>
<polyline fill="none" stroke="#0058ad" points="140,-81.5 140,-110.5 "/>
<text text-anchor="middle" x="476.5" y="-92.3" font-family="Times,serif" font-size="14.00" fill="#0058ad">r 76 [1 2 3 4 5 6 7 8 9 10 11 12 13 14 15 16 17 18 19 20 21 22 23 24 25 26 27 28 29 30 31]</text>
<polyline fill="none" stroke="#0058ad" points="813,-81.5 813,-110.5 "/>
<text text-anchor="middle" x="848" y="-92.3" font-family="Times,serif" font-size="14.00" fill="#0058ad">r 77 [1]</text>
</g>
<!-- T2020 -->
<g id="node2" class="node">
<title>T2020</title>
<polygon fill="none" stroke="#0058ad" points="158,-0.5 158,-29.5 467,-29.5 467,-0.5 158,-0.5"/>
<text text-anchor="middle" x="193" y="-11.3" font-family="Times,serif" font-size="14.00" fill="#0058ad">a 76 32</text>
<polyline fill="none" stroke="#0058ad" points="228,-0.5 228,-29.5 "/>
<text text-anchor="middle" x="317" y="-11.3" font-family="Times,serif" font-size="14.00" fill="#0058ad">r 78 [1 2 3 4 5 6 7 8 9]</text>
<polyline fill="none" stroke="#0058ad" points="406,-0.5 406,-29.5 "/>
<text text-anchor="middle" x="436.5" y="-11.3" font-family="Times,serif" font-size="14.00" fill="#0058ad">a 77 2</text>
</g>
<!-- T2021&#45;&gt;T2020 -->
<g id="edge1" class="edge">
<title>T2021:f2&#45;&gt;T2020:f0</title>
<path fill="none" stroke="#5b00c0" d="M476.5,-81C476.5,43.61 208.36,-146.87 193.17,-40.11"/>
<polygon fill="#5b00c0" stroke="#5b00c0" points="196.65,-39.75 192.5,-30 189.67,-40.21 196.65,-39.75"/>
<text text-anchor="middle" x="483" y="-51.8" font-family="Times,serif" font-size="14.00" fill="#5b00c0">rw</text>
</g>
<!-- T2020&#45;&gt;T2021 -->
<g id="edge2" class="edge">
<title>T2020:f1&#45;&gt;T2021:f0</title>
<path fill="none" stroke="#5b00c0" d="M317.5,-30C317.5,-46.35 187.58,-45.08 171.5,-48 113.49,-58.53 43.29,-22.97 35.26,-71.02"/>
<polygon fill="#5b00c0" stroke="#5b00c0" points="31.77,-70.76 34.5,-81 38.75,-71.29 31.77,-70.76"/>
<text text-anchor="middle" x="181" y="-51.8" font-family="Times,serif" font-size="14.00" fill="#5b00c0">rw</text>
</g>
</g>
</svg>
