<?xml version="1.0" encoding="UTF-8" standalone="no"?>
<!DOCTYPE svg PUBLIC "-//W3C//DTD SVG 1.1//EN"
 "http://www.w3.org/Graphics/SVG/1.1/DTD/svg11.dtd">
<!-- Generated by graphviz version 2.43.0 (0)
 -->
<!-- Title: a_graph Pages: 1 -->
<svg width="920pt" height="119pt"
 viewBox="0.00 0.00 920.00 119.00" xmlns="http://www.w3.org/2000/svg" xmlns:xlink="http://www.w3.org/1999/xlink">
<g id="graph0" class="graph" transform="scale(1 1) rotate(0) translate(4 115)">
<title>a_graph</title>
<polygon fill="white" stroke="transparent" points="-4,4 -4,-115 916,-115 916,4 -4,4"/>
<!-- T5371 -->
<g id="node1" class="node">
<title>T5371</title>
<polygon fill="none" stroke="#0058ad" points="53.5,-81.5 53.5,-110.5 790.5,-110.5 790.5,-81.5 53.5,-81.5"/>
<text text-anchor="middle" x="99.5" y="-92.3" font-family="Times,serif" font-size="14.00" fill="#0058ad">r 207 [1 2]</text>
<polyline fill="none" stroke="#0058ad" points="145.5,-81.5 145.5,-110.5 "/>
<text text-anchor="middle" x="180.5" y="-92.3" font-family="Times,serif" font-size="14.00" fill="#0058ad">a 207 3</text>
<polyline fill="none" stroke="#0058ad" points="215.5,-81.5 215.5,-110.5 "/>
<text text-anchor="middle" x="250.5" y="-92.3" font-family="Times,serif" font-size="14.00" fill="#0058ad">a 207 4</text>
<polyline fill="none" stroke="#0058ad" points="285.5,-81.5 285.5,-110.5 "/>
<text text-anchor="middle" x="320.5" y="-92.3" font-family="Times,serif" font-size="14.00" fill="#0058ad">a 207 5</text>
<polyline fill="none" stroke="#0058ad" points="355.5,-81.5 355.5,-110.5 "/>
<text text-anchor="middle" x="395" y="-92.3" font-family="Times,serif" font-size="14.00" fill="#0058ad">a 206 12</text>
<polyline fill="none" stroke="#0058ad" points="434.5,-81.5 434.5,-110.5 "/>
<text text-anchor="middle" x="474" y="-92.3" font-family="Times,serif" font-size="14.00" fill="#0058ad">a 206 13</text>
<polyline fill="none" stroke="#0058ad" points="513.5,-81.5 513.5,-110.5 "/>
<text text-anchor="middle" x="652" y="-92.3" font-family="Times,serif" font-size="14.00" fill="#0058ad">r 204 [1 2 3 4 5 6 7 8 9 11 12 13 14]</text>
</g>
<!-- T5368 -->
<g id="node2" class="node">
<title>T5368</title>
<polygon fill="none" stroke="#0058ad" points="0,-0.5 0,-29.5 912,-29.5 912,-0.5 0,-0.5"/>
<text text-anchor="middle" x="46" y="-11.3" font-family="Times,serif" font-size="14.00" fill="#0058ad">r 207 [1 2]</text>
<polyline fill="none" stroke="#0058ad" points="92,-0.5 92,-29.5 "/>
<text text-anchor="middle" x="208" y="-11.3" font-family="Times,serif" font-size="14.00" fill="#0058ad">r 206 [1 2 3 4 5 6 7 8 9 10 11]</text>
<polyline fill="none" stroke="#0058ad" points="324,-0.5 324,-29.5 "/>
<text text-anchor="middle" x="462.5" y="-11.3" font-family="Times,serif" font-size="14.00" fill="#0058ad">r 204 [1 2 3 4 5 6 7 8 9 11 12 13 14]</text>
<polyline fill="none" stroke="#0058ad" points="601,-0.5 601,-29.5 "/>
<text text-anchor="middle" x="717" y="-11.3" font-family="Times,serif" font-size="14.00" fill="#0058ad">r 206 [1 2 3 4 5 6 7 8 9 10 11]</text>
<polyline fill="none" stroke="#0058ad" points="833,-0.5 833,-29.5 "/>
<text text-anchor="middle" x="872.5" y="-11.3" font-family="Times,serif" font-size="14.00" fill="#0058ad">a 204 15</text>
</g>
<!-- T5371&#45;&gt;T5368 -->
<g id="edge1" class="edge">
<title>T5371:f6&#45;&gt;T5368:f4</title>
<path fill="none" stroke="#5b00c0" d="M792,-96C834.81,-96 867.53,-79.37 872.38,-40.4"/>
<polygon fill="#5b00c0" stroke="#5b00c0" points="875.9,-40.19 873,-30 868.91,-39.77 875.9,-40.19"/>
<text text-anchor="middle" x="879.5" y="-51.8" font-family="Times,serif" font-size="14.00" fill="#5b00c0">rw</text>
</g>
<!-- T5368&#45;&gt;T5371 -->
<g id="edge2" class="edge">
<title>T5368:f0&#45;&gt;T5371:f1</title>
<path fill="none" stroke="#5b00c0" d="M46,-30C46,-89.86 164.26,-26.02 178.59,-70.9"/>
<polygon fill="#5b00c0" stroke="#5b00c0" points="175.15,-71.58 180,-81 182.08,-70.61 175.15,-71.58"/>
<text text-anchor="middle" x="182.5" y="-51.8" font-family="Times,serif" font-size="14.00" fill="#5b00c0">rw</text>
</g>
</g>
</svg>
