<?xml version="1.0" encoding="UTF-8" standalone="no"?>
<!DOCTYPE svg PUBLIC "-//W3C//DTD SVG 1.1//EN"
 "http://www.w3.org/Graphics/SVG/1.1/DTD/svg11.dtd">
<!-- Generated by graphviz version 2.43.0 (0)
 -->
<!-- Title: a_graph Pages: 1 -->
<svg width="1723pt" height="119pt"
 viewBox="0.00 0.00 1723.00 119.00" xmlns="http://www.w3.org/2000/svg" xmlns:xlink="http://www.w3.org/1999/xlink">
<g id="graph0" class="graph" transform="scale(1 1) rotate(0) translate(4 115)">
<title>a_graph</title>
<polygon fill="white" stroke="transparent" points="-4,4 -4,-115 1719,-115 1719,4 -4,4"/>
<!-- T1538 -->
<g id="node1" class="node">
<title>T1538</title>
<polygon fill="none" stroke="#0058ad" points="9.5,-81.5 9.5,-110.5 443.5,-110.5 443.5,-81.5 9.5,-81.5"/>
<text text-anchor="middle" x="154.5" y="-92.3" font-family="Times,serif" font-size="14.00" fill="#0058ad">r 57 [1 2 3 4 5 6 7 8 9 10 11 12 13 14]</text>
<polyline fill="none" stroke="#0058ad" points="299.5,-81.5 299.5,-110.5 "/>
<text text-anchor="middle" x="330" y="-92.3" font-family="Times,serif" font-size="14.00" fill="#0058ad">a 59 2</text>
<polyline fill="none" stroke="#0058ad" points="360.5,-81.5 360.5,-110.5 "/>
<text text-anchor="middle" x="402" y="-92.3" font-family="Times,serif" font-size="14.00" fill="#0058ad">r 59 [1 2]</text>
</g>
<!-- T1539 -->
<g id="node2" class="node">
<title>T1539</title>
<polygon fill="none" stroke="#0058ad" points="0,-0.5 0,-29.5 1715,-29.5 1715,-0.5 0,-0.5"/>
<text text-anchor="middle" x="35" y="-11.3" font-family="Times,serif" font-size="14.00" fill="#0058ad">a 57 15</text>
<polyline fill="none" stroke="#0058ad" points="70,-0.5 70,-29.5 "/>
<text text-anchor="middle" x="105" y="-11.3" font-family="Times,serif" font-size="14.00" fill="#0058ad">a 58 24</text>
<polyline fill="none" stroke="#0058ad" points="140,-0.5 140,-29.5 "/>
<text text-anchor="middle" x="397.5" y="-11.3" font-family="Times,serif" font-size="14.00" fill="#0058ad">r 58 [1 2 3 4 5 6 7 8 9 10 11 12 13 14 15 16 17 18 19 20 21 22 23 24]</text>
<polyline fill="none" stroke="#0058ad" points="655,-0.5 655,-29.5 "/>
<text text-anchor="middle" x="690" y="-11.3" font-family="Times,serif" font-size="14.00" fill="#0058ad">r 59 [1]</text>
<polyline fill="none" stroke="#0058ad" points="725,-0.5 725,-29.5 "/>
<text text-anchor="middle" x="982.5" y="-11.3" font-family="Times,serif" font-size="14.00" fill="#0058ad">r 58 [1 2 3 4 5 6 7 8 9 10 11 12 13 14 15 16 17 18 19 20 21 22 23 24]</text>
<polyline fill="none" stroke="#0058ad" points="1240,-0.5 1240,-29.5 "/>
<text text-anchor="middle" x="1275" y="-11.3" font-family="Times,serif" font-size="14.00" fill="#0058ad">a 58 25</text>
<polyline fill="none" stroke="#0058ad" points="1310,-0.5 1310,-29.5 "/>
<text text-anchor="middle" x="1345" y="-11.3" font-family="Times,serif" font-size="14.00" fill="#0058ad">a 57 16</text>
<polyline fill="none" stroke="#0058ad" points="1380,-0.5 1380,-29.5 "/>
<text text-anchor="middle" x="1547.5" y="-11.3" font-family="Times,serif" font-size="14.00" fill="#0058ad">r 57 [1 2 3 4 5 6 7 8 9 10 11 12 13 14 15 16]</text>
</g>
<!-- T1538&#45;&gt;T1539 -->
<g id="edge1" class="edge">
<title>T1538:f0&#45;&gt;T1539:f0</title>
<path fill="none" stroke="#5b00c0" d="M154.5,-81C154.5,-26.9 49.91,-79.87 36.02,-39.99"/>
<polygon fill="#5b00c0" stroke="#5b00c0" points="39.46,-39.36 34.5,-30 32.54,-40.41 39.46,-39.36"/>
<text text-anchor="middle" x="156" y="-51.8" font-family="Times,serif" font-size="14.00" fill="#5b00c0">rw</text>
</g>
<!-- T1539&#45;&gt;T1538 -->
<g id="edge2" class="edge">
<title>T1539:f3&#45;&gt;T1538:f1</title>
<path fill="none" stroke="#5b00c0" d="M689.5,-30C689.5,-187.54 346.45,68.19 331.04,-70.79"/>
<polygon fill="#5b00c0" stroke="#5b00c0" points="327.53,-70.83 330.5,-81 334.52,-71.2 327.53,-70.83"/>
<text text-anchor="middle" x="695" y="-51.8" font-family="Times,serif" font-size="14.00" fill="#5b00c0">rw</text>
</g>
</g>
</svg>
