<?xml version="1.0" encoding="UTF-8" standalone="no"?>
<!DOCTYPE svg PUBLIC "-//W3C//DTD SVG 1.1//EN"
 "http://www.w3.org/Graphics/SVG/1.1/DTD/svg11.dtd">
<!-- Generated by graphviz version 2.43.0 (0)
 -->
<!-- Title: a_graph Pages: 1 -->
<svg width="2207pt" height="119pt"
 viewBox="0.00 0.00 2207.00 119.00" xmlns="http://www.w3.org/2000/svg" xmlns:xlink="http://www.w3.org/1999/xlink">
<g id="graph0" class="graph" transform="scale(1 1) rotate(0) translate(4 115)">
<title>a_graph</title>
<polygon fill="white" stroke="transparent" points="-4,4 -4,-115 2203,-115 2203,4 -4,4"/>
<!-- T1376 -->
<g id="node1" class="node">
<title>T1376</title>
<polygon fill="none" stroke="#0058ad" points="0,-81.5 0,-110.5 2199,-110.5 2199,-81.5 0,-81.5"/>
<text text-anchor="middle" x="246.5" y="-92.3" font-family="Times,serif" font-size="14.00" fill="#0058ad">r 52 [1 2 3 4 5 6 7 8 9 10 11 12 13 14 15 16 17 18 19 20 21 22 23]</text>
<polyline fill="none" stroke="#0058ad" points="493,-81.5 493,-110.5 "/>
<text text-anchor="middle" x="638" y="-92.3" font-family="Times,serif" font-size="14.00" fill="#0058ad">r 49 [1 2 3 4 5 6 7 8 9 10 11 12 13 14]</text>
<polyline fill="none" stroke="#0058ad" points="783,-81.5 783,-110.5 "/>
<text text-anchor="middle" x="818" y="-92.3" font-family="Times,serif" font-size="14.00" fill="#0058ad">a 51 23</text>
<polyline fill="none" stroke="#0058ad" points="853,-81.5 853,-110.5 "/>
<text text-anchor="middle" x="1099.5" y="-92.3" font-family="Times,serif" font-size="14.00" fill="#0058ad">r 51 [1 2 3 4 5 6 7 8 9 10 11 12 13 14 15 16 17 18 19 20 21 22 23]</text>
<polyline fill="none" stroke="#0058ad" points="1346,-81.5 1346,-110.5 "/>
<text text-anchor="middle" x="1592.5" y="-92.3" font-family="Times,serif" font-size="14.00" fill="#0058ad">r 52 [1 2 3 4 5 6 7 8 9 10 11 12 13 14 15 16 17 18 19 20 21 22 23]</text>
<polyline fill="none" stroke="#0058ad" points="1839,-81.5 1839,-110.5 "/>
<text text-anchor="middle" x="1984" y="-92.3" font-family="Times,serif" font-size="14.00" fill="#0058ad">r 49 [1 2 3 4 5 6 7 8 9 10 11 12 13 14]</text>
<polyline fill="none" stroke="#0058ad" points="2129,-81.5 2129,-110.5 "/>
<text text-anchor="middle" x="2164" y="-92.3" font-family="Times,serif" font-size="14.00" fill="#0058ad">a 51 24</text>
</g>
<!-- T1379 -->
<g id="node2" class="node">
<title>T1379</title>
<polygon fill="none" stroke="#0058ad" points="399.5,-0.5 399.5,-29.5 1909.5,-29.5 1909.5,-0.5 399.5,-0.5"/>
<text text-anchor="middle" x="434.5" y="-11.3" font-family="Times,serif" font-size="14.00" fill="#0058ad">a 52 24</text>
<polyline fill="none" stroke="#0058ad" points="469.5,-0.5 469.5,-29.5 "/>
<text text-anchor="middle" x="704.5" y="-11.3" font-family="Times,serif" font-size="14.00" fill="#0058ad">r 51 [1 2 3 4 5 6 7 8 9 10 11 12 13 14 15 16 17 18 19 20 21 22]</text>
<polyline fill="none" stroke="#0058ad" points="939.5,-0.5 939.5,-29.5 "/>
<text text-anchor="middle" x="1174.5" y="-11.3" font-family="Times,serif" font-size="14.00" fill="#0058ad">r 51 [1 2 3 4 5 6 7 8 9 10 11 12 13 14 15 16 17 18 19 20 21 22]</text>
<polyline fill="none" stroke="#0058ad" points="1409.5,-0.5 1409.5,-29.5 "/>
<text text-anchor="middle" x="1444.5" y="-11.3" font-family="Times,serif" font-size="14.00" fill="#0058ad">a 52 25</text>
<polyline fill="none" stroke="#0058ad" points="1479.5,-0.5 1479.5,-29.5 "/>
<text text-anchor="middle" x="1514.5" y="-11.3" font-family="Times,serif" font-size="14.00" fill="#0058ad">a 52 26</text>
<polyline fill="none" stroke="#0058ad" points="1549.5,-0.5 1549.5,-29.5 "/>
<text text-anchor="middle" x="1694.5" y="-11.3" font-family="Times,serif" font-size="14.00" fill="#0058ad">r 49 [1 2 3 4 5 6 7 8 9 10 11 12 13 14]</text>
<polyline fill="none" stroke="#0058ad" points="1839.5,-0.5 1839.5,-29.5 "/>
<text text-anchor="middle" x="1874.5" y="-11.3" font-family="Times,serif" font-size="14.00" fill="#0058ad">a 52 27</text>
</g>
<!-- T1376&#45;&gt;T1379 -->
<g id="edge1" class="edge">
<title>T1376:f0&#45;&gt;T1379:f0</title>
<path fill="none" stroke="#5b00c0" d="M246.5,-81C246.5,-47.12 343.97,-19.72 388.25,-15.55"/>
<polygon fill="#5b00c0" stroke="#5b00c0" points="388.7,-19.03 398.5,-15 388.33,-12.04 388.7,-19.03"/>
<text text-anchor="middle" x="286" y="-51.8" font-family="Times,serif" font-size="14.00" fill="#5b00c0">rw</text>
</g>
<!-- T1379&#45;&gt;T1376 -->
<g id="edge2" class="edge">
<title>T1379:f1&#45;&gt;T1376:f2</title>
<path fill="none" stroke="#5b00c0" d="M704.5,-30C704.5,-81.23 802.17,-33.66 815.9,-70.99"/>
<polygon fill="#5b00c0" stroke="#5b00c0" points="812.47,-71.68 817.5,-81 819.38,-70.57 812.47,-71.68"/>
<text text-anchor="middle" x="820" y="-51.8" font-family="Times,serif" font-size="14.00" fill="#5b00c0">rw</text>
</g>
</g>
</svg>
