<?xml version="1.0" encoding="UTF-8" standalone="no"?>
<!DOCTYPE svg PUBLIC "-//W3C//DTD SVG 1.1//EN"
 "http://www.w3.org/Graphics/SVG/1.1/DTD/svg11.dtd">
<!-- Generated by graphviz version 2.43.0 (0)
 -->
<!-- Title: a_graph Pages: 1 -->
<svg width="845pt" height="119pt"
 viewBox="0.00 0.00 844.50 119.00" xmlns="http://www.w3.org/2000/svg" xmlns:xlink="http://www.w3.org/1999/xlink">
<g id="graph0" class="graph" transform="scale(1 1) rotate(0) translate(4 115)">
<title>a_graph</title>
<polygon fill="white" stroke="transparent" points="-4,4 -4,-115 840.5,-115 840.5,4 -4,4"/>
<!-- T3071 -->
<g id="node1" class="node">
<title>T3071</title>
<polygon fill="none" stroke="#0058ad" points="261.5,-81.5 261.5,-110.5 836.5,-110.5 836.5,-81.5 261.5,-81.5"/>
<text text-anchor="middle" x="301" y="-92.3" font-family="Times,serif" font-size="14.00" fill="#0058ad">a 1323 2</text>
<polyline fill="none" stroke="#0058ad" points="340.5,-81.5 340.5,-110.5 "/>
<text text-anchor="middle" x="391" y="-92.3" font-family="Times,serif" font-size="14.00" fill="#0058ad">r 1325 [1 2]</text>
<polyline fill="none" stroke="#0058ad" points="441.5,-81.5 441.5,-110.5 "/>
<text text-anchor="middle" x="481" y="-92.3" font-family="Times,serif" font-size="14.00" fill="#0058ad">a 1323 3</text>
<polyline fill="none" stroke="#0058ad" points="520.5,-81.5 520.5,-110.5 "/>
<text text-anchor="middle" x="560" y="-92.3" font-family="Times,serif" font-size="14.00" fill="#0058ad">a 1326 1</text>
<polyline fill="none" stroke="#0058ad" points="599.5,-81.5 599.5,-110.5 "/>
<text text-anchor="middle" x="639" y="-92.3" font-family="Times,serif" font-size="14.00" fill="#0058ad">a 1326 2</text>
<polyline fill="none" stroke="#0058ad" points="678.5,-81.5 678.5,-110.5 "/>
<text text-anchor="middle" x="718" y="-92.3" font-family="Times,serif" font-size="14.00" fill="#0058ad">a 1320 2</text>
<polyline fill="none" stroke="#0058ad" points="757.5,-81.5 757.5,-110.5 "/>
<text text-anchor="middle" x="797" y="-92.3" font-family="Times,serif" font-size="14.00" fill="#0058ad">a 1315 1</text>
</g>
<!-- T3070 -->
<g id="node2" class="node">
<title>T3070</title>
<polygon fill="none" stroke="#0058ad" points="0,-0.5 0,-29.5 726,-29.5 726,-0.5 0,-0.5"/>
<text text-anchor="middle" x="50.5" y="-11.3" font-family="Times,serif" font-size="14.00" fill="#0058ad">r 1325 [1 2]</text>
<polyline fill="none" stroke="#0058ad" points="101,-0.5 101,-29.5 "/>
<text text-anchor="middle" x="145" y="-11.3" font-family="Times,serif" font-size="14.00" fill="#0058ad">r 1323 [1]</text>
<polyline fill="none" stroke="#0058ad" points="189,-0.5 189,-29.5 "/>
<text text-anchor="middle" x="233" y="-11.3" font-family="Times,serif" font-size="14.00" fill="#0058ad">r 1323 [1]</text>
<polyline fill="none" stroke="#0058ad" points="277,-0.5 277,-29.5 "/>
<text text-anchor="middle" x="316.5" y="-11.3" font-family="Times,serif" font-size="14.00" fill="#0058ad">r 1315 []</text>
<polyline fill="none" stroke="#0058ad" points="356,-0.5 356,-29.5 "/>
<text text-anchor="middle" x="400" y="-11.3" font-family="Times,serif" font-size="14.00" fill="#0058ad">r 1323 [1]</text>
<polyline fill="none" stroke="#0058ad" points="444,-0.5 444,-29.5 "/>
<text text-anchor="middle" x="483.5" y="-11.3" font-family="Times,serif" font-size="14.00" fill="#0058ad">a 1325 3</text>
<polyline fill="none" stroke="#0058ad" points="523,-0.5 523,-29.5 "/>
<text text-anchor="middle" x="567" y="-11.3" font-family="Times,serif" font-size="14.00" fill="#0058ad">r 1323 [1]</text>
<polyline fill="none" stroke="#0058ad" points="611,-0.5 611,-29.5 "/>
<text text-anchor="middle" x="668.5" y="-11.3" font-family="Times,serif" font-size="14.00" fill="#0058ad">r 1325 [1 2 3]</text>
</g>
<!-- T3071&#45;&gt;T3070 -->
<g id="edge1" class="edge">
<title>T3071:f1&#45;&gt;T3070:f5</title>
<path fill="none" stroke="#5b00c0" d="M391,-81C391,-37.73 469.37,-70.65 482.23,-39.88"/>
<polygon fill="#5b00c0" stroke="#5b00c0" points="485.68,-40.46 484,-30 478.79,-39.22 485.68,-40.46"/>
<text text-anchor="middle" x="483.5" y="-51.8" font-family="Times,serif" font-size="14.00" fill="#5b00c0">rw</text>
</g>
<!-- T3070&#45;&gt;T3071 -->
<g id="edge2" class="edge">
<title>T3070:f1&#45;&gt;T3071:f0</title>
<path fill="none" stroke="#5b00c0" d="M145,-30C145,-85.48 194.69,-94.99 249.68,-95.92"/>
<polygon fill="#5b00c0" stroke="#5b00c0" points="249.97,-99.42 260,-96 250.03,-92.42 249.97,-99.42"/>
<text text-anchor="middle" x="162.5" y="-51.8" font-family="Times,serif" font-size="14.00" fill="#5b00c0">rw</text>
</g>
</g>
</svg>
