<?xml version="1.0" encoding="UTF-8" standalone="no"?>
<!DOCTYPE svg PUBLIC "-//W3C//DTD SVG 1.1//EN"
 "http://www.w3.org/Graphics/SVG/1.1/DTD/svg11.dtd">
<!-- Generated by graphviz version 2.43.0 (0)
 -->
<!-- Title: a_graph Pages: 1 -->
<svg width="549pt" height="119pt"
 viewBox="0.00 0.00 548.50 119.00" xmlns="http://www.w3.org/2000/svg" xmlns:xlink="http://www.w3.org/1999/xlink">
<g id="graph0" class="graph" transform="scale(1 1) rotate(0) translate(4 115)">
<title>a_graph</title>
<polygon fill="white" stroke="transparent" points="-4,4 -4,-115 544.5,-115 544.5,4 -4,4"/>
<!-- T1176 -->
<g id="node1" class="node">
<title>T1176</title>
<polygon fill="none" stroke="#0058ad" points="0,-81.5 0,-110.5 490,-110.5 490,-81.5 0,-81.5"/>
<text text-anchor="middle" x="35" y="-92.3" font-family="Times,serif" font-size="14.00" fill="#0058ad">r 511 []</text>
<polyline fill="none" stroke="#0058ad" points="70,-81.5 70,-110.5 "/>
<text text-anchor="middle" x="105" y="-92.3" font-family="Times,serif" font-size="14.00" fill="#0058ad">a 511 1</text>
<polyline fill="none" stroke="#0058ad" points="140,-81.5 140,-110.5 "/>
<text text-anchor="middle" x="175" y="-92.3" font-family="Times,serif" font-size="14.00" fill="#0058ad">a 510 1</text>
<polyline fill="none" stroke="#0058ad" points="210,-81.5 210,-110.5 "/>
<text text-anchor="middle" x="245" y="-92.3" font-family="Times,serif" font-size="14.00" fill="#0058ad">a 511 2</text>
<polyline fill="none" stroke="#0058ad" points="280,-81.5 280,-110.5 "/>
<text text-anchor="middle" x="315" y="-92.3" font-family="Times,serif" font-size="14.00" fill="#0058ad">a 510 2</text>
<polyline fill="none" stroke="#0058ad" points="350,-81.5 350,-110.5 "/>
<text text-anchor="middle" x="385" y="-92.3" font-family="Times,serif" font-size="14.00" fill="#0058ad">r 509 []</text>
<polyline fill="none" stroke="#0058ad" points="420,-81.5 420,-110.5 "/>
<text text-anchor="middle" x="455" y="-92.3" font-family="Times,serif" font-size="14.00" fill="#0058ad">a 511 3</text>
</g>
<!-- T1177 -->
<g id="node2" class="node">
<title>T1177</title>
<polygon fill="none" stroke="#0058ad" points="19.5,-0.5 19.5,-29.5 540.5,-29.5 540.5,-0.5 19.5,-0.5"/>
<text text-anchor="middle" x="54.5" y="-11.3" font-family="Times,serif" font-size="14.00" fill="#0058ad">a 509 1</text>
<polyline fill="none" stroke="#0058ad" points="89.5,-0.5 89.5,-29.5 "/>
<text text-anchor="middle" x="124.5" y="-11.3" font-family="Times,serif" font-size="14.00" fill="#0058ad">a 509 2</text>
<polyline fill="none" stroke="#0058ad" points="159.5,-0.5 159.5,-29.5 "/>
<text text-anchor="middle" x="199" y="-11.3" font-family="Times,serif" font-size="14.00" fill="#0058ad">r 447 [1]</text>
<polyline fill="none" stroke="#0058ad" points="238.5,-0.5 238.5,-29.5 "/>
<text text-anchor="middle" x="284.5" y="-11.3" font-family="Times,serif" font-size="14.00" fill="#0058ad">r 509 [1 2]</text>
<polyline fill="none" stroke="#0058ad" points="330.5,-0.5 330.5,-29.5 "/>
<text text-anchor="middle" x="365.5" y="-11.3" font-family="Times,serif" font-size="14.00" fill="#0058ad">r 512 []</text>
<polyline fill="none" stroke="#0058ad" points="400.5,-0.5 400.5,-29.5 "/>
<text text-anchor="middle" x="435.5" y="-11.3" font-family="Times,serif" font-size="14.00" fill="#0058ad">a 512 1</text>
<polyline fill="none" stroke="#0058ad" points="470.5,-0.5 470.5,-29.5 "/>
<text text-anchor="middle" x="505.5" y="-11.3" font-family="Times,serif" font-size="14.00" fill="#0058ad">r 510 []</text>
</g>
<!-- T1176&#45;&gt;T1177 -->
<g id="edge1" class="edge">
<title>T1176:f5&#45;&gt;T1177:f0</title>
<path fill="none" stroke="#5b00c0" d="M385,-81C385,-14.91 305.25,-58.54 240,-48 222.14,-45.12 94.26,-49.35 61.59,-36.77"/>
<polygon fill="#5b00c0" stroke="#5b00c0" points="63.79,-34.05 54,-30 59.13,-39.27 63.79,-34.05"/>
<text text-anchor="middle" x="391.5" y="-51.8" font-family="Times,serif" font-size="14.00" fill="#5b00c0">rw</text>
</g>
<!-- T1177&#45;&gt;T1176 -->
<g id="edge2" class="edge">
<title>T1177:f6&#45;&gt;T1176:f2</title>
<path fill="none" stroke="#5b00c0" d="M506,-30C506,-62.17 247.06,-36.54 217,-48 198.46,-55.07 181.57,-56.79 176.52,-71.03"/>
<polygon fill="#5b00c0" stroke="#5b00c0" points="173.05,-70.59 175,-81 179.97,-71.64 173.05,-70.59"/>
<text text-anchor="middle" x="226.5" y="-51.8" font-family="Times,serif" font-size="14.00" fill="#5b00c0">rw</text>
</g>
</g>
</svg>
