<?xml version="1.0" encoding="UTF-8" standalone="no"?>
<!DOCTYPE svg PUBLIC "-//W3C//DTD SVG 1.1//EN"
 "http://www.w3.org/Graphics/SVG/1.1/DTD/svg11.dtd">
<!-- Generated by graphviz version 2.43.0 (0)
 -->
<!-- Title: a_graph Pages: 1 -->
<svg width="805pt" height="119pt"
 viewBox="0.00 0.00 805.50 119.00" xmlns="http://www.w3.org/2000/svg" xmlns:xlink="http://www.w3.org/1999/xlink">
<g id="graph0" class="graph" transform="scale(1 1) rotate(0) translate(4 115)">
<title>a_graph</title>
<polygon fill="white" stroke="transparent" points="-4,4 -4,-115 801.5,-115 801.5,4 -4,4"/>
<!-- T2387 -->
<g id="node1" class="node">
<title>T2387</title>
<polygon fill="none" stroke="#0058ad" points="0,-81.5 0,-110.5 654,-110.5 654,-81.5 0,-81.5"/>
<text text-anchor="middle" x="39.5" y="-92.3" font-family="Times,serif" font-size="14.00" fill="#0058ad">r 1026 []</text>
<polyline fill="none" stroke="#0058ad" points="79,-81.5 79,-110.5 "/>
<text text-anchor="middle" x="118.5" y="-92.3" font-family="Times,serif" font-size="14.00" fill="#0058ad">r 1026 []</text>
<polyline fill="none" stroke="#0058ad" points="158,-81.5 158,-110.5 "/>
<text text-anchor="middle" x="197.5" y="-92.3" font-family="Times,serif" font-size="14.00" fill="#0058ad">r 1023 []</text>
<polyline fill="none" stroke="#0058ad" points="237,-81.5 237,-110.5 "/>
<text text-anchor="middle" x="276.5" y="-92.3" font-family="Times,serif" font-size="14.00" fill="#0058ad">r 1026 []</text>
<polyline fill="none" stroke="#0058ad" points="316,-81.5 316,-110.5 "/>
<text text-anchor="middle" x="355.5" y="-92.3" font-family="Times,serif" font-size="14.00" fill="#0058ad">r 1026 []</text>
<polyline fill="none" stroke="#0058ad" points="395,-81.5 395,-110.5 "/>
<text text-anchor="middle" x="445.5" y="-92.3" font-family="Times,serif" font-size="14.00" fill="#0058ad">r 1024 [1 2]</text>
<polyline fill="none" stroke="#0058ad" points="496,-81.5 496,-110.5 "/>
<text text-anchor="middle" x="535.5" y="-92.3" font-family="Times,serif" font-size="14.00" fill="#0058ad">r 1026 []</text>
<polyline fill="none" stroke="#0058ad" points="575,-81.5 575,-110.5 "/>
<text text-anchor="middle" x="614.5" y="-92.3" font-family="Times,serif" font-size="14.00" fill="#0058ad">a 1026 1</text>
</g>
<!-- T2386 -->
<g id="node2" class="node">
<title>T2386</title>
<polygon fill="none" stroke="#0058ad" points="84.5,-0.5 84.5,-29.5 797.5,-29.5 797.5,-0.5 84.5,-0.5"/>
<text text-anchor="middle" x="128.5" y="-11.3" font-family="Times,serif" font-size="14.00" fill="#0058ad">r 1025 [1]</text>
<polyline fill="none" stroke="#0058ad" points="172.5,-0.5 172.5,-29.5 "/>
<text text-anchor="middle" x="212" y="-11.3" font-family="Times,serif" font-size="14.00" fill="#0058ad">a 1021 3</text>
<polyline fill="none" stroke="#0058ad" points="251.5,-0.5 251.5,-29.5 "/>
<text text-anchor="middle" x="291" y="-11.3" font-family="Times,serif" font-size="14.00" fill="#0058ad">a 1025 2</text>
<polyline fill="none" stroke="#0058ad" points="330.5,-0.5 330.5,-29.5 "/>
<text text-anchor="middle" x="370" y="-11.3" font-family="Times,serif" font-size="14.00" fill="#0058ad">a 1025 3</text>
<polyline fill="none" stroke="#0058ad" points="409.5,-0.5 409.5,-29.5 "/>
<text text-anchor="middle" x="449" y="-11.3" font-family="Times,serif" font-size="14.00" fill="#0058ad">r 1026 []</text>
<polyline fill="none" stroke="#0058ad" points="488.5,-0.5 488.5,-29.5 "/>
<text text-anchor="middle" x="546" y="-11.3" font-family="Times,serif" font-size="14.00" fill="#0058ad">r 1021 [1 2 3]</text>
<polyline fill="none" stroke="#0058ad" points="603.5,-0.5 603.5,-29.5 "/>
<text text-anchor="middle" x="643" y="-11.3" font-family="Times,serif" font-size="14.00" fill="#0058ad">a 1024 3</text>
<polyline fill="none" stroke="#0058ad" points="682.5,-0.5 682.5,-29.5 "/>
<text text-anchor="middle" x="740" y="-11.3" font-family="Times,serif" font-size="14.00" fill="#0058ad">r 1021 [1 2 3]</text>
</g>
<!-- T2387&#45;&gt;T2386 -->
<g id="edge1" class="edge">
<title>T2387:f5&#45;&gt;T2386:f6</title>
<path fill="none" stroke="#5b00c0" d="M446,-81C446,-35.88 498.33,-59.33 542,-48 560.53,-43.19 619.18,-49.84 637.48,-38.59"/>
<polygon fill="#5b00c0" stroke="#5b00c0" points="640.54,-40.31 643,-30 634.65,-36.52 640.54,-40.31"/>
<text text-anchor="middle" x="551.5" y="-51.8" font-family="Times,serif" font-size="14.00" fill="#5b00c0">rw</text>
</g>
<!-- T2386&#45;&gt;T2387 -->
<g id="edge2" class="edge">
<title>T2386:f4&#45;&gt;T2387:f7</title>
<path fill="none" stroke="#5b00c0" d="M449,-30C449,-55.21 537.35,-39.26 561,-48 583.67,-56.38 607.26,-53.96 613.44,-70.96"/>
<polygon fill="#5b00c0" stroke="#5b00c0" points="610.01,-71.66 615,-81 616.92,-70.58 610.01,-71.66"/>
<text text-anchor="middle" x="616.5" y="-51.8" font-family="Times,serif" font-size="14.00" fill="#5b00c0">rw</text>
</g>
</g>
</svg>
