<?xml version="1.0" encoding="UTF-8" standalone="no"?>
<!DOCTYPE svg PUBLIC "-//W3C//DTD SVG 1.1//EN"
 "http://www.w3.org/Graphics/SVG/1.1/DTD/svg11.dtd">
<!-- Generated by graphviz version 2.43.0 (0)
 -->
<!-- Title: a_graph Pages: 1 -->
<svg width="751pt" height="119pt"
 viewBox="0.00 0.00 751.00 119.00" xmlns="http://www.w3.org/2000/svg" xmlns:xlink="http://www.w3.org/1999/xlink">
<g id="graph0" class="graph" transform="scale(1 1) rotate(0) translate(4 115)">
<title>a_graph</title>
<polygon fill="white" stroke="transparent" points="-4,4 -4,-115 747,-115 747,4 -4,4"/>
<!-- T1450 -->
<g id="node1" class="node">
<title>T1450</title>
<polygon fill="none" stroke="#0058ad" points="0,-81.5 0,-110.5 743,-110.5 743,-81.5 0,-81.5"/>
<text text-anchor="middle" x="35" y="-92.3" font-family="Times,serif" font-size="14.00" fill="#0058ad">a 55 13</text>
<polyline fill="none" stroke="#0058ad" points="70,-81.5 70,-110.5 "/>
<text text-anchor="middle" x="249" y="-92.3" font-family="Times,serif" font-size="14.00" fill="#0058ad">r 52 [1 2 3 4 5 6 7 8 9 10 11 12 13 14 15 16 17]</text>
<polyline fill="none" stroke="#0058ad" points="428,-81.5 428,-110.5 "/>
<text text-anchor="middle" x="463" y="-92.3" font-family="Times,serif" font-size="14.00" fill="#0058ad">a 55 14</text>
<polyline fill="none" stroke="#0058ad" points="498,-81.5 498,-110.5 "/>
<text text-anchor="middle" x="620.5" y="-92.3" font-family="Times,serif" font-size="14.00" fill="#0058ad">r 56 [1 2 3 4 5 6 7 8 9 10 11 12]</text>
</g>
<!-- T1451 -->
<g id="node2" class="node">
<title>T1451</title>
<polygon fill="none" stroke="#0058ad" points="43,-0.5 43,-29.5 718,-29.5 718,-0.5 43,-0.5"/>
<text text-anchor="middle" x="78" y="-11.3" font-family="Times,serif" font-size="14.00" fill="#0058ad">a 56 13</text>
<polyline fill="none" stroke="#0058ad" points="113,-0.5 113,-29.5 "/>
<text text-anchor="middle" x="148" y="-11.3" font-family="Times,serif" font-size="14.00" fill="#0058ad">a 56 14</text>
<polyline fill="none" stroke="#0058ad" points="183,-0.5 183,-29.5 "/>
<text text-anchor="middle" x="305.5" y="-11.3" font-family="Times,serif" font-size="14.00" fill="#0058ad">r 55 [1 2 3 4 5 6 7 8 9 10 11 12]</text>
<polyline fill="none" stroke="#0058ad" points="428,-0.5 428,-29.5 "/>
<text text-anchor="middle" x="573" y="-11.3" font-family="Times,serif" font-size="14.00" fill="#0058ad">r 56 [1 2 3 4 5 6 7 8 9 10 11 12 13 14]</text>
</g>
<!-- T1450&#45;&gt;T1451 -->
<g id="edge1" class="edge">
<title>T1450:f3&#45;&gt;T1451:f0</title>
<path fill="none" stroke="#5b00c0" d="M620.5,-81C620.5,-67.03 159.03,-48.35 86.92,-33.65"/>
<polygon fill="#5b00c0" stroke="#5b00c0" points="88.09,-30.34 77.5,-30 85.56,-36.87 88.09,-30.34"/>
<text text-anchor="middle" x="469" y="-51.8" font-family="Times,serif" font-size="14.00" fill="#5b00c0">rw</text>
</g>
<!-- T1451&#45;&gt;T1450 -->
<g id="edge2" class="edge">
<title>T1451:f2&#45;&gt;T1450:f0</title>
<path fill="none" stroke="#5b00c0" d="M305.5,-30C305.5,-33.4 92.42,-67.86 44.15,-78.29"/>
<polygon fill="#5b00c0" stroke="#5b00c0" points="43.18,-74.93 34.5,-81 45.07,-81.67 43.18,-74.93"/>
<text text-anchor="middle" x="219" y="-51.8" font-family="Times,serif" font-size="14.00" fill="#5b00c0">rw</text>
</g>
</g>
</svg>
