<?xml version="1.0" encoding="UTF-8" standalone="no"?>
<!DOCTYPE svg PUBLIC "-//W3C//DTD SVG 1.1//EN"
 "http://www.w3.org/Graphics/SVG/1.1/DTD/svg11.dtd">
<!-- Generated by graphviz version 2.43.0 (0)
 -->
<!-- Title: a_graph Pages: 1 -->
<svg width="755pt" height="119pt"
 viewBox="0.00 0.00 755.00 119.00" xmlns="http://www.w3.org/2000/svg" xmlns:xlink="http://www.w3.org/1999/xlink">
<g id="graph0" class="graph" transform="scale(1 1) rotate(0) translate(4 115)">
<title>a_graph</title>
<polygon fill="white" stroke="transparent" points="-4,4 -4,-115 751,-115 751,4 -4,4"/>
<!-- T3287 -->
<g id="node1" class="node">
<title>T3287</title>
<polygon fill="none" stroke="#0058ad" points="0,-81.5 0,-110.5 584,-110.5 584,-81.5 0,-81.5"/>
<text text-anchor="middle" x="39.5" y="-92.3" font-family="Times,serif" font-size="14.00" fill="#0058ad">a 1420 2</text>
<polyline fill="none" stroke="#0058ad" points="79,-81.5 79,-110.5 "/>
<text text-anchor="middle" x="129.5" y="-92.3" font-family="Times,serif" font-size="14.00" fill="#0058ad">r 1420 [1 2]</text>
<polyline fill="none" stroke="#0058ad" points="180,-81.5 180,-110.5 "/>
<text text-anchor="middle" x="224" y="-92.3" font-family="Times,serif" font-size="14.00" fill="#0058ad">r 1414 [1]</text>
<polyline fill="none" stroke="#0058ad" points="268,-81.5 268,-110.5 "/>
<text text-anchor="middle" x="307.5" y="-92.3" font-family="Times,serif" font-size="14.00" fill="#0058ad">a 1420 3</text>
<polyline fill="none" stroke="#0058ad" points="347,-81.5 347,-110.5 "/>
<text text-anchor="middle" x="386.5" y="-92.3" font-family="Times,serif" font-size="14.00" fill="#0058ad">r 1422 []</text>
<polyline fill="none" stroke="#0058ad" points="426,-81.5 426,-110.5 "/>
<text text-anchor="middle" x="465.5" y="-92.3" font-family="Times,serif" font-size="14.00" fill="#0058ad">a 1414 2</text>
<polyline fill="none" stroke="#0058ad" points="505,-81.5 505,-110.5 "/>
<text text-anchor="middle" x="544.5" y="-92.3" font-family="Times,serif" font-size="14.00" fill="#0058ad">r 1421 []</text>
</g>
<!-- T3286 -->
<g id="node2" class="node">
<title>T3286</title>
<polygon fill="none" stroke="#0058ad" points="61,-0.5 61,-29.5 747,-29.5 747,-0.5 61,-0.5"/>
<text text-anchor="middle" x="105" y="-11.3" font-family="Times,serif" font-size="14.00" fill="#0058ad">r 1414 [1]</text>
<polyline fill="none" stroke="#0058ad" points="149,-0.5 149,-29.5 "/>
<text text-anchor="middle" x="193" y="-11.3" font-family="Times,serif" font-size="14.00" fill="#0058ad">r 1420 [1]</text>
<polyline fill="none" stroke="#0058ad" points="237,-0.5 237,-29.5 "/>
<text text-anchor="middle" x="281" y="-11.3" font-family="Times,serif" font-size="14.00" fill="#0058ad">r 1414 [1]</text>
<polyline fill="none" stroke="#0058ad" points="325,-0.5 325,-29.5 "/>
<text text-anchor="middle" x="369" y="-11.3" font-family="Times,serif" font-size="14.00" fill="#0058ad">r 1420 [1]</text>
<polyline fill="none" stroke="#0058ad" points="413,-0.5 413,-29.5 "/>
<text text-anchor="middle" x="452.5" y="-11.3" font-family="Times,serif" font-size="14.00" fill="#0058ad">a 1421 1</text>
<polyline fill="none" stroke="#0058ad" points="492,-0.5 492,-29.5 "/>
<text text-anchor="middle" x="536" y="-11.3" font-family="Times,serif" font-size="14.00" fill="#0058ad">r 1420 [1]</text>
<polyline fill="none" stroke="#0058ad" points="580,-0.5 580,-29.5 "/>
<text text-anchor="middle" x="624" y="-11.3" font-family="Times,serif" font-size="14.00" fill="#0058ad">r 1420 [1]</text>
<polyline fill="none" stroke="#0058ad" points="668,-0.5 668,-29.5 "/>
<text text-anchor="middle" x="707.5" y="-11.3" font-family="Times,serif" font-size="14.00" fill="#0058ad">a 1421 2</text>
</g>
<!-- T3287&#45;&gt;T3286 -->
<g id="edge1" class="edge">
<title>T3287:f6&#45;&gt;T3286:f4</title>
<path fill="none" stroke="#5b00c0" d="M545,-81C545,-38.27 468.13,-70.11 454.92,-40.19"/>
<polygon fill="#5b00c0" stroke="#5b00c0" points="458.29,-39.18 453,-30 451.41,-40.48 458.29,-39.18"/>
<text text-anchor="middle" x="544.5" y="-51.8" font-family="Times,serif" font-size="14.00" fill="#5b00c0">rw</text>
</g>
<!-- T3286&#45;&gt;T3287 -->
<g id="edge2" class="edge">
<title>T3286:f1&#45;&gt;T3287:f0</title>
<path fill="none" stroke="#5b00c0" d="M193,-30C193,-98.3 54.81,-18.27 40.24,-70.92"/>
<polygon fill="#5b00c0" stroke="#5b00c0" points="36.75,-70.65 39,-81 43.69,-71.5 36.75,-70.65"/>
<text text-anchor="middle" x="196.5" y="-51.8" font-family="Times,serif" font-size="14.00" fill="#5b00c0">rw</text>
</g>
</g>
</svg>
