<?xml version="1.0" encoding="UTF-8" standalone="no"?>
<!DOCTYPE svg PUBLIC "-//W3C//DTD SVG 1.1//EN"
 "http://www.w3.org/Graphics/SVG/1.1/DTD/svg11.dtd">
<!-- Generated by graphviz version 2.43.0 (0)
 -->
<!-- Title: a_graph Pages: 1 -->
<svg width="508pt" height="119pt"
 viewBox="0.00 0.00 508.00 119.00" xmlns="http://www.w3.org/2000/svg" xmlns:xlink="http://www.w3.org/1999/xlink">
<g id="graph0" class="graph" transform="scale(1 1) rotate(0) translate(4 115)">
<title>a_graph</title>
<polygon fill="white" stroke="transparent" points="-4,4 -4,-115 504,-115 504,4 -4,4"/>
<!-- T1566 -->
<g id="node1" class="node">
<title>T1566</title>
<polygon fill="none" stroke="#0058ad" points="80,-81.5 80,-110.5 430,-110.5 430,-81.5 80,-81.5"/>
<text text-anchor="middle" x="115" y="-92.3" font-family="Times,serif" font-size="14.00" fill="#0058ad">a 677 3</text>
<polyline fill="none" stroke="#0058ad" points="150,-81.5 150,-110.5 "/>
<text text-anchor="middle" x="185" y="-92.3" font-family="Times,serif" font-size="14.00" fill="#0058ad">a 674 2</text>
<polyline fill="none" stroke="#0058ad" points="220,-81.5 220,-110.5 "/>
<text text-anchor="middle" x="255" y="-92.3" font-family="Times,serif" font-size="14.00" fill="#0058ad">r 679 []</text>
<polyline fill="none" stroke="#0058ad" points="290,-81.5 290,-110.5 "/>
<text text-anchor="middle" x="325" y="-92.3" font-family="Times,serif" font-size="14.00" fill="#0058ad">r 679 []</text>
<polyline fill="none" stroke="#0058ad" points="360,-81.5 360,-110.5 "/>
<text text-anchor="middle" x="395" y="-92.3" font-family="Times,serif" font-size="14.00" fill="#0058ad">a 674 3</text>
</g>
<!-- T1567 -->
<g id="node2" class="node">
<title>T1567</title>
<polygon fill="none" stroke="#0058ad" points="0,-0.5 0,-29.5 500,-29.5 500,-0.5 0,-0.5"/>
<text text-anchor="middle" x="53" y="-11.3" font-family="Times,serif" font-size="14.00" fill="#0058ad">r 647 [1 2 3]</text>
<polyline fill="none" stroke="#0058ad" points="106,-0.5 106,-29.5 "/>
<text text-anchor="middle" x="152" y="-11.3" font-family="Times,serif" font-size="14.00" fill="#0058ad">r 677 [1 2]</text>
<polyline fill="none" stroke="#0058ad" points="198,-0.5 198,-29.5 "/>
<text text-anchor="middle" x="233" y="-11.3" font-family="Times,serif" font-size="14.00" fill="#0058ad">a 679 1</text>
<polyline fill="none" stroke="#0058ad" points="268,-0.5 268,-29.5 "/>
<text text-anchor="middle" x="303" y="-11.3" font-family="Times,serif" font-size="14.00" fill="#0058ad">a 679 2</text>
<polyline fill="none" stroke="#0058ad" points="338,-0.5 338,-29.5 "/>
<text text-anchor="middle" x="373" y="-11.3" font-family="Times,serif" font-size="14.00" fill="#0058ad">a 679 3</text>
<polyline fill="none" stroke="#0058ad" points="408,-0.5 408,-29.5 "/>
<text text-anchor="middle" x="454" y="-11.3" font-family="Times,serif" font-size="14.00" fill="#0058ad">r 677 [1 2]</text>
</g>
<!-- T1566&#45;&gt;T1567 -->
<g id="edge1" class="edge">
<title>T1566:f2&#45;&gt;T1567:f2</title>
<path fill="none" stroke="#5b00c0" d="M255,-81C255,-60.17 239.34,-55.76 234.44,-40.06"/>
<polygon fill="#5b00c0" stroke="#5b00c0" points="237.89,-39.4 233,-30 230.96,-40.4 237.89,-39.4"/>
<text text-anchor="middle" x="258.5" y="-51.8" font-family="Times,serif" font-size="14.00" fill="#5b00c0">rw</text>
</g>
<!-- T1567&#45;&gt;T1566 -->
<g id="edge2" class="edge">
<title>T1567:f1&#45;&gt;T1566:f0</title>
<path fill="none" stroke="#5b00c0" d="M152,-30C152,-54.07 124.67,-53.75 116.99,-70.96"/>
<polygon fill="#5b00c0" stroke="#5b00c0" points="113.51,-70.51 115,-81 120.38,-71.87 113.51,-70.51"/>
<text text-anchor="middle" x="154.5" y="-51.8" font-family="Times,serif" font-size="14.00" fill="#5b00c0">rw</text>
</g>
</g>
</svg>
