<?xml version="1.0" encoding="UTF-8" standalone="no"?>
<!DOCTYPE svg PUBLIC "-//W3C//DTD SVG 1.1//EN"
 "http://www.w3.org/Graphics/SVG/1.1/DTD/svg11.dtd">
<!-- Generated by graphviz version 2.43.0 (0)
 -->
<!-- Title: a_graph Pages: 1 -->
<svg width="600pt" height="119pt"
 viewBox="0.00 0.00 600.00 119.00" xmlns="http://www.w3.org/2000/svg" xmlns:xlink="http://www.w3.org/1999/xlink">
<g id="graph0" class="graph" transform="scale(1 1) rotate(0) translate(4 115)">
<title>a_graph</title>
<polygon fill="white" stroke="transparent" points="-4,4 -4,-115 596,-115 596,4 -4,4"/>
<!-- T1663 -->
<g id="node1" class="node">
<title>T1663</title>
<polygon fill="none" stroke="#0058ad" points="70,-81.5 70,-110.5 526,-110.5 526,-81.5 70,-81.5"/>
<text text-anchor="middle" x="105" y="-92.3" font-family="Times,serif" font-size="14.00" fill="#0058ad">r 721 []</text>
<polyline fill="none" stroke="#0058ad" points="140,-81.5 140,-110.5 "/>
<text text-anchor="middle" x="175" y="-92.3" font-family="Times,serif" font-size="14.00" fill="#0058ad">a 720 3</text>
<polyline fill="none" stroke="#0058ad" points="210,-81.5 210,-110.5 "/>
<text text-anchor="middle" x="263" y="-92.3" font-family="Times,serif" font-size="14.00" fill="#0058ad">r 720 [1 2 3]</text>
<polyline fill="none" stroke="#0058ad" points="316,-81.5 316,-110.5 "/>
<text text-anchor="middle" x="351" y="-92.3" font-family="Times,serif" font-size="14.00" fill="#0058ad">r 721 []</text>
<polyline fill="none" stroke="#0058ad" points="386,-81.5 386,-110.5 "/>
<text text-anchor="middle" x="421" y="-92.3" font-family="Times,serif" font-size="14.00" fill="#0058ad">r 722 []</text>
<polyline fill="none" stroke="#0058ad" points="456,-81.5 456,-110.5 "/>
<text text-anchor="middle" x="491" y="-92.3" font-family="Times,serif" font-size="14.00" fill="#0058ad">r 722 []</text>
</g>
<!-- T1662 -->
<g id="node2" class="node">
<title>T1662</title>
<polygon fill="none" stroke="#0058ad" points="0,-0.5 0,-29.5 592,-29.5 592,-0.5 0,-0.5"/>
<text text-anchor="middle" x="46" y="-11.3" font-family="Times,serif" font-size="14.00" fill="#0058ad">r 720 [1 2]</text>
<polyline fill="none" stroke="#0058ad" points="92,-0.5 92,-29.5 "/>
<text text-anchor="middle" x="138" y="-11.3" font-family="Times,serif" font-size="14.00" fill="#0058ad">r 718 [1 2]</text>
<polyline fill="none" stroke="#0058ad" points="184,-0.5 184,-29.5 "/>
<text text-anchor="middle" x="219" y="-11.3" font-family="Times,serif" font-size="14.00" fill="#0058ad">a 721 1</text>
<polyline fill="none" stroke="#0058ad" points="254,-0.5 254,-29.5 "/>
<text text-anchor="middle" x="307" y="-11.3" font-family="Times,serif" font-size="14.00" fill="#0058ad">r 699 [1 2 3]</text>
<polyline fill="none" stroke="#0058ad" points="360,-0.5 360,-29.5 "/>
<text text-anchor="middle" x="406" y="-11.3" font-family="Times,serif" font-size="14.00" fill="#0058ad">r 720 [1 2]</text>
<polyline fill="none" stroke="#0058ad" points="452,-0.5 452,-29.5 "/>
<text text-anchor="middle" x="487" y="-11.3" font-family="Times,serif" font-size="14.00" fill="#0058ad">a 721 2</text>
<polyline fill="none" stroke="#0058ad" points="522,-0.5 522,-29.5 "/>
<text text-anchor="middle" x="557" y="-11.3" font-family="Times,serif" font-size="14.00" fill="#0058ad">a 718 3</text>
</g>
<!-- T1663&#45;&gt;T1662 -->
<g id="edge1" class="edge">
<title>T1663:f0&#45;&gt;T1662:f2</title>
<path fill="none" stroke="#5b00c0" d="M105,-81C105,-64.89 107.29,-57.9 120,-48 134.74,-36.51 194.02,-47.28 213.07,-38.06"/>
<polygon fill="#5b00c0" stroke="#5b00c0" points="215.89,-40.13 219,-30 210.25,-35.98 215.89,-40.13"/>
<text text-anchor="middle" x="129.5" y="-51.8" font-family="Times,serif" font-size="14.00" fill="#5b00c0">rw</text>
</g>
<!-- T1662&#45;&gt;T1663 -->
<g id="edge2" class="edge">
<title>T1662:f0&#45;&gt;T1663:f1</title>
<path fill="none" stroke="#5b00c0" d="M46,-30C46,-51.05 120.2,-38.53 139,-48 154.9,-56.01 168.94,-58.48 173.47,-71.09"/>
<polygon fill="#5b00c0" stroke="#5b00c0" points="170.02,-71.65 175,-81 176.93,-70.58 170.02,-71.65"/>
<text text-anchor="middle" x="177.5" y="-51.8" font-family="Times,serif" font-size="14.00" fill="#5b00c0">rw</text>
</g>
</g>
</svg>
