<?xml version="1.0" encoding="UTF-8" standalone="no"?>
<!DOCTYPE svg PUBLIC "-//W3C//DTD SVG 1.1//EN"
 "http://www.w3.org/Graphics/SVG/1.1/DTD/svg11.dtd">
<!-- Generated by graphviz version 2.43.0 (0)
 -->
<!-- Title: a_graph Pages: 1 -->
<svg width="1475pt" height="119pt"
 viewBox="0.00 0.00 1475.00 119.00" xmlns="http://www.w3.org/2000/svg" xmlns:xlink="http://www.w3.org/1999/xlink">
<g id="graph0" class="graph" transform="scale(1 1) rotate(0) translate(4 115)">
<title>a_graph</title>
<polygon fill="white" stroke="transparent" points="-4,4 -4,-115 1471,-115 1471,4 -4,4"/>
<!-- T703 -->
<g id="node1" class="node">
<title>T703</title>
<polygon fill="none" stroke="#0058ad" points="0,-81.5 0,-110.5 1467,-110.5 1467,-81.5 0,-81.5"/>
<text text-anchor="middle" x="190" y="-92.3" font-family="Times,serif" font-size="14.00" fill="#0058ad">r 24 [1 2 3 4 5 6 7 8 9 10 11 12 13 14 15 16 17 18]</text>
<polyline fill="none" stroke="#0058ad" points="380,-81.5 380,-110.5 "/>
<text text-anchor="middle" x="480" y="-92.3" font-family="Times,serif" font-size="14.00" fill="#0058ad">r 28 [1 2 3 4 5 6 7 8 9 10]</text>
<polyline fill="none" stroke="#0058ad" points="580,-81.5 580,-110.5 "/>
<text text-anchor="middle" x="680" y="-92.3" font-family="Times,serif" font-size="14.00" fill="#0058ad">r 28 [1 2 3 4 5 6 7 8 9 10]</text>
<polyline fill="none" stroke="#0058ad" points="780,-81.5 780,-110.5 "/>
<text text-anchor="middle" x="815" y="-92.3" font-family="Times,serif" font-size="14.00" fill="#0058ad">a 28 11</text>
<polyline fill="none" stroke="#0058ad" points="850,-81.5 850,-110.5 "/>
<text text-anchor="middle" x="880.5" y="-92.3" font-family="Times,serif" font-size="14.00" fill="#0058ad">a 29 4</text>
<polyline fill="none" stroke="#0058ad" points="911,-81.5 911,-110.5 "/>
<text text-anchor="middle" x="1022.5" y="-92.3" font-family="Times,serif" font-size="14.00" fill="#0058ad">r 28 [1 2 3 4 5 6 7 8 9 10 11]</text>
<polyline fill="none" stroke="#0058ad" points="1134,-81.5 1134,-110.5 "/>
<text text-anchor="middle" x="1189" y="-92.3" font-family="Times,serif" font-size="14.00" fill="#0058ad">r 29 [1 2 3 4]</text>
<polyline fill="none" stroke="#0058ad" points="1244,-81.5 1244,-110.5 "/>
<text text-anchor="middle" x="1355.5" y="-92.3" font-family="Times,serif" font-size="14.00" fill="#0058ad">r 28 [1 2 3 4 5 6 7 8 9 10 11]</text>
</g>
<!-- T702 -->
<g id="node2" class="node">
<title>T702</title>
<polygon fill="none" stroke="#0058ad" points="45.5,-0.5 45.5,-29.5 895.5,-29.5 895.5,-0.5 45.5,-0.5"/>
<text text-anchor="middle" x="145.5" y="-11.3" font-family="Times,serif" font-size="14.00" fill="#0058ad">r 28 [1 2 3 4 5 6 7 8 9 10]</text>
<polyline fill="none" stroke="#0058ad" points="245.5,-0.5 245.5,-29.5 "/>
<text text-anchor="middle" x="345.5" y="-11.3" font-family="Times,serif" font-size="14.00" fill="#0058ad">r 28 [1 2 3 4 5 6 7 8 9 10]</text>
<polyline fill="none" stroke="#0058ad" points="445.5,-0.5 445.5,-29.5 "/>
<text text-anchor="middle" x="635.5" y="-11.3" font-family="Times,serif" font-size="14.00" fill="#0058ad">r 24 [1 2 3 4 5 6 7 8 9 10 11 12 13 14 15 16 17 18]</text>
<polyline fill="none" stroke="#0058ad" points="825.5,-0.5 825.5,-29.5 "/>
<text text-anchor="middle" x="860.5" y="-11.3" font-family="Times,serif" font-size="14.00" fill="#0058ad">a 24 19</text>
</g>
<!-- T703&#45;&gt;T702 -->
<g id="edge1" class="edge">
<title>T703:f0&#45;&gt;T702:f3</title>
<path fill="none" stroke="#5b00c0" d="M189.5,-81C189.5,-78.83 767.02,-38.8 850.49,-31.16"/>
<polygon fill="#5b00c0" stroke="#5b00c0" points="850.97,-34.63 860.5,-30 850.16,-27.68 850.97,-34.63"/>
<text text-anchor="middle" x="633" y="-51.8" font-family="Times,serif" font-size="14.00" fill="#5b00c0">rw</text>
</g>
<!-- T702&#45;&gt;T703 -->
<g id="edge2" class="edge">
<title>T702:f0&#45;&gt;T703:f3</title>
<path fill="none" stroke="#5b00c0" d="M145.5,-30C145.5,-43.93 632.67,-46.41 646.5,-48 718.82,-56.31 806.46,-9.43 814.85,-70.69"/>
<polygon fill="#5b00c0" stroke="#5b00c0" points="811.38,-71.24 815.5,-81 818.36,-70.8 811.38,-71.24"/>
<text text-anchor="middle" x="822" y="-51.8" font-family="Times,serif" font-size="14.00" fill="#5b00c0">rw</text>
</g>
</g>
</svg>
