<?xml version="1.0" encoding="UTF-8" standalone="no"?>
<!DOCTYPE svg PUBLIC "-//W3C//DTD SVG 1.1//EN"
 "http://www.w3.org/Graphics/SVG/1.1/DTD/svg11.dtd">
<!-- Generated by graphviz version 2.43.0 (0)
 -->
<!-- Title: a_graph Pages: 1 -->
<svg width="2795pt" height="119pt"
 viewBox="0.00 0.00 2795.00 119.00" xmlns="http://www.w3.org/2000/svg" xmlns:xlink="http://www.w3.org/1999/xlink">
<g id="graph0" class="graph" transform="scale(1 1) rotate(0) translate(4 115)">
<title>a_graph</title>
<polygon fill="white" stroke="transparent" points="-4,4 -4,-115 2791,-115 2791,4 -4,4"/>
<!-- T1158 -->
<g id="node1" class="node">
<title>T1158</title>
<polygon fill="none" stroke="#0058ad" points="1319.5,-81.5 1319.5,-110.5 2489.5,-110.5 2489.5,-81.5 1319.5,-81.5"/>
<text text-anchor="middle" x="1577" y="-92.3" font-family="Times,serif" font-size="14.00" fill="#0058ad">r 43 [1 2 3 4 5 6 7 8 9 10 11 12 13 14 15 16 17 18 19 20 21 22 23 24]</text>
<polyline fill="none" stroke="#0058ad" points="1834.5,-81.5 1834.5,-110.5 "/>
<text text-anchor="middle" x="2092" y="-92.3" font-family="Times,serif" font-size="14.00" fill="#0058ad">r 43 [1 2 3 4 5 6 7 8 9 10 11 12 13 14 15 16 17 18 19 20 21 22 23 24]</text>
<polyline fill="none" stroke="#0058ad" points="2349.5,-81.5 2349.5,-110.5 "/>
<text text-anchor="middle" x="2384.5" y="-92.3" font-family="Times,serif" font-size="14.00" fill="#0058ad">a 45 29</text>
<polyline fill="none" stroke="#0058ad" points="2419.5,-81.5 2419.5,-110.5 "/>
<text text-anchor="middle" x="2454.5" y="-92.3" font-family="Times,serif" font-size="14.00" fill="#0058ad">a 38 25</text>
</g>
<!-- T1159 -->
<g id="node2" class="node">
<title>T1159</title>
<polygon fill="none" stroke="#0058ad" points="0,-0.5 0,-29.5 2787,-29.5 2787,-0.5 0,-0.5"/>
<text text-anchor="middle" x="239.5" y="-11.3" font-family="Times,serif" font-size="14.00" fill="#0058ad">r 38 [2 3 4 5 6 7 8 9 10 11 12 13 14 15 16 17 18 19 20 21 22 24]</text>
<polyline fill="none" stroke="#0058ad" points="479,-0.5 479,-29.5 "/>
<text text-anchor="middle" x="736.5" y="-11.3" font-family="Times,serif" font-size="14.00" fill="#0058ad">r 43 [1 2 3 4 5 6 7 8 9 10 11 12 13 14 15 16 17 18 19 20 21 22 23 24]</text>
<polyline fill="none" stroke="#0058ad" points="994,-0.5 994,-29.5 "/>
<text text-anchor="middle" x="1278.5" y="-11.3" font-family="Times,serif" font-size="14.00" fill="#0058ad">r 45 [1 2 3 4 5 6 7 8 11 12 13 14 15 16 17 18 19 20 21 22 23 24 25 26 27 28]</text>
<polyline fill="none" stroke="#0058ad" points="1563,-0.5 1563,-29.5 "/>
<text text-anchor="middle" x="1847.5" y="-11.3" font-family="Times,serif" font-size="14.00" fill="#0058ad">r 45 [1 2 3 4 5 6 7 8 11 12 13 14 15 16 17 18 19 20 21 22 23 24 25 26 27 28]</text>
<polyline fill="none" stroke="#0058ad" points="2132,-0.5 2132,-29.5 "/>
<text text-anchor="middle" x="2389.5" y="-11.3" font-family="Times,serif" font-size="14.00" fill="#0058ad">r 43 [1 2 3 4 5 6 7 8 9 10 11 12 13 14 15 16 17 18 19 20 21 22 23 24]</text>
<polyline fill="none" stroke="#0058ad" points="2647,-0.5 2647,-29.5 "/>
<text text-anchor="middle" x="2682" y="-11.3" font-family="Times,serif" font-size="14.00" fill="#0058ad">a 43 25</text>
<polyline fill="none" stroke="#0058ad" points="2717,-0.5 2717,-29.5 "/>
<text text-anchor="middle" x="2752" y="-11.3" font-family="Times,serif" font-size="14.00" fill="#0058ad">a 43 26</text>
</g>
<!-- T1158&#45;&gt;T1159 -->
<g id="edge1" class="edge">
<title>T1158:f0&#45;&gt;T1159:f5</title>
<path fill="none" stroke="#5b00c0" d="M1576.5,-81C1576.5,46.99 2023.65,-53.84 2151.5,-48 2165.03,-47.38 2601.18,-45.17 2672.64,-33.39"/>
<polygon fill="#5b00c0" stroke="#5b00c0" points="2674.18,-36.56 2682.5,-30 2671.91,-29.94 2674.18,-36.56"/>
<text text-anchor="middle" x="2161" y="-51.8" font-family="Times,serif" font-size="14.00" fill="#5b00c0">rw</text>
</g>
<!-- T1159&#45;&gt;T1158 -->
<g id="edge2" class="edge">
<title>T1159:f2&#45;&gt;T1158:f2</title>
<path fill="none" stroke="#5b00c0" d="M1278.5,-30C1278.5,-54.78 2145.81,-45.86 2170.5,-48 2262.82,-56.01 2375.76,10.03 2384.02,-70.97"/>
<polygon fill="#5b00c0" stroke="#5b00c0" points="2380.53,-71.18 2384.5,-81 2387.52,-70.84 2380.53,-71.18"/>
<text text-anchor="middle" x="2391" y="-51.8" font-family="Times,serif" font-size="14.00" fill="#5b00c0">rw</text>
</g>
</g>
</svg>
