<?xml version="1.0" encoding="UTF-8" standalone="no"?>
<!DOCTYPE svg PUBLIC "-//W3C//DTD SVG 1.1//EN"
 "http://www.w3.org/Graphics/SVG/1.1/DTD/svg11.dtd">
<!-- Generated by graphviz version 2.43.0 (0)
 -->
<!-- Title: a_graph Pages: 1 -->
<svg width="1581pt" height="119pt"
 viewBox="0.00 0.00 1581.00 119.00" xmlns="http://www.w3.org/2000/svg" xmlns:xlink="http://www.w3.org/1999/xlink">
<g id="graph0" class="graph" transform="scale(1 1) rotate(0) translate(4 115)">
<title>a_graph</title>
<polygon fill="white" stroke="transparent" points="-4,4 -4,-115 1577,-115 1577,4 -4,4"/>
<!-- T1247 -->
<g id="node1" class="node">
<title>T1247</title>
<polygon fill="none" stroke="#0058ad" points="0,-81.5 0,-110.5 1573,-110.5 1573,-81.5 0,-81.5"/>
<text text-anchor="middle" x="35" y="-92.3" font-family="Times,serif" font-size="14.00" fill="#0058ad">a 47 26</text>
<polyline fill="none" stroke="#0058ad" points="70,-81.5 70,-110.5 "/>
<text text-anchor="middle" x="100.5" y="-92.3" font-family="Times,serif" font-size="14.00" fill="#0058ad">a 49 3</text>
<polyline fill="none" stroke="#0058ad" points="131,-81.5 131,-110.5 "/>
<text text-anchor="middle" x="411" y="-92.3" font-family="Times,serif" font-size="14.00" fill="#0058ad">r 47 [1 2 3 4 5 6 7 8 9 10 11 12 13 14 15 16 17 18 19 20 21 22 23 24 25 26]</text>
<polyline fill="none" stroke="#0058ad" points="691,-81.5 691,-110.5 "/>
<text text-anchor="middle" x="759.5" y="-92.3" font-family="Times,serif" font-size="14.00" fill="#0058ad">r 48 [1 2 3 4 5 6]</text>
<polyline fill="none" stroke="#0058ad" points="828,-81.5 828,-110.5 "/>
<text text-anchor="middle" x="863" y="-92.3" font-family="Times,serif" font-size="14.00" fill="#0058ad">a 47 27</text>
<polyline fill="none" stroke="#0058ad" points="898,-81.5 898,-110.5 "/>
<text text-anchor="middle" x="933" y="-92.3" font-family="Times,serif" font-size="14.00" fill="#0058ad">a 47 28</text>
<polyline fill="none" stroke="#0058ad" points="968,-81.5 968,-110.5 "/>
<text text-anchor="middle" x="1270.5" y="-92.3" font-family="Times,serif" font-size="14.00" fill="#0058ad">r 47 [1 2 3 4 5 6 7 8 9 10 11 12 13 14 15 16 17 18 19 20 21 22 23 24 25 26 27 28]</text>
</g>
<!-- T1246 -->
<g id="node2" class="node">
<title>T1246</title>
<polygon fill="none" stroke="#0058ad" points="426,-0.5 426,-29.5 721,-29.5 721,-0.5 426,-0.5"/>
<text text-anchor="middle" x="467.5" y="-11.3" font-family="Times,serif" font-size="14.00" fill="#0058ad">r 49 [1 2]</text>
<polyline fill="none" stroke="#0058ad" points="509,-0.5 509,-29.5 "/>
<text text-anchor="middle" x="539.5" y="-11.3" font-family="Times,serif" font-size="14.00" fill="#0058ad">a 48 7</text>
<polyline fill="none" stroke="#0058ad" points="570,-0.5 570,-29.5 "/>
<text text-anchor="middle" x="645.5" y="-11.3" font-family="Times,serif" font-size="14.00" fill="#0058ad">r 48 [1 2 3 4 5 6 7]</text>
</g>
<!-- T1247&#45;&gt;T1246 -->
<g id="edge1" class="edge">
<title>T1247:f3&#45;&gt;T1246:f1</title>
<path fill="none" stroke="#5b00c0" d="M759.5,-81C759.5,15.65 555.53,-119.6 540.39,-40.17"/>
<polygon fill="#5b00c0" stroke="#5b00c0" points="543.86,-39.66 539.5,-30 536.88,-40.27 543.86,-39.66"/>
<text text-anchor="middle" x="765" y="-51.8" font-family="Times,serif" font-size="14.00" fill="#5b00c0">rw</text>
</g>
<!-- T1246&#45;&gt;T1247 -->
<g id="edge2" class="edge">
<title>T1246:f0&#45;&gt;T1247:f1</title>
<path fill="none" stroke="#5b00c0" d="M424.5,-15C390.7,-15 144.9,-39.76 105.75,-72.33"/>
<polygon fill="#5b00c0" stroke="#5b00c0" points="102.69,-70.63 100.5,-81 108.67,-74.26 102.69,-70.63"/>
<text text-anchor="middle" x="181" y="-51.8" font-family="Times,serif" font-size="14.00" fill="#5b00c0">rw</text>
</g>
</g>
</svg>
