<?xml version="1.0" encoding="UTF-8" standalone="no"?>
<!DOCTYPE svg PUBLIC "-//W3C//DTD SVG 1.1//EN"
 "http://www.w3.org/Graphics/SVG/1.1/DTD/svg11.dtd">
<!-- Generated by graphviz version 2.43.0 (0)
 -->
<!-- Title: a_graph Pages: 1 -->
<svg width="588pt" height="119pt"
 viewBox="0.00 0.00 587.50 119.00" xmlns="http://www.w3.org/2000/svg" xmlns:xlink="http://www.w3.org/1999/xlink">
<g id="graph0" class="graph" transform="scale(1 1) rotate(0) translate(4 115)">
<title>a_graph</title>
<polygon fill="white" stroke="transparent" points="-4,4 -4,-115 583.5,-115 583.5,4 -4,4"/>
<!-- T1169 -->
<g id="node1" class="node">
<title>T1169</title>
<polygon fill="none" stroke="#0058ad" points="0,-81.5 0,-110.5 450,-110.5 450,-81.5 0,-81.5"/>
<text text-anchor="middle" x="38.5" y="-92.3" font-family="Times,serif" font-size="14.00" fill="#0058ad">r 495 nil</text>
<polyline fill="none" stroke="#0058ad" points="77,-81.5 77,-110.5 "/>
<text text-anchor="middle" x="115.5" y="-92.3" font-family="Times,serif" font-size="14.00" fill="#0058ad">r 495 nil</text>
<polyline fill="none" stroke="#0058ad" points="154,-81.5 154,-110.5 "/>
<text text-anchor="middle" x="192.5" y="-92.3" font-family="Times,serif" font-size="14.00" fill="#0058ad">r 494 nil</text>
<polyline fill="none" stroke="#0058ad" points="231,-81.5 231,-110.5 "/>
<text text-anchor="middle" x="268" y="-92.3" font-family="Times,serif" font-size="14.00" fill="#0058ad">w 495 1</text>
<polyline fill="none" stroke="#0058ad" points="305,-81.5 305,-110.5 "/>
<text text-anchor="middle" x="343.5" y="-92.3" font-family="Times,serif" font-size="14.00" fill="#0058ad">r 494 nil</text>
<polyline fill="none" stroke="#0058ad" points="382,-81.5 382,-110.5 "/>
<text text-anchor="middle" x="416" y="-92.3" font-family="Times,serif" font-size="14.00" fill="#0058ad">r 490 1</text>
</g>
<!-- T1168 -->
<g id="node2" class="node">
<title>T1168</title>
<polygon fill="none" stroke="#0058ad" points="8.5,-0.5 8.5,-29.5 579.5,-29.5 579.5,-0.5 8.5,-0.5"/>
<text text-anchor="middle" x="42.5" y="-11.3" font-family="Times,serif" font-size="14.00" fill="#0058ad">r 492 2</text>
<polyline fill="none" stroke="#0058ad" points="76.5,-0.5 76.5,-29.5 "/>
<text text-anchor="middle" x="113.5" y="-11.3" font-family="Times,serif" font-size="14.00" fill="#0058ad">w 494 1</text>
<polyline fill="none" stroke="#0058ad" points="150.5,-0.5 150.5,-29.5 "/>
<text text-anchor="middle" x="184.5" y="-11.3" font-family="Times,serif" font-size="14.00" fill="#0058ad">r 492 2</text>
<polyline fill="none" stroke="#0058ad" points="218.5,-0.5 218.5,-29.5 "/>
<text text-anchor="middle" x="252.5" y="-11.3" font-family="Times,serif" font-size="14.00" fill="#0058ad">r 494 1</text>
<polyline fill="none" stroke="#0058ad" points="286.5,-0.5 286.5,-29.5 "/>
<text text-anchor="middle" x="323.5" y="-11.3" font-family="Times,serif" font-size="14.00" fill="#0058ad">w 492 3</text>
<polyline fill="none" stroke="#0058ad" points="360.5,-0.5 360.5,-29.5 "/>
<text text-anchor="middle" x="399" y="-11.3" font-family="Times,serif" font-size="14.00" fill="#0058ad">r 495 nil</text>
<polyline fill="none" stroke="#0058ad" points="437.5,-0.5 437.5,-29.5 "/>
<text text-anchor="middle" x="474.5" y="-11.3" font-family="Times,serif" font-size="14.00" fill="#0058ad">w 490 2</text>
<polyline fill="none" stroke="#0058ad" points="511.5,-0.5 511.5,-29.5 "/>
<text text-anchor="middle" x="545.5" y="-11.3" font-family="Times,serif" font-size="14.00" fill="#0058ad">r 494 1</text>
</g>
<!-- T1169&#45;&gt;T1168 -->
<g id="edge1" class="edge">
<title>T1169:f2&#45;&gt;T1168:f1</title>
<path fill="none" stroke="#5b00c0" d="M192,-81C192,-43.13 127.12,-66.34 114.95,-39.92"/>
<polygon fill="#5b00c0" stroke="#5b00c0" points="118.37,-39.14 113,-30 111.5,-40.49 118.37,-39.14"/>
<text text-anchor="middle" x="192.5" y="-51.8" font-family="Times,serif" font-size="14.00" fill="#5b00c0">rw</text>
</g>
<!-- T1168&#45;&gt;T1169 -->
<g id="edge2" class="edge">
<title>T1168:f5&#45;&gt;T1169:f3</title>
<path fill="none" stroke="#5b00c0" d="M399,-30C399,-88.7 283.38,-26.98 269.38,-71.09"/>
<polygon fill="#5b00c0" stroke="#5b00c0" points="265.92,-70.61 268,-81 272.85,-71.58 265.92,-70.61"/>
<text text-anchor="middle" x="401.5" y="-51.8" font-family="Times,serif" font-size="14.00" fill="#5b00c0">rw</text>
</g>
</g>
</svg>
