<?xml version="1.0" encoding="UTF-8" standalone="no"?>
<!DOCTYPE svg PUBLIC "-//W3C//DTD SVG 1.1//EN"
 "http://www.w3.org/Graphics/SVG/1.1/DTD/svg11.dtd">
<!-- Generated by graphviz version 2.43.0 (0)
 -->
<!-- Title: a_graph Pages: 1 -->
<svg width="1716pt" height="119pt"
 viewBox="0.00 0.00 1716.00 119.00" xmlns="http://www.w3.org/2000/svg" xmlns:xlink="http://www.w3.org/1999/xlink">
<g id="graph0" class="graph" transform="scale(1 1) rotate(0) translate(4 115)">
<title>a_graph</title>
<polygon fill="white" stroke="transparent" points="-4,4 -4,-115 1712,-115 1712,4 -4,4"/>
<!-- T918 -->
<g id="node1" class="node">
<title>T918</title>
<polygon fill="none" stroke="#0058ad" points="0,-81.5 0,-110.5 1585,-110.5 1585,-81.5 0,-81.5"/>
<text text-anchor="middle" x="30.5" y="-92.3" font-family="Times,serif" font-size="14.00" fill="#0058ad">a 34 7</text>
<polyline fill="none" stroke="#0058ad" points="61,-81.5 61,-110.5 "/>
<text text-anchor="middle" x="307.5" y="-92.3" font-family="Times,serif" font-size="14.00" fill="#0058ad">r 32 [1 2 3 4 5 6 7 8 9 10 11 12 13 14 15 16 17 19 20 21 22 24 25]</text>
<polyline fill="none" stroke="#0058ad" points="554,-81.5 554,-110.5 "/>
<text text-anchor="middle" x="823" y="-92.3" font-family="Times,serif" font-size="14.00" fill="#0058ad">r 28 [2 3 4 5 6 7 8 9 10 11 12 13 14 15 16 17 18 19 20 21 1 22 23 24 25]</text>
<polyline fill="none" stroke="#0058ad" points="1092,-81.5 1092,-110.5 "/>
<text text-anchor="middle" x="1338.5" y="-92.3" font-family="Times,serif" font-size="14.00" fill="#0058ad">r 32 [1 2 3 4 5 6 7 8 9 10 11 12 13 14 15 16 17 19 20 21 22 24 25]</text>
</g>
<!-- T919 -->
<g id="node2" class="node">
<title>T919</title>
<polygon fill="none" stroke="#0058ad" points="81,-0.5 81,-29.5 1708,-29.5 1708,-0.5 81,-0.5"/>
<text text-anchor="middle" x="116" y="-11.3" font-family="Times,serif" font-size="14.00" fill="#0058ad">a 32 26</text>
<polyline fill="none" stroke="#0058ad" points="151,-0.5 151,-29.5 "/>
<text text-anchor="middle" x="186" y="-11.3" font-family="Times,serif" font-size="14.00" fill="#0058ad">a 32 27</text>
<polyline fill="none" stroke="#0058ad" points="221,-0.5 221,-29.5 "/>
<text text-anchor="middle" x="289.5" y="-11.3" font-family="Times,serif" font-size="14.00" fill="#0058ad">r 34 [1 2 3 4 5 6]</text>
<polyline fill="none" stroke="#0058ad" points="358,-0.5 358,-29.5 "/>
<text text-anchor="middle" x="426.5" y="-11.3" font-family="Times,serif" font-size="14.00" fill="#0058ad">r 34 [1 2 3 4 5 6]</text>
<polyline fill="none" stroke="#0058ad" points="495,-0.5 495,-29.5 "/>
<text text-anchor="middle" x="764" y="-11.3" font-family="Times,serif" font-size="14.00" fill="#0058ad">r 32 [1 2 3 4 5 6 7 8 9 10 11 12 13 14 15 16 17 19 20 21 22 24 25 26 27]</text>
<polyline fill="none" stroke="#0058ad" points="1033,-0.5 1033,-29.5 "/>
<text text-anchor="middle" x="1101.5" y="-11.3" font-family="Times,serif" font-size="14.00" fill="#0058ad">r 34 [1 2 3 4 5 6]</text>
<polyline fill="none" stroke="#0058ad" points="1170,-0.5 1170,-29.5 "/>
<text text-anchor="middle" x="1439" y="-11.3" font-family="Times,serif" font-size="14.00" fill="#0058ad">r 28 [2 3 4 5 6 7 8 9 10 11 12 13 14 15 16 17 18 19 20 21 1 22 23 24 25]</text>
</g>
<!-- T918&#45;&gt;T919 -->
<g id="edge1" class="edge">
<title>T918:f1&#45;&gt;T919:f0</title>
<path fill="none" stroke="#5b00c0" d="M307.5,-81C307.5,-52.94 209.31,-71.3 182.5,-63 154.51,-54.33 123.72,-61.12 116.89,-39.99"/>
<polygon fill="#5b00c0" stroke="#5b00c0" points="120.35,-39.42 115.5,-30 113.41,-40.39 120.35,-39.42"/>
<text text-anchor="middle" x="192" y="-51.8" font-family="Times,serif" font-size="14.00" fill="#5b00c0">rw</text>
</g>
<!-- T919&#45;&gt;T918 -->
<g id="edge2" class="edge">
<title>T919:f2&#45;&gt;T918:f0</title>
<path fill="none" stroke="#5b00c0" d="M289.5,-30C289.5,-71.77 242.15,-53.4 201.5,-63 185.45,-66.79 69.67,-63.21 38.31,-74.46"/>
<polygon fill="#5b00c0" stroke="#5b00c0" points="35.92,-71.9 30.5,-81 40.41,-77.26 35.92,-71.9"/>
<text text-anchor="middle" x="294" y="-51.8" font-family="Times,serif" font-size="14.00" fill="#5b00c0">rw</text>
</g>
</g>
</svg>
