<?xml version="1.0" encoding="UTF-8" standalone="no"?>
<!DOCTYPE svg PUBLIC "-//W3C//DTD SVG 1.1//EN"
 "http://www.w3.org/Graphics/SVG/1.1/DTD/svg11.dtd">
<!-- Generated by graphviz version 2.43.0 (0)
 -->
<!-- Title: a_graph Pages: 1 -->
<svg width="1387pt" height="119pt"
 viewBox="0.00 0.00 1387.00 119.00" xmlns="http://www.w3.org/2000/svg" xmlns:xlink="http://www.w3.org/1999/xlink">
<g id="graph0" class="graph" transform="scale(1 1) rotate(0) translate(4 115)">
<title>a_graph</title>
<polygon fill="white" stroke="transparent" points="-4,4 -4,-115 1383,-115 1383,4 -4,4"/>
<!-- T1088 -->
<g id="node1" class="node">
<title>T1088</title>
<polygon fill="none" stroke="#0058ad" points="0,-81.5 0,-110.5 1379,-110.5 1379,-81.5 0,-81.5"/>
<text text-anchor="middle" x="194.5" y="-92.3" font-family="Times,serif" font-size="14.00" fill="#0058ad">r 36 [2 3 4 5 6 7 8 9 10 11 12 13 14 15 16 17 18 19]</text>
<polyline fill="none" stroke="#0058ad" points="389,-81.5 389,-110.5 "/>
<text text-anchor="middle" x="424" y="-92.3" font-family="Times,serif" font-size="14.00" fill="#0058ad">a 36 20</text>
<polyline fill="none" stroke="#0058ad" points="459,-81.5 459,-110.5 "/>
<text text-anchor="middle" x="494" y="-92.3" font-family="Times,serif" font-size="14.00" fill="#0058ad">a 38 31</text>
<polyline fill="none" stroke="#0058ad" points="529,-81.5 529,-110.5 "/>
<text text-anchor="middle" x="741.5" y="-92.3" font-family="Times,serif" font-size="14.00" fill="#0058ad">r 40 [1 2 3 4 5 6 7 8 9 10 11 12 13 14 15 16 17 18 19 20]</text>
<polyline fill="none" stroke="#0058ad" points="954,-81.5 954,-110.5 "/>
<text text-anchor="middle" x="1166.5" y="-92.3" font-family="Times,serif" font-size="14.00" fill="#0058ad">r 40 [1 2 3 4 5 6 7 8 9 10 11 12 13 14 15 16 17 18 19 20]</text>
</g>
<!-- T1089 -->
<g id="node2" class="node">
<title>T1089</title>
<polygon fill="none" stroke="#0058ad" points="126.5,-0.5 126.5,-29.5 846.5,-29.5 846.5,-0.5 126.5,-0.5"/>
<text text-anchor="middle" x="451.5" y="-11.3" font-family="Times,serif" font-size="14.00" fill="#0058ad">r 38 [1 2 3 4 5 6 7 8 9 10 11 12 13 14 15 16 17 18 19 20 21 22 23 24 25 26 27 28 29 30]</text>
<polyline fill="none" stroke="#0058ad" points="776.5,-0.5 776.5,-29.5 "/>
<text text-anchor="middle" x="811.5" y="-11.3" font-family="Times,serif" font-size="14.00" fill="#0058ad">a 40 21</text>
</g>
<!-- T1088&#45;&gt;T1089 -->
<g id="edge1" class="edge">
<title>T1088:f3&#45;&gt;T1089:f1</title>
<path fill="none" stroke="#5b00c0" d="M741.5,-81C741.5,-46.42 798,-63.88 809.48,-39.87"/>
<polygon fill="#5b00c0" stroke="#5b00c0" points="812.92,-40.5 811.5,-30 806.07,-39.1 812.92,-40.5"/>
<text text-anchor="middle" x="810" y="-51.8" font-family="Times,serif" font-size="14.00" fill="#5b00c0">rw</text>
</g>
<!-- T1089&#45;&gt;T1088 -->
<g id="edge2" class="edge">
<title>T1089:f0&#45;&gt;T1088:f2</title>
<path fill="none" stroke="#5b00c0" d="M451.5,-30C451.5,-55.46 483.08,-53.03 491.47,-71.09"/>
<polygon fill="#5b00c0" stroke="#5b00c0" points="488.07,-71.9 493.5,-81 494.93,-70.5 488.07,-71.9"/>
<text text-anchor="middle" x="493" y="-51.8" font-family="Times,serif" font-size="14.00" fill="#5b00c0">rw</text>
</g>
</g>
</svg>
