<?xml version="1.0" encoding="UTF-8" standalone="no"?>
<!DOCTYPE svg PUBLIC "-//W3C//DTD SVG 1.1//EN"
 "http://www.w3.org/Graphics/SVG/1.1/DTD/svg11.dtd">
<!-- Generated by graphviz version 2.43.0 (0)
 -->
<!-- Title: a_graph Pages: 1 -->
<svg width="1242pt" height="119pt"
 viewBox="0.00 0.00 1242.00 119.00" xmlns="http://www.w3.org/2000/svg" xmlns:xlink="http://www.w3.org/1999/xlink">
<g id="graph0" class="graph" transform="scale(1 1) rotate(0) translate(4 115)">
<title>a_graph</title>
<polygon fill="white" stroke="transparent" points="-4,4 -4,-115 1238,-115 1238,4 -4,4"/>
<!-- T3417 -->
<g id="node1" class="node">
<title>T3417</title>
<polygon fill="none" stroke="#0058ad" points="58,-81.5 58,-110.5 850,-110.5 850,-81.5 58,-81.5"/>
<text text-anchor="middle" x="167" y="-92.3" font-family="Times,serif" font-size="14.00" fill="#0058ad">r 129 [1 2 3 4 5 6 7 8 11 12]</text>
<polyline fill="none" stroke="#0058ad" points="276,-81.5 276,-110.5 "/>
<text text-anchor="middle" x="315.5" y="-92.3" font-family="Times,serif" font-size="14.00" fill="#0058ad">a 127 20</text>
<polyline fill="none" stroke="#0058ad" points="355,-81.5 355,-110.5 "/>
<text text-anchor="middle" x="464" y="-92.3" font-family="Times,serif" font-size="14.00" fill="#0058ad">r 129 [1 2 3 4 5 6 7 8 11 12]</text>
<polyline fill="none" stroke="#0058ad" points="573,-81.5 573,-110.5 "/>
<text text-anchor="middle" x="711.5" y="-92.3" font-family="Times,serif" font-size="14.00" fill="#0058ad">r 127 [1 2 3 4 5 6 7 8 9 10 14 17 20]</text>
</g>
<!-- T3418 -->
<g id="node2" class="node">
<title>T3418</title>
<polygon fill="none" stroke="#0058ad" points="0,-0.5 0,-29.5 1234,-29.5 1234,-0.5 0,-0.5"/>
<text text-anchor="middle" x="39.5" y="-11.3" font-family="Times,serif" font-size="14.00" fill="#0058ad">a 129 19</text>
<polyline fill="none" stroke="#0058ad" points="79,-0.5 79,-29.5 "/>
<text text-anchor="middle" x="118.5" y="-11.3" font-family="Times,serif" font-size="14.00" fill="#0058ad">a 128 10</text>
<polyline fill="none" stroke="#0058ad" points="158,-0.5 158,-29.5 "/>
<text text-anchor="middle" x="278.5" y="-11.3" font-family="Times,serif" font-size="14.00" fill="#0058ad">r 129 [1 2 3 4 5 6 7 8 11 12 19]</text>
<polyline fill="none" stroke="#0058ad" points="399,-0.5 399,-29.5 "/>
<text text-anchor="middle" x="526" y="-11.3" font-family="Times,serif" font-size="14.00" fill="#0058ad">r 127 [1 2 3 4 5 6 7 8 9 10 14 17]</text>
<polyline fill="none" stroke="#0058ad" points="653,-0.5 653,-29.5 "/>
<text text-anchor="middle" x="737.5" y="-11.3" font-family="Times,serif" font-size="14.00" fill="#0058ad">r 128 [1 2 3 4 5 6 10]</text>
<polyline fill="none" stroke="#0058ad" points="822,-0.5 822,-29.5 "/>
<text text-anchor="middle" x="949" y="-11.3" font-family="Times,serif" font-size="14.00" fill="#0058ad">r 127 [1 2 3 4 5 6 7 8 9 10 14 17]</text>
<polyline fill="none" stroke="#0058ad" points="1076,-0.5 1076,-29.5 "/>
<text text-anchor="middle" x="1115.5" y="-11.3" font-family="Times,serif" font-size="14.00" fill="#0058ad">a 128 11</text>
<polyline fill="none" stroke="#0058ad" points="1155,-0.5 1155,-29.5 "/>
<text text-anchor="middle" x="1194.5" y="-11.3" font-family="Times,serif" font-size="14.00" fill="#0058ad">a 128 12</text>
</g>
<!-- T3417&#45;&gt;T3418 -->
<g id="edge1" class="edge">
<title>T3417:f0&#45;&gt;T3418:f0</title>
<path fill="none" stroke="#5b00c0" d="M57,-96C29.92,-96 36.8,-67.77 38.63,-40.11"/>
<polygon fill="#5b00c0" stroke="#5b00c0" points="42.13,-40.12 39,-30 35.13,-39.86 42.13,-40.12"/>
<text text-anchor="middle" x="47.5" y="-51.8" font-family="Times,serif" font-size="14.00" fill="#5b00c0">rw</text>
</g>
<!-- T3418&#45;&gt;T3417 -->
<g id="edge2" class="edge">
<title>T3418:f3&#45;&gt;T3417:f1</title>
<path fill="none" stroke="#5b00c0" d="M526,-30C526,-122.71 331.16,4.75 315.94,-70.76"/>
<polygon fill="#5b00c0" stroke="#5b00c0" points="312.43,-70.72 315,-81 319.4,-71.36 312.43,-70.72"/>
<text text-anchor="middle" x="531.5" y="-51.8" font-family="Times,serif" font-size="14.00" fill="#5b00c0">rw</text>
</g>
</g>
</svg>
