<?xml version="1.0" encoding="UTF-8" standalone="no"?>
<!DOCTYPE svg PUBLIC "-//W3C//DTD SVG 1.1//EN"
 "http://www.w3.org/Graphics/SVG/1.1/DTD/svg11.dtd">
<!-- Generated by graphviz version 2.43.0 (0)
 -->
<!-- Title: a_graph Pages: 1 -->
<svg width="1243pt" height="119pt"
 viewBox="0.00 0.00 1243.00 119.00" xmlns="http://www.w3.org/2000/svg" xmlns:xlink="http://www.w3.org/1999/xlink">
<g id="graph0" class="graph" transform="scale(1 1) rotate(0) translate(4 115)">
<title>a_graph</title>
<polygon fill="white" stroke="transparent" points="-4,4 -4,-115 1239,-115 1239,4 -4,4"/>
<!-- T2521 -->
<g id="node1" class="node">
<title>T2521</title>
<polygon fill="none" stroke="#0058ad" points="429,-81.5 429,-110.5 1235,-110.5 1235,-81.5 429,-81.5"/>
<text text-anchor="middle" x="491" y="-92.3" font-family="Times,serif" font-size="14.00" fill="#0058ad">r 94 [1 2 3 5 6]</text>
<polyline fill="none" stroke="#0058ad" points="553,-81.5 553,-110.5 "/>
<text text-anchor="middle" x="588" y="-92.3" font-family="Times,serif" font-size="14.00" fill="#0058ad">a 95 10</text>
<polyline fill="none" stroke="#0058ad" points="623,-81.5 623,-110.5 "/>
<text text-anchor="middle" x="658" y="-92.3" font-family="Times,serif" font-size="14.00" fill="#0058ad">a 95 11</text>
<polyline fill="none" stroke="#0058ad" points="693,-81.5 693,-110.5 "/>
<text text-anchor="middle" x="755" y="-92.3" font-family="Times,serif" font-size="14.00" fill="#0058ad">r 94 [1 2 3 5 6]</text>
<polyline fill="none" stroke="#0058ad" points="817,-81.5 817,-110.5 "/>
<text text-anchor="middle" x="921.5" y="-92.3" font-family="Times,serif" font-size="14.00" fill="#0058ad">r 95 [1 2 3 4 6 7 8 9 10 11]</text>
<polyline fill="none" stroke="#0058ad" points="1026,-81.5 1026,-110.5 "/>
<text text-anchor="middle" x="1130.5" y="-92.3" font-family="Times,serif" font-size="14.00" fill="#0058ad">r 95 [1 2 3 4 6 7 8 9 10 11]</text>
</g>
<!-- T2522 -->
<g id="node2" class="node">
<title>T2522</title>
<polygon fill="none" stroke="#0058ad" points="0,-0.5 0,-29.5 1180,-29.5 1180,-0.5 0,-0.5"/>
<text text-anchor="middle" x="30.5" y="-11.3" font-family="Times,serif" font-size="14.00" fill="#0058ad">a 94 7</text>
<polyline fill="none" stroke="#0058ad" points="61,-0.5 61,-29.5 "/>
<text text-anchor="middle" x="96" y="-11.3" font-family="Times,serif" font-size="14.00" fill="#0058ad">a 87 25</text>
<polyline fill="none" stroke="#0058ad" points="131,-0.5 131,-29.5 "/>
<text text-anchor="middle" x="161.5" y="-11.3" font-family="Times,serif" font-size="14.00" fill="#0058ad">a 94 8</text>
<polyline fill="none" stroke="#0058ad" points="192,-0.5 192,-29.5 "/>
<text text-anchor="middle" x="227" y="-11.3" font-family="Times,serif" font-size="14.00" fill="#0058ad">a 87 26</text>
<polyline fill="none" stroke="#0058ad" points="262,-0.5 262,-29.5 "/>
<text text-anchor="middle" x="522" y="-11.3" font-family="Times,serif" font-size="14.00" fill="#0058ad">r 87 [1 2 5 6 8 9 10 11 12 13 14 15 16 17 18 19 20 21 22 23 24 25 26]</text>
<polyline fill="none" stroke="#0058ad" points="782,-0.5 782,-29.5 "/>
<text text-anchor="middle" x="864" y="-11.3" font-family="Times,serif" font-size="14.00" fill="#0058ad">r 95 [1 2 3 4 6 7 8 9]</text>
<polyline fill="none" stroke="#0058ad" points="946,-0.5 946,-29.5 "/>
<text text-anchor="middle" x="1028" y="-11.3" font-family="Times,serif" font-size="14.00" fill="#0058ad">r 95 [1 2 3 4 6 7 8 9]</text>
<polyline fill="none" stroke="#0058ad" points="1110,-0.5 1110,-29.5 "/>
<text text-anchor="middle" x="1145" y="-11.3" font-family="Times,serif" font-size="14.00" fill="#0058ad">a 87 27</text>
</g>
<!-- T2521&#45;&gt;T2522 -->
<g id="edge1" class="edge">
<title>T2521:f0&#45;&gt;T2522:f0</title>
<path fill="none" stroke="#5b00c0" d="M428,-96C386.24,-96 76.84,-77.62 34.74,-38.86"/>
<polygon fill="#5b00c0" stroke="#5b00c0" points="37.8,-37.17 30,-30 31.63,-40.47 37.8,-37.17"/>
<text text-anchor="middle" x="108.5" y="-51.8" font-family="Times,serif" font-size="14.00" fill="#5b00c0">rw</text>
</g>
<!-- T2522&#45;&gt;T2521 -->
<g id="edge2" class="edge">
<title>T2522:f5&#45;&gt;T2521:f1</title>
<path fill="none" stroke="#5b00c0" d="M864,-30C864,-151.09 603.93,32.39 588.7,-70.85"/>
<polygon fill="#5b00c0" stroke="#5b00c0" points="585.19,-70.78 588,-81 592.18,-71.26 585.19,-70.78"/>
<text text-anchor="middle" x="870.5" y="-51.8" font-family="Times,serif" font-size="14.00" fill="#5b00c0">rw</text>
</g>
</g>
</svg>
