<?xml version="1.0" encoding="UTF-8" standalone="no"?>
<!DOCTYPE svg PUBLIC "-//W3C//DTD SVG 1.1//EN"
 "http://www.w3.org/Graphics/SVG/1.1/DTD/svg11.dtd">
<!-- Generated by graphviz version 2.43.0 (0)
 -->
<!-- Title: a_graph Pages: 1 -->
<svg width="914pt" height="119pt"
 viewBox="0.00 0.00 914.00 119.00" xmlns="http://www.w3.org/2000/svg" xmlns:xlink="http://www.w3.org/1999/xlink">
<g id="graph0" class="graph" transform="scale(1 1) rotate(0) translate(4 115)">
<title>a_graph</title>
<polygon fill="white" stroke="transparent" points="-4,4 -4,-115 910,-115 910,4 -4,4"/>
<!-- T3473 -->
<g id="node1" class="node">
<title>T3473</title>
<polygon fill="none" stroke="#0058ad" points="0,-81.5 0,-110.5 906,-110.5 906,-81.5 0,-81.5"/>
<text text-anchor="middle" x="35" y="-92.3" font-family="Times,serif" font-size="14.00" fill="#0058ad">a 132 2</text>
<polyline fill="none" stroke="#0058ad" points="70,-81.5 70,-110.5 "/>
<text text-anchor="middle" x="289.5" y="-92.3" font-family="Times,serif" font-size="14.00" fill="#0058ad">r 128 [1 2 3 4 5 6 10 11 12 14 16 17 18 19 20 21 22 23 24]</text>
<polyline fill="none" stroke="#0058ad" points="509,-81.5 509,-110.5 "/>
<text text-anchor="middle" x="544" y="-92.3" font-family="Times,serif" font-size="14.00" fill="#0058ad">a 132 3</text>
<polyline fill="none" stroke="#0058ad" points="579,-81.5 579,-110.5 "/>
<text text-anchor="middle" x="672.5" y="-92.3" font-family="Times,serif" font-size="14.00" fill="#0058ad">r 131 [1 2 3 4 5 6 7 8 9]</text>
<polyline fill="none" stroke="#0058ad" points="766,-81.5 766,-110.5 "/>
<text text-anchor="middle" x="801" y="-92.3" font-family="Times,serif" font-size="14.00" fill="#0058ad">a 132 4</text>
<polyline fill="none" stroke="#0058ad" points="836,-81.5 836,-110.5 "/>
<text text-anchor="middle" x="871" y="-92.3" font-family="Times,serif" font-size="14.00" fill="#0058ad">a 132 5</text>
</g>
<!-- T3471 -->
<g id="node2" class="node">
<title>T3471</title>
<polygon fill="none" stroke="#0058ad" points="344.5,-0.5 344.5,-29.5 581.5,-29.5 581.5,-0.5 344.5,-0.5"/>
<text text-anchor="middle" x="384" y="-11.3" font-family="Times,serif" font-size="14.00" fill="#0058ad">r 132 [1]</text>
<polyline fill="none" stroke="#0058ad" points="423.5,-0.5 423.5,-29.5 "/>
<text text-anchor="middle" x="463" y="-11.3" font-family="Times,serif" font-size="14.00" fill="#0058ad">a 131 10</text>
<polyline fill="none" stroke="#0058ad" points="502.5,-0.5 502.5,-29.5 "/>
<text text-anchor="middle" x="542" y="-11.3" font-family="Times,serif" font-size="14.00" fill="#0058ad">r 132 [1]</text>
</g>
<!-- T3473&#45;&gt;T3471 -->
<g id="edge1" class="edge">
<title>T3473:f3&#45;&gt;T3471:f1</title>
<path fill="none" stroke="#5b00c0" d="M673,-81C673,11.29 479.09,-115.39 463.94,-40.2"/>
<polygon fill="#5b00c0" stroke="#5b00c0" points="467.4,-39.64 463,-30 460.43,-40.28 467.4,-39.64"/>
<text text-anchor="middle" x="678.5" y="-51.8" font-family="Times,serif" font-size="14.00" fill="#5b00c0">rw</text>
</g>
<!-- T3471&#45;&gt;T3473 -->
<g id="edge2" class="edge">
<title>T3471:f0&#45;&gt;T3473:f0</title>
<path fill="none" stroke="#5b00c0" d="M343,-15C311.01,-15 80.16,-40.9 40.72,-72.08"/>
<polygon fill="#5b00c0" stroke="#5b00c0" points="37.46,-70.69 35,-81 43.35,-74.48 37.46,-70.69"/>
<text text-anchor="middle" x="111.5" y="-51.8" font-family="Times,serif" font-size="14.00" fill="#5b00c0">rw</text>
</g>
</g>
</svg>
