<?xml version="1.0" encoding="UTF-8" standalone="no"?>
<!DOCTYPE svg PUBLIC "-//W3C//DTD SVG 1.1//EN"
 "http://www.w3.org/Graphics/SVG/1.1/DTD/svg11.dtd">
<!-- Generated by graphviz version 2.43.0 (0)
 -->
<!-- Title: a_graph Pages: 1 -->
<svg width="4015pt" height="119pt"
 viewBox="0.00 0.00 4015.00 119.00" xmlns="http://www.w3.org/2000/svg" xmlns:xlink="http://www.w3.org/1999/xlink">
<g id="graph0" class="graph" transform="scale(1 1) rotate(0) translate(4 115)">
<title>a_graph</title>
<polygon fill="white" stroke="transparent" points="-4,4 -4,-115 4011,-115 4011,4 -4,4"/>
<!-- T3129 -->
<g id="node1" class="node">
<title>T3129</title>
<polygon fill="none" stroke="#0058ad" points="0,-81.5 0,-110.5 4007,-110.5 4007,-81.5 0,-81.5"/>
<text text-anchor="middle" x="341" y="-92.3" font-family="Times,serif" font-size="14.00" fill="#0058ad">r 111 [1 2 3 4 5 6 7 8 9 10 11 12 13 15 16 17 18 21 22 25 26 27 28 29 30 31 32 23 24 19 20]</text>
<polyline fill="none" stroke="#0058ad" points="682,-81.5 682,-110.5 "/>
<text text-anchor="middle" x="1002.5" y="-92.3" font-family="Times,serif" font-size="14.00" fill="#0058ad">r 115 [1 2 6 7 8 9 10 11 16 19 20 21 22 23 24 25 26 27 28 29 30 31 32 13 14 15 17 18]</text>
<polyline fill="none" stroke="#0058ad" points="1323,-81.5 1323,-110.5 "/>
<text text-anchor="middle" x="1643.5" y="-92.3" font-family="Times,serif" font-size="14.00" fill="#0058ad">r 115 [1 2 6 7 8 9 10 11 16 19 20 21 22 23 24 25 26 27 28 29 30 31 32 13 14 15 17 18]</text>
<polyline fill="none" stroke="#0058ad" points="1964,-81.5 1964,-110.5 "/>
<text text-anchor="middle" x="2003.5" y="-92.3" font-family="Times,serif" font-size="14.00" fill="#0058ad">a 114 12</text>
<polyline fill="none" stroke="#0058ad" points="2043,-81.5 2043,-110.5 "/>
<text text-anchor="middle" x="2363.5" y="-92.3" font-family="Times,serif" font-size="14.00" fill="#0058ad">r 115 [1 2 6 7 8 9 10 11 16 19 20 21 22 23 24 25 26 27 28 29 30 31 32 13 14 15 17 18]</text>
<polyline fill="none" stroke="#0058ad" points="2684,-81.5 2684,-110.5 "/>
<text text-anchor="middle" x="3025" y="-92.3" font-family="Times,serif" font-size="14.00" fill="#0058ad">r 114 [1 2 3 4 5 6 7 8 10 11 13 14 15 17 18 20 21 22 23 24 25 26 27 28 29 30 31 32 19 9 12]</text>
<polyline fill="none" stroke="#0058ad" points="3366,-81.5 3366,-110.5 "/>
<text text-anchor="middle" x="3686.5" y="-92.3" font-family="Times,serif" font-size="14.00" fill="#0058ad">r 115 [1 2 6 7 8 9 10 11 16 19 20 21 22 23 24 25 26 27 28 29 30 31 32 13 14 15 17 18]</text>
</g>
<!-- T3130 -->
<g id="node2" class="node">
<title>T3130</title>
<polygon fill="none" stroke="#0058ad" points="350.5,-0.5 350.5,-29.5 3838.5,-29.5 3838.5,-0.5 350.5,-0.5"/>
<text text-anchor="middle" x="680" y="-11.3" font-family="Times,serif" font-size="14.00" fill="#0058ad">r 114 [1 2 3 4 5 6 7 8 10 11 13 14 15 17 18 20 21 22 23 24 25 26 27 28 29 30 31 32 19 9]</text>
<polyline fill="none" stroke="#0058ad" points="1009.5,-0.5 1009.5,-29.5 "/>
<text text-anchor="middle" x="1330" y="-11.3" font-family="Times,serif" font-size="14.00" fill="#0058ad">r 115 [1 2 6 7 8 9 10 11 16 19 20 21 22 23 24 25 26 27 28 29 30 31 32 13 14 15 17 18]</text>
<polyline fill="none" stroke="#0058ad" points="1650.5,-0.5 1650.5,-29.5 "/>
<text text-anchor="middle" x="1971" y="-11.3" font-family="Times,serif" font-size="14.00" fill="#0058ad">r 115 [1 2 6 7 8 9 10 11 16 19 20 21 22 23 24 25 26 27 28 29 30 31 32 13 14 15 17 18]</text>
<polyline fill="none" stroke="#0058ad" points="2291.5,-0.5 2291.5,-29.5 "/>
<text text-anchor="middle" x="2326.5" y="-11.3" font-family="Times,serif" font-size="14.00" fill="#0058ad">a 115 3</text>
<polyline fill="none" stroke="#0058ad" points="2361.5,-0.5 2361.5,-29.5 "/>
<text text-anchor="middle" x="2689" y="-11.3" font-family="Times,serif" font-size="14.00" fill="#0058ad">r 115 [1 2 6 7 8 9 10 11 16 19 20 21 22 23 24 25 26 27 28 29 30 31 32 13 14 15 17 18 3]</text>
<polyline fill="none" stroke="#0058ad" points="3016.5,-0.5 3016.5,-29.5 "/>
<text text-anchor="middle" x="3051.5" y="-11.3" font-family="Times,serif" font-size="14.00" fill="#0058ad">a 115 4</text>
<polyline fill="none" stroke="#0058ad" points="3086.5,-0.5 3086.5,-29.5 "/>
<text text-anchor="middle" x="3121.5" y="-11.3" font-family="Times,serif" font-size="14.00" fill="#0058ad">a 115 5</text>
<polyline fill="none" stroke="#0058ad" points="3156.5,-0.5 3156.5,-29.5 "/>
<text text-anchor="middle" x="3497.5" y="-11.3" font-family="Times,serif" font-size="14.00" fill="#0058ad">r 115 [1 2 6 7 8 9 10 11 16 19 20 21 22 23 24 25 26 27 28 29 30 31 32 13 14 15 17 18 3 4 5]</text>
</g>
<!-- T3129&#45;&gt;T3130 -->
<g id="edge1" class="edge">
<title>T3129:f1&#45;&gt;T3130:f3</title>
<path fill="none" stroke="#5b00c0" d="M1002.5,-81C1002.5,79.17 1562.45,-54.05 1722.5,-48 1738,-47.41 2240.35,-46.87 2316.79,-33.56"/>
<polygon fill="#5b00c0" stroke="#5b00c0" points="2318.32,-36.73 2326.5,-30 2315.91,-30.16 2318.32,-36.73"/>
<text text-anchor="middle" x="1732" y="-51.8" font-family="Times,serif" font-size="14.00" fill="#5b00c0">rw</text>
</g>
<!-- T3130&#45;&gt;T3129 -->
<g id="edge2" class="edge">
<title>T3130:f0&#45;&gt;T3129:f3</title>
<path fill="none" stroke="#5b00c0" d="M679.5,-30C679.5,-44.75 1726.79,-46.95 1741.5,-48 1855.02,-56.09 1994.75,30.84 2003.11,-70.91"/>
<polygon fill="#5b00c0" stroke="#5b00c0" points="1999.61,-71.14 2003.5,-81 2006.61,-70.87 1999.61,-71.14"/>
<text text-anchor="middle" x="2012" y="-51.8" font-family="Times,serif" font-size="14.00" fill="#5b00c0">rw</text>
</g>
</g>
</svg>
