<?xml version="1.0" encoding="UTF-8" standalone="no"?>
<!DOCTYPE svg PUBLIC "-//W3C//DTD SVG 1.1//EN"
 "http://www.w3.org/Graphics/SVG/1.1/DTD/svg11.dtd">
<!-- Generated by graphviz version 2.43.0 (0)
 -->
<!-- Title: a_graph Pages: 1 -->
<svg width="2901pt" height="119pt"
 viewBox="0.00 0.00 2901.00 119.00" xmlns="http://www.w3.org/2000/svg" xmlns:xlink="http://www.w3.org/1999/xlink">
<g id="graph0" class="graph" transform="scale(1 1) rotate(0) translate(4 115)">
<title>a_graph</title>
<polygon fill="white" stroke="transparent" points="-4,4 -4,-115 2897,-115 2897,4 -4,4"/>
<!-- T4381 -->
<g id="node1" class="node">
<title>T4381</title>
<polygon fill="none" stroke="#0058ad" points="1323.5,-81.5 1323.5,-110.5 1875.5,-110.5 1875.5,-81.5 1323.5,-81.5"/>
<text text-anchor="middle" x="1358.5" y="-92.3" font-family="Times,serif" font-size="14.00" fill="#0058ad">r 167 []</text>
<polyline fill="none" stroke="#0058ad" points="1393.5,-81.5 1393.5,-110.5 "/>
<text text-anchor="middle" x="1428.5" y="-92.3" font-family="Times,serif" font-size="14.00" fill="#0058ad">a 167 2</text>
<polyline fill="none" stroke="#0058ad" points="1463.5,-81.5 1463.5,-110.5 "/>
<text text-anchor="middle" x="1503" y="-92.3" font-family="Times,serif" font-size="14.00" fill="#0058ad">r 167 [2]</text>
<polyline fill="none" stroke="#0058ad" points="1542.5,-81.5 1542.5,-110.5 "/>
<text text-anchor="middle" x="1582" y="-92.3" font-family="Times,serif" font-size="14.00" fill="#0058ad">a 162 20</text>
<polyline fill="none" stroke="#0058ad" points="1621.5,-81.5 1621.5,-110.5 "/>
<text text-anchor="middle" x="1748.5" y="-92.3" font-family="Times,serif" font-size="14.00" fill="#0058ad">r 166 [1 2 3 4 5 6 7 8 9 10 11 12]</text>
</g>
<!-- T4380 -->
<g id="node2" class="node">
<title>T4380</title>
<polygon fill="none" stroke="#0058ad" points="0,-0.5 0,-29.5 2893,-29.5 2893,-0.5 0,-0.5"/>
<text text-anchor="middle" x="341" y="-11.3" font-family="Times,serif" font-size="14.00" fill="#0058ad">r 165 [1 2 3 4 5 6 7 8 9 10 11 12 13 14 15 16 17 18 19 20 21 22 23 24 25 26 27 28 29 30 31]</text>
<polyline fill="none" stroke="#0058ad" points="682,-0.5 682,-29.5 "/>
<text text-anchor="middle" x="721.5" y="-11.3" font-family="Times,serif" font-size="14.00" fill="#0058ad">a 166 15</text>
<polyline fill="none" stroke="#0058ad" points="761,-0.5 761,-29.5 "/>
<text text-anchor="middle" x="1102" y="-11.3" font-family="Times,serif" font-size="14.00" fill="#0058ad">r 165 [1 2 3 4 5 6 7 8 9 10 11 12 13 14 15 16 17 18 19 20 21 22 23 24 25 26 27 28 29 30 31]</text>
<polyline fill="none" stroke="#0058ad" points="1443,-0.5 1443,-29.5 "/>
<text text-anchor="middle" x="1581.5" y="-11.3" font-family="Times,serif" font-size="14.00" fill="#0058ad">r 166 [1 2 3 4 5 6 7 8 9 10 11 12 15]</text>
<polyline fill="none" stroke="#0058ad" points="1720,-0.5 1720,-29.5 "/>
<text text-anchor="middle" x="2061" y="-11.3" font-family="Times,serif" font-size="14.00" fill="#0058ad">r 165 [1 2 3 4 5 6 7 8 9 10 11 12 13 14 15 16 17 18 19 20 21 22 23 24 25 26 27 28 29 30 31]</text>
<polyline fill="none" stroke="#0058ad" points="2402,-0.5 2402,-29.5 "/>
<text text-anchor="middle" x="2608" y="-11.3" font-family="Times,serif" font-size="14.00" fill="#0058ad">r 162 [1 2 3 4 5 6 7 8 9 10 11 12 13 14 15 16 17 18 19]</text>
<polyline fill="none" stroke="#0058ad" points="2814,-0.5 2814,-29.5 "/>
<text text-anchor="middle" x="2853.5" y="-11.3" font-family="Times,serif" font-size="14.00" fill="#0058ad">a 165 32</text>
</g>
<!-- T4381&#45;&gt;T4380 -->
<g id="edge1" class="edge">
<title>T4381:f4&#45;&gt;T4380:f1</title>
<path fill="none" stroke="#5b00c0" d="M1748.5,-81C1748.5,-28.68 1687.22,-55.92 1635.5,-48 1611.92,-44.39 825.97,-54.09 730.89,-34.22"/>
<polygon fill="#5b00c0" stroke="#5b00c0" points="732.06,-30.91 721.5,-30 729.18,-37.29 732.06,-30.91"/>
<text text-anchor="middle" x="1754" y="-51.8" font-family="Times,serif" font-size="14.00" fill="#5b00c0">rw</text>
</g>
<!-- T4380&#45;&gt;T4381 -->
<g id="edge2" class="edge">
<title>T4380:f5&#45;&gt;T4381:f3</title>
<path fill="none" stroke="#5b00c0" d="M2608.5,-30C2608.5,-57.67 1637.8,-36.78 1612.5,-48 1597.7,-54.56 1586.64,-58.9 1582.89,-70.83"/>
<polygon fill="#5b00c0" stroke="#5b00c0" points="1579.39,-70.62 1581.5,-81 1586.32,-71.57 1579.39,-70.62"/>
<text text-anchor="middle" x="1622" y="-51.8" font-family="Times,serif" font-size="14.00" fill="#5b00c0">rw</text>
</g>
</g>
</svg>
