<?xml version="1.0" encoding="UTF-8" standalone="no"?>
<!DOCTYPE svg PUBLIC "-//W3C//DTD SVG 1.1//EN"
 "http://www.w3.org/Graphics/SVG/1.1/DTD/svg11.dtd">
<!-- Generated by graphviz version 2.43.0 (0)
 -->
<!-- Title: a_graph Pages: 1 -->
<svg width="1008pt" height="119pt"
 viewBox="0.00 0.00 1008.00 119.00" xmlns="http://www.w3.org/2000/svg" xmlns:xlink="http://www.w3.org/1999/xlink">
<g id="graph0" class="graph" transform="scale(1 1) rotate(0) translate(4 115)">
<title>a_graph</title>
<polygon fill="white" stroke="transparent" points="-4,4 -4,-115 1004,-115 1004,4 -4,4"/>
<!-- T2560 -->
<g id="node1" class="node">
<title>T2560</title>
<polygon fill="none" stroke="#0058ad" points="110.5,-81.5 110.5,-110.5 617.5,-110.5 617.5,-81.5 110.5,-81.5"/>
<text text-anchor="middle" x="186" y="-92.3" font-family="Times,serif" font-size="14.00" fill="#0058ad">r 97 [1 2 3 4 5 6 7]</text>
<polyline fill="none" stroke="#0058ad" points="261.5,-81.5 261.5,-110.5 "/>
<text text-anchor="middle" x="292" y="-92.3" font-family="Times,serif" font-size="14.00" fill="#0058ad">r 99 []</text>
<polyline fill="none" stroke="#0058ad" points="322.5,-81.5 322.5,-110.5 "/>
<text text-anchor="middle" x="364" y="-92.3" font-family="Times,serif" font-size="14.00" fill="#0058ad">r 98 [1 2]</text>
<polyline fill="none" stroke="#0058ad" points="405.5,-81.5 405.5,-110.5 "/>
<text text-anchor="middle" x="481" y="-92.3" font-family="Times,serif" font-size="14.00" fill="#0058ad">r 97 [1 2 3 4 5 6 7]</text>
<polyline fill="none" stroke="#0058ad" points="556.5,-81.5 556.5,-110.5 "/>
<text text-anchor="middle" x="587" y="-92.3" font-family="Times,serif" font-size="14.00" fill="#0058ad">a 99 1</text>
</g>
<!-- T2561 -->
<g id="node2" class="node">
<title>T2561</title>
<polygon fill="none" stroke="#0058ad" points="0,-0.5 0,-29.5 1000,-29.5 1000,-0.5 0,-0.5"/>
<text text-anchor="middle" x="30.5" y="-11.3" font-family="Times,serif" font-size="14.00" fill="#0058ad">a 98 3</text>
<polyline fill="none" stroke="#0058ad" points="61,-0.5 61,-29.5 "/>
<text text-anchor="middle" x="408.5" y="-11.3" font-family="Times,serif" font-size="14.00" fill="#0058ad">r 96 [1 2 3 4 5 6 7 8 9 10 11 12 13 14 15 16 17 18 19 20 21 22 23 24 25 26 27 28 29 30 31 32]</text>
<polyline fill="none" stroke="#0058ad" points="756,-0.5 756,-29.5 "/>
<text text-anchor="middle" x="786.5" y="-11.3" font-family="Times,serif" font-size="14.00" fill="#0058ad">r 99 []</text>
<polyline fill="none" stroke="#0058ad" points="817,-0.5 817,-29.5 "/>
<text text-anchor="middle" x="847.5" y="-11.3" font-family="Times,serif" font-size="14.00" fill="#0058ad">a 98 4</text>
<polyline fill="none" stroke="#0058ad" points="878,-0.5 878,-29.5 "/>
<text text-anchor="middle" x="908.5" y="-11.3" font-family="Times,serif" font-size="14.00" fill="#0058ad">a 97 8</text>
<polyline fill="none" stroke="#0058ad" points="939,-0.5 939,-29.5 "/>
<text text-anchor="middle" x="969.5" y="-11.3" font-family="Times,serif" font-size="14.00" fill="#0058ad">a 98 5</text>
</g>
<!-- T2560&#45;&gt;T2561 -->
<g id="edge1" class="edge">
<title>T2560:f2&#45;&gt;T2561:f0</title>
<path fill="none" stroke="#5b00c0" d="M364,-81C364,65.5 46.11,-168.23 30.59,-40.3"/>
<polygon fill="#5b00c0" stroke="#5b00c0" points="34.06,-39.78 30,-30 27.08,-40.18 34.06,-39.78"/>
<text text-anchor="middle" x="370.5" y="-51.8" font-family="Times,serif" font-size="14.00" fill="#5b00c0">rw</text>
</g>
<!-- T2561&#45;&gt;T2560 -->
<g id="edge2" class="edge">
<title>T2561:f2&#45;&gt;T2560:f4</title>
<path fill="none" stroke="#5b00c0" d="M787,-30C787,-67.13 677.39,-92.08 629.29,-95.58"/>
<polygon fill="#5b00c0" stroke="#5b00c0" points="628.85,-92.09 619,-96 629.14,-99.09 628.85,-92.09"/>
<text text-anchor="middle" x="787.5" y="-51.8" font-family="Times,serif" font-size="14.00" fill="#5b00c0">rw</text>
</g>
</g>
</svg>
