<?xml version="1.0" encoding="UTF-8" standalone="no"?>
<!DOCTYPE svg PUBLIC "-//W3C//DTD SVG 1.1//EN"
 "http://www.w3.org/Graphics/SVG/1.1/DTD/svg11.dtd">
<!-- Generated by graphviz version 2.43.0 (0)
 -->
<!-- Title: a_graph Pages: 1 -->
<svg width="1122pt" height="119pt"
 viewBox="0.00 0.00 1122.00 119.00" xmlns="http://www.w3.org/2000/svg" xmlns:xlink="http://www.w3.org/1999/xlink">
<g id="graph0" class="graph" transform="scale(1 1) rotate(0) translate(4 115)">
<title>a_graph</title>
<polygon fill="white" stroke="transparent" points="-4,4 -4,-115 1118,-115 1118,4 -4,4"/>
<!-- T1982 -->
<g id="node1" class="node">
<title>T1982</title>
<polygon fill="none" stroke="#0058ad" points="63,-81.5 63,-110.5 815,-110.5 815,-81.5 63,-81.5"/>
<text text-anchor="middle" x="197" y="-92.3" font-family="Times,serif" font-size="14.00" fill="#0058ad">r 77 [4 5 6 7 11 12 13 14 15 21 22]</text>
<polyline fill="none" stroke="#0058ad" points="331,-81.5 331,-110.5 "/>
<text text-anchor="middle" x="429" y="-92.3" font-family="Times,serif" font-size="14.00" fill="#0058ad">r 76 [1 3 4 6 7 8 9 11 12]</text>
<polyline fill="none" stroke="#0058ad" points="527,-81.5 527,-110.5 "/>
<text text-anchor="middle" x="562" y="-92.3" font-family="Times,serif" font-size="14.00" fill="#0058ad">a 76 13</text>
<polyline fill="none" stroke="#0058ad" points="597,-81.5 597,-110.5 "/>
<text text-anchor="middle" x="706" y="-92.3" font-family="Times,serif" font-size="14.00" fill="#0058ad">r 76 [1 3 4 6 7 8 9 11 12 13]</text>
</g>
<!-- T1981 -->
<g id="node2" class="node">
<title>T1981</title>
<polygon fill="none" stroke="#0058ad" points="0,-0.5 0,-29.5 1114,-29.5 1114,-0.5 0,-0.5"/>
<text text-anchor="middle" x="98" y="-11.3" font-family="Times,serif" font-size="14.00" fill="#0058ad">r 76 [1 3 4 6 7 8 9 11 12]</text>
<polyline fill="none" stroke="#0058ad" points="196,-0.5 196,-29.5 "/>
<text text-anchor="middle" x="330" y="-11.3" font-family="Times,serif" font-size="14.00" fill="#0058ad">r 77 [4 5 6 7 11 12 13 14 15 21 22]</text>
<polyline fill="none" stroke="#0058ad" points="464,-0.5 464,-29.5 "/>
<text text-anchor="middle" x="499" y="-11.3" font-family="Times,serif" font-size="14.00" fill="#0058ad">a 77 26</text>
<polyline fill="none" stroke="#0058ad" points="534,-0.5 534,-29.5 "/>
<text text-anchor="middle" x="679" y="-11.3" font-family="Times,serif" font-size="14.00" fill="#0058ad">r 77 [4 5 6 7 11 12 13 14 15 21 22 26]</text>
<polyline fill="none" stroke="#0058ad" points="824,-0.5 824,-29.5 "/>
<text text-anchor="middle" x="969" y="-11.3" font-family="Times,serif" font-size="14.00" fill="#0058ad">r 77 [4 5 6 7 11 12 13 14 15 21 22 26]</text>
</g>
<!-- T1982&#45;&gt;T1981 -->
<g id="edge1" class="edge">
<title>T1982:f0&#45;&gt;T1981:f2</title>
<path fill="none" stroke="#5b00c0" d="M197,-81C197,-65.71 440.77,-50.46 490.29,-35.18"/>
<polygon fill="#5b00c0" stroke="#5b00c0" points="492.2,-38.12 499,-30 488.62,-32.1 492.2,-38.12"/>
<text text-anchor="middle" x="419.5" y="-51.8" font-family="Times,serif" font-size="14.00" fill="#5b00c0">rw</text>
</g>
<!-- T1981&#45;&gt;T1982 -->
<g id="edge2" class="edge">
<title>T1981:f0&#45;&gt;T1982:f2</title>
<path fill="none" stroke="#5b00c0" d="M98,-30C98,-48.64 414.58,-45.18 433,-48 487.84,-56.4 553.23,-26.04 561.19,-70.98"/>
<polygon fill="#5b00c0" stroke="#5b00c0" points="557.71,-71.31 562,-81 564.69,-70.75 557.71,-71.31"/>
<text text-anchor="middle" x="567.5" y="-51.8" font-family="Times,serif" font-size="14.00" fill="#5b00c0">rw</text>
</g>
</g>
</svg>
