<?xml version="1.0" encoding="UTF-8" standalone="no"?>
<!DOCTYPE svg PUBLIC "-//W3C//DTD SVG 1.1//EN"
 "http://www.w3.org/Graphics/SVG/1.1/DTD/svg11.dtd">
<!-- Generated by graphviz version 2.43.0 (0)
 -->
<!-- Title: a_graph Pages: 1 -->
<svg width="1548pt" height="119pt"
 viewBox="0.00 0.00 1548.00 119.00" xmlns="http://www.w3.org/2000/svg" xmlns:xlink="http://www.w3.org/1999/xlink">
<g id="graph0" class="graph" transform="scale(1 1) rotate(0) translate(4 115)">
<title>a_graph</title>
<polygon fill="white" stroke="transparent" points="-4,4 -4,-115 1544,-115 1544,4 -4,4"/>
<!-- T4003 -->
<g id="node1" class="node">
<title>T4003</title>
<polygon fill="none" stroke="#0058ad" points="0,-81.5 0,-110.5 1434,-110.5 1434,-81.5 0,-81.5"/>
<text text-anchor="middle" x="39.5" y="-92.3" font-family="Times,serif" font-size="14.00" fill="#0058ad">a 153 14</text>
<polyline fill="none" stroke="#0058ad" points="79,-81.5 79,-110.5 "/>
<text text-anchor="middle" x="118.5" y="-92.3" font-family="Times,serif" font-size="14.00" fill="#0058ad">a 153 15</text>
<polyline fill="none" stroke="#0058ad" points="158,-81.5 158,-110.5 "/>
<text text-anchor="middle" x="319" y="-92.3" font-family="Times,serif" font-size="14.00" fill="#0058ad">r 153 [1 2 3 4 5 6 7 8 9 10 11 12 13 14 15]</text>
<polyline fill="none" stroke="#0058ad" points="480,-81.5 480,-110.5 "/>
<text text-anchor="middle" x="584.5" y="-92.3" font-family="Times,serif" font-size="14.00" fill="#0058ad">r 152 [1 2 3 4 5 6 7 8 9 10]</text>
<polyline fill="none" stroke="#0058ad" points="689,-81.5 689,-110.5 "/>
<text text-anchor="middle" x="850" y="-92.3" font-family="Times,serif" font-size="14.00" fill="#0058ad">r 153 [1 2 3 4 5 6 7 8 9 10 11 12 13 14 15]</text>
<polyline fill="none" stroke="#0058ad" points="1011,-81.5 1011,-110.5 "/>
<text text-anchor="middle" x="1050.5" y="-92.3" font-family="Times,serif" font-size="14.00" fill="#0058ad">a 153 16</text>
<polyline fill="none" stroke="#0058ad" points="1090,-81.5 1090,-110.5 "/>
<text text-anchor="middle" x="1262" y="-92.3" font-family="Times,serif" font-size="14.00" fill="#0058ad">r 153 [1 2 3 4 5 6 7 8 9 10 11 12 13 14 15 16]</text>
</g>
<!-- T4002 -->
<g id="node2" class="node">
<title>T4002</title>
<polygon fill="none" stroke="#0058ad" points="218,-0.5 218,-29.5 1540,-29.5 1540,-0.5 218,-0.5"/>
<text text-anchor="middle" x="257.5" y="-11.3" font-family="Times,serif" font-size="14.00" fill="#0058ad">a 152 11</text>
<polyline fill="none" stroke="#0058ad" points="297,-0.5 297,-29.5 "/>
<text text-anchor="middle" x="435.5" y="-11.3" font-family="Times,serif" font-size="14.00" fill="#0058ad">r 153 [1 2 3 4 5 6 7 8 9 10 11 12 13]</text>
<polyline fill="none" stroke="#0058ad" points="574,-0.5 574,-29.5 "/>
<text text-anchor="middle" x="613.5" y="-11.3" font-family="Times,serif" font-size="14.00" fill="#0058ad">r 154 [1]</text>
<polyline fill="none" stroke="#0058ad" points="653,-0.5 653,-29.5 "/>
<text text-anchor="middle" x="692.5" y="-11.3" font-family="Times,serif" font-size="14.00" fill="#0058ad">a 152 12</text>
<polyline fill="none" stroke="#0058ad" points="732,-0.5 732,-29.5 "/>
<text text-anchor="middle" x="870.5" y="-11.3" font-family="Times,serif" font-size="14.00" fill="#0058ad">r 153 [1 2 3 4 5 6 7 8 9 10 11 12 13]</text>
<polyline fill="none" stroke="#0058ad" points="1009,-0.5 1009,-29.5 "/>
<text text-anchor="middle" x="1147.5" y="-11.3" font-family="Times,serif" font-size="14.00" fill="#0058ad">r 153 [1 2 3 4 5 6 7 8 9 10 11 12 13]</text>
<polyline fill="none" stroke="#0058ad" points="1286,-0.5 1286,-29.5 "/>
<text text-anchor="middle" x="1413" y="-11.3" font-family="Times,serif" font-size="14.00" fill="#0058ad">r 152 [1 2 3 4 5 6 7 8 9 10 11 12]</text>
</g>
<!-- T4003&#45;&gt;T4002 -->
<g id="edge1" class="edge">
<title>T4003:f3&#45;&gt;T4002:f0</title>
<path fill="none" stroke="#5b00c0" d="M584,-81C584,-52.26 353.79,-70.33 326,-63 296.85,-55.31 265.14,-62.04 258.33,-39.96"/>
<polygon fill="#5b00c0" stroke="#5b00c0" points="261.8,-39.45 257,-30 254.86,-40.38 261.8,-39.45"/>
<text text-anchor="middle" x="335.5" y="-51.8" font-family="Times,serif" font-size="14.00" fill="#5b00c0">rw</text>
</g>
<!-- T4002&#45;&gt;T4003 -->
<g id="edge2" class="edge">
<title>T4002:f1&#45;&gt;T4003:f0</title>
<path fill="none" stroke="#5b00c0" d="M435,-30C435,-72.6 386.71,-54.32 345,-63 330.09,-66.1 97,-64.43 48,-76.23"/>
<polygon fill="#5b00c0" stroke="#5b00c0" points="46.2,-73.23 39,-81 49.47,-79.41 46.2,-73.23"/>
<text text-anchor="middle" x="439.5" y="-51.8" font-family="Times,serif" font-size="14.00" fill="#5b00c0">rw</text>
</g>
</g>
</svg>
