<?xml version="1.0" encoding="UTF-8" standalone="no"?>
<!DOCTYPE svg PUBLIC "-//W3C//DTD SVG 1.1//EN"
 "http://www.w3.org/Graphics/SVG/1.1/DTD/svg11.dtd">
<!-- Generated by graphviz version 2.43.0 (0)
 -->
<!-- Title: a_graph Pages: 1 -->
<svg width="1324pt" height="119pt"
 viewBox="0.00 0.00 1324.00 119.00" xmlns="http://www.w3.org/2000/svg" xmlns:xlink="http://www.w3.org/1999/xlink">
<g id="graph0" class="graph" transform="scale(1 1) rotate(0) translate(4 115)">
<title>a_graph</title>
<polygon fill="white" stroke="transparent" points="-4,4 -4,-115 1320,-115 1320,4 -4,4"/>
<!-- T4566 -->
<g id="node1" class="node">
<title>T4566</title>
<polygon fill="none" stroke="#0058ad" points="124,-81.5 124,-110.5 1316,-110.5 1316,-81.5 124,-81.5"/>
<text text-anchor="middle" x="397.5" y="-92.3" font-family="Times,serif" font-size="14.00" fill="#0058ad">r 172 [1 2 3 4 5 6 7 8 9 10 11 12 13 14 15 16 17 18 21 22 23 24 25 26 27]</text>
<polyline fill="none" stroke="#0058ad" points="671,-81.5 671,-110.5 "/>
<text text-anchor="middle" x="706" y="-92.3" font-family="Times,serif" font-size="14.00" fill="#0058ad">r 174 []</text>
<polyline fill="none" stroke="#0058ad" points="741,-81.5 741,-110.5 "/>
<text text-anchor="middle" x="780.5" y="-92.3" font-family="Times,serif" font-size="14.00" fill="#0058ad">a 172 28</text>
<polyline fill="none" stroke="#0058ad" points="820,-81.5 820,-110.5 "/>
<text text-anchor="middle" x="958.5" y="-92.3" font-family="Times,serif" font-size="14.00" fill="#0058ad">r 170 [2 3 4 5 6 7 8 9 10 1 11 12 13]</text>
<polyline fill="none" stroke="#0058ad" points="1097,-81.5 1097,-110.5 "/>
<text text-anchor="middle" x="1132" y="-92.3" font-family="Times,serif" font-size="14.00" fill="#0058ad">r 174 []</text>
<polyline fill="none" stroke="#0058ad" points="1167,-81.5 1167,-110.5 "/>
<text text-anchor="middle" x="1206.5" y="-92.3" font-family="Times,serif" font-size="14.00" fill="#0058ad">a 172 29</text>
<polyline fill="none" stroke="#0058ad" points="1246,-81.5 1246,-110.5 "/>
<text text-anchor="middle" x="1281" y="-92.3" font-family="Times,serif" font-size="14.00" fill="#0058ad">r 174 []</text>
</g>
<!-- T4567 -->
<g id="node2" class="node">
<title>T4567</title>
<polygon fill="none" stroke="#0058ad" points="0,-0.5 0,-29.5 1046,-29.5 1046,-0.5 0,-0.5"/>
<text text-anchor="middle" x="35" y="-11.3" font-family="Times,serif" font-size="14.00" fill="#0058ad">r 174 []</text>
<polyline fill="none" stroke="#0058ad" points="70,-0.5 70,-29.5 "/>
<text text-anchor="middle" x="105" y="-11.3" font-family="Times,serif" font-size="14.00" fill="#0058ad">r 174 []</text>
<polyline fill="none" stroke="#0058ad" points="140,-0.5 140,-29.5 "/>
<text text-anchor="middle" x="175" y="-11.3" font-family="Times,serif" font-size="14.00" fill="#0058ad">r 174 []</text>
<polyline fill="none" stroke="#0058ad" points="210,-0.5 210,-29.5 "/>
<text text-anchor="middle" x="245" y="-11.3" font-family="Times,serif" font-size="14.00" fill="#0058ad">r 174 []</text>
<polyline fill="none" stroke="#0058ad" points="280,-0.5 280,-29.5 "/>
<text text-anchor="middle" x="553.5" y="-11.3" font-family="Times,serif" font-size="14.00" fill="#0058ad">r 172 [1 2 3 4 5 6 7 8 9 10 11 12 13 14 15 16 17 18 21 22 23 24 25 26 27]</text>
<polyline fill="none" stroke="#0058ad" points="827,-0.5 827,-29.5 "/>
<text text-anchor="middle" x="862" y="-11.3" font-family="Times,serif" font-size="14.00" fill="#0058ad">r 174 []</text>
<polyline fill="none" stroke="#0058ad" points="897,-0.5 897,-29.5 "/>
<text text-anchor="middle" x="932" y="-11.3" font-family="Times,serif" font-size="14.00" fill="#0058ad">a 174 1</text>
<polyline fill="none" stroke="#0058ad" points="967,-0.5 967,-29.5 "/>
<text text-anchor="middle" x="1006.5" y="-11.3" font-family="Times,serif" font-size="14.00" fill="#0058ad">r 174 [1]</text>
</g>
<!-- T4566&#45;&gt;T4567 -->
<g id="edge1" class="edge">
<title>T4566:f1&#45;&gt;T4567:f6</title>
<path fill="none" stroke="#5b00c0" d="M706,-81C706,-62.6 714.9,-56.92 731,-48 748.16,-38.49 889.18,-49.01 924.17,-36.77"/>
<polygon fill="#5b00c0" stroke="#5b00c0" points="926.72,-39.19 932,-30 922.14,-33.89 926.72,-39.19"/>
<text text-anchor="middle" x="740.5" y="-51.8" font-family="Times,serif" font-size="14.00" fill="#5b00c0">rw</text>
</g>
<!-- T4567&#45;&gt;T4566 -->
<g id="edge2" class="edge">
<title>T4567:f4&#45;&gt;T4566:f2</title>
<path fill="none" stroke="#5b00c0" d="M554,-30C554,-51.87 730.35,-38.41 750,-48 764.55,-55.1 775.76,-59.11 779.58,-70.89"/>
<polygon fill="#5b00c0" stroke="#5b00c0" points="776.14,-71.58 781,-81 783.07,-70.61 776.14,-71.58"/>
<text text-anchor="middle" x="783.5" y="-51.8" font-family="Times,serif" font-size="14.00" fill="#5b00c0">rw</text>
</g>
</g>
</svg>
