<?xml version="1.0" encoding="UTF-8" standalone="no"?>
<!DOCTYPE svg PUBLIC "-//W3C//DTD SVG 1.1//EN"
 "http://www.w3.org/Graphics/SVG/1.1/DTD/svg11.dtd">
<!-- Generated by graphviz version 2.43.0 (0)
 -->
<!-- Title: a_graph Pages: 1 -->
<svg width="938pt" height="119pt"
 viewBox="0.00 0.00 938.00 119.00" xmlns="http://www.w3.org/2000/svg" xmlns:xlink="http://www.w3.org/1999/xlink">
<g id="graph0" class="graph" transform="scale(1 1) rotate(0) translate(4 115)">
<title>a_graph</title>
<polygon fill="white" stroke="transparent" points="-4,4 -4,-115 934,-115 934,4 -4,4"/>
<!-- T1248 -->
<g id="node1" class="node">
<title>T1248</title>
<polygon fill="none" stroke="#0058ad" points="49,-81.5 49,-110.5 869,-110.5 869,-81.5 49,-81.5"/>
<text text-anchor="middle" x="84" y="-92.3" font-family="Times,serif" font-size="14.00" fill="#0058ad">r 49 [1]</text>
<polyline fill="none" stroke="#0058ad" points="119,-81.5 119,-110.5 "/>
<text text-anchor="middle" x="149.5" y="-92.3" font-family="Times,serif" font-size="14.00" fill="#0058ad">a 49 2</text>
<polyline fill="none" stroke="#0058ad" points="180,-81.5 180,-110.5 "/>
<text text-anchor="middle" x="210.5" y="-92.3" font-family="Times,serif" font-size="14.00" fill="#0058ad">a 49 3</text>
<polyline fill="none" stroke="#0058ad" points="241,-81.5 241,-110.5 "/>
<text text-anchor="middle" x="469.5" y="-92.3" font-family="Times,serif" font-size="14.00" fill="#0058ad">r 45 [1 2 3 4 6 7 8 9 10 11 12 13 14 15 16 17 18 19 20 21 22]</text>
<polyline fill="none" stroke="#0058ad" points="698,-81.5 698,-110.5 "/>
<text text-anchor="middle" x="728.5" y="-92.3" font-family="Times,serif" font-size="14.00" fill="#0058ad">a 49 4</text>
<polyline fill="none" stroke="#0058ad" points="759,-81.5 759,-110.5 "/>
<text text-anchor="middle" x="814" y="-92.3" font-family="Times,serif" font-size="14.00" fill="#0058ad">r 49 [1 2 3 4]</text>
</g>
<!-- T1249 -->
<g id="node2" class="node">
<title>T1249</title>
<polygon fill="none" stroke="#0058ad" points="0,-0.5 0,-29.5 930,-29.5 930,-0.5 0,-0.5"/>
<text text-anchor="middle" x="35" y="-11.3" font-family="Times,serif" font-size="14.00" fill="#0058ad">a 45 23</text>
<polyline fill="none" stroke="#0058ad" points="70,-0.5 70,-29.5 "/>
<text text-anchor="middle" x="309.5" y="-11.3" font-family="Times,serif" font-size="14.00" fill="#0058ad">r 45 [1 2 3 4 6 7 8 9 10 11 12 13 14 15 16 17 18 19 20 21 22 23]</text>
<polyline fill="none" stroke="#0058ad" points="549,-0.5 549,-29.5 "/>
<text text-anchor="middle" x="584" y="-11.3" font-family="Times,serif" font-size="14.00" fill="#0058ad">r 49 [1]</text>
<polyline fill="none" stroke="#0058ad" points="619,-0.5 619,-29.5 "/>
<text text-anchor="middle" x="654" y="-11.3" font-family="Times,serif" font-size="14.00" fill="#0058ad">r 49 [1]</text>
<polyline fill="none" stroke="#0058ad" points="689,-0.5 689,-29.5 "/>
<text text-anchor="middle" x="719.5" y="-11.3" font-family="Times,serif" font-size="14.00" fill="#0058ad">a 48 4</text>
<polyline fill="none" stroke="#0058ad" points="750,-0.5 750,-29.5 "/>
<text text-anchor="middle" x="805" y="-11.3" font-family="Times,serif" font-size="14.00" fill="#0058ad">r 48 [1 2 3 4]</text>
<polyline fill="none" stroke="#0058ad" points="860,-0.5 860,-29.5 "/>
<text text-anchor="middle" x="895" y="-11.3" font-family="Times,serif" font-size="14.00" fill="#0058ad">r 49 [1]</text>
</g>
<!-- T1248&#45;&gt;T1249 -->
<g id="edge1" class="edge">
<title>T1248:f3&#45;&gt;T1249:f0</title>
<path fill="none" stroke="#5b00c0" d="M470,-81C470,21.39 343.71,-59.77 242,-48 221.84,-45.67 77.22,-51.36 42.48,-37.1"/>
<polygon fill="#5b00c0" stroke="#5b00c0" points="44.66,-34.35 35,-30 39.84,-39.42 44.66,-34.35"/>
<text text-anchor="middle" x="476.5" y="-51.8" font-family="Times,serif" font-size="14.00" fill="#5b00c0">rw</text>
</g>
<!-- T1249&#45;&gt;T1248 -->
<g id="edge2" class="edge">
<title>T1249:f2&#45;&gt;T1248:f1</title>
<path fill="none" stroke="#5b00c0" d="M584,-30C584,-50.3 238.7,-43.08 219,-48 189.41,-55.39 157.26,-48.58 150.35,-70.92"/>
<polygon fill="#5b00c0" stroke="#5b00c0" points="146.86,-70.62 149,-81 153.8,-71.55 146.86,-70.62"/>
<text text-anchor="middle" x="228.5" y="-51.8" font-family="Times,serif" font-size="14.00" fill="#5b00c0">rw</text>
</g>
</g>
</svg>
