<?xml version="1.0" encoding="UTF-8" standalone="no"?>
<!DOCTYPE svg PUBLIC "-//W3C//DTD SVG 1.1//EN"
 "http://www.w3.org/Graphics/SVG/1.1/DTD/svg11.dtd">
<!-- Generated by graphviz version 2.43.0 (0)
 -->
<!-- Title: a_graph Pages: 1 -->
<svg width="724pt" height="119pt"
 viewBox="0.00 0.00 724.00 119.00" xmlns="http://www.w3.org/2000/svg" xmlns:xlink="http://www.w3.org/1999/xlink">
<g id="graph0" class="graph" transform="scale(1 1) rotate(0) translate(4 115)">
<title>a_graph</title>
<polygon fill="white" stroke="transparent" points="-4,4 -4,-115 720,-115 720,4 -4,4"/>
<!-- T520 -->
<g id="node1" class="node">
<title>T520</title>
<polygon fill="none" stroke="#0058ad" points="74,-81.5 74,-110.5 716,-110.5 716,-81.5 74,-81.5"/>
<text text-anchor="middle" x="109" y="-92.3" font-family="Times,serif" font-size="14.00" fill="#0058ad">a 20 13</text>
<polyline fill="none" stroke="#0058ad" points="144,-81.5 144,-110.5 "/>
<text text-anchor="middle" x="287" y="-92.3" font-family="Times,serif" font-size="14.00" fill="#0058ad">r 19 [1 2 5 6 7 8 9 10 11 12 13 14 15]</text>
<polyline fill="none" stroke="#0058ad" points="430,-81.5 430,-110.5 "/>
<text text-anchor="middle" x="573" y="-92.3" font-family="Times,serif" font-size="14.00" fill="#0058ad">r 19 [1 2 5 6 7 8 9 10 11 12 13 14 15]</text>
</g>
<!-- T521 -->
<g id="node2" class="node">
<title>T521</title>
<polygon fill="none" stroke="#0058ad" points="0,-0.5 0,-29.5 700,-29.5 700,-0.5 0,-0.5"/>
<text text-anchor="middle" x="122.5" y="-11.3" font-family="Times,serif" font-size="14.00" fill="#0058ad">r 20 [1 2 3 4 5 6 7 8 9 10 11 12]</text>
<polyline fill="none" stroke="#0058ad" points="245,-0.5 245,-29.5 "/>
<text text-anchor="middle" x="280" y="-11.3" font-family="Times,serif" font-size="14.00" fill="#0058ad">a 19 16</text>
<polyline fill="none" stroke="#0058ad" points="315,-0.5 315,-29.5 "/>
<text text-anchor="middle" x="350" y="-11.3" font-family="Times,serif" font-size="14.00" fill="#0058ad">a 19 17</text>
<polyline fill="none" stroke="#0058ad" points="385,-0.5 385,-29.5 "/>
<text text-anchor="middle" x="507.5" y="-11.3" font-family="Times,serif" font-size="14.00" fill="#0058ad">r 20 [1 2 3 4 5 6 7 8 9 10 11 12]</text>
<polyline fill="none" stroke="#0058ad" points="630,-0.5 630,-29.5 "/>
<text text-anchor="middle" x="665" y="-11.3" font-family="Times,serif" font-size="14.00" fill="#0058ad">a 19 18</text>
</g>
<!-- T520&#45;&gt;T521 -->
<g id="edge1" class="edge">
<title>T520:f1&#45;&gt;T521:f1</title>
<path fill="none" stroke="#5b00c0" d="M287,-81C287,-61.87 282.11,-55.07 280.5,-39.99"/>
<polygon fill="#5b00c0" stroke="#5b00c0" points="284,-39.81 280,-30 277.01,-40.16 284,-39.81"/>
<text text-anchor="middle" x="295.5" y="-51.8" font-family="Times,serif" font-size="14.00" fill="#5b00c0">rw</text>
</g>
<!-- T521&#45;&gt;T520 -->
<g id="edge2" class="edge">
<title>T521:f0&#45;&gt;T520:f0</title>
<path fill="none" stroke="#5b00c0" d="M122,-30C122,-49.55 112.92,-55.71 109.93,-70.87"/>
<polygon fill="#5b00c0" stroke="#5b00c0" points="106.43,-70.72 109,-81 113.4,-71.36 106.43,-70.72"/>
<text text-anchor="middle" x="128.5" y="-51.8" font-family="Times,serif" font-size="14.00" fill="#5b00c0">rw</text>
</g>
</g>
</svg>
