<?xml version="1.0" encoding="UTF-8" standalone="no"?>
<!DOCTYPE svg PUBLIC "-//W3C//DTD SVG 1.1//EN"
 "http://www.w3.org/Graphics/SVG/1.1/DTD/svg11.dtd">
<!-- Generated by graphviz version 2.43.0 (0)
 -->
<!-- Title: a_graph Pages: 1 -->
<svg width="587pt" height="119pt"
 viewBox="0.00 0.00 587.00 119.00" xmlns="http://www.w3.org/2000/svg" xmlns:xlink="http://www.w3.org/1999/xlink">
<g id="graph0" class="graph" transform="scale(1 1) rotate(0) translate(4 115)">
<title>a_graph</title>
<polygon fill="white" stroke="transparent" points="-4,4 -4,-115 583,-115 583,4 -4,4"/>
<!-- T780 -->
<g id="node1" class="node">
<title>T780</title>
<polygon fill="none" stroke="#0058ad" points="194,-81.5 194,-110.5 417,-110.5 417,-81.5 194,-81.5"/>
<text text-anchor="middle" x="229" y="-92.3" font-family="Times,serif" font-size="14.00" fill="#0058ad">r 30 [1]</text>
<polyline fill="none" stroke="#0058ad" points="264,-81.5 264,-110.5 "/>
<text text-anchor="middle" x="305.5" y="-92.3" font-family="Times,serif" font-size="14.00" fill="#0058ad">r 31 [1 2]</text>
<polyline fill="none" stroke="#0058ad" points="347,-81.5 347,-110.5 "/>
<text text-anchor="middle" x="382" y="-92.3" font-family="Times,serif" font-size="14.00" fill="#0058ad">a 28 10</text>
</g>
<!-- T781 -->
<g id="node2" class="node">
<title>T781</title>
<polygon fill="none" stroke="#0058ad" points="0,-0.5 0,-29.5 579,-29.5 579,-0.5 0,-0.5"/>
<text text-anchor="middle" x="41.5" y="-11.3" font-family="Times,serif" font-size="14.00" fill="#0058ad">r 31 [1 2]</text>
<polyline fill="none" stroke="#0058ad" points="83,-0.5 83,-29.5 "/>
<text text-anchor="middle" x="113.5" y="-11.3" font-family="Times,serif" font-size="14.00" fill="#0058ad">a 31 3</text>
<polyline fill="none" stroke="#0058ad" points="144,-0.5 144,-29.5 "/>
<text text-anchor="middle" x="179" y="-11.3" font-family="Times,serif" font-size="14.00" fill="#0058ad">r 30 [1]</text>
<polyline fill="none" stroke="#0058ad" points="214,-0.5 214,-29.5 "/>
<text text-anchor="middle" x="249" y="-11.3" font-family="Times,serif" font-size="14.00" fill="#0058ad">r 30 [1]</text>
<polyline fill="none" stroke="#0058ad" points="284,-0.5 284,-29.5 "/>
<text text-anchor="middle" x="319" y="-11.3" font-family="Times,serif" font-size="14.00" fill="#0058ad">r 30 [1]</text>
<polyline fill="none" stroke="#0058ad" points="354,-0.5 354,-29.5 "/>
<text text-anchor="middle" x="384.5" y="-11.3" font-family="Times,serif" font-size="14.00" fill="#0058ad">a 31 4</text>
<polyline fill="none" stroke="#0058ad" points="415,-0.5 415,-29.5 "/>
<text text-anchor="middle" x="497" y="-11.3" font-family="Times,serif" font-size="14.00" fill="#0058ad">r 28 [1 2 3 5 6 7 8 9]</text>
</g>
<!-- T780&#45;&gt;T781 -->
<g id="edge1" class="edge">
<title>T780:f1&#45;&gt;T781:f1</title>
<path fill="none" stroke="#5b00c0" d="M305.5,-81C305.5,3.5 129.65,-107.89 114.53,-40.23"/>
<polygon fill="#5b00c0" stroke="#5b00c0" points="117.99,-39.6 113.5,-30 111.02,-40.3 117.99,-39.6"/>
<text text-anchor="middle" x="309" y="-51.8" font-family="Times,serif" font-size="14.00" fill="#5b00c0">rw</text>
</g>
<!-- T781&#45;&gt;T780 -->
<g id="edge2" class="edge">
<title>T781:f6&#45;&gt;T780:f2</title>
<path fill="none" stroke="#5b00c0" d="M497.5,-30C497.5,-72.27 469.12,-92.77 428.73,-95.65"/>
<polygon fill="#5b00c0" stroke="#5b00c0" points="428.37,-92.16 418.5,-96 428.62,-99.15 428.37,-92.16"/>
<text text-anchor="middle" x="504" y="-51.8" font-family="Times,serif" font-size="14.00" fill="#5b00c0">rw</text>
</g>
</g>
</svg>
