<?xml version="1.0" encoding="UTF-8" standalone="no"?>
<!DOCTYPE svg PUBLIC "-//W3C//DTD SVG 1.1//EN"
 "http://www.w3.org/Graphics/SVG/1.1/DTD/svg11.dtd">
<!-- Generated by graphviz version 2.43.0 (0)
 -->
<!-- Title: a_graph Pages: 1 -->
<svg width="2890pt" height="119pt"
 viewBox="0.00 0.00 2890.00 119.00" xmlns="http://www.w3.org/2000/svg" xmlns:xlink="http://www.w3.org/1999/xlink">
<g id="graph0" class="graph" transform="scale(1 1) rotate(0) translate(4 115)">
<title>a_graph</title>
<polygon fill="white" stroke="transparent" points="-4,4 -4,-115 2886,-115 2886,4 -4,4"/>
<!-- T1099 -->
<g id="node1" class="node">
<title>T1099</title>
<polygon fill="none" stroke="#0058ad" points="0,-81.5 0,-110.5 2882,-110.5 2882,-81.5 0,-81.5"/>
<text text-anchor="middle" x="257.5" y="-92.3" font-family="Times,serif" font-size="14.00" fill="#0058ad">r 52 [1 2 3 4 5 6 7 8 9 10 11 12 13 14 15 16 17 18 19 20 21 22 23 24]</text>
<polyline fill="none" stroke="#0058ad" points="515,-81.5 515,-110.5 "/>
<text text-anchor="middle" x="550" y="-92.3" font-family="Times,serif" font-size="14.00" fill="#0058ad">a 52 25</text>
<polyline fill="none" stroke="#0058ad" points="585,-81.5 585,-110.5 "/>
<text text-anchor="middle" x="854" y="-92.3" font-family="Times,serif" font-size="14.00" fill="#0058ad">r 52 [1 2 3 4 5 6 7 8 9 10 11 12 13 14 15 16 17 18 19 20 21 22 23 24 25]</text>
<polyline fill="none" stroke="#0058ad" points="1123,-81.5 1123,-110.5 "/>
<text text-anchor="middle" x="1158" y="-92.3" font-family="Times,serif" font-size="14.00" fill="#0058ad">a 52 26</text>
<polyline fill="none" stroke="#0058ad" points="1193,-81.5 1193,-110.5 "/>
<text text-anchor="middle" x="1228" y="-92.3" font-family="Times,serif" font-size="14.00" fill="#0058ad">a 52 27</text>
<polyline fill="none" stroke="#0058ad" points="1263,-81.5 1263,-110.5 "/>
<text text-anchor="middle" x="1554.5" y="-92.3" font-family="Times,serif" font-size="14.00" fill="#0058ad">r 52 [1 2 3 4 5 6 7 8 9 10 11 12 13 14 15 16 17 18 19 20 21 22 23 24 25 26 27]</text>
<polyline fill="none" stroke="#0058ad" points="1846,-81.5 1846,-110.5 "/>
<text text-anchor="middle" x="1881" y="-92.3" font-family="Times,serif" font-size="14.00" fill="#0058ad">a 52 28</text>
<polyline fill="none" stroke="#0058ad" points="1916,-81.5 1916,-110.5 "/>
<text text-anchor="middle" x="1951" y="-92.3" font-family="Times,serif" font-size="14.00" fill="#0058ad">a 52 29</text>
<polyline fill="none" stroke="#0058ad" points="1986,-81.5 1986,-110.5 "/>
<text text-anchor="middle" x="2300" y="-92.3" font-family="Times,serif" font-size="14.00" fill="#0058ad">r 52 [1 2 3 4 5 6 7 8 9 10 11 12 13 14 15 16 17 18 19 20 21 22 23 24 25 26 27 28 29]</text>
<polyline fill="none" stroke="#0058ad" points="2614,-81.5 2614,-110.5 "/>
<text text-anchor="middle" x="2748" y="-92.3" font-family="Times,serif" font-size="14.00" fill="#0058ad">r 51 [1 2 3 4 5 6 7 8 9 10 11 12 13]</text>
</g>
<!-- T1098 -->
<g id="node2" class="node">
<title>T1098</title>
<polygon fill="none" stroke="#0058ad" points="1054.5,-0.5 1054.5,-29.5 2487.5,-29.5 2487.5,-0.5 1054.5,-0.5"/>
<text text-anchor="middle" x="1188.5" y="-11.3" font-family="Times,serif" font-size="14.00" fill="#0058ad">r 51 [1 2 3 4 5 6 7 8 9 10 11 12 13]</text>
<polyline fill="none" stroke="#0058ad" points="1322.5,-0.5 1322.5,-29.5 "/>
<text text-anchor="middle" x="1357.5" y="-11.3" font-family="Times,serif" font-size="14.00" fill="#0058ad">a 51 14</text>
<polyline fill="none" stroke="#0058ad" points="1392.5,-0.5 1392.5,-29.5 "/>
<text text-anchor="middle" x="1537.5" y="-11.3" font-family="Times,serif" font-size="14.00" fill="#0058ad">r 51 [1 2 3 4 5 6 7 8 9 10 11 12 13 14]</text>
<polyline fill="none" stroke="#0058ad" points="1682.5,-0.5 1682.5,-29.5 "/>
<text text-anchor="middle" x="1940" y="-11.3" font-family="Times,serif" font-size="14.00" fill="#0058ad">r 52 [1 2 3 4 5 6 7 8 9 10 11 12 13 14 15 16 17 18 19 20 21 22 23 24]</text>
<polyline fill="none" stroke="#0058ad" points="2197.5,-0.5 2197.5,-29.5 "/>
<text text-anchor="middle" x="2342.5" y="-11.3" font-family="Times,serif" font-size="14.00" fill="#0058ad">r 51 [1 2 3 4 5 6 7 8 9 10 11 12 13 14]</text>
</g>
<!-- T1099&#45;&gt;T1098 -->
<g id="edge1" class="edge">
<title>T1099:f9&#45;&gt;T1098:f1</title>
<path fill="none" stroke="#5b00c0" d="M2748,-81C2748,70.19 1418.78,-173.26 1359.07,-39.81"/>
<polygon fill="#5b00c0" stroke="#5b00c0" points="1362.49,-39.06 1357,-30 1355.64,-40.51 1362.49,-39.06"/>
<text text-anchor="middle" x="2742.5" y="-51.8" font-family="Times,serif" font-size="14.00" fill="#5b00c0">rw</text>
</g>
<!-- T1098&#45;&gt;T1099 -->
<g id="edge2" class="edge">
<title>T1098:f3&#45;&gt;T1099:f1</title>
<path fill="none" stroke="#5b00c0" d="M1940,-30C1940,-46.45 1364.44,-47.41 1348,-48 1262.78,-51.06 604.47,3.23 553.17,-71.26"/>
<polygon fill="#5b00c0" stroke="#5b00c0" points="549.77,-70.41 550,-81 556.42,-72.57 549.77,-70.41"/>
<text text-anchor="middle" x="1357.5" y="-51.8" font-family="Times,serif" font-size="14.00" fill="#5b00c0">rw</text>
</g>
</g>
</svg>
