<?xml version="1.0" encoding="UTF-8" standalone="no"?>
<!DOCTYPE svg PUBLIC "-//W3C//DTD SVG 1.1//EN"
 "http://www.w3.org/Graphics/SVG/1.1/DTD/svg11.dtd">
<!-- Generated by graphviz version 2.43.0 (0)
 -->
<!-- Title: a_graph Pages: 1 -->
<svg width="522pt" height="119pt"
 viewBox="0.00 0.00 522.00 119.00" xmlns="http://www.w3.org/2000/svg" xmlns:xlink="http://www.w3.org/1999/xlink">
<g id="graph0" class="graph" transform="scale(1 1) rotate(0) translate(4 115)">
<title>a_graph</title>
<polygon fill="white" stroke="transparent" points="-4,4 -4,-115 518,-115 518,4 -4,4"/>
<!-- T779 -->
<g id="node1" class="node">
<title>T779</title>
<polygon fill="none" stroke="#0058ad" points="0,-81.5 0,-110.5 514,-110.5 514,-81.5 0,-81.5"/>
<text text-anchor="middle" x="35" y="-92.3" font-family="Times,serif" font-size="14.00" fill="#0058ad">a 306 2</text>
<polyline fill="none" stroke="#0058ad" points="70,-81.5 70,-110.5 "/>
<text text-anchor="middle" x="105" y="-92.3" font-family="Times,serif" font-size="14.00" fill="#0058ad">a 313 2</text>
<polyline fill="none" stroke="#0058ad" points="140,-81.5 140,-110.5 "/>
<text text-anchor="middle" x="175" y="-92.3" font-family="Times,serif" font-size="14.00" fill="#0058ad">a 313 3</text>
<polyline fill="none" stroke="#0058ad" points="210,-81.5 210,-110.5 "/>
<text text-anchor="middle" x="263" y="-92.3" font-family="Times,serif" font-size="14.00" fill="#0058ad">r 313 [1 2 3]</text>
<polyline fill="none" stroke="#0058ad" points="316,-81.5 316,-110.5 "/>
<text text-anchor="middle" x="369" y="-92.3" font-family="Times,serif" font-size="14.00" fill="#0058ad">r 313 [1 2 3]</text>
<polyline fill="none" stroke="#0058ad" points="422,-81.5 422,-110.5 "/>
<text text-anchor="middle" x="468" y="-92.3" font-family="Times,serif" font-size="14.00" fill="#0058ad">r 312 [1 2]</text>
</g>
<!-- T778 -->
<g id="node2" class="node">
<title>T778</title>
<polygon fill="none" stroke="#0058ad" points="73.5,-0.5 73.5,-29.5 362.5,-29.5 362.5,-0.5 73.5,-0.5"/>
<text text-anchor="middle" x="108.5" y="-11.3" font-family="Times,serif" font-size="14.00" fill="#0058ad">a 314 1</text>
<polyline fill="none" stroke="#0058ad" points="143.5,-0.5 143.5,-29.5 "/>
<text text-anchor="middle" x="178.5" y="-11.3" font-family="Times,serif" font-size="14.00" fill="#0058ad">a 308 3</text>
<polyline fill="none" stroke="#0058ad" points="213.5,-0.5 213.5,-29.5 "/>
<text text-anchor="middle" x="248.5" y="-11.3" font-family="Times,serif" font-size="14.00" fill="#0058ad">a 312 3</text>
<polyline fill="none" stroke="#0058ad" points="283.5,-0.5 283.5,-29.5 "/>
<text text-anchor="middle" x="323" y="-11.3" font-family="Times,serif" font-size="14.00" fill="#0058ad">r 313 [1]</text>
</g>
<!-- T779&#45;&gt;T778 -->
<g id="edge1" class="edge">
<title>T779:f5&#45;&gt;T778:f2</title>
<path fill="none" stroke="#5b00c0" d="M468,-81C468,15.23 264.95,-119.23 249.88,-40.12"/>
<polygon fill="#5b00c0" stroke="#5b00c0" points="253.36,-39.66 249,-30 246.38,-40.27 253.36,-39.66"/>
<text text-anchor="middle" x="473.5" y="-51.8" font-family="Times,serif" font-size="14.00" fill="#5b00c0">rw</text>
</g>
<!-- T778&#45;&gt;T779 -->
<g id="edge2" class="edge">
<title>T778:f3&#45;&gt;T779:f1</title>
<path fill="none" stroke="#5b00c0" d="M323,-30C323,-51.27 249.73,-43.26 229,-48 177.1,-59.86 114.03,-28.63 105.88,-70.84"/>
<polygon fill="#5b00c0" stroke="#5b00c0" points="102.38,-70.74 105,-81 109.35,-71.34 102.38,-70.74"/>
<text text-anchor="middle" x="238.5" y="-51.8" font-family="Times,serif" font-size="14.00" fill="#5b00c0">rw</text>
</g>
</g>
</svg>
