<?xml version="1.0" encoding="UTF-8" standalone="no"?>
<!DOCTYPE svg PUBLIC "-//W3C//DTD SVG 1.1//EN"
 "http://www.w3.org/Graphics/SVG/1.1/DTD/svg11.dtd">
<!-- Generated by graphviz version 2.43.0 (0)
 -->
<!-- Title: a_graph Pages: 1 -->
<svg width="569pt" height="119pt"
 viewBox="0.00 0.00 569.00 119.00" xmlns="http://www.w3.org/2000/svg" xmlns:xlink="http://www.w3.org/1999/xlink">
<g id="graph0" class="graph" transform="scale(1 1) rotate(0) translate(4 115)">
<title>a_graph</title>
<polygon fill="white" stroke="transparent" points="-4,4 -4,-115 565,-115 565,4 -4,4"/>
<!-- T569 -->
<g id="node1" class="node">
<title>T569</title>
<polygon fill="none" stroke="#0058ad" points="0,-81.5 0,-110.5 561,-110.5 561,-81.5 0,-81.5"/>
<text text-anchor="middle" x="46" y="-92.3" font-family="Times,serif" font-size="14.00" fill="#0058ad">r 221 [1 2]</text>
<polyline fill="none" stroke="#0058ad" points="92,-81.5 92,-110.5 "/>
<text text-anchor="middle" x="127" y="-92.3" font-family="Times,serif" font-size="14.00" fill="#0058ad">a 224 2</text>
<polyline fill="none" stroke="#0058ad" points="162,-81.5 162,-110.5 "/>
<text text-anchor="middle" x="201.5" y="-92.3" font-family="Times,serif" font-size="14.00" fill="#0058ad">r 225 [1]</text>
<polyline fill="none" stroke="#0058ad" points="241,-81.5 241,-110.5 "/>
<text text-anchor="middle" x="280.5" y="-92.3" font-family="Times,serif" font-size="14.00" fill="#0058ad">r 225 [1]</text>
<polyline fill="none" stroke="#0058ad" points="320,-81.5 320,-110.5 "/>
<text text-anchor="middle" x="366" y="-92.3" font-family="Times,serif" font-size="14.00" fill="#0058ad">r 221 [1 2]</text>
<polyline fill="none" stroke="#0058ad" points="412,-81.5 412,-110.5 "/>
<text text-anchor="middle" x="447" y="-92.3" font-family="Times,serif" font-size="14.00" fill="#0058ad">a 221 3</text>
<polyline fill="none" stroke="#0058ad" points="482,-81.5 482,-110.5 "/>
<text text-anchor="middle" x="521.5" y="-92.3" font-family="Times,serif" font-size="14.00" fill="#0058ad">r 225 [1]</text>
</g>
<!-- T568 -->
<g id="node2" class="node">
<title>T568</title>
<polygon fill="none" stroke="#0058ad" points="186.5,-0.5 186.5,-29.5 488.5,-29.5 488.5,-0.5 186.5,-0.5"/>
<text text-anchor="middle" x="232.5" y="-11.3" font-family="Times,serif" font-size="14.00" fill="#0058ad">r 221 [1 2]</text>
<polyline fill="none" stroke="#0058ad" points="278.5,-0.5 278.5,-29.5 "/>
<text text-anchor="middle" x="313.5" y="-11.3" font-family="Times,serif" font-size="14.00" fill="#0058ad">a 225 2</text>
<polyline fill="none" stroke="#0058ad" points="348.5,-0.5 348.5,-29.5 "/>
<text text-anchor="middle" x="383.5" y="-11.3" font-family="Times,serif" font-size="14.00" fill="#0058ad">a 225 3</text>
<polyline fill="none" stroke="#0058ad" points="418.5,-0.5 418.5,-29.5 "/>
<text text-anchor="middle" x="453.5" y="-11.3" font-family="Times,serif" font-size="14.00" fill="#0058ad">r 227 []</text>
</g>
<!-- T569&#45;&gt;T568 -->
<g id="edge1" class="edge">
<title>T569:f2&#45;&gt;T568:f1</title>
<path fill="none" stroke="#5b00c0" d="M201.5,-81C201.5,-30.15 298.3,-77.04 311.92,-39.94"/>
<polygon fill="#5b00c0" stroke="#5b00c0" points="315.38,-40.43 313.5,-30 308.47,-39.32 315.38,-40.43"/>
<text text-anchor="middle" x="316" y="-51.8" font-family="Times,serif" font-size="14.00" fill="#5b00c0">rw</text>
</g>
<!-- T568&#45;&gt;T569 -->
<g id="edge2" class="edge">
<title>T568:f0&#45;&gt;T569:f5</title>
<path fill="none" stroke="#5b00c0" d="M232.5,-30C232.5,-51.92 308.14,-43.04 329.5,-48 378.92,-59.47 438.68,-30.94 446.61,-71.03"/>
<polygon fill="#5b00c0" stroke="#5b00c0" points="443.13,-71.35 447.5,-81 450.1,-70.73 443.13,-71.35"/>
<text text-anchor="middle" x="453" y="-51.8" font-family="Times,serif" font-size="14.00" fill="#5b00c0">rw</text>
</g>
</g>
</svg>
