<?xml version="1.0" encoding="UTF-8" standalone="no"?>
<!DOCTYPE svg PUBLIC "-//W3C//DTD SVG 1.1//EN"
 "http://www.w3.org/Graphics/SVG/1.1/DTD/svg11.dtd">
<!-- Generated by graphviz version 2.43.0 (0)
 -->
<!-- Title: a_graph Pages: 1 -->
<svg width="670pt" height="119pt"
 viewBox="0.00 0.00 669.50 119.00" xmlns="http://www.w3.org/2000/svg" xmlns:xlink="http://www.w3.org/1999/xlink">
<g id="graph0" class="graph" transform="scale(1 1) rotate(0) translate(4 115)">
<title>a_graph</title>
<polygon fill="white" stroke="transparent" points="-4,4 -4,-115 665.5,-115 665.5,4 -4,4"/>
<!-- T2550 -->
<g id="node1" class="node">
<title>T2550</title>
<polygon fill="none" stroke="#0058ad" points="336.5,-81.5 336.5,-110.5 661.5,-110.5 661.5,-81.5 336.5,-81.5"/>
<text text-anchor="middle" x="380.5" y="-92.3" font-family="Times,serif" font-size="14.00" fill="#0058ad">r 1062 [1]</text>
<polyline fill="none" stroke="#0058ad" points="424.5,-81.5 424.5,-110.5 "/>
<text text-anchor="middle" x="464" y="-92.3" font-family="Times,serif" font-size="14.00" fill="#0058ad">a 1065 1</text>
<polyline fill="none" stroke="#0058ad" points="503.5,-81.5 503.5,-110.5 "/>
<text text-anchor="middle" x="543" y="-92.3" font-family="Times,serif" font-size="14.00" fill="#0058ad">a 1065 2</text>
<polyline fill="none" stroke="#0058ad" points="582.5,-81.5 582.5,-110.5 "/>
<text text-anchor="middle" x="622" y="-92.3" font-family="Times,serif" font-size="14.00" fill="#0058ad">a 1065 3</text>
</g>
<!-- T2551 -->
<g id="node2" class="node">
<title>T2551</title>
<polygon fill="none" stroke="#0058ad" points="0,-0.5 0,-29.5 580,-29.5 580,-0.5 0,-0.5"/>
<text text-anchor="middle" x="44" y="-11.3" font-family="Times,serif" font-size="14.00" fill="#0058ad">r 1062 [1]</text>
<polyline fill="none" stroke="#0058ad" points="88,-0.5 88,-29.5 "/>
<text text-anchor="middle" x="132" y="-11.3" font-family="Times,serif" font-size="14.00" fill="#0058ad">r 1062 [1]</text>
<polyline fill="none" stroke="#0058ad" points="176,-0.5 176,-29.5 "/>
<text text-anchor="middle" x="220" y="-11.3" font-family="Times,serif" font-size="14.00" fill="#0058ad">r 1062 [1]</text>
<polyline fill="none" stroke="#0058ad" points="264,-0.5 264,-29.5 "/>
<text text-anchor="middle" x="303.5" y="-11.3" font-family="Times,serif" font-size="14.00" fill="#0058ad">r 1065 []</text>
<polyline fill="none" stroke="#0058ad" points="343,-0.5 343,-29.5 "/>
<text text-anchor="middle" x="382.5" y="-11.3" font-family="Times,serif" font-size="14.00" fill="#0058ad">r 1065 []</text>
<polyline fill="none" stroke="#0058ad" points="422,-0.5 422,-29.5 "/>
<text text-anchor="middle" x="461.5" y="-11.3" font-family="Times,serif" font-size="14.00" fill="#0058ad">a 1064 1</text>
<polyline fill="none" stroke="#0058ad" points="501,-0.5 501,-29.5 "/>
<text text-anchor="middle" x="540.5" y="-11.3" font-family="Times,serif" font-size="14.00" fill="#0058ad">a 1062 2</text>
</g>
<!-- T2550&#45;&gt;T2551 -->
<g id="edge1" class="edge">
<title>T2550:f0&#45;&gt;T2551:f6</title>
<path fill="none" stroke="#5b00c0" d="M380,-81C380,-60.26 394.44,-57.26 413,-48 435.29,-36.88 515.18,-53.11 536.01,-38.89"/>
<polygon fill="#5b00c0" stroke="#5b00c0" points="539.15,-40.43 541,-30 533.05,-37 539.15,-40.43"/>
<text text-anchor="middle" x="422.5" y="-51.8" font-family="Times,serif" font-size="14.00" fill="#5b00c0">rw</text>
</g>
<!-- T2551&#45;&gt;T2550 -->
<g id="edge2" class="edge">
<title>T2551:f3&#45;&gt;T2550:f1</title>
<path fill="none" stroke="#5b00c0" d="M304,-30C304,-58.72 406.39,-34.98 432,-48 446.66,-55.45 458.45,-59.05 462.49,-70.82"/>
<polygon fill="#5b00c0" stroke="#5b00c0" points="459.07,-71.62 464,-81 466,-70.6 459.07,-71.62"/>
<text text-anchor="middle" x="466.5" y="-51.8" font-family="Times,serif" font-size="14.00" fill="#5b00c0">rw</text>
</g>
</g>
</svg>
