<?xml version="1.0" encoding="UTF-8" standalone="no"?>
<!DOCTYPE svg PUBLIC "-//W3C//DTD SVG 1.1//EN"
 "http://www.w3.org/Graphics/SVG/1.1/DTD/svg11.dtd">
<!-- Generated by graphviz version 2.43.0 (0)
 -->
<!-- Title: a_graph Pages: 1 -->
<svg width="586pt" height="119pt"
 viewBox="0.00 0.00 586.00 119.00" xmlns="http://www.w3.org/2000/svg" xmlns:xlink="http://www.w3.org/1999/xlink">
<g id="graph0" class="graph" transform="scale(1 1) rotate(0) translate(4 115)">
<title>a_graph</title>
<polygon fill="white" stroke="transparent" points="-4,4 -4,-115 582,-115 582,4 -4,4"/>
<!-- T1356 -->
<g id="node1" class="node">
<title>T1356</title>
<polygon fill="none" stroke="#0058ad" points="0,-81.5 0,-110.5 578,-110.5 578,-81.5 0,-81.5"/>
<text text-anchor="middle" x="46" y="-92.3" font-family="Times,serif" font-size="14.00" fill="#0058ad">r 562 [1 2]</text>
<polyline fill="none" stroke="#0058ad" points="92,-81.5 92,-110.5 "/>
<text text-anchor="middle" x="127" y="-92.3" font-family="Times,serif" font-size="14.00" fill="#0058ad">a 561 3</text>
<polyline fill="none" stroke="#0058ad" points="162,-81.5 162,-110.5 "/>
<text text-anchor="middle" x="208" y="-92.3" font-family="Times,serif" font-size="14.00" fill="#0058ad">r 562 [1 2]</text>
<polyline fill="none" stroke="#0058ad" points="254,-81.5 254,-110.5 "/>
<text text-anchor="middle" x="289" y="-92.3" font-family="Times,serif" font-size="14.00" fill="#0058ad">r 563 []</text>
<polyline fill="none" stroke="#0058ad" points="324,-81.5 324,-110.5 "/>
<text text-anchor="middle" x="370" y="-92.3" font-family="Times,serif" font-size="14.00" fill="#0058ad">r 562 [1 2]</text>
<polyline fill="none" stroke="#0058ad" points="416,-81.5 416,-110.5 "/>
<text text-anchor="middle" x="451" y="-92.3" font-family="Times,serif" font-size="14.00" fill="#0058ad">a 563 1</text>
<polyline fill="none" stroke="#0058ad" points="486,-81.5 486,-110.5 "/>
<text text-anchor="middle" x="532" y="-92.3" font-family="Times,serif" font-size="14.00" fill="#0058ad">r 556 [1 2]</text>
</g>
<!-- T1357 -->
<g id="node2" class="node">
<title>T1357</title>
<polygon fill="none" stroke="#0058ad" points="5,-0.5 5,-29.5 449,-29.5 449,-0.5 5,-0.5"/>
<text text-anchor="middle" x="51" y="-11.3" font-family="Times,serif" font-size="14.00" fill="#0058ad">r 562 [1 2]</text>
<polyline fill="none" stroke="#0058ad" points="97,-0.5 97,-29.5 "/>
<text text-anchor="middle" x="132" y="-11.3" font-family="Times,serif" font-size="14.00" fill="#0058ad">a 562 3</text>
<polyline fill="none" stroke="#0058ad" points="167,-0.5 167,-29.5 "/>
<text text-anchor="middle" x="220" y="-11.3" font-family="Times,serif" font-size="14.00" fill="#0058ad">r 562 [1 2 3]</text>
<polyline fill="none" stroke="#0058ad" points="273,-0.5 273,-29.5 "/>
<text text-anchor="middle" x="308" y="-11.3" font-family="Times,serif" font-size="14.00" fill="#0058ad">r 563 []</text>
<polyline fill="none" stroke="#0058ad" points="343,-0.5 343,-29.5 "/>
<text text-anchor="middle" x="396" y="-11.3" font-family="Times,serif" font-size="14.00" fill="#0058ad">r 562 [1 2 3]</text>
</g>
<!-- T1356&#45;&gt;T1357 -->
<g id="edge1" class="edge">
<title>T1356:f0&#45;&gt;T1357:f1</title>
<path fill="none" stroke="#5b00c0" d="M46,-81C46,-40.55 117.24,-68.3 130.04,-40.1"/>
<polygon fill="#5b00c0" stroke="#5b00c0" points="133.53,-40.48 132,-30 126.66,-39.15 133.53,-40.48"/>
<text text-anchor="middle" x="133.5" y="-51.8" font-family="Times,serif" font-size="14.00" fill="#5b00c0">rw</text>
</g>
<!-- T1357&#45;&gt;T1356 -->
<g id="edge2" class="edge">
<title>T1357:f3&#45;&gt;T1356:f5</title>
<path fill="none" stroke="#5b00c0" d="M308,-30C308,-93.65 435.26,-22.55 449.68,-70.94"/>
<polygon fill="#5b00c0" stroke="#5b00c0" points="446.23,-71.54 451,-81 453.17,-70.63 446.23,-71.54"/>
<text text-anchor="middle" x="454.5" y="-51.8" font-family="Times,serif" font-size="14.00" fill="#5b00c0">rw</text>
</g>
</g>
</svg>
