<?xml version="1.0" encoding="UTF-8" standalone="no"?>
<!DOCTYPE svg PUBLIC "-//W3C//DTD SVG 1.1//EN"
 "http://www.w3.org/Graphics/SVG/1.1/DTD/svg11.dtd">
<!-- Generated by graphviz version 2.43.0 (0)
 -->
<!-- Title: a_graph Pages: 1 -->
<svg width="661pt" height="119pt"
 viewBox="0.00 0.00 661.00 119.00" xmlns="http://www.w3.org/2000/svg" xmlns:xlink="http://www.w3.org/1999/xlink">
<g id="graph0" class="graph" transform="scale(1 1) rotate(0) translate(4 115)">
<title>a_graph</title>
<polygon fill="white" stroke="transparent" points="-4,4 -4,-115 657,-115 657,4 -4,4"/>
<!-- T888 -->
<g id="node1" class="node">
<title>T888</title>
<polygon fill="none" stroke="#0058ad" points="193,-81.5 193,-110.5 653,-110.5 653,-81.5 193,-81.5"/>
<text text-anchor="middle" x="228" y="-92.3" font-family="Times,serif" font-size="14.00" fill="#0058ad">a 365 1</text>
<polyline fill="none" stroke="#0058ad" points="263,-81.5 263,-110.5 "/>
<text text-anchor="middle" x="302.5" y="-92.3" font-family="Times,serif" font-size="14.00" fill="#0058ad">r 365 [1]</text>
<polyline fill="none" stroke="#0058ad" points="342,-81.5 342,-110.5 "/>
<text text-anchor="middle" x="377" y="-92.3" font-family="Times,serif" font-size="14.00" fill="#0058ad">a 365 2</text>
<polyline fill="none" stroke="#0058ad" points="412,-81.5 412,-110.5 "/>
<text text-anchor="middle" x="451.5" y="-92.3" font-family="Times,serif" font-size="14.00" fill="#0058ad">r 359 [1]</text>
<polyline fill="none" stroke="#0058ad" points="491,-81.5 491,-110.5 "/>
<text text-anchor="middle" x="526" y="-92.3" font-family="Times,serif" font-size="14.00" fill="#0058ad">a 365 3</text>
<polyline fill="none" stroke="#0058ad" points="561,-81.5 561,-110.5 "/>
<text text-anchor="middle" x="607" y="-92.3" font-family="Times,serif" font-size="14.00" fill="#0058ad">r 353 [1 2]</text>
</g>
<!-- T889 -->
<g id="node2" class="node">
<title>T889</title>
<polygon fill="none" stroke="#0058ad" points="0,-0.5 0,-29.5 372,-29.5 372,-0.5 0,-0.5"/>
<text text-anchor="middle" x="35" y="-11.3" font-family="Times,serif" font-size="14.00" fill="#0058ad">r 364 []</text>
<polyline fill="none" stroke="#0058ad" points="70,-0.5 70,-29.5 "/>
<text text-anchor="middle" x="105" y="-11.3" font-family="Times,serif" font-size="14.00" fill="#0058ad">r 362 []</text>
<polyline fill="none" stroke="#0058ad" points="140,-0.5 140,-29.5 "/>
<text text-anchor="middle" x="186" y="-11.3" font-family="Times,serif" font-size="14.00" fill="#0058ad">r 353 [1 2]</text>
<polyline fill="none" stroke="#0058ad" points="232,-0.5 232,-29.5 "/>
<text text-anchor="middle" x="267" y="-11.3" font-family="Times,serif" font-size="14.00" fill="#0058ad">r 365 []</text>
<polyline fill="none" stroke="#0058ad" points="302,-0.5 302,-29.5 "/>
<text text-anchor="middle" x="337" y="-11.3" font-family="Times,serif" font-size="14.00" fill="#0058ad">a 359 2</text>
</g>
<!-- T888&#45;&gt;T889 -->
<g id="edge1" class="edge">
<title>T888:f3&#45;&gt;T889:f4</title>
<path fill="none" stroke="#5b00c0" d="M452,-81C452,-38.73 423.62,-18.23 383.23,-15.35"/>
<polygon fill="#5b00c0" stroke="#5b00c0" points="383.12,-11.85 373,-15 382.87,-18.84 383.12,-11.85"/>
<text text-anchor="middle" x="458.5" y="-51.8" font-family="Times,serif" font-size="14.00" fill="#5b00c0">rw</text>
</g>
<!-- T889&#45;&gt;T888 -->
<g id="edge2" class="edge">
<title>T889:f3&#45;&gt;T888:f0</title>
<path fill="none" stroke="#5b00c0" d="M267,-30C267,-54.52 238.2,-53.49 230.1,-70.82"/>
<polygon fill="#5b00c0" stroke="#5b00c0" points="226.59,-70.5 228,-81 233.45,-71.91 226.59,-70.5"/>
<text text-anchor="middle" x="268.5" y="-51.8" font-family="Times,serif" font-size="14.00" fill="#5b00c0">rw</text>
</g>
</g>
</svg>
