<?xml version="1.0" encoding="UTF-8" standalone="no"?>
<!DOCTYPE svg PUBLIC "-//W3C//DTD SVG 1.1//EN"
 "http://www.w3.org/Graphics/SVG/1.1/DTD/svg11.dtd">
<!-- Generated by graphviz version 2.43.0 (0)
 -->
<!-- Title: a_graph Pages: 1 -->
<svg width="413pt" height="119pt"
 viewBox="0.00 0.00 412.50 119.00" xmlns="http://www.w3.org/2000/svg" xmlns:xlink="http://www.w3.org/1999/xlink">
<g id="graph0" class="graph" transform="scale(1 1) rotate(0) translate(4 115)">
<title>a_graph</title>
<polygon fill="white" stroke="transparent" points="-4,4 -4,-115 408.5,-115 408.5,4 -4,4"/>
<!-- T986 -->
<g id="node1" class="node">
<title>T986</title>
<polygon fill="none" stroke="#0058ad" points="0,-81.5 0,-110.5 350,-110.5 350,-81.5 0,-81.5"/>
<text text-anchor="middle" x="35" y="-92.3" font-family="Times,serif" font-size="14.00" fill="#0058ad">a 399 2</text>
<polyline fill="none" stroke="#0058ad" points="70,-81.5 70,-110.5 "/>
<text text-anchor="middle" x="105" y="-92.3" font-family="Times,serif" font-size="14.00" fill="#0058ad">r 401 []</text>
<polyline fill="none" stroke="#0058ad" points="140,-81.5 140,-110.5 "/>
<text text-anchor="middle" x="175" y="-92.3" font-family="Times,serif" font-size="14.00" fill="#0058ad">a 392 3</text>
<polyline fill="none" stroke="#0058ad" points="210,-81.5 210,-110.5 "/>
<text text-anchor="middle" x="245" y="-92.3" font-family="Times,serif" font-size="14.00" fill="#0058ad">r 401 []</text>
<polyline fill="none" stroke="#0058ad" points="280,-81.5 280,-110.5 "/>
<text text-anchor="middle" x="315" y="-92.3" font-family="Times,serif" font-size="14.00" fill="#0058ad">a 402 1</text>
</g>
<!-- T987 -->
<g id="node2" class="node">
<title>T987</title>
<polygon fill="none" stroke="#0058ad" points="115.5,-0.5 115.5,-29.5 404.5,-29.5 404.5,-0.5 115.5,-0.5"/>
<text text-anchor="middle" x="150.5" y="-11.3" font-family="Times,serif" font-size="14.00" fill="#0058ad">a 401 1</text>
<polyline fill="none" stroke="#0058ad" points="185.5,-0.5 185.5,-29.5 "/>
<text text-anchor="middle" x="225" y="-11.3" font-family="Times,serif" font-size="14.00" fill="#0058ad">r 401 [1]</text>
<polyline fill="none" stroke="#0058ad" points="264.5,-0.5 264.5,-29.5 "/>
<text text-anchor="middle" x="299.5" y="-11.3" font-family="Times,serif" font-size="14.00" fill="#0058ad">r 402 []</text>
<polyline fill="none" stroke="#0058ad" points="334.5,-0.5 334.5,-29.5 "/>
<text text-anchor="middle" x="369.5" y="-11.3" font-family="Times,serif" font-size="14.00" fill="#0058ad">a 401 2</text>
</g>
<!-- T986&#45;&gt;T987 -->
<g id="edge1" class="edge">
<title>T986:f1&#45;&gt;T987:f0</title>
<path fill="none" stroke="#5b00c0" d="M105,-81C105,-54.79 138.84,-58.42 147.83,-40.13"/>
<polygon fill="#5b00c0" stroke="#5b00c0" points="151.33,-40.51 150,-30 144.48,-39.04 151.33,-40.51"/>
<text text-anchor="middle" x="150.5" y="-51.8" font-family="Times,serif" font-size="14.00" fill="#5b00c0">rw</text>
</g>
<!-- T987&#45;&gt;T986 -->
<g id="edge2" class="edge">
<title>T987:f2&#45;&gt;T986:f4</title>
<path fill="none" stroke="#5b00c0" d="M300,-30C300,-49.75 310.48,-55.61 313.92,-70.8"/>
<polygon fill="#5b00c0" stroke="#5b00c0" points="310.47,-71.42 315,-81 317.43,-70.69 310.47,-71.42"/>
<text text-anchor="middle" x="319.5" y="-51.8" font-family="Times,serif" font-size="14.00" fill="#5b00c0">rw</text>
</g>
</g>
</svg>
