<?xml version="1.0" encoding="UTF-8" standalone="no"?>
<!DOCTYPE svg PUBLIC "-//W3C//DTD SVG 1.1//EN"
 "http://www.w3.org/Graphics/SVG/1.1/DTD/svg11.dtd">
<!-- Generated by graphviz version 2.43.0 (0)
 -->
<!-- Title: a_graph Pages: 1 -->
<svg width="643pt" height="119pt"
 viewBox="0.00 0.00 643.00 119.00" xmlns="http://www.w3.org/2000/svg" xmlns:xlink="http://www.w3.org/1999/xlink">
<g id="graph0" class="graph" transform="scale(1 1) rotate(0) translate(4 115)">
<title>a_graph</title>
<polygon fill="white" stroke="transparent" points="-4,4 -4,-115 639,-115 639,4 -4,4"/>
<!-- T432 -->
<g id="node1" class="node">
<title>T432</title>
<polygon fill="none" stroke="#0058ad" points="0,-81.5 0,-110.5 635,-110.5 635,-81.5 0,-81.5"/>
<text text-anchor="middle" x="39.5" y="-92.3" font-family="Times,serif" font-size="14.00" fill="#0058ad">r 166 [1]</text>
<polyline fill="none" stroke="#0058ad" points="79,-81.5 79,-110.5 "/>
<text text-anchor="middle" x="114" y="-92.3" font-family="Times,serif" font-size="14.00" fill="#0058ad">a 175 1</text>
<polyline fill="none" stroke="#0058ad" points="149,-81.5 149,-110.5 "/>
<text text-anchor="middle" x="184" y="-92.3" font-family="Times,serif" font-size="14.00" fill="#0058ad">a 140 3</text>
<polyline fill="none" stroke="#0058ad" points="219,-81.5 219,-110.5 "/>
<text text-anchor="middle" x="254" y="-92.3" font-family="Times,serif" font-size="14.00" fill="#0058ad">a 175 2</text>
<polyline fill="none" stroke="#0058ad" points="289,-81.5 289,-110.5 "/>
<text text-anchor="middle" x="335" y="-92.3" font-family="Times,serif" font-size="14.00" fill="#0058ad">r 174 [1 2]</text>
<polyline fill="none" stroke="#0058ad" points="381,-81.5 381,-110.5 "/>
<text text-anchor="middle" x="427" y="-92.3" font-family="Times,serif" font-size="14.00" fill="#0058ad">r 175 [1 2]</text>
<polyline fill="none" stroke="#0058ad" points="473,-81.5 473,-110.5 "/>
<text text-anchor="middle" x="519" y="-92.3" font-family="Times,serif" font-size="14.00" fill="#0058ad">r 174 [1 2]</text>
<polyline fill="none" stroke="#0058ad" points="565,-81.5 565,-110.5 "/>
<text text-anchor="middle" x="600" y="-92.3" font-family="Times,serif" font-size="14.00" fill="#0058ad">a 175 3</text>
</g>
<!-- T433 -->
<g id="node2" class="node">
<title>T433</title>
<polygon fill="none" stroke="#0058ad" points="74,-0.5 74,-29.5 525,-29.5 525,-0.5 74,-0.5"/>
<text text-anchor="middle" x="109" y="-11.3" font-family="Times,serif" font-size="14.00" fill="#0058ad">r 175 []</text>
<polyline fill="none" stroke="#0058ad" points="144,-0.5 144,-29.5 "/>
<text text-anchor="middle" x="190" y="-11.3" font-family="Times,serif" font-size="14.00" fill="#0058ad">r 174 [1 2]</text>
<polyline fill="none" stroke="#0058ad" points="236,-0.5 236,-29.5 "/>
<text text-anchor="middle" x="271" y="-11.3" font-family="Times,serif" font-size="14.00" fill="#0058ad">r 175 []</text>
<polyline fill="none" stroke="#0058ad" points="306,-0.5 306,-29.5 "/>
<text text-anchor="middle" x="341" y="-11.3" font-family="Times,serif" font-size="14.00" fill="#0058ad">a 174 3</text>
<polyline fill="none" stroke="#0058ad" points="376,-0.5 376,-29.5 "/>
<text text-anchor="middle" x="411" y="-11.3" font-family="Times,serif" font-size="14.00" fill="#0058ad">r 176 []</text>
<polyline fill="none" stroke="#0058ad" points="446,-0.5 446,-29.5 "/>
<text text-anchor="middle" x="485.5" y="-11.3" font-family="Times,serif" font-size="14.00" fill="#0058ad">r 173 [1]</text>
</g>
<!-- T432&#45;&gt;T433 -->
<g id="edge1" class="edge">
<title>T432:f4&#45;&gt;T433:f3</title>
<path fill="none" stroke="#5b00c0" d="M335.5,-81C335.5,-62.1 339.61,-55.18 341.03,-40.4"/>
<polygon fill="#5b00c0" stroke="#5b00c0" points="344.54,-40.15 341.5,-30 337.55,-39.83 344.54,-40.15"/>
<text text-anchor="middle" x="349" y="-51.8" font-family="Times,serif" font-size="14.00" fill="#5b00c0">rw</text>
</g>
<!-- T433&#45;&gt;T432 -->
<g id="edge2" class="edge">
<title>T433:f0&#45;&gt;T432:f1</title>
<path fill="none" stroke="#5b00c0" d="M108.5,-30C108.5,-48.86 111.93,-55.84 113.11,-70.62"/>
<polygon fill="#5b00c0" stroke="#5b00c0" points="109.62,-71.14 113.5,-81 116.62,-70.87 109.62,-71.14"/>
<text text-anchor="middle" x="122" y="-51.8" font-family="Times,serif" font-size="14.00" fill="#5b00c0">rw</text>
</g>
</g>
</svg>
