<?xml version="1.0" encoding="UTF-8" standalone="no"?>
<!DOCTYPE svg PUBLIC "-//W3C//DTD SVG 1.1//EN"
 "http://www.w3.org/Graphics/SVG/1.1/DTD/svg11.dtd">
<!-- Generated by graphviz version 2.43.0 (0)
 -->
<!-- Title: a_graph Pages: 1 -->
<svg width="387pt" height="119pt"
 viewBox="0.00 0.00 387.00 119.00" xmlns="http://www.w3.org/2000/svg" xmlns:xlink="http://www.w3.org/1999/xlink">
<g id="graph0" class="graph" transform="scale(1 1) rotate(0) translate(4 115)">
<title>a_graph</title>
<polygon fill="white" stroke="transparent" points="-4,4 -4,-115 383,-115 383,4 -4,4"/>
<!-- T1831 -->
<g id="node1" class="node">
<title>T1831</title>
<polygon fill="none" stroke="#0058ad" points="0,-81.5 0,-110.5 379,-110.5 379,-81.5 0,-81.5"/>
<text text-anchor="middle" x="38.5" y="-92.3" font-family="Times,serif" font-size="14.00" fill="#0058ad">r 781 nil</text>
<polyline fill="none" stroke="#0058ad" points="77,-81.5 77,-110.5 "/>
<text text-anchor="middle" x="115.5" y="-92.3" font-family="Times,serif" font-size="14.00" fill="#0058ad">r 781 nil</text>
<polyline fill="none" stroke="#0058ad" points="154,-81.5 154,-110.5 "/>
<text text-anchor="middle" x="192.5" y="-92.3" font-family="Times,serif" font-size="14.00" fill="#0058ad">r 780 nil</text>
<polyline fill="none" stroke="#0058ad" points="231,-81.5 231,-110.5 "/>
<text text-anchor="middle" x="268" y="-92.3" font-family="Times,serif" font-size="14.00" fill="#0058ad">w 776 3</text>
<polyline fill="none" stroke="#0058ad" points="305,-81.5 305,-110.5 "/>
<text text-anchor="middle" x="342" y="-92.3" font-family="Times,serif" font-size="14.00" fill="#0058ad">w 781 1</text>
</g>
<!-- T1830 -->
<g id="node2" class="node">
<title>T1830</title>
<polygon fill="none" stroke="#0058ad" points="2,-0.5 2,-29.5 369,-29.5 369,-0.5 2,-0.5"/>
<text text-anchor="middle" x="39" y="-11.3" font-family="Times,serif" font-size="14.00" fill="#0058ad">w 778 3</text>
<polyline fill="none" stroke="#0058ad" points="76,-0.5 76,-29.5 "/>
<text text-anchor="middle" x="113" y="-11.3" font-family="Times,serif" font-size="14.00" fill="#0058ad">w 780 1</text>
<polyline fill="none" stroke="#0058ad" points="150,-0.5 150,-29.5 "/>
<text text-anchor="middle" x="184" y="-11.3" font-family="Times,serif" font-size="14.00" fill="#0058ad">r 780 1</text>
<polyline fill="none" stroke="#0058ad" points="218,-0.5 218,-29.5 "/>
<text text-anchor="middle" x="256.5" y="-11.3" font-family="Times,serif" font-size="14.00" fill="#0058ad">r 781 nil</text>
<polyline fill="none" stroke="#0058ad" points="295,-0.5 295,-29.5 "/>
<text text-anchor="middle" x="332" y="-11.3" font-family="Times,serif" font-size="14.00" fill="#0058ad">w 780 2</text>
</g>
<!-- T1831&#45;&gt;T1830 -->
<g id="edge1" class="edge">
<title>T1831:f2&#45;&gt;T1830:f4</title>
<path fill="none" stroke="#5b00c0" d="M192.5,-81C192.5,-41.72 237.49,-61.17 274.5,-48 295.76,-40.44 322.01,-51.8 330.05,-39.97"/>
<polygon fill="#5b00c0" stroke="#5b00c0" points="333.51,-40.55 332.5,-30 326.71,-38.87 333.51,-40.55"/>
<text text-anchor="middle" x="284" y="-51.8" font-family="Times,serif" font-size="14.00" fill="#5b00c0">rw</text>
</g>
<!-- T1830&#45;&gt;T1831 -->
<g id="edge2" class="edge">
<title>T1830:f3&#45;&gt;T1831:f4</title>
<path fill="none" stroke="#5b00c0" d="M256.5,-30C256.5,-48.29 277.66,-38.87 293.5,-48 312.7,-59.06 334.38,-56.26 340.69,-70.88"/>
<polygon fill="#5b00c0" stroke="#5b00c0" points="337.29,-71.77 342.5,-81 344.18,-70.54 337.29,-71.77"/>
<text text-anchor="middle" x="343" y="-51.8" font-family="Times,serif" font-size="14.00" fill="#5b00c0">rw</text>
</g>
</g>
</svg>
