<?xml version="1.0" encoding="UTF-8" standalone="no"?>
<!DOCTYPE svg PUBLIC "-//W3C//DTD SVG 1.1//EN"
 "http://www.w3.org/Graphics/SVG/1.1/DTD/svg11.dtd">
<!-- Generated by graphviz version 2.43.0 (0)
 -->
<!-- Title: a_graph Pages: 1 -->
<svg width="2948pt" height="119pt"
 viewBox="0.00 0.00 2948.00 119.00" xmlns="http://www.w3.org/2000/svg" xmlns:xlink="http://www.w3.org/1999/xlink">
<g id="graph0" class="graph" transform="scale(1 1) rotate(0) translate(4 115)">
<title>a_graph</title>
<polygon fill="white" stroke="transparent" points="-4,4 -4,-115 2944,-115 2944,4 -4,4"/>
<!-- T1770 -->
<g id="node1" class="node">
<title>T1770</title>
<polygon fill="none" stroke="#0058ad" points="1029,-81.5 1029,-110.5 1511,-110.5 1511,-81.5 1029,-81.5"/>
<text text-anchor="middle" x="1064" y="-92.3" font-family="Times,serif" font-size="14.00" fill="#0058ad">a 99 17</text>
<polyline fill="none" stroke="#0058ad" points="1099,-81.5 1099,-110.5 "/>
<text text-anchor="middle" x="1305" y="-92.3" font-family="Times,serif" font-size="14.00" fill="#0058ad">r 100 [1 2 3 4 5 6 7 8 9 10 11 12 13 14 15 16 17 18 19]</text>
</g>
<!-- T1771 -->
<g id="node2" class="node">
<title>T1771</title>
<polygon fill="none" stroke="#0058ad" points="0,-0.5 0,-29.5 2940,-29.5 2940,-0.5 0,-0.5"/>
<text text-anchor="middle" x="206" y="-11.3" font-family="Times,serif" font-size="14.00" fill="#0058ad">r 100 [1 2 3 4 5 6 7 8 9 10 11 12 13 14 15 16 17 18 19]</text>
<polyline fill="none" stroke="#0058ad" points="412,-0.5 412,-29.5 "/>
<text text-anchor="middle" x="618" y="-11.3" font-family="Times,serif" font-size="14.00" fill="#0058ad">r 100 [1 2 3 4 5 6 7 8 9 10 11 12 13 14 15 16 17 18 19]</text>
<polyline fill="none" stroke="#0058ad" points="824,-0.5 824,-29.5 "/>
<text text-anchor="middle" x="863.5" y="-11.3" font-family="Times,serif" font-size="14.00" fill="#0058ad">a 100 20</text>
<polyline fill="none" stroke="#0058ad" points="903,-0.5 903,-29.5 "/>
<text text-anchor="middle" x="1120" y="-11.3" font-family="Times,serif" font-size="14.00" fill="#0058ad">r 100 [1 2 3 4 5 6 7 8 9 10 11 12 13 14 15 16 17 18 19 20]</text>
<polyline fill="none" stroke="#0058ad" points="1337,-0.5 1337,-29.5 "/>
<text text-anchor="middle" x="1504.5" y="-11.3" font-family="Times,serif" font-size="14.00" fill="#0058ad">r 99 [1 2 3 4 5 6 7 8 9 10 11 12 13 14 15 16]</text>
<polyline fill="none" stroke="#0058ad" points="1672,-0.5 1672,-29.5 "/>
<text text-anchor="middle" x="1772" y="-11.3" font-family="Times,serif" font-size="14.00" fill="#0058ad">r 97 [1 2 3 4 5 6 7 8 9 10]</text>
<polyline fill="none" stroke="#0058ad" points="1872,-0.5 1872,-29.5 "/>
<text text-anchor="middle" x="1972" y="-11.3" font-family="Times,serif" font-size="14.00" fill="#0058ad">r 97 [1 2 3 4 5 6 7 8 9 10]</text>
<polyline fill="none" stroke="#0058ad" points="2072,-0.5 2072,-29.5 "/>
<text text-anchor="middle" x="2289" y="-11.3" font-family="Times,serif" font-size="14.00" fill="#0058ad">r 100 [1 2 3 4 5 6 7 8 9 10 11 12 13 14 15 16 17 18 19 20]</text>
<polyline fill="none" stroke="#0058ad" points="2506,-0.5 2506,-29.5 "/>
<text text-anchor="middle" x="2723" y="-11.3" font-family="Times,serif" font-size="14.00" fill="#0058ad">r 100 [1 2 3 4 5 6 7 8 9 10 11 12 13 14 15 16 17 18 19 20]</text>
</g>
<!-- T1770&#45;&gt;T1771 -->
<g id="edge1" class="edge">
<title>T1770:f1&#45;&gt;T1771:f2</title>
<path fill="none" stroke="#5b00c0" d="M1305,-81C1305,-4.91 1212.45,-57.85 1137,-48 1123.56,-46.25 917.62,-45.44 871.93,-34.58"/>
<polygon fill="#5b00c0" stroke="#5b00c0" points="873.5,-31.45 863,-30 870.3,-37.68 873.5,-31.45"/>
<text text-anchor="middle" x="1311.5" y="-51.8" font-family="Times,serif" font-size="14.00" fill="#5b00c0">rw</text>
</g>
<!-- T1771&#45;&gt;T1770 -->
<g id="edge2" class="edge">
<title>T1771:f4&#45;&gt;T1770:f0</title>
<path fill="none" stroke="#5b00c0" d="M1505,-30C1505,-51.75 1134.68,-41.27 1114,-48 1092.44,-55.02 1071.34,-54.71 1065.55,-70.9"/>
<polygon fill="#5b00c0" stroke="#5b00c0" points="1062.06,-70.58 1064,-81 1068.98,-71.65 1062.06,-70.58"/>
<text text-anchor="middle" x="1123.5" y="-51.8" font-family="Times,serif" font-size="14.00" fill="#5b00c0">rw</text>
</g>
</g>
</svg>
