<?xml version="1.0" encoding="UTF-8" standalone="no"?>
<!DOCTYPE svg PUBLIC "-//W3C//DTD SVG 1.1//EN"
 "http://www.w3.org/Graphics/SVG/1.1/DTD/svg11.dtd">
<!-- Generated by graphviz version 2.43.0 (0)
 -->
<!-- Title: a_graph Pages: 1 -->
<svg width="1640pt" height="119pt"
 viewBox="0.00 0.00 1640.00 119.00" xmlns="http://www.w3.org/2000/svg" xmlns:xlink="http://www.w3.org/1999/xlink">
<g id="graph0" class="graph" transform="scale(1 1) rotate(0) translate(4 115)">
<title>a_graph</title>
<polygon fill="white" stroke="transparent" points="-4,4 -4,-115 1636,-115 1636,4 -4,4"/>
<!-- T90 -->
<g id="node1" class="node">
<title>T90</title>
<polygon fill="none" stroke="#0058ad" points="163.5,-81.5 163.5,-110.5 602.5,-110.5 602.5,-81.5 163.5,-81.5"/>
<text text-anchor="middle" x="194" y="-92.3" font-family="Times,serif" font-size="14.00" fill="#0058ad">a 3 26</text>
<polyline fill="none" stroke="#0058ad" points="224.5,-81.5 224.5,-110.5 "/>
<text text-anchor="middle" x="275" y="-92.3" font-family="Times,serif" font-size="14.00" fill="#0058ad">r 4 [1 2 3 4]</text>
<polyline fill="none" stroke="#0058ad" points="325.5,-81.5 325.5,-110.5 "/>
<text text-anchor="middle" x="464" y="-92.3" font-family="Times,serif" font-size="14.00" fill="#0058ad">r 0 [1 2 3 4 5 6 9 10 11 12 13 14 15]</text>
</g>
<!-- T91 -->
<g id="node2" class="node">
<title>T91</title>
<polygon fill="none" stroke="#0058ad" points="0,-0.5 0,-29.5 1632,-29.5 1632,-0.5 0,-0.5"/>
<text text-anchor="middle" x="50.5" y="-11.3" font-family="Times,serif" font-size="14.00" fill="#0058ad">r 4 [1 2 3 4]</text>
<polyline fill="none" stroke="#0058ad" points="101,-0.5 101,-29.5 "/>
<text text-anchor="middle" x="131.5" y="-11.3" font-family="Times,serif" font-size="14.00" fill="#0058ad">a 0 16</text>
<polyline fill="none" stroke="#0058ad" points="162,-0.5 162,-29.5 "/>
<text text-anchor="middle" x="413" y="-11.3" font-family="Times,serif" font-size="14.00" fill="#0058ad">r 3 [1 2 3 4 7 8 9 10 11 12 13 14 15 16 17 18 19 20 21 22 23 24 25]</text>
<polyline fill="none" stroke="#0058ad" points="664,-0.5 664,-29.5 "/>
<text text-anchor="middle" x="915" y="-11.3" font-family="Times,serif" font-size="14.00" fill="#0058ad">r 3 [1 2 3 4 7 8 9 10 11 12 13 14 15 16 17 18 19 20 21 22 23 24 25]</text>
<polyline fill="none" stroke="#0058ad" points="1166,-0.5 1166,-29.5 "/>
<text text-anchor="middle" x="1192" y="-11.3" font-family="Times,serif" font-size="14.00" fill="#0058ad">a 4 5</text>
<polyline fill="none" stroke="#0058ad" points="1218,-0.5 1218,-29.5 "/>
<text text-anchor="middle" x="1275.5" y="-11.3" font-family="Times,serif" font-size="14.00" fill="#0058ad">r 4 [1 2 3 4 5]</text>
<polyline fill="none" stroke="#0058ad" points="1333,-0.5 1333,-29.5 "/>
<text text-anchor="middle" x="1482.5" y="-11.3" font-family="Times,serif" font-size="14.00" fill="#0058ad">r 0 [1 2 3 4 5 6 9 10 11 12 13 14 15 16]</text>
</g>
<!-- T90&#45;&gt;T91 -->
<g id="edge1" class="edge">
<title>T90:f2&#45;&gt;T91:f1</title>
<path fill="none" stroke="#5b00c0" d="M464,-81C464,4.71 358.76,-60.69 274,-48 260.57,-45.99 167.16,-45.96 139.01,-36.24"/>
<polygon fill="#5b00c0" stroke="#5b00c0" points="141.04,-33.39 131,-30 136.73,-38.91 141.04,-33.39"/>
<text text-anchor="middle" x="469.5" y="-51.8" font-family="Times,serif" font-size="14.00" fill="#5b00c0">rw</text>
</g>
<!-- T91&#45;&gt;T90 -->
<g id="edge2" class="edge">
<title>T91:f2&#45;&gt;T90:f0</title>
<path fill="none" stroke="#5b00c0" d="M413,-30C413,-48.11 268.2,-42.34 251,-48 226.89,-55.93 201.73,-52.91 195.47,-71.06"/>
<polygon fill="#5b00c0" stroke="#5b00c0" points="192,-70.59 194,-81 198.93,-71.62 192,-70.59"/>
<text text-anchor="middle" x="260.5" y="-51.8" font-family="Times,serif" font-size="14.00" fill="#5b00c0">rw</text>
</g>
</g>
</svg>
