<?xml version="1.0" encoding="UTF-8" standalone="no"?>
<!DOCTYPE svg PUBLIC "-//W3C//DTD SVG 1.1//EN"
 "http://www.w3.org/Graphics/SVG/1.1/DTD/svg11.dtd">
<!-- Generated by graphviz version 2.43.0 (0)
 -->
<!-- Title: a_graph Pages: 1 -->
<svg width="1165pt" height="119pt"
 viewBox="0.00 0.00 1165.00 119.00" xmlns="http://www.w3.org/2000/svg" xmlns:xlink="http://www.w3.org/1999/xlink">
<g id="graph0" class="graph" transform="scale(1 1) rotate(0) translate(4 115)">
<title>a_graph</title>
<polygon fill="white" stroke="transparent" points="-4,4 -4,-115 1161,-115 1161,4 -4,4"/>
<!-- T1333 -->
<g id="node1" class="node">
<title>T1333</title>
<polygon fill="none" stroke="#0058ad" points="0,-81.5 0,-110.5 1157,-110.5 1157,-81.5 0,-81.5"/>
<text text-anchor="middle" x="35" y="-92.3" font-family="Times,serif" font-size="14.00" fill="#0058ad">a 51 12</text>
<polyline fill="none" stroke="#0058ad" points="70,-81.5 70,-110.5 "/>
<text text-anchor="middle" x="192.5" y="-92.3" font-family="Times,serif" font-size="14.00" fill="#0058ad">r 51 [1 2 3 4 5 6 7 8 9 10 11 12]</text>
<polyline fill="none" stroke="#0058ad" points="315,-81.5 315,-110.5 "/>
<text text-anchor="middle" x="350" y="-92.3" font-family="Times,serif" font-size="14.00" fill="#0058ad">a 51 13</text>
<polyline fill="none" stroke="#0058ad" points="385,-81.5 385,-110.5 "/>
<text text-anchor="middle" x="420" y="-92.3" font-family="Times,serif" font-size="14.00" fill="#0058ad">a 48 16</text>
<polyline fill="none" stroke="#0058ad" points="455,-81.5 455,-110.5 "/>
<text text-anchor="middle" x="672" y="-92.3" font-family="Times,serif" font-size="14.00" fill="#0058ad">r 49 [1 2 3 4 5 6 7 8 11 12 13 14 15 16 17 18 19 20 21 22]</text>
<polyline fill="none" stroke="#0058ad" points="889,-81.5 889,-110.5 "/>
<text text-anchor="middle" x="1023" y="-92.3" font-family="Times,serif" font-size="14.00" fill="#0058ad">r 51 [1 2 3 4 5 6 7 8 9 10 11 12 13]</text>
</g>
<!-- T1332 -->
<g id="node2" class="node">
<title>T1332</title>
<polygon fill="none" stroke="#0058ad" points="96.5,-0.5 96.5,-29.5 916.5,-29.5 916.5,-0.5 96.5,-0.5"/>
<text text-anchor="middle" x="131.5" y="-11.3" font-family="Times,serif" font-size="14.00" fill="#0058ad">a 49 23</text>
<polyline fill="none" stroke="#0058ad" points="166.5,-0.5 166.5,-29.5 "/>
<text text-anchor="middle" x="278" y="-11.3" font-family="Times,serif" font-size="14.00" fill="#0058ad">r 51 [1 2 3 4 5 6 7 8 9 10 11]</text>
<polyline fill="none" stroke="#0058ad" points="389.5,-0.5 389.5,-29.5 "/>
<text text-anchor="middle" x="618" y="-11.3" font-family="Times,serif" font-size="14.00" fill="#0058ad">r 49 [1 2 3 4 5 6 7 8 11 12 13 14 15 16 17 18 19 20 21 22 23]</text>
<polyline fill="none" stroke="#0058ad" points="846.5,-0.5 846.5,-29.5 "/>
<text text-anchor="middle" x="881.5" y="-11.3" font-family="Times,serif" font-size="14.00" fill="#0058ad">a 49 24</text>
</g>
<!-- T1333&#45;&gt;T1332 -->
<g id="edge1" class="edge">
<title>T1333:f4&#45;&gt;T1332:f0</title>
<path fill="none" stroke="#5b00c0" d="M672.5,-81C672.5,-52.99 206.87,-59.04 139.57,-35.95"/>
<polygon fill="#5b00c0" stroke="#5b00c0" points="141.62,-33.12 131.5,-30 137.47,-38.75 141.62,-33.12"/>
<text text-anchor="middle" x="565" y="-51.8" font-family="Times,serif" font-size="14.00" fill="#5b00c0">rw</text>
</g>
<!-- T1332&#45;&gt;T1333 -->
<g id="edge2" class="edge">
<title>T1332:f1&#45;&gt;T1333:f0</title>
<path fill="none" stroke="#5b00c0" d="M277.5,-30C277.5,-42.23 86.44,-62.03 43.15,-75.97"/>
<polygon fill="#5b00c0" stroke="#5b00c0" points="41.38,-72.95 34.5,-81 44.9,-79 41.38,-72.95"/>
<text text-anchor="middle" x="208" y="-51.8" font-family="Times,serif" font-size="14.00" fill="#5b00c0">rw</text>
</g>
</g>
</svg>
