<?xml version="1.0" encoding="UTF-8" standalone="no"?>
<!DOCTYPE svg PUBLIC "-//W3C//DTD SVG 1.1//EN"
 "http://www.w3.org/Graphics/SVG/1.1/DTD/svg11.dtd">
<!-- Generated by graphviz version 2.43.0 (0)
 -->
<!-- Title: a_graph Pages: 1 -->
<svg width="1111pt" height="119pt"
 viewBox="0.00 0.00 1111.00 119.00" xmlns="http://www.w3.org/2000/svg" xmlns:xlink="http://www.w3.org/1999/xlink">
<g id="graph0" class="graph" transform="scale(1 1) rotate(0) translate(4 115)">
<title>a_graph</title>
<polygon fill="white" stroke="transparent" points="-4,4 -4,-115 1107,-115 1107,4 -4,4"/>
<!-- T2377 -->
<g id="node1" class="node">
<title>T2377</title>
<polygon fill="none" stroke="#0058ad" points="145.5,-81.5 145.5,-110.5 1013.5,-110.5 1013.5,-81.5 145.5,-81.5"/>
<text text-anchor="middle" x="180.5" y="-92.3" font-family="Times,serif" font-size="14.00" fill="#0058ad">a 88 18</text>
<polyline fill="none" stroke="#0058ad" points="215.5,-81.5 215.5,-110.5 "/>
<text text-anchor="middle" x="390" y="-92.3" font-family="Times,serif" font-size="14.00" fill="#0058ad">r 91 [5 6 7 8 9 10 11 12 13 14 15 16 17 18 19]</text>
<polyline fill="none" stroke="#0058ad" points="564.5,-81.5 564.5,-110.5 "/>
<text text-anchor="middle" x="599.5" y="-92.3" font-family="Times,serif" font-size="14.00" fill="#0058ad">a 91 20</text>
<polyline fill="none" stroke="#0058ad" points="634.5,-81.5 634.5,-110.5 "/>
<text text-anchor="middle" x="669.5" y="-92.3" font-family="Times,serif" font-size="14.00" fill="#0058ad">a 91 21</text>
<polyline fill="none" stroke="#0058ad" points="704.5,-81.5 704.5,-110.5 "/>
<text text-anchor="middle" x="789" y="-92.3" font-family="Times,serif" font-size="14.00" fill="#0058ad">r 90 [1 6 7 8 9 10 11]</text>
<polyline fill="none" stroke="#0058ad" points="873.5,-81.5 873.5,-110.5 "/>
<text text-anchor="middle" x="908.5" y="-92.3" font-family="Times,serif" font-size="14.00" fill="#0058ad">a 91 22</text>
<polyline fill="none" stroke="#0058ad" points="943.5,-81.5 943.5,-110.5 "/>
<text text-anchor="middle" x="978.5" y="-92.3" font-family="Times,serif" font-size="14.00" fill="#0058ad">a 88 19</text>
</g>
<!-- T2376 -->
<g id="node2" class="node">
<title>T2376</title>
<polygon fill="none" stroke="#0058ad" points="0,-0.5 0,-29.5 1103,-29.5 1103,-0.5 0,-0.5"/>
<text text-anchor="middle" x="174.5" y="-11.3" font-family="Times,serif" font-size="14.00" fill="#0058ad">r 91 [5 6 7 8 9 10 11 12 13 14 15 16 17 18 19]</text>
<polyline fill="none" stroke="#0058ad" points="349,-0.5 349,-29.5 "/>
<text text-anchor="middle" x="384" y="-11.3" font-family="Times,serif" font-size="14.00" fill="#0058ad">a 90 12</text>
<polyline fill="none" stroke="#0058ad" points="419,-0.5 419,-29.5 "/>
<text text-anchor="middle" x="586.5" y="-11.3" font-family="Times,serif" font-size="14.00" fill="#0058ad">r 88 [1 2 3 4 5 6 7 8 9 10 11 12 13 15 16 17]</text>
<polyline fill="none" stroke="#0058ad" points="754,-0.5 754,-29.5 "/>
<text text-anchor="middle" x="928.5" y="-11.3" font-family="Times,serif" font-size="14.00" fill="#0058ad">r 91 [5 6 7 8 9 10 11 12 13 14 15 16 17 18 19]</text>
</g>
<!-- T2377&#45;&gt;T2376 -->
<g id="edge1" class="edge">
<title>T2377:f4&#45;&gt;T2376:f1</title>
<path fill="none" stroke="#5b00c0" d="M789.5,-81C789.5,97.31 399.2,-199.84 383.96,-40.1"/>
<polygon fill="#5b00c0" stroke="#5b00c0" points="387.45,-39.83 383.5,-30 380.46,-40.15 387.45,-39.83"/>
<text text-anchor="middle" x="797" y="-51.8" font-family="Times,serif" font-size="14.00" fill="#5b00c0">rw</text>
</g>
<!-- T2376&#45;&gt;T2377 -->
<g id="edge2" class="edge">
<title>T2376:f2&#45;&gt;T2377:f0</title>
<path fill="none" stroke="#5b00c0" d="M586.5,-30C586.5,-55.08 386.37,-44.75 361.5,-48 284.06,-58.13 189.44,-4.42 181.09,-70.82"/>
<polygon fill="#5b00c0" stroke="#5b00c0" points="177.59,-70.81 180.5,-81 184.58,-71.22 177.59,-70.81"/>
<text text-anchor="middle" x="371" y="-51.8" font-family="Times,serif" font-size="14.00" fill="#5b00c0">rw</text>
</g>
</g>
</svg>
