<?xml version="1.0" encoding="UTF-8" standalone="no"?>
<!DOCTYPE svg PUBLIC "-//W3C//DTD SVG 1.1//EN"
 "http://www.w3.org/Graphics/SVG/1.1/DTD/svg11.dtd">
<!-- Generated by graphviz version 2.43.0 (0)
 -->
<!-- Title: a_graph Pages: 1 -->
<svg width="2190pt" height="119pt"
 viewBox="0.00 0.00 2190.00 119.00" xmlns="http://www.w3.org/2000/svg" xmlns:xlink="http://www.w3.org/1999/xlink">
<g id="graph0" class="graph" transform="scale(1 1) rotate(0) translate(4 115)">
<title>a_graph</title>
<polygon fill="white" stroke="transparent" points="-4,4 -4,-115 2186,-115 2186,4 -4,4"/>
<!-- T2382 -->
<g id="node1" class="node">
<title>T2382</title>
<polygon fill="none" stroke="#0058ad" points="874.5,-81.5 874.5,-110.5 1383.5,-110.5 1383.5,-81.5 874.5,-81.5"/>
<text text-anchor="middle" x="909.5" y="-92.3" font-family="Times,serif" font-size="14.00" fill="#0058ad">a 90 13</text>
<polyline fill="none" stroke="#0058ad" points="944.5,-81.5 944.5,-110.5 "/>
<text text-anchor="middle" x="1164" y="-92.3" font-family="Times,serif" font-size="14.00" fill="#0058ad">r 91 [5 6 7 8 9 10 11 12 13 14 15 16 17 18 19 20 21 22 23]</text>
</g>
<!-- T2383 -->
<g id="node2" class="node">
<title>T2383</title>
<polygon fill="none" stroke="#0058ad" points="0,-0.5 0,-29.5 2182,-29.5 2182,-0.5 0,-0.5"/>
<text text-anchor="middle" x="190" y="-11.3" font-family="Times,serif" font-size="14.00" fill="#0058ad">r 88 [1 2 3 4 5 6 7 8 9 10 11 12 13 15 16 17 18 19]</text>
<polyline fill="none" stroke="#0058ad" points="380,-0.5 380,-29.5 "/>
<text text-anchor="middle" x="475.5" y="-11.3" font-family="Times,serif" font-size="14.00" fill="#0058ad">r 90 [1 6 7 8 9 10 11 12]</text>
<polyline fill="none" stroke="#0058ad" points="571,-0.5 571,-29.5 "/>
<text text-anchor="middle" x="761" y="-11.3" font-family="Times,serif" font-size="14.00" fill="#0058ad">r 88 [1 2 3 4 5 6 7 8 9 10 11 12 13 15 16 17 18 19]</text>
<polyline fill="none" stroke="#0058ad" points="951,-0.5 951,-29.5 "/>
<text text-anchor="middle" x="1170.5" y="-11.3" font-family="Times,serif" font-size="14.00" fill="#0058ad">r 91 [5 6 7 8 9 10 11 12 13 14 15 16 17 18 19 20 21 22 23]</text>
<polyline fill="none" stroke="#0058ad" points="1390,-0.5 1390,-29.5 "/>
<text text-anchor="middle" x="1425" y="-11.3" font-family="Times,serif" font-size="14.00" fill="#0058ad">a 91 24</text>
<polyline fill="none" stroke="#0058ad" points="1460,-0.5 1460,-29.5 "/>
<text text-anchor="middle" x="1690.5" y="-11.3" font-family="Times,serif" font-size="14.00" fill="#0058ad">r 91 [5 6 7 8 9 10 11 12 13 14 15 16 17 18 19 20 21 22 23 24]</text>
<polyline fill="none" stroke="#0058ad" points="1921,-0.5 1921,-29.5 "/>
<text text-anchor="middle" x="1956" y="-11.3" font-family="Times,serif" font-size="14.00" fill="#0058ad">a 91 25</text>
<polyline fill="none" stroke="#0058ad" points="1991,-0.5 1991,-29.5 "/>
<text text-anchor="middle" x="2086.5" y="-11.3" font-family="Times,serif" font-size="14.00" fill="#0058ad">r 90 [1 6 7 8 9 10 11 12]</text>
</g>
<!-- T2382&#45;&gt;T2383 -->
<g id="edge1" class="edge">
<title>T2382:f1&#45;&gt;T2383:f4</title>
<path fill="none" stroke="#5b00c0" d="M1164,-81C1164,33.5 1408.94,-136.9 1424.25,-40.21"/>
<polygon fill="#5b00c0" stroke="#5b00c0" points="1427.76,-40.23 1425,-30 1420.78,-39.72 1427.76,-40.23"/>
<text text-anchor="middle" x="1431.5" y="-51.8" font-family="Times,serif" font-size="14.00" fill="#5b00c0">rw</text>
</g>
<!-- T2383&#45;&gt;T2382 -->
<g id="edge2" class="edge">
<title>T2383:f1&#45;&gt;T2382:f0</title>
<path fill="none" stroke="#5b00c0" d="M475,-30C475,-72.37 790.6,-93.61 862.99,-95.81"/>
<polygon fill="#5b00c0" stroke="#5b00c0" points="862.94,-99.31 873,-96 863.07,-92.31 862.94,-99.31"/>
<text text-anchor="middle" x="553.5" y="-51.8" font-family="Times,serif" font-size="14.00" fill="#5b00c0">rw</text>
</g>
</g>
</svg>
