<?xml version="1.0" encoding="UTF-8" standalone="no"?>
<!DOCTYPE svg PUBLIC "-//W3C//DTD SVG 1.1//EN"
 "http://www.w3.org/Graphics/SVG/1.1/DTD/svg11.dtd">
<!-- Generated by graphviz version 2.43.0 (0)
 -->
<!-- Title: a_graph Pages: 1 -->
<svg width="784pt" height="119pt"
 viewBox="0.00 0.00 784.00 119.00" xmlns="http://www.w3.org/2000/svg" xmlns:xlink="http://www.w3.org/1999/xlink">
<g id="graph0" class="graph" transform="scale(1 1) rotate(0) translate(4 115)">
<title>a_graph</title>
<polygon fill="white" stroke="transparent" points="-4,4 -4,-115 780,-115 780,4 -4,4"/>
<!-- T581 -->
<g id="node1" class="node">
<title>T581</title>
<polygon fill="none" stroke="#0058ad" points="0,-81.5 0,-110.5 428,-110.5 428,-81.5 0,-81.5"/>
<text text-anchor="middle" x="179" y="-92.3" font-family="Times,serif" font-size="14.00" fill="#0058ad">r 21 [1 2 3 4 5 6 7 8 9 10 11 13 14 15 16 17 18]</text>
<polyline fill="none" stroke="#0058ad" points="358,-81.5 358,-110.5 "/>
<text text-anchor="middle" x="393" y="-92.3" font-family="Times,serif" font-size="14.00" fill="#0058ad">a 16 30</text>
</g>
<!-- T580 -->
<g id="node2" class="node">
<title>T580</title>
<polygon fill="none" stroke="#0058ad" points="114,-0.5 114,-29.5 776,-29.5 776,-0.5 114,-0.5"/>
<text text-anchor="middle" x="149" y="-11.3" font-family="Times,serif" font-size="14.00" fill="#0058ad">a 21 19</text>
<polyline fill="none" stroke="#0058ad" points="184,-0.5 184,-29.5 "/>
<text text-anchor="middle" x="480" y="-11.3" font-family="Times,serif" font-size="14.00" fill="#0058ad">r 16 [2 3 4 5 6 7 8 9 10 11 12 13 14 15 16 17 18 19 20 21 22 24 25 26 27 28 29]</text>
</g>
<!-- T581&#45;&gt;T580 -->
<g id="edge1" class="edge">
<title>T581:f0&#45;&gt;T580:f0</title>
<path fill="none" stroke="#5b00c0" d="M179,-81C179,-58.61 157.25,-56.44 150.79,-40.05"/>
<polygon fill="#5b00c0" stroke="#5b00c0" points="154.2,-39.23 149,-30 147.3,-40.46 154.2,-39.23"/>
<text text-anchor="middle" x="181.5" y="-51.8" font-family="Times,serif" font-size="14.00" fill="#5b00c0">rw</text>
</g>
<!-- T580&#45;&gt;T581 -->
<g id="edge2" class="edge">
<title>T580:f1&#45;&gt;T581:f1</title>
<path fill="none" stroke="#5b00c0" d="M480,-30C480,-70.79 407.93,-42.45 394.98,-70.82"/>
<polygon fill="#5b00c0" stroke="#5b00c0" points="391.47,-70.52 393,-81 398.35,-71.85 391.47,-70.52"/>
<text text-anchor="middle" x="479.5" y="-51.8" font-family="Times,serif" font-size="14.00" fill="#5b00c0">rw</text>
</g>
</g>
</svg>
