<?xml version="1.0" encoding="UTF-8" standalone="no"?>
<!DOCTYPE svg PUBLIC "-//W3C//DTD SVG 1.1//EN"
 "http://www.w3.org/Graphics/SVG/1.1/DTD/svg11.dtd">
<!-- Generated by graphviz version 2.43.0 (0)
 -->
<!-- Title: a_graph Pages: 1 -->
<svg width="1941pt" height="119pt"
 viewBox="0.00 0.00 1941.00 119.00" xmlns="http://www.w3.org/2000/svg" xmlns:xlink="http://www.w3.org/1999/xlink">
<g id="graph0" class="graph" transform="scale(1 1) rotate(0) translate(4 115)">
<title>a_graph</title>
<polygon fill="white" stroke="transparent" points="-4,4 -4,-115 1937,-115 1937,4 -4,4"/>
<!-- T1255 -->
<g id="node1" class="node">
<title>T1255</title>
<polygon fill="none" stroke="#0058ad" points="0,-81.5 0,-110.5 1933,-110.5 1933,-81.5 0,-81.5"/>
<text text-anchor="middle" x="302.5" y="-92.3" font-family="Times,serif" font-size="14.00" fill="#0058ad">r 45 [1 2 3 4 5 6 7 8 9 10 11 12 13 14 15 16 17 18 19 20 21 22 23 24 25 26 27 28]</text>
<polyline fill="none" stroke="#0058ad" points="605,-81.5 605,-110.5 "/>
<text text-anchor="middle" x="640" y="-92.3" font-family="Times,serif" font-size="14.00" fill="#0058ad">a 45 29</text>
<polyline fill="none" stroke="#0058ad" points="675,-81.5 675,-110.5 "/>
<text text-anchor="middle" x="955" y="-92.3" font-family="Times,serif" font-size="14.00" fill="#0058ad">r 46 [1 2 3 4 5 6 7 8 9 10 11 12 13 14 15 16 17 18 19 20 21 22 23 24 25 26]</text>
<polyline fill="none" stroke="#0058ad" points="1235,-81.5 1235,-110.5 "/>
<text text-anchor="middle" x="1549" y="-92.3" font-family="Times,serif" font-size="14.00" fill="#0058ad">r 45 [1 2 3 4 5 6 7 8 9 10 11 12 13 14 15 16 17 18 19 20 21 22 23 24 25 26 27 28 29]</text>
<polyline fill="none" stroke="#0058ad" points="1863,-81.5 1863,-110.5 "/>
<text text-anchor="middle" x="1898" y="-92.3" font-family="Times,serif" font-size="14.00" fill="#0058ad">a 45 30</text>
</g>
<!-- T1254 -->
<g id="node2" class="node">
<title>T1254</title>
<polygon fill="none" stroke="#0058ad" points="255.5,-0.5 255.5,-29.5 1605.5,-29.5 1605.5,-0.5 255.5,-0.5"/>
<text text-anchor="middle" x="290.5" y="-11.3" font-family="Times,serif" font-size="14.00" fill="#0058ad">a 46 27</text>
<polyline fill="none" stroke="#0058ad" points="325.5,-0.5 325.5,-29.5 "/>
<text text-anchor="middle" x="360.5" y="-11.3" font-family="Times,serif" font-size="14.00" fill="#0058ad">a 46 28</text>
<polyline fill="none" stroke="#0058ad" points="395.5,-0.5 395.5,-29.5 "/>
<text text-anchor="middle" x="698" y="-11.3" font-family="Times,serif" font-size="14.00" fill="#0058ad">r 46 [1 2 3 4 5 6 7 8 9 10 11 12 13 14 15 16 17 18 19 20 21 22 23 24 25 26 27 28]</text>
<polyline fill="none" stroke="#0058ad" points="1000.5,-0.5 1000.5,-29.5 "/>
<text text-anchor="middle" x="1303" y="-11.3" font-family="Times,serif" font-size="14.00" fill="#0058ad">r 45 [1 2 3 4 5 6 7 8 9 10 11 12 13 14 15 16 17 18 19 20 21 22 23 24 25 26 27 28]</text>
</g>
<!-- T1255&#45;&gt;T1254 -->
<g id="edge1" class="edge">
<title>T1255:f2&#45;&gt;T1254:f0</title>
<path fill="none" stroke="#5b00c0" d="M954.5,-81C954.5,19.19 831.25,-57.39 731.5,-48 709.19,-45.9 359.2,-53.09 299.22,-35.61"/>
<polygon fill="#5b00c0" stroke="#5b00c0" points="300.8,-32.47 290.5,-30 297.01,-38.36 300.8,-32.47"/>
<text text-anchor="middle" x="961" y="-51.8" font-family="Times,serif" font-size="14.00" fill="#5b00c0">rw</text>
</g>
<!-- T1254&#45;&gt;T1255 -->
<g id="edge2" class="edge">
<title>T1254:f3&#45;&gt;T1255:f1</title>
<path fill="none" stroke="#5b00c0" d="M1303.5,-30C1303.5,-46.54 724.57,-44.1 708.5,-48 679.21,-55.11 647.61,-48.83 640.83,-71.02"/>
<polygon fill="#5b00c0" stroke="#5b00c0" points="637.35,-70.63 639.5,-81 644.29,-71.55 637.35,-70.63"/>
<text text-anchor="middle" x="718" y="-51.8" font-family="Times,serif" font-size="14.00" fill="#5b00c0">rw</text>
</g>
</g>
</svg>
