<?xml version="1.0" encoding="UTF-8" standalone="no"?>
<!DOCTYPE svg PUBLIC "-//W3C//DTD SVG 1.1//EN"
 "http://www.w3.org/Graphics/SVG/1.1/DTD/svg11.dtd">
<!-- Generated by graphviz version 2.43.0 (0)
 -->
<!-- Title: a_graph Pages: 1 -->
<svg width="609pt" height="119pt"
 viewBox="0.00 0.00 609.00 119.00" xmlns="http://www.w3.org/2000/svg" xmlns:xlink="http://www.w3.org/1999/xlink">
<g id="graph0" class="graph" transform="scale(1 1) rotate(0) translate(4 115)">
<title>a_graph</title>
<polygon fill="white" stroke="transparent" points="-4,4 -4,-115 605,-115 605,4 -4,4"/>
<!-- T1425 -->
<g id="node1" class="node">
<title>T1425</title>
<polygon fill="none" stroke="#0058ad" points="240,-81.5 240,-110.5 601,-110.5 601,-81.5 240,-81.5"/>
<text text-anchor="middle" x="278.5" y="-92.3" font-family="Times,serif" font-size="14.00" fill="#0058ad">r 595 nil</text>
<polyline fill="none" stroke="#0058ad" points="317,-81.5 317,-110.5 "/>
<text text-anchor="middle" x="354" y="-92.3" font-family="Times,serif" font-size="14.00" fill="#0058ad">w 597 1</text>
<polyline fill="none" stroke="#0058ad" points="391,-81.5 391,-110.5 "/>
<text text-anchor="middle" x="425" y="-92.3" font-family="Times,serif" font-size="14.00" fill="#0058ad">r 593 2</text>
<polyline fill="none" stroke="#0058ad" points="459,-81.5 459,-110.5 "/>
<text text-anchor="middle" x="493" y="-92.3" font-family="Times,serif" font-size="14.00" fill="#0058ad">r 597 1</text>
<polyline fill="none" stroke="#0058ad" points="527,-81.5 527,-110.5 "/>
<text text-anchor="middle" x="564" y="-92.3" font-family="Times,serif" font-size="14.00" fill="#0058ad">w 598 1</text>
</g>
<!-- T1424 -->
<g id="node2" class="node">
<title>T1424</title>
<polygon fill="none" stroke="#0058ad" points="0,-0.5 0,-29.5 595,-29.5 595,-0.5 0,-0.5"/>
<text text-anchor="middle" x="34" y="-11.3" font-family="Times,serif" font-size="14.00" fill="#0058ad">r 594 2</text>
<polyline fill="none" stroke="#0058ad" points="68,-0.5 68,-29.5 "/>
<text text-anchor="middle" x="105" y="-11.3" font-family="Times,serif" font-size="14.00" fill="#0058ad">w 594 3</text>
<polyline fill="none" stroke="#0058ad" points="142,-0.5 142,-29.5 "/>
<text text-anchor="middle" x="179" y="-11.3" font-family="Times,serif" font-size="14.00" fill="#0058ad">w 593 3</text>
<polyline fill="none" stroke="#0058ad" points="216,-0.5 216,-29.5 "/>
<text text-anchor="middle" x="254.5" y="-11.3" font-family="Times,serif" font-size="14.00" fill="#0058ad">r 595 nil</text>
<polyline fill="none" stroke="#0058ad" points="293,-0.5 293,-29.5 "/>
<text text-anchor="middle" x="330" y="-11.3" font-family="Times,serif" font-size="14.00" fill="#0058ad">w 595 1</text>
<polyline fill="none" stroke="#0058ad" points="367,-0.5 367,-29.5 "/>
<text text-anchor="middle" x="404" y="-11.3" font-family="Times,serif" font-size="14.00" fill="#0058ad">w 596 1</text>
<polyline fill="none" stroke="#0058ad" points="441,-0.5 441,-29.5 "/>
<text text-anchor="middle" x="479.5" y="-11.3" font-family="Times,serif" font-size="14.00" fill="#0058ad">r 598 nil</text>
<polyline fill="none" stroke="#0058ad" points="518,-0.5 518,-29.5 "/>
<text text-anchor="middle" x="556.5" y="-11.3" font-family="Times,serif" font-size="14.00" fill="#0058ad">r 598 nil</text>
</g>
<!-- T1425&#45;&gt;T1424 -->
<g id="edge1" class="edge">
<title>T1425:f0&#45;&gt;T1424:f4</title>
<path fill="none" stroke="#5b00c0" d="M278.5,-81C278.5,-52.55 318.67,-59.72 328.4,-39.9"/>
<polygon fill="#5b00c0" stroke="#5b00c0" points="331.84,-40.51 330.5,-30 325,-39.05 331.84,-40.51"/>
<text text-anchor="middle" x="331" y="-51.8" font-family="Times,serif" font-size="14.00" fill="#5b00c0">rw</text>
</g>
<!-- T1424&#45;&gt;T1425 -->
<g id="edge2" class="edge">
<title>T1424:f6&#45;&gt;T1425:f4</title>
<path fill="none" stroke="#5b00c0" d="M479.5,-30C479.5,-70.1 549.91,-42.96 562.56,-70.97"/>
<polygon fill="#5b00c0" stroke="#5b00c0" points="559.17,-71.84 564.5,-81 566.04,-70.52 559.17,-71.84"/>
<text text-anchor="middle" x="563" y="-51.8" font-family="Times,serif" font-size="14.00" fill="#5b00c0">rw</text>
</g>
</g>
</svg>
