<?xml version="1.0" encoding="UTF-8" standalone="no"?>
<!DOCTYPE svg PUBLIC "-//W3C//DTD SVG 1.1//EN"
 "http://www.w3.org/Graphics/SVG/1.1/DTD/svg11.dtd">
<!-- Generated by graphviz version 2.43.0 (0)
 -->
<!-- Title: a_graph Pages: 1 -->
<svg width="2119pt" height="524pt"
 viewBox="0.00 0.00 2118.50 524.00" xmlns="http://www.w3.org/2000/svg" xmlns:xlink="http://www.w3.org/1999/xlink">
<g id="graph0" class="graph" transform="scale(1 1) rotate(0) translate(4 520)">
<title>a_graph</title>
<polygon fill="white" stroke="transparent" points="-4,4 -4,-520 2114.5,-520 2114.5,4 -4,4"/>
<!-- T1803 -->
<g id="node1" class="node">
<title>T1803</title>
<polygon fill="none" stroke="#0058ad" points="0,-486.5 0,-515.5 279,-515.5 279,-486.5 0,-486.5"/>
<text text-anchor="middle" x="104.5" y="-497.3" font-family="Times,serif" font-size="14.00" fill="#0058ad">r 67 [5 6 7 12 13 14 18 19]</text>
<polyline fill="none" stroke="#0058ad" points="209,-486.5 209,-515.5 "/>
<text text-anchor="middle" x="244" y="-497.3" font-family="Times,serif" font-size="14.00" fill="#0058ad">a 67 22</text>
</g>
<!-- T1807 -->
<g id="node6" class="node">
<title>T1807</title>
<polygon fill="none" stroke="#0058ad" points="486,-405.5 486,-434.5 849,-434.5 849,-405.5 486,-405.5"/>
<text text-anchor="middle" x="602" y="-416.3" font-family="Times,serif" font-size="14.00" fill="#0058ad">r 67 [5 6 7 12 13 14 18 19 22]</text>
<polyline fill="none" stroke="#0058ad" points="718,-405.5 718,-434.5 "/>
<text text-anchor="middle" x="748.5" y="-416.3" font-family="Times,serif" font-size="14.00" fill="#0058ad">r 68 []</text>
<polyline fill="none" stroke="#0058ad" points="779,-405.5 779,-434.5 "/>
<text text-anchor="middle" x="814" y="-416.3" font-family="Times,serif" font-size="14.00" fill="#0058ad">a 67 23</text>
</g>
<!-- T1803&#45;&gt;T1807 -->
<g id="edge1" class="edge">
<title>T1803:f1&#45;&gt;T1807:f2</title>
<path fill="none" stroke="#c02700" d="M280.5,-501C337.02,-501 763.87,-495.45 810.39,-444.34"/>
<polygon fill="#c02700" stroke="#c02700" points="813.67,-445.56 814.5,-435 807.27,-442.74 813.67,-445.56"/>
<text text-anchor="middle" x="808" y="-456.8" font-family="Times,serif" font-size="14.00" fill="#c02700">ww</text>
</g>
<!-- T1823 -->
<g id="node2" class="node">
<title>T1823</title>
<polygon fill="none" stroke="#0058ad" points="590.5,-243.5 590.5,-272.5 2110.5,-272.5 2110.5,-243.5 590.5,-243.5"/>
<text text-anchor="middle" x="625.5" y="-254.3" font-family="Times,serif" font-size="14.00" fill="#0058ad">r 66 [1]</text>
<polyline fill="none" stroke="#0058ad" points="660.5,-243.5 660.5,-272.5 "/>
<text text-anchor="middle" x="866.5" y="-254.3" font-family="Times,serif" font-size="14.00" fill="#0058ad">r 67 [5 6 7 12 13 14 18 19 22 23 24 25 26 27 28 29 31]</text>
<polyline fill="none" stroke="#0058ad" points="1072.5,-243.5 1072.5,-272.5 "/>
<text text-anchor="middle" x="1103" y="-254.3" font-family="Times,serif" font-size="14.00" fill="#0058ad">a 68 2</text>
<polyline fill="none" stroke="#0058ad" points="1133.5,-243.5 1133.5,-272.5 "/>
<text text-anchor="middle" x="1339.5" y="-254.3" font-family="Times,serif" font-size="14.00" fill="#0058ad">r 67 [5 6 7 12 13 14 18 19 22 23 24 25 26 27 28 29 31]</text>
<polyline fill="none" stroke="#0058ad" points="1545.5,-243.5 1545.5,-272.5 "/>
<text text-anchor="middle" x="1580.5" y="-254.3" font-family="Times,serif" font-size="14.00" fill="#0058ad">r 66 [1]</text>
<polyline fill="none" stroke="#0058ad" points="1615.5,-243.5 1615.5,-272.5 "/>
<text text-anchor="middle" x="1821.5" y="-254.3" font-family="Times,serif" font-size="14.00" fill="#0058ad">r 67 [5 6 7 12 13 14 18 19 22 23 24 25 26 27 28 29 31]</text>
<polyline fill="none" stroke="#0058ad" points="2027.5,-243.5 2027.5,-272.5 "/>
<text text-anchor="middle" x="2069" y="-254.3" font-family="Times,serif" font-size="14.00" fill="#0058ad">r 68 [1 2]</text>
</g>
<!-- T1861 -->
<g id="node7" class="node">
<title>T1861</title>
<polygon fill="none" stroke="#0058ad" points="256.5,-162.5 256.5,-191.5 1852.5,-191.5 1852.5,-162.5 256.5,-162.5"/>
<text text-anchor="middle" x="446.5" y="-173.3" font-family="Times,serif" font-size="14.00" fill="#0058ad">r 65 [1 2 3 4 5 6 7 8 9 10 11 12 13 14 15 16 17 18]</text>
<polyline fill="none" stroke="#0058ad" points="636.5,-162.5 636.5,-191.5 "/>
<text text-anchor="middle" x="667" y="-173.3" font-family="Times,serif" font-size="14.00" fill="#0058ad">a 66 2</text>
<polyline fill="none" stroke="#0058ad" points="697.5,-162.5 697.5,-191.5 "/>
<text text-anchor="middle" x="989" y="-173.3" font-family="Times,serif" font-size="14.00" fill="#0058ad">r 59 [1 2 3 4 5 6 7 9 10 11 12 13 14 15 16 17 18 19 20 21 22 23 8 24 25 26 27]</text>
<polyline fill="none" stroke="#0058ad" points="1280.5,-162.5 1280.5,-191.5 "/>
<text text-anchor="middle" x="1470.5" y="-173.3" font-family="Times,serif" font-size="14.00" fill="#0058ad">r 65 [1 2 3 4 5 6 7 8 9 10 11 12 13 14 15 16 17 18]</text>
<polyline fill="none" stroke="#0058ad" points="1660.5,-162.5 1660.5,-191.5 "/>
<text text-anchor="middle" x="1691" y="-173.3" font-family="Times,serif" font-size="14.00" fill="#0058ad">a 66 3</text>
<polyline fill="none" stroke="#0058ad" points="1721.5,-162.5 1721.5,-191.5 "/>
<text text-anchor="middle" x="1756.5" y="-173.3" font-family="Times,serif" font-size="14.00" fill="#0058ad">a 65 19</text>
<polyline fill="none" stroke="#0058ad" points="1791.5,-162.5 1791.5,-191.5 "/>
<text text-anchor="middle" x="1822" y="-173.3" font-family="Times,serif" font-size="14.00" fill="#0058ad">a 66 4</text>
</g>
<!-- T1823&#45;&gt;T1861 -->
<g id="edge2" class="edge">
<title>T1823:f0&#45;&gt;T1861:f1</title>
<path fill="none" stroke="#5b00c0" d="M625.5,-243C625.5,-217.78 656.33,-219.82 664.52,-201.84"/>
<polygon fill="#5b00c0" stroke="#5b00c0" points="667.96,-202.49 666.5,-192 661.1,-201.11 667.96,-202.49"/>
<text text-anchor="middle" x="667" y="-213.8" font-family="Times,serif" font-size="14.00" fill="#5b00c0">rw</text>
</g>
<!-- T1792 -->
<g id="node3" class="node">
<title>T1792</title>
<polygon fill="none" stroke="#0058ad" points="577.5,-0.5 577.5,-29.5 717.5,-29.5 717.5,-0.5 577.5,-0.5"/>
<text text-anchor="middle" x="612.5" y="-11.3" font-family="Times,serif" font-size="14.00" fill="#0058ad">a 67 19</text>
<polyline fill="none" stroke="#0058ad" points="647.5,-0.5 647.5,-29.5 "/>
<text text-anchor="middle" x="682.5" y="-11.3" font-family="Times,serif" font-size="14.00" fill="#0058ad">a 59 31</text>
</g>
<!-- T1792&#45;&gt;T1803 -->
<g id="edge3" class="edge">
<title>T1792:f0&#45;&gt;T1803:f1</title>
<path fill="none" stroke="#c02700" d="M576.5,-15C-232.64,-15 228.5,-44.6 228.5,-95 228.5,-421 228.5,-421 228.5,-421 228.5,-447.03 240.75,-454.5 243.81,-475.89"/>
<polygon fill="#c02700" stroke="#c02700" points="240.33,-476.26 244.5,-486 247.31,-475.79 240.33,-476.26"/>
<text text-anchor="middle" x="241" y="-254.3" font-family="Times,serif" font-size="14.00" fill="#c02700">ww</text>
</g>
<!-- T1769 -->
<g id="node4" class="node">
<title>T1769</title>
<polygon fill="none" stroke="#0058ad" points="256.5,-81.5 256.5,-110.5 1706.5,-110.5 1706.5,-81.5 256.5,-81.5"/>
<text text-anchor="middle" x="291.5" y="-92.3" font-family="Times,serif" font-size="14.00" fill="#0058ad">r 66 [1]</text>
<polyline fill="none" stroke="#0058ad" points="326.5,-81.5 326.5,-110.5 "/>
<text text-anchor="middle" x="357" y="-92.3" font-family="Times,serif" font-size="14.00" fill="#0058ad">r 67 []</text>
<polyline fill="none" stroke="#0058ad" points="387.5,-81.5 387.5,-110.5 "/>
<text text-anchor="middle" x="418" y="-92.3" font-family="Times,serif" font-size="14.00" fill="#0058ad">r 67 []</text>
<polyline fill="none" stroke="#0058ad" points="448.5,-81.5 448.5,-110.5 "/>
<text text-anchor="middle" x="740" y="-92.3" font-family="Times,serif" font-size="14.00" fill="#0058ad">r 59 [1 2 3 4 5 6 7 9 10 11 12 13 14 15 16 17 18 19 20 21 22 23 8 24 25 26 27]</text>
<polyline fill="none" stroke="#0058ad" points="1031.5,-81.5 1031.5,-110.5 "/>
<text text-anchor="middle" x="1066.5" y="-92.3" font-family="Times,serif" font-size="14.00" fill="#0058ad">a 59 30</text>
<polyline fill="none" stroke="#0058ad" points="1101.5,-81.5 1101.5,-110.5 "/>
<text text-anchor="middle" x="1404" y="-92.3" font-family="Times,serif" font-size="14.00" fill="#0058ad">r 59 [1 2 3 4 5 6 7 9 10 11 12 13 14 15 16 17 18 19 20 21 22 23 8 24 25 26 27 30]</text>
</g>
<!-- T1769&#45;&gt;T1792 -->
<g id="edge4" class="edge">
<title>T1769:f4&#45;&gt;T1792:f1</title>
<path fill="none" stroke="#c02700" d="M1066.5,-81C1066.5,-44.1 795.23,-18.38 728.89,-15.31"/>
<polygon fill="#c02700" stroke="#c02700" points="728.6,-11.8 718.5,-15 728.39,-18.8 728.6,-11.8"/>
<text text-anchor="middle" x="1052" y="-51.8" font-family="Times,serif" font-size="14.00" fill="#c02700">ww</text>
</g>
<!-- T1769&#45;&gt;T1861 -->
<g id="edge5" class="edge">
<title>T1769:f0&#45;&gt;T1861:f1</title>
<path fill="none" stroke="#5b00c0" d="M291.5,-111C291.5,-275.59 650.56,-5.85 665.99,-151.78"/>
<polygon fill="#5b00c0" stroke="#5b00c0" points="662.5,-152.19 666.5,-162 669.5,-151.84 662.5,-152.19"/>
<text text-anchor="middle" x="674" y="-132.8" font-family="Times,serif" font-size="14.00" fill="#5b00c0">rw</text>
</g>
<!-- T1817 -->
<g id="node5" class="node">
<title>T1817</title>
<polygon fill="none" stroke="#0058ad" points="419.5,-324.5 419.5,-353.5 1009.5,-353.5 1009.5,-324.5 419.5,-324.5"/>
<text text-anchor="middle" x="454.5" y="-335.3" font-family="Times,serif" font-size="14.00" fill="#0058ad">a 67 28</text>
<polyline fill="none" stroke="#0058ad" points="489.5,-324.5 489.5,-353.5 "/>
<text text-anchor="middle" x="524.5" y="-335.3" font-family="Times,serif" font-size="14.00" fill="#0058ad">a 67 29</text>
<polyline fill="none" stroke="#0058ad" points="559.5,-324.5 559.5,-353.5 "/>
<text text-anchor="middle" x="754" y="-335.3" font-family="Times,serif" font-size="14.00" fill="#0058ad">r 67 [5 6 7 12 13 14 18 19 22 23 24 25 26 27 28 29]</text>
<polyline fill="none" stroke="#0058ad" points="948.5,-324.5 948.5,-353.5 "/>
<text text-anchor="middle" x="979" y="-335.3" font-family="Times,serif" font-size="14.00" fill="#0058ad">a 68 1</text>
</g>
<!-- T1817&#45;&gt;T1823 -->
<g id="edge6" class="edge">
<title>T1817:f3&#45;&gt;T1823:f2</title>
<path fill="none" stroke="#c02700" d="M1010.5,-339C1057.28,-339 1096.6,-325.45 1101.89,-283.11"/>
<polygon fill="#c02700" stroke="#c02700" points="1105.39,-283.19 1102.5,-273 1098.41,-282.77 1105.39,-283.19"/>
<text text-anchor="middle" x="1112" y="-294.8" font-family="Times,serif" font-size="14.00" fill="#c02700">ww</text>
</g>
<!-- T1807&#45;&gt;T1817 -->
<g id="edge7" class="edge">
<title>T1807:f1&#45;&gt;T1817:f3</title>
<path fill="none" stroke="#5b00c0" d="M748.5,-405C748.5,-303.56 963.54,-448.27 978.66,-364.13"/>
<polygon fill="#5b00c0" stroke="#5b00c0" points="982.17,-364.25 979.5,-354 975.19,-363.68 982.17,-364.25"/>
<text text-anchor="middle" x="984" y="-375.8" font-family="Times,serif" font-size="14.00" fill="#5b00c0">rw</text>
</g>
<!-- T1861&#45;&gt;T1769 -->
<g id="edge8" class="edge">
<title>T1861:f2&#45;&gt;T1769:f4</title>
<path fill="none" stroke="#5b00c0" d="M988.5,-162C988.5,-124.46 1052.56,-147.09 1064.57,-120.84"/>
<polygon fill="#5b00c0" stroke="#5b00c0" points="1068.01,-121.49 1066.5,-111 1061.14,-120.14 1068.01,-121.49"/>
<text text-anchor="middle" x="1066" y="-132.8" font-family="Times,serif" font-size="14.00" fill="#5b00c0">rw</text>
</g>
</g>
</svg>
