<?xml version="1.0" encoding="UTF-8" standalone="no"?>
<!DOCTYPE svg PUBLIC "-//W3C//DTD SVG 1.1//EN"
 "http://www.w3.org/Graphics/SVG/1.1/DTD/svg11.dtd">
<!-- Generated by graphviz version 2.43.0 (0)
 -->
<!-- Title: a_graph Pages: 1 -->
<svg width="1395pt" height="119pt"
 viewBox="0.00 0.00 1395.00 119.00" xmlns="http://www.w3.org/2000/svg" xmlns:xlink="http://www.w3.org/1999/xlink">
<g id="graph0" class="graph" transform="scale(1 1) rotate(0) translate(4 115)">
<title>a_graph</title>
<polygon fill="white" stroke="transparent" points="-4,4 -4,-115 1391,-115 1391,4 -4,4"/>
<!-- T1387 -->
<g id="node1" class="node">
<title>T1387</title>
<polygon fill="none" stroke="#0058ad" points="0,-81.5 0,-110.5 1387,-110.5 1387,-81.5 0,-81.5"/>
<text text-anchor="middle" x="48.5" y="-92.3" font-family="Times,serif" font-size="14.00" fill="#0058ad">r 54 [1 2 3]</text>
<polyline fill="none" stroke="#0058ad" points="97,-81.5 97,-110.5 "/>
<text text-anchor="middle" x="280.5" y="-92.3" font-family="Times,serif" font-size="14.00" fill="#0058ad">r 53 [1 2 3 5 6 7 8 9 10 12 13 14 15 16 17 18 19]</text>
<polyline fill="none" stroke="#0058ad" points="464,-81.5 464,-110.5 "/>
<text text-anchor="middle" x="647.5" y="-92.3" font-family="Times,serif" font-size="14.00" fill="#0058ad">r 53 [1 2 3 5 6 7 8 9 10 12 13 14 15 16 17 18 19]</text>
<polyline fill="none" stroke="#0058ad" points="831,-81.5 831,-110.5 "/>
<text text-anchor="middle" x="866" y="-92.3" font-family="Times,serif" font-size="14.00" fill="#0058ad">a 53 20</text>
<polyline fill="none" stroke="#0058ad" points="901,-81.5 901,-110.5 "/>
<text text-anchor="middle" x="1095.5" y="-92.3" font-family="Times,serif" font-size="14.00" fill="#0058ad">r 53 [1 2 3 5 6 7 8 9 10 12 13 14 15 16 17 18 19 20]</text>
<polyline fill="none" stroke="#0058ad" points="1290,-81.5 1290,-110.5 "/>
<text text-anchor="middle" x="1338.5" y="-92.3" font-family="Times,serif" font-size="14.00" fill="#0058ad">r 52 [1 2 3]</text>
</g>
<!-- T1386 -->
<g id="node2" class="node">
<title>T1386</title>
<polygon fill="none" stroke="#0058ad" points="222,-0.5 222,-29.5 711,-29.5 711,-0.5 222,-0.5"/>
<text text-anchor="middle" x="252.5" y="-11.3" font-family="Times,serif" font-size="14.00" fill="#0058ad">a 54 4</text>
<polyline fill="none" stroke="#0058ad" points="283,-0.5 283,-29.5 "/>
<text text-anchor="middle" x="313.5" y="-11.3" font-family="Times,serif" font-size="14.00" fill="#0058ad">a 54 5</text>
<polyline fill="none" stroke="#0058ad" points="344,-0.5 344,-29.5 "/>
<text text-anchor="middle" x="527.5" y="-11.3" font-family="Times,serif" font-size="14.00" fill="#0058ad">r 53 [1 2 3 5 6 7 8 9 10 12 13 14 15 16 17 18 19]</text>
</g>
<!-- T1387&#45;&gt;T1386 -->
<g id="edge1" class="edge">
<title>T1387:f0&#45;&gt;T1386:f0</title>
<path fill="none" stroke="#5b00c0" d="M48.5,-81C48.5,-43.02 161.3,-18.7 210.3,-15.39"/>
<polygon fill="#5b00c0" stroke="#5b00c0" points="210.64,-18.88 220.5,-15 210.37,-11.88 210.64,-18.88"/>
<text text-anchor="middle" x="88" y="-51.8" font-family="Times,serif" font-size="14.00" fill="#5b00c0">rw</text>
</g>
<!-- T1386&#45;&gt;T1387 -->
<g id="edge2" class="edge">
<title>T1386:f2&#45;&gt;T1387:f3</title>
<path fill="none" stroke="#5b00c0" d="M712.5,-15C746.39,-15 846.16,-38.83 863.81,-71.18"/>
<polygon fill="#5b00c0" stroke="#5b00c0" points="860.49,-72.28 866.5,-81 867.24,-70.43 860.49,-72.28"/>
<text text-anchor="middle" x="865" y="-51.8" font-family="Times,serif" font-size="14.00" fill="#5b00c0">rw</text>
</g>
</g>
</svg>
