<?xml version="1.0" encoding="UTF-8" standalone="no"?>
<!DOCTYPE svg PUBLIC "-//W3C//DTD SVG 1.1//EN"
 "http://www.w3.org/Graphics/SVG/1.1/DTD/svg11.dtd">
<!-- Generated by graphviz version 2.43.0 (0)
 -->
<!-- Title: a_graph Pages: 1 -->
<svg width="1919pt" height="119pt"
 viewBox="0.00 0.00 1919.00 119.00" xmlns="http://www.w3.org/2000/svg" xmlns:xlink="http://www.w3.org/1999/xlink">
<g id="graph0" class="graph" transform="scale(1 1) rotate(0) translate(4 115)">
<title>a_graph</title>
<polygon fill="white" stroke="transparent" points="-4,4 -4,-115 1915,-115 1915,4 -4,4"/>
<!-- T2493 -->
<g id="node1" class="node">
<title>T2493</title>
<polygon fill="none" stroke="#0058ad" points="527,-81.5 527,-110.5 1680,-110.5 1680,-81.5 527,-81.5"/>
<text text-anchor="middle" x="717" y="-92.3" font-family="Times,serif" font-size="14.00" fill="#0058ad">r 93 [1 2 3 4 5 6 7 8 9 10 11 12 13 14 15 16 17 18]</text>
<polyline fill="none" stroke="#0058ad" points="907,-81.5 907,-110.5 "/>
<text text-anchor="middle" x="942" y="-92.3" font-family="Times,serif" font-size="14.00" fill="#0058ad">a 89 25</text>
<polyline fill="none" stroke="#0058ad" points="977,-81.5 977,-110.5 "/>
<text text-anchor="middle" x="1007.5" y="-92.3" font-family="Times,serif" font-size="14.00" fill="#0058ad">r 94 []</text>
<polyline fill="none" stroke="#0058ad" points="1038,-81.5 1038,-110.5 "/>
<text text-anchor="middle" x="1073" y="-92.3" font-family="Times,serif" font-size="14.00" fill="#0058ad">a 89 26</text>
<polyline fill="none" stroke="#0058ad" points="1108,-81.5 1108,-110.5 "/>
<text text-anchor="middle" x="1138.5" y="-92.3" font-family="Times,serif" font-size="14.00" fill="#0058ad">r 94 []</text>
<polyline fill="none" stroke="#0058ad" points="1169,-81.5 1169,-110.5 "/>
<text text-anchor="middle" x="1359" y="-92.3" font-family="Times,serif" font-size="14.00" fill="#0058ad">r 93 [1 2 3 4 5 6 7 8 9 10 11 12 13 14 15 16 17 18]</text>
<polyline fill="none" stroke="#0058ad" points="1549,-81.5 1549,-110.5 "/>
<text text-anchor="middle" x="1584" y="-92.3" font-family="Times,serif" font-size="14.00" fill="#0058ad">a 89 27</text>
<polyline fill="none" stroke="#0058ad" points="1619,-81.5 1619,-110.5 "/>
<text text-anchor="middle" x="1649.5" y="-92.3" font-family="Times,serif" font-size="14.00" fill="#0058ad">r 94 []</text>
</g>
<!-- T2492 -->
<g id="node2" class="node">
<title>T2492</title>
<polygon fill="none" stroke="#0058ad" points="0,-0.5 0,-29.5 1911,-29.5 1911,-0.5 0,-0.5"/>
<text text-anchor="middle" x="190" y="-11.3" font-family="Times,serif" font-size="14.00" fill="#0058ad">r 93 [1 2 3 4 5 6 7 8 9 10 11 12 13 14 15 16 17 18]</text>
<polyline fill="none" stroke="#0058ad" points="380,-0.5 380,-29.5 "/>
<text text-anchor="middle" x="637.5" y="-11.3" font-family="Times,serif" font-size="14.00" fill="#0058ad">r 89 [1 2 3 4 5 8 9 10 11 12 13 6 7 14 15 16 17 18 19 20 21 22 23 24]</text>
<polyline fill="none" stroke="#0058ad" points="895,-0.5 895,-29.5 "/>
<text text-anchor="middle" x="930" y="-11.3" font-family="Times,serif" font-size="14.00" fill="#0058ad">a 93 19</text>
<polyline fill="none" stroke="#0058ad" points="965,-0.5 965,-29.5 "/>
<text text-anchor="middle" x="1166.5" y="-11.3" font-family="Times,serif" font-size="14.00" fill="#0058ad">r 93 [1 2 3 4 5 6 7 8 9 10 11 12 13 14 15 16 17 18 19]</text>
<polyline fill="none" stroke="#0058ad" points="1368,-0.5 1368,-29.5 "/>
<text text-anchor="middle" x="1569.5" y="-11.3" font-family="Times,serif" font-size="14.00" fill="#0058ad">r 93 [1 2 3 4 5 6 7 8 9 10 11 12 13 14 15 16 17 18 19]</text>
<polyline fill="none" stroke="#0058ad" points="1771,-0.5 1771,-29.5 "/>
<text text-anchor="middle" x="1806" y="-11.3" font-family="Times,serif" font-size="14.00" fill="#0058ad">a 93 20</text>
<polyline fill="none" stroke="#0058ad" points="1841,-0.5 1841,-29.5 "/>
<text text-anchor="middle" x="1876" y="-11.3" font-family="Times,serif" font-size="14.00" fill="#0058ad">a 93 21</text>
</g>
<!-- T2493&#45;&gt;T2492 -->
<g id="edge1" class="edge">
<title>T2493:f0&#45;&gt;T2492:f2</title>
<path fill="none" stroke="#5b00c0" d="M716.5,-81C716.5,-37.14 766.95,-58.64 809.5,-48 832.08,-42.36 905.11,-53.14 924.65,-38.84"/>
<polygon fill="#5b00c0" stroke="#5b00c0" points="927.76,-40.45 929.5,-30 921.62,-37.09 927.76,-40.45"/>
<text text-anchor="middle" x="819" y="-51.8" font-family="Times,serif" font-size="14.00" fill="#5b00c0">rw</text>
</g>
<!-- T2492&#45;&gt;T2493 -->
<g id="edge2" class="edge">
<title>T2492:f1&#45;&gt;T2493:f1</title>
<path fill="none" stroke="#5b00c0" d="M637.5,-30C637.5,-51.32 807.56,-43.99 828.5,-48 876.07,-57.1 932.41,-32.79 940.51,-70.65"/>
<polygon fill="#5b00c0" stroke="#5b00c0" points="937.06,-71.38 941.5,-81 944.03,-70.71 937.06,-71.38"/>
<text text-anchor="middle" x="947" y="-51.8" font-family="Times,serif" font-size="14.00" fill="#5b00c0">rw</text>
</g>
</g>
</svg>
