<?xml version="1.0" encoding="UTF-8" standalone="no"?>
<!DOCTYPE svg PUBLIC "-//W3C//DTD SVG 1.1//EN"
 "http://www.w3.org/Graphics/SVG/1.1/DTD/svg11.dtd">
<!-- Generated by graphviz version 2.43.0 (0)
 -->
<!-- Title: a_graph Pages: 1 -->
<svg width="995pt" height="119pt"
 viewBox="0.00 0.00 995.00 119.00" xmlns="http://www.w3.org/2000/svg" xmlns:xlink="http://www.w3.org/1999/xlink">
<g id="graph0" class="graph" transform="scale(1 1) rotate(0) translate(4 115)">
<title>a_graph</title>
<polygon fill="white" stroke="transparent" points="-4,4 -4,-115 991,-115 991,4 -4,4"/>
<!-- T379 -->
<g id="node1" class="node">
<title>T379</title>
<polygon fill="none" stroke="#0058ad" points="78,-81.5 78,-110.5 917,-110.5 917,-81.5 78,-81.5"/>
<text text-anchor="middle" x="178" y="-92.3" font-family="Times,serif" font-size="14.00" fill="#0058ad">r 15 [1 2 3 4 5 6 7 8 9 10]</text>
<polyline fill="none" stroke="#0058ad" points="278,-81.5 278,-110.5 "/>
<text text-anchor="middle" x="378" y="-92.3" font-family="Times,serif" font-size="14.00" fill="#0058ad">r 15 [1 2 3 4 5 6 7 8 9 10]</text>
<polyline fill="none" stroke="#0058ad" points="478,-81.5 478,-110.5 "/>
<text text-anchor="middle" x="578" y="-92.3" font-family="Times,serif" font-size="14.00" fill="#0058ad">r 15 [1 2 3 4 5 6 7 8 9 10]</text>
<polyline fill="none" stroke="#0058ad" points="678,-81.5 678,-110.5 "/>
<text text-anchor="middle" x="708.5" y="-92.3" font-family="Times,serif" font-size="14.00" fill="#0058ad">a 14 3</text>
<polyline fill="none" stroke="#0058ad" points="739,-81.5 739,-110.5 "/>
<text text-anchor="middle" x="828" y="-92.3" font-family="Times,serif" font-size="14.00" fill="#0058ad">r 16 [1 2 3 4 5 6 7 8 9]</text>
</g>
<!-- T378 -->
<g id="node2" class="node">
<title>T378</title>
<polygon fill="none" stroke="#0058ad" points="0,-0.5 0,-29.5 987,-29.5 987,-0.5 0,-0.5"/>
<text text-anchor="middle" x="35" y="-11.3" font-family="Times,serif" font-size="14.00" fill="#0058ad">a 15 11</text>
<polyline fill="none" stroke="#0058ad" points="70,-0.5 70,-29.5 "/>
<text text-anchor="middle" x="181.5" y="-11.3" font-family="Times,serif" font-size="14.00" fill="#0058ad">r 15 [1 2 3 4 5 6 7 8 9 10 11]</text>
<polyline fill="none" stroke="#0058ad" points="293,-0.5 293,-29.5 "/>
<text text-anchor="middle" x="382" y="-11.3" font-family="Times,serif" font-size="14.00" fill="#0058ad">r 16 [1 2 3 4 5 6 7 8 9]</text>
<polyline fill="none" stroke="#0058ad" points="471,-0.5 471,-29.5 "/>
<text text-anchor="middle" x="506" y="-11.3" font-family="Times,serif" font-size="14.00" fill="#0058ad">a 16 10</text>
<polyline fill="none" stroke="#0058ad" points="541,-0.5 541,-29.5 "/>
<text text-anchor="middle" x="652.5" y="-11.3" font-family="Times,serif" font-size="14.00" fill="#0058ad">r 15 [1 2 3 4 5 6 7 8 9 10 11]</text>
<polyline fill="none" stroke="#0058ad" points="764,-0.5 764,-29.5 "/>
<text text-anchor="middle" x="799" y="-11.3" font-family="Times,serif" font-size="14.00" fill="#0058ad">a 15 12</text>
<polyline fill="none" stroke="#0058ad" points="834,-0.5 834,-29.5 "/>
<text text-anchor="middle" x="869" y="-11.3" font-family="Times,serif" font-size="14.00" fill="#0058ad">a 15 13</text>
<polyline fill="none" stroke="#0058ad" points="904,-0.5 904,-29.5 "/>
<text text-anchor="middle" x="945.5" y="-11.3" font-family="Times,serif" font-size="14.00" fill="#0058ad">r 14 [1 2]</text>
</g>
<!-- T379&#45;&gt;T378 -->
<g id="edge1" class="edge">
<title>T379:f0&#45;&gt;T378:f0</title>
<path fill="none" stroke="#5b00c0" d="M76.5,-96C45.13,-96 36.17,-70.57 34.73,-40.06"/>
<polygon fill="#5b00c0" stroke="#5b00c0" points="38.22,-39.92 34.5,-30 31.23,-40.08 38.22,-39.92"/>
<text text-anchor="middle" x="47" y="-51.8" font-family="Times,serif" font-size="14.00" fill="#5b00c0">rw</text>
</g>
<!-- T378&#45;&gt;T379 -->
<g id="edge2" class="edge">
<title>T378:f7&#45;&gt;T379:f3</title>
<path fill="none" stroke="#5b00c0" d="M945.5,-30C945.5,-134.06 724.42,15.82 709.31,-70.88"/>
<polygon fill="#5b00c0" stroke="#5b00c0" points="705.81,-70.75 708.5,-81 712.79,-71.31 705.81,-70.75"/>
<text text-anchor="middle" x="950" y="-51.8" font-family="Times,serif" font-size="14.00" fill="#5b00c0">rw</text>
</g>
</g>
</svg>
