<?xml version="1.0" encoding="UTF-8" standalone="no"?>
<!DOCTYPE svg PUBLIC "-//W3C//DTD SVG 1.1//EN"
 "http://www.w3.org/Graphics/SVG/1.1/DTD/svg11.dtd">
<!-- Generated by graphviz version 2.43.0 (0)
 -->
<!-- Title: a_graph Pages: 1 -->
<svg width="666pt" height="119pt"
 viewBox="0.00 0.00 666.00 119.00" xmlns="http://www.w3.org/2000/svg" xmlns:xlink="http://www.w3.org/1999/xlink">
<g id="graph0" class="graph" transform="scale(1 1) rotate(0) translate(4 115)">
<title>a_graph</title>
<polygon fill="white" stroke="transparent" points="-4,4 -4,-115 662,-115 662,4 -4,4"/>
<!-- T155 -->
<g id="node1" class="node">
<title>T155</title>
<polygon fill="none" stroke="#0058ad" points="38,-81.5 38,-110.5 658,-110.5 658,-81.5 38,-81.5"/>
<text text-anchor="middle" x="68.5" y="-92.3" font-family="Times,serif" font-size="14.00" fill="#0058ad">a 66 2</text>
<polyline fill="none" stroke="#0058ad" points="99,-81.5 99,-110.5 "/>
<text text-anchor="middle" x="140.5" y="-92.3" font-family="Times,serif" font-size="14.00" fill="#0058ad">r 66 [1 2]</text>
<polyline fill="none" stroke="#0058ad" points="182,-81.5 182,-110.5 "/>
<text text-anchor="middle" x="212.5" y="-92.3" font-family="Times,serif" font-size="14.00" fill="#0058ad">r 62 []</text>
<polyline fill="none" stroke="#0058ad" points="243,-81.5 243,-110.5 "/>
<text text-anchor="middle" x="284.5" y="-92.3" font-family="Times,serif" font-size="14.00" fill="#0058ad">r 66 [1 2]</text>
<polyline fill="none" stroke="#0058ad" points="326,-81.5 326,-110.5 "/>
<text text-anchor="middle" x="367.5" y="-92.3" font-family="Times,serif" font-size="14.00" fill="#0058ad">r 66 [1 2]</text>
<polyline fill="none" stroke="#0058ad" points="409,-81.5 409,-110.5 "/>
<text text-anchor="middle" x="450.5" y="-92.3" font-family="Times,serif" font-size="14.00" fill="#0058ad">r 66 [1 2]</text>
<polyline fill="none" stroke="#0058ad" points="492,-81.5 492,-110.5 "/>
<text text-anchor="middle" x="533.5" y="-92.3" font-family="Times,serif" font-size="14.00" fill="#0058ad">r 65 [1 2]</text>
<polyline fill="none" stroke="#0058ad" points="575,-81.5 575,-110.5 "/>
<text text-anchor="middle" x="616.5" y="-92.3" font-family="Times,serif" font-size="14.00" fill="#0058ad">r 66 [1 2]</text>
</g>
<!-- T154 -->
<g id="node2" class="node">
<title>T154</title>
<polygon fill="none" stroke="#0058ad" points="0,-0.5 0,-29.5 332,-29.5 332,-0.5 0,-0.5"/>
<text text-anchor="middle" x="35" y="-11.3" font-family="Times,serif" font-size="14.00" fill="#0058ad">r 66 [1]</text>
<polyline fill="none" stroke="#0058ad" points="70,-0.5 70,-29.5 "/>
<text text-anchor="middle" x="105" y="-11.3" font-family="Times,serif" font-size="14.00" fill="#0058ad">r 66 [1]</text>
<polyline fill="none" stroke="#0058ad" points="140,-0.5 140,-29.5 "/>
<text text-anchor="middle" x="170.5" y="-11.3" font-family="Times,serif" font-size="14.00" fill="#0058ad">r 62 []</text>
<polyline fill="none" stroke="#0058ad" points="201,-0.5 201,-29.5 "/>
<text text-anchor="middle" x="231.5" y="-11.3" font-family="Times,serif" font-size="14.00" fill="#0058ad">a 62 1</text>
<polyline fill="none" stroke="#0058ad" points="262,-0.5 262,-29.5 "/>
<text text-anchor="middle" x="297" y="-11.3" font-family="Times,serif" font-size="14.00" fill="#0058ad">r 62 [1]</text>
</g>
<!-- T155&#45;&gt;T154 -->
<g id="edge1" class="edge">
<title>T155:f2&#45;&gt;T154:f3</title>
<path fill="none" stroke="#5b00c0" d="M212,-81C212,-60.46 226.24,-55.61 230.69,-39.97"/>
<polygon fill="#5b00c0" stroke="#5b00c0" points="234.16,-40.37 232,-30 227.22,-39.46 234.16,-40.37"/>
<text text-anchor="middle" x="236.5" y="-51.8" font-family="Times,serif" font-size="14.00" fill="#5b00c0">rw</text>
</g>
<!-- T154&#45;&gt;T155 -->
<g id="edge2" class="edge">
<title>T154:f0&#45;&gt;T155:f0</title>
<path fill="none" stroke="#5b00c0" d="M35,-30C35,-52.99 58.93,-54.23 66.03,-70.76"/>
<polygon fill="#5b00c0" stroke="#5b00c0" points="62.68,-71.84 68,-81 69.55,-70.52 62.68,-71.84"/>
<text text-anchor="middle" x="70.5" y="-51.8" font-family="Times,serif" font-size="14.00" fill="#5b00c0">rw</text>
</g>
</g>
</svg>
