<?xml version="1.0" encoding="UTF-8" standalone="no"?>
<!DOCTYPE svg PUBLIC "-//W3C//DTD SVG 1.1//EN"
 "http://www.w3.org/Graphics/SVG/1.1/DTD/svg11.dtd">
<!-- Generated by graphviz version 2.43.0 (0)
 -->
<!-- Title: a_graph Pages: 1 -->
<svg width="649pt" height="119pt"
 viewBox="0.00 0.00 649.00 119.00" xmlns="http://www.w3.org/2000/svg" xmlns:xlink="http://www.w3.org/1999/xlink">
<g id="graph0" class="graph" transform="scale(1 1) rotate(0) translate(4 115)">
<title>a_graph</title>
<polygon fill="white" stroke="transparent" points="-4,4 -4,-115 645,-115 645,4 -4,4"/>
<!-- T668 -->
<g id="node1" class="node">
<title>T668</title>
<polygon fill="none" stroke="#0058ad" points="0,-81.5 0,-110.5 641,-110.5 641,-81.5 0,-81.5"/>
<text text-anchor="middle" x="35" y="-92.3" font-family="Times,serif" font-size="14.00" fill="#0058ad">a 282 1</text>
<polyline fill="none" stroke="#0058ad" points="70,-81.5 70,-110.5 "/>
<text text-anchor="middle" x="105" y="-92.3" font-family="Times,serif" font-size="14.00" fill="#0058ad">a 287 2</text>
<polyline fill="none" stroke="#0058ad" points="140,-81.5 140,-110.5 "/>
<text text-anchor="middle" x="175" y="-92.3" font-family="Times,serif" font-size="14.00" fill="#0058ad">r 286 []</text>
<polyline fill="none" stroke="#0058ad" points="210,-81.5 210,-110.5 "/>
<text text-anchor="middle" x="245" y="-92.3" font-family="Times,serif" font-size="14.00" fill="#0058ad">a 287 3</text>
<polyline fill="none" stroke="#0058ad" points="280,-81.5 280,-110.5 "/>
<text text-anchor="middle" x="333" y="-92.3" font-family="Times,serif" font-size="14.00" fill="#0058ad">r 287 [1 2 3]</text>
<polyline fill="none" stroke="#0058ad" points="386,-81.5 386,-110.5 "/>
<text text-anchor="middle" x="425.5" y="-92.3" font-family="Times,serif" font-size="14.00" fill="#0058ad">r 282 [1]</text>
<polyline fill="none" stroke="#0058ad" points="465,-81.5 465,-110.5 "/>
<text text-anchor="middle" x="500" y="-92.3" font-family="Times,serif" font-size="14.00" fill="#0058ad">a 284 3</text>
<polyline fill="none" stroke="#0058ad" points="535,-81.5 535,-110.5 "/>
<text text-anchor="middle" x="588" y="-92.3" font-family="Times,serif" font-size="14.00" fill="#0058ad">r 284 [1 2 3]</text>
</g>
<!-- T669 -->
<g id="node2" class="node">
<title>T669</title>
<polygon fill="none" stroke="#0058ad" points="204.5,-0.5 204.5,-29.5 598.5,-29.5 598.5,-0.5 204.5,-0.5"/>
<text text-anchor="middle" x="250.5" y="-11.3" font-family="Times,serif" font-size="14.00" fill="#0058ad">r 284 [1 2]</text>
<polyline fill="none" stroke="#0058ad" points="296.5,-0.5 296.5,-29.5 "/>
<text text-anchor="middle" x="342.5" y="-11.3" font-family="Times,serif" font-size="14.00" fill="#0058ad">r 284 [1 2]</text>
<polyline fill="none" stroke="#0058ad" points="388.5,-0.5 388.5,-29.5 "/>
<text text-anchor="middle" x="423.5" y="-11.3" font-family="Times,serif" font-size="14.00" fill="#0058ad">a 286 1</text>
<polyline fill="none" stroke="#0058ad" points="458.5,-0.5 458.5,-29.5 "/>
<text text-anchor="middle" x="493.5" y="-11.3" font-family="Times,serif" font-size="14.00" fill="#0058ad">a 286 2</text>
<polyline fill="none" stroke="#0058ad" points="528.5,-0.5 528.5,-29.5 "/>
<text text-anchor="middle" x="563.5" y="-11.3" font-family="Times,serif" font-size="14.00" fill="#0058ad">r 288 []</text>
</g>
<!-- T668&#45;&gt;T669 -->
<g id="edge1" class="edge">
<title>T668:f2&#45;&gt;T669:f2</title>
<path fill="none" stroke="#5b00c0" d="M174.5,-81C174.5,-55.57 376.37,-57.48 416.58,-37.5"/>
<polygon fill="#5b00c0" stroke="#5b00c0" points="419.29,-39.72 423.5,-30 414.15,-34.98 419.29,-39.72"/>
<text text-anchor="middle" x="380" y="-51.8" font-family="Times,serif" font-size="14.00" fill="#5b00c0">rw</text>
</g>
<!-- T669&#45;&gt;T668 -->
<g id="edge2" class="edge">
<title>T669:f0&#45;&gt;T668:f6</title>
<path fill="none" stroke="#5b00c0" d="M250.5,-30C250.5,-46.01 377.84,-44.63 393.5,-48 438.35,-57.66 491.44,-35.26 499.46,-70.69"/>
<polygon fill="#5b00c0" stroke="#5b00c0" points="496.02,-71.4 500.5,-81 502.98,-70.7 496.02,-71.4"/>
<text text-anchor="middle" x="505" y="-51.8" font-family="Times,serif" font-size="14.00" fill="#5b00c0">rw</text>
</g>
</g>
</svg>
