<?xml version="1.0" encoding="UTF-8" standalone="no"?>
<!DOCTYPE svg PUBLIC "-//W3C//DTD SVG 1.1//EN"
 "http://www.w3.org/Graphics/SVG/1.1/DTD/svg11.dtd">
<!-- Generated by graphviz version 2.43.0 (0)
 -->
<!-- Title: a_graph Pages: 1 -->
<svg width="2859pt" height="119pt"
 viewBox="0.00 0.00 2859.00 119.00" xmlns="http://www.w3.org/2000/svg" xmlns:xlink="http://www.w3.org/1999/xlink">
<g id="graph0" class="graph" transform="scale(1 1) rotate(0) translate(4 115)">
<title>a_graph</title>
<polygon fill="white" stroke="transparent" points="-4,4 -4,-115 2855,-115 2855,4 -4,4"/>
<!-- T481 -->
<g id="node1" class="node">
<title>T481</title>
<polygon fill="none" stroke="#0058ad" points="0,-81.5 0,-110.5 2851,-110.5 2851,-81.5 0,-81.5"/>
<text text-anchor="middle" x="122.5" y="-92.3" font-family="Times,serif" font-size="14.00" fill="#0058ad">r 49 [1 2 3 4 5 6 7 8 9 10 11 12]</text>
<polyline fill="none" stroke="#0058ad" points="245,-81.5 245,-110.5 "/>
<text text-anchor="middle" x="592.5" y="-92.3" font-family="Times,serif" font-size="14.00" fill="#0058ad">r 50 [1 2 3 4 5 6 7 8 9 10 11 12 13 14 15 16 17 18 19 20 21 22 23 24 25 26 27 28 29 30 31 32]</text>
<polyline fill="none" stroke="#0058ad" points="940,-81.5 940,-110.5 "/>
<text text-anchor="middle" x="975" y="-92.3" font-family="Times,serif" font-size="14.00" fill="#0058ad">a 49 13</text>
<polyline fill="none" stroke="#0058ad" points="1010,-81.5 1010,-110.5 "/>
<text text-anchor="middle" x="1040.5" y="-92.3" font-family="Times,serif" font-size="14.00" fill="#0058ad">a 52 1</text>
<polyline fill="none" stroke="#0058ad" points="1071,-81.5 1071,-110.5 "/>
<text text-anchor="middle" x="1101.5" y="-92.3" font-family="Times,serif" font-size="14.00" fill="#0058ad">a 52 2</text>
<polyline fill="none" stroke="#0058ad" points="1132,-81.5 1132,-110.5 "/>
<text text-anchor="middle" x="1180.5" y="-92.3" font-family="Times,serif" font-size="14.00" fill="#0058ad">r 51 [1 2 3]</text>
<polyline fill="none" stroke="#0058ad" points="1229,-81.5 1229,-110.5 "/>
<text text-anchor="middle" x="1277.5" y="-92.3" font-family="Times,serif" font-size="14.00" fill="#0058ad">r 51 [1 2 3]</text>
<polyline fill="none" stroke="#0058ad" points="1326,-81.5 1326,-110.5 "/>
<text text-anchor="middle" x="1460" y="-92.3" font-family="Times,serif" font-size="14.00" fill="#0058ad">r 49 [1 2 3 4 5 6 7 8 9 10 11 12 13]</text>
<polyline fill="none" stroke="#0058ad" points="1594,-81.5 1594,-110.5 "/>
<text text-anchor="middle" x="1624.5" y="-92.3" font-family="Times,serif" font-size="14.00" fill="#0058ad">a 52 3</text>
<polyline fill="none" stroke="#0058ad" points="1655,-81.5 1655,-110.5 "/>
<text text-anchor="middle" x="1690" y="-92.3" font-family="Times,serif" font-size="14.00" fill="#0058ad">a 49 14</text>
<polyline fill="none" stroke="#0058ad" points="1725,-81.5 1725,-110.5 "/>
<text text-anchor="middle" x="1773.5" y="-92.3" font-family="Times,serif" font-size="14.00" fill="#0058ad">r 52 [1 2 3]</text>
<polyline fill="none" stroke="#0058ad" points="1822,-81.5 1822,-110.5 "/>
<text text-anchor="middle" x="1852.5" y="-92.3" font-family="Times,serif" font-size="14.00" fill="#0058ad">a 52 4</text>
<polyline fill="none" stroke="#0058ad" points="1883,-81.5 1883,-110.5 "/>
<text text-anchor="middle" x="1938" y="-92.3" font-family="Times,serif" font-size="14.00" fill="#0058ad">r 52 [1 2 3 4]</text>
<polyline fill="none" stroke="#0058ad" points="1993,-81.5 1993,-110.5 "/>
<text text-anchor="middle" x="2041.5" y="-92.3" font-family="Times,serif" font-size="14.00" fill="#0058ad">r 51 [1 2 3]</text>
<polyline fill="none" stroke="#0058ad" points="2090,-81.5 2090,-110.5 "/>
<text text-anchor="middle" x="2125" y="-92.3" font-family="Times,serif" font-size="14.00" fill="#0058ad">a 49 15</text>
<polyline fill="none" stroke="#0058ad" points="2160,-81.5 2160,-110.5 "/>
<text text-anchor="middle" x="2316.5" y="-92.3" font-family="Times,serif" font-size="14.00" fill="#0058ad">r 49 [1 2 3 4 5 6 7 8 9 10 11 12 13 14 15]</text>
<polyline fill="none" stroke="#0058ad" points="2473,-81.5 2473,-110.5 "/>
<text text-anchor="middle" x="2528" y="-92.3" font-family="Times,serif" font-size="14.00" fill="#0058ad">r 52 [1 2 3 4]</text>
<polyline fill="none" stroke="#0058ad" points="2583,-81.5 2583,-110.5 "/>
<text text-anchor="middle" x="2638" y="-92.3" font-family="Times,serif" font-size="14.00" fill="#0058ad">r 52 [1 2 3 4]</text>
<polyline fill="none" stroke="#0058ad" points="2693,-81.5 2693,-110.5 "/>
<text text-anchor="middle" x="2723.5" y="-92.3" font-family="Times,serif" font-size="14.00" fill="#0058ad">a 52 5</text>
<polyline fill="none" stroke="#0058ad" points="2754,-81.5 2754,-110.5 "/>
<text text-anchor="middle" x="2802.5" y="-92.3" font-family="Times,serif" font-size="14.00" fill="#0058ad">r 51 [1 2 3]</text>
</g>
<!-- T480 -->
<g id="node2" class="node">
<title>T480</title>
<polygon fill="none" stroke="#0058ad" points="848.5,-0.5 848.5,-29.5 1276.5,-29.5 1276.5,-0.5 848.5,-0.5"/>
<text text-anchor="middle" x="879" y="-11.3" font-family="Times,serif" font-size="14.00" fill="#0058ad">r 52 []</text>
<polyline fill="none" stroke="#0058ad" points="909.5,-0.5 909.5,-29.5 "/>
<text text-anchor="middle" x="940" y="-11.3" font-family="Times,serif" font-size="14.00" fill="#0058ad">r 52 []</text>
<polyline fill="none" stroke="#0058ad" points="970.5,-0.5 970.5,-29.5 "/>
<text text-anchor="middle" x="1001" y="-11.3" font-family="Times,serif" font-size="14.00" fill="#0058ad">a 51 4</text>
<polyline fill="none" stroke="#0058ad" points="1031.5,-0.5 1031.5,-29.5 "/>
<text text-anchor="middle" x="1154" y="-11.3" font-family="Times,serif" font-size="14.00" fill="#0058ad">r 49 [1 2 3 4 5 6 7 8 9 10 11 12]</text>
</g>
<!-- T481&#45;&gt;T480 -->
<g id="edge1" class="edge">
<title>T481:f5&#45;&gt;T480:f2</title>
<path fill="none" stroke="#5b00c0" d="M1180.5,-81C1180.5,-62.73 1041.45,-53.24 1007.78,-37.09"/>
<polygon fill="#5b00c0" stroke="#5b00c0" points="1010.1,-34.47 1000.5,-30 1005.22,-39.49 1010.1,-34.47"/>
<text text-anchor="middle" x="1141" y="-51.8" font-family="Times,serif" font-size="14.00" fill="#5b00c0">rw</text>
</g>
<!-- T480&#45;&gt;T481 -->
<g id="edge2" class="edge">
<title>T480:f3&#45;&gt;T481:f2</title>
<path fill="none" stroke="#5b00c0" d="M1154.5,-30C1154.5,-58.94 1052.62,-37.9 1025.5,-48 1003.95,-56.02 982.12,-54.73 976.11,-70.85"/>
<polygon fill="#5b00c0" stroke="#5b00c0" points="972.61,-70.57 974.5,-81 979.53,-71.67 972.61,-70.57"/>
<text text-anchor="middle" x="1035" y="-51.8" font-family="Times,serif" font-size="14.00" fill="#5b00c0">rw</text>
</g>
</g>
</svg>
