<?xml version="1.0" encoding="UTF-8" standalone="no"?>
<!DOCTYPE svg PUBLIC "-//W3C//DTD SVG 1.1//EN"
 "http://www.w3.org/Graphics/SVG/1.1/DTD/svg11.dtd">
<!-- Generated by graphviz version 2.43.0 (0)
 -->
<!-- Title: a_graph Pages: 1 -->
<svg width="348pt" height="119pt"
 viewBox="0.00 0.00 348.00 119.00" xmlns="http://www.w3.org/2000/svg" xmlns:xlink="http://www.w3.org/1999/xlink">
<g id="graph0" class="graph" transform="scale(1 1) rotate(0) translate(4 115)">
<title>a_graph</title>
<polygon fill="white" stroke="transparent" points="-4,4 -4,-115 344,-115 344,4 -4,4"/>
<!-- T628 -->
<g id="node1" class="node">
<title>T628</title>
<polygon fill="none" stroke="#0058ad" points="0,-81.5 0,-110.5 275,-110.5 275,-81.5 0,-81.5"/>
<text text-anchor="middle" x="34" y="-92.3" font-family="Times,serif" font-size="14.00" fill="#0058ad">r 25 nil</text>
<polyline fill="none" stroke="#0058ad" points="68,-81.5 68,-110.5 "/>
<text text-anchor="middle" x="105" y="-92.3" font-family="Times,serif" font-size="14.00" fill="#0058ad">w 23 27</text>
<polyline fill="none" stroke="#0058ad" points="142,-81.5 142,-110.5 "/>
<text text-anchor="middle" x="176" y="-92.3" font-family="Times,serif" font-size="14.00" fill="#0058ad">r 26 nil</text>
<polyline fill="none" stroke="#0058ad" points="210,-81.5 210,-110.5 "/>
<text text-anchor="middle" x="242.5" y="-92.3" font-family="Times,serif" font-size="14.00" fill="#0058ad">w 26 1</text>
</g>
<!-- T629 -->
<g id="node2" class="node">
<title>T629</title>
<polygon fill="none" stroke="#0058ad" points="3,-0.5 3,-29.5 340,-29.5 340,-0.5 3,-0.5"/>
<text text-anchor="middle" x="37" y="-11.3" font-family="Times,serif" font-size="14.00" fill="#0058ad">r 26 nil</text>
<polyline fill="none" stroke="#0058ad" points="71,-0.5 71,-29.5 "/>
<text text-anchor="middle" x="105" y="-11.3" font-family="Times,serif" font-size="14.00" fill="#0058ad">r 26 nil</text>
<polyline fill="none" stroke="#0058ad" points="139,-0.5 139,-29.5 "/>
<text text-anchor="middle" x="173" y="-11.3" font-family="Times,serif" font-size="14.00" fill="#0058ad">r 26 nil</text>
<polyline fill="none" stroke="#0058ad" points="207,-0.5 207,-29.5 "/>
<text text-anchor="middle" x="239.5" y="-11.3" font-family="Times,serif" font-size="14.00" fill="#0058ad">w 25 1</text>
<polyline fill="none" stroke="#0058ad" points="272,-0.5 272,-29.5 "/>
<text text-anchor="middle" x="306" y="-11.3" font-family="Times,serif" font-size="14.00" fill="#0058ad">r 26 nil</text>
</g>
<!-- T628&#45;&gt;T629 -->
<g id="edge1" class="edge">
<title>T628:f0&#45;&gt;T629:f3</title>
<path fill="none" stroke="#5b00c0" d="M33.5,-81C33.5,-23.11 103.25,-61.69 159.5,-48 173.75,-44.53 216.87,-46.79 233.17,-38.31"/>
<polygon fill="#5b00c0" stroke="#5b00c0" points="236.22,-40.07 239.5,-30 230.65,-35.83 236.22,-40.07"/>
<text text-anchor="middle" x="169" y="-51.8" font-family="Times,serif" font-size="14.00" fill="#5b00c0">rw</text>
</g>
<!-- T629&#45;&gt;T628 -->
<g id="edge2" class="edge">
<title>T629:f0&#45;&gt;T628:f3</title>
<path fill="none" stroke="#5b00c0" d="M36.5,-30C36.5,-61.81 148.12,-38.57 178.5,-48 205.36,-56.34 234.44,-50.79 241.09,-71.05"/>
<polygon fill="#5b00c0" stroke="#5b00c0" points="237.63,-71.59 242.5,-81 244.57,-70.61 237.63,-71.59"/>
<text text-anchor="middle" x="245" y="-51.8" font-family="Times,serif" font-size="14.00" fill="#5b00c0">rw</text>
</g>
</g>
</svg>
