<?xml version="1.0" encoding="UTF-8" standalone="no"?>
<!DOCTYPE svg PUBLIC "-//W3C//DTD SVG 1.1//EN"
 "http://www.w3.org/Graphics/SVG/1.1/DTD/svg11.dtd">
<!-- Generated by graphviz version 2.43.0 (0)
 -->
<!-- Title: a_graph Pages: 1 -->
<svg width="1469pt" height="119pt"
 viewBox="0.00 0.00 1469.00 119.00" xmlns="http://www.w3.org/2000/svg" xmlns:xlink="http://www.w3.org/1999/xlink">
<g id="graph0" class="graph" transform="scale(1 1) rotate(0) translate(4 115)">
<title>a_graph</title>
<polygon fill="white" stroke="transparent" points="-4,4 -4,-115 1465,-115 1465,4 -4,4"/>
<!-- T1773 -->
<g id="node1" class="node">
<title>T1773</title>
<polygon fill="none" stroke="#0058ad" points="0,-81.5 0,-110.5 1461,-110.5 1461,-81.5 0,-81.5"/>
<text text-anchor="middle" x="269" y="-92.3" font-family="Times,serif" font-size="14.00" fill="#0058ad">r 69 [1 2 3 4 5 6 7 8 9 10 11 12 13 14 15 16 17 18 19 20 21 22 23 24 25]</text>
<polyline fill="none" stroke="#0058ad" points="538,-81.5 538,-110.5 "/>
<text text-anchor="middle" x="573" y="-92.3" font-family="Times,serif" font-size="14.00" fill="#0058ad">a 69 26</text>
<polyline fill="none" stroke="#0058ad" points="608,-81.5 608,-110.5 "/>
<text text-anchor="middle" x="888" y="-92.3" font-family="Times,serif" font-size="14.00" fill="#0058ad">r 69 [1 2 3 4 5 6 7 8 9 10 11 12 13 14 15 16 17 18 19 20 21 22 23 24 25 26]</text>
<polyline fill="none" stroke="#0058ad" points="1168,-81.5 1168,-110.5 "/>
<text text-anchor="middle" x="1203" y="-92.3" font-family="Times,serif" font-size="14.00" fill="#0058ad">a 69 27</text>
<polyline fill="none" stroke="#0058ad" points="1238,-81.5 1238,-110.5 "/>
<text text-anchor="middle" x="1273" y="-92.3" font-family="Times,serif" font-size="14.00" fill="#0058ad">a 69 28</text>
<polyline fill="none" stroke="#0058ad" points="1308,-81.5 1308,-110.5 "/>
<text text-anchor="middle" x="1343" y="-92.3" font-family="Times,serif" font-size="14.00" fill="#0058ad">a 69 29</text>
<polyline fill="none" stroke="#0058ad" points="1378,-81.5 1378,-110.5 "/>
<text text-anchor="middle" x="1419.5" y="-92.3" font-family="Times,serif" font-size="14.00" fill="#0058ad">r 70 [1 2]</text>
</g>
<!-- T1772 -->
<g id="node2" class="node">
<title>T1772</title>
<polygon fill="none" stroke="#0058ad" points="780,-0.5 780,-29.5 1449,-29.5 1449,-0.5 780,-0.5"/>
<text text-anchor="middle" x="810.5" y="-11.3" font-family="Times,serif" font-size="14.00" fill="#0058ad">a 70 3</text>
<polyline fill="none" stroke="#0058ad" points="841,-0.5 841,-29.5 "/>
<text text-anchor="middle" x="876" y="-11.3" font-family="Times,serif" font-size="14.00" fill="#0058ad">a 68 12</text>
<polyline fill="none" stroke="#0058ad" points="911,-0.5 911,-29.5 "/>
<text text-anchor="middle" x="1180" y="-11.3" font-family="Times,serif" font-size="14.00" fill="#0058ad">r 69 [1 2 3 4 5 6 7 8 9 10 11 12 13 14 15 16 17 18 19 20 21 22 23 24 25]</text>
</g>
<!-- T1773&#45;&gt;T1772 -->
<g id="edge1" class="edge">
<title>T1773:f6&#45;&gt;T1772:f0</title>
<path fill="none" stroke="#5b00c0" d="M1419.5,-81C1419.5,51.23 842.19,-154.42 811.75,-40.01"/>
<polygon fill="#5b00c0" stroke="#5b00c0" points="815.21,-39.49 810.5,-30 808.26,-40.36 815.21,-39.49"/>
<text text-anchor="middle" x="1422" y="-51.8" font-family="Times,serif" font-size="14.00" fill="#5b00c0">rw</text>
</g>
<!-- T1772&#45;&gt;T1773 -->
<g id="edge2" class="edge">
<title>T1772:f2&#45;&gt;T1773:f1</title>
<path fill="none" stroke="#5b00c0" d="M1180.5,-30C1180.5,-51.52 814.92,-45.91 793.5,-48 698.23,-57.3 581.3,12.93 572.97,-70.91"/>
<polygon fill="#5b00c0" stroke="#5b00c0" points="569.47,-70.85 572.5,-81 576.46,-71.17 569.47,-70.85"/>
<text text-anchor="middle" x="803" y="-51.8" font-family="Times,serif" font-size="14.00" fill="#5b00c0">rw</text>
</g>
</g>
</svg>
