<?xml version="1.0" encoding="UTF-8" standalone="no"?>
<!DOCTYPE svg PUBLIC "-//W3C//DTD SVG 1.1//EN"
 "http://www.w3.org/Graphics/SVG/1.1/DTD/svg11.dtd">
<!-- Generated by graphviz version 2.43.0 (0)
 -->
<!-- Title: a_graph Pages: 1 -->
<svg width="1999pt" height="119pt"
 viewBox="0.00 0.00 1998.50 119.00" xmlns="http://www.w3.org/2000/svg" xmlns:xlink="http://www.w3.org/1999/xlink">
<g id="graph0" class="graph" transform="scale(1 1) rotate(0) translate(4 115)">
<title>a_graph</title>
<polygon fill="white" stroke="transparent" points="-4,4 -4,-115 1994.5,-115 1994.5,4 -4,4"/>
<!-- T758 -->
<g id="node1" class="node">
<title>T758</title>
<polygon fill="none" stroke="#0058ad" points="584.5,-81.5 584.5,-110.5 1990.5,-110.5 1990.5,-81.5 584.5,-81.5"/>
<text text-anchor="middle" x="615" y="-92.3" font-family="Times,serif" font-size="14.00" fill="#0058ad">a 30 4</text>
<polyline fill="none" stroke="#0058ad" points="645.5,-81.5 645.5,-110.5 "/>
<text text-anchor="middle" x="680.5" y="-92.3" font-family="Times,serif" font-size="14.00" fill="#0058ad">a 23 21</text>
<polyline fill="none" stroke="#0058ad" points="715.5,-81.5 715.5,-110.5 "/>
<text text-anchor="middle" x="928" y="-92.3" font-family="Times,serif" font-size="14.00" fill="#0058ad">r 29 [1 2 3 4 5 6 7 8 9 10 11 12 13 14 15 16 17 18 19 20]</text>
<polyline fill="none" stroke="#0058ad" points="1140.5,-81.5 1140.5,-110.5 "/>
<text text-anchor="middle" x="1353" y="-92.3" font-family="Times,serif" font-size="14.00" fill="#0058ad">r 29 [1 2 3 4 5 6 7 8 9 10 11 12 13 14 15 16 17 18 19 20]</text>
<polyline fill="none" stroke="#0058ad" points="1565.5,-81.5 1565.5,-110.5 "/>
<text text-anchor="middle" x="1778" y="-92.3" font-family="Times,serif" font-size="14.00" fill="#0058ad">r 29 [1 2 3 4 5 6 7 8 9 10 11 12 13 14 15 16 17 18 19 20]</text>
</g>
<!-- T759 -->
<g id="node2" class="node">
<title>T759</title>
<polygon fill="none" stroke="#0058ad" points="0,-0.5 0,-29.5 1355,-29.5 1355,-0.5 0,-0.5"/>
<text text-anchor="middle" x="212.5" y="-11.3" font-family="Times,serif" font-size="14.00" fill="#0058ad">r 29 [1 2 3 4 5 6 7 8 9 10 11 12 13 14 15 16 17 18 19 20]</text>
<polyline fill="none" stroke="#0058ad" points="425,-0.5 425,-29.5 "/>
<text text-anchor="middle" x="460" y="-11.3" font-family="Times,serif" font-size="14.00" fill="#0058ad">a 29 21</text>
<polyline fill="none" stroke="#0058ad" points="495,-0.5 495,-29.5 "/>
<text text-anchor="middle" x="719" y="-11.3" font-family="Times,serif" font-size="14.00" fill="#0058ad">r 29 [1 2 3 4 5 6 7 8 9 10 11 12 13 14 15 16 17 18 19 20 21]</text>
<polyline fill="none" stroke="#0058ad" points="943,-0.5 943,-29.5 "/>
<text text-anchor="middle" x="1149" y="-11.3" font-family="Times,serif" font-size="14.00" fill="#0058ad">r 23 [1 2 3 4 5 6 8 9 10 11 12 13 14 15 16 17 18 19 20]</text>
</g>
<!-- T758&#45;&gt;T759 -->
<g id="edge1" class="edge">
<title>T758:f2&#45;&gt;T759:f1</title>
<path fill="none" stroke="#5b00c0" d="M927.5,-81C927.5,-3.16 832.73,-57.72 755.5,-48 740.91,-46.16 516.54,-46.39 468.51,-34.74"/>
<polygon fill="#5b00c0" stroke="#5b00c0" points="469.98,-31.56 459.5,-30 466.72,-37.76 469.98,-31.56"/>
<text text-anchor="middle" x="935" y="-51.8" font-family="Times,serif" font-size="14.00" fill="#5b00c0">rw</text>
</g>
<!-- T759&#45;&gt;T758 -->
<g id="edge2" class="edge">
<title>T759:f3&#45;&gt;T758:f1</title>
<path fill="none" stroke="#5b00c0" d="M1149.5,-30C1149.5,-53.19 754.62,-41.05 732.5,-48 710.26,-54.98 688.19,-54.15 682.13,-70.66"/>
<polygon fill="#5b00c0" stroke="#5b00c0" points="678.6,-70.58 680.5,-81 685.51,-71.67 678.6,-70.58"/>
<text text-anchor="middle" x="742" y="-51.8" font-family="Times,serif" font-size="14.00" fill="#5b00c0">rw</text>
</g>
</g>
</svg>
