<?xml version="1.0" encoding="UTF-8" standalone="no"?>
<!DOCTYPE svg PUBLIC "-//W3C//DTD SVG 1.1//EN"
 "http://www.w3.org/Graphics/SVG/1.1/DTD/svg11.dtd">
<!-- Generated by graphviz version 2.43.0 (0)
 -->
<!-- Title: a_graph Pages: 1 -->
<svg width="1092pt" height="119pt"
 viewBox="0.00 0.00 1092.00 119.00" xmlns="http://www.w3.org/2000/svg" xmlns:xlink="http://www.w3.org/1999/xlink">
<g id="graph0" class="graph" transform="scale(1 1) rotate(0) translate(4 115)">
<title>a_graph</title>
<polygon fill="white" stroke="transparent" points="-4,4 -4,-115 1088,-115 1088,4 -4,4"/>
<!-- T789 -->
<g id="node1" class="node">
<title>T789</title>
<polygon fill="none" stroke="#0058ad" points="0,-81.5 0,-110.5 1084,-110.5 1084,-81.5 0,-81.5"/>
<text text-anchor="middle" x="35" y="-92.3" font-family="Times,serif" font-size="14.00" fill="#0058ad">a 23 25</text>
<polyline fill="none" stroke="#0058ad" points="70,-81.5 70,-110.5 "/>
<text text-anchor="middle" x="204" y="-92.3" font-family="Times,serif" font-size="14.00" fill="#0058ad">r 30 [1 2 3 4 5 6 7 8 9 10 11 12 14]</text>
<polyline fill="none" stroke="#0058ad" points="338,-81.5 338,-110.5 "/>
<text text-anchor="middle" x="472" y="-92.3" font-family="Times,serif" font-size="14.00" fill="#0058ad">r 30 [1 2 3 4 5 6 7 8 9 10 11 12 14]</text>
<polyline fill="none" stroke="#0058ad" points="606,-81.5 606,-110.5 "/>
<text text-anchor="middle" x="641" y="-92.3" font-family="Times,serif" font-size="14.00" fill="#0058ad">a 31 11</text>
<polyline fill="none" stroke="#0058ad" points="676,-81.5 676,-110.5 "/>
<text text-anchor="middle" x="810" y="-92.3" font-family="Times,serif" font-size="14.00" fill="#0058ad">r 30 [1 2 3 4 5 6 7 8 9 10 11 12 14]</text>
<polyline fill="none" stroke="#0058ad" points="944,-81.5 944,-110.5 "/>
<text text-anchor="middle" x="979" y="-92.3" font-family="Times,serif" font-size="14.00" fill="#0058ad">a 23 26</text>
<polyline fill="none" stroke="#0058ad" points="1014,-81.5 1014,-110.5 "/>
<text text-anchor="middle" x="1049" y="-92.3" font-family="Times,serif" font-size="14.00" fill="#0058ad">a 31 12</text>
</g>
<!-- T788 -->
<g id="node2" class="node">
<title>T788</title>
<polygon fill="none" stroke="#0058ad" points="285,-0.5 285,-29.5 515,-29.5 515,-0.5 285,-0.5"/>
<text text-anchor="middle" x="365" y="-11.3" font-family="Times,serif" font-size="14.00" fill="#0058ad">r 31 [1 2 3 4 8 9 10]</text>
<polyline fill="none" stroke="#0058ad" points="445,-0.5 445,-29.5 "/>
<text text-anchor="middle" x="480" y="-11.3" font-family="Times,serif" font-size="14.00" fill="#0058ad">a 30 15</text>
</g>
<!-- T789&#45;&gt;T788 -->
<g id="edge1" class="edge">
<title>T789:f1&#45;&gt;T788:f1</title>
<path fill="none" stroke="#5b00c0" d="M204,-81C204,40.09 464.07,-143.39 479.3,-40.15"/>
<polygon fill="#5b00c0" stroke="#5b00c0" points="482.81,-40.22 480,-30 475.82,-39.74 482.81,-40.22"/>
<text text-anchor="middle" x="486.5" y="-51.8" font-family="Times,serif" font-size="14.00" fill="#5b00c0">rw</text>
</g>
<!-- T788&#45;&gt;T789 -->
<g id="edge2" class="edge">
<title>T788:f0&#45;&gt;T789:f3</title>
<path fill="none" stroke="#5b00c0" d="M365,-30C365,-45.13 485.12,-45.27 500,-48 559.6,-58.92 631.94,-21.49 640.22,-70.76"/>
<polygon fill="#5b00c0" stroke="#5b00c0" points="636.75,-71.3 641,-81 643.73,-70.76 636.75,-71.3"/>
<text text-anchor="middle" x="646.5" y="-51.8" font-family="Times,serif" font-size="14.00" fill="#5b00c0">rw</text>
</g>
</g>
</svg>
