<?xml version="1.0" encoding="UTF-8" standalone="no"?>
<!DOCTYPE svg PUBLIC "-//W3C//DTD SVG 1.1//EN"
 "http://www.w3.org/Graphics/SVG/1.1/DTD/svg11.dtd">
<!-- Generated by graphviz version 2.43.0 (0)
 -->
<!-- Title: a_graph Pages: 1 -->
<svg width="1350pt" height="119pt"
 viewBox="0.00 0.00 1350.00 119.00" xmlns="http://www.w3.org/2000/svg" xmlns:xlink="http://www.w3.org/1999/xlink">
<g id="graph0" class="graph" transform="scale(1 1) rotate(0) translate(4 115)">
<title>a_graph</title>
<polygon fill="white" stroke="transparent" points="-4,4 -4,-115 1346,-115 1346,4 -4,4"/>
<!-- T706 -->
<g id="node1" class="node">
<title>T706</title>
<polygon fill="none" stroke="#0058ad" points="133.5,-81.5 133.5,-110.5 998.5,-110.5 998.5,-81.5 133.5,-81.5"/>
<text text-anchor="middle" x="267.5" y="-92.3" font-family="Times,serif" font-size="14.00" fill="#0058ad">r 29 [1 2 3 4 5 6 7 8 9 10 11 12 13]</text>
<polyline fill="none" stroke="#0058ad" points="401.5,-81.5 401.5,-110.5 "/>
<text text-anchor="middle" x="535.5" y="-92.3" font-family="Times,serif" font-size="14.00" fill="#0058ad">r 29 [1 2 3 4 5 6 7 8 9 10 11 12 13]</text>
<polyline fill="none" stroke="#0058ad" points="669.5,-81.5 669.5,-110.5 "/>
<text text-anchor="middle" x="803.5" y="-92.3" font-family="Times,serif" font-size="14.00" fill="#0058ad">r 29 [1 2 3 4 5 6 7 8 9 10 11 12 13]</text>
<polyline fill="none" stroke="#0058ad" points="937.5,-81.5 937.5,-110.5 "/>
<text text-anchor="middle" x="968" y="-92.3" font-family="Times,serif" font-size="14.00" fill="#0058ad">a 30 2</text>
</g>
<!-- T707 -->
<g id="node2" class="node">
<title>T707</title>
<polygon fill="none" stroke="#0058ad" points="0,-0.5 0,-29.5 1342,-29.5 1342,-0.5 0,-0.5"/>
<text text-anchor="middle" x="35" y="-11.3" font-family="Times,serif" font-size="14.00" fill="#0058ad">a 28 19</text>
<polyline fill="none" stroke="#0058ad" points="70,-0.5 70,-29.5 "/>
<text text-anchor="middle" x="105" y="-11.3" font-family="Times,serif" font-size="14.00" fill="#0058ad">a 29 14</text>
<polyline fill="none" stroke="#0058ad" points="140,-0.5 140,-29.5 "/>
<text text-anchor="middle" x="285" y="-11.3" font-family="Times,serif" font-size="14.00" fill="#0058ad">r 29 [1 2 3 4 5 6 7 8 9 10 11 12 13 14]</text>
<polyline fill="none" stroke="#0058ad" points="430,-0.5 430,-29.5 "/>
<text text-anchor="middle" x="465" y="-11.3" font-family="Times,serif" font-size="14.00" fill="#0058ad">a 29 15</text>
<polyline fill="none" stroke="#0058ad" points="500,-0.5 500,-29.5 "/>
<text text-anchor="middle" x="656.5" y="-11.3" font-family="Times,serif" font-size="14.00" fill="#0058ad">r 29 [1 2 3 4 5 6 7 8 9 10 11 12 13 14 15]</text>
<polyline fill="none" stroke="#0058ad" points="813,-0.5 813,-29.5 "/>
<text text-anchor="middle" x="1007.5" y="-11.3" font-family="Times,serif" font-size="14.00" fill="#0058ad">r 28 [1 2 3 4 5 7 8 9 10 11 12 13 14 15 16 17 18 19]</text>
<polyline fill="none" stroke="#0058ad" points="1202,-0.5 1202,-29.5 "/>
<text text-anchor="middle" x="1237" y="-11.3" font-family="Times,serif" font-size="14.00" fill="#0058ad">r 30 [1]</text>
<polyline fill="none" stroke="#0058ad" points="1272,-0.5 1272,-29.5 "/>
<text text-anchor="middle" x="1307" y="-11.3" font-family="Times,serif" font-size="14.00" fill="#0058ad">a 29 16</text>
</g>
<!-- T706&#45;&gt;T707 -->
<g id="edge1" class="edge">
<title>T706:f0&#45;&gt;T707:f1</title>
<path fill="none" stroke="#5b00c0" d="M132,-96C103.65,-96 104.41,-68.55 104.89,-40.07"/>
<polygon fill="#5b00c0" stroke="#5b00c0" points="108.39,-40.04 105,-30 101.39,-39.96 108.39,-40.04"/>
<text text-anchor="middle" x="114.5" y="-51.8" font-family="Times,serif" font-size="14.00" fill="#5b00c0">rw</text>
</g>
<!-- T707&#45;&gt;T706 -->
<g id="edge2" class="edge">
<title>T707:f6&#45;&gt;T706:f3</title>
<path fill="none" stroke="#5b00c0" d="M1237,-30C1237,-81.68 1074.07,-94.63 1010.06,-95.89"/>
<polygon fill="#5b00c0" stroke="#5b00c0" points="1009.96,-92.39 1000,-96 1010.04,-99.39 1009.96,-92.39"/>
<text text-anchor="middle" x="1237.5" y="-51.8" font-family="Times,serif" font-size="14.00" fill="#5b00c0">rw</text>
</g>
</g>
</svg>
