<?xml version="1.0" encoding="UTF-8" standalone="no"?>
<!DOCTYPE svg PUBLIC "-//W3C//DTD SVG 1.1//EN"
 "http://www.w3.org/Graphics/SVG/1.1/DTD/svg11.dtd">
<!-- Generated by graphviz version 2.43.0 (0)
 -->
<!-- Title: a_graph Pages: 1 -->
<svg width="2856pt" height="119pt"
 viewBox="0.00 0.00 2856.00 119.00" xmlns="http://www.w3.org/2000/svg" xmlns:xlink="http://www.w3.org/1999/xlink">
<g id="graph0" class="graph" transform="scale(1 1) rotate(0) translate(4 115)">
<title>a_graph</title>
<polygon fill="white" stroke="transparent" points="-4,4 -4,-115 2852,-115 2852,4 -4,4"/>
<!-- T1706 -->
<g id="node1" class="node">
<title>T1706</title>
<polygon fill="none" stroke="#0058ad" points="226.5,-81.5 226.5,-110.5 2025.5,-110.5 2025.5,-81.5 226.5,-81.5"/>
<text text-anchor="middle" x="518" y="-92.3" font-family="Times,serif" font-size="14.00" fill="#0058ad">r 70 [1 2 3 4 5 6 7 8 9 10 11 12 13 14 15 16 17 18 19 20 21 22 23 24 25 26 27]</text>
<polyline fill="none" stroke="#0058ad" points="809.5,-81.5 809.5,-110.5 "/>
<text text-anchor="middle" x="1101" y="-92.3" font-family="Times,serif" font-size="14.00" fill="#0058ad">r 70 [1 2 3 4 5 6 7 8 9 10 11 12 13 14 15 16 17 18 19 20 21 22 23 24 25 26 27]</text>
<polyline fill="none" stroke="#0058ad" points="1392.5,-81.5 1392.5,-110.5 "/>
<text text-anchor="middle" x="1639" y="-92.3" font-family="Times,serif" font-size="14.00" fill="#0058ad">r 68 [1 2 3 4 5 6 7 8 9 10 11 12 13 14 15 17 18 19 20 21 22 23 24]</text>
<polyline fill="none" stroke="#0058ad" points="1885.5,-81.5 1885.5,-110.5 "/>
<text text-anchor="middle" x="1920.5" y="-92.3" font-family="Times,serif" font-size="14.00" fill="#0058ad">a 71 12</text>
<polyline fill="none" stroke="#0058ad" points="1955.5,-81.5 1955.5,-110.5 "/>
<text text-anchor="middle" x="1990.5" y="-92.3" font-family="Times,serif" font-size="14.00" fill="#0058ad">a 71 13</text>
</g>
<!-- T1707 -->
<g id="node2" class="node">
<title>T1707</title>
<polygon fill="none" stroke="#0058ad" points="0,-0.5 0,-29.5 2848,-29.5 2848,-0.5 0,-0.5"/>
<text text-anchor="middle" x="291.5" y="-11.3" font-family="Times,serif" font-size="14.00" fill="#0058ad">r 70 [1 2 3 4 5 6 7 8 9 10 11 12 13 14 15 16 17 18 19 20 21 22 23 24 25 26 27]</text>
<polyline fill="none" stroke="#0058ad" points="583,-0.5 583,-29.5 "/>
<text text-anchor="middle" x="694.5" y="-11.3" font-family="Times,serif" font-size="14.00" fill="#0058ad">r 71 [1 2 3 4 5 6 7 8 9 10 11]</text>
<polyline fill="none" stroke="#0058ad" points="806,-0.5 806,-29.5 "/>
<text text-anchor="middle" x="917.5" y="-11.3" font-family="Times,serif" font-size="14.00" fill="#0058ad">r 71 [1 2 3 4 5 6 7 8 9 10 11]</text>
<polyline fill="none" stroke="#0058ad" points="1029,-0.5 1029,-29.5 "/>
<text text-anchor="middle" x="1064" y="-11.3" font-family="Times,serif" font-size="14.00" fill="#0058ad">a 70 28</text>
<polyline fill="none" stroke="#0058ad" points="1099,-0.5 1099,-29.5 "/>
<text text-anchor="middle" x="1210.5" y="-11.3" font-family="Times,serif" font-size="14.00" fill="#0058ad">r 71 [1 2 3 4 5 6 7 8 9 10 11]</text>
<polyline fill="none" stroke="#0058ad" points="1322,-0.5 1322,-29.5 "/>
<text text-anchor="middle" x="1433.5" y="-11.3" font-family="Times,serif" font-size="14.00" fill="#0058ad">r 71 [1 2 3 4 5 6 7 8 9 10 11]</text>
<polyline fill="none" stroke="#0058ad" points="1545,-0.5 1545,-29.5 "/>
<text text-anchor="middle" x="1847.5" y="-11.3" font-family="Times,serif" font-size="14.00" fill="#0058ad">r 70 [1 2 3 4 5 6 7 8 9 10 11 12 13 14 15 16 17 18 19 20 21 22 23 24 25 26 27 28]</text>
<polyline fill="none" stroke="#0058ad" points="2150,-0.5 2150,-29.5 "/>
<text text-anchor="middle" x="2185" y="-11.3" font-family="Times,serif" font-size="14.00" fill="#0058ad">a 70 29</text>
<polyline fill="none" stroke="#0058ad" points="2220,-0.5 2220,-29.5 "/>
<text text-anchor="middle" x="2534" y="-11.3" font-family="Times,serif" font-size="14.00" fill="#0058ad">r 70 [1 2 3 4 5 6 7 8 9 10 11 12 13 14 15 16 17 18 19 20 21 22 23 24 25 26 27 28 29]</text>
</g>
<!-- T1706&#45;&gt;T1707 -->
<g id="edge1" class="edge">
<title>T1706:f0&#45;&gt;T1707:f3</title>
<path fill="none" stroke="#5b00c0" d="M518,-81C518,159.15 1048.12,-261.08 1063.65,-40.28"/>
<polygon fill="#5b00c0" stroke="#5b00c0" points="1067.16,-40.11 1064,-30 1060.16,-39.88 1067.16,-40.11"/>
<text text-anchor="middle" x="1071.5" y="-51.8" font-family="Times,serif" font-size="14.00" fill="#5b00c0">rw</text>
</g>
<!-- T1707&#45;&gt;T1706 -->
<g id="edge2" class="edge">
<title>T1707:f1&#45;&gt;T1706:f3</title>
<path fill="none" stroke="#5b00c0" d="M694,-30C694,-38.07 1792.73,-68.9 1910.76,-79.41"/>
<polygon fill="#5b00c0" stroke="#5b00c0" points="1910.58,-82.93 1921,-81 1911.65,-76.01 1910.58,-82.93"/>
<text text-anchor="middle" x="1498.5" y="-51.8" font-family="Times,serif" font-size="14.00" fill="#5b00c0">rw</text>
</g>
</g>
</svg>
