<?xml version="1.0" encoding="UTF-8" standalone="no"?>
<!DOCTYPE svg PUBLIC "-//W3C//DTD SVG 1.1//EN"
 "http://www.w3.org/Graphics/SVG/1.1/DTD/svg11.dtd">
<!-- Generated by graphviz version 2.43.0 (0)
 -->
<!-- Title: a_graph Pages: 1 -->
<svg width="687pt" height="119pt"
 viewBox="0.00 0.00 687.00 119.00" xmlns="http://www.w3.org/2000/svg" xmlns:xlink="http://www.w3.org/1999/xlink">
<g id="graph0" class="graph" transform="scale(1 1) rotate(0) translate(4 115)">
<title>a_graph</title>
<polygon fill="white" stroke="transparent" points="-4,4 -4,-115 683,-115 683,4 -4,4"/>
<!-- T1674 -->
<g id="node1" class="node">
<title>T1674</title>
<polygon fill="none" stroke="#0058ad" points="0,-81.5 0,-110.5 679,-110.5 679,-81.5 0,-81.5"/>
<text text-anchor="middle" x="35" y="-92.3" font-family="Times,serif" font-size="14.00" fill="#0058ad">r 692 []</text>
<polyline fill="none" stroke="#0058ad" points="70,-81.5 70,-110.5 "/>
<text text-anchor="middle" x="105" y="-92.3" font-family="Times,serif" font-size="14.00" fill="#0058ad">a 692 1</text>
<polyline fill="none" stroke="#0058ad" points="140,-81.5 140,-110.5 "/>
<text text-anchor="middle" x="186" y="-92.3" font-family="Times,serif" font-size="14.00" fill="#0058ad">r 695 [2 3]</text>
<polyline fill="none" stroke="#0058ad" points="232,-81.5 232,-110.5 "/>
<text text-anchor="middle" x="267" y="-92.3" font-family="Times,serif" font-size="14.00" fill="#0058ad">a 695 4</text>
<polyline fill="none" stroke="#0058ad" points="302,-81.5 302,-110.5 "/>
<text text-anchor="middle" x="337" y="-92.3" font-family="Times,serif" font-size="14.00" fill="#0058ad">a 695 5</text>
<polyline fill="none" stroke="#0058ad" points="372,-81.5 372,-110.5 "/>
<text text-anchor="middle" x="407" y="-92.3" font-family="Times,serif" font-size="14.00" fill="#0058ad">a 685 3</text>
<polyline fill="none" stroke="#0058ad" points="442,-81.5 442,-110.5 "/>
<text text-anchor="middle" x="481.5" y="-92.3" font-family="Times,serif" font-size="14.00" fill="#0058ad">r 692 [1]</text>
<polyline fill="none" stroke="#0058ad" points="521,-81.5 521,-110.5 "/>
<text text-anchor="middle" x="560.5" y="-92.3" font-family="Times,serif" font-size="14.00" fill="#0058ad">r 679 [1]</text>
<polyline fill="none" stroke="#0058ad" points="600,-81.5 600,-110.5 "/>
<text text-anchor="middle" x="639.5" y="-92.3" font-family="Times,serif" font-size="14.00" fill="#0058ad">r 692 [1]</text>
</g>
<!-- T1678 -->
<g id="node2" class="node">
<title>T1678</title>
<polygon fill="none" stroke="#0058ad" points="89.5,-0.5 89.5,-29.5 597.5,-29.5 597.5,-0.5 89.5,-0.5"/>
<text text-anchor="middle" x="124.5" y="-11.3" font-family="Times,serif" font-size="14.00" fill="#0058ad">r 694 []</text>
<polyline fill="none" stroke="#0058ad" points="159.5,-0.5 159.5,-29.5 "/>
<text text-anchor="middle" x="194.5" y="-11.3" font-family="Times,serif" font-size="14.00" fill="#0058ad">a 679 2</text>
<polyline fill="none" stroke="#0058ad" points="229.5,-0.5 229.5,-29.5 "/>
<text text-anchor="middle" x="264.5" y="-11.3" font-family="Times,serif" font-size="14.00" fill="#0058ad">r 692 []</text>
<polyline fill="none" stroke="#0058ad" points="299.5,-0.5 299.5,-29.5 "/>
<text text-anchor="middle" x="334.5" y="-11.3" font-family="Times,serif" font-size="14.00" fill="#0058ad">a 696 1</text>
<polyline fill="none" stroke="#0058ad" points="369.5,-0.5 369.5,-29.5 "/>
<text text-anchor="middle" x="409" y="-11.3" font-family="Times,serif" font-size="14.00" fill="#0058ad">r 696 [1]</text>
<polyline fill="none" stroke="#0058ad" points="448.5,-0.5 448.5,-29.5 "/>
<text text-anchor="middle" x="483.5" y="-11.3" font-family="Times,serif" font-size="14.00" fill="#0058ad">a 679 3</text>
<polyline fill="none" stroke="#0058ad" points="518.5,-0.5 518.5,-29.5 "/>
<text text-anchor="middle" x="558" y="-11.3" font-family="Times,serif" font-size="14.00" fill="#0058ad">r 696 [1]</text>
</g>
<!-- T1674&#45;&gt;T1678 -->
<g id="edge1" class="edge">
<title>T1674:f7&#45;&gt;T1678:f1</title>
<path fill="none" stroke="#5b00c0" d="M560.5,-81C560.5,-43.07 248.13,-66.74 200.55,-38.19"/>
<polygon fill="#5b00c0" stroke="#5b00c0" points="203.26,-35.97 194.5,-30 197.62,-40.12 203.26,-35.97"/>
<text text-anchor="middle" x="524" y="-51.8" font-family="Times,serif" font-size="14.00" fill="#5b00c0">rw</text>
</g>
<!-- T1678&#45;&gt;T1674 -->
<g id="edge2" class="edge">
<title>T1678:f2&#45;&gt;T1674:f1</title>
<path fill="none" stroke="#5b00c0" d="M264.5,-30C264.5,-38.02 146.34,-63.03 113.1,-75.83"/>
<polygon fill="#5b00c0" stroke="#5b00c0" points="111.27,-72.85 104.5,-81 114.87,-78.85 111.27,-72.85"/>
<text text-anchor="middle" x="222" y="-51.8" font-family="Times,serif" font-size="14.00" fill="#5b00c0">rw</text>
</g>
</g>
</svg>
