<?xml version="1.0" encoding="UTF-8" standalone="no"?>
<!DOCTYPE svg PUBLIC "-//W3C//DTD SVG 1.1//EN"
 "http://www.w3.org/Graphics/SVG/1.1/DTD/svg11.dtd">
<!-- Generated by graphviz version 2.43.0 (0)
 -->
<!-- Title: a_graph Pages: 1 -->
<svg width="877pt" height="119pt"
 viewBox="0.00 0.00 877.00 119.00" xmlns="http://www.w3.org/2000/svg" xmlns:xlink="http://www.w3.org/1999/xlink">
<g id="graph0" class="graph" transform="scale(1 1) rotate(0) translate(4 115)">
<title>a_graph</title>
<polygon fill="white" stroke="transparent" points="-4,4 -4,-115 873,-115 873,4 -4,4"/>
<!-- T1685 -->
<g id="node1" class="node">
<title>T1685</title>
<polygon fill="none" stroke="#0058ad" points="149.5,-81.5 149.5,-110.5 591.5,-110.5 591.5,-81.5 149.5,-81.5"/>
<text text-anchor="middle" x="184.5" y="-92.3" font-family="Times,serif" font-size="14.00" fill="#0058ad">r 699 []</text>
<polyline fill="none" stroke="#0058ad" points="219.5,-81.5 219.5,-110.5 "/>
<text text-anchor="middle" x="265.5" y="-92.3" font-family="Times,serif" font-size="14.00" fill="#0058ad">r 697 [1 2]</text>
<polyline fill="none" stroke="#0058ad" points="311.5,-81.5 311.5,-110.5 "/>
<text text-anchor="middle" x="346.5" y="-92.3" font-family="Times,serif" font-size="14.00" fill="#0058ad">r 699 []</text>
<polyline fill="none" stroke="#0058ad" points="381.5,-81.5 381.5,-110.5 "/>
<text text-anchor="middle" x="416.5" y="-92.3" font-family="Times,serif" font-size="14.00" fill="#0058ad">a 685 5</text>
<polyline fill="none" stroke="#0058ad" points="451.5,-81.5 451.5,-110.5 "/>
<text text-anchor="middle" x="486.5" y="-92.3" font-family="Times,serif" font-size="14.00" fill="#0058ad">a 699 1</text>
<polyline fill="none" stroke="#0058ad" points="521.5,-81.5 521.5,-110.5 "/>
<text text-anchor="middle" x="556.5" y="-92.3" font-family="Times,serif" font-size="14.00" fill="#0058ad">a 700 1</text>
</g>
<!-- T1684 -->
<g id="node2" class="node">
<title>T1684</title>
<polygon fill="none" stroke="#0058ad" points="0,-0.5 0,-29.5 869,-29.5 869,-0.5 0,-0.5"/>
<text text-anchor="middle" x="46" y="-11.3" font-family="Times,serif" font-size="14.00" fill="#0058ad">r 697 [1 2]</text>
<polyline fill="none" stroke="#0058ad" points="92,-0.5 92,-29.5 "/>
<text text-anchor="middle" x="127" y="-11.3" font-family="Times,serif" font-size="14.00" fill="#0058ad">a 698 4</text>
<polyline fill="none" stroke="#0058ad" points="162,-0.5 162,-29.5 "/>
<text text-anchor="middle" x="221.5" y="-11.3" font-family="Times,serif" font-size="14.00" fill="#0058ad">r 698 [1 2 3 4]</text>
<polyline fill="none" stroke="#0058ad" points="281,-0.5 281,-29.5 "/>
<text text-anchor="middle" x="316" y="-11.3" font-family="Times,serif" font-size="14.00" fill="#0058ad">a 697 3</text>
<polyline fill="none" stroke="#0058ad" points="351,-0.5 351,-29.5 "/>
<text text-anchor="middle" x="386" y="-11.3" font-family="Times,serif" font-size="14.00" fill="#0058ad">a 697 4</text>
<polyline fill="none" stroke="#0058ad" points="421,-0.5 421,-29.5 "/>
<text text-anchor="middle" x="456" y="-11.3" font-family="Times,serif" font-size="14.00" fill="#0058ad">r 699 []</text>
<polyline fill="none" stroke="#0058ad" points="491,-0.5 491,-29.5 "/>
<text text-anchor="middle" x="550.5" y="-11.3" font-family="Times,serif" font-size="14.00" fill="#0058ad">r 697 [1 2 3 4]</text>
<polyline fill="none" stroke="#0058ad" points="610,-0.5 610,-29.5 "/>
<text text-anchor="middle" x="645" y="-11.3" font-family="Times,serif" font-size="14.00" fill="#0058ad">a 697 5</text>
<polyline fill="none" stroke="#0058ad" points="680,-0.5 680,-29.5 "/>
<text text-anchor="middle" x="715" y="-11.3" font-family="Times,serif" font-size="14.00" fill="#0058ad">r 699 []</text>
<polyline fill="none" stroke="#0058ad" points="750,-0.5 750,-29.5 "/>
<text text-anchor="middle" x="809.5" y="-11.3" font-family="Times,serif" font-size="14.00" fill="#0058ad">r 698 [1 2 3 4]</text>
</g>
<!-- T1685&#45;&gt;T1684 -->
<g id="edge1" class="edge">
<title>T1685:f1&#45;&gt;T1684:f3</title>
<path fill="none" stroke="#5b00c0" d="M265.5,-81C265.5,-53.23 303.78,-59.31 313.35,-40"/>
<polygon fill="#5b00c0" stroke="#5b00c0" points="316.82,-40.51 315.5,-30 309.98,-39.04 316.82,-40.51"/>
<text text-anchor="middle" x="316" y="-51.8" font-family="Times,serif" font-size="14.00" fill="#5b00c0">rw</text>
</g>
<!-- T1684&#45;&gt;T1685 -->
<g id="edge2" class="edge">
<title>T1684:f5&#45;&gt;T1685:f4</title>
<path fill="none" stroke="#5b00c0" d="M456.5,-30C456.5,-52.39 478.25,-54.56 484.71,-70.95"/>
<polygon fill="#5b00c0" stroke="#5b00c0" points="481.3,-71.77 486.5,-81 488.2,-70.54 481.3,-71.77"/>
<text text-anchor="middle" x="488" y="-51.8" font-family="Times,serif" font-size="14.00" fill="#5b00c0">rw</text>
</g>
</g>
</svg>
