<?xml version="1.0" encoding="UTF-8" standalone="no"?>
<!DOCTYPE svg PUBLIC "-//W3C//DTD SVG 1.1//EN"
 "http://www.w3.org/Graphics/SVG/1.1/DTD/svg11.dtd">
<!-- Generated by graphviz version 2.43.0 (0)
 -->
<!-- Title: a_graph Pages: 1 -->
<svg width="904pt" height="200pt"
 viewBox="0.00 0.00 903.50 200.00" xmlns="http://www.w3.org/2000/svg" xmlns:xlink="http://www.w3.org/1999/xlink">
<g id="graph0" class="graph" transform="scale(1 1) rotate(0) translate(4 196)">
<title>a_graph</title>
<polygon fill="white" stroke="transparent" points="-4,4 -4,-196 899.5,-196 899.5,4 -4,4"/>
<!-- T250 -->
<g id="node1" class="node">
<title>T250</title>
<polygon fill="none" stroke="#0058ad" points="59.5,-162.5 59.5,-191.5 895.5,-191.5 895.5,-162.5 59.5,-162.5"/>
<text text-anchor="middle" x="94.5" y="-173.3" font-family="Times,serif" font-size="14.00" fill="#0058ad">a 105 2</text>
<polyline fill="none" stroke="#0058ad" points="129.5,-162.5 129.5,-191.5 "/>
<text text-anchor="middle" x="164.5" y="-173.3" font-family="Times,serif" font-size="14.00" fill="#0058ad">a 105 3</text>
<polyline fill="none" stroke="#0058ad" points="199.5,-162.5 199.5,-191.5 "/>
<text text-anchor="middle" x="245.5" y="-173.3" font-family="Times,serif" font-size="14.00" fill="#0058ad">r 105 [2 3]</text>
<polyline fill="none" stroke="#0058ad" points="291.5,-162.5 291.5,-191.5 "/>
<text text-anchor="middle" x="337.5" y="-173.3" font-family="Times,serif" font-size="14.00" fill="#0058ad">r 105 [2 3]</text>
<polyline fill="none" stroke="#0058ad" points="383.5,-162.5 383.5,-191.5 "/>
<text text-anchor="middle" x="418.5" y="-173.3" font-family="Times,serif" font-size="14.00" fill="#0058ad">r 102 []</text>
<polyline fill="none" stroke="#0058ad" points="453.5,-162.5 453.5,-191.5 "/>
<text text-anchor="middle" x="488.5" y="-173.3" font-family="Times,serif" font-size="14.00" fill="#0058ad">r 102 []</text>
<polyline fill="none" stroke="#0058ad" points="523.5,-162.5 523.5,-191.5 "/>
<text text-anchor="middle" x="558.5" y="-173.3" font-family="Times,serif" font-size="14.00" fill="#0058ad">r 102 []</text>
<polyline fill="none" stroke="#0058ad" points="593.5,-162.5 593.5,-191.5 "/>
<text text-anchor="middle" x="639.5" y="-173.3" font-family="Times,serif" font-size="14.00" fill="#0058ad">r 105 [2 3]</text>
<polyline fill="none" stroke="#0058ad" points="685.5,-162.5 685.5,-191.5 "/>
<text text-anchor="middle" x="720.5" y="-173.3" font-family="Times,serif" font-size="14.00" fill="#0058ad">a 104 5</text>
<polyline fill="none" stroke="#0058ad" points="755.5,-162.5 755.5,-191.5 "/>
<text text-anchor="middle" x="790.5" y="-173.3" font-family="Times,serif" font-size="14.00" fill="#0058ad">a 105 4</text>
<polyline fill="none" stroke="#0058ad" points="825.5,-162.5 825.5,-191.5 "/>
<text text-anchor="middle" x="860.5" y="-173.3" font-family="Times,serif" font-size="14.00" fill="#0058ad">a 105 5</text>
</g>
<!-- T260 -->
<g id="node3" class="node">
<title>T260</title>
<polygon fill="none" stroke="#0058ad" points="71.5,-81.5 71.5,-110.5 513.5,-110.5 513.5,-81.5 71.5,-81.5"/>
<text text-anchor="middle" x="106.5" y="-92.3" font-family="Times,serif" font-size="14.00" fill="#0058ad">r 106 []</text>
<polyline fill="none" stroke="#0058ad" points="141.5,-81.5 141.5,-110.5 "/>
<text text-anchor="middle" x="176.5" y="-92.3" font-family="Times,serif" font-size="14.00" fill="#0058ad">r 109 []</text>
<polyline fill="none" stroke="#0058ad" points="211.5,-81.5 211.5,-110.5 "/>
<text text-anchor="middle" x="246.5" y="-92.3" font-family="Times,serif" font-size="14.00" fill="#0058ad">a 109 1</text>
<polyline fill="none" stroke="#0058ad" points="281.5,-81.5 281.5,-110.5 "/>
<text text-anchor="middle" x="316.5" y="-92.3" font-family="Times,serif" font-size="14.00" fill="#0058ad">a 109 2</text>
<polyline fill="none" stroke="#0058ad" points="351.5,-81.5 351.5,-110.5 "/>
<text text-anchor="middle" x="397.5" y="-92.3" font-family="Times,serif" font-size="14.00" fill="#0058ad">r 109 [1 2]</text>
<polyline fill="none" stroke="#0058ad" points="443.5,-81.5 443.5,-110.5 "/>
<text text-anchor="middle" x="478.5" y="-92.3" font-family="Times,serif" font-size="14.00" fill="#0058ad">a 102 5</text>
</g>
<!-- T250&#45;&gt;T260 -->
<g id="edge1" class="edge">
<title>T250:f4&#45;&gt;T260:f5</title>
<path fill="none" stroke="#5b00c0" d="M418.5,-162C418.5,-130.97 465.68,-142.39 476.36,-120.97"/>
<polygon fill="#5b00c0" stroke="#5b00c0" points="479.83,-121.51 478.5,-111 472.98,-120.05 479.83,-121.51"/>
<text text-anchor="middle" x="478" y="-132.8" font-family="Times,serif" font-size="14.00" fill="#5b00c0">rw</text>
</g>
<!-- T255 -->
<g id="node2" class="node">
<title>T255</title>
<polygon fill="none" stroke="#0058ad" points="0,-0.5 0,-29.5 853,-29.5 853,-0.5 0,-0.5"/>
<text text-anchor="middle" x="35" y="-11.3" font-family="Times,serif" font-size="14.00" fill="#0058ad">r 105 []</text>
<polyline fill="none" stroke="#0058ad" points="70,-0.5 70,-29.5 "/>
<text text-anchor="middle" x="105" y="-11.3" font-family="Times,serif" font-size="14.00" fill="#0058ad">r 102 []</text>
<polyline fill="none" stroke="#0058ad" points="140,-0.5 140,-29.5 "/>
<text text-anchor="middle" x="175" y="-11.3" font-family="Times,serif" font-size="14.00" fill="#0058ad">r 107 []</text>
<polyline fill="none" stroke="#0058ad" points="210,-0.5 210,-29.5 "/>
<text text-anchor="middle" x="251.5" y="-11.3" font-family="Times,serif" font-size="14.00" fill="#0058ad">r 75 [3 4]</text>
<polyline fill="none" stroke="#0058ad" points="293,-0.5 293,-29.5 "/>
<text text-anchor="middle" x="328" y="-11.3" font-family="Times,serif" font-size="14.00" fill="#0058ad">a 107 1</text>
<polyline fill="none" stroke="#0058ad" points="363,-0.5 363,-29.5 "/>
<text text-anchor="middle" x="402.5" y="-11.3" font-family="Times,serif" font-size="14.00" fill="#0058ad">r 107 [1]</text>
<polyline fill="none" stroke="#0058ad" points="442,-0.5 442,-29.5 "/>
<text text-anchor="middle" x="477" y="-11.3" font-family="Times,serif" font-size="14.00" fill="#0058ad">a 107 2</text>
<polyline fill="none" stroke="#0058ad" points="512,-0.5 512,-29.5 "/>
<text text-anchor="middle" x="547" y="-11.3" font-family="Times,serif" font-size="14.00" fill="#0058ad">r 102 []</text>
<polyline fill="none" stroke="#0058ad" points="582,-0.5 582,-29.5 "/>
<text text-anchor="middle" x="617" y="-11.3" font-family="Times,serif" font-size="14.00" fill="#0058ad">a 106 1</text>
<polyline fill="none" stroke="#0058ad" points="652,-0.5 652,-29.5 "/>
<text text-anchor="middle" x="678" y="-11.3" font-family="Times,serif" font-size="14.00" fill="#0058ad">a 1 5</text>
<polyline fill="none" stroke="#0058ad" points="704,-0.5 704,-29.5 "/>
<text text-anchor="middle" x="739" y="-11.3" font-family="Times,serif" font-size="14.00" fill="#0058ad">r 102 []</text>
<polyline fill="none" stroke="#0058ad" points="774,-0.5 774,-29.5 "/>
<text text-anchor="middle" x="813.5" y="-11.3" font-family="Times,serif" font-size="14.00" fill="#0058ad">r 106 [1]</text>
</g>
<!-- T255&#45;&gt;T250 -->
<g id="edge2" class="edge">
<title>T255:f0&#45;&gt;T250:f0</title>
<path fill="none" stroke="#5b00c0" d="M34.5,-30C34.5,-39.02 40.81,-139.28 52.13,-168.84"/>
<polygon fill="#5b00c0" stroke="#5b00c0" points="49.59,-171.27 58.5,-177 55.1,-166.96 49.59,-171.27"/>
<text text-anchor="middle" x="51" y="-92.3" font-family="Times,serif" font-size="14.00" fill="#5b00c0">rw</text>
</g>
<!-- T255&#45;&gt;T260 -->
<g id="edge3" class="edge">
<title>T255:f1&#45;&gt;T260:f5</title>
<path fill="none" stroke="#5b00c0" d="M104.5,-30C104.5,-39.48 410.34,-64.95 468.88,-77.49"/>
<polygon fill="#5b00c0" stroke="#5b00c0" points="467.91,-80.86 478.5,-81 470.31,-74.28 467.91,-80.86"/>
<text text-anchor="middle" x="368" y="-51.8" font-family="Times,serif" font-size="14.00" fill="#5b00c0">rw</text>
</g>
<!-- T260&#45;&gt;T255 -->
<g id="edge4" class="edge">
<title>T260:f0&#45;&gt;T255:f8</title>
<path fill="none" stroke="#5b00c0" d="M106.5,-81C106.5,-35.88 158.17,-56.4 202.5,-48 223.18,-44.08 551.39,-51.54 608.93,-35.36"/>
<polygon fill="#5b00c0" stroke="#5b00c0" points="610.88,-38.27 617.5,-30 607.17,-32.34 610.88,-38.27"/>
<text text-anchor="middle" x="212" y="-51.8" font-family="Times,serif" font-size="14.00" fill="#5b00c0">rw</text>
</g>
</g>
</svg>
