<?xml version="1.0" encoding="UTF-8" standalone="no"?>
<!DOCTYPE svg PUBLIC "-//W3C//DTD SVG 1.1//EN"
 "http://www.w3.org/Graphics/SVG/1.1/DTD/svg11.dtd">
<!-- Generated by graphviz version 2.43.0 (0)
 -->
<!-- Title: a_graph Pages: 1 -->
<svg width="630pt" height="119pt"
 viewBox="0.00 0.00 630.00 119.00" xmlns="http://www.w3.org/2000/svg" xmlns:xlink="http://www.w3.org/1999/xlink">
<g id="graph0" class="graph" transform="scale(1 1) rotate(0) translate(4 115)">
<title>a_graph</title>
<polygon fill="white" stroke="transparent" points="-4,4 -4,-115 626,-115 626,4 -4,4"/>
<!-- T434 -->
<g id="node1" class="node">
<title>T434</title>
<polygon fill="none" stroke="#0058ad" points="0,-81.5 0,-110.5 622,-110.5 622,-81.5 0,-81.5"/>
<text text-anchor="middle" x="35" y="-92.3" font-family="Times,serif" font-size="14.00" fill="#0058ad">a 179 1</text>
<polyline fill="none" stroke="#0058ad" points="70,-81.5 70,-110.5 "/>
<text text-anchor="middle" x="116" y="-92.3" font-family="Times,serif" font-size="14.00" fill="#0058ad">r 171 [2 3]</text>
<polyline fill="none" stroke="#0058ad" points="162,-81.5 162,-110.5 "/>
<text text-anchor="middle" x="208" y="-92.3" font-family="Times,serif" font-size="14.00" fill="#0058ad">r 171 [2 3]</text>
<polyline fill="none" stroke="#0058ad" points="254,-81.5 254,-110.5 "/>
<text text-anchor="middle" x="293.5" y="-92.3" font-family="Times,serif" font-size="14.00" fill="#0058ad">r 179 [1]</text>
<polyline fill="none" stroke="#0058ad" points="333,-81.5 333,-110.5 "/>
<text text-anchor="middle" x="368" y="-92.3" font-family="Times,serif" font-size="14.00" fill="#0058ad">a 179 2</text>
<polyline fill="none" stroke="#0058ad" points="403,-81.5 403,-110.5 "/>
<text text-anchor="middle" x="438" y="-92.3" font-family="Times,serif" font-size="14.00" fill="#0058ad">a 179 3</text>
<polyline fill="none" stroke="#0058ad" points="473,-81.5 473,-110.5 "/>
<text text-anchor="middle" x="508" y="-92.3" font-family="Times,serif" font-size="14.00" fill="#0058ad">a 177 2</text>
<polyline fill="none" stroke="#0058ad" points="543,-81.5 543,-110.5 "/>
<text text-anchor="middle" x="582.5" y="-92.3" font-family="Times,serif" font-size="14.00" fill="#0058ad">r 176 [2]</text>
</g>
<!-- T432 -->
<g id="node2" class="node">
<title>T432</title>
<polygon fill="none" stroke="#0058ad" points="77,-0.5 77,-29.5 611,-29.5 611,-0.5 77,-0.5"/>
<text text-anchor="middle" x="112" y="-11.3" font-family="Times,serif" font-size="14.00" fill="#0058ad">a 176 4</text>
<polyline fill="none" stroke="#0058ad" points="147,-0.5 147,-29.5 "/>
<text text-anchor="middle" x="182" y="-11.3" font-family="Times,serif" font-size="14.00" fill="#0058ad">a 178 5</text>
<polyline fill="none" stroke="#0058ad" points="217,-0.5 217,-29.5 "/>
<text text-anchor="middle" x="252" y="-11.3" font-family="Times,serif" font-size="14.00" fill="#0058ad">a 119 3</text>
<polyline fill="none" stroke="#0058ad" points="287,-0.5 287,-29.5 "/>
<text text-anchor="middle" x="333" y="-11.3" font-family="Times,serif" font-size="14.00" fill="#0058ad">r 176 [2 4]</text>
<polyline fill="none" stroke="#0058ad" points="379,-0.5 379,-29.5 "/>
<text text-anchor="middle" x="425" y="-11.3" font-family="Times,serif" font-size="14.00" fill="#0058ad">r 176 [2 4]</text>
<polyline fill="none" stroke="#0058ad" points="471,-0.5 471,-29.5 "/>
<text text-anchor="middle" x="506" y="-11.3" font-family="Times,serif" font-size="14.00" fill="#0058ad">r 179 []</text>
<polyline fill="none" stroke="#0058ad" points="541,-0.5 541,-29.5 "/>
<text text-anchor="middle" x="576" y="-11.3" font-family="Times,serif" font-size="14.00" fill="#0058ad">a 119 4</text>
</g>
<!-- T434&#45;&gt;T432 -->
<g id="edge1" class="edge">
<title>T434:f7&#45;&gt;T432:f0</title>
<path fill="none" stroke="#5b00c0" d="M583,-81C583,-56.79 184.41,-56.24 120.58,-35.81"/>
<polygon fill="#5b00c0" stroke="#5b00c0" points="122.24,-32.71 112,-30 118.31,-38.51 122.24,-32.71"/>
<text text-anchor="middle" x="478.5" y="-51.8" font-family="Times,serif" font-size="14.00" fill="#5b00c0">rw</text>
</g>
<!-- T432&#45;&gt;T434 -->
<g id="edge2" class="edge">
<title>T432:f5&#45;&gt;T434:f0</title>
<path fill="none" stroke="#5b00c0" d="M506,-30C506,-46.92 218.78,-45.86 202,-48 130.62,-57.12 43.94,-10.3 35.65,-70.81"/>
<polygon fill="#5b00c0" stroke="#5b00c0" points="32.14,-70.8 35,-81 39.12,-71.24 32.14,-70.8"/>
<text text-anchor="middle" x="211.5" y="-51.8" font-family="Times,serif" font-size="14.00" fill="#5b00c0">rw</text>
</g>
</g>
</svg>
