<?xml version="1.0" encoding="UTF-8" standalone="no"?>
<!DOCTYPE svg PUBLIC "-//W3C//DTD SVG 1.1//EN"
 "http://www.w3.org/Graphics/SVG/1.1/DTD/svg11.dtd">
<!-- Generated by graphviz version 2.43.0 (0)
 -->
<!-- Title: a_graph Pages: 1 -->
<svg width="1301pt" height="281pt"
 viewBox="0.00 0.00 1301.00 281.00" xmlns="http://www.w3.org/2000/svg" xmlns:xlink="http://www.w3.org/1999/xlink">
<g id="graph0" class="graph" transform="scale(1 1) rotate(0) translate(4 277)">
<title>a_graph</title>
<polygon fill="white" stroke="transparent" points="-4,4 -4,-277 1297,-277 1297,4 -4,4"/>
<!-- T118 -->
<g id="node1" class="node">
<title>T118</title>
<polygon fill="none" stroke="#0058ad" points="148.5,-243.5 148.5,-272.5 728.5,-272.5 728.5,-243.5 148.5,-243.5"/>
<text text-anchor="middle" x="179" y="-254.3" font-family="Times,serif" font-size="14.00" fill="#0058ad">r 51 []</text>
<polyline fill="none" stroke="#0058ad" points="209.5,-243.5 209.5,-272.5 "/>
<text text-anchor="middle" x="240" y="-254.3" font-family="Times,serif" font-size="14.00" fill="#0058ad">a 39 5</text>
<polyline fill="none" stroke="#0058ad" points="270.5,-243.5 270.5,-272.5 "/>
<text text-anchor="middle" x="301" y="-254.3" font-family="Times,serif" font-size="14.00" fill="#0058ad">r 51 []</text>
<polyline fill="none" stroke="#0058ad" points="331.5,-243.5 331.5,-272.5 "/>
<text text-anchor="middle" x="362" y="-254.3" font-family="Times,serif" font-size="14.00" fill="#0058ad">r 51 []</text>
<polyline fill="none" stroke="#0058ad" points="392.5,-243.5 392.5,-272.5 "/>
<text text-anchor="middle" x="423" y="-254.3" font-family="Times,serif" font-size="14.00" fill="#0058ad">r 51 []</text>
<polyline fill="none" stroke="#0058ad" points="453.5,-243.5 453.5,-272.5 "/>
<text text-anchor="middle" x="484" y="-254.3" font-family="Times,serif" font-size="14.00" fill="#0058ad">r 51 []</text>
<polyline fill="none" stroke="#0058ad" points="514.5,-243.5 514.5,-272.5 "/>
<text text-anchor="middle" x="556" y="-254.3" font-family="Times,serif" font-size="14.00" fill="#0058ad">r 39 [2 5]</text>
<polyline fill="none" stroke="#0058ad" points="597.5,-243.5 597.5,-272.5 "/>
<text text-anchor="middle" x="632.5" y="-254.3" font-family="Times,serif" font-size="14.00" fill="#0058ad">r 50 [1]</text>
<polyline fill="none" stroke="#0058ad" points="667.5,-243.5 667.5,-272.5 "/>
<text text-anchor="middle" x="698" y="-254.3" font-family="Times,serif" font-size="14.00" fill="#0058ad">r 51 []</text>
</g>
<!-- T115 -->
<g id="node3" class="node">
<title>T115</title>
<polygon fill="none" stroke="#0058ad" points="241,-162.5 241,-191.5 668,-191.5 668,-162.5 241,-162.5"/>
<text text-anchor="middle" x="271.5" y="-173.3" font-family="Times,serif" font-size="14.00" fill="#0058ad">r 51 []</text>
<polyline fill="none" stroke="#0058ad" points="302,-162.5 302,-191.5 "/>
<text text-anchor="middle" x="332.5" y="-173.3" font-family="Times,serif" font-size="14.00" fill="#0058ad">r 51 []</text>
<polyline fill="none" stroke="#0058ad" points="363,-162.5 363,-191.5 "/>
<text text-anchor="middle" x="393.5" y="-173.3" font-family="Times,serif" font-size="14.00" fill="#0058ad">r 51 []</text>
<polyline fill="none" stroke="#0058ad" points="424,-162.5 424,-191.5 "/>
<text text-anchor="middle" x="454.5" y="-173.3" font-family="Times,serif" font-size="14.00" fill="#0058ad">r 50 []</text>
<polyline fill="none" stroke="#0058ad" points="485,-162.5 485,-191.5 "/>
<text text-anchor="middle" x="515.5" y="-173.3" font-family="Times,serif" font-size="14.00" fill="#0058ad">a 51 2</text>
<polyline fill="none" stroke="#0058ad" points="546,-162.5 546,-191.5 "/>
<text text-anchor="middle" x="576.5" y="-173.3" font-family="Times,serif" font-size="14.00" fill="#0058ad">a 47 2</text>
<polyline fill="none" stroke="#0058ad" points="607,-162.5 607,-191.5 "/>
<text text-anchor="middle" x="637.5" y="-173.3" font-family="Times,serif" font-size="14.00" fill="#0058ad">a 51 3</text>
</g>
<!-- T118&#45;&gt;T115 -->
<g id="edge1" class="edge">
<title>T118:f0&#45;&gt;T115:f4</title>
<path fill="none" stroke="#5b00c0" d="M178.5,-243C178.5,-95.07 499.89,-331.89 514.95,-202"/>
<polygon fill="#5b00c0" stroke="#5b00c0" points="518.45,-202.18 515.5,-192 511.46,-201.79 518.45,-202.18"/>
<text text-anchor="middle" x="522" y="-213.8" font-family="Times,serif" font-size="14.00" fill="#5b00c0">rw</text>
</g>
<!-- T108 -->
<g id="node2" class="node">
<title>T108</title>
<polygon fill="none" stroke="#0058ad" points="0,-0.5 0,-29.5 523,-29.5 523,-0.5 0,-0.5"/>
<text text-anchor="middle" x="30.5" y="-11.3" font-family="Times,serif" font-size="14.00" fill="#0058ad">r 48 []</text>
<polyline fill="none" stroke="#0058ad" points="61,-0.5 61,-29.5 "/>
<text text-anchor="middle" x="91.5" y="-11.3" font-family="Times,serif" font-size="14.00" fill="#0058ad">a 48 2</text>
<polyline fill="none" stroke="#0058ad" points="122,-0.5 122,-29.5 "/>
<text text-anchor="middle" x="152.5" y="-11.3" font-family="Times,serif" font-size="14.00" fill="#0058ad">a 48 3</text>
<polyline fill="none" stroke="#0058ad" points="183,-0.5 183,-29.5 "/>
<text text-anchor="middle" x="224.5" y="-11.3" font-family="Times,serif" font-size="14.00" fill="#0058ad">r 48 [2 3]</text>
<polyline fill="none" stroke="#0058ad" points="266,-0.5 266,-29.5 "/>
<text text-anchor="middle" x="307.5" y="-11.3" font-family="Times,serif" font-size="14.00" fill="#0058ad">r 48 [2 3]</text>
<polyline fill="none" stroke="#0058ad" points="349,-0.5 349,-29.5 "/>
<text text-anchor="middle" x="379.5" y="-11.3" font-family="Times,serif" font-size="14.00" fill="#0058ad">a 48 4</text>
<polyline fill="none" stroke="#0058ad" points="410,-0.5 410,-29.5 "/>
<text text-anchor="middle" x="440.5" y="-11.3" font-family="Times,serif" font-size="14.00" fill="#0058ad">a 47 1</text>
<polyline fill="none" stroke="#0058ad" points="471,-0.5 471,-29.5 "/>
<text text-anchor="middle" x="497" y="-11.3" font-family="Times,serif" font-size="14.00" fill="#0058ad">a 2 5</text>
</g>
<!-- T108&#45;&gt;T118 -->
<g id="edge3" class="edge">
<title>T108&#45;&gt;T118</title>
<path fill="none" stroke="#0050c0" d="M252.84,-29.93C234.15,-61.92 194.63,-141.78 231.5,-192 248.55,-215.22 273.89,-230.37 301.04,-240.2"/>
<polygon fill="#0050c0" stroke="#0050c0" points="300.11,-243.58 310.71,-243.46 302.35,-236.95 300.11,-243.58"/>
<text text-anchor="middle" x="224" y="-132.8" font-family="Times,serif" font-size="14.00" fill="#0050c0">rt</text>
</g>
<!-- T108&#45;&gt;T115 -->
<g id="edge2" class="edge">
<title>T108:f6&#45;&gt;T115:f5</title>
<path fill="none" stroke="#c02700" d="M440.5,-30C440.5,-66.22 427.59,-82.16 449.5,-111 484,-156.4 565.43,-108.04 575.48,-151.94"/>
<polygon fill="#c02700" stroke="#c02700" points="572.01,-152.4 576.5,-162 578.97,-151.7 572.01,-152.4"/>
<text text-anchor="middle" x="462" y="-92.3" font-family="Times,serif" font-size="14.00" fill="#c02700">ww</text>
</g>
<!-- T112 -->
<g id="node4" class="node">
<title>T112</title>
<polygon fill="none" stroke="#0058ad" points="484,-81.5 484,-110.5 1293,-110.5 1293,-81.5 484,-81.5"/>
<text text-anchor="middle" x="532.5" y="-92.3" font-family="Times,serif" font-size="14.00" fill="#0058ad">r 45 [1 2 3]</text>
<polyline fill="none" stroke="#0058ad" points="581,-81.5 581,-110.5 "/>
<text text-anchor="middle" x="611.5" y="-92.3" font-family="Times,serif" font-size="14.00" fill="#0058ad">r 49 []</text>
<polyline fill="none" stroke="#0058ad" points="642,-81.5 642,-110.5 "/>
<text text-anchor="middle" x="672.5" y="-92.3" font-family="Times,serif" font-size="14.00" fill="#0058ad">a 49 2</text>
<polyline fill="none" stroke="#0058ad" points="703,-81.5 703,-110.5 "/>
<text text-anchor="middle" x="733.5" y="-92.3" font-family="Times,serif" font-size="14.00" fill="#0058ad">a 45 5</text>
<polyline fill="none" stroke="#0058ad" points="764,-81.5 764,-110.5 "/>
<text text-anchor="middle" x="799" y="-92.3" font-family="Times,serif" font-size="14.00" fill="#0058ad">r 49 [2]</text>
<polyline fill="none" stroke="#0058ad" points="834,-81.5 834,-110.5 "/>
<text text-anchor="middle" x="864.5" y="-92.3" font-family="Times,serif" font-size="14.00" fill="#0058ad">a 49 3</text>
<polyline fill="none" stroke="#0058ad" points="895,-81.5 895,-110.5 "/>
<text text-anchor="middle" x="950" y="-92.3" font-family="Times,serif" font-size="14.00" fill="#0058ad">r 45 [1 2 3 5]</text>
<polyline fill="none" stroke="#0058ad" points="1005,-81.5 1005,-110.5 "/>
<text text-anchor="middle" x="1046.5" y="-92.3" font-family="Times,serif" font-size="14.00" fill="#0058ad">r 49 [2 3]</text>
<polyline fill="none" stroke="#0058ad" points="1088,-81.5 1088,-110.5 "/>
<text text-anchor="middle" x="1118.5" y="-92.3" font-family="Times,serif" font-size="14.00" fill="#0058ad">a 50 1</text>
<polyline fill="none" stroke="#0058ad" points="1149,-81.5 1149,-110.5 "/>
<text text-anchor="middle" x="1179.5" y="-92.3" font-family="Times,serif" font-size="14.00" fill="#0058ad">r 47 []</text>
<polyline fill="none" stroke="#0058ad" points="1210,-81.5 1210,-110.5 "/>
<text text-anchor="middle" x="1251.5" y="-92.3" font-family="Times,serif" font-size="14.00" fill="#0058ad">r 49 [2 3]</text>
</g>
<!-- T115&#45;&gt;T112 -->
<g id="edge4" class="edge">
<title>T115:f3&#45;&gt;T112:f8</title>
<path fill="none" stroke="#5b00c0" d="M454.5,-162C454.5,-157.71 1026,-121.47 1108.6,-112.56"/>
<polygon fill="#5b00c0" stroke="#5b00c0" points="1109.16,-116.01 1118.5,-111 1108.08,-109.1 1109.16,-116.01"/>
<text text-anchor="middle" x="895" y="-132.8" font-family="Times,serif" font-size="14.00" fill="#5b00c0">rw</text>
</g>
<!-- T112&#45;&gt;T118 -->
<g id="edge5" class="edge">
<title>T112:f8&#45;&gt;T118:f7</title>
<path fill="none" stroke="#c000a5" d="M1118.5,-111C1118.5,-219.42 662.4,-136.63 633.89,-233.09"/>
<polygon fill="#c000a5" stroke="#c000a5" points="630.43,-232.61 632.5,-243 637.36,-233.59 630.43,-232.61"/>
<text text-anchor="middle" x="1056" y="-173.3" font-family="Times,serif" font-size="14.00" fill="#c000a5">wr</text>
</g>
<!-- T112&#45;&gt;T108 -->
<g id="edge6" class="edge">
<title>T112:f9&#45;&gt;T108:f6</title>
<path fill="none" stroke="#5b00c0" d="M1179.5,-81C1179.5,-2.23 502.64,-102.9 444.48,-39.56"/>
<polygon fill="#5b00c0" stroke="#5b00c0" points="447.57,-37.89 440.5,-30 441.11,-40.58 447.57,-37.89"/>
<text text-anchor="middle" x="1169" y="-51.8" font-family="Times,serif" font-size="14.00" fill="#5b00c0">rw</text>
</g>
</g>
</svg>
