<?xml version="1.0" encoding="UTF-8" standalone="no"?>
<!DOCTYPE svg PUBLIC "-//W3C//DTD SVG 1.1//EN"
 "http://www.w3.org/Graphics/SVG/1.1/DTD/svg11.dtd">
<!-- Generated by graphviz version 2.43.0 (0)
 -->
<!-- Title: a_graph Pages: 1 -->
<svg width="1057pt" height="119pt"
 viewBox="0.00 0.00 1057.00 119.00" xmlns="http://www.w3.org/2000/svg" xmlns:xlink="http://www.w3.org/1999/xlink">
<g id="graph0" class="graph" transform="scale(1 1) rotate(0) translate(4 115)">
<title>a_graph</title>
<polygon fill="white" stroke="transparent" points="-4,4 -4,-115 1053,-115 1053,4 -4,4"/>
<!-- T2496 -->
<g id="node1" class="node">
<title>T2496</title>
<polygon fill="none" stroke="#0058ad" points="0,-81.5 0,-110.5 843,-110.5 843,-81.5 0,-81.5"/>
<text text-anchor="middle" x="44" y="-92.3" font-family="Times,serif" font-size="14.00" fill="#0058ad">r 1018 [3]</text>
<polyline fill="none" stroke="#0058ad" points="88,-81.5 88,-110.5 "/>
<text text-anchor="middle" x="127.5" y="-92.3" font-family="Times,serif" font-size="14.00" fill="#0058ad">a 1035 3</text>
<polyline fill="none" stroke="#0058ad" points="167,-81.5 167,-110.5 "/>
<text text-anchor="middle" x="206.5" y="-92.3" font-family="Times,serif" font-size="14.00" fill="#0058ad">a 1035 4</text>
<polyline fill="none" stroke="#0058ad" points="246,-81.5 246,-110.5 "/>
<text text-anchor="middle" x="285.5" y="-92.3" font-family="Times,serif" font-size="14.00" fill="#0058ad">a 1036 3</text>
<polyline fill="none" stroke="#0058ad" points="325,-81.5 325,-110.5 "/>
<text text-anchor="middle" x="375.5" y="-92.3" font-family="Times,serif" font-size="14.00" fill="#0058ad">r 1035 [3 4]</text>
<polyline fill="none" stroke="#0058ad" points="426,-81.5 426,-110.5 "/>
<text text-anchor="middle" x="465.5" y="-92.3" font-family="Times,serif" font-size="14.00" fill="#0058ad">a 1036 4</text>
<polyline fill="none" stroke="#0058ad" points="505,-81.5 505,-110.5 "/>
<text text-anchor="middle" x="544.5" y="-92.3" font-family="Times,serif" font-size="14.00" fill="#0058ad">a 1035 5</text>
<polyline fill="none" stroke="#0058ad" points="584,-81.5 584,-110.5 "/>
<text text-anchor="middle" x="634.5" y="-92.3" font-family="Times,serif" font-size="14.00" fill="#0058ad">r 1036 [3 4]</text>
<polyline fill="none" stroke="#0058ad" points="685,-81.5 685,-110.5 "/>
<text text-anchor="middle" x="724.5" y="-92.3" font-family="Times,serif" font-size="14.00" fill="#0058ad">r 1034 []</text>
<polyline fill="none" stroke="#0058ad" points="764,-81.5 764,-110.5 "/>
<text text-anchor="middle" x="803.5" y="-92.3" font-family="Times,serif" font-size="14.00" fill="#0058ad">a 1036 5</text>
</g>
<!-- T2500 -->
<g id="node2" class="node">
<title>T2500</title>
<polygon fill="none" stroke="#0058ad" points="140,-0.5 140,-29.5 1049,-29.5 1049,-0.5 140,-0.5"/>
<text text-anchor="middle" x="179.5" y="-11.3" font-family="Times,serif" font-size="14.00" fill="#0058ad">r 1035 []</text>
<polyline fill="none" stroke="#0058ad" points="219,-0.5 219,-29.5 "/>
<text text-anchor="middle" x="258.5" y="-11.3" font-family="Times,serif" font-size="14.00" fill="#0058ad">a 1037 1</text>
<polyline fill="none" stroke="#0058ad" points="298,-0.5 298,-29.5 "/>
<text text-anchor="middle" x="342" y="-11.3" font-family="Times,serif" font-size="14.00" fill="#0058ad">r 1037 [1]</text>
<polyline fill="none" stroke="#0058ad" points="386,-0.5 386,-29.5 "/>
<text text-anchor="middle" x="430" y="-11.3" font-family="Times,serif" font-size="14.00" fill="#0058ad">r 1000 [2]</text>
<polyline fill="none" stroke="#0058ad" points="474,-0.5 474,-29.5 "/>
<text text-anchor="middle" x="513.5" y="-11.3" font-family="Times,serif" font-size="14.00" fill="#0058ad">a 1037 2</text>
<polyline fill="none" stroke="#0058ad" points="553,-0.5 553,-29.5 "/>
<text text-anchor="middle" x="603.5" y="-11.3" font-family="Times,serif" font-size="14.00" fill="#0058ad">r 1037 [1 2]</text>
<polyline fill="none" stroke="#0058ad" points="654,-0.5 654,-29.5 "/>
<text text-anchor="middle" x="693.5" y="-11.3" font-family="Times,serif" font-size="14.00" fill="#0058ad">a 1034 3</text>
<polyline fill="none" stroke="#0058ad" points="733,-0.5 733,-29.5 "/>
<text text-anchor="middle" x="772.5" y="-11.3" font-family="Times,serif" font-size="14.00" fill="#0058ad">r 1035 []</text>
<polyline fill="none" stroke="#0058ad" points="812,-0.5 812,-29.5 "/>
<text text-anchor="middle" x="851.5" y="-11.3" font-family="Times,serif" font-size="14.00" fill="#0058ad">a 1034 4</text>
<polyline fill="none" stroke="#0058ad" points="891,-0.5 891,-29.5 "/>
<text text-anchor="middle" x="930.5" y="-11.3" font-family="Times,serif" font-size="14.00" fill="#0058ad">a 1038 1</text>
<polyline fill="none" stroke="#0058ad" points="970,-0.5 970,-29.5 "/>
<text text-anchor="middle" x="1009.5" y="-11.3" font-family="Times,serif" font-size="14.00" fill="#0058ad">a 1037 3</text>
</g>
<!-- T2496&#45;&gt;T2500 -->
<g id="edge1" class="edge">
<title>T2496:f8&#45;&gt;T2500:f6</title>
<path fill="none" stroke="#5b00c0" d="M724.5,-81C724.5,-58.41 702.02,-56.55 695.35,-40.11"/>
<polygon fill="#5b00c0" stroke="#5b00c0" points="698.74,-39.21 693.5,-30 691.85,-40.47 698.74,-39.21"/>
<text text-anchor="middle" x="726" y="-51.8" font-family="Times,serif" font-size="14.00" fill="#5b00c0">rw</text>
</g>
<!-- T2500&#45;&gt;T2496 -->
<g id="edge2" class="edge">
<title>T2500:f0&#45;&gt;T2496:f1</title>
<path fill="none" stroke="#5b00c0" d="M138.5,-15C112.13,-15 123.88,-43.51 126.88,-70.7"/>
<polygon fill="#5b00c0" stroke="#5b00c0" points="123.4,-71.23 127.5,-81 130.39,-70.81 123.4,-71.23"/>
<text text-anchor="middle" x="136" y="-51.8" font-family="Times,serif" font-size="14.00" fill="#5b00c0">rw</text>
</g>
</g>
</svg>
