<?xml version="1.0" encoding="UTF-8" standalone="no"?>
<!DOCTYPE svg PUBLIC "-//W3C//DTD SVG 1.1//EN"
 "http://www.w3.org/Graphics/SVG/1.1/DTD/svg11.dtd">
<!-- Generated by graphviz version 2.43.0 (0)
 -->
<!-- Title: a_graph Pages: 1 -->
<svg width="726pt" height="119pt"
 viewBox="0.00 0.00 726.00 119.00" xmlns="http://www.w3.org/2000/svg" xmlns:xlink="http://www.w3.org/1999/xlink">
<g id="graph0" class="graph" transform="scale(1 1) rotate(0) translate(4 115)">
<title>a_graph</title>
<polygon fill="white" stroke="transparent" points="-4,4 -4,-115 722,-115 722,4 -4,4"/>
<!-- T2222 -->
<g id="node1" class="node">
<title>T2222</title>
<polygon fill="none" stroke="#0058ad" points="149,-81.5 149,-110.5 605,-110.5 605,-81.5 149,-81.5"/>
<text text-anchor="middle" x="184" y="-92.3" font-family="Times,serif" font-size="14.00" fill="#0058ad">a 915 5</text>
<polyline fill="none" stroke="#0058ad" points="219,-81.5 219,-110.5 "/>
<text text-anchor="middle" x="254" y="-92.3" font-family="Times,serif" font-size="14.00" fill="#0058ad">r 916 []</text>
<polyline fill="none" stroke="#0058ad" points="289,-81.5 289,-110.5 "/>
<text text-anchor="middle" x="328.5" y="-92.3" font-family="Times,serif" font-size="14.00" fill="#0058ad">r 915 [5]</text>
<polyline fill="none" stroke="#0058ad" points="368,-81.5 368,-110.5 "/>
<text text-anchor="middle" x="407.5" y="-92.3" font-family="Times,serif" font-size="14.00" fill="#0058ad">r 915 [5]</text>
<polyline fill="none" stroke="#0058ad" points="447,-81.5 447,-110.5 "/>
<text text-anchor="middle" x="486.5" y="-92.3" font-family="Times,serif" font-size="14.00" fill="#0058ad">r 915 [5]</text>
<polyline fill="none" stroke="#0058ad" points="526,-81.5 526,-110.5 "/>
<text text-anchor="middle" x="565.5" y="-92.3" font-family="Times,serif" font-size="14.00" fill="#0058ad">r 915 [5]</text>
</g>
<!-- T2225 -->
<g id="node2" class="node">
<title>T2225</title>
<polygon fill="none" stroke="#0058ad" points="0,-0.5 0,-29.5 718,-29.5 718,-0.5 0,-0.5"/>
<text text-anchor="middle" x="35" y="-11.3" font-family="Times,serif" font-size="14.00" fill="#0058ad">a 909 1</text>
<polyline fill="none" stroke="#0058ad" points="70,-0.5 70,-29.5 "/>
<text text-anchor="middle" x="105" y="-11.3" font-family="Times,serif" font-size="14.00" fill="#0058ad">r 915 []</text>
<polyline fill="none" stroke="#0058ad" points="140,-0.5 140,-29.5 "/>
<text text-anchor="middle" x="175" y="-11.3" font-family="Times,serif" font-size="14.00" fill="#0058ad">r 916 []</text>
<polyline fill="none" stroke="#0058ad" points="210,-0.5 210,-29.5 "/>
<text text-anchor="middle" x="245" y="-11.3" font-family="Times,serif" font-size="14.00" fill="#0058ad">r 915 []</text>
<polyline fill="none" stroke="#0058ad" points="280,-0.5 280,-29.5 "/>
<text text-anchor="middle" x="315" y="-11.3" font-family="Times,serif" font-size="14.00" fill="#0058ad">r 915 []</text>
<polyline fill="none" stroke="#0058ad" points="350,-0.5 350,-29.5 "/>
<text text-anchor="middle" x="385" y="-11.3" font-family="Times,serif" font-size="14.00" fill="#0058ad">a 916 1</text>
<polyline fill="none" stroke="#0058ad" points="420,-0.5 420,-29.5 "/>
<text text-anchor="middle" x="459.5" y="-11.3" font-family="Times,serif" font-size="14.00" fill="#0058ad">r 916 [1]</text>
<polyline fill="none" stroke="#0058ad" points="499,-0.5 499,-29.5 "/>
<text text-anchor="middle" x="534" y="-11.3" font-family="Times,serif" font-size="14.00" fill="#0058ad">a 916 2</text>
<polyline fill="none" stroke="#0058ad" points="569,-0.5 569,-29.5 "/>
<text text-anchor="middle" x="608.5" y="-11.3" font-family="Times,serif" font-size="14.00" fill="#0058ad">r 909 [1]</text>
<polyline fill="none" stroke="#0058ad" points="648,-0.5 648,-29.5 "/>
<text text-anchor="middle" x="683" y="-11.3" font-family="Times,serif" font-size="14.00" fill="#0058ad">r 915 []</text>
</g>
<!-- T2222&#45;&gt;T2225 -->
<g id="edge1" class="edge">
<title>T2222:f1&#45;&gt;T2225:f5</title>
<path fill="none" stroke="#5b00c0" d="M254,-81C254,-22.3 369.62,-84.02 383.62,-39.91"/>
<polygon fill="#5b00c0" stroke="#5b00c0" points="387.08,-40.39 385,-30 380.15,-39.42 387.08,-40.39"/>
<text text-anchor="middle" x="388.5" y="-51.8" font-family="Times,serif" font-size="14.00" fill="#5b00c0">rw</text>
</g>
<!-- T2225&#45;&gt;T2222 -->
<g id="edge2" class="edge">
<title>T2225:f1&#45;&gt;T2222:f0</title>
<path fill="none" stroke="#5b00c0" d="M105,-30C105,-61.32 111.39,-89.42 137.8,-95"/>
<polygon fill="#5b00c0" stroke="#5b00c0" points="137.71,-98.5 148,-96 138.39,-91.54 137.71,-98.5"/>
<text text-anchor="middle" x="118.5" y="-51.8" font-family="Times,serif" font-size="14.00" fill="#5b00c0">rw</text>
</g>
</g>
</svg>
