<?xml version="1.0" encoding="UTF-8" standalone="no"?>
<!DOCTYPE svg PUBLIC "-//W3C//DTD SVG 1.1//EN"
 "http://www.w3.org/Graphics/SVG/1.1/DTD/svg11.dtd">
<!-- Generated by graphviz version 2.43.0 (0)
 -->
<!-- Title: a_graph Pages: 1 -->
<svg width="1175pt" height="524pt"
 viewBox="0.00 0.00 1175.06 524.00" xmlns="http://www.w3.org/2000/svg" xmlns:xlink="http://www.w3.org/1999/xlink">
<g id="graph0" class="graph" transform="scale(1 1) rotate(0) translate(4 520)">
<title>a_graph</title>
<polygon fill="white" stroke="transparent" points="-4,4 -4,-520 1171.06,-520 1171.06,4 -4,4"/>
<!-- T193 -->
<g id="node1" class="node">
<title>T193</title>
<polygon fill="none" stroke="#0058ad" points="35.56,-486.5 35.56,-515.5 860.56,-515.5 860.56,-486.5 35.56,-486.5"/>
<text text-anchor="middle" x="66.06" y="-497.3" font-family="Times,serif" font-size="14.00" fill="#0058ad">a 84 1</text>
<polyline fill="none" stroke="#0058ad" points="96.56,-486.5 96.56,-515.5 "/>
<text text-anchor="middle" x="127.06" y="-497.3" font-family="Times,serif" font-size="14.00" fill="#0058ad">a 79 4</text>
<polyline fill="none" stroke="#0058ad" points="157.56,-486.5 157.56,-515.5 "/>
<text text-anchor="middle" x="192.56" y="-497.3" font-family="Times,serif" font-size="14.00" fill="#0058ad">r 84 [1]</text>
<polyline fill="none" stroke="#0058ad" points="227.56,-486.5 227.56,-515.5 "/>
<text text-anchor="middle" x="262.56" y="-497.3" font-family="Times,serif" font-size="14.00" fill="#0058ad">r 78 [1]</text>
<polyline fill="none" stroke="#0058ad" points="297.56,-486.5 297.56,-515.5 "/>
<text text-anchor="middle" x="332.56" y="-497.3" font-family="Times,serif" font-size="14.00" fill="#0058ad">r 84 [1]</text>
<polyline fill="none" stroke="#0058ad" points="367.56,-486.5 367.56,-515.5 "/>
<text text-anchor="middle" x="398.06" y="-497.3" font-family="Times,serif" font-size="14.00" fill="#0058ad">a 84 2</text>
<polyline fill="none" stroke="#0058ad" points="428.56,-486.5 428.56,-515.5 "/>
<text text-anchor="middle" x="470.06" y="-497.3" font-family="Times,serif" font-size="14.00" fill="#0058ad">r 84 [1 2]</text>
<polyline fill="none" stroke="#0058ad" points="511.56,-486.5 511.56,-515.5 "/>
<text text-anchor="middle" x="553.06" y="-497.3" font-family="Times,serif" font-size="14.00" fill="#0058ad">r 84 [1 2]</text>
<polyline fill="none" stroke="#0058ad" points="594.56,-486.5 594.56,-515.5 "/>
<text text-anchor="middle" x="625.06" y="-497.3" font-family="Times,serif" font-size="14.00" fill="#0058ad">r 82 []</text>
<polyline fill="none" stroke="#0058ad" points="655.56,-486.5 655.56,-515.5 "/>
<text text-anchor="middle" x="686.06" y="-497.3" font-family="Times,serif" font-size="14.00" fill="#0058ad">a 84 3</text>
<polyline fill="none" stroke="#0058ad" points="716.56,-486.5 716.56,-515.5 "/>
<text text-anchor="middle" x="747.06" y="-497.3" font-family="Times,serif" font-size="14.00" fill="#0058ad">a 84 4</text>
<polyline fill="none" stroke="#0058ad" points="777.56,-486.5 777.56,-515.5 "/>
<text text-anchor="middle" x="819.06" y="-497.3" font-family="Times,serif" font-size="14.00" fill="#0058ad">r 79 [1 4]</text>
</g>
<!-- T189 -->
<g id="node3" class="node">
<title>T189</title>
<polygon fill="none" stroke="#0058ad" points="120.56,-405.5 120.56,-434.5 727.56,-434.5 727.56,-405.5 120.56,-405.5"/>
<text text-anchor="middle" x="151.06" y="-416.3" font-family="Times,serif" font-size="14.00" fill="#0058ad">a 83 2</text>
<polyline fill="none" stroke="#0058ad" points="181.56,-405.5 181.56,-434.5 "/>
<text text-anchor="middle" x="212.06" y="-416.3" font-family="Times,serif" font-size="14.00" fill="#0058ad">a 82 3</text>
<polyline fill="none" stroke="#0058ad" points="242.56,-405.5 242.56,-434.5 "/>
<text text-anchor="middle" x="273.06" y="-416.3" font-family="Times,serif" font-size="14.00" fill="#0058ad">r 78 []</text>
<polyline fill="none" stroke="#0058ad" points="303.56,-405.5 303.56,-434.5 "/>
<text text-anchor="middle" x="334.06" y="-416.3" font-family="Times,serif" font-size="14.00" fill="#0058ad">a 83 3</text>
<polyline fill="none" stroke="#0058ad" points="364.56,-405.5 364.56,-434.5 "/>
<text text-anchor="middle" x="399.56" y="-416.3" font-family="Times,serif" font-size="14.00" fill="#0058ad">r 82 [3]</text>
<polyline fill="none" stroke="#0058ad" points="434.56,-405.5 434.56,-434.5 "/>
<text text-anchor="middle" x="465.06" y="-416.3" font-family="Times,serif" font-size="14.00" fill="#0058ad">a 83 4</text>
<polyline fill="none" stroke="#0058ad" points="495.56,-405.5 495.56,-434.5 "/>
<text text-anchor="middle" x="526.06" y="-416.3" font-family="Times,serif" font-size="14.00" fill="#0058ad">a 83 5</text>
<polyline fill="none" stroke="#0058ad" points="556.56,-405.5 556.56,-434.5 "/>
<text text-anchor="middle" x="611.56" y="-416.3" font-family="Times,serif" font-size="14.00" fill="#0058ad">r 83 [2 3 4 5]</text>
<polyline fill="none" stroke="#0058ad" points="666.56,-405.5 666.56,-434.5 "/>
<text text-anchor="middle" x="697.06" y="-416.3" font-family="Times,serif" font-size="14.00" fill="#0058ad">a 82 4</text>
</g>
<!-- T193&#45;&gt;T189 -->
<g id="edge1" class="edge">
<title>T193:f8&#45;&gt;T189:f1</title>
<path fill="none" stroke="#5b00c0" d="M625.06,-486C625.06,-304.66 228.03,-607.68 212.52,-445.27"/>
<polygon fill="#5b00c0" stroke="#5b00c0" points="216.01,-444.83 212.06,-435 209.02,-445.15 216.01,-444.83"/>
<text text-anchor="middle" x="632.56" y="-456.8" font-family="Times,serif" font-size="14.00" fill="#5b00c0">rw</text>
</g>
<!-- T204 -->
<g id="node5" class="node">
<title>T204</title>
<polygon fill="none" stroke="#0058ad" points="349.06,-0.5 349.06,-29.5 1167.06,-29.5 1167.06,-0.5 349.06,-0.5"/>
<text text-anchor="middle" x="379.56" y="-11.3" font-family="Times,serif" font-size="14.00" fill="#0058ad">r 86 []</text>
<polyline fill="none" stroke="#0058ad" points="410.06,-0.5 410.06,-29.5 "/>
<text text-anchor="middle" x="440.56" y="-11.3" font-family="Times,serif" font-size="14.00" fill="#0058ad">a 86 2</text>
<polyline fill="none" stroke="#0058ad" points="471.06,-0.5 471.06,-29.5 "/>
<text text-anchor="middle" x="501.56" y="-11.3" font-family="Times,serif" font-size="14.00" fill="#0058ad">a 86 3</text>
<polyline fill="none" stroke="#0058ad" points="532.06,-0.5 532.06,-29.5 "/>
<text text-anchor="middle" x="562.56" y="-11.3" font-family="Times,serif" font-size="14.00" fill="#0058ad">a 86 4</text>
<polyline fill="none" stroke="#0058ad" points="593.06,-0.5 593.06,-29.5 "/>
<text text-anchor="middle" x="623.56" y="-11.3" font-family="Times,serif" font-size="14.00" fill="#0058ad">a 86 5</text>
<polyline fill="none" stroke="#0058ad" points="654.06,-0.5 654.06,-29.5 "/>
<text text-anchor="middle" x="684.56" y="-11.3" font-family="Times,serif" font-size="14.00" fill="#0058ad">r 88 []</text>
<polyline fill="none" stroke="#0058ad" points="715.06,-0.5 715.06,-29.5 "/>
<text text-anchor="middle" x="770.06" y="-11.3" font-family="Times,serif" font-size="14.00" fill="#0058ad">r 86 [2 3 4 5]</text>
<polyline fill="none" stroke="#0058ad" points="825.06,-0.5 825.06,-29.5 "/>
<text text-anchor="middle" x="855.56" y="-11.3" font-family="Times,serif" font-size="14.00" fill="#0058ad">a 78 3</text>
<polyline fill="none" stroke="#0058ad" points="886.06,-0.5 886.06,-29.5 "/>
<text text-anchor="middle" x="941.06" y="-11.3" font-family="Times,serif" font-size="14.00" fill="#0058ad">r 86 [2 3 4 5]</text>
<polyline fill="none" stroke="#0058ad" points="996.06,-0.5 996.06,-29.5 "/>
<text text-anchor="middle" x="1026.56" y="-11.3" font-family="Times,serif" font-size="14.00" fill="#0058ad">r 75 []</text>
<polyline fill="none" stroke="#0058ad" points="1057.06,-0.5 1057.06,-29.5 "/>
<text text-anchor="middle" x="1112.06" y="-11.3" font-family="Times,serif" font-size="14.00" fill="#0058ad">r 86 [2 3 4 5]</text>
</g>
<!-- T193&#45;&gt;T204 -->
<g id="edge2" class="edge">
<title>T193:f3&#45;&gt;T204:f7</title>
<path fill="none" stroke="#5b00c0" d="M262.06,-486C262.06,-461.87 672.03,-470.28 696.06,-468 836.97,-454.6 1011.06,-562.55 1011.06,-421 1011.06,-421 1011.06,-421 1011.06,-216.5 1011.06,-153.83 1011.51,-129.69 972.06,-81 952.41,-56.75 938.74,-60.31 910.06,-48 890.99,-39.81 866.87,-49.97 858.81,-39.92"/>
<polygon fill="#5b00c0" stroke="#5b00c0" points="862.11,-38.7 856.06,-30 855.36,-40.57 862.11,-38.7"/>
<text text-anchor="middle" x="1020.56" y="-254.3" font-family="Times,serif" font-size="14.00" fill="#5b00c0">rw</text>
</g>
<!-- T205 -->
<g id="node7" class="node">
<title>T205</title>
<polygon fill="none" stroke="#0058ad" points="19.06,-81.5 19.06,-110.5 813.06,-110.5 813.06,-81.5 19.06,-81.5"/>
<text text-anchor="middle" x="49.56" y="-92.3" font-family="Times,serif" font-size="14.00" fill="#0058ad">r 88 []</text>
<polyline fill="none" stroke="#0058ad" points="80.06,-81.5 80.06,-110.5 "/>
<text text-anchor="middle" x="115.06" y="-92.3" font-family="Times,serif" font-size="14.00" fill="#0058ad">r 78 [1]</text>
<polyline fill="none" stroke="#0058ad" points="150.06,-81.5 150.06,-110.5 "/>
<text text-anchor="middle" x="180.56" y="-92.3" font-family="Times,serif" font-size="14.00" fill="#0058ad">r 86 []</text>
<polyline fill="none" stroke="#0058ad" points="211.06,-81.5 211.06,-110.5 "/>
<text text-anchor="middle" x="241.56" y="-92.3" font-family="Times,serif" font-size="14.00" fill="#0058ad">a 87 1</text>
<polyline fill="none" stroke="#0058ad" points="272.06,-81.5 272.06,-110.5 "/>
<text text-anchor="middle" x="302.56" y="-92.3" font-family="Times,serif" font-size="14.00" fill="#0058ad">r 88 []</text>
<polyline fill="none" stroke="#0058ad" points="333.06,-81.5 333.06,-110.5 "/>
<text text-anchor="middle" x="363.56" y="-92.3" font-family="Times,serif" font-size="14.00" fill="#0058ad">a 89 1</text>
<polyline fill="none" stroke="#0058ad" points="394.06,-81.5 394.06,-110.5 "/>
<text text-anchor="middle" x="435.56" y="-92.3" font-family="Times,serif" font-size="14.00" fill="#0058ad">r 75 [3 4]</text>
<polyline fill="none" stroke="#0058ad" points="477.06,-81.5 477.06,-110.5 "/>
<text text-anchor="middle" x="512.06" y="-92.3" font-family="Times,serif" font-size="14.00" fill="#0058ad">r 89 [1]</text>
<polyline fill="none" stroke="#0058ad" points="547.06,-81.5 547.06,-110.5 "/>
<text text-anchor="middle" x="577.56" y="-92.3" font-family="Times,serif" font-size="14.00" fill="#0058ad">a 89 2</text>
<polyline fill="none" stroke="#0058ad" points="608.06,-81.5 608.06,-110.5 "/>
<text text-anchor="middle" x="638.56" y="-92.3" font-family="Times,serif" font-size="14.00" fill="#0058ad">a 88 1</text>
<polyline fill="none" stroke="#0058ad" points="669.06,-81.5 669.06,-110.5 "/>
<text text-anchor="middle" x="710.56" y="-92.3" font-family="Times,serif" font-size="14.00" fill="#0058ad">r 89 [1 2]</text>
<polyline fill="none" stroke="#0058ad" points="752.06,-81.5 752.06,-110.5 "/>
<text text-anchor="middle" x="782.56" y="-92.3" font-family="Times,serif" font-size="14.00" fill="#0058ad">a 88 2</text>
</g>
<!-- T193&#45;&gt;T205 -->
<g id="edge3" class="edge">
<title>T193&#45;&gt;T205</title>
<path fill="none" stroke="#0050c0" d="M292.3,-486.49C217.08,-476.78 137.45,-460.74 111.06,-435 65.21,-390.29 62.06,-363.54 62.06,-299.5 62.06,-299.5 62.06,-299.5 62.06,-176 62.06,-146.46 82.39,-141.71 109.06,-129 124.17,-121.8 150.2,-116.21 180.91,-111.87"/>
<polygon fill="#0050c0" stroke="#0050c0" points="181.6,-115.31 191.04,-110.5 180.66,-108.37 181.6,-115.31"/>
<text text-anchor="middle" x="69.56" y="-294.8" font-family="Times,serif" font-size="14.00" fill="#0050c0">rt</text>
</g>
<!-- T197 -->
<g id="node2" class="node">
<title>T197</title>
<polygon fill="none" stroke="#0058ad" points="302.06,-243.5 302.06,-272.5 930.06,-272.5 930.06,-243.5 302.06,-243.5"/>
<text text-anchor="middle" x="337.06" y="-254.3" font-family="Times,serif" font-size="14.00" fill="#0058ad">r 78 [1]</text>
<polyline fill="none" stroke="#0058ad" points="372.06,-243.5 372.06,-272.5 "/>
<text text-anchor="middle" x="402.56" y="-254.3" font-family="Times,serif" font-size="14.00" fill="#0058ad">a 82 5</text>
<polyline fill="none" stroke="#0058ad" points="433.06,-243.5 433.06,-272.5 "/>
<text text-anchor="middle" x="468.06" y="-254.3" font-family="Times,serif" font-size="14.00" fill="#0058ad">r 79 [1]</text>
<polyline fill="none" stroke="#0058ad" points="503.06,-243.5 503.06,-272.5 "/>
<text text-anchor="middle" x="538.06" y="-254.3" font-family="Times,serif" font-size="14.00" fill="#0058ad">r 78 [1]</text>
<polyline fill="none" stroke="#0058ad" points="573.06,-243.5 573.06,-272.5 "/>
<text text-anchor="middle" x="603.56" y="-254.3" font-family="Times,serif" font-size="14.00" fill="#0058ad">a 75 3</text>
<polyline fill="none" stroke="#0058ad" points="634.06,-243.5 634.06,-272.5 "/>
<text text-anchor="middle" x="664.56" y="-254.3" font-family="Times,serif" font-size="14.00" fill="#0058ad">r 84 []</text>
<polyline fill="none" stroke="#0058ad" points="695.06,-243.5 695.06,-272.5 "/>
<text text-anchor="middle" x="725.56" y="-254.3" font-family="Times,serif" font-size="14.00" fill="#0058ad">a 75 4</text>
<polyline fill="none" stroke="#0058ad" points="756.06,-243.5 756.06,-272.5 "/>
<text text-anchor="middle" x="786.56" y="-254.3" font-family="Times,serif" font-size="14.00" fill="#0058ad">r 85 []</text>
<polyline fill="none" stroke="#0058ad" points="817.06,-243.5 817.06,-272.5 "/>
<text text-anchor="middle" x="843.06" y="-254.3" font-family="Times,serif" font-size="14.00" fill="#0058ad">a 1 3</text>
<polyline fill="none" stroke="#0058ad" points="869.06,-243.5 869.06,-272.5 "/>
<text text-anchor="middle" x="899.56" y="-254.3" font-family="Times,serif" font-size="14.00" fill="#0058ad">r 84 []</text>
</g>
<!-- T197&#45;&gt;T193 -->
<g id="edge4" class="edge">
<title>T197:f5&#45;&gt;T193:f0</title>
<path fill="none" stroke="#5b00c0" d="M665.06,-273C665.06,-357 796.3,-257.06 847.06,-324 855.11,-334.62 853.37,-342.25 847.06,-354 827.63,-390.16 802.45,-379.79 770.06,-405 754.42,-417.17 755.42,-427.54 737.06,-435 682.78,-457.06 268.16,-445.42 210.06,-453 148.64,-461.01 74.95,-424.84 66.8,-475.84"/>
<polygon fill="#5b00c0" stroke="#5b00c0" points="63.3,-475.77 66.06,-486 70.28,-476.28 63.3,-475.77"/>
<text text-anchor="middle" x="842.56" y="-375.8" font-family="Times,serif" font-size="14.00" fill="#5b00c0">rw</text>
</g>
<!-- T197&#45;&gt;T204 -->
<g id="edge5" class="edge">
<title>T197:f0&#45;&gt;T204:f7</title>
<path fill="none" stroke="#5b00c0" d="M337.06,-243C337.06,-225.11 479.33,-227.38 497.06,-225 591.57,-212.33 617.09,-217.2 709.06,-192 786.69,-170.73 835.87,-183.4 871.06,-111 883.31,-85.79 877.39,-74.43 868.06,-48 866.46,-43.47 863.46,-41.37 860.86,-39.21"/>
<polygon fill="#5b00c0" stroke="#5b00c0" points="863.78,-37.25 856.06,-30 857.58,-40.49 863.78,-37.25"/>
<text text-anchor="middle" x="869.56" y="-132.8" font-family="Times,serif" font-size="14.00" fill="#5b00c0">rw</text>
</g>
<!-- T198 -->
<g id="node6" class="node">
<title>T198</title>
<polygon fill="none" stroke="#0058ad" points="132.56,-162.5 132.56,-191.5 699.56,-191.5 699.56,-162.5 132.56,-162.5"/>
<text text-anchor="middle" x="163.06" y="-173.3" font-family="Times,serif" font-size="14.00" fill="#0058ad">r 84 []</text>
<polyline fill="none" stroke="#0058ad" points="193.56,-162.5 193.56,-191.5 "/>
<text text-anchor="middle" x="224.06" y="-173.3" font-family="Times,serif" font-size="14.00" fill="#0058ad">r 84 []</text>
<polyline fill="none" stroke="#0058ad" points="254.56,-162.5 254.56,-191.5 "/>
<text text-anchor="middle" x="285.06" y="-173.3" font-family="Times,serif" font-size="14.00" fill="#0058ad">a 85 1</text>
<polyline fill="none" stroke="#0058ad" points="315.56,-162.5 315.56,-191.5 "/>
<text text-anchor="middle" x="346.06" y="-173.3" font-family="Times,serif" font-size="14.00" fill="#0058ad">r 84 []</text>
<polyline fill="none" stroke="#0058ad" points="376.56,-162.5 376.56,-191.5 "/>
<text text-anchor="middle" x="411.56" y="-173.3" font-family="Times,serif" font-size="14.00" fill="#0058ad">r 85 [1]</text>
<polyline fill="none" stroke="#0058ad" points="446.56,-162.5 446.56,-191.5 "/>
<text text-anchor="middle" x="477.06" y="-173.3" font-family="Times,serif" font-size="14.00" fill="#0058ad">a 85 2</text>
<polyline fill="none" stroke="#0058ad" points="507.56,-162.5 507.56,-191.5 "/>
<text text-anchor="middle" x="538.06" y="-173.3" font-family="Times,serif" font-size="14.00" fill="#0058ad">a 85 3</text>
<polyline fill="none" stroke="#0058ad" points="568.56,-162.5 568.56,-191.5 "/>
<text text-anchor="middle" x="599.06" y="-173.3" font-family="Times,serif" font-size="14.00" fill="#0058ad">a 85 4</text>
<polyline fill="none" stroke="#0058ad" points="629.56,-162.5 629.56,-191.5 "/>
<text text-anchor="middle" x="664.56" y="-173.3" font-family="Times,serif" font-size="14.00" fill="#0058ad">r 78 [1]</text>
</g>
<!-- T197&#45;&gt;T198 -->
<g id="edge7" class="edge">
<title>T197:f7&#45;&gt;T198:f2</title>
<path fill="none" stroke="#5b00c0" d="M787.06,-243C787.06,-22.24 300.62,-403.99 285.42,-202.06"/>
<polygon fill="#5b00c0" stroke="#5b00c0" points="288.92,-201.87 285.06,-192 281.92,-202.12 288.92,-201.87"/>
<text text-anchor="middle" x="793.56" y="-213.8" font-family="Times,serif" font-size="14.00" fill="#5b00c0">rw</text>
</g>
<!-- T197&#45;&gt;T205 -->
<g id="edge6" class="edge">
<title>T197:f6&#45;&gt;T205:f6</title>
<path fill="none" stroke="#c000a5" d="M726.06,-243C726.06,-206.22 735.36,-187.72 709.06,-162 623.4,-78.22 446.8,-225.34 436.53,-121.14"/>
<polygon fill="#c000a5" stroke="#c000a5" points="440.02,-120.83 436.06,-111 433.02,-121.15 440.02,-120.83"/>
<text text-anchor="middle" x="735.56" y="-173.3" font-family="Times,serif" font-size="14.00" fill="#c000a5">wr</text>
</g>
<!-- T189&#45;&gt;T197 -->
<g id="edge11" class="edge">
<title>T189:f1&#45;&gt;T197:f1</title>
<path fill="none" stroke="#c02700" d="M212.06,-405C212.06,-365.6 219.34,-350.96 248.06,-324 278.82,-295.13 296.92,-303.97 337.06,-291 361.57,-283.08 391.96,-297.62 400.02,-282.84"/>
<polygon fill="#c02700" stroke="#c02700" points="403.45,-283.5 402.06,-273 396.6,-282.08 403.45,-283.5"/>
<text text-anchor="middle" x="260.56" y="-335.3" font-family="Times,serif" font-size="14.00" fill="#c02700">ww</text>
</g>
<!-- T186 -->
<g id="node4" class="node">
<title>T186</title>
<polygon fill="none" stroke="#0058ad" points="282.56,-324.5 282.56,-353.5 837.56,-353.5 837.56,-324.5 282.56,-324.5"/>
<text text-anchor="middle" x="313.06" y="-335.3" font-family="Times,serif" font-size="14.00" fill="#0058ad">a 80 1</text>
<polyline fill="none" stroke="#0058ad" points="343.56,-324.5 343.56,-353.5 "/>
<text text-anchor="middle" x="385.06" y="-335.3" font-family="Times,serif" font-size="14.00" fill="#0058ad">r 77 [1 2]</text>
<polyline fill="none" stroke="#0058ad" points="426.56,-324.5 426.56,-353.5 "/>
<text text-anchor="middle" x="457.06" y="-335.3" font-family="Times,serif" font-size="14.00" fill="#0058ad">a 80 2</text>
<polyline fill="none" stroke="#0058ad" points="487.56,-324.5 487.56,-353.5 "/>
<text text-anchor="middle" x="518.06" y="-335.3" font-family="Times,serif" font-size="14.00" fill="#0058ad">a 77 4</text>
<polyline fill="none" stroke="#0058ad" points="548.56,-324.5 548.56,-353.5 "/>
<text text-anchor="middle" x="579.06" y="-335.3" font-family="Times,serif" font-size="14.00" fill="#0058ad">a 78 1</text>
<polyline fill="none" stroke="#0058ad" points="609.56,-324.5 609.56,-353.5 "/>
<text text-anchor="middle" x="640.06" y="-335.3" font-family="Times,serif" font-size="14.00" fill="#0058ad">a 79 1</text>
<polyline fill="none" stroke="#0058ad" points="670.56,-324.5 670.56,-353.5 "/>
<text text-anchor="middle" x="719.06" y="-335.3" font-family="Times,serif" font-size="14.00" fill="#0058ad">r 77 [1 2 4]</text>
<polyline fill="none" stroke="#0058ad" points="767.56,-324.5 767.56,-353.5 "/>
<text text-anchor="middle" x="802.56" y="-335.3" font-family="Times,serif" font-size="14.00" fill="#0058ad">r 78 [1]</text>
</g>
<!-- T189&#45;&gt;T186 -->
<g id="edge10" class="edge">
<title>T189:f2&#45;&gt;T186:f4</title>
<path fill="none" stroke="#5b00c0" d="M273.06,-405C273.06,-270.76 563.13,-480.28 578.43,-364.16"/>
<polygon fill="#5b00c0" stroke="#5b00c0" points="581.94,-364.2 579.06,-354 574.95,-363.77 581.94,-364.2"/>
<text text-anchor="middle" x="584.56" y="-375.8" font-family="Times,serif" font-size="14.00" fill="#5b00c0">rw</text>
</g>
<!-- T189&#45;&gt;T204 -->
<g id="edge9" class="edge">
<title>T189&#45;&gt;T204</title>
<path fill="none" stroke="#0050c0" d="M335.53,-405.49C314.64,-400.87 292.73,-394.83 273.06,-387 189.75,-353.85 -50.84,-146.81 10.06,-81 27.62,-62.02 216.29,-65.17 242.06,-63 364.26,-52.69 502.65,-40.04 605.33,-30.45"/>
<polygon fill="#0050c0" stroke="#0050c0" points="605.83,-33.92 615.47,-29.51 605.18,-26.95 605.83,-33.92"/>
<text text-anchor="middle" x="73.56" y="-213.8" font-family="Times,serif" font-size="14.00" fill="#0050c0">rt</text>
</g>
<!-- T189&#45;&gt;T198 -->
<g id="edge8" class="edge">
<title>T189&#45;&gt;T198</title>
<path fill="none" stroke="#0050c0" d="M355.02,-405.46C325.22,-396.04 292.75,-380.26 273.06,-354 251.29,-324.98 265.28,-309.2 263.06,-273 262.24,-259.69 257.16,-254.96 263.06,-243 273.71,-221.39 284.57,-220.89 306.06,-210 318.19,-203.85 331.7,-198.71 344.97,-194.46"/>
<polygon fill="#0050c0" stroke="#0050c0" points="346.03,-197.8 354.57,-191.53 343.99,-191.11 346.03,-197.8"/>
<text text-anchor="middle" x="269.56" y="-294.8" font-family="Times,serif" font-size="14.00" fill="#0050c0">rt</text>
</g>
<!-- T186&#45;&gt;T193 -->
<g id="edge13" class="edge">
<title>T186:f5&#45;&gt;T193:f1</title>
<path fill="none" stroke="#c02700" d="M640.06,-354C640.06,-402.53 775.69,-379.89 737.06,-435 712.36,-470.23 688.3,-459.82 646.06,-468 619.95,-473.06 200.9,-459.57 135.59,-480.03"/>
<polygon fill="#c02700" stroke="#c02700" points="133.25,-477.4 127.06,-486 137.26,-483.14 133.25,-477.4"/>
<text text-anchor="middle" x="755.56" y="-416.3" font-family="Times,serif" font-size="14.00" fill="#c02700">ww</text>
</g>
<!-- T186&#45;&gt;T197 -->
<g id="edge16" class="edge">
<title>T186:f4&#45;&gt;T197:f0</title>
<path fill="none" stroke="#c000a5" d="M579.06,-324C579.06,-217.73 352.86,-372.01 337.84,-283.05"/>
<polygon fill="#c000a5" stroke="#c000a5" points="341.32,-282.7 337.06,-273 334.35,-283.24 341.32,-282.7"/>
<text text-anchor="middle" x="583.56" y="-294.8" font-family="Times,serif" font-size="14.00" fill="#c000a5">wr</text>
</g>
<!-- T186&#45;&gt;T204 -->
<g id="edge14" class="edge">
<title>T186:f4&#45;&gt;T204:f7</title>
<path fill="none" stroke="#c02700" d="M579.06,-324C579.06,-283.6 907.85,-298.65 939.06,-273 958.87,-256.71 958.06,-244.15 958.06,-218.5 958.06,-218.5 958.06,-218.5 958.06,-95 958.06,-94.31 888.77,-51.17 864.41,-35.56"/>
<polygon fill="#c02700" stroke="#c02700" points="866.32,-32.63 856.06,-30 862.44,-38.45 866.32,-32.63"/>
<text text-anchor="middle" x="970.56" y="-173.3" font-family="Times,serif" font-size="14.00" fill="#c02700">ww</text>
</g>
<!-- T186&#45;&gt;T198 -->
<g id="edge12" class="edge">
<title>T186:f4&#45;&gt;T198:f8</title>
<path fill="none" stroke="#c000a5" d="M579.06,-324C579.06,-297.04 362.98,-313.41 337.06,-306 298.98,-295.12 247.93,-272.76 274.06,-243 329.39,-179.98 636.93,-271.13 663.26,-202.27"/>
<polygon fill="#c000a5" stroke="#c000a5" points="666.78,-202.45 665.06,-192 659.89,-201.25 666.78,-202.45"/>
<text text-anchor="middle" x="283.56" y="-254.3" font-family="Times,serif" font-size="14.00" fill="#c000a5">wr</text>
</g>
<!-- T186&#45;&gt;T205 -->
<g id="edge15" class="edge">
<title>T186:f4&#45;&gt;T205:f1</title>
<path fill="none" stroke="#c000a5" d="M579.06,-324C579.06,-292.16 323.21,-316.22 293.06,-306 206.9,-276.8 169.77,-270.06 123.06,-192 106.37,-164.11 113.21,-150.15 114.77,-121.37"/>
<polygon fill="#c000a5" stroke="#c000a5" points="118.28,-121.09 115.06,-111 111.28,-120.9 118.28,-121.09"/>
<text text-anchor="middle" x="155.56" y="-213.8" font-family="Times,serif" font-size="14.00" fill="#c000a5">wr</text>
</g>
<!-- T204&#45;&gt;T197 -->
<g id="edge17" class="edge">
<title>T204:f9&#45;&gt;T197:f4</title>
<path fill="none" stroke="#5b00c0" d="M1027.06,-30C1027.06,-173 883.87,-144.31 749.06,-192 687.68,-213.71 611.58,-178.38 603.72,-233.01"/>
<polygon fill="#5b00c0" stroke="#5b00c0" points="600.23,-232.79 603.06,-243 607.21,-233.25 600.23,-232.79"/>
<text text-anchor="middle" x="987.56" y="-132.8" font-family="Times,serif" font-size="14.00" fill="#5b00c0">rw</text>
</g>
<!-- T204&#45;&gt;T205 -->
<g id="edge18" class="edge">
<title>T204:f5&#45;&gt;T205:f9</title>
<path fill="none" stroke="#5b00c0" d="M684.06,-30C684.06,-56.21 650.22,-52.58 641.23,-70.87"/>
<polygon fill="#5b00c0" stroke="#5b00c0" points="637.73,-70.49 639.06,-81 644.58,-71.96 637.73,-70.49"/>
<text text-anchor="middle" x="683.56" y="-51.8" font-family="Times,serif" font-size="14.00" fill="#5b00c0">rw</text>
</g>
<!-- T198&#45;&gt;T193 -->
<g id="edge19" class="edge">
<title>T198:f0&#45;&gt;T193:f0</title>
<path fill="none" stroke="#5b00c0" d="M163.06,-192C163.06,-315.45 93.16,-332.13 68.06,-453 65.91,-463.34 65.82,-468.27 65.93,-475.69"/>
<polygon fill="#5b00c0" stroke="#5b00c0" points="62.44,-476.04 66.06,-486 69.44,-475.96 62.44,-476.04"/>
<text text-anchor="middle" x="134.56" y="-335.3" font-family="Times,serif" font-size="14.00" fill="#5b00c0">rw</text>
</g>
<!-- T198&#45;&gt;T204 -->
<g id="edge20" class="edge">
<title>T198:f8&#45;&gt;T204:f7</title>
<path fill="none" stroke="#5b00c0" d="M701.06,-177C792.57,-177 851.67,-128.64 855.82,-40.12"/>
<polygon fill="#5b00c0" stroke="#5b00c0" points="859.33,-40.08 856.06,-30 852.33,-39.92 859.33,-40.08"/>
<text text-anchor="middle" x="857.56" y="-92.3" font-family="Times,serif" font-size="14.00" fill="#5b00c0">rw</text>
</g>
<!-- T198&#45;&gt;T205 -->
<g id="edge21" class="edge">
<title>T198&#45;&gt;T205</title>
<path fill="none" stroke="#0050c0" d="M416.06,-162.24C416.06,-150.8 416.06,-134.25 416.06,-120.69"/>
<polygon fill="#0050c0" stroke="#0050c0" points="419.56,-120.6 416.06,-110.6 412.56,-120.6 419.56,-120.6"/>
<text text-anchor="middle" x="422.56" y="-132.8" font-family="Times,serif" font-size="14.00" fill="#0050c0">rt</text>
</g>
<!-- T205&#45;&gt;T204 -->
<g id="edge22" class="edge">
<title>T205:f2&#45;&gt;T204:f1</title>
<path fill="none" stroke="#5b00c0" d="M180.06,-81C180.06,33.08 424.06,-136.52 439.31,-40.17"/>
<polygon fill="#5b00c0" stroke="#5b00c0" points="442.82,-40.23 440.06,-30 435.84,-39.72 442.82,-40.23"/>
<text text-anchor="middle" x="446.56" y="-51.8" font-family="Times,serif" font-size="14.00" fill="#5b00c0">rw</text>
</g>
</g>
</svg>
