<?xml version="1.0" encoding="UTF-8" standalone="no"?>
<!DOCTYPE svg PUBLIC "-//W3C//DTD SVG 1.1//EN"
 "http://www.w3.org/Graphics/SVG/1.1/DTD/svg11.dtd">
<!-- Generated by graphviz version 2.43.0 (0)
 -->
<!-- Title: a_graph Pages: 1 -->
<svg width="1488pt" height="200pt"
 viewBox="0.00 0.00 1487.50 200.00" xmlns="http://www.w3.org/2000/svg" xmlns:xlink="http://www.w3.org/1999/xlink">
<g id="graph0" class="graph" transform="scale(1 1) rotate(0) translate(4 196)">
<title>a_graph</title>
<polygon fill="white" stroke="transparent" points="-4,4 -4,-196 1483.5,-196 1483.5,4 -4,4"/>
<!-- T2908 -->
<g id="node1" class="node">
<title>T2908</title>
<polygon fill="none" stroke="#0058ad" points="0,-162.5 0,-191.5 1071,-191.5 1071,-162.5 0,-162.5"/>
<text text-anchor="middle" x="39.5" y="-173.3" font-family="Times,serif" font-size="14.00" fill="#0058ad">a 1208 4</text>
<polyline fill="none" stroke="#0058ad" points="79,-162.5 79,-191.5 "/>
<text text-anchor="middle" x="118.5" y="-173.3" font-family="Times,serif" font-size="14.00" fill="#0058ad">r 1204 []</text>
<polyline fill="none" stroke="#0058ad" points="158,-162.5 158,-191.5 "/>
<text text-anchor="middle" x="215.5" y="-173.3" font-family="Times,serif" font-size="14.00" fill="#0058ad">r 1208 [2 3 4]</text>
<polyline fill="none" stroke="#0058ad" points="273,-162.5 273,-191.5 "/>
<text text-anchor="middle" x="330.5" y="-173.3" font-family="Times,serif" font-size="14.00" fill="#0058ad">r 1208 [2 3 4]</text>
<polyline fill="none" stroke="#0058ad" points="388,-162.5 388,-191.5 "/>
<text text-anchor="middle" x="445.5" y="-173.3" font-family="Times,serif" font-size="14.00" fill="#0058ad">r 1171 [1 2 4]</text>
<polyline fill="none" stroke="#0058ad" points="503,-162.5 503,-191.5 "/>
<text text-anchor="middle" x="560.5" y="-173.3" font-family="Times,serif" font-size="14.00" fill="#0058ad">r 1208 [2 3 4]</text>
<polyline fill="none" stroke="#0058ad" points="618,-162.5 618,-191.5 "/>
<text text-anchor="middle" x="657.5" y="-173.3" font-family="Times,serif" font-size="14.00" fill="#0058ad">a 1207 2</text>
<polyline fill="none" stroke="#0058ad" points="697,-162.5 697,-191.5 "/>
<text text-anchor="middle" x="754.5" y="-173.3" font-family="Times,serif" font-size="14.00" fill="#0058ad">r 1171 [1 2 4]</text>
<polyline fill="none" stroke="#0058ad" points="812,-162.5 812,-191.5 "/>
<text text-anchor="middle" x="862.5" y="-173.3" font-family="Times,serif" font-size="14.00" fill="#0058ad">r 1207 [1 2]</text>
<polyline fill="none" stroke="#0058ad" points="913,-162.5 913,-191.5 "/>
<text text-anchor="middle" x="952.5" y="-173.3" font-family="Times,serif" font-size="14.00" fill="#0058ad">r 1204 []</text>
<polyline fill="none" stroke="#0058ad" points="992,-162.5 992,-191.5 "/>
<text text-anchor="middle" x="1031.5" y="-173.3" font-family="Times,serif" font-size="14.00" fill="#0058ad">a 1208 5</text>
</g>
<!-- T2910 -->
<g id="node2" class="node">
<title>T2910</title>
<polygon fill="none" stroke="#0058ad" points="455.5,-81.5 455.5,-110.5 1479.5,-110.5 1479.5,-81.5 455.5,-81.5"/>
<text text-anchor="middle" x="495" y="-92.3" font-family="Times,serif" font-size="14.00" fill="#0058ad">a 1210 1</text>
<polyline fill="none" stroke="#0058ad" points="534.5,-81.5 534.5,-110.5 "/>
<text text-anchor="middle" x="574" y="-92.3" font-family="Times,serif" font-size="14.00" fill="#0058ad">a 1204 3</text>
<polyline fill="none" stroke="#0058ad" points="613.5,-81.5 613.5,-110.5 "/>
<text text-anchor="middle" x="657.5" y="-92.3" font-family="Times,serif" font-size="14.00" fill="#0058ad">r 1207 [1]</text>
<polyline fill="none" stroke="#0058ad" points="701.5,-81.5 701.5,-110.5 "/>
<text text-anchor="middle" x="745.5" y="-92.3" font-family="Times,serif" font-size="14.00" fill="#0058ad">r 1207 [1]</text>
<polyline fill="none" stroke="#0058ad" points="789.5,-81.5 789.5,-110.5 "/>
<text text-anchor="middle" x="829" y="-92.3" font-family="Times,serif" font-size="14.00" fill="#0058ad">a 1210 2</text>
<polyline fill="none" stroke="#0058ad" points="868.5,-81.5 868.5,-110.5 "/>
<text text-anchor="middle" x="912.5" y="-92.3" font-family="Times,serif" font-size="14.00" fill="#0058ad">r 1204 [3]</text>
<polyline fill="none" stroke="#0058ad" points="956.5,-81.5 956.5,-110.5 "/>
<text text-anchor="middle" x="996" y="-92.3" font-family="Times,serif" font-size="14.00" fill="#0058ad">a 1210 3</text>
<polyline fill="none" stroke="#0058ad" points="1035.5,-81.5 1035.5,-110.5 "/>
<text text-anchor="middle" x="1075" y="-92.3" font-family="Times,serif" font-size="14.00" fill="#0058ad">a 1210 4</text>
<polyline fill="none" stroke="#0058ad" points="1114.5,-81.5 1114.5,-110.5 "/>
<text text-anchor="middle" x="1178.5" y="-92.3" font-family="Times,serif" font-size="14.00" fill="#0058ad">r 1210 [1 2 3 4]</text>
<polyline fill="none" stroke="#0058ad" points="1242.5,-81.5 1242.5,-110.5 "/>
<text text-anchor="middle" x="1282" y="-92.3" font-family="Times,serif" font-size="14.00" fill="#0058ad">r 1209 []</text>
<polyline fill="none" stroke="#0058ad" points="1321.5,-81.5 1321.5,-110.5 "/>
<text text-anchor="middle" x="1361" y="-92.3" font-family="Times,serif" font-size="14.00" fill="#0058ad">a 1210 5</text>
<polyline fill="none" stroke="#0058ad" points="1400.5,-81.5 1400.5,-110.5 "/>
<text text-anchor="middle" x="1440" y="-92.3" font-family="Times,serif" font-size="14.00" fill="#0058ad">a 1212 1</text>
</g>
<!-- T2908&#45;&gt;T2910 -->
<g id="edge1" class="edge">
<title>T2908:f1&#45;&gt;T2910:f1</title>
<path fill="none" stroke="#5b00c0" d="M118.5,-162C118.5,-64.03 540.36,-201.78 571.67,-121.3"/>
<polygon fill="#5b00c0" stroke="#5b00c0" points="575.19,-121.46 573.5,-111 568.3,-120.23 575.19,-121.46"/>
<text text-anchor="middle" x="575" y="-132.8" font-family="Times,serif" font-size="14.00" fill="#5b00c0">rw</text>
</g>
<!-- T2912 -->
<g id="node3" class="node">
<title>T2912</title>
<polygon fill="none" stroke="#0058ad" points="351.5,-0.5 351.5,-29.5 1001.5,-29.5 1001.5,-0.5 351.5,-0.5"/>
<text text-anchor="middle" x="391" y="-11.3" font-family="Times,serif" font-size="14.00" fill="#0058ad">r 1210 []</text>
<polyline fill="none" stroke="#0058ad" points="430.5,-0.5 430.5,-29.5 "/>
<text text-anchor="middle" x="470" y="-11.3" font-family="Times,serif" font-size="14.00" fill="#0058ad">a 1213 1</text>
<polyline fill="none" stroke="#0058ad" points="509.5,-0.5 509.5,-29.5 "/>
<text text-anchor="middle" x="549" y="-11.3" font-family="Times,serif" font-size="14.00" fill="#0058ad">r 1209 []</text>
<polyline fill="none" stroke="#0058ad" points="588.5,-0.5 588.5,-29.5 "/>
<text text-anchor="middle" x="632.5" y="-11.3" font-family="Times,serif" font-size="14.00" fill="#0058ad">r 1213 [1]</text>
<polyline fill="none" stroke="#0058ad" points="676.5,-0.5 676.5,-29.5 "/>
<text text-anchor="middle" x="716" y="-11.3" font-family="Times,serif" font-size="14.00" fill="#0058ad">a 1209 3</text>
<polyline fill="none" stroke="#0058ad" points="755.5,-0.5 755.5,-29.5 "/>
<text text-anchor="middle" x="795" y="-11.3" font-family="Times,serif" font-size="14.00" fill="#0058ad">r 1212 []</text>
<polyline fill="none" stroke="#0058ad" points="834.5,-0.5 834.5,-29.5 "/>
<text text-anchor="middle" x="878.5" y="-11.3" font-family="Times,serif" font-size="14.00" fill="#0058ad">r 1213 [1]</text>
<polyline fill="none" stroke="#0058ad" points="922.5,-0.5 922.5,-29.5 "/>
<text text-anchor="middle" x="962" y="-11.3" font-family="Times,serif" font-size="14.00" fill="#0058ad">a 1209 4</text>
</g>
<!-- T2908&#45;&gt;T2912 -->
<g id="edge2" class="edge">
<title>T2908&#45;&gt;T2912</title>
<path fill="none" stroke="#0050c0" d="M500.9,-162.39C462.28,-145.18 408.3,-113.82 433.5,-81 450.81,-58.45 513.39,-42.02 570.7,-31.32"/>
<polygon fill="#0050c0" stroke="#0050c0" points="571.37,-34.76 580.58,-29.52 570.11,-27.87 571.37,-34.76"/>
<text text-anchor="middle" x="440" y="-92.3" font-family="Times,serif" font-size="14.00" fill="#0050c0">rt</text>
</g>
<!-- T2910&#45;&gt;T2908 -->
<g id="edge3" class="edge">
<title>T2910:f2&#45;&gt;T2908:f6</title>
<path fill="none" stroke="#5b00c0" d="M657.5,-111C657.5,-129.77 657.5,-136.88 657.5,-151.65"/>
<polygon fill="#5b00c0" stroke="#5b00c0" points="654,-152 657.5,-162 661,-152 654,-152"/>
<text text-anchor="middle" x="667" y="-132.8" font-family="Times,serif" font-size="14.00" fill="#5b00c0">rw</text>
</g>
<!-- T2910&#45;&gt;T2912 -->
<g id="edge4" class="edge">
<title>T2910:f9&#45;&gt;T2912:f4</title>
<path fill="none" stroke="#5b00c0" d="M1282.5,-81C1282.5,168 732.42,-269.85 716.84,-40.31"/>
<polygon fill="#5b00c0" stroke="#5b00c0" points="720.33,-39.88 716.5,-30 713.33,-40.11 720.33,-39.88"/>
<text text-anchor="middle" x="1289" y="-51.8" font-family="Times,serif" font-size="14.00" fill="#5b00c0">rw</text>
</g>
<!-- T2912&#45;&gt;T2910 -->
<g id="edge5" class="edge">
<title>T2912:f0&#45;&gt;T2910:f0</title>
<path fill="none" stroke="#5b00c0" d="M390.5,-30C390.5,-62.06 419.66,-57.54 441.5,-81 444.13,-83.82 445.26,-87.05 446.43,-89.78"/>
<polygon fill="#5b00c0" stroke="#5b00c0" points="444.44,-92.67 454.5,-96 448.72,-87.12 444.44,-92.67"/>
<text text-anchor="middle" x="425" y="-51.8" font-family="Times,serif" font-size="14.00" fill="#5b00c0">rw</text>
</g>
</g>
</svg>
