<?xml version="1.0" encoding="UTF-8" standalone="no"?>
<!DOCTYPE svg PUBLIC "-//W3C//DTD SVG 1.1//EN"
 "http://www.w3.org/Graphics/SVG/1.1/DTD/svg11.dtd">
<!-- Generated by graphviz version 2.43.0 (0)
 -->
<!-- Title: a_graph Pages: 1 -->
<svg width="880pt" height="119pt"
 viewBox="0.00 0.00 880.00 119.00" xmlns="http://www.w3.org/2000/svg" xmlns:xlink="http://www.w3.org/1999/xlink">
<g id="graph0" class="graph" transform="scale(1 1) rotate(0) translate(4 115)">
<title>a_graph</title>
<polygon fill="white" stroke="transparent" points="-4,4 -4,-115 876,-115 876,4 -4,4"/>
<!-- T986 -->
<g id="node1" class="node">
<title>T986</title>
<polygon fill="none" stroke="#0058ad" points="170.5,-81.5 170.5,-110.5 599.5,-110.5 599.5,-81.5 170.5,-81.5"/>
<text text-anchor="middle" x="205.5" y="-92.3" font-family="Times,serif" font-size="14.00" fill="#0058ad">a 405 3</text>
<polyline fill="none" stroke="#0058ad" points="240.5,-81.5 240.5,-110.5 "/>
<text text-anchor="middle" x="275.5" y="-92.3" font-family="Times,serif" font-size="14.00" fill="#0058ad">r 415 []</text>
<polyline fill="none" stroke="#0058ad" points="310.5,-81.5 310.5,-110.5 "/>
<text text-anchor="middle" x="345.5" y="-92.3" font-family="Times,serif" font-size="14.00" fill="#0058ad">r 409 []</text>
<polyline fill="none" stroke="#0058ad" points="380.5,-81.5 380.5,-110.5 "/>
<text text-anchor="middle" x="415.5" y="-92.3" font-family="Times,serif" font-size="14.00" fill="#0058ad">a 415 1</text>
<polyline fill="none" stroke="#0058ad" points="450.5,-81.5 450.5,-110.5 "/>
<text text-anchor="middle" x="490" y="-92.3" font-family="Times,serif" font-size="14.00" fill="#0058ad">r 415 [1]</text>
<polyline fill="none" stroke="#0058ad" points="529.5,-81.5 529.5,-110.5 "/>
<text text-anchor="middle" x="564.5" y="-92.3" font-family="Times,serif" font-size="14.00" fill="#0058ad">r 416 []</text>
</g>
<!-- T984 -->
<g id="node2" class="node">
<title>T984</title>
<polygon fill="none" stroke="#0058ad" points="0,-0.5 0,-29.5 872,-29.5 872,-0.5 0,-0.5"/>
<text text-anchor="middle" x="35" y="-11.3" font-family="Times,serif" font-size="14.00" fill="#0058ad">a 412 5</text>
<polyline fill="none" stroke="#0058ad" points="70,-0.5 70,-29.5 "/>
<text text-anchor="middle" x="129.5" y="-11.3" font-family="Times,serif" font-size="14.00" fill="#0058ad">r 412 [1 2 3 5]</text>
<polyline fill="none" stroke="#0058ad" points="189,-0.5 189,-29.5 "/>
<text text-anchor="middle" x="224" y="-11.3" font-family="Times,serif" font-size="14.00" fill="#0058ad">a 409 1</text>
<polyline fill="none" stroke="#0058ad" points="259,-0.5 259,-29.5 "/>
<text text-anchor="middle" x="305" y="-11.3" font-family="Times,serif" font-size="14.00" fill="#0058ad">r 408 [2 3]</text>
<polyline fill="none" stroke="#0058ad" points="351,-0.5 351,-29.5 "/>
<text text-anchor="middle" x="386" y="-11.3" font-family="Times,serif" font-size="14.00" fill="#0058ad">r 405 []</text>
<polyline fill="none" stroke="#0058ad" points="421,-0.5 421,-29.5 "/>
<text text-anchor="middle" x="456" y="-11.3" font-family="Times,serif" font-size="14.00" fill="#0058ad">r 405 []</text>
<polyline fill="none" stroke="#0058ad" points="491,-0.5 491,-29.5 "/>
<text text-anchor="middle" x="526" y="-11.3" font-family="Times,serif" font-size="14.00" fill="#0058ad">r 413 []</text>
<polyline fill="none" stroke="#0058ad" points="561,-0.5 561,-29.5 "/>
<text text-anchor="middle" x="600.5" y="-11.3" font-family="Times,serif" font-size="14.00" fill="#0058ad">r 409 [1]</text>
<polyline fill="none" stroke="#0058ad" points="640,-0.5 640,-29.5 "/>
<text text-anchor="middle" x="675" y="-11.3" font-family="Times,serif" font-size="14.00" fill="#0058ad">a 413 1</text>
<polyline fill="none" stroke="#0058ad" points="710,-0.5 710,-29.5 "/>
<text text-anchor="middle" x="756" y="-11.3" font-family="Times,serif" font-size="14.00" fill="#0058ad">r 408 [2 3]</text>
<polyline fill="none" stroke="#0058ad" points="802,-0.5 802,-29.5 "/>
<text text-anchor="middle" x="837" y="-11.3" font-family="Times,serif" font-size="14.00" fill="#0058ad">a 413 2</text>
</g>
<!-- T986&#45;&gt;T984 -->
<g id="edge1" class="edge">
<title>T986:f2&#45;&gt;T984:f2</title>
<path fill="none" stroke="#5b00c0" d="M345,-81C345,-53.16 310.71,-73.68 285,-63 260.31,-52.75 232.57,-58.64 225.64,-40.28"/>
<polygon fill="#5b00c0" stroke="#5b00c0" points="229.03,-39.33 224,-30 222.11,-40.43 229.03,-39.33"/>
<text text-anchor="middle" x="294.5" y="-51.8" font-family="Times,serif" font-size="14.00" fill="#5b00c0">rw</text>
</g>
<!-- T984&#45;&gt;T986 -->
<g id="edge2" class="edge">
<title>T984:f4&#45;&gt;T986:f0</title>
<path fill="none" stroke="#5b00c0" d="M386,-30C386,-69.28 341.74,-52.1 304,-63 285.96,-68.21 228.39,-61.59 210.42,-72.59"/>
<polygon fill="#5b00c0" stroke="#5b00c0" points="207.47,-70.7 205,-81 213.36,-74.49 207.47,-70.7"/>
<text text-anchor="middle" x="389.5" y="-51.8" font-family="Times,serif" font-size="14.00" fill="#5b00c0">rw</text>
</g>
</g>
</svg>
