<?xml version="1.0" encoding="UTF-8" standalone="no"?>
<!DOCTYPE svg PUBLIC "-//W3C//DTD SVG 1.1//EN"
 "http://www.w3.org/Graphics/SVG/1.1/DTD/svg11.dtd">
<!-- Generated by graphviz version 2.43.0 (0)
 -->
<!-- Title: a_graph Pages: 1 -->
<svg width="1092pt" height="119pt"
 viewBox="0.00 0.00 1092.00 119.00" xmlns="http://www.w3.org/2000/svg" xmlns:xlink="http://www.w3.org/1999/xlink">
<g id="graph0" class="graph" transform="scale(1 1) rotate(0) translate(4 115)">
<title>a_graph</title>
<polygon fill="white" stroke="transparent" points="-4,4 -4,-115 1088,-115 1088,4 -4,4"/>
<!-- T2502 -->
<g id="node1" class="node">
<title>T2502</title>
<polygon fill="none" stroke="#0058ad" points="0,-81.5 0,-110.5 905,-110.5 905,-81.5 0,-81.5"/>
<text text-anchor="middle" x="44" y="-92.3" font-family="Times,serif" font-size="14.00" fill="#0058ad">r 1018 [3]</text>
<polyline fill="none" stroke="#0058ad" points="88,-81.5 88,-110.5 "/>
<text text-anchor="middle" x="132" y="-92.3" font-family="Times,serif" font-size="14.00" fill="#0058ad">r 1038 [1]</text>
<polyline fill="none" stroke="#0058ad" points="176,-81.5 176,-110.5 "/>
<text text-anchor="middle" x="226.5" y="-92.3" font-family="Times,serif" font-size="14.00" fill="#0058ad">r 1034 [3 4]</text>
<polyline fill="none" stroke="#0058ad" points="277,-81.5 277,-110.5 "/>
<text text-anchor="middle" x="321" y="-92.3" font-family="Times,serif" font-size="14.00" fill="#0058ad">r 1038 [1]</text>
<polyline fill="none" stroke="#0058ad" points="365,-81.5 365,-110.5 "/>
<text text-anchor="middle" x="404.5" y="-92.3" font-family="Times,serif" font-size="14.00" fill="#0058ad">a 1038 4</text>
<polyline fill="none" stroke="#0058ad" points="444,-81.5 444,-110.5 "/>
<text text-anchor="middle" x="483.5" y="-92.3" font-family="Times,serif" font-size="14.00" fill="#0058ad">r 1031 []</text>
<polyline fill="none" stroke="#0058ad" points="523,-81.5 523,-110.5 "/>
<text text-anchor="middle" x="573.5" y="-92.3" font-family="Times,serif" font-size="14.00" fill="#0058ad">r 1038 [1 4]</text>
<polyline fill="none" stroke="#0058ad" points="624,-81.5 624,-110.5 "/>
<text text-anchor="middle" x="674.5" y="-92.3" font-family="Times,serif" font-size="14.00" fill="#0058ad">r 1034 [3 4]</text>
<polyline fill="none" stroke="#0058ad" points="725,-81.5 725,-110.5 "/>
<text text-anchor="middle" x="775.5" y="-92.3" font-family="Times,serif" font-size="14.00" fill="#0058ad">r 1034 [3 4]</text>
<polyline fill="none" stroke="#0058ad" points="826,-81.5 826,-110.5 "/>
<text text-anchor="middle" x="865.5" y="-92.3" font-family="Times,serif" font-size="14.00" fill="#0058ad">r 1042 []</text>
</g>
<!-- T2504 -->
<g id="node2" class="node">
<title>T2504</title>
<polygon fill="none" stroke="#0058ad" points="201,-0.5 201,-29.5 1084,-29.5 1084,-0.5 201,-0.5"/>
<text text-anchor="middle" x="240.5" y="-11.3" font-family="Times,serif" font-size="14.00" fill="#0058ad">r 1039 []</text>
<polyline fill="none" stroke="#0058ad" points="280,-0.5 280,-29.5 "/>
<text text-anchor="middle" x="319.5" y="-11.3" font-family="Times,serif" font-size="14.00" fill="#0058ad">a 1039 4</text>
<polyline fill="none" stroke="#0058ad" points="359,-0.5 359,-29.5 "/>
<text text-anchor="middle" x="403" y="-11.3" font-family="Times,serif" font-size="14.00" fill="#0058ad">r 1038 [1]</text>
<polyline fill="none" stroke="#0058ad" points="447,-0.5 447,-29.5 "/>
<text text-anchor="middle" x="486.5" y="-11.3" font-family="Times,serif" font-size="14.00" fill="#0058ad">a 1031 3</text>
<polyline fill="none" stroke="#0058ad" points="526,-0.5 526,-29.5 "/>
<text text-anchor="middle" x="565.5" y="-11.3" font-family="Times,serif" font-size="14.00" fill="#0058ad">a 1039 5</text>
<polyline fill="none" stroke="#0058ad" points="605,-0.5 605,-29.5 "/>
<text text-anchor="middle" x="649" y="-11.3" font-family="Times,serif" font-size="14.00" fill="#0058ad">r 1038 [1]</text>
<polyline fill="none" stroke="#0058ad" points="693,-0.5 693,-29.5 "/>
<text text-anchor="middle" x="743.5" y="-11.3" font-family="Times,serif" font-size="14.00" fill="#0058ad">r 1039 [4 5]</text>
<polyline fill="none" stroke="#0058ad" points="794,-0.5 794,-29.5 "/>
<text text-anchor="middle" x="844.5" y="-11.3" font-family="Times,serif" font-size="14.00" fill="#0058ad">r 1039 [4 5]</text>
<polyline fill="none" stroke="#0058ad" points="895,-0.5 895,-29.5 "/>
<text text-anchor="middle" x="939" y="-11.3" font-family="Times,serif" font-size="14.00" fill="#0058ad">r 1031 [3]</text>
<polyline fill="none" stroke="#0058ad" points="983,-0.5 983,-29.5 "/>
<text text-anchor="middle" x="1033.5" y="-11.3" font-family="Times,serif" font-size="14.00" fill="#0058ad">r 1034 [3 4]</text>
</g>
<!-- T2502&#45;&gt;T2504 -->
<g id="edge1" class="edge">
<title>T2502:f5&#45;&gt;T2504:f3</title>
<path fill="none" stroke="#5b00c0" d="M483.5,-81C483.5,-62.2 485.56,-55.13 486.26,-40.36"/>
<polygon fill="#5b00c0" stroke="#5b00c0" points="489.77,-40.08 486.5,-30 482.77,-39.92 489.77,-40.08"/>
<text text-anchor="middle" x="495" y="-51.8" font-family="Times,serif" font-size="14.00" fill="#5b00c0">rw</text>
</g>
<!-- T2504&#45;&gt;T2502 -->
<g id="edge2" class="edge">
<title>T2504:f2&#45;&gt;T2502:f4</title>
<path fill="none" stroke="#5b00c0" d="M402.5,-30C402.5,-48.79 403.87,-55.88 404.34,-70.64"/>
<polygon fill="#5b00c0" stroke="#5b00c0" points="400.85,-71.05 404.5,-81 407.85,-70.95 400.85,-71.05"/>
<text text-anchor="middle" x="414" y="-51.8" font-family="Times,serif" font-size="14.00" fill="#5b00c0">rw</text>
</g>
</g>
</svg>
