<?xml version="1.0" encoding="UTF-8" standalone="no"?>
<!DOCTYPE svg PUBLIC "-//W3C//DTD SVG 1.1//EN"
 "http://www.w3.org/Graphics/SVG/1.1/DTD/svg11.dtd">
<!-- Generated by graphviz version 2.43.0 (0)
 -->
<!-- Title: a_graph Pages: 1 -->
<svg width="859pt" height="119pt"
 viewBox="0.00 0.00 858.50 119.00" xmlns="http://www.w3.org/2000/svg" xmlns:xlink="http://www.w3.org/1999/xlink">
<g id="graph0" class="graph" transform="scale(1 1) rotate(0) translate(4 115)">
<title>a_graph</title>
<polygon fill="white" stroke="transparent" points="-4,4 -4,-115 854.5,-115 854.5,4 -4,4"/>
<!-- T2165 -->
<g id="node1" class="node">
<title>T2165</title>
<polygon fill="none" stroke="#0058ad" points="6.5,-81.5 6.5,-110.5 850.5,-110.5 850.5,-81.5 6.5,-81.5"/>
<text text-anchor="middle" x="66" y="-92.3" font-family="Times,serif" font-size="14.00" fill="#0058ad">r 894 [1 2 3 4]</text>
<polyline fill="none" stroke="#0058ad" points="125.5,-81.5 125.5,-110.5 "/>
<text text-anchor="middle" x="185" y="-92.3" font-family="Times,serif" font-size="14.00" fill="#0058ad">r 894 [1 2 3 4]</text>
<polyline fill="none" stroke="#0058ad" points="244.5,-81.5 244.5,-110.5 "/>
<text text-anchor="middle" x="279.5" y="-92.3" font-family="Times,serif" font-size="14.00" fill="#0058ad">a 892 4</text>
<polyline fill="none" stroke="#0058ad" points="314.5,-81.5 314.5,-110.5 "/>
<text text-anchor="middle" x="349.5" y="-92.3" font-family="Times,serif" font-size="14.00" fill="#0058ad">r 895 []</text>
<polyline fill="none" stroke="#0058ad" points="384.5,-81.5 384.5,-110.5 "/>
<text text-anchor="middle" x="424" y="-92.3" font-family="Times,serif" font-size="14.00" fill="#0058ad">r 892 [4]</text>
<polyline fill="none" stroke="#0058ad" points="463.5,-81.5 463.5,-110.5 "/>
<text text-anchor="middle" x="523" y="-92.3" font-family="Times,serif" font-size="14.00" fill="#0058ad">r 894 [1 2 3 4]</text>
<polyline fill="none" stroke="#0058ad" points="582.5,-81.5 582.5,-110.5 "/>
<text text-anchor="middle" x="642" y="-92.3" font-family="Times,serif" font-size="14.00" fill="#0058ad">r 894 [1 2 3 4]</text>
<polyline fill="none" stroke="#0058ad" points="701.5,-81.5 701.5,-110.5 "/>
<text text-anchor="middle" x="741" y="-92.3" font-family="Times,serif" font-size="14.00" fill="#0058ad">r 892 [4]</text>
<polyline fill="none" stroke="#0058ad" points="780.5,-81.5 780.5,-110.5 "/>
<text text-anchor="middle" x="815.5" y="-92.3" font-family="Times,serif" font-size="14.00" fill="#0058ad">a 892 5</text>
</g>
<!-- T2164 -->
<g id="node2" class="node">
<title>T2164</title>
<polygon fill="none" stroke="#0058ad" points="0,-0.5 0,-29.5 469,-29.5 469,-0.5 0,-0.5"/>
<text text-anchor="middle" x="35" y="-11.3" font-family="Times,serif" font-size="14.00" fill="#0058ad">r 892 []</text>
<polyline fill="none" stroke="#0058ad" points="70,-0.5 70,-29.5 "/>
<text text-anchor="middle" x="129.5" y="-11.3" font-family="Times,serif" font-size="14.00" fill="#0058ad">r 894 [1 2 3 4]</text>
<polyline fill="none" stroke="#0058ad" points="189,-0.5 189,-29.5 "/>
<text text-anchor="middle" x="224" y="-11.3" font-family="Times,serif" font-size="14.00" fill="#0058ad">a 894 5</text>
<polyline fill="none" stroke="#0058ad" points="259,-0.5 259,-29.5 "/>
<text text-anchor="middle" x="294" y="-11.3" font-family="Times,serif" font-size="14.00" fill="#0058ad">r 867 []</text>
<polyline fill="none" stroke="#0058ad" points="329,-0.5 329,-29.5 "/>
<text text-anchor="middle" x="364" y="-11.3" font-family="Times,serif" font-size="14.00" fill="#0058ad">r 895 []</text>
<polyline fill="none" stroke="#0058ad" points="399,-0.5 399,-29.5 "/>
<text text-anchor="middle" x="434" y="-11.3" font-family="Times,serif" font-size="14.00" fill="#0058ad">r 892 []</text>
</g>
<!-- T2165&#45;&gt;T2164 -->
<g id="edge1" class="edge">
<title>T2165:f0&#45;&gt;T2164:f2</title>
<path fill="none" stroke="#5b00c0" d="M65.5,-81C65.5,-39.65 113.06,-60.44 152.5,-48 179.42,-39.51 213.04,-56.69 221.5,-40.17"/>
<polygon fill="#5b00c0" stroke="#5b00c0" points="225.01,-40.49 223.5,-30 218.14,-39.14 225.01,-40.49"/>
<text text-anchor="middle" x="162" y="-51.8" font-family="Times,serif" font-size="14.00" fill="#5b00c0">rw</text>
</g>
<!-- T2164&#45;&gt;T2165 -->
<g id="edge2" class="edge">
<title>T2164:f0&#45;&gt;T2165:f2</title>
<path fill="none" stroke="#5b00c0" d="M34.5,-30C34.5,-45.35 156.5,-44.75 171.5,-48 216.72,-57.81 270.35,-34.92 278.45,-70.61"/>
<polygon fill="#5b00c0" stroke="#5b00c0" points="275.02,-71.4 279.5,-81 281.98,-70.7 275.02,-71.4"/>
<text text-anchor="middle" x="285" y="-51.8" font-family="Times,serif" font-size="14.00" fill="#5b00c0">rw</text>
</g>
</g>
</svg>
