<?xml version="1.0" encoding="UTF-8" standalone="no"?>
<!DOCTYPE svg PUBLIC "-//W3C//DTD SVG 1.1//EN"
 "http://www.w3.org/Graphics/SVG/1.1/DTD/svg11.dtd">
<!-- Generated by graphviz version 2.43.0 (0)
 -->
<!-- Title: a_graph Pages: 1 -->
<svg width="1090pt" height="119pt"
 viewBox="0.00 0.00 1090.00 119.00" xmlns="http://www.w3.org/2000/svg" xmlns:xlink="http://www.w3.org/1999/xlink">
<g id="graph0" class="graph" transform="scale(1 1) rotate(0) translate(4 115)">
<title>a_graph</title>
<polygon fill="white" stroke="transparent" points="-4,4 -4,-115 1086,-115 1086,4 -4,4"/>
<!-- T2376 -->
<g id="node1" class="node">
<title>T2376</title>
<polygon fill="none" stroke="#0058ad" points="0,-81.5 0,-110.5 828,-110.5 828,-81.5 0,-81.5"/>
<text text-anchor="middle" x="35" y="-92.3" font-family="Times,serif" font-size="14.00" fill="#0058ad">a 983 2</text>
<polyline fill="none" stroke="#0058ad" points="70,-81.5 70,-110.5 "/>
<text text-anchor="middle" x="109.5" y="-92.3" font-family="Times,serif" font-size="14.00" fill="#0058ad">r 983 [2]</text>
<polyline fill="none" stroke="#0058ad" points="149,-81.5 149,-110.5 "/>
<text text-anchor="middle" x="184" y="-92.3" font-family="Times,serif" font-size="14.00" fill="#0058ad">a 984 1</text>
<polyline fill="none" stroke="#0058ad" points="219,-81.5 219,-110.5 "/>
<text text-anchor="middle" x="258.5" y="-92.3" font-family="Times,serif" font-size="14.00" fill="#0058ad">r 983 [2]</text>
<polyline fill="none" stroke="#0058ad" points="298,-81.5 298,-110.5 "/>
<text text-anchor="middle" x="333" y="-92.3" font-family="Times,serif" font-size="14.00" fill="#0058ad">r 979 []</text>
<polyline fill="none" stroke="#0058ad" points="368,-81.5 368,-110.5 "/>
<text text-anchor="middle" x="407.5" y="-92.3" font-family="Times,serif" font-size="14.00" fill="#0058ad">r 984 [1]</text>
<polyline fill="none" stroke="#0058ad" points="447,-81.5 447,-110.5 "/>
<text text-anchor="middle" x="482" y="-92.3" font-family="Times,serif" font-size="14.00" fill="#0058ad">a 983 3</text>
<polyline fill="none" stroke="#0058ad" points="517,-81.5 517,-110.5 "/>
<text text-anchor="middle" x="563" y="-92.3" font-family="Times,serif" font-size="14.00" fill="#0058ad">r 983 [2 3]</text>
<polyline fill="none" stroke="#0058ad" points="609,-81.5 609,-110.5 "/>
<text text-anchor="middle" x="644" y="-92.3" font-family="Times,serif" font-size="14.00" fill="#0058ad">a 984 2</text>
<polyline fill="none" stroke="#0058ad" points="679,-81.5 679,-110.5 "/>
<text text-anchor="middle" x="714" y="-92.3" font-family="Times,serif" font-size="14.00" fill="#0058ad">a 983 4</text>
<polyline fill="none" stroke="#0058ad" points="749,-81.5 749,-110.5 "/>
<text text-anchor="middle" x="788.5" y="-92.3" font-family="Times,serif" font-size="14.00" fill="#0058ad">r 977 [2]</text>
</g>
<!-- T2377 -->
<g id="node2" class="node">
<title>T2377</title>
<polygon fill="none" stroke="#0058ad" points="206,-0.5 206,-29.5 1082,-29.5 1082,-0.5 206,-0.5"/>
<text text-anchor="middle" x="241" y="-11.3" font-family="Times,serif" font-size="14.00" fill="#0058ad">r 985 []</text>
<polyline fill="none" stroke="#0058ad" points="276,-0.5 276,-29.5 "/>
<text text-anchor="middle" x="311" y="-11.3" font-family="Times,serif" font-size="14.00" fill="#0058ad">a 977 4</text>
<polyline fill="none" stroke="#0058ad" points="346,-0.5 346,-29.5 "/>
<text text-anchor="middle" x="381" y="-11.3" font-family="Times,serif" font-size="14.00" fill="#0058ad">r 984 []</text>
<polyline fill="none" stroke="#0058ad" points="416,-0.5 416,-29.5 "/>
<text text-anchor="middle" x="451" y="-11.3" font-family="Times,serif" font-size="14.00" fill="#0058ad">r 986 []</text>
<polyline fill="none" stroke="#0058ad" points="486,-0.5 486,-29.5 "/>
<text text-anchor="middle" x="521" y="-11.3" font-family="Times,serif" font-size="14.00" fill="#0058ad">a 985 3</text>
<polyline fill="none" stroke="#0058ad" points="556,-0.5 556,-29.5 "/>
<text text-anchor="middle" x="595.5" y="-11.3" font-family="Times,serif" font-size="14.00" fill="#0058ad">r 985 [3]</text>
<polyline fill="none" stroke="#0058ad" points="635,-0.5 635,-29.5 "/>
<text text-anchor="middle" x="674.5" y="-11.3" font-family="Times,serif" font-size="14.00" fill="#0058ad">r 985 [3]</text>
<polyline fill="none" stroke="#0058ad" points="714,-0.5 714,-29.5 "/>
<text text-anchor="middle" x="753.5" y="-11.3" font-family="Times,serif" font-size="14.00" fill="#0058ad">r 985 [3]</text>
<polyline fill="none" stroke="#0058ad" points="793,-0.5 793,-29.5 "/>
<text text-anchor="middle" x="832.5" y="-11.3" font-family="Times,serif" font-size="14.00" fill="#0058ad">r 985 [3]</text>
<polyline fill="none" stroke="#0058ad" points="872,-0.5 872,-29.5 "/>
<text text-anchor="middle" x="907" y="-11.3" font-family="Times,serif" font-size="14.00" fill="#0058ad">r 978 []</text>
<polyline fill="none" stroke="#0058ad" points="942,-0.5 942,-29.5 "/>
<text text-anchor="middle" x="977" y="-11.3" font-family="Times,serif" font-size="14.00" fill="#0058ad">a 985 4</text>
<polyline fill="none" stroke="#0058ad" points="1012,-0.5 1012,-29.5 "/>
<text text-anchor="middle" x="1047" y="-11.3" font-family="Times,serif" font-size="14.00" fill="#0058ad">r 986 []</text>
</g>
<!-- T2376&#45;&gt;T2377 -->
<g id="edge1" class="edge">
<title>T2376:f10&#45;&gt;T2377:f1</title>
<path fill="none" stroke="#5b00c0" d="M789,-81C789,-56.38 382.77,-56.51 319.3,-35.75"/>
<polygon fill="#5b00c0" stroke="#5b00c0" points="321.21,-32.82 311,-30 317.22,-38.57 321.21,-32.82"/>
<text text-anchor="middle" x="682.5" y="-51.8" font-family="Times,serif" font-size="14.00" fill="#5b00c0">rw</text>
</g>
<!-- T2377&#45;&gt;T2376 -->
<g id="edge2" class="edge">
<title>T2377:f2&#45;&gt;T2376:f2</title>
<path fill="none" stroke="#5b00c0" d="M381,-30C381,-116.73 199.83,-0.84 184.97,-70.95"/>
<polygon fill="#5b00c0" stroke="#5b00c0" points="181.47,-70.71 184,-81 188.44,-71.38 181.47,-70.71"/>
<text text-anchor="middle" x="385.5" y="-51.8" font-family="Times,serif" font-size="14.00" fill="#5b00c0">rw</text>
</g>
</g>
</svg>
