<?xml version="1.0" encoding="UTF-8" standalone="no"?>
<!DOCTYPE svg PUBLIC "-//W3C//DTD SVG 1.1//EN"
 "http://www.w3.org/Graphics/SVG/1.1/DTD/svg11.dtd">
<!-- Generated by graphviz version 2.43.0 (0)
 -->
<!-- Title: a_graph Pages: 1 -->
<svg width="1048pt" height="119pt"
 viewBox="0.00 0.00 1047.50 119.00" xmlns="http://www.w3.org/2000/svg" xmlns:xlink="http://www.w3.org/1999/xlink">
<g id="graph0" class="graph" transform="scale(1 1) rotate(0) translate(4 115)">
<title>a_graph</title>
<polygon fill="white" stroke="transparent" points="-4,4 -4,-115 1043.5,-115 1043.5,4 -4,4"/>
<!-- T826 -->
<g id="node1" class="node">
<title>T826</title>
<polygon fill="none" stroke="#0058ad" points="0,-81.5 0,-110.5 718,-110.5 718,-81.5 0,-81.5"/>
<text text-anchor="middle" x="35" y="-92.3" font-family="Times,serif" font-size="14.00" fill="#0058ad">r 345 []</text>
<polyline fill="none" stroke="#0058ad" points="70,-81.5 70,-110.5 "/>
<text text-anchor="middle" x="105" y="-92.3" font-family="Times,serif" font-size="14.00" fill="#0058ad">r 344 []</text>
<polyline fill="none" stroke="#0058ad" points="140,-81.5 140,-110.5 "/>
<text text-anchor="middle" x="175" y="-92.3" font-family="Times,serif" font-size="14.00" fill="#0058ad">r 344 []</text>
<polyline fill="none" stroke="#0058ad" points="210,-81.5 210,-110.5 "/>
<text text-anchor="middle" x="245" y="-92.3" font-family="Times,serif" font-size="14.00" fill="#0058ad">r 345 []</text>
<polyline fill="none" stroke="#0058ad" points="280,-81.5 280,-110.5 "/>
<text text-anchor="middle" x="315" y="-92.3" font-family="Times,serif" font-size="14.00" fill="#0058ad">r 345 []</text>
<polyline fill="none" stroke="#0058ad" points="350,-81.5 350,-110.5 "/>
<text text-anchor="middle" x="385" y="-92.3" font-family="Times,serif" font-size="14.00" fill="#0058ad">a 338 1</text>
<polyline fill="none" stroke="#0058ad" points="420,-81.5 420,-110.5 "/>
<text text-anchor="middle" x="459.5" y="-92.3" font-family="Times,serif" font-size="14.00" fill="#0058ad">r 271 [2]</text>
<polyline fill="none" stroke="#0058ad" points="499,-81.5 499,-110.5 "/>
<text text-anchor="middle" x="534" y="-92.3" font-family="Times,serif" font-size="14.00" fill="#0058ad">r 345 []</text>
<polyline fill="none" stroke="#0058ad" points="569,-81.5 569,-110.5 "/>
<text text-anchor="middle" x="608.5" y="-92.3" font-family="Times,serif" font-size="14.00" fill="#0058ad">r 292 [1]</text>
<polyline fill="none" stroke="#0058ad" points="648,-81.5 648,-110.5 "/>
<text text-anchor="middle" x="683" y="-92.3" font-family="Times,serif" font-size="14.00" fill="#0058ad">r 345 []</text>
</g>
<!-- T824 -->
<g id="node2" class="node">
<title>T824</title>
<polygon fill="none" stroke="#0058ad" points="88.5,-0.5 88.5,-29.5 1039.5,-29.5 1039.5,-0.5 88.5,-0.5"/>
<text text-anchor="middle" x="123.5" y="-11.3" font-family="Times,serif" font-size="14.00" fill="#0058ad">a 345 1</text>
<polyline fill="none" stroke="#0058ad" points="158.5,-0.5 158.5,-29.5 "/>
<text text-anchor="middle" x="193.5" y="-11.3" font-family="Times,serif" font-size="14.00" fill="#0058ad">r 340 []</text>
<polyline fill="none" stroke="#0058ad" points="228.5,-0.5 228.5,-29.5 "/>
<text text-anchor="middle" x="263.5" y="-11.3" font-family="Times,serif" font-size="14.00" fill="#0058ad">a 345 2</text>
<polyline fill="none" stroke="#0058ad" points="298.5,-0.5 298.5,-29.5 "/>
<text text-anchor="middle" x="333.5" y="-11.3" font-family="Times,serif" font-size="14.00" fill="#0058ad">r 338 []</text>
<polyline fill="none" stroke="#0058ad" points="368.5,-0.5 368.5,-29.5 "/>
<text text-anchor="middle" x="403.5" y="-11.3" font-family="Times,serif" font-size="14.00" fill="#0058ad">a 340 2</text>
<polyline fill="none" stroke="#0058ad" points="438.5,-0.5 438.5,-29.5 "/>
<text text-anchor="middle" x="484.5" y="-11.3" font-family="Times,serif" font-size="14.00" fill="#0058ad">r 345 [1 2]</text>
<polyline fill="none" stroke="#0058ad" points="530.5,-0.5 530.5,-29.5 "/>
<text text-anchor="middle" x="576.5" y="-11.3" font-family="Times,serif" font-size="14.00" fill="#0058ad">r 345 [1 2]</text>
<polyline fill="none" stroke="#0058ad" points="622.5,-0.5 622.5,-29.5 "/>
<text text-anchor="middle" x="662" y="-11.3" font-family="Times,serif" font-size="14.00" fill="#0058ad">r 296 [1]</text>
<polyline fill="none" stroke="#0058ad" points="701.5,-0.5 701.5,-29.5 "/>
<text text-anchor="middle" x="747.5" y="-11.3" font-family="Times,serif" font-size="14.00" fill="#0058ad">r 345 [1 2]</text>
<polyline fill="none" stroke="#0058ad" points="793.5,-0.5 793.5,-29.5 "/>
<text text-anchor="middle" x="828.5" y="-11.3" font-family="Times,serif" font-size="14.00" fill="#0058ad">a 345 3</text>
<polyline fill="none" stroke="#0058ad" points="863.5,-0.5 863.5,-29.5 "/>
<text text-anchor="middle" x="916.5" y="-11.3" font-family="Times,serif" font-size="14.00" fill="#0058ad">r 345 [1 2 3]</text>
<polyline fill="none" stroke="#0058ad" points="969.5,-0.5 969.5,-29.5 "/>
<text text-anchor="middle" x="1004.5" y="-11.3" font-family="Times,serif" font-size="14.00" fill="#0058ad">r 344 []</text>
</g>
<!-- T826&#45;&gt;T824 -->
<g id="edge1" class="edge">
<title>T826:f0&#45;&gt;T824:f0</title>
<path fill="none" stroke="#5b00c0" d="M35,-81C35,-47.3 46.93,-20.68 76.7,-15.8"/>
<polygon fill="#5b00c0" stroke="#5b00c0" points="77.3,-19.27 87,-15 76.76,-12.29 77.3,-19.27"/>
<text text-anchor="middle" x="49.5" y="-51.8" font-family="Times,serif" font-size="14.00" fill="#5b00c0">rw</text>
</g>
<!-- T824&#45;&gt;T826 -->
<g id="edge2" class="edge">
<title>T824:f3&#45;&gt;T826:f5</title>
<path fill="none" stroke="#5b00c0" d="M333,-30C333,-58.45 373.17,-51.28 382.9,-71.1"/>
<polygon fill="#5b00c0" stroke="#5b00c0" points="379.5,-71.95 385,-81 386.34,-70.49 379.5,-71.95"/>
<text text-anchor="middle" x="384.5" y="-51.8" font-family="Times,serif" font-size="14.00" fill="#5b00c0">rw</text>
</g>
</g>
</svg>
