<?xml version="1.0" encoding="UTF-8" standalone="no"?>
<!DOCTYPE svg PUBLIC "-//W3C//DTD SVG 1.1//EN"
 "http://www.w3.org/Graphics/SVG/1.1/DTD/svg11.dtd">
<!-- Generated by graphviz version 2.43.0 (0)
 -->
<!-- Title: a_graph Pages: 1 -->
<svg width="737pt" height="119pt"
 viewBox="0.00 0.00 736.50 119.00" xmlns="http://www.w3.org/2000/svg" xmlns:xlink="http://www.w3.org/1999/xlink">
<g id="graph0" class="graph" transform="scale(1 1) rotate(0) translate(4 115)">
<title>a_graph</title>
<polygon fill="white" stroke="transparent" points="-4,4 -4,-115 732.5,-115 732.5,4 -4,4"/>
<!-- T1917 -->
<g id="node1" class="node">
<title>T1917</title>
<polygon fill="none" stroke="#0058ad" points="220.5,-81.5 220.5,-110.5 728.5,-110.5 728.5,-81.5 220.5,-81.5"/>
<text text-anchor="middle" x="255.5" y="-92.3" font-family="Times,serif" font-size="14.00" fill="#0058ad">r 794 []</text>
<polyline fill="none" stroke="#0058ad" points="290.5,-81.5 290.5,-110.5 "/>
<text text-anchor="middle" x="330" y="-92.3" font-family="Times,serif" font-size="14.00" fill="#0058ad">r 791 [1]</text>
<polyline fill="none" stroke="#0058ad" points="369.5,-81.5 369.5,-110.5 "/>
<text text-anchor="middle" x="404.5" y="-92.3" font-family="Times,serif" font-size="14.00" fill="#0058ad">a 793 3</text>
<polyline fill="none" stroke="#0058ad" points="439.5,-81.5 439.5,-110.5 "/>
<text text-anchor="middle" x="474.5" y="-92.3" font-family="Times,serif" font-size="14.00" fill="#0058ad">r 794 []</text>
<polyline fill="none" stroke="#0058ad" points="509.5,-81.5 509.5,-110.5 "/>
<text text-anchor="middle" x="549" y="-92.3" font-family="Times,serif" font-size="14.00" fill="#0058ad">r 791 [1]</text>
<polyline fill="none" stroke="#0058ad" points="588.5,-81.5 588.5,-110.5 "/>
<text text-anchor="middle" x="623.5" y="-92.3" font-family="Times,serif" font-size="14.00" fill="#0058ad">r 720 []</text>
<polyline fill="none" stroke="#0058ad" points="658.5,-81.5 658.5,-110.5 "/>
<text text-anchor="middle" x="693.5" y="-92.3" font-family="Times,serif" font-size="14.00" fill="#0058ad">r 794 []</text>
</g>
<!-- T1916 -->
<g id="node2" class="node">
<title>T1916</title>
<polygon fill="none" stroke="#0058ad" points="0,-0.5 0,-29.5 657,-29.5 657,-0.5 0,-0.5"/>
<text text-anchor="middle" x="39.5" y="-11.3" font-family="Times,serif" font-size="14.00" fill="#0058ad">r 792 [1]</text>
<polyline fill="none" stroke="#0058ad" points="79,-0.5 79,-29.5 "/>
<text text-anchor="middle" x="114" y="-11.3" font-family="Times,serif" font-size="14.00" fill="#0058ad">r 793 []</text>
<polyline fill="none" stroke="#0058ad" points="149,-0.5 149,-29.5 "/>
<text text-anchor="middle" x="184" y="-11.3" font-family="Times,serif" font-size="14.00" fill="#0058ad">r 793 []</text>
<polyline fill="none" stroke="#0058ad" points="219,-0.5 219,-29.5 "/>
<text text-anchor="middle" x="258.5" y="-11.3" font-family="Times,serif" font-size="14.00" fill="#0058ad">r 792 [1]</text>
<polyline fill="none" stroke="#0058ad" points="298,-0.5 298,-29.5 "/>
<text text-anchor="middle" x="333" y="-11.3" font-family="Times,serif" font-size="14.00" fill="#0058ad">a 792 5</text>
<polyline fill="none" stroke="#0058ad" points="368,-0.5 368,-29.5 "/>
<text text-anchor="middle" x="403" y="-11.3" font-family="Times,serif" font-size="14.00" fill="#0058ad">r 794 []</text>
<polyline fill="none" stroke="#0058ad" points="438,-0.5 438,-29.5 "/>
<text text-anchor="middle" x="477.5" y="-11.3" font-family="Times,serif" font-size="14.00" fill="#0058ad">r 791 [1]</text>
<polyline fill="none" stroke="#0058ad" points="517,-0.5 517,-29.5 "/>
<text text-anchor="middle" x="552" y="-11.3" font-family="Times,serif" font-size="14.00" fill="#0058ad">r 793 []</text>
<polyline fill="none" stroke="#0058ad" points="587,-0.5 587,-29.5 "/>
<text text-anchor="middle" x="622" y="-11.3" font-family="Times,serif" font-size="14.00" fill="#0058ad">a 791 2</text>
</g>
<!-- T1917&#45;&gt;T1916 -->
<g id="edge1" class="edge">
<title>T1917:f1&#45;&gt;T1916:f8</title>
<path fill="none" stroke="#5b00c0" d="M329.5,-81C329.5,-62.33 338.98,-56.71 355.5,-48 379.13,-35.54 575.82,-54.94 615.53,-37.45"/>
<polygon fill="#5b00c0" stroke="#5b00c0" points="618.22,-39.69 622.5,-30 613.11,-34.91 618.22,-39.69"/>
<text text-anchor="middle" x="365" y="-51.8" font-family="Times,serif" font-size="14.00" fill="#5b00c0">rw</text>
</g>
<!-- T1916&#45;&gt;T1917 -->
<g id="edge2" class="edge">
<title>T1916:f1&#45;&gt;T1917:f2</title>
<path fill="none" stroke="#5b00c0" d="M113.5,-30C113.5,-59.07 348.34,-35.33 374.5,-48 388.86,-54.95 399.53,-59.25 403.16,-70.99"/>
<polygon fill="#5b00c0" stroke="#5b00c0" points="399.7,-71.55 404.5,-81 406.64,-70.62 399.7,-71.55"/>
<text text-anchor="middle" x="408" y="-51.8" font-family="Times,serif" font-size="14.00" fill="#5b00c0">rw</text>
</g>
</g>
</svg>
