<?xml version="1.0" encoding="UTF-8" standalone="no"?>
<!DOCTYPE svg PUBLIC "-//W3C//DTD SVG 1.1//EN"
 "http://www.w3.org/Graphics/SVG/1.1/DTD/svg11.dtd">
<!-- Generated by graphviz version 2.43.0 (0)
 -->
<!-- Title: a_graph Pages: 1 -->
<svg width="837pt" height="119pt"
 viewBox="0.00 0.00 836.50 119.00" xmlns="http://www.w3.org/2000/svg" xmlns:xlink="http://www.w3.org/1999/xlink">
<g id="graph0" class="graph" transform="scale(1 1) rotate(0) translate(4 115)">
<title>a_graph</title>
<polygon fill="white" stroke="transparent" points="-4,4 -4,-115 832.5,-115 832.5,4 -4,4"/>
<!-- T3640 -->
<g id="node1" class="node">
<title>T3640</title>
<polygon fill="none" stroke="#0058ad" points="0,-81.5 0,-110.5 726,-110.5 726,-81.5 0,-81.5"/>
<text text-anchor="middle" x="39.5" y="-92.3" font-family="Times,serif" font-size="14.00" fill="#0058ad">r 1514 []</text>
<polyline fill="none" stroke="#0058ad" points="79,-81.5 79,-110.5 "/>
<text text-anchor="middle" x="118.5" y="-92.3" font-family="Times,serif" font-size="14.00" fill="#0058ad">a 1514 3</text>
<polyline fill="none" stroke="#0058ad" points="158,-81.5 158,-110.5 "/>
<text text-anchor="middle" x="197.5" y="-92.3" font-family="Times,serif" font-size="14.00" fill="#0058ad">a 1514 4</text>
<polyline fill="none" stroke="#0058ad" points="237,-81.5 237,-110.5 "/>
<text text-anchor="middle" x="287.5" y="-92.3" font-family="Times,serif" font-size="14.00" fill="#0058ad">r 1503 [1 2]</text>
<polyline fill="none" stroke="#0058ad" points="338,-81.5 338,-110.5 "/>
<text text-anchor="middle" x="377.5" y="-92.3" font-family="Times,serif" font-size="14.00" fill="#0058ad">a 1514 5</text>
<polyline fill="none" stroke="#0058ad" points="417,-81.5 417,-110.5 "/>
<text text-anchor="middle" x="474.5" y="-92.3" font-family="Times,serif" font-size="14.00" fill="#0058ad">r 1514 [3 4 5]</text>
<polyline fill="none" stroke="#0058ad" points="532,-81.5 532,-110.5 "/>
<text text-anchor="middle" x="589.5" y="-92.3" font-family="Times,serif" font-size="14.00" fill="#0058ad">r 1514 [3 4 5]</text>
<polyline fill="none" stroke="#0058ad" points="647,-81.5 647,-110.5 "/>
<text text-anchor="middle" x="686.5" y="-92.3" font-family="Times,serif" font-size="14.00" fill="#0058ad">r 1515 []</text>
</g>
<!-- T3641 -->
<g id="node2" class="node">
<title>T3641</title>
<polygon fill="none" stroke="#0058ad" points="73.5,-0.5 73.5,-29.5 828.5,-29.5 828.5,-0.5 73.5,-0.5"/>
<text text-anchor="middle" x="113" y="-11.3" font-family="Times,serif" font-size="14.00" fill="#0058ad">r 1515 []</text>
<polyline fill="none" stroke="#0058ad" points="152.5,-0.5 152.5,-29.5 "/>
<text text-anchor="middle" x="192" y="-11.3" font-family="Times,serif" font-size="14.00" fill="#0058ad">a 1515 2</text>
<polyline fill="none" stroke="#0058ad" points="231.5,-0.5 231.5,-29.5 "/>
<text text-anchor="middle" x="271" y="-11.3" font-family="Times,serif" font-size="14.00" fill="#0058ad">r 1508 []</text>
<polyline fill="none" stroke="#0058ad" points="310.5,-0.5 310.5,-29.5 "/>
<text text-anchor="middle" x="350" y="-11.3" font-family="Times,serif" font-size="14.00" fill="#0058ad">r 1514 []</text>
<polyline fill="none" stroke="#0058ad" points="389.5,-0.5 389.5,-29.5 "/>
<text text-anchor="middle" x="429" y="-11.3" font-family="Times,serif" font-size="14.00" fill="#0058ad">a 1515 3</text>
<polyline fill="none" stroke="#0058ad" points="468.5,-0.5 468.5,-29.5 "/>
<text text-anchor="middle" x="519" y="-11.3" font-family="Times,serif" font-size="14.00" fill="#0058ad">r 1515 [2 3]</text>
<polyline fill="none" stroke="#0058ad" points="569.5,-0.5 569.5,-29.5 "/>
<text text-anchor="middle" x="620" y="-11.3" font-family="Times,serif" font-size="14.00" fill="#0058ad">r 1515 [2 3]</text>
<polyline fill="none" stroke="#0058ad" points="670.5,-0.5 670.5,-29.5 "/>
<text text-anchor="middle" x="710" y="-11.3" font-family="Times,serif" font-size="14.00" fill="#0058ad">a 1508 2</text>
<polyline fill="none" stroke="#0058ad" points="749.5,-0.5 749.5,-29.5 "/>
<text text-anchor="middle" x="789" y="-11.3" font-family="Times,serif" font-size="14.00" fill="#0058ad">r 1516 []</text>
</g>
<!-- T3640&#45;&gt;T3641 -->
<g id="edge1" class="edge">
<title>T3640:f7&#45;&gt;T3641:f1</title>
<path fill="none" stroke="#5b00c0" d="M687,-81C687,-55.46 264.54,-57.18 200.18,-35.79"/>
<polygon fill="#5b00c0" stroke="#5b00c0" points="202.18,-32.92 192,-30 198.14,-38.63 202.18,-32.92"/>
<text text-anchor="middle" x="576.5" y="-51.8" font-family="Times,serif" font-size="14.00" fill="#5b00c0">rw</text>
</g>
<!-- T3641&#45;&gt;T3640 -->
<g id="edge2" class="edge">
<title>T3641:f3&#45;&gt;T3640:f1</title>
<path fill="none" stroke="#5b00c0" d="M350,-30C350,-41.65 169.19,-62.19 126.81,-75.93"/>
<polygon fill="#5b00c0" stroke="#5b00c0" points="124.92,-72.98 118,-81 128.41,-79.04 124.92,-72.98"/>
<text text-anchor="middle" x="284.5" y="-51.8" font-family="Times,serif" font-size="14.00" fill="#5b00c0">rw</text>
</g>
</g>
</svg>
