<?xml version="1.0" encoding="UTF-8" standalone="no"?>
<!DOCTYPE svg PUBLIC "-//W3C//DTD SVG 1.1//EN"
 "http://www.w3.org/Graphics/SVG/1.1/DTD/svg11.dtd">
<!-- Generated by graphviz version 2.43.0 (0)
 -->
<!-- Title: a_graph Pages: 1 -->
<svg width="511pt" height="119pt"
 viewBox="0.00 0.00 510.50 119.00" xmlns="http://www.w3.org/2000/svg" xmlns:xlink="http://www.w3.org/1999/xlink">
<g id="graph0" class="graph" transform="scale(1 1) rotate(0) translate(4 115)">
<title>a_graph</title>
<polygon fill="white" stroke="transparent" points="-4,4 -4,-115 506.5,-115 506.5,4 -4,4"/>
<!-- T2305 -->
<g id="node1" class="node">
<title>T2305</title>
<polygon fill="none" stroke="#0058ad" points="51.5,-81.5 51.5,-110.5 502.5,-110.5 502.5,-81.5 51.5,-81.5"/>
<text text-anchor="middle" x="86.5" y="-92.3" font-family="Times,serif" font-size="14.00" fill="#0058ad">a 951 1</text>
<polyline fill="none" stroke="#0058ad" points="121.5,-81.5 121.5,-110.5 "/>
<text text-anchor="middle" x="161" y="-92.3" font-family="Times,serif" font-size="14.00" fill="#0058ad">r 944 [2]</text>
<polyline fill="none" stroke="#0058ad" points="200.5,-81.5 200.5,-110.5 "/>
<text text-anchor="middle" x="235.5" y="-92.3" font-family="Times,serif" font-size="14.00" fill="#0058ad">a 937 2</text>
<polyline fill="none" stroke="#0058ad" points="270.5,-81.5 270.5,-110.5 "/>
<text text-anchor="middle" x="305.5" y="-92.3" font-family="Times,serif" font-size="14.00" fill="#0058ad">a 951 2</text>
<polyline fill="none" stroke="#0058ad" points="340.5,-81.5 340.5,-110.5 "/>
<text text-anchor="middle" x="386.5" y="-92.3" font-family="Times,serif" font-size="14.00" fill="#0058ad">r 951 [1 2]</text>
<polyline fill="none" stroke="#0058ad" points="432.5,-81.5 432.5,-110.5 "/>
<text text-anchor="middle" x="467.5" y="-92.3" font-family="Times,serif" font-size="14.00" fill="#0058ad">a 937 3</text>
</g>
<!-- T2304 -->
<g id="node2" class="node">
<title>T2304</title>
<polygon fill="none" stroke="#0058ad" points="0,-0.5 0,-29.5 490,-29.5 490,-0.5 0,-0.5"/>
<text text-anchor="middle" x="35" y="-11.3" font-family="Times,serif" font-size="14.00" fill="#0058ad">r 951 []</text>
<polyline fill="none" stroke="#0058ad" points="70,-0.5 70,-29.5 "/>
<text text-anchor="middle" x="105" y="-11.3" font-family="Times,serif" font-size="14.00" fill="#0058ad">a 930 1</text>
<polyline fill="none" stroke="#0058ad" points="140,-0.5 140,-29.5 "/>
<text text-anchor="middle" x="175" y="-11.3" font-family="Times,serif" font-size="14.00" fill="#0058ad">r 951 []</text>
<polyline fill="none" stroke="#0058ad" points="210,-0.5 210,-29.5 "/>
<text text-anchor="middle" x="245" y="-11.3" font-family="Times,serif" font-size="14.00" fill="#0058ad">a 944 3</text>
<polyline fill="none" stroke="#0058ad" points="280,-0.5 280,-29.5 "/>
<text text-anchor="middle" x="315" y="-11.3" font-family="Times,serif" font-size="14.00" fill="#0058ad">r 951 []</text>
<polyline fill="none" stroke="#0058ad" points="350,-0.5 350,-29.5 "/>
<text text-anchor="middle" x="385" y="-11.3" font-family="Times,serif" font-size="14.00" fill="#0058ad">r 951 []</text>
<polyline fill="none" stroke="#0058ad" points="420,-0.5 420,-29.5 "/>
<text text-anchor="middle" x="455" y="-11.3" font-family="Times,serif" font-size="14.00" fill="#0058ad">r 951 []</text>
</g>
<!-- T2305&#45;&gt;T2304 -->
<g id="edge1" class="edge">
<title>T2305:f1&#45;&gt;T2304:f3</title>
<path fill="none" stroke="#5b00c0" d="M161,-81C161,-41.25 230.58,-67.79 243.09,-39.95"/>
<polygon fill="#5b00c0" stroke="#5b00c0" points="246.55,-40.48 245,-30 239.68,-39.16 246.55,-40.48"/>
<text text-anchor="middle" x="244.5" y="-51.8" font-family="Times,serif" font-size="14.00" fill="#5b00c0">rw</text>
</g>
<!-- T2304&#45;&gt;T2305 -->
<g id="edge2" class="edge">
<title>T2304:f0&#45;&gt;T2305:f0</title>
<path fill="none" stroke="#5b00c0" d="M35,-30C35,-55.85 23.86,-86.01 39.82,-93.99"/>
<polygon fill="#5b00c0" stroke="#5b00c0" points="39.51,-97.49 50,-96 40.87,-90.62 39.51,-97.49"/>
<text text-anchor="middle" x="43.5" y="-51.8" font-family="Times,serif" font-size="14.00" fill="#5b00c0">rw</text>
</g>
</g>
</svg>
