<?xml version="1.0" encoding="UTF-8" standalone="no"?>
<!DOCTYPE svg PUBLIC "-//W3C//DTD SVG 1.1//EN"
 "http://www.w3.org/Graphics/SVG/1.1/DTD/svg11.dtd">
<!-- Generated by graphviz version 2.43.0 (0)
 -->
<!-- Title: a_graph Pages: 1 -->
<svg width="1027pt" height="119pt"
 viewBox="0.00 0.00 1027.00 119.00" xmlns="http://www.w3.org/2000/svg" xmlns:xlink="http://www.w3.org/1999/xlink">
<g id="graph0" class="graph" transform="scale(1 1) rotate(0) translate(4 115)">
<title>a_graph</title>
<polygon fill="white" stroke="transparent" points="-4,4 -4,-115 1023,-115 1023,4 -4,4"/>
<!-- T2640 -->
<g id="node1" class="node">
<title>T2640</title>
<polygon fill="none" stroke="#0058ad" points="0,-81.5 0,-110.5 1019,-110.5 1019,-81.5 0,-81.5"/>
<text text-anchor="middle" x="39.5" y="-92.3" font-family="Times,serif" font-size="14.00" fill="#0058ad">a 1094 1</text>
<polyline fill="none" stroke="#0058ad" points="79,-81.5 79,-110.5 "/>
<text text-anchor="middle" x="118.5" y="-92.3" font-family="Times,serif" font-size="14.00" fill="#0058ad">a 1093 3</text>
<polyline fill="none" stroke="#0058ad" points="158,-81.5 158,-110.5 "/>
<text text-anchor="middle" x="197.5" y="-92.3" font-family="Times,serif" font-size="14.00" fill="#0058ad">r 1091 []</text>
<polyline fill="none" stroke="#0058ad" points="237,-81.5 237,-110.5 "/>
<text text-anchor="middle" x="281" y="-92.3" font-family="Times,serif" font-size="14.00" fill="#0058ad">r 1093 [3]</text>
<polyline fill="none" stroke="#0058ad" points="325,-81.5 325,-110.5 "/>
<text text-anchor="middle" x="369" y="-92.3" font-family="Times,serif" font-size="14.00" fill="#0058ad">r 1094 [1]</text>
<polyline fill="none" stroke="#0058ad" points="413,-81.5 413,-110.5 "/>
<text text-anchor="middle" x="452.5" y="-92.3" font-family="Times,serif" font-size="14.00" fill="#0058ad">a 1094 2</text>
<polyline fill="none" stroke="#0058ad" points="492,-81.5 492,-110.5 "/>
<text text-anchor="middle" x="542.5" y="-92.3" font-family="Times,serif" font-size="14.00" fill="#0058ad">r 1094 [1 2]</text>
<polyline fill="none" stroke="#0058ad" points="593,-81.5 593,-110.5 "/>
<text text-anchor="middle" x="643.5" y="-92.3" font-family="Times,serif" font-size="14.00" fill="#0058ad">r 1094 [1 2]</text>
<polyline fill="none" stroke="#0058ad" points="694,-81.5 694,-110.5 "/>
<text text-anchor="middle" x="738" y="-92.3" font-family="Times,serif" font-size="14.00" fill="#0058ad">r 1093 [3]</text>
<polyline fill="none" stroke="#0058ad" points="782,-81.5 782,-110.5 "/>
<text text-anchor="middle" x="821.5" y="-92.3" font-family="Times,serif" font-size="14.00" fill="#0058ad">a 1094 3</text>
<polyline fill="none" stroke="#0058ad" points="861,-81.5 861,-110.5 "/>
<text text-anchor="middle" x="900.5" y="-92.3" font-family="Times,serif" font-size="14.00" fill="#0058ad">a 1093 4</text>
<polyline fill="none" stroke="#0058ad" points="940,-81.5 940,-110.5 "/>
<text text-anchor="middle" x="979.5" y="-92.3" font-family="Times,serif" font-size="14.00" fill="#0058ad">a 1094 4</text>
</g>
<!-- T2647 -->
<g id="node2" class="node">
<title>T2647</title>
<polygon fill="none" stroke="#0058ad" points="49,-0.5 49,-29.5 748,-29.5 748,-0.5 49,-0.5"/>
<text text-anchor="middle" x="88.5" y="-11.3" font-family="Times,serif" font-size="14.00" fill="#0058ad">r 1093 []</text>
<polyline fill="none" stroke="#0058ad" points="128,-0.5 128,-29.5 "/>
<text text-anchor="middle" x="167.5" y="-11.3" font-family="Times,serif" font-size="14.00" fill="#0058ad">a 1096 1</text>
<polyline fill="none" stroke="#0058ad" points="207,-0.5 207,-29.5 "/>
<text text-anchor="middle" x="246.5" y="-11.3" font-family="Times,serif" font-size="14.00" fill="#0058ad">a 1091 3</text>
<polyline fill="none" stroke="#0058ad" points="286,-0.5 286,-29.5 "/>
<text text-anchor="middle" x="330" y="-11.3" font-family="Times,serif" font-size="14.00" fill="#0058ad">r 1096 [1]</text>
<polyline fill="none" stroke="#0058ad" points="374,-0.5 374,-29.5 "/>
<text text-anchor="middle" x="413.5" y="-11.3" font-family="Times,serif" font-size="14.00" fill="#0058ad">a 1096 2</text>
<polyline fill="none" stroke="#0058ad" points="453,-0.5 453,-29.5 "/>
<text text-anchor="middle" x="503.5" y="-11.3" font-family="Times,serif" font-size="14.00" fill="#0058ad">r 1096 [1 2]</text>
<polyline fill="none" stroke="#0058ad" points="554,-0.5 554,-29.5 "/>
<text text-anchor="middle" x="593.5" y="-11.3" font-family="Times,serif" font-size="14.00" fill="#0058ad">a 1096 3</text>
<polyline fill="none" stroke="#0058ad" points="633,-0.5 633,-29.5 "/>
<text text-anchor="middle" x="690.5" y="-11.3" font-family="Times,serif" font-size="14.00" fill="#0058ad">r 1096 [1 2 3]</text>
</g>
<!-- T2640&#45;&gt;T2647 -->
<g id="edge1" class="edge">
<title>T2640:f2&#45;&gt;T2647:f2</title>
<path fill="none" stroke="#5b00c0" d="M197.5,-81C197.5,-53.5 235.02,-59.14 244.39,-39.93"/>
<polygon fill="#5b00c0" stroke="#5b00c0" points="247.85,-40.51 246.5,-30 241,-39.06 247.85,-40.51"/>
<text text-anchor="middle" x="247" y="-51.8" font-family="Times,serif" font-size="14.00" fill="#5b00c0">rw</text>
</g>
<!-- T2647&#45;&gt;T2640 -->
<g id="edge2" class="edge">
<title>T2647:f0&#45;&gt;T2640:f1</title>
<path fill="none" stroke="#5b00c0" d="M88.5,-30C88.5,-52.39 110.25,-54.56 116.71,-70.95"/>
<polygon fill="#5b00c0" stroke="#5b00c0" points="113.3,-71.77 118.5,-81 120.2,-70.54 113.3,-71.77"/>
<text text-anchor="middle" x="121" y="-51.8" font-family="Times,serif" font-size="14.00" fill="#5b00c0">rw</text>
</g>
</g>
</svg>
