<?xml version="1.0" encoding="UTF-8" standalone="no"?>
<!DOCTYPE svg PUBLIC "-//W3C//DTD SVG 1.1//EN"
 "http://www.w3.org/Graphics/SVG/1.1/DTD/svg11.dtd">
<!-- Generated by graphviz version 2.43.0 (0)
 -->
<!-- Title: a_graph Pages: 1 -->
<svg width="834pt" height="119pt"
 viewBox="0.00 0.00 834.00 119.00" xmlns="http://www.w3.org/2000/svg" xmlns:xlink="http://www.w3.org/1999/xlink">
<g id="graph0" class="graph" transform="scale(1 1) rotate(0) translate(4 115)">
<title>a_graph</title>
<polygon fill="white" stroke="transparent" points="-4,4 -4,-115 830,-115 830,4 -4,4"/>
<!-- T733 -->
<g id="node1" class="node">
<title>T733</title>
<polygon fill="none" stroke="#0058ad" points="0,-81.5 0,-110.5 740,-110.5 740,-81.5 0,-81.5"/>
<text text-anchor="middle" x="39.5" y="-92.3" font-family="Times,serif" font-size="14.00" fill="#0058ad">r 301 [1]</text>
<polyline fill="none" stroke="#0058ad" points="79,-81.5 79,-110.5 "/>
<text text-anchor="middle" x="118.5" y="-92.3" font-family="Times,serif" font-size="14.00" fill="#0058ad">r 301 [1]</text>
<polyline fill="none" stroke="#0058ad" points="158,-81.5 158,-110.5 "/>
<text text-anchor="middle" x="193" y="-92.3" font-family="Times,serif" font-size="14.00" fill="#0058ad">a 305 1</text>
<polyline fill="none" stroke="#0058ad" points="228,-81.5 228,-110.5 "/>
<text text-anchor="middle" x="263" y="-92.3" font-family="Times,serif" font-size="14.00" fill="#0058ad">a 305 2</text>
<polyline fill="none" stroke="#0058ad" points="298,-81.5 298,-110.5 "/>
<text text-anchor="middle" x="333" y="-92.3" font-family="Times,serif" font-size="14.00" fill="#0058ad">a 305 3</text>
<polyline fill="none" stroke="#0058ad" points="368,-81.5 368,-110.5 "/>
<text text-anchor="middle" x="403" y="-92.3" font-family="Times,serif" font-size="14.00" fill="#0058ad">a 305 4</text>
<polyline fill="none" stroke="#0058ad" points="438,-81.5 438,-110.5 "/>
<text text-anchor="middle" x="484" y="-92.3" font-family="Times,serif" font-size="14.00" fill="#0058ad">r 300 [1 2]</text>
<polyline fill="none" stroke="#0058ad" points="530,-81.5 530,-110.5 "/>
<text text-anchor="middle" x="565" y="-92.3" font-family="Times,serif" font-size="14.00" fill="#0058ad">a 305 5</text>
<polyline fill="none" stroke="#0058ad" points="600,-81.5 600,-110.5 "/>
<text text-anchor="middle" x="635" y="-92.3" font-family="Times,serif" font-size="14.00" fill="#0058ad">a 300 4</text>
<polyline fill="none" stroke="#0058ad" points="670,-81.5 670,-110.5 "/>
<text text-anchor="middle" x="705" y="-92.3" font-family="Times,serif" font-size="14.00" fill="#0058ad">a 300 5</text>
</g>
<!-- T737 -->
<g id="node2" class="node">
<title>T737</title>
<polygon fill="none" stroke="#0058ad" points="112,-0.5 112,-29.5 826,-29.5 826,-0.5 112,-0.5"/>
<text text-anchor="middle" x="158" y="-11.3" font-family="Times,serif" font-size="14.00" fill="#0058ad">r 300 [1 2]</text>
<polyline fill="none" stroke="#0058ad" points="204,-0.5 204,-29.5 "/>
<text text-anchor="middle" x="239" y="-11.3" font-family="Times,serif" font-size="14.00" fill="#0058ad">a 301 2</text>
<polyline fill="none" stroke="#0058ad" points="274,-0.5 274,-29.5 "/>
<text text-anchor="middle" x="320" y="-11.3" font-family="Times,serif" font-size="14.00" fill="#0058ad">r 301 [1 2]</text>
<polyline fill="none" stroke="#0058ad" points="366,-0.5 366,-29.5 "/>
<text text-anchor="middle" x="401" y="-11.3" font-family="Times,serif" font-size="14.00" fill="#0058ad">a 306 1</text>
<polyline fill="none" stroke="#0058ad" points="436,-0.5 436,-29.5 "/>
<text text-anchor="middle" x="475.5" y="-11.3" font-family="Times,serif" font-size="14.00" fill="#0058ad">r 306 [1]</text>
<polyline fill="none" stroke="#0058ad" points="515,-0.5 515,-29.5 "/>
<text text-anchor="middle" x="554.5" y="-11.3" font-family="Times,serif" font-size="14.00" fill="#0058ad">r 306 [1]</text>
<polyline fill="none" stroke="#0058ad" points="594,-0.5 594,-29.5 "/>
<text text-anchor="middle" x="629" y="-11.3" font-family="Times,serif" font-size="14.00" fill="#0058ad">a 306 2</text>
<polyline fill="none" stroke="#0058ad" points="664,-0.5 664,-29.5 "/>
<text text-anchor="middle" x="710" y="-11.3" font-family="Times,serif" font-size="14.00" fill="#0058ad">r 306 [1 2]</text>
<polyline fill="none" stroke="#0058ad" points="756,-0.5 756,-29.5 "/>
<text text-anchor="middle" x="791" y="-11.3" font-family="Times,serif" font-size="14.00" fill="#0058ad">a 306 3</text>
</g>
<!-- T733&#45;&gt;T737 -->
<g id="edge1" class="edge">
<title>T733:f0&#45;&gt;T737:f1</title>
<path fill="none" stroke="#5b00c0" d="M39,-81C39,6.97 222.93,-111.24 238.02,-40.19"/>
<polygon fill="#5b00c0" stroke="#5b00c0" points="241.52,-40.29 239,-30 234.56,-39.62 241.52,-40.29"/>
<text text-anchor="middle" x="243.5" y="-51.8" font-family="Times,serif" font-size="14.00" fill="#5b00c0">rw</text>
</g>
<!-- T737&#45;&gt;T733 -->
<g id="edge2" class="edge">
<title>T737:f0&#45;&gt;T733:f8</title>
<path fill="none" stroke="#5b00c0" d="M158,-30C158,-54.57 563.38,-54.53 626.72,-75.26"/>
<polygon fill="#5b00c0" stroke="#5b00c0" points="624.79,-78.18 635,-81 628.78,-72.42 624.79,-78.18"/>
<text text-anchor="middle" x="528.5" y="-51.8" font-family="Times,serif" font-size="14.00" fill="#5b00c0">rw</text>
</g>
</g>
</svg>
