<?xml version="1.0" encoding="UTF-8" standalone="no"?>
<!DOCTYPE svg PUBLIC "-//W3C//DTD SVG 1.1//EN"
 "http://www.w3.org/Graphics/SVG/1.1/DTD/svg11.dtd">
<!-- Generated by graphviz version 2.43.0 (0)
 -->
<!-- Title: a_graph Pages: 1 -->
<svg width="599pt" height="119pt"
 viewBox="0.00 0.00 599.00 119.00" xmlns="http://www.w3.org/2000/svg" xmlns:xlink="http://www.w3.org/1999/xlink">
<g id="graph0" class="graph" transform="scale(1 1) rotate(0) translate(4 115)">
<title>a_graph</title>
<polygon fill="white" stroke="transparent" points="-4,4 -4,-115 595,-115 595,4 -4,4"/>
<!-- T909 -->
<g id="node1" class="node">
<title>T909</title>
<polygon fill="none" stroke="#0058ad" points="0,-81.5 0,-110.5 591,-110.5 591,-81.5 0,-81.5"/>
<text text-anchor="middle" x="35" y="-92.3" font-family="Times,serif" font-size="14.00" fill="#0058ad">r 382 []</text>
<polyline fill="none" stroke="#0058ad" points="70,-81.5 70,-110.5 "/>
<text text-anchor="middle" x="109.5" y="-92.3" font-family="Times,serif" font-size="14.00" fill="#0058ad">r 366 [1]</text>
<polyline fill="none" stroke="#0058ad" points="149,-81.5 149,-110.5 "/>
<text text-anchor="middle" x="195" y="-92.3" font-family="Times,serif" font-size="14.00" fill="#0058ad">r 381 [1 2]</text>
<polyline fill="none" stroke="#0058ad" points="241,-81.5 241,-110.5 "/>
<text text-anchor="middle" x="276" y="-92.3" font-family="Times,serif" font-size="14.00" fill="#0058ad">r 379 []</text>
<polyline fill="none" stroke="#0058ad" points="311,-81.5 311,-110.5 "/>
<text text-anchor="middle" x="346" y="-92.3" font-family="Times,serif" font-size="14.00" fill="#0058ad">r 379 []</text>
<polyline fill="none" stroke="#0058ad" points="381,-81.5 381,-110.5 "/>
<text text-anchor="middle" x="416" y="-92.3" font-family="Times,serif" font-size="14.00" fill="#0058ad">a 383 1</text>
<polyline fill="none" stroke="#0058ad" points="451,-81.5 451,-110.5 "/>
<text text-anchor="middle" x="486" y="-92.3" font-family="Times,serif" font-size="14.00" fill="#0058ad">r 379 []</text>
<polyline fill="none" stroke="#0058ad" points="521,-81.5 521,-110.5 "/>
<text text-anchor="middle" x="556" y="-92.3" font-family="Times,serif" font-size="14.00" fill="#0058ad">r 382 []</text>
</g>
<!-- T912 -->
<g id="node2" class="node">
<title>T912</title>
<polygon fill="none" stroke="#0058ad" points="50.5,-0.5 50.5,-29.5 470.5,-29.5 470.5,-0.5 50.5,-0.5"/>
<text text-anchor="middle" x="85.5" y="-11.3" font-family="Times,serif" font-size="14.00" fill="#0058ad">r 382 []</text>
<polyline fill="none" stroke="#0058ad" points="120.5,-0.5 120.5,-29.5 "/>
<text text-anchor="middle" x="155.5" y="-11.3" font-family="Times,serif" font-size="14.00" fill="#0058ad">r 383 []</text>
<polyline fill="none" stroke="#0058ad" points="190.5,-0.5 190.5,-29.5 "/>
<text text-anchor="middle" x="225.5" y="-11.3" font-family="Times,serif" font-size="14.00" fill="#0058ad">r 383 []</text>
<polyline fill="none" stroke="#0058ad" points="260.5,-0.5 260.5,-29.5 "/>
<text text-anchor="middle" x="295.5" y="-11.3" font-family="Times,serif" font-size="14.00" fill="#0058ad">a 382 3</text>
<polyline fill="none" stroke="#0058ad" points="330.5,-0.5 330.5,-29.5 "/>
<text text-anchor="middle" x="365.5" y="-11.3" font-family="Times,serif" font-size="14.00" fill="#0058ad">a 382 4</text>
<polyline fill="none" stroke="#0058ad" points="400.5,-0.5 400.5,-29.5 "/>
<text text-anchor="middle" x="435.5" y="-11.3" font-family="Times,serif" font-size="14.00" fill="#0058ad">a 382 5</text>
</g>
<!-- T909&#45;&gt;T912 -->
<g id="edge1" class="edge">
<title>T909:f0&#45;&gt;T912:f3</title>
<path fill="none" stroke="#5b00c0" d="M34.5,-81C34.5,-25.6 263.89,-81.19 292.57,-39.66"/>
<polygon fill="#5b00c0" stroke="#5b00c0" points="295.95,-40.59 295.5,-30 289.25,-38.55 295.95,-40.59"/>
<text text-anchor="middle" x="292" y="-51.8" font-family="Times,serif" font-size="14.00" fill="#5b00c0">rw</text>
</g>
<!-- T912&#45;&gt;T909 -->
<g id="edge2" class="edge">
<title>T912:f1&#45;&gt;T909:f5</title>
<path fill="none" stroke="#5b00c0" d="M155.5,-30C155.5,-46.79 289.06,-44.6 305.5,-48 352.16,-57.66 407.56,-33.61 415.53,-70.82"/>
<polygon fill="#5b00c0" stroke="#5b00c0" points="412.06,-71.38 416.5,-81 419.03,-70.71 412.06,-71.38"/>
<text text-anchor="middle" x="421" y="-51.8" font-family="Times,serif" font-size="14.00" fill="#5b00c0">rw</text>
</g>
</g>
</svg>
