<?xml version="1.0" encoding="UTF-8" standalone="no"?>
<!DOCTYPE svg PUBLIC "-//W3C//DTD SVG 1.1//EN"
 "http://www.w3.org/Graphics/SVG/1.1/DTD/svg11.dtd">
<!-- Generated by graphviz version 2.43.0 (0)
 -->
<!-- Title: a_graph Pages: 1 -->
<svg width="967pt" height="200pt"
 viewBox="0.00 0.00 967.00 200.00" xmlns="http://www.w3.org/2000/svg" xmlns:xlink="http://www.w3.org/1999/xlink">
<g id="graph0" class="graph" transform="scale(1 1) rotate(0) translate(4 196)">
<title>a_graph</title>
<polygon fill="white" stroke="transparent" points="-4,4 -4,-196 963,-196 963,4 -4,4"/>
<!-- T524 -->
<g id="node1" class="node">
<title>T524</title>
<polygon fill="none" stroke="#0058ad" points="0,-162.5 0,-191.5 692,-191.5 692,-162.5 0,-162.5"/>
<text text-anchor="middle" x="39.5" y="-173.3" font-family="Times,serif" font-size="14.00" fill="#0058ad">r 215 [1]</text>
<polyline fill="none" stroke="#0058ad" points="79,-162.5 79,-191.5 "/>
<text text-anchor="middle" x="114" y="-173.3" font-family="Times,serif" font-size="14.00" fill="#0058ad">a 215 4</text>
<polyline fill="none" stroke="#0058ad" points="149,-162.5 149,-191.5 "/>
<text text-anchor="middle" x="184" y="-173.3" font-family="Times,serif" font-size="14.00" fill="#0058ad">r 214 []</text>
<polyline fill="none" stroke="#0058ad" points="219,-162.5 219,-191.5 "/>
<text text-anchor="middle" x="254" y="-173.3" font-family="Times,serif" font-size="14.00" fill="#0058ad">r 216 []</text>
<polyline fill="none" stroke="#0058ad" points="289,-162.5 289,-191.5 "/>
<text text-anchor="middle" x="324" y="-173.3" font-family="Times,serif" font-size="14.00" fill="#0058ad">a 208 3</text>
<polyline fill="none" stroke="#0058ad" points="359,-162.5 359,-191.5 "/>
<text text-anchor="middle" x="405" y="-173.3" font-family="Times,serif" font-size="14.00" fill="#0058ad">r 215 [1 4]</text>
<polyline fill="none" stroke="#0058ad" points="451,-162.5 451,-191.5 "/>
<text text-anchor="middle" x="486" y="-173.3" font-family="Times,serif" font-size="14.00" fill="#0058ad">a 208 4</text>
<polyline fill="none" stroke="#0058ad" points="521,-162.5 521,-191.5 "/>
<text text-anchor="middle" x="560.5" y="-173.3" font-family="Times,serif" font-size="14.00" fill="#0058ad">r 167 [2]</text>
<polyline fill="none" stroke="#0058ad" points="600,-162.5 600,-191.5 "/>
<text text-anchor="middle" x="646" y="-173.3" font-family="Times,serif" font-size="14.00" fill="#0058ad">r 215 [1 4]</text>
</g>
<!-- T527 -->
<g id="node2" class="node">
<title>T527</title>
<polygon fill="none" stroke="#0058ad" points="249,-81.5 249,-110.5 959,-110.5 959,-81.5 249,-81.5"/>
<text text-anchor="middle" x="284" y="-92.3" font-family="Times,serif" font-size="14.00" fill="#0058ad">a 217 1</text>
<polyline fill="none" stroke="#0058ad" points="319,-81.5 319,-110.5 "/>
<text text-anchor="middle" x="378.5" y="-92.3" font-family="Times,serif" font-size="14.00" fill="#0058ad">r 208 [1 2 3 4]</text>
<polyline fill="none" stroke="#0058ad" points="438,-81.5 438,-110.5 "/>
<text text-anchor="middle" x="473" y="-92.3" font-family="Times,serif" font-size="14.00" fill="#0058ad">a 214 3</text>
<polyline fill="none" stroke="#0058ad" points="508,-81.5 508,-110.5 "/>
<text text-anchor="middle" x="543" y="-92.3" font-family="Times,serif" font-size="14.00" fill="#0058ad">a 214 4</text>
<polyline fill="none" stroke="#0058ad" points="578,-81.5 578,-110.5 "/>
<text text-anchor="middle" x="617.5" y="-92.3" font-family="Times,serif" font-size="14.00" fill="#0058ad">r 217 [1]</text>
<polyline fill="none" stroke="#0058ad" points="657,-81.5 657,-110.5 "/>
<text text-anchor="middle" x="692" y="-92.3" font-family="Times,serif" font-size="14.00" fill="#0058ad">r 216 []</text>
<polyline fill="none" stroke="#0058ad" points="727,-81.5 727,-110.5 "/>
<text text-anchor="middle" x="762" y="-92.3" font-family="Times,serif" font-size="14.00" fill="#0058ad">a 217 2</text>
<polyline fill="none" stroke="#0058ad" points="797,-81.5 797,-110.5 "/>
<text text-anchor="middle" x="843" y="-92.3" font-family="Times,serif" font-size="14.00" fill="#0058ad">r 217 [1 2]</text>
<polyline fill="none" stroke="#0058ad" points="889,-81.5 889,-110.5 "/>
<text text-anchor="middle" x="924" y="-92.3" font-family="Times,serif" font-size="14.00" fill="#0058ad">a 208 5</text>
</g>
<!-- T524&#45;&gt;T527 -->
<g id="edge1" class="edge">
<title>T524:f6&#45;&gt;T527:f8</title>
<path fill="none" stroke="#c02700" d="M486,-162C486,30.44 908.32,-294.84 923.58,-121.1"/>
<polygon fill="#c02700" stroke="#c02700" points="927.08,-121.14 924,-111 920.08,-120.84 927.08,-121.14"/>
<text text-anchor="middle" x="933.5" y="-132.8" font-family="Times,serif" font-size="14.00" fill="#c02700">ww</text>
</g>
<!-- T526 -->
<g id="node3" class="node">
<title>T526</title>
<polygon fill="none" stroke="#0058ad" points="74.5,-0.5 74.5,-29.5 521.5,-29.5 521.5,-0.5 74.5,-0.5"/>
<text text-anchor="middle" x="114" y="-11.3" font-family="Times,serif" font-size="14.00" fill="#0058ad">r 215 [1]</text>
<polyline fill="none" stroke="#0058ad" points="153.5,-0.5 153.5,-29.5 "/>
<text text-anchor="middle" x="188.5" y="-11.3" font-family="Times,serif" font-size="14.00" fill="#0058ad">r 216 []</text>
<polyline fill="none" stroke="#0058ad" points="223.5,-0.5 223.5,-29.5 "/>
<text text-anchor="middle" x="258.5" y="-11.3" font-family="Times,serif" font-size="14.00" fill="#0058ad">a 216 3</text>
<polyline fill="none" stroke="#0058ad" points="293.5,-0.5 293.5,-29.5 "/>
<text text-anchor="middle" x="333" y="-11.3" font-family="Times,serif" font-size="14.00" fill="#0058ad">r 215 [1]</text>
<polyline fill="none" stroke="#0058ad" points="372.5,-0.5 372.5,-29.5 "/>
<text text-anchor="middle" x="407.5" y="-11.3" font-family="Times,serif" font-size="14.00" fill="#0058ad">a 193 5</text>
<polyline fill="none" stroke="#0058ad" points="442.5,-0.5 442.5,-29.5 "/>
<text text-anchor="middle" x="482" y="-11.3" font-family="Times,serif" font-size="14.00" fill="#0058ad">r 215 [1]</text>
</g>
<!-- T524&#45;&gt;T526 -->
<g id="edge2" class="edge">
<title>T524:f3&#45;&gt;T526:f2</title>
<path fill="none" stroke="#5b00c0" d="M254,-162C254,-135 228.65,-136.89 221,-111 217.22,-98.21 216.88,-93.68 221,-81 228.43,-58.11 250.41,-57.58 256.45,-40.11"/>
<polygon fill="#5b00c0" stroke="#5b00c0" points="259.95,-40.41 258,-30 253.03,-39.35 259.95,-40.41"/>
<text text-anchor="middle" x="230.5" y="-92.3" font-family="Times,serif" font-size="14.00" fill="#5b00c0">rw</text>
</g>
<!-- T527&#45;&gt;T526 -->
<g id="edge3" class="edge">
<title>T527:f5&#45;&gt;T526:f2</title>
<path fill="none" stroke="#5b00c0" d="M692,-81C692,109.71 273.54,-212.2 258.42,-40.01"/>
<polygon fill="#5b00c0" stroke="#5b00c0" points="261.92,-39.84 258,-30 254.92,-40.14 261.92,-39.84"/>
<text text-anchor="middle" x="698.5" y="-51.8" font-family="Times,serif" font-size="14.00" fill="#5b00c0">rw</text>
</g>
<!-- T526&#45;&gt;T524 -->
<g id="edge4" class="edge">
<title>T526:f0&#45;&gt;T524:f1</title>
<path fill="none" stroke="#5b00c0" d="M114,-30C114,-85.11 114,-101.4 114,-151.81"/>
<polygon fill="#5b00c0" stroke="#5b00c0" points="110.5,-152 114,-162 117.5,-152 110.5,-152"/>
<text text-anchor="middle" x="123.5" y="-92.3" font-family="Times,serif" font-size="14.00" fill="#5b00c0">rw</text>
</g>
</g>
</svg>
