<?xml version="1.0" encoding="UTF-8" standalone="no"?>
<!DOCTYPE svg PUBLIC "-//W3C//DTD SVG 1.1//EN"
 "http://www.w3.org/Graphics/SVG/1.1/DTD/svg11.dtd">
<!-- Generated by graphviz version 2.43.0 (0)
 -->
<!-- Title: a_graph Pages: 1 -->
<svg width="1215pt" height="119pt"
 viewBox="0.00 0.00 1214.50 119.00" xmlns="http://www.w3.org/2000/svg" xmlns:xlink="http://www.w3.org/1999/xlink">
<g id="graph0" class="graph" transform="scale(1 1) rotate(0) translate(4 115)">
<title>a_graph</title>
<polygon fill="white" stroke="transparent" points="-4,4 -4,-115 1210.5,-115 1210.5,4 -4,4"/>
<!-- T864 -->
<g id="node1" class="node">
<title>T864</title>
<polygon fill="none" stroke="#0058ad" points="0,-81.5 0,-110.5 579,-110.5 579,-81.5 0,-81.5"/>
<text text-anchor="middle" x="46" y="-92.3" font-family="Times,serif" font-size="14.00" fill="#0058ad">r 358 [1 2]</text>
<polyline fill="none" stroke="#0058ad" points="92,-81.5 92,-110.5 "/>
<text text-anchor="middle" x="127" y="-92.3" font-family="Times,serif" font-size="14.00" fill="#0058ad">r 360 []</text>
<polyline fill="none" stroke="#0058ad" points="162,-81.5 162,-110.5 "/>
<text text-anchor="middle" x="208" y="-92.3" font-family="Times,serif" font-size="14.00" fill="#0058ad">r 358 [1 2]</text>
<polyline fill="none" stroke="#0058ad" points="254,-81.5 254,-110.5 "/>
<text text-anchor="middle" x="289" y="-92.3" font-family="Times,serif" font-size="14.00" fill="#0058ad">a 358 4</text>
<polyline fill="none" stroke="#0058ad" points="324,-81.5 324,-110.5 "/>
<text text-anchor="middle" x="363.5" y="-92.3" font-family="Times,serif" font-size="14.00" fill="#0058ad">r 359 [1]</text>
<polyline fill="none" stroke="#0058ad" points="403,-81.5 403,-110.5 "/>
<text text-anchor="middle" x="456" y="-92.3" font-family="Times,serif" font-size="14.00" fill="#0058ad">r 358 [1 2 4]</text>
<polyline fill="none" stroke="#0058ad" points="509,-81.5 509,-110.5 "/>
<text text-anchor="middle" x="544" y="-92.3" font-family="Times,serif" font-size="14.00" fill="#0058ad">a 358 5</text>
</g>
<!-- T867 -->
<g id="node2" class="node">
<title>T867</title>
<polygon fill="none" stroke="#0058ad" points="160.5,-0.5 160.5,-29.5 1206.5,-29.5 1206.5,-0.5 160.5,-0.5"/>
<text text-anchor="middle" x="195.5" y="-11.3" font-family="Times,serif" font-size="14.00" fill="#0058ad">a 359 2</text>
<polyline fill="none" stroke="#0058ad" points="230.5,-0.5 230.5,-29.5 "/>
<text text-anchor="middle" x="276.5" y="-11.3" font-family="Times,serif" font-size="14.00" fill="#0058ad">r 359 [1 2]</text>
<polyline fill="none" stroke="#0058ad" points="322.5,-0.5 322.5,-29.5 "/>
<text text-anchor="middle" x="357.5" y="-11.3" font-family="Times,serif" font-size="14.00" fill="#0058ad">a 292 2</text>
<polyline fill="none" stroke="#0058ad" points="392.5,-0.5 392.5,-29.5 "/>
<text text-anchor="middle" x="438.5" y="-11.3" font-family="Times,serif" font-size="14.00" fill="#0058ad">r 358 [1 2]</text>
<polyline fill="none" stroke="#0058ad" points="484.5,-0.5 484.5,-29.5 "/>
<text text-anchor="middle" x="519.5" y="-11.3" font-family="Times,serif" font-size="14.00" fill="#0058ad">a 359 3</text>
<polyline fill="none" stroke="#0058ad" points="554.5,-0.5 554.5,-29.5 "/>
<text text-anchor="middle" x="589.5" y="-11.3" font-family="Times,serif" font-size="14.00" fill="#0058ad">a 271 5</text>
<polyline fill="none" stroke="#0058ad" points="624.5,-0.5 624.5,-29.5 "/>
<text text-anchor="middle" x="677.5" y="-11.3" font-family="Times,serif" font-size="14.00" fill="#0058ad">r 359 [1 2 3]</text>
<polyline fill="none" stroke="#0058ad" points="730.5,-0.5 730.5,-29.5 "/>
<text text-anchor="middle" x="765.5" y="-11.3" font-family="Times,serif" font-size="14.00" fill="#0058ad">a 359 4</text>
<polyline fill="none" stroke="#0058ad" points="800.5,-0.5 800.5,-29.5 "/>
<text text-anchor="middle" x="835.5" y="-11.3" font-family="Times,serif" font-size="14.00" fill="#0058ad">r 360 []</text>
<polyline fill="none" stroke="#0058ad" points="870.5,-0.5 870.5,-29.5 "/>
<text text-anchor="middle" x="905.5" y="-11.3" font-family="Times,serif" font-size="14.00" fill="#0058ad">a 359 5</text>
<polyline fill="none" stroke="#0058ad" points="940.5,-0.5 940.5,-29.5 "/>
<text text-anchor="middle" x="1007" y="-11.3" font-family="Times,serif" font-size="14.00" fill="#0058ad">r 359 [1 2 3 4 5]</text>
<polyline fill="none" stroke="#0058ad" points="1073.5,-0.5 1073.5,-29.5 "/>
<text text-anchor="middle" x="1140" y="-11.3" font-family="Times,serif" font-size="14.00" fill="#0058ad">r 359 [1 2 3 4 5]</text>
</g>
<!-- T864&#45;&gt;T867 -->
<g id="edge1" class="edge">
<title>T864:f4&#45;&gt;T867:f0</title>
<path fill="none" stroke="#5b00c0" d="M363.5,-81C363.5,-56.56 342.07,-57.38 319.5,-48 297.3,-38.78 221.02,-52.81 200.57,-38.91"/>
<polygon fill="#5b00c0" stroke="#5b00c0" points="203.49,-36.96 195.5,-30 197.41,-40.42 203.49,-36.96"/>
<text text-anchor="middle" x="365" y="-51.8" font-family="Times,serif" font-size="14.00" fill="#5b00c0">rw</text>
</g>
<!-- T867&#45;&gt;T864 -->
<g id="edge2" class="edge">
<title>T867:f3&#45;&gt;T864:f3</title>
<path fill="none" stroke="#5b00c0" d="M438.5,-30C438.5,-61.81 320.21,-26.8 296.5,-48 288.06,-55.54 287.78,-61.85 288.17,-70.89"/>
<polygon fill="#5b00c0" stroke="#5b00c0" points="284.67,-71.12 288.5,-81 291.67,-70.89 284.67,-71.12"/>
<text text-anchor="middle" x="306" y="-51.8" font-family="Times,serif" font-size="14.00" fill="#5b00c0">rw</text>
</g>
</g>
</svg>
