<?xml version="1.0" encoding="UTF-8" standalone="no"?>
<!DOCTYPE svg PUBLIC "-//W3C//DTD SVG 1.1//EN"
 "http://www.w3.org/Graphics/SVG/1.1/DTD/svg11.dtd">
<!-- Generated by graphviz version 2.43.0 (0)
 -->
<!-- Title: a_graph Pages: 1 -->
<svg width="1034pt" height="119pt"
 viewBox="0.00 0.00 1034.00 119.00" xmlns="http://www.w3.org/2000/svg" xmlns:xlink="http://www.w3.org/1999/xlink">
<g id="graph0" class="graph" transform="scale(1 1) rotate(0) translate(4 115)">
<title>a_graph</title>
<polygon fill="white" stroke="transparent" points="-4,4 -4,-115 1030,-115 1030,4 -4,4"/>
<!-- T1213 -->
<g id="node1" class="node">
<title>T1213</title>
<polygon fill="none" stroke="#0058ad" points="0,-81.5 0,-110.5 578,-110.5 578,-81.5 0,-81.5"/>
<text text-anchor="middle" x="35" y="-92.3" font-family="Times,serif" font-size="14.00" fill="#0058ad">a 504 1</text>
<polyline fill="none" stroke="#0058ad" points="70,-81.5 70,-110.5 "/>
<text text-anchor="middle" x="105" y="-92.3" font-family="Times,serif" font-size="14.00" fill="#0058ad">r 500 []</text>
<polyline fill="none" stroke="#0058ad" points="140,-81.5 140,-110.5 "/>
<text text-anchor="middle" x="175" y="-92.3" font-family="Times,serif" font-size="14.00" fill="#0058ad">a 504 2</text>
<polyline fill="none" stroke="#0058ad" points="210,-81.5 210,-110.5 "/>
<text text-anchor="middle" x="249.5" y="-92.3" font-family="Times,serif" font-size="14.00" fill="#0058ad">r 495 [2]</text>
<polyline fill="none" stroke="#0058ad" points="289,-81.5 289,-110.5 "/>
<text text-anchor="middle" x="324" y="-92.3" font-family="Times,serif" font-size="14.00" fill="#0058ad">r 502 []</text>
<polyline fill="none" stroke="#0058ad" points="359,-81.5 359,-110.5 "/>
<text text-anchor="middle" x="394" y="-92.3" font-family="Times,serif" font-size="14.00" fill="#0058ad">a 501 4</text>
<polyline fill="none" stroke="#0058ad" points="429,-81.5 429,-110.5 "/>
<text text-anchor="middle" x="468.5" y="-92.3" font-family="Times,serif" font-size="14.00" fill="#0058ad">r 501 [4]</text>
<polyline fill="none" stroke="#0058ad" points="508,-81.5 508,-110.5 "/>
<text text-anchor="middle" x="543" y="-92.3" font-family="Times,serif" font-size="14.00" fill="#0058ad">a 501 5</text>
</g>
<!-- T1210 -->
<g id="node2" class="node">
<title>T1210</title>
<polygon fill="none" stroke="#0058ad" points="282,-0.5 282,-29.5 1026,-29.5 1026,-0.5 282,-0.5"/>
<text text-anchor="middle" x="317" y="-11.3" font-family="Times,serif" font-size="14.00" fill="#0058ad">r 501 []</text>
<polyline fill="none" stroke="#0058ad" points="352,-0.5 352,-29.5 "/>
<text text-anchor="middle" x="387" y="-11.3" font-family="Times,serif" font-size="14.00" fill="#0058ad">a 502 2</text>
<polyline fill="none" stroke="#0058ad" points="422,-0.5 422,-29.5 "/>
<text text-anchor="middle" x="457" y="-11.3" font-family="Times,serif" font-size="14.00" fill="#0058ad">a 503 3</text>
<polyline fill="none" stroke="#0058ad" points="492,-0.5 492,-29.5 "/>
<text text-anchor="middle" x="527" y="-11.3" font-family="Times,serif" font-size="14.00" fill="#0058ad">a 502 3</text>
<polyline fill="none" stroke="#0058ad" points="562,-0.5 562,-29.5 "/>
<text text-anchor="middle" x="608" y="-11.3" font-family="Times,serif" font-size="14.00" fill="#0058ad">r 502 [2 3]</text>
<polyline fill="none" stroke="#0058ad" points="654,-0.5 654,-29.5 "/>
<text text-anchor="middle" x="689" y="-11.3" font-family="Times,serif" font-size="14.00" fill="#0058ad">a 503 4</text>
<polyline fill="none" stroke="#0058ad" points="724,-0.5 724,-29.5 "/>
<text text-anchor="middle" x="770" y="-11.3" font-family="Times,serif" font-size="14.00" fill="#0058ad">r 503 [3 4]</text>
<polyline fill="none" stroke="#0058ad" points="816,-0.5 816,-29.5 "/>
<text text-anchor="middle" x="851" y="-11.3" font-family="Times,serif" font-size="14.00" fill="#0058ad">r 501 []</text>
<polyline fill="none" stroke="#0058ad" points="886,-0.5 886,-29.5 "/>
<text text-anchor="middle" x="921" y="-11.3" font-family="Times,serif" font-size="14.00" fill="#0058ad">a 503 5</text>
<polyline fill="none" stroke="#0058ad" points="956,-0.5 956,-29.5 "/>
<text text-anchor="middle" x="991" y="-11.3" font-family="Times,serif" font-size="14.00" fill="#0058ad">a 502 4</text>
</g>
<!-- T1213&#45;&gt;T1210 -->
<g id="edge1" class="edge">
<title>T1213:f4&#45;&gt;T1210:f1</title>
<path fill="none" stroke="#5b00c0" d="M324,-81C324,-63.37 332.5,-59.33 346,-48 357.43,-38.4 374.78,-44.27 382.74,-39.41"/>
<polygon fill="#5b00c0" stroke="#5b00c0" points="386.06,-40.55 387,-30 379.69,-37.66 386.06,-40.55"/>
<text text-anchor="middle" x="355.5" y="-51.8" font-family="Times,serif" font-size="14.00" fill="#5b00c0">rw</text>
</g>
<!-- T1210&#45;&gt;T1213 -->
<g id="edge2" class="edge">
<title>T1210:f0&#45;&gt;T1213:f5</title>
<path fill="none" stroke="#5b00c0" d="M317,-30C317,-52.78 346.25,-35.05 365,-48 377.8,-56.84 388.62,-60.15 392.48,-71.01"/>
<polygon fill="#5b00c0" stroke="#5b00c0" points="389.04,-71.64 394,-81 395.96,-70.59 389.04,-71.64"/>
<text text-anchor="middle" x="396.5" y="-51.8" font-family="Times,serif" font-size="14.00" fill="#5b00c0">rw</text>
</g>
</g>
</svg>
