<?xml version="1.0" encoding="UTF-8" standalone="no"?>
<!DOCTYPE svg PUBLIC "-//W3C//DTD SVG 1.1//EN"
 "http://www.w3.org/Graphics/SVG/1.1/DTD/svg11.dtd">
<!-- Generated by graphviz version 2.43.0 (0)
 -->
<!-- Title: a_graph Pages: 1 -->
<svg width="935pt" height="200pt"
 viewBox="0.00 0.00 934.50 200.00" xmlns="http://www.w3.org/2000/svg" xmlns:xlink="http://www.w3.org/1999/xlink">
<g id="graph0" class="graph" transform="scale(1 1) rotate(0) translate(4 196)">
<title>a_graph</title>
<polygon fill="white" stroke="transparent" points="-4,4 -4,-196 930.5,-196 930.5,4 -4,4"/>
<!-- T2699 -->
<g id="node1" class="node">
<title>T2699</title>
<polygon fill="none" stroke="#0058ad" points="200.5,-162.5 200.5,-191.5 674.5,-191.5 674.5,-162.5 200.5,-162.5"/>
<text text-anchor="middle" x="235.5" y="-173.3" font-family="Times,serif" font-size="14.00" fill="#0058ad">a 952 3</text>
<polyline fill="none" stroke="#0058ad" points="270.5,-162.5 270.5,-191.5 "/>
<text text-anchor="middle" x="310" y="-173.3" font-family="Times,serif" font-size="14.00" fill="#0058ad">a 1112 1</text>
<polyline fill="none" stroke="#0058ad" points="349.5,-162.5 349.5,-191.5 "/>
<text text-anchor="middle" x="389" y="-173.3" font-family="Times,serif" font-size="14.00" fill="#0058ad">a 1107 3</text>
<polyline fill="none" stroke="#0058ad" points="428.5,-162.5 428.5,-191.5 "/>
<text text-anchor="middle" x="468" y="-173.3" font-family="Times,serif" font-size="14.00" fill="#0058ad">r 1116 []</text>
<polyline fill="none" stroke="#0058ad" points="507.5,-162.5 507.5,-191.5 "/>
<text text-anchor="middle" x="551.5" y="-173.3" font-family="Times,serif" font-size="14.00" fill="#0058ad">r 1107 [3]</text>
<polyline fill="none" stroke="#0058ad" points="595.5,-162.5 595.5,-191.5 "/>
<text text-anchor="middle" x="635" y="-173.3" font-family="Times,serif" font-size="14.00" fill="#0058ad">a 1116 1</text>
</g>
<!-- T2704 -->
<g id="node2" class="node">
<title>T2704</title>
<polygon fill="none" stroke="#0058ad" points="214.5,-81.5 214.5,-110.5 926.5,-110.5 926.5,-81.5 214.5,-81.5"/>
<text text-anchor="middle" x="254" y="-92.3" font-family="Times,serif" font-size="14.00" fill="#0058ad">a 1121 3</text>
<polyline fill="none" stroke="#0058ad" points="293.5,-81.5 293.5,-110.5 "/>
<text text-anchor="middle" x="333" y="-92.3" font-family="Times,serif" font-size="14.00" fill="#0058ad">a 1121 4</text>
<polyline fill="none" stroke="#0058ad" points="372.5,-81.5 372.5,-110.5 "/>
<text text-anchor="middle" x="423" y="-92.3" font-family="Times,serif" font-size="14.00" fill="#0058ad">r 1121 [3 4]</text>
<polyline fill="none" stroke="#0058ad" points="473.5,-81.5 473.5,-110.5 "/>
<text text-anchor="middle" x="513" y="-92.3" font-family="Times,serif" font-size="14.00" fill="#0058ad">r 1118 []</text>
<polyline fill="none" stroke="#0058ad" points="552.5,-81.5 552.5,-110.5 "/>
<text text-anchor="middle" x="610" y="-92.3" font-family="Times,serif" font-size="14.00" fill="#0058ad">r 1078 [1 2 3]</text>
<polyline fill="none" stroke="#0058ad" points="667.5,-81.5 667.5,-110.5 "/>
<text text-anchor="middle" x="707" y="-92.3" font-family="Times,serif" font-size="14.00" fill="#0058ad">a 1119 1</text>
<polyline fill="none" stroke="#0058ad" points="746.5,-81.5 746.5,-110.5 "/>
<text text-anchor="middle" x="786" y="-92.3" font-family="Times,serif" font-size="14.00" fill="#0058ad">a 1120 3</text>
<polyline fill="none" stroke="#0058ad" points="825.5,-81.5 825.5,-110.5 "/>
<text text-anchor="middle" x="876" y="-92.3" font-family="Times,serif" font-size="14.00" fill="#0058ad">r 1121 [3 4]</text>
</g>
<!-- T2699&#45;&gt;T2704 -->
<g id="edge1" class="edge">
<title>T2699&#45;&gt;T2704</title>
<path fill="none" stroke="#0050c0" d="M460.36,-162.42C481.96,-149.59 514.56,-130.23 538.7,-115.89"/>
<polygon fill="#0050c0" stroke="#0050c0" points="540.68,-118.78 547.49,-110.67 537.1,-112.77 540.68,-118.78"/>
<text text-anchor="middle" x="522" y="-132.8" font-family="Times,serif" font-size="14.00" fill="#0050c0">rt</text>
</g>
<!-- T2702 -->
<g id="node3" class="node">
<title>T2702</title>
<polygon fill="none" stroke="#0058ad" points="0,-0.5 0,-29.5 747,-29.5 747,-0.5 0,-0.5"/>
<text text-anchor="middle" x="39.5" y="-11.3" font-family="Times,serif" font-size="14.00" fill="#0058ad">r 1117 []</text>
<polyline fill="none" stroke="#0058ad" points="79,-0.5 79,-29.5 "/>
<text text-anchor="middle" x="118.5" y="-11.3" font-family="Times,serif" font-size="14.00" fill="#0058ad">r 1117 []</text>
<polyline fill="none" stroke="#0058ad" points="158,-0.5 158,-29.5 "/>
<text text-anchor="middle" x="197.5" y="-11.3" font-family="Times,serif" font-size="14.00" fill="#0058ad">r 1112 []</text>
<polyline fill="none" stroke="#0058ad" points="237,-0.5 237,-29.5 "/>
<text text-anchor="middle" x="294.5" y="-11.3" font-family="Times,serif" font-size="14.00" fill="#0058ad">r 1078 [1 2 3]</text>
<polyline fill="none" stroke="#0058ad" points="352,-0.5 352,-29.5 "/>
<text text-anchor="middle" x="391.5" y="-11.3" font-family="Times,serif" font-size="14.00" fill="#0058ad">a 1118 2</text>
<polyline fill="none" stroke="#0058ad" points="431,-0.5 431,-29.5 "/>
<text text-anchor="middle" x="470.5" y="-11.3" font-family="Times,serif" font-size="14.00" fill="#0058ad">a 1117 3</text>
<polyline fill="none" stroke="#0058ad" points="510,-0.5 510,-29.5 "/>
<text text-anchor="middle" x="549.5" y="-11.3" font-family="Times,serif" font-size="14.00" fill="#0058ad">a 1117 4</text>
<polyline fill="none" stroke="#0058ad" points="589,-0.5 589,-29.5 "/>
<text text-anchor="middle" x="628.5" y="-11.3" font-family="Times,serif" font-size="14.00" fill="#0058ad">a 1117 5</text>
<polyline fill="none" stroke="#0058ad" points="668,-0.5 668,-29.5 "/>
<text text-anchor="middle" x="707.5" y="-11.3" font-family="Times,serif" font-size="14.00" fill="#0058ad">r 1119 []</text>
</g>
<!-- T2704&#45;&gt;T2702 -->
<g id="edge2" class="edge">
<title>T2704:f3&#45;&gt;T2702:f4</title>
<path fill="none" stroke="#5b00c0" d="M512.5,-81C512.5,-26.52 407.04,-80.18 393.03,-40.06"/>
<polygon fill="#5b00c0" stroke="#5b00c0" points="396.46,-39.36 391.5,-30 389.54,-40.41 396.46,-39.36"/>
<text text-anchor="middle" x="513" y="-51.8" font-family="Times,serif" font-size="14.00" fill="#5b00c0">rw</text>
</g>
<!-- T2702&#45;&gt;T2699 -->
<g id="edge3" class="edge">
<title>T2702:f2&#45;&gt;T2699:f1</title>
<path fill="none" stroke="#5b00c0" d="M197.5,-30C197.5,-32.69 176.45,-95.95 186.5,-111 217.25,-157.04 298.12,-109.78 308.42,-151.95"/>
<polygon fill="#5b00c0" stroke="#5b00c0" points="304.95,-152.43 309.5,-162 311.91,-151.68 304.95,-152.43"/>
<text text-anchor="middle" x="196" y="-92.3" font-family="Times,serif" font-size="14.00" fill="#5b00c0">rw</text>
</g>
<!-- T2702&#45;&gt;T2704 -->
<g id="edge4" class="edge">
<title>T2702:f8&#45;&gt;T2704:f5</title>
<path fill="none" stroke="#5b00c0" d="M707.5,-30C707.5,-48.77 707.5,-55.88 707.5,-70.65"/>
<polygon fill="#5b00c0" stroke="#5b00c0" points="704,-71 707.5,-81 711,-71 704,-71"/>
<text text-anchor="middle" x="717" y="-51.8" font-family="Times,serif" font-size="14.00" fill="#5b00c0">rw</text>
</g>
</g>
</svg>
