<?xml version="1.0" encoding="UTF-8" standalone="no"?>
<!DOCTYPE svg PUBLIC "-//W3C//DTD SVG 1.1//EN"
 "http://www.w3.org/Graphics/SVG/1.1/DTD/svg11.dtd">
<!-- Generated by graphviz version 2.43.0 (0)
 -->
<!-- Title: a_graph Pages: 1 -->
<svg width="1046pt" height="119pt"
 viewBox="0.00 0.00 1046.00 119.00" xmlns="http://www.w3.org/2000/svg" xmlns:xlink="http://www.w3.org/1999/xlink">
<g id="graph0" class="graph" transform="scale(1 1) rotate(0) translate(4 115)">
<title>a_graph</title>
<polygon fill="white" stroke="transparent" points="-4,4 -4,-115 1042,-115 1042,4 -4,4"/>
<!-- T3462 -->
<g id="node1" class="node">
<title>T3462</title>
<polygon fill="none" stroke="#0058ad" points="0,-81.5 0,-110.5 1038,-110.5 1038,-81.5 0,-81.5"/>
<text text-anchor="middle" x="39.5" y="-92.3" font-family="Times,serif" font-size="14.00" fill="#0058ad">a 1437 1</text>
<polyline fill="none" stroke="#0058ad" points="79,-81.5 79,-110.5 "/>
<text text-anchor="middle" x="118.5" y="-92.3" font-family="Times,serif" font-size="14.00" fill="#0058ad">a 1435 2</text>
<polyline fill="none" stroke="#0058ad" points="158,-81.5 158,-110.5 "/>
<text text-anchor="middle" x="202" y="-92.3" font-family="Times,serif" font-size="14.00" fill="#0058ad">r 1437 [1]</text>
<polyline fill="none" stroke="#0058ad" points="246,-81.5 246,-110.5 "/>
<text text-anchor="middle" x="290" y="-92.3" font-family="Times,serif" font-size="14.00" fill="#0058ad">r 1435 [2]</text>
<polyline fill="none" stroke="#0058ad" points="334,-81.5 334,-110.5 "/>
<text text-anchor="middle" x="378" y="-92.3" font-family="Times,serif" font-size="14.00" fill="#0058ad">r 1435 [2]</text>
<polyline fill="none" stroke="#0058ad" points="422,-81.5 422,-110.5 "/>
<text text-anchor="middle" x="466" y="-92.3" font-family="Times,serif" font-size="14.00" fill="#0058ad">r 1437 [1]</text>
<polyline fill="none" stroke="#0058ad" points="510,-81.5 510,-110.5 "/>
<text text-anchor="middle" x="554" y="-92.3" font-family="Times,serif" font-size="14.00" fill="#0058ad">r 1434 [1]</text>
<polyline fill="none" stroke="#0058ad" points="598,-81.5 598,-110.5 "/>
<text text-anchor="middle" x="637.5" y="-92.3" font-family="Times,serif" font-size="14.00" fill="#0058ad">a 1436 1</text>
<polyline fill="none" stroke="#0058ad" points="677,-81.5 677,-110.5 "/>
<text text-anchor="middle" x="721" y="-92.3" font-family="Times,serif" font-size="14.00" fill="#0058ad">r 1437 [1]</text>
<polyline fill="none" stroke="#0058ad" points="765,-81.5 765,-110.5 "/>
<text text-anchor="middle" x="804.5" y="-92.3" font-family="Times,serif" font-size="14.00" fill="#0058ad">a 1437 2</text>
<polyline fill="none" stroke="#0058ad" points="844,-81.5 844,-110.5 "/>
<text text-anchor="middle" x="883.5" y="-92.3" font-family="Times,serif" font-size="14.00" fill="#0058ad">a 1437 3</text>
<polyline fill="none" stroke="#0058ad" points="923,-81.5 923,-110.5 "/>
<text text-anchor="middle" x="980.5" y="-92.3" font-family="Times,serif" font-size="14.00" fill="#0058ad">r 1437 [1 2 3]</text>
</g>
<!-- T3456 -->
<g id="node2" class="node">
<title>T3456</title>
<polygon fill="none" stroke="#0058ad" points="46.5,-0.5 46.5,-29.5 617.5,-29.5 617.5,-0.5 46.5,-0.5"/>
<text text-anchor="middle" x="90.5" y="-11.3" font-family="Times,serif" font-size="14.00" fill="#0058ad">r 1433 [2]</text>
<polyline fill="none" stroke="#0058ad" points="134.5,-0.5 134.5,-29.5 "/>
<text text-anchor="middle" x="178.5" y="-11.3" font-family="Times,serif" font-size="14.00" fill="#0058ad">r 1433 [2]</text>
<polyline fill="none" stroke="#0058ad" points="222.5,-0.5 222.5,-29.5 "/>
<text text-anchor="middle" x="262" y="-11.3" font-family="Times,serif" font-size="14.00" fill="#0058ad">r 1437 []</text>
<polyline fill="none" stroke="#0058ad" points="301.5,-0.5 301.5,-29.5 "/>
<text text-anchor="middle" x="341" y="-11.3" font-family="Times,serif" font-size="14.00" fill="#0058ad">r 1437 []</text>
<polyline fill="none" stroke="#0058ad" points="380.5,-0.5 380.5,-29.5 "/>
<text text-anchor="middle" x="420" y="-11.3" font-family="Times,serif" font-size="14.00" fill="#0058ad">a 1434 2</text>
<polyline fill="none" stroke="#0058ad" points="459.5,-0.5 459.5,-29.5 "/>
<text text-anchor="middle" x="499" y="-11.3" font-family="Times,serif" font-size="14.00" fill="#0058ad">a 1434 3</text>
<polyline fill="none" stroke="#0058ad" points="538.5,-0.5 538.5,-29.5 "/>
<text text-anchor="middle" x="578" y="-11.3" font-family="Times,serif" font-size="14.00" fill="#0058ad">r 1437 []</text>
</g>
<!-- T3462&#45;&gt;T3456 -->
<g id="edge1" class="edge">
<title>T3462:f6&#45;&gt;T3456:f4</title>
<path fill="none" stroke="#5b00c0" d="M554,-81C554,-21.14 435.74,-84.98 421.41,-40.1"/>
<polygon fill="#5b00c0" stroke="#5b00c0" points="424.85,-39.42 420,-30 417.92,-40.39 424.85,-39.42"/>
<text text-anchor="middle" x="555.5" y="-51.8" font-family="Times,serif" font-size="14.00" fill="#5b00c0">rw</text>
</g>
<!-- T3456&#45;&gt;T3462 -->
<g id="edge2" class="edge">
<title>T3456:f2&#45;&gt;T3462:f0</title>
<path fill="none" stroke="#5b00c0" d="M262,-30C262,-127.9 55.24,9.71 39.9,-70.7"/>
<polygon fill="#5b00c0" stroke="#5b00c0" points="36.38,-70.73 39,-81 43.36,-71.34 36.38,-70.73"/>
<text text-anchor="middle" x="266.5" y="-51.8" font-family="Times,serif" font-size="14.00" fill="#5b00c0">rw</text>
</g>
</g>
</svg>
