<?xml version="1.0" encoding="UTF-8" standalone="no"?>
<!DOCTYPE svg PUBLIC "-//W3C//DTD SVG 1.1//EN"
 "http://www.w3.org/Graphics/SVG/1.1/DTD/svg11.dtd">
<!-- Generated by graphviz version 2.43.0 (0)
 -->
<!-- Title: a_graph Pages: 1 -->
<svg width="1191pt" height="200pt"
 viewBox="0.00 0.00 1191.00 200.00" xmlns="http://www.w3.org/2000/svg" xmlns:xlink="http://www.w3.org/1999/xlink">
<g id="graph0" class="graph" transform="scale(1 1) rotate(0) translate(4 196)">
<title>a_graph</title>
<polygon fill="white" stroke="transparent" points="-4,4 -4,-196 1187,-196 1187,4 -4,4"/>
<!-- T3427 -->
<g id="node1" class="node">
<title>T3427</title>
<polygon fill="none" stroke="#0058ad" points="0,-162.5 0,-191.5 988,-191.5 988,-162.5 0,-162.5"/>
<text text-anchor="middle" x="39.5" y="-173.3" font-family="Times,serif" font-size="14.00" fill="#0058ad">a 1418 2</text>
<polyline fill="none" stroke="#0058ad" points="79,-162.5 79,-191.5 "/>
<text text-anchor="middle" x="129.5" y="-173.3" font-family="Times,serif" font-size="14.00" fill="#0058ad">r 1417 [1 2]</text>
<polyline fill="none" stroke="#0058ad" points="180,-162.5 180,-191.5 "/>
<text text-anchor="middle" x="219.5" y="-173.3" font-family="Times,serif" font-size="14.00" fill="#0058ad">a 1410 5</text>
<polyline fill="none" stroke="#0058ad" points="259,-162.5 259,-191.5 "/>
<text text-anchor="middle" x="298.5" y="-173.3" font-family="Times,serif" font-size="14.00" fill="#0058ad">r 1419 []</text>
<polyline fill="none" stroke="#0058ad" points="338,-162.5 338,-191.5 "/>
<text text-anchor="middle" x="377.5" y="-173.3" font-family="Times,serif" font-size="14.00" fill="#0058ad">r 1419 []</text>
<polyline fill="none" stroke="#0058ad" points="417,-162.5 417,-191.5 "/>
<text text-anchor="middle" x="456.5" y="-173.3" font-family="Times,serif" font-size="14.00" fill="#0058ad">a 1413 2</text>
<polyline fill="none" stroke="#0058ad" points="496,-162.5 496,-191.5 "/>
<text text-anchor="middle" x="535.5" y="-173.3" font-family="Times,serif" font-size="14.00" fill="#0058ad">a 1419 1</text>
<polyline fill="none" stroke="#0058ad" points="575,-162.5 575,-191.5 "/>
<text text-anchor="middle" x="619" y="-173.3" font-family="Times,serif" font-size="14.00" fill="#0058ad">r 1419 [1]</text>
<polyline fill="none" stroke="#0058ad" points="663,-162.5 663,-191.5 "/>
<text text-anchor="middle" x="702.5" y="-173.3" font-family="Times,serif" font-size="14.00" fill="#0058ad">a 1353 5</text>
<polyline fill="none" stroke="#0058ad" points="742,-162.5 742,-191.5 "/>
<text text-anchor="middle" x="781.5" y="-173.3" font-family="Times,serif" font-size="14.00" fill="#0058ad">a 1419 2</text>
<polyline fill="none" stroke="#0058ad" points="821,-162.5 821,-191.5 "/>
<text text-anchor="middle" x="860.5" y="-173.3" font-family="Times,serif" font-size="14.00" fill="#0058ad">a 1419 3</text>
<polyline fill="none" stroke="#0058ad" points="900,-162.5 900,-191.5 "/>
<text text-anchor="middle" x="944" y="-173.3" font-family="Times,serif" font-size="14.00" fill="#0058ad">r 1418 [2]</text>
</g>
<!-- T3433 -->
<g id="node3" class="node">
<title>T3433</title>
<polygon fill="none" stroke="#0058ad" points="479,-81.5 479,-110.5 1183,-110.5 1183,-81.5 479,-81.5"/>
<text text-anchor="middle" x="518.5" y="-92.3" font-family="Times,serif" font-size="14.00" fill="#0058ad">a 1413 5</text>
<polyline fill="none" stroke="#0058ad" points="558,-81.5 558,-110.5 "/>
<text text-anchor="middle" x="597.5" y="-92.3" font-family="Times,serif" font-size="14.00" fill="#0058ad">r 1424 []</text>
<polyline fill="none" stroke="#0058ad" points="637,-81.5 637,-110.5 "/>
<text text-anchor="middle" x="676.5" y="-92.3" font-family="Times,serif" font-size="14.00" fill="#0058ad">a 1426 1</text>
<polyline fill="none" stroke="#0058ad" points="716,-81.5 716,-110.5 "/>
<text text-anchor="middle" x="755.5" y="-92.3" font-family="Times,serif" font-size="14.00" fill="#0058ad">a 1426 2</text>
<polyline fill="none" stroke="#0058ad" points="795,-81.5 795,-110.5 "/>
<text text-anchor="middle" x="834.5" y="-92.3" font-family="Times,serif" font-size="14.00" fill="#0058ad">r 1420 []</text>
<polyline fill="none" stroke="#0058ad" points="874,-81.5 874,-110.5 "/>
<text text-anchor="middle" x="913.5" y="-92.3" font-family="Times,serif" font-size="14.00" fill="#0058ad">a 1426 3</text>
<polyline fill="none" stroke="#0058ad" points="953,-81.5 953,-110.5 "/>
<text text-anchor="middle" x="1010.5" y="-92.3" font-family="Times,serif" font-size="14.00" fill="#0058ad">r 1426 [1 2 3]</text>
<polyline fill="none" stroke="#0058ad" points="1068,-81.5 1068,-110.5 "/>
<text text-anchor="middle" x="1125.5" y="-92.3" font-family="Times,serif" font-size="14.00" fill="#0058ad">r 1413 [1 2 5]</text>
</g>
<!-- T3427&#45;&gt;T3433 -->
<g id="edge1" class="edge">
<title>T3427:f5&#45;&gt;T3433:f0</title>
<path fill="none" stroke="#c02700" d="M456,-162C456,-130.22 505.18,-142.9 515.94,-120.84"/>
<polygon fill="#c02700" stroke="#c02700" points="519.37,-121.51 518,-111 512.52,-120.07 519.37,-121.51"/>
<text text-anchor="middle" x="519.5" y="-132.8" font-family="Times,serif" font-size="14.00" fill="#c02700">ww</text>
</g>
<!-- T3430 -->
<g id="node2" class="node">
<title>T3430</title>
<polygon fill="none" stroke="#0058ad" points="67,-0.5 67,-29.5 1091,-29.5 1091,-0.5 67,-0.5"/>
<text text-anchor="middle" x="106.5" y="-11.3" font-family="Times,serif" font-size="14.00" fill="#0058ad">a 1422 5</text>
<polyline fill="none" stroke="#0058ad" points="146,-0.5 146,-29.5 "/>
<text text-anchor="middle" x="185.5" y="-11.3" font-family="Times,serif" font-size="14.00" fill="#0058ad">a 1421 4</text>
<polyline fill="none" stroke="#0058ad" points="225,-0.5 225,-29.5 "/>
<text text-anchor="middle" x="264.5" y="-11.3" font-family="Times,serif" font-size="14.00" fill="#0058ad">a 1423 1</text>
<polyline fill="none" stroke="#0058ad" points="304,-0.5 304,-29.5 "/>
<text text-anchor="middle" x="348" y="-11.3" font-family="Times,serif" font-size="14.00" fill="#0058ad">r 1421 [4]</text>
<polyline fill="none" stroke="#0058ad" points="392,-0.5 392,-29.5 "/>
<text text-anchor="middle" x="436" y="-11.3" font-family="Times,serif" font-size="14.00" fill="#0058ad">r 1413 [1]</text>
<polyline fill="none" stroke="#0058ad" points="480,-0.5 480,-29.5 "/>
<text text-anchor="middle" x="519.5" y="-11.3" font-family="Times,serif" font-size="14.00" fill="#0058ad">r 1424 []</text>
<polyline fill="none" stroke="#0058ad" points="559,-0.5 559,-29.5 "/>
<text text-anchor="middle" x="598.5" y="-11.3" font-family="Times,serif" font-size="14.00" fill="#0058ad">a 1424 1</text>
<polyline fill="none" stroke="#0058ad" points="638,-0.5 638,-29.5 "/>
<text text-anchor="middle" x="677.5" y="-11.3" font-family="Times,serif" font-size="14.00" fill="#0058ad">a 1421 5</text>
<polyline fill="none" stroke="#0058ad" points="717,-0.5 717,-29.5 "/>
<text text-anchor="middle" x="756.5" y="-11.3" font-family="Times,serif" font-size="14.00" fill="#0058ad">a 1424 2</text>
<polyline fill="none" stroke="#0058ad" points="796,-0.5 796,-29.5 "/>
<text text-anchor="middle" x="846.5" y="-11.3" font-family="Times,serif" font-size="14.00" fill="#0058ad">r 1421 [4 5]</text>
<polyline fill="none" stroke="#0058ad" points="897,-0.5 897,-29.5 "/>
<text text-anchor="middle" x="936.5" y="-11.3" font-family="Times,serif" font-size="14.00" fill="#0058ad">a 1424 3</text>
<polyline fill="none" stroke="#0058ad" points="976,-0.5 976,-29.5 "/>
<text text-anchor="middle" x="1033.5" y="-11.3" font-family="Times,serif" font-size="14.00" fill="#0058ad">r 1424 [1 2 3]</text>
</g>
<!-- T3430&#45;&gt;T3427 -->
<g id="edge2" class="edge">
<title>T3430:f4&#45;&gt;T3427:f5</title>
<path fill="none" stroke="#5b00c0" d="M436,-30C436,-85.74 453.65,-100.88 455.79,-151.71"/>
<polygon fill="#5b00c0" stroke="#5b00c0" points="452.3,-152.07 456,-162 459.29,-151.93 452.3,-152.07"/>
<text text-anchor="middle" x="459.5" y="-92.3" font-family="Times,serif" font-size="14.00" fill="#5b00c0">rw</text>
</g>
<!-- T3433&#45;&gt;T3430 -->
<g id="edge3" class="edge">
<title>T3433:f1&#45;&gt;T3430:f6</title>
<path fill="none" stroke="#5b00c0" d="M597,-81C597,-62.21 598.37,-55.12 598.84,-40.36"/>
<polygon fill="#5b00c0" stroke="#5b00c0" points="602.35,-40.05 599,-30 595.35,-39.95 602.35,-40.05"/>
<text text-anchor="middle" x="607.5" y="-51.8" font-family="Times,serif" font-size="14.00" fill="#5b00c0">rw</text>
</g>
</g>
</svg>
