<?xml version="1.0" encoding="UTF-8" standalone="no"?>
<!DOCTYPE svg PUBLIC "-//W3C//DTD SVG 1.1//EN"
 "http://www.w3.org/Graphics/SVG/1.1/DTD/svg11.dtd">
<!-- Generated by graphviz version 2.43.0 (0)
 -->
<!-- Title: a_graph Pages: 1 -->
<svg width="857pt" height="119pt"
 viewBox="0.00 0.00 857.00 119.00" xmlns="http://www.w3.org/2000/svg" xmlns:xlink="http://www.w3.org/1999/xlink">
<g id="graph0" class="graph" transform="scale(1 1) rotate(0) translate(4 115)">
<title>a_graph</title>
<polygon fill="white" stroke="transparent" points="-4,4 -4,-115 853,-115 853,4 -4,4"/>
<!-- T1205 -->
<g id="node1" class="node">
<title>T1205</title>
<polygon fill="none" stroke="#0058ad" points="0,-81.5 0,-110.5 780,-110.5 780,-81.5 0,-81.5"/>
<text text-anchor="middle" x="46" y="-92.3" font-family="Times,serif" font-size="14.00" fill="#0058ad">r 497 [1 2]</text>
<polyline fill="none" stroke="#0058ad" points="92,-81.5 92,-110.5 "/>
<text text-anchor="middle" x="127" y="-92.3" font-family="Times,serif" font-size="14.00" fill="#0058ad">a 497 5</text>
<polyline fill="none" stroke="#0058ad" points="162,-81.5 162,-110.5 "/>
<text text-anchor="middle" x="197" y="-92.3" font-family="Times,serif" font-size="14.00" fill="#0058ad">a 498 2</text>
<polyline fill="none" stroke="#0058ad" points="232,-81.5 232,-110.5 "/>
<text text-anchor="middle" x="278" y="-92.3" font-family="Times,serif" font-size="14.00" fill="#0058ad">r 491 [1 3]</text>
<polyline fill="none" stroke="#0058ad" points="324,-81.5 324,-110.5 "/>
<text text-anchor="middle" x="359" y="-92.3" font-family="Times,serif" font-size="14.00" fill="#0058ad">a 498 3</text>
<polyline fill="none" stroke="#0058ad" points="394,-81.5 394,-110.5 "/>
<text text-anchor="middle" x="447" y="-92.3" font-family="Times,serif" font-size="14.00" fill="#0058ad">r 498 [1 2 3]</text>
<polyline fill="none" stroke="#0058ad" points="500,-81.5 500,-110.5 "/>
<text text-anchor="middle" x="535" y="-92.3" font-family="Times,serif" font-size="14.00" fill="#0058ad">a 460 2</text>
<polyline fill="none" stroke="#0058ad" points="570,-81.5 570,-110.5 "/>
<text text-anchor="middle" x="605" y="-92.3" font-family="Times,serif" font-size="14.00" fill="#0058ad">r 495 []</text>
<polyline fill="none" stroke="#0058ad" points="640,-81.5 640,-110.5 "/>
<text text-anchor="middle" x="675" y="-92.3" font-family="Times,serif" font-size="14.00" fill="#0058ad">a 498 4</text>
<polyline fill="none" stroke="#0058ad" points="710,-81.5 710,-110.5 "/>
<text text-anchor="middle" x="745" y="-92.3" font-family="Times,serif" font-size="14.00" fill="#0058ad">a 485 5</text>
</g>
<!-- T1203 -->
<g id="node2" class="node">
<title>T1203</title>
<polygon fill="none" stroke="#0058ad" points="3,-0.5 3,-29.5 849,-29.5 849,-0.5 3,-0.5"/>
<text text-anchor="middle" x="49" y="-11.3" font-family="Times,serif" font-size="14.00" fill="#0058ad">r 497 [1 2]</text>
<polyline fill="none" stroke="#0058ad" points="95,-0.5 95,-29.5 "/>
<text text-anchor="middle" x="134.5" y="-11.3" font-family="Times,serif" font-size="14.00" fill="#0058ad">r 498 [1]</text>
<polyline fill="none" stroke="#0058ad" points="174,-0.5 174,-29.5 "/>
<text text-anchor="middle" x="209" y="-11.3" font-family="Times,serif" font-size="14.00" fill="#0058ad">a 499 1</text>
<polyline fill="none" stroke="#0058ad" points="244,-0.5 244,-29.5 "/>
<text text-anchor="middle" x="279" y="-11.3" font-family="Times,serif" font-size="14.00" fill="#0058ad">r 466 []</text>
<polyline fill="none" stroke="#0058ad" points="314,-0.5 314,-29.5 "/>
<text text-anchor="middle" x="349" y="-11.3" font-family="Times,serif" font-size="14.00" fill="#0058ad">r 286 []</text>
<polyline fill="none" stroke="#0058ad" points="384,-0.5 384,-29.5 "/>
<text text-anchor="middle" x="423.5" y="-11.3" font-family="Times,serif" font-size="14.00" fill="#0058ad">r 498 [1]</text>
<polyline fill="none" stroke="#0058ad" points="463,-0.5 463,-29.5 "/>
<text text-anchor="middle" x="502.5" y="-11.3" font-family="Times,serif" font-size="14.00" fill="#0058ad">r 499 [1]</text>
<polyline fill="none" stroke="#0058ad" points="542,-0.5 542,-29.5 "/>
<text text-anchor="middle" x="581.5" y="-11.3" font-family="Times,serif" font-size="14.00" fill="#0058ad">r 499 [1]</text>
<polyline fill="none" stroke="#0058ad" points="621,-0.5 621,-29.5 "/>
<text text-anchor="middle" x="660.5" y="-11.3" font-family="Times,serif" font-size="14.00" fill="#0058ad">r 498 [1]</text>
<polyline fill="none" stroke="#0058ad" points="700,-0.5 700,-29.5 "/>
<text text-anchor="middle" x="735" y="-11.3" font-family="Times,serif" font-size="14.00" fill="#0058ad">a 495 2</text>
<polyline fill="none" stroke="#0058ad" points="770,-0.5 770,-29.5 "/>
<text text-anchor="middle" x="809.5" y="-11.3" font-family="Times,serif" font-size="14.00" fill="#0058ad">r 499 [1]</text>
</g>
<!-- T1205&#45;&gt;T1203 -->
<g id="edge1" class="edge">
<title>T1205:f7&#45;&gt;T1203:f9</title>
<path fill="none" stroke="#5b00c0" d="M605,-81C605,-22.81 719.26,-83.45 733.54,-40.12"/>
<polygon fill="#5b00c0" stroke="#5b00c0" points="737.04,-40.4 735,-30 730.11,-39.4 737.04,-40.4"/>
<text text-anchor="middle" x="737.5" y="-51.8" font-family="Times,serif" font-size="14.00" fill="#5b00c0">rw</text>
</g>
<!-- T1203&#45;&gt;T1205 -->
<g id="edge2" class="edge">
<title>T1203:f0&#45;&gt;T1205:f1</title>
<path fill="none" stroke="#5b00c0" d="M49,-30C49,-67.54 113.06,-44.91 125.07,-71.16"/>
<polygon fill="#5b00c0" stroke="#5b00c0" points="121.64,-71.86 127,-81 128.51,-70.51 121.64,-71.86"/>
<text text-anchor="middle" x="127.5" y="-51.8" font-family="Times,serif" font-size="14.00" fill="#5b00c0">rw</text>
</g>
</g>
</svg>
