<?xml version="1.0" encoding="UTF-8" standalone="no"?>
<!DOCTYPE svg PUBLIC "-//W3C//DTD SVG 1.1//EN"
 "http://www.w3.org/Graphics/SVG/1.1/DTD/svg11.dtd">
<!-- Generated by graphviz version 2.43.0 (0)
 -->
<!-- Title: a_graph Pages: 1 -->
<svg width="766pt" height="119pt"
 viewBox="0.00 0.00 766.00 119.00" xmlns="http://www.w3.org/2000/svg" xmlns:xlink="http://www.w3.org/1999/xlink">
<g id="graph0" class="graph" transform="scale(1 1) rotate(0) translate(4 115)">
<title>a_graph</title>
<polygon fill="white" stroke="transparent" points="-4,4 -4,-115 762,-115 762,4 -4,4"/>
<!-- T561 -->
<g id="node1" class="node">
<title>T561</title>
<polygon fill="none" stroke="#0058ad" points="39,-81.5 39,-110.5 477,-110.5 477,-81.5 39,-81.5"/>
<text text-anchor="middle" x="74" y="-92.3" font-family="Times,serif" font-size="14.00" fill="#0058ad">r 230 []</text>
<polyline fill="none" stroke="#0058ad" points="109,-81.5 109,-110.5 "/>
<text text-anchor="middle" x="144" y="-92.3" font-family="Times,serif" font-size="14.00" fill="#0058ad">a 230 1</text>
<polyline fill="none" stroke="#0058ad" points="179,-81.5 179,-110.5 "/>
<text text-anchor="middle" x="218.5" y="-92.3" font-family="Times,serif" font-size="14.00" fill="#0058ad">r 230 [1]</text>
<polyline fill="none" stroke="#0058ad" points="258,-81.5 258,-110.5 "/>
<text text-anchor="middle" x="293" y="-92.3" font-family="Times,serif" font-size="14.00" fill="#0058ad">r 225 []</text>
<polyline fill="none" stroke="#0058ad" points="328,-81.5 328,-110.5 "/>
<text text-anchor="middle" x="363" y="-92.3" font-family="Times,serif" font-size="14.00" fill="#0058ad">a 230 2</text>
<polyline fill="none" stroke="#0058ad" points="398,-81.5 398,-110.5 "/>
<text text-anchor="middle" x="437.5" y="-92.3" font-family="Times,serif" font-size="14.00" fill="#0058ad">r 221 [2]</text>
</g>
<!-- T558 -->
<g id="node2" class="node">
<title>T558</title>
<polygon fill="none" stroke="#0058ad" points="0,-0.5 0,-29.5 758,-29.5 758,-0.5 0,-0.5"/>
<text text-anchor="middle" x="35" y="-11.3" font-family="Times,serif" font-size="14.00" fill="#0058ad">a 221 3</text>
<polyline fill="none" stroke="#0058ad" points="70,-0.5 70,-29.5 "/>
<text text-anchor="middle" x="105" y="-11.3" font-family="Times,serif" font-size="14.00" fill="#0058ad">a 227 4</text>
<polyline fill="none" stroke="#0058ad" points="140,-0.5 140,-29.5 "/>
<text text-anchor="middle" x="175" y="-11.3" font-family="Times,serif" font-size="14.00" fill="#0058ad">a 228 5</text>
<polyline fill="none" stroke="#0058ad" points="210,-0.5 210,-29.5 "/>
<text text-anchor="middle" x="245" y="-11.3" font-family="Times,serif" font-size="14.00" fill="#0058ad">a 229 5</text>
<polyline fill="none" stroke="#0058ad" points="280,-0.5 280,-29.5 "/>
<text text-anchor="middle" x="326" y="-11.3" font-family="Times,serif" font-size="14.00" fill="#0058ad">r 229 [1 5]</text>
<polyline fill="none" stroke="#0058ad" points="372,-0.5 372,-29.5 "/>
<text text-anchor="middle" x="407" y="-11.3" font-family="Times,serif" font-size="14.00" fill="#0058ad">a 225 1</text>
<polyline fill="none" stroke="#0058ad" points="442,-0.5 442,-29.5 "/>
<text text-anchor="middle" x="477" y="-11.3" font-family="Times,serif" font-size="14.00" fill="#0058ad">a 227 5</text>
<polyline fill="none" stroke="#0058ad" points="512,-0.5 512,-29.5 "/>
<text text-anchor="middle" x="547" y="-11.3" font-family="Times,serif" font-size="14.00" fill="#0058ad">r 230 []</text>
<polyline fill="none" stroke="#0058ad" points="582,-0.5 582,-29.5 "/>
<text text-anchor="middle" x="617" y="-11.3" font-family="Times,serif" font-size="14.00" fill="#0058ad">r 230 []</text>
<polyline fill="none" stroke="#0058ad" points="652,-0.5 652,-29.5 "/>
<text text-anchor="middle" x="705" y="-11.3" font-family="Times,serif" font-size="14.00" fill="#0058ad">r 210 [1 3 4]</text>
</g>
<!-- T561&#45;&gt;T558 -->
<g id="edge1" class="edge">
<title>T561:f5&#45;&gt;T558:f0</title>
<path fill="none" stroke="#5b00c0" d="M438,-81C438,12.6 322.87,-59.64 230,-48 211.11,-45.63 75.98,-50.29 42.49,-36.91"/>
<polygon fill="#5b00c0" stroke="#5b00c0" points="44.72,-34.21 35,-30 39.98,-39.35 44.72,-34.21"/>
<text text-anchor="middle" x="445.5" y="-51.8" font-family="Times,serif" font-size="14.00" fill="#5b00c0">rw</text>
</g>
<!-- T558&#45;&gt;T561 -->
<g id="edge2" class="edge">
<title>T558:f7&#45;&gt;T561:f1</title>
<path fill="none" stroke="#5b00c0" d="M547,-30C547,-48.92 225.24,-43 207,-48 180.33,-55.32 152.1,-50.89 145.46,-70.85"/>
<polygon fill="#5b00c0" stroke="#5b00c0" points="141.96,-70.6 144,-81 148.89,-71.6 141.96,-70.6"/>
<text text-anchor="middle" x="216.5" y="-51.8" font-family="Times,serif" font-size="14.00" fill="#5b00c0">rw</text>
</g>
</g>
</svg>
