<?xml version="1.0" encoding="UTF-8" standalone="no"?>
<!DOCTYPE svg PUBLIC "-//W3C//DTD SVG 1.1//EN"
 "http://www.w3.org/Graphics/SVG/1.1/DTD/svg11.dtd">
<!-- Generated by graphviz version 2.43.0 (0)
 -->
<!-- Title: a_graph Pages: 1 -->
<svg width="549pt" height="119pt"
 viewBox="0.00 0.00 549.00 119.00" xmlns="http://www.w3.org/2000/svg" xmlns:xlink="http://www.w3.org/1999/xlink">
<g id="graph0" class="graph" transform="scale(1 1) rotate(0) translate(4 115)">
<title>a_graph</title>
<polygon fill="white" stroke="transparent" points="-4,4 -4,-115 545,-115 545,4 -4,4"/>
<!-- T3072 -->
<g id="node1" class="node">
<title>T3072</title>
<polygon fill="none" stroke="#0058ad" points="0,-81.5 0,-110.5 431,-110.5 431,-81.5 0,-81.5"/>
<text text-anchor="middle" x="39.5" y="-92.3" font-family="Times,serif" font-size="14.00" fill="#0058ad">a 1285 2</text>
<polyline fill="none" stroke="#0058ad" points="79,-81.5 79,-110.5 "/>
<text text-anchor="middle" x="118.5" y="-92.3" font-family="Times,serif" font-size="14.00" fill="#0058ad">a 1281 3</text>
<polyline fill="none" stroke="#0058ad" points="158,-81.5 158,-110.5 "/>
<text text-anchor="middle" x="197.5" y="-92.3" font-family="Times,serif" font-size="14.00" fill="#0058ad">a 1287 1</text>
<polyline fill="none" stroke="#0058ad" points="237,-81.5 237,-110.5 "/>
<text text-anchor="middle" x="276.5" y="-92.3" font-family="Times,serif" font-size="14.00" fill="#0058ad">r 1288 []</text>
<polyline fill="none" stroke="#0058ad" points="316,-81.5 316,-110.5 "/>
<text text-anchor="middle" x="373.5" y="-92.3" font-family="Times,serif" font-size="14.00" fill="#0058ad">r 1281 [1 2 3]</text>
</g>
<!-- T3073 -->
<g id="node2" class="node">
<title>T3073</title>
<polygon fill="none" stroke="#0058ad" points="128,-0.5 128,-29.5 541,-29.5 541,-0.5 128,-0.5"/>
<text text-anchor="middle" x="167.5" y="-11.3" font-family="Times,serif" font-size="14.00" fill="#0058ad">r 1287 []</text>
<polyline fill="none" stroke="#0058ad" points="207,-0.5 207,-29.5 "/>
<text text-anchor="middle" x="246.5" y="-11.3" font-family="Times,serif" font-size="14.00" fill="#0058ad">r 1288 []</text>
<polyline fill="none" stroke="#0058ad" points="286,-0.5 286,-29.5 "/>
<text text-anchor="middle" x="325.5" y="-11.3" font-family="Times,serif" font-size="14.00" fill="#0058ad">a 1288 1</text>
<polyline fill="none" stroke="#0058ad" points="365,-0.5 365,-29.5 "/>
<text text-anchor="middle" x="409" y="-11.3" font-family="Times,serif" font-size="14.00" fill="#0058ad">r 1288 [1]</text>
<polyline fill="none" stroke="#0058ad" points="453,-0.5 453,-29.5 "/>
<text text-anchor="middle" x="497" y="-11.3" font-family="Times,serif" font-size="14.00" fill="#0058ad">r 1288 [1]</text>
</g>
<!-- T3072&#45;&gt;T3073 -->
<g id="edge1" class="edge">
<title>T3072:f3&#45;&gt;T3073:f2</title>
<path fill="none" stroke="#5b00c0" d="M276.5,-81C276.5,-53.5 314.02,-59.14 323.39,-39.93"/>
<polygon fill="#5b00c0" stroke="#5b00c0" points="326.85,-40.51 325.5,-30 320,-39.06 326.85,-40.51"/>
<text text-anchor="middle" x="325" y="-51.8" font-family="Times,serif" font-size="14.00" fill="#5b00c0">rw</text>
</g>
<!-- T3073&#45;&gt;T3072 -->
<g id="edge2" class="edge">
<title>T3073:f0&#45;&gt;T3072:f2</title>
<path fill="none" stroke="#5b00c0" d="M167.5,-30C167.5,-52.39 189.25,-54.56 195.71,-70.95"/>
<polygon fill="#5b00c0" stroke="#5b00c0" points="192.3,-71.77 197.5,-81 199.2,-70.54 192.3,-71.77"/>
<text text-anchor="middle" x="200" y="-51.8" font-family="Times,serif" font-size="14.00" fill="#5b00c0">rw</text>
</g>
</g>
</svg>
