<?xml version="1.0" encoding="UTF-8" standalone="no"?>
<!DOCTYPE svg PUBLIC "-//W3C//DTD SVG 1.1//EN"
 "http://www.w3.org/Graphics/SVG/1.1/DTD/svg11.dtd">
<!-- Generated by graphviz version 2.43.0 (0)
 -->
<!-- Title: a_graph Pages: 1 -->
<svg width="627pt" height="119pt"
 viewBox="0.00 0.00 627.00 119.00" xmlns="http://www.w3.org/2000/svg" xmlns:xlink="http://www.w3.org/1999/xlink">
<g id="graph0" class="graph" transform="scale(1 1) rotate(0) translate(4 115)">
<title>a_graph</title>
<polygon fill="white" stroke="transparent" points="-4,4 -4,-115 623,-115 623,4 -4,4"/>
<!-- T1130 -->
<g id="node1" class="node">
<title>T1130</title>
<polygon fill="none" stroke="#0058ad" points="0,-81.5 0,-110.5 311,-110.5 311,-81.5 0,-81.5"/>
<text text-anchor="middle" x="46" y="-92.3" font-family="Times,serif" font-size="14.00" fill="#0058ad">r 473 [1 2]</text>
<polyline fill="none" stroke="#0058ad" points="92,-81.5 92,-110.5 "/>
<text text-anchor="middle" x="131.5" y="-92.3" font-family="Times,serif" font-size="14.00" fill="#0058ad">r 471 [1]</text>
<polyline fill="none" stroke="#0058ad" points="171,-81.5 171,-110.5 "/>
<text text-anchor="middle" x="206" y="-92.3" font-family="Times,serif" font-size="14.00" fill="#0058ad">a 473 3</text>
<polyline fill="none" stroke="#0058ad" points="241,-81.5 241,-110.5 "/>
<text text-anchor="middle" x="276" y="-92.3" font-family="Times,serif" font-size="14.00" fill="#0058ad">a 470 3</text>
</g>
<!-- T1131 -->
<g id="node2" class="node">
<title>T1131</title>
<polygon fill="none" stroke="#0058ad" points="102,-0.5 102,-29.5 619,-29.5 619,-0.5 102,-0.5"/>
<text text-anchor="middle" x="141.5" y="-11.3" font-family="Times,serif" font-size="14.00" fill="#0058ad">r 470 [1]</text>
<polyline fill="none" stroke="#0058ad" points="181,-0.5 181,-29.5 "/>
<text text-anchor="middle" x="216" y="-11.3" font-family="Times,serif" font-size="14.00" fill="#0058ad">a 471 3</text>
<polyline fill="none" stroke="#0058ad" points="251,-0.5 251,-29.5 "/>
<text text-anchor="middle" x="286" y="-11.3" font-family="Times,serif" font-size="14.00" fill="#0058ad">r 475 []</text>
<polyline fill="none" stroke="#0058ad" points="321,-0.5 321,-29.5 "/>
<text text-anchor="middle" x="356" y="-11.3" font-family="Times,serif" font-size="14.00" fill="#0058ad">a 475 1</text>
<polyline fill="none" stroke="#0058ad" points="391,-0.5 391,-29.5 "/>
<text text-anchor="middle" x="430.5" y="-11.3" font-family="Times,serif" font-size="14.00" fill="#0058ad">r 463 [1]</text>
<polyline fill="none" stroke="#0058ad" points="470,-0.5 470,-29.5 "/>
<text text-anchor="middle" x="509.5" y="-11.3" font-family="Times,serif" font-size="14.00" fill="#0058ad">r 475 [1]</text>
<polyline fill="none" stroke="#0058ad" points="549,-0.5 549,-29.5 "/>
<text text-anchor="middle" x="584" y="-11.3" font-family="Times,serif" font-size="14.00" fill="#0058ad">a 475 2</text>
</g>
<!-- T1130&#45;&gt;T1131 -->
<g id="edge1" class="edge">
<title>T1130:f1&#45;&gt;T1131:f1</title>
<path fill="none" stroke="#5b00c0" d="M131.5,-81C131.5,-41.25 201.08,-67.79 213.59,-39.95"/>
<polygon fill="#5b00c0" stroke="#5b00c0" points="217.05,-40.48 215.5,-30 210.18,-39.16 217.05,-40.48"/>
<text text-anchor="middle" x="215" y="-51.8" font-family="Times,serif" font-size="14.00" fill="#5b00c0">rw</text>
</g>
<!-- T1131&#45;&gt;T1130 -->
<g id="edge2" class="edge">
<title>T1131:f0&#45;&gt;T1130:f3</title>
<path fill="none" stroke="#5b00c0" d="M141.5,-30C141.5,-49.74 210.34,-40.25 228.5,-48 248.59,-56.57 268.95,-55.74 274.82,-70.82"/>
<polygon fill="#5b00c0" stroke="#5b00c0" points="271.42,-71.7 276.5,-81 278.33,-70.56 271.42,-71.7"/>
<text text-anchor="middle" x="278" y="-51.8" font-family="Times,serif" font-size="14.00" fill="#5b00c0">rw</text>
</g>
</g>
</svg>
