<?xml version="1.0" encoding="UTF-8" standalone="no"?>
<!DOCTYPE svg PUBLIC "-//W3C//DTD SVG 1.1//EN"
 "http://www.w3.org/Graphics/SVG/1.1/DTD/svg11.dtd">
<!-- Generated by graphviz version 2.43.0 (0)
 -->
<!-- Title: a_graph Pages: 1 -->
<svg width="434pt" height="119pt"
 viewBox="0.00 0.00 434.00 119.00" xmlns="http://www.w3.org/2000/svg" xmlns:xlink="http://www.w3.org/1999/xlink">
<g id="graph0" class="graph" transform="scale(1 1) rotate(0) translate(4 115)">
<title>a_graph</title>
<polygon fill="white" stroke="transparent" points="-4,4 -4,-115 430,-115 430,4 -4,4"/>
<!-- T3011 -->
<g id="node1" class="node">
<title>T3011</title>
<polygon fill="none" stroke="#0058ad" points="55,-81.5 55,-110.5 371,-110.5 371,-81.5 55,-81.5"/>
<text text-anchor="middle" x="94.5" y="-92.3" font-family="Times,serif" font-size="14.00" fill="#0058ad">a 1258 1</text>
<polyline fill="none" stroke="#0058ad" points="134,-81.5 134,-110.5 "/>
<text text-anchor="middle" x="173.5" y="-92.3" font-family="Times,serif" font-size="14.00" fill="#0058ad">a 1258 2</text>
<polyline fill="none" stroke="#0058ad" points="213,-81.5 213,-110.5 "/>
<text text-anchor="middle" x="252.5" y="-92.3" font-family="Times,serif" font-size="14.00" fill="#0058ad">a 1258 3</text>
<polyline fill="none" stroke="#0058ad" points="292,-81.5 292,-110.5 "/>
<text text-anchor="middle" x="331.5" y="-92.3" font-family="Times,serif" font-size="14.00" fill="#0058ad">r 1256 []</text>
</g>
<!-- T3010 -->
<g id="node2" class="node">
<title>T3010</title>
<polygon fill="none" stroke="#0058ad" points="0,-0.5 0,-29.5 426,-29.5 426,-0.5 0,-0.5"/>
<text text-anchor="middle" x="39.5" y="-11.3" font-family="Times,serif" font-size="14.00" fill="#0058ad">a 1256 1</text>
<polyline fill="none" stroke="#0058ad" points="79,-0.5 79,-29.5 "/>
<text text-anchor="middle" x="118.5" y="-11.3" font-family="Times,serif" font-size="14.00" fill="#0058ad">a 1256 2</text>
<polyline fill="none" stroke="#0058ad" points="158,-0.5 158,-29.5 "/>
<text text-anchor="middle" x="208.5" y="-11.3" font-family="Times,serif" font-size="14.00" fill="#0058ad">r 1256 [1 2]</text>
<polyline fill="none" stroke="#0058ad" points="259,-0.5 259,-29.5 "/>
<text text-anchor="middle" x="303" y="-11.3" font-family="Times,serif" font-size="14.00" fill="#0058ad">r 1257 [1]</text>
<polyline fill="none" stroke="#0058ad" points="347,-0.5 347,-29.5 "/>
<text text-anchor="middle" x="386.5" y="-11.3" font-family="Times,serif" font-size="14.00" fill="#0058ad">r 1258 []</text>
</g>
<!-- T3011&#45;&gt;T3010 -->
<g id="edge1" class="edge">
<title>T3011:f3&#45;&gt;T3010:f0</title>
<path fill="none" stroke="#5b00c0" d="M332,-81C332,-5.78 240.16,-60.62 166,-48 141.52,-43.84 63.32,-54.9 43.57,-38.98"/>
<polygon fill="#5b00c0" stroke="#5b00c0" points="46.65,-37.33 39,-30 40.41,-40.5 46.65,-37.33"/>
<text text-anchor="middle" x="338.5" y="-51.8" font-family="Times,serif" font-size="14.00" fill="#5b00c0">rw</text>
</g>
<!-- T3010&#45;&gt;T3011 -->
<g id="edge2" class="edge">
<title>T3010:f4&#45;&gt;T3011:f0</title>
<path fill="none" stroke="#5b00c0" d="M387,-30C387,-57.18 168.69,-39.11 143,-48 121.87,-55.31 101.19,-55.06 95.52,-71.04"/>
<polygon fill="#5b00c0" stroke="#5b00c0" points="92.05,-70.59 94,-81 98.97,-71.64 92.05,-70.59"/>
<text text-anchor="middle" x="152.5" y="-51.8" font-family="Times,serif" font-size="14.00" fill="#5b00c0">rw</text>
</g>
</g>
</svg>
