<?xml version="1.0" encoding="UTF-8" standalone="no"?>
<!DOCTYPE svg PUBLIC "-//W3C//DTD SVG 1.1//EN"
 "http://www.w3.org/Graphics/SVG/1.1/DTD/svg11.dtd">
<!-- Generated by graphviz version 2.43.0 (0)
 -->
<!-- Title: a_graph Pages: 1 -->
<svg width="804pt" height="119pt"
 viewBox="0.00 0.00 804.50 119.00" xmlns="http://www.w3.org/2000/svg" xmlns:xlink="http://www.w3.org/1999/xlink">
<g id="graph0" class="graph" transform="scale(1 1) rotate(0) translate(4 115)">
<title>a_graph</title>
<polygon fill="white" stroke="transparent" points="-4,4 -4,-115 800.5,-115 800.5,4 -4,4"/>
<!-- T2393 -->
<g id="node1" class="node">
<title>T2393</title>
<polygon fill="none" stroke="#0058ad" points="0,-81.5 0,-110.5 645,-110.5 645,-81.5 0,-81.5"/>
<text text-anchor="middle" x="39.5" y="-92.3" font-family="Times,serif" font-size="14.00" fill="#0058ad">a 1001 1</text>
<polyline fill="none" stroke="#0058ad" points="79,-81.5 79,-110.5 "/>
<text text-anchor="middle" x="118.5" y="-92.3" font-family="Times,serif" font-size="14.00" fill="#0058ad">r 1000 []</text>
<polyline fill="none" stroke="#0058ad" points="158,-81.5 158,-110.5 "/>
<text text-anchor="middle" x="197.5" y="-92.3" font-family="Times,serif" font-size="14.00" fill="#0058ad">r 1000 []</text>
<polyline fill="none" stroke="#0058ad" points="237,-81.5 237,-110.5 "/>
<text text-anchor="middle" x="272" y="-92.3" font-family="Times,serif" font-size="14.00" fill="#0058ad">a 998 1</text>
<polyline fill="none" stroke="#0058ad" points="307,-81.5 307,-110.5 "/>
<text text-anchor="middle" x="346.5" y="-92.3" font-family="Times,serif" font-size="14.00" fill="#0058ad">a 1001 2</text>
<polyline fill="none" stroke="#0058ad" points="386,-81.5 386,-110.5 "/>
<text text-anchor="middle" x="436.5" y="-92.3" font-family="Times,serif" font-size="14.00" fill="#0058ad">r 1001 [1 2]</text>
<polyline fill="none" stroke="#0058ad" points="487,-81.5 487,-110.5 "/>
<text text-anchor="middle" x="526.5" y="-92.3" font-family="Times,serif" font-size="14.00" fill="#0058ad">a 1001 3</text>
<polyline fill="none" stroke="#0058ad" points="566,-81.5 566,-110.5 "/>
<text text-anchor="middle" x="605.5" y="-92.3" font-family="Times,serif" font-size="14.00" fill="#0058ad">r 998 [1]</text>
</g>
<!-- T2392 -->
<g id="node2" class="node">
<title>T2392</title>
<polygon fill="none" stroke="#0058ad" points="128.5,-0.5 128.5,-29.5 796.5,-29.5 796.5,-0.5 128.5,-0.5"/>
<text text-anchor="middle" x="168" y="-11.3" font-family="Times,serif" font-size="14.00" fill="#0058ad">a 1000 1</text>
<polyline fill="none" stroke="#0058ad" points="207.5,-0.5 207.5,-29.5 "/>
<text text-anchor="middle" x="242.5" y="-11.3" font-family="Times,serif" font-size="14.00" fill="#0058ad">r 998 []</text>
<polyline fill="none" stroke="#0058ad" points="277.5,-0.5 277.5,-29.5 "/>
<text text-anchor="middle" x="317" y="-11.3" font-family="Times,serif" font-size="14.00" fill="#0058ad">a 1000 2</text>
<polyline fill="none" stroke="#0058ad" points="356.5,-0.5 356.5,-29.5 "/>
<text text-anchor="middle" x="409.5" y="-11.3" font-family="Times,serif" font-size="14.00" fill="#0058ad">r 993 [1 2 3]</text>
<polyline fill="none" stroke="#0058ad" points="462.5,-0.5 462.5,-29.5 "/>
<text text-anchor="middle" x="502" y="-11.3" font-family="Times,serif" font-size="14.00" fill="#0058ad">a 1000 3</text>
<polyline fill="none" stroke="#0058ad" points="541.5,-0.5 541.5,-29.5 "/>
<text text-anchor="middle" x="576.5" y="-11.3" font-family="Times,serif" font-size="14.00" fill="#0058ad">r 998 []</text>
<polyline fill="none" stroke="#0058ad" points="611.5,-0.5 611.5,-29.5 "/>
<text text-anchor="middle" x="669" y="-11.3" font-family="Times,serif" font-size="14.00" fill="#0058ad">r 1000 [1 2 3]</text>
<polyline fill="none" stroke="#0058ad" points="726.5,-0.5 726.5,-29.5 "/>
<text text-anchor="middle" x="761.5" y="-11.3" font-family="Times,serif" font-size="14.00" fill="#0058ad">a 983 3</text>
</g>
<!-- T2393&#45;&gt;T2392 -->
<g id="edge1" class="edge">
<title>T2393:f1&#45;&gt;T2392:f0</title>
<path fill="none" stroke="#5b00c0" d="M118.5,-81C118.5,-55.79 103.56,-25.66 117.4,-17.26"/>
<polygon fill="#5b00c0" stroke="#5b00c0" points="118.51,-20.6 127.5,-15 116.98,-13.77 118.51,-20.6"/>
<text text-anchor="middle" x="127" y="-51.8" font-family="Times,serif" font-size="14.00" fill="#5b00c0">rw</text>
</g>
<!-- T2392&#45;&gt;T2393 -->
<g id="edge2" class="edge">
<title>T2392:f1&#45;&gt;T2393:f3</title>
<path fill="none" stroke="#5b00c0" d="M242.5,-30C242.5,-52.2 263.53,-54.67 269.77,-71.01"/>
<polygon fill="#5b00c0" stroke="#5b00c0" points="266.35,-71.74 271.5,-81 273.25,-70.55 266.35,-71.74"/>
<text text-anchor="middle" x="274" y="-51.8" font-family="Times,serif" font-size="14.00" fill="#5b00c0">rw</text>
</g>
</g>
</svg>
