<?xml version="1.0" encoding="UTF-8" standalone="no"?>
<!DOCTYPE svg PUBLIC "-//W3C//DTD SVG 1.1//EN"
 "http://www.w3.org/Graphics/SVG/1.1/DTD/svg11.dtd">
<!-- Generated by graphviz version 2.43.0 (0)
 -->
<!-- Title: a_graph Pages: 1 -->
<svg width="3876pt" height="119pt"
 viewBox="0.00 0.00 3876.00 119.00" xmlns="http://www.w3.org/2000/svg" xmlns:xlink="http://www.w3.org/1999/xlink">
<g id="graph0" class="graph" transform="scale(1 1) rotate(0) translate(4 115)">
<title>a_graph</title>
<polygon fill="white" stroke="transparent" points="-4,4 -4,-115 3872,-115 3872,4 -4,4"/>
<!-- T1456 -->
<g id="node1" class="node">
<title>T1456</title>
<polygon fill="none" stroke="#0058ad" points="145.5,-81.5 145.5,-110.5 658.5,-110.5 658.5,-81.5 145.5,-81.5"/>
<text text-anchor="middle" x="362.5" y="-92.3" font-family="Times,serif" font-size="14.00" fill="#0058ad">r 123 [1 2 3 4 5 6 7 8 9 10 11 12 13 16 17 18 19 20 21 22]</text>
<polyline fill="none" stroke="#0058ad" points="579.5,-81.5 579.5,-110.5 "/>
<text text-anchor="middle" x="619" y="-92.3" font-family="Times,serif" font-size="14.00" fill="#0058ad">a 122 29</text>
</g>
<!-- T1457 -->
<g id="node2" class="node">
<title>T1457</title>
<polygon fill="none" stroke="#0058ad" points="0,-0.5 0,-29.5 3868,-29.5 3868,-0.5 0,-0.5"/>
<text text-anchor="middle" x="278" y="-11.3" font-family="Times,serif" font-size="14.00" fill="#0058ad">r 122 [1 2 3 4 5 6 7 9 10 11 12 13 14 15 16 17 18 19 20 21 22 23 26 27 28]</text>
<polyline fill="none" stroke="#0058ad" points="556,-0.5 556,-29.5 "/>
<text text-anchor="middle" x="595.5" y="-11.3" font-family="Times,serif" font-size="14.00" fill="#0058ad">a 123 23</text>
<polyline fill="none" stroke="#0058ad" points="635,-0.5 635,-29.5 "/>
<text text-anchor="middle" x="863.5" y="-11.3" font-family="Times,serif" font-size="14.00" fill="#0058ad">r 123 [1 2 3 4 5 6 7 8 9 10 11 12 13 16 17 18 19 20 21 22 23]</text>
<polyline fill="none" stroke="#0058ad" points="1092,-0.5 1092,-29.5 "/>
<text text-anchor="middle" x="1131.5" y="-11.3" font-family="Times,serif" font-size="14.00" fill="#0058ad">a 123 24</text>
<polyline fill="none" stroke="#0058ad" points="1171,-0.5 1171,-29.5 "/>
<text text-anchor="middle" x="1210.5" y="-11.3" font-family="Times,serif" font-size="14.00" fill="#0058ad">a 123 25</text>
<polyline fill="none" stroke="#0058ad" points="1250,-0.5 1250,-29.5 "/>
<text text-anchor="middle" x="1528" y="-11.3" font-family="Times,serif" font-size="14.00" fill="#0058ad">r 122 [1 2 3 4 5 6 7 9 10 11 12 13 14 15 16 17 18 19 20 21 22 23 26 27 28]</text>
<polyline fill="none" stroke="#0058ad" points="1806,-0.5 1806,-29.5 "/>
<text text-anchor="middle" x="2057" y="-11.3" font-family="Times,serif" font-size="14.00" fill="#0058ad">r 123 [1 2 3 4 5 6 7 8 9 10 11 12 13 16 17 18 19 20 21 22 23 24 25]</text>
<polyline fill="none" stroke="#0058ad" points="2308,-0.5 2308,-29.5 "/>
<text text-anchor="middle" x="2559" y="-11.3" font-family="Times,serif" font-size="14.00" fill="#0058ad">r 123 [1 2 3 4 5 6 7 8 9 10 11 12 13 16 17 18 19 20 21 22 23 24 25]</text>
<polyline fill="none" stroke="#0058ad" points="2810,-0.5 2810,-29.5 "/>
<text text-anchor="middle" x="3088" y="-11.3" font-family="Times,serif" font-size="14.00" fill="#0058ad">r 122 [1 2 3 4 5 6 7 9 10 11 12 13 14 15 16 17 18 19 20 21 22 23 26 27 28]</text>
<polyline fill="none" stroke="#0058ad" points="3366,-0.5 3366,-29.5 "/>
<text text-anchor="middle" x="3617" y="-11.3" font-family="Times,serif" font-size="14.00" fill="#0058ad">r 123 [1 2 3 4 5 6 7 8 9 10 11 12 13 16 17 18 19 20 21 22 23 24 25]</text>
</g>
<!-- T1456&#45;&gt;T1457 -->
<g id="edge1" class="edge">
<title>T1456:f0&#45;&gt;T1457:f1</title>
<path fill="none" stroke="#5b00c0" d="M362,-81C362,-69.3 543.59,-48.84 586.15,-35.09"/>
<polygon fill="#5b00c0" stroke="#5b00c0" points="588.07,-38.02 595,-30 584.59,-31.95 588.07,-38.02"/>
<text text-anchor="middle" x="529.5" y="-51.8" font-family="Times,serif" font-size="14.00" fill="#5b00c0">rw</text>
</g>
<!-- T1457&#45;&gt;T1456 -->
<g id="edge2" class="edge">
<title>T1457:f0&#45;&gt;T1456:f1</title>
<path fill="none" stroke="#5b00c0" d="M278,-30C278,-59.51 514.32,-41.02 543,-48 575.01,-55.79 610.57,-46.58 617.71,-70.91"/>
<polygon fill="#5b00c0" stroke="#5b00c0" points="614.26,-71.52 619,-81 621.2,-70.64 614.26,-71.52"/>
<text text-anchor="middle" x="621.5" y="-51.8" font-family="Times,serif" font-size="14.00" fill="#5b00c0">rw</text>
</g>
</g>
</svg>
