<?xml version="1.0" encoding="UTF-8" standalone="no"?>
<!DOCTYPE svg PUBLIC "-//W3C//DTD SVG 1.1//EN"
 "http://www.w3.org/Graphics/SVG/1.1/DTD/svg11.dtd">
<!-- Generated by graphviz version 2.43.0 (0)
 -->
<!-- Title: a_graph Pages: 1 -->
<svg width="821pt" height="119pt"
 viewBox="0.00 0.00 821.00 119.00" xmlns="http://www.w3.org/2000/svg" xmlns:xlink="http://www.w3.org/1999/xlink">
<g id="graph0" class="graph" transform="scale(1 1) rotate(0) translate(4 115)">
<title>a_graph</title>
<polygon fill="white" stroke="transparent" points="-4,4 -4,-115 817,-115 817,4 -4,4"/>
<!-- T4071 -->
<g id="node1" class="node">
<title>T4071</title>
<polygon fill="none" stroke="#0058ad" points="0,-81.5 0,-110.5 392,-110.5 392,-81.5 0,-81.5"/>
<text text-anchor="middle" x="161" y="-92.3" font-family="Times,serif" font-size="14.00" fill="#0058ad">r 155 [1 2 3 4 5 6 7 8 9 10 11 12 13 14 15]</text>
<polyline fill="none" stroke="#0058ad" points="322,-81.5 322,-110.5 "/>
<text text-anchor="middle" x="357" y="-92.3" font-family="Times,serif" font-size="14.00" fill="#0058ad">a 156 2</text>
</g>
<!-- T4070 -->
<g id="node2" class="node">
<title>T4070</title>
<polygon fill="none" stroke="#0058ad" points="209,-0.5 209,-29.5 813,-29.5 813,-0.5 209,-0.5"/>
<text text-anchor="middle" x="248.5" y="-11.3" font-family="Times,serif" font-size="14.00" fill="#0058ad">a 155 16</text>
<polyline fill="none" stroke="#0058ad" points="288,-0.5 288,-29.5 "/>
<text text-anchor="middle" x="327.5" y="-11.3" font-family="Times,serif" font-size="14.00" fill="#0058ad">r 156 [1]</text>
<polyline fill="none" stroke="#0058ad" points="367,-0.5 367,-29.5 "/>
<text text-anchor="middle" x="406.5" y="-11.3" font-family="Times,serif" font-size="14.00" fill="#0058ad">a 155 17</text>
<polyline fill="none" stroke="#0058ad" points="446,-0.5 446,-29.5 "/>
<text text-anchor="middle" x="629.5" y="-11.3" font-family="Times,serif" font-size="14.00" fill="#0058ad">r 155 [1 2 3 4 5 6 7 8 9 10 11 12 13 14 15 16 17]</text>
</g>
<!-- T4071&#45;&gt;T4070 -->
<g id="edge1" class="edge">
<title>T4071:f0&#45;&gt;T4070:f0</title>
<path fill="none" stroke="#5b00c0" d="M161,-81C161,-48.65 169.87,-21.15 197.79,-15.9"/>
<polygon fill="#5b00c0" stroke="#5b00c0" points="198.35,-19.37 208,-15 197.73,-12.39 198.35,-19.37"/>
<text text-anchor="middle" x="174.5" y="-51.8" font-family="Times,serif" font-size="14.00" fill="#5b00c0">rw</text>
</g>
<!-- T4070&#45;&gt;T4071 -->
<g id="edge2" class="edge">
<title>T4070:f1&#45;&gt;T4071:f1</title>
<path fill="none" stroke="#5b00c0" d="M327,-30C327,-52.39 348.75,-54.56 355.21,-70.95"/>
<polygon fill="#5b00c0" stroke="#5b00c0" points="351.8,-71.77 357,-81 358.7,-70.54 351.8,-71.77"/>
<text text-anchor="middle" x="358.5" y="-51.8" font-family="Times,serif" font-size="14.00" fill="#5b00c0">rw</text>
</g>
</g>
</svg>
