<?xml version="1.0" encoding="UTF-8" standalone="no"?>
<!DOCTYPE svg PUBLIC "-//W3C//DTD SVG 1.1//EN"
 "http://www.w3.org/Graphics/SVG/1.1/DTD/svg11.dtd">
<!-- Generated by graphviz version 2.43.0 (0)
 -->
<!-- Title: a_graph Pages: 1 -->
<svg width="1008pt" height="119pt"
 viewBox="0.00 0.00 1008.00 119.00" xmlns="http://www.w3.org/2000/svg" xmlns:xlink="http://www.w3.org/1999/xlink">
<g id="graph0" class="graph" transform="scale(1 1) rotate(0) translate(4 115)">
<title>a_graph</title>
<polygon fill="white" stroke="transparent" points="-4,4 -4,-115 1004,-115 1004,4 -4,4"/>
<!-- T1495 -->
<g id="node1" class="node">
<title>T1495</title>
<polygon fill="none" stroke="#0058ad" points="0,-81.5 0,-110.5 1000,-110.5 1000,-81.5 0,-81.5"/>
<text text-anchor="middle" x="35" y="-92.3" font-family="Times,serif" font-size="14.00" fill="#0058ad">a 57 32</text>
<polyline fill="none" stroke="#0058ad" points="70,-81.5 70,-110.5 "/>
<text text-anchor="middle" x="105" y="-92.3" font-family="Times,serif" font-size="14.00" fill="#0058ad">a 54 19</text>
<polyline fill="none" stroke="#0058ad" points="140,-81.5 140,-110.5 "/>
<text text-anchor="middle" x="330" y="-92.3" font-family="Times,serif" font-size="14.00" fill="#0058ad">r 54 [1 2 3 4 5 6 7 8 9 10 11 12 13 14 16 17 18 19]</text>
<polyline fill="none" stroke="#0058ad" points="520,-81.5 520,-110.5 "/>
<text text-anchor="middle" x="555" y="-92.3" font-family="Times,serif" font-size="14.00" fill="#0058ad">a 56 11</text>
<polyline fill="none" stroke="#0058ad" points="590,-81.5 590,-110.5 "/>
<text text-anchor="middle" x="694.5" y="-92.3" font-family="Times,serif" font-size="14.00" fill="#0058ad">r 56 [1 2 4 5 6 7 8 9 10 11]</text>
<polyline fill="none" stroke="#0058ad" points="799,-81.5 799,-110.5 "/>
<text text-anchor="middle" x="834" y="-92.3" font-family="Times,serif" font-size="14.00" fill="#0058ad">a 56 12</text>
<polyline fill="none" stroke="#0058ad" points="869,-81.5 869,-110.5 "/>
<text text-anchor="middle" x="904" y="-92.3" font-family="Times,serif" font-size="14.00" fill="#0058ad">a 56 13</text>
<polyline fill="none" stroke="#0058ad" points="939,-81.5 939,-110.5 "/>
<text text-anchor="middle" x="969.5" y="-92.3" font-family="Times,serif" font-size="14.00" fill="#0058ad">r 58 []</text>
</g>
<!-- T1494 -->
<g id="node2" class="node">
<title>T1494</title>
<polygon fill="none" stroke="#0058ad" points="196.5,-0.5 196.5,-29.5 685.5,-29.5 685.5,-0.5 196.5,-0.5"/>
<text text-anchor="middle" x="227" y="-11.3" font-family="Times,serif" font-size="14.00" fill="#0058ad">a 58 1</text>
<polyline fill="none" stroke="#0058ad" points="257.5,-0.5 257.5,-29.5 "/>
<text text-anchor="middle" x="436.5" y="-11.3" font-family="Times,serif" font-size="14.00" fill="#0058ad">r 54 [1 2 3 4 5 6 7 8 9 10 11 12 13 14 16 17 18]</text>
<polyline fill="none" stroke="#0058ad" points="615.5,-0.5 615.5,-29.5 "/>
<text text-anchor="middle" x="650.5" y="-11.3" font-family="Times,serif" font-size="14.00" fill="#0058ad">r 58 [1]</text>
</g>
<!-- T1495&#45;&gt;T1494 -->
<g id="edge1" class="edge">
<title>T1495:f7&#45;&gt;T1494:f0</title>
<path fill="none" stroke="#5b00c0" d="M970,-81C970,-61.69 322.4,-52.01 236.39,-33.98"/>
<polygon fill="#5b00c0" stroke="#5b00c0" points="237.57,-30.68 227,-30 234.84,-37.12 237.57,-30.68"/>
<text text-anchor="middle" x="779.5" y="-51.8" font-family="Times,serif" font-size="14.00" fill="#5b00c0">rw</text>
</g>
<!-- T1494&#45;&gt;T1495 -->
<g id="edge2" class="edge">
<title>T1494:f1&#45;&gt;T1495:f1</title>
<path fill="none" stroke="#5b00c0" d="M436,-30C436,-64.16 157.08,-47.22 111.32,-73"/>
<polygon fill="#5b00c0" stroke="#5b00c0" points="108.45,-70.98 105,-81 113.94,-75.32 108.45,-70.98"/>
<text text-anchor="middle" x="390.5" y="-51.8" font-family="Times,serif" font-size="14.00" fill="#5b00c0">rw</text>
</g>
</g>
</svg>
