<?xml version="1.0" encoding="UTF-8" standalone="no"?>
<!DOCTYPE svg PUBLIC "-//W3C//DTD SVG 1.1//EN"
 "http://www.w3.org/Graphics/SVG/1.1/DTD/svg11.dtd">
<!-- Generated by graphviz version 2.43.0 (0)
 -->
<!-- Title: a_graph Pages: 1 -->
<svg width="593pt" height="119pt"
 viewBox="0.00 0.00 593.00 119.00" xmlns="http://www.w3.org/2000/svg" xmlns:xlink="http://www.w3.org/1999/xlink">
<g id="graph0" class="graph" transform="scale(1 1) rotate(0) translate(4 115)">
<title>a_graph</title>
<polygon fill="white" stroke="transparent" points="-4,4 -4,-115 589,-115 589,4 -4,4"/>
<!-- T741 -->
<g id="node1" class="node">
<title>T741</title>
<polygon fill="none" stroke="#0058ad" points="0,-81.5 0,-110.5 525,-110.5 525,-81.5 0,-81.5"/>
<text text-anchor="middle" x="201.5" y="-92.3" font-family="Times,serif" font-size="14.00" fill="#0058ad">r 28 [1 2 3 4 5 6 7 8 9 10 11 12 13 14 15 16 17 18 19]</text>
<polyline fill="none" stroke="#0058ad" points="403,-81.5 403,-110.5 "/>
<text text-anchor="middle" x="433.5" y="-92.3" font-family="Times,serif" font-size="14.00" fill="#0058ad">a 29 4</text>
<polyline fill="none" stroke="#0058ad" points="464,-81.5 464,-110.5 "/>
<text text-anchor="middle" x="494.5" y="-92.3" font-family="Times,serif" font-size="14.00" fill="#0058ad">a 29 5</text>
</g>
<!-- T740 -->
<g id="node2" class="node">
<title>T740</title>
<polygon fill="none" stroke="#0058ad" points="278,-0.5 278,-29.5 585,-29.5 585,-0.5 278,-0.5"/>
<text text-anchor="middle" x="313" y="-11.3" font-family="Times,serif" font-size="14.00" fill="#0058ad">a 28 20</text>
<polyline fill="none" stroke="#0058ad" points="348,-0.5 348,-29.5 "/>
<text text-anchor="middle" x="396.5" y="-11.3" font-family="Times,serif" font-size="14.00" fill="#0058ad">r 29 [1 2 3]</text>
<polyline fill="none" stroke="#0058ad" points="445,-0.5 445,-29.5 "/>
<text text-anchor="middle" x="480" y="-11.3" font-family="Times,serif" font-size="14.00" fill="#0058ad">a 28 21</text>
<polyline fill="none" stroke="#0058ad" points="515,-0.5 515,-29.5 "/>
<text text-anchor="middle" x="550" y="-11.3" font-family="Times,serif" font-size="14.00" fill="#0058ad">a 25 24</text>
</g>
<!-- T741&#45;&gt;T740 -->
<g id="edge1" class="edge">
<title>T741:f0&#45;&gt;T740:f0</title>
<path fill="none" stroke="#5b00c0" d="M201.5,-81C201.5,-40.07 227.5,-18.51 266.35,-15.4"/>
<polygon fill="#5b00c0" stroke="#5b00c0" points="266.64,-18.89 276.5,-15 266.37,-11.89 266.64,-18.89"/>
<text text-anchor="middle" x="218" y="-51.8" font-family="Times,serif" font-size="14.00" fill="#5b00c0">rw</text>
</g>
<!-- T740&#45;&gt;T741 -->
<g id="edge2" class="edge">
<title>T740:f1&#45;&gt;T741:f1</title>
<path fill="none" stroke="#5b00c0" d="M396.5,-30C396.5,-54.07 423.83,-53.75 431.51,-70.96"/>
<polygon fill="#5b00c0" stroke="#5b00c0" points="428.12,-71.87 433.5,-81 434.99,-70.51 428.12,-71.87"/>
<text text-anchor="middle" x="435" y="-51.8" font-family="Times,serif" font-size="14.00" fill="#5b00c0">rw</text>
</g>
</g>
</svg>
