<?xml version="1.0" encoding="UTF-8" standalone="no"?>
<!DOCTYPE svg PUBLIC "-//W3C//DTD SVG 1.1//EN"
 "http://www.w3.org/Graphics/SVG/1.1/DTD/svg11.dtd">
<!-- Generated by graphviz version 2.43.0 (0)
 -->
<!-- Title: a_graph Pages: 1 -->
<svg width="2265pt" height="119pt"
 viewBox="0.00 0.00 2264.50 119.00" xmlns="http://www.w3.org/2000/svg" xmlns:xlink="http://www.w3.org/1999/xlink">
<g id="graph0" class="graph" transform="scale(1 1) rotate(0) translate(4 115)">
<title>a_graph</title>
<polygon fill="white" stroke="transparent" points="-4,4 -4,-115 2260.5,-115 2260.5,4 -4,4"/>
<!-- T3114 -->
<g id="node1" class="node">
<title>T3114</title>
<polygon fill="none" stroke="#0058ad" points="19.5,-81.5 19.5,-110.5 2256.5,-110.5 2256.5,-81.5 19.5,-81.5"/>
<text text-anchor="middle" x="338" y="-92.3" font-family="Times,serif" font-size="14.00" fill="#0058ad">r 116 [1 2 3 4 5 6 7 8 9 10 11 12 13 14 15 16 17 18 19 20 21 22 23 24 25 26 27 28 30]</text>
<polyline fill="none" stroke="#0058ad" points="656.5,-81.5 656.5,-110.5 "/>
<text text-anchor="middle" x="723" y="-92.3" font-family="Times,serif" font-size="14.00" fill="#0058ad">r 118 [1 2 3 4 5]</text>
<polyline fill="none" stroke="#0058ad" points="789.5,-81.5 789.5,-110.5 "/>
<text text-anchor="middle" x="829" y="-92.3" font-family="Times,serif" font-size="14.00" fill="#0058ad">a 116 31</text>
<polyline fill="none" stroke="#0058ad" points="868.5,-81.5 868.5,-110.5 "/>
<text text-anchor="middle" x="1198" y="-92.3" font-family="Times,serif" font-size="14.00" fill="#0058ad">r 116 [1 2 3 4 5 6 7 8 9 10 11 12 13 14 15 16 17 18 19 20 21 22 23 24 25 26 27 28 30 31]</text>
<polyline fill="none" stroke="#0058ad" points="1527.5,-81.5 1527.5,-110.5 "/>
<text text-anchor="middle" x="1857" y="-92.3" font-family="Times,serif" font-size="14.00" fill="#0058ad">r 116 [1 2 3 4 5 6 7 8 9 10 11 12 13 14 15 16 17 18 19 20 21 22 23 24 25 26 27 28 30 31]</text>
<polyline fill="none" stroke="#0058ad" points="2186.5,-81.5 2186.5,-110.5 "/>
<text text-anchor="middle" x="2221.5" y="-92.3" font-family="Times,serif" font-size="14.00" fill="#0058ad">r 119 []</text>
</g>
<!-- T3115 -->
<g id="node2" class="node">
<title>T3115</title>
<polygon fill="none" stroke="#0058ad" points="0,-0.5 0,-29.5 1720,-29.5 1720,-0.5 0,-0.5"/>
<text text-anchor="middle" x="35" y="-11.3" font-family="Times,serif" font-size="14.00" fill="#0058ad">a 118 7</text>
<polyline fill="none" stroke="#0058ad" points="70,-0.5 70,-29.5 "/>
<text text-anchor="middle" x="143" y="-11.3" font-family="Times,serif" font-size="14.00" fill="#0058ad">r 118 [1 2 3 4 5 7]</text>
<polyline fill="none" stroke="#0058ad" points="216,-0.5 216,-29.5 "/>
<text text-anchor="middle" x="534.5" y="-11.3" font-family="Times,serif" font-size="14.00" fill="#0058ad">r 114 [1 2 3 4 5 6 7 8 9 10 11 13 14 15 16 17 18 20 21 23 24 25 26 27 28 29 30 31 32]</text>
<polyline fill="none" stroke="#0058ad" points="853,-0.5 853,-29.5 "/>
<text text-anchor="middle" x="888" y="-11.3" font-family="Times,serif" font-size="14.00" fill="#0058ad">a 118 8</text>
<polyline fill="none" stroke="#0058ad" points="923,-0.5 923,-29.5 "/>
<text text-anchor="middle" x="1241.5" y="-11.3" font-family="Times,serif" font-size="14.00" fill="#0058ad">r 116 [1 2 3 4 5 6 7 8 9 10 11 12 13 14 15 16 17 18 19 20 21 22 23 24 25 26 27 28 30]</text>
<polyline fill="none" stroke="#0058ad" points="1560,-0.5 1560,-29.5 "/>
<text text-anchor="middle" x="1640" y="-11.3" font-family="Times,serif" font-size="14.00" fill="#0058ad">r 118 [1 2 3 4 5 7 8]</text>
</g>
<!-- T3114&#45;&gt;T3115 -->
<g id="edge1" class="edge">
<title>T3114:f1&#45;&gt;T3115:f0</title>
<path fill="none" stroke="#5b00c0" d="M723,-81C723,68.72 66.87,-171.55 36.12,-40.12"/>
<polygon fill="#5b00c0" stroke="#5b00c0" points="39.58,-39.56 35,-30 32.62,-40.32 39.58,-39.56"/>
<text text-anchor="middle" x="724.5" y="-51.8" font-family="Times,serif" font-size="14.00" fill="#5b00c0">rw</text>
</g>
<!-- T3115&#45;&gt;T3114 -->
<g id="edge2" class="edge">
<title>T3115:f4&#45;&gt;T3114:f2</title>
<path fill="none" stroke="#5b00c0" d="M1242,-30C1242,-211.34 844.98,91.68 829.47,-70.73"/>
<polygon fill="#5b00c0" stroke="#5b00c0" points="825.96,-70.85 829,-81 832.95,-71.17 825.96,-70.85"/>
<text text-anchor="middle" x="1249.5" y="-51.8" font-family="Times,serif" font-size="14.00" fill="#5b00c0">rw</text>
</g>
</g>
</svg>
