<?xml version="1.0" encoding="UTF-8" standalone="no"?>
<!DOCTYPE svg PUBLIC "-//W3C//DTD SVG 1.1//EN"
 "http://www.w3.org/Graphics/SVG/1.1/DTD/svg11.dtd">
<!-- Generated by graphviz version 2.43.0 (0)
 -->
<!-- Title: a_graph Pages: 1 -->
<svg width="1891pt" height="119pt"
 viewBox="0.00 0.00 1891.00 119.00" xmlns="http://www.w3.org/2000/svg" xmlns:xlink="http://www.w3.org/1999/xlink">
<g id="graph0" class="graph" transform="scale(1 1) rotate(0) translate(4 115)">
<title>a_graph</title>
<polygon fill="white" stroke="transparent" points="-4,4 -4,-115 1887,-115 1887,4 -4,4"/>
<!-- T2671 -->
<g id="node1" class="node">
<title>T2671</title>
<polygon fill="none" stroke="#0058ad" points="193.5,-81.5 193.5,-110.5 729.5,-110.5 729.5,-81.5 193.5,-81.5"/>
<text text-anchor="middle" x="275.5" y="-92.3" font-family="Times,serif" font-size="14.00" fill="#0058ad">r 97 [1 2 3 4 5 6 7 8]</text>
<polyline fill="none" stroke="#0058ad" points="357.5,-81.5 357.5,-110.5 "/>
<text text-anchor="middle" x="392.5" y="-92.3" font-family="Times,serif" font-size="14.00" fill="#0058ad">a 95 30</text>
<polyline fill="none" stroke="#0058ad" points="427.5,-81.5 427.5,-110.5 "/>
<text text-anchor="middle" x="543.5" y="-92.3" font-family="Times,serif" font-size="14.00" fill="#0058ad">r 94 [1 2 3 4 5 6 7 9 10 11 12]</text>
<polyline fill="none" stroke="#0058ad" points="659.5,-81.5 659.5,-110.5 "/>
<text text-anchor="middle" x="694.5" y="-92.3" font-family="Times,serif" font-size="14.00" fill="#0058ad">a 95 31</text>
</g>
<!-- T2536 -->
<g id="node2" class="node">
<title>T2536</title>
<polygon fill="none" stroke="#0058ad" points="0,-0.5 0,-29.5 1883,-29.5 1883,-0.5 0,-0.5"/>
<text text-anchor="middle" x="82" y="-11.3" font-family="Times,serif" font-size="14.00" fill="#0058ad">r 97 [1 2 3 4 5 6 7 8]</text>
<polyline fill="none" stroke="#0058ad" points="164,-0.5 164,-29.5 "/>
<text text-anchor="middle" x="194.5" y="-11.3" font-family="Times,serif" font-size="14.00" fill="#0058ad">a 97 9</text>
<polyline fill="none" stroke="#0058ad" points="225,-0.5 225,-29.5 "/>
<text text-anchor="middle" x="527.5" y="-11.3" font-family="Times,serif" font-size="14.00" fill="#0058ad">r 95 [1 2 3 4 5 6 7 8 9 10 11 12 13 14 15 16 17 19 20 21 22 23 24 25 26 27 28 29]</text>
<polyline fill="none" stroke="#0058ad" points="830,-0.5 830,-29.5 "/>
<text text-anchor="middle" x="919" y="-11.3" font-family="Times,serif" font-size="14.00" fill="#0058ad">r 97 [1 2 3 4 5 6 7 8 9]</text>
<polyline fill="none" stroke="#0058ad" points="1008,-0.5 1008,-29.5 "/>
<text text-anchor="middle" x="1043" y="-11.3" font-family="Times,serif" font-size="14.00" fill="#0058ad">a 97 10</text>
<polyline fill="none" stroke="#0058ad" points="1078,-0.5 1078,-29.5 "/>
<text text-anchor="middle" x="1178" y="-11.3" font-family="Times,serif" font-size="14.00" fill="#0058ad">r 97 [1 2 3 4 5 6 7 8 9 10]</text>
<polyline fill="none" stroke="#0058ad" points="1278,-0.5 1278,-29.5 "/>
<text text-anchor="middle" x="1580.5" y="-11.3" font-family="Times,serif" font-size="14.00" fill="#0058ad">r 95 [1 2 3 4 5 6 7 8 9 10 11 12 13 14 15 16 17 19 20 21 22 23 24 25 26 27 28 29]</text>
</g>
<!-- T2671&#45;&gt;T2536 -->
<g id="edge1" class="edge">
<title>T2671:f0&#45;&gt;T2536:f1</title>
<path fill="none" stroke="#5b00c0" d="M192.5,-96C166.48,-96 188.18,-67.18 193.43,-40.19"/>
<polygon fill="#5b00c0" stroke="#5b00c0" points="196.93,-40.31 194.5,-30 189.97,-39.58 196.93,-40.31"/>
<text text-anchor="middle" x="201" y="-51.8" font-family="Times,serif" font-size="14.00" fill="#5b00c0">rw</text>
</g>
<!-- T2536&#45;&gt;T2671 -->
<g id="edge2" class="edge">
<title>T2536:f2&#45;&gt;T2671:f1</title>
<path fill="none" stroke="#5b00c0" d="M527.5,-30C527.5,-90.26 408.35,-25.7 393.92,-70.84"/>
<polygon fill="#5b00c0" stroke="#5b00c0" points="390.42,-70.61 392.5,-81 397.36,-71.58 390.42,-70.61"/>
<text text-anchor="middle" x="529" y="-51.8" font-family="Times,serif" font-size="14.00" fill="#5b00c0">rw</text>
</g>
</g>
</svg>
