<?xml version="1.0" encoding="UTF-8" standalone="no"?>
<!DOCTYPE svg PUBLIC "-//W3C//DTD SVG 1.1//EN"
 "http://www.w3.org/Graphics/SVG/1.1/DTD/svg11.dtd">
<!-- Generated by graphviz version 2.43.0 (0)
 -->
<!-- Title: a_graph Pages: 1 -->
<svg width="604pt" height="119pt"
 viewBox="0.00 0.00 604.00 119.00" xmlns="http://www.w3.org/2000/svg" xmlns:xlink="http://www.w3.org/1999/xlink">
<g id="graph0" class="graph" transform="scale(1 1) rotate(0) translate(4 115)">
<title>a_graph</title>
<polygon fill="white" stroke="transparent" points="-4,4 -4,-115 600,-115 600,4 -4,4"/>
<!-- T263 -->
<g id="node1" class="node">
<title>T263</title>
<polygon fill="none" stroke="#0058ad" points="0,-81.5 0,-110.5 596,-110.5 596,-81.5 0,-81.5"/>
<text text-anchor="middle" x="30.5" y="-92.3" font-family="Times,serif" font-size="14.00" fill="#0058ad">a 12 3</text>
<polyline fill="none" stroke="#0058ad" points="61,-81.5 61,-110.5 "/>
<text text-anchor="middle" x="116" y="-92.3" font-family="Times,serif" font-size="14.00" fill="#0058ad">r 11 [1 2 5 6]</text>
<polyline fill="none" stroke="#0058ad" points="171,-81.5 171,-110.5 "/>
<text text-anchor="middle" x="383.5" y="-92.3" font-family="Times,serif" font-size="14.00" fill="#0058ad">r 7 [2 3 4 5 6 7 8 9 10 11 12 13 14 15 16 17 18 19 20 21]</text>
</g>
<!-- T262 -->
<g id="node2" class="node">
<title>T262</title>
<polygon fill="none" stroke="#0058ad" points="8,-0.5 8,-29.5 200,-29.5 200,-0.5 8,-0.5"/>
<text text-anchor="middle" x="43" y="-11.3" font-family="Times,serif" font-size="14.00" fill="#0058ad">r 12 [2]</text>
<polyline fill="none" stroke="#0058ad" points="78,-0.5 78,-29.5 "/>
<text text-anchor="middle" x="108.5" y="-11.3" font-family="Times,serif" font-size="14.00" fill="#0058ad">a 11 7</text>
<polyline fill="none" stroke="#0058ad" points="139,-0.5 139,-29.5 "/>
<text text-anchor="middle" x="169.5" y="-11.3" font-family="Times,serif" font-size="14.00" fill="#0058ad">a 11 8</text>
</g>
<!-- T263&#45;&gt;T262 -->
<g id="edge1" class="edge">
<title>T263:f1&#45;&gt;T262:f1</title>
<path fill="none" stroke="#5b00c0" d="M116,-81C116,-61.87 111.11,-55.07 109.5,-39.99"/>
<polygon fill="#5b00c0" stroke="#5b00c0" points="113,-39.81 109,-30 106.01,-40.16 113,-39.81"/>
<text text-anchor="middle" x="124.5" y="-51.8" font-family="Times,serif" font-size="14.00" fill="#5b00c0">rw</text>
</g>
<!-- T262&#45;&gt;T263 -->
<g id="edge2" class="edge">
<title>T262:f0&#45;&gt;T263:f0</title>
<path fill="none" stroke="#5b00c0" d="M43,-30C43,-49.55 33.92,-55.71 30.93,-70.87"/>
<polygon fill="#5b00c0" stroke="#5b00c0" points="27.43,-70.72 30,-81 34.4,-71.36 27.43,-70.72"/>
<text text-anchor="middle" x="49.5" y="-51.8" font-family="Times,serif" font-size="14.00" fill="#5b00c0">rw</text>
</g>
</g>
</svg>
