<?xml version="1.0" encoding="UTF-8" standalone="no"?>
<!DOCTYPE svg PUBLIC "-//W3C//DTD SVG 1.1//EN"
 "http://www.w3.org/Graphics/SVG/1.1/DTD/svg11.dtd">
<!-- Generated by graphviz version 2.43.0 (0)
 -->
<!-- Title: a_graph Pages: 1 -->
<svg width="1837pt" height="281pt"
 viewBox="0.00 0.00 1837.00 281.00" xmlns="http://www.w3.org/2000/svg" xmlns:xlink="http://www.w3.org/1999/xlink">
<g id="graph0" class="graph" transform="scale(1 1) rotate(0) translate(4 277)">
<title>a_graph</title>
<polygon fill="white" stroke="transparent" points="-4,4 -4,-277 1833,-277 1833,4 -4,4"/>
<!-- T1368 -->
<g id="node1" class="node">
<title>T1368</title>
<polygon fill="none" stroke="#0058ad" points="1689,-243.5 1689,-272.5 1829,-272.5 1829,-243.5 1689,-243.5"/>
<text text-anchor="middle" x="1724" y="-254.3" font-family="Times,serif" font-size="14.00" fill="#0058ad">a 50 19</text>
<polyline fill="none" stroke="#0058ad" points="1759,-243.5 1759,-272.5 "/>
<text text-anchor="middle" x="1794" y="-254.3" font-family="Times,serif" font-size="14.00" fill="#0058ad">a 50 20</text>
</g>
<!-- T1371 -->
<g id="node3" class="node">
<title>T1371</title>
<polygon fill="none" stroke="#0058ad" points="0,-162.5 0,-191.5 646,-191.5 646,-162.5 0,-162.5"/>
<text text-anchor="middle" x="89" y="-173.3" font-family="Times,serif" font-size="14.00" fill="#0058ad">r 51 [1 2 3 4 5 6 7 8 9]</text>
<polyline fill="none" stroke="#0058ad" points="178,-162.5 178,-191.5 "/>
<text text-anchor="middle" x="323" y="-173.3" font-family="Times,serif" font-size="14.00" fill="#0058ad">r 50 [1 2 3 4 5 6 7 8 9 10 11 12 19 20]</text>
<polyline fill="none" stroke="#0058ad" points="468,-162.5 468,-191.5 "/>
<text text-anchor="middle" x="557" y="-173.3" font-family="Times,serif" font-size="14.00" fill="#0058ad">r 51 [1 2 3 4 5 6 7 8 9]</text>
</g>
<!-- T1368&#45;&gt;T1371 -->
<g id="edge1" class="edge">
<title>T1368:f1&#45;&gt;T1371:f1</title>
<path fill="none" stroke="#c000a5" d="M1794,-243C1794,-203.95 452.19,-230.27 331.64,-197.09"/>
<polygon fill="#c000a5" stroke="#c000a5" points="333.39,-194.06 323,-192 329.84,-200.09 333.39,-194.06"/>
<text text-anchor="middle" x="1620.5" y="-213.8" font-family="Times,serif" font-size="14.00" fill="#c000a5">wr</text>
</g>
<!-- T1375 -->
<g id="node4" class="node">
<title>T1375</title>
<polygon fill="none" stroke="#0058ad" points="126,-81.5 126,-110.5 1720,-110.5 1720,-81.5 126,-81.5"/>
<text text-anchor="middle" x="161" y="-92.3" font-family="Times,serif" font-size="14.00" fill="#0058ad">a 50 23</text>
<polyline fill="none" stroke="#0058ad" points="196,-81.5 196,-110.5 "/>
<text text-anchor="middle" x="285" y="-92.3" font-family="Times,serif" font-size="14.00" fill="#0058ad">r 51 [1 2 3 4 5 6 7 8 9]</text>
<polyline fill="none" stroke="#0058ad" points="374,-81.5 374,-110.5 "/>
<text text-anchor="middle" x="710.5" y="-92.3" font-family="Times,serif" font-size="14.00" fill="#0058ad">r 45 [1 2 3 4 5 6 7 8 9 10 11 12 13 14 15 16 17 18 19 20 21 22 23 24 25 26 27 28 29 30 31]</text>
<polyline fill="none" stroke="#0058ad" points="1047,-81.5 1047,-110.5 "/>
<text text-anchor="middle" x="1383.5" y="-92.3" font-family="Times,serif" font-size="14.00" fill="#0058ad">r 45 [1 2 3 4 5 6 7 8 9 10 11 12 13 14 15 16 17 18 19 20 21 22 23 24 25 26 27 28 29 30 31]</text>
</g>
<!-- T1368&#45;&gt;T1375 -->
<g id="edge2" class="edge">
<title>T1368:f1&#45;&gt;T1375:f0</title>
<path fill="none" stroke="#c02700" d="M1794,-243C1794,-191.31 1810.82,-161.96 1771,-129 1754.56,-115.39 303.89,-131.72 170.76,-113.83"/>
<polygon fill="#c02700" stroke="#c02700" points="171.58,-110.42 161,-111 169.63,-117.14 171.58,-110.42"/>
<text text-anchor="middle" x="1809.5" y="-173.3" font-family="Times,serif" font-size="14.00" fill="#c02700">ww</text>
</g>
<!-- T1481 -->
<g id="node2" class="node">
<title>T1481</title>
<polygon fill="none" stroke="#0058ad" points="250.5,-0.5 250.5,-29.5 1531.5,-29.5 1531.5,-0.5 250.5,-0.5"/>
<text text-anchor="middle" x="285.5" y="-11.3" font-family="Times,serif" font-size="14.00" fill="#0058ad">a 51 10</text>
<polyline fill="none" stroke="#0058ad" points="320.5,-0.5 320.5,-29.5 "/>
<text text-anchor="middle" x="355.5" y="-11.3" font-family="Times,serif" font-size="14.00" fill="#0058ad">a 51 11</text>
<polyline fill="none" stroke="#0058ad" points="390.5,-0.5 390.5,-29.5 "/>
<text text-anchor="middle" x="513" y="-11.3" font-family="Times,serif" font-size="14.00" fill="#0058ad">r 50 [1 2 3 4 5 6 7 8 9 10 11 12]</text>
<polyline fill="none" stroke="#0058ad" points="635.5,-0.5 635.5,-29.5 "/>
<text text-anchor="middle" x="747" y="-11.3" font-family="Times,serif" font-size="14.00" fill="#0058ad">r 51 [1 2 3 4 5 6 7 8 9 10 11]</text>
<polyline fill="none" stroke="#0058ad" points="858.5,-0.5 858.5,-29.5 "/>
<text text-anchor="middle" x="1195" y="-11.3" font-family="Times,serif" font-size="14.00" fill="#0058ad">r 45 [1 2 3 4 5 6 7 8 9 10 11 12 13 14 15 16 17 18 19 20 21 22 23 24 25 26 27 28 29 30 31]</text>
</g>
<!-- T1481&#45;&gt;T1368 -->
<g id="edge3" class="edge">
<title>T1481:f2&#45;&gt;T1368:f0</title>
<path fill="none" stroke="#5b00c0" d="M513,-30C513,-97.61 1682.2,-32.2 1729,-81 1776.42,-130.45 1729.11,-167.22 1724.37,-232.69"/>
<polygon fill="#5b00c0" stroke="#5b00c0" points="1720.86,-232.88 1724,-243 1727.86,-233.13 1720.86,-232.88"/>
<text text-anchor="middle" x="1758.5" y="-132.8" font-family="Times,serif" font-size="14.00" fill="#5b00c0">rw</text>
</g>
<!-- T1371&#45;&gt;T1481 -->
<g id="edge4" class="edge">
<title>T1371:f0&#45;&gt;T1481:f0</title>
<path fill="none" stroke="#5b00c0" d="M89,-162C89,-125.78 76.52,-110.17 98,-81 139.39,-24.79 172.52,-15.77 238.95,-15.05"/>
<polygon fill="#5b00c0" stroke="#5b00c0" points="239.02,-18.55 249,-15 238.98,-11.55 239.02,-18.55"/>
<text text-anchor="middle" x="107.5" y="-92.3" font-family="Times,serif" font-size="14.00" fill="#5b00c0">rw</text>
</g>
<!-- T1371&#45;&gt;T1375 -->
<g id="edge5" class="edge">
<title>T1371:f1&#45;&gt;T1375:f0</title>
<path fill="none" stroke="#5b00c0" d="M323,-162C323,-90.35 177.04,-176.78 162.21,-121.19"/>
<polygon fill="#5b00c0" stroke="#5b00c0" points="165.66,-120.52 161,-111 158.7,-121.34 165.66,-120.52"/>
<text text-anchor="middle" x="325.5" y="-132.8" font-family="Times,serif" font-size="14.00" fill="#5b00c0">rw</text>
</g>
<!-- T1375&#45;&gt;T1481 -->
<g id="edge6" class="edge">
<title>T1375:f1&#45;&gt;T1481:f0</title>
<path fill="none" stroke="#5b00c0" d="M285,-81C285,-62.23 285,-55.12 285,-40.35"/>
<polygon fill="#5b00c0" stroke="#5b00c0" points="288.5,-40 285,-30 281.5,-40 288.5,-40"/>
<text text-anchor="middle" x="294.5" y="-51.8" font-family="Times,serif" font-size="14.00" fill="#5b00c0">rw</text>
</g>
</g>
</svg>
