<?xml version="1.0" encoding="UTF-8" standalone="no"?>
<!DOCTYPE svg PUBLIC "-//W3C//DTD SVG 1.1//EN"
 "http://www.w3.org/Graphics/SVG/1.1/DTD/svg11.dtd">
<!-- Generated by graphviz version 2.43.0 (0)
 -->
<!-- Title: a_graph Pages: 1 -->
<svg width="708pt" height="119pt"
 viewBox="0.00 0.00 708.00 119.00" xmlns="http://www.w3.org/2000/svg" xmlns:xlink="http://www.w3.org/1999/xlink">
<g id="graph0" class="graph" transform="scale(1 1) rotate(0) translate(4 115)">
<title>a_graph</title>
<polygon fill="white" stroke="transparent" points="-4,4 -4,-115 704,-115 704,4 -4,4"/>
<!-- T2699 -->
<g id="node1" class="node">
<title>T2699</title>
<polygon fill="none" stroke="#0058ad" points="0,-81.5 0,-110.5 615,-110.5 615,-81.5 0,-81.5"/>
<text text-anchor="middle" x="39.5" y="-92.3" font-family="Times,serif" font-size="14.00" fill="#0058ad">r 102 [1]</text>
<polyline fill="none" stroke="#0058ad" points="79,-81.5 79,-110.5 "/>
<text text-anchor="middle" x="114" y="-92.3" font-family="Times,serif" font-size="14.00" fill="#0058ad">a 102 2</text>
<polyline fill="none" stroke="#0058ad" points="149,-81.5 149,-110.5 "/>
<text text-anchor="middle" x="195" y="-92.3" font-family="Times,serif" font-size="14.00" fill="#0058ad">r 102 [1 2]</text>
<polyline fill="none" stroke="#0058ad" points="241,-81.5 241,-110.5 "/>
<text text-anchor="middle" x="276" y="-92.3" font-family="Times,serif" font-size="14.00" fill="#0058ad">a 102 3</text>
<polyline fill="none" stroke="#0058ad" points="311,-81.5 311,-110.5 "/>
<text text-anchor="middle" x="364" y="-92.3" font-family="Times,serif" font-size="14.00" fill="#0058ad">r 102 [1 2 3]</text>
<polyline fill="none" stroke="#0058ad" points="417,-81.5 417,-110.5 "/>
<text text-anchor="middle" x="463" y="-92.3" font-family="Times,serif" font-size="14.00" fill="#0058ad">r 101 [1 2]</text>
<polyline fill="none" stroke="#0058ad" points="509,-81.5 509,-110.5 "/>
<text text-anchor="middle" x="562" y="-92.3" font-family="Times,serif" font-size="14.00" fill="#0058ad">r 102 [1 2 3]</text>
</g>
<!-- T2698 -->
<g id="node2" class="node">
<title>T2698</title>
<polygon fill="none" stroke="#0058ad" points="247,-0.5 247,-29.5 700,-29.5 700,-0.5 247,-0.5"/>
<text text-anchor="middle" x="286.5" y="-11.3" font-family="Times,serif" font-size="14.00" fill="#0058ad">r 102 [1]</text>
<polyline fill="none" stroke="#0058ad" points="326,-0.5 326,-29.5 "/>
<text text-anchor="middle" x="361" y="-11.3" font-family="Times,serif" font-size="14.00" fill="#0058ad">a 101 3</text>
<polyline fill="none" stroke="#0058ad" points="396,-0.5 396,-29.5 "/>
<text text-anchor="middle" x="449" y="-11.3" font-family="Times,serif" font-size="14.00" fill="#0058ad">r 101 [1 2 3]</text>
<polyline fill="none" stroke="#0058ad" points="502,-0.5 502,-29.5 "/>
<text text-anchor="middle" x="541.5" y="-11.3" font-family="Times,serif" font-size="14.00" fill="#0058ad">r 102 [1]</text>
<polyline fill="none" stroke="#0058ad" points="581,-0.5 581,-29.5 "/>
<text text-anchor="middle" x="640.5" y="-11.3" font-family="Times,serif" font-size="14.00" fill="#0058ad">r 100 [1 2 3 4]</text>
</g>
<!-- T2699&#45;&gt;T2698 -->
<g id="edge1" class="edge">
<title>T2699:f5&#45;&gt;T2698:f1</title>
<path fill="none" stroke="#5b00c0" d="M463.5,-81C463.5,-33.91 375.97,-73.71 362.29,-40.2"/>
<polygon fill="#5b00c0" stroke="#5b00c0" points="365.67,-39.25 360.5,-30 358.78,-40.45 365.67,-39.25"/>
<text text-anchor="middle" x="464" y="-51.8" font-family="Times,serif" font-size="14.00" fill="#5b00c0">rw</text>
</g>
<!-- T2698&#45;&gt;T2699 -->
<g id="edge2" class="edge">
<title>T2698:f0&#45;&gt;T2699:f1</title>
<path fill="none" stroke="#5b00c0" d="M245.5,-15C183.5,-15 120.76,-15.37 114.08,-70.81"/>
<polygon fill="#5b00c0" stroke="#5b00c0" points="110.58,-70.82 113.5,-81 117.57,-71.22 110.58,-70.82"/>
<text text-anchor="middle" x="130" y="-51.8" font-family="Times,serif" font-size="14.00" fill="#5b00c0">rw</text>
</g>
</g>
</svg>
