<?xml version="1.0" encoding="UTF-8" standalone="no"?>
<!DOCTYPE svg PUBLIC "-//W3C//DTD SVG 1.1//EN"
 "http://www.w3.org/Graphics/SVG/1.1/DTD/svg11.dtd">
<!-- Generated by graphviz version 2.43.0 (0)
 -->
<!-- Title: a_graph Pages: 1 -->
<svg width="2096pt" height="119pt"
 viewBox="0.00 0.00 2096.00 119.00" xmlns="http://www.w3.org/2000/svg" xmlns:xlink="http://www.w3.org/1999/xlink">
<g id="graph0" class="graph" transform="scale(1 1) rotate(0) translate(4 115)">
<title>a_graph</title>
<polygon fill="white" stroke="transparent" points="-4,4 -4,-115 2092,-115 2092,4 -4,4"/>
<!-- T2524 -->
<g id="node1" class="node">
<title>T2524</title>
<polygon fill="none" stroke="#0058ad" points="0,-81.5 0,-110.5 2088,-110.5 2088,-81.5 0,-81.5"/>
<text text-anchor="middle" x="35" y="-92.3" font-family="Times,serif" font-size="14.00" fill="#0058ad">a 89 12</text>
<polyline fill="none" stroke="#0058ad" points="70,-81.5 70,-110.5 "/>
<text text-anchor="middle" x="105" y="-92.3" font-family="Times,serif" font-size="14.00" fill="#0058ad">a 89 13</text>
<polyline fill="none" stroke="#0058ad" points="140,-81.5 140,-110.5 "/>
<text text-anchor="middle" x="447" y="-92.3" font-family="Times,serif" font-size="14.00" fill="#0058ad">r 87 [2 3 4 5 6 7 8 9 10 11 12 13 14 15 16 17 18 19 20 21 22 29 30 31 32 23 24 25]</text>
<polyline fill="none" stroke="#0058ad" points="754,-81.5 754,-110.5 "/>
<text text-anchor="middle" x="789" y="-92.3" font-family="Times,serif" font-size="14.00" fill="#0058ad">a 89 14</text>
<polyline fill="none" stroke="#0058ad" points="824,-81.5 824,-110.5 "/>
<text text-anchor="middle" x="1131" y="-92.3" font-family="Times,serif" font-size="14.00" fill="#0058ad">r 87 [2 3 4 5 6 7 8 9 10 11 12 13 14 15 16 17 18 19 20 21 22 29 30 31 32 23 24 25]</text>
<polyline fill="none" stroke="#0058ad" points="1438,-81.5 1438,-110.5 "/>
<text text-anchor="middle" x="1763" y="-92.3" font-family="Times,serif" font-size="14.00" fill="#0058ad">r 86 [1 2 3 4 5 6 7 8 9 10 11 12 15 16 18 19 23 24 25 26 27 28 29 30 31 32 20 22 13 14]</text>
</g>
<!-- T2523 -->
<g id="node2" class="node">
<title>T2523</title>
<polygon fill="none" stroke="#0058ad" points="111,-0.5 111,-29.5 1391,-29.5 1391,-0.5 111,-0.5"/>
<text text-anchor="middle" x="146" y="-11.3" font-family="Times,serif" font-size="14.00" fill="#0058ad">a 87 26</text>
<polyline fill="none" stroke="#0058ad" points="181,-0.5 181,-29.5 "/>
<text text-anchor="middle" x="483.5" y="-11.3" font-family="Times,serif" font-size="14.00" fill="#0058ad">r 89 [1 2 3 4 5 10 11 15 16 17 18 20 21 22 23 24 25 26 27 28 29 30 31 32 6 8 9 7]</text>
<polyline fill="none" stroke="#0058ad" points="786,-0.5 786,-29.5 "/>
<text text-anchor="middle" x="1088.5" y="-11.3" font-family="Times,serif" font-size="14.00" fill="#0058ad">r 89 [1 2 3 4 5 10 11 15 16 17 18 20 21 22 23 24 25 26 27 28 29 30 31 32 6 8 9 7]</text>
</g>
<!-- T2524&#45;&gt;T2523 -->
<g id="edge1" class="edge">
<title>T2524:f2&#45;&gt;T2523:f0</title>
<path fill="none" stroke="#5b00c0" d="M447,-81C447,-63.99 311.77,-65.84 295,-63 231.78,-52.28 154.94,-92.95 146.72,-40.13"/>
<polygon fill="#5b00c0" stroke="#5b00c0" points="150.2,-39.73 146,-30 143.22,-40.22 150.2,-39.73"/>
<text text-anchor="middle" x="304.5" y="-51.8" font-family="Times,serif" font-size="14.00" fill="#5b00c0">rw</text>
</g>
<!-- T2523&#45;&gt;T2524 -->
<g id="edge2" class="edge">
<title>T2523:f1&#45;&gt;T2524:f0</title>
<path fill="none" stroke="#5b00c0" d="M483,-30C483,-106.53 389.9,-53.18 314,-63 300.31,-64.77 90.62,-65.34 44.09,-76.35"/>
<polygon fill="#5b00c0" stroke="#5b00c0" points="42.31,-73.33 35,-81 45.5,-79.56 42.31,-73.33"/>
<text text-anchor="middle" x="490.5" y="-51.8" font-family="Times,serif" font-size="14.00" fill="#5b00c0">rw</text>
</g>
</g>
</svg>
