<?xml version="1.0" encoding="UTF-8" standalone="no"?>
<!DOCTYPE svg PUBLIC "-//W3C//DTD SVG 1.1//EN"
 "http://www.w3.org/Graphics/SVG/1.1/DTD/svg11.dtd">
<!-- Generated by graphviz version 2.43.0 (0)
 -->
<!-- Title: a_graph Pages: 1 -->
<svg width="930pt" height="119pt"
 viewBox="0.00 0.00 930.00 119.00" xmlns="http://www.w3.org/2000/svg" xmlns:xlink="http://www.w3.org/1999/xlink">
<g id="graph0" class="graph" transform="scale(1 1) rotate(0) translate(4 115)">
<title>a_graph</title>
<polygon fill="white" stroke="transparent" points="-4,4 -4,-115 926,-115 926,4 -4,4"/>
<!-- T2705 -->
<g id="node1" class="node">
<title>T2705</title>
<polygon fill="none" stroke="#0058ad" points="30,-81.5 30,-110.5 922,-110.5 922,-81.5 30,-81.5"/>
<text text-anchor="middle" x="65" y="-92.3" font-family="Times,serif" font-size="14.00" fill="#0058ad">a 102 6</text>
<polyline fill="none" stroke="#0058ad" points="100,-81.5 100,-110.5 "/>
<text text-anchor="middle" x="173" y="-92.3" font-family="Times,serif" font-size="14.00" fill="#0058ad">r 102 [1 2 3 4 5 6]</text>
<polyline fill="none" stroke="#0058ad" points="246,-81.5 246,-110.5 "/>
<text text-anchor="middle" x="319" y="-92.3" font-family="Times,serif" font-size="14.00" fill="#0058ad">r 102 [1 2 3 4 5 6]</text>
<polyline fill="none" stroke="#0058ad" points="392,-81.5 392,-110.5 "/>
<text text-anchor="middle" x="451.5" y="-92.3" font-family="Times,serif" font-size="14.00" fill="#0058ad">r 101 [1 2 3 4]</text>
<polyline fill="none" stroke="#0058ad" points="511,-81.5 511,-110.5 "/>
<text text-anchor="middle" x="584" y="-92.3" font-family="Times,serif" font-size="14.00" fill="#0058ad">r 102 [1 2 3 4 5 6]</text>
<polyline fill="none" stroke="#0058ad" points="657,-81.5 657,-110.5 "/>
<text text-anchor="middle" x="730" y="-92.3" font-family="Times,serif" font-size="14.00" fill="#0058ad">r 102 [1 2 3 4 5 6]</text>
<polyline fill="none" stroke="#0058ad" points="803,-81.5 803,-110.5 "/>
<text text-anchor="middle" x="862.5" y="-92.3" font-family="Times,serif" font-size="14.00" fill="#0058ad">r 101 [1 2 3 4]</text>
</g>
<!-- T2704 -->
<g id="node2" class="node">
<title>T2704</title>
<polygon fill="none" stroke="#0058ad" points="0,-0.5 0,-29.5 692,-29.5 692,-0.5 0,-0.5"/>
<text text-anchor="middle" x="35" y="-11.3" font-family="Times,serif" font-size="14.00" fill="#0058ad">a 100 5</text>
<polyline fill="none" stroke="#0058ad" points="70,-0.5 70,-29.5 "/>
<text text-anchor="middle" x="105" y="-11.3" font-family="Times,serif" font-size="14.00" fill="#0058ad">a 101 5</text>
<polyline fill="none" stroke="#0058ad" points="140,-0.5 140,-29.5 "/>
<text text-anchor="middle" x="175" y="-11.3" font-family="Times,serif" font-size="14.00" fill="#0058ad">a 101 6</text>
<polyline fill="none" stroke="#0058ad" points="210,-0.5 210,-29.5 "/>
<text text-anchor="middle" x="276.5" y="-11.3" font-family="Times,serif" font-size="14.00" fill="#0058ad">r 100 [1 2 3 4 5]</text>
<polyline fill="none" stroke="#0058ad" points="343,-0.5 343,-29.5 "/>
<text text-anchor="middle" x="409.5" y="-11.3" font-family="Times,serif" font-size="14.00" fill="#0058ad">r 102 [1 2 3 4 5]</text>
<polyline fill="none" stroke="#0058ad" points="476,-0.5 476,-29.5 "/>
<text text-anchor="middle" x="549" y="-11.3" font-family="Times,serif" font-size="14.00" fill="#0058ad">r 101 [1 2 3 4 5 6]</text>
<polyline fill="none" stroke="#0058ad" points="622,-0.5 622,-29.5 "/>
<text text-anchor="middle" x="657" y="-11.3" font-family="Times,serif" font-size="14.00" fill="#0058ad">a 101 7</text>
</g>
<!-- T2705&#45;&gt;T2704 -->
<g id="edge1" class="edge">
<title>T2705:f3&#45;&gt;T2704:f1</title>
<path fill="none" stroke="#5b00c0" d="M451,-81C451,-63.39 166.83,-51.77 113.55,-35.28"/>
<polygon fill="#5b00c0" stroke="#5b00c0" points="115.35,-32.28 105,-30 111.67,-38.23 115.35,-32.28"/>
<text text-anchor="middle" x="357.5" y="-51.8" font-family="Times,serif" font-size="14.00" fill="#5b00c0">rw</text>
</g>
<!-- T2704&#45;&gt;T2705 -->
<g id="edge2" class="edge">
<title>T2704:f4&#45;&gt;T2705:f0</title>
<path fill="none" stroke="#5b00c0" d="M410,-30C410,-55.19 208.81,-43.61 184,-48 133.65,-56.9 73.83,-30.22 65.89,-70.91"/>
<polygon fill="#5b00c0" stroke="#5b00c0" points="62.39,-70.73 65,-81 69.36,-71.34 62.39,-70.73"/>
<text text-anchor="middle" x="193.5" y="-51.8" font-family="Times,serif" font-size="14.00" fill="#5b00c0">rw</text>
</g>
</g>
</svg>
