<?xml version="1.0" encoding="UTF-8" standalone="no"?>
<!DOCTYPE svg PUBLIC "-//W3C//DTD SVG 1.1//EN"
 "http://www.w3.org/Graphics/SVG/1.1/DTD/svg11.dtd">
<!-- Generated by graphviz version 2.43.0 (0)
 -->
<!-- Title: a_graph Pages: 1 -->
<svg width="728pt" height="119pt"
 viewBox="0.00 0.00 728.00 119.00" xmlns="http://www.w3.org/2000/svg" xmlns:xlink="http://www.w3.org/1999/xlink">
<g id="graph0" class="graph" transform="scale(1 1) rotate(0) translate(4 115)">
<title>a_graph</title>
<polygon fill="white" stroke="transparent" points="-4,4 -4,-115 724,-115 724,4 -4,4"/>
<!-- T2321 -->
<g id="node1" class="node">
<title>T2321</title>
<polygon fill="none" stroke="#0058ad" points="140,-81.5 140,-110.5 720,-110.5 720,-81.5 140,-81.5"/>
<text text-anchor="middle" x="184" y="-92.3" font-family="Times,serif" font-size="14.00" fill="#0058ad">r 1015 [1]</text>
<polyline fill="none" stroke="#0058ad" points="228,-81.5 228,-110.5 "/>
<text text-anchor="middle" x="272" y="-92.3" font-family="Times,serif" font-size="14.00" fill="#0058ad">r 1011 [1]</text>
<polyline fill="none" stroke="#0058ad" points="316,-81.5 316,-110.5 "/>
<text text-anchor="middle" x="355.5" y="-92.3" font-family="Times,serif" font-size="14.00" fill="#0058ad">r 1016 []</text>
<polyline fill="none" stroke="#0058ad" points="395,-81.5 395,-110.5 "/>
<text text-anchor="middle" x="434.5" y="-92.3" font-family="Times,serif" font-size="14.00" fill="#0058ad">r 1016 []</text>
<polyline fill="none" stroke="#0058ad" points="474,-81.5 474,-110.5 "/>
<text text-anchor="middle" x="513.5" y="-92.3" font-family="Times,serif" font-size="14.00" fill="#0058ad">a 1011 2</text>
<polyline fill="none" stroke="#0058ad" points="553,-81.5 553,-110.5 "/>
<text text-anchor="middle" x="592.5" y="-92.3" font-family="Times,serif" font-size="14.00" fill="#0058ad">a 1016 1</text>
<polyline fill="none" stroke="#0058ad" points="632,-81.5 632,-110.5 "/>
<text text-anchor="middle" x="676" y="-92.3" font-family="Times,serif" font-size="14.00" fill="#0058ad">r 1015 [1]</text>
</g>
<!-- T2320 -->
<g id="node2" class="node">
<title>T2320</title>
<polygon fill="none" stroke="#0058ad" points="0,-0.5 0,-29.5 404,-29.5 404,-0.5 0,-0.5"/>
<text text-anchor="middle" x="39.5" y="-11.3" font-family="Times,serif" font-size="14.00" fill="#0058ad">r 1016 []</text>
<polyline fill="none" stroke="#0058ad" points="79,-0.5 79,-29.5 "/>
<text text-anchor="middle" x="118.5" y="-11.3" font-family="Times,serif" font-size="14.00" fill="#0058ad">r 1016 []</text>
<polyline fill="none" stroke="#0058ad" points="158,-0.5 158,-29.5 "/>
<text text-anchor="middle" x="197.5" y="-11.3" font-family="Times,serif" font-size="14.00" fill="#0058ad">r 1016 []</text>
<polyline fill="none" stroke="#0058ad" points="237,-0.5 237,-29.5 "/>
<text text-anchor="middle" x="276.5" y="-11.3" font-family="Times,serif" font-size="14.00" fill="#0058ad">a 1015 2</text>
<polyline fill="none" stroke="#0058ad" points="316,-0.5 316,-29.5 "/>
<text text-anchor="middle" x="360" y="-11.3" font-family="Times,serif" font-size="14.00" fill="#0058ad">r 1011 [1]</text>
</g>
<!-- T2321&#45;&gt;T2320 -->
<g id="edge1" class="edge">
<title>T2321:f0&#45;&gt;T2320:f3</title>
<path fill="none" stroke="#5b00c0" d="M184,-81C184,-37.73 262.37,-70.65 275.23,-39.88"/>
<polygon fill="#5b00c0" stroke="#5b00c0" points="278.68,-40.46 277,-30 271.79,-39.22 278.68,-40.46"/>
<text text-anchor="middle" x="277.5" y="-51.8" font-family="Times,serif" font-size="14.00" fill="#5b00c0">rw</text>
</g>
<!-- T2320&#45;&gt;T2321 -->
<g id="edge2" class="edge">
<title>T2320:f4&#45;&gt;T2321:f4</title>
<path fill="none" stroke="#5b00c0" d="M405,-15C458.09,-15 507.44,-23.23 513.4,-70.93"/>
<polygon fill="#5b00c0" stroke="#5b00c0" points="509.91,-71.23 514,-81 516.9,-70.81 509.91,-71.23"/>
<text text-anchor="middle" x="520.5" y="-51.8" font-family="Times,serif" font-size="14.00" fill="#5b00c0">rw</text>
</g>
</g>
</svg>
