<?xml version="1.0" encoding="UTF-8" standalone="no"?>
<!DOCTYPE svg PUBLIC "-//W3C//DTD SVG 1.1//EN"
 "http://www.w3.org/Graphics/SVG/1.1/DTD/svg11.dtd">
<!-- Generated by graphviz version 2.43.0 (0)
 -->
<!-- Title: a_graph Pages: 1 -->
<svg width="606pt" height="119pt"
 viewBox="0.00 0.00 606.00 119.00" xmlns="http://www.w3.org/2000/svg" xmlns:xlink="http://www.w3.org/1999/xlink">
<g id="graph0" class="graph" transform="scale(1 1) rotate(0) translate(4 115)">
<title>a_graph</title>
<polygon fill="white" stroke="transparent" points="-4,4 -4,-115 602,-115 602,4 -4,4"/>
<!-- T371 -->
<g id="node1" class="node">
<title>T371</title>
<polygon fill="none" stroke="#0058ad" points="318,-81.5 318,-110.5 598,-110.5 598,-81.5 318,-81.5"/>
<text text-anchor="middle" x="353" y="-92.3" font-family="Times,serif" font-size="14.00" fill="#0058ad">r 156 []</text>
<polyline fill="none" stroke="#0058ad" points="388,-81.5 388,-110.5 "/>
<text text-anchor="middle" x="423" y="-92.3" font-family="Times,serif" font-size="14.00" fill="#0058ad">a 156 1</text>
<polyline fill="none" stroke="#0058ad" points="458,-81.5 458,-110.5 "/>
<text text-anchor="middle" x="493" y="-92.3" font-family="Times,serif" font-size="14.00" fill="#0058ad">r 157 []</text>
<polyline fill="none" stroke="#0058ad" points="528,-81.5 528,-110.5 "/>
<text text-anchor="middle" x="563" y="-92.3" font-family="Times,serif" font-size="14.00" fill="#0058ad">a 156 2</text>
</g>
<!-- T370 -->
<g id="node2" class="node">
<title>T370</title>
<polygon fill="none" stroke="#0058ad" points="0,-0.5 0,-29.5 598,-29.5 598,-0.5 0,-0.5"/>
<text text-anchor="middle" x="53" y="-11.3" font-family="Times,serif" font-size="14.00" fill="#0058ad">r 151 [1 2 3]</text>
<polyline fill="none" stroke="#0058ad" points="106,-0.5 106,-29.5 "/>
<text text-anchor="middle" x="159" y="-11.3" font-family="Times,serif" font-size="14.00" fill="#0058ad">r 155 [1 2 3]</text>
<polyline fill="none" stroke="#0058ad" points="212,-0.5 212,-29.5 "/>
<text text-anchor="middle" x="265" y="-11.3" font-family="Times,serif" font-size="14.00" fill="#0058ad">r 155 [1 2 3]</text>
<polyline fill="none" stroke="#0058ad" points="318,-0.5 318,-29.5 "/>
<text text-anchor="middle" x="353" y="-11.3" font-family="Times,serif" font-size="14.00" fill="#0058ad">r 157 []</text>
<polyline fill="none" stroke="#0058ad" points="388,-0.5 388,-29.5 "/>
<text text-anchor="middle" x="423" y="-11.3" font-family="Times,serif" font-size="14.00" fill="#0058ad">a 157 1</text>
<polyline fill="none" stroke="#0058ad" points="458,-0.5 458,-29.5 "/>
<text text-anchor="middle" x="493" y="-11.3" font-family="Times,serif" font-size="14.00" fill="#0058ad">r 156 []</text>
<polyline fill="none" stroke="#0058ad" points="528,-0.5 528,-29.5 "/>
<text text-anchor="middle" x="563" y="-11.3" font-family="Times,serif" font-size="14.00" fill="#0058ad">r 156 []</text>
</g>
<!-- T371&#45;&gt;T370 -->
<g id="edge1" class="edge">
<title>T371:f2&#45;&gt;T370:f4</title>
<path fill="none" stroke="#5b00c0" d="M493,-81C493,-57.95 471.82,-61.3 453,-48 444.27,-41.83 433.36,-42.99 427.4,-39.26"/>
<polygon fill="#5b00c0" stroke="#5b00c0" points="430.45,-37.53 423,-30 424.13,-40.53 430.45,-37.53"/>
<text text-anchor="middle" x="492.5" y="-51.8" font-family="Times,serif" font-size="14.00" fill="#5b00c0">rw</text>
</g>
<!-- T370&#45;&gt;T371 -->
<g id="edge2" class="edge">
<title>T370:f5&#45;&gt;T371:f1</title>
<path fill="none" stroke="#5b00c0" d="M493,-30C493,-59.12 449.87,-26.71 430,-48 422.41,-56.14 422.23,-62.11 422.64,-70.79"/>
<polygon fill="#5b00c0" stroke="#5b00c0" points="419.15,-71.13 423,-81 426.15,-70.88 419.15,-71.13"/>
<text text-anchor="middle" x="439.5" y="-51.8" font-family="Times,serif" font-size="14.00" fill="#5b00c0">rw</text>
</g>
</g>
</svg>
