<?xml version="1.0" encoding="UTF-8" standalone="no"?>
<!DOCTYPE svg PUBLIC "-//W3C//DTD SVG 1.1//EN"
 "http://www.w3.org/Graphics/SVG/1.1/DTD/svg11.dtd">
<!-- Generated by graphviz version 2.43.0 (0)
 -->
<!-- Title: a_graph Pages: 1 -->
<svg width="446pt" height="119pt"
 viewBox="0.00 0.00 446.00 119.00" xmlns="http://www.w3.org/2000/svg" xmlns:xlink="http://www.w3.org/1999/xlink">
<g id="graph0" class="graph" transform="scale(1 1) rotate(0) translate(4 115)">
<title>a_graph</title>
<polygon fill="white" stroke="transparent" points="-4,4 -4,-115 442,-115 442,4 -4,4"/>
<!-- T1009 -->
<g id="node1" class="node">
<title>T1009</title>
<polygon fill="none" stroke="#0058ad" points="127,-81.5 127,-110.5 438,-110.5 438,-81.5 127,-81.5"/>
<text text-anchor="middle" x="166.5" y="-92.3" font-family="Times,serif" font-size="14.00" fill="#0058ad">r 445 [1]</text>
<polyline fill="none" stroke="#0058ad" points="206,-81.5 206,-110.5 "/>
<text text-anchor="middle" x="241" y="-92.3" font-family="Times,serif" font-size="14.00" fill="#0058ad">a 441 2</text>
<polyline fill="none" stroke="#0058ad" points="276,-81.5 276,-110.5 "/>
<text text-anchor="middle" x="322" y="-92.3" font-family="Times,serif" font-size="14.00" fill="#0058ad">r 434 [1 2]</text>
<polyline fill="none" stroke="#0058ad" points="368,-81.5 368,-110.5 "/>
<text text-anchor="middle" x="403" y="-92.3" font-family="Times,serif" font-size="14.00" fill="#0058ad">r 447 []</text>
</g>
<!-- T1008 -->
<g id="node2" class="node">
<title>T1008</title>
<polygon fill="none" stroke="#0058ad" points="0,-0.5 0,-29.5 429,-29.5 429,-0.5 0,-0.5"/>
<text text-anchor="middle" x="35" y="-11.3" font-family="Times,serif" font-size="14.00" fill="#0058ad">a 445 2</text>
<polyline fill="none" stroke="#0058ad" points="70,-0.5 70,-29.5 "/>
<text text-anchor="middle" x="105" y="-11.3" font-family="Times,serif" font-size="14.00" fill="#0058ad">a 445 3</text>
<polyline fill="none" stroke="#0058ad" points="140,-0.5 140,-29.5 "/>
<text text-anchor="middle" x="175" y="-11.3" font-family="Times,serif" font-size="14.00" fill="#0058ad">a 446 1</text>
<polyline fill="none" stroke="#0058ad" points="210,-0.5 210,-29.5 "/>
<text text-anchor="middle" x="245" y="-11.3" font-family="Times,serif" font-size="14.00" fill="#0058ad">a 446 2</text>
<polyline fill="none" stroke="#0058ad" points="280,-0.5 280,-29.5 "/>
<text text-anchor="middle" x="319.5" y="-11.3" font-family="Times,serif" font-size="14.00" fill="#0058ad">r 441 [1]</text>
<polyline fill="none" stroke="#0058ad" points="359,-0.5 359,-29.5 "/>
<text text-anchor="middle" x="394" y="-11.3" font-family="Times,serif" font-size="14.00" fill="#0058ad">a 446 3</text>
</g>
<!-- T1009&#45;&gt;T1008 -->
<g id="edge1" class="edge">
<title>T1009:f0&#45;&gt;T1008:f0</title>
<path fill="none" stroke="#5b00c0" d="M125.5,-96C79.05,-96 40.32,-82.14 35.1,-40.04"/>
<polygon fill="#5b00c0" stroke="#5b00c0" points="38.59,-39.77 34.5,-30 31.6,-40.19 38.59,-39.77"/>
<text text-anchor="middle" x="52" y="-51.8" font-family="Times,serif" font-size="14.00" fill="#5b00c0">rw</text>
</g>
<!-- T1008&#45;&gt;T1009 -->
<g id="edge2" class="edge">
<title>T1008:f4&#45;&gt;T1009:f1</title>
<path fill="none" stroke="#5b00c0" d="M319.5,-30C319.5,-67.87 254.62,-44.66 242.45,-71.08"/>
<polygon fill="#5b00c0" stroke="#5b00c0" points="239,-70.51 240.5,-81 245.87,-71.86 239,-70.51"/>
<text text-anchor="middle" x="319" y="-51.8" font-family="Times,serif" font-size="14.00" fill="#5b00c0">rw</text>
</g>
</g>
</svg>
