<?xml version="1.0" encoding="UTF-8" standalone="no"?>
<!DOCTYPE svg PUBLIC "-//W3C//DTD SVG 1.1//EN"
 "http://www.w3.org/Graphics/SVG/1.1/DTD/svg11.dtd">
<!-- Generated by graphviz version 2.43.0 (0)
 -->
<!-- Title: a_graph Pages: 1 -->
<svg width="711pt" height="119pt"
 viewBox="0.00 0.00 710.50 119.00" xmlns="http://www.w3.org/2000/svg" xmlns:xlink="http://www.w3.org/1999/xlink">
<g id="graph0" class="graph" transform="scale(1 1) rotate(0) translate(4 115)">
<title>a_graph</title>
<polygon fill="white" stroke="transparent" points="-4,4 -4,-115 706.5,-115 706.5,4 -4,4"/>
<!-- T894 -->
<g id="node1" class="node">
<title>T894</title>
<polygon fill="none" stroke="#0058ad" points="202.5,-81.5 202.5,-110.5 702.5,-110.5 702.5,-81.5 202.5,-81.5"/>
<text text-anchor="middle" x="248.5" y="-92.3" font-family="Times,serif" font-size="14.00" fill="#0058ad">r 393 [1 2]</text>
<polyline fill="none" stroke="#0058ad" points="294.5,-81.5 294.5,-110.5 "/>
<text text-anchor="middle" x="340.5" y="-92.3" font-family="Times,serif" font-size="14.00" fill="#0058ad">r 397 [1 2]</text>
<polyline fill="none" stroke="#0058ad" points="386.5,-81.5 386.5,-110.5 "/>
<text text-anchor="middle" x="421.5" y="-92.3" font-family="Times,serif" font-size="14.00" fill="#0058ad">a 396 2</text>
<polyline fill="none" stroke="#0058ad" points="456.5,-81.5 456.5,-110.5 "/>
<text text-anchor="middle" x="491.5" y="-92.3" font-family="Times,serif" font-size="14.00" fill="#0058ad">a 396 3</text>
<polyline fill="none" stroke="#0058ad" points="526.5,-81.5 526.5,-110.5 "/>
<text text-anchor="middle" x="561.5" y="-92.3" font-family="Times,serif" font-size="14.00" fill="#0058ad">a 397 3</text>
<polyline fill="none" stroke="#0058ad" points="596.5,-81.5 596.5,-110.5 "/>
<text text-anchor="middle" x="649.5" y="-92.3" font-family="Times,serif" font-size="14.00" fill="#0058ad">r 397 [1 2 3]</text>
</g>
<!-- T895 -->
<g id="node2" class="node">
<title>T895</title>
<polygon fill="none" stroke="#0058ad" points="0,-0.5 0,-29.5 517,-29.5 517,-0.5 0,-0.5"/>
<text text-anchor="middle" x="35" y="-11.3" font-family="Times,serif" font-size="14.00" fill="#0058ad">r 398 []</text>
<polyline fill="none" stroke="#0058ad" points="70,-0.5 70,-29.5 "/>
<text text-anchor="middle" x="109.5" y="-11.3" font-family="Times,serif" font-size="14.00" fill="#0058ad">r 395 [1]</text>
<polyline fill="none" stroke="#0058ad" points="149,-0.5 149,-29.5 "/>
<text text-anchor="middle" x="188.5" y="-11.3" font-family="Times,serif" font-size="14.00" fill="#0058ad">r 396 [1]</text>
<polyline fill="none" stroke="#0058ad" points="228,-0.5 228,-29.5 "/>
<text text-anchor="middle" x="263" y="-11.3" font-family="Times,serif" font-size="14.00" fill="#0058ad">a 398 1</text>
<polyline fill="none" stroke="#0058ad" points="298,-0.5 298,-29.5 "/>
<text text-anchor="middle" x="337.5" y="-11.3" font-family="Times,serif" font-size="14.00" fill="#0058ad">r 398 [1]</text>
<polyline fill="none" stroke="#0058ad" points="377,-0.5 377,-29.5 "/>
<text text-anchor="middle" x="412" y="-11.3" font-family="Times,serif" font-size="14.00" fill="#0058ad">a 398 2</text>
<polyline fill="none" stroke="#0058ad" points="447,-0.5 447,-29.5 "/>
<text text-anchor="middle" x="482" y="-11.3" font-family="Times,serif" font-size="14.00" fill="#0058ad">a 393 3</text>
</g>
<!-- T894&#45;&gt;T895 -->
<g id="edge1" class="edge">
<title>T894:f0&#45;&gt;T895:f6</title>
<path fill="none" stroke="#5b00c0" d="M248.5,-81C248.5,-34.62 302.31,-58.44 347.5,-48 373.3,-42.04 457.31,-55.9 477.91,-39.18"/>
<polygon fill="#5b00c0" stroke="#5b00c0" points="481.16,-40.51 482.5,-30 474.9,-37.38 481.16,-40.51"/>
<text text-anchor="middle" x="357" y="-51.8" font-family="Times,serif" font-size="14.00" fill="#5b00c0">rw</text>
</g>
<!-- T895&#45;&gt;T894 -->
<g id="edge2" class="edge">
<title>T895:f2&#45;&gt;T894:f2</title>
<path fill="none" stroke="#5b00c0" d="M188.5,-30C188.5,-49.88 347.63,-41.74 366.5,-48 389.75,-55.72 413.66,-53.49 419.92,-70.8"/>
<polygon fill="#5b00c0" stroke="#5b00c0" points="416.51,-71.65 421.5,-81 423.43,-70.58 416.51,-71.65"/>
<text text-anchor="middle" x="424" y="-51.8" font-family="Times,serif" font-size="14.00" fill="#5b00c0">rw</text>
</g>
</g>
</svg>
