<?xml version="1.0" encoding="UTF-8" standalone="no"?>
<!DOCTYPE svg PUBLIC "-//W3C//DTD SVG 1.1//EN"
 "http://www.w3.org/Graphics/SVG/1.1/DTD/svg11.dtd">
<!-- Generated by graphviz version 2.43.0 (0)
 -->
<!-- Title: a_graph Pages: 1 -->
<svg width="2469pt" height="119pt"
 viewBox="0.00 0.00 2469.00 119.00" xmlns="http://www.w3.org/2000/svg" xmlns:xlink="http://www.w3.org/1999/xlink">
<g id="graph0" class="graph" transform="scale(1 1) rotate(0) translate(4 115)">
<title>a_graph</title>
<polygon fill="white" stroke="transparent" points="-4,4 -4,-115 2465,-115 2465,4 -4,4"/>
<!-- T2297 -->
<g id="node1" class="node">
<title>T2297</title>
<polygon fill="none" stroke="#0058ad" points="131.5,-81.5 131.5,-110.5 1775.5,-110.5 1775.5,-81.5 131.5,-81.5"/>
<text text-anchor="middle" x="310.5" y="-92.3" font-family="Times,serif" font-size="14.00" fill="#0058ad">r 88 [1 2 3 4 5 6 7 8 9 10 11 12 13 14 15 16 17]</text>
<polyline fill="none" stroke="#0058ad" points="489.5,-81.5 489.5,-110.5 "/>
<text text-anchor="middle" x="520" y="-92.3" font-family="Times,serif" font-size="14.00" fill="#0058ad">r 91 []</text>
<polyline fill="none" stroke="#0058ad" points="550.5,-81.5 550.5,-110.5 "/>
<text text-anchor="middle" x="585.5" y="-92.3" font-family="Times,serif" font-size="14.00" fill="#0058ad">a 89 27</text>
<polyline fill="none" stroke="#0058ad" points="620.5,-81.5 620.5,-110.5 "/>
<text text-anchor="middle" x="655.5" y="-92.3" font-family="Times,serif" font-size="14.00" fill="#0058ad">a 89 28</text>
<polyline fill="none" stroke="#0058ad" points="690.5,-81.5 690.5,-110.5 "/>
<text text-anchor="middle" x="869.5" y="-92.3" font-family="Times,serif" font-size="14.00" fill="#0058ad">r 88 [1 2 3 4 5 6 7 8 9 10 11 12 13 14 15 16 17]</text>
<polyline fill="none" stroke="#0058ad" points="1048.5,-81.5 1048.5,-110.5 "/>
<text text-anchor="middle" x="1079" y="-92.3" font-family="Times,serif" font-size="14.00" fill="#0058ad">r 91 []</text>
<polyline fill="none" stroke="#0058ad" points="1109.5,-81.5 1109.5,-110.5 "/>
<text text-anchor="middle" x="1412" y="-92.3" font-family="Times,serif" font-size="14.00" fill="#0058ad">r 89 [1 2 3 4 5 6 7 8 9 10 11 12 13 14 15 16 17 18 19 20 21 22 23 24 25 26 27 28]</text>
<polyline fill="none" stroke="#0058ad" points="1714.5,-81.5 1714.5,-110.5 "/>
<text text-anchor="middle" x="1745" y="-92.3" font-family="Times,serif" font-size="14.00" fill="#0058ad">r 91 []</text>
</g>
<!-- T2296 -->
<g id="node2" class="node">
<title>T2296</title>
<polygon fill="none" stroke="#0058ad" points="0,-0.5 0,-29.5 2461,-29.5 2461,-0.5 0,-0.5"/>
<text text-anchor="middle" x="35" y="-11.3" font-family="Times,serif" font-size="14.00" fill="#0058ad">a 88 18</text>
<polyline fill="none" stroke="#0058ad" points="70,-0.5 70,-29.5 "/>
<text text-anchor="middle" x="417.5" y="-11.3" font-family="Times,serif" font-size="14.00" fill="#0058ad">r 90 [1 2 3 4 5 6 7 8 9 10 11 12 13 14 15 16 17 18 19 20 21 22 23 24 25 26 27 28 29 30 31 32]</text>
<polyline fill="none" stroke="#0058ad" points="765,-0.5 765,-29.5 "/>
<text text-anchor="middle" x="1045" y="-11.3" font-family="Times,serif" font-size="14.00" fill="#0058ad">r 89 [1 2 3 4 5 6 7 8 9 10 11 12 13 14 15 16 17 18 19 20 21 22 23 24 25 26]</text>
<polyline fill="none" stroke="#0058ad" points="1325,-0.5 1325,-29.5 "/>
<text text-anchor="middle" x="1672.5" y="-11.3" font-family="Times,serif" font-size="14.00" fill="#0058ad">r 90 [1 2 3 4 5 6 7 8 9 10 11 12 13 14 15 16 17 18 19 20 21 22 23 24 25 26 27 28 29 30 31 32]</text>
<polyline fill="none" stroke="#0058ad" points="2020,-0.5 2020,-29.5 "/>
<text text-anchor="middle" x="2210" y="-11.3" font-family="Times,serif" font-size="14.00" fill="#0058ad">r 88 [1 2 3 4 5 6 7 8 9 10 11 12 13 14 15 16 17 18]</text>
<polyline fill="none" stroke="#0058ad" points="2400,-0.5 2400,-29.5 "/>
<text text-anchor="middle" x="2430.5" y="-11.3" font-family="Times,serif" font-size="14.00" fill="#0058ad">a 91 1</text>
</g>
<!-- T2297&#45;&gt;T2296 -->
<g id="edge1" class="edge">
<title>T2297:f0&#45;&gt;T2296:f0</title>
<path fill="none" stroke="#5b00c0" d="M130.5,-96C82.26,-96 40.58,-83.66 35.11,-40.1"/>
<polygon fill="#5b00c0" stroke="#5b00c0" points="38.59,-39.77 34.5,-30 31.61,-40.19 38.59,-39.77"/>
<text text-anchor="middle" x="52" y="-51.8" font-family="Times,serif" font-size="14.00" fill="#5b00c0">rw</text>
</g>
<!-- T2296&#45;&gt;T2297 -->
<g id="edge2" class="edge">
<title>T2296:f2&#45;&gt;T2297:f2</title>
<path fill="none" stroke="#5b00c0" d="M1044.5,-30C1044.5,-231.75 601.05,112.13 585.9,-70.97"/>
<polygon fill="#5b00c0" stroke="#5b00c0" points="582.4,-70.87 585.5,-81 589.39,-71.15 582.4,-70.87"/>
<text text-anchor="middle" x="1052" y="-51.8" font-family="Times,serif" font-size="14.00" fill="#5b00c0">rw</text>
</g>
</g>
</svg>
