<?xml version="1.0" encoding="UTF-8" standalone="no"?>
<!DOCTYPE svg PUBLIC "-//W3C//DTD SVG 1.1//EN"
 "http://www.w3.org/Graphics/SVG/1.1/DTD/svg11.dtd">
<!-- Generated by graphviz version 2.43.0 (0)
 -->
<!-- Title: a_graph Pages: 1 -->
<svg width="2125pt" height="119pt"
 viewBox="0.00 0.00 2125.00 119.00" xmlns="http://www.w3.org/2000/svg" xmlns:xlink="http://www.w3.org/1999/xlink">
<g id="graph0" class="graph" transform="scale(1 1) rotate(0) translate(4 115)">
<title>a_graph</title>
<polygon fill="white" stroke="transparent" points="-4,4 -4,-115 2121,-115 2121,4 -4,4"/>
<!-- T1547 -->
<g id="node1" class="node">
<title>T1547</title>
<polygon fill="none" stroke="#0058ad" points="337.5,-81.5 337.5,-110.5 687.5,-110.5 687.5,-81.5 337.5,-81.5"/>
<text text-anchor="middle" x="372.5" y="-92.3" font-family="Times,serif" font-size="14.00" fill="#0058ad">a 61 27</text>
<polyline fill="none" stroke="#0058ad" points="407.5,-81.5 407.5,-110.5 "/>
<text text-anchor="middle" x="442.5" y="-92.3" font-family="Times,serif" font-size="14.00" fill="#0058ad">a 61 28</text>
<polyline fill="none" stroke="#0058ad" points="477.5,-81.5 477.5,-110.5 "/>
<text text-anchor="middle" x="512.5" y="-92.3" font-family="Times,serif" font-size="14.00" fill="#0058ad">a 61 29</text>
<polyline fill="none" stroke="#0058ad" points="547.5,-81.5 547.5,-110.5 "/>
<text text-anchor="middle" x="582.5" y="-92.3" font-family="Times,serif" font-size="14.00" fill="#0058ad">a 61 30</text>
<polyline fill="none" stroke="#0058ad" points="617.5,-81.5 617.5,-110.5 "/>
<text text-anchor="middle" x="652.5" y="-92.3" font-family="Times,serif" font-size="14.00" fill="#0058ad">r 62 [1]</text>
</g>
<!-- T1546 -->
<g id="node2" class="node">
<title>T1546</title>
<polygon fill="none" stroke="#0058ad" points="0,-0.5 0,-29.5 2117,-29.5 2117,-0.5 0,-0.5"/>
<text text-anchor="middle" x="35" y="-11.3" font-family="Times,serif" font-size="14.00" fill="#0058ad">a 60 12</text>
<polyline fill="none" stroke="#0058ad" points="70,-0.5 70,-29.5 "/>
<text text-anchor="middle" x="339" y="-11.3" font-family="Times,serif" font-size="14.00" fill="#0058ad">r 61 [1 2 3 4 5 6 7 8 9 10 11 12 13 14 15 16 17 18 19 20 21 22 23 25 26]</text>
<polyline fill="none" stroke="#0058ad" points="608,-0.5 608,-29.5 "/>
<text text-anchor="middle" x="643" y="-11.3" font-family="Times,serif" font-size="14.00" fill="#0058ad">r 62 [1]</text>
<polyline fill="none" stroke="#0058ad" points="678,-0.5 678,-29.5 "/>
<text text-anchor="middle" x="708.5" y="-11.3" font-family="Times,serif" font-size="14.00" fill="#0058ad">a 62 2</text>
<polyline fill="none" stroke="#0058ad" points="739,-0.5 739,-29.5 "/>
<text text-anchor="middle" x="855" y="-11.3" font-family="Times,serif" font-size="14.00" fill="#0058ad">r 60 [1 2 4 5 6 7 8 9 10 11 12]</text>
<polyline fill="none" stroke="#0058ad" points="971,-0.5 971,-29.5 "/>
<text text-anchor="middle" x="1240" y="-11.3" font-family="Times,serif" font-size="14.00" fill="#0058ad">r 61 [1 2 3 4 5 6 7 8 9 10 11 12 13 14 15 16 17 18 19 20 21 22 23 25 26]</text>
<polyline fill="none" stroke="#0058ad" points="1509,-0.5 1509,-29.5 "/>
<text text-anchor="middle" x="1544" y="-11.3" font-family="Times,serif" font-size="14.00" fill="#0058ad">a 60 13</text>
<polyline fill="none" stroke="#0058ad" points="1579,-0.5 1579,-29.5 "/>
<text text-anchor="middle" x="1848" y="-11.3" font-family="Times,serif" font-size="14.00" fill="#0058ad">r 61 [1 2 3 4 5 6 7 8 9 10 11 12 13 14 15 16 17 18 19 20 21 22 23 25 26]</text>
</g>
<!-- T1547&#45;&gt;T1546 -->
<g id="edge1" class="edge">
<title>T1547:f4&#45;&gt;T1546:f3</title>
<path fill="none" stroke="#5b00c0" d="M652.5,-81C652.5,-51.28 696.14,-60.52 706.37,-39.94"/>
<polygon fill="#5b00c0" stroke="#5b00c0" points="709.83,-40.51 708.5,-30 702.98,-39.05 709.83,-40.51"/>
<text text-anchor="middle" x="707" y="-51.8" font-family="Times,serif" font-size="14.00" fill="#5b00c0">rw</text>
</g>
<!-- T1546&#45;&gt;T1547 -->
<g id="edge2" class="edge">
<title>T1546:f1&#45;&gt;T1547:f0</title>
<path fill="none" stroke="#5b00c0" d="M338.5,-30C338.5,-53.41 363.61,-54.13 370.67,-71.16"/>
<polygon fill="#5b00c0" stroke="#5b00c0" points="367.23,-71.81 372.5,-81 374.11,-70.53 367.23,-71.81"/>
<text text-anchor="middle" x="374" y="-51.8" font-family="Times,serif" font-size="14.00" fill="#5b00c0">rw</text>
</g>
</g>
</svg>
