<?xml version="1.0" encoding="UTF-8" standalone="no"?>
<!DOCTYPE svg PUBLIC "-//W3C//DTD SVG 1.1//EN"
 "http://www.w3.org/Graphics/SVG/1.1/DTD/svg11.dtd">
<!-- Generated by graphviz version 2.43.0 (0)
 -->
<!-- Title: a_graph Pages: 1 -->
<svg width="1241pt" height="119pt"
 viewBox="0.00 0.00 1240.50 119.00" xmlns="http://www.w3.org/2000/svg" xmlns:xlink="http://www.w3.org/1999/xlink">
<g id="graph0" class="graph" transform="scale(1 1) rotate(0) translate(4 115)">
<title>a_graph</title>
<polygon fill="white" stroke="transparent" points="-4,4 -4,-115 1236.5,-115 1236.5,4 -4,4"/>
<!-- T988 -->
<g id="node1" class="node">
<title>T988</title>
<polygon fill="none" stroke="#0058ad" points="342.5,-81.5 342.5,-110.5 1232.5,-110.5 1232.5,-81.5 342.5,-81.5"/>
<text text-anchor="middle" x="391" y="-92.3" font-family="Times,serif" font-size="14.00" fill="#0058ad">r 39 [1 2 3]</text>
<polyline fill="none" stroke="#0058ad" points="439.5,-81.5 439.5,-110.5 "/>
<text text-anchor="middle" x="596" y="-92.3" font-family="Times,serif" font-size="14.00" fill="#0058ad">r 38 [1 2 3 4 5 6 7 8 9 10 11 12 13 14 15]</text>
<polyline fill="none" stroke="#0058ad" points="752.5,-81.5 752.5,-110.5 "/>
<text text-anchor="middle" x="787.5" y="-92.3" font-family="Times,serif" font-size="14.00" fill="#0058ad">a 36 17</text>
<polyline fill="none" stroke="#0058ad" points="822.5,-81.5 822.5,-110.5 "/>
<text text-anchor="middle" x="871" y="-92.3" font-family="Times,serif" font-size="14.00" fill="#0058ad">r 39 [1 2 3]</text>
<polyline fill="none" stroke="#0058ad" points="919.5,-81.5 919.5,-110.5 "/>
<text text-anchor="middle" x="1076" y="-92.3" font-family="Times,serif" font-size="14.00" fill="#0058ad">r 38 [1 2 3 4 5 6 7 8 9 10 11 12 13 14 15]</text>
</g>
<!-- T989 -->
<g id="node2" class="node">
<title>T989</title>
<polygon fill="none" stroke="#0058ad" points="0,-0.5 0,-29.5 1113,-29.5 1113,-0.5 0,-0.5"/>
<text text-anchor="middle" x="48.5" y="-11.3" font-family="Times,serif" font-size="14.00" fill="#0058ad">r 39 [1 2 3]</text>
<polyline fill="none" stroke="#0058ad" points="97,-0.5 97,-29.5 "/>
<text text-anchor="middle" x="127.5" y="-11.3" font-family="Times,serif" font-size="14.00" fill="#0058ad">a 39 5</text>
<polyline fill="none" stroke="#0058ad" points="158,-0.5 158,-29.5 "/>
<text text-anchor="middle" x="188.5" y="-11.3" font-family="Times,serif" font-size="14.00" fill="#0058ad">a 39 6</text>
<polyline fill="none" stroke="#0058ad" points="219,-0.5 219,-29.5 "/>
<text text-anchor="middle" x="375.5" y="-11.3" font-family="Times,serif" font-size="14.00" fill="#0058ad">r 38 [1 2 3 4 5 6 7 8 9 10 11 12 13 14 15]</text>
<polyline fill="none" stroke="#0058ad" points="532,-0.5 532,-29.5 "/>
<text text-anchor="middle" x="594" y="-11.3" font-family="Times,serif" font-size="14.00" fill="#0058ad">r 39 [1 2 3 5 6]</text>
<polyline fill="none" stroke="#0058ad" points="656,-0.5 656,-29.5 "/>
<text text-anchor="middle" x="686.5" y="-11.3" font-family="Times,serif" font-size="14.00" fill="#0058ad">a 39 7</text>
<polyline fill="none" stroke="#0058ad" points="717,-0.5 717,-29.5 "/>
<text text-anchor="middle" x="747.5" y="-11.3" font-family="Times,serif" font-size="14.00" fill="#0058ad">a 39 8</text>
<polyline fill="none" stroke="#0058ad" points="778,-0.5 778,-29.5 "/>
<text text-anchor="middle" x="945.5" y="-11.3" font-family="Times,serif" font-size="14.00" fill="#0058ad">r 36 [1 2 3 4 5 6 7 8 9 10 11 12 13 14 15 16]</text>
</g>
<!-- T988&#45;&gt;T989 -->
<g id="edge1" class="edge">
<title>T988:f0&#45;&gt;T989:f1</title>
<path fill="none" stroke="#5b00c0" d="M341.5,-96C295.23,-96 150.03,-81.97 129.84,-40.01"/>
<polygon fill="#5b00c0" stroke="#5b00c0" points="133.18,-38.94 127.5,-30 126.37,-40.53 133.18,-38.94"/>
<text text-anchor="middle" x="166" y="-51.8" font-family="Times,serif" font-size="14.00" fill="#5b00c0">rw</text>
</g>
<!-- T989&#45;&gt;T988 -->
<g id="edge2" class="edge">
<title>T989:f7&#45;&gt;T988:f2</title>
<path fill="none" stroke="#5b00c0" d="M945.5,-30C945.5,-100.04 803.14,-16.58 788.68,-71.03"/>
<polygon fill="#5b00c0" stroke="#5b00c0" points="785.2,-70.66 787.5,-81 792.15,-71.48 785.2,-70.66"/>
<text text-anchor="middle" x="949" y="-51.8" font-family="Times,serif" font-size="14.00" fill="#5b00c0">rw</text>
</g>
</g>
</svg>
