<?xml version="1.0" encoding="UTF-8" standalone="no"?>
<!DOCTYPE svg PUBLIC "-//W3C//DTD SVG 1.1//EN"
 "http://www.w3.org/Graphics/SVG/1.1/DTD/svg11.dtd">
<!-- Generated by graphviz version 2.43.0 (0)
 -->
<!-- Title: a_graph Pages: 1 -->
<svg width="2398pt" height="119pt"
 viewBox="0.00 0.00 2398.00 119.00" xmlns="http://www.w3.org/2000/svg" xmlns:xlink="http://www.w3.org/1999/xlink">
<g id="graph0" class="graph" transform="scale(1 1) rotate(0) translate(4 115)">
<title>a_graph</title>
<polygon fill="white" stroke="transparent" points="-4,4 -4,-115 2394,-115 2394,4 -4,4"/>
<!-- T3622 -->
<g id="node1" class="node">
<title>T3622</title>
<polygon fill="none" stroke="#0058ad" points="1347.5,-81.5 1347.5,-110.5 2040.5,-110.5 2040.5,-81.5 1347.5,-81.5"/>
<text text-anchor="middle" x="1387" y="-92.3" font-family="Times,serif" font-size="14.00" fill="#0058ad">a 139 16</text>
<polyline fill="none" stroke="#0058ad" points="1426.5,-81.5 1426.5,-110.5 "/>
<text text-anchor="middle" x="1733.5" y="-92.3" font-family="Times,serif" font-size="14.00" fill="#0058ad">r 138 [1 2 3 4 5 6 7 8 9 10 11 12 13 14 15 16 17 18 19 20 21 22 23 24 25 26 27 28]</text>
</g>
<!-- T3623 -->
<g id="node2" class="node">
<title>T3623</title>
<polygon fill="none" stroke="#0058ad" points="0,-0.5 0,-29.5 2390,-29.5 2390,-0.5 0,-0.5"/>
<text text-anchor="middle" x="39.5" y="-11.3" font-family="Times,serif" font-size="14.00" fill="#0058ad">a 134 27</text>
<polyline fill="none" stroke="#0058ad" points="79,-0.5 79,-29.5 "/>
<text text-anchor="middle" x="363.5" y="-11.3" font-family="Times,serif" font-size="14.00" fill="#0058ad">r 134 [1 2 3 4 5 6 7 8 9 10 12 13 14 15 16 17 18 19 20 21 22 23 24 25 26 27]</text>
<polyline fill="none" stroke="#0058ad" points="648,-0.5 648,-29.5 "/>
<text text-anchor="middle" x="932.5" y="-11.3" font-family="Times,serif" font-size="14.00" fill="#0058ad">r 134 [1 2 3 4 5 6 7 8 9 10 12 13 14 15 16 17 18 19 20 21 22 23 24 25 26 27]</text>
<polyline fill="none" stroke="#0058ad" points="1217,-0.5 1217,-29.5 "/>
<text text-anchor="middle" x="1378" y="-11.3" font-family="Times,serif" font-size="14.00" fill="#0058ad">r 139 [1 2 3 4 5 6 7 8 9 10 11 12 13 14 15]</text>
<polyline fill="none" stroke="#0058ad" points="1539,-0.5 1539,-29.5 "/>
<text text-anchor="middle" x="1578.5" y="-11.3" font-family="Times,serif" font-size="14.00" fill="#0058ad">a 134 28</text>
<polyline fill="none" stroke="#0058ad" points="1618,-0.5 1618,-29.5 "/>
<text text-anchor="middle" x="1657.5" y="-11.3" font-family="Times,serif" font-size="14.00" fill="#0058ad">a 134 29</text>
<polyline fill="none" stroke="#0058ad" points="1697,-0.5 1697,-29.5 "/>
<text text-anchor="middle" x="1736.5" y="-11.3" font-family="Times,serif" font-size="14.00" fill="#0058ad">a 138 29</text>
<polyline fill="none" stroke="#0058ad" points="1776,-0.5 1776,-29.5 "/>
<text text-anchor="middle" x="2083" y="-11.3" font-family="Times,serif" font-size="14.00" fill="#0058ad">r 134 [1 2 3 4 5 6 7 8 9 10 12 13 14 15 16 17 18 19 20 21 22 23 24 25 26 27 28 29]</text>
</g>
<!-- T3622&#45;&gt;T3623 -->
<g id="edge1" class="edge">
<title>T3622:f1&#45;&gt;T3623:f6</title>
<path fill="none" stroke="#5b00c0" d="M1734,-81C1734,-62.2 1736.06,-55.13 1736.76,-40.36"/>
<polygon fill="#5b00c0" stroke="#5b00c0" points="1740.27,-40.08 1737,-30 1733.27,-39.92 1740.27,-40.08"/>
<text text-anchor="middle" x="1745.5" y="-51.8" font-family="Times,serif" font-size="14.00" fill="#5b00c0">rw</text>
</g>
<!-- T3623&#45;&gt;T3622 -->
<g id="edge2" class="edge">
<title>T3623:f3&#45;&gt;T3622:f0</title>
<path fill="none" stroke="#5b00c0" d="M1378,-30C1378,-49.24 1384.29,-55.87 1386.35,-70.97"/>
<polygon fill="#5b00c0" stroke="#5b00c0" points="1382.86,-71.25 1387,-81 1389.85,-70.8 1382.86,-71.25"/>
<text text-anchor="middle" x="1393.5" y="-51.8" font-family="Times,serif" font-size="14.00" fill="#5b00c0">rw</text>
</g>
</g>
</svg>
