<?xml version="1.0" encoding="UTF-8" standalone="no"?>
<!DOCTYPE svg PUBLIC "-//W3C//DTD SVG 1.1//EN"
 "http://www.w3.org/Graphics/SVG/1.1/DTD/svg11.dtd">
<!-- Generated by graphviz version 2.43.0 (0)
 -->
<!-- Title: a_graph Pages: 1 -->
<svg width="1159pt" height="119pt"
 viewBox="0.00 0.00 1159.00 119.00" xmlns="http://www.w3.org/2000/svg" xmlns:xlink="http://www.w3.org/1999/xlink">
<g id="graph0" class="graph" transform="scale(1 1) rotate(0) translate(4 115)">
<title>a_graph</title>
<polygon fill="white" stroke="transparent" points="-4,4 -4,-115 1155,-115 1155,4 -4,4"/>
<!-- T3379 -->
<g id="node1" class="node">
<title>T3379</title>
<polygon fill="none" stroke="#0058ad" points="0,-81.5 0,-110.5 1151,-110.5 1151,-81.5 0,-81.5"/>
<text text-anchor="middle" x="228.5" y="-92.3" font-family="Times,serif" font-size="14.00" fill="#0058ad">r 129 [1 2 3 4 5 6 7 8 9 10 11 12 13 14 15 16 17 18 19 20 21]</text>
<polyline fill="none" stroke="#0058ad" points="457,-81.5 457,-110.5 "/>
<text text-anchor="middle" x="496.5" y="-92.3" font-family="Times,serif" font-size="14.00" fill="#0058ad">a 127 22</text>
<polyline fill="none" stroke="#0058ad" points="536,-81.5 536,-110.5 "/>
<text text-anchor="middle" x="575.5" y="-92.3" font-family="Times,serif" font-size="14.00" fill="#0058ad">a 130 17</text>
<polyline fill="none" stroke="#0058ad" points="615,-81.5 615,-110.5 "/>
<text text-anchor="middle" x="843.5" y="-92.3" font-family="Times,serif" font-size="14.00" fill="#0058ad">r 129 [1 2 3 4 5 6 7 8 9 10 11 12 13 14 15 16 17 18 19 20 21]</text>
<polyline fill="none" stroke="#0058ad" points="1072,-81.5 1072,-110.5 "/>
<text text-anchor="middle" x="1111.5" y="-92.3" font-family="Times,serif" font-size="14.00" fill="#0058ad">a 130 18</text>
</g>
<!-- T3378 -->
<g id="node2" class="node">
<title>T3378</title>
<polygon fill="none" stroke="#0058ad" points="273,-0.5 273,-29.5 696,-29.5 696,-0.5 273,-0.5"/>
<text text-anchor="middle" x="312.5" y="-11.3" font-family="Times,serif" font-size="14.00" fill="#0058ad">a 129 22</text>
<polyline fill="none" stroke="#0058ad" points="352,-0.5 352,-29.5 "/>
<text text-anchor="middle" x="524" y="-11.3" font-family="Times,serif" font-size="14.00" fill="#0058ad">r 130 [1 2 3 4 5 6 7 8 9 10 11 12 13 14 15 16]</text>
</g>
<!-- T3379&#45;&gt;T3378 -->
<g id="edge1" class="edge">
<title>T3379:f0&#45;&gt;T3378:f0</title>
<path fill="none" stroke="#5b00c0" d="M228.5,-81C228.5,-49.68 234.89,-21.58 261.3,-16"/>
<polygon fill="#5b00c0" stroke="#5b00c0" points="261.89,-19.46 271.5,-15 261.21,-12.5 261.89,-19.46"/>
<text text-anchor="middle" x="242" y="-51.8" font-family="Times,serif" font-size="14.00" fill="#5b00c0">rw</text>
</g>
<!-- T3378&#45;&gt;T3379 -->
<g id="edge2" class="edge">
<title>T3378:f1&#45;&gt;T3379:f2</title>
<path fill="none" stroke="#5b00c0" d="M524.5,-30C524.5,-58.17 563.9,-51.46 573.44,-71.18"/>
<polygon fill="#5b00c0" stroke="#5b00c0" points="570.02,-71.93 575.5,-81 576.87,-70.49 570.02,-71.93"/>
<text text-anchor="middle" x="575" y="-51.8" font-family="Times,serif" font-size="14.00" fill="#5b00c0">rw</text>
</g>
</g>
</svg>
