<?xml version="1.0" encoding="UTF-8" standalone="no"?>
<!DOCTYPE svg PUBLIC "-//W3C//DTD SVG 1.1//EN"
 "http://www.w3.org/Graphics/SVG/1.1/DTD/svg11.dtd">
<!-- Generated by graphviz version 2.43.0 (0)
 -->
<!-- Title: a_graph Pages: 1 -->
<svg width="1560pt" height="119pt"
 viewBox="0.00 0.00 1560.00 119.00" xmlns="http://www.w3.org/2000/svg" xmlns:xlink="http://www.w3.org/1999/xlink">
<g id="graph0" class="graph" transform="scale(1 1) rotate(0) translate(4 115)">
<title>a_graph</title>
<polygon fill="white" stroke="transparent" points="-4,4 -4,-115 1556,-115 1556,4 -4,4"/>
<!-- T2560 -->
<g id="node1" class="node">
<title>T2560</title>
<polygon fill="none" stroke="#0058ad" points="0,-81.5 0,-110.5 921,-110.5 921,-81.5 0,-81.5"/>
<text text-anchor="middle" x="329.5" y="-92.3" font-family="Times,serif" font-size="14.00" fill="#0058ad">r 92 [2 3 4 5 6 7 8 9 10 11 12 13 14 15 16 17 18 19 20 21 22 23 24 25 26 27 28 29 30 31]</text>
<polyline fill="none" stroke="#0058ad" points="659,-81.5 659,-110.5 "/>
<text text-anchor="middle" x="689.5" y="-92.3" font-family="Times,serif" font-size="14.00" fill="#0058ad">a 98 3</text>
<polyline fill="none" stroke="#0058ad" points="720,-81.5 720,-110.5 "/>
<text text-anchor="middle" x="750.5" y="-92.3" font-family="Times,serif" font-size="14.00" fill="#0058ad">a 98 4</text>
<polyline fill="none" stroke="#0058ad" points="781,-81.5 781,-110.5 "/>
<text text-anchor="middle" x="816" y="-92.3" font-family="Times,serif" font-size="14.00" fill="#0058ad">r 99 [1]</text>
<polyline fill="none" stroke="#0058ad" points="851,-81.5 851,-110.5 "/>
<text text-anchor="middle" x="886" y="-92.3" font-family="Times,serif" font-size="14.00" fill="#0058ad">a 92 32</text>
</g>
<!-- T2561 -->
<g id="node2" class="node">
<title>T2561</title>
<polygon fill="none" stroke="#0058ad" points="513,-0.5 513,-29.5 1552,-29.5 1552,-0.5 513,-0.5"/>
<text text-anchor="middle" x="548" y="-11.3" font-family="Times,serif" font-size="14.00" fill="#0058ad">r 99 [1]</text>
<polyline fill="none" stroke="#0058ad" points="583,-0.5 583,-29.5 "/>
<text text-anchor="middle" x="613.5" y="-11.3" font-family="Times,serif" font-size="14.00" fill="#0058ad">a 99 2</text>
<polyline fill="none" stroke="#0058ad" points="644,-0.5 644,-29.5 "/>
<text text-anchor="middle" x="685.5" y="-11.3" font-family="Times,serif" font-size="14.00" fill="#0058ad">r 99 [1 2]</text>
<polyline fill="none" stroke="#0058ad" points="727,-0.5 727,-29.5 "/>
<text text-anchor="middle" x="768.5" y="-11.3" font-family="Times,serif" font-size="14.00" fill="#0058ad">r 99 [1 2]</text>
<polyline fill="none" stroke="#0058ad" points="810,-0.5 810,-29.5 "/>
<text text-anchor="middle" x="851.5" y="-11.3" font-family="Times,serif" font-size="14.00" fill="#0058ad">r 99 [1 2]</text>
<polyline fill="none" stroke="#0058ad" points="893,-0.5 893,-29.5 "/>
<text text-anchor="middle" x="1222.5" y="-11.3" font-family="Times,serif" font-size="14.00" fill="#0058ad">r 92 [2 3 4 5 6 7 8 9 10 11 12 13 14 15 16 17 18 19 20 21 22 23 24 25 26 27 28 29 30 31]</text>
</g>
<!-- T2560&#45;&gt;T2561 -->
<g id="edge1" class="edge">
<title>T2560:f3&#45;&gt;T2561:f1</title>
<path fill="none" stroke="#5b00c0" d="M816.5,-81C816.5,8.21 629.81,-112.33 614.5,-40.33"/>
<polygon fill="#5b00c0" stroke="#5b00c0" points="617.94,-39.62 613.5,-30 610.98,-40.29 617.94,-39.62"/>
<text text-anchor="middle" x="823" y="-51.8" font-family="Times,serif" font-size="14.00" fill="#5b00c0">rw</text>
</g>
<!-- T2561&#45;&gt;T2560 -->
<g id="edge2" class="edge">
<title>T2561:f5&#45;&gt;T2560:f4</title>
<path fill="none" stroke="#5b00c0" d="M1222.5,-30C1222.5,-61.8 991.74,-91.63 932.59,-95.56"/>
<polygon fill="#5b00c0" stroke="#5b00c0" points="932.34,-92.07 922.5,-96 932.64,-99.06 932.34,-92.07"/>
<text text-anchor="middle" x="1209" y="-51.8" font-family="Times,serif" font-size="14.00" fill="#5b00c0">rw</text>
</g>
</g>
</svg>
