<?xml version="1.0" encoding="UTF-8" standalone="no"?>
<!DOCTYPE svg PUBLIC "-//W3C//DTD SVG 1.1//EN"
 "http://www.w3.org/Graphics/SVG/1.1/DTD/svg11.dtd">
<!-- Generated by graphviz version 2.43.0 (0)
 -->
<!-- Title: a_graph Pages: 1 -->
<svg width="1758pt" height="119pt"
 viewBox="0.00 0.00 1758.00 119.00" xmlns="http://www.w3.org/2000/svg" xmlns:xlink="http://www.w3.org/1999/xlink">
<g id="graph0" class="graph" transform="scale(1 1) rotate(0) translate(4 115)">
<title>a_graph</title>
<polygon fill="white" stroke="transparent" points="-4,4 -4,-115 1754,-115 1754,4 -4,4"/>
<!-- T1855 -->
<g id="node1" class="node">
<title>T1855</title>
<polygon fill="none" stroke="#0058ad" points="0,-81.5 0,-110.5 1750,-110.5 1750,-81.5 0,-81.5"/>
<text text-anchor="middle" x="75.5" y="-92.3" font-family="Times,serif" font-size="14.00" fill="#0058ad">r 72 [1 2 3 4 5 6 7]</text>
<polyline fill="none" stroke="#0058ad" points="151,-81.5 151,-110.5 "/>
<text text-anchor="middle" x="186" y="-92.3" font-family="Times,serif" font-size="14.00" fill="#0058ad">a 73 23</text>
<polyline fill="none" stroke="#0058ad" points="221,-81.5 221,-110.5 "/>
<text text-anchor="middle" x="467.5" y="-92.3" font-family="Times,serif" font-size="14.00" fill="#0058ad">r 73 [1 2 3 4 5 6 7 8 9 10 11 12 13 14 15 16 17 18 19 20 21 22 23]</text>
<polyline fill="none" stroke="#0058ad" points="714,-81.5 714,-110.5 "/>
<text text-anchor="middle" x="749" y="-92.3" font-family="Times,serif" font-size="14.00" fill="#0058ad">a 73 24</text>
<polyline fill="none" stroke="#0058ad" points="784,-81.5 784,-110.5 "/>
<text text-anchor="middle" x="963" y="-92.3" font-family="Times,serif" font-size="14.00" fill="#0058ad">r 74 [1 2 3 4 5 6 7 8 9 10 11 12 13 14 15 16 17]</text>
<polyline fill="none" stroke="#0058ad" points="1142,-81.5 1142,-110.5 "/>
<text text-anchor="middle" x="1177" y="-92.3" font-family="Times,serif" font-size="14.00" fill="#0058ad">a 73 25</text>
<polyline fill="none" stroke="#0058ad" points="1212,-81.5 1212,-110.5 "/>
<text text-anchor="middle" x="1481" y="-92.3" font-family="Times,serif" font-size="14.00" fill="#0058ad">r 73 [1 2 3 4 5 6 7 8 9 10 11 12 13 14 15 16 17 18 19 20 21 22 23 24 25]</text>
</g>
<!-- T1854 -->
<g id="node2" class="node">
<title>T1854</title>
<polygon fill="none" stroke="#0058ad" points="404,-0.5 404,-29.5 1014,-29.5 1014,-0.5 404,-0.5"/>
<text text-anchor="middle" x="439" y="-11.3" font-family="Times,serif" font-size="14.00" fill="#0058ad">a 74 18</text>
<polyline fill="none" stroke="#0058ad" points="474,-0.5 474,-29.5 "/>
<text text-anchor="middle" x="709" y="-11.3" font-family="Times,serif" font-size="14.00" fill="#0058ad">r 73 [1 2 3 4 5 6 7 8 9 10 11 12 13 14 15 16 17 18 19 20 21 22]</text>
<polyline fill="none" stroke="#0058ad" points="944,-0.5 944,-29.5 "/>
<text text-anchor="middle" x="979" y="-11.3" font-family="Times,serif" font-size="14.00" fill="#0058ad">a 74 19</text>
</g>
<!-- T1855&#45;&gt;T1854 -->
<g id="edge1" class="edge">
<title>T1855:f4&#45;&gt;T1854:f0</title>
<path fill="none" stroke="#5b00c0" d="M963,-81C963,149.45 454.74,-251.52 439.36,-40.18"/>
<polygon fill="#5b00c0" stroke="#5b00c0" points="442.85,-39.87 439,-30 435.85,-40.12 442.85,-39.87"/>
<text text-anchor="middle" x="969.5" y="-51.8" font-family="Times,serif" font-size="14.00" fill="#5b00c0">rw</text>
</g>
<!-- T1854&#45;&gt;T1855 -->
<g id="edge2" class="edge">
<title>T1854:f1&#45;&gt;T1855:f1</title>
<path fill="none" stroke="#5b00c0" d="M709,-30C709,-46.2 434.11,-46.36 418,-48 317.93,-58.2 194.75,17.67 186.44,-70.96"/>
<polygon fill="#5b00c0" stroke="#5b00c0" points="182.95,-70.86 186,-81 189.94,-71.16 182.95,-70.86"/>
<text text-anchor="middle" x="427.5" y="-51.8" font-family="Times,serif" font-size="14.00" fill="#5b00c0">rw</text>
</g>
</g>
</svg>
