<?xml version="1.0" encoding="UTF-8" standalone="no"?>
<!DOCTYPE svg PUBLIC "-//W3C//DTD SVG 1.1//EN"
 "http://www.w3.org/Graphics/SVG/1.1/DTD/svg11.dtd">
<!-- Generated by graphviz version 2.43.0 (0)
 -->
<!-- Title: a_graph Pages: 1 -->
<svg width="524pt" height="119pt"
 viewBox="0.00 0.00 523.50 119.00" xmlns="http://www.w3.org/2000/svg" xmlns:xlink="http://www.w3.org/1999/xlink">
<g id="graph0" class="graph" transform="scale(1 1) rotate(0) translate(4 115)">
<title>a_graph</title>
<polygon fill="white" stroke="transparent" points="-4,4 -4,-115 519.5,-115 519.5,4 -4,4"/>
<!-- T607 -->
<g id="node1" class="node">
<title>T607</title>
<polygon fill="none" stroke="#0058ad" points="147.5,-81.5 147.5,-110.5 515.5,-110.5 515.5,-81.5 147.5,-81.5"/>
<text text-anchor="middle" x="182.5" y="-92.3" font-family="Times,serif" font-size="14.00" fill="#0058ad">a 272 1</text>
<polyline fill="none" stroke="#0058ad" points="217.5,-81.5 217.5,-110.5 "/>
<text text-anchor="middle" x="257" y="-92.3" font-family="Times,serif" font-size="14.00" fill="#0058ad">r 271 [1]</text>
<polyline fill="none" stroke="#0058ad" points="296.5,-81.5 296.5,-110.5 "/>
<text text-anchor="middle" x="336" y="-92.3" font-family="Times,serif" font-size="14.00" fill="#0058ad">r 271 [1]</text>
<polyline fill="none" stroke="#0058ad" points="375.5,-81.5 375.5,-110.5 "/>
<text text-anchor="middle" x="410.5" y="-92.3" font-family="Times,serif" font-size="14.00" fill="#0058ad">a 273 1</text>
<polyline fill="none" stroke="#0058ad" points="445.5,-81.5 445.5,-110.5 "/>
<text text-anchor="middle" x="480.5" y="-92.3" font-family="Times,serif" font-size="14.00" fill="#0058ad">a 273 2</text>
</g>
<!-- T606 -->
<g id="node2" class="node">
<title>T606</title>
<polygon fill="none" stroke="#0058ad" points="0,-0.5 0,-29.5 429,-29.5 429,-0.5 0,-0.5"/>
<text text-anchor="middle" x="39.5" y="-11.3" font-family="Times,serif" font-size="14.00" fill="#0058ad">r 266 [1]</text>
<polyline fill="none" stroke="#0058ad" points="79,-0.5 79,-29.5 "/>
<text text-anchor="middle" x="114" y="-11.3" font-family="Times,serif" font-size="14.00" fill="#0058ad">a 266 2</text>
<polyline fill="none" stroke="#0058ad" points="149,-0.5 149,-29.5 "/>
<text text-anchor="middle" x="184" y="-11.3" font-family="Times,serif" font-size="14.00" fill="#0058ad">a 271 2</text>
<polyline fill="none" stroke="#0058ad" points="219,-0.5 219,-29.5 "/>
<text text-anchor="middle" x="254" y="-11.3" font-family="Times,serif" font-size="14.00" fill="#0058ad">r 272 []</text>
<polyline fill="none" stroke="#0058ad" points="289,-0.5 289,-29.5 "/>
<text text-anchor="middle" x="324" y="-11.3" font-family="Times,serif" font-size="14.00" fill="#0058ad">a 266 3</text>
<polyline fill="none" stroke="#0058ad" points="359,-0.5 359,-29.5 "/>
<text text-anchor="middle" x="394" y="-11.3" font-family="Times,serif" font-size="14.00" fill="#0058ad">r 272 []</text>
</g>
<!-- T607&#45;&gt;T606 -->
<g id="edge1" class="edge">
<title>T607:f1&#45;&gt;T606:f2</title>
<path fill="none" stroke="#5b00c0" d="M256.5,-81C256.5,-56.91 233.42,-61.55 213.5,-48 204.66,-41.99 193.8,-43.08 187.87,-39.3"/>
<polygon fill="#5b00c0" stroke="#5b00c0" points="190.92,-37.56 183.5,-30 184.58,-40.54 190.92,-37.56"/>
<text text-anchor="middle" x="256" y="-51.8" font-family="Times,serif" font-size="14.00" fill="#5b00c0">rw</text>
</g>
<!-- T606&#45;&gt;T607 -->
<g id="edge2" class="edge">
<title>T606:f3&#45;&gt;T607:f0</title>
<path fill="none" stroke="#5b00c0" d="M254.5,-30C254.5,-59.55 211.01,-26.73 190.5,-48 182.73,-56.06 182.08,-62.02 182.27,-70.73"/>
<polygon fill="#5b00c0" stroke="#5b00c0" points="178.78,-71.08 182.5,-81 185.78,-70.92 178.78,-71.08"/>
<text text-anchor="middle" x="200" y="-51.8" font-family="Times,serif" font-size="14.00" fill="#5b00c0">rw</text>
</g>
</g>
</svg>
