<?xml version="1.0" encoding="UTF-8" standalone="no"?>
<!DOCTYPE svg PUBLIC "-//W3C//DTD SVG 1.1//EN"
 "http://www.w3.org/Graphics/SVG/1.1/DTD/svg11.dtd">
<!-- Generated by graphviz version 2.43.0 (0)
 -->
<!-- Title: a_graph Pages: 1 -->
<svg width="820pt" height="119pt"
 viewBox="0.00 0.00 820.00 119.00" xmlns="http://www.w3.org/2000/svg" xmlns:xlink="http://www.w3.org/1999/xlink">
<g id="graph0" class="graph" transform="scale(1 1) rotate(0) translate(4 115)">
<title>a_graph</title>
<polygon fill="white" stroke="transparent" points="-4,4 -4,-115 816,-115 816,4 -4,4"/>
<!-- T1209 -->
<g id="node1" class="node">
<title>T1209</title>
<polygon fill="none" stroke="#0058ad" points="194,-81.5 194,-110.5 812,-110.5 812,-81.5 194,-81.5"/>
<text text-anchor="middle" x="229" y="-92.3" font-family="Times,serif" font-size="14.00" fill="#0058ad">a 529 1</text>
<polyline fill="none" stroke="#0058ad" points="264,-81.5 264,-110.5 "/>
<text text-anchor="middle" x="303.5" y="-92.3" font-family="Times,serif" font-size="14.00" fill="#0058ad">r 529 [1]</text>
<polyline fill="none" stroke="#0058ad" points="343,-81.5 343,-110.5 "/>
<text text-anchor="middle" x="382.5" y="-92.3" font-family="Times,serif" font-size="14.00" fill="#0058ad">r 527 [1]</text>
<polyline fill="none" stroke="#0058ad" points="422,-81.5 422,-110.5 "/>
<text text-anchor="middle" x="468" y="-92.3" font-family="Times,serif" font-size="14.00" fill="#0058ad">r 516 [1 2]</text>
<polyline fill="none" stroke="#0058ad" points="514,-81.5 514,-110.5 "/>
<text text-anchor="middle" x="553.5" y="-92.3" font-family="Times,serif" font-size="14.00" fill="#0058ad">r 529 [1]</text>
<polyline fill="none" stroke="#0058ad" points="593,-81.5 593,-110.5 "/>
<text text-anchor="middle" x="628" y="-92.3" font-family="Times,serif" font-size="14.00" fill="#0058ad">a 516 3</text>
<polyline fill="none" stroke="#0058ad" points="663,-81.5 663,-110.5 "/>
<text text-anchor="middle" x="698" y="-92.3" font-family="Times,serif" font-size="14.00" fill="#0058ad">a 518 2</text>
<polyline fill="none" stroke="#0058ad" points="733,-81.5 733,-110.5 "/>
<text text-anchor="middle" x="772.5" y="-92.3" font-family="Times,serif" font-size="14.00" fill="#0058ad">r 527 [1]</text>
</g>
<!-- T1208 -->
<g id="node2" class="node">
<title>T1208</title>
<polygon fill="none" stroke="#0058ad" points="0,-0.5 0,-29.5 618,-29.5 618,-0.5 0,-0.5"/>
<text text-anchor="middle" x="35" y="-11.3" font-family="Times,serif" font-size="14.00" fill="#0058ad">a 528 2</text>
<polyline fill="none" stroke="#0058ad" points="70,-0.5 70,-29.5 "/>
<text text-anchor="middle" x="105" y="-11.3" font-family="Times,serif" font-size="14.00" fill="#0058ad">a 528 3</text>
<polyline fill="none" stroke="#0058ad" points="140,-0.5 140,-29.5 "/>
<text text-anchor="middle" x="193" y="-11.3" font-family="Times,serif" font-size="14.00" fill="#0058ad">r 528 [1 2 3]</text>
<polyline fill="none" stroke="#0058ad" points="246,-0.5 246,-29.5 "/>
<text text-anchor="middle" x="281" y="-11.3" font-family="Times,serif" font-size="14.00" fill="#0058ad">r 529 []</text>
<polyline fill="none" stroke="#0058ad" points="316,-0.5 316,-29.5 "/>
<text text-anchor="middle" x="351" y="-11.3" font-family="Times,serif" font-size="14.00" fill="#0058ad">a 527 2</text>
<polyline fill="none" stroke="#0058ad" points="386,-0.5 386,-29.5 "/>
<text text-anchor="middle" x="432" y="-11.3" font-family="Times,serif" font-size="14.00" fill="#0058ad">r 527 [1 2]</text>
<polyline fill="none" stroke="#0058ad" points="478,-0.5 478,-29.5 "/>
<text text-anchor="middle" x="513" y="-11.3" font-family="Times,serif" font-size="14.00" fill="#0058ad">r 529 []</text>
<polyline fill="none" stroke="#0058ad" points="548,-0.5 548,-29.5 "/>
<text text-anchor="middle" x="583" y="-11.3" font-family="Times,serif" font-size="14.00" fill="#0058ad">a 526 2</text>
</g>
<!-- T1209&#45;&gt;T1208 -->
<g id="edge1" class="edge">
<title>T1209:f2&#45;&gt;T1208:f4</title>
<path fill="none" stroke="#5b00c0" d="M382,-81C382,-58.41 359.52,-56.55 352.85,-40.11"/>
<polygon fill="#5b00c0" stroke="#5b00c0" points="356.24,-39.21 351,-30 349.35,-40.47 356.24,-39.21"/>
<text text-anchor="middle" x="384.5" y="-51.8" font-family="Times,serif" font-size="14.00" fill="#5b00c0">rw</text>
</g>
<!-- T1208&#45;&gt;T1209 -->
<g id="edge2" class="edge">
<title>T1208:f3&#45;&gt;T1209:f0</title>
<path fill="none" stroke="#5b00c0" d="M281,-30C281,-58.45 240.83,-51.28 231.1,-71.1"/>
<polygon fill="#5b00c0" stroke="#5b00c0" points="227.66,-70.49 229,-81 234.5,-71.95 227.66,-70.49"/>
<text text-anchor="middle" x="281.5" y="-51.8" font-family="Times,serif" font-size="14.00" fill="#5b00c0">rw</text>
</g>
</g>
</svg>
