<?xml version="1.0" encoding="UTF-8" standalone="no"?>
<!DOCTYPE svg PUBLIC "-//W3C//DTD SVG 1.1//EN"
 "http://www.w3.org/Graphics/SVG/1.1/DTD/svg11.dtd">
<!-- Generated by graphviz version 2.43.0 (0)
 -->
<!-- Title: a_graph Pages: 1 -->
<svg width="2144pt" height="119pt"
 viewBox="0.00 0.00 2144.00 119.00" xmlns="http://www.w3.org/2000/svg" xmlns:xlink="http://www.w3.org/1999/xlink">
<g id="graph0" class="graph" transform="scale(1 1) rotate(0) translate(4 115)">
<title>a_graph</title>
<polygon fill="white" stroke="transparent" points="-4,4 -4,-115 2140,-115 2140,4 -4,4"/>
<!-- T98 -->
<g id="node1" class="node">
<title>T98</title>
<polygon fill="none" stroke="#0058ad" points="0,-81.5 0,-110.5 1701,-110.5 1701,-81.5 0,-81.5"/>
<text text-anchor="middle" x="208" y="-92.3" font-family="Times,serif" font-size="14.00" fill="#0058ad">r 0 [1 2 3 4 5 6 7 8 9 10 11 12 13 14 15 16 17 18 19 20]</text>
<polyline fill="none" stroke="#0058ad" points="416,-81.5 416,-110.5 "/>
<text text-anchor="middle" x="685" y="-92.3" font-family="Times,serif" font-size="14.00" fill="#0058ad">r 1 [1 2 3 4 5 6 7 9 10 11 12 13 14 15 16 17 18 19 20 21 22 23 24 25 26]</text>
<polyline fill="none" stroke="#0058ad" points="954,-81.5 954,-110.5 "/>
<text text-anchor="middle" x="984.5" y="-92.3" font-family="Times,serif" font-size="14.00" fill="#0058ad">a 3 32</text>
<polyline fill="none" stroke="#0058ad" points="1015,-81.5 1015,-110.5 "/>
<text text-anchor="middle" x="1358" y="-92.3" font-family="Times,serif" font-size="14.00" fill="#0058ad">r 3 [1 2 3 4 5 6 7 8 9 10 11 12 13 14 15 16 17 18 19 20 21 22 23 24 25 26 27 28 29 30 31 32]</text>
</g>
<!-- T99 -->
<g id="node2" class="node">
<title>T99</title>
<polygon fill="none" stroke="#0058ad" points="257,-0.5 257,-29.5 2136,-29.5 2136,-0.5 257,-0.5"/>
<text text-anchor="middle" x="589" y="-11.3" font-family="Times,serif" font-size="14.00" fill="#0058ad">r 3 [1 2 3 4 5 6 7 8 9 10 11 12 13 14 15 16 17 18 19 20 21 22 23 24 25 26 27 28 29 30 31]</text>
<polyline fill="none" stroke="#0058ad" points="921,-0.5 921,-29.5 "/>
<text text-anchor="middle" x="951.5" y="-11.3" font-family="Times,serif" font-size="14.00" fill="#0058ad">a 1 27</text>
<polyline fill="none" stroke="#0058ad" points="982,-0.5 982,-29.5 "/>
<text text-anchor="middle" x="1008" y="-11.3" font-family="Times,serif" font-size="14.00" fill="#0058ad">a 4 1</text>
<polyline fill="none" stroke="#0058ad" points="1034,-0.5 1034,-29.5 "/>
<text text-anchor="middle" x="1060" y="-11.3" font-family="Times,serif" font-size="14.00" fill="#0058ad">a 4 2</text>
<polyline fill="none" stroke="#0058ad" points="1086,-0.5 1086,-29.5 "/>
<text text-anchor="middle" x="1366" y="-11.3" font-family="Times,serif" font-size="14.00" fill="#0058ad">r 1 [1 2 3 4 5 6 7 9 10 11 12 13 14 15 16 17 18 19 20 21 22 23 24 25 26 27]</text>
<polyline fill="none" stroke="#0058ad" points="1646,-0.5 1646,-29.5 "/>
<text text-anchor="middle" x="1683" y="-11.3" font-family="Times,serif" font-size="14.00" fill="#0058ad">r 4 [1 2]</text>
<polyline fill="none" stroke="#0058ad" points="1720,-0.5 1720,-29.5 "/>
<text text-anchor="middle" x="1928" y="-11.3" font-family="Times,serif" font-size="14.00" fill="#0058ad">r 0 [1 2 3 4 5 6 7 8 9 10 11 12 13 14 15 16 17 18 19 20]</text>
</g>
<!-- T98&#45;&gt;T99 -->
<g id="edge1" class="edge">
<title>T98:f1&#45;&gt;T99:f1</title>
<path fill="none" stroke="#5b00c0" d="M684.5,-81C684.5,-67.55 896.29,-49.58 942.62,-35.14"/>
<polygon fill="#5b00c0" stroke="#5b00c0" points="944.6,-38.04 951.5,-30 941.09,-31.98 944.6,-38.04"/>
<text text-anchor="middle" x="875" y="-51.8" font-family="Times,serif" font-size="14.00" fill="#5b00c0">rw</text>
</g>
<!-- T99&#45;&gt;T98 -->
<g id="edge2" class="edge">
<title>T99:f0&#45;&gt;T98:f2</title>
<path fill="none" stroke="#5b00c0" d="M588.5,-30C588.5,-46.7 872.12,-44.76 888.5,-48 928.95,-56.01 975.66,-39.25 983.39,-70.77"/>
<polygon fill="#5b00c0" stroke="#5b00c0" points="979.94,-71.44 984.5,-81 986.9,-70.68 979.94,-71.44"/>
<text text-anchor="middle" x="989" y="-51.8" font-family="Times,serif" font-size="14.00" fill="#5b00c0">rw</text>
</g>
</g>
</svg>
