<?xml version="1.0" encoding="UTF-8" standalone="no"?>
<!DOCTYPE svg PUBLIC "-//W3C//DTD SVG 1.1//EN"
 "http://www.w3.org/Graphics/SVG/1.1/DTD/svg11.dtd">
<!-- Generated by graphviz version 2.43.0 (0)
 -->
<!-- Title: a_graph Pages: 1 -->
<svg width="687pt" height="119pt"
 viewBox="0.00 0.00 687.00 119.00" xmlns="http://www.w3.org/2000/svg" xmlns:xlink="http://www.w3.org/1999/xlink">
<g id="graph0" class="graph" transform="scale(1 1) rotate(0) translate(4 115)">
<title>a_graph</title>
<polygon fill="white" stroke="transparent" points="-4,4 -4,-115 683,-115 683,4 -4,4"/>
<!-- T1140 -->
<g id="node1" class="node">
<title>T1140</title>
<polygon fill="none" stroke="#0058ad" points="7.5,-81.5 7.5,-110.5 347.5,-110.5 347.5,-81.5 7.5,-81.5"/>
<text text-anchor="middle" x="42.5" y="-92.3" font-family="Times,serif" font-size="14.00" fill="#0058ad">a 42 10</text>
<polyline fill="none" stroke="#0058ad" points="77.5,-81.5 77.5,-110.5 "/>
<text text-anchor="middle" x="177.5" y="-92.3" font-family="Times,serif" font-size="14.00" fill="#0058ad">r 42 [1 2 3 4 5 6 7 8 9 10]</text>
<polyline fill="none" stroke="#0058ad" points="277.5,-81.5 277.5,-110.5 "/>
<text text-anchor="middle" x="312.5" y="-92.3" font-family="Times,serif" font-size="14.00" fill="#0058ad">r 43 [1]</text>
</g>
<!-- T1141 -->
<g id="node2" class="node">
<title>T1141</title>
<polygon fill="none" stroke="#0058ad" points="0,-0.5 0,-29.5 679,-29.5 679,-0.5 0,-0.5"/>
<text text-anchor="middle" x="30.5" y="-11.3" font-family="Times,serif" font-size="14.00" fill="#0058ad">a 43 2</text>
<polyline fill="none" stroke="#0058ad" points="61,-0.5 61,-29.5 "/>
<text text-anchor="middle" x="91.5" y="-11.3" font-family="Times,serif" font-size="14.00" fill="#0058ad">a 43 3</text>
<polyline fill="none" stroke="#0058ad" points="122,-0.5 122,-29.5 "/>
<text text-anchor="middle" x="211" y="-11.3" font-family="Times,serif" font-size="14.00" fill="#0058ad">r 42 [1 2 3 4 5 6 7 8 9]</text>
<polyline fill="none" stroke="#0058ad" points="300,-0.5 300,-29.5 "/>
<text text-anchor="middle" x="330.5" y="-11.3" font-family="Times,serif" font-size="14.00" fill="#0058ad">a 43 4</text>
<polyline fill="none" stroke="#0058ad" points="361,-0.5 361,-29.5 "/>
<text text-anchor="middle" x="396" y="-11.3" font-family="Times,serif" font-size="14.00" fill="#0058ad">a 37 31</text>
<polyline fill="none" stroke="#0058ad" points="431,-0.5 431,-29.5 "/>
<text text-anchor="middle" x="520" y="-11.3" font-family="Times,serif" font-size="14.00" fill="#0058ad">r 42 [1 2 3 4 5 6 7 8 9]</text>
<polyline fill="none" stroke="#0058ad" points="609,-0.5 609,-29.5 "/>
<text text-anchor="middle" x="644" y="-11.3" font-family="Times,serif" font-size="14.00" fill="#0058ad">a 37 32</text>
</g>
<!-- T1140&#45;&gt;T1141 -->
<g id="edge1" class="edge">
<title>T1140:f2&#45;&gt;T1141:f0</title>
<path fill="none" stroke="#5b00c0" d="M312.5,-81C312.5,-73.91 88.81,-45.31 39.88,-33.51"/>
<polygon fill="#5b00c0" stroke="#5b00c0" points="41.09,-30.23 30.5,-30 38.64,-36.79 41.09,-30.23"/>
<text text-anchor="middle" x="222" y="-51.8" font-family="Times,serif" font-size="14.00" fill="#5b00c0">rw</text>
</g>
<!-- T1141&#45;&gt;T1140 -->
<g id="edge2" class="edge">
<title>T1141:f2&#45;&gt;T1140:f0</title>
<path fill="none" stroke="#5b00c0" d="M210.5,-30C210.5,-53.45 128.74,-40.54 106.5,-48 79.83,-56.95 50.6,-50.94 43.92,-71.08"/>
<polygon fill="#5b00c0" stroke="#5b00c0" points="40.45,-70.61 42.5,-81 47.38,-71.59 40.45,-70.61"/>
<text text-anchor="middle" x="116" y="-51.8" font-family="Times,serif" font-size="14.00" fill="#5b00c0">rw</text>
</g>
</g>
</svg>
