<?xml version="1.0" encoding="UTF-8" standalone="no"?>
<!DOCTYPE svg PUBLIC "-//W3C//DTD SVG 1.1//EN"
 "http://www.w3.org/Graphics/SVG/1.1/DTD/svg11.dtd">
<!-- Generated by graphviz version 2.43.0 (0)
 -->
<!-- Title: a_graph Pages: 1 -->
<svg width="640pt" height="119pt"
 viewBox="0.00 0.00 640.00 119.00" xmlns="http://www.w3.org/2000/svg" xmlns:xlink="http://www.w3.org/1999/xlink">
<g id="graph0" class="graph" transform="scale(1 1) rotate(0) translate(4 115)">
<title>a_graph</title>
<polygon fill="white" stroke="transparent" points="-4,4 -4,-115 636,-115 636,4 -4,4"/>
<!-- T303 -->
<g id="node1" class="node">
<title>T303</title>
<polygon fill="none" stroke="#0058ad" points="51,-81.5 51,-110.5 437,-110.5 437,-81.5 51,-81.5"/>
<text text-anchor="middle" x="86" y="-92.3" font-family="Times,serif" font-size="14.00" fill="#0058ad">a 118 2</text>
<polyline fill="none" stroke="#0058ad" points="121,-81.5 121,-110.5 "/>
<text text-anchor="middle" x="156" y="-92.3" font-family="Times,serif" font-size="14.00" fill="#0058ad">a 118 3</text>
<polyline fill="none" stroke="#0058ad" points="191,-81.5 191,-110.5 "/>
<text text-anchor="middle" x="226" y="-92.3" font-family="Times,serif" font-size="14.00" fill="#0058ad">a 116 2</text>
<polyline fill="none" stroke="#0058ad" points="261,-81.5 261,-110.5 "/>
<text text-anchor="middle" x="296" y="-92.3" font-family="Times,serif" font-size="14.00" fill="#0058ad">r 120 []</text>
<polyline fill="none" stroke="#0058ad" points="331,-81.5 331,-110.5 "/>
<text text-anchor="middle" x="384" y="-92.3" font-family="Times,serif" font-size="14.00" fill="#0058ad">r 118 [1 2 3]</text>
</g>
<!-- T302 -->
<g id="node2" class="node">
<title>T302</title>
<polygon fill="none" stroke="#0058ad" points="0,-0.5 0,-29.5 632,-29.5 632,-0.5 0,-0.5"/>
<text text-anchor="middle" x="35" y="-11.3" font-family="Times,serif" font-size="14.00" fill="#0058ad">a 120 1</text>
<polyline fill="none" stroke="#0058ad" points="70,-0.5 70,-29.5 "/>
<text text-anchor="middle" x="109.5" y="-11.3" font-family="Times,serif" font-size="14.00" fill="#0058ad">r 120 [1]</text>
<polyline fill="none" stroke="#0058ad" points="149,-0.5 149,-29.5 "/>
<text text-anchor="middle" x="188.5" y="-11.3" font-family="Times,serif" font-size="14.00" fill="#0058ad">r 120 [1]</text>
<polyline fill="none" stroke="#0058ad" points="228,-0.5 228,-29.5 "/>
<text text-anchor="middle" x="267.5" y="-11.3" font-family="Times,serif" font-size="14.00" fill="#0058ad">r 116 [1]</text>
<polyline fill="none" stroke="#0058ad" points="307,-0.5 307,-29.5 "/>
<text text-anchor="middle" x="346.5" y="-11.3" font-family="Times,serif" font-size="14.00" fill="#0058ad">r 118 [1]</text>
<polyline fill="none" stroke="#0058ad" points="386,-0.5 386,-29.5 "/>
<text text-anchor="middle" x="421" y="-11.3" font-family="Times,serif" font-size="14.00" fill="#0058ad">a 120 2</text>
<polyline fill="none" stroke="#0058ad" points="456,-0.5 456,-29.5 "/>
<text text-anchor="middle" x="491" y="-11.3" font-family="Times,serif" font-size="14.00" fill="#0058ad">a 120 3</text>
<polyline fill="none" stroke="#0058ad" points="526,-0.5 526,-29.5 "/>
<text text-anchor="middle" x="579" y="-11.3" font-family="Times,serif" font-size="14.00" fill="#0058ad">r 120 [1 2 3]</text>
</g>
<!-- T303&#45;&gt;T302 -->
<g id="edge1" class="edge">
<title>T303:f3&#45;&gt;T302:f0</title>
<path fill="none" stroke="#5b00c0" d="M296,-81C296,-14.91 215.92,-60.41 151,-48 128.98,-43.79 59.14,-52.79 39.93,-38.85"/>
<polygon fill="#5b00c0" stroke="#5b00c0" points="42.93,-37.03 35,-30 36.81,-40.44 42.93,-37.03"/>
<text text-anchor="middle" x="301.5" y="-51.8" font-family="Times,serif" font-size="14.00" fill="#5b00c0">rw</text>
</g>
<!-- T302&#45;&gt;T303 -->
<g id="edge2" class="edge">
<title>T302:f4&#45;&gt;T303:f0</title>
<path fill="none" stroke="#5b00c0" d="M347,-30C347,-54.42 150.73,-39.08 128,-48 109.53,-55.25 92.59,-56.85 87.53,-71.05"/>
<polygon fill="#5b00c0" stroke="#5b00c0" points="84.06,-70.58 86,-81 90.98,-71.65 84.06,-70.58"/>
<text text-anchor="middle" x="137.5" y="-51.8" font-family="Times,serif" font-size="14.00" fill="#5b00c0">rw</text>
</g>
</g>
</svg>
