<?xml version="1.0" encoding="UTF-8" standalone="no"?>
<!DOCTYPE svg PUBLIC "-//W3C//DTD SVG 1.1//EN"
 "http://www.w3.org/Graphics/SVG/1.1/DTD/svg11.dtd">
<!-- Generated by graphviz version 2.43.0 (0)
 -->
<!-- Title: a_graph Pages: 1 -->
<svg width="529pt" height="119pt"
 viewBox="0.00 0.00 529.00 119.00" xmlns="http://www.w3.org/2000/svg" xmlns:xlink="http://www.w3.org/1999/xlink">
<g id="graph0" class="graph" transform="scale(1 1) rotate(0) translate(4 115)">
<title>a_graph</title>
<polygon fill="white" stroke="transparent" points="-4,4 -4,-115 525,-115 525,4 -4,4"/>
<!-- T1444 -->
<g id="node1" class="node">
<title>T1444</title>
<polygon fill="none" stroke="#0058ad" points="193.5,-81.5 193.5,-110.5 495.5,-110.5 495.5,-81.5 193.5,-81.5"/>
<text text-anchor="middle" x="228.5" y="-92.3" font-family="Times,serif" font-size="14.00" fill="#0058ad">a 604 2</text>
<polyline fill="none" stroke="#0058ad" points="263.5,-81.5 263.5,-110.5 "/>
<text text-anchor="middle" x="309.5" y="-92.3" font-family="Times,serif" font-size="14.00" fill="#0058ad">r 602 [1 2]</text>
<polyline fill="none" stroke="#0058ad" points="355.5,-81.5 355.5,-110.5 "/>
<text text-anchor="middle" x="390.5" y="-92.3" font-family="Times,serif" font-size="14.00" fill="#0058ad">a 604 3</text>
<polyline fill="none" stroke="#0058ad" points="425.5,-81.5 425.5,-110.5 "/>
<text text-anchor="middle" x="460.5" y="-92.3" font-family="Times,serif" font-size="14.00" fill="#0058ad">a 603 1</text>
</g>
<!-- T1445 -->
<g id="node2" class="node">
<title>T1445</title>
<polygon fill="none" stroke="#0058ad" points="0,-0.5 0,-29.5 521,-29.5 521,-0.5 0,-0.5"/>
<text text-anchor="middle" x="35" y="-11.3" font-family="Times,serif" font-size="14.00" fill="#0058ad">r 603 []</text>
<polyline fill="none" stroke="#0058ad" points="70,-0.5 70,-29.5 "/>
<text text-anchor="middle" x="116" y="-11.3" font-family="Times,serif" font-size="14.00" fill="#0058ad">r 602 [1 2]</text>
<polyline fill="none" stroke="#0058ad" points="162,-0.5 162,-29.5 "/>
<text text-anchor="middle" x="197" y="-11.3" font-family="Times,serif" font-size="14.00" fill="#0058ad">a 602 3</text>
<polyline fill="none" stroke="#0058ad" points="232,-0.5 232,-29.5 "/>
<text text-anchor="middle" x="267" y="-11.3" font-family="Times,serif" font-size="14.00" fill="#0058ad">r 605 []</text>
<polyline fill="none" stroke="#0058ad" points="302,-0.5 302,-29.5 "/>
<text text-anchor="middle" x="341.5" y="-11.3" font-family="Times,serif" font-size="14.00" fill="#0058ad">r 604 [1]</text>
<polyline fill="none" stroke="#0058ad" points="381,-0.5 381,-29.5 "/>
<text text-anchor="middle" x="416" y="-11.3" font-family="Times,serif" font-size="14.00" fill="#0058ad">r 603 []</text>
<polyline fill="none" stroke="#0058ad" points="451,-0.5 451,-29.5 "/>
<text text-anchor="middle" x="486" y="-11.3" font-family="Times,serif" font-size="14.00" fill="#0058ad">a 605 1</text>
</g>
<!-- T1444&#45;&gt;T1445 -->
<g id="edge1" class="edge">
<title>T1444:f1&#45;&gt;T1445:f2</title>
<path fill="none" stroke="#5b00c0" d="M309.5,-81C309.5,-55.11 284.96,-58.94 261.5,-48 238.36,-37.21 207.5,-53.48 198.84,-40.04"/>
<polygon fill="#5b00c0" stroke="#5b00c0" points="202.18,-38.94 196.5,-30 195.36,-40.53 202.18,-38.94"/>
<text text-anchor="middle" x="311" y="-51.8" font-family="Times,serif" font-size="14.00" fill="#5b00c0">rw</text>
</g>
<!-- T1445&#45;&gt;T1444 -->
<g id="edge2" class="edge">
<title>T1445:f4&#45;&gt;T1444:f0</title>
<path fill="none" stroke="#5b00c0" d="M341.5,-30C341.5,-53.24 255.9,-32.6 238.5,-48 229.9,-55.62 228.57,-61.75 228.45,-70.81"/>
<polygon fill="#5b00c0" stroke="#5b00c0" points="224.95,-71.02 228.5,-81 231.95,-70.98 224.95,-71.02"/>
<text text-anchor="middle" x="248" y="-51.8" font-family="Times,serif" font-size="14.00" fill="#5b00c0">rw</text>
</g>
</g>
</svg>
