<?xml version="1.0" encoding="UTF-8" standalone="no"?>
<!DOCTYPE svg PUBLIC "-//W3C//DTD SVG 1.1//EN"
 "http://www.w3.org/Graphics/SVG/1.1/DTD/svg11.dtd">
<!-- Generated by graphviz version 2.43.0 (0)
 -->
<!-- Title: a_graph Pages: 1 -->
<svg width="701pt" height="119pt"
 viewBox="0.00 0.00 701.00 119.00" xmlns="http://www.w3.org/2000/svg" xmlns:xlink="http://www.w3.org/1999/xlink">
<g id="graph0" class="graph" transform="scale(1 1) rotate(0) translate(4 115)">
<title>a_graph</title>
<polygon fill="white" stroke="transparent" points="-4,4 -4,-115 697,-115 697,4 -4,4"/>
<!-- T2957 -->
<g id="node1" class="node">
<title>T2957</title>
<polygon fill="none" stroke="#0058ad" points="324,-81.5 324,-110.5 693,-110.5 693,-81.5 324,-81.5"/>
<text text-anchor="middle" x="363.5" y="-92.3" font-family="Times,serif" font-size="14.00" fill="#0058ad">a 1233 1</text>
<polyline fill="none" stroke="#0058ad" points="403,-81.5 403,-110.5 "/>
<text text-anchor="middle" x="447" y="-92.3" font-family="Times,serif" font-size="14.00" fill="#0058ad">r 1233 [1]</text>
<polyline fill="none" stroke="#0058ad" points="491,-81.5 491,-110.5 "/>
<text text-anchor="middle" x="541.5" y="-92.3" font-family="Times,serif" font-size="14.00" fill="#0058ad">r 1232 [1 2]</text>
<polyline fill="none" stroke="#0058ad" points="592,-81.5 592,-110.5 "/>
<text text-anchor="middle" x="642.5" y="-92.3" font-family="Times,serif" font-size="14.00" fill="#0058ad">r 1232 [1 2]</text>
</g>
<!-- T2956 -->
<g id="node2" class="node">
<title>T2956</title>
<polygon fill="none" stroke="#0058ad" points="0,-0.5 0,-29.5 647,-29.5 647,-0.5 0,-0.5"/>
<text text-anchor="middle" x="50.5" y="-11.3" font-family="Times,serif" font-size="14.00" fill="#0058ad">r 1231 [1 2]</text>
<polyline fill="none" stroke="#0058ad" points="101,-0.5 101,-29.5 "/>
<text text-anchor="middle" x="140.5" y="-11.3" font-family="Times,serif" font-size="14.00" fill="#0058ad">a 1226 3</text>
<polyline fill="none" stroke="#0058ad" points="180,-0.5 180,-29.5 "/>
<text text-anchor="middle" x="219.5" y="-11.3" font-family="Times,serif" font-size="14.00" fill="#0058ad">a 1231 3</text>
<polyline fill="none" stroke="#0058ad" points="259,-0.5 259,-29.5 "/>
<text text-anchor="middle" x="298.5" y="-11.3" font-family="Times,serif" font-size="14.00" fill="#0058ad">a 1232 3</text>
<polyline fill="none" stroke="#0058ad" points="338,-0.5 338,-29.5 "/>
<text text-anchor="middle" x="395.5" y="-11.3" font-family="Times,serif" font-size="14.00" fill="#0058ad">r 1231 [1 2 3]</text>
<polyline fill="none" stroke="#0058ad" points="453,-0.5 453,-29.5 "/>
<text text-anchor="middle" x="510.5" y="-11.3" font-family="Times,serif" font-size="14.00" fill="#0058ad">r 1232 [1 2 3]</text>
<polyline fill="none" stroke="#0058ad" points="568,-0.5 568,-29.5 "/>
<text text-anchor="middle" x="607.5" y="-11.3" font-family="Times,serif" font-size="14.00" fill="#0058ad">r 1233 []</text>
</g>
<!-- T2957&#45;&gt;T2956 -->
<g id="edge1" class="edge">
<title>T2957:f2&#45;&gt;T2956:f3</title>
<path fill="none" stroke="#5b00c0" d="M541.5,-81C541.5,-25.26 475.06,-59.42 420.5,-48 397.34,-43.15 323.25,-53.68 303.42,-39.02"/>
<polygon fill="#5b00c0" stroke="#5b00c0" points="306.36,-37.1 298.5,-30 300.21,-40.46 306.36,-37.1"/>
<text text-anchor="middle" x="547" y="-51.8" font-family="Times,serif" font-size="14.00" fill="#5b00c0">rw</text>
</g>
<!-- T2956&#45;&gt;T2957 -->
<g id="edge2" class="edge">
<title>T2956:f6&#45;&gt;T2957:f0</title>
<path fill="none" stroke="#5b00c0" d="M607.5,-30C607.5,-53.42 418.81,-38.28 397.5,-48 381.93,-55.1 369.22,-58.55 365,-70.88"/>
<polygon fill="#5b00c0" stroke="#5b00c0" points="361.5,-70.6 363.5,-81 368.43,-71.62 361.5,-70.6"/>
<text text-anchor="middle" x="407" y="-51.8" font-family="Times,serif" font-size="14.00" fill="#5b00c0">rw</text>
</g>
</g>
</svg>
