<?xml version="1.0" encoding="UTF-8" standalone="no"?>
<!DOCTYPE svg PUBLIC "-//W3C//DTD SVG 1.1//EN"
 "http://www.w3.org/Graphics/SVG/1.1/DTD/svg11.dtd">
<!-- Generated by graphviz version 2.43.0 (0)
 -->
<!-- Title: a_graph Pages: 1 -->
<svg width="788pt" height="119pt"
 viewBox="0.00 0.00 788.00 119.00" xmlns="http://www.w3.org/2000/svg" xmlns:xlink="http://www.w3.org/1999/xlink">
<g id="graph0" class="graph" transform="scale(1 1) rotate(0) translate(4 115)">
<title>a_graph</title>
<polygon fill="white" stroke="transparent" points="-4,4 -4,-115 784,-115 784,4 -4,4"/>
<!-- T2461 -->
<g id="node1" class="node">
<title>T2461</title>
<polygon fill="none" stroke="#0058ad" points="98,-81.5 98,-110.5 732,-110.5 732,-81.5 98,-81.5"/>
<text text-anchor="middle" x="142" y="-92.3" font-family="Times,serif" font-size="14.00" fill="#0058ad">r 1030 [1]</text>
<polyline fill="none" stroke="#0058ad" points="186,-81.5 186,-110.5 "/>
<text text-anchor="middle" x="243.5" y="-92.3" font-family="Times,serif" font-size="14.00" fill="#0058ad">r 1026 [1 2 3]</text>
<polyline fill="none" stroke="#0058ad" points="301,-81.5 301,-110.5 "/>
<text text-anchor="middle" x="358.5" y="-92.3" font-family="Times,serif" font-size="14.00" fill="#0058ad">r 1026 [1 2 3]</text>
<polyline fill="none" stroke="#0058ad" points="416,-81.5 416,-110.5 "/>
<text text-anchor="middle" x="455.5" y="-92.3" font-family="Times,serif" font-size="14.00" fill="#0058ad">a 1020 2</text>
<polyline fill="none" stroke="#0058ad" points="495,-81.5 495,-110.5 "/>
<text text-anchor="middle" x="534.5" y="-92.3" font-family="Times,serif" font-size="14.00" fill="#0058ad">r 1032 []</text>
<polyline fill="none" stroke="#0058ad" points="574,-81.5 574,-110.5 "/>
<text text-anchor="middle" x="613.5" y="-92.3" font-family="Times,serif" font-size="14.00" fill="#0058ad">r 1032 []</text>
<polyline fill="none" stroke="#0058ad" points="653,-81.5 653,-110.5 "/>
<text text-anchor="middle" x="692.5" y="-92.3" font-family="Times,serif" font-size="14.00" fill="#0058ad">a 1031 1</text>
</g>
<!-- T2460 -->
<g id="node2" class="node">
<title>T2460</title>
<polygon fill="none" stroke="#0058ad" points="0,-0.5 0,-29.5 780,-29.5 780,-0.5 0,-0.5"/>
<text text-anchor="middle" x="44" y="-11.3" font-family="Times,serif" font-size="14.00" fill="#0058ad">r 1030 [1]</text>
<polyline fill="none" stroke="#0058ad" points="88,-0.5 88,-29.5 "/>
<text text-anchor="middle" x="132" y="-11.3" font-family="Times,serif" font-size="14.00" fill="#0058ad">r 1020 [1]</text>
<polyline fill="none" stroke="#0058ad" points="176,-0.5 176,-29.5 "/>
<text text-anchor="middle" x="233.5" y="-11.3" font-family="Times,serif" font-size="14.00" fill="#0058ad">r 1026 [1 2 3]</text>
<polyline fill="none" stroke="#0058ad" points="291,-0.5 291,-29.5 "/>
<text text-anchor="middle" x="330.5" y="-11.3" font-family="Times,serif" font-size="14.00" fill="#0058ad">a 1030 2</text>
<polyline fill="none" stroke="#0058ad" points="370,-0.5 370,-29.5 "/>
<text text-anchor="middle" x="420.5" y="-11.3" font-family="Times,serif" font-size="14.00" fill="#0058ad">r 1030 [1 2]</text>
<polyline fill="none" stroke="#0058ad" points="471,-0.5 471,-29.5 "/>
<text text-anchor="middle" x="510.5" y="-11.3" font-family="Times,serif" font-size="14.00" fill="#0058ad">a 1030 3</text>
<polyline fill="none" stroke="#0058ad" points="550,-0.5 550,-29.5 "/>
<text text-anchor="middle" x="607.5" y="-11.3" font-family="Times,serif" font-size="14.00" fill="#0058ad">r 1026 [1 2 3]</text>
<polyline fill="none" stroke="#0058ad" points="665,-0.5 665,-29.5 "/>
<text text-anchor="middle" x="722.5" y="-11.3" font-family="Times,serif" font-size="14.00" fill="#0058ad">r 1030 [1 2 3]</text>
</g>
<!-- T2461&#45;&gt;T2460 -->
<g id="edge1" class="edge">
<title>T2461:f0&#45;&gt;T2460:f3</title>
<path fill="none" stroke="#5b00c0" d="M142,-81C142,-71.59 284.02,-48.19 321.18,-35.12"/>
<polygon fill="#5b00c0" stroke="#5b00c0" points="323.11,-38.05 330,-30 319.59,-31.99 323.11,-38.05"/>
<text text-anchor="middle" x="279.5" y="-51.8" font-family="Times,serif" font-size="14.00" fill="#5b00c0">rw</text>
</g>
<!-- T2460&#45;&gt;T2461 -->
<g id="edge2" class="edge">
<title>T2460:f1&#45;&gt;T2461:f3</title>
<path fill="none" stroke="#5b00c0" d="M132,-30C132,-48 275.22,-45.21 293,-48 362.31,-58.87 446.91,-12.24 455.32,-70.69"/>
<polygon fill="#5b00c0" stroke="#5b00c0" points="451.85,-71.25 456,-81 458.83,-70.79 451.85,-71.25"/>
<text text-anchor="middle" x="462.5" y="-51.8" font-family="Times,serif" font-size="14.00" fill="#5b00c0">rw</text>
</g>
</g>
</svg>
