<?xml version="1.0" encoding="UTF-8" standalone="no"?>
<!DOCTYPE svg PUBLIC "-//W3C//DTD SVG 1.1//EN"
 "http://www.w3.org/Graphics/SVG/1.1/DTD/svg11.dtd">
<!-- Generated by graphviz version 2.43.0 (0)
 -->
<!-- Title: a_graph Pages: 1 -->
<svg width="1229pt" height="119pt"
 viewBox="0.00 0.00 1229.00 119.00" xmlns="http://www.w3.org/2000/svg" xmlns:xlink="http://www.w3.org/1999/xlink">
<g id="graph0" class="graph" transform="scale(1 1) rotate(0) translate(4 115)">
<title>a_graph</title>
<polygon fill="white" stroke="transparent" points="-4,4 -4,-115 1225,-115 1225,4 -4,4"/>
<!-- T2525 -->
<g id="node1" class="node">
<title>T2525</title>
<polygon fill="none" stroke="#0058ad" points="0,-81.5 0,-110.5 1157,-110.5 1157,-81.5 0,-81.5"/>
<text text-anchor="middle" x="62" y="-92.3" font-family="Times,serif" font-size="14.00" fill="#0058ad">r 97 [1 2 3 4 5]</text>
<polyline fill="none" stroke="#0058ad" points="124,-81.5 124,-110.5 "/>
<text text-anchor="middle" x="359" y="-92.3" font-family="Times,serif" font-size="14.00" fill="#0058ad">r 94 [1 2 3 4 5 6 7 8 9 10 11 12 13 14 15 16 17 18 19 20 21 22]</text>
<polyline fill="none" stroke="#0058ad" points="594,-81.5 594,-110.5 "/>
<text text-anchor="middle" x="629" y="-92.3" font-family="Times,serif" font-size="14.00" fill="#0058ad">a 96 23</text>
<polyline fill="none" stroke="#0058ad" points="664,-81.5 664,-110.5 "/>
<text text-anchor="middle" x="910.5" y="-92.3" font-family="Times,serif" font-size="14.00" fill="#0058ad">r 96 [1 2 3 4 5 6 7 8 9 10 11 12 13 14 15 16 17 18 19 20 21 22 23]</text>
</g>
<!-- T2524 -->
<g id="node2" class="node">
<title>T2524</title>
<polygon fill="none" stroke="#0058ad" points="220,-0.5 220,-29.5 1221,-29.5 1221,-0.5 220,-0.5"/>
<text text-anchor="middle" x="250.5" y="-11.3" font-family="Times,serif" font-size="14.00" fill="#0058ad">a 97 6</text>
<polyline fill="none" stroke="#0058ad" points="281,-0.5 281,-29.5 "/>
<text text-anchor="middle" x="516" y="-11.3" font-family="Times,serif" font-size="14.00" fill="#0058ad">r 96 [1 2 3 4 5 6 7 8 9 10 11 12 13 14 15 16 17 18 19 20 21 22]</text>
<polyline fill="none" stroke="#0058ad" points="751,-0.5 751,-29.5 "/>
<text text-anchor="middle" x="986" y="-11.3" font-family="Times,serif" font-size="14.00" fill="#0058ad">r 94 [1 2 3 4 5 6 7 8 9 10 11 12 13 14 15 16 17 18 19 20 21 22]</text>
</g>
<!-- T2525&#45;&gt;T2524 -->
<g id="edge1" class="edge">
<title>T2525:f0&#45;&gt;T2524:f0</title>
<path fill="none" stroke="#5b00c0" d="M61.5,-81C61.5,-46.11 162.76,-19.46 208.24,-15.51"/>
<polygon fill="#5b00c0" stroke="#5b00c0" points="208.68,-18.99 218.5,-15 208.34,-12 208.68,-18.99"/>
<text text-anchor="middle" x="102" y="-51.8" font-family="Times,serif" font-size="14.00" fill="#5b00c0">rw</text>
</g>
<!-- T2524&#45;&gt;T2525 -->
<g id="edge2" class="edge">
<title>T2524:f1&#45;&gt;T2525:f2</title>
<path fill="none" stroke="#5b00c0" d="M515.5,-30C515.5,-81.6 614.03,-33.36 627.89,-70.92"/>
<polygon fill="#5b00c0" stroke="#5b00c0" points="624.46,-71.68 629.5,-81 631.38,-70.57 624.46,-71.68"/>
<text text-anchor="middle" x="631" y="-51.8" font-family="Times,serif" font-size="14.00" fill="#5b00c0">rw</text>
</g>
</g>
</svg>
