<?xml version="1.0" encoding="UTF-8" standalone="no"?>
<!DOCTYPE svg PUBLIC "-//W3C//DTD SVG 1.1//EN"
 "http://www.w3.org/Graphics/SVG/1.1/DTD/svg11.dtd">
<!-- Generated by graphviz version 2.43.0 (0)
 -->
<!-- Title: a_graph Pages: 1 -->
<svg width="1655pt" height="200pt"
 viewBox="0.00 0.00 1654.50 200.00" xmlns="http://www.w3.org/2000/svg" xmlns:xlink="http://www.w3.org/1999/xlink">
<g id="graph0" class="graph" transform="scale(1 1) rotate(0) translate(4 196)">
<title>a_graph</title>
<polygon fill="white" stroke="transparent" points="-4,4 -4,-196 1650.5,-196 1650.5,4 -4,4"/>
<!-- T2644 -->
<g id="node1" class="node">
<title>T2644</title>
<polygon fill="none" stroke="#0058ad" points="263,-162.5 263,-191.5 700,-191.5 700,-162.5 263,-162.5"/>
<text text-anchor="middle" x="401.5" y="-173.3" font-family="Times,serif" font-size="14.00" fill="#0058ad">r 102 [1 2 3 4 5 6 7 8 9 10 11 12 13]</text>
<polyline fill="none" stroke="#0058ad" points="540,-162.5 540,-191.5 "/>
<text text-anchor="middle" x="620" y="-173.3" font-family="Times,serif" font-size="14.00" fill="#0058ad">r 101 [1 2 3 4 5 6 7]</text>
</g>
<!-- T2645 -->
<g id="node3" class="node">
<title>T2645</title>
<polygon fill="none" stroke="#0058ad" points="0,-81.5 0,-110.5 441,-110.5 441,-81.5 0,-81.5"/>
<text text-anchor="middle" x="73" y="-92.3" font-family="Times,serif" font-size="14.00" fill="#0058ad">r 101 [1 2 3 4 5 6]</text>
<polyline fill="none" stroke="#0058ad" points="146,-81.5 146,-110.5 "/>
<text text-anchor="middle" x="219" y="-92.3" font-family="Times,serif" font-size="14.00" fill="#0058ad">r 101 [1 2 3 4 5 6]</text>
<polyline fill="none" stroke="#0058ad" points="292,-81.5 292,-110.5 "/>
<text text-anchor="middle" x="327" y="-92.3" font-family="Times,serif" font-size="14.00" fill="#0058ad">a 99 13</text>
<polyline fill="none" stroke="#0058ad" points="362,-81.5 362,-110.5 "/>
<text text-anchor="middle" x="401.5" y="-92.3" font-family="Times,serif" font-size="14.00" fill="#0058ad">a 102 14</text>
</g>
<!-- T2644&#45;&gt;T2645 -->
<g id="edge1" class="edge">
<title>T2644:f0&#45;&gt;T2645:f3</title>
<path fill="none" stroke="#5b00c0" d="M401.5,-162C401.5,-143.23 401.5,-136.12 401.5,-121.35"/>
<polygon fill="#5b00c0" stroke="#5b00c0" points="405,-121 401.5,-111 398,-121 405,-121"/>
<text text-anchor="middle" x="411" y="-132.8" font-family="Times,serif" font-size="14.00" fill="#5b00c0">rw</text>
</g>
<!-- T2643 -->
<g id="node2" class="node">
<title>T2643</title>
<polygon fill="none" stroke="#0058ad" points="162.5,-0.5 162.5,-29.5 1646.5,-29.5 1646.5,-0.5 162.5,-0.5"/>
<text text-anchor="middle" x="301" y="-11.3" font-family="Times,serif" font-size="14.00" fill="#0058ad">r 102 [1 2 3 4 5 6 7 8 9 10 11 12 13]</text>
<polyline fill="none" stroke="#0058ad" points="439.5,-0.5 439.5,-29.5 "/>
<text text-anchor="middle" x="512.5" y="-11.3" font-family="Times,serif" font-size="14.00" fill="#0058ad">r 101 [1 2 3 4 5 6]</text>
<polyline fill="none" stroke="#0058ad" points="585.5,-0.5 585.5,-29.5 "/>
<text text-anchor="middle" x="620.5" y="-11.3" font-family="Times,serif" font-size="14.00" fill="#0058ad">a 101 7</text>
<polyline fill="none" stroke="#0058ad" points="655.5,-0.5 655.5,-29.5 "/>
<text text-anchor="middle" x="794" y="-11.3" font-family="Times,serif" font-size="14.00" fill="#0058ad">r 102 [1 2 3 4 5 6 7 8 9 10 11 12 13]</text>
<polyline fill="none" stroke="#0058ad" points="932.5,-0.5 932.5,-29.5 "/>
<text text-anchor="middle" x="1071" y="-11.3" font-family="Times,serif" font-size="14.00" fill="#0058ad">r 102 [1 2 3 4 5 6 7 8 9 10 11 12 13]</text>
<polyline fill="none" stroke="#0058ad" points="1209.5,-0.5 1209.5,-29.5 "/>
<text text-anchor="middle" x="1289.5" y="-11.3" font-family="Times,serif" font-size="14.00" fill="#0058ad">r 101 [1 2 3 4 5 6 7]</text>
<polyline fill="none" stroke="#0058ad" points="1369.5,-0.5 1369.5,-29.5 "/>
<text text-anchor="middle" x="1508" y="-11.3" font-family="Times,serif" font-size="14.00" fill="#0058ad">r 102 [1 2 3 4 5 6 7 8 9 10 11 12 13]</text>
</g>
<!-- T2643&#45;&gt;T2644 -->
<g id="edge2" class="edge">
<title>T2643:f2&#45;&gt;T2644:f1</title>
<path fill="none" stroke="#c000a5" d="M620.5,-30C620.5,-85.11 620.5,-101.4 620.5,-151.81"/>
<polygon fill="#c000a5" stroke="#c000a5" points="617,-152 620.5,-162 624,-152 617,-152"/>
<text text-anchor="middle" x="630" y="-92.3" font-family="Times,serif" font-size="14.00" fill="#c000a5">wr</text>
</g>
<!-- T2643&#45;&gt;T2645 -->
<g id="edge3" class="edge">
<title>T2643:f0&#45;&gt;T2645:f3</title>
<path fill="none" stroke="#5b00c0" d="M300.5,-30C300.5,-76.36 386.34,-37.85 399.75,-70.95"/>
<polygon fill="#5b00c0" stroke="#5b00c0" points="396.33,-71.75 401.5,-81 403.23,-70.55 396.33,-71.75"/>
<text text-anchor="middle" x="403" y="-51.8" font-family="Times,serif" font-size="14.00" fill="#5b00c0">rw</text>
</g>
<!-- T2645&#45;&gt;T2643 -->
<g id="edge4" class="edge">
<title>T2645:f0&#45;&gt;T2643:f2</title>
<path fill="none" stroke="#5b00c0" d="M72.5,-81C72.5,15.24 190.78,-57.93 286.5,-48 303.14,-46.27 560.59,-48.13 611.71,-34.95"/>
<polygon fill="#5b00c0" stroke="#5b00c0" points="613.51,-37.96 620.5,-30 610.07,-31.86 613.51,-37.96"/>
<text text-anchor="middle" x="296" y="-51.8" font-family="Times,serif" font-size="14.00" fill="#5b00c0">rw</text>
</g>
</g>
</svg>
