<?xml version="1.0" encoding="UTF-8" standalone="no"?>
<!DOCTYPE svg PUBLIC "-//W3C//DTD SVG 1.1//EN"
 "http://www.w3.org/Graphics/SVG/1.1/DTD/svg11.dtd">
<!-- Generated by graphviz version 2.43.0 (0)
 -->
<!-- Title: a_graph Pages: 1 -->
<svg width="2802pt" height="1820pt"
 viewBox="0.00 0.00 2801.50 1820.00" xmlns="http://www.w3.org/2000/svg" xmlns:xlink="http://www.w3.org/1999/xlink">
<g id="graph0" class="graph" transform="scale(1 1) rotate(0) translate(4 1816)">
<title>a_graph</title>
<polygon fill="white" stroke="transparent" points="-4,4 -4,-1816 2797.5,-1816 2797.5,4 -4,4"/>
<!-- T1803 -->
<g id="node1" class="node">
<title>T1803</title>
<polygon fill="none" stroke="#0058ad" points="759.5,-1782.5 759.5,-1811.5 1038.5,-1811.5 1038.5,-1782.5 759.5,-1782.5"/>
<text text-anchor="middle" x="864" y="-1793.3" font-family="Times,serif" font-size="14.00" fill="#0058ad">r 67 [5 6 7 12 13 14 18 19]</text>
<polyline fill="none" stroke="#0058ad" points="968.5,-1782.5 968.5,-1811.5 "/>
<text text-anchor="middle" x="1003.5" y="-1793.3" font-family="Times,serif" font-size="14.00" fill="#0058ad">a 67 22</text>
</g>
<!-- T1807 -->
<g id="node21" class="node">
<title>T1807</title>
<polygon fill="none" stroke="#0058ad" points="675.5,-1701.5 675.5,-1730.5 1038.5,-1730.5 1038.5,-1701.5 675.5,-1701.5"/>
<text text-anchor="middle" x="791.5" y="-1712.3" font-family="Times,serif" font-size="14.00" fill="#0058ad">r 67 [5 6 7 12 13 14 18 19 22]</text>
<polyline fill="none" stroke="#0058ad" points="907.5,-1701.5 907.5,-1730.5 "/>
<text text-anchor="middle" x="938" y="-1712.3" font-family="Times,serif" font-size="14.00" fill="#0058ad">r 68 []</text>
<polyline fill="none" stroke="#0058ad" points="968.5,-1701.5 968.5,-1730.5 "/>
<text text-anchor="middle" x="1003.5" y="-1712.3" font-family="Times,serif" font-size="14.00" fill="#0058ad">a 67 23</text>
</g>
<!-- T1803&#45;&gt;T1807 -->
<g id="edge1" class="edge">
<title>T1803:f1&#45;&gt;T1807:f2</title>
<path fill="none" stroke="#c02700" d="M1004,-1782C1004,-1763.23 1004,-1756.12 1004,-1741.35"/>
<polygon fill="#c02700" stroke="#c02700" points="1007.5,-1741 1004,-1731 1000.5,-1741 1007.5,-1741"/>
<text text-anchor="middle" x="1016.5" y="-1752.8" font-family="Times,serif" font-size="14.00" fill="#c02700">ww</text>
</g>
<!-- T1841 -->
<g id="node2" class="node">
<title>T1841</title>
<polygon fill="none" stroke="#0058ad" points="934.5,-891.5 934.5,-920.5 1329.5,-920.5 1329.5,-891.5 934.5,-891.5"/>
<text text-anchor="middle" x="969.5" y="-902.3" font-family="Times,serif" font-size="14.00" fill="#0058ad">r 66 [1]</text>
<polyline fill="none" stroke="#0058ad" points="1004.5,-891.5 1004.5,-920.5 "/>
<text text-anchor="middle" x="1035" y="-902.3" font-family="Times,serif" font-size="14.00" fill="#0058ad">a 68 6</text>
<polyline fill="none" stroke="#0058ad" points="1065.5,-891.5 1065.5,-920.5 "/>
<text text-anchor="middle" x="1100.5" y="-902.3" font-family="Times,serif" font-size="14.00" fill="#0058ad">a 69 10</text>
<polyline fill="none" stroke="#0058ad" points="1135.5,-891.5 1135.5,-920.5 "/>
<text text-anchor="middle" x="1170.5" y="-902.3" font-family="Times,serif" font-size="14.00" fill="#0058ad">a 69 11</text>
<polyline fill="none" stroke="#0058ad" points="1205.5,-891.5 1205.5,-920.5 "/>
<text text-anchor="middle" x="1267.5" y="-902.3" font-family="Times,serif" font-size="14.00" fill="#0058ad">r 68 [1 2 4 5 6]</text>
</g>
<!-- T1861 -->
<g id="node23" class="node">
<title>T1861</title>
<polygon fill="none" stroke="#0058ad" points="28,-810.5 28,-839.5 1624,-839.5 1624,-810.5 28,-810.5"/>
<text text-anchor="middle" x="218" y="-821.3" font-family="Times,serif" font-size="14.00" fill="#0058ad">r 65 [1 2 3 4 5 6 7 8 9 10 11 12 13 14 15 16 17 18]</text>
<polyline fill="none" stroke="#0058ad" points="408,-810.5 408,-839.5 "/>
<text text-anchor="middle" x="438.5" y="-821.3" font-family="Times,serif" font-size="14.00" fill="#0058ad">a 66 2</text>
<polyline fill="none" stroke="#0058ad" points="469,-810.5 469,-839.5 "/>
<text text-anchor="middle" x="760.5" y="-821.3" font-family="Times,serif" font-size="14.00" fill="#0058ad">r 59 [1 2 3 4 5 6 7 9 10 11 12 13 14 15 16 17 18 19 20 21 22 23 8 24 25 26 27]</text>
<polyline fill="none" stroke="#0058ad" points="1052,-810.5 1052,-839.5 "/>
<text text-anchor="middle" x="1242" y="-821.3" font-family="Times,serif" font-size="14.00" fill="#0058ad">r 65 [1 2 3 4 5 6 7 8 9 10 11 12 13 14 15 16 17 18]</text>
<polyline fill="none" stroke="#0058ad" points="1432,-810.5 1432,-839.5 "/>
<text text-anchor="middle" x="1462.5" y="-821.3" font-family="Times,serif" font-size="14.00" fill="#0058ad">a 66 3</text>
<polyline fill="none" stroke="#0058ad" points="1493,-810.5 1493,-839.5 "/>
<text text-anchor="middle" x="1528" y="-821.3" font-family="Times,serif" font-size="14.00" fill="#0058ad">a 65 19</text>
<polyline fill="none" stroke="#0058ad" points="1563,-810.5 1563,-839.5 "/>
<text text-anchor="middle" x="1593.5" y="-821.3" font-family="Times,serif" font-size="14.00" fill="#0058ad">a 66 4</text>
</g>
<!-- T1841&#45;&gt;T1861 -->
<g id="edge2" class="edge">
<title>T1841:f0&#45;&gt;T1861:f1</title>
<path fill="none" stroke="#5b00c0" d="M933,-906C880.07,-906 875.53,-870.1 824,-858 805.02,-853.54 502.13,-860.04 446.68,-845.19"/>
<polygon fill="#5b00c0" stroke="#5b00c0" points="448.38,-842.13 438,-840 444.79,-848.14 448.38,-842.13"/>
<text text-anchor="middle" x="868.5" y="-861.8" font-family="Times,serif" font-size="14.00" fill="#5b00c0">rw</text>
</g>
<!-- T1813 -->
<g id="node3" class="node">
<title>T1813</title>
<polygon fill="none" stroke="#0058ad" points="771.5,-1539.5 771.5,-1568.5 902.5,-1568.5 902.5,-1539.5 771.5,-1539.5"/>
<text text-anchor="middle" x="806.5" y="-1550.3" font-family="Times,serif" font-size="14.00" fill="#0058ad">a 67 26</text>
<polyline fill="none" stroke="#0058ad" points="841.5,-1539.5 841.5,-1568.5 "/>
<text text-anchor="middle" x="872" y="-1550.3" font-family="Times,serif" font-size="14.00" fill="#0058ad">r 68 []</text>
</g>
<!-- T1815 -->
<g id="node10" class="node">
<title>T1815</title>
<polygon fill="none" stroke="#0058ad" points="388.5,-1458.5 388.5,-1487.5 863.5,-1487.5 863.5,-1458.5 388.5,-1458.5"/>
<text text-anchor="middle" x="419" y="-1469.3" font-family="Times,serif" font-size="14.00" fill="#0058ad">r 68 []</text>
<polyline fill="none" stroke="#0058ad" points="449.5,-1458.5 449.5,-1487.5 "/>
<text text-anchor="middle" x="484.5" y="-1469.3" font-family="Times,serif" font-size="14.00" fill="#0058ad">a 67 27</text>
<polyline fill="none" stroke="#0058ad" points="519.5,-1458.5 519.5,-1487.5 "/>
<text text-anchor="middle" x="691.5" y="-1469.3" font-family="Times,serif" font-size="14.00" fill="#0058ad">r 67 [5 6 7 12 13 14 18 19 22 23 24 25 26 27]</text>
</g>
<!-- T1813&#45;&gt;T1815 -->
<g id="edge4" class="edge">
<title>T1813:f0&#45;&gt;T1815:f1</title>
<path fill="none" stroke="#c02700" d="M770,-1554C708.34,-1554 507.68,-1553.31 485.92,-1498.13"/>
<polygon fill="#c02700" stroke="#c02700" points="489.3,-1497.17 484,-1488 482.42,-1498.48 489.3,-1497.17"/>
<text text-anchor="middle" x="520.5" y="-1509.8" font-family="Times,serif" font-size="14.00" fill="#c02700">ww</text>
</g>
<!-- T1817 -->
<g id="node19" class="node">
<title>T1817</title>
<polygon fill="none" stroke="#0058ad" points="387,-1377.5 387,-1406.5 977,-1406.5 977,-1377.5 387,-1377.5"/>
<text text-anchor="middle" x="422" y="-1388.3" font-family="Times,serif" font-size="14.00" fill="#0058ad">a 67 28</text>
<polyline fill="none" stroke="#0058ad" points="457,-1377.5 457,-1406.5 "/>
<text text-anchor="middle" x="492" y="-1388.3" font-family="Times,serif" font-size="14.00" fill="#0058ad">a 67 29</text>
<polyline fill="none" stroke="#0058ad" points="527,-1377.5 527,-1406.5 "/>
<text text-anchor="middle" x="721.5" y="-1388.3" font-family="Times,serif" font-size="14.00" fill="#0058ad">r 67 [5 6 7 12 13 14 18 19 22 23 24 25 26 27 28 29]</text>
<polyline fill="none" stroke="#0058ad" points="916,-1377.5 916,-1406.5 "/>
<text text-anchor="middle" x="946.5" y="-1388.3" font-family="Times,serif" font-size="14.00" fill="#0058ad">a 68 1</text>
</g>
<!-- T1813&#45;&gt;T1817 -->
<g id="edge3" class="edge">
<title>T1813:f1&#45;&gt;T1817:f3</title>
<path fill="none" stroke="#5b00c0" d="M872,-1539C872,-1481.54 900.95,-1472.69 933,-1425 936,-1420.53 939.77,-1418.59 942.64,-1416.23"/>
<polygon fill="#5b00c0" stroke="#5b00c0" points="945.89,-1417.54 947,-1407 939.56,-1414.55 945.89,-1417.54"/>
<text text-anchor="middle" x="916.5" y="-1469.3" font-family="Times,serif" font-size="14.00" fill="#5b00c0">rw</text>
</g>
<!-- T1783 -->
<g id="node4" class="node">
<title>T1783</title>
<polygon fill="none" stroke="#0058ad" points="907,-243.5 907,-272.5 1399,-272.5 1399,-243.5 907,-243.5"/>
<text text-anchor="middle" x="989" y="-254.3" font-family="Times,serif" font-size="14.00" fill="#0058ad">r 67 [5 6 7 12 13 14]</text>
<polyline fill="none" stroke="#0058ad" points="1071,-243.5 1071,-272.5 "/>
<text text-anchor="middle" x="1153" y="-254.3" font-family="Times,serif" font-size="14.00" fill="#0058ad">r 67 [5 6 7 12 13 14]</text>
<polyline fill="none" stroke="#0058ad" points="1235,-243.5 1235,-272.5 "/>
<text text-anchor="middle" x="1317" y="-254.3" font-family="Times,serif" font-size="14.00" fill="#0058ad">r 67 [5 6 7 12 13 14]</text>
</g>
<!-- T1790 -->
<g id="node16" class="node">
<title>T1790</title>
<polygon fill="none" stroke="#0058ad" points="34,-162.5 34,-191.5 782,-191.5 782,-162.5 34,-162.5"/>
<text text-anchor="middle" x="69" y="-173.3" font-family="Times,serif" font-size="14.00" fill="#0058ad">r 66 [1]</text>
<polyline fill="none" stroke="#0058ad" points="104,-162.5 104,-191.5 "/>
<text text-anchor="middle" x="139" y="-173.3" font-family="Times,serif" font-size="14.00" fill="#0058ad">r 66 [1]</text>
<polyline fill="none" stroke="#0058ad" points="174,-162.5 174,-191.5 "/>
<text text-anchor="middle" x="256" y="-173.3" font-family="Times,serif" font-size="14.00" fill="#0058ad">r 67 [5 6 7 12 13 14]</text>
<polyline fill="none" stroke="#0058ad" points="338,-162.5 338,-191.5 "/>
<text text-anchor="middle" x="373" y="-173.3" font-family="Times,serif" font-size="14.00" fill="#0058ad">r 66 [1]</text>
<polyline fill="none" stroke="#0058ad" points="408,-162.5 408,-191.5 "/>
<text text-anchor="middle" x="443" y="-173.3" font-family="Times,serif" font-size="14.00" fill="#0058ad">r 66 [1]</text>
<polyline fill="none" stroke="#0058ad" points="478,-162.5 478,-191.5 "/>
<text text-anchor="middle" x="560" y="-173.3" font-family="Times,serif" font-size="14.00" fill="#0058ad">r 67 [5 6 7 12 13 14]</text>
<polyline fill="none" stroke="#0058ad" points="642,-162.5 642,-191.5 "/>
<text text-anchor="middle" x="677" y="-173.3" font-family="Times,serif" font-size="14.00" fill="#0058ad">a 67 18</text>
<polyline fill="none" stroke="#0058ad" points="712,-162.5 712,-191.5 "/>
<text text-anchor="middle" x="747" y="-173.3" font-family="Times,serif" font-size="14.00" fill="#0058ad">r 66 [1]</text>
</g>
<!-- T1783&#45;&gt;T1790 -->
<g id="edge5" class="edge">
<title>T1783:f0&#45;&gt;T1790:f6</title>
<path fill="none" stroke="#5b00c0" d="M989,-243C989,-210.89 728.32,-224.22 683.52,-199.92"/>
<polygon fill="#5b00c0" stroke="#5b00c0" points="686.06,-197.5 677,-192 680.65,-201.95 686.06,-197.5"/>
<text text-anchor="middle" x="946.5" y="-213.8" font-family="Times,serif" font-size="14.00" fill="#5b00c0">rw</text>
</g>
<!-- T1839 -->
<g id="node24" class="node">
<title>T1839</title>
<polygon fill="none" stroke="#0058ad" points="1878,-162.5 1878,-191.5 2088,-191.5 2088,-162.5 1878,-162.5"/>
<text text-anchor="middle" x="1913" y="-173.3" font-family="Times,serif" font-size="14.00" fill="#0058ad">a 67 15</text>
<polyline fill="none" stroke="#0058ad" points="1948,-162.5 1948,-191.5 "/>
<text text-anchor="middle" x="1983" y="-173.3" font-family="Times,serif" font-size="14.00" fill="#0058ad">a 67 16</text>
<polyline fill="none" stroke="#0058ad" points="2018,-162.5 2018,-191.5 "/>
<text text-anchor="middle" x="2053" y="-173.3" font-family="Times,serif" font-size="14.00" fill="#0058ad">a 67 17</text>
</g>
<!-- T1783&#45;&gt;T1839 -->
<g id="edge6" class="edge">
<title>T1783&#45;&gt;T1839</title>
<path fill="none" stroke="#0050c0" d="M1295.21,-243.46C1456.99,-228.07 1718.06,-203.22 1867.71,-188.97"/>
<polygon fill="#0050c0" stroke="#0050c0" points="1868.22,-192.44 1877.84,-188.01 1867.56,-185.47 1868.22,-192.44"/>
<text text-anchor="middle" x="1648.5" y="-213.8" font-family="Times,serif" font-size="14.00" fill="#0050c0">rt</text>
</g>
<!-- T1838 -->
<g id="node5" class="node">
<title>T1838</title>
<polygon fill="none" stroke="#0058ad" points="715.5,-972.5 715.5,-1001.5 1126.5,-1001.5 1126.5,-972.5 715.5,-972.5"/>
<text text-anchor="middle" x="764" y="-983.3" font-family="Times,serif" font-size="14.00" fill="#0058ad">r 69 [2 3 4]</text>
<polyline fill="none" stroke="#0058ad" points="812.5,-972.5 812.5,-1001.5 "/>
<text text-anchor="middle" x="843" y="-983.3" font-family="Times,serif" font-size="14.00" fill="#0058ad">a 68 4</text>
<polyline fill="none" stroke="#0058ad" points="873.5,-972.5 873.5,-1001.5 "/>
<text text-anchor="middle" x="904" y="-983.3" font-family="Times,serif" font-size="14.00" fill="#0058ad">a 69 8</text>
<polyline fill="none" stroke="#0058ad" points="934.5,-972.5 934.5,-1001.5 "/>
<text text-anchor="middle" x="969.5" y="-983.3" font-family="Times,serif" font-size="14.00" fill="#0058ad">r 66 [1]</text>
<polyline fill="none" stroke="#0058ad" points="1004.5,-972.5 1004.5,-1001.5 "/>
<text text-anchor="middle" x="1035" y="-983.3" font-family="Times,serif" font-size="14.00" fill="#0058ad">a 68 5</text>
<polyline fill="none" stroke="#0058ad" points="1065.5,-972.5 1065.5,-1001.5 "/>
<text text-anchor="middle" x="1096" y="-983.3" font-family="Times,serif" font-size="14.00" fill="#0058ad">a 69 9</text>
</g>
<!-- T1838&#45;&gt;T1841 -->
<g id="edge7" class="edge">
<title>T1838:f4&#45;&gt;T1841:f1</title>
<path fill="none" stroke="#c02700" d="M1035,-972C1035,-953.23 1035,-946.12 1035,-931.35"/>
<polygon fill="#c02700" stroke="#c02700" points="1038.5,-931 1035,-921 1031.5,-931 1038.5,-931"/>
<text text-anchor="middle" x="1047.5" y="-942.8" font-family="Times,serif" font-size="14.00" fill="#c02700">ww</text>
</g>
<!-- T1838&#45;&gt;T1861 -->
<g id="edge8" class="edge">
<title>T1838:f3&#45;&gt;T1861:f1</title>
<path fill="none" stroke="#5b00c0" d="M970,-972C970,-938.61 724.51,-865.61 692,-858 667.36,-852.23 483.55,-865.02 445.06,-847.53"/>
<polygon fill="#5b00c0" stroke="#5b00c0" points="447.39,-844.9 438,-840 442.29,-849.69 447.39,-844.9"/>
<text text-anchor="middle" x="891.5" y="-902.3" font-family="Times,serif" font-size="14.00" fill="#5b00c0">rw</text>
</g>
<!-- T1823 -->
<g id="node6" class="node">
<title>T1823</title>
<polygon fill="none" stroke="#0058ad" points="400,-1215.5 400,-1244.5 1920,-1244.5 1920,-1215.5 400,-1215.5"/>
<text text-anchor="middle" x="435" y="-1226.3" font-family="Times,serif" font-size="14.00" fill="#0058ad">r 66 [1]</text>
<polyline fill="none" stroke="#0058ad" points="470,-1215.5 470,-1244.5 "/>
<text text-anchor="middle" x="676" y="-1226.3" font-family="Times,serif" font-size="14.00" fill="#0058ad">r 67 [5 6 7 12 13 14 18 19 22 23 24 25 26 27 28 29 31]</text>
<polyline fill="none" stroke="#0058ad" points="882,-1215.5 882,-1244.5 "/>
<text text-anchor="middle" x="912.5" y="-1226.3" font-family="Times,serif" font-size="14.00" fill="#0058ad">a 68 2</text>
<polyline fill="none" stroke="#0058ad" points="943,-1215.5 943,-1244.5 "/>
<text text-anchor="middle" x="1149" y="-1226.3" font-family="Times,serif" font-size="14.00" fill="#0058ad">r 67 [5 6 7 12 13 14 18 19 22 23 24 25 26 27 28 29 31]</text>
<polyline fill="none" stroke="#0058ad" points="1355,-1215.5 1355,-1244.5 "/>
<text text-anchor="middle" x="1390" y="-1226.3" font-family="Times,serif" font-size="14.00" fill="#0058ad">r 66 [1]</text>
<polyline fill="none" stroke="#0058ad" points="1425,-1215.5 1425,-1244.5 "/>
<text text-anchor="middle" x="1631" y="-1226.3" font-family="Times,serif" font-size="14.00" fill="#0058ad">r 67 [5 6 7 12 13 14 18 19 22 23 24 25 26 27 28 29 31]</text>
<polyline fill="none" stroke="#0058ad" points="1837,-1215.5 1837,-1244.5 "/>
<text text-anchor="middle" x="1878.5" y="-1226.3" font-family="Times,serif" font-size="14.00" fill="#0058ad">r 68 [1 2]</text>
</g>
<!-- T1823&#45;&gt;T1838 -->
<g id="edge9" class="edge">
<title>T1823:f2&#45;&gt;T1838:f1</title>
<path fill="none" stroke="#c02700" d="M912,-1215C912,-1136.54 793.19,-1224.3 743,-1164 711.33,-1125.96 707.43,-1094.76 734,-1053 760.58,-1011.22 831.37,-1048.93 841.73,-1012.32"/>
<polygon fill="#c02700" stroke="#c02700" points="845.25,-1012.35 843,-1002 838.3,-1011.5 845.25,-1012.35"/>
<text text-anchor="middle" x="730.5" y="-1104.8" font-family="Times,serif" font-size="14.00" fill="#c02700">ww</text>
</g>
<!-- T1828 -->
<g id="node14" class="node">
<title>T1828</title>
<polygon fill="none" stroke="#0058ad" points="752,-1134.5 752,-1163.5 944,-1163.5 944,-1134.5 752,-1134.5"/>
<text text-anchor="middle" x="782.5" y="-1145.3" font-family="Times,serif" font-size="14.00" fill="#0058ad">r 69 []</text>
<polyline fill="none" stroke="#0058ad" points="813,-1134.5 813,-1163.5 "/>
<text text-anchor="middle" x="848" y="-1145.3" font-family="Times,serif" font-size="14.00" fill="#0058ad">r 66 [1]</text>
<polyline fill="none" stroke="#0058ad" points="883,-1134.5 883,-1163.5 "/>
<text text-anchor="middle" x="913.5" y="-1145.3" font-family="Times,serif" font-size="14.00" fill="#0058ad">a 69 2</text>
</g>
<!-- T1823&#45;&gt;T1828 -->
<g id="edge12" class="edge">
<title>T1823&#45;&gt;T1828</title>
<path fill="none" stroke="#0050c0" d="M1106.37,-1215.42C1052.29,-1201.73 968.84,-1180.6 911.49,-1166.08"/>
<polygon fill="#0050c0" stroke="#0050c0" points="912.01,-1162.6 901.46,-1163.54 910.29,-1169.38 912.01,-1162.6"/>
<text text-anchor="middle" x="1037.5" y="-1185.8" font-family="Times,serif" font-size="14.00" fill="#0050c0">rt</text>
</g>
<!-- T1823&#45;&gt;T1861 -->
<g id="edge10" class="edge">
<title>T1823:f0&#45;&gt;T1861:f1</title>
<path fill="none" stroke="#5b00c0" d="M435,-1215C435,-1186.11 436,-1178.89 436,-1150 436,-1150 436,-1150 436,-905 436,-879.82 437.52,-871.12 437.91,-850.19"/>
<polygon fill="#5b00c0" stroke="#5b00c0" points="441.41,-850.03 438,-840 434.41,-849.97 441.41,-850.03"/>
<text text-anchor="middle" x="445.5" y="-1023.8" font-family="Times,serif" font-size="14.00" fill="#5b00c0">rw</text>
</g>
<!-- T1823&#45;&gt;T1839 -->
<g id="edge11" class="edge">
<title>T1823:f1&#45;&gt;T1839:f0</title>
<path fill="none" stroke="#5b00c0" d="M676,-1215C676,-1194.31 1027.34,-1198.06 1048,-1197 1143.79,-1192.07 1910,-1245.92 1910,-1150 1910,-1150 1910,-1150 1910,-257 1910,-231.81 1912.28,-223.13 1912.86,-202.19"/>
<polygon fill="#5b00c0" stroke="#5b00c0" points="1916.37,-202.05 1913,-192 1909.37,-201.95 1916.37,-202.05"/>
<text text-anchor="middle" x="1919.5" y="-699.8" font-family="Times,serif" font-size="14.00" fill="#5b00c0">rw</text>
</g>
<!-- T1773 -->
<g id="node7" class="node">
<title>T1773</title>
<polygon fill="none" stroke="#0058ad" points="1220.5,-567.5 1220.5,-596.5 1447.5,-596.5 1447.5,-567.5 1220.5,-567.5"/>
<text text-anchor="middle" x="1251" y="-578.3" font-family="Times,serif" font-size="14.00" fill="#0058ad">a 67 6</text>
<polyline fill="none" stroke="#0058ad" points="1281.5,-567.5 1281.5,-596.5 "/>
<text text-anchor="middle" x="1323" y="-578.3" font-family="Times,serif" font-size="14.00" fill="#0058ad">r 67 [5 6]</text>
<polyline fill="none" stroke="#0058ad" points="1364.5,-567.5 1364.5,-596.5 "/>
<text text-anchor="middle" x="1406" y="-578.3" font-family="Times,serif" font-size="14.00" fill="#0058ad">r 67 [5 6]</text>
</g>
<!-- T1775 -->
<g id="node15" class="node">
<title>T1775</title>
<polygon fill="none" stroke="#0058ad" points="584,-486.5 584,-515.5 1430,-515.5 1430,-486.5 584,-486.5"/>
<text text-anchor="middle" x="886.5" y="-497.3" font-family="Times,serif" font-size="14.00" fill="#0058ad">r 59 [1 2 3 4 5 6 7 9 10 11 12 13 14 15 16 17 18 19 20 21 22 23 8 24 25 26 27 30]</text>
<polyline fill="none" stroke="#0058ad" points="1189,-486.5 1189,-515.5 "/>
<text text-anchor="middle" x="1230.5" y="-497.3" font-family="Times,serif" font-size="14.00" fill="#0058ad">r 67 [5 6]</text>
<polyline fill="none" stroke="#0058ad" points="1272,-486.5 1272,-515.5 "/>
<text text-anchor="middle" x="1302.5" y="-497.3" font-family="Times,serif" font-size="14.00" fill="#0058ad">a 67 7</text>
<polyline fill="none" stroke="#0058ad" points="1333,-486.5 1333,-515.5 "/>
<text text-anchor="middle" x="1381.5" y="-497.3" font-family="Times,serif" font-size="14.00" fill="#0058ad">r 67 [5 6 7]</text>
</g>
<!-- T1773&#45;&gt;T1775 -->
<g id="edge13" class="edge">
<title>T1773:f0&#45;&gt;T1775:f2</title>
<path fill="none" stroke="#c02700" d="M1251,-567C1251,-538.55 1291.17,-545.72 1300.9,-525.9"/>
<polygon fill="#c02700" stroke="#c02700" points="1304.34,-526.51 1303,-516 1297.5,-525.05 1304.34,-526.51"/>
<text text-anchor="middle" x="1305.5" y="-537.8" font-family="Times,serif" font-size="14.00" fill="#c02700">ww</text>
</g>
<!-- T1821 -->
<g id="node8" class="node">
<title>T1821</title>
<polygon fill="none" stroke="#0058ad" points="387,-1296.5 387,-1325.5 2105,-1325.5 2105,-1296.5 387,-1296.5"/>
<text text-anchor="middle" x="422" y="-1307.3" font-family="Times,serif" font-size="14.00" fill="#0058ad">a 67 31</text>
<polyline fill="none" stroke="#0058ad" points="457,-1296.5 457,-1325.5 "/>
<text text-anchor="middle" x="663" y="-1307.3" font-family="Times,serif" font-size="14.00" fill="#0058ad">r 67 [5 6 7 12 13 14 18 19 22 23 24 25 26 27 28 29 31]</text>
<polyline fill="none" stroke="#0058ad" points="869,-1296.5 869,-1325.5 "/>
<text text-anchor="middle" x="1075" y="-1307.3" font-family="Times,serif" font-size="14.00" fill="#0058ad">r 67 [5 6 7 12 13 14 18 19 22 23 24 25 26 27 28 29 31]</text>
<polyline fill="none" stroke="#0058ad" points="1281,-1296.5 1281,-1325.5 "/>
<text text-anchor="middle" x="1487" y="-1307.3" font-family="Times,serif" font-size="14.00" fill="#0058ad">r 67 [5 6 7 12 13 14 18 19 22 23 24 25 26 27 28 29 31]</text>
<polyline fill="none" stroke="#0058ad" points="1693,-1296.5 1693,-1325.5 "/>
<text text-anchor="middle" x="1899" y="-1307.3" font-family="Times,serif" font-size="14.00" fill="#0058ad">r 67 [5 6 7 12 13 14 18 19 22 23 24 25 26 27 28 29 31]</text>
</g>
<!-- T1821&#45;&gt;T1823 -->
<g id="edge14" class="edge">
<title>T1821:f0&#45;&gt;T1823:f1</title>
<path fill="none" stroke="#c000a5" d="M422,-1296C422,-1184.57 659.89,-1348.89 675.23,-1255.23"/>
<polygon fill="#c000a5" stroke="#c000a5" points="678.74,-1255.24 676,-1245 671.76,-1254.71 678.74,-1255.24"/>
<text text-anchor="middle" x="681.5" y="-1266.8" font-family="Times,serif" font-size="14.00" fill="#c000a5">wr</text>
</g>
<!-- T1821&#45;&gt;T1839 -->
<g id="edge15" class="edge">
<title>T1821:f0&#45;&gt;T1839:f0</title>
<path fill="none" stroke="#c02700" d="M422,-1296C422,-1275.06 1908.74,-1250.3 1929,-1245 1942.08,-1241.58 1956,-1244.52 1956,-1231 1956,-1231 1956,-1231 1956,-702.5 1956,-483.18 1995.12,-417.81 1925,-210 1923.46,-205.44 1920.46,-203.35 1917.85,-201.19"/>
<polygon fill="#c02700" stroke="#c02700" points="1920.76,-199.21 1913,-192 1914.57,-202.48 1920.76,-199.21"/>
<text text-anchor="middle" x="1968.5" y="-740.3" font-family="Times,serif" font-size="14.00" fill="#c02700">ww</text>
</g>
<!-- T1792 -->
<g id="node9" class="node">
<title>T1792</title>
<polygon fill="none" stroke="#0058ad" points="1322,-81.5 1322,-110.5 1462,-110.5 1462,-81.5 1322,-81.5"/>
<text text-anchor="middle" x="1357" y="-92.3" font-family="Times,serif" font-size="14.00" fill="#0058ad">a 67 19</text>
<polyline fill="none" stroke="#0058ad" points="1392,-81.5 1392,-110.5 "/>
<text text-anchor="middle" x="1427" y="-92.3" font-family="Times,serif" font-size="14.00" fill="#0058ad">a 59 31</text>
</g>
<!-- T1792&#45;&gt;T1803 -->
<g id="edge17" class="edge">
<title>T1792:f0&#45;&gt;T1803:f1</title>
<path fill="none" stroke="#c02700" d="M1321,-96C1247.48,-96 0,-102.48 0,-176 0,-1717 0,-1717 0,-1717 0,-1825.3 942.23,-1679.86 1001.12,-1772.3"/>
<polygon fill="#c02700" stroke="#c02700" points="997.8,-1773.41 1004,-1782 1004.51,-1771.42 997.8,-1773.41"/>
<text text-anchor="middle" x="12.5" y="-942.8" font-family="Times,serif" font-size="14.00" fill="#c02700">ww</text>
</g>
<!-- T1801 -->
<g id="node13" class="node">
<title>T1801</title>
<polygon fill="none" stroke="#0058ad" points="1864.5,-0.5 1864.5,-29.5 2793.5,-29.5 2793.5,-0.5 1864.5,-0.5"/>
<text text-anchor="middle" x="1899.5" y="-11.3" font-family="Times,serif" font-size="14.00" fill="#0058ad">a 59 32</text>
<polyline fill="none" stroke="#0058ad" points="1934.5,-0.5 1934.5,-29.5 "/>
<text text-anchor="middle" x="2039" y="-11.3" font-family="Times,serif" font-size="14.00" fill="#0058ad">r 67 [5 6 7 12 13 14 18 19]</text>
<polyline fill="none" stroke="#0058ad" points="2143.5,-0.5 2143.5,-29.5 "/>
<text text-anchor="middle" x="2468.5" y="-11.3" font-family="Times,serif" font-size="14.00" fill="#0058ad">r 59 [1 2 3 4 5 6 7 9 10 11 12 13 14 15 16 17 18 19 20 21 22 23 8 24 25 26 27 30 31 32]</text>
</g>
<!-- T1792&#45;&gt;T1801 -->
<g id="edge16" class="edge">
<title>T1792:f1&#45;&gt;T1801:f0</title>
<path fill="none" stroke="#c02700" d="M1463,-96C1640.93,-96 1680.14,-18.06 1852.79,-15.09"/>
<polygon fill="#c02700" stroke="#c02700" points="1853.03,-18.59 1863,-15 1852.97,-11.59 1853.03,-18.59"/>
<text text-anchor="middle" x="1694.5" y="-51.8" font-family="Times,serif" font-size="14.00" fill="#c02700">ww</text>
</g>
<!-- T1815&#45;&gt;T1817 -->
<g id="edge18" class="edge">
<title>T1815:f1&#45;&gt;T1817:f0</title>
<path fill="none" stroke="#c02700" d="M484,-1458C484,-1426.22 434.82,-1438.9 424.06,-1416.84"/>
<polygon fill="#c02700" stroke="#c02700" points="427.48,-1416.07 422,-1407 420.63,-1417.51 427.48,-1416.07"/>
<text text-anchor="middle" x="486.5" y="-1428.8" font-family="Times,serif" font-size="14.00" fill="#c02700">ww</text>
</g>
<!-- T1769 -->
<g id="node11" class="node">
<title>T1769</title>
<polygon fill="none" stroke="#0058ad" points="394,-729.5 394,-758.5 1844,-758.5 1844,-729.5 394,-729.5"/>
<text text-anchor="middle" x="429" y="-740.3" font-family="Times,serif" font-size="14.00" fill="#0058ad">r 66 [1]</text>
<polyline fill="none" stroke="#0058ad" points="464,-729.5 464,-758.5 "/>
<text text-anchor="middle" x="494.5" y="-740.3" font-family="Times,serif" font-size="14.00" fill="#0058ad">r 67 []</text>
<polyline fill="none" stroke="#0058ad" points="525,-729.5 525,-758.5 "/>
<text text-anchor="middle" x="555.5" y="-740.3" font-family="Times,serif" font-size="14.00" fill="#0058ad">r 67 []</text>
<polyline fill="none" stroke="#0058ad" points="586,-729.5 586,-758.5 "/>
<text text-anchor="middle" x="877.5" y="-740.3" font-family="Times,serif" font-size="14.00" fill="#0058ad">r 59 [1 2 3 4 5 6 7 9 10 11 12 13 14 15 16 17 18 19 20 21 22 23 8 24 25 26 27]</text>
<polyline fill="none" stroke="#0058ad" points="1169,-729.5 1169,-758.5 "/>
<text text-anchor="middle" x="1204" y="-740.3" font-family="Times,serif" font-size="14.00" fill="#0058ad">a 59 30</text>
<polyline fill="none" stroke="#0058ad" points="1239,-729.5 1239,-758.5 "/>
<text text-anchor="middle" x="1541.5" y="-740.3" font-family="Times,serif" font-size="14.00" fill="#0058ad">r 59 [1 2 3 4 5 6 7 9 10 11 12 13 14 15 16 17 18 19 20 21 22 23 8 24 25 26 27 30]</text>
</g>
<!-- T1769&#45;&gt;T1792 -->
<g id="edge19" class="edge">
<title>T1769:f4&#45;&gt;T1792:f1</title>
<path fill="none" stroke="#c02700" d="M1204,-729C1204,-684.85 1596,-708.15 1596,-664 1596,-664 1596,-664 1596,-176 1596,-110.39 1538.08,-97.21 1473.06,-96.08"/>
<polygon fill="#c02700" stroke="#c02700" points="1473.03,-92.58 1463,-96 1472.97,-99.58 1473.03,-92.58"/>
<text text-anchor="middle" x="1608.5" y="-416.3" font-family="Times,serif" font-size="14.00" fill="#c02700">ww</text>
</g>
<!-- T1769&#45;&gt;T1775 -->
<g id="edge20" class="edge">
<title>T1769:f4&#45;&gt;T1775:f0</title>
<path fill="none" stroke="#c000a5" d="M1204,-729C1204,-658.97 939.48,-730.39 893,-678 847.51,-626.72 882.22,-591.63 885.72,-526.31"/>
<polygon fill="#c000a5" stroke="#c000a5" points="889.23,-526.09 886,-516 882.23,-525.9 889.23,-526.09"/>
<text text-anchor="middle" x="880.5" y="-618.8" font-family="Times,serif" font-size="14.00" fill="#c000a5">wr</text>
</g>
<!-- T1779 -->
<g id="node18" class="node">
<title>T1779</title>
<polygon fill="none" stroke="#0058ad" points="89.5,-405.5 89.5,-434.5 1310.5,-434.5 1310.5,-405.5 89.5,-405.5"/>
<text text-anchor="middle" x="124.5" y="-416.3" font-family="Times,serif" font-size="14.00" fill="#0058ad">r 66 [1]</text>
<polyline fill="none" stroke="#0058ad" points="159.5,-405.5 159.5,-434.5 "/>
<text text-anchor="middle" x="208" y="-416.3" font-family="Times,serif" font-size="14.00" fill="#0058ad">r 67 [5 6 7]</text>
<polyline fill="none" stroke="#0058ad" points="256.5,-405.5 256.5,-434.5 "/>
<text text-anchor="middle" x="291.5" y="-416.3" font-family="Times,serif" font-size="14.00" fill="#0058ad">r 66 [1]</text>
<polyline fill="none" stroke="#0058ad" points="326.5,-405.5 326.5,-434.5 "/>
<text text-anchor="middle" x="375" y="-416.3" font-family="Times,serif" font-size="14.00" fill="#0058ad">r 67 [5 6 7]</text>
<polyline fill="none" stroke="#0058ad" points="423.5,-405.5 423.5,-434.5 "/>
<text text-anchor="middle" x="458.5" y="-416.3" font-family="Times,serif" font-size="14.00" fill="#0058ad">a 67 12</text>
<polyline fill="none" stroke="#0058ad" points="493.5,-405.5 493.5,-434.5 "/>
<text text-anchor="middle" x="528.5" y="-416.3" font-family="Times,serif" font-size="14.00" fill="#0058ad">a 67 13</text>
<polyline fill="none" stroke="#0058ad" points="563.5,-405.5 563.5,-434.5 "/>
<text text-anchor="middle" x="866" y="-416.3" font-family="Times,serif" font-size="14.00" fill="#0058ad">r 59 [1 2 3 4 5 6 7 9 10 11 12 13 14 15 16 17 18 19 20 21 22 23 8 24 25 26 27 30]</text>
<polyline fill="none" stroke="#0058ad" points="1168.5,-405.5 1168.5,-434.5 "/>
<text text-anchor="middle" x="1239.5" y="-416.3" font-family="Times,serif" font-size="14.00" fill="#0058ad">r 67 [5 6 7 12 13]</text>
</g>
<!-- T1769&#45;&gt;T1779 -->
<g id="edge21" class="edge">
<title>T1769:f4&#45;&gt;T1779:f6</title>
<path fill="none" stroke="#c000a5" d="M1204,-729C1204,-714.02 949.92,-712.31 935,-711 838.36,-702.54 501,-761.01 501,-664 501,-664 501,-664 501,-500 501,-472.28 517.09,-465.17 542,-453 571.55,-438.56 816.74,-465.48 859.62,-442.97"/>
<polygon fill="#c000a5" stroke="#c000a5" points="862.48,-444.99 866,-435 857.02,-440.62 862.48,-444.99"/>
<text text-anchor="middle" x="510.5" y="-578.3" font-family="Times,serif" font-size="14.00" fill="#c000a5">wr</text>
</g>
<!-- T1771 -->
<g id="node22" class="node">
<title>T1771</title>
<polygon fill="none" stroke="#0058ad" points="902,-648.5 902,-677.5 1568,-677.5 1568,-648.5 902,-648.5"/>
<text text-anchor="middle" x="1204.5" y="-659.3" font-family="Times,serif" font-size="14.00" fill="#0058ad">r 59 [1 2 3 4 5 6 7 9 10 11 12 13 14 15 16 17 18 19 20 21 22 23 8 24 25 26 27 30]</text>
<polyline fill="none" stroke="#0058ad" points="1507,-648.5 1507,-677.5 "/>
<text text-anchor="middle" x="1537.5" y="-659.3" font-family="Times,serif" font-size="14.00" fill="#0058ad">a 67 5</text>
</g>
<!-- T1769&#45;&gt;T1771 -->
<g id="edge23" class="edge">
<title>T1769:f4&#45;&gt;T1771:f0</title>
<path fill="none" stroke="#c000a5" d="M1204,-729C1204,-710.23 1204,-703.12 1204,-688.35"/>
<polygon fill="#c000a5" stroke="#c000a5" points="1207.5,-688 1204,-678 1200.5,-688 1207.5,-688"/>
<text text-anchor="middle" x="1213.5" y="-699.8" font-family="Times,serif" font-size="14.00" fill="#c000a5">wr</text>
</g>
<!-- T1769&#45;&gt;T1861 -->
<g id="edge22" class="edge">
<title>T1769:f0&#45;&gt;T1861:f1</title>
<path fill="none" stroke="#5b00c0" d="M429,-759C429,-778.24 435.29,-784.87 437.35,-799.97"/>
<polygon fill="#5b00c0" stroke="#5b00c0" points="433.86,-800.25 438,-810 440.85,-799.8 433.86,-800.25"/>
<text text-anchor="middle" x="445.5" y="-780.8" font-family="Times,serif" font-size="14.00" fill="#5b00c0">rw</text>
</g>
<!-- T1832 -->
<g id="node12" class="node">
<title>T1832</title>
<polygon fill="none" stroke="#0058ad" points="743.5,-1053.5 743.5,-1082.5 1088.5,-1082.5 1088.5,-1053.5 743.5,-1053.5"/>
<text text-anchor="middle" x="778.5" y="-1064.3" font-family="Times,serif" font-size="14.00" fill="#0058ad">r 69 [2]</text>
<polyline fill="none" stroke="#0058ad" points="813.5,-1053.5 813.5,-1082.5 "/>
<text text-anchor="middle" x="848.5" y="-1064.3" font-family="Times,serif" font-size="14.00" fill="#0058ad">r 69 [2]</text>
<polyline fill="none" stroke="#0058ad" points="883.5,-1053.5 883.5,-1082.5 "/>
<text text-anchor="middle" x="914" y="-1064.3" font-family="Times,serif" font-size="14.00" fill="#0058ad">a 69 3</text>
<polyline fill="none" stroke="#0058ad" points="944.5,-1053.5 944.5,-1082.5 "/>
<text text-anchor="middle" x="986" y="-1064.3" font-family="Times,serif" font-size="14.00" fill="#0058ad">r 69 [2 3]</text>
<polyline fill="none" stroke="#0058ad" points="1027.5,-1053.5 1027.5,-1082.5 "/>
<text text-anchor="middle" x="1058" y="-1064.3" font-family="Times,serif" font-size="14.00" fill="#0058ad">a 69 4</text>
</g>
<!-- T1832&#45;&gt;T1838 -->
<g id="edge24" class="edge">
<title>T1832:f4&#45;&gt;T1838:f2</title>
<path fill="none" stroke="#c02700" d="M1058,-1053C1058,-984.7 919.81,-1064.73 905.24,-1012.08"/>
<polygon fill="#c02700" stroke="#c02700" points="908.69,-1011.5 904,-1002 901.75,-1012.35 908.69,-1011.5"/>
<text text-anchor="middle" x="1063.5" y="-1023.8" font-family="Times,serif" font-size="14.00" fill="#c02700">ww</text>
</g>
<!-- T1801&#45;&gt;T1803 -->
<g id="edge25" class="edge">
<title>T1801:f1&#45;&gt;T1803:f1</title>
<path fill="none" stroke="#5b00c0" d="M2039,-30C2039,-104.7 2194,-20.3 2194,-95 2194,-1717 2194,-1717 2194,-1717 2194,-1779.07 1177.49,-1795.87 1050.1,-1796.94"/>
<polygon fill="#5b00c0" stroke="#5b00c0" points="1049.98,-1793.44 1040,-1797 1050.02,-1800.44 1049.98,-1793.44"/>
<text text-anchor="middle" x="2203.5" y="-902.3" font-family="Times,serif" font-size="14.00" fill="#5b00c0">rw</text>
</g>
<!-- T1828&#45;&gt;T1832 -->
<g id="edge26" class="edge">
<title>T1828:f2&#45;&gt;T1832:f2</title>
<path fill="none" stroke="#c02700" d="M914,-1134C914,-1115.23 914,-1108.12 914,-1093.35"/>
<polygon fill="#c02700" stroke="#c02700" points="917.5,-1093 914,-1083 910.5,-1093 917.5,-1093"/>
<text text-anchor="middle" x="926.5" y="-1104.8" font-family="Times,serif" font-size="14.00" fill="#c02700">ww</text>
</g>
<!-- T1828&#45;&gt;T1861 -->
<g id="edge27" class="edge">
<title>T1828:f1&#45;&gt;T1861:f1</title>
<path fill="none" stroke="#5b00c0" d="M848,-1134C848,-1078.49 779.93,-1114.17 734,-1083 705.26,-1063.5 678,-1063.23 678,-1028.5 678,-1028.5 678,-1028.5 678,-905 678,-853.41 468.82,-889.65 441.03,-849.73"/>
<polygon fill="#5b00c0" stroke="#5b00c0" points="444.32,-848.51 438,-840 437.63,-850.59 444.32,-848.51"/>
<text text-anchor="middle" x="687.5" y="-983.3" font-family="Times,serif" font-size="14.00" fill="#5b00c0">rw</text>
</g>
<!-- T1775&#45;&gt;T1792 -->
<g id="edge28" class="edge">
<title>T1775:f0&#45;&gt;T1792:f1</title>
<path fill="none" stroke="#5b00c0" d="M886,-486C886,-472.95 1340.09,-436.92 1353,-435 1386.11,-430.07 1427,-454.47 1427,-421 1427,-421 1427,-421 1427,-176 1427,-150.84 1427,-142.11 1427,-121.18"/>
<polygon fill="#5b00c0" stroke="#5b00c0" points="1430.5,-121 1427,-111 1423.5,-121 1430.5,-121"/>
<text text-anchor="middle" x="1436.5" y="-294.8" font-family="Times,serif" font-size="14.00" fill="#5b00c0">rw</text>
</g>
<!-- T1775&#45;&gt;T1779 -->
<g id="edge29" class="edge">
<title>T1775:f2&#45;&gt;T1779:f4</title>
<path fill="none" stroke="#c02700" d="M1303,-486C1303,-441.54 547.89,-477.59 465.31,-441.94"/>
<polygon fill="#c02700" stroke="#c02700" points="467.66,-439.35 458,-435 462.84,-444.42 467.66,-439.35"/>
<text text-anchor="middle" x="1227.5" y="-456.8" font-family="Times,serif" font-size="14.00" fill="#c02700">ww</text>
</g>
<!-- T1790&#45;&gt;T1792 -->
<g id="edge30" class="edge">
<title>T1790:f6&#45;&gt;T1792:f0</title>
<path fill="none" stroke="#c02700" d="M677,-162C677,-125.38 1021.47,-96.68 1310.73,-96.01"/>
<polygon fill="#c02700" stroke="#c02700" points="1311,-99.51 1321,-96 1311,-92.51 1311,-99.51"/>
<text text-anchor="middle" x="784.5" y="-132.8" font-family="Times,serif" font-size="14.00" fill="#c02700">ww</text>
</g>
<!-- T1790&#45;&gt;T1861 -->
<g id="edge31" class="edge">
<title>T1790:f0&#45;&gt;T1861:f1</title>
<path fill="none" stroke="#5b00c0" d="M69,-192C69,-221.11 61,-227.89 61,-257 61,-745 61,-745 61,-745 61,-824.68 155.56,-778 234,-792 253.69,-795.51 396.35,-789.18 430.62,-803.04"/>
<polygon fill="#5b00c0" stroke="#5b00c0" points="428.32,-805.69 438,-810 433.12,-800.59 428.32,-805.69"/>
<text text-anchor="middle" x="70.5" y="-497.3" font-family="Times,serif" font-size="14.00" fill="#5b00c0">rw</text>
</g>
<!-- T1811 -->
<g id="node17" class="node">
<title>T1811</title>
<polygon fill="none" stroke="#0058ad" points="29.5,-1620.5 29.5,-1649.5 840.5,-1649.5 840.5,-1620.5 29.5,-1620.5"/>
<text text-anchor="middle" x="156.5" y="-1631.3" font-family="Times,serif" font-size="14.00" fill="#0058ad">r 67 [5 6 7 12 13 14 18 19 22 23]</text>
<polyline fill="none" stroke="#0058ad" points="283.5,-1620.5 283.5,-1649.5 "/>
<text text-anchor="middle" x="318.5" y="-1631.3" font-family="Times,serif" font-size="14.00" fill="#0058ad">a 67 24</text>
<polyline fill="none" stroke="#0058ad" points="353.5,-1620.5 353.5,-1649.5 "/>
<text text-anchor="middle" x="388.5" y="-1631.3" font-family="Times,serif" font-size="14.00" fill="#0058ad">r 66 [1]</text>
<polyline fill="none" stroke="#0058ad" points="423.5,-1620.5 423.5,-1649.5 "/>
<text text-anchor="middle" x="562" y="-1631.3" font-family="Times,serif" font-size="14.00" fill="#0058ad">r 67 [5 6 7 12 13 14 18 19 22 23 24]</text>
<polyline fill="none" stroke="#0058ad" points="700.5,-1620.5 700.5,-1649.5 "/>
<text text-anchor="middle" x="735.5" y="-1631.3" font-family="Times,serif" font-size="14.00" fill="#0058ad">r 66 [1]</text>
<polyline fill="none" stroke="#0058ad" points="770.5,-1620.5 770.5,-1649.5 "/>
<text text-anchor="middle" x="805.5" y="-1631.3" font-family="Times,serif" font-size="14.00" fill="#0058ad">a 67 25</text>
</g>
<!-- T1811&#45;&gt;T1813 -->
<g id="edge32" class="edge">
<title>T1811:f5&#45;&gt;T1813:f0</title>
<path fill="none" stroke="#c02700" d="M806,-1620C806,-1601.23 806,-1594.12 806,-1579.35"/>
<polygon fill="#c02700" stroke="#c02700" points="809.5,-1579 806,-1569 802.5,-1579 809.5,-1579"/>
<text text-anchor="middle" x="818.5" y="-1590.8" font-family="Times,serif" font-size="14.00" fill="#c02700">ww</text>
</g>
<!-- T1811&#45;&gt;T1861 -->
<g id="edge33" class="edge">
<title>T1811:f2&#45;&gt;T1861:f1</title>
<path fill="none" stroke="#5b00c0" d="M388,-1620C388,-1588.37 359,-1586.63 359,-1555 359,-1555 359,-1555 359,-905 359,-863.44 425.01,-881.54 436.35,-850.23"/>
<polygon fill="#5b00c0" stroke="#5b00c0" points="439.86,-850.43 438,-840 432.95,-849.32 439.86,-850.43"/>
<text text-anchor="middle" x="368.5" y="-1226.3" font-family="Times,serif" font-size="14.00" fill="#5b00c0">rw</text>
</g>
<!-- T1779&#45;&gt;T1792 -->
<g id="edge36" class="edge">
<title>T1779:f6&#45;&gt;T1792:f1</title>
<path fill="none" stroke="#5b00c0" d="M866,-405C866,-376.06 870,-368.94 870,-340 870,-340 870,-340 870,-176 870,-117.1 1367.74,-167.15 1422.18,-120.17"/>
<polygon fill="#5b00c0" stroke="#5b00c0" points="1425.45,-121.48 1427,-111 1419.25,-118.23 1425.45,-121.48"/>
<text text-anchor="middle" x="879.5" y="-254.3" font-family="Times,serif" font-size="14.00" fill="#5b00c0">rw</text>
</g>
<!-- T1781 -->
<g id="node20" class="node">
<title>T1781</title>
<polygon fill="none" stroke="#0058ad" points="632,-324.5 632,-353.5 842,-353.5 842,-324.5 632,-324.5"/>
<text text-anchor="middle" x="667" y="-335.3" font-family="Times,serif" font-size="14.00" fill="#0058ad">a 67 14</text>
<polyline fill="none" stroke="#0058ad" points="702,-324.5 702,-353.5 "/>
<text text-anchor="middle" x="737" y="-335.3" font-family="Times,serif" font-size="14.00" fill="#0058ad">r 66 [1]</text>
<polyline fill="none" stroke="#0058ad" points="772,-324.5 772,-353.5 "/>
<text text-anchor="middle" x="807" y="-335.3" font-family="Times,serif" font-size="14.00" fill="#0058ad">r 66 [1]</text>
</g>
<!-- T1779&#45;&gt;T1781 -->
<g id="edge35" class="edge">
<title>T1779:f5&#45;&gt;T1781:f0</title>
<path fill="none" stroke="#c02700" d="M528,-405C528,-354.03 570.74,-340.62 620.88,-339.14"/>
<polygon fill="#c02700" stroke="#c02700" points="621.05,-342.64 631,-339 620.95,-335.64 621.05,-342.64"/>
<text text-anchor="middle" x="548.5" y="-375.8" font-family="Times,serif" font-size="14.00" fill="#c02700">ww</text>
</g>
<!-- T1779&#45;&gt;T1861 -->
<g id="edge34" class="edge">
<title>T1779:f0&#45;&gt;T1861:f1</title>
<path fill="none" stroke="#5b00c0" d="M124,-435C124,-487.64 223,-447.36 223,-500 223,-745 223,-745 223,-745 223,-806.02 293.32,-775.26 352,-792 367.4,-796.39 415.41,-792.55 432.16,-801.81"/>
<polygon fill="#5b00c0" stroke="#5b00c0" points="429.34,-803.89 438,-810 435.04,-799.83 429.34,-803.89"/>
<text text-anchor="middle" x="232.5" y="-618.8" font-family="Times,serif" font-size="14.00" fill="#5b00c0">rw</text>
</g>
<!-- T1817&#45;&gt;T1823 -->
<g id="edge37" class="edge">
<title>T1817:f3&#45;&gt;T1823:f2</title>
<path fill="none" stroke="#c02700" d="M978,-1392C1041.22,-1392 2070.61,-1371.98 2114,-1326 2123.15,-1316.3 2123.23,-1305.63 2114,-1296 2069.74,-1249.82 1009.27,-1306.54 918.22,-1252.91"/>
<polygon fill="#c02700" stroke="#c02700" points="920.93,-1250.7 912,-1245 915.43,-1255.02 920.93,-1250.7"/>
<text text-anchor="middle" x="2132.5" y="-1307.3" font-family="Times,serif" font-size="14.00" fill="#c02700">ww</text>
</g>
<!-- T1817&#45;&gt;T1821 -->
<g id="edge38" class="edge">
<title>T1817:f1&#45;&gt;T1821:f0</title>
<path fill="none" stroke="#c02700" d="M492,-1377C492,-1342.42 435.5,-1359.88 424.02,-1335.87"/>
<polygon fill="#c02700" stroke="#c02700" points="427.43,-1335.1 422,-1326 420.58,-1336.5 427.43,-1335.1"/>
<text text-anchor="middle" x="494.5" y="-1347.8" font-family="Times,serif" font-size="14.00" fill="#c02700">ww</text>
</g>
<!-- T1781&#45;&gt;T1783 -->
<g id="edge39" class="edge">
<title>T1781:f0&#45;&gt;T1783:f0</title>
<path fill="none" stroke="#c000a5" d="M667,-324C667,-290.82 937.19,-306.03 982.57,-280.97"/>
<polygon fill="#c000a5" stroke="#c000a5" points="985.45,-282.98 989,-273 980,-278.59 985.45,-282.98"/>
<text text-anchor="middle" x="945.5" y="-294.8" font-family="Times,serif" font-size="14.00" fill="#c000a5">wr</text>
</g>
<!-- T1781&#45;&gt;T1790 -->
<g id="edge41" class="edge">
<title>T1781:f0&#45;&gt;T1790:f6</title>
<path fill="none" stroke="#c02700" d="M667,-324C667,-268.73 675.83,-252.73 676.89,-202.22"/>
<polygon fill="#c02700" stroke="#c02700" points="680.4,-202.04 677,-192 673.4,-201.96 680.4,-202.04"/>
<text text-anchor="middle" x="686.5" y="-254.3" font-family="Times,serif" font-size="14.00" fill="#c02700">ww</text>
</g>
<!-- T1781&#45;&gt;T1861 -->
<g id="edge40" class="edge">
<title>T1781:f1&#45;&gt;T1861:f1</title>
<path fill="none" stroke="#5b00c0" d="M737,-354C737,-484.05 1232.14,-309.12 1320,-405 1329.01,-414.83 1329.16,-425.31 1320,-435 1295.93,-460.49 1039.7,-448.04 1005,-453 975.65,-457.19 969.37,-463.92 940,-468 899.78,-473.59 608.63,-463.25 575,-486 530.03,-516.42 555.59,-552.84 524,-597 474.43,-666.29 418.62,-650.72 385,-729 379.74,-741.25 379.78,-746.73 385,-759 390.2,-771.22 421.94,-786.46 433.66,-800.51"/>
<polygon fill="#5b00c0" stroke="#5b00c0" points="430.66,-802.36 438,-810 437.02,-799.45 430.66,-802.36"/>
<text text-anchor="middle" x="548.5" y="-578.3" font-family="Times,serif" font-size="14.00" fill="#5b00c0">rw</text>
</g>
<!-- T1807&#45;&gt;T1811 -->
<g id="edge42" class="edge">
<title>T1807:f2&#45;&gt;T1811:f1</title>
<path fill="none" stroke="#c02700" d="M1004,-1701C1004,-1551.72 349.78,-1791.15 319.11,-1660.09"/>
<polygon fill="#c02700" stroke="#c02700" points="322.58,-1659.56 318,-1650 315.62,-1660.32 322.58,-1659.56"/>
<text text-anchor="middle" x="1009.5" y="-1671.8" font-family="Times,serif" font-size="14.00" fill="#c02700">ww</text>
</g>
<!-- T1807&#45;&gt;T1817 -->
<g id="edge43" class="edge">
<title>T1807:f1&#45;&gt;T1817:f3</title>
<path fill="none" stroke="#5b00c0" d="M938,-1701C938,-1671.84 947,-1665.16 947,-1636 947,-1636 947,-1636 947,-1472 947,-1446.84 947,-1438.11 947,-1417.18"/>
<polygon fill="#5b00c0" stroke="#5b00c0" points="950.5,-1417 947,-1407 943.5,-1417 950.5,-1417"/>
<text text-anchor="middle" x="956.5" y="-1550.3" font-family="Times,serif" font-size="14.00" fill="#5b00c0">rw</text>
</g>
<!-- T1771&#45;&gt;T1773 -->
<g id="edge45" class="edge">
<title>T1771:f1&#45;&gt;T1773:f0</title>
<path fill="none" stroke="#c02700" d="M1538,-648C1538,-522.12 1267.03,-715.04 1251.68,-607.21"/>
<polygon fill="#c02700" stroke="#c02700" points="1255.15,-606.75 1251,-597 1248.17,-607.21 1255.15,-606.75"/>
<text text-anchor="middle" x="1547.5" y="-618.8" font-family="Times,serif" font-size="14.00" fill="#c02700">ww</text>
</g>
<!-- T1771&#45;&gt;T1792 -->
<g id="edge44" class="edge">
<title>T1771:f0&#45;&gt;T1792:f1</title>
<path fill="none" stroke="#5b00c0" d="M1204,-648C1204,-523.71 1476,-707.29 1476,-583 1476,-583 1476,-583 1476,-176 1476,-144.06 1494.1,-105.86 1473.09,-97.62"/>
<polygon fill="#5b00c0" stroke="#5b00c0" points="1473.43,-94.13 1463,-96 1472.32,-101.04 1473.43,-94.13"/>
<text text-anchor="middle" x="1485.5" y="-375.8" font-family="Times,serif" font-size="14.00" fill="#5b00c0">rw</text>
</g>
<!-- T1861&#45;&gt;T1769 -->
<g id="edge46" class="edge">
<title>T1861:f2&#45;&gt;T1769:f4</title>
<path fill="none" stroke="#5b00c0" d="M760,-810C760,-614.96 1188.1,-945.3 1203.57,-769.24"/>
<polygon fill="#5b00c0" stroke="#5b00c0" points="1207.08,-769.14 1204,-759 1200.08,-768.84 1207.08,-769.14"/>
<text text-anchor="middle" x="1210.5" y="-780.8" font-family="Times,serif" font-size="14.00" fill="#5b00c0">rw</text>
</g>
<!-- T1839&#45;&gt;T1841 -->
<g id="edge47" class="edge">
<title>T1839&#45;&gt;T1841</title>
<path fill="none" stroke="#0050c0" d="M1977.32,-191.76C1973.3,-201.23 1967.64,-214.03 1962,-225 1925.81,-295.32 1872,-299.42 1872,-378.5 1872,-826 1872,-826 1872,-826 1872,-879.8 1558.73,-897.04 1339.84,-902.51"/>
<polygon fill="#0050c0" stroke="#0050c0" points="1339.73,-899.01 1329.82,-902.75 1339.9,-906.01 1339.73,-899.01"/>
<text text-anchor="middle" x="1878.5" y="-537.8" font-family="Times,serif" font-size="14.00" fill="#0050c0">rt</text>
</g>
</g>
</svg>
