<?xml version="1.0" encoding="UTF-8" standalone="no"?>
<!DOCTYPE svg PUBLIC "-//W3C//DTD SVG 1.1//EN"
 "http://www.w3.org/Graphics/SVG/1.1/DTD/svg11.dtd">
<!-- Generated by graphviz version 2.43.0 (0)
 -->
<!-- Title: a_graph Pages: 1 -->
<svg width="2587pt" height="119pt"
 viewBox="0.00 0.00 2586.50 119.00" xmlns="http://www.w3.org/2000/svg" xmlns:xlink="http://www.w3.org/1999/xlink">
<g id="graph0" class="graph" transform="scale(1 1) rotate(0) translate(4 115)">
<title>a_graph</title>
<polygon fill="white" stroke="transparent" points="-4,4 -4,-115 2582.5,-115 2582.5,4 -4,4"/>
<!-- T149 -->
<g id="node1" class="node">
<title>T149</title>
<polygon fill="none" stroke="#0058ad" points="453.5,-81.5 453.5,-110.5 2578.5,-110.5 2578.5,-81.5 453.5,-81.5"/>
<text text-anchor="middle" x="484" y="-92.3" font-family="Times,serif" font-size="14.00" fill="#0058ad">a 0 30</text>
<polyline fill="none" stroke="#0058ad" points="514.5,-81.5 514.5,-110.5 "/>
<text text-anchor="middle" x="779" y="-92.3" font-family="Times,serif" font-size="14.00" fill="#0058ad">r 5 [1 2 3 4 5 6 7 8 9 10 11 12 13 14 15 16 20 21 22 23 24 25 26 27 28]</text>
<polyline fill="none" stroke="#0058ad" points="1043.5,-81.5 1043.5,-110.5 "/>
<text text-anchor="middle" x="1074" y="-92.3" font-family="Times,serif" font-size="14.00" fill="#0058ad">a 0 31</text>
<polyline fill="none" stroke="#0058ad" points="1104.5,-81.5 1104.5,-110.5 "/>
<text text-anchor="middle" x="1369" y="-92.3" font-family="Times,serif" font-size="14.00" fill="#0058ad">r 5 [1 2 3 4 5 6 7 8 9 10 11 12 13 14 15 16 20 21 22 23 24 25 26 27 28]</text>
<polyline fill="none" stroke="#0058ad" points="1633.5,-81.5 1633.5,-110.5 "/>
<text text-anchor="middle" x="1841.5" y="-92.3" font-family="Times,serif" font-size="14.00" fill="#0058ad">r 4 [1 2 3 4 5 6 7 8 9 10 11 16 18 19 20 22 26 27 28 29]</text>
<polyline fill="none" stroke="#0058ad" points="2049.5,-81.5 2049.5,-110.5 "/>
<text text-anchor="middle" x="2314" y="-92.3" font-family="Times,serif" font-size="14.00" fill="#0058ad">r 5 [1 2 3 4 5 6 7 8 9 10 11 12 13 14 15 16 20 21 22 23 24 25 26 27 28]</text>
</g>
<!-- T148 -->
<g id="node2" class="node">
<title>T148</title>
<polygon fill="none" stroke="#0058ad" points="0,-0.5 0,-29.5 1712,-29.5 1712,-0.5 0,-0.5"/>
<text text-anchor="middle" x="264.5" y="-11.3" font-family="Times,serif" font-size="14.00" fill="#0058ad">r 5 [1 2 3 4 5 6 7 8 9 10 11 12 13 14 15 16 20 21 22 23 24 25 26 27 28]</text>
<polyline fill="none" stroke="#0058ad" points="529,-0.5 529,-29.5 "/>
<text text-anchor="middle" x="559.5" y="-11.3" font-family="Times,serif" font-size="14.00" fill="#0058ad">a 5 29</text>
<polyline fill="none" stroke="#0058ad" points="590,-0.5 590,-29.5 "/>
<text text-anchor="middle" x="809.5" y="-11.3" font-family="Times,serif" font-size="14.00" fill="#0058ad">r 0 [1 2 3 4 5 6 7 8 9 10 12 13 14 15 16 24 25 26 27 28 29]</text>
<polyline fill="none" stroke="#0058ad" points="1029,-0.5 1029,-29.5 "/>
<text text-anchor="middle" x="1059.5" y="-11.3" font-family="Times,serif" font-size="14.00" fill="#0058ad">a 4 30</text>
<polyline fill="none" stroke="#0058ad" points="1090,-0.5 1090,-29.5 "/>
<text text-anchor="middle" x="1120.5" y="-11.3" font-family="Times,serif" font-size="14.00" fill="#0058ad">a 5 30</text>
<polyline fill="none" stroke="#0058ad" points="1151,-0.5 1151,-29.5 "/>
<text text-anchor="middle" x="1370.5" y="-11.3" font-family="Times,serif" font-size="14.00" fill="#0058ad">r 4 [1 2 3 4 5 6 7 8 9 10 11 16 18 19 20 22 26 27 28 29 30]</text>
<polyline fill="none" stroke="#0058ad" points="1590,-0.5 1590,-29.5 "/>
<text text-anchor="middle" x="1620.5" y="-11.3" font-family="Times,serif" font-size="14.00" fill="#0058ad">a 5 31</text>
<polyline fill="none" stroke="#0058ad" points="1651,-0.5 1651,-29.5 "/>
<text text-anchor="middle" x="1681.5" y="-11.3" font-family="Times,serif" font-size="14.00" fill="#0058ad">a 5 32</text>
</g>
<!-- T149&#45;&gt;T148 -->
<g id="edge1" class="edge">
<title>T149:f1&#45;&gt;T148:f1</title>
<path fill="none" stroke="#5b00c0" d="M779,-81C779,-55.13 689.19,-68.89 664,-63 620.09,-52.72 567.9,-74.92 560.02,-40.13"/>
<polygon fill="#5b00c0" stroke="#5b00c0" points="563.48,-39.6 559,-30 556.52,-40.3 563.48,-39.6"/>
<text text-anchor="middle" x="673.5" y="-51.8" font-family="Times,serif" font-size="14.00" fill="#5b00c0">rw</text>
</g>
<!-- T148&#45;&gt;T149 -->
<g id="edge2" class="edge">
<title>T148:f2&#45;&gt;T149:f0</title>
<path fill="none" stroke="#5b00c0" d="M809,-30C809,-87.89 740.02,-53.02 683,-63 663.86,-66.35 525.86,-60.62 491.65,-74.01"/>
<polygon fill="#5b00c0" stroke="#5b00c0" points="489.02,-71.67 484,-81 493.74,-76.84 489.02,-71.67"/>
<text text-anchor="middle" x="815.5" y="-51.8" font-family="Times,serif" font-size="14.00" fill="#5b00c0">rw</text>
</g>
</g>
</svg>
