<?xml version="1.0" encoding="UTF-8" standalone="no"?>
<!DOCTYPE svg PUBLIC "-//W3C//DTD SVG 1.1//EN"
 "http://www.w3.org/Graphics/SVG/1.1/DTD/svg11.dtd">
<!-- Generated by graphviz version 2.43.0 (0)
 -->
<!-- Title: a_graph Pages: 1 -->
<svg width="1017pt" height="119pt"
 viewBox="0.00 0.00 1016.50 119.00" xmlns="http://www.w3.org/2000/svg" xmlns:xlink="http://www.w3.org/1999/xlink">
<g id="graph0" class="graph" transform="scale(1 1) rotate(0) translate(4 115)">
<title>a_graph</title>
<polygon fill="white" stroke="transparent" points="-4,4 -4,-115 1012.5,-115 1012.5,4 -4,4"/>
<!-- T2386 -->
<g id="node1" class="node">
<title>T2386</title>
<polygon fill="none" stroke="#0058ad" points="0,-81.5 0,-110.5 668,-110.5 668,-81.5 0,-81.5"/>
<text text-anchor="middle" x="127" y="-92.3" font-family="Times,serif" font-size="14.00" fill="#0058ad">r 90 [6 7 8 10 11 12 13 14 15 16]</text>
<polyline fill="none" stroke="#0058ad" points="254,-81.5 254,-110.5 "/>
<text text-anchor="middle" x="322.5" y="-92.3" font-family="Times,serif" font-size="14.00" fill="#0058ad">r 89 [1 2 3 4 5 8]</text>
<polyline fill="none" stroke="#0058ad" points="391,-81.5 391,-110.5 "/>
<text text-anchor="middle" x="459.5" y="-92.3" font-family="Times,serif" font-size="14.00" fill="#0058ad">r 89 [1 2 3 4 5 8]</text>
<polyline fill="none" stroke="#0058ad" points="528,-81.5 528,-110.5 "/>
<text text-anchor="middle" x="563" y="-92.3" font-family="Times,serif" font-size="14.00" fill="#0058ad">a 90 17</text>
<polyline fill="none" stroke="#0058ad" points="598,-81.5 598,-110.5 "/>
<text text-anchor="middle" x="633" y="-92.3" font-family="Times,serif" font-size="14.00" fill="#0058ad">a 90 18</text>
</g>
<!-- T2385 -->
<g id="node2" class="node">
<title>T2385</title>
<polygon fill="none" stroke="#0058ad" points="99.5,-0.5 99.5,-29.5 1008.5,-29.5 1008.5,-0.5 99.5,-0.5"/>
<text text-anchor="middle" x="130" y="-11.3" font-family="Times,serif" font-size="14.00" fill="#0058ad">a 89 9</text>
<polyline fill="none" stroke="#0058ad" points="160.5,-0.5 160.5,-29.5 "/>
<text text-anchor="middle" x="236" y="-11.3" font-family="Times,serif" font-size="14.00" fill="#0058ad">r 89 [1 2 3 4 5 8 9]</text>
<polyline fill="none" stroke="#0058ad" points="311.5,-0.5 311.5,-29.5 "/>
<text text-anchor="middle" x="533" y="-11.3" font-family="Times,serif" font-size="14.00" fill="#0058ad">r 88 [1 2 3 4 7 8 9 10 11 12 13 14 15 16 17 18 19 20 22 23]</text>
<polyline fill="none" stroke="#0058ad" points="754.5,-0.5 754.5,-29.5 "/>
<text text-anchor="middle" x="881.5" y="-11.3" font-family="Times,serif" font-size="14.00" fill="#0058ad">r 90 [6 7 8 10 11 12 13 14 15 16]</text>
</g>
<!-- T2386&#45;&gt;T2385 -->
<g id="edge1" class="edge">
<title>T2386:f1&#45;&gt;T2385:f0</title>
<path fill="none" stroke="#5b00c0" d="M322,-81C322,3.5 146.15,-107.89 131.03,-40.23"/>
<polygon fill="#5b00c0" stroke="#5b00c0" points="134.49,-39.6 130,-30 127.52,-40.3 134.49,-39.6"/>
<text text-anchor="middle" x="326.5" y="-51.8" font-family="Times,serif" font-size="14.00" fill="#5b00c0">rw</text>
</g>
<!-- T2385&#45;&gt;T2386 -->
<g id="edge2" class="edge">
<title>T2385:f3&#45;&gt;T2386:f3</title>
<path fill="none" stroke="#5b00c0" d="M882,-30C882,-169.93 578.99,50.83 563.61,-70.79"/>
<polygon fill="#5b00c0" stroke="#5b00c0" points="560.1,-70.81 563,-81 567.09,-71.23 560.1,-70.81"/>
<text text-anchor="middle" x="887.5" y="-51.8" font-family="Times,serif" font-size="14.00" fill="#5b00c0">rw</text>
</g>
</g>
</svg>
