<?xml version="1.0" encoding="UTF-8" standalone="no"?>
<!DOCTYPE svg PUBLIC "-//W3C//DTD SVG 1.1//EN"
 "http://www.w3.org/Graphics/SVG/1.1/DTD/svg11.dtd">
<!-- Generated by graphviz version 2.43.0 (0)
 -->
<!-- Title: a_graph Pages: 1 -->
<svg width="400pt" height="119pt"
 viewBox="0.00 0.00 400.00 119.00" xmlns="http://www.w3.org/2000/svg" xmlns:xlink="http://www.w3.org/1999/xlink">
<g id="graph0" class="graph" transform="scale(1 1) rotate(0) translate(4 115)">
<title>a_graph</title>
<polygon fill="white" stroke="transparent" points="-4,4 -4,-115 396,-115 396,4 -4,4"/>
<!-- T1816 -->
<g id="node1" class="node">
<title>T1816</title>
<polygon fill="none" stroke="#0058ad" points="0.5,-81.5 0.5,-110.5 331.5,-110.5 331.5,-81.5 0.5,-81.5"/>
<text text-anchor="middle" x="31" y="-92.3" font-family="Times,serif" font-size="14.00" fill="#0058ad">r 72 []</text>
<polyline fill="none" stroke="#0058ad" points="61.5,-81.5 61.5,-110.5 "/>
<text text-anchor="middle" x="161.5" y="-92.3" font-family="Times,serif" font-size="14.00" fill="#0058ad">r 69 [1 2 3 4 5 6 7 8 9 10]</text>
<polyline fill="none" stroke="#0058ad" points="261.5,-81.5 261.5,-110.5 "/>
<text text-anchor="middle" x="296.5" y="-92.3" font-family="Times,serif" font-size="14.00" fill="#0058ad">a 70 11</text>
</g>
<!-- T1814 -->
<g id="node2" class="node">
<title>T1814</title>
<polygon fill="none" stroke="#0058ad" points="0,-0.5 0,-29.5 392,-29.5 392,-0.5 0,-0.5"/>
<text text-anchor="middle" x="30.5" y="-11.3" font-family="Times,serif" font-size="14.00" fill="#0058ad">r 72 []</text>
<polyline fill="none" stroke="#0058ad" points="61,-0.5 61,-29.5 "/>
<text text-anchor="middle" x="161" y="-11.3" font-family="Times,serif" font-size="14.00" fill="#0058ad">r 70 [1 2 3 4 5 6 7 8 9 10]</text>
<polyline fill="none" stroke="#0058ad" points="261,-0.5 261,-29.5 "/>
<text text-anchor="middle" x="296" y="-11.3" font-family="Times,serif" font-size="14.00" fill="#0058ad">a 69 11</text>
<polyline fill="none" stroke="#0058ad" points="331,-0.5 331,-29.5 "/>
<text text-anchor="middle" x="361.5" y="-11.3" font-family="Times,serif" font-size="14.00" fill="#0058ad">r 72 []</text>
</g>
<!-- T1816&#45;&gt;T1814 -->
<g id="edge1" class="edge">
<title>T1816:f1&#45;&gt;T1814:f2</title>
<path fill="none" stroke="#5b00c0" d="M161,-81C161,-46.2 199.37,-60.08 232,-48 255.6,-39.26 285.42,-53.78 293.75,-40.04"/>
<polygon fill="#5b00c0" stroke="#5b00c0" points="297.23,-40.52 296,-30 290.4,-38.99 297.23,-40.52"/>
<text text-anchor="middle" x="241.5" y="-51.8" font-family="Times,serif" font-size="14.00" fill="#5b00c0">rw</text>
</g>
<!-- T1814&#45;&gt;T1816 -->
<g id="edge2" class="edge">
<title>T1814:f1&#45;&gt;T1816:f2</title>
<path fill="none" stroke="#5b00c0" d="M161,-30C161,-50.4 232.29,-39.87 251,-48 270.47,-56.46 289.83,-56.22 295.41,-71.06"/>
<polygon fill="#5b00c0" stroke="#5b00c0" points="291.96,-71.68 297,-81 298.87,-70.57 291.96,-71.68"/>
<text text-anchor="middle" x="298.5" y="-51.8" font-family="Times,serif" font-size="14.00" fill="#5b00c0">rw</text>
</g>
</g>
</svg>
