<?xml version="1.0" encoding="UTF-8" standalone="no"?>
<!DOCTYPE svg PUBLIC "-//W3C//DTD SVG 1.1//EN"
 "http://www.w3.org/Graphics/SVG/1.1/DTD/svg11.dtd">
<!-- Generated by graphviz version 2.43.0 (0)
 -->
<!-- Title: a_graph Pages: 1 -->
<svg width="1135pt" height="119pt"
 viewBox="0.00 0.00 1134.50 119.00" xmlns="http://www.w3.org/2000/svg" xmlns:xlink="http://www.w3.org/1999/xlink">
<g id="graph0" class="graph" transform="scale(1 1) rotate(0) translate(4 115)">
<title>a_graph</title>
<polygon fill="white" stroke="transparent" points="-4,4 -4,-115 1130.5,-115 1130.5,4 -4,4"/>
<!-- T3087 -->
<g id="node1" class="node">
<title>T3087</title>
<polygon fill="none" stroke="#0058ad" points="0,-81.5 0,-110.5 1097,-110.5 1097,-81.5 0,-81.5"/>
<text text-anchor="middle" x="138.5" y="-92.3" font-family="Times,serif" font-size="14.00" fill="#0058ad">r 117 [1 2 3 4 5 6 7 8 9 10 11 12 13]</text>
<polyline fill="none" stroke="#0058ad" points="277,-81.5 277,-110.5 "/>
<text text-anchor="middle" x="415.5" y="-92.3" font-family="Times,serif" font-size="14.00" fill="#0058ad">r 117 [1 2 3 4 5 6 7 8 9 10 11 12 13]</text>
<polyline fill="none" stroke="#0058ad" points="554,-81.5 554,-110.5 "/>
<text text-anchor="middle" x="692.5" y="-92.3" font-family="Times,serif" font-size="14.00" fill="#0058ad">r 117 [1 2 3 4 5 6 7 8 9 10 11 12 13]</text>
<polyline fill="none" stroke="#0058ad" points="831,-81.5 831,-110.5 "/>
<text text-anchor="middle" x="870.5" y="-92.3" font-family="Times,serif" font-size="14.00" fill="#0058ad">a 118 11</text>
<polyline fill="none" stroke="#0058ad" points="910,-81.5 910,-110.5 "/>
<text text-anchor="middle" x="1003.5" y="-92.3" font-family="Times,serif" font-size="14.00" fill="#0058ad">r 116 [1 2 3 4 5 6 7 8 9]</text>
</g>
<!-- T3086 -->
<g id="node2" class="node">
<title>T3086</title>
<polygon fill="none" stroke="#0058ad" points="482.5,-0.5 482.5,-29.5 1126.5,-29.5 1126.5,-0.5 482.5,-0.5"/>
<text text-anchor="middle" x="621" y="-11.3" font-family="Times,serif" font-size="14.00" fill="#0058ad">r 117 [1 2 3 4 5 6 7 8 9 10 11 12 13]</text>
<polyline fill="none" stroke="#0058ad" points="759.5,-0.5 759.5,-29.5 "/>
<text text-anchor="middle" x="864" y="-11.3" font-family="Times,serif" font-size="14.00" fill="#0058ad">r 118 [1 2 3 4 5 6 7 8 9 10]</text>
<polyline fill="none" stroke="#0058ad" points="968.5,-0.5 968.5,-29.5 "/>
<text text-anchor="middle" x="1008" y="-11.3" font-family="Times,serif" font-size="14.00" fill="#0058ad">a 116 10</text>
<polyline fill="none" stroke="#0058ad" points="1047.5,-0.5 1047.5,-29.5 "/>
<text text-anchor="middle" x="1087" y="-11.3" font-family="Times,serif" font-size="14.00" fill="#0058ad">a 116 11</text>
</g>
<!-- T3087&#45;&gt;T3086 -->
<g id="edge1" class="edge">
<title>T3087:f4&#45;&gt;T3086:f2</title>
<path fill="none" stroke="#5b00c0" d="M1003.5,-81C1003.5,-62.14 1006.93,-55.16 1008.11,-40.38"/>
<polygon fill="#5b00c0" stroke="#5b00c0" points="1011.62,-40.13 1008.5,-30 1004.62,-39.86 1011.62,-40.13"/>
<text text-anchor="middle" x="1016" y="-51.8" font-family="Times,serif" font-size="14.00" fill="#5b00c0">rw</text>
</g>
<!-- T3086&#45;&gt;T3087 -->
<g id="edge2" class="edge">
<title>T3086:f1&#45;&gt;T3087:f3</title>
<path fill="none" stroke="#5b00c0" d="M864.5,-30C864.5,-48.9 868.61,-55.82 870.03,-70.6"/>
<polygon fill="#5b00c0" stroke="#5b00c0" points="866.55,-71.17 870.5,-81 873.54,-70.85 866.55,-71.17"/>
<text text-anchor="middle" x="878" y="-51.8" font-family="Times,serif" font-size="14.00" fill="#5b00c0">rw</text>
</g>
</g>
</svg>
