<?xml version="1.0" encoding="UTF-8" standalone="no"?>
<!DOCTYPE svg PUBLIC "-//W3C//DTD SVG 1.1//EN"
 "http://www.w3.org/Graphics/SVG/1.1/DTD/svg11.dtd">
<!-- Generated by graphviz version 2.43.0 (0)
 -->
<!-- Title: a_graph Pages: 1 -->
<svg width="454pt" height="119pt"
 viewBox="0.00 0.00 454.00 119.00" xmlns="http://www.w3.org/2000/svg" xmlns:xlink="http://www.w3.org/1999/xlink">
<g id="graph0" class="graph" transform="scale(1 1) rotate(0) translate(4 115)">
<title>a_graph</title>
<polygon fill="white" stroke="transparent" points="-4,4 -4,-115 450,-115 450,4 -4,4"/>
<!-- T315 -->
<g id="node1" class="node">
<title>T315</title>
<polygon fill="none" stroke="#0058ad" points="61.5,-81.5 61.5,-110.5 396.5,-110.5 396.5,-81.5 61.5,-81.5"/>
<text text-anchor="middle" x="92" y="-92.3" font-family="Times,serif" font-size="14.00" fill="#0058ad">a 13 3</text>
<polyline fill="none" stroke="#0058ad" points="122.5,-81.5 122.5,-110.5 "/>
<text text-anchor="middle" x="191" y="-92.3" font-family="Times,serif" font-size="14.00" fill="#0058ad">r 12 [1 2 3 4 5 6]</text>
<polyline fill="none" stroke="#0058ad" points="259.5,-81.5 259.5,-110.5 "/>
<text text-anchor="middle" x="328" y="-92.3" font-family="Times,serif" font-size="14.00" fill="#0058ad">r 12 [1 2 3 4 5 6]</text>
</g>
<!-- T314 -->
<g id="node2" class="node">
<title>T314</title>
<polygon fill="none" stroke="#0058ad" points="0,-0.5 0,-29.5 446,-29.5 446,-0.5 0,-0.5"/>
<text text-anchor="middle" x="30.5" y="-11.3" font-family="Times,serif" font-size="14.00" fill="#0058ad">a 12 7</text>
<polyline fill="none" stroke="#0058ad" points="61,-0.5 61,-29.5 "/>
<text text-anchor="middle" x="136.5" y="-11.3" font-family="Times,serif" font-size="14.00" fill="#0058ad">r 12 [1 2 3 4 5 6 7]</text>
<polyline fill="none" stroke="#0058ad" points="212,-0.5 212,-29.5 "/>
<text text-anchor="middle" x="253.5" y="-11.3" font-family="Times,serif" font-size="14.00" fill="#0058ad">r 13 [1 2]</text>
<polyline fill="none" stroke="#0058ad" points="295,-0.5 295,-29.5 "/>
<text text-anchor="middle" x="370.5" y="-11.3" font-family="Times,serif" font-size="14.00" fill="#0058ad">r 12 [1 2 3 4 5 6 7]</text>
</g>
<!-- T315&#45;&gt;T314 -->
<g id="edge1" class="edge">
<title>T315:f1&#45;&gt;T314:f0</title>
<path fill="none" stroke="#5b00c0" d="M191,-81C191,-50.18 159.09,-58.19 130,-48 112.1,-41.73 53.73,-49.22 35.5,-38.41"/>
<polygon fill="#5b00c0" stroke="#5b00c0" points="38.4,-36.45 30,-30 32.54,-40.29 38.4,-36.45"/>
<text text-anchor="middle" x="193.5" y="-51.8" font-family="Times,serif" font-size="14.00" fill="#5b00c0">rw</text>
</g>
<!-- T314&#45;&gt;T315 -->
<g id="edge2" class="edge">
<title>T314:f2&#45;&gt;T315:f0</title>
<path fill="none" stroke="#5b00c0" d="M254,-30C254,-62.91 133.53,-28.53 107,-48 97.06,-55.3 93.55,-61.32 92.45,-70.97"/>
<polygon fill="#5b00c0" stroke="#5b00c0" points="88.95,-70.85 92,-81 95.94,-71.17 88.95,-70.85"/>
<text text-anchor="middle" x="116.5" y="-51.8" font-family="Times,serif" font-size="14.00" fill="#5b00c0">rw</text>
</g>
</g>
</svg>
