<?xml version="1.0" encoding="UTF-8" standalone="no"?>
<!DOCTYPE svg PUBLIC "-//W3C//DTD SVG 1.1//EN"
 "http://www.w3.org/Graphics/SVG/1.1/DTD/svg11.dtd">
<!-- Generated by graphviz version 2.43.0 (0)
 -->
<!-- Title: a_graph Pages: 1 -->
<svg width="2273pt" height="119pt"
 viewBox="0.00 0.00 2273.00 119.00" xmlns="http://www.w3.org/2000/svg" xmlns:xlink="http://www.w3.org/1999/xlink">
<g id="graph0" class="graph" transform="scale(1 1) rotate(0) translate(4 115)">
<title>a_graph</title>
<polygon fill="white" stroke="transparent" points="-4,4 -4,-115 2269,-115 2269,4 -4,4"/>
<!-- T138 -->
<g id="node1" class="node">
<title>T138</title>
<polygon fill="none" stroke="#0058ad" points="0,-81.5 0,-110.5 2265,-110.5 2265,-81.5 0,-81.5"/>
<text text-anchor="middle" x="152" y="-92.3" font-family="Times,serif" font-size="14.00" fill="#0058ad">r 5 [1 2 3 4 5 6 7 8 9 10 11 12 13 14 15]</text>
<polyline fill="none" stroke="#0058ad" points="304,-81.5 304,-110.5 "/>
<text text-anchor="middle" x="523.5" y="-92.3" font-family="Times,serif" font-size="14.00" fill="#0058ad">r 0 [1 2 3 4 5 6 7 8 9 10 11 12 13 14 15 16 17 18 19 20 21]</text>
<polyline fill="none" stroke="#0058ad" points="743,-81.5 743,-110.5 "/>
<text text-anchor="middle" x="1030" y="-92.3" font-family="Times,serif" font-size="14.00" fill="#0058ad">r 4 [1 2 3 4 5 6 7 8 9 10 11 12 13 14 15 16 17 18 19 20 21 22 23 24 25 26 27]</text>
<polyline fill="none" stroke="#0058ad" points="1317,-81.5 1317,-110.5 "/>
<text text-anchor="middle" x="1536.5" y="-92.3" font-family="Times,serif" font-size="14.00" fill="#0058ad">r 0 [1 2 3 4 5 6 7 8 9 10 11 12 13 14 15 16 17 18 19 20 21]</text>
<polyline fill="none" stroke="#0058ad" points="1756,-81.5 1756,-110.5 "/>
<text text-anchor="middle" x="1786.5" y="-92.3" font-family="Times,serif" font-size="14.00" fill="#0058ad">a 5 16</text>
<polyline fill="none" stroke="#0058ad" points="1817,-81.5 1817,-110.5 "/>
<text text-anchor="middle" x="1980" y="-92.3" font-family="Times,serif" font-size="14.00" fill="#0058ad">r 5 [1 2 3 4 5 6 7 8 9 10 11 12 13 14 15 16]</text>
<polyline fill="none" stroke="#0058ad" points="2143,-81.5 2143,-110.5 "/>
<text text-anchor="middle" x="2173.5" y="-92.3" font-family="Times,serif" font-size="14.00" fill="#0058ad">a 0 22</text>
<polyline fill="none" stroke="#0058ad" points="2204,-81.5 2204,-110.5 "/>
<text text-anchor="middle" x="2234.5" y="-92.3" font-family="Times,serif" font-size="14.00" fill="#0058ad">a 5 17</text>
</g>
<!-- T139 -->
<g id="node2" class="node">
<title>T139</title>
<polygon fill="none" stroke="#0058ad" points="986.5,-0.5 986.5,-29.5 2114.5,-29.5 2114.5,-0.5 986.5,-0.5"/>
<text text-anchor="middle" x="1138.5" y="-11.3" font-family="Times,serif" font-size="14.00" fill="#0058ad">r 5 [1 2 3 4 5 6 7 8 9 10 11 12 13 14 15]</text>
<polyline fill="none" stroke="#0058ad" points="1290.5,-0.5 1290.5,-29.5 "/>
<text text-anchor="middle" x="1321" y="-11.3" font-family="Times,serif" font-size="14.00" fill="#0058ad">a 4 28</text>
<polyline fill="none" stroke="#0058ad" points="1351.5,-0.5 1351.5,-29.5 "/>
<text text-anchor="middle" x="1382" y="-11.3" font-family="Times,serif" font-size="14.00" fill="#0058ad">a 4 29</text>
<polyline fill="none" stroke="#0058ad" points="1412.5,-0.5 1412.5,-29.5 "/>
<text text-anchor="middle" x="1443" y="-11.3" font-family="Times,serif" font-size="14.00" fill="#0058ad">a 4 30</text>
<polyline fill="none" stroke="#0058ad" points="1473.5,-0.5 1473.5,-29.5 "/>
<text text-anchor="middle" x="1794" y="-11.3" font-family="Times,serif" font-size="14.00" fill="#0058ad">r 4 [1 2 3 4 5 6 7 8 9 10 11 12 13 14 15 16 17 18 19 20 21 22 23 24 25 26 27 28 29 30]</text>
</g>
<!-- T138&#45;&gt;T139 -->
<g id="edge1" class="edge">
<title>T138:f2&#45;&gt;T139:f1</title>
<path fill="none" stroke="#5b00c0" d="M1029.5,-81C1029.5,46.71 1304.8,-149.99 1319.86,-40.02"/>
<polygon fill="#5b00c0" stroke="#5b00c0" points="1323.35,-40.2 1320.5,-30 1316.37,-39.76 1323.35,-40.2"/>
<text text-anchor="middle" x="1327" y="-51.8" font-family="Times,serif" font-size="14.00" fill="#5b00c0">rw</text>
</g>
<!-- T139&#45;&gt;T138 -->
<g id="edge2" class="edge">
<title>T139:f0&#45;&gt;T138:f4</title>
<path fill="none" stroke="#5b00c0" d="M1138.5,-30C1138.5,-38.37 1695.05,-67.27 1776.58,-78.65"/>
<polygon fill="#5b00c0" stroke="#5b00c0" points="1775.96,-82.1 1786.5,-81 1777.58,-75.29 1775.96,-82.1"/>
<text text-anchor="middle" x="1586" y="-51.8" font-family="Times,serif" font-size="14.00" fill="#5b00c0">rw</text>
</g>
</g>
</svg>
