<?xml version="1.0" encoding="UTF-8" standalone="no"?>
<!DOCTYPE svg PUBLIC "-//W3C//DTD SVG 1.1//EN"
 "http://www.w3.org/Graphics/SVG/1.1/DTD/svg11.dtd">
<!-- Generated by graphviz version 2.43.0 (0)
 -->
<!-- Title: a_graph Pages: 1 -->
<svg width="992pt" height="119pt"
 viewBox="0.00 0.00 991.50 119.00" xmlns="http://www.w3.org/2000/svg" xmlns:xlink="http://www.w3.org/1999/xlink">
<g id="graph0" class="graph" transform="scale(1 1) rotate(0) translate(4 115)">
<title>a_graph</title>
<polygon fill="white" stroke="transparent" points="-4,4 -4,-115 987.5,-115 987.5,4 -4,4"/>
<!-- T491 -->
<g id="node1" class="node">
<title>T491</title>
<polygon fill="none" stroke="#0058ad" points="300.5,-81.5 300.5,-110.5 983.5,-110.5 983.5,-81.5 300.5,-81.5"/>
<text text-anchor="middle" x="335.5" y="-92.3" font-family="Times,serif" font-size="14.00" fill="#0058ad">r 21 [1]</text>
<polyline fill="none" stroke="#0058ad" points="370.5,-81.5 370.5,-110.5 "/>
<text text-anchor="middle" x="405.5" y="-92.3" font-family="Times,serif" font-size="14.00" fill="#0058ad">a 18 21</text>
<polyline fill="none" stroke="#0058ad" points="440.5,-81.5 440.5,-110.5 "/>
<text text-anchor="middle" x="475.5" y="-92.3" font-family="Times,serif" font-size="14.00" fill="#0058ad">r 21 [1]</text>
<polyline fill="none" stroke="#0058ad" points="510.5,-81.5 510.5,-110.5 "/>
<text text-anchor="middle" x="712" y="-92.3" font-family="Times,serif" font-size="14.00" fill="#0058ad">r 18 [1 2 3 4 5 6 7 8 9 10 11 12 13 14 15 16 17 18 21]</text>
<polyline fill="none" stroke="#0058ad" points="913.5,-81.5 913.5,-110.5 "/>
<text text-anchor="middle" x="948.5" y="-92.3" font-family="Times,serif" font-size="14.00" fill="#0058ad">r 21 [1]</text>
</g>
<!-- T490 -->
<g id="node2" class="node">
<title>T490</title>
<polygon fill="none" stroke="#0058ad" points="0,-0.5 0,-29.5 594,-29.5 594,-0.5 0,-0.5"/>
<text text-anchor="middle" x="35" y="-11.3" font-family="Times,serif" font-size="14.00" fill="#0058ad">r 21 [1]</text>
<polyline fill="none" stroke="#0058ad" points="70,-0.5 70,-29.5 "/>
<text text-anchor="middle" x="260" y="-11.3" font-family="Times,serif" font-size="14.00" fill="#0058ad">r 18 [1 2 3 4 5 6 7 8 9 10 11 12 13 14 15 16 17 18]</text>
<polyline fill="none" stroke="#0058ad" points="450,-0.5 450,-29.5 "/>
<text text-anchor="middle" x="480.5" y="-11.3" font-family="Times,serif" font-size="14.00" fill="#0058ad">a 21 2</text>
<polyline fill="none" stroke="#0058ad" points="511,-0.5 511,-29.5 "/>
<text text-anchor="middle" x="552.5" y="-11.3" font-family="Times,serif" font-size="14.00" fill="#0058ad">r 21 [1 2]</text>
</g>
<!-- T491&#45;&gt;T490 -->
<g id="edge1" class="edge">
<title>T491:f0&#45;&gt;T490:f2</title>
<path fill="none" stroke="#5b00c0" d="M335,-81C335,-63.37 342.1,-57.42 357,-48 377.32,-35.16 454.97,-51.83 475.82,-38.71"/>
<polygon fill="#5b00c0" stroke="#5b00c0" points="478.9,-40.38 481,-30 472.88,-36.81 478.9,-40.38"/>
<text text-anchor="middle" x="366.5" y="-51.8" font-family="Times,serif" font-size="14.00" fill="#5b00c0">rw</text>
</g>
<!-- T490&#45;&gt;T491 -->
<g id="edge2" class="edge">
<title>T490:f1&#45;&gt;T491:f1</title>
<path fill="none" stroke="#5b00c0" d="M260,-30C260,-56.09 353.13,-35.45 376,-48 389.64,-55.49 399.96,-59.6 403.58,-70.84"/>
<polygon fill="#5b00c0" stroke="#5b00c0" points="400.15,-71.58 405,-81 407.09,-70.61 400.15,-71.58"/>
<text text-anchor="middle" x="407.5" y="-51.8" font-family="Times,serif" font-size="14.00" fill="#5b00c0">rw</text>
</g>
</g>
</svg>
