<?xml version="1.0" encoding="UTF-8" standalone="no"?>
<!DOCTYPE svg PUBLIC "-//W3C//DTD SVG 1.1//EN"
 "http://www.w3.org/Graphics/SVG/1.1/DTD/svg11.dtd">
<!-- Generated by graphviz version 2.43.0 (0)
 -->
<!-- Title: a_graph Pages: 1 -->
<svg width="412pt" height="119pt"
 viewBox="0.00 0.00 412.00 119.00" xmlns="http://www.w3.org/2000/svg" xmlns:xlink="http://www.w3.org/1999/xlink">
<g id="graph0" class="graph" transform="scale(1 1) rotate(0) translate(4 115)">
<title>a_graph</title>
<polygon fill="white" stroke="transparent" points="-4,4 -4,-115 408,-115 408,4 -4,4"/>
<!-- T3097 -->
<g id="node1" class="node">
<title>T3097</title>
<polygon fill="none" stroke="#0058ad" points="0,-81.5 0,-110.5 404,-110.5 404,-81.5 0,-81.5"/>
<text text-anchor="middle" x="39.5" y="-92.3" font-family="Times,serif" font-size="14.00" fill="#0058ad">r 1296 []</text>
<polyline fill="none" stroke="#0058ad" points="79,-81.5 79,-110.5 "/>
<text text-anchor="middle" x="123" y="-92.3" font-family="Times,serif" font-size="14.00" fill="#0058ad">r 1292 [1]</text>
<polyline fill="none" stroke="#0058ad" points="167,-81.5 167,-110.5 "/>
<text text-anchor="middle" x="206.5" y="-92.3" font-family="Times,serif" font-size="14.00" fill="#0058ad">a 1297 2</text>
<polyline fill="none" stroke="#0058ad" points="246,-81.5 246,-110.5 "/>
<text text-anchor="middle" x="285.5" y="-92.3" font-family="Times,serif" font-size="14.00" fill="#0058ad">a 1290 2</text>
<polyline fill="none" stroke="#0058ad" points="325,-81.5 325,-110.5 "/>
<text text-anchor="middle" x="364.5" y="-92.3" font-family="Times,serif" font-size="14.00" fill="#0058ad">a 1297 3</text>
</g>
<!-- T3096 -->
<g id="node2" class="node">
<title>T3096</title>
<polygon fill="none" stroke="#0058ad" points="35,-0.5 35,-29.5 369,-29.5 369,-0.5 35,-0.5"/>
<text text-anchor="middle" x="79" y="-11.3" font-family="Times,serif" font-size="14.00" fill="#0058ad">r 1297 [1]</text>
<polyline fill="none" stroke="#0058ad" points="123,-0.5 123,-29.5 "/>
<text text-anchor="middle" x="167" y="-11.3" font-family="Times,serif" font-size="14.00" fill="#0058ad">r 1297 [1]</text>
<polyline fill="none" stroke="#0058ad" points="211,-0.5 211,-29.5 "/>
<text text-anchor="middle" x="250.5" y="-11.3" font-family="Times,serif" font-size="14.00" fill="#0058ad">a 1292 2</text>
<polyline fill="none" stroke="#0058ad" points="290,-0.5 290,-29.5 "/>
<text text-anchor="middle" x="329.5" y="-11.3" font-family="Times,serif" font-size="14.00" fill="#0058ad">r 1298 []</text>
</g>
<!-- T3097&#45;&gt;T3096 -->
<g id="edge1" class="edge">
<title>T3097:f1&#45;&gt;T3096:f2</title>
<path fill="none" stroke="#5b00c0" d="M123,-81C123,-60.26 137.66,-57.69 156,-48 171.73,-39.68 226.56,-47.53 244.94,-38.27"/>
<polygon fill="#5b00c0" stroke="#5b00c0" points="247.91,-40.14 251,-30 242.27,-36 247.91,-40.14"/>
<text text-anchor="middle" x="165.5" y="-51.8" font-family="Times,serif" font-size="14.00" fill="#5b00c0">rw</text>
</g>
<!-- T3096&#45;&gt;T3097 -->
<g id="edge2" class="edge">
<title>T3096:f0&#45;&gt;T3097:f2</title>
<path fill="none" stroke="#5b00c0" d="M79,-30C79,-51.71 155.88,-37.73 175,-48 189.48,-55.78 201.38,-59.18 205.47,-70.85"/>
<polygon fill="#5b00c0" stroke="#5b00c0" points="202.05,-71.63 207,-81 208.97,-70.59 202.05,-71.63"/>
<text text-anchor="middle" x="210.5" y="-51.8" font-family="Times,serif" font-size="14.00" fill="#5b00c0">rw</text>
</g>
</g>
</svg>
