<?xml version="1.0" encoding="UTF-8" standalone="no"?>
<!DOCTYPE svg PUBLIC "-//W3C//DTD SVG 1.1//EN"
 "http://www.w3.org/Graphics/SVG/1.1/DTD/svg11.dtd">
<!-- Generated by graphviz version 2.43.0 (0)
 -->
<!-- Title: a_graph Pages: 1 -->
<svg width="335pt" height="119pt"
 viewBox="0.00 0.00 335.00 119.00" xmlns="http://www.w3.org/2000/svg" xmlns:xlink="http://www.w3.org/1999/xlink">
<g id="graph0" class="graph" transform="scale(1 1) rotate(0) translate(4 115)">
<title>a_graph</title>
<polygon fill="white" stroke="transparent" points="-4,4 -4,-115 331,-115 331,4 -4,4"/>
<!-- T207 -->
<g id="node1" class="node">
<title>T207</title>
<polygon fill="none" stroke="#0058ad" points="0,-81.5 0,-110.5 327,-110.5 327,-81.5 0,-81.5"/>
<text text-anchor="middle" x="30.5" y="-92.3" font-family="Times,serif" font-size="14.00" fill="#0058ad">r 87 []</text>
<polyline fill="none" stroke="#0058ad" points="61,-81.5 61,-110.5 "/>
<text text-anchor="middle" x="102.5" y="-92.3" font-family="Times,serif" font-size="14.00" fill="#0058ad">r 86 [1 2]</text>
<polyline fill="none" stroke="#0058ad" points="144,-81.5 144,-110.5 "/>
<text text-anchor="middle" x="174.5" y="-92.3" font-family="Times,serif" font-size="14.00" fill="#0058ad">r 87 []</text>
<polyline fill="none" stroke="#0058ad" points="205,-81.5 205,-110.5 "/>
<text text-anchor="middle" x="235.5" y="-92.3" font-family="Times,serif" font-size="14.00" fill="#0058ad">a 87 1</text>
<polyline fill="none" stroke="#0058ad" points="266,-81.5 266,-110.5 "/>
<text text-anchor="middle" x="296.5" y="-92.3" font-family="Times,serif" font-size="14.00" fill="#0058ad">a 87 2</text>
</g>
<!-- T206 -->
<g id="node2" class="node">
<title>T206</title>
<polygon fill="none" stroke="#0058ad" points="46.5,-0.5 46.5,-29.5 290.5,-29.5 290.5,-0.5 46.5,-0.5"/>
<text text-anchor="middle" x="77" y="-11.3" font-family="Times,serif" font-size="14.00" fill="#0058ad">r 87 []</text>
<polyline fill="none" stroke="#0058ad" points="107.5,-0.5 107.5,-29.5 "/>
<text text-anchor="middle" x="138" y="-11.3" font-family="Times,serif" font-size="14.00" fill="#0058ad">r 87 []</text>
<polyline fill="none" stroke="#0058ad" points="168.5,-0.5 168.5,-29.5 "/>
<text text-anchor="middle" x="199" y="-11.3" font-family="Times,serif" font-size="14.00" fill="#0058ad">a 60 2</text>
<polyline fill="none" stroke="#0058ad" points="229.5,-0.5 229.5,-29.5 "/>
<text text-anchor="middle" x="260" y="-11.3" font-family="Times,serif" font-size="14.00" fill="#0058ad">a 86 3</text>
</g>
<!-- T207&#45;&gt;T206 -->
<g id="edge1" class="edge">
<title>T207:f1&#45;&gt;T206:f3</title>
<path fill="none" stroke="#5b00c0" d="M102.5,-81C102.5,-47.01 139.26,-58.78 171.5,-48 187.2,-42.75 237.03,-47.58 254.43,-38.35"/>
<polygon fill="#5b00c0" stroke="#5b00c0" points="257.45,-40.15 260.5,-30 251.79,-36.03 257.45,-40.15"/>
<text text-anchor="middle" x="181" y="-51.8" font-family="Times,serif" font-size="14.00" fill="#5b00c0">rw</text>
</g>
<!-- T206&#45;&gt;T207 -->
<g id="edge2" class="edge">
<title>T206:f0&#45;&gt;T207:f3</title>
<path fill="none" stroke="#5b00c0" d="M76.5,-30C76.5,-55.65 166.82,-38.14 190.5,-48 209.64,-55.97 228.23,-56.34 233.81,-70.74"/>
<polygon fill="#5b00c0" stroke="#5b00c0" points="230.42,-71.7 235.5,-81 237.33,-70.56 230.42,-71.7"/>
<text text-anchor="middle" x="238" y="-51.8" font-family="Times,serif" font-size="14.00" fill="#5b00c0">rw</text>
</g>
</g>
</svg>
