<?xml version="1.0" encoding="UTF-8" standalone="no"?>
<!DOCTYPE svg PUBLIC "-//W3C//DTD SVG 1.1//EN"
 "http://www.w3.org/Graphics/SVG/1.1/DTD/svg11.dtd">
<!-- Generated by graphviz version 2.43.0 (0)
 -->
<!-- Title: a_graph Pages: 1 -->
<svg width="576pt" height="119pt"
 viewBox="0.00 0.00 576.00 119.00" xmlns="http://www.w3.org/2000/svg" xmlns:xlink="http://www.w3.org/1999/xlink">
<g id="graph0" class="graph" transform="scale(1 1) rotate(0) translate(4 115)">
<title>a_graph</title>
<polygon fill="white" stroke="transparent" points="-4,4 -4,-115 572,-115 572,4 -4,4"/>
<!-- T452 -->
<g id="node1" class="node">
<title>T452</title>
<polygon fill="none" stroke="#0058ad" points="0,-81.5 0,-110.5 552,-110.5 552,-81.5 0,-81.5"/>
<text text-anchor="middle" x="35" y="-92.3" font-family="Times,serif" font-size="14.00" fill="#0058ad">r 196 []</text>
<polyline fill="none" stroke="#0058ad" points="70,-81.5 70,-110.5 "/>
<text text-anchor="middle" x="105" y="-92.3" font-family="Times,serif" font-size="14.00" fill="#0058ad">r 196 []</text>
<polyline fill="none" stroke="#0058ad" points="140,-81.5 140,-110.5 "/>
<text text-anchor="middle" x="175" y="-92.3" font-family="Times,serif" font-size="14.00" fill="#0058ad">a 195 2</text>
<polyline fill="none" stroke="#0058ad" points="210,-81.5 210,-110.5 "/>
<text text-anchor="middle" x="256" y="-92.3" font-family="Times,serif" font-size="14.00" fill="#0058ad">r 195 [1 2]</text>
<polyline fill="none" stroke="#0058ad" points="302,-81.5 302,-110.5 "/>
<text text-anchor="middle" x="348" y="-92.3" font-family="Times,serif" font-size="14.00" fill="#0058ad">r 195 [1 2]</text>
<polyline fill="none" stroke="#0058ad" points="394,-81.5 394,-110.5 "/>
<text text-anchor="middle" x="433.5" y="-92.3" font-family="Times,serif" font-size="14.00" fill="#0058ad">r 192 [1]</text>
<polyline fill="none" stroke="#0058ad" points="473,-81.5 473,-110.5 "/>
<text text-anchor="middle" x="512.5" y="-92.3" font-family="Times,serif" font-size="14.00" fill="#0058ad">r 192 [1]</text>
</g>
<!-- T453 -->
<g id="node2" class="node">
<title>T453</title>
<polygon fill="none" stroke="#0058ad" points="42,-0.5 42,-29.5 568,-29.5 568,-0.5 42,-0.5"/>
<text text-anchor="middle" x="77" y="-11.3" font-family="Times,serif" font-size="14.00" fill="#0058ad">a 196 1</text>
<polyline fill="none" stroke="#0058ad" points="112,-0.5 112,-29.5 "/>
<text text-anchor="middle" x="151.5" y="-11.3" font-family="Times,serif" font-size="14.00" fill="#0058ad">r 195 [1]</text>
<polyline fill="none" stroke="#0058ad" points="191,-0.5 191,-29.5 "/>
<text text-anchor="middle" x="230.5" y="-11.3" font-family="Times,serif" font-size="14.00" fill="#0058ad">r 192 [1]</text>
<polyline fill="none" stroke="#0058ad" points="270,-0.5 270,-29.5 "/>
<text text-anchor="middle" x="305" y="-11.3" font-family="Times,serif" font-size="14.00" fill="#0058ad">a 196 2</text>
<polyline fill="none" stroke="#0058ad" points="340,-0.5 340,-29.5 "/>
<text text-anchor="middle" x="379.5" y="-11.3" font-family="Times,serif" font-size="14.00" fill="#0058ad">r 195 [1]</text>
<polyline fill="none" stroke="#0058ad" points="419,-0.5 419,-29.5 "/>
<text text-anchor="middle" x="458.5" y="-11.3" font-family="Times,serif" font-size="14.00" fill="#0058ad">r 192 [1]</text>
<polyline fill="none" stroke="#0058ad" points="498,-0.5 498,-29.5 "/>
<text text-anchor="middle" x="533" y="-11.3" font-family="Times,serif" font-size="14.00" fill="#0058ad">a 196 3</text>
</g>
<!-- T452&#45;&gt;T453 -->
<g id="edge1" class="edge">
<title>T452:f0&#45;&gt;T453:f0</title>
<path fill="none" stroke="#5b00c0" d="M35,-81C35,-55.92 17.99,-25.69 31.13,-17.27"/>
<polygon fill="#5b00c0" stroke="#5b00c0" points="32.04,-20.66 41,-15 30.47,-13.83 32.04,-20.66"/>
<text text-anchor="middle" x="42.5" y="-51.8" font-family="Times,serif" font-size="14.00" fill="#5b00c0">rw</text>
</g>
<!-- T453&#45;&gt;T452 -->
<g id="edge2" class="edge">
<title>T453:f1&#45;&gt;T452:f2</title>
<path fill="none" stroke="#5b00c0" d="M151,-30C151,-51.14 168.09,-55.08 173.43,-70.84"/>
<polygon fill="#5b00c0" stroke="#5b00c0" points="170.01,-71.65 175,-81 176.93,-70.58 170.01,-71.65"/>
<text text-anchor="middle" x="179.5" y="-51.8" font-family="Times,serif" font-size="14.00" fill="#5b00c0">rw</text>
</g>
</g>
</svg>
