<?xml version="1.0" encoding="UTF-8" standalone="no"?>
<!DOCTYPE svg PUBLIC "-//W3C//DTD SVG 1.1//EN"
 "http://www.w3.org/Graphics/SVG/1.1/DTD/svg11.dtd">
<!-- Generated by graphviz version 2.43.0 (0)
 -->
<!-- Title: a_graph Pages: 1 -->
<svg width="446pt" height="119pt"
 viewBox="0.00 0.00 446.00 119.00" xmlns="http://www.w3.org/2000/svg" xmlns:xlink="http://www.w3.org/1999/xlink">
<g id="graph0" class="graph" transform="scale(1 1) rotate(0) translate(4 115)">
<title>a_graph</title>
<polygon fill="white" stroke="transparent" points="-4,4 -4,-115 442,-115 442,4 -4,4"/>
<!-- T6 -->
<g id="node1" class="node">
<title>T6</title>
<polygon fill="none" stroke="#0058ad" points="0,-81.5 0,-110.5 422,-110.5 422,-81.5 0,-81.5"/>
<text text-anchor="middle" x="37" y="-92.3" font-family="Times,serif" font-size="14.00" fill="#0058ad">r 5 [1 2]</text>
<polyline fill="none" stroke="#0058ad" points="74,-81.5 74,-110.5 "/>
<text text-anchor="middle" x="100" y="-92.3" font-family="Times,serif" font-size="14.00" fill="#0058ad">r 2 []</text>
<polyline fill="none" stroke="#0058ad" points="126,-81.5 126,-110.5 "/>
<text text-anchor="middle" x="152" y="-92.3" font-family="Times,serif" font-size="14.00" fill="#0058ad">a 5 3</text>
<polyline fill="none" stroke="#0058ad" points="178,-81.5 178,-110.5 "/>
<text text-anchor="middle" x="204" y="-92.3" font-family="Times,serif" font-size="14.00" fill="#0058ad">r 2 []</text>
<polyline fill="none" stroke="#0058ad" points="230,-81.5 230,-110.5 "/>
<text text-anchor="middle" x="274" y="-92.3" font-family="Times,serif" font-size="14.00" fill="#0058ad">r 5 [1 2 3]</text>
<polyline fill="none" stroke="#0058ad" points="318,-81.5 318,-110.5 "/>
<text text-anchor="middle" x="344" y="-92.3" font-family="Times,serif" font-size="14.00" fill="#0058ad">a 6 1</text>
<polyline fill="none" stroke="#0058ad" points="370,-81.5 370,-110.5 "/>
<text text-anchor="middle" x="396" y="-92.3" font-family="Times,serif" font-size="14.00" fill="#0058ad">a 6 2</text>
</g>
<!-- T7 -->
<g id="node2" class="node">
<title>T7</title>
<polygon fill="none" stroke="#0058ad" points="194,-0.5 194,-29.5 438,-29.5 438,-0.5 194,-0.5"/>
<text text-anchor="middle" x="220" y="-11.3" font-family="Times,serif" font-size="14.00" fill="#0058ad">a 2 1</text>
<polyline fill="none" stroke="#0058ad" points="246,-0.5 246,-29.5 "/>
<text text-anchor="middle" x="272" y="-11.3" font-family="Times,serif" font-size="14.00" fill="#0058ad">r 6 []</text>
<polyline fill="none" stroke="#0058ad" points="298,-0.5 298,-29.5 "/>
<text text-anchor="middle" x="324" y="-11.3" font-family="Times,serif" font-size="14.00" fill="#0058ad">a 3 3</text>
<polyline fill="none" stroke="#0058ad" points="350,-0.5 350,-29.5 "/>
<text text-anchor="middle" x="394" y="-11.3" font-family="Times,serif" font-size="14.00" fill="#0058ad">r 3 [1 2 3]</text>
</g>
<!-- T6&#45;&gt;T7 -->
<g id="edge1" class="edge">
<title>T6:f1&#45;&gt;T7:f0</title>
<path fill="none" stroke="#5b00c0" d="M100,-81C100,-33.78 136.73,-17.26 182.73,-15.22"/>
<polygon fill="#5b00c0" stroke="#5b00c0" points="183.08,-18.71 193,-15 182.93,-11.72 183.08,-18.71"/>
<text text-anchor="middle" x="117.5" y="-51.8" font-family="Times,serif" font-size="14.00" fill="#5b00c0">rw</text>
</g>
<!-- T7&#45;&gt;T6 -->
<g id="edge2" class="edge">
<title>T7:f1&#45;&gt;T6:f5</title>
<path fill="none" stroke="#5b00c0" d="M272,-30C272,-65.23 330.12,-46.67 341.92,-70.97"/>
<polygon fill="#5b00c0" stroke="#5b00c0" points="338.54,-71.92 344,-81 345.4,-70.5 338.54,-71.92"/>
<text text-anchor="middle" x="342.5" y="-51.8" font-family="Times,serif" font-size="14.00" fill="#5b00c0">rw</text>
</g>
</g>
</svg>
