<?xml version="1.0" encoding="UTF-8" standalone="no"?>
<!DOCTYPE svg PUBLIC "-//W3C//DTD SVG 1.1//EN"
 "http://www.w3.org/Graphics/SVG/1.1/DTD/svg11.dtd">
<!-- Generated by graphviz version 2.43.0 (0)
 -->
<!-- Title: a_graph Pages: 1 -->
<svg width="695pt" height="119pt"
 viewBox="0.00 0.00 694.50 119.00" xmlns="http://www.w3.org/2000/svg" xmlns:xlink="http://www.w3.org/1999/xlink">
<g id="graph0" class="graph" transform="scale(1 1) rotate(0) translate(4 115)">
<title>a_graph</title>
<polygon fill="white" stroke="transparent" points="-4,4 -4,-115 690.5,-115 690.5,4 -4,4"/>
<!-- T3395 -->
<g id="node1" class="node">
<title>T3395</title>
<polygon fill="none" stroke="#0058ad" points="0,-81.5 0,-110.5 496,-110.5 496,-81.5 0,-81.5"/>
<text text-anchor="middle" x="50.5" y="-92.3" font-family="Times,serif" font-size="14.00" fill="#0058ad">r 1426 [1 2]</text>
<polyline fill="none" stroke="#0058ad" points="101,-81.5 101,-110.5 "/>
<text text-anchor="middle" x="140.5" y="-92.3" font-family="Times,serif" font-size="14.00" fill="#0058ad">a 1426 3</text>
<polyline fill="none" stroke="#0058ad" points="180,-81.5 180,-110.5 "/>
<text text-anchor="middle" x="219.5" y="-92.3" font-family="Times,serif" font-size="14.00" fill="#0058ad">r 1428 []</text>
<polyline fill="none" stroke="#0058ad" points="259,-81.5 259,-110.5 "/>
<text text-anchor="middle" x="298.5" y="-92.3" font-family="Times,serif" font-size="14.00" fill="#0058ad">r 1428 []</text>
<polyline fill="none" stroke="#0058ad" points="338,-81.5 338,-110.5 "/>
<text text-anchor="middle" x="377.5" y="-92.3" font-family="Times,serif" font-size="14.00" fill="#0058ad">a 1428 1</text>
<polyline fill="none" stroke="#0058ad" points="417,-81.5 417,-110.5 "/>
<text text-anchor="middle" x="456.5" y="-92.3" font-family="Times,serif" font-size="14.00" fill="#0058ad">r 1427 []</text>
</g>
<!-- T3396 -->
<g id="node2" class="node">
<title>T3396</title>
<polygon fill="none" stroke="#0058ad" points="109.5,-0.5 109.5,-29.5 686.5,-29.5 686.5,-0.5 109.5,-0.5"/>
<text text-anchor="middle" x="160" y="-11.3" font-family="Times,serif" font-size="14.00" fill="#0058ad">r 1426 [1 2]</text>
<polyline fill="none" stroke="#0058ad" points="210.5,-0.5 210.5,-29.5 "/>
<text text-anchor="middle" x="268" y="-11.3" font-family="Times,serif" font-size="14.00" fill="#0058ad">r 1424 [1 2 3]</text>
<polyline fill="none" stroke="#0058ad" points="325.5,-0.5 325.5,-29.5 "/>
<text text-anchor="middle" x="365" y="-11.3" font-family="Times,serif" font-size="14.00" fill="#0058ad">a 1425 1</text>
<polyline fill="none" stroke="#0058ad" points="404.5,-0.5 404.5,-29.5 "/>
<text text-anchor="middle" x="444" y="-11.3" font-family="Times,serif" font-size="14.00" fill="#0058ad">a 1427 1</text>
<polyline fill="none" stroke="#0058ad" points="483.5,-0.5 483.5,-29.5 "/>
<text text-anchor="middle" x="527.5" y="-11.3" font-family="Times,serif" font-size="14.00" fill="#0058ad">r 1427 [1]</text>
<polyline fill="none" stroke="#0058ad" points="571.5,-0.5 571.5,-29.5 "/>
<text text-anchor="middle" x="629" y="-11.3" font-family="Times,serif" font-size="14.00" fill="#0058ad">r 1419 [1 2 3]</text>
</g>
<!-- T3395&#45;&gt;T3396 -->
<g id="edge1" class="edge">
<title>T3395:f5&#45;&gt;T3396:f3</title>
<path fill="none" stroke="#5b00c0" d="M457,-81C457,-61.45 447.92,-55.29 444.93,-40.13"/>
<polygon fill="#5b00c0" stroke="#5b00c0" points="448.4,-39.64 444,-30 441.43,-40.28 448.4,-39.64"/>
<text text-anchor="middle" x="462.5" y="-51.8" font-family="Times,serif" font-size="14.00" fill="#5b00c0">rw</text>
</g>
<!-- T3396&#45;&gt;T3395 -->
<g id="edge2" class="edge">
<title>T3396:f0&#45;&gt;T3395:f1</title>
<path fill="none" stroke="#5b00c0" d="M160,-30C160,-50.54 145.76,-55.39 141.31,-71.03"/>
<polygon fill="#5b00c0" stroke="#5b00c0" points="137.84,-70.63 140,-81 144.78,-71.54 137.84,-70.63"/>
<text text-anchor="middle" x="165.5" y="-51.8" font-family="Times,serif" font-size="14.00" fill="#5b00c0">rw</text>
</g>
</g>
</svg>
