<?xml version="1.0" encoding="UTF-8" standalone="no"?>
<!DOCTYPE svg PUBLIC "-//W3C//DTD SVG 1.1//EN"
 "http://www.w3.org/Graphics/SVG/1.1/DTD/svg11.dtd">
<!-- Generated by graphviz version 2.43.0 (0)
 -->
<!-- Title: a_graph Pages: 1 -->
<svg width="608pt" height="119pt"
 viewBox="0.00 0.00 608.00 119.00" xmlns="http://www.w3.org/2000/svg" xmlns:xlink="http://www.w3.org/1999/xlink">
<g id="graph0" class="graph" transform="scale(1 1) rotate(0) translate(4 115)">
<title>a_graph</title>
<polygon fill="white" stroke="transparent" points="-4,4 -4,-115 604,-115 604,4 -4,4"/>
<!-- T405 -->
<g id="node1" class="node">
<title>T405</title>
<polygon fill="none" stroke="#0058ad" points="36,-81.5 36,-110.5 386,-110.5 386,-81.5 36,-81.5"/>
<text text-anchor="middle" x="71" y="-92.3" font-family="Times,serif" font-size="14.00" fill="#0058ad">a 175 2</text>
<polyline fill="none" stroke="#0058ad" points="106,-81.5 106,-110.5 "/>
<text text-anchor="middle" x="141" y="-92.3" font-family="Times,serif" font-size="14.00" fill="#0058ad">r 177 []</text>
<polyline fill="none" stroke="#0058ad" points="176,-81.5 176,-110.5 "/>
<text text-anchor="middle" x="211" y="-92.3" font-family="Times,serif" font-size="14.00" fill="#0058ad">a 175 3</text>
<polyline fill="none" stroke="#0058ad" points="246,-81.5 246,-110.5 "/>
<text text-anchor="middle" x="281" y="-92.3" font-family="Times,serif" font-size="14.00" fill="#0058ad">r 178 []</text>
<polyline fill="none" stroke="#0058ad" points="316,-81.5 316,-110.5 "/>
<text text-anchor="middle" x="351" y="-92.3" font-family="Times,serif" font-size="14.00" fill="#0058ad">r 176 []</text>
</g>
<!-- T404 -->
<g id="node2" class="node">
<title>T404</title>
<polygon fill="none" stroke="#0058ad" points="0,-0.5 0,-29.5 600,-29.5 600,-0.5 0,-0.5"/>
<text text-anchor="middle" x="39.5" y="-11.3" font-family="Times,serif" font-size="14.00" fill="#0058ad">r 175 [1]</text>
<polyline fill="none" stroke="#0058ad" points="79,-0.5 79,-29.5 "/>
<text text-anchor="middle" x="118.5" y="-11.3" font-family="Times,serif" font-size="14.00" fill="#0058ad">r 175 [1]</text>
<polyline fill="none" stroke="#0058ad" points="158,-0.5 158,-29.5 "/>
<text text-anchor="middle" x="193" y="-11.3" font-family="Times,serif" font-size="14.00" fill="#0058ad">a 177 1</text>
<polyline fill="none" stroke="#0058ad" points="228,-0.5 228,-29.5 "/>
<text text-anchor="middle" x="263" y="-11.3" font-family="Times,serif" font-size="14.00" fill="#0058ad">r 171 []</text>
<polyline fill="none" stroke="#0058ad" points="298,-0.5 298,-29.5 "/>
<text text-anchor="middle" x="333" y="-11.3" font-family="Times,serif" font-size="14.00" fill="#0058ad">a 177 2</text>
<polyline fill="none" stroke="#0058ad" points="368,-0.5 368,-29.5 "/>
<text text-anchor="middle" x="414" y="-11.3" font-family="Times,serif" font-size="14.00" fill="#0058ad">r 177 [1 2]</text>
<polyline fill="none" stroke="#0058ad" points="460,-0.5 460,-29.5 "/>
<text text-anchor="middle" x="495" y="-11.3" font-family="Times,serif" font-size="14.00" fill="#0058ad">a 177 3</text>
<polyline fill="none" stroke="#0058ad" points="530,-0.5 530,-29.5 "/>
<text text-anchor="middle" x="565" y="-11.3" font-family="Times,serif" font-size="14.00" fill="#0058ad">a 171 1</text>
</g>
<!-- T405&#45;&gt;T404 -->
<g id="edge1" class="edge">
<title>T405:f1&#45;&gt;T404:f2</title>
<path fill="none" stroke="#5b00c0" d="M141,-81C141,-52.55 181.17,-59.72 190.9,-39.9"/>
<polygon fill="#5b00c0" stroke="#5b00c0" points="194.34,-40.51 193,-30 187.5,-39.05 194.34,-40.51"/>
<text text-anchor="middle" x="193.5" y="-51.8" font-family="Times,serif" font-size="14.00" fill="#5b00c0">rw</text>
</g>
<!-- T404&#45;&gt;T405 -->
<g id="edge2" class="edge">
<title>T404:f0&#45;&gt;T405:f0</title>
<path fill="none" stroke="#5b00c0" d="M39,-30C39,-52.79 62.21,-54.34 69.09,-70.83"/>
<polygon fill="#5b00c0" stroke="#5b00c0" points="65.72,-71.82 71,-81 72.6,-70.53 65.72,-71.82"/>
<text text-anchor="middle" x="73.5" y="-51.8" font-family="Times,serif" font-size="14.00" fill="#5b00c0">rw</text>
</g>
</g>
</svg>
