<?xml version="1.0" encoding="UTF-8" standalone="no"?>
<!DOCTYPE svg PUBLIC "-//W3C//DTD SVG 1.1//EN"
 "http://www.w3.org/Graphics/SVG/1.1/DTD/svg11.dtd">
<!-- Generated by graphviz version 2.43.0 (0)
 -->
<!-- Title: a_graph Pages: 1 -->
<svg width="577pt" height="119pt"
 viewBox="0.00 0.00 577.00 119.00" xmlns="http://www.w3.org/2000/svg" xmlns:xlink="http://www.w3.org/1999/xlink">
<g id="graph0" class="graph" transform="scale(1 1) rotate(0) translate(4 115)">
<title>a_graph</title>
<polygon fill="white" stroke="transparent" points="-4,4 -4,-115 573,-115 573,4 -4,4"/>
<!-- T1388 -->
<g id="node1" class="node">
<title>T1388</title>
<polygon fill="none" stroke="#0058ad" points="8,-81.5 8,-110.5 507,-110.5 507,-81.5 8,-81.5"/>
<text text-anchor="middle" x="43" y="-92.3" font-family="Times,serif" font-size="14.00" fill="#0058ad">a 604 2</text>
<polyline fill="none" stroke="#0058ad" points="78,-81.5 78,-110.5 "/>
<text text-anchor="middle" x="113" y="-92.3" font-family="Times,serif" font-size="14.00" fill="#0058ad">a 604 3</text>
<polyline fill="none" stroke="#0058ad" points="148,-81.5 148,-110.5 "/>
<text text-anchor="middle" x="183" y="-92.3" font-family="Times,serif" font-size="14.00" fill="#0058ad">a 590 3</text>
<polyline fill="none" stroke="#0058ad" points="218,-81.5 218,-110.5 "/>
<text text-anchor="middle" x="253" y="-92.3" font-family="Times,serif" font-size="14.00" fill="#0058ad">a 606 1</text>
<polyline fill="none" stroke="#0058ad" points="288,-81.5 288,-110.5 "/>
<text text-anchor="middle" x="323" y="-92.3" font-family="Times,serif" font-size="14.00" fill="#0058ad">r 605 []</text>
<polyline fill="none" stroke="#0058ad" points="358,-81.5 358,-110.5 "/>
<text text-anchor="middle" x="397.5" y="-92.3" font-family="Times,serif" font-size="14.00" fill="#0058ad">r 606 [1]</text>
<polyline fill="none" stroke="#0058ad" points="437,-81.5 437,-110.5 "/>
<text text-anchor="middle" x="472" y="-92.3" font-family="Times,serif" font-size="14.00" fill="#0058ad">r 607 []</text>
</g>
<!-- T1389 -->
<g id="node2" class="node">
<title>T1389</title>
<polygon fill="none" stroke="#0058ad" points="0,-0.5 0,-29.5 569,-29.5 569,-0.5 0,-0.5"/>
<text text-anchor="middle" x="35" y="-11.3" font-family="Times,serif" font-size="14.00" fill="#0058ad">a 593 3</text>
<polyline fill="none" stroke="#0058ad" points="70,-0.5 70,-29.5 "/>
<text text-anchor="middle" x="105" y="-11.3" font-family="Times,serif" font-size="14.00" fill="#0058ad">r 605 []</text>
<polyline fill="none" stroke="#0058ad" points="140,-0.5 140,-29.5 "/>
<text text-anchor="middle" x="175" y="-11.3" font-family="Times,serif" font-size="14.00" fill="#0058ad">r 606 []</text>
<polyline fill="none" stroke="#0058ad" points="210,-0.5 210,-29.5 "/>
<text text-anchor="middle" x="245" y="-11.3" font-family="Times,serif" font-size="14.00" fill="#0058ad">r 605 []</text>
<polyline fill="none" stroke="#0058ad" points="280,-0.5 280,-29.5 "/>
<text text-anchor="middle" x="315" y="-11.3" font-family="Times,serif" font-size="14.00" fill="#0058ad">r 605 []</text>
<polyline fill="none" stroke="#0058ad" points="350,-0.5 350,-29.5 "/>
<text text-anchor="middle" x="385" y="-11.3" font-family="Times,serif" font-size="14.00" fill="#0058ad">r 605 []</text>
<polyline fill="none" stroke="#0058ad" points="420,-0.5 420,-29.5 "/>
<text text-anchor="middle" x="455" y="-11.3" font-family="Times,serif" font-size="14.00" fill="#0058ad">a 605 1</text>
<polyline fill="none" stroke="#0058ad" points="490,-0.5 490,-29.5 "/>
<text text-anchor="middle" x="529.5" y="-11.3" font-family="Times,serif" font-size="14.00" fill="#0058ad">r 605 [1]</text>
</g>
<!-- T1388&#45;&gt;T1389 -->
<g id="edge1" class="edge">
<title>T1388:f4&#45;&gt;T1389:f6</title>
<path fill="none" stroke="#5b00c0" d="M323.5,-81C323.5,-21.91 440,-84.34 454.11,-39.97"/>
<polygon fill="#5b00c0" stroke="#5b00c0" points="457.58,-40.39 455.5,-30 450.65,-39.42 457.58,-40.39"/>
<text text-anchor="middle" x="457" y="-51.8" font-family="Times,serif" font-size="14.00" fill="#5b00c0">rw</text>
</g>
<!-- T1389&#45;&gt;T1388 -->
<g id="edge2" class="edge">
<title>T1389:f2&#45;&gt;T1388:f3</title>
<path fill="none" stroke="#5b00c0" d="M174.5,-30C174.5,-67.54 238.56,-44.91 250.57,-71.16"/>
<polygon fill="#5b00c0" stroke="#5b00c0" points="247.14,-71.86 252.5,-81 254.01,-70.51 247.14,-71.86"/>
<text text-anchor="middle" x="252" y="-51.8" font-family="Times,serif" font-size="14.00" fill="#5b00c0">rw</text>
</g>
</g>
</svg>
