<?xml version="1.0" encoding="UTF-8" standalone="no"?>
<!DOCTYPE svg PUBLIC "-//W3C//DTD SVG 1.1//EN"
 "http://www.w3.org/Graphics/SVG/1.1/DTD/svg11.dtd">
<!-- Generated by graphviz version 2.43.0 (0)
 -->
<!-- Title: a_graph Pages: 1 -->
<svg width="569pt" height="119pt"
 viewBox="0.00 0.00 569.00 119.00" xmlns="http://www.w3.org/2000/svg" xmlns:xlink="http://www.w3.org/1999/xlink">
<g id="graph0" class="graph" transform="scale(1 1) rotate(0) translate(4 115)">
<title>a_graph</title>
<polygon fill="white" stroke="transparent" points="-4,4 -4,-115 565,-115 565,4 -4,4"/>
<!-- T1159 -->
<g id="node1" class="node">
<title>T1159</title>
<polygon fill="none" stroke="#0058ad" points="0,-81.5 0,-110.5 561,-110.5 561,-81.5 0,-81.5"/>
<text text-anchor="middle" x="46" y="-92.3" font-family="Times,serif" font-size="14.00" fill="#0058ad">r 505 [1 2]</text>
<polyline fill="none" stroke="#0058ad" points="92,-81.5 92,-110.5 "/>
<text text-anchor="middle" x="127" y="-92.3" font-family="Times,serif" font-size="14.00" fill="#0058ad">a 508 1</text>
<polyline fill="none" stroke="#0058ad" points="162,-81.5 162,-110.5 "/>
<text text-anchor="middle" x="201.5" y="-92.3" font-family="Times,serif" font-size="14.00" fill="#0058ad">r 508 [1]</text>
<polyline fill="none" stroke="#0058ad" points="241,-81.5 241,-110.5 "/>
<text text-anchor="middle" x="280.5" y="-92.3" font-family="Times,serif" font-size="14.00" fill="#0058ad">r 508 [1]</text>
<polyline fill="none" stroke="#0058ad" points="320,-81.5 320,-110.5 "/>
<text text-anchor="middle" x="366" y="-92.3" font-family="Times,serif" font-size="14.00" fill="#0058ad">r 505 [1 2]</text>
<polyline fill="none" stroke="#0058ad" points="412,-81.5 412,-110.5 "/>
<text text-anchor="middle" x="447" y="-92.3" font-family="Times,serif" font-size="14.00" fill="#0058ad">r 507 []</text>
<polyline fill="none" stroke="#0058ad" points="482,-81.5 482,-110.5 "/>
<text text-anchor="middle" x="521.5" y="-92.3" font-family="Times,serif" font-size="14.00" fill="#0058ad">r 508 [1]</text>
</g>
<!-- T1158 -->
<g id="node2" class="node">
<title>T1158</title>
<polygon fill="none" stroke="#0058ad" points="41.5,-0.5 41.5,-29.5 427.5,-29.5 427.5,-0.5 41.5,-0.5"/>
<text text-anchor="middle" x="94.5" y="-11.3" font-family="Times,serif" font-size="14.00" fill="#0058ad">r 506 [1 2 3]</text>
<polyline fill="none" stroke="#0058ad" points="147.5,-0.5 147.5,-29.5 "/>
<text text-anchor="middle" x="182.5" y="-11.3" font-family="Times,serif" font-size="14.00" fill="#0058ad">a 503 3</text>
<polyline fill="none" stroke="#0058ad" points="217.5,-0.5 217.5,-29.5 "/>
<text text-anchor="middle" x="252.5" y="-11.3" font-family="Times,serif" font-size="14.00" fill="#0058ad">a 507 1</text>
<polyline fill="none" stroke="#0058ad" points="287.5,-0.5 287.5,-29.5 "/>
<text text-anchor="middle" x="322.5" y="-11.3" font-family="Times,serif" font-size="14.00" fill="#0058ad">r 508 []</text>
<polyline fill="none" stroke="#0058ad" points="357.5,-0.5 357.5,-29.5 "/>
<text text-anchor="middle" x="392.5" y="-11.3" font-family="Times,serif" font-size="14.00" fill="#0058ad">a 507 2</text>
</g>
<!-- T1159&#45;&gt;T1158 -->
<g id="edge1" class="edge">
<title>T1159:f5&#45;&gt;T1158:f2</title>
<path fill="none" stroke="#5b00c0" d="M447.5,-81C447.5,4.73 268.9,-108.97 253.55,-40.38"/>
<polygon fill="#5b00c0" stroke="#5b00c0" points="256.99,-39.6 252.5,-30 250.02,-40.3 256.99,-39.6"/>
<text text-anchor="middle" x="451" y="-51.8" font-family="Times,serif" font-size="14.00" fill="#5b00c0">rw</text>
</g>
<!-- T1158&#45;&gt;T1159 -->
<g id="edge2" class="edge">
<title>T1158:f3&#45;&gt;T1159:f1</title>
<path fill="none" stroke="#5b00c0" d="M322.5,-30C322.5,-49.96 253.84,-43.08 234.5,-48 189.66,-59.41 135.71,-35.17 127.55,-70.64"/>
<polygon fill="#5b00c0" stroke="#5b00c0" points="124.03,-70.7 126.5,-81 130.99,-71.41 124.03,-70.7"/>
<text text-anchor="middle" x="244" y="-51.8" font-family="Times,serif" font-size="14.00" fill="#5b00c0">rw</text>
</g>
</g>
</svg>
