<?xml version="1.0" encoding="UTF-8" standalone="no"?>
<!DOCTYPE svg PUBLIC "-//W3C//DTD SVG 1.1//EN"
 "http://www.w3.org/Graphics/SVG/1.1/DTD/svg11.dtd">
<!-- Generated by graphviz version 2.43.0 (0)
 -->
<!-- Title: a_graph Pages: 1 -->
<svg width="613pt" height="119pt"
 viewBox="0.00 0.00 612.50 119.00" xmlns="http://www.w3.org/2000/svg" xmlns:xlink="http://www.w3.org/1999/xlink">
<g id="graph0" class="graph" transform="scale(1 1) rotate(0) translate(4 115)">
<title>a_graph</title>
<polygon fill="white" stroke="transparent" points="-4,4 -4,-115 608.5,-115 608.5,4 -4,4"/>
<!-- T1268 -->
<g id="node1" class="node">
<title>T1268</title>
<polygon fill="none" stroke="#0058ad" points="0,-81.5 0,-110.5 499,-110.5 499,-81.5 0,-81.5"/>
<text text-anchor="middle" x="35" y="-92.3" font-family="Times,serif" font-size="14.00" fill="#0058ad">a 553 2</text>
<polyline fill="none" stroke="#0058ad" points="70,-81.5 70,-110.5 "/>
<text text-anchor="middle" x="105" y="-92.3" font-family="Times,serif" font-size="14.00" fill="#0058ad">a 553 3</text>
<polyline fill="none" stroke="#0058ad" points="140,-81.5 140,-110.5 "/>
<text text-anchor="middle" x="179.5" y="-92.3" font-family="Times,serif" font-size="14.00" fill="#0058ad">r 538 [2]</text>
<polyline fill="none" stroke="#0058ad" points="219,-81.5 219,-110.5 "/>
<text text-anchor="middle" x="254" y="-92.3" font-family="Times,serif" font-size="14.00" fill="#0058ad">r 552 []</text>
<polyline fill="none" stroke="#0058ad" points="289,-81.5 289,-110.5 "/>
<text text-anchor="middle" x="324" y="-92.3" font-family="Times,serif" font-size="14.00" fill="#0058ad">a 538 3</text>
<polyline fill="none" stroke="#0058ad" points="359,-81.5 359,-110.5 "/>
<text text-anchor="middle" x="394" y="-92.3" font-family="Times,serif" font-size="14.00" fill="#0058ad">r 552 []</text>
<polyline fill="none" stroke="#0058ad" points="429,-81.5 429,-110.5 "/>
<text text-anchor="middle" x="464" y="-92.3" font-family="Times,serif" font-size="14.00" fill="#0058ad">a 554 1</text>
</g>
<!-- T1269 -->
<g id="node2" class="node">
<title>T1269</title>
<polygon fill="none" stroke="#0058ad" points="324.5,-0.5 324.5,-29.5 604.5,-29.5 604.5,-0.5 324.5,-0.5"/>
<text text-anchor="middle" x="359.5" y="-11.3" font-family="Times,serif" font-size="14.00" fill="#0058ad">a 552 1</text>
<polyline fill="none" stroke="#0058ad" points="394.5,-0.5 394.5,-29.5 "/>
<text text-anchor="middle" x="429.5" y="-11.3" font-family="Times,serif" font-size="14.00" fill="#0058ad">r 554 []</text>
<polyline fill="none" stroke="#0058ad" points="464.5,-0.5 464.5,-29.5 "/>
<text text-anchor="middle" x="499.5" y="-11.3" font-family="Times,serif" font-size="14.00" fill="#0058ad">r 555 []</text>
<polyline fill="none" stroke="#0058ad" points="534.5,-0.5 534.5,-29.5 "/>
<text text-anchor="middle" x="569.5" y="-11.3" font-family="Times,serif" font-size="14.00" fill="#0058ad">a 547 1</text>
</g>
<!-- T1268&#45;&gt;T1269 -->
<g id="edge1" class="edge">
<title>T1268:f3&#45;&gt;T1269:f0</title>
<path fill="none" stroke="#5b00c0" d="M254.5,-81C254.5,-42.04 276.88,-18.99 313.38,-15.47"/>
<polygon fill="#5b00c0" stroke="#5b00c0" points="313.67,-18.96 323.5,-15 313.35,-11.97 313.67,-18.96"/>
<text text-anchor="middle" x="271" y="-51.8" font-family="Times,serif" font-size="14.00" fill="#5b00c0">rw</text>
</g>
<!-- T1269&#45;&gt;T1268 -->
<g id="edge2" class="edge">
<title>T1269:f1&#45;&gt;T1268:f6</title>
<path fill="none" stroke="#5b00c0" d="M429.5,-30C429.5,-53.63 455.35,-54.01 462.62,-71.09"/>
<polygon fill="#5b00c0" stroke="#5b00c0" points="459.2,-71.83 464.5,-81 466.07,-70.52 459.2,-71.83"/>
<text text-anchor="middle" x="465" y="-51.8" font-family="Times,serif" font-size="14.00" fill="#5b00c0">rw</text>
</g>
</g>
</svg>
