<?xml version="1.0" encoding="UTF-8" standalone="no"?>
<!DOCTYPE svg PUBLIC "-//W3C//DTD SVG 1.1//EN"
 "http://www.w3.org/Graphics/SVG/1.1/DTD/svg11.dtd">
<!-- Generated by graphviz version 2.43.0 (0)
 -->
<!-- Title: a_graph Pages: 1 -->
<svg width="1005pt" height="119pt"
 viewBox="0.00 0.00 1004.50 119.00" xmlns="http://www.w3.org/2000/svg" xmlns:xlink="http://www.w3.org/1999/xlink">
<g id="graph0" class="graph" transform="scale(1 1) rotate(0) translate(4 115)">
<title>a_graph</title>
<polygon fill="white" stroke="transparent" points="-4,4 -4,-115 1000.5,-115 1000.5,4 -4,4"/>
<!-- T3274 -->
<g id="node1" class="node">
<title>T3274</title>
<polygon fill="none" stroke="#0058ad" points="0,-81.5 0,-110.5 726,-110.5 726,-81.5 0,-81.5"/>
<text text-anchor="middle" x="39.5" y="-92.3" font-family="Times,serif" font-size="14.00" fill="#0058ad">a 1376 2</text>
<polyline fill="none" stroke="#0058ad" points="79,-81.5 79,-110.5 "/>
<text text-anchor="middle" x="118.5" y="-92.3" font-family="Times,serif" font-size="14.00" fill="#0058ad">a 1376 3</text>
<polyline fill="none" stroke="#0058ad" points="158,-81.5 158,-110.5 "/>
<text text-anchor="middle" x="208.5" y="-92.3" font-family="Times,serif" font-size="14.00" fill="#0058ad">r 1363 [1 2]</text>
<polyline fill="none" stroke="#0058ad" points="259,-81.5 259,-110.5 "/>
<text text-anchor="middle" x="316.5" y="-92.3" font-family="Times,serif" font-size="14.00" fill="#0058ad">r 1376 [1 2 3]</text>
<polyline fill="none" stroke="#0058ad" points="374,-81.5 374,-110.5 "/>
<text text-anchor="middle" x="431.5" y="-92.3" font-family="Times,serif" font-size="14.00" fill="#0058ad">r 1376 [1 2 3]</text>
<polyline fill="none" stroke="#0058ad" points="489,-81.5 489,-110.5 "/>
<text text-anchor="middle" x="528.5" y="-92.3" font-family="Times,serif" font-size="14.00" fill="#0058ad">a 1377 1</text>
<polyline fill="none" stroke="#0058ad" points="568,-81.5 568,-110.5 "/>
<text text-anchor="middle" x="607.5" y="-92.3" font-family="Times,serif" font-size="14.00" fill="#0058ad">r 1378 []</text>
<polyline fill="none" stroke="#0058ad" points="647,-81.5 647,-110.5 "/>
<text text-anchor="middle" x="686.5" y="-92.3" font-family="Times,serif" font-size="14.00" fill="#0058ad">r 1378 []</text>
</g>
<!-- T3275 -->
<g id="node2" class="node">
<title>T3275</title>
<polygon fill="none" stroke="#0058ad" points="363.5,-0.5 363.5,-29.5 996.5,-29.5 996.5,-0.5 363.5,-0.5"/>
<text text-anchor="middle" x="403" y="-11.3" font-family="Times,serif" font-size="14.00" fill="#0058ad">a 1378 1</text>
<polyline fill="none" stroke="#0058ad" points="442.5,-0.5 442.5,-29.5 "/>
<text text-anchor="middle" x="482" y="-11.3" font-family="Times,serif" font-size="14.00" fill="#0058ad">a 1378 2</text>
<polyline fill="none" stroke="#0058ad" points="521.5,-0.5 521.5,-29.5 "/>
<text text-anchor="middle" x="572" y="-11.3" font-family="Times,serif" font-size="14.00" fill="#0058ad">r 1378 [1 2]</text>
<polyline fill="none" stroke="#0058ad" points="622.5,-0.5 622.5,-29.5 "/>
<text text-anchor="middle" x="662" y="-11.3" font-family="Times,serif" font-size="14.00" fill="#0058ad">a 1378 3</text>
<polyline fill="none" stroke="#0058ad" points="701.5,-0.5 701.5,-29.5 "/>
<text text-anchor="middle" x="741" y="-11.3" font-family="Times,serif" font-size="14.00" fill="#0058ad">r 1377 []</text>
<polyline fill="none" stroke="#0058ad" points="780.5,-0.5 780.5,-29.5 "/>
<text text-anchor="middle" x="838" y="-11.3" font-family="Times,serif" font-size="14.00" fill="#0058ad">r 1378 [1 2 3]</text>
<polyline fill="none" stroke="#0058ad" points="895.5,-0.5 895.5,-29.5 "/>
<text text-anchor="middle" x="946" y="-11.3" font-family="Times,serif" font-size="14.00" fill="#0058ad">r 1363 [1 2]</text>
</g>
<!-- T3274&#45;&gt;T3275 -->
<g id="edge1" class="edge">
<title>T3274:f6&#45;&gt;T3275:f0</title>
<path fill="none" stroke="#5b00c0" d="M608,-81C608,-58.63 590.5,-56.94 570,-48 555.3,-41.59 442.53,-46.69 411.11,-36.4"/>
<polygon fill="#5b00c0" stroke="#5b00c0" points="413.02,-33.45 403,-30 408.68,-38.94 413.02,-33.45"/>
<text text-anchor="middle" x="610.5" y="-51.8" font-family="Times,serif" font-size="14.00" fill="#5b00c0">rw</text>
</g>
<!-- T3275&#45;&gt;T3274 -->
<g id="edge2" class="edge">
<title>T3275:f4&#45;&gt;T3274:f5</title>
<path fill="none" stroke="#5b00c0" d="M741,-30C741,-51.65 565.08,-36.1 547,-48 536.21,-55.1 531.34,-60.97 529.69,-70.99"/>
<polygon fill="#5b00c0" stroke="#5b00c0" points="526.2,-70.78 529,-81 533.18,-71.26 526.2,-70.78"/>
<text text-anchor="middle" x="556.5" y="-51.8" font-family="Times,serif" font-size="14.00" fill="#5b00c0">rw</text>
</g>
</g>
</svg>
