<?xml version="1.0" encoding="UTF-8" standalone="no"?>
<!DOCTYPE svg PUBLIC "-//W3C//DTD SVG 1.1//EN"
 "http://www.w3.org/Graphics/SVG/1.1/DTD/svg11.dtd">
<!-- Generated by graphviz version 2.43.0 (0)
 -->
<!-- Title: a_graph Pages: 1 -->
<svg width="484pt" height="119pt"
 viewBox="0.00 0.00 483.50 119.00" xmlns="http://www.w3.org/2000/svg" xmlns:xlink="http://www.w3.org/1999/xlink">
<g id="graph0" class="graph" transform="scale(1 1) rotate(0) translate(4 115)">
<title>a_graph</title>
<polygon fill="white" stroke="transparent" points="-4,4 -4,-115 479.5,-115 479.5,4 -4,4"/>
<!-- T1210 -->
<g id="node1" class="node">
<title>T1210</title>
<polygon fill="none" stroke="#0058ad" points="31.5,-81.5 31.5,-110.5 475.5,-110.5 475.5,-81.5 31.5,-81.5"/>
<text text-anchor="middle" x="70" y="-92.3" font-family="Times,serif" font-size="14.00" fill="#0058ad">r 523 nil</text>
<polyline fill="none" stroke="#0058ad" points="108.5,-81.5 108.5,-110.5 "/>
<text text-anchor="middle" x="147" y="-92.3" font-family="Times,serif" font-size="14.00" fill="#0058ad">r 526 nil</text>
<polyline fill="none" stroke="#0058ad" points="185.5,-81.5 185.5,-110.5 "/>
<text text-anchor="middle" x="219.5" y="-92.3" font-family="Times,serif" font-size="14.00" fill="#0058ad">r 522 1</text>
<polyline fill="none" stroke="#0058ad" points="253.5,-81.5 253.5,-110.5 "/>
<text text-anchor="middle" x="290.5" y="-92.3" font-family="Times,serif" font-size="14.00" fill="#0058ad">w 523 3</text>
<polyline fill="none" stroke="#0058ad" points="327.5,-81.5 327.5,-110.5 "/>
<text text-anchor="middle" x="364.5" y="-92.3" font-family="Times,serif" font-size="14.00" fill="#0058ad">w 501 2</text>
<polyline fill="none" stroke="#0058ad" points="401.5,-81.5 401.5,-110.5 "/>
<text text-anchor="middle" x="438.5" y="-92.3" font-family="Times,serif" font-size="14.00" fill="#0058ad">w 522 2</text>
</g>
<!-- T1211 -->
<g id="node2" class="node">
<title>T1211</title>
<polygon fill="none" stroke="#0058ad" points="0,-0.5 0,-29.5 435,-29.5 435,-0.5 0,-0.5"/>
<text text-anchor="middle" x="34" y="-11.3" font-family="Times,serif" font-size="14.00" fill="#0058ad">r 524 1</text>
<polyline fill="none" stroke="#0058ad" points="68,-0.5 68,-29.5 "/>
<text text-anchor="middle" x="106.5" y="-11.3" font-family="Times,serif" font-size="14.00" fill="#0058ad">r 523 nil</text>
<polyline fill="none" stroke="#0058ad" points="145,-0.5 145,-29.5 "/>
<text text-anchor="middle" x="182" y="-11.3" font-family="Times,serif" font-size="14.00" fill="#0058ad">w 526 1</text>
<polyline fill="none" stroke="#0058ad" points="219,-0.5 219,-29.5 "/>
<text text-anchor="middle" x="256" y="-11.3" font-family="Times,serif" font-size="14.00" fill="#0058ad">w 526 2</text>
<polyline fill="none" stroke="#0058ad" points="293,-0.5 293,-29.5 "/>
<text text-anchor="middle" x="330" y="-11.3" font-family="Times,serif" font-size="14.00" fill="#0058ad">w 526 3</text>
<polyline fill="none" stroke="#0058ad" points="367,-0.5 367,-29.5 "/>
<text text-anchor="middle" x="401" y="-11.3" font-family="Times,serif" font-size="14.00" fill="#0058ad">r 526 3</text>
</g>
<!-- T1210&#45;&gt;T1211 -->
<g id="edge1" class="edge">
<title>T1210:f1&#45;&gt;T1211:f4</title>
<path fill="none" stroke="#5b00c0" d="M146.5,-81C146.5,-43.36 188.37,-58.56 224.5,-48 243.85,-42.35 306.01,-50.43 324.96,-38.74"/>
<polygon fill="#5b00c0" stroke="#5b00c0" points="328.1,-40.32 330.5,-30 322.19,-36.57 328.1,-40.32"/>
<text text-anchor="middle" x="234" y="-51.8" font-family="Times,serif" font-size="14.00" fill="#5b00c0">rw</text>
</g>
<!-- T1211&#45;&gt;T1210 -->
<g id="edge2" class="edge">
<title>T1211:f1&#45;&gt;T1210:f3</title>
<path fill="none" stroke="#5b00c0" d="M106.5,-30C106.5,-60.71 214.89,-36.86 243.5,-48 263.57,-55.82 283.23,-55.76 288.89,-70.89"/>
<polygon fill="#5b00c0" stroke="#5b00c0" points="285.47,-71.68 290.5,-81 292.38,-70.57 285.47,-71.68"/>
<text text-anchor="middle" x="293" y="-51.8" font-family="Times,serif" font-size="14.00" fill="#5b00c0">rw</text>
</g>
</g>
</svg>
