<?xml version="1.0" encoding="UTF-8" standalone="no"?>
<!DOCTYPE svg PUBLIC "-//W3C//DTD SVG 1.1//EN"
 "http://www.w3.org/Graphics/SVG/1.1/DTD/svg11.dtd">
<!-- Generated by graphviz version 2.43.0 (0)
 -->
<!-- Title: a_graph Pages: 1 -->
<svg width="1950pt" height="119pt"
 viewBox="0.00 0.00 1949.50 119.00" xmlns="http://www.w3.org/2000/svg" xmlns:xlink="http://www.w3.org/1999/xlink">
<g id="graph0" class="graph" transform="scale(1 1) rotate(0) translate(4 115)">
<title>a_graph</title>
<polygon fill="white" stroke="transparent" points="-4,4 -4,-115 1945.5,-115 1945.5,4 -4,4"/>
<!-- T2287 -->
<g id="node1" class="node">
<title>T2287</title>
<polygon fill="none" stroke="#0058ad" points="138.5,-81.5 138.5,-110.5 1941.5,-110.5 1941.5,-81.5 138.5,-81.5"/>
<text text-anchor="middle" x="173.5" y="-92.3" font-family="Times,serif" font-size="14.00" fill="#0058ad">a 85 28</text>
<polyline fill="none" stroke="#0058ad" points="208.5,-81.5 208.5,-110.5 "/>
<text text-anchor="middle" x="344.5" y="-92.3" font-family="Times,serif" font-size="14.00" fill="#0058ad">r 84 [3 4 6 7 8 9 11 12 13 14 15 17]</text>
<polyline fill="none" stroke="#0058ad" points="480.5,-81.5 480.5,-110.5 "/>
<text text-anchor="middle" x="736" y="-92.3" font-family="Times,serif" font-size="14.00" fill="#0058ad">r 85 [1 2 3 4 7 8 9 10 11 14 15 16 18 19 20 21 22 23 24 25 26 27 28]</text>
<polyline fill="none" stroke="#0058ad" points="991.5,-81.5 991.5,-110.5 "/>
<text text-anchor="middle" x="1040" y="-92.3" font-family="Times,serif" font-size="14.00" fill="#0058ad">r 86 [1 2 3]</text>
<polyline fill="none" stroke="#0058ad" points="1088.5,-81.5 1088.5,-110.5 "/>
<text text-anchor="middle" x="1344" y="-92.3" font-family="Times,serif" font-size="14.00" fill="#0058ad">r 85 [1 2 3 4 7 8 9 10 11 14 15 16 18 19 20 21 22 23 24 25 26 27 28]</text>
<polyline fill="none" stroke="#0058ad" points="1599.5,-81.5 1599.5,-110.5 "/>
<text text-anchor="middle" x="1634.5" y="-92.3" font-family="Times,serif" font-size="14.00" fill="#0058ad">a 85 29</text>
<polyline fill="none" stroke="#0058ad" points="1669.5,-81.5 1669.5,-110.5 "/>
<text text-anchor="middle" x="1805.5" y="-92.3" font-family="Times,serif" font-size="14.00" fill="#0058ad">r 84 [3 4 6 7 8 9 11 12 13 14 15 17]</text>
</g>
<!-- T2288 -->
<g id="node2" class="node">
<title>T2288</title>
<polygon fill="none" stroke="#0058ad" points="0,-0.5 0,-29.5 1678,-29.5 1678,-0.5 0,-0.5"/>
<text text-anchor="middle" x="48.5" y="-11.3" font-family="Times,serif" font-size="14.00" fill="#0058ad">r 86 [1 2 3]</text>
<polyline fill="none" stroke="#0058ad" points="97,-0.5 97,-29.5 "/>
<text text-anchor="middle" x="127.5" y="-11.3" font-family="Times,serif" font-size="14.00" fill="#0058ad">a 86 4</text>
<polyline fill="none" stroke="#0058ad" points="158,-0.5 158,-29.5 "/>
<text text-anchor="middle" x="294" y="-11.3" font-family="Times,serif" font-size="14.00" fill="#0058ad">r 84 [3 4 6 7 8 9 11 12 13 14 15 17]</text>
<polyline fill="none" stroke="#0058ad" points="430,-0.5 430,-29.5 "/>
<text text-anchor="middle" x="674" y="-11.3" font-family="Times,serif" font-size="14.00" fill="#0058ad">r 85 [1 2 3 4 7 8 9 10 11 14 15 16 18 19 20 21 22 23 24 25 26 27]</text>
<polyline fill="none" stroke="#0058ad" points="918,-0.5 918,-29.5 "/>
<text text-anchor="middle" x="1162" y="-11.3" font-family="Times,serif" font-size="14.00" fill="#0058ad">r 85 [1 2 3 4 7 8 9 10 11 14 15 16 18 19 20 21 22 23 24 25 26 27]</text>
<polyline fill="none" stroke="#0058ad" points="1406,-0.5 1406,-29.5 "/>
<text text-anchor="middle" x="1542" y="-11.3" font-family="Times,serif" font-size="14.00" fill="#0058ad">r 84 [3 4 6 7 8 9 11 12 13 14 15 17]</text>
</g>
<!-- T2287&#45;&gt;T2288 -->
<g id="edge1" class="edge">
<title>T2287:f3&#45;&gt;T2288:f1</title>
<path fill="none" stroke="#5b00c0" d="M1040,-81C1040,-69.08 235.89,-45.8 136.94,-32.48"/>
<polygon fill="#5b00c0" stroke="#5b00c0" points="137.55,-29.03 127,-30 135.85,-35.82 137.55,-29.03"/>
<text text-anchor="middle" x="753.5" y="-51.8" font-family="Times,serif" font-size="14.00" fill="#5b00c0">rw</text>
</g>
<!-- T2288&#45;&gt;T2287 -->
<g id="edge2" class="edge">
<title>T2288:f3&#45;&gt;T2287:f0</title>
<path fill="none" stroke="#5b00c0" d="M674,-30C674,-45.31 414.23,-46.39 399,-48 301.6,-58.28 181.76,15.05 173.46,-70.95"/>
<polygon fill="#5b00c0" stroke="#5b00c0" points="169.96,-70.85 173,-81 176.95,-71.17 169.96,-70.85"/>
<text text-anchor="middle" x="408.5" y="-51.8" font-family="Times,serif" font-size="14.00" fill="#5b00c0">rw</text>
</g>
</g>
</svg>
