<?xml version="1.0" encoding="UTF-8" standalone="no"?>
<!DOCTYPE svg PUBLIC "-//W3C//DTD SVG 1.1//EN"
 "http://www.w3.org/Graphics/SVG/1.1/DTD/svg11.dtd">
<!-- Generated by graphviz version 2.43.0 (0)
 -->
<!-- Title: a_graph Pages: 1 -->
<svg width="1220pt" height="119pt"
 viewBox="0.00 0.00 1220.00 119.00" xmlns="http://www.w3.org/2000/svg" xmlns:xlink="http://www.w3.org/1999/xlink">
<g id="graph0" class="graph" transform="scale(1 1) rotate(0) translate(4 115)">
<title>a_graph</title>
<polygon fill="white" stroke="transparent" points="-4,4 -4,-115 1216,-115 1216,4 -4,4"/>
<!-- T5875 -->
<g id="node1" class="node">
<title>T5875</title>
<polygon fill="none" stroke="#0058ad" points="194,-81.5 194,-110.5 476,-110.5 476,-81.5 194,-81.5"/>
<text text-anchor="middle" x="229" y="-92.3" font-family="Times,serif" font-size="14.00" fill="#0058ad">a 222 4</text>
<polyline fill="none" stroke="#0058ad" points="264,-81.5 264,-110.5 "/>
<text text-anchor="middle" x="317" y="-92.3" font-family="Times,serif" font-size="14.00" fill="#0058ad">r 223 [1 2 3]</text>
<polyline fill="none" stroke="#0058ad" points="370,-81.5 370,-110.5 "/>
<text text-anchor="middle" x="423" y="-92.3" font-family="Times,serif" font-size="14.00" fill="#0058ad">r 223 [1 2 3]</text>
</g>
<!-- T5874 -->
<g id="node2" class="node">
<title>T5874</title>
<polygon fill="none" stroke="#0058ad" points="0,-0.5 0,-29.5 1212,-29.5 1212,-0.5 0,-0.5"/>
<text text-anchor="middle" x="53" y="-11.3" font-family="Times,serif" font-size="14.00" fill="#0058ad">r 223 [1 2 3]</text>
<polyline fill="none" stroke="#0058ad" points="106,-0.5 106,-29.5 "/>
<text text-anchor="middle" x="159" y="-11.3" font-family="Times,serif" font-size="14.00" fill="#0058ad">r 222 [1 2 3]</text>
<polyline fill="none" stroke="#0058ad" points="212,-0.5 212,-29.5 "/>
<text text-anchor="middle" x="251.5" y="-11.3" font-family="Times,serif" font-size="14.00" fill="#0058ad">a 220 26</text>
<polyline fill="none" stroke="#0058ad" points="291,-0.5 291,-29.5 "/>
<text text-anchor="middle" x="344" y="-11.3" font-family="Times,serif" font-size="14.00" fill="#0058ad">r 222 [1 2 3]</text>
<polyline fill="none" stroke="#0058ad" points="397,-0.5 397,-29.5 "/>
<text text-anchor="middle" x="432" y="-11.3" font-family="Times,serif" font-size="14.00" fill="#0058ad">a 223 4</text>
<polyline fill="none" stroke="#0058ad" points="467,-0.5 467,-29.5 "/>
<text text-anchor="middle" x="526.5" y="-11.3" font-family="Times,serif" font-size="14.00" fill="#0058ad">r 223 [1 2 3 4]</text>
<polyline fill="none" stroke="#0058ad" points="586,-0.5 586,-29.5 "/>
<text text-anchor="middle" x="864" y="-11.3" font-family="Times,serif" font-size="14.00" fill="#0058ad">r 220 [2 3 4 5 6 7 8 9 10 11 12 13 14 15 16 17 18 19 20 21 22 23 24 25 26]</text>
<polyline fill="none" stroke="#0058ad" points="1142,-0.5 1142,-29.5 "/>
<text text-anchor="middle" x="1177" y="-11.3" font-family="Times,serif" font-size="14.00" fill="#0058ad">a 223 5</text>
</g>
<!-- T5875&#45;&gt;T5874 -->
<g id="edge1" class="edge">
<title>T5875:f1&#45;&gt;T5874:f4</title>
<path fill="none" stroke="#5b00c0" d="M317,-81C317,-29.02 416.4,-77.94 430.37,-40.14"/>
<polygon fill="#5b00c0" stroke="#5b00c0" points="433.87,-40.43 432,-30 426.96,-39.32 433.87,-40.43"/>
<text text-anchor="middle" x="434.5" y="-51.8" font-family="Times,serif" font-size="14.00" fill="#5b00c0">rw</text>
</g>
<!-- T5874&#45;&gt;T5875 -->
<g id="edge2" class="edge">
<title>T5874:f1&#45;&gt;T5875:f0</title>
<path fill="none" stroke="#5b00c0" d="M159,-30C159,-59.26 159.79,-88.52 182.97,-94.78"/>
<polygon fill="#5b00c0" stroke="#5b00c0" points="182.65,-98.26 193,-96 183.5,-91.32 182.65,-98.26"/>
<text text-anchor="middle" x="170.5" y="-51.8" font-family="Times,serif" font-size="14.00" fill="#5b00c0">rw</text>
</g>
</g>
</svg>
