<?xml version="1.0" encoding="UTF-8" standalone="no"?>
<!DOCTYPE svg PUBLIC "-//W3C//DTD SVG 1.1//EN"
 "http://www.w3.org/Graphics/SVG/1.1/DTD/svg11.dtd">
<!-- Generated by graphviz version 2.43.0 (0)
 -->
<!-- Title: a_graph Pages: 1 -->
<svg width="949pt" height="119pt"
 viewBox="0.00 0.00 949.00 119.00" xmlns="http://www.w3.org/2000/svg" xmlns:xlink="http://www.w3.org/1999/xlink">
<g id="graph0" class="graph" transform="scale(1 1) rotate(0) translate(4 115)">
<title>a_graph</title>
<polygon fill="white" stroke="transparent" points="-4,4 -4,-115 945,-115 945,4 -4,4"/>
<!-- T1319 -->
<g id="node1" class="node">
<title>T1319</title>
<polygon fill="none" stroke="#0058ad" points="430.5,-81.5 430.5,-110.5 736.5,-110.5 736.5,-81.5 430.5,-81.5"/>
<text text-anchor="middle" x="461" y="-92.3" font-family="Times,serif" font-size="14.00" fill="#0058ad">a 45 8</text>
<polyline fill="none" stroke="#0058ad" points="491.5,-81.5 491.5,-110.5 "/>
<text text-anchor="middle" x="614" y="-92.3" font-family="Times,serif" font-size="14.00" fill="#0058ad">r 46 [1 2 3 4 5 6 7 8 9 10 11 12]</text>
</g>
<!-- T1318 -->
<g id="node2" class="node">
<title>T1318</title>
<polygon fill="none" stroke="#0058ad" points="0,-0.5 0,-29.5 941,-29.5 941,-0.5 0,-0.5"/>
<text text-anchor="middle" x="122.5" y="-11.3" font-family="Times,serif" font-size="14.00" fill="#0058ad">r 46 [1 2 3 4 5 6 7 8 9 10 11 12]</text>
<polyline fill="none" stroke="#0058ad" points="245,-0.5 245,-29.5 "/>
<text text-anchor="middle" x="280" y="-11.3" font-family="Times,serif" font-size="14.00" fill="#0058ad">a 46 13</text>
<polyline fill="none" stroke="#0058ad" points="315,-0.5 315,-29.5 "/>
<text text-anchor="middle" x="449" y="-11.3" font-family="Times,serif" font-size="14.00" fill="#0058ad">r 46 [1 2 3 4 5 6 7 8 9 10 11 12 13]</text>
<polyline fill="none" stroke="#0058ad" points="583,-0.5 583,-29.5 "/>
<text text-anchor="middle" x="651.5" y="-11.3" font-family="Times,serif" font-size="14.00" fill="#0058ad">r 43 [1 2 3 4 5 6]</text>
<polyline fill="none" stroke="#0058ad" points="720,-0.5 720,-29.5 "/>
<text text-anchor="middle" x="795.5" y="-11.3" font-family="Times,serif" font-size="14.00" fill="#0058ad">r 45 [1 2 3 4 5 6 7]</text>
<polyline fill="none" stroke="#0058ad" points="871,-0.5 871,-29.5 "/>
<text text-anchor="middle" x="906" y="-11.3" font-family="Times,serif" font-size="14.00" fill="#0058ad">a 46 14</text>
</g>
<!-- T1319&#45;&gt;T1318 -->
<g id="edge1" class="edge">
<title>T1319:f1&#45;&gt;T1318:f1</title>
<path fill="none" stroke="#5b00c0" d="M614.5,-81C614.5,-32.93 558.67,-57.26 511.5,-48 489,-43.59 323.99,-53.18 286.89,-37.38"/>
<polygon fill="#5b00c0" stroke="#5b00c0" points="289.05,-34.59 279.5,-30 284.1,-39.54 289.05,-34.59"/>
<text text-anchor="middle" x="619" y="-51.8" font-family="Times,serif" font-size="14.00" fill="#5b00c0">rw</text>
</g>
<!-- T1318&#45;&gt;T1319 -->
<g id="edge2" class="edge">
<title>T1318:f4&#45;&gt;T1319:f0</title>
<path fill="none" stroke="#5b00c0" d="M795.5,-30C795.5,-64.17 519.07,-32.74 488.5,-48 474.79,-54.84 465.15,-59.52 461.8,-70.87"/>
<polygon fill="#5b00c0" stroke="#5b00c0" points="458.3,-70.64 460.5,-81 465.24,-71.53 458.3,-70.64"/>
<text text-anchor="middle" x="498" y="-51.8" font-family="Times,serif" font-size="14.00" fill="#5b00c0">rw</text>
</g>
</g>
</svg>
