<?xml version="1.0" encoding="UTF-8" standalone="no"?>
<!DOCTYPE svg PUBLIC "-//W3C//DTD SVG 1.1//EN"
 "http://www.w3.org/Graphics/SVG/1.1/DTD/svg11.dtd">
<!-- Generated by graphviz version 2.43.0 (0)
 -->
<!-- Title: a_graph Pages: 1 -->
<svg width="3188pt" height="119pt"
 viewBox="0.00 0.00 3188.00 119.00" xmlns="http://www.w3.org/2000/svg" xmlns:xlink="http://www.w3.org/1999/xlink">
<g id="graph0" class="graph" transform="scale(1 1) rotate(0) translate(4 115)">
<title>a_graph</title>
<polygon fill="white" stroke="transparent" points="-4,4 -4,-115 3184,-115 3184,4 -4,4"/>
<!-- T585 -->
<g id="node1" class="node">
<title>T585</title>
<polygon fill="none" stroke="#0058ad" points="173,-81.5 173,-110.5 2107,-110.5 2107,-81.5 173,-81.5"/>
<text text-anchor="middle" x="208" y="-92.3" font-family="Times,serif" font-size="14.00" fill="#0058ad">a 20 23</text>
<polyline fill="none" stroke="#0058ad" points="243,-81.5 243,-110.5 "/>
<text text-anchor="middle" x="444.5" y="-92.3" font-family="Times,serif" font-size="14.00" fill="#0058ad">r 22 [1 2 3 4 5 6 7 8 9 10 11 12 13 14 15 16 17 18 19]</text>
<polyline fill="none" stroke="#0058ad" points="646,-81.5 646,-110.5 "/>
<text text-anchor="middle" x="847.5" y="-92.3" font-family="Times,serif" font-size="14.00" fill="#0058ad">r 22 [1 2 3 4 5 6 7 8 9 10 11 12 13 14 15 16 17 18 19]</text>
<polyline fill="none" stroke="#0058ad" points="1049,-81.5 1049,-110.5 "/>
<text text-anchor="middle" x="1084" y="-92.3" font-family="Times,serif" font-size="14.00" fill="#0058ad">a 14 32</text>
<polyline fill="none" stroke="#0058ad" points="1119,-81.5 1119,-110.5 "/>
<text text-anchor="middle" x="1320.5" y="-92.3" font-family="Times,serif" font-size="14.00" fill="#0058ad">r 22 [1 2 3 4 5 6 7 8 9 10 11 12 13 14 15 16 17 18 19]</text>
<polyline fill="none" stroke="#0058ad" points="1522,-81.5 1522,-110.5 "/>
<text text-anchor="middle" x="1557" y="-92.3" font-family="Times,serif" font-size="14.00" fill="#0058ad">a 20 24</text>
<polyline fill="none" stroke="#0058ad" points="1592,-81.5 1592,-110.5 "/>
<text text-anchor="middle" x="1849.5" y="-92.3" font-family="Times,serif" font-size="14.00" fill="#0058ad">r 20 [1 2 3 4 5 6 7 8 9 10 11 12 13 14 15 16 17 18 19 20 21 22 23 24]</text>
</g>
<!-- T583 -->
<g id="node2" class="node">
<title>T583</title>
<polygon fill="none" stroke="#0058ad" points="0,-0.5 0,-29.5 3180,-29.5 3180,-0.5 0,-0.5"/>
<text text-anchor="middle" x="35" y="-11.3" font-family="Times,serif" font-size="14.00" fill="#0058ad">a 22 20</text>
<polyline fill="none" stroke="#0058ad" points="70,-0.5 70,-29.5 "/>
<text text-anchor="middle" x="282.5" y="-11.3" font-family="Times,serif" font-size="14.00" fill="#0058ad">r 22 [1 2 3 4 5 6 7 8 9 10 11 12 13 14 15 16 17 18 19 20]</text>
<polyline fill="none" stroke="#0058ad" points="495,-0.5 495,-29.5 "/>
<text text-anchor="middle" x="707.5" y="-11.3" font-family="Times,serif" font-size="14.00" fill="#0058ad">r 22 [1 2 3 4 5 6 7 8 9 10 11 12 13 14 15 16 17 18 19 20]</text>
<polyline fill="none" stroke="#0058ad" points="920,-0.5 920,-29.5 "/>
<text text-anchor="middle" x="1155" y="-11.3" font-family="Times,serif" font-size="14.00" fill="#0058ad">r 20 [1 2 3 4 5 6 7 8 9 10 11 12 13 14 15 16 17 18 19 20 21 22]</text>
<polyline fill="none" stroke="#0058ad" points="1390,-0.5 1390,-29.5 "/>
<text text-anchor="middle" x="1625" y="-11.3" font-family="Times,serif" font-size="14.00" fill="#0058ad">r 20 [1 2 3 4 5 6 7 8 9 10 11 12 13 14 15 16 17 18 19 20 21 22]</text>
<polyline fill="none" stroke="#0058ad" points="1860,-0.5 1860,-29.5 "/>
<text text-anchor="middle" x="2095" y="-11.3" font-family="Times,serif" font-size="14.00" fill="#0058ad">r 20 [1 2 3 4 5 6 7 8 9 10 11 12 13 14 15 16 17 18 19 20 21 22]</text>
<polyline fill="none" stroke="#0058ad" points="2330,-0.5 2330,-29.5 "/>
<text text-anchor="middle" x="2542.5" y="-11.3" font-family="Times,serif" font-size="14.00" fill="#0058ad">r 22 [1 2 3 4 5 6 7 8 9 10 11 12 13 14 15 16 17 18 19 20]</text>
<polyline fill="none" stroke="#0058ad" points="2755,-0.5 2755,-29.5 "/>
<text text-anchor="middle" x="2967.5" y="-11.3" font-family="Times,serif" font-size="14.00" fill="#0058ad">r 22 [1 2 3 4 5 6 7 8 9 10 11 12 13 14 15 16 17 18 19 20]</text>
</g>
<!-- T585&#45;&gt;T583 -->
<g id="edge1" class="edge">
<title>T585:f1&#45;&gt;T583:f0</title>
<path fill="none" stroke="#5b00c0" d="M444,-81C444,98.61 50.82,-201.06 35.46,-40.17"/>
<polygon fill="#5b00c0" stroke="#5b00c0" points="38.95,-39.83 35,-30 31.96,-40.15 38.95,-39.83"/>
<text text-anchor="middle" x="452.5" y="-51.8" font-family="Times,serif" font-size="14.00" fill="#5b00c0">rw</text>
</g>
<!-- T583&#45;&gt;T585 -->
<g id="edge2" class="edge">
<title>T583:f3&#45;&gt;T585:f0</title>
<path fill="none" stroke="#5b00c0" d="M1155,-30C1155,-42.37 319.2,-64.88 217.99,-78.49"/>
<polygon fill="#5b00c0" stroke="#5b00c0" points="216.84,-75.17 208,-81 218.55,-81.96 216.84,-75.17"/>
<text text-anchor="middle" x="858.5" y="-51.8" font-family="Times,serif" font-size="14.00" fill="#5b00c0">rw</text>
</g>
</g>
</svg>
