<?xml version="1.0" encoding="UTF-8" standalone="no"?>
<!DOCTYPE svg PUBLIC "-//W3C//DTD SVG 1.1//EN"
 "http://www.w3.org/Graphics/SVG/1.1/DTD/svg11.dtd">
<!-- Generated by graphviz version 2.43.0 (0)
 -->
<!-- Title: a_graph Pages: 1 -->
<svg width="4621pt" height="200pt"
 viewBox="0.00 0.00 4621.00 200.00" xmlns="http://www.w3.org/2000/svg" xmlns:xlink="http://www.w3.org/1999/xlink">
<g id="graph0" class="graph" transform="scale(1 1) rotate(0) translate(4 196)">
<title>a_graph</title>
<polygon fill="white" stroke="transparent" points="-4,4 -4,-196 4617,-196 4617,4 -4,4"/>
<!-- T479 -->
<g id="node1" class="node">
<title>T479</title>
<polygon fill="none" stroke="#0058ad" points="0,-162.5 0,-191.5 1875,-191.5 1875,-162.5 0,-162.5"/>
<text text-anchor="middle" x="145" y="-173.3" font-family="Times,serif" font-size="14.00" fill="#0058ad">r 43 [1 2 3 4 5 6 7 8 9 10 11 12 13 14]</text>
<polyline fill="none" stroke="#0058ad" points="290,-162.5 290,-191.5 "/>
<text text-anchor="middle" x="325" y="-173.3" font-family="Times,serif" font-size="14.00" fill="#0058ad">a 43 15</text>
<polyline fill="none" stroke="#0058ad" points="360,-162.5 360,-191.5 "/>
<text text-anchor="middle" x="449" y="-173.3" font-family="Times,serif" font-size="14.00" fill="#0058ad">r 42 [1 2 3 4 5 6 7 8 9]</text>
<polyline fill="none" stroke="#0058ad" points="538,-162.5 538,-191.5 "/>
<text text-anchor="middle" x="573" y="-173.3" font-family="Times,serif" font-size="14.00" fill="#0058ad">a 43 16</text>
<polyline fill="none" stroke="#0058ad" points="608,-162.5 608,-191.5 "/>
<text text-anchor="middle" x="775.5" y="-173.3" font-family="Times,serif" font-size="14.00" fill="#0058ad">r 43 [1 2 3 4 5 6 7 8 9 10 11 12 13 14 15 16]</text>
<polyline fill="none" stroke="#0058ad" points="943,-162.5 943,-191.5 "/>
<text text-anchor="middle" x="1110.5" y="-173.3" font-family="Times,serif" font-size="14.00" fill="#0058ad">r 43 [1 2 3 4 5 6 7 8 9 10 11 12 13 14 15 16]</text>
<polyline fill="none" stroke="#0058ad" points="1278,-162.5 1278,-191.5 "/>
<text text-anchor="middle" x="1313" y="-173.3" font-family="Times,serif" font-size="14.00" fill="#0058ad">a 43 17</text>
<polyline fill="none" stroke="#0058ad" points="1348,-162.5 1348,-191.5 "/>
<text text-anchor="middle" x="1383" y="-173.3" font-family="Times,serif" font-size="14.00" fill="#0058ad">a 43 18</text>
<polyline fill="none" stroke="#0058ad" points="1418,-162.5 1418,-191.5 "/>
<text text-anchor="middle" x="1646.5" y="-173.3" font-family="Times,serif" font-size="14.00" fill="#0058ad">r 37 [1 2 3 4 5 6 8 9 10 11 12 13 14 15 16 17 19 20 21 23 24]</text>
</g>
<!-- T478 -->
<g id="node3" class="node">
<title>T478</title>
<polygon fill="none" stroke="#0058ad" points="958,-81.5 958,-110.5 4613,-110.5 4613,-81.5 958,-81.5"/>
<text text-anchor="middle" x="1186.5" y="-92.3" font-family="Times,serif" font-size="14.00" fill="#0058ad">r 37 [1 2 3 4 5 6 8 9 10 11 12 13 14 15 16 17 19 20 21 23 24]</text>
<polyline fill="none" stroke="#0058ad" points="1415,-81.5 1415,-110.5 "/>
<text text-anchor="middle" x="1450" y="-92.3" font-family="Times,serif" font-size="14.00" fill="#0058ad">a 37 25</text>
<polyline fill="none" stroke="#0058ad" points="1485,-81.5 1485,-110.5 "/>
<text text-anchor="middle" x="1724.5" y="-92.3" font-family="Times,serif" font-size="14.00" fill="#0058ad">r 37 [1 2 3 4 5 6 8 9 10 11 12 13 14 15 16 17 19 20 21 23 24 25]</text>
<polyline fill="none" stroke="#0058ad" points="1964,-81.5 1964,-110.5 "/>
<text text-anchor="middle" x="2098" y="-92.3" font-family="Times,serif" font-size="14.00" fill="#0058ad">r 43 [1 2 3 4 5 6 7 8 9 10 11 12 13]</text>
<polyline fill="none" stroke="#0058ad" points="2232,-81.5 2232,-110.5 "/>
<text text-anchor="middle" x="2471.5" y="-92.3" font-family="Times,serif" font-size="14.00" fill="#0058ad">r 37 [1 2 3 4 5 6 8 9 10 11 12 13 14 15 16 17 19 20 21 23 24 25]</text>
<polyline fill="none" stroke="#0058ad" points="2711,-81.5 2711,-110.5 "/>
<text text-anchor="middle" x="2845" y="-92.3" font-family="Times,serif" font-size="14.00" fill="#0058ad">r 43 [1 2 3 4 5 6 7 8 9 10 11 12 13]</text>
<polyline fill="none" stroke="#0058ad" points="2979,-81.5 2979,-110.5 "/>
<text text-anchor="middle" x="3014" y="-92.3" font-family="Times,serif" font-size="14.00" fill="#0058ad">a 42 10</text>
<polyline fill="none" stroke="#0058ad" points="3049,-81.5 3049,-110.5 "/>
<text text-anchor="middle" x="3183" y="-92.3" font-family="Times,serif" font-size="14.00" fill="#0058ad">r 43 [1 2 3 4 5 6 7 8 9 10 11 12 13]</text>
<polyline fill="none" stroke="#0058ad" points="3317,-81.5 3317,-110.5 "/>
<text text-anchor="middle" x="3352" y="-92.3" font-family="Times,serif" font-size="14.00" fill="#0058ad">a 42 11</text>
<polyline fill="none" stroke="#0058ad" points="3387,-81.5 3387,-110.5 "/>
<text text-anchor="middle" x="3626.5" y="-92.3" font-family="Times,serif" font-size="14.00" fill="#0058ad">r 37 [1 2 3 4 5 6 8 9 10 11 12 13 14 15 16 17 19 20 21 23 24 25]</text>
<polyline fill="none" stroke="#0058ad" points="3866,-81.5 3866,-110.5 "/>
<text text-anchor="middle" x="4105.5" y="-92.3" font-family="Times,serif" font-size="14.00" fill="#0058ad">r 37 [1 2 3 4 5 6 8 9 10 11 12 13 14 15 16 17 19 20 21 23 24 25]</text>
<polyline fill="none" stroke="#0058ad" points="4345,-81.5 4345,-110.5 "/>
<text text-anchor="middle" x="4479" y="-92.3" font-family="Times,serif" font-size="14.00" fill="#0058ad">r 43 [1 2 3 4 5 6 7 8 9 10 11 12 13]</text>
</g>
<!-- T479&#45;&gt;T478 -->
<g id="edge1" class="edge">
<title>T479:f8&#45;&gt;T478:f1</title>
<path fill="none" stroke="#5b00c0" d="M1646.5,-162C1646.5,-75.27 1465.33,-191.16 1450.47,-121.05"/>
<polygon fill="#5b00c0" stroke="#5b00c0" points="1453.94,-120.62 1449.5,-111 1446.97,-121.29 1453.94,-120.62"/>
<text text-anchor="middle" x="1650" y="-132.8" font-family="Times,serif" font-size="14.00" fill="#5b00c0">rw</text>
</g>
<!-- T477 -->
<g id="node2" class="node">
<title>T477</title>
<polygon fill="none" stroke="#0058ad" points="767.5,-0.5 767.5,-29.5 1105.5,-29.5 1105.5,-0.5 767.5,-0.5"/>
<text text-anchor="middle" x="901.5" y="-11.3" font-family="Times,serif" font-size="14.00" fill="#0058ad">r 43 [1 2 3 4 5 6 7 8 9 10 11 12 13]</text>
<polyline fill="none" stroke="#0058ad" points="1035.5,-0.5 1035.5,-29.5 "/>
<text text-anchor="middle" x="1070.5" y="-11.3" font-family="Times,serif" font-size="14.00" fill="#0058ad">a 43 14</text>
</g>
<!-- T477&#45;&gt;T479 -->
<g id="edge2" class="edge">
<title>T477:f1&#45;&gt;T479:f1</title>
<path fill="none" stroke="#c02700" d="M1070.5,-30C1070.5,-110.72 384.44,-80.6 328.16,-152.23"/>
<polygon fill="#c02700" stroke="#c02700" points="324.73,-151.41 324.5,-162 331.29,-153.87 324.73,-151.41"/>
<text text-anchor="middle" x="900" y="-92.3" font-family="Times,serif" font-size="14.00" fill="#c02700">ww</text>
</g>
<!-- T478&#45;&gt;T477 -->
<g id="edge3" class="edge">
<title>T478:f3&#45;&gt;T477:f1</title>
<path fill="none" stroke="#5b00c0" d="M2097.5,-81C2097.5,-27.92 1231.6,-15.89 1116.54,-15.05"/>
<polygon fill="#5b00c0" stroke="#5b00c0" points="1116.52,-11.55 1106.5,-15 1116.48,-18.55 1116.52,-11.55"/>
<text text-anchor="middle" x="2069" y="-51.8" font-family="Times,serif" font-size="14.00" fill="#5b00c0">rw</text>
</g>
</g>
</svg>
