<?xml version="1.0" encoding="UTF-8" standalone="no"?>
<!DOCTYPE svg PUBLIC "-//W3C//DTD SVG 1.1//EN"
 "http://www.w3.org/Graphics/SVG/1.1/DTD/svg11.dtd">
<!-- Generated by graphviz version 2.43.0 (0)
 -->
<!-- Title: a_graph Pages: 1 -->
<svg width="463pt" height="119pt"
 viewBox="0.00 0.00 463.00 119.00" xmlns="http://www.w3.org/2000/svg" xmlns:xlink="http://www.w3.org/1999/xlink">
<g id="graph0" class="graph" transform="scale(1 1) rotate(0) translate(4 115)">
<title>a_graph</title>
<polygon fill="white" stroke="transparent" points="-4,4 -4,-115 459,-115 459,4 -4,4"/>
<!-- T2643 -->
<g id="node1" class="node">
<title>T2643</title>
<polygon fill="none" stroke="#0058ad" points="108,-81.5 108,-110.5 455,-110.5 455,-81.5 108,-81.5"/>
<text text-anchor="middle" x="152" y="-92.3" font-family="Times,serif" font-size="14.00" fill="#0058ad">r 1121 [1]</text>
<polyline fill="none" stroke="#0058ad" points="196,-81.5 196,-110.5 "/>
<text text-anchor="middle" x="235.5" y="-92.3" font-family="Times,serif" font-size="14.00" fill="#0058ad">a 1124 2</text>
<polyline fill="none" stroke="#0058ad" points="275,-81.5 275,-110.5 "/>
<text text-anchor="middle" x="325.5" y="-92.3" font-family="Times,serif" font-size="14.00" fill="#0058ad">r 1124 [1 2]</text>
<polyline fill="none" stroke="#0058ad" points="376,-81.5 376,-110.5 "/>
<text text-anchor="middle" x="415.5" y="-92.3" font-family="Times,serif" font-size="14.00" fill="#0058ad">a 1124 3</text>
</g>
<!-- T2642 -->
<g id="node2" class="node">
<title>T2642</title>
<polygon fill="none" stroke="#0058ad" points="0,-0.5 0,-29.5 347,-29.5 347,-0.5 0,-0.5"/>
<text text-anchor="middle" x="39.5" y="-11.3" font-family="Times,serif" font-size="14.00" fill="#0058ad">a 1121 3</text>
<polyline fill="none" stroke="#0058ad" points="79,-0.5 79,-29.5 "/>
<text text-anchor="middle" x="129.5" y="-11.3" font-family="Times,serif" font-size="14.00" fill="#0058ad">r 1121 [1 3]</text>
<polyline fill="none" stroke="#0058ad" points="180,-0.5 180,-29.5 "/>
<text text-anchor="middle" x="219.5" y="-11.3" font-family="Times,serif" font-size="14.00" fill="#0058ad">a 1123 2</text>
<polyline fill="none" stroke="#0058ad" points="259,-0.5 259,-29.5 "/>
<text text-anchor="middle" x="303" y="-11.3" font-family="Times,serif" font-size="14.00" fill="#0058ad">r 1124 [1]</text>
</g>
<!-- T2643&#45;&gt;T2642 -->
<g id="edge1" class="edge">
<title>T2643:f0&#45;&gt;T2642:f0</title>
<path fill="none" stroke="#5b00c0" d="M106.5,-96C68.29,-96 43.95,-75.78 40.05,-40.38"/>
<polygon fill="#5b00c0" stroke="#5b00c0" points="43.53,-39.8 39.5,-30 36.54,-40.17 43.53,-39.8"/>
<text text-anchor="middle" x="56" y="-51.8" font-family="Times,serif" font-size="14.00" fill="#5b00c0">rw</text>
</g>
<!-- T2642&#45;&gt;T2643 -->
<g id="edge2" class="edge">
<title>T2642:f3&#45;&gt;T2643:f1</title>
<path fill="none" stroke="#5b00c0" d="M303.5,-30C303.5,-63.79 249.09,-47.71 237.61,-70.98"/>
<polygon fill="#5b00c0" stroke="#5b00c0" points="234.14,-70.49 235.5,-81 240.99,-71.94 234.14,-70.49"/>
<text text-anchor="middle" x="304" y="-51.8" font-family="Times,serif" font-size="14.00" fill="#5b00c0">rw</text>
</g>
</g>
</svg>
