<?xml version="1.0" encoding="UTF-8" standalone="no"?>
<!DOCTYPE svg PUBLIC "-//W3C//DTD SVG 1.1//EN"
 "http://www.w3.org/Graphics/SVG/1.1/DTD/svg11.dtd">
<!-- Generated by graphviz version 2.43.0 (0)
 -->
<!-- Title: a_graph Pages: 1 -->
<svg width="671pt" height="119pt"
 viewBox="0.00 0.00 670.50 119.00" xmlns="http://www.w3.org/2000/svg" xmlns:xlink="http://www.w3.org/1999/xlink">
<g id="graph0" class="graph" transform="scale(1 1) rotate(0) translate(4 115)">
<title>a_graph</title>
<polygon fill="white" stroke="transparent" points="-4,4 -4,-115 666.5,-115 666.5,4 -4,4"/>
<!-- T413 -->
<g id="node1" class="node">
<title>T413</title>
<polygon fill="none" stroke="#0058ad" points="303.5,-81.5 303.5,-110.5 662.5,-110.5 662.5,-81.5 303.5,-81.5"/>
<text text-anchor="middle" x="338.5" y="-92.3" font-family="Times,serif" font-size="14.00" fill="#0058ad">a 174 3</text>
<polyline fill="none" stroke="#0058ad" points="373.5,-81.5 373.5,-110.5 "/>
<text text-anchor="middle" x="408.5" y="-92.3" font-family="Times,serif" font-size="14.00" fill="#0058ad">a 179 1</text>
<polyline fill="none" stroke="#0058ad" points="443.5,-81.5 443.5,-110.5 "/>
<text text-anchor="middle" x="478.5" y="-92.3" font-family="Times,serif" font-size="14.00" fill="#0058ad">r 178 []</text>
<polyline fill="none" stroke="#0058ad" points="513.5,-81.5 513.5,-110.5 "/>
<text text-anchor="middle" x="553" y="-92.3" font-family="Times,serif" font-size="14.00" fill="#0058ad">r 179 [1]</text>
<polyline fill="none" stroke="#0058ad" points="592.5,-81.5 592.5,-110.5 "/>
<text text-anchor="middle" x="627.5" y="-92.3" font-family="Times,serif" font-size="14.00" fill="#0058ad">r 178 []</text>
</g>
<!-- T412 -->
<g id="node2" class="node">
<title>T412</title>
<polygon fill="none" stroke="#0058ad" points="0,-0.5 0,-29.5 640,-29.5 640,-0.5 0,-0.5"/>
<text text-anchor="middle" x="35" y="-11.3" font-family="Times,serif" font-size="14.00" fill="#0058ad">a 176 3</text>
<polyline fill="none" stroke="#0058ad" points="70,-0.5 70,-29.5 "/>
<text text-anchor="middle" x="123" y="-11.3" font-family="Times,serif" font-size="14.00" fill="#0058ad">r 176 [1 2 3]</text>
<polyline fill="none" stroke="#0058ad" points="176,-0.5 176,-29.5 "/>
<text text-anchor="middle" x="211" y="-11.3" font-family="Times,serif" font-size="14.00" fill="#0058ad">r 178 []</text>
<polyline fill="none" stroke="#0058ad" points="246,-0.5 246,-29.5 "/>
<text text-anchor="middle" x="281" y="-11.3" font-family="Times,serif" font-size="14.00" fill="#0058ad">a 178 1</text>
<polyline fill="none" stroke="#0058ad" points="316,-0.5 316,-29.5 "/>
<text text-anchor="middle" x="351" y="-11.3" font-family="Times,serif" font-size="14.00" fill="#0058ad">a 178 2</text>
<polyline fill="none" stroke="#0058ad" points="386,-0.5 386,-29.5 "/>
<text text-anchor="middle" x="432" y="-11.3" font-family="Times,serif" font-size="14.00" fill="#0058ad">r 178 [1 2]</text>
<polyline fill="none" stroke="#0058ad" points="478,-0.5 478,-29.5 "/>
<text text-anchor="middle" x="524" y="-11.3" font-family="Times,serif" font-size="14.00" fill="#0058ad">r 178 [1 2]</text>
<polyline fill="none" stroke="#0058ad" points="570,-0.5 570,-29.5 "/>
<text text-anchor="middle" x="605" y="-11.3" font-family="Times,serif" font-size="14.00" fill="#0058ad">r 179 []</text>
</g>
<!-- T413&#45;&gt;T412 -->
<g id="edge1" class="edge">
<title>T413:f2&#45;&gt;T412:f3</title>
<path fill="none" stroke="#5b00c0" d="M478,-81C478,-57.95 459.21,-57.02 438,-48 409.22,-35.76 307.17,-58.9 285.19,-39.3"/>
<polygon fill="#5b00c0" stroke="#5b00c0" points="288.3,-37.68 281,-30 281.92,-40.56 288.3,-37.68"/>
<text text-anchor="middle" x="480.5" y="-51.8" font-family="Times,serif" font-size="14.00" fill="#5b00c0">rw</text>
</g>
<!-- T412&#45;&gt;T413 -->
<g id="edge2" class="edge">
<title>T412:f7&#45;&gt;T413:f1</title>
<path fill="none" stroke="#5b00c0" d="M605,-30C605,-72.41 446.66,-19.78 415,-48 406.61,-55.48 406.87,-61.87 407.52,-70.92"/>
<polygon fill="#5b00c0" stroke="#5b00c0" points="404.03,-71.18 408,-81 411.02,-70.84 404.03,-71.18"/>
<text text-anchor="middle" x="424.5" y="-51.8" font-family="Times,serif" font-size="14.00" fill="#5b00c0">rw</text>
</g>
</g>
</svg>
