<?xml version="1.0" encoding="UTF-8" standalone="no"?>
<!DOCTYPE svg PUBLIC "-//W3C//DTD SVG 1.1//EN"
 "http://www.w3.org/Graphics/SVG/1.1/DTD/svg11.dtd">
<!-- Generated by graphviz version 2.43.0 (0)
 -->
<!-- Title: a_graph Pages: 1 -->
<svg width="900pt" height="200pt"
 viewBox="0.00 0.00 900.00 200.00" xmlns="http://www.w3.org/2000/svg" xmlns:xlink="http://www.w3.org/1999/xlink">
<g id="graph0" class="graph" transform="scale(1 1) rotate(0) translate(4 196)">
<title>a_graph</title>
<polygon fill="white" stroke="transparent" points="-4,4 -4,-196 896,-196 896,4 -4,4"/>
<!-- T497 -->
<g id="node1" class="node">
<title>T497</title>
<polygon fill="none" stroke="#0058ad" points="314,-162.5 314,-191.5 892,-191.5 892,-162.5 314,-162.5"/>
<text text-anchor="middle" x="349" y="-173.3" font-family="Times,serif" font-size="14.00" fill="#0058ad">r 215 []</text>
<polyline fill="none" stroke="#0058ad" points="384,-162.5 384,-191.5 "/>
<text text-anchor="middle" x="419" y="-173.3" font-family="Times,serif" font-size="14.00" fill="#0058ad">a 215 1</text>
<polyline fill="none" stroke="#0058ad" points="454,-162.5 454,-191.5 "/>
<text text-anchor="middle" x="489" y="-173.3" font-family="Times,serif" font-size="14.00" fill="#0058ad">a 216 1</text>
<polyline fill="none" stroke="#0058ad" points="524,-162.5 524,-191.5 "/>
<text text-anchor="middle" x="559" y="-173.3" font-family="Times,serif" font-size="14.00" fill="#0058ad">r 214 []</text>
<polyline fill="none" stroke="#0058ad" points="594,-162.5 594,-191.5 "/>
<text text-anchor="middle" x="633.5" y="-173.3" font-family="Times,serif" font-size="14.00" fill="#0058ad">r 216 [1]</text>
<polyline fill="none" stroke="#0058ad" points="673,-162.5 673,-191.5 "/>
<text text-anchor="middle" x="708" y="-173.3" font-family="Times,serif" font-size="14.00" fill="#0058ad">a 216 2</text>
<polyline fill="none" stroke="#0058ad" points="743,-162.5 743,-191.5 "/>
<text text-anchor="middle" x="782.5" y="-173.3" font-family="Times,serif" font-size="14.00" fill="#0058ad">r 215 [1]</text>
<polyline fill="none" stroke="#0058ad" points="822,-162.5 822,-191.5 "/>
<text text-anchor="middle" x="857" y="-173.3" font-family="Times,serif" font-size="14.00" fill="#0058ad">a 216 3</text>
</g>
<!-- T492 -->
<g id="node3" class="node">
<title>T492</title>
<polygon fill="none" stroke="#0058ad" points="0,-81.5 0,-110.5 618,-110.5 618,-81.5 0,-81.5"/>
<text text-anchor="middle" x="35" y="-92.3" font-family="Times,serif" font-size="14.00" fill="#0058ad">a 212 1</text>
<polyline fill="none" stroke="#0058ad" points="70,-81.5 70,-110.5 "/>
<text text-anchor="middle" x="105" y="-92.3" font-family="Times,serif" font-size="14.00" fill="#0058ad">a 212 2</text>
<polyline fill="none" stroke="#0058ad" points="140,-81.5 140,-110.5 "/>
<text text-anchor="middle" x="175" y="-92.3" font-family="Times,serif" font-size="14.00" fill="#0058ad">r 210 []</text>
<polyline fill="none" stroke="#0058ad" points="210,-81.5 210,-110.5 "/>
<text text-anchor="middle" x="256" y="-92.3" font-family="Times,serif" font-size="14.00" fill="#0058ad">r 212 [1 2]</text>
<polyline fill="none" stroke="#0058ad" points="302,-81.5 302,-110.5 "/>
<text text-anchor="middle" x="337" y="-92.3" font-family="Times,serif" font-size="14.00" fill="#0058ad">a 212 3</text>
<polyline fill="none" stroke="#0058ad" points="372,-81.5 372,-110.5 "/>
<text text-anchor="middle" x="407" y="-92.3" font-family="Times,serif" font-size="14.00" fill="#0058ad">a 214 1</text>
<polyline fill="none" stroke="#0058ad" points="442,-81.5 442,-110.5 "/>
<text text-anchor="middle" x="477" y="-92.3" font-family="Times,serif" font-size="14.00" fill="#0058ad">r 211 []</text>
<polyline fill="none" stroke="#0058ad" points="512,-81.5 512,-110.5 "/>
<text text-anchor="middle" x="565" y="-92.3" font-family="Times,serif" font-size="14.00" fill="#0058ad">r 212 [1 2 3]</text>
</g>
<!-- T497&#45;&gt;T492 -->
<g id="edge1" class="edge">
<title>T497:f3&#45;&gt;T492:f5</title>
<path fill="none" stroke="#5b00c0" d="M559,-162C559,-94.5 422.61,-173.06 408.22,-120.96"/>
<polygon fill="#5b00c0" stroke="#5b00c0" points="411.69,-120.5 407,-111 404.75,-121.35 411.69,-120.5"/>
<text text-anchor="middle" x="562.5" y="-132.8" font-family="Times,serif" font-size="14.00" fill="#5b00c0">rw</text>
</g>
<!-- T488 -->
<g id="node2" class="node">
<title>T488</title>
<polygon fill="none" stroke="#0058ad" points="140.5,-0.5 140.5,-29.5 775.5,-29.5 775.5,-0.5 140.5,-0.5"/>
<text text-anchor="middle" x="175.5" y="-11.3" font-family="Times,serif" font-size="14.00" fill="#0058ad">a 210 1</text>
<polyline fill="none" stroke="#0058ad" points="210.5,-0.5 210.5,-29.5 "/>
<text text-anchor="middle" x="256.5" y="-11.3" font-family="Times,serif" font-size="14.00" fill="#0058ad">r 209 [1 2]</text>
<polyline fill="none" stroke="#0058ad" points="302.5,-0.5 302.5,-29.5 "/>
<text text-anchor="middle" x="348.5" y="-11.3" font-family="Times,serif" font-size="14.00" fill="#0058ad">r 209 [1 2]</text>
<polyline fill="none" stroke="#0058ad" points="394.5,-0.5 394.5,-29.5 "/>
<text text-anchor="middle" x="440.5" y="-11.3" font-family="Times,serif" font-size="14.00" fill="#0058ad">r 209 [1 2]</text>
<polyline fill="none" stroke="#0058ad" points="486.5,-0.5 486.5,-29.5 "/>
<text text-anchor="middle" x="521.5" y="-11.3" font-family="Times,serif" font-size="14.00" fill="#0058ad">a 209 3</text>
<polyline fill="none" stroke="#0058ad" points="556.5,-0.5 556.5,-29.5 "/>
<text text-anchor="middle" x="591.5" y="-11.3" font-family="Times,serif" font-size="14.00" fill="#0058ad">a 208 3</text>
<polyline fill="none" stroke="#0058ad" points="626.5,-0.5 626.5,-29.5 "/>
<text text-anchor="middle" x="666" y="-11.3" font-family="Times,serif" font-size="14.00" fill="#0058ad">r 210 [1]</text>
<polyline fill="none" stroke="#0058ad" points="705.5,-0.5 705.5,-29.5 "/>
<text text-anchor="middle" x="740.5" y="-11.3" font-family="Times,serif" font-size="14.00" fill="#0058ad">r 212 []</text>
</g>
<!-- T488&#45;&gt;T497 -->
<g id="edge3" class="edge">
<title>T488&#45;&gt;T497</title>
<path fill="none" stroke="#0050c0" d="M551.39,-29.61C580.9,-38.94 610.18,-54.63 627,-81 641.2,-103.26 629.36,-133.45 617.83,-153.78"/>
<polygon fill="#0050c0" stroke="#0050c0" points="614.82,-151.98 612.65,-162.35 620.82,-155.6 614.82,-151.98"/>
<text text-anchor="middle" x="640.5" y="-92.3" font-family="Times,serif" font-size="14.00" fill="#0050c0">rt</text>
</g>
<!-- T488&#45;&gt;T492 -->
<g id="edge2" class="edge">
<title>T488:f7&#45;&gt;T492:f0</title>
<path fill="none" stroke="#5b00c0" d="M741,-30C741,-48.32 128.22,-59.7 44.45,-77.07"/>
<polygon fill="#5b00c0" stroke="#5b00c0" points="42.89,-73.93 35,-81 45.58,-80.39 42.89,-73.93"/>
<text text-anchor="middle" x="542.5" y="-51.8" font-family="Times,serif" font-size="14.00" fill="#5b00c0">rw</text>
</g>
<!-- T492&#45;&gt;T488 -->
<g id="edge4" class="edge">
<title>T492:f2&#45;&gt;T488:f0</title>
<path fill="none" stroke="#5b00c0" d="M175,-81C175,-62.23 175,-55.12 175,-40.35"/>
<polygon fill="#5b00c0" stroke="#5b00c0" points="178.5,-40 175,-30 171.5,-40 178.5,-40"/>
<text text-anchor="middle" x="184.5" y="-51.8" font-family="Times,serif" font-size="14.00" fill="#5b00c0">rw</text>
</g>
</g>
</svg>
