<?xml version="1.0" encoding="UTF-8" standalone="no"?>
<!DOCTYPE svg PUBLIC "-//W3C//DTD SVG 1.1//EN"
 "http://www.w3.org/Graphics/SVG/1.1/DTD/svg11.dtd">
<!-- Generated by graphviz version 2.43.0 (0)
 -->
<!-- Title: a_graph Pages: 1 -->
<svg width="735pt" height="200pt"
 viewBox="0.00 0.00 734.87 200.00" xmlns="http://www.w3.org/2000/svg" xmlns:xlink="http://www.w3.org/1999/xlink">
<g id="graph0" class="graph" transform="scale(1 1) rotate(0) translate(4 196)">
<title>a_graph</title>
<polygon fill="white" stroke="transparent" points="-4,4 -4,-196 730.87,-196 730.87,4 -4,4"/>
<!-- T2720 -->
<g id="node1" class="node">
<title>T2720</title>
<polygon fill="none" stroke="#0058ad" points="17.37,-162.5 17.37,-191.5 632.37,-191.5 632.37,-162.5 17.37,-162.5"/>
<text text-anchor="middle" x="56.87" y="-173.3" font-family="Times,serif" font-size="14.00" fill="#0058ad">a 1154 2</text>
<polyline fill="none" stroke="#0058ad" points="96.37,-162.5 96.37,-191.5 "/>
<text text-anchor="middle" x="146.87" y="-173.3" font-family="Times,serif" font-size="14.00" fill="#0058ad">r 1154 [1 2]</text>
<polyline fill="none" stroke="#0058ad" points="197.37,-162.5 197.37,-191.5 "/>
<text text-anchor="middle" x="241.37" y="-173.3" font-family="Times,serif" font-size="14.00" fill="#0058ad">r 1149 [1]</text>
<polyline fill="none" stroke="#0058ad" points="285.37,-162.5 285.37,-191.5 "/>
<text text-anchor="middle" x="324.87" y="-173.3" font-family="Times,serif" font-size="14.00" fill="#0058ad">a 1155 1</text>
<polyline fill="none" stroke="#0058ad" points="364.37,-162.5 364.37,-191.5 "/>
<text text-anchor="middle" x="408.37" y="-173.3" font-family="Times,serif" font-size="14.00" fill="#0058ad">r 1149 [1]</text>
<polyline fill="none" stroke="#0058ad" points="452.37,-162.5 452.37,-191.5 "/>
<text text-anchor="middle" x="502.87" y="-173.3" font-family="Times,serif" font-size="14.00" fill="#0058ad">r 1154 [1 2]</text>
<polyline fill="none" stroke="#0058ad" points="553.37,-162.5 553.37,-191.5 "/>
<text text-anchor="middle" x="592.87" y="-173.3" font-family="Times,serif" font-size="14.00" fill="#0058ad">a 1155 2</text>
</g>
<!-- T2716 -->
<g id="node2" class="node">
<title>T2716</title>
<polygon fill="none" stroke="#0058ad" points="67.37,-81.5 67.37,-110.5 708.37,-110.5 708.37,-81.5 67.37,-81.5"/>
<text text-anchor="middle" x="111.37" y="-92.3" font-family="Times,serif" font-size="14.00" fill="#0058ad">r 1149 [1]</text>
<polyline fill="none" stroke="#0058ad" points="155.37,-81.5 155.37,-110.5 "/>
<text text-anchor="middle" x="194.87" y="-92.3" font-family="Times,serif" font-size="14.00" fill="#0058ad">r 1142 []</text>
<polyline fill="none" stroke="#0058ad" points="234.37,-81.5 234.37,-110.5 "/>
<text text-anchor="middle" x="273.87" y="-92.3" font-family="Times,serif" font-size="14.00" fill="#0058ad">a 1149 2</text>
<polyline fill="none" stroke="#0058ad" points="313.37,-81.5 313.37,-110.5 "/>
<text text-anchor="middle" x="352.87" y="-92.3" font-family="Times,serif" font-size="14.00" fill="#0058ad">a 1149 3</text>
<polyline fill="none" stroke="#0058ad" points="392.37,-81.5 392.37,-110.5 "/>
<text text-anchor="middle" x="431.87" y="-92.3" font-family="Times,serif" font-size="14.00" fill="#0058ad">a 1153 1</text>
<polyline fill="none" stroke="#0058ad" points="471.37,-81.5 471.37,-110.5 "/>
<text text-anchor="middle" x="510.87" y="-92.3" font-family="Times,serif" font-size="14.00" fill="#0058ad">a 1153 2</text>
<polyline fill="none" stroke="#0058ad" points="550.37,-81.5 550.37,-110.5 "/>
<text text-anchor="middle" x="589.87" y="-92.3" font-family="Times,serif" font-size="14.00" fill="#0058ad">r 1154 []</text>
<polyline fill="none" stroke="#0058ad" points="629.37,-81.5 629.37,-110.5 "/>
<text text-anchor="middle" x="668.87" y="-92.3" font-family="Times,serif" font-size="14.00" fill="#0058ad">a 1153 3</text>
</g>
<!-- T2720&#45;&gt;T2716 -->
<g id="edge1" class="edge">
<title>T2720:f2&#45;&gt;T2716:f2</title>
<path fill="none" stroke="#5b00c0" d="M240.87,-162C240.87,-139.01 264.8,-137.77 271.9,-121.24"/>
<polygon fill="#5b00c0" stroke="#5b00c0" points="275.42,-121.48 273.87,-111 268.55,-120.16 275.42,-121.48"/>
<text text-anchor="middle" x="276.37" y="-132.8" font-family="Times,serif" font-size="14.00" fill="#5b00c0">rw</text>
</g>
<!-- T2714 -->
<g id="node3" class="node">
<title>T2714</title>
<polygon fill="none" stroke="#0058ad" points="392.87,-0.5 392.87,-29.5 726.87,-29.5 726.87,-0.5 392.87,-0.5"/>
<text text-anchor="middle" x="432.37" y="-11.3" font-family="Times,serif" font-size="14.00" fill="#0058ad">r 1153 []</text>
<polyline fill="none" stroke="#0058ad" points="471.87,-0.5 471.87,-29.5 "/>
<text text-anchor="middle" x="511.37" y="-11.3" font-family="Times,serif" font-size="14.00" fill="#0058ad">a 1154 1</text>
<polyline fill="none" stroke="#0058ad" points="550.87,-0.5 550.87,-29.5 "/>
<text text-anchor="middle" x="594.87" y="-11.3" font-family="Times,serif" font-size="14.00" fill="#0058ad">r 1154 [1]</text>
<polyline fill="none" stroke="#0058ad" points="638.87,-0.5 638.87,-29.5 "/>
<text text-anchor="middle" x="682.87" y="-11.3" font-family="Times,serif" font-size="14.00" fill="#0058ad">r 1154 [1]</text>
</g>
<!-- T2716&#45;&gt;T2714 -->
<g id="edge2" class="edge">
<title>T2716:f6&#45;&gt;T2714:f1</title>
<path fill="none" stroke="#5b00c0" d="M589.87,-81C589.87,-43.13 524.99,-66.34 512.82,-39.92"/>
<polygon fill="#5b00c0" stroke="#5b00c0" points="516.24,-39.14 510.87,-30 509.37,-40.49 516.24,-39.14"/>
<text text-anchor="middle" x="589.37" y="-51.8" font-family="Times,serif" font-size="14.00" fill="#5b00c0">rw</text>
</g>
<!-- T2714&#45;&gt;T2720 -->
<g id="edge4" class="edge">
<title>T2714:f1&#45;&gt;T2720:f0</title>
<path fill="none" stroke="#c02700" d="M510.87,-30C510.87,-56.65 53.64,-63.12 33.87,-81 -8.81,-119.6 -1.94,-156.48 7.92,-170.77"/>
<polygon fill="#c02700" stroke="#c02700" points="5.84,-173.59 15.87,-177 10.16,-168.08 5.84,-173.59"/>
<text text-anchor="middle" x="46.37" y="-92.3" font-family="Times,serif" font-size="14.00" fill="#c02700">ww</text>
</g>
<!-- T2714&#45;&gt;T2716 -->
<g id="edge3" class="edge">
<title>T2714:f0&#45;&gt;T2716:f4</title>
<path fill="none" stroke="#5b00c0" d="M431.87,-30C431.87,-48.77 431.87,-55.88 431.87,-70.65"/>
<polygon fill="#5b00c0" stroke="#5b00c0" points="428.37,-71 431.87,-81 435.37,-71 428.37,-71"/>
<text text-anchor="middle" x="441.37" y="-51.8" font-family="Times,serif" font-size="14.00" fill="#5b00c0">rw</text>
</g>
</g>
</svg>
