<?xml version="1.0" encoding="UTF-8" standalone="no"?>
<!DOCTYPE svg PUBLIC "-//W3C//DTD SVG 1.1//EN"
 "http://www.w3.org/Graphics/SVG/1.1/DTD/svg11.dtd">
<!-- Generated by graphviz version 2.43.0 (0)
 -->
<!-- Title: a_graph Pages: 1 -->
<svg width="738pt" height="119pt"
 viewBox="0.00 0.00 737.50 119.00" xmlns="http://www.w3.org/2000/svg" xmlns:xlink="http://www.w3.org/1999/xlink">
<g id="graph0" class="graph" transform="scale(1 1) rotate(0) translate(4 115)">
<title>a_graph</title>
<polygon fill="white" stroke="transparent" points="-4,4 -4,-115 733.5,-115 733.5,4 -4,4"/>
<!-- T1659 -->
<g id="node1" class="node">
<title>T1659</title>
<polygon fill="none" stroke="#0058ad" points="160.5,-81.5 160.5,-110.5 729.5,-110.5 729.5,-81.5 160.5,-81.5"/>
<text text-anchor="middle" x="195.5" y="-92.3" font-family="Times,serif" font-size="14.00" fill="#0058ad">a 708 3</text>
<polyline fill="none" stroke="#0058ad" points="230.5,-81.5 230.5,-110.5 "/>
<text text-anchor="middle" x="265.5" y="-92.3" font-family="Times,serif" font-size="14.00" fill="#0058ad">r 710 []</text>
<polyline fill="none" stroke="#0058ad" points="300.5,-81.5 300.5,-110.5 "/>
<text text-anchor="middle" x="335.5" y="-92.3" font-family="Times,serif" font-size="14.00" fill="#0058ad">r 711 []</text>
<polyline fill="none" stroke="#0058ad" points="370.5,-81.5 370.5,-110.5 "/>
<text text-anchor="middle" x="405.5" y="-92.3" font-family="Times,serif" font-size="14.00" fill="#0058ad">r 710 []</text>
<polyline fill="none" stroke="#0058ad" points="440.5,-81.5 440.5,-110.5 "/>
<text text-anchor="middle" x="475.5" y="-92.3" font-family="Times,serif" font-size="14.00" fill="#0058ad">a 711 1</text>
<polyline fill="none" stroke="#0058ad" points="510.5,-81.5 510.5,-110.5 "/>
<text text-anchor="middle" x="545.5" y="-92.3" font-family="Times,serif" font-size="14.00" fill="#0058ad">a 710 1</text>
<polyline fill="none" stroke="#0058ad" points="580.5,-81.5 580.5,-110.5 "/>
<text text-anchor="middle" x="615.5" y="-92.3" font-family="Times,serif" font-size="14.00" fill="#0058ad">a 710 2</text>
<polyline fill="none" stroke="#0058ad" points="650.5,-81.5 650.5,-110.5 "/>
<text text-anchor="middle" x="690" y="-92.3" font-family="Times,serif" font-size="14.00" fill="#0058ad">r 697 [1]</text>
</g>
<!-- T1657 -->
<g id="node2" class="node">
<title>T1657</title>
<polygon fill="none" stroke="#0058ad" points="0,-0.5 0,-29.5 526,-29.5 526,-0.5 0,-0.5"/>
<text text-anchor="middle" x="35" y="-11.3" font-family="Times,serif" font-size="14.00" fill="#0058ad">a 709 2</text>
<polyline fill="none" stroke="#0058ad" points="70,-0.5 70,-29.5 "/>
<text text-anchor="middle" x="105" y="-11.3" font-family="Times,serif" font-size="14.00" fill="#0058ad">a 709 3</text>
<polyline fill="none" stroke="#0058ad" points="140,-0.5 140,-29.5 "/>
<text text-anchor="middle" x="175" y="-11.3" font-family="Times,serif" font-size="14.00" fill="#0058ad">a 706 2</text>
<polyline fill="none" stroke="#0058ad" points="210,-0.5 210,-29.5 "/>
<text text-anchor="middle" x="245" y="-11.3" font-family="Times,serif" font-size="14.00" fill="#0058ad">a 706 3</text>
<polyline fill="none" stroke="#0058ad" points="280,-0.5 280,-29.5 "/>
<text text-anchor="middle" x="315" y="-11.3" font-family="Times,serif" font-size="14.00" fill="#0058ad">r 708 []</text>
<polyline fill="none" stroke="#0058ad" points="350,-0.5 350,-29.5 "/>
<text text-anchor="middle" x="403" y="-11.3" font-family="Times,serif" font-size="14.00" fill="#0058ad">r 706 [1 2 3]</text>
<polyline fill="none" stroke="#0058ad" points="456,-0.5 456,-29.5 "/>
<text text-anchor="middle" x="491" y="-11.3" font-family="Times,serif" font-size="14.00" fill="#0058ad">a 697 2</text>
</g>
<!-- T1659&#45;&gt;T1657 -->
<g id="edge1" class="edge">
<title>T1659:f7&#45;&gt;T1657:f6</title>
<path fill="none" stroke="#5b00c0" d="M690,-81C690,-44.82 583.79,-19.06 537.02,-15.44"/>
<polygon fill="#5b00c0" stroke="#5b00c0" points="537.14,-11.94 527,-15 536.84,-18.93 537.14,-11.94"/>
<text text-anchor="middle" x="688.5" y="-51.8" font-family="Times,serif" font-size="14.00" fill="#5b00c0">rw</text>
</g>
<!-- T1657&#45;&gt;T1659 -->
<g id="edge2" class="edge">
<title>T1657:f4&#45;&gt;T1659:f0</title>
<path fill="none" stroke="#5b00c0" d="M315,-30C315,-84.1 210.41,-31.13 196.52,-71.01"/>
<polygon fill="#5b00c0" stroke="#5b00c0" points="193.04,-70.59 195,-81 199.96,-71.64 193.04,-70.59"/>
<text text-anchor="middle" x="315.5" y="-51.8" font-family="Times,serif" font-size="14.00" fill="#5b00c0">rw</text>
</g>
</g>
</svg>
