<?xml version="1.0" encoding="UTF-8" standalone="no"?>
<!DOCTYPE svg PUBLIC "-//W3C//DTD SVG 1.1//EN"
 "http://www.w3.org/Graphics/SVG/1.1/DTD/svg11.dtd">
<!-- Generated by graphviz version 2.43.0 (0)
 -->
<!-- Title: a_graph Pages: 1 -->
<svg width="1252pt" height="281pt"
 viewBox="0.00 0.00 1251.50 281.00" xmlns="http://www.w3.org/2000/svg" xmlns:xlink="http://www.w3.org/1999/xlink">
<g id="graph0" class="graph" transform="scale(1 1) rotate(0) translate(4 277)">
<title>a_graph</title>
<polygon fill="white" stroke="transparent" points="-4,4 -4,-277 1247.5,-277 1247.5,4 -4,4"/>
<!-- T3375 -->
<g id="node1" class="node">
<title>T3375</title>
<polygon fill="none" stroke="#0058ad" points="107,-243.5 107,-272.5 551,-272.5 551,-243.5 107,-243.5"/>
<text text-anchor="middle" x="151" y="-254.3" font-family="Times,serif" font-size="14.00" fill="#0058ad">r 1451 [1]</text>
<polyline fill="none" stroke="#0058ad" points="195,-243.5 195,-272.5 "/>
<text text-anchor="middle" x="234.5" y="-254.3" font-family="Times,serif" font-size="14.00" fill="#0058ad">a 1452 1</text>
<polyline fill="none" stroke="#0058ad" points="274,-243.5 274,-272.5 "/>
<text text-anchor="middle" x="318" y="-254.3" font-family="Times,serif" font-size="14.00" fill="#0058ad">r 1445 [1]</text>
<polyline fill="none" stroke="#0058ad" points="362,-243.5 362,-272.5 "/>
<text text-anchor="middle" x="406" y="-254.3" font-family="Times,serif" font-size="14.00" fill="#0058ad">r 1452 [1]</text>
<polyline fill="none" stroke="#0058ad" points="450,-243.5 450,-272.5 "/>
<text text-anchor="middle" x="500.5" y="-254.3" font-family="Times,serif" font-size="14.00" fill="#0058ad">r 1447 [1 2]</text>
</g>
<!-- T3371 -->
<g id="node2" class="node">
<title>T3371</title>
<polygon fill="none" stroke="#0058ad" points="329.5,-162.5 329.5,-191.5 988.5,-191.5 988.5,-162.5 329.5,-162.5"/>
<text text-anchor="middle" x="369" y="-173.3" font-family="Times,serif" font-size="14.00" fill="#0058ad">r 1445 []</text>
<polyline fill="none" stroke="#0058ad" points="408.5,-162.5 408.5,-191.5 "/>
<text text-anchor="middle" x="452.5" y="-173.3" font-family="Times,serif" font-size="14.00" fill="#0058ad">r 1450 [1]</text>
<polyline fill="none" stroke="#0058ad" points="496.5,-162.5 496.5,-191.5 "/>
<text text-anchor="middle" x="540.5" y="-173.3" font-family="Times,serif" font-size="14.00" fill="#0058ad">r 1451 [1]</text>
<polyline fill="none" stroke="#0058ad" points="584.5,-162.5 584.5,-191.5 "/>
<text text-anchor="middle" x="628.5" y="-173.3" font-family="Times,serif" font-size="14.00" fill="#0058ad">r 1450 [1]</text>
<polyline fill="none" stroke="#0058ad" points="672.5,-162.5 672.5,-191.5 "/>
<text text-anchor="middle" x="712" y="-173.3" font-family="Times,serif" font-size="14.00" fill="#0058ad">a 1450 2</text>
<polyline fill="none" stroke="#0058ad" points="751.5,-162.5 751.5,-191.5 "/>
<text text-anchor="middle" x="791" y="-173.3" font-family="Times,serif" font-size="14.00" fill="#0058ad">a 1450 3</text>
<polyline fill="none" stroke="#0058ad" points="830.5,-162.5 830.5,-191.5 "/>
<text text-anchor="middle" x="870" y="-173.3" font-family="Times,serif" font-size="14.00" fill="#0058ad">a 1451 2</text>
<polyline fill="none" stroke="#0058ad" points="909.5,-162.5 909.5,-191.5 "/>
<text text-anchor="middle" x="949" y="-173.3" font-family="Times,serif" font-size="14.00" fill="#0058ad">r 1445 []</text>
</g>
<!-- T3375&#45;&gt;T3371 -->
<g id="edge1" class="edge">
<title>T3375:f0&#45;&gt;T3371:f6</title>
<path fill="none" stroke="#5b00c0" d="M151,-243C151,-166.35 809.54,-263.06 866.13,-201.31"/>
<polygon fill="#5b00c0" stroke="#5b00c0" points="869.39,-202.58 870,-192 862.93,-199.89 869.39,-202.58"/>
<text text-anchor="middle" x="858.5" y="-213.8" font-family="Times,serif" font-size="14.00" fill="#5b00c0">rw</text>
</g>
<!-- T3374 -->
<g id="node3" class="node">
<title>T3374</title>
<polygon fill="none" stroke="#0058ad" points="668.5,-0.5 668.5,-29.5 1243.5,-29.5 1243.5,-0.5 668.5,-0.5"/>
<text text-anchor="middle" x="708" y="-11.3" font-family="Times,serif" font-size="14.00" fill="#0058ad">r 1452 []</text>
<polyline fill="none" stroke="#0058ad" points="747.5,-0.5 747.5,-29.5 "/>
<text text-anchor="middle" x="787" y="-11.3" font-family="Times,serif" font-size="14.00" fill="#0058ad">r 1452 []</text>
<polyline fill="none" stroke="#0058ad" points="826.5,-0.5 826.5,-29.5 "/>
<text text-anchor="middle" x="866" y="-11.3" font-family="Times,serif" font-size="14.00" fill="#0058ad">r 1452 []</text>
<polyline fill="none" stroke="#0058ad" points="905.5,-0.5 905.5,-29.5 "/>
<text text-anchor="middle" x="945" y="-11.3" font-family="Times,serif" font-size="14.00" fill="#0058ad">r 1452 []</text>
<polyline fill="none" stroke="#0058ad" points="984.5,-0.5 984.5,-29.5 "/>
<text text-anchor="middle" x="1024" y="-11.3" font-family="Times,serif" font-size="14.00" fill="#0058ad">r 1452 []</text>
<polyline fill="none" stroke="#0058ad" points="1063.5,-0.5 1063.5,-29.5 "/>
<text text-anchor="middle" x="1103" y="-11.3" font-family="Times,serif" font-size="14.00" fill="#0058ad">r 1452 []</text>
<polyline fill="none" stroke="#0058ad" points="1142.5,-0.5 1142.5,-29.5 "/>
<text text-anchor="middle" x="1193" y="-11.3" font-family="Times,serif" font-size="14.00" fill="#0058ad">r 1451 [1 2]</text>
</g>
<!-- T3371&#45;&gt;T3374 -->
<g id="edge3" class="edge">
<title>T3371:f6&#45;&gt;T3374:f6</title>
<path fill="none" stroke="#c000a5" d="M870,-162C870,-101.17 940.67,-133.95 997,-111 1080.88,-76.83 1184.54,-120.57 1192.51,-40.4"/>
<polygon fill="#c000a5" stroke="#c000a5" points="1196.03,-40.15 1193,-30 1189.03,-39.82 1196.03,-40.15"/>
<text text-anchor="middle" x="1177.5" y="-92.3" font-family="Times,serif" font-size="14.00" fill="#c000a5">wr</text>
</g>
<!-- T3378 -->
<g id="node4" class="node">
<title>T3378</title>
<polygon fill="none" stroke="#0058ad" points="0,-0.5 0,-29.5 650,-29.5 650,-0.5 0,-0.5"/>
<text text-anchor="middle" x="39.5" y="-11.3" font-family="Times,serif" font-size="14.00" fill="#0058ad">r 1452 []</text>
<polyline fill="none" stroke="#0058ad" points="79,-0.5 79,-29.5 "/>
<text text-anchor="middle" x="118.5" y="-11.3" font-family="Times,serif" font-size="14.00" fill="#0058ad">r 1452 []</text>
<polyline fill="none" stroke="#0058ad" points="158,-0.5 158,-29.5 "/>
<text text-anchor="middle" x="197.5" y="-11.3" font-family="Times,serif" font-size="14.00" fill="#0058ad">a 1453 1</text>
<polyline fill="none" stroke="#0058ad" points="237,-0.5 237,-29.5 "/>
<text text-anchor="middle" x="276.5" y="-11.3" font-family="Times,serif" font-size="14.00" fill="#0058ad">r 1452 []</text>
<polyline fill="none" stroke="#0058ad" points="316,-0.5 316,-29.5 "/>
<text text-anchor="middle" x="355.5" y="-11.3" font-family="Times,serif" font-size="14.00" fill="#0058ad">a 1453 2</text>
<polyline fill="none" stroke="#0058ad" points="395,-0.5 395,-29.5 "/>
<text text-anchor="middle" x="434.5" y="-11.3" font-family="Times,serif" font-size="14.00" fill="#0058ad">a 1454 1</text>
<polyline fill="none" stroke="#0058ad" points="474,-0.5 474,-29.5 "/>
<text text-anchor="middle" x="518" y="-11.3" font-family="Times,serif" font-size="14.00" fill="#0058ad">r 1445 [1]</text>
<polyline fill="none" stroke="#0058ad" points="562,-0.5 562,-29.5 "/>
<text text-anchor="middle" x="606" y="-11.3" font-family="Times,serif" font-size="14.00" fill="#0058ad">r 1454 [1]</text>
</g>
<!-- T3371&#45;&gt;T3378 -->
<g id="edge4" class="edge">
<title>T3371&#45;&gt;T3378</title>
<path fill="none" stroke="#0050c0" d="M426.7,-162.48C404.47,-157.93 386.37,-151.91 376,-144 343.13,-118.9 331.39,-69.31 327.24,-39.77"/>
<polygon fill="#0050c0" stroke="#0050c0" points="330.68,-39.02 325.99,-29.52 323.73,-39.87 330.68,-39.02"/>
<text text-anchor="middle" x="354.5" y="-92.3" font-family="Times,serif" font-size="14.00" fill="#0050c0">rt</text>
</g>
<!-- T3368 -->
<g id="node5" class="node">
<title>T3368</title>
<polygon fill="none" stroke="#0058ad" points="398.5,-81.5 398.5,-110.5 987.5,-110.5 987.5,-81.5 398.5,-81.5"/>
<text text-anchor="middle" x="438" y="-92.3" font-family="Times,serif" font-size="14.00" fill="#0058ad">a 1445 1</text>
<polyline fill="none" stroke="#0058ad" points="477.5,-81.5 477.5,-110.5 "/>
<text text-anchor="middle" x="517" y="-92.3" font-family="Times,serif" font-size="14.00" fill="#0058ad">a 1447 2</text>
<polyline fill="none" stroke="#0058ad" points="556.5,-81.5 556.5,-110.5 "/>
<text text-anchor="middle" x="600.5" y="-92.3" font-family="Times,serif" font-size="14.00" fill="#0058ad">r 1451 [1]</text>
<polyline fill="none" stroke="#0058ad" points="644.5,-81.5 644.5,-110.5 "/>
<text text-anchor="middle" x="688.5" y="-92.3" font-family="Times,serif" font-size="14.00" fill="#0058ad">r 1450 [1]</text>
<polyline fill="none" stroke="#0058ad" points="732.5,-81.5 732.5,-110.5 "/>
<text text-anchor="middle" x="776.5" y="-92.3" font-family="Times,serif" font-size="14.00" fill="#0058ad">r 1445 [1]</text>
<polyline fill="none" stroke="#0058ad" points="820.5,-81.5 820.5,-110.5 "/>
<text text-anchor="middle" x="860" y="-92.3" font-family="Times,serif" font-size="14.00" fill="#0058ad">a 1446 1</text>
<polyline fill="none" stroke="#0058ad" points="899.5,-81.5 899.5,-110.5 "/>
<text text-anchor="middle" x="943.5" y="-92.3" font-family="Times,serif" font-size="14.00" fill="#0058ad">r 1450 [1]</text>
</g>
<!-- T3371&#45;&gt;T3368 -->
<g id="edge2" class="edge">
<title>T3371:f0&#45;&gt;T3368:f0</title>
<path fill="none" stroke="#5b00c0" d="M369,-162C369,-127.89 424.21,-144.51 435.86,-121.1"/>
<polygon fill="#5b00c0" stroke="#5b00c0" points="439.35,-121.51 438,-111 432.5,-120.06 439.35,-121.51"/>
<text text-anchor="middle" x="437.5" y="-132.8" font-family="Times,serif" font-size="14.00" fill="#5b00c0">rw</text>
</g>
<!-- T3374&#45;&gt;T3375 -->
<g id="edge5" class="edge">
<title>T3374:f0&#45;&gt;T3375:f1</title>
<path fill="none" stroke="#5b00c0" d="M708,-30C708,-47.56 847.72,-44.86 865,-48 924.5,-58.8 959.78,-33.34 997,-81 1027.36,-119.88 1030.7,-155.97 997,-192 983.44,-206.5 328.8,-219.89 243.2,-238.92"/>
<polygon fill="#5b00c0" stroke="#5b00c0" points="241.72,-235.74 234,-243 244.56,-242.14 241.72,-235.74"/>
<text text-anchor="middle" x="1030.5" y="-132.8" font-family="Times,serif" font-size="14.00" fill="#5b00c0">rw</text>
</g>
<!-- T3378&#45;&gt;T3375 -->
<g id="edge6" class="edge">
<title>T3378:f0&#45;&gt;T3375:f1</title>
<path fill="none" stroke="#5b00c0" d="M39,-30C39,-154.84 223.48,-116.91 233.57,-232.85"/>
<polygon fill="#5b00c0" stroke="#5b00c0" points="230.08,-233.16 234,-243 237.07,-232.86 230.08,-233.16"/>
<text text-anchor="middle" x="162.5" y="-132.8" font-family="Times,serif" font-size="14.00" fill="#5b00c0">rw</text>
</g>
<!-- T3368&#45;&gt;T3375 -->
<g id="edge8" class="edge">
<title>T3368:f0&#45;&gt;T3375:f2</title>
<path fill="none" stroke="#c000a5" d="M397,-96C384.15,-96 307.96,-150.61 302,-162 286.66,-191.34 312.03,-203.8 317.13,-232.92"/>
<polygon fill="#c000a5" stroke="#c000a5" points="313.66,-233.34 318,-243 320.63,-232.74 313.66,-233.34"/>
<text text-anchor="middle" x="311.5" y="-173.3" font-family="Times,serif" font-size="14.00" fill="#c000a5">wr</text>
</g>
<!-- T3368&#45;&gt;T3371 -->
<g id="edge10" class="edge">
<title>T3368:f3&#45;&gt;T3371:f4</title>
<path fill="none" stroke="#5b00c0" d="M688,-111C688,-132.14 705.09,-136.08 710.43,-151.84"/>
<polygon fill="#5b00c0" stroke="#5b00c0" points="707.01,-152.65 712,-162 713.93,-151.58 707.01,-152.65"/>
<text text-anchor="middle" x="715.5" y="-132.8" font-family="Times,serif" font-size="14.00" fill="#5b00c0">rw</text>
</g>
<!-- T3368&#45;&gt;T3374 -->
<g id="edge7" class="edge">
<title>T3368&#45;&gt;T3374</title>
<path fill="none" stroke="#0050c0" d="M738.21,-81.42C783.42,-67.84 852.98,-46.95 901.28,-32.44"/>
<polygon fill="#0050c0" stroke="#0050c0" points="902.37,-35.76 910.94,-29.54 900.36,-29.06 902.37,-35.76"/>
<text text-anchor="middle" x="854.5" y="-51.8" font-family="Times,serif" font-size="14.00" fill="#0050c0">rt</text>
</g>
<!-- T3368&#45;&gt;T3378 -->
<g id="edge9" class="edge">
<title>T3368:f0&#45;&gt;T3378:f6</title>
<path fill="none" stroke="#c000a5" d="M438,-81C438,-42.79 503.7,-66.58 516.02,-39.99"/>
<polygon fill="#c000a5" stroke="#c000a5" points="519.49,-40.49 518,-30 512.63,-39.13 519.49,-40.49"/>
<text text-anchor="middle" x="518.5" y="-51.8" font-family="Times,serif" font-size="14.00" fill="#c000a5">wr</text>
</g>
</g>
</svg>
