<?xml version="1.0" encoding="UTF-8" standalone="no"?>
<!DOCTYPE svg PUBLIC "-//W3C//DTD SVG 1.1//EN"
 "http://www.w3.org/Graphics/SVG/1.1/DTD/svg11.dtd">
<!-- Generated by graphviz version 2.43.0 (0)
 -->
<!-- Title: a_graph Pages: 1 -->
<svg width="601pt" height="119pt"
 viewBox="0.00 0.00 601.00 119.00" xmlns="http://www.w3.org/2000/svg" xmlns:xlink="http://www.w3.org/1999/xlink">
<g id="graph0" class="graph" transform="scale(1 1) rotate(0) translate(4 115)">
<title>a_graph</title>
<polygon fill="white" stroke="transparent" points="-4,4 -4,-115 597,-115 597,4 -4,4"/>
<!-- T3125 -->
<g id="node1" class="node">
<title>T3125</title>
<polygon fill="none" stroke="#0058ad" points="6.5,-81.5 6.5,-110.5 480.5,-110.5 480.5,-81.5 6.5,-81.5"/>
<text text-anchor="middle" x="46" y="-92.3" font-family="Times,serif" font-size="14.00" fill="#0058ad">r 1330 []</text>
<polyline fill="none" stroke="#0058ad" points="85.5,-81.5 85.5,-110.5 "/>
<text text-anchor="middle" x="125" y="-92.3" font-family="Times,serif" font-size="14.00" fill="#0058ad">a 1342 1</text>
<polyline fill="none" stroke="#0058ad" points="164.5,-81.5 164.5,-110.5 "/>
<text text-anchor="middle" x="204" y="-92.3" font-family="Times,serif" font-size="14.00" fill="#0058ad">a 1339 2</text>
<polyline fill="none" stroke="#0058ad" points="243.5,-81.5 243.5,-110.5 "/>
<text text-anchor="middle" x="283" y="-92.3" font-family="Times,serif" font-size="14.00" fill="#0058ad">r 1341 []</text>
<polyline fill="none" stroke="#0058ad" points="322.5,-81.5 322.5,-110.5 "/>
<text text-anchor="middle" x="362" y="-92.3" font-family="Times,serif" font-size="14.00" fill="#0058ad">a 1330 2</text>
<polyline fill="none" stroke="#0058ad" points="401.5,-81.5 401.5,-110.5 "/>
<text text-anchor="middle" x="441" y="-92.3" font-family="Times,serif" font-size="14.00" fill="#0058ad">a 1339 3</text>
</g>
<!-- T3123 -->
<g id="node2" class="node">
<title>T3123</title>
<polygon fill="none" stroke="#0058ad" points="0,-0.5 0,-29.5 593,-29.5 593,-0.5 0,-0.5"/>
<text text-anchor="middle" x="39.5" y="-11.3" font-family="Times,serif" font-size="14.00" fill="#0058ad">a 1340 2</text>
<polyline fill="none" stroke="#0058ad" points="79,-0.5 79,-29.5 "/>
<text text-anchor="middle" x="118.5" y="-11.3" font-family="Times,serif" font-size="14.00" fill="#0058ad">a 1340 3</text>
<polyline fill="none" stroke="#0058ad" points="158,-0.5 158,-29.5 "/>
<text text-anchor="middle" x="202" y="-11.3" font-family="Times,serif" font-size="14.00" fill="#0058ad">r 1339 [1]</text>
<polyline fill="none" stroke="#0058ad" points="246,-0.5 246,-29.5 "/>
<text text-anchor="middle" x="285.5" y="-11.3" font-family="Times,serif" font-size="14.00" fill="#0058ad">a 1341 1</text>
<polyline fill="none" stroke="#0058ad" points="325,-0.5 325,-29.5 "/>
<text text-anchor="middle" x="369" y="-11.3" font-family="Times,serif" font-size="14.00" fill="#0058ad">r 1341 [1]</text>
<polyline fill="none" stroke="#0058ad" points="413,-0.5 413,-29.5 "/>
<text text-anchor="middle" x="452.5" y="-11.3" font-family="Times,serif" font-size="14.00" fill="#0058ad">a 1341 2</text>
<polyline fill="none" stroke="#0058ad" points="492,-0.5 492,-29.5 "/>
<text text-anchor="middle" x="542.5" y="-11.3" font-family="Times,serif" font-size="14.00" fill="#0058ad">r 1341 [1 2]</text>
</g>
<!-- T3125&#45;&gt;T3123 -->
<g id="edge1" class="edge">
<title>T3125:f3&#45;&gt;T3123:f3</title>
<path fill="none" stroke="#5b00c0" d="M283.5,-81C283.5,-62.21 284.87,-55.12 285.34,-40.36"/>
<polygon fill="#5b00c0" stroke="#5b00c0" points="288.85,-40.05 285.5,-30 281.85,-39.95 288.85,-40.05"/>
<text text-anchor="middle" x="294" y="-51.8" font-family="Times,serif" font-size="14.00" fill="#5b00c0">rw</text>
</g>
<!-- T3123&#45;&gt;T3125 -->
<g id="edge2" class="edge">
<title>T3123:f2&#45;&gt;T3125:f2</title>
<path fill="none" stroke="#5b00c0" d="M201.5,-30C201.5,-48.79 202.87,-55.88 203.34,-70.64"/>
<polygon fill="#5b00c0" stroke="#5b00c0" points="199.85,-71.05 203.5,-81 206.85,-70.95 199.85,-71.05"/>
<text text-anchor="middle" x="213" y="-51.8" font-family="Times,serif" font-size="14.00" fill="#5b00c0">rw</text>
</g>
</g>
</svg>
