<?xml version="1.0" encoding="UTF-8" standalone="no"?>
<!DOCTYPE svg PUBLIC "-//W3C//DTD SVG 1.1//EN"
 "http://www.w3.org/Graphics/SVG/1.1/DTD/svg11.dtd">
<!-- Generated by graphviz version 2.43.0 (0)
 -->
<!-- Title: a_graph Pages: 1 -->
<svg width="788pt" height="119pt"
 viewBox="0.00 0.00 788.00 119.00" xmlns="http://www.w3.org/2000/svg" xmlns:xlink="http://www.w3.org/1999/xlink">
<g id="graph0" class="graph" transform="scale(1 1) rotate(0) translate(4 115)">
<title>a_graph</title>
<polygon fill="white" stroke="transparent" points="-4,4 -4,-115 784,-115 784,4 -4,4"/>
<!-- T431 -->
<g id="node1" class="node">
<title>T431</title>
<polygon fill="none" stroke="#0058ad" points="184,-81.5 184,-110.5 780,-110.5 780,-81.5 184,-81.5"/>
<text text-anchor="middle" x="223.5" y="-92.3" font-family="Times,serif" font-size="14.00" fill="#0058ad">r 186 [1]</text>
<polyline fill="none" stroke="#0058ad" points="263,-81.5 263,-110.5 "/>
<text text-anchor="middle" x="298" y="-92.3" font-family="Times,serif" font-size="14.00" fill="#0058ad">r 188 []</text>
<polyline fill="none" stroke="#0058ad" points="333,-81.5 333,-110.5 "/>
<text text-anchor="middle" x="368" y="-92.3" font-family="Times,serif" font-size="14.00" fill="#0058ad">a 177 1</text>
<polyline fill="none" stroke="#0058ad" points="403,-81.5 403,-110.5 "/>
<text text-anchor="middle" x="442.5" y="-92.3" font-family="Times,serif" font-size="14.00" fill="#0058ad">r 186 [1]</text>
<polyline fill="none" stroke="#0058ad" points="482,-81.5 482,-110.5 "/>
<text text-anchor="middle" x="517" y="-92.3" font-family="Times,serif" font-size="14.00" fill="#0058ad">a 180 3</text>
<polyline fill="none" stroke="#0058ad" points="552,-81.5 552,-110.5 "/>
<text text-anchor="middle" x="587" y="-92.3" font-family="Times,serif" font-size="14.00" fill="#0058ad">a 189 1</text>
<polyline fill="none" stroke="#0058ad" points="622,-81.5 622,-110.5 "/>
<text text-anchor="middle" x="661.5" y="-92.3" font-family="Times,serif" font-size="14.00" fill="#0058ad">r 186 [1]</text>
<polyline fill="none" stroke="#0058ad" points="701,-81.5 701,-110.5 "/>
<text text-anchor="middle" x="740.5" y="-92.3" font-family="Times,serif" font-size="14.00" fill="#0058ad">r 186 [1]</text>
</g>
<!-- T430 -->
<g id="node2" class="node">
<title>T430</title>
<polygon fill="none" stroke="#0058ad" points="0,-0.5 0,-29.5 420,-29.5 420,-0.5 0,-0.5"/>
<text text-anchor="middle" x="35" y="-11.3" font-family="Times,serif" font-size="14.00" fill="#0058ad">r 188 []</text>
<polyline fill="none" stroke="#0058ad" points="70,-0.5 70,-29.5 "/>
<text text-anchor="middle" x="105" y="-11.3" font-family="Times,serif" font-size="14.00" fill="#0058ad">a 187 3</text>
<polyline fill="none" stroke="#0058ad" points="140,-0.5 140,-29.5 "/>
<text text-anchor="middle" x="175" y="-11.3" font-family="Times,serif" font-size="14.00" fill="#0058ad">a 186 2</text>
<polyline fill="none" stroke="#0058ad" points="210,-0.5 210,-29.5 "/>
<text text-anchor="middle" x="245" y="-11.3" font-family="Times,serif" font-size="14.00" fill="#0058ad">r 189 []</text>
<polyline fill="none" stroke="#0058ad" points="280,-0.5 280,-29.5 "/>
<text text-anchor="middle" x="315" y="-11.3" font-family="Times,serif" font-size="14.00" fill="#0058ad">r 189 []</text>
<polyline fill="none" stroke="#0058ad" points="350,-0.5 350,-29.5 "/>
<text text-anchor="middle" x="385" y="-11.3" font-family="Times,serif" font-size="14.00" fill="#0058ad">r 177 []</text>
</g>
<!-- T431&#45;&gt;T430 -->
<g id="edge1" class="edge">
<title>T431:f0&#45;&gt;T430:f2</title>
<path fill="none" stroke="#5b00c0" d="M183,-96C156.8,-96 170.77,-67.34 174.28,-40.24"/>
<polygon fill="#5b00c0" stroke="#5b00c0" points="177.79,-40.22 175,-30 170.8,-39.73 177.79,-40.22"/>
<text text-anchor="middle" x="182.5" y="-51.8" font-family="Times,serif" font-size="14.00" fill="#5b00c0">rw</text>
</g>
<!-- T430&#45;&gt;T431 -->
<g id="edge2" class="edge">
<title>T430:f5&#45;&gt;T431:f2</title>
<path fill="none" stroke="#5b00c0" d="M385,-30C385,-49.97 373.12,-55.5 369.22,-70.73"/>
<polygon fill="#5b00c0" stroke="#5b00c0" points="365.71,-70.66 368,-81 372.66,-71.48 365.71,-70.66"/>
<text text-anchor="middle" x="389.5" y="-51.8" font-family="Times,serif" font-size="14.00" fill="#5b00c0">rw</text>
</g>
</g>
</svg>
