<?xml version="1.0" encoding="UTF-8" standalone="no"?>
<!DOCTYPE svg PUBLIC "-//W3C//DTD SVG 1.1//EN"
 "http://www.w3.org/Graphics/SVG/1.1/DTD/svg11.dtd">
<!-- Generated by graphviz version 2.43.0 (0)
 -->
<!-- Title: a_graph Pages: 1 -->
<svg width="559pt" height="200pt"
 viewBox="0.00 0.00 559.00 200.00" xmlns="http://www.w3.org/2000/svg" xmlns:xlink="http://www.w3.org/1999/xlink">
<g id="graph0" class="graph" transform="scale(1 1) rotate(0) translate(4 196)">
<title>a_graph</title>
<polygon fill="white" stroke="transparent" points="-4,4 -4,-196 555,-196 555,4 -4,4"/>
<!-- T2275 -->
<g id="node1" class="node">
<title>T2275</title>
<polygon fill="none" stroke="#0058ad" points="0,-162.5 0,-191.5 298,-191.5 298,-162.5 0,-162.5"/>
<text text-anchor="middle" x="35" y="-173.3" font-family="Times,serif" font-size="14.00" fill="#0058ad">a 962 3</text>
<polyline fill="none" stroke="#0058ad" points="70,-162.5 70,-191.5 "/>
<text text-anchor="middle" x="105" y="-173.3" font-family="Times,serif" font-size="14.00" fill="#0058ad">a 969 1</text>
<polyline fill="none" stroke="#0058ad" points="140,-162.5 140,-191.5 "/>
<text text-anchor="middle" x="179.5" y="-173.3" font-family="Times,serif" font-size="14.00" fill="#0058ad">r 969 [1]</text>
<polyline fill="none" stroke="#0058ad" points="219,-162.5 219,-191.5 "/>
<text text-anchor="middle" x="258.5" y="-173.3" font-family="Times,serif" font-size="14.00" fill="#0058ad">r 969 [1]</text>
</g>
<!-- T2276 -->
<g id="node3" class="node">
<title>T2276</title>
<polygon fill="none" stroke="#0058ad" points="165,-81.5 165,-110.5 551,-110.5 551,-81.5 165,-81.5"/>
<text text-anchor="middle" x="204.5" y="-92.3" font-family="Times,serif" font-size="14.00" fill="#0058ad">r 969 [1]</text>
<polyline fill="none" stroke="#0058ad" points="244,-81.5 244,-110.5 "/>
<text text-anchor="middle" x="279" y="-92.3" font-family="Times,serif" font-size="14.00" fill="#0058ad">r 970 []</text>
<polyline fill="none" stroke="#0058ad" points="314,-81.5 314,-110.5 "/>
<text text-anchor="middle" x="353.5" y="-92.3" font-family="Times,serif" font-size="14.00" fill="#0058ad">r 969 [1]</text>
<polyline fill="none" stroke="#0058ad" points="393,-81.5 393,-110.5 "/>
<text text-anchor="middle" x="432.5" y="-92.3" font-family="Times,serif" font-size="14.00" fill="#0058ad">r 969 [1]</text>
<polyline fill="none" stroke="#0058ad" points="472,-81.5 472,-110.5 "/>
<text text-anchor="middle" x="511.5" y="-92.3" font-family="Times,serif" font-size="14.00" fill="#0058ad">r 969 [1]</text>
</g>
<!-- T2275&#45;&gt;T2276 -->
<g id="edge1" class="edge">
<title>T2275:f1&#45;&gt;T2276:f0</title>
<path fill="none" stroke="#c000a5" d="M105,-162C105,-126.19 121.28,-100.89 153.87,-96.64"/>
<polygon fill="#c000a5" stroke="#c000a5" points="154.24,-100.12 164,-96 153.8,-93.13 154.24,-100.12"/>
<text text-anchor="middle" x="119.5" y="-132.8" font-family="Times,serif" font-size="14.00" fill="#c000a5">wr</text>
</g>
<!-- T2278 -->
<g id="node2" class="node">
<title>T2278</title>
<polygon fill="none" stroke="#0058ad" points="18,-0.5 18,-29.5 508,-29.5 508,-0.5 18,-0.5"/>
<text text-anchor="middle" x="53" y="-11.3" font-family="Times,serif" font-size="14.00" fill="#0058ad">r 969 []</text>
<polyline fill="none" stroke="#0058ad" points="88,-0.5 88,-29.5 "/>
<text text-anchor="middle" x="123" y="-11.3" font-family="Times,serif" font-size="14.00" fill="#0058ad">a 963 1</text>
<polyline fill="none" stroke="#0058ad" points="158,-0.5 158,-29.5 "/>
<text text-anchor="middle" x="193" y="-11.3" font-family="Times,serif" font-size="14.00" fill="#0058ad">a 963 2</text>
<polyline fill="none" stroke="#0058ad" points="228,-0.5 228,-29.5 "/>
<text text-anchor="middle" x="263" y="-11.3" font-family="Times,serif" font-size="14.00" fill="#0058ad">r 969 []</text>
<polyline fill="none" stroke="#0058ad" points="298,-0.5 298,-29.5 "/>
<text text-anchor="middle" x="333" y="-11.3" font-family="Times,serif" font-size="14.00" fill="#0058ad">r 969 []</text>
<polyline fill="none" stroke="#0058ad" points="368,-0.5 368,-29.5 "/>
<text text-anchor="middle" x="403" y="-11.3" font-family="Times,serif" font-size="14.00" fill="#0058ad">a 970 1</text>
<polyline fill="none" stroke="#0058ad" points="438,-0.5 438,-29.5 "/>
<text text-anchor="middle" x="473" y="-11.3" font-family="Times,serif" font-size="14.00" fill="#0058ad">a 970 2</text>
</g>
<!-- T2278&#45;&gt;T2275 -->
<g id="edge2" class="edge">
<title>T2278:f0&#45;&gt;T2275:f1</title>
<path fill="none" stroke="#5b00c0" d="M53,-30C53,-58.45 95.34,-117.36 103.61,-151.76"/>
<polygon fill="#5b00c0" stroke="#5b00c0" points="100.19,-152.56 105,-162 107.12,-151.62 100.19,-152.56"/>
<text text-anchor="middle" x="95.5" y="-92.3" font-family="Times,serif" font-size="14.00" fill="#5b00c0">rw</text>
</g>
<!-- T2276&#45;&gt;T2278 -->
<g id="edge3" class="edge">
<title>T2276:f1&#45;&gt;T2278:f5</title>
<path fill="none" stroke="#5b00c0" d="M279,-81C279,-25.25 387.53,-81.33 401.52,-40"/>
<polygon fill="#5b00c0" stroke="#5b00c0" points="405,-40.4 403,-30 398.07,-39.38 405,-40.4"/>
<text text-anchor="middle" x="405.5" y="-51.8" font-family="Times,serif" font-size="14.00" fill="#5b00c0">rw</text>
</g>
</g>
</svg>
