<?xml version="1.0" encoding="UTF-8" standalone="no"?>
<!DOCTYPE svg PUBLIC "-//W3C//DTD SVG 1.1//EN"
 "http://www.w3.org/Graphics/SVG/1.1/DTD/svg11.dtd">
<!-- Generated by graphviz version 2.43.0 (0)
 -->
<!-- Title: a_graph Pages: 1 -->
<svg width="582pt" height="281pt"
 viewBox="0.00 0.00 582.00 281.00" xmlns="http://www.w3.org/2000/svg" xmlns:xlink="http://www.w3.org/1999/xlink">
<g id="graph0" class="graph" transform="scale(1 1) rotate(0) translate(4 277)">
<title>a_graph</title>
<polygon fill="white" stroke="transparent" points="-4,4 -4,-277 578,-277 578,4 -4,4"/>
<!-- T1667 -->
<g id="node1" class="node">
<title>T1667</title>
<polygon fill="none" stroke="#0058ad" points="0,-243.5 0,-272.5 368,-272.5 368,-243.5 0,-243.5"/>
<text text-anchor="middle" x="35" y="-254.3" font-family="Times,serif" font-size="14.00" fill="#0058ad">r 713 []</text>
<polyline fill="none" stroke="#0058ad" points="70,-243.5 70,-272.5 "/>
<text text-anchor="middle" x="105" y="-254.3" font-family="Times,serif" font-size="14.00" fill="#0058ad">a 713 1</text>
<polyline fill="none" stroke="#0058ad" points="140,-243.5 140,-272.5 "/>
<text text-anchor="middle" x="175" y="-254.3" font-family="Times,serif" font-size="14.00" fill="#0058ad">a 697 3</text>
<polyline fill="none" stroke="#0058ad" points="210,-243.5 210,-272.5 "/>
<text text-anchor="middle" x="249.5" y="-254.3" font-family="Times,serif" font-size="14.00" fill="#0058ad">r 713 [1]</text>
<polyline fill="none" stroke="#0058ad" points="289,-243.5 289,-272.5 "/>
<text text-anchor="middle" x="328.5" y="-254.3" font-family="Times,serif" font-size="14.00" fill="#0058ad">r 713 [1]</text>
</g>
<!-- T1672 -->
<g id="node2" class="node">
<title>T1672</title>
<polygon fill="none" stroke="#0058ad" points="180,-162.5 180,-191.5 574,-191.5 574,-162.5 180,-162.5"/>
<text text-anchor="middle" x="215" y="-173.3" font-family="Times,serif" font-size="14.00" fill="#0058ad">r 714 []</text>
<polyline fill="none" stroke="#0058ad" points="250,-162.5 250,-191.5 "/>
<text text-anchor="middle" x="296" y="-173.3" font-family="Times,serif" font-size="14.00" fill="#0058ad">r 711 [1 2]</text>
<polyline fill="none" stroke="#0058ad" points="342,-162.5 342,-191.5 "/>
<text text-anchor="middle" x="388" y="-173.3" font-family="Times,serif" font-size="14.00" fill="#0058ad">r 711 [1 2]</text>
<polyline fill="none" stroke="#0058ad" points="434,-162.5 434,-191.5 "/>
<text text-anchor="middle" x="469" y="-173.3" font-family="Times,serif" font-size="14.00" fill="#0058ad">r 714 []</text>
<polyline fill="none" stroke="#0058ad" points="504,-162.5 504,-191.5 "/>
<text text-anchor="middle" x="539" y="-173.3" font-family="Times,serif" font-size="14.00" fill="#0058ad">a 714 1</text>
</g>
<!-- T1667&#45;&gt;T1672 -->
<g id="edge2" class="edge">
<title>T1667&#45;&gt;T1672</title>
<path fill="none" stroke="#0050c0" d="M217.18,-243.42C249.59,-230.15 299.06,-209.9 334.37,-195.45"/>
<polygon fill="#0050c0" stroke="#0050c0" points="336,-198.56 343.93,-191.54 333.35,-192.08 336,-198.56"/>
<text text-anchor="middle" x="303.5" y="-213.8" font-family="Times,serif" font-size="14.00" fill="#0050c0">rt</text>
</g>
<!-- T1673 -->
<g id="node3" class="node">
<title>T1673</title>
<polygon fill="none" stroke="#0058ad" points="34.5,-0.5 34.5,-29.5 323.5,-29.5 323.5,-0.5 34.5,-0.5"/>
<text text-anchor="middle" x="69.5" y="-11.3" font-family="Times,serif" font-size="14.00" fill="#0058ad">r 714 []</text>
<polyline fill="none" stroke="#0058ad" points="104.5,-0.5 104.5,-29.5 "/>
<text text-anchor="middle" x="144" y="-11.3" font-family="Times,serif" font-size="14.00" fill="#0058ad">r 712 [1]</text>
<polyline fill="none" stroke="#0058ad" points="183.5,-0.5 183.5,-29.5 "/>
<text text-anchor="middle" x="218.5" y="-11.3" font-family="Times,serif" font-size="14.00" fill="#0058ad">a 712 3</text>
<polyline fill="none" stroke="#0058ad" points="253.5,-0.5 253.5,-29.5 "/>
<text text-anchor="middle" x="288.5" y="-11.3" font-family="Times,serif" font-size="14.00" fill="#0058ad">a 715 1</text>
</g>
<!-- T1667&#45;&gt;T1673 -->
<g id="edge1" class="edge">
<title>T1667&#45;&gt;T1673</title>
<path fill="none" stroke="#0050c0" d="M180.41,-243.17C177.21,-230.09 172.77,-209.87 171,-192 166.14,-142.91 167.98,-130.24 171,-81 171.84,-67.22 173.69,-51.89 175.39,-39.58"/>
<polygon fill="#0050c0" stroke="#0050c0" points="178.86,-40.05 176.83,-29.65 171.93,-39.05 178.86,-40.05"/>
<text text-anchor="middle" x="174.5" y="-132.8" font-family="Times,serif" font-size="14.00" fill="#0050c0">rt</text>
</g>
<!-- T1671 -->
<g id="node4" class="node">
<title>T1671</title>
<polygon fill="none" stroke="#0058ad" points="179.5,-81.5 179.5,-110.5 468.5,-110.5 468.5,-81.5 179.5,-81.5"/>
<text text-anchor="middle" x="219" y="-92.3" font-family="Times,serif" font-size="14.00" fill="#0058ad">r 712 [1]</text>
<polyline fill="none" stroke="#0058ad" points="258.5,-81.5 258.5,-110.5 "/>
<text text-anchor="middle" x="293.5" y="-92.3" font-family="Times,serif" font-size="14.00" fill="#0058ad">r 713 []</text>
<polyline fill="none" stroke="#0058ad" points="328.5,-81.5 328.5,-110.5 "/>
<text text-anchor="middle" x="363.5" y="-92.3" font-family="Times,serif" font-size="14.00" fill="#0058ad">r 713 []</text>
<polyline fill="none" stroke="#0058ad" points="398.5,-81.5 398.5,-110.5 "/>
<text text-anchor="middle" x="433.5" y="-92.3" font-family="Times,serif" font-size="14.00" fill="#0058ad">a 711 3</text>
</g>
<!-- T1672&#45;&gt;T1671 -->
<g id="edge3" class="edge">
<title>T1672:f1&#45;&gt;T1671:f3</title>
<path fill="none" stroke="#5b00c0" d="M296,-162C296,-100.44 418.3,-167.54 432.63,-121.06"/>
<polygon fill="#5b00c0" stroke="#5b00c0" points="436.12,-121.38 434,-111 429.19,-120.44 436.12,-121.38"/>
<text text-anchor="middle" x="435.5" y="-132.8" font-family="Times,serif" font-size="14.00" fill="#5b00c0">rw</text>
</g>
<!-- T1673&#45;&gt;T1672 -->
<g id="edge4" class="edge">
<title>T1673:f0&#45;&gt;T1672:f4</title>
<path fill="none" stroke="#5b00c0" d="M69,-30C69,-49.33 222.82,-45.66 242,-48 378.92,-64.69 531.36,-22.75 538.72,-151.97"/>
<polygon fill="#5b00c0" stroke="#5b00c0" points="535.22,-152.1 539,-162 542.22,-151.91 535.22,-152.1"/>
<text text-anchor="middle" x="537.5" y="-92.3" font-family="Times,serif" font-size="14.00" fill="#5b00c0">rw</text>
</g>
<!-- T1671&#45;&gt;T1667 -->
<g id="edge6" class="edge">
<title>T1671:f1&#45;&gt;T1667:f1</title>
<path fill="none" stroke="#5b00c0" d="M293,-111C293,-147.44 157.1,-104.63 130,-129 93.99,-161.38 103.43,-187.45 104.84,-232.98"/>
<polygon fill="#5b00c0" stroke="#5b00c0" points="101.34,-233.06 105,-243 108.34,-232.95 101.34,-233.06"/>
<text text-anchor="middle" x="116.5" y="-173.3" font-family="Times,serif" font-size="14.00" fill="#5b00c0">rw</text>
</g>
<!-- T1671&#45;&gt;T1673 -->
<g id="edge5" class="edge">
<title>T1671:f0&#45;&gt;T1673:f2</title>
<path fill="none" stroke="#5b00c0" d="M219,-81C219,-62.23 219,-55.12 219,-40.35"/>
<polygon fill="#5b00c0" stroke="#5b00c0" points="222.5,-40 219,-30 215.5,-40 222.5,-40"/>
<text text-anchor="middle" x="228.5" y="-51.8" font-family="Times,serif" font-size="14.00" fill="#5b00c0">rw</text>
</g>
</g>
</svg>
