<?xml version="1.0" encoding="UTF-8" standalone="no"?>
<!DOCTYPE svg PUBLIC "-//W3C//DTD SVG 1.1//EN"
 "http://www.w3.org/Graphics/SVG/1.1/DTD/svg11.dtd">
<!-- Generated by graphviz version 2.43.0 (0)
 -->
<!-- Title: a_graph Pages: 1 -->
<svg width="599pt" height="119pt"
 viewBox="0.00 0.00 599.00 119.00" xmlns="http://www.w3.org/2000/svg" xmlns:xlink="http://www.w3.org/1999/xlink">
<g id="graph0" class="graph" transform="scale(1 1) rotate(0) translate(4 115)">
<title>a_graph</title>
<polygon fill="white" stroke="transparent" points="-4,4 -4,-115 595,-115 595,4 -4,4"/>
<!-- T1778 -->
<g id="node1" class="node">
<title>T1778</title>
<polygon fill="none" stroke="#0058ad" points="9,-81.5 9,-110.5 591,-110.5 591,-81.5 9,-81.5"/>
<text text-anchor="middle" x="44" y="-92.3" font-family="Times,serif" font-size="14.00" fill="#0058ad">r 756 []</text>
<polyline fill="none" stroke="#0058ad" points="79,-81.5 79,-110.5 "/>
<text text-anchor="middle" x="114" y="-92.3" font-family="Times,serif" font-size="14.00" fill="#0058ad">a 756 2</text>
<polyline fill="none" stroke="#0058ad" points="149,-81.5 149,-110.5 "/>
<text text-anchor="middle" x="184" y="-92.3" font-family="Times,serif" font-size="14.00" fill="#0058ad">r 761 []</text>
<polyline fill="none" stroke="#0058ad" points="219,-81.5 219,-110.5 "/>
<text text-anchor="middle" x="254" y="-92.3" font-family="Times,serif" font-size="14.00" fill="#0058ad">r 761 []</text>
<polyline fill="none" stroke="#0058ad" points="289,-81.5 289,-110.5 "/>
<text text-anchor="middle" x="324" y="-92.3" font-family="Times,serif" font-size="14.00" fill="#0058ad">a 745 2</text>
<polyline fill="none" stroke="#0058ad" points="359,-81.5 359,-110.5 "/>
<text text-anchor="middle" x="394" y="-92.3" font-family="Times,serif" font-size="14.00" fill="#0058ad">a 759 1</text>
<polyline fill="none" stroke="#0058ad" points="429,-81.5 429,-110.5 "/>
<text text-anchor="middle" x="475" y="-92.3" font-family="Times,serif" font-size="14.00" fill="#0058ad">r 745 [1 2]</text>
<polyline fill="none" stroke="#0058ad" points="521,-81.5 521,-110.5 "/>
<text text-anchor="middle" x="556" y="-92.3" font-family="Times,serif" font-size="14.00" fill="#0058ad">r 761 []</text>
</g>
<!-- T1779 -->
<g id="node2" class="node">
<title>T1779</title>
<polygon fill="none" stroke="#0058ad" points="0,-0.5 0,-29.5 298,-29.5 298,-0.5 0,-0.5"/>
<text text-anchor="middle" x="39.5" y="-11.3" font-family="Times,serif" font-size="14.00" fill="#0058ad">r 745 [1]</text>
<polyline fill="none" stroke="#0058ad" points="79,-0.5 79,-29.5 "/>
<text text-anchor="middle" x="114" y="-11.3" font-family="Times,serif" font-size="14.00" fill="#0058ad">a 761 1</text>
<polyline fill="none" stroke="#0058ad" points="149,-0.5 149,-29.5 "/>
<text text-anchor="middle" x="184" y="-11.3" font-family="Times,serif" font-size="14.00" fill="#0058ad">r 756 []</text>
<polyline fill="none" stroke="#0058ad" points="219,-0.5 219,-29.5 "/>
<text text-anchor="middle" x="258.5" y="-11.3" font-family="Times,serif" font-size="14.00" fill="#0058ad">r 761 [1]</text>
</g>
<!-- T1778&#45;&gt;T1779 -->
<g id="edge1" class="edge">
<title>T1778:f2&#45;&gt;T1779:f1</title>
<path fill="none" stroke="#5b00c0" d="M184,-81C184,-57.95 162.82,-61.3 144,-48 135.27,-41.83 124.36,-42.99 118.4,-39.26"/>
<polygon fill="#5b00c0" stroke="#5b00c0" points="121.45,-37.53 114,-30 115.13,-40.53 121.45,-37.53"/>
<text text-anchor="middle" x="183.5" y="-51.8" font-family="Times,serif" font-size="14.00" fill="#5b00c0">rw</text>
</g>
<!-- T1779&#45;&gt;T1778 -->
<g id="edge2" class="edge">
<title>T1779:f2&#45;&gt;T1778:f1</title>
<path fill="none" stroke="#5b00c0" d="M184,-30C184,-59.12 140.87,-26.71 121,-48 113.41,-56.14 113.23,-62.11 113.64,-70.79"/>
<polygon fill="#5b00c0" stroke="#5b00c0" points="110.15,-71.13 114,-81 117.15,-70.88 110.15,-71.13"/>
<text text-anchor="middle" x="130.5" y="-51.8" font-family="Times,serif" font-size="14.00" fill="#5b00c0">rw</text>
</g>
</g>
</svg>
