<?xml version="1.0" encoding="UTF-8" standalone="no"?>
<!DOCTYPE svg PUBLIC "-//W3C//DTD SVG 1.1//EN"
 "http://www.w3.org/Graphics/SVG/1.1/DTD/svg11.dtd">
<!-- Generated by graphviz version 2.43.0 (0)
 -->
<!-- Title: a_graph Pages: 1 -->
<svg width="789pt" height="281pt"
 viewBox="0.00 0.00 789.16 281.00" xmlns="http://www.w3.org/2000/svg" xmlns:xlink="http://www.w3.org/1999/xlink">
<g id="graph0" class="graph" transform="scale(1 1) rotate(0) translate(4 277)">
<title>a_graph</title>
<polygon fill="white" stroke="transparent" points="-4,4 -4,-277 785.16,-277 785.16,4 -4,4"/>
<!-- T1416 -->
<g id="node1" class="node">
<title>T1416</title>
<polygon fill="none" stroke="#0058ad" points="247.16,-243.5 247.16,-272.5 781.16,-272.5 781.16,-243.5 247.16,-243.5"/>
<text text-anchor="middle" x="282.16" y="-254.3" font-family="Times,serif" font-size="14.00" fill="#0058ad">a 603 1</text>
<polyline fill="none" stroke="#0058ad" points="317.16,-243.5 317.16,-272.5 "/>
<text text-anchor="middle" x="352.16" y="-254.3" font-family="Times,serif" font-size="14.00" fill="#0058ad">a 603 2</text>
<polyline fill="none" stroke="#0058ad" points="387.16,-243.5 387.16,-272.5 "/>
<text text-anchor="middle" x="433.16" y="-254.3" font-family="Times,serif" font-size="14.00" fill="#0058ad">r 603 [1 2]</text>
<polyline fill="none" stroke="#0058ad" points="479.16,-243.5 479.16,-272.5 "/>
<text text-anchor="middle" x="525.16" y="-254.3" font-family="Times,serif" font-size="14.00" fill="#0058ad">r 603 [1 2]</text>
<polyline fill="none" stroke="#0058ad" points="571.16,-243.5 571.16,-272.5 "/>
<text text-anchor="middle" x="606.16" y="-254.3" font-family="Times,serif" font-size="14.00" fill="#0058ad">r 599 []</text>
<polyline fill="none" stroke="#0058ad" points="641.16,-243.5 641.16,-272.5 "/>
<text text-anchor="middle" x="676.16" y="-254.3" font-family="Times,serif" font-size="14.00" fill="#0058ad">r 604 []</text>
<polyline fill="none" stroke="#0058ad" points="711.16,-243.5 711.16,-272.5 "/>
<text text-anchor="middle" x="746.16" y="-254.3" font-family="Times,serif" font-size="14.00" fill="#0058ad">a 603 3</text>
</g>
<!-- T1417 -->
<g id="node3" class="node">
<title>T1417</title>
<polygon fill="none" stroke="#0058ad" points="199.16,-0.5 199.16,-29.5 603.16,-29.5 603.16,-0.5 199.16,-0.5"/>
<text text-anchor="middle" x="234.16" y="-11.3" font-family="Times,serif" font-size="14.00" fill="#0058ad">r 603 []</text>
<polyline fill="none" stroke="#0058ad" points="269.16,-0.5 269.16,-29.5 "/>
<text text-anchor="middle" x="308.66" y="-11.3" font-family="Times,serif" font-size="14.00" fill="#0058ad">r 599 [1]</text>
<polyline fill="none" stroke="#0058ad" points="348.16,-0.5 348.16,-29.5 "/>
<text text-anchor="middle" x="387.66" y="-11.3" font-family="Times,serif" font-size="14.00" fill="#0058ad">r 600 [1]</text>
<polyline fill="none" stroke="#0058ad" points="427.16,-0.5 427.16,-29.5 "/>
<text text-anchor="middle" x="480.16" y="-11.3" font-family="Times,serif" font-size="14.00" fill="#0058ad">r 592 [1 2 3]</text>
<polyline fill="none" stroke="#0058ad" points="533.16,-0.5 533.16,-29.5 "/>
<text text-anchor="middle" x="568.16" y="-11.3" font-family="Times,serif" font-size="14.00" fill="#0058ad">a 604 1</text>
</g>
<!-- T1416&#45;&gt;T1417 -->
<g id="edge1" class="edge">
<title>T1416:f5&#45;&gt;T1417:f4</title>
<path fill="none" stroke="#5b00c0" d="M676.16,-243C676.16,-140.26 708.19,-23.07 614.29,-15.4"/>
<polygon fill="#5b00c0" stroke="#5b00c0" points="614.29,-11.9 604.16,-15 614.02,-18.89 614.29,-11.9"/>
<text text-anchor="middle" x="690.66" y="-132.8" font-family="Times,serif" font-size="14.00" fill="#5b00c0">rw</text>
</g>
<!-- T1414 -->
<g id="node4" class="node">
<title>T1414</title>
<polygon fill="none" stroke="#0058ad" points="346.16,-162.5 346.16,-191.5 648.16,-191.5 648.16,-162.5 346.16,-162.5"/>
<text text-anchor="middle" x="392.16" y="-173.3" font-family="Times,serif" font-size="14.00" fill="#0058ad">r 601 [1 2]</text>
<polyline fill="none" stroke="#0058ad" points="438.16,-162.5 438.16,-191.5 "/>
<text text-anchor="middle" x="473.16" y="-173.3" font-family="Times,serif" font-size="14.00" fill="#0058ad">a 599 1</text>
<polyline fill="none" stroke="#0058ad" points="508.16,-162.5 508.16,-191.5 "/>
<text text-anchor="middle" x="543.16" y="-173.3" font-family="Times,serif" font-size="14.00" fill="#0058ad">r 603 []</text>
<polyline fill="none" stroke="#0058ad" points="578.16,-162.5 578.16,-191.5 "/>
<text text-anchor="middle" x="613.16" y="-173.3" font-family="Times,serif" font-size="14.00" fill="#0058ad">r 603 []</text>
</g>
<!-- T1416&#45;&gt;T1414 -->
<g id="edge2" class="edge">
<title>T1416:f4&#45;&gt;T1414:f1</title>
<path fill="none" stroke="#5b00c0" d="M606.16,-243C606.16,-183.53 488.78,-246.66 474.57,-202.03"/>
<polygon fill="#5b00c0" stroke="#5b00c0" points="478.01,-201.42 473.16,-192 471.08,-202.39 478.01,-201.42"/>
<text text-anchor="middle" x="607.66" y="-213.8" font-family="Times,serif" font-size="14.00" fill="#5b00c0">rw</text>
</g>
<!-- T1413 -->
<g id="node2" class="node">
<title>T1413</title>
<polygon fill="none" stroke="#0058ad" points="14.16,-81.5 14.16,-110.5 574.16,-110.5 574.16,-81.5 14.16,-81.5"/>
<text text-anchor="middle" x="49.16" y="-92.3" font-family="Times,serif" font-size="14.00" fill="#0058ad">a 592 3</text>
<polyline fill="none" stroke="#0058ad" points="84.16,-81.5 84.16,-110.5 "/>
<text text-anchor="middle" x="119.16" y="-92.3" font-family="Times,serif" font-size="14.00" fill="#0058ad">a 602 2</text>
<polyline fill="none" stroke="#0058ad" points="154.16,-81.5 154.16,-110.5 "/>
<text text-anchor="middle" x="189.16" y="-92.3" font-family="Times,serif" font-size="14.00" fill="#0058ad">a 602 3</text>
<polyline fill="none" stroke="#0058ad" points="224.16,-81.5 224.16,-110.5 "/>
<text text-anchor="middle" x="259.16" y="-92.3" font-family="Times,serif" font-size="14.00" fill="#0058ad">a 600 1</text>
<polyline fill="none" stroke="#0058ad" points="294.16,-81.5 294.16,-110.5 "/>
<text text-anchor="middle" x="329.16" y="-92.3" font-family="Times,serif" font-size="14.00" fill="#0058ad">r 603 []</text>
<polyline fill="none" stroke="#0058ad" points="364.16,-81.5 364.16,-110.5 "/>
<text text-anchor="middle" x="399.16" y="-92.3" font-family="Times,serif" font-size="14.00" fill="#0058ad">r 599 []</text>
<polyline fill="none" stroke="#0058ad" points="434.16,-81.5 434.16,-110.5 "/>
<text text-anchor="middle" x="469.16" y="-92.3" font-family="Times,serif" font-size="14.00" fill="#0058ad">r 603 []</text>
<polyline fill="none" stroke="#0058ad" points="504.16,-81.5 504.16,-110.5 "/>
<text text-anchor="middle" x="539.16" y="-92.3" font-family="Times,serif" font-size="14.00" fill="#0058ad">a 601 3</text>
</g>
<!-- T1413&#45;&gt;T1416 -->
<g id="edge5" class="edge">
<title>T1413:f4&#45;&gt;T1416:f0</title>
<path fill="none" stroke="#5b00c0" d="M329.16,-111C329.16,-169.75 287.34,-179.71 282.6,-232.93"/>
<polygon fill="#5b00c0" stroke="#5b00c0" points="279.1,-232.86 282.16,-243 286.09,-233.16 279.1,-232.86"/>
<text text-anchor="middle" x="323.66" y="-173.3" font-family="Times,serif" font-size="14.00" fill="#5b00c0">rw</text>
</g>
<!-- T1413&#45;&gt;T1417 -->
<g id="edge3" class="edge">
<title>T1413:f3&#45;&gt;T1417:f2</title>
<path fill="none" stroke="#c000a5" d="M259.16,-81C259.16,-23.59 371.66,-82.82 385.73,-39.99"/>
<polygon fill="#c000a5" stroke="#c000a5" points="389.2,-40.4 387.16,-30 382.27,-39.4 389.2,-40.4"/>
<text text-anchor="middle" x="389.66" y="-51.8" font-family="Times,serif" font-size="14.00" fill="#c000a5">wr</text>
</g>
<!-- T1413&#45;&gt;T1414 -->
<g id="edge4" class="edge">
<title>T1413:f5&#45;&gt;T1414:f1</title>
<path fill="none" stroke="#5b00c0" d="M399.16,-111C399.16,-147.04 459.42,-127.04 471.18,-152.14"/>
<polygon fill="#5b00c0" stroke="#5b00c0" points="467.76,-152.88 473.16,-162 474.63,-151.51 467.76,-152.88"/>
<text text-anchor="middle" x="471.66" y="-132.8" font-family="Times,serif" font-size="14.00" fill="#5b00c0">rw</text>
</g>
<!-- T1417&#45;&gt;T1416 -->
<g id="edge6" class="edge">
<title>T1417:f0&#45;&gt;T1416:f0</title>
<path fill="none" stroke="#5b00c0" d="M198.16,-15C109.7,-15 -27.7,-52.46 5.16,-111 64.9,-217.41 117.73,-255.89 236.03,-257.91"/>
<polygon fill="#5b00c0" stroke="#5b00c0" points="236.13,-261.42 246.16,-258 236.19,-254.42 236.13,-261.42"/>
<text text-anchor="middle" x="34.66" y="-132.8" font-family="Times,serif" font-size="14.00" fill="#5b00c0">rw</text>
</g>
<!-- T1414&#45;&gt;T1416 -->
<g id="edge9" class="edge">
<title>T1414:f2&#45;&gt;T1416:f0</title>
<path fill="none" stroke="#5b00c0" d="M543.16,-192C543.16,-195.26 339.75,-229.63 292.08,-240.19"/>
<polygon fill="#5b00c0" stroke="#5b00c0" points="290.83,-236.9 282.16,-243 292.74,-243.64 290.83,-236.9"/>
<text text-anchor="middle" x="460.66" y="-213.8" font-family="Times,serif" font-size="14.00" fill="#5b00c0">rw</text>
</g>
<!-- T1414&#45;&gt;T1413 -->
<g id="edge8" class="edge">
<title>T1414:f0&#45;&gt;T1413:f7</title>
<path fill="none" stroke="#5b00c0" d="M392.16,-162C392.16,-140.95 465.54,-151.61 485.16,-144 507.7,-135.26 531.38,-137.94 537.6,-121.02"/>
<polygon fill="#5b00c0" stroke="#5b00c0" points="541.08,-121.42 539.16,-111 534.16,-120.34 541.08,-121.42"/>
<text text-anchor="middle" x="540.66" y="-132.8" font-family="Times,serif" font-size="14.00" fill="#5b00c0">rw</text>
</g>
<!-- T1414&#45;&gt;T1417 -->
<g id="edge7" class="edge">
<title>T1414:f1&#45;&gt;T1417:f1</title>
<path fill="none" stroke="#c000a5" d="M473.16,-162C473.16,-125.12 522.42,-162.78 554.16,-144 580.69,-128.3 602.87,-104.7 583.16,-81 582.61,-80.34 367.76,-41.68 318.25,-32.11"/>
<polygon fill="#c000a5" stroke="#c000a5" points="318.67,-28.62 308.16,-30 317.23,-35.47 318.67,-28.62"/>
<text text-anchor="middle" x="599.66" y="-92.3" font-family="Times,serif" font-size="14.00" fill="#c000a5">wr</text>
</g>
</g>
</svg>
