<?xml version="1.0" encoding="UTF-8" standalone="no"?>
<!DOCTYPE svg PUBLIC "-//W3C//DTD SVG 1.1//EN"
 "http://www.w3.org/Graphics/SVG/1.1/DTD/svg11.dtd">
<!-- Generated by graphviz version 2.43.0 (0)
 -->
<!-- Title: a_graph Pages: 1 -->
<svg width="789pt" height="119pt"
 viewBox="0.00 0.00 789.00 119.00" xmlns="http://www.w3.org/2000/svg" xmlns:xlink="http://www.w3.org/1999/xlink">
<g id="graph0" class="graph" transform="scale(1 1) rotate(0) translate(4 115)">
<title>a_graph</title>
<polygon fill="white" stroke="transparent" points="-4,4 -4,-115 785,-115 785,4 -4,4"/>
<!-- T2592 -->
<g id="node1" class="node">
<title>T2592</title>
<polygon fill="none" stroke="#0058ad" points="0,-81.5 0,-110.5 338,-110.5 338,-81.5 0,-81.5"/>
<text text-anchor="middle" x="39.5" y="-92.3" font-family="Times,serif" font-size="14.00" fill="#0058ad">a 1098 1</text>
<polyline fill="none" stroke="#0058ad" points="79,-81.5 79,-110.5 "/>
<text text-anchor="middle" x="118.5" y="-92.3" font-family="Times,serif" font-size="14.00" fill="#0058ad">a 1098 2</text>
<polyline fill="none" stroke="#0058ad" points="158,-81.5 158,-110.5 "/>
<text text-anchor="middle" x="208.5" y="-92.3" font-family="Times,serif" font-size="14.00" fill="#0058ad">r 1098 [1 2]</text>
<polyline fill="none" stroke="#0058ad" points="259,-81.5 259,-110.5 "/>
<text text-anchor="middle" x="298.5" y="-92.3" font-family="Times,serif" font-size="14.00" fill="#0058ad">r 1100 []</text>
</g>
<!-- T2590 -->
<g id="node2" class="node">
<title>T2590</title>
<polygon fill="none" stroke="#0058ad" points="113,-0.5 113,-29.5 781,-29.5 781,-0.5 113,-0.5"/>
<text text-anchor="middle" x="152.5" y="-11.3" font-family="Times,serif" font-size="14.00" fill="#0058ad">r 1098 []</text>
<polyline fill="none" stroke="#0058ad" points="192,-0.5 192,-29.5 "/>
<text text-anchor="middle" x="231.5" y="-11.3" font-family="Times,serif" font-size="14.00" fill="#0058ad">a 1100 1</text>
<polyline fill="none" stroke="#0058ad" points="271,-0.5 271,-29.5 "/>
<text text-anchor="middle" x="315" y="-11.3" font-family="Times,serif" font-size="14.00" fill="#0058ad">r 1092 [1]</text>
<polyline fill="none" stroke="#0058ad" points="359,-0.5 359,-29.5 "/>
<text text-anchor="middle" x="398.5" y="-11.3" font-family="Times,serif" font-size="14.00" fill="#0058ad">r 1098 []</text>
<polyline fill="none" stroke="#0058ad" points="438,-0.5 438,-29.5 "/>
<text text-anchor="middle" x="482" y="-11.3" font-family="Times,serif" font-size="14.00" fill="#0058ad">r 1069 [2]</text>
<polyline fill="none" stroke="#0058ad" points="526,-0.5 526,-29.5 "/>
<text text-anchor="middle" x="570" y="-11.3" font-family="Times,serif" font-size="14.00" fill="#0058ad">r 1092 [1]</text>
<polyline fill="none" stroke="#0058ad" points="614,-0.5 614,-29.5 "/>
<text text-anchor="middle" x="658" y="-11.3" font-family="Times,serif" font-size="14.00" fill="#0058ad">r 1100 [1]</text>
<polyline fill="none" stroke="#0058ad" points="702,-0.5 702,-29.5 "/>
<text text-anchor="middle" x="741.5" y="-11.3" font-family="Times,serif" font-size="14.00" fill="#0058ad">a 1100 2</text>
</g>
<!-- T2592&#45;&gt;T2590 -->
<g id="edge1" class="edge">
<title>T2592:f3&#45;&gt;T2590:f1</title>
<path fill="none" stroke="#5b00c0" d="M299,-81C299,-47.21 244.59,-63.29 233.11,-40.02"/>
<polygon fill="#5b00c0" stroke="#5b00c0" points="236.49,-39.06 231,-30 229.64,-40.51 236.49,-39.06"/>
<text text-anchor="middle" x="298.5" y="-51.8" font-family="Times,serif" font-size="14.00" fill="#5b00c0">rw</text>
</g>
<!-- T2590&#45;&gt;T2592 -->
<g id="edge2" class="edge">
<title>T2590:f0&#45;&gt;T2592:f0</title>
<path fill="none" stroke="#5b00c0" d="M112,-15C71.85,-15 43.9,-33.76 39.58,-70.67"/>
<polygon fill="#5b00c0" stroke="#5b00c0" points="36.07,-70.82 39,-81 43.06,-71.21 36.07,-70.82"/>
<text text-anchor="middle" x="54.5" y="-51.8" font-family="Times,serif" font-size="14.00" fill="#5b00c0">rw</text>
</g>
</g>
</svg>
