<?xml version="1.0" encoding="UTF-8" standalone="no"?>
<!DOCTYPE svg PUBLIC "-//W3C//DTD SVG 1.1//EN"
 "http://www.w3.org/Graphics/SVG/1.1/DTD/svg11.dtd">
<!-- Generated by graphviz version 2.43.0 (0)
 -->
<!-- Title: a_graph Pages: 1 -->
<svg width="613pt" height="119pt"
 viewBox="0.00 0.00 613.00 119.00" xmlns="http://www.w3.org/2000/svg" xmlns:xlink="http://www.w3.org/1999/xlink">
<g id="graph0" class="graph" transform="scale(1 1) rotate(0) translate(4 115)">
<title>a_graph</title>
<polygon fill="white" stroke="transparent" points="-4,4 -4,-115 609,-115 609,4 -4,4"/>
<!-- T1755 -->
<g id="node1" class="node">
<title>T1755</title>
<polygon fill="none" stroke="#0058ad" points="0,-81.5 0,-110.5 605,-110.5 605,-81.5 0,-81.5"/>
<text text-anchor="middle" x="35" y="-92.3" font-family="Times,serif" font-size="14.00" fill="#0058ad">a 737 3</text>
<polyline fill="none" stroke="#0058ad" points="70,-81.5 70,-110.5 "/>
<text text-anchor="middle" x="105" y="-92.3" font-family="Times,serif" font-size="14.00" fill="#0058ad">r 749 []</text>
<polyline fill="none" stroke="#0058ad" points="140,-81.5 140,-110.5 "/>
<text text-anchor="middle" x="175" y="-92.3" font-family="Times,serif" font-size="14.00" fill="#0058ad">a 749 1</text>
<polyline fill="none" stroke="#0058ad" points="210,-81.5 210,-110.5 "/>
<text text-anchor="middle" x="249.5" y="-92.3" font-family="Times,serif" font-size="14.00" fill="#0058ad">r 749 [1]</text>
<polyline fill="none" stroke="#0058ad" points="289,-81.5 289,-110.5 "/>
<text text-anchor="middle" x="328.5" y="-92.3" font-family="Times,serif" font-size="14.00" fill="#0058ad">r 749 [1]</text>
<polyline fill="none" stroke="#0058ad" points="368,-81.5 368,-110.5 "/>
<text text-anchor="middle" x="407.5" y="-92.3" font-family="Times,serif" font-size="14.00" fill="#0058ad">r 749 [1]</text>
<polyline fill="none" stroke="#0058ad" points="447,-81.5 447,-110.5 "/>
<text text-anchor="middle" x="486.5" y="-92.3" font-family="Times,serif" font-size="14.00" fill="#0058ad">r 748 [2]</text>
<polyline fill="none" stroke="#0058ad" points="526,-81.5 526,-110.5 "/>
<text text-anchor="middle" x="565.5" y="-92.3" font-family="Times,serif" font-size="14.00" fill="#0058ad">r 749 [1]</text>
</g>
<!-- T1756 -->
<g id="node2" class="node">
<title>T1756</title>
<polygon fill="none" stroke="#0058ad" points="147,-0.5 147,-29.5 550,-29.5 550,-0.5 147,-0.5"/>
<text text-anchor="middle" x="182" y="-11.3" font-family="Times,serif" font-size="14.00" fill="#0058ad">a 748 3</text>
<polyline fill="none" stroke="#0058ad" points="217,-0.5 217,-29.5 "/>
<text text-anchor="middle" x="263" y="-11.3" font-family="Times,serif" font-size="14.00" fill="#0058ad">r 748 [2 3]</text>
<polyline fill="none" stroke="#0058ad" points="309,-0.5 309,-29.5 "/>
<text text-anchor="middle" x="344" y="-11.3" font-family="Times,serif" font-size="14.00" fill="#0058ad">r 749 []</text>
<polyline fill="none" stroke="#0058ad" points="379,-0.5 379,-29.5 "/>
<text text-anchor="middle" x="418.5" y="-11.3" font-family="Times,serif" font-size="14.00" fill="#0058ad">r 745 [1]</text>
<polyline fill="none" stroke="#0058ad" points="458,-0.5 458,-29.5 "/>
<text text-anchor="middle" x="504" y="-11.3" font-family="Times,serif" font-size="14.00" fill="#0058ad">r 748 [2 3]</text>
</g>
<!-- T1755&#45;&gt;T1756 -->
<g id="edge1" class="edge">
<title>T1755:f6&#45;&gt;T1756:f0</title>
<path fill="none" stroke="#5b00c0" d="M486.5,-81C486.5,-65.57 240.31,-50.57 190.3,-35.22"/>
<polygon fill="#5b00c0" stroke="#5b00c0" points="191.89,-32.09 181.5,-30 188.32,-38.11 191.89,-32.09"/>
<text text-anchor="middle" x="405" y="-51.8" font-family="Times,serif" font-size="14.00" fill="#5b00c0">rw</text>
</g>
<!-- T1756&#45;&gt;T1755 -->
<g id="edge2" class="edge">
<title>T1756:f2&#45;&gt;T1755:f2</title>
<path fill="none" stroke="#5b00c0" d="M343.5,-30C343.5,-51.27 269.81,-41.68 249.5,-48 218.4,-57.68 182.93,-47.31 175.79,-71.08"/>
<polygon fill="#5b00c0" stroke="#5b00c0" points="172.32,-70.63 174.5,-81 179.26,-71.53 172.32,-70.63"/>
<text text-anchor="middle" x="259" y="-51.8" font-family="Times,serif" font-size="14.00" fill="#5b00c0">rw</text>
</g>
</g>
</svg>
