<?xml version="1.0" encoding="UTF-8" standalone="no"?>
<!DOCTYPE svg PUBLIC "-//W3C//DTD SVG 1.1//EN"
 "http://www.w3.org/Graphics/SVG/1.1/DTD/svg11.dtd">
<!-- Generated by graphviz version 2.43.0 (0)
 -->
<!-- Title: a_graph Pages: 1 -->
<svg width="702pt" height="119pt"
 viewBox="0.00 0.00 701.50 119.00" xmlns="http://www.w3.org/2000/svg" xmlns:xlink="http://www.w3.org/1999/xlink">
<g id="graph0" class="graph" transform="scale(1 1) rotate(0) translate(4 115)">
<title>a_graph</title>
<polygon fill="white" stroke="transparent" points="-4,4 -4,-115 697.5,-115 697.5,4 -4,4"/>
<!-- T1747 -->
<g id="node1" class="node">
<title>T1747</title>
<polygon fill="none" stroke="#0058ad" points="0,-81.5 0,-110.5 591,-110.5 591,-81.5 0,-81.5"/>
<text text-anchor="middle" x="46" y="-92.3" font-family="Times,serif" font-size="14.00" fill="#0058ad">r 742 [1 2]</text>
<polyline fill="none" stroke="#0058ad" points="92,-81.5 92,-110.5 "/>
<text text-anchor="middle" x="127" y="-92.3" font-family="Times,serif" font-size="14.00" fill="#0058ad">a 742 3</text>
<polyline fill="none" stroke="#0058ad" points="162,-81.5 162,-110.5 "/>
<text text-anchor="middle" x="197" y="-92.3" font-family="Times,serif" font-size="14.00" fill="#0058ad">a 744 1</text>
<polyline fill="none" stroke="#0058ad" points="232,-81.5 232,-110.5 "/>
<text text-anchor="middle" x="267" y="-92.3" font-family="Times,serif" font-size="14.00" fill="#0058ad">r 743 []</text>
<polyline fill="none" stroke="#0058ad" points="302,-81.5 302,-110.5 "/>
<text text-anchor="middle" x="341.5" y="-92.3" font-family="Times,serif" font-size="14.00" fill="#0058ad">r 744 [1]</text>
<polyline fill="none" stroke="#0058ad" points="381,-81.5 381,-110.5 "/>
<text text-anchor="middle" x="416" y="-92.3" font-family="Times,serif" font-size="14.00" fill="#0058ad">a 744 2</text>
<polyline fill="none" stroke="#0058ad" points="451,-81.5 451,-110.5 "/>
<text text-anchor="middle" x="486" y="-92.3" font-family="Times,serif" font-size="14.00" fill="#0058ad">a 744 3</text>
<polyline fill="none" stroke="#0058ad" points="521,-81.5 521,-110.5 "/>
<text text-anchor="middle" x="556" y="-92.3" font-family="Times,serif" font-size="14.00" fill="#0058ad">a 745 1</text>
</g>
<!-- T1745 -->
<g id="node2" class="node">
<title>T1745</title>
<polygon fill="none" stroke="#0058ad" points="343.5,-0.5 343.5,-29.5 693.5,-29.5 693.5,-0.5 343.5,-0.5"/>
<text text-anchor="middle" x="378.5" y="-11.3" font-family="Times,serif" font-size="14.00" fill="#0058ad">a 743 1</text>
<polyline fill="none" stroke="#0058ad" points="413.5,-0.5 413.5,-29.5 "/>
<text text-anchor="middle" x="448.5" y="-11.3" font-family="Times,serif" font-size="14.00" fill="#0058ad">r 746 []</text>
<polyline fill="none" stroke="#0058ad" points="483.5,-0.5 483.5,-29.5 "/>
<text text-anchor="middle" x="518.5" y="-11.3" font-family="Times,serif" font-size="14.00" fill="#0058ad">r 745 []</text>
<polyline fill="none" stroke="#0058ad" points="553.5,-0.5 553.5,-29.5 "/>
<text text-anchor="middle" x="588.5" y="-11.3" font-family="Times,serif" font-size="14.00" fill="#0058ad">r 746 []</text>
<polyline fill="none" stroke="#0058ad" points="623.5,-0.5 623.5,-29.5 "/>
<text text-anchor="middle" x="658.5" y="-11.3" font-family="Times,serif" font-size="14.00" fill="#0058ad">a 743 2</text>
</g>
<!-- T1747&#45;&gt;T1745 -->
<g id="edge1" class="edge">
<title>T1747:f3&#45;&gt;T1745:f0</title>
<path fill="none" stroke="#5b00c0" d="M266.5,-81C266.5,-39.76 293.07,-18.47 332.27,-15.39"/>
<polygon fill="#5b00c0" stroke="#5b00c0" points="332.64,-18.88 342.5,-15 332.37,-11.88 332.64,-18.88"/>
<text text-anchor="middle" x="283" y="-51.8" font-family="Times,serif" font-size="14.00" fill="#5b00c0">rw</text>
</g>
<!-- T1745&#45;&gt;T1747 -->
<g id="edge2" class="edge">
<title>T1745:f2&#45;&gt;T1747:f7</title>
<path fill="none" stroke="#5b00c0" d="M518.5,-30C518.5,-54.29 546.56,-53.62 554.46,-70.89"/>
<polygon fill="#5b00c0" stroke="#5b00c0" points="551.09,-71.89 556.5,-81 557.95,-70.5 551.09,-71.89"/>
<text text-anchor="middle" x="557" y="-51.8" font-family="Times,serif" font-size="14.00" fill="#5b00c0">rw</text>
</g>
</g>
</svg>
