<?xml version="1.0" encoding="UTF-8" standalone="no"?>
<!DOCTYPE svg PUBLIC "-//W3C//DTD SVG 1.1//EN"
 "http://www.w3.org/Graphics/SVG/1.1/DTD/svg11.dtd">
<!-- Generated by graphviz version 2.43.0 (0)
 -->
<!-- Title: a_graph Pages: 1 -->
<svg width="455pt" height="119pt"
 viewBox="0.00 0.00 455.00 119.00" xmlns="http://www.w3.org/2000/svg" xmlns:xlink="http://www.w3.org/1999/xlink">
<g id="graph0" class="graph" transform="scale(1 1) rotate(0) translate(4 115)">
<title>a_graph</title>
<polygon fill="white" stroke="transparent" points="-4,4 -4,-115 451,-115 451,4 -4,4"/>
<!-- T524 -->
<g id="node1" class="node">
<title>T524</title>
<polygon fill="none" stroke="#0058ad" points="76.5,-81.5 76.5,-110.5 356.5,-110.5 356.5,-81.5 76.5,-81.5"/>
<text text-anchor="middle" x="111.5" y="-92.3" font-family="Times,serif" font-size="14.00" fill="#0058ad">a 227 3</text>
<polyline fill="none" stroke="#0058ad" points="146.5,-81.5 146.5,-110.5 "/>
<text text-anchor="middle" x="181.5" y="-92.3" font-family="Times,serif" font-size="14.00" fill="#0058ad">r 230 []</text>
<polyline fill="none" stroke="#0058ad" points="216.5,-81.5 216.5,-110.5 "/>
<text text-anchor="middle" x="251.5" y="-92.3" font-family="Times,serif" font-size="14.00" fill="#0058ad">r 231 []</text>
<polyline fill="none" stroke="#0058ad" points="286.5,-81.5 286.5,-110.5 "/>
<text text-anchor="middle" x="321.5" y="-92.3" font-family="Times,serif" font-size="14.00" fill="#0058ad">r 230 []</text>
</g>
<!-- T525 -->
<g id="node2" class="node">
<title>T525</title>
<polygon fill="none" stroke="#0058ad" points="0,-0.5 0,-29.5 447,-29.5 447,-0.5 0,-0.5"/>
<text text-anchor="middle" x="35" y="-11.3" font-family="Times,serif" font-size="14.00" fill="#0058ad">a 230 1</text>
<polyline fill="none" stroke="#0058ad" points="70,-0.5 70,-29.5 "/>
<text text-anchor="middle" x="109.5" y="-11.3" font-family="Times,serif" font-size="14.00" fill="#0058ad">r 230 [1]</text>
<polyline fill="none" stroke="#0058ad" points="149,-0.5 149,-29.5 "/>
<text text-anchor="middle" x="184" y="-11.3" font-family="Times,serif" font-size="14.00" fill="#0058ad">a 230 2</text>
<polyline fill="none" stroke="#0058ad" points="219,-0.5 219,-29.5 "/>
<text text-anchor="middle" x="258.5" y="-11.3" font-family="Times,serif" font-size="14.00" fill="#0058ad">r 227 [1]</text>
<polyline fill="none" stroke="#0058ad" points="298,-0.5 298,-29.5 "/>
<text text-anchor="middle" x="337.5" y="-11.3" font-family="Times,serif" font-size="14.00" fill="#0058ad">r 227 [1]</text>
<polyline fill="none" stroke="#0058ad" points="377,-0.5 377,-29.5 "/>
<text text-anchor="middle" x="412" y="-11.3" font-family="Times,serif" font-size="14.00" fill="#0058ad">a 230 3</text>
</g>
<!-- T524&#45;&gt;T525 -->
<g id="edge1" class="edge">
<title>T524:f1&#45;&gt;T525:f0</title>
<path fill="none" stroke="#5b00c0" d="M181.5,-81C181.5,-57.95 162.47,-57.57 141.5,-48 122.91,-39.51 58.95,-49.81 39.9,-38.45"/>
<polygon fill="#5b00c0" stroke="#5b00c0" points="42.83,-36.54 34.5,-30 36.93,-40.31 42.83,-36.54"/>
<text text-anchor="middle" x="183" y="-51.8" font-family="Times,serif" font-size="14.00" fill="#5b00c0">rw</text>
</g>
<!-- T525&#45;&gt;T524 -->
<g id="edge2" class="edge">
<title>T525:f3&#45;&gt;T524:f0</title>
<path fill="none" stroke="#5b00c0" d="M258.5,-30C258.5,-61.37 141.56,-26.74 118.5,-48 110.23,-55.62 110.43,-61.94 111.04,-70.95"/>
<polygon fill="#5b00c0" stroke="#5b00c0" points="107.55,-71.17 111.5,-81 114.54,-70.85 107.55,-71.17"/>
<text text-anchor="middle" x="128" y="-51.8" font-family="Times,serif" font-size="14.00" fill="#5b00c0">rw</text>
</g>
</g>
</svg>
