<?xml version="1.0" encoding="UTF-8" standalone="no"?>
<!DOCTYPE svg PUBLIC "-//W3C//DTD SVG 1.1//EN"
 "http://www.w3.org/Graphics/SVG/1.1/DTD/svg11.dtd">
<!-- Generated by graphviz version 2.43.0 (0)
 -->
<!-- Title: a_graph Pages: 1 -->
<svg width="579pt" height="119pt"
 viewBox="0.00 0.00 579.00 119.00" xmlns="http://www.w3.org/2000/svg" xmlns:xlink="http://www.w3.org/1999/xlink">
<g id="graph0" class="graph" transform="scale(1 1) rotate(0) translate(4 115)">
<title>a_graph</title>
<polygon fill="white" stroke="transparent" points="-4,4 -4,-115 575,-115 575,4 -4,4"/>
<!-- T2889 -->
<g id="node1" class="node">
<title>T2889</title>
<polygon fill="none" stroke="#0058ad" points="202,-81.5 202,-110.5 527,-110.5 527,-81.5 202,-81.5"/>
<text text-anchor="middle" x="241.5" y="-92.3" font-family="Times,serif" font-size="14.00" fill="#0058ad">a 1235 1</text>
<polyline fill="none" stroke="#0058ad" points="281,-81.5 281,-110.5 "/>
<text text-anchor="middle" x="320.5" y="-92.3" font-family="Times,serif" font-size="14.00" fill="#0058ad">a 1202 3</text>
<polyline fill="none" stroke="#0058ad" points="360,-81.5 360,-110.5 "/>
<text text-anchor="middle" x="404" y="-92.3" font-family="Times,serif" font-size="14.00" fill="#0058ad">r 1235 [1]</text>
<polyline fill="none" stroke="#0058ad" points="448,-81.5 448,-110.5 "/>
<text text-anchor="middle" x="487.5" y="-92.3" font-family="Times,serif" font-size="14.00" fill="#0058ad">r 1234 []</text>
</g>
<!-- T2892 -->
<g id="node2" class="node">
<title>T2892</title>
<polygon fill="none" stroke="#0058ad" points="0,-0.5 0,-29.5 571,-29.5 571,-0.5 0,-0.5"/>
<text text-anchor="middle" x="39.5" y="-11.3" font-family="Times,serif" font-size="14.00" fill="#0058ad">a 1233 2</text>
<polyline fill="none" stroke="#0058ad" points="79,-0.5 79,-29.5 "/>
<text text-anchor="middle" x="118.5" y="-11.3" font-family="Times,serif" font-size="14.00" fill="#0058ad">a 1233 3</text>
<polyline fill="none" stroke="#0058ad" points="158,-0.5 158,-29.5 "/>
<text text-anchor="middle" x="197.5" y="-11.3" font-family="Times,serif" font-size="14.00" fill="#0058ad">a 1234 1</text>
<polyline fill="none" stroke="#0058ad" points="237,-0.5 237,-29.5 "/>
<text text-anchor="middle" x="276.5" y="-11.3" font-family="Times,serif" font-size="14.00" fill="#0058ad">a 1236 1</text>
<polyline fill="none" stroke="#0058ad" points="316,-0.5 316,-29.5 "/>
<text text-anchor="middle" x="360" y="-11.3" font-family="Times,serif" font-size="14.00" fill="#0058ad">r 1236 [1]</text>
<polyline fill="none" stroke="#0058ad" points="404,-0.5 404,-29.5 "/>
<text text-anchor="middle" x="448" y="-11.3" font-family="Times,serif" font-size="14.00" fill="#0058ad">r 1234 [1]</text>
<polyline fill="none" stroke="#0058ad" points="492,-0.5 492,-29.5 "/>
<text text-anchor="middle" x="531.5" y="-11.3" font-family="Times,serif" font-size="14.00" fill="#0058ad">r 1235 []</text>
</g>
<!-- T2889&#45;&gt;T2892 -->
<g id="edge1" class="edge">
<title>T2889:f3&#45;&gt;T2892:f2</title>
<path fill="none" stroke="#5b00c0" d="M487.5,-81C487.5,-3.16 392.21,-61.2 315.5,-48 292.93,-44.12 221.39,-53.29 202.25,-38.81"/>
<polygon fill="#5b00c0" stroke="#5b00c0" points="205.33,-37.14 197.5,-30 199.16,-40.46 205.33,-37.14"/>
<text text-anchor="middle" x="494" y="-51.8" font-family="Times,serif" font-size="14.00" fill="#5b00c0">rw</text>
</g>
<!-- T2892&#45;&gt;T2889 -->
<g id="edge2" class="edge">
<title>T2892:f6&#45;&gt;T2889:f0</title>
<path fill="none" stroke="#5b00c0" d="M531.5,-30C531.5,-56.63 317.74,-39.5 292.5,-48 270.71,-55.34 249.05,-54.53 243.1,-70.8"/>
<polygon fill="#5b00c0" stroke="#5b00c0" points="239.59,-70.58 241.5,-81 246.51,-71.66 239.59,-70.58"/>
<text text-anchor="middle" x="302" y="-51.8" font-family="Times,serif" font-size="14.00" fill="#5b00c0">rw</text>
</g>
</g>
</svg>
