<?xml version="1.0" encoding="UTF-8" standalone="no"?>
<!DOCTYPE svg PUBLIC "-//W3C//DTD SVG 1.1//EN"
 "http://www.w3.org/Graphics/SVG/1.1/DTD/svg11.dtd">
<!-- Generated by graphviz version 2.43.0 (0)
 -->
<!-- Title: a_graph Pages: 1 -->
<svg width="498pt" height="119pt"
 viewBox="0.00 0.00 498.00 119.00" xmlns="http://www.w3.org/2000/svg" xmlns:xlink="http://www.w3.org/1999/xlink">
<g id="graph0" class="graph" transform="scale(1 1) rotate(0) translate(4 115)">
<title>a_graph</title>
<polygon fill="white" stroke="transparent" points="-4,4 -4,-115 494,-115 494,4 -4,4"/>
<!-- T1458 -->
<g id="node1" class="node">
<title>T1458</title>
<polygon fill="none" stroke="#0058ad" points="21,-81.5 21,-110.5 459,-110.5 459,-81.5 21,-81.5"/>
<text text-anchor="middle" x="60.5" y="-92.3" font-family="Times,serif" font-size="14.00" fill="#0058ad">r 611 [2]</text>
<polyline fill="none" stroke="#0058ad" points="100,-81.5 100,-110.5 "/>
<text text-anchor="middle" x="135" y="-92.3" font-family="Times,serif" font-size="14.00" fill="#0058ad">a 620 2</text>
<polyline fill="none" stroke="#0058ad" points="170,-81.5 170,-110.5 "/>
<text text-anchor="middle" x="205" y="-92.3" font-family="Times,serif" font-size="14.00" fill="#0058ad">a 623 1</text>
<polyline fill="none" stroke="#0058ad" points="240,-81.5 240,-110.5 "/>
<text text-anchor="middle" x="275" y="-92.3" font-family="Times,serif" font-size="14.00" fill="#0058ad">r 624 []</text>
<polyline fill="none" stroke="#0058ad" points="310,-81.5 310,-110.5 "/>
<text text-anchor="middle" x="349.5" y="-92.3" font-family="Times,serif" font-size="14.00" fill="#0058ad">r 623 [1]</text>
<polyline fill="none" stroke="#0058ad" points="389,-81.5 389,-110.5 "/>
<text text-anchor="middle" x="424" y="-92.3" font-family="Times,serif" font-size="14.00" fill="#0058ad">a 623 2</text>
</g>
<!-- T1456 -->
<g id="node2" class="node">
<title>T1456</title>
<polygon fill="none" stroke="#0058ad" points="0,-0.5 0,-29.5 490,-29.5 490,-0.5 0,-0.5"/>
<text text-anchor="middle" x="35" y="-11.3" font-family="Times,serif" font-size="14.00" fill="#0058ad">a 611 3</text>
<polyline fill="none" stroke="#0058ad" points="70,-0.5 70,-29.5 "/>
<text text-anchor="middle" x="105" y="-11.3" font-family="Times,serif" font-size="14.00" fill="#0058ad">r 624 []</text>
<polyline fill="none" stroke="#0058ad" points="140,-0.5 140,-29.5 "/>
<text text-anchor="middle" x="175" y="-11.3" font-family="Times,serif" font-size="14.00" fill="#0058ad">a 613 1</text>
<polyline fill="none" stroke="#0058ad" points="210,-0.5 210,-29.5 "/>
<text text-anchor="middle" x="245" y="-11.3" font-family="Times,serif" font-size="14.00" fill="#0058ad">r 623 []</text>
<polyline fill="none" stroke="#0058ad" points="280,-0.5 280,-29.5 "/>
<text text-anchor="middle" x="315" y="-11.3" font-family="Times,serif" font-size="14.00" fill="#0058ad">r 623 []</text>
<polyline fill="none" stroke="#0058ad" points="350,-0.5 350,-29.5 "/>
<text text-anchor="middle" x="385" y="-11.3" font-family="Times,serif" font-size="14.00" fill="#0058ad">r 623 []</text>
<polyline fill="none" stroke="#0058ad" points="420,-0.5 420,-29.5 "/>
<text text-anchor="middle" x="455" y="-11.3" font-family="Times,serif" font-size="14.00" fill="#0058ad">a 624 1</text>
</g>
<!-- T1458&#45;&gt;T1456 -->
<g id="edge1" class="edge">
<title>T1458:f0&#45;&gt;T1456:f0</title>
<path fill="none" stroke="#5b00c0" d="M60,-81C60,-59.7 42.2,-56.01 36.64,-40.21"/>
<polygon fill="#5b00c0" stroke="#5b00c0" points="40.04,-39.32 35,-30 33.13,-40.43 40.04,-39.32"/>
<text text-anchor="middle" x="63.5" y="-51.8" font-family="Times,serif" font-size="14.00" fill="#5b00c0">rw</text>
</g>
<!-- T1456&#45;&gt;T1458 -->
<g id="edge2" class="edge">
<title>T1456:f3&#45;&gt;T1458:f2</title>
<path fill="none" stroke="#5b00c0" d="M245,-30C245,-54.76 215.46,-53.35 207.15,-70.75"/>
<polygon fill="#5b00c0" stroke="#5b00c0" points="203.63,-70.49 205,-81 210.48,-71.93 203.63,-70.49"/>
<text text-anchor="middle" x="246.5" y="-51.8" font-family="Times,serif" font-size="14.00" fill="#5b00c0">rw</text>
</g>
</g>
</svg>
