<?xml version="1.0" encoding="UTF-8" standalone="no"?>
<!DOCTYPE svg PUBLIC "-//W3C//DTD SVG 1.1//EN"
 "http://www.w3.org/Graphics/SVG/1.1/DTD/svg11.dtd">
<!-- Generated by graphviz version 2.43.0 (0)
 -->
<!-- Title: a_graph Pages: 1 -->
<svg width="668pt" height="119pt"
 viewBox="0.00 0.00 668.00 119.00" xmlns="http://www.w3.org/2000/svg" xmlns:xlink="http://www.w3.org/1999/xlink">
<g id="graph0" class="graph" transform="scale(1 1) rotate(0) translate(4 115)">
<title>a_graph</title>
<polygon fill="white" stroke="transparent" points="-4,4 -4,-115 664,-115 664,4 -4,4"/>
<!-- T510 -->
<g id="node1" class="node">
<title>T510</title>
<polygon fill="none" stroke="#0058ad" points="94,-81.5 94,-110.5 660,-110.5 660,-81.5 94,-81.5"/>
<text text-anchor="middle" x="129" y="-92.3" font-family="Times,serif" font-size="14.00" fill="#0058ad">a 218 3</text>
<polyline fill="none" stroke="#0058ad" points="164,-81.5 164,-110.5 "/>
<text text-anchor="middle" x="217" y="-92.3" font-family="Times,serif" font-size="14.00" fill="#0058ad">r 218 [1 2 3]</text>
<polyline fill="none" stroke="#0058ad" points="270,-81.5 270,-110.5 "/>
<text text-anchor="middle" x="309.5" y="-92.3" font-family="Times,serif" font-size="14.00" fill="#0058ad">r 221 [1]</text>
<polyline fill="none" stroke="#0058ad" points="349,-81.5 349,-110.5 "/>
<text text-anchor="middle" x="384" y="-92.3" font-family="Times,serif" font-size="14.00" fill="#0058ad">a 223 2</text>
<polyline fill="none" stroke="#0058ad" points="419,-81.5 419,-110.5 "/>
<text text-anchor="middle" x="458.5" y="-92.3" font-family="Times,serif" font-size="14.00" fill="#0058ad">r 223 [2]</text>
<polyline fill="none" stroke="#0058ad" points="498,-81.5 498,-110.5 "/>
<text text-anchor="middle" x="533" y="-92.3" font-family="Times,serif" font-size="14.00" fill="#0058ad">a 223 3</text>
<polyline fill="none" stroke="#0058ad" points="568,-81.5 568,-110.5 "/>
<text text-anchor="middle" x="614" y="-92.3" font-family="Times,serif" font-size="14.00" fill="#0058ad">r 223 [2 3]</text>
</g>
<!-- T512 -->
<g id="node2" class="node">
<title>T512</title>
<polygon fill="none" stroke="#0058ad" points="0,-0.5 0,-29.5 394,-29.5 394,-0.5 0,-0.5"/>
<text text-anchor="middle" x="46" y="-11.3" font-family="Times,serif" font-size="14.00" fill="#0058ad">r 218 [1 2]</text>
<polyline fill="none" stroke="#0058ad" points="92,-0.5 92,-29.5 "/>
<text text-anchor="middle" x="127" y="-11.3" font-family="Times,serif" font-size="14.00" fill="#0058ad">r 223 []</text>
<polyline fill="none" stroke="#0058ad" points="162,-0.5 162,-29.5 "/>
<text text-anchor="middle" x="208" y="-11.3" font-family="Times,serif" font-size="14.00" fill="#0058ad">r 218 [1 2]</text>
<polyline fill="none" stroke="#0058ad" points="254,-0.5 254,-29.5 "/>
<text text-anchor="middle" x="289" y="-11.3" font-family="Times,serif" font-size="14.00" fill="#0058ad">a 224 1</text>
<polyline fill="none" stroke="#0058ad" points="324,-0.5 324,-29.5 "/>
<text text-anchor="middle" x="359" y="-11.3" font-family="Times,serif" font-size="14.00" fill="#0058ad">a 221 2</text>
</g>
<!-- T510&#45;&gt;T512 -->
<g id="edge1" class="edge">
<title>T510:f2&#45;&gt;T512:f4</title>
<path fill="none" stroke="#5b00c0" d="M309,-81C309,-53.23 347.28,-59.31 356.85,-40"/>
<polygon fill="#5b00c0" stroke="#5b00c0" points="360.32,-40.51 359,-30 353.48,-39.04 360.32,-40.51"/>
<text text-anchor="middle" x="358.5" y="-51.8" font-family="Times,serif" font-size="14.00" fill="#5b00c0">rw</text>
</g>
<!-- T512&#45;&gt;T510 -->
<g id="edge2" class="edge">
<title>T512:f0&#45;&gt;T510:f0</title>
<path fill="none" stroke="#5b00c0" d="M46,-30C46,-62.35 54.87,-89.85 82.79,-95.1"/>
<polygon fill="#5b00c0" stroke="#5b00c0" points="82.73,-98.61 93,-96 83.35,-91.63 82.73,-98.61"/>
<text text-anchor="middle" x="59.5" y="-51.8" font-family="Times,serif" font-size="14.00" fill="#5b00c0">rw</text>
</g>
</g>
</svg>
