<?xml version="1.0" encoding="UTF-8" standalone="no"?>
<!DOCTYPE svg PUBLIC "-//W3C//DTD SVG 1.1//EN"
 "http://www.w3.org/Graphics/SVG/1.1/DTD/svg11.dtd">
<!-- Generated by graphviz version 2.43.0 (0)
 -->
<!-- Title: a_graph Pages: 1 -->
<svg width="617pt" height="119pt"
 viewBox="0.00 0.00 616.50 119.00" xmlns="http://www.w3.org/2000/svg" xmlns:xlink="http://www.w3.org/1999/xlink">
<g id="graph0" class="graph" transform="scale(1 1) rotate(0) translate(4 115)">
<title>a_graph</title>
<polygon fill="white" stroke="transparent" points="-4,4 -4,-115 612.5,-115 612.5,4 -4,4"/>
<!-- T470 -->
<g id="node1" class="node">
<title>T470</title>
<polygon fill="none" stroke="#0058ad" points="47.5,-81.5 47.5,-110.5 608.5,-110.5 608.5,-81.5 47.5,-81.5"/>
<text text-anchor="middle" x="82.5" y="-92.3" font-family="Times,serif" font-size="14.00" fill="#0058ad">r 203 []</text>
<polyline fill="none" stroke="#0058ad" points="117.5,-81.5 117.5,-110.5 "/>
<text text-anchor="middle" x="152.5" y="-92.3" font-family="Times,serif" font-size="14.00" fill="#0058ad">a 203 1</text>
<polyline fill="none" stroke="#0058ad" points="187.5,-81.5 187.5,-110.5 "/>
<text text-anchor="middle" x="227" y="-92.3" font-family="Times,serif" font-size="14.00" fill="#0058ad">r 203 [1]</text>
<polyline fill="none" stroke="#0058ad" points="266.5,-81.5 266.5,-110.5 "/>
<text text-anchor="middle" x="312.5" y="-92.3" font-family="Times,serif" font-size="14.00" fill="#0058ad">r 190 [1 2]</text>
<polyline fill="none" stroke="#0058ad" points="358.5,-81.5 358.5,-110.5 "/>
<text text-anchor="middle" x="404.5" y="-92.3" font-family="Times,serif" font-size="14.00" fill="#0058ad">r 200 [1 2]</text>
<polyline fill="none" stroke="#0058ad" points="450.5,-81.5 450.5,-110.5 "/>
<text text-anchor="middle" x="490" y="-92.3" font-family="Times,serif" font-size="14.00" fill="#0058ad">r 203 [1]</text>
<polyline fill="none" stroke="#0058ad" points="529.5,-81.5 529.5,-110.5 "/>
<text text-anchor="middle" x="569" y="-92.3" font-family="Times,serif" font-size="14.00" fill="#0058ad">r 203 [1]</text>
</g>
<!-- T471 -->
<g id="node2" class="node">
<title>T471</title>
<polygon fill="none" stroke="#0058ad" points="0,-0.5 0,-29.5 280,-29.5 280,-0.5 0,-0.5"/>
<text text-anchor="middle" x="35" y="-11.3" font-family="Times,serif" font-size="14.00" fill="#0058ad">a 204 1</text>
<polyline fill="none" stroke="#0058ad" points="70,-0.5 70,-29.5 "/>
<text text-anchor="middle" x="105" y="-11.3" font-family="Times,serif" font-size="14.00" fill="#0058ad">a 204 2</text>
<polyline fill="none" stroke="#0058ad" points="140,-0.5 140,-29.5 "/>
<text text-anchor="middle" x="175" y="-11.3" font-family="Times,serif" font-size="14.00" fill="#0058ad">r 203 []</text>
<polyline fill="none" stroke="#0058ad" points="210,-0.5 210,-29.5 "/>
<text text-anchor="middle" x="245" y="-11.3" font-family="Times,serif" font-size="14.00" fill="#0058ad">a 190 3</text>
</g>
<!-- T470&#45;&gt;T471 -->
<g id="edge1" class="edge">
<title>T470:f3&#45;&gt;T471:f3</title>
<path fill="none" stroke="#5b00c0" d="M312,-81C312,-52.39 313.1,-22.86 291.06,-16.33"/>
<polygon fill="#5b00c0" stroke="#5b00c0" points="291.37,-12.84 281,-15 290.46,-19.78 291.37,-12.84"/>
<text text-anchor="middle" x="320.5" y="-51.8" font-family="Times,serif" font-size="14.00" fill="#5b00c0">rw</text>
</g>
<!-- T471&#45;&gt;T470 -->
<g id="edge2" class="edge">
<title>T471:f2&#45;&gt;T470:f1</title>
<path fill="none" stroke="#5b00c0" d="M175,-30C175,-50.98 158.63,-55.16 153.51,-70.89"/>
<polygon fill="#5b00c0" stroke="#5b00c0" points="150.02,-70.59 152,-81 156.94,-71.63 150.02,-70.59"/>
<text text-anchor="middle" x="179.5" y="-51.8" font-family="Times,serif" font-size="14.00" fill="#5b00c0">rw</text>
</g>
</g>
</svg>
