<?xml version="1.0" encoding="UTF-8" standalone="no"?>
<!DOCTYPE svg PUBLIC "-//W3C//DTD SVG 1.1//EN"
 "http://www.w3.org/Graphics/SVG/1.1/DTD/svg11.dtd">
<!-- Generated by graphviz version 2.43.0 (0)
 -->
<!-- Title: a_graph Pages: 1 -->
<svg width="686pt" height="200pt"
 viewBox="0.00 0.00 685.50 200.00" xmlns="http://www.w3.org/2000/svg" xmlns:xlink="http://www.w3.org/1999/xlink">
<g id="graph0" class="graph" transform="scale(1 1) rotate(0) translate(4 196)">
<title>a_graph</title>
<polygon fill="white" stroke="transparent" points="-4,4 -4,-196 681.5,-196 681.5,4 -4,4"/>
<!-- T2865 -->
<g id="node1" class="node">
<title>T2865</title>
<polygon fill="none" stroke="#0058ad" points="141,-162.5 141,-191.5 479,-191.5 479,-162.5 141,-162.5"/>
<text text-anchor="middle" x="180.5" y="-173.3" font-family="Times,serif" font-size="14.00" fill="#0058ad">r 1221 []</text>
<polyline fill="none" stroke="#0058ad" points="220,-162.5 220,-191.5 "/>
<text text-anchor="middle" x="270.5" y="-173.3" font-family="Times,serif" font-size="14.00" fill="#0058ad">r 1209 [1 2]</text>
<polyline fill="none" stroke="#0058ad" points="321,-162.5 321,-191.5 "/>
<text text-anchor="middle" x="360.5" y="-173.3" font-family="Times,serif" font-size="14.00" fill="#0058ad">r 1221 []</text>
<polyline fill="none" stroke="#0058ad" points="400,-162.5 400,-191.5 "/>
<text text-anchor="middle" x="439.5" y="-173.3" font-family="Times,serif" font-size="14.00" fill="#0058ad">a 1219 2</text>
</g>
<!-- T2866 -->
<g id="node2" class="node">
<title>T2866</title>
<polygon fill="none" stroke="#0058ad" points="0,-81.5 0,-110.5 404,-110.5 404,-81.5 0,-81.5"/>
<text text-anchor="middle" x="39.5" y="-92.3" font-family="Times,serif" font-size="14.00" fill="#0058ad">r 1220 []</text>
<polyline fill="none" stroke="#0058ad" points="79,-81.5 79,-110.5 "/>
<text text-anchor="middle" x="123" y="-92.3" font-family="Times,serif" font-size="14.00" fill="#0058ad">r 1219 [1]</text>
<polyline fill="none" stroke="#0058ad" points="167,-81.5 167,-110.5 "/>
<text text-anchor="middle" x="206.5" y="-92.3" font-family="Times,serif" font-size="14.00" fill="#0058ad">r 1221 []</text>
<polyline fill="none" stroke="#0058ad" points="246,-81.5 246,-110.5 "/>
<text text-anchor="middle" x="285.5" y="-92.3" font-family="Times,serif" font-size="14.00" fill="#0058ad">a 1221 1</text>
<polyline fill="none" stroke="#0058ad" points="325,-81.5 325,-110.5 "/>
<text text-anchor="middle" x="364.5" y="-92.3" font-family="Times,serif" font-size="14.00" fill="#0058ad">a 1209 3</text>
</g>
<!-- T2865&#45;&gt;T2866 -->
<g id="edge1" class="edge">
<title>T2865:f0&#45;&gt;T2866:f3</title>
<path fill="none" stroke="#5b00c0" d="M180,-162C180,-139.23 260.43,-137.27 281.17,-119.86"/>
<polygon fill="#5b00c0" stroke="#5b00c0" points="284.29,-121.46 286,-111 278.14,-118.1 284.29,-121.46"/>
<text text-anchor="middle" x="269.5" y="-132.8" font-family="Times,serif" font-size="14.00" fill="#5b00c0">rw</text>
</g>
<!-- T2866&#45;&gt;T2865 -->
<g id="edge2" class="edge">
<title>T2866:f1&#45;&gt;T2865:f3</title>
<path fill="none" stroke="#5b00c0" d="M123,-111C123,-128.89 265.34,-126.16 283,-129 298.19,-131.45 404.16,-140.98 432.85,-155.01"/>
<polygon fill="#5b00c0" stroke="#5b00c0" points="430.4,-157.51 440,-162 435.3,-152.51 430.4,-157.51"/>
<text text-anchor="middle" x="398.5" y="-132.8" font-family="Times,serif" font-size="14.00" fill="#5b00c0">rw</text>
</g>
<!-- T2863 -->
<g id="node3" class="node">
<title>T2863</title>
<polygon fill="none" stroke="#0058ad" points="100.5,-0.5 100.5,-29.5 677.5,-29.5 677.5,-0.5 100.5,-0.5"/>
<text text-anchor="middle" x="140" y="-11.3" font-family="Times,serif" font-size="14.00" fill="#0058ad">a 1218 3</text>
<polyline fill="none" stroke="#0058ad" points="179.5,-0.5 179.5,-29.5 "/>
<text text-anchor="middle" x="230" y="-11.3" font-family="Times,serif" font-size="14.00" fill="#0058ad">r 1209 [1 2]</text>
<polyline fill="none" stroke="#0058ad" points="280.5,-0.5 280.5,-29.5 "/>
<text text-anchor="middle" x="338" y="-11.3" font-family="Times,serif" font-size="14.00" fill="#0058ad">r 1218 [1 2 3]</text>
<polyline fill="none" stroke="#0058ad" points="395.5,-0.5 395.5,-29.5 "/>
<text text-anchor="middle" x="439.5" y="-11.3" font-family="Times,serif" font-size="14.00" fill="#0058ad">r 1219 [1]</text>
<polyline fill="none" stroke="#0058ad" points="483.5,-0.5 483.5,-29.5 "/>
<text text-anchor="middle" x="541" y="-11.3" font-family="Times,serif" font-size="14.00" fill="#0058ad">r 1218 [1 2 3]</text>
<polyline fill="none" stroke="#0058ad" points="598.5,-0.5 598.5,-29.5 "/>
<text text-anchor="middle" x="638" y="-11.3" font-family="Times,serif" font-size="14.00" fill="#0058ad">a 1220 1</text>
</g>
<!-- T2866&#45;&gt;T2863 -->
<g id="edge3" class="edge">
<title>T2866:f0&#45;&gt;T2863:f5</title>
<path fill="none" stroke="#5b00c0" d="M39,-81C39,-67.19 273.25,-64.36 287,-63 340.49,-57.72 353.53,-53.42 407,-48 429.71,-45.7 593.77,-53.57 630.65,-37.43"/>
<polygon fill="#5b00c0" stroke="#5b00c0" points="633.46,-39.57 638,-30 628.48,-34.65 633.46,-39.57"/>
<text text-anchor="middle" x="416.5" y="-51.8" font-family="Times,serif" font-size="14.00" fill="#5b00c0">rw</text>
</g>
<!-- T2863&#45;&gt;T2865 -->
<g id="edge4" class="edge">
<title>T2863:f3&#45;&gt;T2865:f3</title>
<path fill="none" stroke="#5b00c0" d="M440,-30C440,-85.11 440,-101.4 440,-151.81"/>
<polygon fill="#5b00c0" stroke="#5b00c0" points="436.5,-152 440,-162 443.5,-152 436.5,-152"/>
<text text-anchor="middle" x="449.5" y="-92.3" font-family="Times,serif" font-size="14.00" fill="#5b00c0">rw</text>
</g>
<!-- T2863&#45;&gt;T2866 -->
<g id="edge5" class="edge">
<title>T2863:f1&#45;&gt;T2866:f4</title>
<path fill="none" stroke="#5b00c0" d="M230,-30C230,-51.06 245.26,-53.4 264,-63 281.04,-71.73 340.7,-62.41 359.37,-72.71"/>
<polygon fill="#5b00c0" stroke="#5b00c0" points="356.49,-74.69 365,-81 362.28,-70.76 356.49,-74.69"/>
<text text-anchor="middle" x="273.5" y="-51.8" font-family="Times,serif" font-size="14.00" fill="#5b00c0">rw</text>
</g>
</g>
</svg>
