<?xml version="1.0" encoding="UTF-8" standalone="no"?>
<!DOCTYPE svg PUBLIC "-//W3C//DTD SVG 1.1//EN"
 "http://www.w3.org/Graphics/SVG/1.1/DTD/svg11.dtd">
<!-- Generated by graphviz version 2.43.0 (0)
 -->
<!-- Title: a_graph Pages: 1 -->
<svg width="535pt" height="119pt"
 viewBox="0.00 0.00 534.50 119.00" xmlns="http://www.w3.org/2000/svg" xmlns:xlink="http://www.w3.org/1999/xlink">
<g id="graph0" class="graph" transform="scale(1 1) rotate(0) translate(4 115)">
<title>a_graph</title>
<polygon fill="white" stroke="transparent" points="-4,4 -4,-115 530.5,-115 530.5,4 -4,4"/>
<!-- T1431 -->
<g id="node1" class="node">
<title>T1431</title>
<polygon fill="none" stroke="#0058ad" points="136.5,-81.5 136.5,-110.5 526.5,-110.5 526.5,-81.5 136.5,-81.5"/>
<text text-anchor="middle" x="171.5" y="-92.3" font-family="Times,serif" font-size="14.00" fill="#0058ad">a 599 3</text>
<polyline fill="none" stroke="#0058ad" points="206.5,-81.5 206.5,-110.5 "/>
<text text-anchor="middle" x="246" y="-92.3" font-family="Times,serif" font-size="14.00" fill="#0058ad">r 610 [1]</text>
<polyline fill="none" stroke="#0058ad" points="285.5,-81.5 285.5,-110.5 "/>
<text text-anchor="middle" x="320.5" y="-92.3" font-family="Times,serif" font-size="14.00" fill="#0058ad">a 612 1</text>
<polyline fill="none" stroke="#0058ad" points="355.5,-81.5 355.5,-110.5 "/>
<text text-anchor="middle" x="395" y="-92.3" font-family="Times,serif" font-size="14.00" fill="#0058ad">r 612 [1]</text>
<polyline fill="none" stroke="#0058ad" points="434.5,-81.5 434.5,-110.5 "/>
<text text-anchor="middle" x="480.5" y="-92.3" font-family="Times,serif" font-size="14.00" fill="#0058ad">r 599 [1 3]</text>
</g>
<!-- T1430 -->
<g id="node2" class="node">
<title>T1430</title>
<polygon fill="none" stroke="#0058ad" points="0,-0.5 0,-29.5 451,-29.5 451,-0.5 0,-0.5"/>
<text text-anchor="middle" x="39.5" y="-11.3" font-family="Times,serif" font-size="14.00" fill="#0058ad">r 599 [1]</text>
<polyline fill="none" stroke="#0058ad" points="79,-0.5 79,-29.5 "/>
<text text-anchor="middle" x="114" y="-11.3" font-family="Times,serif" font-size="14.00" fill="#0058ad">a 608 1</text>
<polyline fill="none" stroke="#0058ad" points="149,-0.5 149,-29.5 "/>
<text text-anchor="middle" x="184" y="-11.3" font-family="Times,serif" font-size="14.00" fill="#0058ad">a 608 2</text>
<polyline fill="none" stroke="#0058ad" points="219,-0.5 219,-29.5 "/>
<text text-anchor="middle" x="254" y="-11.3" font-family="Times,serif" font-size="14.00" fill="#0058ad">a 609 3</text>
<polyline fill="none" stroke="#0058ad" points="289,-0.5 289,-29.5 "/>
<text text-anchor="middle" x="324" y="-11.3" font-family="Times,serif" font-size="14.00" fill="#0058ad">a 610 2</text>
<polyline fill="none" stroke="#0058ad" points="359,-0.5 359,-29.5 "/>
<text text-anchor="middle" x="405" y="-11.3" font-family="Times,serif" font-size="14.00" fill="#0058ad">r 610 [1 2]</text>
</g>
<!-- T1431&#45;&gt;T1430 -->
<g id="edge1" class="edge">
<title>T1431:f1&#45;&gt;T1430:f4</title>
<path fill="none" stroke="#5b00c0" d="M245.5,-81C245.5,-43.13 310.38,-66.34 322.55,-39.92"/>
<polygon fill="#5b00c0" stroke="#5b00c0" points="326,-40.49 324.5,-30 319.13,-39.14 326,-40.49"/>
<text text-anchor="middle" x="324" y="-51.8" font-family="Times,serif" font-size="14.00" fill="#5b00c0">rw</text>
</g>
<!-- T1430&#45;&gt;T1431 -->
<g id="edge2" class="edge">
<title>T1430:f0&#45;&gt;T1431:f0</title>
<path fill="none" stroke="#5b00c0" d="M39.5,-30C39.5,-78.34 78.04,-93.95 125.3,-95.81"/>
<polygon fill="#5b00c0" stroke="#5b00c0" points="125.43,-99.31 135.5,-96 125.57,-92.31 125.43,-99.31"/>
<text text-anchor="middle" x="57" y="-51.8" font-family="Times,serif" font-size="14.00" fill="#5b00c0">rw</text>
</g>
</g>
</svg>
