<?xml version="1.0" encoding="UTF-8" standalone="no"?>
<!DOCTYPE svg PUBLIC "-//W3C//DTD SVG 1.1//EN"
 "http://www.w3.org/Graphics/SVG/1.1/DTD/svg11.dtd">
<!-- Generated by graphviz version 2.43.0 (0)
 -->
<!-- Title: a_graph Pages: 1 -->
<svg width="711pt" height="119pt"
 viewBox="0.00 0.00 710.50 119.00" xmlns="http://www.w3.org/2000/svg" xmlns:xlink="http://www.w3.org/1999/xlink">
<g id="graph0" class="graph" transform="scale(1 1) rotate(0) translate(4 115)">
<title>a_graph</title>
<polygon fill="white" stroke="transparent" points="-4,4 -4,-115 706.5,-115 706.5,4 -4,4"/>
<!-- T1828 -->
<g id="node1" class="node">
<title>T1828</title>
<polygon fill="none" stroke="#0058ad" points="0,-81.5 0,-110.5 574,-110.5 574,-81.5 0,-81.5"/>
<text text-anchor="middle" x="39.5" y="-92.3" font-family="Times,serif" font-size="14.00" fill="#0058ad">r 776 [2]</text>
<polyline fill="none" stroke="#0058ad" points="79,-81.5 79,-110.5 "/>
<text text-anchor="middle" x="114" y="-92.3" font-family="Times,serif" font-size="14.00" fill="#0058ad">a 776 3</text>
<polyline fill="none" stroke="#0058ad" points="149,-81.5 149,-110.5 "/>
<text text-anchor="middle" x="184" y="-92.3" font-family="Times,serif" font-size="14.00" fill="#0058ad">a 773 1</text>
<polyline fill="none" stroke="#0058ad" points="219,-81.5 219,-110.5 "/>
<text text-anchor="middle" x="265" y="-92.3" font-family="Times,serif" font-size="14.00" fill="#0058ad">r 776 [2 3]</text>
<polyline fill="none" stroke="#0058ad" points="311,-81.5 311,-110.5 "/>
<text text-anchor="middle" x="357" y="-92.3" font-family="Times,serif" font-size="14.00" fill="#0058ad">r 776 [2 3]</text>
<polyline fill="none" stroke="#0058ad" points="403,-81.5 403,-110.5 "/>
<text text-anchor="middle" x="442.5" y="-92.3" font-family="Times,serif" font-size="14.00" fill="#0058ad">r 778 [1]</text>
<polyline fill="none" stroke="#0058ad" points="482,-81.5 482,-110.5 "/>
<text text-anchor="middle" x="528" y="-92.3" font-family="Times,serif" font-size="14.00" fill="#0058ad">r 776 [2 3]</text>
</g>
<!-- T1829 -->
<g id="node2" class="node">
<title>T1829</title>
<polygon fill="none" stroke="#0058ad" points="233.5,-0.5 233.5,-29.5 702.5,-29.5 702.5,-0.5 233.5,-0.5"/>
<text text-anchor="middle" x="273" y="-11.3" font-family="Times,serif" font-size="14.00" fill="#0058ad">r 776 [2]</text>
<polyline fill="none" stroke="#0058ad" points="312.5,-0.5 312.5,-29.5 "/>
<text text-anchor="middle" x="347.5" y="-11.3" font-family="Times,serif" font-size="14.00" fill="#0058ad">a 778 2</text>
<polyline fill="none" stroke="#0058ad" points="382.5,-0.5 382.5,-29.5 "/>
<text text-anchor="middle" x="422" y="-11.3" font-family="Times,serif" font-size="14.00" fill="#0058ad">r 776 [2]</text>
<polyline fill="none" stroke="#0058ad" points="461.5,-0.5 461.5,-29.5 "/>
<text text-anchor="middle" x="507.5" y="-11.3" font-family="Times,serif" font-size="14.00" fill="#0058ad">r 778 [1 2]</text>
<polyline fill="none" stroke="#0058ad" points="553.5,-0.5 553.5,-29.5 "/>
<text text-anchor="middle" x="593" y="-11.3" font-family="Times,serif" font-size="14.00" fill="#0058ad">r 776 [2]</text>
<polyline fill="none" stroke="#0058ad" points="632.5,-0.5 632.5,-29.5 "/>
<text text-anchor="middle" x="667.5" y="-11.3" font-family="Times,serif" font-size="14.00" fill="#0058ad">r 779 []</text>
</g>
<!-- T1828&#45;&gt;T1829 -->
<g id="edge1" class="edge">
<title>T1828:f5&#45;&gt;T1829:f1</title>
<path fill="none" stroke="#5b00c0" d="M443,-81C443,-36.65 362.1,-71.46 348.83,-40.1"/>
<polygon fill="#5b00c0" stroke="#5b00c0" points="352.23,-39.21 347,-30 345.34,-40.46 352.23,-39.21"/>
<text text-anchor="middle" x="443.5" y="-51.8" font-family="Times,serif" font-size="14.00" fill="#5b00c0">rw</text>
</g>
<!-- T1829&#45;&gt;T1828 -->
<g id="edge2" class="edge">
<title>T1829:f0&#45;&gt;T1828:f1</title>
<path fill="none" stroke="#5b00c0" d="M232,-15C175.43,-15 120.79,-20.24 114.59,-70.99"/>
<polygon fill="#5b00c0" stroke="#5b00c0" points="111.09,-70.81 114,-81 118.08,-71.22 111.09,-70.81"/>
<text text-anchor="middle" x="130.5" y="-51.8" font-family="Times,serif" font-size="14.00" fill="#5b00c0">rw</text>
</g>
</g>
</svg>
