<?xml version="1.0" encoding="UTF-8" standalone="no"?>
<!DOCTYPE svg PUBLIC "-//W3C//DTD SVG 1.1//EN"
 "http://www.w3.org/Graphics/SVG/1.1/DTD/svg11.dtd">
<!-- Generated by graphviz version 2.43.0 (0)
 -->
<!-- Title: a_graph Pages: 1 -->
<svg width="706pt" height="119pt"
 viewBox="0.00 0.00 705.50 119.00" xmlns="http://www.w3.org/2000/svg" xmlns:xlink="http://www.w3.org/1999/xlink">
<g id="graph0" class="graph" transform="scale(1 1) rotate(0) translate(4 115)">
<title>a_graph</title>
<polygon fill="white" stroke="transparent" points="-4,4 -4,-115 701.5,-115 701.5,4 -4,4"/>
<!-- T3185 -->
<g id="node1" class="node">
<title>T3185</title>
<polygon fill="none" stroke="#0058ad" points="56.5,-81.5 56.5,-110.5 697.5,-110.5 697.5,-81.5 56.5,-81.5"/>
<text text-anchor="middle" x="96" y="-92.3" font-family="Times,serif" font-size="14.00" fill="#0058ad">a 1350 2</text>
<polyline fill="none" stroke="#0058ad" points="135.5,-81.5 135.5,-110.5 "/>
<text text-anchor="middle" x="175" y="-92.3" font-family="Times,serif" font-size="14.00" fill="#0058ad">a 1366 3</text>
<polyline fill="none" stroke="#0058ad" points="214.5,-81.5 214.5,-110.5 "/>
<text text-anchor="middle" x="254" y="-92.3" font-family="Times,serif" font-size="14.00" fill="#0058ad">a 1350 3</text>
<polyline fill="none" stroke="#0058ad" points="293.5,-81.5 293.5,-110.5 "/>
<text text-anchor="middle" x="333" y="-92.3" font-family="Times,serif" font-size="14.00" fill="#0058ad">r 1365 []</text>
<polyline fill="none" stroke="#0058ad" points="372.5,-81.5 372.5,-110.5 "/>
<text text-anchor="middle" x="412" y="-92.3" font-family="Times,serif" font-size="14.00" fill="#0058ad">a 1367 1</text>
<polyline fill="none" stroke="#0058ad" points="451.5,-81.5 451.5,-110.5 "/>
<text text-anchor="middle" x="495.5" y="-92.3" font-family="Times,serif" font-size="14.00" fill="#0058ad">r 1367 [1]</text>
<polyline fill="none" stroke="#0058ad" points="539.5,-81.5 539.5,-110.5 "/>
<text text-anchor="middle" x="579" y="-92.3" font-family="Times,serif" font-size="14.00" fill="#0058ad">r 1365 []</text>
<polyline fill="none" stroke="#0058ad" points="618.5,-81.5 618.5,-110.5 "/>
<text text-anchor="middle" x="658" y="-92.3" font-family="Times,serif" font-size="14.00" fill="#0058ad">r 1365 []</text>
</g>
<!-- T3184 -->
<g id="node2" class="node">
<title>T3184</title>
<polygon fill="none" stroke="#0058ad" points="0,-0.5 0,-29.5 514,-29.5 514,-0.5 0,-0.5"/>
<text text-anchor="middle" x="39.5" y="-11.3" font-family="Times,serif" font-size="14.00" fill="#0058ad">a 1365 1</text>
<polyline fill="none" stroke="#0058ad" points="79,-0.5 79,-29.5 "/>
<text text-anchor="middle" x="118.5" y="-11.3" font-family="Times,serif" font-size="14.00" fill="#0058ad">a 1365 2</text>
<polyline fill="none" stroke="#0058ad" points="158,-0.5 158,-29.5 "/>
<text text-anchor="middle" x="202" y="-11.3" font-family="Times,serif" font-size="14.00" fill="#0058ad">r 1366 [1]</text>
<polyline fill="none" stroke="#0058ad" points="246,-0.5 246,-29.5 "/>
<text text-anchor="middle" x="296.5" y="-11.3" font-family="Times,serif" font-size="14.00" fill="#0058ad">r 1365 [1 2]</text>
<polyline fill="none" stroke="#0058ad" points="347,-0.5 347,-29.5 "/>
<text text-anchor="middle" x="391" y="-11.3" font-family="Times,serif" font-size="14.00" fill="#0058ad">r 1350 [1]</text>
<polyline fill="none" stroke="#0058ad" points="435,-0.5 435,-29.5 "/>
<text text-anchor="middle" x="474.5" y="-11.3" font-family="Times,serif" font-size="14.00" fill="#0058ad">a 1365 3</text>
</g>
<!-- T3185&#45;&gt;T3184 -->
<g id="edge1" class="edge">
<title>T3185:f3&#45;&gt;T3184:f0</title>
<path fill="none" stroke="#5b00c0" d="M333,-81C333,-6.21 241.73,-60.51 168,-48 156.07,-45.98 73.94,-44.87 47.31,-36.11"/>
<polygon fill="#5b00c0" stroke="#5b00c0" points="49.13,-33.1 39,-30 44.99,-38.74 49.13,-33.1"/>
<text text-anchor="middle" x="340.5" y="-51.8" font-family="Times,serif" font-size="14.00" fill="#5b00c0">rw</text>
</g>
<!-- T3184&#45;&gt;T3185 -->
<g id="edge2" class="edge">
<title>T3184:f4&#45;&gt;T3185:f0</title>
<path fill="none" stroke="#5b00c0" d="M391,-30C391,-57.41 170.9,-39.04 145,-48 123.87,-55.31 103.19,-55.06 97.52,-71.04"/>
<polygon fill="#5b00c0" stroke="#5b00c0" points="94.05,-70.59 96,-81 100.97,-71.64 94.05,-70.59"/>
<text text-anchor="middle" x="154.5" y="-51.8" font-family="Times,serif" font-size="14.00" fill="#5b00c0">rw</text>
</g>
</g>
</svg>
