<?xml version="1.0" encoding="UTF-8" standalone="no"?>
<!DOCTYPE svg PUBLIC "-//W3C//DTD SVG 1.1//EN"
 "http://www.w3.org/Graphics/SVG/1.1/DTD/svg11.dtd">
<!-- Generated by graphviz version 2.43.0 (0)
 -->
<!-- Title: a_graph Pages: 1 -->
<svg width="601pt" height="119pt"
 viewBox="0.00 0.00 601.00 119.00" xmlns="http://www.w3.org/2000/svg" xmlns:xlink="http://www.w3.org/1999/xlink">
<g id="graph0" class="graph" transform="scale(1 1) rotate(0) translate(4 115)">
<title>a_graph</title>
<polygon fill="white" stroke="transparent" points="-4,4 -4,-115 597,-115 597,4 -4,4"/>
<!-- T1218 -->
<g id="node1" class="node">
<title>T1218</title>
<polygon fill="none" stroke="#0058ad" points="0,-81.5 0,-110.5 346,-110.5 346,-81.5 0,-81.5"/>
<text text-anchor="middle" x="46" y="-92.3" font-family="Times,serif" font-size="14.00" fill="#0058ad">r 516 [2 3]</text>
<polyline fill="none" stroke="#0058ad" points="92,-81.5 92,-110.5 "/>
<text text-anchor="middle" x="138" y="-92.3" font-family="Times,serif" font-size="14.00" fill="#0058ad">r 516 [2 3]</text>
<polyline fill="none" stroke="#0058ad" points="184,-81.5 184,-110.5 "/>
<text text-anchor="middle" x="230" y="-92.3" font-family="Times,serif" font-size="14.00" fill="#0058ad">r 517 [1 2]</text>
<polyline fill="none" stroke="#0058ad" points="276,-81.5 276,-110.5 "/>
<text text-anchor="middle" x="311" y="-92.3" font-family="Times,serif" font-size="14.00" fill="#0058ad">a 518 1</text>
</g>
<!-- T1220 -->
<g id="node2" class="node">
<title>T1220</title>
<polygon fill="none" stroke="#0058ad" points="171,-0.5 171,-29.5 593,-29.5 593,-0.5 171,-0.5"/>
<text text-anchor="middle" x="206" y="-11.3" font-family="Times,serif" font-size="14.00" fill="#0058ad">a 517 3</text>
<polyline fill="none" stroke="#0058ad" points="241,-0.5 241,-29.5 "/>
<text text-anchor="middle" x="294" y="-11.3" font-family="Times,serif" font-size="14.00" fill="#0058ad">r 517 [1 2 3]</text>
<polyline fill="none" stroke="#0058ad" points="347,-0.5 347,-29.5 "/>
<text text-anchor="middle" x="382" y="-11.3" font-family="Times,serif" font-size="14.00" fill="#0058ad">r 518 []</text>
<polyline fill="none" stroke="#0058ad" points="417,-0.5 417,-29.5 "/>
<text text-anchor="middle" x="470" y="-11.3" font-family="Times,serif" font-size="14.00" fill="#0058ad">r 517 [1 2 3]</text>
<polyline fill="none" stroke="#0058ad" points="523,-0.5 523,-29.5 "/>
<text text-anchor="middle" x="558" y="-11.3" font-family="Times,serif" font-size="14.00" fill="#0058ad">r 518 []</text>
</g>
<!-- T1218&#45;&gt;T1220 -->
<g id="edge1" class="edge">
<title>T1218:f2&#45;&gt;T1220:f0</title>
<path fill="none" stroke="#5b00c0" d="M230,-81C230,-59.86 212.91,-55.92 207.57,-40.16"/>
<polygon fill="#5b00c0" stroke="#5b00c0" points="210.99,-39.35 206,-30 204.07,-40.42 210.99,-39.35"/>
<text text-anchor="middle" x="234.5" y="-51.8" font-family="Times,serif" font-size="14.00" fill="#5b00c0">rw</text>
</g>
<!-- T1220&#45;&gt;T1218 -->
<g id="edge2" class="edge">
<title>T1220:f2&#45;&gt;T1218:f3</title>
<path fill="none" stroke="#5b00c0" d="M382,-30C382,-64.91 324.69,-46.9 313.05,-71.05"/>
<polygon fill="#5b00c0" stroke="#5b00c0" points="309.59,-70.5 311,-81 316.45,-71.91 309.59,-70.5"/>
<text text-anchor="middle" x="380.5" y="-51.8" font-family="Times,serif" font-size="14.00" fill="#5b00c0">rw</text>
</g>
</g>
</svg>
