<?xml version="1.0" encoding="UTF-8" standalone="no"?>
<!DOCTYPE svg PUBLIC "-//W3C//DTD SVG 1.1//EN"
 "http://www.w3.org/Graphics/SVG/1.1/DTD/svg11.dtd">
<!-- Generated by graphviz version 2.43.0 (0)
 -->
<!-- Title: a_graph Pages: 1 -->
<svg width="3299pt" height="119pt"
 viewBox="0.00 0.00 3298.50 119.00" xmlns="http://www.w3.org/2000/svg" xmlns:xlink="http://www.w3.org/1999/xlink">
<g id="graph0" class="graph" transform="scale(1 1) rotate(0) translate(4 115)">
<title>a_graph</title>
<polygon fill="white" stroke="transparent" points="-4,4 -4,-115 3294.5,-115 3294.5,4 -4,4"/>
<!-- T3687 -->
<g id="node1" class="node">
<title>T3687</title>
<polygon fill="none" stroke="#0058ad" points="1804.5,-81.5 1804.5,-110.5 3290.5,-110.5 3290.5,-81.5 1804.5,-81.5"/>
<text text-anchor="middle" x="1844" y="-92.3" font-family="Times,serif" font-size="14.00" fill="#0058ad">a 139 32</text>
<polyline fill="none" stroke="#0058ad" points="1883.5,-81.5 1883.5,-110.5 "/>
<text text-anchor="middle" x="2145.5" y="-92.3" font-family="Times,serif" font-size="14.00" fill="#0058ad">r 137 [1 2 3 4 5 6 7 8 9 10 11 12 13 14 15 16 17 18 20 21 22 23 24 25]</text>
<polyline fill="none" stroke="#0058ad" points="2407.5,-81.5 2407.5,-110.5 "/>
<text text-anchor="middle" x="2442.5" y="-92.3" font-family="Times,serif" font-size="14.00" fill="#0058ad">r 141 []</text>
<polyline fill="none" stroke="#0058ad" points="2477.5,-81.5 2477.5,-110.5 "/>
<text text-anchor="middle" x="2512.5" y="-92.3" font-family="Times,serif" font-size="14.00" fill="#0058ad">r 141 []</text>
<polyline fill="none" stroke="#0058ad" points="2547.5,-81.5 2547.5,-110.5 "/>
<text text-anchor="middle" x="2582.5" y="-92.3" font-family="Times,serif" font-size="14.00" fill="#0058ad">a 141 1</text>
<polyline fill="none" stroke="#0058ad" points="2617.5,-81.5 2617.5,-110.5 "/>
<text text-anchor="middle" x="2657" y="-92.3" font-family="Times,serif" font-size="14.00" fill="#0058ad">r 141 [1]</text>
<polyline fill="none" stroke="#0058ad" points="2696.5,-81.5 2696.5,-110.5 "/>
<text text-anchor="middle" x="2958.5" y="-92.3" font-family="Times,serif" font-size="14.00" fill="#0058ad">r 137 [1 2 3 4 5 6 7 8 9 10 11 12 13 14 15 16 17 18 20 21 22 23 24 25]</text>
<polyline fill="none" stroke="#0058ad" points="3220.5,-81.5 3220.5,-110.5 "/>
<text text-anchor="middle" x="3255.5" y="-92.3" font-family="Times,serif" font-size="14.00" fill="#0058ad">a 141 2</text>
</g>
<!-- T3686 -->
<g id="node2" class="node">
<title>T3686</title>
<polygon fill="none" stroke="#0058ad" points="0,-0.5 0,-29.5 2515,-29.5 2515,-0.5 0,-0.5"/>
<text text-anchor="middle" x="262" y="-11.3" font-family="Times,serif" font-size="14.00" fill="#0058ad">r 137 [1 2 3 4 5 6 7 8 9 10 11 12 13 14 15 16 17 18 20 21 22 23 24 25]</text>
<polyline fill="none" stroke="#0058ad" points="524,-0.5 524,-29.5 "/>
<text text-anchor="middle" x="853.5" y="-11.3" font-family="Times,serif" font-size="14.00" fill="#0058ad">r 139 [1 2 3 4 5 6 7 8 9 10 11 12 13 14 15 16 17 18 20 21 22 23 24 25 26 27 28 29 30 31]</text>
<polyline fill="none" stroke="#0058ad" points="1183,-0.5 1183,-29.5 "/>
<text text-anchor="middle" x="1445" y="-11.3" font-family="Times,serif" font-size="14.00" fill="#0058ad">r 137 [1 2 3 4 5 6 7 8 9 10 11 12 13 14 15 16 17 18 20 21 22 23 24 25]</text>
<polyline fill="none" stroke="#0058ad" points="1707,-0.5 1707,-29.5 "/>
<text text-anchor="middle" x="1742" y="-11.3" font-family="Times,serif" font-size="14.00" fill="#0058ad">a 140 2</text>
<polyline fill="none" stroke="#0058ad" points="1777,-0.5 1777,-29.5 "/>
<text text-anchor="middle" x="2106.5" y="-11.3" font-family="Times,serif" font-size="14.00" fill="#0058ad">r 139 [1 2 3 4 5 6 7 8 9 10 11 12 13 14 15 16 17 18 20 21 22 23 24 25 26 27 28 29 30 31]</text>
<polyline fill="none" stroke="#0058ad" points="2436,-0.5 2436,-29.5 "/>
<text text-anchor="middle" x="2475.5" y="-11.3" font-family="Times,serif" font-size="14.00" fill="#0058ad">a 137 26</text>
</g>
<!-- T3687&#45;&gt;T3686 -->
<g id="edge1" class="edge">
<title>T3687:f1&#45;&gt;T3686:f5</title>
<path fill="none" stroke="#5b00c0" d="M2145.5,-81C2145.5,63.78 2459.58,-166.64 2474.92,-40.18"/>
<polygon fill="#5b00c0" stroke="#5b00c0" points="2478.42,-40.18 2475.5,-30 2471.44,-39.78 2478.42,-40.18"/>
<text text-anchor="middle" x="2481" y="-51.8" font-family="Times,serif" font-size="14.00" fill="#5b00c0">rw</text>
</g>
<!-- T3686&#45;&gt;T3687 -->
<g id="edge2" class="edge">
<title>T3686:f1&#45;&gt;T3687:f0</title>
<path fill="none" stroke="#5b00c0" d="M853.5,-30C853.5,-80.79 1680.2,-94.89 1793.2,-95.94"/>
<polygon fill="#5b00c0" stroke="#5b00c0" points="1793.48,-99.44 1803.5,-96 1793.52,-92.44 1793.48,-99.44"/>
<text text-anchor="middle" x="993" y="-51.8" font-family="Times,serif" font-size="14.00" fill="#5b00c0">rw</text>
</g>
</g>
</svg>
