<?xml version="1.0" encoding="UTF-8" standalone="no"?>
<!DOCTYPE svg PUBLIC "-//W3C//DTD SVG 1.1//EN"
 "http://www.w3.org/Graphics/SVG/1.1/DTD/svg11.dtd">
<!-- Generated by graphviz version 2.43.0 (0)
 -->
<!-- Title: a_graph Pages: 1 -->
<svg width="2838pt" height="200pt"
 viewBox="0.00 0.00 2838.00 200.00" xmlns="http://www.w3.org/2000/svg" xmlns:xlink="http://www.w3.org/1999/xlink">
<g id="graph0" class="graph" transform="scale(1 1) rotate(0) translate(4 196)">
<title>a_graph</title>
<polygon fill="white" stroke="transparent" points="-4,4 -4,-196 2834,-196 2834,4 -4,4"/>
<!-- T2852 -->
<g id="node1" class="node">
<title>T2852</title>
<polygon fill="none" stroke="#0058ad" points="0,-162.5 0,-191.5 1667,-191.5 1667,-162.5 0,-162.5"/>
<text text-anchor="middle" x="194.5" y="-173.3" font-family="Times,serif" font-size="14.00" fill="#0058ad">r 106 [1 2 3 4 5 6 7 8 9 10 11 12 14 15 16 17 18 19]</text>
<polyline fill="none" stroke="#0058ad" points="389,-162.5 389,-191.5 "/>
<text text-anchor="middle" x="480" y="-173.3" font-family="Times,serif" font-size="14.00" fill="#0058ad">r 107 [1 2 3 6 7 8 9 10]</text>
<polyline fill="none" stroke="#0058ad" points="571,-162.5 571,-191.5 "/>
<text text-anchor="middle" x="743" y="-173.3" font-family="Times,serif" font-size="14.00" fill="#0058ad">r 104 [1 2 3 4 5 6 7 8 9 10 11 12 13 15 16 17]</text>
<polyline fill="none" stroke="#0058ad" points="915,-162.5 915,-191.5 "/>
<text text-anchor="middle" x="954.5" y="-173.3" font-family="Times,serif" font-size="14.00" fill="#0058ad">a 107 11</text>
<polyline fill="none" stroke="#0058ad" points="994,-162.5 994,-191.5 "/>
<text text-anchor="middle" x="1096.5" y="-173.3" font-family="Times,serif" font-size="14.00" fill="#0058ad">r 107 [1 2 3 6 7 8 9 10 11]</text>
<polyline fill="none" stroke="#0058ad" points="1199,-162.5 1199,-191.5 "/>
<text text-anchor="middle" x="1393.5" y="-173.3" font-family="Times,serif" font-size="14.00" fill="#0058ad">r 106 [1 2 3 4 5 6 7 8 9 10 11 12 14 15 16 17 18 19]</text>
<polyline fill="none" stroke="#0058ad" points="1588,-162.5 1588,-191.5 "/>
<text text-anchor="middle" x="1627.5" y="-173.3" font-family="Times,serif" font-size="14.00" fill="#0058ad">a 107 12</text>
</g>
<!-- T2855 -->
<g id="node2" class="node">
<title>T2855</title>
<polygon fill="none" stroke="#0058ad" points="1531,-81.5 1531,-110.5 2830,-110.5 2830,-81.5 1531,-81.5"/>
<text text-anchor="middle" x="1570.5" y="-92.3" font-family="Times,serif" font-size="14.00" fill="#0058ad">a 107 13</text>
<polyline fill="none" stroke="#0058ad" points="1610,-81.5 1610,-110.5 "/>
<text text-anchor="middle" x="1782" y="-92.3" font-family="Times,serif" font-size="14.00" fill="#0058ad">r 104 [1 2 3 4 5 6 7 8 9 10 11 12 13 15 16 17]</text>
<polyline fill="none" stroke="#0058ad" points="1954,-81.5 1954,-110.5 "/>
<text text-anchor="middle" x="2079" y="-92.3" font-family="Times,serif" font-size="14.00" fill="#0058ad">r 107 [1 2 3 6 7 8 9 10 11 12 13]</text>
<polyline fill="none" stroke="#0058ad" points="2204,-81.5 2204,-110.5 "/>
<text text-anchor="middle" x="2243.5" y="-92.3" font-family="Times,serif" font-size="14.00" fill="#0058ad">a 107 14</text>
<polyline fill="none" stroke="#0058ad" points="2283,-81.5 2283,-110.5 "/>
<text text-anchor="middle" x="2477.5" y="-92.3" font-family="Times,serif" font-size="14.00" fill="#0058ad">r 106 [1 2 3 4 5 6 7 8 9 10 11 12 14 15 16 17 18 19]</text>
<polyline fill="none" stroke="#0058ad" points="2672,-81.5 2672,-110.5 "/>
<text text-anchor="middle" x="2711.5" y="-92.3" font-family="Times,serif" font-size="14.00" fill="#0058ad">a 107 15</text>
<polyline fill="none" stroke="#0058ad" points="2751,-81.5 2751,-110.5 "/>
<text text-anchor="middle" x="2790.5" y="-92.3" font-family="Times,serif" font-size="14.00" fill="#0058ad">a 107 16</text>
</g>
<!-- T2852&#45;&gt;T2855 -->
<g id="edge2" class="edge">
<title>T2852:f6&#45;&gt;T2855:f0</title>
<path fill="none" stroke="#c02700" d="M1627.5,-162C1627.5,-131.99 1583.08,-141.71 1572.66,-121.01"/>
<polygon fill="#c02700" stroke="#c02700" points="1576.03,-120.03 1570.5,-111 1569.19,-121.51 1576.03,-120.03"/>
<text text-anchor="middle" x="1629" y="-132.8" font-family="Times,serif" font-size="14.00" fill="#c02700">ww</text>
</g>
<!-- T2854 -->
<g id="node3" class="node">
<title>T2854</title>
<polygon fill="none" stroke="#0058ad" points="474.5,-0.5 474.5,-29.5 1808.5,-29.5 1808.5,-0.5 474.5,-0.5"/>
<text text-anchor="middle" x="669" y="-11.3" font-family="Times,serif" font-size="14.00" fill="#0058ad">r 106 [1 2 3 4 5 6 7 8 9 10 11 12 14 15 16 17 18 19]</text>
<polyline fill="none" stroke="#0058ad" points="863.5,-0.5 863.5,-29.5 "/>
<text text-anchor="middle" x="954.5" y="-11.3" font-family="Times,serif" font-size="14.00" fill="#0058ad">r 107 [1 2 3 6 7 8 9 10]</text>
<polyline fill="none" stroke="#0058ad" points="1045.5,-0.5 1045.5,-29.5 "/>
<text text-anchor="middle" x="1217.5" y="-11.3" font-family="Times,serif" font-size="14.00" fill="#0058ad">r 104 [1 2 3 4 5 6 7 8 9 10 11 12 13 15 16 17]</text>
<polyline fill="none" stroke="#0058ad" points="1389.5,-0.5 1389.5,-29.5 "/>
<text text-anchor="middle" x="1480.5" y="-11.3" font-family="Times,serif" font-size="14.00" fill="#0058ad">r 107 [1 2 3 6 7 8 9 10]</text>
<polyline fill="none" stroke="#0058ad" points="1571.5,-0.5 1571.5,-29.5 "/>
<text text-anchor="middle" x="1611" y="-11.3" font-family="Times,serif" font-size="14.00" fill="#0058ad">a 104 18</text>
<polyline fill="none" stroke="#0058ad" points="1650.5,-0.5 1650.5,-29.5 "/>
<text text-anchor="middle" x="1690" y="-11.3" font-family="Times,serif" font-size="14.00" fill="#0058ad">a 106 20</text>
<polyline fill="none" stroke="#0058ad" points="1729.5,-0.5 1729.5,-29.5 "/>
<text text-anchor="middle" x="1769" y="-11.3" font-family="Times,serif" font-size="14.00" fill="#0058ad">a 106 21</text>
</g>
<!-- T2852&#45;&gt;T2854 -->
<g id="edge1" class="edge">
<title>T2852:f2&#45;&gt;T2854:f4</title>
<path fill="none" stroke="#5b00c0" d="M742.5,-162C742.5,-60.46 842.76,-75.54 940.5,-48 957.17,-43.3 1521.62,-47.89 1602.01,-33.63"/>
<polygon fill="#5b00c0" stroke="#5b00c0" points="1603.41,-36.84 1611.5,-30 1600.91,-30.3 1603.41,-36.84"/>
<text text-anchor="middle" x="803" y="-92.3" font-family="Times,serif" font-size="14.00" fill="#5b00c0">rw</text>
</g>
<!-- T2855&#45;&gt;T2854 -->
<g id="edge3" class="edge">
<title>T2855:f1&#45;&gt;T2854:f4</title>
<path fill="none" stroke="#5b00c0" d="M1781.5,-81C1781.5,-5.97 1627.7,-98.9 1612.68,-40.27"/>
<polygon fill="#5b00c0" stroke="#5b00c0" points="1616.12,-39.54 1611.5,-30 1609.16,-40.33 1616.12,-39.54"/>
<text text-anchor="middle" x="1786" y="-51.8" font-family="Times,serif" font-size="14.00" fill="#5b00c0">rw</text>
</g>
<!-- T2854&#45;&gt;T2852 -->
<g id="edge4" class="edge">
<title>T2854:f1&#45;&gt;T2852:f3</title>
<path fill="none" stroke="#5b00c0" d="M954.5,-30C954.5,-85.11 954.5,-101.4 954.5,-151.81"/>
<polygon fill="#5b00c0" stroke="#5b00c0" points="951,-152 954.5,-162 958,-152 951,-152"/>
<text text-anchor="middle" x="964" y="-92.3" font-family="Times,serif" font-size="14.00" fill="#5b00c0">rw</text>
</g>
</g>
</svg>
