<?xml version="1.0" encoding="UTF-8" standalone="no"?>
<!DOCTYPE svg PUBLIC "-//W3C//DTD SVG 1.1//EN"
 "http://www.w3.org/Graphics/SVG/1.1/DTD/svg11.dtd">
<!-- Generated by graphviz version 2.43.0 (0)
 -->
<!-- Title: a_graph Pages: 1 -->
<svg width="1248pt" height="119pt"
 viewBox="0.00 0.00 1248.00 119.00" xmlns="http://www.w3.org/2000/svg" xmlns:xlink="http://www.w3.org/1999/xlink">
<g id="graph0" class="graph" transform="scale(1 1) rotate(0) translate(4 115)">
<title>a_graph</title>
<polygon fill="white" stroke="transparent" points="-4,4 -4,-115 1244,-115 1244,4 -4,4"/>
<!-- T3554 -->
<g id="node1" class="node">
<title>T3554</title>
<polygon fill="none" stroke="#0058ad" points="113,-81.5 113,-110.5 811,-110.5 811,-81.5 113,-81.5"/>
<text text-anchor="middle" x="186" y="-92.3" font-family="Times,serif" font-size="14.00" fill="#0058ad">r 135 [1 2 3 4 5 6]</text>
<polyline fill="none" stroke="#0058ad" points="259,-81.5 259,-110.5 "/>
<text text-anchor="middle" x="298.5" y="-92.3" font-family="Times,serif" font-size="14.00" fill="#0058ad">a 134 29</text>
<polyline fill="none" stroke="#0058ad" points="338,-81.5 338,-110.5 "/>
<text text-anchor="middle" x="373" y="-92.3" font-family="Times,serif" font-size="14.00" fill="#0058ad">a 135 8</text>
<polyline fill="none" stroke="#0058ad" points="408,-81.5 408,-110.5 "/>
<text text-anchor="middle" x="447.5" y="-92.3" font-family="Times,serif" font-size="14.00" fill="#0058ad">a 134 30</text>
<polyline fill="none" stroke="#0058ad" points="487,-81.5 487,-110.5 "/>
<text text-anchor="middle" x="522" y="-92.3" font-family="Times,serif" font-size="14.00" fill="#0058ad">a 135 9</text>
<polyline fill="none" stroke="#0058ad" points="557,-81.5 557,-110.5 "/>
<text text-anchor="middle" x="684" y="-92.3" font-family="Times,serif" font-size="14.00" fill="#0058ad">r 133 [1 2 3 4 5 6 7 8 9 10 11 12]</text>
</g>
<!-- T3555 -->
<g id="node2" class="node">
<title>T3555</title>
<polygon fill="none" stroke="#0058ad" points="0,-0.5 0,-29.5 1240,-29.5 1240,-0.5 0,-0.5"/>
<text text-anchor="middle" x="39.5" y="-11.3" font-family="Times,serif" font-size="14.00" fill="#0058ad">a 133 14</text>
<polyline fill="none" stroke="#0058ad" points="79,-0.5 79,-29.5 "/>
<text text-anchor="middle" x="152" y="-11.3" font-family="Times,serif" font-size="14.00" fill="#0058ad">r 135 [1 2 3 4 5 6]</text>
<polyline fill="none" stroke="#0058ad" points="225,-0.5 225,-29.5 "/>
<text text-anchor="middle" x="298" y="-11.3" font-family="Times,serif" font-size="14.00" fill="#0058ad">r 135 [1 2 3 4 5 6]</text>
<polyline fill="none" stroke="#0058ad" points="371,-0.5 371,-29.5 "/>
<text text-anchor="middle" x="509.5" y="-11.3" font-family="Times,serif" font-size="14.00" fill="#0058ad">r 133 [1 2 3 4 5 6 7 8 9 10 11 12 14]</text>
<polyline fill="none" stroke="#0058ad" points="648,-0.5 648,-29.5 "/>
<text text-anchor="middle" x="944" y="-11.3" font-family="Times,serif" font-size="14.00" fill="#0058ad">r 134 [1 2 3 4 5 6 7 8 9 10 11 12 13 14 15 16 17 18 19 20 21 22 23 24 25 26 27]</text>
</g>
<!-- T3554&#45;&gt;T3555 -->
<g id="edge1" class="edge">
<title>T3554:f5&#45;&gt;T3555:f0</title>
<path fill="none" stroke="#5b00c0" d="M684,-81C684,42.98 530.55,-58.37 407,-48 388.52,-46.45 101.3,-49.74 47.61,-35.13"/>
<polygon fill="#5b00c0" stroke="#5b00c0" points="49.38,-32.11 39,-30 45.8,-38.13 49.38,-32.11"/>
<text text-anchor="middle" x="692.5" y="-51.8" font-family="Times,serif" font-size="14.00" fill="#5b00c0">rw</text>
</g>
<!-- T3555&#45;&gt;T3554 -->
<g id="edge2" class="edge">
<title>T3555:f4&#45;&gt;T3554:f1</title>
<path fill="none" stroke="#5b00c0" d="M944,-30C944,-45.56 399.26,-44.92 384,-48 347.63,-55.34 306.55,-42.86 299.17,-70.92"/>
<polygon fill="#5b00c0" stroke="#5b00c0" points="295.67,-70.66 298,-81 302.63,-71.47 295.67,-70.66"/>
<text text-anchor="middle" x="393.5" y="-51.8" font-family="Times,serif" font-size="14.00" fill="#5b00c0">rw</text>
</g>
</g>
</svg>
