<?xml version="1.0" encoding="UTF-8" standalone="no"?>
<!DOCTYPE svg PUBLIC "-//W3C//DTD SVG 1.1//EN"
 "http://www.w3.org/Graphics/SVG/1.1/DTD/svg11.dtd">
<!-- Generated by graphviz version 2.43.0 (0)
 -->
<!-- Title: a_graph Pages: 1 -->
<svg width="2039pt" height="119pt"
 viewBox="0.00 0.00 2039.00 119.00" xmlns="http://www.w3.org/2000/svg" xmlns:xlink="http://www.w3.org/1999/xlink">
<g id="graph0" class="graph" transform="scale(1 1) rotate(0) translate(4 115)">
<title>a_graph</title>
<polygon fill="white" stroke="transparent" points="-4,4 -4,-115 2035,-115 2035,4 -4,4"/>
<!-- T2656 -->
<g id="node1" class="node">
<title>T2656</title>
<polygon fill="none" stroke="#0058ad" points="0,-81.5 0,-110.5 2031,-110.5 2031,-81.5 0,-81.5"/>
<text text-anchor="middle" x="291.5" y="-92.3" font-family="Times,serif" font-size="14.00" fill="#0058ad">r 97 [1 2 3 4 5 6 7 8 9 10 11 12 13 14 15 16 17 18 19 20 21 22 23 24 25 26 27]</text>
<polyline fill="none" stroke="#0058ad" points="583,-81.5 583,-110.5 "/>
<text text-anchor="middle" x="874.5" y="-92.3" font-family="Times,serif" font-size="14.00" fill="#0058ad">r 97 [1 2 3 4 5 6 7 8 9 10 11 12 13 14 15 16 17 18 19 20 21 22 23 24 25 26 27]</text>
<polyline fill="none" stroke="#0058ad" points="1166,-81.5 1166,-110.5 "/>
<text text-anchor="middle" x="1241.5" y="-92.3" font-family="Times,serif" font-size="14.00" fill="#0058ad">r 99 [1 2 3 4 5 6 7]</text>
<polyline fill="none" stroke="#0058ad" points="1317,-81.5 1317,-110.5 "/>
<text text-anchor="middle" x="1352" y="-92.3" font-family="Times,serif" font-size="14.00" fill="#0058ad">a 100 2</text>
<polyline fill="none" stroke="#0058ad" points="1387,-81.5 1387,-110.5 "/>
<text text-anchor="middle" x="1417.5" y="-92.3" font-family="Times,serif" font-size="14.00" fill="#0058ad">a 99 8</text>
<polyline fill="none" stroke="#0058ad" points="1448,-81.5 1448,-110.5 "/>
<text text-anchor="middle" x="1739.5" y="-92.3" font-family="Times,serif" font-size="14.00" fill="#0058ad">r 97 [1 2 3 4 5 6 7 8 9 10 11 12 13 14 15 16 17 18 19 20 21 22 23 24 25 26 27]</text>
</g>
<!-- T2657 -->
<g id="node2" class="node">
<title>T2657</title>
<polygon fill="none" stroke="#0058ad" points="60,-0.5 60,-29.5 2023,-29.5 2023,-0.5 60,-0.5"/>
<text text-anchor="middle" x="95" y="-11.3" font-family="Times,serif" font-size="14.00" fill="#0058ad">a 97 28</text>
<polyline fill="none" stroke="#0058ad" points="130,-0.5 130,-29.5 "/>
<text text-anchor="middle" x="432.5" y="-11.3" font-family="Times,serif" font-size="14.00" fill="#0058ad">r 97 [1 2 3 4 5 6 7 8 9 10 11 12 13 14 15 16 17 18 19 20 21 22 23 24 25 26 27 28]</text>
<polyline fill="none" stroke="#0058ad" points="735,-0.5 735,-29.5 "/>
<text text-anchor="middle" x="810.5" y="-11.3" font-family="Times,serif" font-size="14.00" fill="#0058ad">r 99 [1 2 3 4 5 6 7]</text>
<polyline fill="none" stroke="#0058ad" points="886,-0.5 886,-29.5 "/>
<text text-anchor="middle" x="961.5" y="-11.3" font-family="Times,serif" font-size="14.00" fill="#0058ad">r 99 [1 2 3 4 5 6 7]</text>
<polyline fill="none" stroke="#0058ad" points="1037,-0.5 1037,-29.5 "/>
<text text-anchor="middle" x="1339.5" y="-11.3" font-family="Times,serif" font-size="14.00" fill="#0058ad">r 97 [1 2 3 4 5 6 7 8 9 10 11 12 13 14 15 16 17 18 19 20 21 22 23 24 25 26 27 28]</text>
<polyline fill="none" stroke="#0058ad" points="1642,-0.5 1642,-29.5 "/>
<text text-anchor="middle" x="1681.5" y="-11.3" font-family="Times,serif" font-size="14.00" fill="#0058ad">r 100 [1]</text>
<polyline fill="none" stroke="#0058ad" points="1721,-0.5 1721,-29.5 "/>
<text text-anchor="middle" x="1796.5" y="-11.3" font-family="Times,serif" font-size="14.00" fill="#0058ad">r 99 [1 2 3 4 5 6 7]</text>
<polyline fill="none" stroke="#0058ad" points="1872,-0.5 1872,-29.5 "/>
<text text-anchor="middle" x="1947.5" y="-11.3" font-family="Times,serif" font-size="14.00" fill="#0058ad">r 99 [1 2 3 4 5 6 7]</text>
</g>
<!-- T2656&#45;&gt;T2657 -->
<g id="edge1" class="edge">
<title>T2656:f0&#45;&gt;T2657:f0</title>
<path fill="none" stroke="#5b00c0" d="M291.5,-81C291.5,5.73 110.33,-110.16 95.47,-40.05"/>
<polygon fill="#5b00c0" stroke="#5b00c0" points="98.94,-39.62 94.5,-30 91.97,-40.29 98.94,-39.62"/>
<text text-anchor="middle" x="296" y="-51.8" font-family="Times,serif" font-size="14.00" fill="#5b00c0">rw</text>
</g>
<!-- T2657&#45;&gt;T2656 -->
<g id="edge2" class="edge">
<title>T2657:f5&#45;&gt;T2656:f3</title>
<path fill="none" stroke="#5b00c0" d="M1681.5,-30C1681.5,-174.36 1368.37,55.24 1353.08,-70.85"/>
<polygon fill="#5b00c0" stroke="#5b00c0" points="1349.58,-70.82 1352.5,-81 1356.56,-71.22 1349.58,-70.82"/>
<text text-anchor="middle" x="1687" y="-51.8" font-family="Times,serif" font-size="14.00" fill="#5b00c0">rw</text>
</g>
</g>
</svg>
