<?xml version="1.0" encoding="UTF-8" standalone="no"?>
<!DOCTYPE svg PUBLIC "-//W3C//DTD SVG 1.1//EN"
 "http://www.w3.org/Graphics/SVG/1.1/DTD/svg11.dtd">
<!-- Generated by graphviz version 2.43.0 (0)
 -->
<!-- Title: a_graph Pages: 1 -->
<svg width="2497pt" height="119pt"
 viewBox="0.00 0.00 2497.00 119.00" xmlns="http://www.w3.org/2000/svg" xmlns:xlink="http://www.w3.org/1999/xlink">
<g id="graph0" class="graph" transform="scale(1 1) rotate(0) translate(4 115)">
<title>a_graph</title>
<polygon fill="white" stroke="transparent" points="-4,4 -4,-115 2493,-115 2493,4 -4,4"/>
<!-- T1791 -->
<g id="node1" class="node">
<title>T1791</title>
<polygon fill="none" stroke="#0058ad" points="0,-81.5 0,-110.5 2489,-110.5 2489,-81.5 0,-81.5"/>
<text text-anchor="middle" x="145" y="-92.3" font-family="Times,serif" font-size="14.00" fill="#0058ad">r 70 [1 2 3 4 5 6 7 8 9 10 11 12 13 14]</text>
<polyline fill="none" stroke="#0058ad" points="290,-81.5 290,-110.5 "/>
<text text-anchor="middle" x="480" y="-92.3" font-family="Times,serif" font-size="14.00" fill="#0058ad">r 69 [1 2 3 4 5 6 7 8 9 10 11 12 13 14 15 16 17 18]</text>
<polyline fill="none" stroke="#0058ad" points="670,-81.5 670,-110.5 "/>
<text text-anchor="middle" x="860" y="-92.3" font-family="Times,serif" font-size="14.00" fill="#0058ad">r 69 [1 2 3 4 5 6 7 8 9 10 11 12 13 14 15 16 17 18]</text>
<polyline fill="none" stroke="#0058ad" points="1050,-81.5 1050,-110.5 "/>
<text text-anchor="middle" x="1296.5" y="-92.3" font-family="Times,serif" font-size="14.00" fill="#0058ad">r 71 [1 2 3 4 5 6 7 8 9 10 11 12 13 14 15 16 17 18 19 20 21 22 23]</text>
<polyline fill="none" stroke="#0058ad" points="1543,-81.5 1543,-110.5 "/>
<text text-anchor="middle" x="1578" y="-92.3" font-family="Times,serif" font-size="14.00" fill="#0058ad">a 69 19</text>
<polyline fill="none" stroke="#0058ad" points="1613,-81.5 1613,-110.5 "/>
<text text-anchor="middle" x="1814.5" y="-92.3" font-family="Times,serif" font-size="14.00" fill="#0058ad">r 69 [1 2 3 4 5 6 7 8 9 10 11 12 13 14 15 16 17 18 19]</text>
<polyline fill="none" stroke="#0058ad" points="2016,-81.5 2016,-110.5 "/>
<text text-anchor="middle" x="2217.5" y="-92.3" font-family="Times,serif" font-size="14.00" fill="#0058ad">r 69 [1 2 3 4 5 6 7 8 9 10 11 12 13 14 15 16 17 18 19]</text>
<polyline fill="none" stroke="#0058ad" points="2419,-81.5 2419,-110.5 "/>
<text text-anchor="middle" x="2454" y="-92.3" font-family="Times,serif" font-size="14.00" fill="#0058ad">a 71 24</text>
</g>
<!-- T1790 -->
<g id="node2" class="node">
<title>T1790</title>
<polygon fill="none" stroke="#0058ad" points="622,-0.5 622,-29.5 1835,-29.5 1835,-0.5 622,-0.5"/>
<text text-anchor="middle" x="868.5" y="-11.3" font-family="Times,serif" font-size="14.00" fill="#0058ad">r 71 [1 2 3 4 5 6 7 8 9 10 11 12 13 14 15 16 17 18 19 20 21 22 23]</text>
<polyline fill="none" stroke="#0058ad" points="1115,-0.5 1115,-29.5 "/>
<text text-anchor="middle" x="1260" y="-11.3" font-family="Times,serif" font-size="14.00" fill="#0058ad">r 70 [1 2 3 4 5 6 7 8 9 10 11 12 13 14]</text>
<polyline fill="none" stroke="#0058ad" points="1405,-0.5 1405,-29.5 "/>
<text text-anchor="middle" x="1550" y="-11.3" font-family="Times,serif" font-size="14.00" fill="#0058ad">r 70 [1 2 3 4 5 6 7 8 9 10 11 12 13 14]</text>
<polyline fill="none" stroke="#0058ad" points="1695,-0.5 1695,-29.5 "/>
<text text-anchor="middle" x="1730" y="-11.3" font-family="Times,serif" font-size="14.00" fill="#0058ad">a 70 15</text>
<polyline fill="none" stroke="#0058ad" points="1765,-0.5 1765,-29.5 "/>
<text text-anchor="middle" x="1800" y="-11.3" font-family="Times,serif" font-size="14.00" fill="#0058ad">a 70 16</text>
</g>
<!-- T1791&#45;&gt;T1790 -->
<g id="edge1" class="edge">
<title>T1791:f0&#45;&gt;T1790:f3</title>
<path fill="none" stroke="#5b00c0" d="M144.5,-81C144.5,91.7 1666.12,-194.14 1728.53,-40.25"/>
<polygon fill="#5b00c0" stroke="#5b00c0" points="1732.05,-40.48 1730.5,-30 1725.17,-39.16 1732.05,-40.48"/>
<text text-anchor="middle" x="1732" y="-51.8" font-family="Times,serif" font-size="14.00" fill="#5b00c0">rw</text>
</g>
<!-- T1790&#45;&gt;T1791 -->
<g id="edge2" class="edge">
<title>T1790:f0&#45;&gt;T1791:f7</title>
<path fill="none" stroke="#5b00c0" d="M868.5,-30C868.5,-42.18 1733.32,-47.59 1745.5,-48 1899.6,-53.17 2429.93,70.95 2453.68,-70.8"/>
<polygon fill="#5b00c0" stroke="#5b00c0" points="2450.21,-71.31 2454.5,-81 2457.18,-70.75 2450.21,-71.31"/>
<text text-anchor="middle" x="2458" y="-51.8" font-family="Times,serif" font-size="14.00" fill="#5b00c0">rw</text>
</g>
</g>
</svg>
