<?xml version="1.0" encoding="UTF-8" standalone="no"?>
<!DOCTYPE svg PUBLIC "-//W3C//DTD SVG 1.1//EN"
 "http://www.w3.org/Graphics/SVG/1.1/DTD/svg11.dtd">
<!-- Generated by graphviz version 2.43.0 (0)
 -->
<!-- Title: a_graph Pages: 1 -->
<svg width="1603pt" height="119pt"
 viewBox="0.00 0.00 1603.00 119.00" xmlns="http://www.w3.org/2000/svg" xmlns:xlink="http://www.w3.org/1999/xlink">
<g id="graph0" class="graph" transform="scale(1 1) rotate(0) translate(4 115)">
<title>a_graph</title>
<polygon fill="white" stroke="transparent" points="-4,4 -4,-115 1599,-115 1599,4 -4,4"/>
<!-- T624 -->
<g id="node1" class="node">
<title>T624</title>
<polygon fill="none" stroke="#0058ad" points="453,-81.5 453,-110.5 1554,-110.5 1554,-81.5 453,-81.5"/>
<text text-anchor="middle" x="699.5" y="-92.3" font-family="Times,serif" font-size="14.00" fill="#0058ad">r 21 [1 2 3 4 5 6 7 8 9 10 11 12 13 14 15 16 17 18 19 20 21 22 23]</text>
<polyline fill="none" stroke="#0058ad" points="946,-81.5 946,-110.5 "/>
<text text-anchor="middle" x="981" y="-92.3" font-family="Times,serif" font-size="14.00" fill="#0058ad">a 24 25</text>
<polyline fill="none" stroke="#0058ad" points="1016,-81.5 1016,-110.5 "/>
<text text-anchor="middle" x="1285" y="-92.3" font-family="Times,serif" font-size="14.00" fill="#0058ad">r 24 [1 2 3 4 5 6 7 8 9 10 11 12 13 14 15 16 17 18 19 20 21 22 23 24 25]</text>
</g>
<!-- T625 -->
<g id="node2" class="node">
<title>T625</title>
<polygon fill="none" stroke="#0058ad" points="0,-0.5 0,-29.5 1595,-29.5 1595,-0.5 0,-0.5"/>
<text text-anchor="middle" x="35" y="-11.3" font-family="Times,serif" font-size="14.00" fill="#0058ad">a 23 22</text>
<polyline fill="none" stroke="#0058ad" points="70,-0.5 70,-29.5 "/>
<text text-anchor="middle" x="105" y="-11.3" font-family="Times,serif" font-size="14.00" fill="#0058ad">a 21 24</text>
<polyline fill="none" stroke="#0058ad" points="140,-0.5 140,-29.5 "/>
<text text-anchor="middle" x="375" y="-11.3" font-family="Times,serif" font-size="14.00" fill="#0058ad">r 23 [1 2 3 4 5 6 7 8 9 10 11 12 13 14 15 16 17 18 19 20 21 22]</text>
<polyline fill="none" stroke="#0058ad" points="610,-0.5 610,-29.5 "/>
<text text-anchor="middle" x="845" y="-11.3" font-family="Times,serif" font-size="14.00" fill="#0058ad">r 23 [1 2 3 4 5 6 7 8 9 10 11 12 13 14 15 16 17 18 19 20 21 22]</text>
<polyline fill="none" stroke="#0058ad" points="1080,-0.5 1080,-29.5 "/>
<text text-anchor="middle" x="1337.5" y="-11.3" font-family="Times,serif" font-size="14.00" fill="#0058ad">r 24 [1 2 3 4 5 6 7 8 9 10 11 12 13 14 15 16 17 18 19 20 21 22 23 24]</text>
</g>
<!-- T624&#45;&gt;T625 -->
<g id="edge1" class="edge">
<title>T624:f0&#45;&gt;T625:f1</title>
<path fill="none" stroke="#5b00c0" d="M451.5,-96C415.32,-96 150.95,-73.26 109.86,-38.96"/>
<polygon fill="#5b00c0" stroke="#5b00c0" points="112.64,-36.79 104.5,-30 106.63,-40.38 112.64,-36.79"/>
<text text-anchor="middle" x="182" y="-51.8" font-family="Times,serif" font-size="14.00" fill="#5b00c0">rw</text>
</g>
<!-- T625&#45;&gt;T624 -->
<g id="edge2" class="edge">
<title>T625:f4&#45;&gt;T624:f1</title>
<path fill="none" stroke="#5b00c0" d="M1337.5,-30C1337.5,-186.68 996.36,67.39 981.03,-70.84"/>
<polygon fill="#5b00c0" stroke="#5b00c0" points="977.53,-70.83 980.5,-81 984.52,-71.2 977.53,-70.83"/>
<text text-anchor="middle" x="1343" y="-51.8" font-family="Times,serif" font-size="14.00" fill="#5b00c0">rw</text>
</g>
</g>
</svg>
