<?xml version="1.0" encoding="UTF-8" standalone="no"?>
<!DOCTYPE svg PUBLIC "-//W3C//DTD SVG 1.1//EN"
 "http://www.w3.org/Graphics/SVG/1.1/DTD/svg11.dtd">
<!-- Generated by graphviz version 2.43.0 (0)
 -->
<!-- Title: a_graph Pages: 1 -->
<svg width="1251pt" height="119pt"
 viewBox="0.00 0.00 1250.50 119.00" xmlns="http://www.w3.org/2000/svg" xmlns:xlink="http://www.w3.org/1999/xlink">
<g id="graph0" class="graph" transform="scale(1 1) rotate(0) translate(4 115)">
<title>a_graph</title>
<polygon fill="white" stroke="transparent" points="-4,4 -4,-115 1246.5,-115 1246.5,4 -4,4"/>
<!-- T195 -->
<g id="node1" class="node">
<title>T195</title>
<polygon fill="none" stroke="#0058ad" points="292.5,-81.5 292.5,-110.5 1242.5,-110.5 1242.5,-81.5 292.5,-81.5"/>
<text text-anchor="middle" x="323" y="-92.3" font-family="Times,serif" font-size="14.00" fill="#0058ad">a 5 32</text>
<polyline fill="none" stroke="#0058ad" points="353.5,-81.5 353.5,-110.5 "/>
<text text-anchor="middle" x="528" y="-92.3" font-family="Times,serif" font-size="14.00" fill="#0058ad">r 8 [1 2 3 4 5 6 7 8 9 10 11 12 13 14 15 16 17]</text>
<polyline fill="none" stroke="#0058ad" points="702.5,-81.5 702.5,-110.5 "/>
<text text-anchor="middle" x="798" y="-92.3" font-family="Times,serif" font-size="14.00" fill="#0058ad">r 7 [1 2 3 4 5 6 7 8 9 10]</text>
<polyline fill="none" stroke="#0058ad" points="893.5,-81.5 893.5,-110.5 "/>
<text text-anchor="middle" x="1068" y="-92.3" font-family="Times,serif" font-size="14.00" fill="#0058ad">r 8 [1 2 3 4 5 6 7 8 9 10 11 12 13 14 15 16 17]</text>
</g>
<!-- T194 -->
<g id="node2" class="node">
<title>T194</title>
<polygon fill="none" stroke="#0058ad" points="0,-0.5 0,-29.5 1143,-29.5 1143,-0.5 0,-0.5"/>
<text text-anchor="middle" x="30.5" y="-11.3" font-family="Times,serif" font-size="14.00" fill="#0058ad">a 8 18</text>
<polyline fill="none" stroke="#0058ad" points="61,-0.5 61,-29.5 "/>
<text text-anchor="middle" x="246.5" y="-11.3" font-family="Times,serif" font-size="14.00" fill="#0058ad">r 8 [1 2 3 4 5 6 7 8 9 10 11 12 13 14 15 16 17 18]</text>
<polyline fill="none" stroke="#0058ad" points="432,-0.5 432,-29.5 "/>
<text text-anchor="middle" x="462.5" y="-11.3" font-family="Times,serif" font-size="14.00" fill="#0058ad">a 8 19</text>
<polyline fill="none" stroke="#0058ad" points="493,-0.5 493,-29.5 "/>
<text text-anchor="middle" x="818" y="-11.3" font-family="Times,serif" font-size="14.00" fill="#0058ad">r 5 [1 2 3 4 5 6 8 9 10 11 12 13 14 15 16 17 18 19 20 21 22 23 24 25 26 27 28 29 30 31]</text>
</g>
<!-- T195&#45;&gt;T194 -->
<g id="edge1" class="edge">
<title>T195:f1&#45;&gt;T194:f0</title>
<path fill="none" stroke="#5b00c0" d="M527.5,-81C527.5,-16.64 450.23,-56.99 386.5,-48 368.77,-45.5 91.99,-49 39.17,-35.04"/>
<polygon fill="#5b00c0" stroke="#5b00c0" points="40.9,-32 30.5,-30 37.38,-38.05 40.9,-32"/>
<text text-anchor="middle" x="533" y="-51.8" font-family="Times,serif" font-size="14.00" fill="#5b00c0">rw</text>
</g>
<!-- T194&#45;&gt;T195 -->
<g id="edge2" class="edge">
<title>T194:f3&#45;&gt;T195:f0</title>
<path fill="none" stroke="#5b00c0" d="M818.5,-30C818.5,-55.3 387.19,-39.12 363.5,-48 345.36,-54.8 329.15,-56.93 324.11,-70.74"/>
<polygon fill="#5b00c0" stroke="#5b00c0" points="320.59,-70.58 322.5,-81 327.51,-71.66 320.59,-70.58"/>
<text text-anchor="middle" x="373" y="-51.8" font-family="Times,serif" font-size="14.00" fill="#5b00c0">rw</text>
</g>
</g>
</svg>
