<?xml version="1.0" encoding="UTF-8" standalone="no"?>
<!DOCTYPE svg PUBLIC "-//W3C//DTD SVG 1.1//EN"
 "http://www.w3.org/Graphics/SVG/1.1/DTD/svg11.dtd">
<!-- Generated by graphviz version 2.43.0 (0)
 -->
<!-- Title: a_graph Pages: 1 -->
<svg width="1096pt" height="119pt"
 viewBox="0.00 0.00 1096.00 119.00" xmlns="http://www.w3.org/2000/svg" xmlns:xlink="http://www.w3.org/1999/xlink">
<g id="graph0" class="graph" transform="scale(1 1) rotate(0) translate(4 115)">
<title>a_graph</title>
<polygon fill="white" stroke="transparent" points="-4,4 -4,-115 1092,-115 1092,4 -4,4"/>
<!-- T1089 -->
<g id="node1" class="node">
<title>T1089</title>
<polygon fill="none" stroke="#0058ad" points="0,-81.5 0,-110.5 1088,-110.5 1088,-81.5 0,-81.5"/>
<text text-anchor="middle" x="30.5" y="-92.3" font-family="Times,serif" font-size="14.00" fill="#0058ad">a 44 8</text>
<polyline fill="none" stroke="#0058ad" points="61,-81.5 61,-110.5 "/>
<text text-anchor="middle" x="91.5" y="-92.3" font-family="Times,serif" font-size="14.00" fill="#0058ad">a 44 9</text>
<polyline fill="none" stroke="#0058ad" points="122,-81.5 122,-110.5 "/>
<text text-anchor="middle" x="157" y="-92.3" font-family="Times,serif" font-size="14.00" fill="#0058ad">a 44 10</text>
<polyline fill="none" stroke="#0058ad" points="192,-81.5 192,-110.5 "/>
<text text-anchor="middle" x="227" y="-92.3" font-family="Times,serif" font-size="14.00" fill="#0058ad">a 44 11</text>
<polyline fill="none" stroke="#0058ad" points="262,-81.5 262,-110.5 "/>
<text text-anchor="middle" x="564.5" y="-92.3" font-family="Times,serif" font-size="14.00" fill="#0058ad">r 38 [1 2 3 4 5 6 7 8 9 10 11 12 13 14 15 16 17 18 19 20 21 22 23 24 25 26 27 28]</text>
<polyline fill="none" stroke="#0058ad" points="867,-81.5 867,-110.5 "/>
<text text-anchor="middle" x="942.5" y="-92.3" font-family="Times,serif" font-size="14.00" fill="#0058ad">r 43 [1 2 3 4 5 6 7]</text>
<polyline fill="none" stroke="#0058ad" points="1018,-81.5 1018,-110.5 "/>
<text text-anchor="middle" x="1053" y="-92.3" font-family="Times,serif" font-size="14.00" fill="#0058ad">a 44 12</text>
</g>
<!-- T1088 -->
<g id="node2" class="node">
<title>T1088</title>
<polygon fill="none" stroke="#0058ad" points="458.5,-0.5 458.5,-29.5 821.5,-29.5 821.5,-0.5 458.5,-0.5"/>
<text text-anchor="middle" x="534" y="-11.3" font-family="Times,serif" font-size="14.00" fill="#0058ad">r 44 [1 2 3 4 5 6 7]</text>
<polyline fill="none" stroke="#0058ad" points="609.5,-0.5 609.5,-29.5 "/>
<text text-anchor="middle" x="640" y="-11.3" font-family="Times,serif" font-size="14.00" fill="#0058ad">a 43 8</text>
<polyline fill="none" stroke="#0058ad" points="670.5,-0.5 670.5,-29.5 "/>
<text text-anchor="middle" x="746" y="-11.3" font-family="Times,serif" font-size="14.00" fill="#0058ad">r 44 [1 2 3 4 5 6 7]</text>
</g>
<!-- T1089&#45;&gt;T1088 -->
<g id="edge1" class="edge">
<title>T1089:f5&#45;&gt;T1088:f1</title>
<path fill="none" stroke="#5b00c0" d="M943,-81C943,51.96 655.77,-155.1 640.62,-40.07"/>
<polygon fill="#5b00c0" stroke="#5b00c0" points="644.11,-39.77 640,-30 637.12,-40.2 644.11,-39.77"/>
<text text-anchor="middle" x="948.5" y="-51.8" font-family="Times,serif" font-size="14.00" fill="#5b00c0">rw</text>
</g>
<!-- T1088&#45;&gt;T1089 -->
<g id="edge2" class="edge">
<title>T1088:f0&#45;&gt;T1089:f0</title>
<path fill="none" stroke="#5b00c0" d="M457,-15C412.18,-15 78.88,-30.68 34.81,-71.83"/>
<polygon fill="#5b00c0" stroke="#5b00c0" points="31.54,-70.52 30,-81 37.74,-73.77 31.54,-70.52"/>
<text text-anchor="middle" x="103.5" y="-51.8" font-family="Times,serif" font-size="14.00" fill="#5b00c0">rw</text>
</g>
</g>
</svg>
