<?xml version="1.0" encoding="UTF-8" standalone="no"?>
<!DOCTYPE svg PUBLIC "-//W3C//DTD SVG 1.1//EN"
 "http://www.w3.org/Graphics/SVG/1.1/DTD/svg11.dtd">
<!-- Generated by graphviz version 2.43.0 (0)
 -->
<!-- Title: a_graph Pages: 1 -->
<svg width="2684pt" height="119pt"
 viewBox="0.00 0.00 2684.00 119.00" xmlns="http://www.w3.org/2000/svg" xmlns:xlink="http://www.w3.org/1999/xlink">
<g id="graph0" class="graph" transform="scale(1 1) rotate(0) translate(4 115)">
<title>a_graph</title>
<polygon fill="white" stroke="transparent" points="-4,4 -4,-115 2680,-115 2680,4 -4,4"/>
<!-- T876 -->
<g id="node1" class="node">
<title>T876</title>
<polygon fill="none" stroke="#0058ad" points="0,-81.5 0,-110.5 905,-110.5 905,-81.5 0,-81.5"/>
<text text-anchor="middle" x="325" y="-92.3" font-family="Times,serif" font-size="14.00" fill="#0058ad">r 40 [1 2 3 4 5 6 7 8 9 10 11 12 13 14 15 16 17 18 19 20 21 22 23 24 25 26 27 28 29 30]</text>
<polyline fill="none" stroke="#0058ad" points="650,-81.5 650,-110.5 "/>
<text text-anchor="middle" x="680.5" y="-92.3" font-family="Times,serif" font-size="14.00" fill="#0058ad">a 42 9</text>
<polyline fill="none" stroke="#0058ad" points="711,-81.5 711,-110.5 "/>
<text text-anchor="middle" x="773" y="-92.3" font-family="Times,serif" font-size="14.00" fill="#0058ad">r 41 [1 2 3 4 5]</text>
<polyline fill="none" stroke="#0058ad" points="835,-81.5 835,-110.5 "/>
<text text-anchor="middle" x="870" y="-92.3" font-family="Times,serif" font-size="14.00" fill="#0058ad">a 42 10</text>
</g>
<!-- T877 -->
<g id="node2" class="node">
<title>T877</title>
<polygon fill="none" stroke="#0058ad" points="431,-0.5 431,-29.5 2676,-29.5 2676,-0.5 431,-0.5"/>
<text text-anchor="middle" x="513" y="-11.3" font-family="Times,serif" font-size="14.00" fill="#0058ad">r 42 [1 2 3 4 5 6 7 8]</text>
<polyline fill="none" stroke="#0058ad" points="595,-0.5 595,-29.5 "/>
<text text-anchor="middle" x="920" y="-11.3" font-family="Times,serif" font-size="14.00" fill="#0058ad">r 40 [1 2 3 4 5 6 7 8 9 10 11 12 13 14 15 16 17 18 19 20 21 22 23 24 25 26 27 28 29 30]</text>
<polyline fill="none" stroke="#0058ad" points="1245,-0.5 1245,-29.5 "/>
<text text-anchor="middle" x="1275.5" y="-11.3" font-family="Times,serif" font-size="14.00" fill="#0058ad">a 41 6</text>
<polyline fill="none" stroke="#0058ad" points="1306,-0.5 1306,-29.5 "/>
<text text-anchor="middle" x="1631" y="-11.3" font-family="Times,serif" font-size="14.00" fill="#0058ad">r 40 [1 2 3 4 5 6 7 8 9 10 11 12 13 14 15 16 17 18 19 20 21 22 23 24 25 26 27 28 29 30]</text>
<polyline fill="none" stroke="#0058ad" points="1956,-0.5 1956,-29.5 "/>
<text text-anchor="middle" x="2281" y="-11.3" font-family="Times,serif" font-size="14.00" fill="#0058ad">r 40 [1 2 3 4 5 6 7 8 9 10 11 12 13 14 15 16 17 18 19 20 21 22 23 24 25 26 27 28 29 30]</text>
<polyline fill="none" stroke="#0058ad" points="2606,-0.5 2606,-29.5 "/>
<text text-anchor="middle" x="2641" y="-11.3" font-family="Times,serif" font-size="14.00" fill="#0058ad">a 40 31</text>
</g>
<!-- T876&#45;&gt;T877 -->
<g id="edge1" class="edge">
<title>T876:f2&#45;&gt;T877:f2</title>
<path fill="none" stroke="#5b00c0" d="M773.5,-81C773.5,139.76 1259.94,-241.99 1275.14,-40.06"/>
<polygon fill="#5b00c0" stroke="#5b00c0" points="1278.64,-40.12 1275.5,-30 1271.64,-39.87 1278.64,-40.12"/>
<text text-anchor="middle" x="1282" y="-51.8" font-family="Times,serif" font-size="14.00" fill="#5b00c0">rw</text>
</g>
<!-- T877&#45;&gt;T876 -->
<g id="edge2" class="edge">
<title>T877:f0&#45;&gt;T876:f1</title>
<path fill="none" stroke="#5b00c0" d="M512.5,-30C512.5,-104.22 664.49,-12.79 679.34,-70.84"/>
<polygon fill="#5b00c0" stroke="#5b00c0" points="675.89,-71.46 680.5,-81 682.84,-70.67 675.89,-71.46"/>
<text text-anchor="middle" x="686" y="-51.8" font-family="Times,serif" font-size="14.00" fill="#5b00c0">rw</text>
</g>
</g>
</svg>
