<?xml version="1.0" encoding="UTF-8" standalone="no"?>
<!DOCTYPE svg PUBLIC "-//W3C//DTD SVG 1.1//EN"
 "http://www.w3.org/Graphics/SVG/1.1/DTD/svg11.dtd">
<!-- Generated by graphviz version 2.43.0 (0)
 -->
<!-- Title: a_graph Pages: 1 -->
<svg width="1129pt" height="119pt"
 viewBox="0.00 0.00 1129.00 119.00" xmlns="http://www.w3.org/2000/svg" xmlns:xlink="http://www.w3.org/1999/xlink">
<g id="graph0" class="graph" transform="scale(1 1) rotate(0) translate(4 115)">
<title>a_graph</title>
<polygon fill="white" stroke="transparent" points="-4,4 -4,-115 1125,-115 1125,4 -4,4"/>
<!-- T1462 -->
<g id="node1" class="node">
<title>T1462</title>
<polygon fill="none" stroke="#0058ad" points="818.5,-81.5 818.5,-110.5 1028.5,-110.5 1028.5,-81.5 818.5,-81.5"/>
<text text-anchor="middle" x="853.5" y="-92.3" font-family="Times,serif" font-size="14.00" fill="#0058ad">a 54 21</text>
<polyline fill="none" stroke="#0058ad" points="888.5,-81.5 888.5,-110.5 "/>
<text text-anchor="middle" x="923.5" y="-92.3" font-family="Times,serif" font-size="14.00" fill="#0058ad">r 55 [1]</text>
<polyline fill="none" stroke="#0058ad" points="958.5,-81.5 958.5,-110.5 "/>
<text text-anchor="middle" x="993.5" y="-92.3" font-family="Times,serif" font-size="14.00" fill="#0058ad">a 54 22</text>
</g>
<!-- T1463 -->
<g id="node2" class="node">
<title>T1463</title>
<polygon fill="none" stroke="#0058ad" points="0,-0.5 0,-29.5 1121,-29.5 1121,-0.5 0,-0.5"/>
<text text-anchor="middle" x="35" y="-11.3" font-family="Times,serif" font-size="14.00" fill="#0058ad">a 53 14</text>
<polyline fill="none" stroke="#0058ad" points="70,-0.5 70,-29.5 "/>
<text text-anchor="middle" x="105" y="-11.3" font-family="Times,serif" font-size="14.00" fill="#0058ad">a 53 15</text>
<polyline fill="none" stroke="#0058ad" points="140,-0.5 140,-29.5 "/>
<text text-anchor="middle" x="352.5" y="-11.3" font-family="Times,serif" font-size="14.00" fill="#0058ad">r 54 [1 2 3 4 5 6 7 8 9 10 11 12 13 14 15 16 17 18 19 20]</text>
<polyline fill="none" stroke="#0058ad" points="565,-0.5 565,-29.5 "/>
<text text-anchor="middle" x="777.5" y="-11.3" font-family="Times,serif" font-size="14.00" fill="#0058ad">r 54 [1 2 3 4 5 6 7 8 9 10 11 12 13 14 15 16 17 18 19 20]</text>
<polyline fill="none" stroke="#0058ad" points="990,-0.5 990,-29.5 "/>
<text text-anchor="middle" x="1025" y="-11.3" font-family="Times,serif" font-size="14.00" fill="#0058ad">r 55 [1]</text>
<polyline fill="none" stroke="#0058ad" points="1060,-0.5 1060,-29.5 "/>
<text text-anchor="middle" x="1090.5" y="-11.3" font-family="Times,serif" font-size="14.00" fill="#0058ad">a 55 2</text>
</g>
<!-- T1462&#45;&gt;T1463 -->
<g id="edge1" class="edge">
<title>T1462:f1&#45;&gt;T1463:f5</title>
<path fill="none" stroke="#5b00c0" d="M923.5,-81C923.5,-7.18 1074.59,-97.86 1089.34,-40.11"/>
<polygon fill="#5b00c0" stroke="#5b00c0" points="1092.84,-40.33 1090.5,-30 1085.89,-39.54 1092.84,-40.33"/>
<text text-anchor="middle" x="1095" y="-51.8" font-family="Times,serif" font-size="14.00" fill="#5b00c0">rw</text>
</g>
<!-- T1463&#45;&gt;T1462 -->
<g id="edge2" class="edge">
<title>T1463:f2&#45;&gt;T1462:f0</title>
<path fill="none" stroke="#5b00c0" d="M352.5,-30C352.5,-79.64 725.99,-94.56 807.37,-95.9"/>
<polygon fill="#5b00c0" stroke="#5b00c0" points="807.47,-99.4 817.5,-96 807.54,-92.4 807.47,-99.4"/>
<text text-anchor="middle" x="422" y="-51.8" font-family="Times,serif" font-size="14.00" fill="#5b00c0">rw</text>
</g>
</g>
</svg>
