<?xml version="1.0" encoding="UTF-8" standalone="no"?>
<!DOCTYPE svg PUBLIC "-//W3C//DTD SVG 1.1//EN"
 "http://www.w3.org/Graphics/SVG/1.1/DTD/svg11.dtd">
<!-- Generated by graphviz version 2.43.0 (0)
 -->
<!-- Title: a_graph Pages: 1 -->
<svg width="661pt" height="119pt"
 viewBox="0.00 0.00 660.50 119.00" xmlns="http://www.w3.org/2000/svg" xmlns:xlink="http://www.w3.org/1999/xlink">
<g id="graph0" class="graph" transform="scale(1 1) rotate(0) translate(4 115)">
<title>a_graph</title>
<polygon fill="white" stroke="transparent" points="-4,4 -4,-115 656.5,-115 656.5,4 -4,4"/>
<!-- T682 -->
<g id="node1" class="node">
<title>T682</title>
<polygon fill="none" stroke="#0058ad" points="0,-81.5 0,-110.5 601,-110.5 601,-81.5 0,-81.5"/>
<text text-anchor="middle" x="46" y="-92.3" font-family="Times,serif" font-size="14.00" fill="#0058ad">r 295 [1 2]</text>
<polyline fill="none" stroke="#0058ad" points="92,-81.5 92,-110.5 "/>
<text text-anchor="middle" x="138" y="-92.3" font-family="Times,serif" font-size="14.00" fill="#0058ad">r 298 [1 2]</text>
<polyline fill="none" stroke="#0058ad" points="184,-81.5 184,-110.5 "/>
<text text-anchor="middle" x="219" y="-92.3" font-family="Times,serif" font-size="14.00" fill="#0058ad">a 296 1</text>
<polyline fill="none" stroke="#0058ad" points="254,-81.5 254,-110.5 "/>
<text text-anchor="middle" x="300" y="-92.3" font-family="Times,serif" font-size="14.00" fill="#0058ad">r 295 [1 2]</text>
<polyline fill="none" stroke="#0058ad" points="346,-81.5 346,-110.5 "/>
<text text-anchor="middle" x="381" y="-92.3" font-family="Times,serif" font-size="14.00" fill="#0058ad">a 298 3</text>
<polyline fill="none" stroke="#0058ad" points="416,-81.5 416,-110.5 "/>
<text text-anchor="middle" x="469" y="-92.3" font-family="Times,serif" font-size="14.00" fill="#0058ad">r 298 [1 2 3]</text>
<polyline fill="none" stroke="#0058ad" points="522,-81.5 522,-110.5 "/>
<text text-anchor="middle" x="561.5" y="-92.3" font-family="Times,serif" font-size="14.00" fill="#0058ad">r 296 [1]</text>
</g>
<!-- T684 -->
<g id="node2" class="node">
<title>T684</title>
<polygon fill="none" stroke="#0058ad" points="230.5,-0.5 230.5,-29.5 652.5,-29.5 652.5,-0.5 230.5,-0.5"/>
<text text-anchor="middle" x="265.5" y="-11.3" font-family="Times,serif" font-size="14.00" fill="#0058ad">r 296 []</text>
<polyline fill="none" stroke="#0058ad" points="300.5,-0.5 300.5,-29.5 "/>
<text text-anchor="middle" x="353.5" y="-11.3" font-family="Times,serif" font-size="14.00" fill="#0058ad">r 298 [1 2 3]</text>
<polyline fill="none" stroke="#0058ad" points="406.5,-0.5 406.5,-29.5 "/>
<text text-anchor="middle" x="441.5" y="-11.3" font-family="Times,serif" font-size="14.00" fill="#0058ad">r 299 []</text>
<polyline fill="none" stroke="#0058ad" points="476.5,-0.5 476.5,-29.5 "/>
<text text-anchor="middle" x="511.5" y="-11.3" font-family="Times,serif" font-size="14.00" fill="#0058ad">a 295 3</text>
<polyline fill="none" stroke="#0058ad" points="546.5,-0.5 546.5,-29.5 "/>
<text text-anchor="middle" x="599.5" y="-11.3" font-family="Times,serif" font-size="14.00" fill="#0058ad">r 295 [1 2 3]</text>
</g>
<!-- T682&#45;&gt;T684 -->
<g id="edge1" class="edge">
<title>T682:f4&#45;&gt;T684:f1</title>
<path fill="none" stroke="#c000a5" d="M381.5,-81C381.5,-58.98 361.2,-56.23 355.17,-39.93"/>
<polygon fill="#c000a5" stroke="#c000a5" points="358.61,-39.28 353.5,-30 351.7,-40.44 358.61,-39.28"/>
<text text-anchor="middle" x="384" y="-51.8" font-family="Times,serif" font-size="14.00" fill="#c000a5">wr</text>
</g>
<!-- T684&#45;&gt;T682 -->
<g id="edge2" class="edge">
<title>T684:f0&#45;&gt;T682:f2</title>
<path fill="none" stroke="#5b00c0" d="M229.5,-15C203.13,-15 214.88,-43.51 217.88,-70.7"/>
<polygon fill="#5b00c0" stroke="#5b00c0" points="214.4,-71.23 218.5,-81 221.39,-70.81 214.4,-71.23"/>
<text text-anchor="middle" x="227" y="-51.8" font-family="Times,serif" font-size="14.00" fill="#5b00c0">rw</text>
</g>
</g>
</svg>
