<?xml version="1.0" encoding="UTF-8" standalone="no"?>
<!DOCTYPE svg PUBLIC "-//W3C//DTD SVG 1.1//EN"
 "http://www.w3.org/Graphics/SVG/1.1/DTD/svg11.dtd">
<!-- Generated by graphviz version 2.43.0 (0)
 -->
<!-- Title: a_graph Pages: 1 -->
<svg width="1076pt" height="119pt"
 viewBox="0.00 0.00 1076.00 119.00" xmlns="http://www.w3.org/2000/svg" xmlns:xlink="http://www.w3.org/1999/xlink">
<g id="graph0" class="graph" transform="scale(1 1) rotate(0) translate(4 115)">
<title>a_graph</title>
<polygon fill="white" stroke="transparent" points="-4,4 -4,-115 1072,-115 1072,4 -4,4"/>
<!-- T486 -->
<g id="node1" class="node">
<title>T486</title>
<polygon fill="none" stroke="#0058ad" points="0,-81.5 0,-110.5 1068,-110.5 1068,-81.5 0,-81.5"/>
<text text-anchor="middle" x="145" y="-92.3" font-family="Times,serif" font-size="14.00" fill="#0058ad">r 19 [1 2 3 4 5 6 7 8 9 10 11 12 13 14]</text>
<polyline fill="none" stroke="#0058ad" points="290,-81.5 290,-110.5 "/>
<text text-anchor="middle" x="320.5" y="-92.3" font-family="Times,serif" font-size="14.00" fill="#0058ad">a 18 6</text>
<polyline fill="none" stroke="#0058ad" points="351,-81.5 351,-110.5 "/>
<text text-anchor="middle" x="496" y="-92.3" font-family="Times,serif" font-size="14.00" fill="#0058ad">r 19 [1 2 3 4 5 6 7 8 9 10 11 12 13 14]</text>
<polyline fill="none" stroke="#0058ad" points="641,-81.5 641,-110.5 "/>
<text text-anchor="middle" x="786" y="-92.3" font-family="Times,serif" font-size="14.00" fill="#0058ad">r 19 [1 2 3 4 5 6 7 8 9 10 11 12 13 14]</text>
<polyline fill="none" stroke="#0058ad" points="931,-81.5 931,-110.5 "/>
<text text-anchor="middle" x="999.5" y="-92.3" font-family="Times,serif" font-size="14.00" fill="#0058ad">r 18 [1 2 3 4 5 6]</text>
</g>
<!-- T487 -->
<g id="node2" class="node">
<title>T487</title>
<polygon fill="none" stroke="#0058ad" points="115,-0.5 115,-29.5 729,-29.5 729,-0.5 115,-0.5"/>
<text text-anchor="middle" x="150" y="-11.3" font-family="Times,serif" font-size="14.00" fill="#0058ad">a 19 15</text>
<polyline fill="none" stroke="#0058ad" points="185,-0.5 185,-29.5 "/>
<text text-anchor="middle" x="220" y="-11.3" font-family="Times,serif" font-size="14.00" fill="#0058ad">a 19 16</text>
<polyline fill="none" stroke="#0058ad" points="255,-0.5 255,-29.5 "/>
<text text-anchor="middle" x="317" y="-11.3" font-family="Times,serif" font-size="14.00" fill="#0058ad">r 18 [1 2 3 4 5]</text>
<polyline fill="none" stroke="#0058ad" points="379,-0.5 379,-29.5 "/>
<text text-anchor="middle" x="414" y="-11.3" font-family="Times,serif" font-size="14.00" fill="#0058ad">a 19 17</text>
<polyline fill="none" stroke="#0058ad" points="449,-0.5 449,-29.5 "/>
<text text-anchor="middle" x="484" y="-11.3" font-family="Times,serif" font-size="14.00" fill="#0058ad">a 19 18</text>
<polyline fill="none" stroke="#0058ad" points="519,-0.5 519,-29.5 "/>
<text text-anchor="middle" x="554" y="-11.3" font-family="Times,serif" font-size="14.00" fill="#0058ad">a 14 31</text>
<polyline fill="none" stroke="#0058ad" points="589,-0.5 589,-29.5 "/>
<text text-anchor="middle" x="624" y="-11.3" font-family="Times,serif" font-size="14.00" fill="#0058ad">a 19 19</text>
<polyline fill="none" stroke="#0058ad" points="659,-0.5 659,-29.5 "/>
<text text-anchor="middle" x="694" y="-11.3" font-family="Times,serif" font-size="14.00" fill="#0058ad">a 19 20</text>
</g>
<!-- T486&#45;&gt;T487 -->
<g id="edge1" class="edge">
<title>T486:f0&#45;&gt;T487:f0</title>
<path fill="none" stroke="#5b00c0" d="M145,-81C145,-62.14 148.43,-55.16 149.61,-40.38"/>
<polygon fill="#5b00c0" stroke="#5b00c0" points="153.12,-40.13 150,-30 146.12,-39.86 153.12,-40.13"/>
<text text-anchor="middle" x="158.5" y="-51.8" font-family="Times,serif" font-size="14.00" fill="#5b00c0">rw</text>
</g>
<!-- T487&#45;&gt;T486 -->
<g id="edge2" class="edge">
<title>T487:f2&#45;&gt;T486:f1</title>
<path fill="none" stroke="#5b00c0" d="M317,-30C317,-48.8 319.06,-55.87 319.76,-70.64"/>
<polygon fill="#5b00c0" stroke="#5b00c0" points="316.27,-71.08 320,-81 323.27,-70.92 316.27,-71.08"/>
<text text-anchor="middle" x="329.5" y="-51.8" font-family="Times,serif" font-size="14.00" fill="#5b00c0">rw</text>
</g>
</g>
</svg>
