<?xml version="1.0" encoding="UTF-8" standalone="no"?>
<!DOCTYPE svg PUBLIC "-//W3C//DTD SVG 1.1//EN"
 "http://www.w3.org/Graphics/SVG/1.1/DTD/svg11.dtd">
<!-- Generated by graphviz version 2.43.0 (0)
 -->
<!-- Title: a_graph Pages: 1 -->
<svg width="3885pt" height="119pt"
 viewBox="0.00 0.00 3885.00 119.00" xmlns="http://www.w3.org/2000/svg" xmlns:xlink="http://www.w3.org/1999/xlink">
<g id="graph0" class="graph" transform="scale(1 1) rotate(0) translate(4 115)">
<title>a_graph</title>
<polygon fill="white" stroke="transparent" points="-4,4 -4,-115 3881,-115 3881,4 -4,4"/>
<!-- T57 -->
<g id="node1" class="node">
<title>T57</title>
<polygon fill="none" stroke="#0058ad" points="0,-81.5 0,-110.5 3877,-110.5 3877,-81.5 0,-81.5"/>
<text text-anchor="middle" x="287" y="-92.3" font-family="Times,serif" font-size="14.00" fill="#0058ad">r 6 [1 2 3 4 5 6 7 8 9 10 11 12 13 14 15 16 17 18 19 20 21 22 23 24 25 26 27]</text>
<polyline fill="none" stroke="#0058ad" points="574,-81.5 574,-110.5 "/>
<text text-anchor="middle" x="703.5" y="-92.3" font-family="Times,serif" font-size="14.00" fill="#0058ad">r 7 [1 2 3 4 5 6 7 8 9 10 11 12 13]</text>
<polyline fill="none" stroke="#0058ad" points="833,-81.5 833,-110.5 "/>
<text text-anchor="middle" x="863.5" y="-92.3" font-family="Times,serif" font-size="14.00" fill="#0058ad">a 7 14</text>
<polyline fill="none" stroke="#0058ad" points="894,-81.5 894,-110.5 "/>
<text text-anchor="middle" x="1181" y="-92.3" font-family="Times,serif" font-size="14.00" fill="#0058ad">r 6 [1 2 3 4 5 6 7 8 9 10 11 12 13 14 15 16 17 18 19 20 21 22 23 24 25 26 27]</text>
<polyline fill="none" stroke="#0058ad" points="1468,-81.5 1468,-110.5 "/>
<text text-anchor="middle" x="1755" y="-92.3" font-family="Times,serif" font-size="14.00" fill="#0058ad">r 6 [1 2 3 4 5 6 7 8 9 10 11 12 13 14 15 16 17 18 19 20 21 22 23 24 25 26 27]</text>
<polyline fill="none" stroke="#0058ad" points="2042,-81.5 2042,-110.5 "/>
<text text-anchor="middle" x="2329" y="-92.3" font-family="Times,serif" font-size="14.00" fill="#0058ad">r 6 [1 2 3 4 5 6 7 8 9 10 11 12 13 14 15 16 17 18 19 20 21 22 23 24 25 26 27]</text>
<polyline fill="none" stroke="#0058ad" points="2616,-81.5 2616,-110.5 "/>
<text text-anchor="middle" x="2903" y="-92.3" font-family="Times,serif" font-size="14.00" fill="#0058ad">r 6 [1 2 3 4 5 6 7 8 9 10 11 12 13 14 15 16 17 18 19 20 21 22 23 24 25 26 27]</text>
<polyline fill="none" stroke="#0058ad" points="3190,-81.5 3190,-110.5 "/>
<text text-anchor="middle" x="3220.5" y="-92.3" font-family="Times,serif" font-size="14.00" fill="#0058ad">a 7 15</text>
<polyline fill="none" stroke="#0058ad" points="3251,-81.5 3251,-110.5 "/>
<text text-anchor="middle" x="3277" y="-92.3" font-family="Times,serif" font-size="14.00" fill="#0058ad">a 8 7</text>
<polyline fill="none" stroke="#0058ad" points="3303,-81.5 3303,-110.5 "/>
<text text-anchor="middle" x="3590" y="-92.3" font-family="Times,serif" font-size="14.00" fill="#0058ad">r 6 [1 2 3 4 5 6 7 8 9 10 11 12 13 14 15 16 17 18 19 20 21 22 23 24 25 26 27]</text>
</g>
<!-- T56 -->
<g id="node2" class="node">
<title>T56</title>
<polygon fill="none" stroke="#0058ad" points="365.5,-0.5 365.5,-29.5 807.5,-29.5 807.5,-0.5 365.5,-0.5"/>
<text text-anchor="middle" x="495" y="-11.3" font-family="Times,serif" font-size="14.00" fill="#0058ad">r 7 [1 2 3 4 5 6 7 8 9 10 11 12 13]</text>
<polyline fill="none" stroke="#0058ad" points="624.5,-0.5 624.5,-29.5 "/>
<text text-anchor="middle" x="655" y="-11.3" font-family="Times,serif" font-size="14.00" fill="#0058ad">a 6 28</text>
<polyline fill="none" stroke="#0058ad" points="685.5,-0.5 685.5,-29.5 "/>
<text text-anchor="middle" x="716" y="-11.3" font-family="Times,serif" font-size="14.00" fill="#0058ad">a 6 29</text>
<polyline fill="none" stroke="#0058ad" points="746.5,-0.5 746.5,-29.5 "/>
<text text-anchor="middle" x="777" y="-11.3" font-family="Times,serif" font-size="14.00" fill="#0058ad">a 6 30</text>
</g>
<!-- T57&#45;&gt;T56 -->
<g id="edge1" class="edge">
<title>T57:f0&#45;&gt;T56:f1</title>
<path fill="none" stroke="#5b00c0" d="M286.5,-81C286.5,81 639.81,-183.73 655,-40.06"/>
<polygon fill="#5b00c0" stroke="#5b00c0" points="658.5,-40.16 655.5,-30 651.5,-39.81 658.5,-40.16"/>
<text text-anchor="middle" x="662" y="-51.8" font-family="Times,serif" font-size="14.00" fill="#5b00c0">rw</text>
</g>
<!-- T56&#45;&gt;T57 -->
<g id="edge2" class="edge">
<title>T56:f0&#45;&gt;T57:f2</title>
<path fill="none" stroke="#5b00c0" d="M494.5,-30C494.5,-50.21 655.48,-45.25 675.5,-48 755.93,-59.04 854.6,-1.47 862.93,-70.87"/>
<polygon fill="#5b00c0" stroke="#5b00c0" points="859.45,-71.21 863.5,-81 866.44,-70.82 859.45,-71.21"/>
<text text-anchor="middle" x="870" y="-51.8" font-family="Times,serif" font-size="14.00" fill="#5b00c0">rw</text>
</g>
</g>
</svg>
