<?xml version="1.0" encoding="UTF-8" standalone="no"?>
<!DOCTYPE svg PUBLIC "-//W3C//DTD SVG 1.1//EN"
 "http://www.w3.org/Graphics/SVG/1.1/DTD/svg11.dtd">
<!-- Generated by graphviz version 2.43.0 (0)
 -->
<!-- Title: a_graph Pages: 1 -->
<svg width="1185pt" height="119pt"
 viewBox="0.00 0.00 1185.00 119.00" xmlns="http://www.w3.org/2000/svg" xmlns:xlink="http://www.w3.org/1999/xlink">
<g id="graph0" class="graph" transform="scale(1 1) rotate(0) translate(4 115)">
<title>a_graph</title>
<polygon fill="white" stroke="transparent" points="-4,4 -4,-115 1181,-115 1181,4 -4,4"/>
<!-- T461 -->
<g id="node1" class="node">
<title>T461</title>
<polygon fill="none" stroke="#0058ad" points="0,-81.5 0,-110.5 1013,-110.5 1013,-81.5 0,-81.5"/>
<text text-anchor="middle" x="75.5" y="-92.3" font-family="Times,serif" font-size="14.00" fill="#0058ad">r 17 [1 2 3 4 5 6 7]</text>
<polyline fill="none" stroke="#0058ad" points="151,-81.5 151,-110.5 "/>
<text text-anchor="middle" x="226.5" y="-92.3" font-family="Times,serif" font-size="14.00" fill="#0058ad">r 17 [1 2 3 4 5 6 7]</text>
<polyline fill="none" stroke="#0058ad" points="302,-81.5 302,-110.5 "/>
<text text-anchor="middle" x="377.5" y="-92.3" font-family="Times,serif" font-size="14.00" fill="#0058ad">r 17 [1 2 3 4 5 6 7]</text>
<polyline fill="none" stroke="#0058ad" points="453,-81.5 453,-110.5 "/>
<text text-anchor="middle" x="483.5" y="-92.3" font-family="Times,serif" font-size="14.00" fill="#0058ad">a 17 9</text>
<polyline fill="none" stroke="#0058ad" points="514,-81.5 514,-110.5 "/>
<text text-anchor="middle" x="681.5" y="-92.3" font-family="Times,serif" font-size="14.00" fill="#0058ad">r 16 [1 2 3 4 5 6 7 8 9 10 11 12 13 14 15 16]</text>
<polyline fill="none" stroke="#0058ad" points="849,-81.5 849,-110.5 "/>
<text text-anchor="middle" x="931" y="-92.3" font-family="Times,serif" font-size="14.00" fill="#0058ad">r 17 [1 2 3 4 5 6 7 9]</text>
</g>
<!-- T460 -->
<g id="node2" class="node">
<title>T460</title>
<polygon fill="none" stroke="#0058ad" points="384,-0.5 384,-29.5 1177,-29.5 1177,-0.5 384,-0.5"/>
<text text-anchor="middle" x="459.5" y="-11.3" font-family="Times,serif" font-size="14.00" fill="#0058ad">r 17 [1 2 3 4 5 6 7]</text>
<polyline fill="none" stroke="#0058ad" points="535,-0.5 535,-29.5 "/>
<text text-anchor="middle" x="610.5" y="-11.3" font-family="Times,serif" font-size="14.00" fill="#0058ad">r 17 [1 2 3 4 5 6 7]</text>
<polyline fill="none" stroke="#0058ad" points="686,-0.5 686,-29.5 "/>
<text text-anchor="middle" x="721" y="-11.3" font-family="Times,serif" font-size="14.00" fill="#0058ad">a 16 17</text>
<polyline fill="none" stroke="#0058ad" points="756,-0.5 756,-29.5 "/>
<text text-anchor="middle" x="831.5" y="-11.3" font-family="Times,serif" font-size="14.00" fill="#0058ad">r 17 [1 2 3 4 5 6 7]</text>
<polyline fill="none" stroke="#0058ad" points="907,-0.5 907,-29.5 "/>
<text text-anchor="middle" x="942" y="-11.3" font-family="Times,serif" font-size="14.00" fill="#0058ad">a 16 18</text>
<polyline fill="none" stroke="#0058ad" points="977,-0.5 977,-29.5 "/>
<text text-anchor="middle" x="1077" y="-11.3" font-family="Times,serif" font-size="14.00" fill="#0058ad">r 14 [1 2 3 4 5 6 7 8 9 10]</text>
</g>
<!-- T461&#45;&gt;T460 -->
<g id="edge1" class="edge">
<title>T461:f4&#45;&gt;T460:f2</title>
<path fill="none" stroke="#5b00c0" d="M681.5,-81C681.5,-56.48 710.3,-57.51 718.4,-40.18"/>
<polygon fill="#5b00c0" stroke="#5b00c0" points="721.91,-40.5 720.5,-30 715.05,-39.09 721.91,-40.5"/>
<text text-anchor="middle" x="721" y="-51.8" font-family="Times,serif" font-size="14.00" fill="#5b00c0">rw</text>
</g>
<!-- T460&#45;&gt;T461 -->
<g id="edge2" class="edge">
<title>T460:f0&#45;&gt;T461:f3</title>
<path fill="none" stroke="#5b00c0" d="M459.5,-30C459.5,-51.14 476.59,-55.08 481.93,-70.84"/>
<polygon fill="#5b00c0" stroke="#5b00c0" points="478.51,-71.65 483.5,-81 485.43,-70.58 478.51,-71.65"/>
<text text-anchor="middle" x="488" y="-51.8" font-family="Times,serif" font-size="14.00" fill="#5b00c0">rw</text>
</g>
</g>
</svg>
