<?xml version="1.0" encoding="UTF-8" standalone="no"?>
<!DOCTYPE svg PUBLIC "-//W3C//DTD SVG 1.1//EN"
 "http://www.w3.org/Graphics/SVG/1.1/DTD/svg11.dtd">
<!-- Generated by graphviz version 2.43.0 (0)
 -->
<!-- Title: a_graph Pages: 1 -->
<svg width="2071pt" height="119pt"
 viewBox="0.00 0.00 2071.00 119.00" xmlns="http://www.w3.org/2000/svg" xmlns:xlink="http://www.w3.org/1999/xlink">
<g id="graph0" class="graph" transform="scale(1 1) rotate(0) translate(4 115)">
<title>a_graph</title>
<polygon fill="white" stroke="transparent" points="-4,4 -4,-115 2067,-115 2067,4 -4,4"/>
<!-- T4723 -->
<g id="node1" class="node">
<title>T4723</title>
<polygon fill="none" stroke="#0058ad" points="262,-81.5 262,-110.5 1795,-110.5 1795,-81.5 262,-81.5"/>
<text text-anchor="middle" x="569" y="-92.3" font-family="Times,serif" font-size="14.00" fill="#0058ad">r 181 [1 2 3 4 5 6 7 8 9 10 11 12 13 14 15 16 17 18 19 20 21 22 23 24 25 26 27 28]</text>
<polyline fill="none" stroke="#0058ad" points="876,-81.5 876,-110.5 "/>
<text text-anchor="middle" x="915.5" y="-92.3" font-family="Times,serif" font-size="14.00" fill="#0058ad">a 180 17</text>
<polyline fill="none" stroke="#0058ad" points="955,-81.5 955,-110.5 "/>
<text text-anchor="middle" x="1296" y="-92.3" font-family="Times,serif" font-size="14.00" fill="#0058ad">r 177 [1 2 3 4 5 6 7 8 9 10 11 12 13 14 16 17 18 19 20 21 22 23 24 25 26 27 28 29 30 31 32]</text>
<polyline fill="none" stroke="#0058ad" points="1637,-81.5 1637,-110.5 "/>
<text text-anchor="middle" x="1676.5" y="-92.3" font-family="Times,serif" font-size="14.00" fill="#0058ad">a 180 18</text>
<polyline fill="none" stroke="#0058ad" points="1716,-81.5 1716,-110.5 "/>
<text text-anchor="middle" x="1755.5" y="-92.3" font-family="Times,serif" font-size="14.00" fill="#0058ad">a 180 19</text>
</g>
<!-- T4722 -->
<g id="node2" class="node">
<title>T4722</title>
<polygon fill="none" stroke="#0058ad" points="0,-0.5 0,-29.5 2063,-29.5 2063,-0.5 0,-0.5"/>
<text text-anchor="middle" x="307" y="-11.3" font-family="Times,serif" font-size="14.00" fill="#0058ad">r 181 [1 2 3 4 5 6 7 8 9 10 11 12 13 14 15 16 17 18 19 20 21 22 23 24 25 26 27 28]</text>
<polyline fill="none" stroke="#0058ad" points="614,-0.5 614,-29.5 "/>
<text text-anchor="middle" x="653.5" y="-11.3" font-family="Times,serif" font-size="14.00" fill="#0058ad">a 181 29</text>
<polyline fill="none" stroke="#0058ad" points="693,-0.5 693,-29.5 "/>
<text text-anchor="middle" x="865" y="-11.3" font-family="Times,serif" font-size="14.00" fill="#0058ad">r 180 [1 2 3 4 5 6 7 8 9 10 11 12 13 14 15 16]</text>
<polyline fill="none" stroke="#0058ad" points="1037,-0.5 1037,-29.5 "/>
<text text-anchor="middle" x="1378" y="-11.3" font-family="Times,serif" font-size="14.00" fill="#0058ad">r 177 [1 2 3 4 5 6 7 8 9 10 11 12 13 14 16 17 18 19 20 21 22 23 24 25 26 27 28 29 30 31 32]</text>
<polyline fill="none" stroke="#0058ad" points="1719,-0.5 1719,-29.5 "/>
<text text-anchor="middle" x="1891" y="-11.3" font-family="Times,serif" font-size="14.00" fill="#0058ad">r 180 [1 2 3 4 5 6 7 8 9 10 11 12 13 14 15 16]</text>
</g>
<!-- T4723&#45;&gt;T4722 -->
<g id="edge1" class="edge">
<title>T4723:f0&#45;&gt;T4722:f1</title>
<path fill="none" stroke="#5b00c0" d="M568.5,-81C568.5,-40.9 638.91,-68.04 651.56,-40.03"/>
<polygon fill="#5b00c0" stroke="#5b00c0" points="655.04,-40.48 653.5,-30 648.17,-39.16 655.04,-40.48"/>
<text text-anchor="middle" x="653" y="-51.8" font-family="Times,serif" font-size="14.00" fill="#5b00c0">rw</text>
</g>
<!-- T4722&#45;&gt;T4723 -->
<g id="edge2" class="edge">
<title>T4722:f2&#45;&gt;T4723:f1</title>
<path fill="none" stroke="#5b00c0" d="M864.5,-30C864.5,-58.17 903.9,-51.46 913.44,-71.18"/>
<polygon fill="#5b00c0" stroke="#5b00c0" points="910.02,-71.93 915.5,-81 916.87,-70.49 910.02,-71.93"/>
<text text-anchor="middle" x="916" y="-51.8" font-family="Times,serif" font-size="14.00" fill="#5b00c0">rw</text>
</g>
</g>
</svg>
