<?xml version="1.0" encoding="UTF-8" standalone="no"?>
<!DOCTYPE svg PUBLIC "-//W3C//DTD SVG 1.1//EN"
 "http://www.w3.org/Graphics/SVG/1.1/DTD/svg11.dtd">
<!-- Generated by graphviz version 2.43.0 (0)
 -->
<!-- Title: a_graph Pages: 1 -->
<svg width="1274pt" height="119pt"
 viewBox="0.00 0.00 1273.50 119.00" xmlns="http://www.w3.org/2000/svg" xmlns:xlink="http://www.w3.org/1999/xlink">
<g id="graph0" class="graph" transform="scale(1 1) rotate(0) translate(4 115)">
<title>a_graph</title>
<polygon fill="white" stroke="transparent" points="-4,4 -4,-115 1269.5,-115 1269.5,4 -4,4"/>
<!-- T4196 -->
<g id="node1" class="node">
<title>T4196</title>
<polygon fill="none" stroke="#0058ad" points="662.5,-81.5 662.5,-110.5 1265.5,-110.5 1265.5,-81.5 662.5,-81.5"/>
<text text-anchor="middle" x="702" y="-92.3" font-family="Times,serif" font-size="14.00" fill="#0058ad">a 161 19</text>
<polyline fill="none" stroke="#0058ad" points="741.5,-81.5 741.5,-110.5 "/>
<text text-anchor="middle" x="1003.5" y="-92.3" font-family="Times,serif" font-size="14.00" fill="#0058ad">r 162 [1 2 3 4 5 6 7 8 9 10 11 12 13 14 15 16 17 18 19 20 21 22 23 24]</text>
</g>
<!-- T4197 -->
<g id="node2" class="node">
<title>T4197</title>
<polygon fill="none" stroke="#0058ad" points="0,-0.5 0,-29.5 992,-29.5 992,-0.5 0,-0.5"/>
<text text-anchor="middle" x="262" y="-11.3" font-family="Times,serif" font-size="14.00" fill="#0058ad">r 162 [1 2 3 4 5 6 7 8 9 10 11 12 13 14 15 16 17 18 19 20 21 22 23 24]</text>
<polyline fill="none" stroke="#0058ad" points="524,-0.5 524,-29.5 "/>
<text text-anchor="middle" x="718.5" y="-11.3" font-family="Times,serif" font-size="14.00" fill="#0058ad">r 161 [1 2 3 4 5 6 7 8 9 10 11 12 13 14 15 16 17 18]</text>
<polyline fill="none" stroke="#0058ad" points="913,-0.5 913,-29.5 "/>
<text text-anchor="middle" x="952.5" y="-11.3" font-family="Times,serif" font-size="14.00" fill="#0058ad">a 162 25</text>
</g>
<!-- T4196&#45;&gt;T4197 -->
<g id="edge1" class="edge">
<title>T4196:f1&#45;&gt;T4197:f2</title>
<path fill="none" stroke="#5b00c0" d="M1004,-81C1004,-55.44 1017.84,-25.07 1002.86,-17.03"/>
<polygon fill="#5b00c0" stroke="#5b00c0" points="1003.5,-13.59 993,-15 1002.09,-20.45 1003.5,-13.59"/>
<text text-anchor="middle" x="1017.5" y="-51.8" font-family="Times,serif" font-size="14.00" fill="#5b00c0">rw</text>
</g>
<!-- T4197&#45;&gt;T4196 -->
<g id="edge2" class="edge">
<title>T4197:f1&#45;&gt;T4196:f0</title>
<path fill="none" stroke="#5b00c0" d="M719,-30C719,-49.97 707.12,-55.5 703.22,-70.73"/>
<polygon fill="#5b00c0" stroke="#5b00c0" points="699.71,-70.66 702,-81 706.66,-71.48 699.71,-70.66"/>
<text text-anchor="middle" x="723.5" y="-51.8" font-family="Times,serif" font-size="14.00" fill="#5b00c0">rw</text>
</g>
</g>
</svg>
