<?xml version="1.0" encoding="UTF-8" standalone="no"?>
<!DOCTYPE svg PUBLIC "-//W3C//DTD SVG 1.1//EN"
 "http://www.w3.org/Graphics/SVG/1.1/DTD/svg11.dtd">
<!-- Generated by graphviz version 2.43.0 (0)
 -->
<!-- Title: a_graph Pages: 1 -->
<svg width="1029pt" height="119pt"
 viewBox="0.00 0.00 1029.00 119.00" xmlns="http://www.w3.org/2000/svg" xmlns:xlink="http://www.w3.org/1999/xlink">
<g id="graph0" class="graph" transform="scale(1 1) rotate(0) translate(4 115)">
<title>a_graph</title>
<polygon fill="white" stroke="transparent" points="-4,4 -4,-115 1025,-115 1025,4 -4,4"/>
<!-- T4815 -->
<g id="node1" class="node">
<title>T4815</title>
<polygon fill="none" stroke="#0058ad" points="0,-81.5 0,-110.5 622,-110.5 622,-81.5 0,-81.5"/>
<text text-anchor="middle" x="39.5" y="-92.3" font-family="Times,serif" font-size="14.00" fill="#0058ad">a 182 16</text>
<polyline fill="none" stroke="#0058ad" points="79,-81.5 79,-110.5 "/>
<text text-anchor="middle" x="244.5" y="-92.3" font-family="Times,serif" font-size="14.00" fill="#0058ad">r 182 [1 2 3 4 5 7 8 9 10 11 12 13 14 15 16]</text>
<polyline fill="none" stroke="#0058ad" points="410,-81.5 410,-110.5 "/>
<text text-anchor="middle" x="449.5" y="-92.3" font-family="Times,serif" font-size="14.00" fill="#0058ad">a 182 17</text>
<polyline fill="none" stroke="#0058ad" points="489,-81.5 489,-110.5 "/>
<text text-anchor="middle" x="555.5" y="-92.3" font-family="Times,serif" font-size="14.00" fill="#0058ad">r 186 [1 2 3 4 5]</text>
</g>
<!-- T4814 -->
<g id="node2" class="node">
<title>T4814</title>
<polygon fill="none" stroke="#0058ad" points="49,-0.5 49,-29.5 1021,-29.5 1021,-0.5 49,-0.5"/>
<text text-anchor="middle" x="84" y="-11.3" font-family="Times,serif" font-size="14.00" fill="#0058ad">a 186 6</text>
<polyline fill="none" stroke="#0058ad" points="119,-0.5 119,-29.5 "/>
<text text-anchor="middle" x="273" y="-11.3" font-family="Times,serif" font-size="14.00" fill="#0058ad">r 182 [1 2 3 4 5 7 8 9 10 11 12 13 14 15]</text>
<polyline fill="none" stroke="#0058ad" points="427,-0.5 427,-29.5 "/>
<text text-anchor="middle" x="581" y="-11.3" font-family="Times,serif" font-size="14.00" fill="#0058ad">r 182 [1 2 3 4 5 7 8 9 10 11 12 13 14 15]</text>
<polyline fill="none" stroke="#0058ad" points="735,-0.5 735,-29.5 "/>
<text text-anchor="middle" x="878" y="-11.3" font-family="Times,serif" font-size="14.00" fill="#0058ad">r 184 [2 3 4 5 6 7 8 9 10 11 12 13 14]</text>
</g>
<!-- T4815&#45;&gt;T4814 -->
<g id="edge1" class="edge">
<title>T4815:f3&#45;&gt;T4814:f0</title>
<path fill="none" stroke="#5b00c0" d="M556,-81C556,-56.74 156.57,-56.27 92.6,-35.82"/>
<polygon fill="#5b00c0" stroke="#5b00c0" points="94.24,-32.71 84,-30 90.32,-38.51 94.24,-32.71"/>
<text text-anchor="middle" x="450.5" y="-51.8" font-family="Times,serif" font-size="14.00" fill="#5b00c0">rw</text>
</g>
<!-- T4814&#45;&gt;T4815 -->
<g id="edge2" class="edge">
<title>T4814:f1&#45;&gt;T4815:f0</title>
<path fill="none" stroke="#5b00c0" d="M273,-30C273,-52.14 196.66,-43.39 175,-48 117.85,-60.17 48.05,-23.7 39.81,-70.81"/>
<polygon fill="#5b00c0" stroke="#5b00c0" points="36.3,-70.75 39,-81 43.28,-71.31 36.3,-70.75"/>
<text text-anchor="middle" x="184.5" y="-51.8" font-family="Times,serif" font-size="14.00" fill="#5b00c0">rw</text>
</g>
</g>
</svg>
