<?xml version="1.0" encoding="UTF-8" standalone="no"?>
<!DOCTYPE svg PUBLIC "-//W3C//DTD SVG 1.1//EN"
 "http://www.w3.org/Graphics/SVG/1.1/DTD/svg11.dtd">
<!-- Generated by graphviz version 2.43.0 (0)
 -->
<!-- Title: a_graph Pages: 1 -->
<svg width="1282pt" height="119pt"
 viewBox="0.00 0.00 1281.50 119.00" xmlns="http://www.w3.org/2000/svg" xmlns:xlink="http://www.w3.org/1999/xlink">
<g id="graph0" class="graph" transform="scale(1 1) rotate(0) translate(4 115)">
<title>a_graph</title>
<polygon fill="white" stroke="transparent" points="-4,4 -4,-115 1277.5,-115 1277.5,4 -4,4"/>
<!-- T994 -->
<g id="node1" class="node">
<title>T994</title>
<polygon fill="none" stroke="#0058ad" points="223.5,-81.5 223.5,-110.5 1273.5,-110.5 1273.5,-81.5 223.5,-81.5"/>
<text text-anchor="middle" x="285.5" y="-92.3" font-family="Times,serif" font-size="14.00" fill="#0058ad">r 40 [1 2 3 4 5]</text>
<polyline fill="none" stroke="#0058ad" points="347.5,-81.5 347.5,-110.5 "/>
<text text-anchor="middle" x="382.5" y="-92.3" font-family="Times,serif" font-size="14.00" fill="#0058ad">a 39 10</text>
<polyline fill="none" stroke="#0058ad" points="417.5,-81.5 417.5,-110.5 "/>
<text text-anchor="middle" x="452.5" y="-92.3" font-family="Times,serif" font-size="14.00" fill="#0058ad">a 39 11</text>
<polyline fill="none" stroke="#0058ad" points="487.5,-81.5 487.5,-110.5 "/>
<text text-anchor="middle" x="549.5" y="-92.3" font-family="Times,serif" font-size="14.00" fill="#0058ad">r 40 [1 2 3 4 5]</text>
<polyline fill="none" stroke="#0058ad" points="611.5,-81.5 611.5,-110.5 "/>
<text text-anchor="middle" x="673.5" y="-92.3" font-family="Times,serif" font-size="14.00" fill="#0058ad">r 40 [1 2 3 4 5]</text>
<polyline fill="none" stroke="#0058ad" points="735.5,-81.5 735.5,-110.5 "/>
<text text-anchor="middle" x="847" y="-92.3" font-family="Times,serif" font-size="14.00" fill="#0058ad">r 39 [1 2 3 4 5 6 7 8 9 10 11]</text>
<polyline fill="none" stroke="#0058ad" points="958.5,-81.5 958.5,-110.5 "/>
<text text-anchor="middle" x="993.5" y="-92.3" font-family="Times,serif" font-size="14.00" fill="#0058ad">a 39 12</text>
<polyline fill="none" stroke="#0058ad" points="1028.5,-81.5 1028.5,-110.5 "/>
<text text-anchor="middle" x="1151" y="-92.3" font-family="Times,serif" font-size="14.00" fill="#0058ad">r 39 [1 2 3 4 5 6 7 8 9 10 11 12]</text>
</g>
<!-- T995 -->
<g id="node2" class="node">
<title>T995</title>
<polygon fill="none" stroke="#0058ad" points="0,-0.5 0,-29.5 611,-29.5 611,-0.5 0,-0.5"/>
<text text-anchor="middle" x="89" y="-11.3" font-family="Times,serif" font-size="14.00" fill="#0058ad">r 39 [1 2 3 4 5 6 7 8 9]</text>
<polyline fill="none" stroke="#0058ad" points="178,-0.5 178,-29.5 "/>
<text text-anchor="middle" x="267" y="-11.3" font-family="Times,serif" font-size="14.00" fill="#0058ad">r 37 [1 2 3 4 5 6 7 8 9]</text>
<polyline fill="none" stroke="#0058ad" points="356,-0.5 356,-29.5 "/>
<text text-anchor="middle" x="391" y="-11.3" font-family="Times,serif" font-size="14.00" fill="#0058ad">a 37 10</text>
<polyline fill="none" stroke="#0058ad" points="426,-0.5 426,-29.5 "/>
<text text-anchor="middle" x="488" y="-11.3" font-family="Times,serif" font-size="14.00" fill="#0058ad">r 40 [1 2 3 4 5]</text>
<polyline fill="none" stroke="#0058ad" points="550,-0.5 550,-29.5 "/>
<text text-anchor="middle" x="580.5" y="-11.3" font-family="Times,serif" font-size="14.00" fill="#0058ad">a 40 6</text>
</g>
<!-- T994&#45;&gt;T995 -->
<g id="edge1" class="edge">
<title>T994:f0&#45;&gt;T995:f4</title>
<path fill="none" stroke="#5b00c0" d="M285.5,-81C285.5,-57.26 305.35,-56.55 327.5,-48 351.02,-38.92 534.91,-54.23 573.44,-37.39"/>
<polygon fill="#5b00c0" stroke="#5b00c0" points="576.12,-39.65 580.5,-30 571.06,-34.81 576.12,-39.65"/>
<text text-anchor="middle" x="337" y="-51.8" font-family="Times,serif" font-size="14.00" fill="#5b00c0">rw</text>
</g>
<!-- T995&#45;&gt;T994 -->
<g id="edge2" class="edge">
<title>T995:f0&#45;&gt;T994:f1</title>
<path fill="none" stroke="#5b00c0" d="M88.5,-30C88.5,-58.74 320.1,-36.66 346.5,-48 362.86,-55.03 376.6,-58.13 381.02,-70.99"/>
<polygon fill="#5b00c0" stroke="#5b00c0" points="377.57,-71.62 382.5,-81 384.49,-70.59 377.57,-71.62"/>
<text text-anchor="middle" x="385" y="-51.8" font-family="Times,serif" font-size="14.00" fill="#5b00c0">rw</text>
</g>
</g>
</svg>
