<?xml version="1.0" encoding="UTF-8" standalone="no"?>
<!DOCTYPE svg PUBLIC "-//W3C//DTD SVG 1.1//EN"
 "http://www.w3.org/Graphics/SVG/1.1/DTD/svg11.dtd">
<!-- Generated by graphviz version 2.43.0 (0)
 -->
<!-- Title: a_graph Pages: 1 -->
<svg width="3183pt" height="119pt"
 viewBox="0.00 0.00 3182.50 119.00" xmlns="http://www.w3.org/2000/svg" xmlns:xlink="http://www.w3.org/1999/xlink">
<g id="graph0" class="graph" transform="scale(1 1) rotate(0) translate(4 115)">
<title>a_graph</title>
<polygon fill="white" stroke="transparent" points="-4,4 -4,-115 3178.5,-115 3178.5,4 -4,4"/>
<!-- T3197 -->
<g id="node1" class="node">
<title>T3197</title>
<polygon fill="none" stroke="#0058ad" points="1490.5,-81.5 1490.5,-110.5 3174.5,-110.5 3174.5,-81.5 1490.5,-81.5"/>
<text text-anchor="middle" x="1775" y="-92.3" font-family="Times,serif" font-size="14.00" fill="#0058ad">r 119 [1 2 3 4 5 6 7 8 9 10 11 12 13 14 15 16 17 18 19 20 21 22 23 24 25 26]</text>
<polyline fill="none" stroke="#0058ad" points="2059.5,-81.5 2059.5,-110.5 "/>
<text text-anchor="middle" x="2283.5" y="-92.3" font-family="Times,serif" font-size="14.00" fill="#0058ad">r 121 [1 4 5 6 7 10 11 12 13 14 15 16 17 18 19 20 21 22 23]</text>
<polyline fill="none" stroke="#0058ad" points="2507.5,-81.5 2507.5,-110.5 "/>
<text text-anchor="middle" x="2731.5" y="-92.3" font-family="Times,serif" font-size="14.00" fill="#0058ad">r 121 [1 4 5 6 7 10 11 12 13 14 15 16 17 18 19 20 21 22 23]</text>
<polyline fill="none" stroke="#0058ad" points="2955.5,-81.5 2955.5,-110.5 "/>
<text text-anchor="middle" x="2990.5" y="-92.3" font-family="Times,serif" font-size="14.00" fill="#0058ad">a 123 1</text>
<polyline fill="none" stroke="#0058ad" points="3025.5,-81.5 3025.5,-110.5 "/>
<text text-anchor="middle" x="3065" y="-92.3" font-family="Times,serif" font-size="14.00" fill="#0058ad">r 123 [1]</text>
<polyline fill="none" stroke="#0058ad" points="3104.5,-81.5 3104.5,-110.5 "/>
<text text-anchor="middle" x="3139.5" y="-92.3" font-family="Times,serif" font-size="14.00" fill="#0058ad">a 123 2</text>
</g>
<!-- T3196 -->
<g id="node2" class="node">
<title>T3196</title>
<polygon fill="none" stroke="#0058ad" points="0,-0.5 0,-29.5 2711,-29.5 2711,-0.5 0,-0.5"/>
<text text-anchor="middle" x="327.5" y="-11.3" font-family="Times,serif" font-size="14.00" fill="#0058ad">r 122 [1 2 3 4 5 6 7 10 11 12 13 14 15 16 17 18 19 20 21 22 23 24 25 26 27 28 29 30 31]</text>
<polyline fill="none" stroke="#0058ad" points="655,-0.5 655,-29.5 "/>
<text text-anchor="middle" x="982.5" y="-11.3" font-family="Times,serif" font-size="14.00" fill="#0058ad">r 122 [1 2 3 4 5 6 7 10 11 12 13 14 15 16 17 18 19 20 21 22 23 24 25 26 27 28 29 30 31]</text>
<polyline fill="none" stroke="#0058ad" points="1310,-0.5 1310,-29.5 "/>
<text text-anchor="middle" x="1637.5" y="-11.3" font-family="Times,serif" font-size="14.00" fill="#0058ad">r 122 [1 2 3 4 5 6 7 10 11 12 13 14 15 16 17 18 19 20 21 22 23 24 25 26 27 28 29 30 31]</text>
<polyline fill="none" stroke="#0058ad" points="1965,-0.5 1965,-29.5 "/>
<text text-anchor="middle" x="2004.5" y="-11.3" font-family="Times,serif" font-size="14.00" fill="#0058ad">a 119 27</text>
<polyline fill="none" stroke="#0058ad" points="2044,-0.5 2044,-29.5 "/>
<text text-anchor="middle" x="2268" y="-11.3" font-family="Times,serif" font-size="14.00" fill="#0058ad">r 121 [1 4 5 6 7 10 11 12 13 14 15 16 17 18 19 20 21 22 23]</text>
<polyline fill="none" stroke="#0058ad" points="2492,-0.5 2492,-29.5 "/>
<text text-anchor="middle" x="2531.5" y="-11.3" font-family="Times,serif" font-size="14.00" fill="#0058ad">a 122 32</text>
<polyline fill="none" stroke="#0058ad" points="2571,-0.5 2571,-29.5 "/>
<text text-anchor="middle" x="2606" y="-11.3" font-family="Times,serif" font-size="14.00" fill="#0058ad">r 123 []</text>
<polyline fill="none" stroke="#0058ad" points="2641,-0.5 2641,-29.5 "/>
<text text-anchor="middle" x="2676" y="-11.3" font-family="Times,serif" font-size="14.00" fill="#0058ad">r 123 []</text>
</g>
<!-- T3197&#45;&gt;T3196 -->
<g id="edge1" class="edge">
<title>T3197:f0&#45;&gt;T3196:f3</title>
<path fill="none" stroke="#5b00c0" d="M1774.5,-81C1774.5,20.02 1988.61,-123.89 2003.67,-40.09"/>
<polygon fill="#5b00c0" stroke="#5b00c0" points="2007.17,-40.25 2004.5,-30 2000.19,-39.68 2007.17,-40.25"/>
<text text-anchor="middle" x="2010" y="-51.8" font-family="Times,serif" font-size="14.00" fill="#5b00c0">rw</text>
</g>
<!-- T3196&#45;&gt;T3197 -->
<g id="edge2" class="edge">
<title>T3196:f6&#45;&gt;T3197:f3</title>
<path fill="none" stroke="#5b00c0" d="M2606.5,-30C2606.5,-198.63 2974.91,79.33 2990.02,-70.99"/>
<polygon fill="#5b00c0" stroke="#5b00c0" points="2986.53,-71.18 2990.5,-81 2993.52,-70.84 2986.53,-71.18"/>
<text text-anchor="middle" x="2999" y="-51.8" font-family="Times,serif" font-size="14.00" fill="#5b00c0">rw</text>
</g>
</g>
</svg>
