<?xml version="1.0" encoding="UTF-8" standalone="no"?>
<!DOCTYPE svg PUBLIC "-//W3C//DTD SVG 1.1//EN"
 "http://www.w3.org/Graphics/SVG/1.1/DTD/svg11.dtd">
<!-- Generated by graphviz version 2.43.0 (0)
 -->
<!-- Title: a_graph Pages: 1 -->
<svg width="1203pt" height="119pt"
 viewBox="0.00 0.00 1203.00 119.00" xmlns="http://www.w3.org/2000/svg" xmlns:xlink="http://www.w3.org/1999/xlink">
<g id="graph0" class="graph" transform="scale(1 1) rotate(0) translate(4 115)">
<title>a_graph</title>
<polygon fill="white" stroke="transparent" points="-4,4 -4,-115 1199,-115 1199,4 -4,4"/>
<!-- T1188 -->
<g id="node1" class="node">
<title>T1188</title>
<polygon fill="none" stroke="#0058ad" points="76.5,-81.5 76.5,-110.5 780.5,-110.5 780.5,-81.5 76.5,-81.5"/>
<text text-anchor="middle" x="158.5" y="-92.3" font-family="Times,serif" font-size="14.00" fill="#0058ad">r 45 [1 3 4 5 6 7 8 9]</text>
<polyline fill="none" stroke="#0058ad" points="240.5,-81.5 240.5,-110.5 "/>
<text text-anchor="middle" x="275.5" y="-92.3" font-family="Times,serif" font-size="14.00" fill="#0058ad">a 45 10</text>
<polyline fill="none" stroke="#0058ad" points="310.5,-81.5 310.5,-110.5 "/>
<text text-anchor="middle" x="545.5" y="-92.3" font-family="Times,serif" font-size="14.00" fill="#0058ad">r 44 [1 2 3 4 5 6 7 8 9 10 11 12 14 15 16 17 18 19 20 21 22 23]</text>
</g>
<!-- T1189 -->
<g id="node2" class="node">
<title>T1189</title>
<polygon fill="none" stroke="#0058ad" points="0,-0.5 0,-29.5 1195,-29.5 1195,-0.5 0,-0.5"/>
<text text-anchor="middle" x="35" y="-11.3" font-family="Times,serif" font-size="14.00" fill="#0058ad">a 43 14</text>
<polyline fill="none" stroke="#0058ad" points="70,-0.5 70,-29.5 "/>
<text text-anchor="middle" x="105" y="-11.3" font-family="Times,serif" font-size="14.00" fill="#0058ad">a 44 24</text>
<polyline fill="none" stroke="#0058ad" points="140,-0.5 140,-29.5 "/>
<text text-anchor="middle" x="386.5" y="-11.3" font-family="Times,serif" font-size="14.00" fill="#0058ad">r 44 [1 2 3 4 5 6 7 8 9 10 11 12 14 15 16 17 18 19 20 21 22 23 24]</text>
<polyline fill="none" stroke="#0058ad" points="633,-0.5 633,-29.5 "/>
<text text-anchor="middle" x="715" y="-11.3" font-family="Times,serif" font-size="14.00" fill="#0058ad">r 45 [1 3 4 5 6 7 8 9]</text>
<polyline fill="none" stroke="#0058ad" points="797,-0.5 797,-29.5 "/>
<text text-anchor="middle" x="879" y="-11.3" font-family="Times,serif" font-size="14.00" fill="#0058ad">r 45 [1 3 4 5 6 7 8 9]</text>
<polyline fill="none" stroke="#0058ad" points="961,-0.5 961,-29.5 "/>
<text text-anchor="middle" x="996" y="-11.3" font-family="Times,serif" font-size="14.00" fill="#0058ad">a 44 25</text>
<polyline fill="none" stroke="#0058ad" points="1031,-0.5 1031,-29.5 "/>
<text text-anchor="middle" x="1113" y="-11.3" font-family="Times,serif" font-size="14.00" fill="#0058ad">r 45 [1 3 4 5 6 7 8 9]</text>
</g>
<!-- T1188&#45;&gt;T1189 -->
<g id="edge1" class="edge">
<title>T1188:f2&#45;&gt;T1189:f1</title>
<path fill="none" stroke="#5b00c0" d="M545.5,-81C545.5,4.71 440.57,-58.41 355.5,-48 343.25,-46.5 157.01,-44.52 113.53,-34.45"/>
<polygon fill="#5b00c0" stroke="#5b00c0" points="115.02,-31.28 104.5,-30 111.92,-37.56 115.02,-31.28"/>
<text text-anchor="middle" x="551" y="-51.8" font-family="Times,serif" font-size="14.00" fill="#5b00c0">rw</text>
</g>
<!-- T1189&#45;&gt;T1188 -->
<g id="edge2" class="edge">
<title>T1189:f3&#45;&gt;T1188:f1</title>
<path fill="none" stroke="#5b00c0" d="M715.5,-30C715.5,-51.3 352.94,-41.99 332.5,-48 308.15,-55.16 283.17,-52.7 276.96,-71.02"/>
<polygon fill="#5b00c0" stroke="#5b00c0" points="273.48,-70.6 275.5,-81 280.41,-71.61 273.48,-70.6"/>
<text text-anchor="middle" x="342" y="-51.8" font-family="Times,serif" font-size="14.00" fill="#5b00c0">rw</text>
</g>
</g>
</svg>
