<?xml version="1.0" encoding="UTF-8" standalone="no"?>
<!DOCTYPE svg PUBLIC "-//W3C//DTD SVG 1.1//EN"
 "http://www.w3.org/Graphics/SVG/1.1/DTD/svg11.dtd">
<!-- Generated by graphviz version 2.43.0 (0)
 -->
<!-- Title: a_graph Pages: 1 -->
<svg width="587pt" height="119pt"
 viewBox="0.00 0.00 586.50 119.00" xmlns="http://www.w3.org/2000/svg" xmlns:xlink="http://www.w3.org/1999/xlink">
<g id="graph0" class="graph" transform="scale(1 1) rotate(0) translate(4 115)">
<title>a_graph</title>
<polygon fill="white" stroke="transparent" points="-4,4 -4,-115 582.5,-115 582.5,4 -4,4"/>
<!-- T3813 -->
<g id="node1" class="node">
<title>T3813</title>
<polygon fill="none" stroke="#0058ad" points="0,-81.5 0,-110.5 510,-110.5 510,-81.5 0,-81.5"/>
<text text-anchor="middle" x="44" y="-92.3" font-family="Times,serif" font-size="14.00" fill="#0058ad">r 1668 [1]</text>
<polyline fill="none" stroke="#0058ad" points="88,-81.5 88,-110.5 "/>
<text text-anchor="middle" x="132" y="-92.3" font-family="Times,serif" font-size="14.00" fill="#0058ad">r 1669 [1]</text>
<polyline fill="none" stroke="#0058ad" points="176,-81.5 176,-110.5 "/>
<text text-anchor="middle" x="220" y="-92.3" font-family="Times,serif" font-size="14.00" fill="#0058ad">r 1668 [1]</text>
<polyline fill="none" stroke="#0058ad" points="264,-81.5 264,-110.5 "/>
<text text-anchor="middle" x="303.5" y="-92.3" font-family="Times,serif" font-size="14.00" fill="#0058ad">a 1670 1</text>
<polyline fill="none" stroke="#0058ad" points="343,-81.5 343,-110.5 "/>
<text text-anchor="middle" x="382.5" y="-92.3" font-family="Times,serif" font-size="14.00" fill="#0058ad">a 1669 2</text>
<polyline fill="none" stroke="#0058ad" points="422,-81.5 422,-110.5 "/>
<text text-anchor="middle" x="466" y="-92.3" font-family="Times,serif" font-size="14.00" fill="#0058ad">r 1668 [1]</text>
</g>
<!-- T3812 -->
<g id="node2" class="node">
<title>T3812</title>
<polygon fill="none" stroke="#0058ad" points="33.5,-0.5 33.5,-29.5 578.5,-29.5 578.5,-0.5 33.5,-0.5"/>
<text text-anchor="middle" x="77.5" y="-11.3" font-family="Times,serif" font-size="14.00" fill="#0058ad">r 1669 [1]</text>
<polyline fill="none" stroke="#0058ad" points="121.5,-0.5 121.5,-29.5 "/>
<text text-anchor="middle" x="172" y="-11.3" font-family="Times,serif" font-size="14.00" fill="#0058ad">r 1666 [1 2]</text>
<polyline fill="none" stroke="#0058ad" points="222.5,-0.5 222.5,-29.5 "/>
<text text-anchor="middle" x="266.5" y="-11.3" font-family="Times,serif" font-size="14.00" fill="#0058ad">r 1668 [1]</text>
<polyline fill="none" stroke="#0058ad" points="310.5,-0.5 310.5,-29.5 "/>
<text text-anchor="middle" x="350" y="-11.3" font-family="Times,serif" font-size="14.00" fill="#0058ad">a 1668 2</text>
<polyline fill="none" stroke="#0058ad" points="389.5,-0.5 389.5,-29.5 "/>
<text text-anchor="middle" x="433.5" y="-11.3" font-family="Times,serif" font-size="14.00" fill="#0058ad">r 1669 [1]</text>
<polyline fill="none" stroke="#0058ad" points="477.5,-0.5 477.5,-29.5 "/>
<text text-anchor="middle" x="528" y="-11.3" font-family="Times,serif" font-size="14.00" fill="#0058ad">r 1666 [1 2]</text>
</g>
<!-- T3813&#45;&gt;T3812 -->
<g id="edge1" class="edge">
<title>T3813:f0&#45;&gt;T3812:f3</title>
<path fill="none" stroke="#5b00c0" d="M44,-81C44,-65.52 291,-50.6 341.17,-35.23"/>
<polygon fill="#5b00c0" stroke="#5b00c0" points="343.18,-38.11 350,-30 339.61,-32.09 343.18,-38.11"/>
<text text-anchor="middle" x="269.5" y="-51.8" font-family="Times,serif" font-size="14.00" fill="#5b00c0">rw</text>
</g>
<!-- T3812&#45;&gt;T3813 -->
<g id="edge2" class="edge">
<title>T3812:f0&#45;&gt;T3813:f4</title>
<path fill="none" stroke="#5b00c0" d="M77,-30C77,-52.98 260.5,-43.37 283,-48 325.08,-56.66 374.17,-37.79 381.94,-70.84"/>
<polygon fill="#5b00c0" stroke="#5b00c0" points="378.48,-71.42 383,-81 385.44,-70.69 378.48,-71.42"/>
<text text-anchor="middle" x="387.5" y="-51.8" font-family="Times,serif" font-size="14.00" fill="#5b00c0">rw</text>
</g>
</g>
</svg>
