<?xml version="1.0" encoding="UTF-8" standalone="no"?>
<!DOCTYPE svg PUBLIC "-//W3C//DTD SVG 1.1//EN"
 "http://www.w3.org/Graphics/SVG/1.1/DTD/svg11.dtd">
<!-- Generated by graphviz version 2.43.0 (0)
 -->
<!-- Title: a_graph Pages: 1 -->
<svg width="646pt" height="119pt"
 viewBox="0.00 0.00 646.00 119.00" xmlns="http://www.w3.org/2000/svg" xmlns:xlink="http://www.w3.org/1999/xlink">
<g id="graph0" class="graph" transform="scale(1 1) rotate(0) translate(4 115)">
<title>a_graph</title>
<polygon fill="white" stroke="transparent" points="-4,4 -4,-115 642,-115 642,4 -4,4"/>
<!-- T984 -->
<g id="node1" class="node">
<title>T984</title>
<polygon fill="none" stroke="#0058ad" points="0,-81.5 0,-110.5 587,-110.5 587,-81.5 0,-81.5"/>
<text text-anchor="middle" x="35" y="-92.3" font-family="Times,serif" font-size="14.00" fill="#0058ad">a 426 1</text>
<polyline fill="none" stroke="#0058ad" points="70,-81.5 70,-110.5 "/>
<text text-anchor="middle" x="105" y="-92.3" font-family="Times,serif" font-size="14.00" fill="#0058ad">a 427 3</text>
<polyline fill="none" stroke="#0058ad" points="140,-81.5 140,-110.5 "/>
<text text-anchor="middle" x="179.5" y="-92.3" font-family="Times,serif" font-size="14.00" fill="#0058ad">r 410 [1]</text>
<polyline fill="none" stroke="#0058ad" points="219,-81.5 219,-110.5 "/>
<text text-anchor="middle" x="254" y="-92.3" font-family="Times,serif" font-size="14.00" fill="#0058ad">a 429 1</text>
<polyline fill="none" stroke="#0058ad" points="289,-81.5 289,-110.5 "/>
<text text-anchor="middle" x="324" y="-92.3" font-family="Times,serif" font-size="14.00" fill="#0058ad">a 429 2</text>
<polyline fill="none" stroke="#0058ad" points="359,-81.5 359,-110.5 "/>
<text text-anchor="middle" x="394" y="-92.3" font-family="Times,serif" font-size="14.00" fill="#0058ad">a 429 3</text>
<polyline fill="none" stroke="#0058ad" points="429,-81.5 429,-110.5 "/>
<text text-anchor="middle" x="468.5" y="-92.3" font-family="Times,serif" font-size="14.00" fill="#0058ad">r 420 [1]</text>
<polyline fill="none" stroke="#0058ad" points="508,-81.5 508,-110.5 "/>
<text text-anchor="middle" x="547.5" y="-92.3" font-family="Times,serif" font-size="14.00" fill="#0058ad">r 428 [1]</text>
</g>
<!-- T985 -->
<g id="node2" class="node">
<title>T985</title>
<polygon fill="none" stroke="#0058ad" points="69,-0.5 69,-29.5 638,-29.5 638,-0.5 69,-0.5"/>
<text text-anchor="middle" x="104" y="-11.3" font-family="Times,serif" font-size="14.00" fill="#0058ad">a 428 2</text>
<polyline fill="none" stroke="#0058ad" points="139,-0.5 139,-29.5 "/>
<text text-anchor="middle" x="174" y="-11.3" font-family="Times,serif" font-size="14.00" fill="#0058ad">r 429 []</text>
<polyline fill="none" stroke="#0058ad" points="209,-0.5 209,-29.5 "/>
<text text-anchor="middle" x="244" y="-11.3" font-family="Times,serif" font-size="14.00" fill="#0058ad">r 426 []</text>
<polyline fill="none" stroke="#0058ad" points="279,-0.5 279,-29.5 "/>
<text text-anchor="middle" x="314" y="-11.3" font-family="Times,serif" font-size="14.00" fill="#0058ad">r 426 []</text>
<polyline fill="none" stroke="#0058ad" points="349,-0.5 349,-29.5 "/>
<text text-anchor="middle" x="388.5" y="-11.3" font-family="Times,serif" font-size="14.00" fill="#0058ad">r 420 [1]</text>
<polyline fill="none" stroke="#0058ad" points="428,-0.5 428,-29.5 "/>
<text text-anchor="middle" x="463" y="-11.3" font-family="Times,serif" font-size="14.00" fill="#0058ad">r 430 []</text>
<polyline fill="none" stroke="#0058ad" points="498,-0.5 498,-29.5 "/>
<text text-anchor="middle" x="533" y="-11.3" font-family="Times,serif" font-size="14.00" fill="#0058ad">r 430 []</text>
<polyline fill="none" stroke="#0058ad" points="568,-0.5 568,-29.5 "/>
<text text-anchor="middle" x="603" y="-11.3" font-family="Times,serif" font-size="14.00" fill="#0058ad">a 428 3</text>
</g>
<!-- T984&#45;&gt;T985 -->
<g id="edge1" class="edge">
<title>T984:f7&#45;&gt;T985:f0</title>
<path fill="none" stroke="#5b00c0" d="M547.5,-81C547.5,-58.21 173.36,-55.21 111.97,-35.66"/>
<polygon fill="#5b00c0" stroke="#5b00c0" points="113.76,-32.65 103.5,-30 109.87,-38.47 113.76,-32.65"/>
<text text-anchor="middle" x="449" y="-51.8" font-family="Times,serif" font-size="14.00" fill="#5b00c0">rw</text>
</g>
<!-- T985&#45;&gt;T984 -->
<g id="edge2" class="edge">
<title>T985:f2&#45;&gt;T984:f0</title>
<path fill="none" stroke="#5b00c0" d="M243.5,-30C243.5,-40.48 82.77,-62.61 43.21,-75.96"/>
<polygon fill="#5b00c0" stroke="#5b00c0" points="41.4,-72.96 34.5,-81 44.91,-79.02 41.4,-72.96"/>
<text text-anchor="middle" x="185" y="-51.8" font-family="Times,serif" font-size="14.00" fill="#5b00c0">rw</text>
</g>
</g>
</svg>
