<?xml version="1.0" encoding="UTF-8" standalone="no"?>
<!DOCTYPE svg PUBLIC "-//W3C//DTD SVG 1.1//EN"
 "http://www.w3.org/Graphics/SVG/1.1/DTD/svg11.dtd">
<!-- Generated by graphviz version 2.43.0 (0)
 -->
<!-- Title: a_graph Pages: 1 -->
<svg width="536pt" height="200pt"
 viewBox="0.00 0.00 535.50 200.00" xmlns="http://www.w3.org/2000/svg" xmlns:xlink="http://www.w3.org/1999/xlink">
<g id="graph0" class="graph" transform="scale(1 1) rotate(0) translate(4 196)">
<title>a_graph</title>
<polygon fill="white" stroke="transparent" points="-4,4 -4,-196 531.5,-196 531.5,4 -4,4"/>
<!-- T1817 -->
<g id="node1" class="node">
<title>T1817</title>
<polygon fill="none" stroke="#0058ad" points="196.5,-162.5 196.5,-191.5 466.5,-191.5 466.5,-162.5 196.5,-162.5"/>
<text text-anchor="middle" x="296.5" y="-173.3" font-family="Times,serif" font-size="14.00" fill="#0058ad">r 70 [1 2 3 4 5 6 7 8 9 10]</text>
<polyline fill="none" stroke="#0058ad" points="396.5,-162.5 396.5,-191.5 "/>
<text text-anchor="middle" x="431.5" y="-173.3" font-family="Times,serif" font-size="14.00" fill="#0058ad">a 69 12</text>
</g>
<!-- T1816 -->
<g id="node2" class="node">
<title>T1816</title>
<polygon fill="none" stroke="#0058ad" points="0,-81.5 0,-110.5 331,-110.5 331,-81.5 0,-81.5"/>
<text text-anchor="middle" x="30.5" y="-92.3" font-family="Times,serif" font-size="14.00" fill="#0058ad">r 72 []</text>
<polyline fill="none" stroke="#0058ad" points="61,-81.5 61,-110.5 "/>
<text text-anchor="middle" x="161" y="-92.3" font-family="Times,serif" font-size="14.00" fill="#0058ad">r 69 [1 2 3 4 5 6 7 8 9 10]</text>
<polyline fill="none" stroke="#0058ad" points="261,-81.5 261,-110.5 "/>
<text text-anchor="middle" x="296" y="-92.3" font-family="Times,serif" font-size="14.00" fill="#0058ad">a 70 11</text>
</g>
<!-- T1817&#45;&gt;T1816 -->
<g id="edge1" class="edge">
<title>T1817:f0&#45;&gt;T1816:f2</title>
<path fill="none" stroke="#5b00c0" d="M296.5,-162C296.5,-143.23 296.5,-136.12 296.5,-121.35"/>
<polygon fill="#5b00c0" stroke="#5b00c0" points="300,-121 296.5,-111 293,-121 300,-121"/>
<text text-anchor="middle" x="306" y="-132.8" font-family="Times,serif" font-size="14.00" fill="#5b00c0">rw</text>
</g>
<!-- T1814 -->
<g id="node3" class="node">
<title>T1814</title>
<polygon fill="none" stroke="#0058ad" points="135.5,-0.5 135.5,-29.5 527.5,-29.5 527.5,-0.5 135.5,-0.5"/>
<text text-anchor="middle" x="166" y="-11.3" font-family="Times,serif" font-size="14.00" fill="#0058ad">r 72 []</text>
<polyline fill="none" stroke="#0058ad" points="196.5,-0.5 196.5,-29.5 "/>
<text text-anchor="middle" x="296.5" y="-11.3" font-family="Times,serif" font-size="14.00" fill="#0058ad">r 70 [1 2 3 4 5 6 7 8 9 10]</text>
<polyline fill="none" stroke="#0058ad" points="396.5,-0.5 396.5,-29.5 "/>
<text text-anchor="middle" x="431.5" y="-11.3" font-family="Times,serif" font-size="14.00" fill="#0058ad">a 69 11</text>
<polyline fill="none" stroke="#0058ad" points="466.5,-0.5 466.5,-29.5 "/>
<text text-anchor="middle" x="497" y="-11.3" font-family="Times,serif" font-size="14.00" fill="#0058ad">r 72 []</text>
</g>
<!-- T1816&#45;&gt;T1814 -->
<g id="edge2" class="edge">
<title>T1816:f1&#45;&gt;T1814:f2</title>
<path fill="none" stroke="#5b00c0" d="M160.5,-81C160.5,-36.3 211.86,-57.67 255.5,-48 272.14,-44.31 392.28,-48.27 423.89,-36.56"/>
<polygon fill="#5b00c0" stroke="#5b00c0" points="426.21,-39.18 431.5,-30 421.64,-33.88 426.21,-39.18"/>
<text text-anchor="middle" x="265" y="-51.8" font-family="Times,serif" font-size="14.00" fill="#5b00c0">rw</text>
</g>
<!-- T1814&#45;&gt;T1817 -->
<g id="edge4" class="edge">
<title>T1814:f2&#45;&gt;T1817:f1</title>
<path fill="none" stroke="#c02700" d="M431.5,-30C431.5,-85.11 431.5,-101.4 431.5,-151.81"/>
<polygon fill="#c02700" stroke="#c02700" points="428,-152 431.5,-162 435,-152 428,-152"/>
<text text-anchor="middle" x="444" y="-92.3" font-family="Times,serif" font-size="14.00" fill="#c02700">ww</text>
</g>
<!-- T1814&#45;&gt;T1816 -->
<g id="edge3" class="edge">
<title>T1814:f1&#45;&gt;T1816:f2</title>
<path fill="none" stroke="#5b00c0" d="M296.5,-30C296.5,-48.77 296.5,-55.88 296.5,-70.65"/>
<polygon fill="#5b00c0" stroke="#5b00c0" points="293,-71 296.5,-81 300,-71 293,-71"/>
<text text-anchor="middle" x="306" y="-51.8" font-family="Times,serif" font-size="14.00" fill="#5b00c0">rw</text>
</g>
</g>
</svg>
