<?xml version="1.0" encoding="UTF-8" standalone="no"?>
<!DOCTYPE svg PUBLIC "-//W3C//DTD SVG 1.1//EN"
 "http://www.w3.org/Graphics/SVG/1.1/DTD/svg11.dtd">
<!-- Generated by graphviz version 2.43.0 (0)
 -->
<!-- Title: a_graph Pages: 1 -->
<svg width="1145pt" height="119pt"
 viewBox="0.00 0.00 1145.00 119.00" xmlns="http://www.w3.org/2000/svg" xmlns:xlink="http://www.w3.org/1999/xlink">
<g id="graph0" class="graph" transform="scale(1 1) rotate(0) translate(4 115)">
<title>a_graph</title>
<polygon fill="white" stroke="transparent" points="-4,4 -4,-115 1141,-115 1141,4 -4,4"/>
<!-- T1817 -->
<g id="node1" class="node">
<title>T1817</title>
<polygon fill="none" stroke="#0058ad" points="0,-81.5 0,-110.5 1137,-110.5 1137,-81.5 0,-81.5"/>
<text text-anchor="middle" x="30.5" y="-92.3" font-family="Times,serif" font-size="14.00" fill="#0058ad">a 69 7</text>
<polyline fill="none" stroke="#0058ad" points="61,-81.5 61,-110.5 "/>
<text text-anchor="middle" x="123" y="-92.3" font-family="Times,serif" font-size="14.00" fill="#0058ad">r 69 [1 4 5 6 7]</text>
<polyline fill="none" stroke="#0058ad" points="185,-81.5 185,-110.5 "/>
<text text-anchor="middle" x="215.5" y="-92.3" font-family="Times,serif" font-size="14.00" fill="#0058ad">a 69 8</text>
<polyline fill="none" stroke="#0058ad" points="246,-81.5 246,-110.5 "/>
<text text-anchor="middle" x="436" y="-92.3" font-family="Times,serif" font-size="14.00" fill="#0058ad">r 67 [1 2 3 4 5 6 7 8 9 10 11 12 13 14 16 17 18 19]</text>
<polyline fill="none" stroke="#0058ad" points="626,-81.5 626,-110.5 "/>
<text text-anchor="middle" x="661" y="-92.3" font-family="Times,serif" font-size="14.00" fill="#0058ad">a 64 25</text>
<polyline fill="none" stroke="#0058ad" points="696,-81.5 696,-110.5 "/>
<text text-anchor="middle" x="726.5" y="-92.3" font-family="Times,serif" font-size="14.00" fill="#0058ad">a 69 9</text>
<polyline fill="none" stroke="#0058ad" points="757,-81.5 757,-110.5 "/>
<text text-anchor="middle" x="947" y="-92.3" font-family="Times,serif" font-size="14.00" fill="#0058ad">r 67 [1 2 3 4 5 6 7 8 9 10 11 12 13 14 16 17 18 19]</text>
</g>
<!-- T1816 -->
<g id="node2" class="node">
<title>T1816</title>
<polygon fill="none" stroke="#0058ad" points="166,-0.5 166,-29.5 1079,-29.5 1079,-0.5 166,-0.5"/>
<text text-anchor="middle" x="201" y="-11.3" font-family="Times,serif" font-size="14.00" fill="#0058ad">a 67 20</text>
<polyline fill="none" stroke="#0058ad" points="236,-0.5 236,-29.5 "/>
<text text-anchor="middle" x="291" y="-11.3" font-family="Times,serif" font-size="14.00" fill="#0058ad">r 69 [1 4 5 6]</text>
<polyline fill="none" stroke="#0058ad" points="346,-0.5 346,-29.5 "/>
<text text-anchor="middle" x="547.5" y="-11.3" font-family="Times,serif" font-size="14.00" fill="#0058ad">r 67 [1 2 3 4 5 6 7 8 9 10 11 12 13 14 16 17 18 19 20]</text>
<polyline fill="none" stroke="#0058ad" points="749,-0.5 749,-29.5 "/>
<text text-anchor="middle" x="804" y="-11.3" font-family="Times,serif" font-size="14.00" fill="#0058ad">r 69 [1 4 5 6]</text>
<polyline fill="none" stroke="#0058ad" points="859,-0.5 859,-29.5 "/>
<text text-anchor="middle" x="914" y="-11.3" font-family="Times,serif" font-size="14.00" fill="#0058ad">r 69 [1 4 5 6]</text>
<polyline fill="none" stroke="#0058ad" points="969,-0.5 969,-29.5 "/>
<text text-anchor="middle" x="1024" y="-11.3" font-family="Times,serif" font-size="14.00" fill="#0058ad">r 69 [1 4 5 6]</text>
</g>
<!-- T1817&#45;&gt;T1816 -->
<g id="edge1" class="edge">
<title>T1817:f3&#45;&gt;T1816:f0</title>
<path fill="none" stroke="#5b00c0" d="M435.5,-81C435.5,-57.58 246.01,-74.31 225.5,-63 212.79,-55.99 204.57,-50.95 201.67,-40.1"/>
<polygon fill="#5b00c0" stroke="#5b00c0" points="205.13,-39.53 200.5,-30 198.17,-40.34 205.13,-39.53"/>
<text text-anchor="middle" x="235" y="-51.8" font-family="Times,serif" font-size="14.00" fill="#5b00c0">rw</text>
</g>
<!-- T1816&#45;&gt;T1817 -->
<g id="edge2" class="edge">
<title>T1816:f1&#45;&gt;T1817:f0</title>
<path fill="none" stroke="#5b00c0" d="M290.5,-30C290.5,-55.16 268.11,-54.3 244.5,-63 224.73,-70.28 73.08,-60.14 37.81,-74.08"/>
<polygon fill="#5b00c0" stroke="#5b00c0" points="35.36,-71.58 30.5,-81 40.17,-76.67 35.36,-71.58"/>
<text text-anchor="middle" x="294" y="-51.8" font-family="Times,serif" font-size="14.00" fill="#5b00c0">rw</text>
</g>
</g>
</svg>
