<?xml version="1.0" encoding="UTF-8" standalone="no"?>
<!DOCTYPE svg PUBLIC "-//W3C//DTD SVG 1.1//EN"
 "http://www.w3.org/Graphics/SVG/1.1/DTD/svg11.dtd">
<!-- Generated by graphviz version 2.43.0 (0)
 -->
<!-- Title: a_graph Pages: 1 -->
<svg width="849pt" height="119pt"
 viewBox="0.00 0.00 849.00 119.00" xmlns="http://www.w3.org/2000/svg" xmlns:xlink="http://www.w3.org/1999/xlink">
<g id="graph0" class="graph" transform="scale(1 1) rotate(0) translate(4 115)">
<title>a_graph</title>
<polygon fill="white" stroke="transparent" points="-4,4 -4,-115 845,-115 845,4 -4,4"/>
<!-- T1173 -->
<g id="node1" class="node">
<title>T1173</title>
<polygon fill="none" stroke="#0058ad" points="59,-81.5 59,-110.5 841,-110.5 841,-81.5 59,-81.5"/>
<text text-anchor="middle" x="94" y="-92.3" font-family="Times,serif" font-size="14.00" fill="#0058ad">a 44 16</text>
<polyline fill="none" stroke="#0058ad" points="129,-81.5 129,-110.5 "/>
<text text-anchor="middle" x="285.5" y="-92.3" font-family="Times,serif" font-size="14.00" fill="#0058ad">r 40 [1 2 3 4 5 6 7 8 9 10 11 12 13 14 16]</text>
<polyline fill="none" stroke="#0058ad" points="442,-81.5 442,-110.5 "/>
<text text-anchor="middle" x="571.5" y="-92.3" font-family="Times,serif" font-size="14.00" fill="#0058ad">r 44 [1 2 3 4 5 11 12 13 14 15 16]</text>
<polyline fill="none" stroke="#0058ad" points="701,-81.5 701,-110.5 "/>
<text text-anchor="middle" x="736" y="-92.3" font-family="Times,serif" font-size="14.00" fill="#0058ad">a 44 17</text>
<polyline fill="none" stroke="#0058ad" points="771,-81.5 771,-110.5 "/>
<text text-anchor="middle" x="806" y="-92.3" font-family="Times,serif" font-size="14.00" fill="#0058ad">a 45 18</text>
</g>
<!-- T1172 -->
<g id="node2" class="node">
<title>T1172</title>
<polygon fill="none" stroke="#0058ad" points="0,-0.5 0,-29.5 376,-29.5 376,-0.5 0,-0.5"/>
<text text-anchor="middle" x="118" y="-11.3" font-family="Times,serif" font-size="14.00" fill="#0058ad">r 44 [1 2 3 4 5 11 12 13 14 15]</text>
<polyline fill="none" stroke="#0058ad" points="236,-0.5 236,-29.5 "/>
<text text-anchor="middle" x="271" y="-11.3" font-family="Times,serif" font-size="14.00" fill="#0058ad">a 40 17</text>
<polyline fill="none" stroke="#0058ad" points="306,-0.5 306,-29.5 "/>
<text text-anchor="middle" x="341" y="-11.3" font-family="Times,serif" font-size="14.00" fill="#0058ad">a 40 18</text>
</g>
<!-- T1173&#45;&gt;T1172 -->
<g id="edge1" class="edge">
<title>T1173:f1&#45;&gt;T1172:f1</title>
<path fill="none" stroke="#5b00c0" d="M285,-81C285,-61.35 275.22,-55.34 272.01,-40.17"/>
<polygon fill="#5b00c0" stroke="#5b00c0" points="275.47,-39.61 271,-30 268.5,-40.3 275.47,-39.61"/>
<text text-anchor="middle" x="290.5" y="-51.8" font-family="Times,serif" font-size="14.00" fill="#5b00c0">rw</text>
</g>
<!-- T1172&#45;&gt;T1173 -->
<g id="edge2" class="edge">
<title>T1172:f0&#45;&gt;T1173:f0</title>
<path fill="none" stroke="#5b00c0" d="M118,-30C118,-51.14 100.91,-55.08 95.57,-70.84"/>
<polygon fill="#5b00c0" stroke="#5b00c0" points="92.07,-70.58 94,-81 98.99,-71.65 92.07,-70.58"/>
<text text-anchor="middle" x="122.5" y="-51.8" font-family="Times,serif" font-size="14.00" fill="#5b00c0">rw</text>
</g>
</g>
</svg>
