<?xml version="1.0" encoding="UTF-8" standalone="no"?>
<!DOCTYPE svg PUBLIC "-//W3C//DTD SVG 1.1//EN"
 "http://www.w3.org/Graphics/SVG/1.1/DTD/svg11.dtd">
<!-- Generated by graphviz version 2.43.0 (0)
 -->
<!-- Title: a_graph Pages: 1 -->
<svg width="2226pt" height="119pt"
 viewBox="0.00 0.00 2226.00 119.00" xmlns="http://www.w3.org/2000/svg" xmlns:xlink="http://www.w3.org/1999/xlink">
<g id="graph0" class="graph" transform="scale(1 1) rotate(0) translate(4 115)">
<title>a_graph</title>
<polygon fill="white" stroke="transparent" points="-4,4 -4,-115 2222,-115 2222,4 -4,4"/>
<!-- T1937 -->
<g id="node1" class="node">
<title>T1937</title>
<polygon fill="none" stroke="#0058ad" points="0,-81.5 0,-110.5 1581,-110.5 1581,-81.5 0,-81.5"/>
<text text-anchor="middle" x="246.5" y="-92.3" font-family="Times,serif" font-size="14.00" fill="#0058ad">r 73 [1 2 3 4 5 6 7 8 9 10 11 12 13 14 15 16 17 18 19 20 21 22 23]</text>
<polyline fill="none" stroke="#0058ad" points="493,-81.5 493,-110.5 "/>
<text text-anchor="middle" x="528" y="-92.3" font-family="Times,serif" font-size="14.00" fill="#0058ad">a 71 18</text>
<polyline fill="none" stroke="#0058ad" points="563,-81.5 563,-110.5 "/>
<text text-anchor="middle" x="598" y="-92.3" font-family="Times,serif" font-size="14.00" fill="#0058ad">a 74 16</text>
<polyline fill="none" stroke="#0058ad" points="633,-81.5 633,-110.5 "/>
<text text-anchor="middle" x="800.5" y="-92.3" font-family="Times,serif" font-size="14.00" fill="#0058ad">r 74 [1 2 3 4 5 6 7 8 9 10 11 12 13 14 15 16]</text>
<polyline fill="none" stroke="#0058ad" points="968,-81.5 968,-110.5 "/>
<text text-anchor="middle" x="1003" y="-92.3" font-family="Times,serif" font-size="14.00" fill="#0058ad">a 74 17</text>
<polyline fill="none" stroke="#0058ad" points="1038,-81.5 1038,-110.5 "/>
<text text-anchor="middle" x="1073" y="-92.3" font-family="Times,serif" font-size="14.00" fill="#0058ad">a 74 18</text>
<polyline fill="none" stroke="#0058ad" points="1108,-81.5 1108,-110.5 "/>
<text text-anchor="middle" x="1143" y="-92.3" font-family="Times,serif" font-size="14.00" fill="#0058ad">a 74 19</text>
<polyline fill="none" stroke="#0058ad" points="1178,-81.5 1178,-110.5 "/>
<text text-anchor="middle" x="1379.5" y="-92.3" font-family="Times,serif" font-size="14.00" fill="#0058ad">r 74 [1 2 3 4 5 6 7 8 9 10 11 12 13 14 15 16 17 18 19]</text>
</g>
<!-- T1936 -->
<g id="node2" class="node">
<title>T1936</title>
<polygon fill="none" stroke="#0058ad" points="311,-0.5 311,-29.5 2218,-29.5 2218,-0.5 311,-0.5"/>
<text text-anchor="middle" x="346" y="-11.3" font-family="Times,serif" font-size="14.00" fill="#0058ad">a 73 24</text>
<polyline fill="none" stroke="#0058ad" points="381,-0.5 381,-29.5 "/>
<text text-anchor="middle" x="537.5" y="-11.3" font-family="Times,serif" font-size="14.00" fill="#0058ad">r 74 [1 2 3 4 5 6 7 8 9 10 11 12 13 14 15]</text>
<polyline fill="none" stroke="#0058ad" points="694,-0.5 694,-29.5 "/>
<text text-anchor="middle" x="850.5" y="-11.3" font-family="Times,serif" font-size="14.00" fill="#0058ad">r 74 [1 2 3 4 5 6 7 8 9 10 11 12 13 14 15]</text>
<polyline fill="none" stroke="#0058ad" points="1007,-0.5 1007,-29.5 "/>
<text text-anchor="middle" x="1264.5" y="-11.3" font-family="Times,serif" font-size="14.00" fill="#0058ad">r 73 [1 2 3 4 5 6 7 8 9 10 11 12 13 14 15 16 17 18 19 20 21 22 23 24]</text>
<polyline fill="none" stroke="#0058ad" points="1522,-0.5 1522,-29.5 "/>
<text text-anchor="middle" x="1678.5" y="-11.3" font-family="Times,serif" font-size="14.00" fill="#0058ad">r 74 [1 2 3 4 5 6 7 8 9 10 11 12 13 14 15]</text>
<polyline fill="none" stroke="#0058ad" points="1835,-0.5 1835,-29.5 "/>
<text text-anchor="middle" x="1991.5" y="-11.3" font-family="Times,serif" font-size="14.00" fill="#0058ad">r 74 [1 2 3 4 5 6 7 8 9 10 11 12 13 14 15]</text>
<polyline fill="none" stroke="#0058ad" points="2148,-0.5 2148,-29.5 "/>
<text text-anchor="middle" x="2183" y="-11.3" font-family="Times,serif" font-size="14.00" fill="#0058ad">a 73 25</text>
</g>
<!-- T1937&#45;&gt;T1936 -->
<g id="edge1" class="edge">
<title>T1937:f0&#45;&gt;T1936:f0</title>
<path fill="none" stroke="#5b00c0" d="M246.5,-81C246.5,-43.93 265.26,-19.49 299.45,-15.56"/>
<polygon fill="#5b00c0" stroke="#5b00c0" points="299.71,-19.05 309.5,-15 299.32,-12.06 299.71,-19.05"/>
<text text-anchor="middle" x="262" y="-51.8" font-family="Times,serif" font-size="14.00" fill="#5b00c0">rw</text>
</g>
<!-- T1936&#45;&gt;T1937 -->
<g id="edge2" class="edge">
<title>T1936:f1&#45;&gt;T1937:f2</title>
<path fill="none" stroke="#5b00c0" d="M537.5,-30C537.5,-61.03 584.68,-49.61 595.36,-71.03"/>
<polygon fill="#5b00c0" stroke="#5b00c0" points="591.98,-71.95 597.5,-81 598.83,-70.49 591.98,-71.95"/>
<text text-anchor="middle" x="597" y="-51.8" font-family="Times,serif" font-size="14.00" fill="#5b00c0">rw</text>
</g>
</g>
</svg>
