<?xml version="1.0" encoding="UTF-8" standalone="no"?>
<!DOCTYPE svg PUBLIC "-//W3C//DTD SVG 1.1//EN"
 "http://www.w3.org/Graphics/SVG/1.1/DTD/svg11.dtd">
<!-- Generated by graphviz version 2.43.0 (0)
 -->
<!-- Title: a_graph Pages: 1 -->
<svg width="900pt" height="119pt"
 viewBox="0.00 0.00 899.50 119.00" xmlns="http://www.w3.org/2000/svg" xmlns:xlink="http://www.w3.org/1999/xlink">
<g id="graph0" class="graph" transform="scale(1 1) rotate(0) translate(4 115)">
<title>a_graph</title>
<polygon fill="white" stroke="transparent" points="-4,4 -4,-115 895.5,-115 895.5,4 -4,4"/>
<!-- T1954 -->
<g id="node1" class="node">
<title>T1954</title>
<polygon fill="none" stroke="#0058ad" points="265.5,-81.5 265.5,-110.5 891.5,-110.5 891.5,-81.5 265.5,-81.5"/>
<text text-anchor="middle" x="300.5" y="-92.3" font-family="Times,serif" font-size="14.00" fill="#0058ad">a 71 20</text>
<polyline fill="none" stroke="#0058ad" points="335.5,-81.5 335.5,-110.5 "/>
<text text-anchor="middle" x="370.5" y="-92.3" font-family="Times,serif" font-size="14.00" fill="#0058ad">a 74 32</text>
<polyline fill="none" stroke="#0058ad" points="405.5,-81.5 405.5,-110.5 "/>
<text text-anchor="middle" x="436" y="-92.3" font-family="Times,serif" font-size="14.00" fill="#0058ad">r 76 []</text>
<polyline fill="none" stroke="#0058ad" points="466.5,-81.5 466.5,-110.5 "/>
<text text-anchor="middle" x="679" y="-92.3" font-family="Times,serif" font-size="14.00" fill="#0058ad">r 71 [1 2 3 4 5 6 7 8 9 10 11 12 13 14 15 16 17 18 19 20]</text>
</g>
<!-- T1955 -->
<g id="node2" class="node">
<title>T1955</title>
<polygon fill="none" stroke="#0058ad" points="0,-0.5 0,-29.5 669,-29.5 669,-0.5 0,-0.5"/>
<text text-anchor="middle" x="201.5" y="-11.3" font-family="Times,serif" font-size="14.00" fill="#0058ad">r 71 [1 2 3 4 5 6 7 8 9 10 11 12 13 14 15 16 17 18 19]</text>
<polyline fill="none" stroke="#0058ad" points="403,-0.5 403,-29.5 "/>
<text text-anchor="middle" x="433.5" y="-11.3" font-family="Times,serif" font-size="14.00" fill="#0058ad">r 76 []</text>
<polyline fill="none" stroke="#0058ad" points="464,-0.5 464,-29.5 "/>
<text text-anchor="middle" x="494.5" y="-11.3" font-family="Times,serif" font-size="14.00" fill="#0058ad">a 76 1</text>
<polyline fill="none" stroke="#0058ad" points="525,-0.5 525,-29.5 "/>
<text text-anchor="middle" x="555.5" y="-11.3" font-family="Times,serif" font-size="14.00" fill="#0058ad">a 76 2</text>
<polyline fill="none" stroke="#0058ad" points="586,-0.5 586,-29.5 "/>
<text text-anchor="middle" x="627.5" y="-11.3" font-family="Times,serif" font-size="14.00" fill="#0058ad">r 76 [1 2]</text>
</g>
<!-- T1954&#45;&gt;T1955 -->
<g id="edge1" class="edge">
<title>T1954:f2&#45;&gt;T1955:f2</title>
<path fill="none" stroke="#5b00c0" d="M435.5,-81C435.5,-50.27 481.89,-61.19 492.4,-39.89"/>
<polygon fill="#5b00c0" stroke="#5b00c0" points="495.85,-40.51 494.5,-30 489,-39.06 495.85,-40.51"/>
<text text-anchor="middle" x="494" y="-51.8" font-family="Times,serif" font-size="14.00" fill="#5b00c0">rw</text>
</g>
<!-- T1955&#45;&gt;T1954 -->
<g id="edge2" class="edge">
<title>T1955:f0&#45;&gt;T1954:f0</title>
<path fill="none" stroke="#5b00c0" d="M201.5,-30C201.5,-67.07 220.26,-91.51 254.45,-95.44"/>
<polygon fill="#5b00c0" stroke="#5b00c0" points="254.32,-98.94 264.5,-96 254.71,-91.95 254.32,-98.94"/>
<text text-anchor="middle" x="217" y="-51.8" font-family="Times,serif" font-size="14.00" fill="#5b00c0">rw</text>
</g>
</g>
</svg>
