<?xml version="1.0" encoding="UTF-8" standalone="no"?>
<!DOCTYPE svg PUBLIC "-//W3C//DTD SVG 1.1//EN"
 "http://www.w3.org/Graphics/SVG/1.1/DTD/svg11.dtd">
<!-- Generated by graphviz version 2.43.0 (0)
 -->
<!-- Title: a_graph Pages: 1 -->
<svg width="2182pt" height="119pt"
 viewBox="0.00 0.00 2182.00 119.00" xmlns="http://www.w3.org/2000/svg" xmlns:xlink="http://www.w3.org/1999/xlink">
<g id="graph0" class="graph" transform="scale(1 1) rotate(0) translate(4 115)">
<title>a_graph</title>
<polygon fill="white" stroke="transparent" points="-4,4 -4,-115 2178,-115 2178,4 -4,4"/>
<!-- T1221 -->
<g id="node1" class="node">
<title>T1221</title>
<polygon fill="none" stroke="#0058ad" points="258.5,-81.5 258.5,-110.5 1147.5,-110.5 1147.5,-81.5 258.5,-81.5"/>
<text text-anchor="middle" x="347.5" y="-92.3" font-family="Times,serif" font-size="14.00" fill="#0058ad">r 44 [1 2 3 4 5 6 7 8 9]</text>
<polyline fill="none" stroke="#0058ad" points="436.5,-81.5 436.5,-110.5 "/>
<text text-anchor="middle" x="467" y="-92.3" font-family="Times,serif" font-size="14.00" fill="#0058ad">a 45 1</text>
<polyline fill="none" stroke="#0058ad" points="497.5,-81.5 497.5,-110.5 "/>
<text text-anchor="middle" x="822.5" y="-92.3" font-family="Times,serif" font-size="14.00" fill="#0058ad">r 43 [1 2 3 4 5 6 7 8 9 10 11 12 13 14 15 16 17 18 19 20 21 22 23 24 25 26 27 28 29 31]</text>
</g>
<!-- T1222 -->
<g id="node2" class="node">
<title>T1222</title>
<polygon fill="none" stroke="#0058ad" points="0,-0.5 0,-29.5 2174,-29.5 2174,-0.5 0,-0.5"/>
<text text-anchor="middle" x="30.5" y="-11.3" font-family="Times,serif" font-size="14.00" fill="#0058ad">r 45 []</text>
<polyline fill="none" stroke="#0058ad" points="61,-0.5 61,-29.5 "/>
<text text-anchor="middle" x="386" y="-11.3" font-family="Times,serif" font-size="14.00" fill="#0058ad">r 43 [1 2 3 4 5 6 7 8 9 10 11 12 13 14 15 16 17 18 19 20 21 22 23 24 25 26 27 28 29 31]</text>
<polyline fill="none" stroke="#0058ad" points="711,-0.5 711,-29.5 "/>
<text text-anchor="middle" x="746" y="-11.3" font-family="Times,serif" font-size="14.00" fill="#0058ad">a 44 10</text>
<polyline fill="none" stroke="#0058ad" points="781,-0.5 781,-29.5 "/>
<text text-anchor="middle" x="1106" y="-11.3" font-family="Times,serif" font-size="14.00" fill="#0058ad">r 43 [1 2 3 4 5 6 7 8 9 10 11 12 13 14 15 16 17 18 19 20 21 22 23 24 25 26 27 28 29 31]</text>
<polyline fill="none" stroke="#0058ad" points="1431,-0.5 1431,-29.5 "/>
<text text-anchor="middle" x="1466" y="-11.3" font-family="Times,serif" font-size="14.00" fill="#0058ad">a 43 32</text>
<polyline fill="none" stroke="#0058ad" points="1501,-0.5 1501,-29.5 "/>
<text text-anchor="middle" x="1837.5" y="-11.3" font-family="Times,serif" font-size="14.00" fill="#0058ad">r 43 [1 2 3 4 5 6 7 8 9 10 11 12 13 14 15 16 17 18 19 20 21 22 23 24 25 26 27 28 29 31 32]</text>
</g>
<!-- T1221&#45;&gt;T1222 -->
<g id="edge1" class="edge">
<title>T1221:f0&#45;&gt;T1222:f2</title>
<path fill="none" stroke="#5b00c0" d="M347,-81C347,-57.95 365.51,-56.33 387,-48 403.84,-41.47 683.8,-48.36 737.23,-34.97"/>
<polygon fill="#5b00c0" stroke="#5b00c0" points="739.03,-37.98 746,-30 735.57,-31.89 739.03,-37.98"/>
<text text-anchor="middle" x="396.5" y="-51.8" font-family="Times,serif" font-size="14.00" fill="#5b00c0">rw</text>
</g>
<!-- T1222&#45;&gt;T1221 -->
<g id="edge2" class="edge">
<title>T1222:f0&#45;&gt;T1221:f1</title>
<path fill="none" stroke="#5b00c0" d="M30,-30C30,-50.91 385.86,-42.38 406,-48 431.98,-55.24 459.2,-51.48 465.6,-71.07"/>
<polygon fill="#5b00c0" stroke="#5b00c0" points="462.13,-71.59 467,-81 469.07,-70.61 462.13,-71.59"/>
<text text-anchor="middle" x="470.5" y="-51.8" font-family="Times,serif" font-size="14.00" fill="#5b00c0">rw</text>
</g>
</g>
</svg>
