<?xml version="1.0" encoding="UTF-8" standalone="no"?>
<!DOCTYPE svg PUBLIC "-//W3C//DTD SVG 1.1//EN"
 "http://www.w3.org/Graphics/SVG/1.1/DTD/svg11.dtd">
<!-- Generated by graphviz version 2.43.0 (0)
 -->
<!-- Title: a_graph Pages: 1 -->
<svg width="997pt" height="119pt"
 viewBox="0.00 0.00 997.00 119.00" xmlns="http://www.w3.org/2000/svg" xmlns:xlink="http://www.w3.org/1999/xlink">
<g id="graph0" class="graph" transform="scale(1 1) rotate(0) translate(4 115)">
<title>a_graph</title>
<polygon fill="white" stroke="transparent" points="-4,4 -4,-115 993,-115 993,4 -4,4"/>
<!-- T1675 -->
<g id="node1" class="node">
<title>T1675</title>
<polygon fill="none" stroke="#0058ad" points="0,-81.5 0,-110.5 989,-110.5 989,-81.5 0,-81.5"/>
<text text-anchor="middle" x="30.5" y="-92.3" font-family="Times,serif" font-size="14.00" fill="#0058ad">a 61 8</text>
<polyline fill="none" stroke="#0058ad" points="61,-81.5 61,-110.5 "/>
<text text-anchor="middle" x="143" y="-92.3" font-family="Times,serif" font-size="14.00" fill="#0058ad">r 61 [1 2 3 4 5 6 7 8]</text>
<polyline fill="none" stroke="#0058ad" points="225,-81.5 225,-110.5 "/>
<text text-anchor="middle" x="471.5" y="-92.3" font-family="Times,serif" font-size="14.00" fill="#0058ad">r 59 [1 2 3 4 5 6 7 8 9 10 11 12 13 14 15 16 17 18 19 20 21 22 23]</text>
<polyline fill="none" stroke="#0058ad" points="718,-81.5 718,-110.5 "/>
<text text-anchor="middle" x="753" y="-92.3" font-family="Times,serif" font-size="14.00" fill="#0058ad">a 59 24</text>
<polyline fill="none" stroke="#0058ad" points="788,-81.5 788,-110.5 "/>
<text text-anchor="middle" x="818.5" y="-92.3" font-family="Times,serif" font-size="14.00" fill="#0058ad">a 61 9</text>
<polyline fill="none" stroke="#0058ad" points="849,-81.5 849,-110.5 "/>
<text text-anchor="middle" x="884" y="-92.3" font-family="Times,serif" font-size="14.00" fill="#0058ad">a 61 10</text>
<polyline fill="none" stroke="#0058ad" points="919,-81.5 919,-110.5 "/>
<text text-anchor="middle" x="954" y="-92.3" font-family="Times,serif" font-size="14.00" fill="#0058ad">r 62 [1]</text>
</g>
<!-- T1674 -->
<g id="node2" class="node">
<title>T1674</title>
<polygon fill="none" stroke="#0058ad" points="158,-0.5 158,-29.5 733,-29.5 733,-0.5 158,-0.5"/>
<text text-anchor="middle" x="188.5" y="-11.3" font-family="Times,serif" font-size="14.00" fill="#0058ad">a 62 2</text>
<polyline fill="none" stroke="#0058ad" points="219,-0.5 219,-29.5 "/>
<text text-anchor="middle" x="249.5" y="-11.3" font-family="Times,serif" font-size="14.00" fill="#0058ad">a 62 3</text>
<polyline fill="none" stroke="#0058ad" points="280,-0.5 280,-29.5 "/>
<text text-anchor="middle" x="355.5" y="-11.3" font-family="Times,serif" font-size="14.00" fill="#0058ad">r 61 [1 2 3 4 5 6 7]</text>
<polyline fill="none" stroke="#0058ad" points="431,-0.5 431,-29.5 "/>
<text text-anchor="middle" x="506.5" y="-11.3" font-family="Times,serif" font-size="14.00" fill="#0058ad">r 61 [1 2 3 4 5 6 7]</text>
<polyline fill="none" stroke="#0058ad" points="582,-0.5 582,-29.5 "/>
<text text-anchor="middle" x="657.5" y="-11.3" font-family="Times,serif" font-size="14.00" fill="#0058ad">r 61 [1 2 3 4 5 6 7]</text>
</g>
<!-- T1675&#45;&gt;T1674 -->
<g id="edge1" class="edge">
<title>T1675:f6&#45;&gt;T1674:f0</title>
<path fill="none" stroke="#5b00c0" d="M954.5,-81C954.5,-61.07 285.46,-52.47 197.91,-34.03"/>
<polygon fill="#5b00c0" stroke="#5b00c0" points="199.07,-30.72 188.5,-30 196.32,-37.15 199.07,-30.72"/>
<text text-anchor="middle" x="758" y="-51.8" font-family="Times,serif" font-size="14.00" fill="#5b00c0">rw</text>
</g>
<!-- T1674&#45;&gt;T1675 -->
<g id="edge2" class="edge">
<title>T1674:f2&#45;&gt;T1675:f0</title>
<path fill="none" stroke="#5b00c0" d="M355.5,-30C355.5,-172.64 46.18,53.65 31.07,-70.97"/>
<polygon fill="#5b00c0" stroke="#5b00c0" points="27.57,-70.82 30.5,-81 34.56,-71.22 27.57,-70.82"/>
<text text-anchor="middle" x="361" y="-51.8" font-family="Times,serif" font-size="14.00" fill="#5b00c0">rw</text>
</g>
</g>
</svg>
