<?xml version="1.0" encoding="UTF-8" standalone="no"?>
<!DOCTYPE svg PUBLIC "-//W3C//DTD SVG 1.1//EN"
 "http://www.w3.org/Graphics/SVG/1.1/DTD/svg11.dtd">
<!-- Generated by graphviz version 2.43.0 (0)
 -->
<!-- Title: a_graph Pages: 1 -->
<svg width="2108pt" height="119pt"
 viewBox="0.00 0.00 2108.00 119.00" xmlns="http://www.w3.org/2000/svg" xmlns:xlink="http://www.w3.org/1999/xlink">
<g id="graph0" class="graph" transform="scale(1 1) rotate(0) translate(4 115)">
<title>a_graph</title>
<polygon fill="white" stroke="transparent" points="-4,4 -4,-115 2104,-115 2104,4 -4,4"/>
<!-- T1327 -->
<g id="node1" class="node">
<title>T1327</title>
<polygon fill="none" stroke="#0058ad" points="0,-81.5 0,-110.5 1510,-110.5 1510,-81.5 0,-81.5"/>
<text text-anchor="middle" x="257.5" y="-92.3" font-family="Times,serif" font-size="14.00" fill="#0058ad">r 44 [1 2 3 4 5 6 7 8 9 10 11 12 13 14 15 16 17 18 19 20 21 22 23 27]</text>
<polyline fill="none" stroke="#0058ad" points="515,-81.5 515,-110.5 "/>
<text text-anchor="middle" x="772.5" y="-92.3" font-family="Times,serif" font-size="14.00" fill="#0058ad">r 44 [1 2 3 4 5 6 7 8 9 10 11 12 13 14 15 16 17 18 19 20 21 22 23 27]</text>
<polyline fill="none" stroke="#0058ad" points="1030,-81.5 1030,-110.5 "/>
<text text-anchor="middle" x="1204.5" y="-92.3" font-family="Times,serif" font-size="14.00" fill="#0058ad">r 47 [1 2 3 4 5 10 11 12 17 18 19 21 22 23 24]</text>
<polyline fill="none" stroke="#0058ad" points="1379,-81.5 1379,-110.5 "/>
<text text-anchor="middle" x="1414" y="-92.3" font-family="Times,serif" font-size="14.00" fill="#0058ad">r 48 [1]</text>
<polyline fill="none" stroke="#0058ad" points="1449,-81.5 1449,-110.5 "/>
<text text-anchor="middle" x="1479.5" y="-92.3" font-family="Times,serif" font-size="14.00" fill="#0058ad">a 48 2</text>
</g>
<!-- T1328 -->
<g id="node2" class="node">
<title>T1328</title>
<polygon fill="none" stroke="#0058ad" points="860,-0.5 860,-29.5 2100,-29.5 2100,-0.5 860,-0.5"/>
<text text-anchor="middle" x="895" y="-11.3" font-family="Times,serif" font-size="14.00" fill="#0058ad">a 47 25</text>
<polyline fill="none" stroke="#0058ad" points="930,-0.5 930,-29.5 "/>
<text text-anchor="middle" x="1187.5" y="-11.3" font-family="Times,serif" font-size="14.00" fill="#0058ad">r 44 [1 2 3 4 5 6 7 8 9 10 11 12 13 14 15 16 17 18 19 20 21 22 23 27]</text>
<polyline fill="none" stroke="#0058ad" points="1445,-0.5 1445,-29.5 "/>
<text text-anchor="middle" x="1702.5" y="-11.3" font-family="Times,serif" font-size="14.00" fill="#0058ad">r 44 [1 2 3 4 5 6 7 8 9 10 11 12 13 14 15 16 17 18 19 20 21 22 23 27]</text>
<polyline fill="none" stroke="#0058ad" points="1960,-0.5 1960,-29.5 "/>
<text text-anchor="middle" x="1995" y="-11.3" font-family="Times,serif" font-size="14.00" fill="#0058ad">r 48 [1]</text>
<polyline fill="none" stroke="#0058ad" points="2030,-0.5 2030,-29.5 "/>
<text text-anchor="middle" x="2065" y="-11.3" font-family="Times,serif" font-size="14.00" fill="#0058ad">a 47 26</text>
</g>
<!-- T1327&#45;&gt;T1328 -->
<g id="edge1" class="edge">
<title>T1327:f2&#45;&gt;T1328:f0</title>
<path fill="none" stroke="#5b00c0" d="M1205,-81C1205,54.95 911.13,-157.85 895.64,-40.29"/>
<polygon fill="#5b00c0" stroke="#5b00c0" points="899.11,-39.77 895,-30 892.12,-40.2 899.11,-39.77"/>
<text text-anchor="middle" x="1211.5" y="-51.8" font-family="Times,serif" font-size="14.00" fill="#5b00c0">rw</text>
</g>
<!-- T1328&#45;&gt;T1327 -->
<g id="edge2" class="edge">
<title>T1328:f3&#45;&gt;T1327:f4</title>
<path fill="none" stroke="#5b00c0" d="M1995,-30C1995,-81.73 1604.62,-94.81 1521.02,-95.92"/>
<polygon fill="#5b00c0" stroke="#5b00c0" points="1520.97,-92.42 1511,-96 1521.03,-99.42 1520.97,-92.42"/>
<text text-anchor="middle" x="1980.5" y="-51.8" font-family="Times,serif" font-size="14.00" fill="#5b00c0">rw</text>
</g>
</g>
</svg>
