<?xml version="1.0" encoding="UTF-8" standalone="no"?>
<!DOCTYPE svg PUBLIC "-//W3C//DTD SVG 1.1//EN"
 "http://www.w3.org/Graphics/SVG/1.1/DTD/svg11.dtd">
<!-- Generated by graphviz version 2.43.0 (0)
 -->
<!-- Title: a_graph Pages: 1 -->
<svg width="2220pt" height="119pt"
 viewBox="0.00 0.00 2219.50 119.00" xmlns="http://www.w3.org/2000/svg" xmlns:xlink="http://www.w3.org/1999/xlink">
<g id="graph0" class="graph" transform="scale(1 1) rotate(0) translate(4 115)">
<title>a_graph</title>
<polygon fill="white" stroke="transparent" points="-4,4 -4,-115 2215.5,-115 2215.5,4 -4,4"/>
<!-- T986 -->
<g id="node1" class="node">
<title>T986</title>
<polygon fill="none" stroke="#0058ad" points="24.5,-81.5 24.5,-110.5 2211.5,-110.5 2211.5,-81.5 24.5,-81.5"/>
<text text-anchor="middle" x="214.5" y="-92.3" font-family="Times,serif" font-size="14.00" fill="#0058ad">r 36 [1 2 3 4 5 6 7 8 9 10 11 12 13 14 15 16 17 18]</text>
<polyline fill="none" stroke="#0058ad" points="404.5,-81.5 404.5,-110.5 "/>
<text text-anchor="middle" x="594.5" y="-92.3" font-family="Times,serif" font-size="14.00" fill="#0058ad">r 36 [1 2 3 4 5 6 7 8 9 10 11 12 13 14 15 16 17 18]</text>
<polyline fill="none" stroke="#0058ad" points="784.5,-81.5 784.5,-110.5 "/>
<text text-anchor="middle" x="974.5" y="-92.3" font-family="Times,serif" font-size="14.00" fill="#0058ad">r 36 [1 2 3 4 5 6 7 8 9 10 11 12 13 14 15 16 17 18]</text>
<polyline fill="none" stroke="#0058ad" points="1164.5,-81.5 1164.5,-110.5 "/>
<text text-anchor="middle" x="1199.5" y="-92.3" font-family="Times,serif" font-size="14.00" fill="#0058ad">a 36 19</text>
<polyline fill="none" stroke="#0058ad" points="1234.5,-81.5 1234.5,-110.5 "/>
<text text-anchor="middle" x="1269.5" y="-92.3" font-family="Times,serif" font-size="14.00" fill="#0058ad">a 34 28</text>
<polyline fill="none" stroke="#0058ad" points="1304.5,-81.5 1304.5,-110.5 "/>
<text text-anchor="middle" x="1521.5" y="-92.3" font-family="Times,serif" font-size="14.00" fill="#0058ad">r 33 [1 2 3 4 5 7 8 9 11 13 14 15 18 19 21 22 23 24 25 26]</text>
<polyline fill="none" stroke="#0058ad" points="1738.5,-81.5 1738.5,-110.5 "/>
<text text-anchor="middle" x="1940" y="-92.3" font-family="Times,serif" font-size="14.00" fill="#0058ad">r 36 [1 2 3 4 5 6 7 8 9 10 11 12 13 14 15 16 17 18 19]</text>
<polyline fill="none" stroke="#0058ad" points="2141.5,-81.5 2141.5,-110.5 "/>
<text text-anchor="middle" x="2176.5" y="-92.3" font-family="Times,serif" font-size="14.00" fill="#0058ad">a 34 29</text>
</g>
<!-- T985 -->
<g id="node2" class="node">
<title>T985</title>
<polygon fill="none" stroke="#0058ad" points="0,-0.5 0,-29.5 1738,-29.5 1738,-0.5 0,-0.5"/>
<text text-anchor="middle" x="35" y="-11.3" font-family="Times,serif" font-size="14.00" fill="#0058ad">a 35 28</text>
<polyline fill="none" stroke="#0058ad" points="70,-0.5 70,-29.5 "/>
<text text-anchor="middle" x="105" y="-11.3" font-family="Times,serif" font-size="14.00" fill="#0058ad">a 35 29</text>
<polyline fill="none" stroke="#0058ad" points="140,-0.5 140,-29.5 "/>
<text text-anchor="middle" x="175" y="-11.3" font-family="Times,serif" font-size="14.00" fill="#0058ad">a 35 30</text>
<polyline fill="none" stroke="#0058ad" points="210,-0.5 210,-29.5 "/>
<text text-anchor="middle" x="492.5" y="-11.3" font-family="Times,serif" font-size="14.00" fill="#0058ad">r 35 [1 3 4 7 8 9 12 13 14 16 17 18 19 20 21 22 23 24 25 26 27 32 28 29 30]</text>
<polyline fill="none" stroke="#0058ad" points="775,-0.5 775,-29.5 "/>
<text text-anchor="middle" x="969.5" y="-11.3" font-family="Times,serif" font-size="14.00" fill="#0058ad">r 34 [6 7 8 11 13 14 16 17 18 19 20 21 22 23 26 27]</text>
<polyline fill="none" stroke="#0058ad" points="1164,-0.5 1164,-29.5 "/>
<text text-anchor="middle" x="1199" y="-11.3" font-family="Times,serif" font-size="14.00" fill="#0058ad">a 35 31</text>
<polyline fill="none" stroke="#0058ad" points="1234,-0.5 1234,-29.5 "/>
<text text-anchor="middle" x="1451" y="-11.3" font-family="Times,serif" font-size="14.00" fill="#0058ad">r 33 [1 2 3 4 5 7 8 9 11 13 14 15 18 19 21 22 23 24 25 26]</text>
<polyline fill="none" stroke="#0058ad" points="1668,-0.5 1668,-29.5 "/>
<text text-anchor="middle" x="1703" y="-11.3" font-family="Times,serif" font-size="14.00" fill="#0058ad">a 33 20</text>
</g>
<!-- T986&#45;&gt;T985 -->
<g id="edge1" class="edge">
<title>T986:f5&#45;&gt;T985:f7</title>
<path fill="none" stroke="#5b00c0" d="M1522,-81C1522,-1.18 1687.1,-103.54 1701.94,-40.09"/>
<polygon fill="#5b00c0" stroke="#5b00c0" points="1705.43,-40.31 1703,-30 1698.47,-39.58 1705.43,-40.31"/>
<text text-anchor="middle" x="1706.5" y="-51.8" font-family="Times,serif" font-size="14.00" fill="#5b00c0">rw</text>
</g>
<!-- T985&#45;&gt;T986 -->
<g id="edge2" class="edge">
<title>T985:f4&#45;&gt;T986:f4</title>
<path fill="none" stroke="#5b00c0" d="M970,-30C970,-161.55 1253.82,42.51 1269.34,-70.69"/>
<polygon fill="#5b00c0" stroke="#5b00c0" points="1265.87,-71.24 1270,-81 1272.85,-70.8 1265.87,-71.24"/>
<text text-anchor="middle" x="1275.5" y="-51.8" font-family="Times,serif" font-size="14.00" fill="#5b00c0">rw</text>
</g>
</g>
</svg>
