<?xml version="1.0" encoding="UTF-8" standalone="no"?>
<!DOCTYPE svg PUBLIC "-//W3C//DTD SVG 1.1//EN"
 "http://www.w3.org/Graphics/SVG/1.1/DTD/svg11.dtd">
<!-- Generated by graphviz version 2.43.0 (0)
 -->
<!-- Title: a_graph Pages: 1 -->
<svg width="727pt" height="119pt"
 viewBox="0.00 0.00 726.50 119.00" xmlns="http://www.w3.org/2000/svg" xmlns:xlink="http://www.w3.org/1999/xlink">
<g id="graph0" class="graph" transform="scale(1 1) rotate(0) translate(4 115)">
<title>a_graph</title>
<polygon fill="white" stroke="transparent" points="-4,4 -4,-115 722.5,-115 722.5,4 -4,4"/>
<!-- T1599 -->
<g id="node1" class="node">
<title>T1599</title>
<polygon fill="none" stroke="#0058ad" points="73.5,-81.5 73.5,-110.5 718.5,-110.5 718.5,-81.5 73.5,-81.5"/>
<text text-anchor="middle" x="108.5" y="-92.3" font-family="Times,serif" font-size="14.00" fill="#0058ad">a 61 14</text>
<polyline fill="none" stroke="#0058ad" points="143.5,-81.5 143.5,-110.5 "/>
<text text-anchor="middle" x="178.5" y="-92.3" font-family="Times,serif" font-size="14.00" fill="#0058ad">a 61 15</text>
<polyline fill="none" stroke="#0058ad" points="213.5,-81.5 213.5,-110.5 "/>
<text text-anchor="middle" x="248.5" y="-92.3" font-family="Times,serif" font-size="14.00" fill="#0058ad">a 58 26</text>
<polyline fill="none" stroke="#0058ad" points="283.5,-81.5 283.5,-110.5 "/>
<text text-anchor="middle" x="314" y="-92.3" font-family="Times,serif" font-size="14.00" fill="#0058ad">r 62 []</text>
<polyline fill="none" stroke="#0058ad" points="344.5,-81.5 344.5,-110.5 "/>
<text text-anchor="middle" x="501" y="-92.3" font-family="Times,serif" font-size="14.00" fill="#0058ad">r 61 [1 2 3 4 5 6 7 8 9 10 11 12 13 14 15]</text>
<polyline fill="none" stroke="#0058ad" points="657.5,-81.5 657.5,-110.5 "/>
<text text-anchor="middle" x="688" y="-92.3" font-family="Times,serif" font-size="14.00" fill="#0058ad">r 62 []</text>
</g>
<!-- T1598 -->
<g id="node2" class="node">
<title>T1598</title>
<polygon fill="none" stroke="#0058ad" points="0,-0.5 0,-29.5 390,-29.5 390,-0.5 0,-0.5"/>
<text text-anchor="middle" x="134" y="-11.3" font-family="Times,serif" font-size="14.00" fill="#0058ad">r 61 [1 2 3 4 5 6 7 8 9 10 11 12 13]</text>
<polyline fill="none" stroke="#0058ad" points="268,-0.5 268,-29.5 "/>
<text text-anchor="middle" x="298.5" y="-11.3" font-family="Times,serif" font-size="14.00" fill="#0058ad">a 62 1</text>
<polyline fill="none" stroke="#0058ad" points="329,-0.5 329,-29.5 "/>
<text text-anchor="middle" x="359.5" y="-11.3" font-family="Times,serif" font-size="14.00" fill="#0058ad">a 62 2</text>
</g>
<!-- T1599&#45;&gt;T1598 -->
<g id="edge1" class="edge">
<title>T1599:f3&#45;&gt;T1598:f1</title>
<path fill="none" stroke="#5b00c0" d="M314,-81C314,-61.25 303.52,-55.39 300.08,-40.2"/>
<polygon fill="#5b00c0" stroke="#5b00c0" points="303.53,-39.58 299,-30 296.57,-40.31 303.53,-39.58"/>
<text text-anchor="middle" x="318.5" y="-51.8" font-family="Times,serif" font-size="14.00" fill="#5b00c0">rw</text>
</g>
<!-- T1598&#45;&gt;T1599 -->
<g id="edge2" class="edge">
<title>T1598:f0&#45;&gt;T1599:f0</title>
<path fill="none" stroke="#5b00c0" d="M134,-30C134,-51.47 115.49,-54.9 109.71,-70.74"/>
<polygon fill="#5b00c0" stroke="#5b00c0" points="106.19,-70.56 108,-81 113.09,-71.71 106.19,-70.56"/>
<text text-anchor="middle" x="136.5" y="-51.8" font-family="Times,serif" font-size="14.00" fill="#5b00c0">rw</text>
</g>
</g>
</svg>
