<?xml version="1.0" encoding="UTF-8" standalone="no"?>
<!DOCTYPE svg PUBLIC "-//W3C//DTD SVG 1.1//EN"
 "http://www.w3.org/Graphics/SVG/1.1/DTD/svg11.dtd">
<!-- Generated by graphviz version 2.43.0 (0)
 -->
<!-- Title: a_graph Pages: 1 -->
<svg width="1161pt" height="119pt"
 viewBox="0.00 0.00 1160.50 119.00" xmlns="http://www.w3.org/2000/svg" xmlns:xlink="http://www.w3.org/1999/xlink">
<g id="graph0" class="graph" transform="scale(1 1) rotate(0) translate(4 115)">
<title>a_graph</title>
<polygon fill="white" stroke="transparent" points="-4,4 -4,-115 1156.5,-115 1156.5,4 -4,4"/>
<!-- T116 -->
<g id="node1" class="node">
<title>T116</title>
<polygon fill="none" stroke="#0058ad" points="156.5,-81.5 156.5,-110.5 1152.5,-110.5 1152.5,-81.5 156.5,-81.5"/>
<text text-anchor="middle" x="182.5" y="-92.3" font-family="Times,serif" font-size="14.00" fill="#0058ad">a 5 3</text>
<polyline fill="none" stroke="#0058ad" points="208.5,-81.5 208.5,-110.5 "/>
<text text-anchor="middle" x="326.5" y="-92.3" font-family="Times,serif" font-size="14.00" fill="#0058ad">r 4 [1 2 3 4 5 6 7 8 9 10 11 12]</text>
<polyline fill="none" stroke="#0058ad" points="444.5,-81.5 444.5,-110.5 "/>
<text text-anchor="middle" x="562.5" y="-92.3" font-family="Times,serif" font-size="14.00" fill="#0058ad">r 4 [1 2 3 4 5 6 7 8 9 10 11 12]</text>
<polyline fill="none" stroke="#0058ad" points="680.5,-81.5 680.5,-110.5 "/>
<text text-anchor="middle" x="798.5" y="-92.3" font-family="Times,serif" font-size="14.00" fill="#0058ad">r 4 [1 2 3 4 5 6 7 8 9 10 11 12]</text>
<polyline fill="none" stroke="#0058ad" points="916.5,-81.5 916.5,-110.5 "/>
<text text-anchor="middle" x="1034.5" y="-92.3" font-family="Times,serif" font-size="14.00" fill="#0058ad">r 4 [1 2 3 4 5 6 7 8 9 10 11 12]</text>
</g>
<!-- T117 -->
<g id="node2" class="node">
<title>T117</title>
<polygon fill="none" stroke="#0058ad" points="0,-0.5 0,-29.5 577,-29.5 577,-0.5 0,-0.5"/>
<text text-anchor="middle" x="30.5" y="-11.3" font-family="Times,serif" font-size="14.00" fill="#0058ad">a 4 13</text>
<polyline fill="none" stroke="#0058ad" points="61,-0.5 61,-29.5 "/>
<text text-anchor="middle" x="91.5" y="-11.3" font-family="Times,serif" font-size="14.00" fill="#0058ad">a 0 23</text>
<polyline fill="none" stroke="#0058ad" points="122,-0.5 122,-29.5 "/>
<text text-anchor="middle" x="251.5" y="-11.3" font-family="Times,serif" font-size="14.00" fill="#0058ad">r 4 [1 2 3 4 5 6 7 8 9 10 11 12 13]</text>
<polyline fill="none" stroke="#0058ad" points="381,-0.5 381,-29.5 "/>
<text text-anchor="middle" x="411.5" y="-11.3" font-family="Times,serif" font-size="14.00" fill="#0058ad">a 4 14</text>
<polyline fill="none" stroke="#0058ad" points="442,-0.5 442,-29.5 "/>
<text text-anchor="middle" x="479" y="-11.3" font-family="Times,serif" font-size="14.00" fill="#0058ad">r 5 [1 2]</text>
<polyline fill="none" stroke="#0058ad" points="516,-0.5 516,-29.5 "/>
<text text-anchor="middle" x="546.5" y="-11.3" font-family="Times,serif" font-size="14.00" fill="#0058ad">a 4 15</text>
</g>
<!-- T116&#45;&gt;T117 -->
<g id="edge1" class="edge">
<title>T116:f1&#45;&gt;T117:f0</title>
<path fill="none" stroke="#5b00c0" d="M326.5,-81C326.5,-36.3 275.2,-57.4 231.5,-48 212.32,-43.88 72.81,-50.35 38.24,-37.02"/>
<polygon fill="#5b00c0" stroke="#5b00c0" points="40.26,-34.13 30.5,-30 35.56,-39.31 40.26,-34.13"/>
<text text-anchor="middle" x="331" y="-51.8" font-family="Times,serif" font-size="14.00" fill="#5b00c0">rw</text>
</g>
<!-- T117&#45;&gt;T116 -->
<g id="edge2" class="edge">
<title>T117:f4&#45;&gt;T116:f0</title>
<path fill="none" stroke="#5b00c0" d="M479.5,-30C479.5,-60.18 235.2,-33.93 208.5,-48 195.47,-54.87 186.81,-59.82 183.74,-70.77"/>
<polygon fill="#5b00c0" stroke="#5b00c0" points="180.23,-70.65 182.5,-81 187.18,-71.5 180.23,-70.65"/>
<text text-anchor="middle" x="218" y="-51.8" font-family="Times,serif" font-size="14.00" fill="#5b00c0">rw</text>
</g>
</g>
</svg>
