<?xml version="1.0" encoding="UTF-8" standalone="no"?>
<!DOCTYPE svg PUBLIC "-//W3C//DTD SVG 1.1//EN"
 "http://www.w3.org/Graphics/SVG/1.1/DTD/svg11.dtd">
<!-- Generated by graphviz version 2.43.0 (0)
 -->
<!-- Title: a_graph Pages: 1 -->
<svg width="1548pt" height="119pt"
 viewBox="0.00 0.00 1548.00 119.00" xmlns="http://www.w3.org/2000/svg" xmlns:xlink="http://www.w3.org/1999/xlink">
<g id="graph0" class="graph" transform="scale(1 1) rotate(0) translate(4 115)">
<title>a_graph</title>
<polygon fill="white" stroke="transparent" points="-4,4 -4,-115 1544,-115 1544,4 -4,4"/>
<!-- T1235 -->
<g id="node1" class="node">
<title>T1235</title>
<polygon fill="none" stroke="#0058ad" points="185.5,-81.5 185.5,-110.5 1088.5,-110.5 1088.5,-81.5 185.5,-81.5"/>
<text text-anchor="middle" x="454.5" y="-92.3" font-family="Times,serif" font-size="14.00" fill="#0058ad">r 46 [1 2 3 4 5 6 7 8 9 10 11 12 13 14 15 16 17 18 19 20 21 22 23 24 25]</text>
<polyline fill="none" stroke="#0058ad" points="723.5,-81.5 723.5,-110.5 "/>
<text text-anchor="middle" x="754" y="-92.3" font-family="Times,serif" font-size="14.00" fill="#0058ad">a 47 8</text>
<polyline fill="none" stroke="#0058ad" points="784.5,-81.5 784.5,-110.5 "/>
<text text-anchor="middle" x="819.5" y="-92.3" font-family="Times,serif" font-size="14.00" fill="#0058ad">a 44 18</text>
<polyline fill="none" stroke="#0058ad" points="854.5,-81.5 854.5,-110.5 "/>
<text text-anchor="middle" x="889.5" y="-92.3" font-family="Times,serif" font-size="14.00" fill="#0058ad">a 44 19</text>
<polyline fill="none" stroke="#0058ad" points="924.5,-81.5 924.5,-110.5 "/>
<text text-anchor="middle" x="1006.5" y="-92.3" font-family="Times,serif" font-size="14.00" fill="#0058ad">r 47 [1 2 3 4 5 6 7 8]</text>
</g>
<!-- T1234 -->
<g id="node2" class="node">
<title>T1234</title>
<polygon fill="none" stroke="#0058ad" points="0,-0.5 0,-29.5 1540,-29.5 1540,-0.5 0,-0.5"/>
<text text-anchor="middle" x="269" y="-11.3" font-family="Times,serif" font-size="14.00" fill="#0058ad">r 46 [1 2 3 4 5 6 7 8 9 10 11 12 13 14 15 16 17 18 19 20 21 22 23 24 25]</text>
<polyline fill="none" stroke="#0058ad" points="538,-0.5 538,-29.5 "/>
<text text-anchor="middle" x="573" y="-11.3" font-family="Times,serif" font-size="14.00" fill="#0058ad">a 46 26</text>
<polyline fill="none" stroke="#0058ad" points="608,-0.5 608,-29.5 "/>
<text text-anchor="middle" x="683.5" y="-11.3" font-family="Times,serif" font-size="14.00" fill="#0058ad">r 47 [1 2 3 4 5 6 7]</text>
<polyline fill="none" stroke="#0058ad" points="759,-0.5 759,-29.5 "/>
<text text-anchor="middle" x="1039" y="-11.3" font-family="Times,serif" font-size="14.00" fill="#0058ad">r 46 [1 2 3 4 5 6 7 8 9 10 11 12 13 14 15 16 17 18 19 20 21 22 23 24 25 26]</text>
<polyline fill="none" stroke="#0058ad" points="1319,-0.5 1319,-29.5 "/>
<text text-anchor="middle" x="1354" y="-11.3" font-family="Times,serif" font-size="14.00" fill="#0058ad">a 46 27</text>
<polyline fill="none" stroke="#0058ad" points="1389,-0.5 1389,-29.5 "/>
<text text-anchor="middle" x="1464.5" y="-11.3" font-family="Times,serif" font-size="14.00" fill="#0058ad">r 47 [1 2 3 4 5 6 7]</text>
</g>
<!-- T1235&#45;&gt;T1234 -->
<g id="edge1" class="edge">
<title>T1235:f0&#45;&gt;T1234:f1</title>
<path fill="none" stroke="#5b00c0" d="M454,-81C454,-27.28 557.72,-79.57 571.5,-39.93"/>
<polygon fill="#5b00c0" stroke="#5b00c0" points="574.96,-40.41 573,-30 568.04,-39.36 574.96,-40.41"/>
<text text-anchor="middle" x="574.5" y="-51.8" font-family="Times,serif" font-size="14.00" fill="#5b00c0">rw</text>
</g>
<!-- T1234&#45;&gt;T1235 -->
<g id="edge2" class="edge">
<title>T1234:f2&#45;&gt;T1235:f1</title>
<path fill="none" stroke="#5b00c0" d="M683,-30C683,-64.91 740.31,-46.9 751.95,-71.05"/>
<polygon fill="#5b00c0" stroke="#5b00c0" points="748.55,-71.91 754,-81 755.41,-70.5 748.55,-71.91"/>
<text text-anchor="middle" x="752.5" y="-51.8" font-family="Times,serif" font-size="14.00" fill="#5b00c0">rw</text>
</g>
</g>
</svg>
