<?xml version="1.0" encoding="UTF-8" standalone="no"?>
<!DOCTYPE svg PUBLIC "-//W3C//DTD SVG 1.1//EN"
 "http://www.w3.org/Graphics/SVG/1.1/DTD/svg11.dtd">
<!-- Generated by graphviz version 2.43.0 (0)
 -->
<!-- Title: a_graph Pages: 1 -->
<svg width="3320pt" height="119pt"
 viewBox="0.00 0.00 3320.00 119.00" xmlns="http://www.w3.org/2000/svg" xmlns:xlink="http://www.w3.org/1999/xlink">
<g id="graph0" class="graph" transform="scale(1 1) rotate(0) translate(4 115)">
<title>a_graph</title>
<polygon fill="white" stroke="transparent" points="-4,4 -4,-115 3316,-115 3316,4 -4,4"/>
<!-- T2588 -->
<g id="node1" class="node">
<title>T2588</title>
<polygon fill="none" stroke="#0058ad" points="0,-81.5 0,-110.5 1549,-110.5 1549,-81.5 0,-81.5"/>
<text text-anchor="middle" x="314" y="-92.3" font-family="Times,serif" font-size="14.00" fill="#0058ad">r 98 [1 2 3 4 5 6 7 8 9 10 11 12 13 14 15 16 17 18 19 20 21 22 23 24 25 26 29 30 31]</text>
<polyline fill="none" stroke="#0058ad" points="628,-81.5 628,-110.5 "/>
<text text-anchor="middle" x="942" y="-92.3" font-family="Times,serif" font-size="14.00" fill="#0058ad">r 98 [1 2 3 4 5 6 7 8 9 10 11 12 13 14 15 16 17 18 19 20 21 22 23 24 25 26 29 30 31]</text>
<polyline fill="none" stroke="#0058ad" points="1256,-81.5 1256,-110.5 "/>
<text text-anchor="middle" x="1367.5" y="-92.3" font-family="Times,serif" font-size="14.00" fill="#0058ad">r 99 [1 2 3 4 5 6 7 8 9 10 11]</text>
<polyline fill="none" stroke="#0058ad" points="1479,-81.5 1479,-110.5 "/>
<text text-anchor="middle" x="1514" y="-92.3" font-family="Times,serif" font-size="14.00" fill="#0058ad">a 99 12</text>
</g>
<!-- T2589 -->
<g id="node2" class="node">
<title>T2589</title>
<polygon fill="none" stroke="#0058ad" points="779,-0.5 779,-29.5 3312,-29.5 3312,-0.5 779,-0.5"/>
<text text-anchor="middle" x="924" y="-11.3" font-family="Times,serif" font-size="14.00" fill="#0058ad">r 97 [1 2 3 4 5 6 7 8 9 10 11 12 13 14]</text>
<polyline fill="none" stroke="#0058ad" points="1069,-0.5 1069,-29.5 "/>
<text text-anchor="middle" x="1104" y="-11.3" font-family="Times,serif" font-size="14.00" fill="#0058ad">a 98 32</text>
<polyline fill="none" stroke="#0058ad" points="1139,-0.5 1139,-29.5 "/>
<text text-anchor="middle" x="1250.5" y="-11.3" font-family="Times,serif" font-size="14.00" fill="#0058ad">r 99 [1 2 3 4 5 6 7 8 9 10 11]</text>
<polyline fill="none" stroke="#0058ad" points="1362,-0.5 1362,-29.5 "/>
<text text-anchor="middle" x="1687" y="-11.3" font-family="Times,serif" font-size="14.00" fill="#0058ad">r 98 [1 2 3 4 5 6 7 8 9 10 11 12 13 14 15 16 17 18 19 20 21 22 23 24 25 26 29 30 31 32]</text>
<polyline fill="none" stroke="#0058ad" points="2012,-0.5 2012,-29.5 "/>
<text text-anchor="middle" x="2337" y="-11.3" font-family="Times,serif" font-size="14.00" fill="#0058ad">r 98 [1 2 3 4 5 6 7 8 9 10 11 12 13 14 15 16 17 18 19 20 21 22 23 24 25 26 29 30 31 32]</text>
<polyline fill="none" stroke="#0058ad" points="2662,-0.5 2662,-29.5 "/>
<text text-anchor="middle" x="2987" y="-11.3" font-family="Times,serif" font-size="14.00" fill="#0058ad">r 98 [1 2 3 4 5 6 7 8 9 10 11 12 13 14 15 16 17 18 19 20 21 22 23 24 25 26 29 30 31 32]</text>
</g>
<!-- T2588&#45;&gt;T2589 -->
<g id="edge1" class="edge">
<title>T2588:f0&#45;&gt;T2589:f1</title>
<path fill="none" stroke="#5b00c0" d="M313.5,-81C313.5,91.31 1071.43,-193.78 1102.52,-40.23"/>
<polygon fill="#5b00c0" stroke="#5b00c0" points="1106.03,-40.29 1103.5,-30 1099.06,-39.62 1106.03,-40.29"/>
<text text-anchor="middle" x="1110" y="-51.8" font-family="Times,serif" font-size="14.00" fill="#5b00c0">rw</text>
</g>
<!-- T2589&#45;&gt;T2588 -->
<g id="edge2" class="edge">
<title>T2589:f2&#45;&gt;T2588:f3</title>
<path fill="none" stroke="#5b00c0" d="M1250.5,-30C1250.5,-145.88 1498.76,27.4 1513.79,-70.98"/>
<polygon fill="#5b00c0" stroke="#5b00c0" points="1510.3,-71.27 1514.5,-81 1517.28,-70.78 1510.3,-71.27"/>
<text text-anchor="middle" x="1521" y="-51.8" font-family="Times,serif" font-size="14.00" fill="#5b00c0">rw</text>
</g>
</g>
</svg>
