<?xml version="1.0" encoding="UTF-8" standalone="no"?>
<!DOCTYPE svg PUBLIC "-//W3C//DTD SVG 1.1//EN"
 "http://www.w3.org/Graphics/SVG/1.1/DTD/svg11.dtd">
<!-- Generated by graphviz version 2.43.0 (0)
 -->
<!-- Title: a_graph Pages: 1 -->
<svg width="2178pt" height="119pt"
 viewBox="0.00 0.00 2177.99 119.00" xmlns="http://www.w3.org/2000/svg" xmlns:xlink="http://www.w3.org/1999/xlink">
<g id="graph0" class="graph" transform="scale(1 1) rotate(0) translate(4 115)">
<title>a_graph</title>
<polygon fill="white" stroke="transparent" points="-4,4 -4,-115 2173.99,-115 2173.99,4 -4,4"/>
<!-- T2804 -->
<g id="node1" class="node">
<title>T2804</title>
<polygon fill="none" stroke="#0058ad" points="16.99,-81.5 16.99,-110.5 2169.99,-110.5 2169.99,-81.5 16.99,-81.5"/>
<text text-anchor="middle" x="56.49" y="-92.3" font-family="Times,serif" font-size="14.00" fill="#0058ad">a 106 16</text>
<polyline fill="none" stroke="#0058ad" points="95.99,-81.5 95.99,-110.5 "/>
<text text-anchor="middle" x="402.99" y="-92.3" font-family="Times,serif" font-size="14.00" fill="#0058ad">r 103 [1 2 3 4 5 6 7 8 9 10 11 12 13 14 15 16 17 18 19 20 21 22 23 24 25 26 27 28]</text>
<polyline fill="none" stroke="#0058ad" points="709.99,-81.5 709.99,-110.5 "/>
<text text-anchor="middle" x="749.49" y="-92.3" font-family="Times,serif" font-size="14.00" fill="#0058ad">a 105 32</text>
<polyline fill="none" stroke="#0058ad" points="788.99,-81.5 788.99,-110.5 "/>
<text text-anchor="middle" x="1095.99" y="-92.3" font-family="Times,serif" font-size="14.00" fill="#0058ad">r 103 [1 2 3 4 5 6 7 8 9 10 11 12 13 14 15 16 17 18 19 20 21 22 23 24 25 26 27 28]</text>
<polyline fill="none" stroke="#0058ad" points="1402.99,-81.5 1402.99,-110.5 "/>
<text text-anchor="middle" x="1442.49" y="-92.3" font-family="Times,serif" font-size="14.00" fill="#0058ad">a 106 17</text>
<polyline fill="none" stroke="#0058ad" points="1481.99,-81.5 1481.99,-110.5 "/>
<text text-anchor="middle" x="1653.99" y="-92.3" font-family="Times,serif" font-size="14.00" fill="#0058ad">r 106 [1 2 3 4 5 6 7 8 9 10 11 12 13 14 16 17]</text>
<polyline fill="none" stroke="#0058ad" points="1825.99,-81.5 1825.99,-110.5 "/>
<text text-anchor="middle" x="1997.99" y="-92.3" font-family="Times,serif" font-size="14.00" fill="#0058ad">r 106 [1 2 3 4 5 6 7 8 9 10 11 12 13 14 16 17]</text>
</g>
<!-- T2803 -->
<g id="node2" class="node">
<title>T2803</title>
<polygon fill="none" stroke="#0058ad" points="4.99,-0.5 4.99,-29.5 1041.99,-29.5 1041.99,-0.5 4.99,-0.5"/>
<text text-anchor="middle" x="154.49" y="-11.3" font-family="Times,serif" font-size="14.00" fill="#0058ad">r 106 [1 2 3 4 5 6 7 8 9 10 11 12 13 14]</text>
<polyline fill="none" stroke="#0058ad" points="303.99,-0.5 303.99,-29.5 "/>
<text text-anchor="middle" x="343.49" y="-11.3" font-family="Times,serif" font-size="14.00" fill="#0058ad">a 103 29</text>
<polyline fill="none" stroke="#0058ad" points="382.99,-0.5 382.99,-29.5 "/>
<text text-anchor="middle" x="712.49" y="-11.3" font-family="Times,serif" font-size="14.00" fill="#0058ad">r 105 [1 2 3 4 5 6 7 8 9 10 11 12 13 14 15 16 17 18 19 20 21 22 23 24 25 26 27 28 29 30]</text>
</g>
<!-- T2804&#45;&gt;T2803 -->
<g id="edge1" class="edge">
<title>T2804:f1&#45;&gt;T2803:f1</title>
<path fill="none" stroke="#5b00c0" d="M402.49,-81C402.49,-50.27 356.1,-61.19 345.59,-39.89"/>
<polygon fill="#5b00c0" stroke="#5b00c0" points="348.99,-39.06 343.49,-30 342.14,-40.51 348.99,-39.06"/>
<text text-anchor="middle" x="402.99" y="-51.8" font-family="Times,serif" font-size="14.00" fill="#5b00c0">rw</text>
</g>
<!-- T2803&#45;&gt;T2804 -->
<g id="edge2" class="edge">
<title>T2803:f0&#45;&gt;T2804:f0</title>
<path fill="none" stroke="#5b00c0" d="M3.49,-15C-3.19,-15 1.7,-23.93 4.49,-30 16.37,-55.85 47.54,-50.65 54.91,-70.99"/>
<polygon fill="#5b00c0" stroke="#5b00c0" points="51.48,-71.67 56.49,-81 58.39,-70.58 51.48,-71.67"/>
<text text-anchor="middle" x="58.99" y="-51.8" font-family="Times,serif" font-size="14.00" fill="#5b00c0">rw</text>
</g>
</g>
</svg>
