<?xml version="1.0" encoding="UTF-8" standalone="no"?>
<!DOCTYPE svg PUBLIC "-//W3C//DTD SVG 1.1//EN"
 "http://www.w3.org/Graphics/SVG/1.1/DTD/svg11.dtd">
<!-- Generated by graphviz version 2.43.0 (0)
 -->
<!-- Title: a_graph Pages: 1 -->
<svg width="457pt" height="119pt"
 viewBox="0.00 0.00 456.50 119.00" xmlns="http://www.w3.org/2000/svg" xmlns:xlink="http://www.w3.org/1999/xlink">
<g id="graph0" class="graph" transform="scale(1 1) rotate(0) translate(4 115)">
<title>a_graph</title>
<polygon fill="white" stroke="transparent" points="-4,4 -4,-115 452.5,-115 452.5,4 -4,4"/>
<!-- T2631 -->
<g id="node1" class="node">
<title>T2631</title>
<polygon fill="none" stroke="#0058ad" points="116.5,-81.5 116.5,-110.5 448.5,-110.5 448.5,-81.5 116.5,-81.5"/>
<text text-anchor="middle" x="158" y="-92.3" font-family="Times,serif" font-size="14.00" fill="#0058ad">w 1132 1</text>
<polyline fill="none" stroke="#0058ad" points="199.5,-81.5 199.5,-110.5 "/>
<text text-anchor="middle" x="242.5" y="-92.3" font-family="Times,serif" font-size="14.00" fill="#0058ad">r 1128 nil</text>
<polyline fill="none" stroke="#0058ad" points="285.5,-81.5 285.5,-110.5 "/>
<text text-anchor="middle" x="328.5" y="-92.3" font-family="Times,serif" font-size="14.00" fill="#0058ad">r 1133 nil</text>
<polyline fill="none" stroke="#0058ad" points="371.5,-81.5 371.5,-110.5 "/>
<text text-anchor="middle" x="410" y="-92.3" font-family="Times,serif" font-size="14.00" fill="#0058ad">r 1132 1</text>
</g>
<!-- T2630 -->
<g id="node2" class="node">
<title>T2630</title>
<polygon fill="none" stroke="#0058ad" points="0,-0.5 0,-29.5 329,-29.5 329,-0.5 0,-0.5"/>
<text text-anchor="middle" x="41.5" y="-11.3" font-family="Times,serif" font-size="14.00" fill="#0058ad">w 1129 3</text>
<polyline fill="none" stroke="#0058ad" points="83,-0.5 83,-29.5 "/>
<text text-anchor="middle" x="121.5" y="-11.3" font-family="Times,serif" font-size="14.00" fill="#0058ad">r 1131 3</text>
<polyline fill="none" stroke="#0058ad" points="160,-0.5 160,-29.5 "/>
<text text-anchor="middle" x="201.5" y="-11.3" font-family="Times,serif" font-size="14.00" fill="#0058ad">w 1133 1</text>
<polyline fill="none" stroke="#0058ad" points="243,-0.5 243,-29.5 "/>
<text text-anchor="middle" x="286" y="-11.3" font-family="Times,serif" font-size="14.00" fill="#0058ad">r 1132 nil</text>
</g>
<!-- T2631&#45;&gt;T2630 -->
<g id="edge1" class="edge">
<title>T2631:f2&#45;&gt;T2630:f2</title>
<path fill="none" stroke="#5b00c0" d="M328.5,-81C328.5,-54.15 229.52,-58.66 206.32,-39.16"/>
<polygon fill="#5b00c0" stroke="#5b00c0" points="209.26,-37.22 201.5,-30 203.06,-40.48 209.26,-37.22"/>
<text text-anchor="middle" x="310" y="-51.8" font-family="Times,serif" font-size="14.00" fill="#5b00c0">rw</text>
</g>
<!-- T2630&#45;&gt;T2631 -->
<g id="edge2" class="edge">
<title>T2630:f3&#45;&gt;T2631:f0</title>
<path fill="none" stroke="#5b00c0" d="M286.5,-30C286.5,-48.44 222.41,-40.64 205.5,-48 185.47,-56.72 165.07,-55.79 159.18,-70.83"/>
<polygon fill="#5b00c0" stroke="#5b00c0" points="155.68,-70.56 157.5,-81 162.59,-71.71 155.68,-70.56"/>
<text text-anchor="middle" x="215" y="-51.8" font-family="Times,serif" font-size="14.00" fill="#5b00c0">rw</text>
</g>
</g>
</svg>
