<?xml version="1.0" encoding="UTF-8" standalone="no"?>
<!DOCTYPE svg PUBLIC "-//W3C//DTD SVG 1.1//EN"
 "http://www.w3.org/Graphics/SVG/1.1/DTD/svg11.dtd">
<!-- Generated by graphviz version 2.43.0 (0)
 -->
<!-- Title: a_graph Pages: 1 -->
<svg width="1495pt" height="119pt"
 viewBox="0.00 0.00 1494.50 119.00" xmlns="http://www.w3.org/2000/svg" xmlns:xlink="http://www.w3.org/1999/xlink">
<g id="graph0" class="graph" transform="scale(1 1) rotate(0) translate(4 115)">
<title>a_graph</title>
<polygon fill="white" stroke="transparent" points="-4,4 -4,-115 1490.5,-115 1490.5,4 -4,4"/>
<!-- T3407 -->
<g id="node1" class="node">
<title>T3407</title>
<polygon fill="none" stroke="#0058ad" points="291.5,-81.5 291.5,-110.5 1486.5,-110.5 1486.5,-81.5 291.5,-81.5"/>
<text text-anchor="middle" x="326.5" y="-92.3" font-family="Times,serif" font-size="14.00" fill="#0058ad">a 131 9</text>
<polyline fill="none" stroke="#0058ad" points="361.5,-81.5 361.5,-110.5 "/>
<text text-anchor="middle" x="401" y="-92.3" font-family="Times,serif" font-size="14.00" fill="#0058ad">a 131 10</text>
<polyline fill="none" stroke="#0058ad" points="440.5,-81.5 440.5,-110.5 "/>
<text text-anchor="middle" x="531.5" y="-92.3" font-family="Times,serif" font-size="14.00" fill="#0058ad">r 131 [2 3 5 6 7 8 9 10]</text>
<polyline fill="none" stroke="#0058ad" points="622.5,-81.5 622.5,-110.5 "/>
<text text-anchor="middle" x="767.5" y="-92.3" font-family="Times,serif" font-size="14.00" fill="#0058ad">r 130 [1 6 7 8 9 10 11 12 13 14 15 16]</text>
<polyline fill="none" stroke="#0058ad" points="912.5,-81.5 912.5,-110.5 "/>
<text text-anchor="middle" x="952" y="-92.3" font-family="Times,serif" font-size="14.00" fill="#0058ad">a 131 11</text>
<polyline fill="none" stroke="#0058ad" points="991.5,-81.5 991.5,-110.5 "/>
<text text-anchor="middle" x="1136.5" y="-92.3" font-family="Times,serif" font-size="14.00" fill="#0058ad">r 130 [1 6 7 8 9 10 11 12 13 14 15 16]</text>
<polyline fill="none" stroke="#0058ad" points="1281.5,-81.5 1281.5,-110.5 "/>
<text text-anchor="middle" x="1384" y="-92.3" font-family="Times,serif" font-size="14.00" fill="#0058ad">r 131 [2 3 5 6 7 8 9 10 11]</text>
</g>
<!-- T3406 -->
<g id="node2" class="node">
<title>T3406</title>
<polygon fill="none" stroke="#0058ad" points="0,-0.5 0,-29.5 1262,-29.5 1262,-0.5 0,-0.5"/>
<text text-anchor="middle" x="73" y="-11.3" font-family="Times,serif" font-size="14.00" fill="#0058ad">r 131 [2 3 5 6 7 8]</text>
<polyline fill="none" stroke="#0058ad" points="146,-0.5 146,-29.5 "/>
<text text-anchor="middle" x="367.5" y="-11.3" font-family="Times,serif" font-size="14.00" fill="#0058ad">r 125 [1 2 3 4 6 7 8 9 10 11 12 13 14 15 16 17 18 19 20 21]</text>
<polyline fill="none" stroke="#0058ad" points="589,-0.5 589,-29.5 "/>
<text text-anchor="middle" x="734" y="-11.3" font-family="Times,serif" font-size="14.00" fill="#0058ad">r 130 [1 6 7 8 9 10 11 12 13 14 15 16]</text>
<polyline fill="none" stroke="#0058ad" points="879,-0.5 879,-29.5 "/>
<text text-anchor="middle" x="918.5" y="-11.3" font-family="Times,serif" font-size="14.00" fill="#0058ad">a 130 17</text>
<polyline fill="none" stroke="#0058ad" points="958,-0.5 958,-29.5 "/>
<text text-anchor="middle" x="1031" y="-11.3" font-family="Times,serif" font-size="14.00" fill="#0058ad">r 131 [2 3 5 6 7 8]</text>
<polyline fill="none" stroke="#0058ad" points="1104,-0.5 1104,-29.5 "/>
<text text-anchor="middle" x="1143.5" y="-11.3" font-family="Times,serif" font-size="14.00" fill="#0058ad">a 130 18</text>
<polyline fill="none" stroke="#0058ad" points="1183,-0.5 1183,-29.5 "/>
<text text-anchor="middle" x="1222.5" y="-11.3" font-family="Times,serif" font-size="14.00" fill="#0058ad">a 130 19</text>
</g>
<!-- T3407&#45;&gt;T3406 -->
<g id="edge1" class="edge">
<title>T3407:f3&#45;&gt;T3406:f3</title>
<path fill="none" stroke="#5b00c0" d="M767,-81C767,-13.5 903.39,-92.06 917.78,-39.96"/>
<polygon fill="#5b00c0" stroke="#5b00c0" points="921.25,-40.35 919,-30 914.31,-39.5 921.25,-40.35"/>
<text text-anchor="middle" x="921.5" y="-51.8" font-family="Times,serif" font-size="14.00" fill="#5b00c0">rw</text>
</g>
<!-- T3406&#45;&gt;T3407 -->
<g id="edge2" class="edge">
<title>T3406:f0&#45;&gt;T3407:f0</title>
<path fill="none" stroke="#5b00c0" d="M73,-30C73,-77.45 220.65,-94.05 280,-95.84"/>
<polygon fill="#5b00c0" stroke="#5b00c0" points="279.94,-99.33 290,-96 280.06,-92.34 279.94,-99.33"/>
<text text-anchor="middle" x="111.5" y="-51.8" font-family="Times,serif" font-size="14.00" fill="#5b00c0">rw</text>
</g>
</g>
</svg>
