<?xml version="1.0" encoding="UTF-8" standalone="no"?>
<!DOCTYPE svg PUBLIC "-//W3C//DTD SVG 1.1//EN"
 "http://www.w3.org/Graphics/SVG/1.1/DTD/svg11.dtd">
<!-- Generated by graphviz version 2.43.0 (0)
 -->
<!-- Title: a_graph Pages: 1 -->
<svg width="958pt" height="119pt"
 viewBox="0.00 0.00 958.00 119.00" xmlns="http://www.w3.org/2000/svg" xmlns:xlink="http://www.w3.org/1999/xlink">
<g id="graph0" class="graph" transform="scale(1 1) rotate(0) translate(4 115)">
<title>a_graph</title>
<polygon fill="white" stroke="transparent" points="-4,4 -4,-115 954,-115 954,4 -4,4"/>
<!-- T753 -->
<g id="node1" class="node">
<title>T753</title>
<polygon fill="none" stroke="#0058ad" points="73.5,-81.5 73.5,-110.5 328.5,-110.5 328.5,-81.5 73.5,-81.5"/>
<text text-anchor="middle" x="108.5" y="-92.3" font-family="Times,serif" font-size="14.00" fill="#0058ad">a 22 25</text>
<polyline fill="none" stroke="#0058ad" points="143.5,-81.5 143.5,-110.5 "/>
<text text-anchor="middle" x="174" y="-92.3" font-family="Times,serif" font-size="14.00" fill="#0058ad">a 27 2</text>
<polyline fill="none" stroke="#0058ad" points="204.5,-81.5 204.5,-110.5 "/>
<text text-anchor="middle" x="266.5" y="-92.3" font-family="Times,serif" font-size="14.00" fill="#0058ad">r 28 [1 5 6 7 8]</text>
</g>
<!-- T754 -->
<g id="node2" class="node">
<title>T754</title>
<polygon fill="none" stroke="#0058ad" points="0,-0.5 0,-29.5 950,-29.5 950,-0.5 0,-0.5"/>
<text text-anchor="middle" x="35" y="-11.3" font-family="Times,serif" font-size="14.00" fill="#0058ad">a 28 10</text>
<polyline fill="none" stroke="#0058ad" points="70,-0.5 70,-29.5 "/>
<text text-anchor="middle" x="282.5" y="-11.3" font-family="Times,serif" font-size="14.00" fill="#0058ad">r 22 [1 2 3 4 5 6 7 8 9 10 11 12 13 14 18 19 21 22 23 24]</text>
<polyline fill="none" stroke="#0058ad" points="495,-0.5 495,-29.5 "/>
<text text-anchor="middle" x="568" y="-11.3" font-family="Times,serif" font-size="14.00" fill="#0058ad">r 28 [1 5 6 7 8 10]</text>
<polyline fill="none" stroke="#0058ad" points="641,-0.5 641,-29.5 "/>
<text text-anchor="middle" x="676" y="-11.3" font-family="Times,serif" font-size="14.00" fill="#0058ad">a 28 11</text>
<polyline fill="none" stroke="#0058ad" points="711,-0.5 711,-29.5 "/>
<text text-anchor="middle" x="795.5" y="-11.3" font-family="Times,serif" font-size="14.00" fill="#0058ad">r 28 [1 5 6 7 8 10 11]</text>
<polyline fill="none" stroke="#0058ad" points="880,-0.5 880,-29.5 "/>
<text text-anchor="middle" x="915" y="-11.3" font-family="Times,serif" font-size="14.00" fill="#0058ad">a 28 12</text>
</g>
<!-- T753&#45;&gt;T754 -->
<g id="edge1" class="edge">
<title>T753:f2&#45;&gt;T754:f0</title>
<path fill="none" stroke="#5b00c0" d="M267,-81C267,-31.66 209.13,-58.86 161,-48 137.07,-42.6 59.89,-54.3 39.81,-39.06"/>
<polygon fill="#5b00c0" stroke="#5b00c0" points="42.78,-37.19 35,-30 36.6,-40.47 42.78,-37.19"/>
<text text-anchor="middle" x="271.5" y="-51.8" font-family="Times,serif" font-size="14.00" fill="#5b00c0">rw</text>
</g>
<!-- T754&#45;&gt;T753 -->
<g id="edge2" class="edge">
<title>T754:f1&#45;&gt;T753:f0</title>
<path fill="none" stroke="#5b00c0" d="M282,-30C282,-62.25 166.62,-33.15 138,-48 123.84,-55.35 113.04,-59.4 109.37,-71.04"/>
<polygon fill="#5b00c0" stroke="#5b00c0" points="105.89,-70.62 108,-81 112.83,-71.57 105.89,-70.62"/>
<text text-anchor="middle" x="147.5" y="-51.8" font-family="Times,serif" font-size="14.00" fill="#5b00c0">rw</text>
</g>
</g>
</svg>
