<?xml version="1.0" encoding="UTF-8" standalone="no"?>
<!DOCTYPE svg PUBLIC "-//W3C//DTD SVG 1.1//EN"
 "http://www.w3.org/Graphics/SVG/1.1/DTD/svg11.dtd">
<!-- Generated by graphviz version 2.43.0 (0)
 -->
<!-- Title: a_graph Pages: 1 -->
<svg width="2351pt" height="119pt"
 viewBox="0.00 0.00 2350.50 119.00" xmlns="http://www.w3.org/2000/svg" xmlns:xlink="http://www.w3.org/1999/xlink">
<g id="graph0" class="graph" transform="scale(1 1) rotate(0) translate(4 115)">
<title>a_graph</title>
<polygon fill="white" stroke="transparent" points="-4,4 -4,-115 2346.5,-115 2346.5,4 -4,4"/>
<!-- T2719 -->
<g id="node1" class="node">
<title>T2719</title>
<polygon fill="none" stroke="#0058ad" points="354.5,-81.5 354.5,-110.5 2342.5,-110.5 2342.5,-81.5 354.5,-81.5"/>
<text text-anchor="middle" x="394" y="-92.3" font-family="Times,serif" font-size="14.00" fill="#0058ad">a 101 13</text>
<polyline fill="none" stroke="#0058ad" points="433.5,-81.5 433.5,-110.5 "/>
<text text-anchor="middle" x="473" y="-92.3" font-family="Times,serif" font-size="14.00" fill="#0058ad">a 101 14</text>
<polyline fill="none" stroke="#0058ad" points="512.5,-81.5 512.5,-110.5 "/>
<text text-anchor="middle" x="817.5" y="-92.3" font-family="Times,serif" font-size="14.00" fill="#0058ad">r 100 [1 2 3 4 7 8 9 10 11 12 13 14 15 16 17 18 19 20 21 22 23 24 25 26 27 28 29]</text>
<polyline fill="none" stroke="#0058ad" points="1122.5,-81.5 1122.5,-110.5 "/>
<text text-anchor="middle" x="1427.5" y="-92.3" font-family="Times,serif" font-size="14.00" fill="#0058ad">r 100 [1 2 3 4 7 8 9 10 11 12 13 14 15 16 17 18 19 20 21 22 23 24 25 26 27 28 29]</text>
<polyline fill="none" stroke="#0058ad" points="1732.5,-81.5 1732.5,-110.5 "/>
<text text-anchor="middle" x="2037.5" y="-92.3" font-family="Times,serif" font-size="14.00" fill="#0058ad">r 100 [1 2 3 4 7 8 9 10 11 12 13 14 15 16 17 18 19 20 21 22 23 24 25 26 27 28 29]</text>
</g>
<!-- T2720 -->
<g id="node2" class="node">
<title>T2720</title>
<polygon fill="none" stroke="#0058ad" points="0,-0.5 0,-29.5 1571,-29.5 1571,-0.5 0,-0.5"/>
<text text-anchor="middle" x="39.5" y="-11.3" font-family="Times,serif" font-size="14.00" fill="#0058ad">a 100 30</text>
<polyline fill="none" stroke="#0058ad" points="79,-0.5 79,-29.5 "/>
<text text-anchor="middle" x="118.5" y="-11.3" font-family="Times,serif" font-size="14.00" fill="#0058ad">a 100 31</text>
<polyline fill="none" stroke="#0058ad" points="158,-0.5 158,-29.5 "/>
<text text-anchor="middle" x="197.5" y="-11.3" font-family="Times,serif" font-size="14.00" fill="#0058ad">a 100 32</text>
<polyline fill="none" stroke="#0058ad" points="237,-0.5 237,-29.5 "/>
<text text-anchor="middle" x="539.5" y="-11.3" font-family="Times,serif" font-size="14.00" fill="#0058ad">r 98 [1 2 3 4 5 6 7 8 9 10 11 12 13 14 15 16 17 18 21 22 26 27 28 29 30 31 32 19]</text>
<polyline fill="none" stroke="#0058ad" points="842,-0.5 842,-29.5 "/>
<text text-anchor="middle" x="1171.5" y="-11.3" font-family="Times,serif" font-size="14.00" fill="#0058ad">r 101 [1 2 3 4 5 6 7 8 9 10 15 16 17 20 21 22 23 24 25 26 27 28 29 30 31 32 18 19 11 12]</text>
<polyline fill="none" stroke="#0058ad" points="1501,-0.5 1501,-29.5 "/>
<text text-anchor="middle" x="1536" y="-11.3" font-family="Times,serif" font-size="14.00" fill="#0058ad">a 98 20</text>
</g>
<!-- T2719&#45;&gt;T2720 -->
<g id="edge1" class="edge">
<title>T2719:f2&#45;&gt;T2720:f0</title>
<path fill="none" stroke="#5b00c0" d="M817.5,-81C817.5,55.35 648.48,-57.93 512.5,-48 500.51,-47.12 115.24,-43.8 49.11,-33.19"/>
<polygon fill="#5b00c0" stroke="#5b00c0" points="50.09,-29.83 39.5,-30 47.89,-36.47 50.09,-29.83"/>
<text text-anchor="middle" x="825" y="-51.8" font-family="Times,serif" font-size="14.00" fill="#5b00c0">rw</text>
</g>
<!-- T2720&#45;&gt;T2719 -->
<g id="edge2" class="edge">
<title>T2720:f4&#45;&gt;T2719:f0</title>
<path fill="none" stroke="#5b00c0" d="M1171.5,-30C1171.5,-48.95 508.15,-44.63 489.5,-48 448.92,-55.33 402.32,-39.14 394.61,-70.75"/>
<polygon fill="#5b00c0" stroke="#5b00c0" points="391.09,-70.68 393.5,-81 398.05,-71.43 391.09,-70.68"/>
<text text-anchor="middle" x="499" y="-51.8" font-family="Times,serif" font-size="14.00" fill="#5b00c0">rw</text>
</g>
</g>
</svg>
