<?xml version="1.0" encoding="UTF-8" standalone="no"?>
<!DOCTYPE svg PUBLIC "-//W3C//DTD SVG 1.1//EN"
 "http://www.w3.org/Graphics/SVG/1.1/DTD/svg11.dtd">
<!-- Generated by graphviz version 2.43.0 (0)
 -->
<!-- Title: a_graph Pages: 1 -->
<svg width="2207pt" height="119pt"
 viewBox="0.00 0.00 2207.00 119.00" xmlns="http://www.w3.org/2000/svg" xmlns:xlink="http://www.w3.org/1999/xlink">
<g id="graph0" class="graph" transform="scale(1 1) rotate(0) translate(4 115)">
<title>a_graph</title>
<polygon fill="white" stroke="transparent" points="-4,4 -4,-115 2203,-115 2203,4 -4,4"/>
<!-- T3589 -->
<g id="node1" class="node">
<title>T3589</title>
<polygon fill="none" stroke="#0058ad" points="0,-81.5 0,-110.5 1293,-110.5 1293,-81.5 0,-81.5"/>
<text text-anchor="middle" x="131.5" y="-92.3" font-family="Times,serif" font-size="14.00" fill="#0058ad">r 135 [1 2 3 4 5 6 7 9 10 11 12 13]</text>
<polyline fill="none" stroke="#0058ad" points="263,-81.5 263,-110.5 "/>
<text text-anchor="middle" x="435" y="-92.3" font-family="Times,serif" font-size="14.00" fill="#0058ad">r 138 [1 2 3 4 5 6 7 8 9 10 11 12 13 14 15 16]</text>
<polyline fill="none" stroke="#0058ad" points="607,-81.5 607,-110.5 "/>
<text text-anchor="middle" x="738.5" y="-92.3" font-family="Times,serif" font-size="14.00" fill="#0058ad">r 135 [1 2 3 4 5 6 7 9 10 11 12 13]</text>
<polyline fill="none" stroke="#0058ad" points="870,-81.5 870,-110.5 "/>
<text text-anchor="middle" x="1042" y="-92.3" font-family="Times,serif" font-size="14.00" fill="#0058ad">r 138 [1 2 3 4 5 6 7 8 9 10 11 12 13 14 15 16]</text>
<polyline fill="none" stroke="#0058ad" points="1214,-81.5 1214,-110.5 "/>
<text text-anchor="middle" x="1253.5" y="-92.3" font-family="Times,serif" font-size="14.00" fill="#0058ad">a 137 16</text>
</g>
<!-- T3588 -->
<g id="node2" class="node">
<title>T3588</title>
<polygon fill="none" stroke="#0058ad" points="584,-0.5 584,-29.5 2199,-29.5 2199,-0.5 584,-0.5"/>
<text text-anchor="middle" x="623.5" y="-11.3" font-family="Times,serif" font-size="14.00" fill="#0058ad">a 138 17</text>
<polyline fill="none" stroke="#0058ad" points="663,-0.5 663,-29.5 "/>
<text text-anchor="middle" x="846.5" y="-11.3" font-family="Times,serif" font-size="14.00" fill="#0058ad">r 138 [1 2 3 4 5 6 7 8 9 10 11 12 13 14 15 16 17]</text>
<polyline fill="none" stroke="#0058ad" points="1030,-0.5 1030,-29.5 "/>
<text text-anchor="middle" x="1191" y="-11.3" font-family="Times,serif" font-size="14.00" fill="#0058ad">r 137 [1 2 3 4 5 6 7 8 9 10 11 12 13 14 15]</text>
<polyline fill="none" stroke="#0058ad" points="1352,-0.5 1352,-29.5 "/>
<text text-anchor="middle" x="1535.5" y="-11.3" font-family="Times,serif" font-size="14.00" fill="#0058ad">r 138 [1 2 3 4 5 6 7 8 9 10 11 12 13 14 15 16 17]</text>
<polyline fill="none" stroke="#0058ad" points="1719,-0.5 1719,-29.5 "/>
<text text-anchor="middle" x="1758.5" y="-11.3" font-family="Times,serif" font-size="14.00" fill="#0058ad">a 138 18</text>
<polyline fill="none" stroke="#0058ad" points="1798,-0.5 1798,-29.5 "/>
<text text-anchor="middle" x="1959" y="-11.3" font-family="Times,serif" font-size="14.00" fill="#0058ad">r 137 [1 2 3 4 5 6 7 8 9 10 11 12 13 14 15]</text>
<polyline fill="none" stroke="#0058ad" points="2120,-0.5 2120,-29.5 "/>
<text text-anchor="middle" x="2159.5" y="-11.3" font-family="Times,serif" font-size="14.00" fill="#0058ad">a 138 19</text>
</g>
<!-- T3589&#45;&gt;T3588 -->
<g id="edge1" class="edge">
<title>T3589:f1&#45;&gt;T3588:f0</title>
<path fill="none" stroke="#5b00c0" d="M434.5,-81C434.5,-47.87 529.27,-19.84 572.48,-15.56"/>
<polygon fill="#5b00c0" stroke="#5b00c0" points="572.71,-19.06 582.5,-15 572.32,-12.07 572.71,-19.06"/>
<text text-anchor="middle" x="473" y="-51.8" font-family="Times,serif" font-size="14.00" fill="#5b00c0">rw</text>
</g>
<!-- T3588&#45;&gt;T3589 -->
<g id="edge2" class="edge">
<title>T3588:f2&#45;&gt;T3589:f4</title>
<path fill="none" stroke="#5b00c0" d="M1190.5,-30C1190.5,-62.08 1240.47,-48.9 1251.4,-71.08"/>
<polygon fill="#5b00c0" stroke="#5b00c0" points="1248.01,-71.94 1253.5,-81 1254.86,-70.49 1248.01,-71.94"/>
<text text-anchor="middle" x="1252" y="-51.8" font-family="Times,serif" font-size="14.00" fill="#5b00c0">rw</text>
</g>
</g>
</svg>
