<?xml version="1.0" encoding="UTF-8" standalone="no"?>
<!DOCTYPE svg PUBLIC "-//W3C//DTD SVG 1.1//EN"
 "http://www.w3.org/Graphics/SVG/1.1/DTD/svg11.dtd">
<!-- Generated by graphviz version 2.43.0 (0)
 -->
<!-- Title: a_graph Pages: 1 -->
<svg width="3318pt" height="119pt"
 viewBox="0.00 0.00 3318.00 119.00" xmlns="http://www.w3.org/2000/svg" xmlns:xlink="http://www.w3.org/1999/xlink">
<g id="graph0" class="graph" transform="scale(1 1) rotate(0) translate(4 115)">
<title>a_graph</title>
<polygon fill="white" stroke="transparent" points="-4,4 -4,-115 3314,-115 3314,4 -4,4"/>
<!-- T1260 -->
<g id="node1" class="node">
<title>T1260</title>
<polygon fill="none" stroke="#0058ad" points="0,-81.5 0,-110.5 3310,-110.5 3310,-81.5 0,-81.5"/>
<text text-anchor="middle" x="282.5" y="-92.3" font-family="Times,serif" font-size="14.00" fill="#0058ad">r 104 [1 2 3 4 7 8 9 10 11 12 13 14 15 16 17 18 19 20 21 22 23 24 27 28 29]</text>
<polyline fill="none" stroke="#0058ad" points="565,-81.5 565,-110.5 "/>
<text text-anchor="middle" x="604.5" y="-92.3" font-family="Times,serif" font-size="14.00" fill="#0058ad">a 106 16</text>
<polyline fill="none" stroke="#0058ad" points="644,-81.5 644,-110.5 "/>
<text text-anchor="middle" x="683.5" y="-92.3" font-family="Times,serif" font-size="14.00" fill="#0058ad">a 106 17</text>
<polyline fill="none" stroke="#0058ad" points="723,-81.5 723,-110.5 "/>
<text text-anchor="middle" x="762.5" y="-92.3" font-family="Times,serif" font-size="14.00" fill="#0058ad">a 106 18</text>
<polyline fill="none" stroke="#0058ad" points="802,-81.5 802,-110.5 "/>
<text text-anchor="middle" x="1075.5" y="-92.3" font-family="Times,serif" font-size="14.00" fill="#0058ad">r 102 [1 2 3 4 5 6 7 8 9 10 11 12 13 14 15 16 17 18 19 20 21 22 23 24 25]</text>
<polyline fill="none" stroke="#0058ad" points="1349,-81.5 1349,-110.5 "/>
<text text-anchor="middle" x="1388.5" y="-92.3" font-family="Times,serif" font-size="14.00" fill="#0058ad">a 106 19</text>
<polyline fill="none" stroke="#0058ad" points="1428,-81.5 1428,-110.5 "/>
<text text-anchor="middle" x="1467.5" y="-92.3" font-family="Times,serif" font-size="14.00" fill="#0058ad">a 102 26</text>
<polyline fill="none" stroke="#0058ad" points="1507,-81.5 1507,-110.5 "/>
<text text-anchor="middle" x="1692.5" y="-92.3" font-family="Times,serif" font-size="14.00" fill="#0058ad">r 106 [4 5 6 7 8 9 10 11 12 13 14 15 16 17 18 19]</text>
<polyline fill="none" stroke="#0058ad" points="1878,-81.5 1878,-110.5 "/>
<text text-anchor="middle" x="2160.5" y="-92.3" font-family="Times,serif" font-size="14.00" fill="#0058ad">r 104 [1 2 3 4 7 8 9 10 11 12 13 14 15 16 17 18 19 20 21 22 23 24 27 28 29]</text>
<polyline fill="none" stroke="#0058ad" points="2443,-81.5 2443,-110.5 "/>
<text text-anchor="middle" x="2482.5" y="-92.3" font-family="Times,serif" font-size="14.00" fill="#0058ad">a 106 20</text>
<polyline fill="none" stroke="#0058ad" points="2522,-81.5 2522,-110.5 "/>
<text text-anchor="middle" x="2719" y="-92.3" font-family="Times,serif" font-size="14.00" fill="#0058ad">r 106 [4 5 6 7 8 9 10 11 12 13 14 15 16 17 18 19 20]</text>
<polyline fill="none" stroke="#0058ad" points="2916,-81.5 2916,-110.5 "/>
<text text-anchor="middle" x="3113" y="-92.3" font-family="Times,serif" font-size="14.00" fill="#0058ad">r 106 [4 5 6 7 8 9 10 11 12 13 14 15 16 17 18 19 20]</text>
</g>
<!-- T1261 -->
<g id="node2" class="node">
<title>T1261</title>
<polygon fill="none" stroke="#0058ad" points="282,-0.5 282,-29.5 800,-29.5 800,-0.5 282,-0.5"/>
<text text-anchor="middle" x="321.5" y="-11.3" font-family="Times,serif" font-size="14.00" fill="#0058ad">a 104 30</text>
<polyline fill="none" stroke="#0058ad" points="361,-0.5 361,-29.5 "/>
<text text-anchor="middle" x="400.5" y="-11.3" font-family="Times,serif" font-size="14.00" fill="#0058ad">a 104 31</text>
<polyline fill="none" stroke="#0058ad" points="440,-0.5 440,-29.5 "/>
<text text-anchor="middle" x="580.5" y="-11.3" font-family="Times,serif" font-size="14.00" fill="#0058ad">r 106 [4 5 6 7 8 9 10 11 12 13 14 15]</text>
<polyline fill="none" stroke="#0058ad" points="721,-0.5 721,-29.5 "/>
<text text-anchor="middle" x="760.5" y="-11.3" font-family="Times,serif" font-size="14.00" fill="#0058ad">a 104 32</text>
</g>
<!-- T1260&#45;&gt;T1261 -->
<g id="edge1" class="edge">
<title>T1260:f0&#45;&gt;T1261:f0</title>
<path fill="none" stroke="#5b00c0" d="M282,-81C282,-56.25 260.4,-26.28 271.28,-17.52"/>
<polygon fill="#5b00c0" stroke="#5b00c0" points="272.2,-20.89 281,-15 270.44,-14.12 272.2,-20.89"/>
<text text-anchor="middle" x="289.5" y="-51.8" font-family="Times,serif" font-size="14.00" fill="#5b00c0">rw</text>
</g>
<!-- T1261&#45;&gt;T1260 -->
<g id="edge2" class="edge">
<title>T1261:f2&#45;&gt;T1260:f1</title>
<path fill="none" stroke="#5b00c0" d="M581,-30C581,-50.98 597.37,-55.16 602.49,-70.89"/>
<polygon fill="#5b00c0" stroke="#5b00c0" points="599.06,-71.63 604,-81 605.98,-70.59 599.06,-71.63"/>
<text text-anchor="middle" x="608.5" y="-51.8" font-family="Times,serif" font-size="14.00" fill="#5b00c0">rw</text>
</g>
</g>
</svg>
