<?xml version="1.0" encoding="UTF-8" standalone="no"?>
<!DOCTYPE svg PUBLIC "-//W3C//DTD SVG 1.1//EN"
 "http://www.w3.org/Graphics/SVG/1.1/DTD/svg11.dtd">
<!-- Generated by graphviz version 2.43.0 (0)
 -->
<!-- Title: a_graph Pages: 1 -->
<svg width="1338pt" height="119pt"
 viewBox="0.00 0.00 1337.50 119.00" xmlns="http://www.w3.org/2000/svg" xmlns:xlink="http://www.w3.org/1999/xlink">
<g id="graph0" class="graph" transform="scale(1 1) rotate(0) translate(4 115)">
<title>a_graph</title>
<polygon fill="white" stroke="transparent" points="-4,4 -4,-115 1333.5,-115 1333.5,4 -4,4"/>
<!-- T2957 -->
<g id="node1" class="node">
<title>T2957</title>
<polygon fill="none" stroke="#0058ad" points="0,-81.5 0,-110.5 743,-110.5 743,-81.5 0,-81.5"/>
<text text-anchor="middle" x="35" y="-92.3" font-family="Times,serif" font-size="14.00" fill="#0058ad">a 109 4</text>
<polyline fill="none" stroke="#0058ad" points="70,-81.5 70,-110.5 "/>
<text text-anchor="middle" x="105" y="-92.3" font-family="Times,serif" font-size="14.00" fill="#0058ad">a 109 5</text>
<polyline fill="none" stroke="#0058ad" points="140,-81.5 140,-110.5 "/>
<text text-anchor="middle" x="406.5" y="-92.3" font-family="Times,serif" font-size="14.00" fill="#0058ad">r 108 [1 2 3 4 5 6 7 8 11 14 18 19 21 22 25 26 27 28 29 30 31 32 23 24]</text>
<polyline fill="none" stroke="#0058ad" points="673,-81.5 673,-110.5 "/>
<text text-anchor="middle" x="708" y="-92.3" font-family="Times,serif" font-size="14.00" fill="#0058ad">a 109 6</text>
</g>
<!-- T2956 -->
<g id="node2" class="node">
<title>T2956</title>
<polygon fill="none" stroke="#0058ad" points="7.5,-0.5 7.5,-29.5 1329.5,-29.5 1329.5,-0.5 7.5,-0.5"/>
<text text-anchor="middle" x="42.5" y="-11.3" font-family="Times,serif" font-size="14.00" fill="#0058ad">a 108 9</text>
<polyline fill="none" stroke="#0058ad" points="77.5,-0.5 77.5,-29.5 "/>
<text text-anchor="middle" x="234" y="-11.3" font-family="Times,serif" font-size="14.00" fill="#0058ad">r 109 [1 2 3 7 9 10 11 19 20 21 25 28 29]</text>
<polyline fill="none" stroke="#0058ad" points="390.5,-0.5 390.5,-29.5 "/>
<text text-anchor="middle" x="547" y="-11.3" font-family="Times,serif" font-size="14.00" fill="#0058ad">r 109 [1 2 3 7 9 10 11 19 20 21 25 28 29]</text>
<polyline fill="none" stroke="#0058ad" points="703.5,-0.5 703.5,-29.5 "/>
<text text-anchor="middle" x="977" y="-11.3" font-family="Times,serif" font-size="14.00" fill="#0058ad">r 108 [1 2 3 4 5 6 7 8 11 14 18 19 21 22 25 26 27 28 29 30 31 32 23 24 9]</text>
<polyline fill="none" stroke="#0058ad" points="1250.5,-0.5 1250.5,-29.5 "/>
<text text-anchor="middle" x="1290" y="-11.3" font-family="Times,serif" font-size="14.00" fill="#0058ad">a 108 10</text>
</g>
<!-- T2957&#45;&gt;T2956 -->
<g id="edge1" class="edge">
<title>T2957:f2&#45;&gt;T2956:f0</title>
<path fill="none" stroke="#5b00c0" d="M406.5,-81C406.5,-71.79 110.12,-45.99 52.24,-33.54"/>
<polygon fill="#5b00c0" stroke="#5b00c0" points="53.09,-30.12 42.5,-30 50.7,-36.7 53.09,-30.12"/>
<text text-anchor="middle" x="298" y="-51.8" font-family="Times,serif" font-size="14.00" fill="#5b00c0">rw</text>
</g>
<!-- T2956&#45;&gt;T2957 -->
<g id="edge2" class="edge">
<title>T2956:f1&#45;&gt;T2957:f0</title>
<path fill="none" stroke="#5b00c0" d="M233.5,-30C233.5,-51.92 157.75,-42.61 136.5,-48 94.1,-58.74 43.59,-37.42 35.59,-70.71"/>
<polygon fill="#5b00c0" stroke="#5b00c0" points="32.07,-70.69 34.5,-81 39.03,-71.42 32.07,-70.69"/>
<text text-anchor="middle" x="146" y="-51.8" font-family="Times,serif" font-size="14.00" fill="#5b00c0">rw</text>
</g>
</g>
</svg>
