<?xml version="1.0" encoding="UTF-8" standalone="no"?>
<!DOCTYPE svg PUBLIC "-//W3C//DTD SVG 1.1//EN"
 "http://www.w3.org/Graphics/SVG/1.1/DTD/svg11.dtd">
<!-- Generated by graphviz version 2.43.0 (0)
 -->
<!-- Title: a_graph Pages: 1 -->
<svg width="1574pt" height="119pt"
 viewBox="0.00 0.00 1574.00 119.00" xmlns="http://www.w3.org/2000/svg" xmlns:xlink="http://www.w3.org/1999/xlink">
<g id="graph0" class="graph" transform="scale(1 1) rotate(0) translate(4 115)">
<title>a_graph</title>
<polygon fill="white" stroke="transparent" points="-4,4 -4,-115 1570,-115 1570,4 -4,4"/>
<!-- T1531 -->
<g id="node1" class="node">
<title>T1531</title>
<polygon fill="none" stroke="#0058ad" points="0,-81.5 0,-110.5 1348,-110.5 1348,-81.5 0,-81.5"/>
<text text-anchor="middle" x="145" y="-92.3" font-family="Times,serif" font-size="14.00" fill="#0058ad">r 58 [1 2 3 4 5 6 7 8 9 10 11 12 13 14]</text>
<polyline fill="none" stroke="#0058ad" points="290,-81.5 290,-110.5 "/>
<text text-anchor="middle" x="581.5" y="-92.3" font-family="Times,serif" font-size="14.00" fill="#0058ad">r 56 [1 2 3 4 5 6 7 8 9 10 11 14 15 16 17 18 19 20 21 22 23 24 25 26 27 28 29]</text>
<polyline fill="none" stroke="#0058ad" points="873,-81.5 873,-110.5 "/>
<text text-anchor="middle" x="908" y="-92.3" font-family="Times,serif" font-size="14.00" fill="#0058ad">a 58 15</text>
<polyline fill="none" stroke="#0058ad" points="943,-81.5 943,-110.5 "/>
<text text-anchor="middle" x="978" y="-92.3" font-family="Times,serif" font-size="14.00" fill="#0058ad">a 58 16</text>
<polyline fill="none" stroke="#0058ad" points="1013,-81.5 1013,-110.5 "/>
<text text-anchor="middle" x="1180.5" y="-92.3" font-family="Times,serif" font-size="14.00" fill="#0058ad">r 58 [1 2 3 4 5 6 7 8 9 10 11 12 13 14 15 16]</text>
</g>
<!-- T1530 -->
<g id="node2" class="node">
<title>T1530</title>
<polygon fill="none" stroke="#0058ad" points="438,-0.5 438,-29.5 1566,-29.5 1566,-0.5 438,-0.5"/>
<text text-anchor="middle" x="583" y="-11.3" font-family="Times,serif" font-size="14.00" fill="#0058ad">r 58 [1 2 3 4 5 6 7 8 9 10 11 12 13 14]</text>
<polyline fill="none" stroke="#0058ad" points="728,-0.5 728,-29.5 "/>
<text text-anchor="middle" x="763" y="-11.3" font-family="Times,serif" font-size="14.00" fill="#0058ad">a 56 30</text>
<polyline fill="none" stroke="#0058ad" points="798,-0.5 798,-29.5 "/>
<text text-anchor="middle" x="833" y="-11.3" font-family="Times,serif" font-size="14.00" fill="#0058ad">a 56 31</text>
<polyline fill="none" stroke="#0058ad" points="868,-0.5 868,-29.5 "/>
<text text-anchor="middle" x="903" y="-11.3" font-family="Times,serif" font-size="14.00" fill="#0058ad">a 55 16</text>
<polyline fill="none" stroke="#0058ad" points="938,-0.5 938,-29.5 "/>
<text text-anchor="middle" x="1252" y="-11.3" font-family="Times,serif" font-size="14.00" fill="#0058ad">r 56 [1 2 3 4 5 6 7 8 9 10 11 14 15 16 17 18 19 20 21 22 23 24 25 26 27 28 29 30 31]</text>
</g>
<!-- T1531&#45;&gt;T1530 -->
<g id="edge1" class="edge">
<title>T1531:f1&#45;&gt;T1530:f1</title>
<path fill="none" stroke="#5b00c0" d="M581,-81C581,-0.77 747.02,-103.9 761.93,-40.14"/>
<polygon fill="#5b00c0" stroke="#5b00c0" points="765.43,-40.31 763,-30 758.47,-39.58 765.43,-40.31"/>
<text text-anchor="middle" x="767.5" y="-51.8" font-family="Times,serif" font-size="14.00" fill="#5b00c0">rw</text>
</g>
<!-- T1530&#45;&gt;T1531 -->
<g id="edge2" class="edge">
<title>T1530:f0&#45;&gt;T1531:f2</title>
<path fill="none" stroke="#5b00c0" d="M583,-30C583,-52.09 759.24,-44.21 781,-48 834.75,-57.36 899.09,-27.05 907.16,-70.85"/>
<polygon fill="#5b00c0" stroke="#5b00c0" points="903.68,-71.32 908,-81 910.66,-70.74 903.68,-71.32"/>
<text text-anchor="middle" x="913.5" y="-51.8" font-family="Times,serif" font-size="14.00" fill="#5b00c0">rw</text>
</g>
</g>
</svg>
