<?xml version="1.0" encoding="UTF-8" standalone="no"?>
<!DOCTYPE svg PUBLIC "-//W3C//DTD SVG 1.1//EN"
 "http://www.w3.org/Graphics/SVG/1.1/DTD/svg11.dtd">
<!-- Generated by graphviz version 2.43.0 (0)
 -->
<!-- Title: a_graph Pages: 1 -->
<svg width="1395pt" height="119pt"
 viewBox="0.00 0.00 1395.00 119.00" xmlns="http://www.w3.org/2000/svg" xmlns:xlink="http://www.w3.org/1999/xlink">
<g id="graph0" class="graph" transform="scale(1 1) rotate(0) translate(4 115)">
<title>a_graph</title>
<polygon fill="white" stroke="transparent" points="-4,4 -4,-115 1391,-115 1391,4 -4,4"/>
<!-- T334 -->
<g id="node1" class="node">
<title>T334</title>
<polygon fill="none" stroke="#0058ad" points="144,-81.5 144,-110.5 457,-110.5 457,-81.5 144,-81.5"/>
<text text-anchor="middle" x="230.5" y="-92.3" font-family="Times,serif" font-size="14.00" fill="#0058ad">r 14 [6 9 10 16 17 18]</text>
<polyline fill="none" stroke="#0058ad" points="317,-81.5 317,-110.5 "/>
<text text-anchor="middle" x="352" y="-92.3" font-family="Times,serif" font-size="14.00" fill="#0058ad">a 11 26</text>
<polyline fill="none" stroke="#0058ad" points="387,-81.5 387,-110.5 "/>
<text text-anchor="middle" x="422" y="-92.3" font-family="Times,serif" font-size="14.00" fill="#0058ad">a 11 27</text>
</g>
<!-- T335 -->
<g id="node2" class="node">
<title>T335</title>
<polygon fill="none" stroke="#0058ad" points="0,-0.5 0,-29.5 1387,-29.5 1387,-0.5 0,-0.5"/>
<text text-anchor="middle" x="86.5" y="-11.3" font-family="Times,serif" font-size="14.00" fill="#0058ad">r 14 [6 9 10 16 17 18]</text>
<polyline fill="none" stroke="#0058ad" points="173,-0.5 173,-29.5 "/>
<text text-anchor="middle" x="208" y="-11.3" font-family="Times,serif" font-size="14.00" fill="#0058ad">a 14 19</text>
<polyline fill="none" stroke="#0058ad" points="243,-0.5 243,-29.5 "/>
<text text-anchor="middle" x="422" y="-11.3" font-family="Times,serif" font-size="14.00" fill="#0058ad">r 11 [1 2 3 4 5 6 7 8 9 10 11 12 18 22 23 24 25]</text>
<polyline fill="none" stroke="#0058ad" points="601,-0.5 601,-29.5 "/>
<text text-anchor="middle" x="780" y="-11.3" font-family="Times,serif" font-size="14.00" fill="#0058ad">r 11 [1 2 3 4 5 6 7 8 9 10 11 12 18 22 23 24 25]</text>
<polyline fill="none" stroke="#0058ad" points="959,-0.5 959,-29.5 "/>
<text text-anchor="middle" x="994" y="-11.3" font-family="Times,serif" font-size="14.00" fill="#0058ad">a 14 20</text>
<polyline fill="none" stroke="#0058ad" points="1029,-0.5 1029,-29.5 "/>
<text text-anchor="middle" x="1208" y="-11.3" font-family="Times,serif" font-size="14.00" fill="#0058ad">r 11 [1 2 3 4 5 6 7 8 9 10 11 12 18 22 23 24 25]</text>
</g>
<!-- T334&#45;&gt;T335 -->
<g id="edge1" class="edge">
<title>T334:f0&#45;&gt;T335:f1</title>
<path fill="none" stroke="#5b00c0" d="M230.5,-81C230.5,-60.02 214.13,-55.84 209.01,-40.11"/>
<polygon fill="#5b00c0" stroke="#5b00c0" points="212.44,-39.37 207.5,-30 205.52,-40.41 212.44,-39.37"/>
<text text-anchor="middle" x="235" y="-51.8" font-family="Times,serif" font-size="14.00" fill="#5b00c0">rw</text>
</g>
<!-- T335&#45;&gt;T334 -->
<g id="edge2" class="edge">
<title>T335:f2&#45;&gt;T334:f1</title>
<path fill="none" stroke="#5b00c0" d="M421.5,-30C421.5,-64.11 366.29,-47.49 354.64,-70.9"/>
<polygon fill="#5b00c0" stroke="#5b00c0" points="351.15,-70.49 352.5,-81 358,-71.94 351.15,-70.49"/>
<text text-anchor="middle" x="420" y="-51.8" font-family="Times,serif" font-size="14.00" fill="#5b00c0">rw</text>
</g>
</g>
</svg>
