<?xml version="1.0" encoding="UTF-8" standalone="no"?>
<!DOCTYPE svg PUBLIC "-//W3C//DTD SVG 1.1//EN"
 "http://www.w3.org/Graphics/SVG/1.1/DTD/svg11.dtd">
<!-- Generated by graphviz version 2.43.0 (0)
 -->
<!-- Title: a_graph Pages: 1 -->
<svg width="736pt" height="119pt"
 viewBox="0.00 0.00 736.00 119.00" xmlns="http://www.w3.org/2000/svg" xmlns:xlink="http://www.w3.org/1999/xlink">
<g id="graph0" class="graph" transform="scale(1 1) rotate(0) translate(4 115)">
<title>a_graph</title>
<polygon fill="white" stroke="transparent" points="-4,4 -4,-115 732,-115 732,4 -4,4"/>
<!-- T742 -->
<g id="node1" class="node">
<title>T742</title>
<polygon fill="none" stroke="#0058ad" points="0,-81.5 0,-110.5 663,-110.5 663,-81.5 0,-81.5"/>
<text text-anchor="middle" x="53" y="-92.3" font-family="Times,serif" font-size="14.00" fill="#0058ad">r 273 [1 2 3]</text>
<polyline fill="none" stroke="#0058ad" points="106,-81.5 106,-110.5 "/>
<text text-anchor="middle" x="152" y="-92.3" font-family="Times,serif" font-size="14.00" fill="#0058ad">r 302 [1 2]</text>
<polyline fill="none" stroke="#0058ad" points="198,-81.5 198,-110.5 "/>
<text text-anchor="middle" x="251" y="-92.3" font-family="Times,serif" font-size="14.00" fill="#0058ad">r 308 [1 2 3]</text>
<polyline fill="none" stroke="#0058ad" points="304,-81.5 304,-110.5 "/>
<text text-anchor="middle" x="339" y="-92.3" font-family="Times,serif" font-size="14.00" fill="#0058ad">a 311 1</text>
<polyline fill="none" stroke="#0058ad" points="374,-81.5 374,-110.5 "/>
<text text-anchor="middle" x="413.5" y="-92.3" font-family="Times,serif" font-size="14.00" fill="#0058ad">r 309 [1]</text>
<polyline fill="none" stroke="#0058ad" points="453,-81.5 453,-110.5 "/>
<text text-anchor="middle" x="488" y="-92.3" font-family="Times,serif" font-size="14.00" fill="#0058ad">a 302 3</text>
<polyline fill="none" stroke="#0058ad" points="523,-81.5 523,-110.5 "/>
<text text-anchor="middle" x="558" y="-92.3" font-family="Times,serif" font-size="14.00" fill="#0058ad">r 310 []</text>
<polyline fill="none" stroke="#0058ad" points="593,-81.5 593,-110.5 "/>
<text text-anchor="middle" x="628" y="-92.3" font-family="Times,serif" font-size="14.00" fill="#0058ad">a 310 1</text>
</g>
<!-- T743 -->
<g id="node2" class="node">
<title>T743</title>
<polygon fill="none" stroke="#0058ad" points="229,-0.5 229,-29.5 728,-29.5 728,-0.5 229,-0.5"/>
<text text-anchor="middle" x="268.5" y="-11.3" font-family="Times,serif" font-size="14.00" fill="#0058ad">r 309 [1]</text>
<polyline fill="none" stroke="#0058ad" points="308,-0.5 308,-29.5 "/>
<text text-anchor="middle" x="343" y="-11.3" font-family="Times,serif" font-size="14.00" fill="#0058ad">r 311 []</text>
<polyline fill="none" stroke="#0058ad" points="378,-0.5 378,-29.5 "/>
<text text-anchor="middle" x="413" y="-11.3" font-family="Times,serif" font-size="14.00" fill="#0058ad">a 309 2</text>
<polyline fill="none" stroke="#0058ad" points="448,-0.5 448,-29.5 "/>
<text text-anchor="middle" x="483" y="-11.3" font-family="Times,serif" font-size="14.00" fill="#0058ad">a 309 3</text>
<polyline fill="none" stroke="#0058ad" points="518,-0.5 518,-29.5 "/>
<text text-anchor="middle" x="553" y="-11.3" font-family="Times,serif" font-size="14.00" fill="#0058ad">r 311 []</text>
<polyline fill="none" stroke="#0058ad" points="588,-0.5 588,-29.5 "/>
<text text-anchor="middle" x="623" y="-11.3" font-family="Times,serif" font-size="14.00" fill="#0058ad">r 311 []</text>
<polyline fill="none" stroke="#0058ad" points="658,-0.5 658,-29.5 "/>
<text text-anchor="middle" x="693" y="-11.3" font-family="Times,serif" font-size="14.00" fill="#0058ad">r 311 []</text>
</g>
<!-- T742&#45;&gt;T743 -->
<g id="edge1" class="edge">
<title>T742:f4&#45;&gt;T743:f2</title>
<path fill="none" stroke="#5b00c0" d="M413.5,-81C413.5,-62.23 412.81,-55.12 412.58,-40.35"/>
<polygon fill="#5b00c0" stroke="#5b00c0" points="416.08,-39.97 412.5,-30 409.08,-40.03 416.08,-39.97"/>
<text text-anchor="middle" x="422" y="-51.8" font-family="Times,serif" font-size="14.00" fill="#5b00c0">rw</text>
</g>
<!-- T743&#45;&gt;T742 -->
<g id="edge2" class="edge">
<title>T743:f1&#45;&gt;T742:f3</title>
<path fill="none" stroke="#5b00c0" d="M342.5,-30C342.5,-48.8 340.44,-55.87 339.74,-70.64"/>
<polygon fill="#5b00c0" stroke="#5b00c0" points="336.23,-70.92 339.5,-81 343.23,-71.08 336.23,-70.92"/>
<text text-anchor="middle" x="352" y="-51.8" font-family="Times,serif" font-size="14.00" fill="#5b00c0">rw</text>
</g>
</g>
</svg>
