<?xml version="1.0" encoding="UTF-8" standalone="no"?>
<!DOCTYPE svg PUBLIC "-//W3C//DTD SVG 1.1//EN"
 "http://www.w3.org/Graphics/SVG/1.1/DTD/svg11.dtd">
<!-- Generated by graphviz version 2.43.0 (0)
 -->
<!-- Title: a_graph Pages: 1 -->
<svg width="580pt" height="119pt"
 viewBox="0.00 0.00 579.50 119.00" xmlns="http://www.w3.org/2000/svg" xmlns:xlink="http://www.w3.org/1999/xlink">
<g id="graph0" class="graph" transform="scale(1 1) rotate(0) translate(4 115)">
<title>a_graph</title>
<polygon fill="white" stroke="transparent" points="-4,4 -4,-115 575.5,-115 575.5,4 -4,4"/>
<!-- T2026 -->
<g id="node1" class="node">
<title>T2026</title>
<polygon fill="none" stroke="#0058ad" points="0,-81.5 0,-110.5 496,-110.5 496,-81.5 0,-81.5"/>
<text text-anchor="middle" x="39.5" y="-92.3" font-family="Times,serif" font-size="14.00" fill="#0058ad">r 834 [1]</text>
<polyline fill="none" stroke="#0058ad" points="79,-81.5 79,-110.5 "/>
<text text-anchor="middle" x="118.5" y="-92.3" font-family="Times,serif" font-size="14.00" fill="#0058ad">r 834 [1]</text>
<polyline fill="none" stroke="#0058ad" points="158,-81.5 158,-110.5 "/>
<text text-anchor="middle" x="211" y="-92.3" font-family="Times,serif" font-size="14.00" fill="#0058ad">r 811 [1 2 3]</text>
<polyline fill="none" stroke="#0058ad" points="264,-81.5 264,-110.5 "/>
<text text-anchor="middle" x="299" y="-92.3" font-family="Times,serif" font-size="14.00" fill="#0058ad">a 834 2</text>
<polyline fill="none" stroke="#0058ad" points="334,-81.5 334,-110.5 "/>
<text text-anchor="middle" x="369" y="-92.3" font-family="Times,serif" font-size="14.00" fill="#0058ad">a 829 3</text>
<polyline fill="none" stroke="#0058ad" points="404,-81.5 404,-110.5 "/>
<text text-anchor="middle" x="450" y="-92.3" font-family="Times,serif" font-size="14.00" fill="#0058ad">r 832 [1 2]</text>
</g>
<!-- T2027 -->
<g id="node2" class="node">
<title>T2027</title>
<polygon fill="none" stroke="#0058ad" points="224.5,-0.5 224.5,-29.5 571.5,-29.5 571.5,-0.5 224.5,-0.5"/>
<text text-anchor="middle" x="270.5" y="-11.3" font-family="Times,serif" font-size="14.00" fill="#0058ad">r 829 [1 2]</text>
<polyline fill="none" stroke="#0058ad" points="316.5,-0.5 316.5,-29.5 "/>
<text text-anchor="middle" x="356" y="-11.3" font-family="Times,serif" font-size="14.00" fill="#0058ad">r 834 [1]</text>
<polyline fill="none" stroke="#0058ad" points="395.5,-0.5 395.5,-29.5 "/>
<text text-anchor="middle" x="430.5" y="-11.3" font-family="Times,serif" font-size="14.00" fill="#0058ad">a 832 3</text>
<polyline fill="none" stroke="#0058ad" points="465.5,-0.5 465.5,-29.5 "/>
<text text-anchor="middle" x="518.5" y="-11.3" font-family="Times,serif" font-size="14.00" fill="#0058ad">r 811 [1 2 3]</text>
</g>
<!-- T2026&#45;&gt;T2027 -->
<g id="edge1" class="edge">
<title>T2026:f5&#45;&gt;T2027:f2</title>
<path fill="none" stroke="#5b00c0" d="M450,-81C450,-60.59 436.47,-55.53 432.25,-39.92"/>
<polygon fill="#5b00c0" stroke="#5b00c0" points="435.72,-39.49 431,-30 428.77,-40.36 435.72,-39.49"/>
<text text-anchor="middle" x="454.5" y="-51.8" font-family="Times,serif" font-size="14.00" fill="#5b00c0">rw</text>
</g>
<!-- T2027&#45;&gt;T2026 -->
<g id="edge2" class="edge">
<title>T2027:f1&#45;&gt;T2026:f3</title>
<path fill="none" stroke="#5b00c0" d="M356,-30C356,-60.01 311.58,-50.29 301.16,-70.99"/>
<polygon fill="#5b00c0" stroke="#5b00c0" points="297.69,-70.49 299,-81 304.53,-71.97 297.69,-70.49"/>
<text text-anchor="middle" x="355.5" y="-51.8" font-family="Times,serif" font-size="14.00" fill="#5b00c0">rw</text>
</g>
</g>
</svg>
