<?xml version="1.0" encoding="UTF-8" standalone="no"?>
<!DOCTYPE svg PUBLIC "-//W3C//DTD SVG 1.1//EN"
 "http://www.w3.org/Graphics/SVG/1.1/DTD/svg11.dtd">
<!-- Generated by graphviz version 2.43.0 (0)
 -->
<!-- Title: a_graph Pages: 1 -->
<svg width="616pt" height="119pt"
 viewBox="0.00 0.00 615.50 119.00" xmlns="http://www.w3.org/2000/svg" xmlns:xlink="http://www.w3.org/1999/xlink">
<g id="graph0" class="graph" transform="scale(1 1) rotate(0) translate(4 115)">
<title>a_graph</title>
<polygon fill="white" stroke="transparent" points="-4,4 -4,-115 611.5,-115 611.5,4 -4,4"/>
<!-- T632 -->
<g id="node1" class="node">
<title>T632</title>
<polygon fill="none" stroke="#0058ad" points="0,-81.5 0,-110.5 501,-110.5 501,-81.5 0,-81.5"/>
<text text-anchor="middle" x="35" y="-92.3" font-family="Times,serif" font-size="14.00" fill="#0058ad">a 249 3</text>
<polyline fill="none" stroke="#0058ad" points="70,-81.5 70,-110.5 "/>
<text text-anchor="middle" x="105" y="-92.3" font-family="Times,serif" font-size="14.00" fill="#0058ad">a 267 3</text>
<polyline fill="none" stroke="#0058ad" points="140,-81.5 140,-110.5 "/>
<text text-anchor="middle" x="193" y="-92.3" font-family="Times,serif" font-size="14.00" fill="#0058ad">r 267 [1 2 3]</text>
<polyline fill="none" stroke="#0058ad" points="246,-81.5 246,-110.5 "/>
<text text-anchor="middle" x="299" y="-92.3" font-family="Times,serif" font-size="14.00" fill="#0058ad">r 267 [1 2 3]</text>
<polyline fill="none" stroke="#0058ad" points="352,-81.5 352,-110.5 "/>
<text text-anchor="middle" x="387" y="-92.3" font-family="Times,serif" font-size="14.00" fill="#0058ad">a 268 1</text>
<polyline fill="none" stroke="#0058ad" points="422,-81.5 422,-110.5 "/>
<text text-anchor="middle" x="461.5" y="-92.3" font-family="Times,serif" font-size="14.00" fill="#0058ad">r 265 [1]</text>
</g>
<!-- T633 -->
<g id="node2" class="node">
<title>T633</title>
<polygon fill="none" stroke="#0058ad" points="257.5,-0.5 257.5,-29.5 607.5,-29.5 607.5,-0.5 257.5,-0.5"/>
<text text-anchor="middle" x="292.5" y="-11.3" font-family="Times,serif" font-size="14.00" fill="#0058ad">a 264 1</text>
<polyline fill="none" stroke="#0058ad" points="327.5,-0.5 327.5,-29.5 "/>
<text text-anchor="middle" x="362.5" y="-11.3" font-family="Times,serif" font-size="14.00" fill="#0058ad">r 268 []</text>
<polyline fill="none" stroke="#0058ad" points="397.5,-0.5 397.5,-29.5 "/>
<text text-anchor="middle" x="432.5" y="-11.3" font-family="Times,serif" font-size="14.00" fill="#0058ad">r 268 []</text>
<polyline fill="none" stroke="#0058ad" points="467.5,-0.5 467.5,-29.5 "/>
<text text-anchor="middle" x="502.5" y="-11.3" font-family="Times,serif" font-size="14.00" fill="#0058ad">a 265 2</text>
<polyline fill="none" stroke="#0058ad" points="537.5,-0.5 537.5,-29.5 "/>
<text text-anchor="middle" x="572.5" y="-11.3" font-family="Times,serif" font-size="14.00" fill="#0058ad">r 268 []</text>
</g>
<!-- T632&#45;&gt;T633 -->
<g id="edge1" class="edge">
<title>T632:f5&#45;&gt;T633:f3</title>
<path fill="none" stroke="#5b00c0" d="M502.5,-96C528.51,-96 508.39,-67.17 503.5,-40.19"/>
<polygon fill="#5b00c0" stroke="#5b00c0" points="506.96,-39.61 502.5,-30 500,-40.29 506.96,-39.61"/>
<text text-anchor="middle" x="519" y="-51.8" font-family="Times,serif" font-size="14.00" fill="#5b00c0">rw</text>
</g>
<!-- T633&#45;&gt;T632 -->
<g id="edge2" class="edge">
<title>T633:f1&#45;&gt;T632:f4</title>
<path fill="none" stroke="#5b00c0" d="M362.5,-30C362.5,-51.3 380.3,-54.99 385.86,-70.79"/>
<polygon fill="#5b00c0" stroke="#5b00c0" points="382.46,-71.68 387.5,-81 389.37,-70.57 382.46,-71.68"/>
<text text-anchor="middle" x="391" y="-51.8" font-family="Times,serif" font-size="14.00" fill="#5b00c0">rw</text>
</g>
</g>
</svg>
