<?xml version="1.0" encoding="UTF-8" standalone="no"?>
<!DOCTYPE svg PUBLIC "-//W3C//DTD SVG 1.1//EN"
 "http://www.w3.org/Graphics/SVG/1.1/DTD/svg11.dtd">
<!-- Generated by graphviz version 2.43.0 (0)
 -->
<!-- Title: a_graph Pages: 1 -->
<svg width="638pt" height="119pt"
 viewBox="0.00 0.00 638.00 119.00" xmlns="http://www.w3.org/2000/svg" xmlns:xlink="http://www.w3.org/1999/xlink">
<g id="graph0" class="graph" transform="scale(1 1) rotate(0) translate(4 115)">
<title>a_graph</title>
<polygon fill="white" stroke="transparent" points="-4,4 -4,-115 634,-115 634,4 -4,4"/>
<!-- T972 -->
<g id="node1" class="node">
<title>T972</title>
<polygon fill="none" stroke="#0058ad" points="0,-81.5 0,-110.5 324,-110.5 324,-81.5 0,-81.5"/>
<text text-anchor="middle" x="46" y="-92.3" font-family="Times,serif" font-size="14.00" fill="#0058ad">r 399 [2 3]</text>
<polyline fill="none" stroke="#0058ad" points="92,-81.5 92,-110.5 "/>
<text text-anchor="middle" x="138" y="-92.3" font-family="Times,serif" font-size="14.00" fill="#0058ad">r 399 [2 3]</text>
<polyline fill="none" stroke="#0058ad" points="184,-81.5 184,-110.5 "/>
<text text-anchor="middle" x="219" y="-92.3" font-family="Times,serif" font-size="14.00" fill="#0058ad">a 393 3</text>
<polyline fill="none" stroke="#0058ad" points="254,-81.5 254,-110.5 "/>
<text text-anchor="middle" x="289" y="-92.3" font-family="Times,serif" font-size="14.00" fill="#0058ad">r 400 []</text>
</g>
<!-- T973 -->
<g id="node2" class="node">
<title>T973</title>
<polygon fill="none" stroke="#0058ad" points="170,-0.5 170,-29.5 630,-29.5 630,-0.5 170,-0.5"/>
<text text-anchor="middle" x="216" y="-11.3" font-family="Times,serif" font-size="14.00" fill="#0058ad">r 393 [1 2]</text>
<polyline fill="none" stroke="#0058ad" points="262,-0.5 262,-29.5 "/>
<text text-anchor="middle" x="297" y="-11.3" font-family="Times,serif" font-size="14.00" fill="#0058ad">a 400 1</text>
<polyline fill="none" stroke="#0058ad" points="332,-0.5 332,-29.5 "/>
<text text-anchor="middle" x="367" y="-11.3" font-family="Times,serif" font-size="14.00" fill="#0058ad">a 403 1</text>
<polyline fill="none" stroke="#0058ad" points="402,-0.5 402,-29.5 "/>
<text text-anchor="middle" x="441.5" y="-11.3" font-family="Times,serif" font-size="14.00" fill="#0058ad">r 403 [1]</text>
<polyline fill="none" stroke="#0058ad" points="481,-0.5 481,-29.5 "/>
<text text-anchor="middle" x="516" y="-11.3" font-family="Times,serif" font-size="14.00" fill="#0058ad">a 403 2</text>
<polyline fill="none" stroke="#0058ad" points="551,-0.5 551,-29.5 "/>
<text text-anchor="middle" x="590.5" y="-11.3" font-family="Times,serif" font-size="14.00" fill="#0058ad">r 401 [1]</text>
</g>
<!-- T972&#45;&gt;T973 -->
<g id="edge1" class="edge">
<title>T972:f3&#45;&gt;T973:f1</title>
<path fill="none" stroke="#5b00c0" d="M289,-81C289,-61.82 294.59,-55.1 296.42,-40.01"/>
<polygon fill="#5b00c0" stroke="#5b00c0" points="299.92,-40.18 297,-30 292.93,-39.78 299.92,-40.18"/>
<text text-anchor="middle" x="303.5" y="-51.8" font-family="Times,serif" font-size="14.00" fill="#5b00c0">rw</text>
</g>
<!-- T973&#45;&gt;T972 -->
<g id="edge2" class="edge">
<title>T973:f0&#45;&gt;T972:f2</title>
<path fill="none" stroke="#5b00c0" d="M216,-30C216,-48.8 218.06,-55.87 218.76,-70.64"/>
<polygon fill="#5b00c0" stroke="#5b00c0" points="215.27,-71.08 219,-81 222.27,-70.92 215.27,-71.08"/>
<text text-anchor="middle" x="228.5" y="-51.8" font-family="Times,serif" font-size="14.00" fill="#5b00c0">rw</text>
</g>
</g>
</svg>
