<?xml version="1.0" encoding="UTF-8" standalone="no"?>
<!DOCTYPE svg PUBLIC "-//W3C//DTD SVG 1.1//EN"
 "http://www.w3.org/Graphics/SVG/1.1/DTD/svg11.dtd">
<!-- Generated by graphviz version 2.43.0 (0)
 -->
<!-- Title: a_graph Pages: 1 -->
<svg width="723pt" height="119pt"
 viewBox="0.00 0.00 722.50 119.00" xmlns="http://www.w3.org/2000/svg" xmlns:xlink="http://www.w3.org/1999/xlink">
<g id="graph0" class="graph" transform="scale(1 1) rotate(0) translate(4 115)">
<title>a_graph</title>
<polygon fill="white" stroke="transparent" points="-4,4 -4,-115 718.5,-115 718.5,4 -4,4"/>
<!-- T1547 -->
<g id="node1" class="node">
<title>T1547</title>
<polygon fill="none" stroke="#0058ad" points="0,-81.5 0,-110.5 605,-110.5 605,-81.5 0,-81.5"/>
<text text-anchor="middle" x="39.5" y="-92.3" font-family="Times,serif" font-size="14.00" fill="#0058ad">r 637 [1]</text>
<polyline fill="none" stroke="#0058ad" points="79,-81.5 79,-110.5 "/>
<text text-anchor="middle" x="118.5" y="-92.3" font-family="Times,serif" font-size="14.00" fill="#0058ad">r 633 [1]</text>
<polyline fill="none" stroke="#0058ad" points="158,-81.5 158,-110.5 "/>
<text text-anchor="middle" x="193" y="-92.3" font-family="Times,serif" font-size="14.00" fill="#0058ad">r 638 []</text>
<polyline fill="none" stroke="#0058ad" points="228,-81.5 228,-110.5 "/>
<text text-anchor="middle" x="263" y="-92.3" font-family="Times,serif" font-size="14.00" fill="#0058ad">a 638 1</text>
<polyline fill="none" stroke="#0058ad" points="298,-81.5 298,-110.5 "/>
<text text-anchor="middle" x="337.5" y="-92.3" font-family="Times,serif" font-size="14.00" fill="#0058ad">r 638 [1]</text>
<polyline fill="none" stroke="#0058ad" points="377,-81.5 377,-110.5 "/>
<text text-anchor="middle" x="416.5" y="-92.3" font-family="Times,serif" font-size="14.00" fill="#0058ad">r 633 [1]</text>
<polyline fill="none" stroke="#0058ad" points="456,-81.5 456,-110.5 "/>
<text text-anchor="middle" x="491" y="-92.3" font-family="Times,serif" font-size="14.00" fill="#0058ad">a 635 2</text>
<polyline fill="none" stroke="#0058ad" points="526,-81.5 526,-110.5 "/>
<text text-anchor="middle" x="565.5" y="-92.3" font-family="Times,serif" font-size="14.00" fill="#0058ad">r 633 [1]</text>
</g>
<!-- T1546 -->
<g id="node2" class="node">
<title>T1546</title>
<polygon fill="none" stroke="#0058ad" points="162.5,-0.5 162.5,-29.5 714.5,-29.5 714.5,-0.5 162.5,-0.5"/>
<text text-anchor="middle" x="202" y="-11.3" font-family="Times,serif" font-size="14.00" fill="#0058ad">r 637 [1]</text>
<polyline fill="none" stroke="#0058ad" points="241.5,-0.5 241.5,-29.5 "/>
<text text-anchor="middle" x="276.5" y="-11.3" font-family="Times,serif" font-size="14.00" fill="#0058ad">a 637 2</text>
<polyline fill="none" stroke="#0058ad" points="311.5,-0.5 311.5,-29.5 "/>
<text text-anchor="middle" x="351" y="-11.3" font-family="Times,serif" font-size="14.00" fill="#0058ad">r 635 [1]</text>
<polyline fill="none" stroke="#0058ad" points="390.5,-0.5 390.5,-29.5 "/>
<text text-anchor="middle" x="436.5" y="-11.3" font-family="Times,serif" font-size="14.00" fill="#0058ad">r 637 [1 2]</text>
<polyline fill="none" stroke="#0058ad" points="482.5,-0.5 482.5,-29.5 "/>
<text text-anchor="middle" x="517.5" y="-11.3" font-family="Times,serif" font-size="14.00" fill="#0058ad">a 618 3</text>
<polyline fill="none" stroke="#0058ad" points="552.5,-0.5 552.5,-29.5 "/>
<text text-anchor="middle" x="598.5" y="-11.3" font-family="Times,serif" font-size="14.00" fill="#0058ad">r 637 [1 2]</text>
<polyline fill="none" stroke="#0058ad" points="644.5,-0.5 644.5,-29.5 "/>
<text text-anchor="middle" x="679.5" y="-11.3" font-family="Times,serif" font-size="14.00" fill="#0058ad">a 637 3</text>
</g>
<!-- T1547&#45;&gt;T1546 -->
<g id="edge1" class="edge">
<title>T1547:f0&#45;&gt;T1546:f1</title>
<path fill="none" stroke="#5b00c0" d="M39.5,-81C39.5,23.06 260.58,-126.82 275.69,-40.12"/>
<polygon fill="#5b00c0" stroke="#5b00c0" points="279.19,-40.25 276.5,-30 272.21,-39.69 279.19,-40.25"/>
<text text-anchor="middle" x="282" y="-51.8" font-family="Times,serif" font-size="14.00" fill="#5b00c0">rw</text>
</g>
<!-- T1546&#45;&gt;T1547 -->
<g id="edge2" class="edge">
<title>T1546:f2&#45;&gt;T1547:f6</title>
<path fill="none" stroke="#5b00c0" d="M350.5,-30C350.5,-92.87 475.98,-23.2 490.19,-71.06"/>
<polygon fill="#5b00c0" stroke="#5b00c0" points="486.73,-71.54 491.5,-81 493.67,-70.63 486.73,-71.54"/>
<text text-anchor="middle" x="495" y="-51.8" font-family="Times,serif" font-size="14.00" fill="#5b00c0">rw</text>
</g>
</g>
</svg>
