<?xml version="1.0" encoding="UTF-8" standalone="no"?>
<!DOCTYPE svg PUBLIC "-//W3C//DTD SVG 1.1//EN"
 "http://www.w3.org/Graphics/SVG/1.1/DTD/svg11.dtd">
<!-- Generated by graphviz version 2.43.0 (0)
 -->
<!-- Title: a_graph Pages: 1 -->
<svg width="1653pt" height="119pt"
 viewBox="0.00 0.00 1653.00 119.00" xmlns="http://www.w3.org/2000/svg" xmlns:xlink="http://www.w3.org/1999/xlink">
<g id="graph0" class="graph" transform="scale(1 1) rotate(0) translate(4 115)">
<title>a_graph</title>
<polygon fill="white" stroke="transparent" points="-4,4 -4,-115 1649,-115 1649,4 -4,4"/>
<!-- T1489 -->
<g id="node1" class="node">
<title>T1489</title>
<polygon fill="none" stroke="#0058ad" points="0,-81.5 0,-110.5 1088,-110.5 1088,-81.5 0,-81.5"/>
<text text-anchor="middle" x="35" y="-92.3" font-family="Times,serif" font-size="14.00" fill="#0058ad">a 53 21</text>
<polyline fill="none" stroke="#0058ad" points="70,-81.5 70,-110.5 "/>
<text text-anchor="middle" x="294" y="-92.3" font-family="Times,serif" font-size="14.00" fill="#0058ad">r 54 [1 2 3 4 5 6 7 8 9 10 11 12 13 14 15 16 17 18 19 20 21]</text>
<polyline fill="none" stroke="#0058ad" points="518,-81.5 518,-110.5 "/>
<text text-anchor="middle" x="548.5" y="-92.3" font-family="Times,serif" font-size="14.00" fill="#0058ad">r 55 []</text>
<polyline fill="none" stroke="#0058ad" points="579,-81.5 579,-110.5 "/>
<text text-anchor="middle" x="609.5" y="-92.3" font-family="Times,serif" font-size="14.00" fill="#0058ad">a 55 1</text>
<polyline fill="none" stroke="#0058ad" points="640,-81.5 640,-110.5 "/>
<text text-anchor="middle" x="864" y="-92.3" font-family="Times,serif" font-size="14.00" fill="#0058ad">r 54 [1 2 3 4 5 6 7 8 9 10 11 12 13 14 15 16 17 18 19 20 21]</text>
</g>
<!-- T1488 -->
<g id="node2" class="node">
<title>T1488</title>
<polygon fill="none" stroke="#0058ad" points="321,-0.5 321,-29.5 1645,-29.5 1645,-0.5 321,-0.5"/>
<text text-anchor="middle" x="351.5" y="-11.3" font-family="Times,serif" font-size="14.00" fill="#0058ad">r 55 []</text>
<polyline fill="none" stroke="#0058ad" points="382,-0.5 382,-29.5 "/>
<text text-anchor="middle" x="417" y="-11.3" font-family="Times,serif" font-size="14.00" fill="#0058ad">a 54 24</text>
<polyline fill="none" stroke="#0058ad" points="452,-0.5 452,-29.5 "/>
<text text-anchor="middle" x="482.5" y="-11.3" font-family="Times,serif" font-size="14.00" fill="#0058ad">r 55 []</text>
<polyline fill="none" stroke="#0058ad" points="513,-0.5 513,-29.5 "/>
<text text-anchor="middle" x="543.5" y="-11.3" font-family="Times,serif" font-size="14.00" fill="#0058ad">r 55 []</text>
<polyline fill="none" stroke="#0058ad" points="574,-0.5 574,-29.5 "/>
<text text-anchor="middle" x="809" y="-11.3" font-family="Times,serif" font-size="14.00" fill="#0058ad">r 54 [1 2 3 4 5 6 7 8 9 10 11 12 13 14 15 16 17 18 19 20 21 24]</text>
<polyline fill="none" stroke="#0058ad" points="1044,-0.5 1044,-29.5 "/>
<text text-anchor="middle" x="1074.5" y="-11.3" font-family="Times,serif" font-size="14.00" fill="#0058ad">r 55 []</text>
<polyline fill="none" stroke="#0058ad" points="1105,-0.5 1105,-29.5 "/>
<text text-anchor="middle" x="1340" y="-11.3" font-family="Times,serif" font-size="14.00" fill="#0058ad">r 54 [1 2 3 4 5 6 7 8 9 10 11 12 13 14 15 16 17 18 19 20 21 24]</text>
<polyline fill="none" stroke="#0058ad" points="1575,-0.5 1575,-29.5 "/>
<text text-anchor="middle" x="1610" y="-11.3" font-family="Times,serif" font-size="14.00" fill="#0058ad">a 54 25</text>
</g>
<!-- T1489&#45;&gt;T1488 -->
<g id="edge1" class="edge">
<title>T1489:f1&#45;&gt;T1488:f1</title>
<path fill="none" stroke="#5b00c0" d="M294,-81C294,-25.63 401.66,-81.02 415.53,-39.93"/>
<polygon fill="#5b00c0" stroke="#5b00c0" points="419,-40.4 417,-30 412.08,-39.38 419,-40.4"/>
<text text-anchor="middle" x="420.5" y="-51.8" font-family="Times,serif" font-size="14.00" fill="#5b00c0">rw</text>
</g>
<!-- T1488&#45;&gt;T1489 -->
<g id="edge2" class="edge">
<title>T1488:f0&#45;&gt;T1489:f3</title>
<path fill="none" stroke="#5b00c0" d="M351,-30C351,-36.49 553.75,-65.68 600.47,-77.4"/>
<polygon fill="#5b00c0" stroke="#5b00c0" points="599.41,-80.74 610,-81 601.88,-74.19 599.41,-80.74"/>
<text text-anchor="middle" x="527.5" y="-51.8" font-family="Times,serif" font-size="14.00" fill="#5b00c0">rw</text>
</g>
</g>
</svg>
