<?xml version="1.0" encoding="UTF-8" standalone="no"?>
<!DOCTYPE svg PUBLIC "-//W3C//DTD SVG 1.1//EN"
 "http://www.w3.org/Graphics/SVG/1.1/DTD/svg11.dtd">
<!-- Generated by graphviz version 2.43.0 (0)
 -->
<!-- Title: a_graph Pages: 1 -->
<svg width="2084pt" height="119pt"
 viewBox="0.00 0.00 2083.50 119.00" xmlns="http://www.w3.org/2000/svg" xmlns:xlink="http://www.w3.org/1999/xlink">
<g id="graph0" class="graph" transform="scale(1 1) rotate(0) translate(4 115)">
<title>a_graph</title>
<polygon fill="white" stroke="transparent" points="-4,4 -4,-115 2079.5,-115 2079.5,4 -4,4"/>
<!-- T3642 -->
<g id="node1" class="node">
<title>T3642</title>
<polygon fill="none" stroke="#0058ad" points="0,-81.5 0,-110.5 1506,-110.5 1506,-81.5 0,-81.5"/>
<text text-anchor="middle" x="35" y="-92.3" font-family="Times,serif" font-size="14.00" fill="#0058ad">a 144 3</text>
<polyline fill="none" stroke="#0058ad" points="70,-81.5 70,-110.5 "/>
<text text-anchor="middle" x="105" y="-92.3" font-family="Times,serif" font-size="14.00" fill="#0058ad">a 144 4</text>
<polyline fill="none" stroke="#0058ad" points="140,-81.5 140,-110.5 "/>
<text text-anchor="middle" x="458.5" y="-92.3" font-family="Times,serif" font-size="14.00" fill="#0058ad">r 139 [1 2 3 4 5 6 7 8 9 10 11 12 13 14 15 16 17 18 19 20 21 22 23 24 25 26 27 28 29]</text>
<polyline fill="none" stroke="#0058ad" points="777,-81.5 777,-110.5 "/>
<text text-anchor="middle" x="1095.5" y="-92.3" font-family="Times,serif" font-size="14.00" fill="#0058ad">r 139 [1 2 3 4 5 6 7 8 9 10 11 12 13 14 15 16 17 18 19 20 21 22 23 24 25 26 27 28 29]</text>
<polyline fill="none" stroke="#0058ad" points="1414,-81.5 1414,-110.5 "/>
<text text-anchor="middle" x="1460" y="-92.3" font-family="Times,serif" font-size="14.00" fill="#0058ad">r 143 [1 2]</text>
</g>
<!-- T3643 -->
<g id="node2" class="node">
<title>T3643</title>
<polygon fill="none" stroke="#0058ad" points="332.5,-0.5 332.5,-29.5 2075.5,-29.5 2075.5,-0.5 332.5,-0.5"/>
<text text-anchor="middle" x="367.5" y="-11.3" font-family="Times,serif" font-size="14.00" fill="#0058ad">a 143 4</text>
<polyline fill="none" stroke="#0058ad" points="402.5,-0.5 402.5,-29.5 "/>
<text text-anchor="middle" x="437.5" y="-11.3" font-family="Times,serif" font-size="14.00" fill="#0058ad">r 144 []</text>
<polyline fill="none" stroke="#0058ad" points="472.5,-0.5 472.5,-29.5 "/>
<text text-anchor="middle" x="507.5" y="-11.3" font-family="Times,serif" font-size="14.00" fill="#0058ad">a 143 5</text>
<polyline fill="none" stroke="#0058ad" points="542.5,-0.5 542.5,-29.5 "/>
<text text-anchor="middle" x="602" y="-11.3" font-family="Times,serif" font-size="14.00" fill="#0058ad">r 143 [1 2 4 5]</text>
<polyline fill="none" stroke="#0058ad" points="661.5,-0.5 661.5,-29.5 "/>
<text text-anchor="middle" x="980" y="-11.3" font-family="Times,serif" font-size="14.00" fill="#0058ad">r 139 [1 2 3 4 5 6 7 8 9 10 11 12 13 14 15 16 17 18 19 20 21 22 23 24 25 26 27 28 29]</text>
<polyline fill="none" stroke="#0058ad" points="1298.5,-0.5 1298.5,-29.5 "/>
<text text-anchor="middle" x="1617" y="-11.3" font-family="Times,serif" font-size="14.00" fill="#0058ad">r 139 [1 2 3 4 5 6 7 8 9 10 11 12 13 14 15 16 17 18 19 20 21 22 23 24 25 26 27 28 29]</text>
<polyline fill="none" stroke="#0058ad" points="1935.5,-0.5 1935.5,-29.5 "/>
<text text-anchor="middle" x="1970.5" y="-11.3" font-family="Times,serif" font-size="14.00" fill="#0058ad">r 144 []</text>
<polyline fill="none" stroke="#0058ad" points="2005.5,-0.5 2005.5,-29.5 "/>
<text text-anchor="middle" x="2040.5" y="-11.3" font-family="Times,serif" font-size="14.00" fill="#0058ad">a 143 6</text>
</g>
<!-- T3642&#45;&gt;T3643 -->
<g id="edge1" class="edge">
<title>T3642:f4&#45;&gt;T3643:f0</title>
<path fill="none" stroke="#5b00c0" d="M1460,-81C1460,-23 465.03,-84.59 373.7,-37.57"/>
<polygon fill="#5b00c0" stroke="#5b00c0" points="376.25,-35.17 367,-30 371.01,-39.81 376.25,-35.17"/>
<text text-anchor="middle" x="1410.5" y="-51.8" font-family="Times,serif" font-size="14.00" fill="#5b00c0">rw</text>
</g>
<!-- T3643&#45;&gt;T3642 -->
<g id="edge2" class="edge">
<title>T3643:f1&#45;&gt;T3642:f0</title>
<path fill="none" stroke="#5b00c0" d="M437,-30C437,-71.86 89.54,-41.05 40.68,-72.69"/>
<polygon fill="#5b00c0" stroke="#5b00c0" points="37.76,-70.77 35,-81 43.53,-74.72 37.76,-70.77"/>
<text text-anchor="middle" x="404.5" y="-51.8" font-family="Times,serif" font-size="14.00" fill="#5b00c0">rw</text>
</g>
</g>
</svg>
