<?xml version="1.0" encoding="UTF-8" standalone="no"?>
<!DOCTYPE svg PUBLIC "-//W3C//DTD SVG 1.1//EN"
 "http://www.w3.org/Graphics/SVG/1.1/DTD/svg11.dtd">
<!-- Generated by graphviz version 2.43.0 (0)
 -->
<!-- Title: a_graph Pages: 1 -->
<svg width="2754pt" height="119pt"
 viewBox="0.00 0.00 2754.00 119.00" xmlns="http://www.w3.org/2000/svg" xmlns:xlink="http://www.w3.org/1999/xlink">
<g id="graph0" class="graph" transform="scale(1 1) rotate(0) translate(4 115)">
<title>a_graph</title>
<polygon fill="white" stroke="transparent" points="-4,4 -4,-115 2750,-115 2750,4 -4,4"/>
<!-- T1674 -->
<g id="node1" class="node">
<title>T1674</title>
<polygon fill="none" stroke="#0058ad" points="0,-81.5 0,-110.5 2746,-110.5 2746,-81.5 0,-81.5"/>
<text text-anchor="middle" x="134" y="-92.3" font-family="Times,serif" font-size="14.00" fill="#0058ad">r 65 [1 2 3 4 5 6 7 8 9 10 11 12 13]</text>
<polyline fill="none" stroke="#0058ad" points="268,-81.5 268,-110.5 "/>
<text text-anchor="middle" x="402" y="-92.3" font-family="Times,serif" font-size="14.00" fill="#0058ad">r 65 [1 2 3 4 5 6 7 8 9 10 11 12 13]</text>
<polyline fill="none" stroke="#0058ad" points="536,-81.5 536,-110.5 "/>
<text text-anchor="middle" x="670" y="-92.3" font-family="Times,serif" font-size="14.00" fill="#0058ad">r 65 [1 2 3 4 5 6 7 8 9 10 11 12 13]</text>
<polyline fill="none" stroke="#0058ad" points="804,-81.5 804,-110.5 "/>
<text text-anchor="middle" x="938" y="-92.3" font-family="Times,serif" font-size="14.00" fill="#0058ad">r 65 [1 2 3 4 5 6 7 8 9 10 11 12 13]</text>
<polyline fill="none" stroke="#0058ad" points="1072,-81.5 1072,-110.5 "/>
<text text-anchor="middle" x="1206" y="-92.3" font-family="Times,serif" font-size="14.00" fill="#0058ad">r 65 [1 2 3 4 5 6 7 8 9 10 11 12 13]</text>
<polyline fill="none" stroke="#0058ad" points="1340,-81.5 1340,-110.5 "/>
<text text-anchor="middle" x="1375" y="-92.3" font-family="Times,serif" font-size="14.00" fill="#0058ad">a 61 32</text>
<polyline fill="none" stroke="#0058ad" points="1410,-81.5 1410,-110.5 "/>
<text text-anchor="middle" x="1744" y="-92.3" font-family="Times,serif" font-size="14.00" fill="#0058ad">r 61 [1 2 3 4 7 8 9 10 11 12 13 14 15 16 17 18 19 20 21 22 23 24 25 26 27 28 29 30 31 32]</text>
<polyline fill="none" stroke="#0058ad" points="2078,-81.5 2078,-110.5 "/>
<text text-anchor="middle" x="2412" y="-92.3" font-family="Times,serif" font-size="14.00" fill="#0058ad">r 61 [1 2 3 4 7 8 9 10 11 12 13 14 15 16 17 18 19 20 21 22 23 24 25 26 27 28 29 30 31 32]</text>
</g>
<!-- T1677 -->
<g id="node2" class="node">
<title>T1677</title>
<polygon fill="none" stroke="#0058ad" points="651,-0.5 651,-29.5 1917,-29.5 1917,-0.5 651,-0.5"/>
<text text-anchor="middle" x="686" y="-11.3" font-family="Times,serif" font-size="14.00" fill="#0058ad">a 65 14</text>
<polyline fill="none" stroke="#0058ad" points="721,-0.5 721,-29.5 "/>
<text text-anchor="middle" x="1044" y="-11.3" font-family="Times,serif" font-size="14.00" fill="#0058ad">r 61 [1 2 3 4 7 8 9 10 11 12 13 14 15 16 17 18 19 20 21 22 23 24 25 26 27 28 29 30 31]</text>
<polyline fill="none" stroke="#0058ad" points="1367,-0.5 1367,-29.5 "/>
<text text-anchor="middle" x="1402" y="-11.3" font-family="Times,serif" font-size="14.00" fill="#0058ad">a 65 15</text>
<polyline fill="none" stroke="#0058ad" points="1437,-0.5 1437,-29.5 "/>
<text text-anchor="middle" x="1472" y="-11.3" font-family="Times,serif" font-size="14.00" fill="#0058ad">a 65 16</text>
<polyline fill="none" stroke="#0058ad" points="1507,-0.5 1507,-29.5 "/>
<text text-anchor="middle" x="1542" y="-11.3" font-family="Times,serif" font-size="14.00" fill="#0058ad">a 65 17</text>
<polyline fill="none" stroke="#0058ad" points="1577,-0.5 1577,-29.5 "/>
<text text-anchor="middle" x="1747" y="-11.3" font-family="Times,serif" font-size="14.00" fill="#0058ad">r 63 [1 5 6 7 8 9 10 11 12 13 14 15 16 17 18]</text>
</g>
<!-- T1674&#45;&gt;T1677 -->
<g id="edge1" class="edge">
<title>T1674:f0&#45;&gt;T1677:f0</title>
<path fill="none" stroke="#5b00c0" d="M134,-81C134,-25.8 551.96,-15.84 639.86,-15.05"/>
<polygon fill="#5b00c0" stroke="#5b00c0" points="640.02,-18.55 650,-15 639.98,-11.55 640.02,-18.55"/>
<text text-anchor="middle" x="201.5" y="-51.8" font-family="Times,serif" font-size="14.00" fill="#5b00c0">rw</text>
</g>
<!-- T1677&#45;&gt;T1674 -->
<g id="edge2" class="edge">
<title>T1677:f1&#45;&gt;T1674:f5</title>
<path fill="none" stroke="#5b00c0" d="M1044,-30C1044,-175.21 1359.04,56.04 1374.42,-70.79"/>
<polygon fill="#5b00c0" stroke="#5b00c0" points="1370.94,-71.22 1375,-81 1377.92,-70.82 1370.94,-71.22"/>
<text text-anchor="middle" x="1380.5" y="-51.8" font-family="Times,serif" font-size="14.00" fill="#5b00c0">rw</text>
</g>
</g>
</svg>
