<?xml version="1.0" encoding="UTF-8" standalone="no"?>
<!DOCTYPE svg PUBLIC "-//W3C//DTD SVG 1.1//EN"
 "http://www.w3.org/Graphics/SVG/1.1/DTD/svg11.dtd">
<!-- Generated by graphviz version 2.43.0 (0)
 -->
<!-- Title: a_graph Pages: 1 -->
<svg width="1119pt" height="119pt"
 viewBox="0.00 0.00 1119.00 119.00" xmlns="http://www.w3.org/2000/svg" xmlns:xlink="http://www.w3.org/1999/xlink">
<g id="graph0" class="graph" transform="scale(1 1) rotate(0) translate(4 115)">
<title>a_graph</title>
<polygon fill="white" stroke="transparent" points="-4,4 -4,-115 1115,-115 1115,4 -4,4"/>
<!-- T3091 -->
<g id="node1" class="node">
<title>T3091</title>
<polygon fill="none" stroke="#0058ad" points="0,-81.5 0,-110.5 718,-110.5 718,-81.5 0,-81.5"/>
<text text-anchor="middle" x="136" y="-92.3" font-family="Times,serif" font-size="14.00" fill="#0058ad">r 122 [1 2 3 4 5 6 7 10 11 12 13 14]</text>
<polyline fill="none" stroke="#0058ad" points="272,-81.5 272,-110.5 "/>
<text text-anchor="middle" x="455.5" y="-92.3" font-family="Times,serif" font-size="14.00" fill="#0058ad">r 119 [1 2 3 4 5 6 7 8 9 10 11 12 13 14 15 16 17]</text>
<polyline fill="none" stroke="#0058ad" points="639,-81.5 639,-110.5 "/>
<text text-anchor="middle" x="678.5" y="-92.3" font-family="Times,serif" font-size="14.00" fill="#0058ad">a 122 15</text>
</g>
<!-- T3090 -->
<g id="node2" class="node">
<title>T3090</title>
<polygon fill="none" stroke="#0058ad" points="409,-0.5 409,-29.5 1111,-29.5 1111,-0.5 409,-0.5"/>
<text text-anchor="middle" x="448.5" y="-11.3" font-family="Times,serif" font-size="14.00" fill="#0058ad">a 119 18</text>
<polyline fill="none" stroke="#0058ad" points="488,-0.5 488,-29.5 "/>
<text text-anchor="middle" x="527.5" y="-11.3" font-family="Times,serif" font-size="14.00" fill="#0058ad">a 119 19</text>
<polyline fill="none" stroke="#0058ad" points="567,-0.5 567,-29.5 "/>
<text text-anchor="middle" x="703" y="-11.3" font-family="Times,serif" font-size="14.00" fill="#0058ad">r 122 [1 2 3 4 5 6 7 10 11 12 13 14]</text>
<polyline fill="none" stroke="#0058ad" points="839,-0.5 839,-29.5 "/>
<text text-anchor="middle" x="975" y="-11.3" font-family="Times,serif" font-size="14.00" fill="#0058ad">r 122 [1 2 3 4 5 6 7 10 11 12 13 14]</text>
</g>
<!-- T3091&#45;&gt;T3090 -->
<g id="edge1" class="edge">
<title>T3091:f1&#45;&gt;T3090:f0</title>
<path fill="none" stroke="#5b00c0" d="M456,-81C456,-61.82 450.41,-55.1 448.58,-40.01"/>
<polygon fill="#5b00c0" stroke="#5b00c0" points="452.07,-39.78 448,-30 445.08,-40.18 452.07,-39.78"/>
<text text-anchor="middle" x="463.5" y="-51.8" font-family="Times,serif" font-size="14.00" fill="#5b00c0">rw</text>
</g>
<!-- T3090&#45;&gt;T3091 -->
<g id="edge2" class="edge">
<title>T3090:f2&#45;&gt;T3091:f2</title>
<path fill="none" stroke="#5b00c0" d="M703,-30C703,-51.14 685.91,-55.08 680.57,-70.84"/>
<polygon fill="#5b00c0" stroke="#5b00c0" points="677.07,-70.58 679,-81 683.99,-71.65 677.07,-70.58"/>
<text text-anchor="middle" x="706.5" y="-51.8" font-family="Times,serif" font-size="14.00" fill="#5b00c0">rw</text>
</g>
</g>
</svg>
