<?xml version="1.0" encoding="UTF-8" standalone="no"?>
<!DOCTYPE svg PUBLIC "-//W3C//DTD SVG 1.1//EN"
 "http://www.w3.org/Graphics/SVG/1.1/DTD/svg11.dtd">
<!-- Generated by graphviz version 2.43.0 (0)
 -->
<!-- Title: a_graph Pages: 1 -->
<svg width="2329pt" height="119pt"
 viewBox="0.00 0.00 2328.50 119.00" xmlns="http://www.w3.org/2000/svg" xmlns:xlink="http://www.w3.org/1999/xlink">
<g id="graph0" class="graph" transform="scale(1 1) rotate(0) translate(4 115)">
<title>a_graph</title>
<polygon fill="white" stroke="transparent" points="-4,4 -4,-115 2324.5,-115 2324.5,4 -4,4"/>
<!-- T2716 -->
<g id="node1" class="node">
<title>T2716</title>
<polygon fill="none" stroke="#0058ad" points="0,-81.5 0,-110.5 2017,-110.5 2017,-81.5 0,-81.5"/>
<text text-anchor="middle" x="39.5" y="-92.3" font-family="Times,serif" font-size="14.00" fill="#0058ad">a 101 30</text>
<polyline fill="none" stroke="#0058ad" points="79,-81.5 79,-110.5 "/>
<text text-anchor="middle" x="397.5" y="-92.3" font-family="Times,serif" font-size="14.00" fill="#0058ad">r 101 [1 2 3 4 5 6 7 8 9 10 11 12 13 14 15 16 17 18 19 20 21 22 24 25 26 27 28 29 30]</text>
<polyline fill="none" stroke="#0058ad" points="716,-81.5 716,-110.5 "/>
<text text-anchor="middle" x="802.5" y="-92.3" font-family="Times,serif" font-size="14.00" fill="#0058ad">r 102 [1 2 3 4 5 6 7 8]</text>
<polyline fill="none" stroke="#0058ad" points="889,-81.5 889,-110.5 "/>
<text text-anchor="middle" x="1207.5" y="-92.3" font-family="Times,serif" font-size="14.00" fill="#0058ad">r 101 [1 2 3 4 5 6 7 8 9 10 11 12 13 14 15 16 17 18 19 20 21 22 24 25 26 27 28 29 30]</text>
<polyline fill="none" stroke="#0058ad" points="1526,-81.5 1526,-110.5 "/>
<text text-anchor="middle" x="1565.5" y="-92.3" font-family="Times,serif" font-size="14.00" fill="#0058ad">a 103 20</text>
<polyline fill="none" stroke="#0058ad" points="1605,-81.5 1605,-110.5 "/>
<text text-anchor="middle" x="1811" y="-92.3" font-family="Times,serif" font-size="14.00" fill="#0058ad">r 103 [1 2 3 4 5 6 7 8 9 11 12 13 14 15 16 17 18 19 20]</text>
</g>
<!-- T2717 -->
<g id="node2" class="node">
<title>T2717</title>
<polygon fill="none" stroke="#0058ad" points="694.5,-0.5 694.5,-29.5 2320.5,-29.5 2320.5,-0.5 694.5,-0.5"/>
<text text-anchor="middle" x="889" y="-11.3" font-family="Times,serif" font-size="14.00" fill="#0058ad">r 103 [1 2 3 4 5 6 7 8 9 11 12 13 14 15 16 17 18 19]</text>
<polyline fill="none" stroke="#0058ad" points="1083.5,-0.5 1083.5,-29.5 "/>
<text text-anchor="middle" x="1118.5" y="-11.3" font-family="Times,serif" font-size="14.00" fill="#0058ad">a 102 9</text>
<polyline fill="none" stroke="#0058ad" points="1153.5,-0.5 1153.5,-29.5 "/>
<text text-anchor="middle" x="1348" y="-11.3" font-family="Times,serif" font-size="14.00" fill="#0058ad">r 103 [1 2 3 4 5 6 7 8 9 11 12 13 14 15 16 17 18 19]</text>
<polyline fill="none" stroke="#0058ad" points="1542.5,-0.5 1542.5,-29.5 "/>
<text text-anchor="middle" x="1737" y="-11.3" font-family="Times,serif" font-size="14.00" fill="#0058ad">r 103 [1 2 3 4 5 6 7 8 9 11 12 13 14 15 16 17 18 19]</text>
<polyline fill="none" stroke="#0058ad" points="1931.5,-0.5 1931.5,-29.5 "/>
<text text-anchor="middle" x="2126" y="-11.3" font-family="Times,serif" font-size="14.00" fill="#0058ad">r 103 [1 2 3 4 5 6 7 8 9 11 12 13 14 15 16 17 18 19]</text>
</g>
<!-- T2716&#45;&gt;T2717 -->
<g id="edge1" class="edge">
<title>T2716:f2&#45;&gt;T2717:f1</title>
<path fill="none" stroke="#5b00c0" d="M802.5,-81C802.5,57.65 1102.66,-160.65 1117.9,-40.12"/>
<polygon fill="#5b00c0" stroke="#5b00c0" points="1121.4,-40.19 1118.5,-30 1114.41,-39.78 1121.4,-40.19"/>
<text text-anchor="middle" x="1125" y="-51.8" font-family="Times,serif" font-size="14.00" fill="#5b00c0">rw</text>
</g>
<!-- T2717&#45;&gt;T2716 -->
<g id="edge2" class="edge">
<title>T2717:f0&#45;&gt;T2716:f4</title>
<path fill="none" stroke="#5b00c0" d="M888.5,-30C888.5,-43.92 1124.61,-46.96 1138.5,-48 1229.89,-54.82 1541.18,9.14 1564.16,-71.07"/>
<polygon fill="#5b00c0" stroke="#5b00c0" points="1560.69,-71.56 1565.5,-81 1567.63,-70.62 1560.69,-71.56"/>
<text text-anchor="middle" x="1568" y="-51.8" font-family="Times,serif" font-size="14.00" fill="#5b00c0">rw</text>
</g>
</g>
</svg>
