<?xml version="1.0" encoding="UTF-8" standalone="no"?>
<!DOCTYPE svg PUBLIC "-//W3C//DTD SVG 1.1//EN"
 "http://www.w3.org/Graphics/SVG/1.1/DTD/svg11.dtd">
<!-- Generated by graphviz version 2.43.0 (0)
 -->
<!-- Title: a_graph Pages: 1 -->
<svg width="2007pt" height="119pt"
 viewBox="0.00 0.00 2007.00 119.00" xmlns="http://www.w3.org/2000/svg" xmlns:xlink="http://www.w3.org/1999/xlink">
<g id="graph0" class="graph" transform="scale(1 1) rotate(0) translate(4 115)">
<title>a_graph</title>
<polygon fill="white" stroke="transparent" points="-4,4 -4,-115 2003,-115 2003,4 -4,4"/>
<!-- T1509 -->
<g id="node1" class="node">
<title>T1509</title>
<polygon fill="none" stroke="#0058ad" points="935.5,-81.5 935.5,-110.5 1901.5,-110.5 1901.5,-81.5 935.5,-81.5"/>
<text text-anchor="middle" x="970.5" y="-92.3" font-family="Times,serif" font-size="14.00" fill="#0058ad">a 57 23</text>
<polyline fill="none" stroke="#0058ad" points="1005.5,-81.5 1005.5,-110.5 "/>
<text text-anchor="middle" x="1229.5" y="-92.3" font-family="Times,serif" font-size="14.00" fill="#0058ad">r 58 [1 2 3 4 5 6 7 8 9 10 11 12 13 14 15 16 17 18 19 20 21]</text>
<polyline fill="none" stroke="#0058ad" points="1453.5,-81.5 1453.5,-110.5 "/>
<text text-anchor="middle" x="1677.5" y="-92.3" font-family="Times,serif" font-size="14.00" fill="#0058ad">r 58 [1 2 3 4 5 6 7 8 9 10 11 12 13 14 15 16 17 18 19 20 21]</text>
</g>
<!-- T1508 -->
<g id="node2" class="node">
<title>T1508</title>
<polygon fill="none" stroke="#0058ad" points="0,-0.5 0,-29.5 1999,-29.5 1999,-0.5 0,-0.5"/>
<text text-anchor="middle" x="224" y="-11.3" font-family="Times,serif" font-size="14.00" fill="#0058ad">r 58 [1 2 3 4 5 6 7 8 9 10 11 12 13 14 15 16 17 18 19 20 21]</text>
<polyline fill="none" stroke="#0058ad" points="448,-0.5 448,-29.5 "/>
<text text-anchor="middle" x="672" y="-11.3" font-family="Times,serif" font-size="14.00" fill="#0058ad">r 58 [1 2 3 4 5 6 7 8 9 10 11 12 13 14 15 16 17 18 19 20 21]</text>
<polyline fill="none" stroke="#0058ad" points="896,-0.5 896,-29.5 "/>
<text text-anchor="middle" x="931" y="-11.3" font-family="Times,serif" font-size="14.00" fill="#0058ad">a 58 22</text>
<polyline fill="none" stroke="#0058ad" points="966,-0.5 966,-29.5 "/>
<text text-anchor="middle" x="1001" y="-11.3" font-family="Times,serif" font-size="14.00" fill="#0058ad">a 58 23</text>
<polyline fill="none" stroke="#0058ad" points="1036,-0.5 1036,-29.5 "/>
<text text-anchor="middle" x="1271" y="-11.3" font-family="Times,serif" font-size="14.00" fill="#0058ad">r 57 [1 2 3 4 5 6 7 8 9 10 11 12 13 14 15 16 17 18 19 20 21 22]</text>
<polyline fill="none" stroke="#0058ad" points="1506,-0.5 1506,-29.5 "/>
<text text-anchor="middle" x="1752.5" y="-11.3" font-family="Times,serif" font-size="14.00" fill="#0058ad">r 58 [1 2 3 4 5 6 7 8 9 10 11 12 13 14 15 16 17 18 19 20 21 22 23]</text>
</g>
<!-- T1509&#45;&gt;T1508 -->
<g id="edge1" class="edge">
<title>T1509:f1&#45;&gt;T1508:f2</title>
<path fill="none" stroke="#5b00c0" d="M1229.5,-81C1229.5,0.77 1129.15,-61.5 1048.5,-48 1025.92,-44.22 954.38,-53.32 935.25,-38.81"/>
<polygon fill="#5b00c0" stroke="#5b00c0" points="938.32,-37.14 930.5,-30 932.16,-40.46 938.32,-37.14"/>
<text text-anchor="middle" x="1236" y="-51.8" font-family="Times,serif" font-size="14.00" fill="#5b00c0">rw</text>
</g>
<!-- T1508&#45;&gt;T1509 -->
<g id="edge2" class="edge">
<title>T1508:f4&#45;&gt;T1509:f0</title>
<path fill="none" stroke="#5b00c0" d="M1271.5,-30C1271.5,-57.41 1051.63,-39.72 1025.5,-48 1002.15,-55.4 978.31,-53.4 972.07,-70.78"/>
<polygon fill="#5b00c0" stroke="#5b00c0" points="968.56,-70.58 970.5,-81 975.48,-71.65 968.56,-70.58"/>
<text text-anchor="middle" x="1035" y="-51.8" font-family="Times,serif" font-size="14.00" fill="#5b00c0">rw</text>
</g>
</g>
</svg>
