<?xml version="1.0" encoding="UTF-8" standalone="no"?>
<!DOCTYPE svg PUBLIC "-//W3C//DTD SVG 1.1//EN"
 "http://www.w3.org/Graphics/SVG/1.1/DTD/svg11.dtd">
<!-- Generated by graphviz version 2.43.0 (0)
 -->
<!-- Title: a_graph Pages: 1 -->
<svg width="773pt" height="119pt"
 viewBox="0.00 0.00 772.50 119.00" xmlns="http://www.w3.org/2000/svg" xmlns:xlink="http://www.w3.org/1999/xlink">
<g id="graph0" class="graph" transform="scale(1 1) rotate(0) translate(4 115)">
<title>a_graph</title>
<polygon fill="white" stroke="transparent" points="-4,4 -4,-115 768.5,-115 768.5,4 -4,4"/>
<!-- T3041 -->
<g id="node1" class="node">
<title>T3041</title>
<polygon fill="none" stroke="#0058ad" points="0,-81.5 0,-110.5 575,-110.5 575,-81.5 0,-81.5"/>
<text text-anchor="middle" x="43" y="-92.3" font-family="Times,serif" font-size="14.00" fill="#0058ad">r 1328 nil</text>
<polyline fill="none" stroke="#0058ad" points="86,-81.5 86,-110.5 "/>
<text text-anchor="middle" x="127.5" y="-92.3" font-family="Times,serif" font-size="14.00" fill="#0058ad">w 1328 1</text>
<polyline fill="none" stroke="#0058ad" points="169,-81.5 169,-110.5 "/>
<text text-anchor="middle" x="210.5" y="-92.3" font-family="Times,serif" font-size="14.00" fill="#0058ad">w 1328 2</text>
<polyline fill="none" stroke="#0058ad" points="252,-81.5 252,-110.5 "/>
<text text-anchor="middle" x="295" y="-92.3" font-family="Times,serif" font-size="14.00" fill="#0058ad">r 1325 nil</text>
<polyline fill="none" stroke="#0058ad" points="338,-81.5 338,-110.5 "/>
<text text-anchor="middle" x="376.5" y="-92.3" font-family="Times,serif" font-size="14.00" fill="#0058ad">r 1328 2</text>
<polyline fill="none" stroke="#0058ad" points="415,-81.5 415,-110.5 "/>
<text text-anchor="middle" x="456.5" y="-92.3" font-family="Times,serif" font-size="14.00" fill="#0058ad">w 1327 1</text>
<polyline fill="none" stroke="#0058ad" points="498,-81.5 498,-110.5 "/>
<text text-anchor="middle" x="536.5" y="-92.3" font-family="Times,serif" font-size="14.00" fill="#0058ad">r 1328 2</text>
</g>
<!-- T3040 -->
<g id="node2" class="node">
<title>T3040</title>
<polygon fill="none" stroke="#0058ad" points="106.5,-0.5 106.5,-29.5 764.5,-29.5 764.5,-0.5 106.5,-0.5"/>
<text text-anchor="middle" x="149.5" y="-11.3" font-family="Times,serif" font-size="14.00" fill="#0058ad">r 1325 nil</text>
<polyline fill="none" stroke="#0058ad" points="192.5,-0.5 192.5,-29.5 "/>
<text text-anchor="middle" x="234" y="-11.3" font-family="Times,serif" font-size="14.00" fill="#0058ad">w 1325 1</text>
<polyline fill="none" stroke="#0058ad" points="275.5,-0.5 275.5,-29.5 "/>
<text text-anchor="middle" x="314" y="-11.3" font-family="Times,serif" font-size="14.00" fill="#0058ad">r 1326 3</text>
<polyline fill="none" stroke="#0058ad" points="352.5,-0.5 352.5,-29.5 "/>
<text text-anchor="middle" x="395.5" y="-11.3" font-family="Times,serif" font-size="14.00" fill="#0058ad">r 1316 nil</text>
<polyline fill="none" stroke="#0058ad" points="438.5,-0.5 438.5,-29.5 "/>
<text text-anchor="middle" x="477" y="-11.3" font-family="Times,serif" font-size="14.00" fill="#0058ad">r 1325 1</text>
<polyline fill="none" stroke="#0058ad" points="515.5,-0.5 515.5,-29.5 "/>
<text text-anchor="middle" x="558.5" y="-11.3" font-family="Times,serif" font-size="14.00" fill="#0058ad">r 1327 nil</text>
<polyline fill="none" stroke="#0058ad" points="601.5,-0.5 601.5,-29.5 "/>
<text text-anchor="middle" x="640" y="-11.3" font-family="Times,serif" font-size="14.00" fill="#0058ad">r 1325 1</text>
<polyline fill="none" stroke="#0058ad" points="678.5,-0.5 678.5,-29.5 "/>
<text text-anchor="middle" x="721.5" y="-11.3" font-family="Times,serif" font-size="14.00" fill="#0058ad">r 1328 nil</text>
</g>
<!-- T3041&#45;&gt;T3040 -->
<g id="edge1" class="edge">
<title>T3041:f3&#45;&gt;T3040:f1</title>
<path fill="none" stroke="#5b00c0" d="M295.5,-81C295.5,-49.22 246.32,-61.9 235.56,-39.84"/>
<polygon fill="#5b00c0" stroke="#5b00c0" points="238.98,-39.07 233.5,-30 232.13,-40.51 238.98,-39.07"/>
<text text-anchor="middle" x="295" y="-51.8" font-family="Times,serif" font-size="14.00" fill="#5b00c0">rw</text>
</g>
<!-- T3040&#45;&gt;T3041 -->
<g id="edge2" class="edge">
<title>T3040:f5&#45;&gt;T3041:f5</title>
<path fill="none" stroke="#5b00c0" d="M558.5,-30C558.5,-76.72 471.81,-37.57 458.27,-70.87"/>
<polygon fill="#5b00c0" stroke="#5b00c0" points="454.77,-70.55 456.5,-81 461.67,-71.75 454.77,-70.55"/>
<text text-anchor="middle" x="559" y="-51.8" font-family="Times,serif" font-size="14.00" fill="#5b00c0">rw</text>
</g>
</g>
</svg>
