<?xml version="1.0" encoding="UTF-8" standalone="no"?>
<!DOCTYPE svg PUBLIC "-//W3C//DTD SVG 1.1//EN"
 "http://www.w3.org/Graphics/SVG/1.1/DTD/svg11.dtd">
<!-- Generated by graphviz version 2.43.0 (0)
 -->
<!-- Title: a_graph Pages: 1 -->
<svg width="1392pt" height="119pt"
 viewBox="0.00 0.00 1391.50 119.00" xmlns="http://www.w3.org/2000/svg" xmlns:xlink="http://www.w3.org/1999/xlink">
<g id="graph0" class="graph" transform="scale(1 1) rotate(0) translate(4 115)">
<title>a_graph</title>
<polygon fill="white" stroke="transparent" points="-4,4 -4,-115 1387.5,-115 1387.5,4 -4,4"/>
<!-- T1211 -->
<g id="node1" class="node">
<title>T1211</title>
<polygon fill="none" stroke="#0058ad" points="0,-81.5 0,-110.5 1208,-110.5 1208,-81.5 0,-81.5"/>
<text text-anchor="middle" x="284.5" y="-92.3" font-family="Times,serif" font-size="14.00" fill="#0058ad">r 46 [1 2 3 4 5 6 7 8 12 13 14 15 16 17 18 19 20 21 22 23 24 25 26 27 28 29]</text>
<polyline fill="none" stroke="#0058ad" points="569,-81.5 569,-110.5 "/>
<text text-anchor="middle" x="853.5" y="-92.3" font-family="Times,serif" font-size="14.00" fill="#0058ad">r 46 [1 2 3 4 5 6 7 8 12 13 14 15 16 17 18 19 20 21 22 23 24 25 26 27 28 29]</text>
<polyline fill="none" stroke="#0058ad" points="1138,-81.5 1138,-110.5 "/>
<text text-anchor="middle" x="1173" y="-92.3" font-family="Times,serif" font-size="14.00" fill="#0058ad">a 45 11</text>
</g>
<!-- T1210 -->
<g id="node2" class="node">
<title>T1210</title>
<polygon fill="none" stroke="#0058ad" points="190.5,-0.5 190.5,-29.5 1383.5,-29.5 1383.5,-0.5 190.5,-0.5"/>
<text text-anchor="middle" x="277" y="-11.3" font-family="Times,serif" font-size="14.00" fill="#0058ad">r 45 [1 2 5 6 7 8 9 10]</text>
<polyline fill="none" stroke="#0058ad" points="363.5,-0.5 363.5,-29.5 "/>
<text text-anchor="middle" x="542.5" y="-11.3" font-family="Times,serif" font-size="14.00" fill="#0058ad">r 44 [1 2 3 4 5 6 7 8 9 10 11 12 13 14 15 16 17]</text>
<polyline fill="none" stroke="#0058ad" points="721.5,-0.5 721.5,-29.5 "/>
<text text-anchor="middle" x="756.5" y="-11.3" font-family="Times,serif" font-size="14.00" fill="#0058ad">a 46 30</text>
<polyline fill="none" stroke="#0058ad" points="791.5,-0.5 791.5,-29.5 "/>
<text text-anchor="middle" x="1087.5" y="-11.3" font-family="Times,serif" font-size="14.00" fill="#0058ad">r 46 [1 2 3 4 5 6 7 8 12 13 14 15 16 17 18 19 20 21 22 23 24 25 26 27 28 29 30]</text>
</g>
<!-- T1211&#45;&gt;T1210 -->
<g id="edge1" class="edge">
<title>T1211:f0&#45;&gt;T1210:f2</title>
<path fill="none" stroke="#5b00c0" d="M284,-81C284,126.5 740.46,-228.84 755.61,-40.03"/>
<polygon fill="#5b00c0" stroke="#5b00c0" points="759.11,-40.13 756,-30 752.12,-39.86 759.11,-40.13"/>
<text text-anchor="middle" x="763.5" y="-51.8" font-family="Times,serif" font-size="14.00" fill="#5b00c0">rw</text>
</g>
<!-- T1210&#45;&gt;T1211 -->
<g id="edge2" class="edge">
<title>T1210:f0&#45;&gt;T1211:f2</title>
<path fill="none" stroke="#5b00c0" d="M277,-30C277,-43.9 763.13,-47.17 777,-48 861.53,-53.04 1148.12,2.45 1171.48,-70.87"/>
<polygon fill="#5b00c0" stroke="#5b00c0" points="1168.06,-71.63 1173,-81 1174.98,-70.59 1168.06,-71.63"/>
<text text-anchor="middle" x="1176.5" y="-51.8" font-family="Times,serif" font-size="14.00" fill="#5b00c0">rw</text>
</g>
</g>
</svg>
