<?xml version="1.0" encoding="UTF-8" standalone="no"?>
<!DOCTYPE svg PUBLIC "-//W3C//DTD SVG 1.1//EN"
 "http://www.w3.org/Graphics/SVG/1.1/DTD/svg11.dtd">
<!-- Generated by graphviz version 2.43.0 (0)
 -->
<!-- Title: a_graph Pages: 1 -->
<svg width="1373pt" height="119pt"
 viewBox="0.00 0.00 1373.00 119.00" xmlns="http://www.w3.org/2000/svg" xmlns:xlink="http://www.w3.org/1999/xlink">
<g id="graph0" class="graph" transform="scale(1 1) rotate(0) translate(4 115)">
<title>a_graph</title>
<polygon fill="white" stroke="transparent" points="-4,4 -4,-115 1369,-115 1369,4 -4,4"/>
<!-- T3218 -->
<g id="node1" class="node">
<title>T3218</title>
<polygon fill="none" stroke="#0058ad" points="249.5,-81.5 249.5,-110.5 1075.5,-110.5 1075.5,-81.5 249.5,-81.5"/>
<text text-anchor="middle" x="289" y="-92.3" font-family="Times,serif" font-size="14.00" fill="#0058ad">a 121 27</text>
<polyline fill="none" stroke="#0058ad" points="328.5,-81.5 328.5,-110.5 "/>
<text text-anchor="middle" x="478" y="-92.3" font-family="Times,serif" font-size="14.00" fill="#0058ad">r 122 [1 3 4 5 10 19 20 21 22 23 24 28]</text>
<polyline fill="none" stroke="#0058ad" points="627.5,-81.5 627.5,-110.5 "/>
<text text-anchor="middle" x="667" y="-92.3" font-family="Times,serif" font-size="14.00" fill="#0058ad">a 121 28</text>
<polyline fill="none" stroke="#0058ad" points="706.5,-81.5 706.5,-110.5 "/>
<text text-anchor="middle" x="856" y="-92.3" font-family="Times,serif" font-size="14.00" fill="#0058ad">r 122 [1 3 4 5 10 19 20 21 22 23 24 28]</text>
<polyline fill="none" stroke="#0058ad" points="1005.5,-81.5 1005.5,-110.5 "/>
<text text-anchor="middle" x="1040.5" y="-92.3" font-family="Times,serif" font-size="14.00" fill="#0058ad">r 123 []</text>
</g>
<!-- T3219 -->
<g id="node2" class="node">
<title>T3219</title>
<polygon fill="none" stroke="#0058ad" points="0,-0.5 0,-29.5 1365,-29.5 1365,-0.5 0,-0.5"/>
<text text-anchor="middle" x="251" y="-11.3" font-family="Times,serif" font-size="14.00" fill="#0058ad">r 121 [1 2 3 4 5 6 7 8 9 10 11 12 13 14 15 16 17 18 20 21 22 25 26]</text>
<polyline fill="none" stroke="#0058ad" points="502,-0.5 502,-29.5 "/>
<text text-anchor="middle" x="541.5" y="-11.3" font-family="Times,serif" font-size="14.00" fill="#0058ad">a 122 29</text>
<polyline fill="none" stroke="#0058ad" points="581,-0.5 581,-29.5 "/>
<text text-anchor="middle" x="620.5" y="-11.3" font-family="Times,serif" font-size="14.00" fill="#0058ad">a 122 30</text>
<polyline fill="none" stroke="#0058ad" points="660,-0.5 660,-29.5 "/>
<text text-anchor="middle" x="699.5" y="-11.3" font-family="Times,serif" font-size="14.00" fill="#0058ad">a 122 31</text>
<polyline fill="none" stroke="#0058ad" points="739,-0.5 739,-29.5 "/>
<text text-anchor="middle" x="933.5" y="-11.3" font-family="Times,serif" font-size="14.00" fill="#0058ad">r 118 [1 2 3 4 5 6 7 8 9 10 11 13 14 15 16 17 18 19]</text>
<polyline fill="none" stroke="#0058ad" points="1128,-0.5 1128,-29.5 "/>
<text text-anchor="middle" x="1167.5" y="-11.3" font-family="Times,serif" font-size="14.00" fill="#0058ad">a 118 30</text>
<polyline fill="none" stroke="#0058ad" points="1207,-0.5 1207,-29.5 "/>
<text text-anchor="middle" x="1246.5" y="-11.3" font-family="Times,serif" font-size="14.00" fill="#0058ad">a 122 32</text>
<polyline fill="none" stroke="#0058ad" points="1286,-0.5 1286,-29.5 "/>
<text text-anchor="middle" x="1325.5" y="-11.3" font-family="Times,serif" font-size="14.00" fill="#0058ad">a 118 31</text>
</g>
<!-- T3218&#45;&gt;T3219 -->
<g id="edge1" class="edge">
<title>T3218:f1&#45;&gt;T3219:f1</title>
<path fill="none" stroke="#5b00c0" d="M477.5,-81C477.5,-48.61 528.27,-62.31 539.37,-40"/>
<polygon fill="#5b00c0" stroke="#5b00c0" points="542.84,-40.51 541.5,-30 535.99,-39.05 542.84,-40.51"/>
<text text-anchor="middle" x="541" y="-51.8" font-family="Times,serif" font-size="14.00" fill="#5b00c0">rw</text>
</g>
<!-- T3219&#45;&gt;T3218 -->
<g id="edge2" class="edge">
<title>T3219:f0&#45;&gt;T3218:f0</title>
<path fill="none" stroke="#5b00c0" d="M250.5,-30C250.5,-54.29 278.56,-53.62 286.46,-70.89"/>
<polygon fill="#5b00c0" stroke="#5b00c0" points="283.09,-71.89 288.5,-81 289.95,-70.5 283.09,-71.89"/>
<text text-anchor="middle" x="290" y="-51.8" font-family="Times,serif" font-size="14.00" fill="#5b00c0">rw</text>
</g>
</g>
</svg>
