<?xml version="1.0" encoding="UTF-8" standalone="no"?>
<!DOCTYPE svg PUBLIC "-//W3C//DTD SVG 1.1//EN"
 "http://www.w3.org/Graphics/SVG/1.1/DTD/svg11.dtd">
<!-- Generated by graphviz version 2.43.0 (0)
 -->
<!-- Title: a_graph Pages: 1 -->
<svg width="833pt" height="119pt"
 viewBox="0.00 0.00 832.50 119.00" xmlns="http://www.w3.org/2000/svg" xmlns:xlink="http://www.w3.org/1999/xlink">
<g id="graph0" class="graph" transform="scale(1 1) rotate(0) translate(4 115)">
<title>a_graph</title>
<polygon fill="white" stroke="transparent" points="-4,4 -4,-115 828.5,-115 828.5,4 -4,4"/>
<!-- T3797 -->
<g id="node1" class="node">
<title>T3797</title>
<polygon fill="none" stroke="#0058ad" points="0,-81.5 0,-110.5 711,-110.5 711,-81.5 0,-81.5"/>
<text text-anchor="middle" x="73" y="-92.3" font-family="Times,serif" font-size="14.00" fill="#0058ad">r 146 [1 2 3 4 5 6]</text>
<polyline fill="none" stroke="#0058ad" points="146,-81.5 146,-110.5 "/>
<text text-anchor="middle" x="199" y="-92.3" font-family="Times,serif" font-size="14.00" fill="#0058ad">r 145 [1 2 3]</text>
<polyline fill="none" stroke="#0058ad" points="252,-81.5 252,-110.5 "/>
<text text-anchor="middle" x="446.5" y="-92.3" font-family="Times,serif" font-size="14.00" fill="#0058ad">r 144 [1 2 3 4 5 6 7 8 9 10 11 12 13 14 15 16 17 18]</text>
<polyline fill="none" stroke="#0058ad" points="641,-81.5 641,-110.5 "/>
<text text-anchor="middle" x="676" y="-92.3" font-family="Times,serif" font-size="14.00" fill="#0058ad">a 146 7</text>
</g>
<!-- T3796 -->
<g id="node2" class="node">
<title>T3796</title>
<polygon fill="none" stroke="#0058ad" points="362.5,-0.5 362.5,-29.5 824.5,-29.5 824.5,-0.5 362.5,-0.5"/>
<text text-anchor="middle" x="402" y="-11.3" font-family="Times,serif" font-size="14.00" fill="#0058ad">a 144 19</text>
<polyline fill="none" stroke="#0058ad" points="441.5,-0.5 441.5,-29.5 "/>
<text text-anchor="middle" x="481" y="-11.3" font-family="Times,serif" font-size="14.00" fill="#0058ad">a 144 20</text>
<polyline fill="none" stroke="#0058ad" points="520.5,-0.5 520.5,-29.5 "/>
<text text-anchor="middle" x="560" y="-11.3" font-family="Times,serif" font-size="14.00" fill="#0058ad">a 144 21</text>
<polyline fill="none" stroke="#0058ad" points="599.5,-0.5 599.5,-29.5 "/>
<text text-anchor="middle" x="639" y="-11.3" font-family="Times,serif" font-size="14.00" fill="#0058ad">a 144 22</text>
<polyline fill="none" stroke="#0058ad" points="678.5,-0.5 678.5,-29.5 "/>
<text text-anchor="middle" x="751.5" y="-11.3" font-family="Times,serif" font-size="14.00" fill="#0058ad">r 146 [1 2 3 4 5 6]</text>
</g>
<!-- T3797&#45;&gt;T3796 -->
<g id="edge1" class="edge">
<title>T3797:f2&#45;&gt;T3796:f0</title>
<path fill="none" stroke="#5b00c0" d="M446.5,-81C446.5,-54.79 412.66,-58.42 403.67,-40.13"/>
<polygon fill="#5b00c0" stroke="#5b00c0" points="407.02,-39.04 401.5,-30 400.17,-40.51 407.02,-39.04"/>
<text text-anchor="middle" x="447" y="-51.8" font-family="Times,serif" font-size="14.00" fill="#5b00c0">rw</text>
</g>
<!-- T3796&#45;&gt;T3797 -->
<g id="edge2" class="edge">
<title>T3796:f4&#45;&gt;T3797:f3</title>
<path fill="none" stroke="#5b00c0" d="M751.5,-30C751.5,-60.35 747.59,-88.99 722.67,-94.89"/>
<polygon fill="#5b00c0" stroke="#5b00c0" points="722.06,-91.44 712.5,-96 722.82,-98.4 722.06,-91.44"/>
<text text-anchor="middle" x="760" y="-51.8" font-family="Times,serif" font-size="14.00" fill="#5b00c0">rw</text>
</g>
</g>
</svg>
