<?xml version="1.0" encoding="UTF-8" standalone="no"?>
<!DOCTYPE svg PUBLIC "-//W3C//DTD SVG 1.1//EN"
 "http://www.w3.org/Graphics/SVG/1.1/DTD/svg11.dtd">
<!-- Generated by graphviz version 2.43.0 (0)
 -->
<!-- Title: a_graph Pages: 1 -->
<svg width="1749pt" height="119pt"
 viewBox="0.00 0.00 1748.50 119.00" xmlns="http://www.w3.org/2000/svg" xmlns:xlink="http://www.w3.org/1999/xlink">
<g id="graph0" class="graph" transform="scale(1 1) rotate(0) translate(4 115)">
<title>a_graph</title>
<polygon fill="white" stroke="transparent" points="-4,4 -4,-115 1744.5,-115 1744.5,4 -4,4"/>
<!-- T2528 -->
<g id="node1" class="node">
<title>T2528</title>
<polygon fill="none" stroke="#0058ad" points="0,-81.5 0,-110.5 790,-110.5 790,-81.5 0,-81.5"/>
<text text-anchor="middle" x="145" y="-92.3" font-family="Times,serif" font-size="14.00" fill="#0058ad">r 96 [1 2 3 4 5 6 7 8 9 10 11 12 13 14]</text>
<polyline fill="none" stroke="#0058ad" points="290,-81.5 290,-110.5 "/>
<text text-anchor="middle" x="325" y="-92.3" font-family="Times,serif" font-size="14.00" fill="#0058ad">a 91 28</text>
<polyline fill="none" stroke="#0058ad" points="360,-81.5 360,-110.5 "/>
<text text-anchor="middle" x="505" y="-92.3" font-family="Times,serif" font-size="14.00" fill="#0058ad">r 96 [1 2 3 4 5 6 7 8 9 10 11 12 13 14]</text>
<polyline fill="none" stroke="#0058ad" points="650,-81.5 650,-110.5 "/>
<text text-anchor="middle" x="685" y="-92.3" font-family="Times,serif" font-size="14.00" fill="#0058ad">a 95 26</text>
<polyline fill="none" stroke="#0058ad" points="720,-81.5 720,-110.5 "/>
<text text-anchor="middle" x="755" y="-92.3" font-family="Times,serif" font-size="14.00" fill="#0058ad">a 91 29</text>
</g>
<!-- T2529 -->
<g id="node2" class="node">
<title>T2529</title>
<polygon fill="none" stroke="#0058ad" points="57.5,-0.5 57.5,-29.5 1740.5,-29.5 1740.5,-0.5 57.5,-0.5"/>
<text text-anchor="middle" x="92.5" y="-11.3" font-family="Times,serif" font-size="14.00" fill="#0058ad">a 96 15</text>
<polyline fill="none" stroke="#0058ad" points="127.5,-0.5 127.5,-29.5 "/>
<text text-anchor="middle" x="412" y="-11.3" font-family="Times,serif" font-size="14.00" fill="#0058ad">r 91 [1 2 3 4 5 6 7 9 10 11 12 13 14 15 16 17 18 19 20 21 22 23 24 25 26 27]</text>
<polyline fill="none" stroke="#0058ad" points="696.5,-0.5 696.5,-29.5 "/>
<text text-anchor="middle" x="731.5" y="-11.3" font-family="Times,serif" font-size="14.00" fill="#0058ad">a 96 16</text>
<polyline fill="none" stroke="#0058ad" points="766.5,-0.5 766.5,-29.5 "/>
<text text-anchor="middle" x="1051" y="-11.3" font-family="Times,serif" font-size="14.00" fill="#0058ad">r 91 [1 2 3 4 5 6 7 9 10 11 12 13 14 15 16 17 18 19 20 21 22 23 24 25 26 27]</text>
<polyline fill="none" stroke="#0058ad" points="1335.5,-0.5 1335.5,-29.5 "/>
<text text-anchor="middle" x="1503" y="-11.3" font-family="Times,serif" font-size="14.00" fill="#0058ad">r 96 [1 2 3 4 5 6 7 8 9 10 11 12 13 14 15 16]</text>
<polyline fill="none" stroke="#0058ad" points="1670.5,-0.5 1670.5,-29.5 "/>
<text text-anchor="middle" x="1705.5" y="-11.3" font-family="Times,serif" font-size="14.00" fill="#0058ad">a 96 17</text>
</g>
<!-- T2528&#45;&gt;T2529 -->
<g id="edge1" class="edge">
<title>T2528:f0&#45;&gt;T2529:f0</title>
<path fill="none" stroke="#5b00c0" d="M145,-81C145,-52.27 104.06,-59.9 94.14,-39.97"/>
<polygon fill="#5b00c0" stroke="#5b00c0" points="97.52,-39.04 92,-30 90.68,-40.51 97.52,-39.04"/>
<text text-anchor="middle" x="144.5" y="-51.8" font-family="Times,serif" font-size="14.00" fill="#5b00c0">rw</text>
</g>
<!-- T2529&#45;&gt;T2528 -->
<g id="edge2" class="edge">
<title>T2529:f1&#45;&gt;T2528:f1</title>
<path fill="none" stroke="#5b00c0" d="M412,-30C412,-70.79 339.93,-42.45 326.98,-70.82"/>
<polygon fill="#5b00c0" stroke="#5b00c0" points="323.47,-70.52 325,-81 330.35,-71.85 323.47,-70.52"/>
<text text-anchor="middle" x="412.5" y="-51.8" font-family="Times,serif" font-size="14.00" fill="#5b00c0">rw</text>
</g>
</g>
</svg>
