<?xml version="1.0" encoding="UTF-8" standalone="no"?>
<!DOCTYPE svg PUBLIC "-//W3C//DTD SVG 1.1//EN"
 "http://www.w3.org/Graphics/SVG/1.1/DTD/svg11.dtd">
<!-- Generated by graphviz version 2.43.0 (0)
 -->
<!-- Title: a_graph Pages: 1 -->
<svg width="2776pt" height="119pt"
 viewBox="0.00 0.00 2776.00 119.00" xmlns="http://www.w3.org/2000/svg" xmlns:xlink="http://www.w3.org/1999/xlink">
<g id="graph0" class="graph" transform="scale(1 1) rotate(0) translate(4 115)">
<title>a_graph</title>
<polygon fill="white" stroke="transparent" points="-4,4 -4,-115 2772,-115 2772,4 -4,4"/>
<!-- T268 -->
<g id="node1" class="node">
<title>T268</title>
<polygon fill="none" stroke="#0058ad" points="5.5,-81.5 5.5,-110.5 1186.5,-110.5 1186.5,-81.5 5.5,-81.5"/>
<text text-anchor="middle" x="285.5" y="-92.3" font-family="Times,serif" font-size="14.00" fill="#0058ad">r 5 [1 2 3 4 5 6 7 8 12 13 14 15 16 17 18 19 20 22 23 24 25 26 27 28 32 10]</text>
<polyline fill="none" stroke="#0058ad" points="565.5,-81.5 565.5,-110.5 "/>
<text text-anchor="middle" x="596" y="-92.3" font-family="Times,serif" font-size="14.00" fill="#0058ad">a 4 19</text>
<polyline fill="none" stroke="#0058ad" points="626.5,-81.5 626.5,-110.5 "/>
<text text-anchor="middle" x="906.5" y="-92.3" font-family="Times,serif" font-size="14.00" fill="#0058ad">r 5 [1 2 3 4 5 6 7 8 12 13 14 15 16 17 18 19 20 22 23 24 25 26 27 28 32 10]</text>
</g>
<!-- T269 -->
<g id="node2" class="node">
<title>T269</title>
<polygon fill="none" stroke="#0058ad" points="0,-0.5 0,-29.5 2768,-29.5 2768,-0.5 0,-0.5"/>
<text text-anchor="middle" x="239.5" y="-11.3" font-family="Times,serif" font-size="14.00" fill="#0058ad">r 4 [1 2 3 4 5 13 14 15 16 17 18 20 21 22 23 24 25 26 32 8 9 10]</text>
<polyline fill="none" stroke="#0058ad" points="479,-0.5 479,-29.5 "/>
<text text-anchor="middle" x="509.5" y="-11.3" font-family="Times,serif" font-size="14.00" fill="#0058ad">a 5 21</text>
<polyline fill="none" stroke="#0058ad" points="540,-0.5 540,-29.5 "/>
<text text-anchor="middle" x="831.5" y="-11.3" font-family="Times,serif" font-size="14.00" fill="#0058ad">r 5 [1 2 3 4 5 6 7 8 12 13 14 15 16 17 18 19 20 22 23 24 25 26 27 28 32 10 21]</text>
<polyline fill="none" stroke="#0058ad" points="1123,-0.5 1123,-29.5 "/>
<text text-anchor="middle" x="1414.5" y="-11.3" font-family="Times,serif" font-size="14.00" fill="#0058ad">r 5 [1 2 3 4 5 6 7 8 12 13 14 15 16 17 18 19 20 22 23 24 25 26 27 28 32 10 21]</text>
<polyline fill="none" stroke="#0058ad" points="1706,-0.5 1706,-29.5 "/>
<text text-anchor="middle" x="1997.5" y="-11.3" font-family="Times,serif" font-size="14.00" fill="#0058ad">r 5 [1 2 3 4 5 6 7 8 12 13 14 15 16 17 18 19 20 22 23 24 25 26 27 28 32 10 21]</text>
<polyline fill="none" stroke="#0058ad" points="2289,-0.5 2289,-29.5 "/>
<text text-anchor="middle" x="2528.5" y="-11.3" font-family="Times,serif" font-size="14.00" fill="#0058ad">r 4 [1 2 3 4 5 13 14 15 16 17 18 20 21 22 23 24 25 26 32 8 9 10]</text>
</g>
<!-- T268&#45;&gt;T269 -->
<g id="edge1" class="edge">
<title>T268:f0&#45;&gt;T269:f1</title>
<path fill="none" stroke="#5b00c0" d="M285,-81C285,-18.8 360.3,-61.57 421,-48 436.98,-44.43 485.96,-48.04 503.04,-38.43"/>
<polygon fill="#5b00c0" stroke="#5b00c0" points="506.09,-40.19 509,-30 500.37,-36.15 506.09,-40.19"/>
<text text-anchor="middle" x="430.5" y="-51.8" font-family="Times,serif" font-size="14.00" fill="#5b00c0">rw</text>
</g>
<!-- T269&#45;&gt;T268 -->
<g id="edge2" class="edge">
<title>T269:f0&#45;&gt;T268:f1</title>
<path fill="none" stroke="#5b00c0" d="M239,-30C239,-52.42 417.83,-44.67 440,-48 506.39,-57.96 586.98,-15.07 595.3,-70.76"/>
<polygon fill="#5b00c0" stroke="#5b00c0" points="591.82,-71.26 596,-81 598.81,-70.78 591.82,-71.26"/>
<text text-anchor="middle" x="601.5" y="-51.8" font-family="Times,serif" font-size="14.00" fill="#5b00c0">rw</text>
</g>
</g>
</svg>
