<?xml version="1.0" encoding="UTF-8" standalone="no"?>
<!DOCTYPE svg PUBLIC "-//W3C//DTD SVG 1.1//EN"
 "http://www.w3.org/Graphics/SVG/1.1/DTD/svg11.dtd">
<!-- Generated by graphviz version 2.43.0 (0)
 -->
<!-- Title: a_graph Pages: 1 -->
<svg width="1157pt" height="119pt"
 viewBox="0.00 0.00 1156.50 119.00" xmlns="http://www.w3.org/2000/svg" xmlns:xlink="http://www.w3.org/1999/xlink">
<g id="graph0" class="graph" transform="scale(1 1) rotate(0) translate(4 115)">
<title>a_graph</title>
<polygon fill="white" stroke="transparent" points="-4,4 -4,-115 1152.5,-115 1152.5,4 -4,4"/>
<!-- T4164 -->
<g id="node1" class="node">
<title>T4164</title>
<polygon fill="none" stroke="#0058ad" points="635.5,-81.5 635.5,-110.5 1148.5,-110.5 1148.5,-81.5 635.5,-81.5"/>
<text text-anchor="middle" x="675" y="-92.3" font-family="Times,serif" font-size="14.00" fill="#0058ad">a 156 29</text>
<polyline fill="none" stroke="#0058ad" points="714.5,-81.5 714.5,-110.5 "/>
<text text-anchor="middle" x="760.5" y="-92.3" font-family="Times,serif" font-size="14.00" fill="#0058ad">r 159 [1 2]</text>
<polyline fill="none" stroke="#0058ad" points="806.5,-81.5 806.5,-110.5 "/>
<text text-anchor="middle" x="852.5" y="-92.3" font-family="Times,serif" font-size="14.00" fill="#0058ad">r 159 [1 2]</text>
<polyline fill="none" stroke="#0058ad" points="898.5,-81.5 898.5,-110.5 "/>
<text text-anchor="middle" x="938" y="-92.3" font-family="Times,serif" font-size="14.00" fill="#0058ad">a 156 30</text>
<polyline fill="none" stroke="#0058ad" points="977.5,-81.5 977.5,-110.5 "/>
<text text-anchor="middle" x="1023.5" y="-92.3" font-family="Times,serif" font-size="14.00" fill="#0058ad">r 159 [1 2]</text>
<polyline fill="none" stroke="#0058ad" points="1069.5,-81.5 1069.5,-110.5 "/>
<text text-anchor="middle" x="1109" y="-92.3" font-family="Times,serif" font-size="14.00" fill="#0058ad">a 154 19</text>
</g>
<!-- T4163 -->
<g id="node2" class="node">
<title>T4163</title>
<polygon fill="none" stroke="#0058ad" points="0,-0.5 0,-29.5 1030,-29.5 1030,-0.5 0,-0.5"/>
<text text-anchor="middle" x="289" y="-11.3" font-family="Times,serif" font-size="14.00" fill="#0058ad">r 156 [1 2 3 4 5 6 8 9 10 11 12 13 14 15 16 17 18 19 20 21 23 24 25 26 27 28]</text>
<polyline fill="none" stroke="#0058ad" points="578,-0.5 578,-29.5 "/>
<text text-anchor="middle" x="624" y="-11.3" font-family="Times,serif" font-size="14.00" fill="#0058ad">r 159 [1 2]</text>
<polyline fill="none" stroke="#0058ad" points="670,-0.5 670,-29.5 "/>
<text text-anchor="middle" x="716" y="-11.3" font-family="Times,serif" font-size="14.00" fill="#0058ad">r 159 [1 2]</text>
<polyline fill="none" stroke="#0058ad" points="762,-0.5 762,-29.5 "/>
<text text-anchor="middle" x="808" y="-11.3" font-family="Times,serif" font-size="14.00" fill="#0058ad">r 159 [1 2]</text>
<polyline fill="none" stroke="#0058ad" points="854,-0.5 854,-29.5 "/>
<text text-anchor="middle" x="889" y="-11.3" font-family="Times,serif" font-size="14.00" fill="#0058ad">a 159 3</text>
<polyline fill="none" stroke="#0058ad" points="924,-0.5 924,-29.5 "/>
<text text-anchor="middle" x="977" y="-11.3" font-family="Times,serif" font-size="14.00" fill="#0058ad">r 159 [1 2 3]</text>
</g>
<!-- T4164&#45;&gt;T4163 -->
<g id="edge1" class="edge">
<title>T4164:f1&#45;&gt;T4163:f4</title>
<path fill="none" stroke="#5b00c0" d="M760,-81C760,-23.2 873.38,-83.14 887.55,-40.06"/>
<polygon fill="#5b00c0" stroke="#5b00c0" points="891.04,-40.4 889,-30 884.11,-39.4 891.04,-40.4"/>
<text text-anchor="middle" x="891.5" y="-51.8" font-family="Times,serif" font-size="14.00" fill="#5b00c0">rw</text>
</g>
<!-- T4163&#45;&gt;T4164 -->
<g id="edge2" class="edge">
<title>T4163:f0&#45;&gt;T4164:f0</title>
<path fill="none" stroke="#5b00c0" d="M289,-30C289,-66.59 557.92,-92.58 623.69,-95.69"/>
<polygon fill="#5b00c0" stroke="#5b00c0" points="623.9,-99.2 634,-96 624.11,-92.2 623.9,-99.2"/>
<text text-anchor="middle" x="365.5" y="-51.8" font-family="Times,serif" font-size="14.00" fill="#5b00c0">rw</text>
</g>
</g>
</svg>
