<?xml version="1.0" encoding="UTF-8" standalone="no"?>
<!DOCTYPE svg PUBLIC "-//W3C//DTD SVG 1.1//EN"
 "http://www.w3.org/Graphics/SVG/1.1/DTD/svg11.dtd">
<!-- Generated by graphviz version 2.43.0 (0)
 -->
<!-- Title: a_graph Pages: 1 -->
<svg width="1337pt" height="119pt"
 viewBox="0.00 0.00 1337.00 119.00" xmlns="http://www.w3.org/2000/svg" xmlns:xlink="http://www.w3.org/1999/xlink">
<g id="graph0" class="graph" transform="scale(1 1) rotate(0) translate(4 115)">
<title>a_graph</title>
<polygon fill="white" stroke="transparent" points="-4,4 -4,-115 1333,-115 1333,4 -4,4"/>
<!-- T4116 -->
<g id="node1" class="node">
<title>T4116</title>
<polygon fill="none" stroke="#0058ad" points="320.5,-81.5 320.5,-110.5 800.5,-110.5 800.5,-81.5 320.5,-81.5"/>
<text text-anchor="middle" x="360" y="-92.3" font-family="Times,serif" font-size="14.00" fill="#0058ad">a 156 12</text>
<polyline fill="none" stroke="#0058ad" points="399.5,-81.5 399.5,-110.5 "/>
<text text-anchor="middle" x="439" y="-92.3" font-family="Times,serif" font-size="14.00" fill="#0058ad">a 156 13</text>
<polyline fill="none" stroke="#0058ad" points="478.5,-81.5 478.5,-110.5 "/>
<text text-anchor="middle" x="639.5" y="-92.3" font-family="Times,serif" font-size="14.00" fill="#0058ad">r 157 [1 2 3 4 5 6 7 8 9 10 11 12 13 14 15]</text>
</g>
<!-- T4117 -->
<g id="node2" class="node">
<title>T4117</title>
<polygon fill="none" stroke="#0058ad" points="0,-0.5 0,-29.5 1329,-29.5 1329,-0.5 0,-0.5"/>
<text text-anchor="middle" x="161" y="-11.3" font-family="Times,serif" font-size="14.00" fill="#0058ad">r 157 [1 2 3 4 5 6 7 8 9 10 11 12 13 14 15]</text>
<polyline fill="none" stroke="#0058ad" points="322,-0.5 322,-29.5 "/>
<text text-anchor="middle" x="438" y="-11.3" font-family="Times,serif" font-size="14.00" fill="#0058ad">r 156 [1 2 3 4 5 6 7 8 9 10 11]</text>
<polyline fill="none" stroke="#0058ad" points="554,-0.5 554,-29.5 "/>
<text text-anchor="middle" x="593.5" y="-11.3" font-family="Times,serif" font-size="14.00" fill="#0058ad">a 157 16</text>
<polyline fill="none" stroke="#0058ad" points="633,-0.5 633,-29.5 "/>
<text text-anchor="middle" x="749" y="-11.3" font-family="Times,serif" font-size="14.00" fill="#0058ad">r 156 [1 2 3 4 5 6 7 8 9 10 11]</text>
<polyline fill="none" stroke="#0058ad" points="865,-0.5 865,-29.5 "/>
<text text-anchor="middle" x="981" y="-11.3" font-family="Times,serif" font-size="14.00" fill="#0058ad">r 154 [1 2 3 4 5 6 7 8 9 10 11]</text>
<polyline fill="none" stroke="#0058ad" points="1097,-0.5 1097,-29.5 "/>
<text text-anchor="middle" x="1213" y="-11.3" font-family="Times,serif" font-size="14.00" fill="#0058ad">r 156 [1 2 3 4 5 6 7 8 9 10 11]</text>
</g>
<!-- T4116&#45;&gt;T4117 -->
<g id="edge1" class="edge">
<title>T4116:f2&#45;&gt;T4117:f2</title>
<path fill="none" stroke="#5b00c0" d="M639.5,-81C639.5,-54.53 604.91,-58.57 595.72,-40.21"/>
<polygon fill="#5b00c0" stroke="#5b00c0" points="599.04,-39.03 593.5,-30 592.2,-40.52 599.04,-39.03"/>
<text text-anchor="middle" x="639" y="-51.8" font-family="Times,serif" font-size="14.00" fill="#5b00c0">rw</text>
</g>
<!-- T4117&#45;&gt;T4116 -->
<g id="edge2" class="edge">
<title>T4117:f1&#45;&gt;T4116:f0</title>
<path fill="none" stroke="#5b00c0" d="M437.5,-30C437.5,-67.54 373.44,-44.91 361.43,-71.16"/>
<polygon fill="#5b00c0" stroke="#5b00c0" points="357.99,-70.51 359.5,-81 364.86,-71.86 357.99,-70.51"/>
<text text-anchor="middle" x="438" y="-51.8" font-family="Times,serif" font-size="14.00" fill="#5b00c0">rw</text>
</g>
</g>
</svg>
