<?xml version="1.0" encoding="UTF-8" standalone="no"?>
<!DOCTYPE svg PUBLIC "-//W3C//DTD SVG 1.1//EN"
 "http://www.w3.org/Graphics/SVG/1.1/DTD/svg11.dtd">
<!-- Generated by graphviz version 2.43.0 (0)
 -->
<!-- Title: a_graph Pages: 1 -->
<svg width="2704pt" height="119pt"
 viewBox="0.00 0.00 2704.00 119.00" xmlns="http://www.w3.org/2000/svg" xmlns:xlink="http://www.w3.org/1999/xlink">
<g id="graph0" class="graph" transform="scale(1 1) rotate(0) translate(4 115)">
<title>a_graph</title>
<polygon fill="white" stroke="transparent" points="-4,4 -4,-115 2700,-115 2700,4 -4,4"/>
<!-- T1658 -->
<g id="node1" class="node">
<title>T1658</title>
<polygon fill="none" stroke="#0058ad" points="82.5,-81.5 82.5,-110.5 2109.5,-110.5 2109.5,-81.5 82.5,-81.5"/>
<text text-anchor="middle" x="340" y="-92.3" font-family="Times,serif" font-size="14.00" fill="#0058ad">r 60 [1 2 3 4 5 6 7 8 9 10 11 12 13 14 15 16 17 20 21 22 23 24 25 26]</text>
<polyline fill="none" stroke="#0058ad" points="597.5,-81.5 597.5,-110.5 "/>
<text text-anchor="middle" x="893.5" y="-92.3" font-family="Times,serif" font-size="14.00" fill="#0058ad">r 61 [1 2 3 4 5 7 8 9 10 11 12 13 14 15 16 17 18 20 21 22 23 24 25 26 27 28 29]</text>
<polyline fill="none" stroke="#0058ad" points="1189.5,-81.5 1189.5,-110.5 "/>
<text text-anchor="middle" x="1357" y="-92.3" font-family="Times,serif" font-size="14.00" fill="#0058ad">r 63 [1 2 3 4 5 6 7 8 9 10 11 12 13 14 15 16]</text>
<polyline fill="none" stroke="#0058ad" points="1524.5,-81.5 1524.5,-110.5 "/>
<text text-anchor="middle" x="1559.5" y="-92.3" font-family="Times,serif" font-size="14.00" fill="#0058ad">a 61 30</text>
<polyline fill="none" stroke="#0058ad" points="1594.5,-81.5 1594.5,-110.5 "/>
<text text-anchor="middle" x="1852" y="-92.3" font-family="Times,serif" font-size="14.00" fill="#0058ad">r 60 [1 2 3 4 5 6 7 8 9 10 11 12 13 14 15 16 17 20 21 22 23 24 25 26]</text>
</g>
<!-- T1659 -->
<g id="node2" class="node">
<title>T1659</title>
<polygon fill="none" stroke="#0058ad" points="0,-0.5 0,-29.5 2696,-29.5 2696,-0.5 0,-0.5"/>
<text text-anchor="middle" x="296" y="-11.3" font-family="Times,serif" font-size="14.00" fill="#0058ad">r 61 [1 2 3 4 5 7 8 9 10 11 12 13 14 15 16 17 18 20 21 22 23 24 25 26 27 28 29]</text>
<polyline fill="none" stroke="#0058ad" points="592,-0.5 592,-29.5 "/>
<text text-anchor="middle" x="888" y="-11.3" font-family="Times,serif" font-size="14.00" fill="#0058ad">r 61 [1 2 3 4 5 7 8 9 10 11 12 13 14 15 16 17 18 20 21 22 23 24 25 26 27 28 29]</text>
<polyline fill="none" stroke="#0058ad" points="1184,-0.5 1184,-29.5 "/>
<text text-anchor="middle" x="1441.5" y="-11.3" font-family="Times,serif" font-size="14.00" fill="#0058ad">r 60 [1 2 3 4 5 6 7 8 9 10 11 12 13 14 15 16 17 20 21 22 23 24 25 26]</text>
<polyline fill="none" stroke="#0058ad" points="1699,-0.5 1699,-29.5 "/>
<text text-anchor="middle" x="1995" y="-11.3" font-family="Times,serif" font-size="14.00" fill="#0058ad">r 61 [1 2 3 4 5 7 8 9 10 11 12 13 14 15 16 17 18 20 21 22 23 24 25 26 27 28 29]</text>
<polyline fill="none" stroke="#0058ad" points="2291,-0.5 2291,-29.5 "/>
<text text-anchor="middle" x="2458.5" y="-11.3" font-family="Times,serif" font-size="14.00" fill="#0058ad">r 63 [1 2 3 4 5 6 7 8 9 10 11 12 13 14 15 16]</text>
<polyline fill="none" stroke="#0058ad" points="2626,-0.5 2626,-29.5 "/>
<text text-anchor="middle" x="2661" y="-11.3" font-family="Times,serif" font-size="14.00" fill="#0058ad">a 63 17</text>
</g>
<!-- T1658&#45;&gt;T1659 -->
<g id="edge1" class="edge">
<title>T1658:f2&#45;&gt;T1659:f5</title>
<path fill="none" stroke="#5b00c0" d="M1357,-81C1357,-25.26 1422.81,-55.82 1478,-48 1493.4,-45.82 2538.99,-46.36 2651.26,-32.5"/>
<polygon fill="#5b00c0" stroke="#5b00c0" points="2652.19,-35.88 2661,-30 2650.44,-29.1 2652.19,-35.88"/>
<text text-anchor="middle" x="1487.5" y="-51.8" font-family="Times,serif" font-size="14.00" fill="#5b00c0">rw</text>
</g>
<!-- T1659&#45;&gt;T1658 -->
<g id="edge2" class="edge">
<title>T1659:f0&#45;&gt;T1658:f3</title>
<path fill="none" stroke="#5b00c0" d="M296,-30C296,-46.68 1480.83,-43.89 1497,-48 1523.81,-54.81 1551.94,-50.77 1558.55,-70.83"/>
<polygon fill="#5b00c0" stroke="#5b00c0" points="1555.12,-71.59 1560,-81 1562.05,-70.61 1555.12,-71.59"/>
<text text-anchor="middle" x="1562.5" y="-51.8" font-family="Times,serif" font-size="14.00" fill="#5b00c0">rw</text>
</g>
</g>
</svg>
