<?xml version="1.0" encoding="UTF-8" standalone="no"?>
<!DOCTYPE svg PUBLIC "-//W3C//DTD SVG 1.1//EN"
 "http://www.w3.org/Graphics/SVG/1.1/DTD/svg11.dtd">
<!-- Generated by graphviz version 2.43.0 (0)
 -->
<!-- Title: a_graph Pages: 1 -->
<svg width="1159pt" height="119pt"
 viewBox="0.00 0.00 1159.00 119.00" xmlns="http://www.w3.org/2000/svg" xmlns:xlink="http://www.w3.org/1999/xlink">
<g id="graph0" class="graph" transform="scale(1 1) rotate(0) translate(4 115)">
<title>a_graph</title>
<polygon fill="white" stroke="transparent" points="-4,4 -4,-115 1155,-115 1155,4 -4,4"/>
<!-- T3885 -->
<g id="node1" class="node">
<title>T3885</title>
<polygon fill="none" stroke="#0058ad" points="11.5,-81.5 11.5,-110.5 503.5,-110.5 503.5,-81.5 11.5,-81.5"/>
<text text-anchor="middle" x="46.5" y="-92.3" font-family="Times,serif" font-size="14.00" fill="#0058ad">a 147 3</text>
<polyline fill="none" stroke="#0058ad" points="81.5,-81.5 81.5,-110.5 "/>
<text text-anchor="middle" x="121" y="-92.3" font-family="Times,serif" font-size="14.00" fill="#0058ad">r 148 [1]</text>
<polyline fill="none" stroke="#0058ad" points="160.5,-81.5 160.5,-110.5 "/>
<text text-anchor="middle" x="200" y="-92.3" font-family="Times,serif" font-size="14.00" fill="#0058ad">r 148 [1]</text>
<polyline fill="none" stroke="#0058ad" points="239.5,-81.5 239.5,-110.5 "/>
<text text-anchor="middle" x="292.5" y="-92.3" font-family="Times,serif" font-size="14.00" fill="#0058ad">r 147 [1 2 3]</text>
<polyline fill="none" stroke="#0058ad" points="345.5,-81.5 345.5,-110.5 "/>
<text text-anchor="middle" x="385" y="-92.3" font-family="Times,serif" font-size="14.00" fill="#0058ad">r 148 [1]</text>
<polyline fill="none" stroke="#0058ad" points="424.5,-81.5 424.5,-110.5 "/>
<text text-anchor="middle" x="464" y="-92.3" font-family="Times,serif" font-size="14.00" fill="#0058ad">r 148 [1]</text>
</g>
<!-- T3884 -->
<g id="node2" class="node">
<title>T3884</title>
<polygon fill="none" stroke="#0058ad" points="0,-0.5 0,-29.5 1151,-29.5 1151,-0.5 0,-0.5"/>
<text text-anchor="middle" x="35" y="-11.3" font-family="Times,serif" font-size="14.00" fill="#0058ad">a 148 2</text>
<polyline fill="none" stroke="#0058ad" points="70,-0.5 70,-29.5 "/>
<text text-anchor="middle" x="105" y="-11.3" font-family="Times,serif" font-size="14.00" fill="#0058ad">a 148 3</text>
<polyline fill="none" stroke="#0058ad" points="140,-0.5 140,-29.5 "/>
<text text-anchor="middle" x="186" y="-11.3" font-family="Times,serif" font-size="14.00" fill="#0058ad">r 147 [1 2]</text>
<polyline fill="none" stroke="#0058ad" points="232,-0.5 232,-29.5 "/>
<text text-anchor="middle" x="285" y="-11.3" font-family="Times,serif" font-size="14.00" fill="#0058ad">r 148 [1 2 3]</text>
<polyline fill="none" stroke="#0058ad" points="338,-0.5 338,-29.5 "/>
<text text-anchor="middle" x="391" y="-11.3" font-family="Times,serif" font-size="14.00" fill="#0058ad">r 148 [1 2 3]</text>
<polyline fill="none" stroke="#0058ad" points="444,-0.5 444,-29.5 "/>
<text text-anchor="middle" x="479" y="-11.3" font-family="Times,serif" font-size="14.00" fill="#0058ad">a 148 4</text>
<polyline fill="none" stroke="#0058ad" points="514,-0.5 514,-29.5 "/>
<text text-anchor="middle" x="832.5" y="-11.3" font-family="Times,serif" font-size="14.00" fill="#0058ad">r 145 [1 2 3 4 5 6 7 8 9 10 11 12 13 14 15 16 17 18 19 20 21 22 23 24 25 26 27 28 29]</text>
</g>
<!-- T3885&#45;&gt;T3884 -->
<g id="edge1" class="edge">
<title>T3885:f1&#45;&gt;T3884:f0</title>
<path fill="none" stroke="#5b00c0" d="M120.5,-81C120.5,-79.88 64.81,-48.44 43.06,-35.48"/>
<polygon fill="#5b00c0" stroke="#5b00c0" points="44.81,-32.44 34.5,-30 41.04,-38.34 44.81,-32.44"/>
<text text-anchor="middle" x="100" y="-51.8" font-family="Times,serif" font-size="14.00" fill="#5b00c0">rw</text>
</g>
<!-- T3884&#45;&gt;T3885 -->
<g id="edge2" class="edge">
<title>T3884:f2&#45;&gt;T3885:f0</title>
<path fill="none" stroke="#5b00c0" d="M185.5,-30C185.5,-66.82 144.17,-50.58 109.5,-63 86.15,-71.36 56.88,-57.42 48.71,-71.08"/>
<polygon fill="#5b00c0" stroke="#5b00c0" points="45.26,-70.48 46.5,-81 52.09,-72 45.26,-70.48"/>
<text text-anchor="middle" x="189" y="-51.8" font-family="Times,serif" font-size="14.00" fill="#5b00c0">rw</text>
</g>
</g>
</svg>
