<?xml version="1.0" encoding="UTF-8" standalone="no"?>
<!DOCTYPE svg PUBLIC "-//W3C//DTD SVG 1.1//EN"
 "http://www.w3.org/Graphics/SVG/1.1/DTD/svg11.dtd">
<!-- Generated by graphviz version 2.43.0 (0)
 -->
<!-- Title: a_graph Pages: 1 -->
<svg width="1037pt" height="119pt"
 viewBox="0.00 0.00 1037.00 119.00" xmlns="http://www.w3.org/2000/svg" xmlns:xlink="http://www.w3.org/1999/xlink">
<g id="graph0" class="graph" transform="scale(1 1) rotate(0) translate(4 115)">
<title>a_graph</title>
<polygon fill="white" stroke="transparent" points="-4,4 -4,-115 1033,-115 1033,4 -4,4"/>
<!-- T2410 -->
<g id="node1" class="node">
<title>T2410</title>
<polygon fill="none" stroke="#0058ad" points="51.5,-81.5 51.5,-110.5 555.5,-110.5 555.5,-81.5 51.5,-81.5"/>
<text text-anchor="middle" x="268.5" y="-92.3" font-family="Times,serif" font-size="14.00" fill="#0058ad">r 91 [1 2 3 4 6 7 8 9 10 11 12 14 15 16 17 18 19 20 21 22]</text>
<polyline fill="none" stroke="#0058ad" points="485.5,-81.5 485.5,-110.5 "/>
<text text-anchor="middle" x="520.5" y="-92.3" font-family="Times,serif" font-size="14.00" fill="#0058ad">a 89 27</text>
</g>
<!-- T2411 -->
<g id="node2" class="node">
<title>T2411</title>
<polygon fill="none" stroke="#0058ad" points="0,-0.5 0,-29.5 1029,-29.5 1029,-0.5 0,-0.5"/>
<text text-anchor="middle" x="251" y="-11.3" font-family="Times,serif" font-size="14.00" fill="#0058ad">r 89 [1 2 4 5 6 7 8 9 10 11 12 13 14 15 17 18 19 20 22 23 24 25 26]</text>
<polyline fill="none" stroke="#0058ad" points="502,-0.5 502,-29.5 "/>
<text text-anchor="middle" x="537" y="-11.3" font-family="Times,serif" font-size="14.00" fill="#0058ad">a 91 23</text>
<polyline fill="none" stroke="#0058ad" points="572,-0.5 572,-29.5 "/>
<text text-anchor="middle" x="800.5" y="-11.3" font-family="Times,serif" font-size="14.00" fill="#0058ad">r 91 [1 2 3 4 6 7 8 9 10 11 12 14 15 16 17 18 19 20 21 22 23]</text>
</g>
<!-- T2410&#45;&gt;T2411 -->
<g id="edge1" class="edge">
<title>T2410:f0&#45;&gt;T2411:f1</title>
<path fill="none" stroke="#5b00c0" d="M268.5,-81C268.5,-9.26 355.96,-61.08 426.5,-48 447.52,-44.1 513.81,-51.99 532.53,-38.7"/>
<polygon fill="#5b00c0" stroke="#5b00c0" points="535.58,-40.42 537.5,-30 529.5,-36.95 535.58,-40.42"/>
<text text-anchor="middle" x="436" y="-51.8" font-family="Times,serif" font-size="14.00" fill="#5b00c0">rw</text>
</g>
<!-- T2411&#45;&gt;T2410 -->
<g id="edge2" class="edge">
<title>T2411:f0&#45;&gt;T2410:f1</title>
<path fill="none" stroke="#5b00c0" d="M250.5,-30C250.5,-51.76 424.44,-42.55 445.5,-48 477.04,-56.16 512.17,-46.99 519.23,-71.03"/>
<polygon fill="#5b00c0" stroke="#5b00c0" points="515.76,-71.52 520.5,-81 522.7,-70.64 515.76,-71.52"/>
<text text-anchor="middle" x="524" y="-51.8" font-family="Times,serif" font-size="14.00" fill="#5b00c0">rw</text>
</g>
</g>
</svg>
