<?xml version="1.0" encoding="UTF-8" standalone="no"?>
<!DOCTYPE svg PUBLIC "-//W3C//DTD SVG 1.1//EN"
 "http://www.w3.org/Graphics/SVG/1.1/DTD/svg11.dtd">
<!-- Generated by graphviz version 2.43.0 (0)
 -->
<!-- Title: a_graph Pages: 1 -->
<svg width="1205pt" height="119pt"
 viewBox="0.00 0.00 1205.00 119.00" xmlns="http://www.w3.org/2000/svg" xmlns:xlink="http://www.w3.org/1999/xlink">
<g id="graph0" class="graph" transform="scale(1 1) rotate(0) translate(4 115)">
<title>a_graph</title>
<polygon fill="white" stroke="transparent" points="-4,4 -4,-115 1201,-115 1201,4 -4,4"/>
<!-- T1960 -->
<g id="node1" class="node">
<title>T1960</title>
<polygon fill="none" stroke="#0058ad" points="0,-81.5 0,-110.5 516,-110.5 516,-81.5 0,-81.5"/>
<text text-anchor="middle" x="111.5" y="-92.3" font-family="Times,serif" font-size="14.00" fill="#0058ad">r 76 [1 2 3 4 5 6 7 8 9 10 11]</text>
<polyline fill="none" stroke="#0058ad" points="223,-81.5 223,-110.5 "/>
<text text-anchor="middle" x="334.5" y="-92.3" font-family="Times,serif" font-size="14.00" fill="#0058ad">r 76 [1 2 3 4 5 6 7 8 9 10 11]</text>
<polyline fill="none" stroke="#0058ad" points="446,-81.5 446,-110.5 "/>
<text text-anchor="middle" x="481" y="-92.3" font-family="Times,serif" font-size="14.00" fill="#0058ad">a 72 15</text>
</g>
<!-- T1963 -->
<g id="node2" class="node">
<title>T1963</title>
<polygon fill="none" stroke="#0058ad" points="65,-0.5 65,-29.5 1197,-29.5 1197,-0.5 65,-0.5"/>
<text text-anchor="middle" x="100" y="-11.3" font-family="Times,serif" font-size="14.00" fill="#0058ad">a 76 12</text>
<polyline fill="none" stroke="#0058ad" points="135,-0.5 135,-29.5 "/>
<text text-anchor="middle" x="257.5" y="-11.3" font-family="Times,serif" font-size="14.00" fill="#0058ad">r 76 [1 2 3 4 5 6 7 8 9 10 11 12]</text>
<polyline fill="none" stroke="#0058ad" points="380,-0.5 380,-29.5 "/>
<text text-anchor="middle" x="514" y="-11.3" font-family="Times,serif" font-size="14.00" fill="#0058ad">r 72 [1 2 3 4 5 6 7 8 9 10 11 12 14]</text>
<polyline fill="none" stroke="#0058ad" points="648,-0.5 648,-29.5 "/>
<text text-anchor="middle" x="683" y="-11.3" font-family="Times,serif" font-size="14.00" fill="#0058ad">a 74 23</text>
<polyline fill="none" stroke="#0058ad" points="718,-0.5 718,-29.5 "/>
<text text-anchor="middle" x="957.5" y="-11.3" font-family="Times,serif" font-size="14.00" fill="#0058ad">r 74 [1 2 4 5 6 7 8 9 10 11 12 13 14 15 16 17 18 19 20 21 22 23]</text>
</g>
<!-- T1960&#45;&gt;T1963 -->
<g id="edge1" class="edge">
<title>T1960:f0&#45;&gt;T1963:f0</title>
<path fill="none" stroke="#5b00c0" d="M111,-81C111,-61.62 103.31,-55.2 100.79,-40.08"/>
<polygon fill="#5b00c0" stroke="#5b00c0" points="104.27,-39.7 100,-30 97.29,-40.24 104.27,-39.7"/>
<text text-anchor="middle" x="118.5" y="-51.8" font-family="Times,serif" font-size="14.00" fill="#5b00c0">rw</text>
</g>
<!-- T1963&#45;&gt;T1960 -->
<g id="edge2" class="edge">
<title>T1963:f2&#45;&gt;T1960:f2</title>
<path fill="none" stroke="#5b00c0" d="M514,-30C514,-52.99 490.07,-54.23 482.97,-70.76"/>
<polygon fill="#5b00c0" stroke="#5b00c0" points="479.45,-70.52 481,-81 486.32,-71.84 479.45,-70.52"/>
<text text-anchor="middle" x="515.5" y="-51.8" font-family="Times,serif" font-size="14.00" fill="#5b00c0">rw</text>
</g>
</g>
</svg>
