<?xml version="1.0" encoding="UTF-8" standalone="no"?>
<!DOCTYPE svg PUBLIC "-//W3C//DTD SVG 1.1//EN"
 "http://www.w3.org/Graphics/SVG/1.1/DTD/svg11.dtd">
<!-- Generated by graphviz version 2.43.0 (0)
 -->
<!-- Title: a_graph Pages: 1 -->
<svg width="3101pt" height="119pt"
 viewBox="0.00 0.00 3101.00 119.00" xmlns="http://www.w3.org/2000/svg" xmlns:xlink="http://www.w3.org/1999/xlink">
<g id="graph0" class="graph" transform="scale(1 1) rotate(0) translate(4 115)">
<title>a_graph</title>
<polygon fill="white" stroke="transparent" points="-4,4 -4,-115 3097,-115 3097,4 -4,4"/>
<!-- T3369 -->
<g id="node1" class="node">
<title>T3369</title>
<polygon fill="none" stroke="#0058ad" points="4,-81.5 4,-110.5 1719,-110.5 1719,-81.5 4,-81.5"/>
<text text-anchor="middle" x="176" y="-92.3" font-family="Times,serif" font-size="14.00" fill="#0058ad">r 127 [1 2 3 4 5 6 7 8 9 10 11 12 13 14 15 16]</text>
<polyline fill="none" stroke="#0058ad" points="348,-81.5 348,-110.5 "/>
<text text-anchor="middle" x="671" y="-92.3" font-family="Times,serif" font-size="14.00" fill="#0058ad">r 125 [1 2 3 5 6 7 8 9 10 11 13 14 15 16 17 18 19 20 21 22 23 24 25 26 27 28 29 30 31]</text>
<polyline fill="none" stroke="#0058ad" points="994,-81.5 994,-110.5 "/>
<text text-anchor="middle" x="1033.5" y="-92.3" font-family="Times,serif" font-size="14.00" fill="#0058ad">a 127 17</text>
<polyline fill="none" stroke="#0058ad" points="1073,-81.5 1073,-110.5 "/>
<text text-anchor="middle" x="1396" y="-92.3" font-family="Times,serif" font-size="14.00" fill="#0058ad">r 125 [1 2 3 5 6 7 8 9 10 11 13 14 15 16 17 18 19 20 21 22 23 24 25 26 27 28 29 30 31]</text>
</g>
<!-- T3368 -->
<g id="node2" class="node">
<title>T3368</title>
<polygon fill="none" stroke="#0058ad" points="0,-0.5 0,-29.5 3093,-29.5 3093,-0.5 0,-0.5"/>
<text text-anchor="middle" x="172" y="-11.3" font-family="Times,serif" font-size="14.00" fill="#0058ad">r 127 [1 2 3 4 5 6 7 8 9 10 11 12 13 14 15 16]</text>
<polyline fill="none" stroke="#0058ad" points="344,-0.5 344,-29.5 "/>
<text text-anchor="middle" x="667" y="-11.3" font-family="Times,serif" font-size="14.00" fill="#0058ad">r 125 [1 2 3 5 6 7 8 9 10 11 13 14 15 16 17 18 19 20 21 22 23 24 25 26 27 28 29 30 31]</text>
<polyline fill="none" stroke="#0058ad" points="990,-0.5 990,-29.5 "/>
<text text-anchor="middle" x="1162" y="-11.3" font-family="Times,serif" font-size="14.00" fill="#0058ad">r 127 [1 2 3 4 5 6 7 8 9 10 11 12 13 14 15 16]</text>
<polyline fill="none" stroke="#0058ad" points="1334,-0.5 1334,-29.5 "/>
<text text-anchor="middle" x="1373.5" y="-11.3" font-family="Times,serif" font-size="14.00" fill="#0058ad">a 125 32</text>
<polyline fill="none" stroke="#0058ad" points="1413,-0.5 1413,-29.5 "/>
<text text-anchor="middle" x="1585" y="-11.3" font-family="Times,serif" font-size="14.00" fill="#0058ad">r 127 [1 2 3 4 5 6 7 8 9 10 11 12 13 14 15 16]</text>
<polyline fill="none" stroke="#0058ad" points="1757,-0.5 1757,-29.5 "/>
<text text-anchor="middle" x="2091" y="-11.3" font-family="Times,serif" font-size="14.00" fill="#0058ad">r 125 [1 2 3 5 6 7 8 9 10 11 13 14 15 16 17 18 19 20 21 22 23 24 25 26 27 28 29 30 31 32]</text>
<polyline fill="none" stroke="#0058ad" points="2425,-0.5 2425,-29.5 "/>
<text text-anchor="middle" x="2759" y="-11.3" font-family="Times,serif" font-size="14.00" fill="#0058ad">r 125 [1 2 3 5 6 7 8 9 10 11 13 14 15 16 17 18 19 20 21 22 23 24 25 26 27 28 29 30 31 32]</text>
</g>
<!-- T3369&#45;&gt;T3368 -->
<g id="edge1" class="edge">
<title>T3369:f1&#45;&gt;T3368:f3</title>
<path fill="none" stroke="#5b00c0" d="M670.5,-81C670.5,27.55 804.36,-57.46 912.5,-48 924.14,-46.98 1298.07,-43.51 1363.71,-33.18"/>
<polygon fill="#5b00c0" stroke="#5b00c0" points="1365.07,-36.42 1373.5,-30 1362.91,-29.76 1365.07,-36.42"/>
<text text-anchor="middle" x="922" y="-51.8" font-family="Times,serif" font-size="14.00" fill="#5b00c0">rw</text>
</g>
<!-- T3368&#45;&gt;T3369 -->
<g id="edge2" class="edge">
<title>T3368:f0&#45;&gt;T3369:f2</title>
<path fill="none" stroke="#5b00c0" d="M171.5,-30C171.5,-51.12 910.68,-44.46 931.5,-48 974.62,-55.33 1024.53,-36.86 1032.42,-70.64"/>
<polygon fill="#5b00c0" stroke="#5b00c0" points="1028.99,-71.41 1033.5,-81 1035.95,-70.69 1028.99,-71.41"/>
<text text-anchor="middle" x="1039" y="-51.8" font-family="Times,serif" font-size="14.00" fill="#5b00c0">rw</text>
</g>
</g>
</svg>
