<?xml version="1.0" encoding="UTF-8" standalone="no"?>
<!DOCTYPE svg PUBLIC "-//W3C//DTD SVG 1.1//EN"
 "http://www.w3.org/Graphics/SVG/1.1/DTD/svg11.dtd">
<!-- Generated by graphviz version 2.43.0 (0)
 -->
<!-- Title: a_graph Pages: 1 -->
<svg width="1557pt" height="119pt"
 viewBox="0.00 0.00 1557.00 119.00" xmlns="http://www.w3.org/2000/svg" xmlns:xlink="http://www.w3.org/1999/xlink">
<g id="graph0" class="graph" transform="scale(1 1) rotate(0) translate(4 115)">
<title>a_graph</title>
<polygon fill="white" stroke="transparent" points="-4,4 -4,-115 1553,-115 1553,4 -4,4"/>
<!-- T877 -->
<g id="node1" class="node">
<title>T877</title>
<polygon fill="none" stroke="#0058ad" points="0,-81.5 0,-110.5 1549,-110.5 1549,-81.5 0,-81.5"/>
<text text-anchor="middle" x="284.5" y="-92.3" font-family="Times,serif" font-size="14.00" fill="#0058ad">r 30 [1 2 3 5 6 7 8 9 10 11 12 13 14 15 16 17 18 19 20 21 22 23 24 25 26 27]</text>
<polyline fill="none" stroke="#0058ad" points="569,-81.5 569,-110.5 "/>
<text text-anchor="middle" x="604" y="-92.3" font-family="Times,serif" font-size="14.00" fill="#0058ad">a 30 28</text>
<polyline fill="none" stroke="#0058ad" points="639,-81.5 639,-110.5 "/>
<text text-anchor="middle" x="935" y="-92.3" font-family="Times,serif" font-size="14.00" fill="#0058ad">r 28 [1 2 3 5 6 7 8 9 10 11 12 13 14 15 16 17 18 19 20 21 22 23 24 25 26 27 28]</text>
<polyline fill="none" stroke="#0058ad" points="1231,-81.5 1231,-110.5 "/>
<text text-anchor="middle" x="1293" y="-92.3" font-family="Times,serif" font-size="14.00" fill="#0058ad">r 33 [1 2 3 4 5]</text>
<polyline fill="none" stroke="#0058ad" points="1355,-81.5 1355,-110.5 "/>
<text text-anchor="middle" x="1417" y="-92.3" font-family="Times,serif" font-size="14.00" fill="#0058ad">r 33 [1 2 3 4 5]</text>
<polyline fill="none" stroke="#0058ad" points="1479,-81.5 1479,-110.5 "/>
<text text-anchor="middle" x="1514" y="-92.3" font-family="Times,serif" font-size="14.00" fill="#0058ad">a 28 29</text>
</g>
<!-- T876 -->
<g id="node2" class="node">
<title>T876</title>
<polygon fill="none" stroke="#0058ad" points="598.5,-0.5 598.5,-29.5 1502.5,-29.5 1502.5,-0.5 598.5,-0.5"/>
<text text-anchor="middle" x="629" y="-11.3" font-family="Times,serif" font-size="14.00" fill="#0058ad">a 33 6</text>
<polyline fill="none" stroke="#0058ad" points="659.5,-0.5 659.5,-29.5 "/>
<text text-anchor="middle" x="944" y="-11.3" font-family="Times,serif" font-size="14.00" fill="#0058ad">r 30 [1 2 3 5 6 7 8 9 10 11 12 13 14 15 16 17 18 19 20 21 22 23 24 25 26 27]</text>
<polyline fill="none" stroke="#0058ad" points="1228.5,-0.5 1228.5,-29.5 "/>
<text text-anchor="middle" x="1297" y="-11.3" font-family="Times,serif" font-size="14.00" fill="#0058ad">r 33 [1 2 3 4 5 6]</text>
<polyline fill="none" stroke="#0058ad" points="1365.5,-0.5 1365.5,-29.5 "/>
<text text-anchor="middle" x="1434" y="-11.3" font-family="Times,serif" font-size="14.00" fill="#0058ad">r 33 [1 2 3 4 5 6]</text>
</g>
<!-- T877&#45;&gt;T876 -->
<g id="edge1" class="edge">
<title>T877:f3&#45;&gt;T876:f0</title>
<path fill="none" stroke="#5b00c0" d="M1293.5,-81C1293.5,-63.78 718.73,-50.51 637.9,-33.84"/>
<polygon fill="#5b00c0" stroke="#5b00c0" points="639.08,-30.54 628.5,-30 636.43,-37.02 639.08,-30.54"/>
<text text-anchor="middle" x="1106" y="-51.8" font-family="Times,serif" font-size="14.00" fill="#5b00c0">rw</text>
</g>
<!-- T876&#45;&gt;T877 -->
<g id="edge2" class="edge">
<title>T876:f1&#45;&gt;T877:f1</title>
<path fill="none" stroke="#5b00c0" d="M943.5,-30C943.5,-45.79 818.13,-45.71 802.5,-48 717.44,-60.48 612.51,3.08 604.05,-70.76"/>
<polygon fill="#5b00c0" stroke="#5b00c0" points="600.54,-70.83 603.5,-81 607.53,-71.2 600.54,-70.83"/>
<text text-anchor="middle" x="812" y="-51.8" font-family="Times,serif" font-size="14.00" fill="#5b00c0">rw</text>
</g>
</g>
</svg>
