<?xml version="1.0" encoding="UTF-8" standalone="no"?>
<!DOCTYPE svg PUBLIC "-//W3C//DTD SVG 1.1//EN"
 "http://www.w3.org/Graphics/SVG/1.1/DTD/svg11.dtd">
<!-- Generated by graphviz version 2.43.0 (0)
 -->
<!-- Title: a_graph Pages: 1 -->
<svg width="1749pt" height="119pt"
 viewBox="0.00 0.00 1749.00 119.00" xmlns="http://www.w3.org/2000/svg" xmlns:xlink="http://www.w3.org/1999/xlink">
<g id="graph0" class="graph" transform="scale(1 1) rotate(0) translate(4 115)">
<title>a_graph</title>
<polygon fill="white" stroke="transparent" points="-4,4 -4,-115 1745,-115 1745,4 -4,4"/>
<!-- T4719 -->
<g id="node1" class="node">
<title>T4719</title>
<polygon fill="none" stroke="#0058ad" points="618,-81.5 618,-110.5 1533,-110.5 1533,-81.5 618,-81.5"/>
<text text-anchor="middle" x="657.5" y="-92.3" font-family="Times,serif" font-size="14.00" fill="#0058ad">a 178 16</text>
<polyline fill="none" stroke="#0058ad" points="697,-81.5 697,-110.5 "/>
<text text-anchor="middle" x="835.5" y="-92.3" font-family="Times,serif" font-size="14.00" fill="#0058ad">r 177 [1 2 3 4 5 6 7 8 9 10 11 12 13]</text>
<polyline fill="none" stroke="#0058ad" points="974,-81.5 974,-110.5 "/>
<text text-anchor="middle" x="1013.5" y="-92.3" font-family="Times,serif" font-size="14.00" fill="#0058ad">a 178 17</text>
<polyline fill="none" stroke="#0058ad" points="1053,-81.5 1053,-110.5 "/>
<text text-anchor="middle" x="1214" y="-92.3" font-family="Times,serif" font-size="14.00" fill="#0058ad">r 178 [1 2 3 4 5 6 7 8 9 12 13 14 15 16 17]</text>
<polyline fill="none" stroke="#0058ad" points="1375,-81.5 1375,-110.5 "/>
<text text-anchor="middle" x="1414.5" y="-92.3" font-family="Times,serif" font-size="14.00" fill="#0058ad">a 178 18</text>
<polyline fill="none" stroke="#0058ad" points="1454,-81.5 1454,-110.5 "/>
<text text-anchor="middle" x="1493.5" y="-92.3" font-family="Times,serif" font-size="14.00" fill="#0058ad">a 178 19</text>
</g>
<!-- T4717 -->
<g id="node2" class="node">
<title>T4717</title>
<polygon fill="none" stroke="#0058ad" points="0,-0.5 0,-29.5 1741,-29.5 1741,-0.5 0,-0.5"/>
<text text-anchor="middle" x="138.5" y="-11.3" font-family="Times,serif" font-size="14.00" fill="#0058ad">r 178 [1 2 3 4 5 6 7 8 9 12 13 14 15]</text>
<polyline fill="none" stroke="#0058ad" points="277,-0.5 277,-29.5 "/>
<text text-anchor="middle" x="415.5" y="-11.3" font-family="Times,serif" font-size="14.00" fill="#0058ad">r 177 [1 2 3 4 5 6 7 8 9 10 11 12 13]</text>
<polyline fill="none" stroke="#0058ad" points="554,-0.5 554,-29.5 "/>
<text text-anchor="middle" x="692.5" y="-11.3" font-family="Times,serif" font-size="14.00" fill="#0058ad">r 178 [1 2 3 4 5 6 7 8 9 12 13 14 15]</text>
<polyline fill="none" stroke="#0058ad" points="831,-0.5 831,-29.5 "/>
<text text-anchor="middle" x="969.5" y="-11.3" font-family="Times,serif" font-size="14.00" fill="#0058ad">r 177 [1 2 3 4 5 6 7 8 9 10 11 12 13]</text>
<polyline fill="none" stroke="#0058ad" points="1108,-0.5 1108,-29.5 "/>
<text text-anchor="middle" x="1147.5" y="-11.3" font-family="Times,serif" font-size="14.00" fill="#0058ad">a 177 14</text>
<polyline fill="none" stroke="#0058ad" points="1187,-0.5 1187,-29.5 "/>
<text text-anchor="middle" x="1325.5" y="-11.3" font-family="Times,serif" font-size="14.00" fill="#0058ad">r 178 [1 2 3 4 5 6 7 8 9 12 13 14 15]</text>
<polyline fill="none" stroke="#0058ad" points="1464,-0.5 1464,-29.5 "/>
<text text-anchor="middle" x="1602.5" y="-11.3" font-family="Times,serif" font-size="14.00" fill="#0058ad">r 178 [1 2 3 4 5 6 7 8 9 12 13 14 15]</text>
</g>
<!-- T4719&#45;&gt;T4717 -->
<g id="edge1" class="edge">
<title>T4719:f1&#45;&gt;T4717:f4</title>
<path fill="none" stroke="#5b00c0" d="M835.5,-81C835.5,55.94 1131.86,-159.07 1146.91,-40"/>
<polygon fill="#5b00c0" stroke="#5b00c0" points="1150.4,-40.19 1147.5,-30 1143.41,-39.78 1150.4,-40.19"/>
<text text-anchor="middle" x="1153" y="-51.8" font-family="Times,serif" font-size="14.00" fill="#5b00c0">rw</text>
</g>
<!-- T4717&#45;&gt;T4719 -->
<g id="edge2" class="edge">
<title>T4717:f0&#45;&gt;T4719:f0</title>
<path fill="none" stroke="#5b00c0" d="M138.5,-30C138.5,-81.05 523.24,-94.72 606.34,-95.91"/>
<polygon fill="#5b00c0" stroke="#5b00c0" points="606.47,-99.41 616.5,-96 606.53,-92.41 606.47,-99.41"/>
<text text-anchor="middle" x="211" y="-51.8" font-family="Times,serif" font-size="14.00" fill="#5b00c0">rw</text>
</g>
</g>
</svg>
