<?xml version="1.0" encoding="UTF-8" standalone="no"?>
<!DOCTYPE svg PUBLIC "-//W3C//DTD SVG 1.1//EN"
 "http://www.w3.org/Graphics/SVG/1.1/DTD/svg11.dtd">
<!-- Generated by graphviz version 2.43.0 (0)
 -->
<!-- Title: a_graph Pages: 1 -->
<svg width="1840pt" height="119pt"
 viewBox="0.00 0.00 1840.00 119.00" xmlns="http://www.w3.org/2000/svg" xmlns:xlink="http://www.w3.org/1999/xlink">
<g id="graph0" class="graph" transform="scale(1 1) rotate(0) translate(4 115)">
<title>a_graph</title>
<polygon fill="white" stroke="transparent" points="-4,4 -4,-115 1836,-115 1836,4 -4,4"/>
<!-- T400 -->
<g id="node1" class="node">
<title>T400</title>
<polygon fill="none" stroke="#0058ad" points="599.5,-81.5 599.5,-110.5 1054.5,-110.5 1054.5,-81.5 599.5,-81.5"/>
<text text-anchor="middle" x="634.5" y="-92.3" font-family="Times,serif" font-size="14.00" fill="#0058ad">a 16 18</text>
<polyline fill="none" stroke="#0058ad" points="669.5,-81.5 669.5,-110.5 "/>
<text text-anchor="middle" x="704.5" y="-92.3" font-family="Times,serif" font-size="14.00" fill="#0058ad">a 16 19</text>
<polyline fill="none" stroke="#0058ad" points="739.5,-81.5 739.5,-110.5 "/>
<text text-anchor="middle" x="862" y="-92.3" font-family="Times,serif" font-size="14.00" fill="#0058ad">r 15 [1 2 3 4 5 6 7 8 9 10 11 12]</text>
<polyline fill="none" stroke="#0058ad" points="984.5,-81.5 984.5,-110.5 "/>
<text text-anchor="middle" x="1019.5" y="-92.3" font-family="Times,serif" font-size="14.00" fill="#0058ad">a 16 20</text>
</g>
<!-- T401 -->
<g id="node2" class="node">
<title>T401</title>
<polygon fill="none" stroke="#0058ad" points="0,-0.5 0,-29.5 1832,-29.5 1832,-0.5 0,-0.5"/>
<text text-anchor="middle" x="35" y="-11.3" font-family="Times,serif" font-size="14.00" fill="#0058ad">a 14 12</text>
<polyline fill="none" stroke="#0058ad" points="70,-0.5 70,-29.5 "/>
<text text-anchor="middle" x="192.5" y="-11.3" font-family="Times,serif" font-size="14.00" fill="#0058ad">r 15 [1 2 3 4 5 6 7 8 9 10 11 12]</text>
<polyline fill="none" stroke="#0058ad" points="315,-0.5 315,-29.5 "/>
<text text-anchor="middle" x="437.5" y="-11.3" font-family="Times,serif" font-size="14.00" fill="#0058ad">r 15 [1 2 3 4 5 6 7 8 9 10 11 12]</text>
<polyline fill="none" stroke="#0058ad" points="560,-0.5 560,-29.5 "/>
<text text-anchor="middle" x="595" y="-11.3" font-family="Times,serif" font-size="14.00" fill="#0058ad">a 15 13</text>
<polyline fill="none" stroke="#0058ad" points="630,-0.5 630,-29.5 "/>
<text text-anchor="middle" x="809" y="-11.3" font-family="Times,serif" font-size="14.00" fill="#0058ad">r 16 [1 2 3 4 5 6 7 8 9 10 11 12 13 14 15 16 17]</text>
<polyline fill="none" stroke="#0058ad" points="988,-0.5 988,-29.5 "/>
<text text-anchor="middle" x="1122" y="-11.3" font-family="Times,serif" font-size="14.00" fill="#0058ad">r 15 [1 2 3 4 5 6 7 8 9 10 11 12 13]</text>
<polyline fill="none" stroke="#0058ad" points="1256,-0.5 1256,-29.5 "/>
<text text-anchor="middle" x="1435" y="-11.3" font-family="Times,serif" font-size="14.00" fill="#0058ad">r 16 [1 2 3 4 5 6 7 8 9 10 11 12 13 14 15 16 17]</text>
<polyline fill="none" stroke="#0058ad" points="1614,-0.5 1614,-29.5 "/>
<text text-anchor="middle" x="1723" y="-11.3" font-family="Times,serif" font-size="14.00" fill="#0058ad">r 14 [3 4 5 6 7 8 9 10 11 12]</text>
</g>
<!-- T400&#45;&gt;T401 -->
<g id="edge1" class="edge">
<title>T400:f2&#45;&gt;T401:f3</title>
<path fill="none" stroke="#5b00c0" d="M862,-81C862,-9.26 774.52,-61.18 704,-48 683.45,-44.16 618.86,-51.61 600.13,-38.75"/>
<polygon fill="#5b00c0" stroke="#5b00c0" points="603.08,-36.85 595,-30 597.04,-40.4 603.08,-36.85"/>
<text text-anchor="middle" x="868.5" y="-51.8" font-family="Times,serif" font-size="14.00" fill="#5b00c0">rw</text>
</g>
<!-- T401&#45;&gt;T400 -->
<g id="edge2" class="edge">
<title>T401:f4&#45;&gt;T400:f0</title>
<path fill="none" stroke="#5b00c0" d="M809,-30C809,-58.72 707.72,-37.45 681,-48 660.97,-55.91 641.28,-55.79 635.62,-70.9"/>
<polygon fill="#5b00c0" stroke="#5b00c0" points="632.12,-70.57 634,-81 639.04,-71.68 632.12,-70.57"/>
<text text-anchor="middle" x="690.5" y="-51.8" font-family="Times,serif" font-size="14.00" fill="#5b00c0">rw</text>
</g>
</g>
</svg>
