<?xml version="1.0" encoding="UTF-8" standalone="no"?>
<!DOCTYPE svg PUBLIC "-//W3C//DTD SVG 1.1//EN"
 "http://www.w3.org/Graphics/SVG/1.1/DTD/svg11.dtd">
<!-- Generated by graphviz version 2.43.0 (0)
 -->
<!-- Title: a_graph Pages: 1 -->
<svg width="2123pt" height="119pt"
 viewBox="0.00 0.00 2123.00 119.00" xmlns="http://www.w3.org/2000/svg" xmlns:xlink="http://www.w3.org/1999/xlink">
<g id="graph0" class="graph" transform="scale(1 1) rotate(0) translate(4 115)">
<title>a_graph</title>
<polygon fill="white" stroke="transparent" points="-4,4 -4,-115 2119,-115 2119,4 -4,4"/>
<!-- T594 -->
<g id="node1" class="node">
<title>T594</title>
<polygon fill="none" stroke="#0058ad" points="667,-81.5 667,-110.5 2115,-110.5 2115,-81.5 667,-81.5"/>
<text text-anchor="middle" x="702" y="-92.3" font-family="Times,serif" font-size="14.00" fill="#0058ad">a 22 17</text>
<polyline fill="none" stroke="#0058ad" points="737,-81.5 737,-110.5 "/>
<text text-anchor="middle" x="772" y="-92.3" font-family="Times,serif" font-size="14.00" fill="#0058ad">a 22 18</text>
<polyline fill="none" stroke="#0058ad" points="807,-81.5 807,-110.5 "/>
<text text-anchor="middle" x="945.5" y="-92.3" font-family="Times,serif" font-size="14.00" fill="#0058ad">r 23 [2 3 4 5 6 7 8 9 10 11 12 13 15]</text>
<polyline fill="none" stroke="#0058ad" points="1084,-81.5 1084,-110.5 "/>
<text text-anchor="middle" x="1222.5" y="-92.3" font-family="Times,serif" font-size="14.00" fill="#0058ad">r 23 [2 3 4 5 6 7 8 9 10 11 12 13 15]</text>
<polyline fill="none" stroke="#0058ad" points="1361,-81.5 1361,-110.5 "/>
<text text-anchor="middle" x="1526.5" y="-92.3" font-family="Times,serif" font-size="14.00" fill="#0058ad">r 22 [1 2 3 4 5 6 8 10 11 12 13 14 15 17 18]</text>
<polyline fill="none" stroke="#0058ad" points="1692,-81.5 1692,-110.5 "/>
<text text-anchor="middle" x="1727" y="-92.3" font-family="Times,serif" font-size="14.00" fill="#0058ad">a 22 19</text>
<polyline fill="none" stroke="#0058ad" points="1762,-81.5 1762,-110.5 "/>
<text text-anchor="middle" x="1938.5" y="-92.3" font-family="Times,serif" font-size="14.00" fill="#0058ad">r 22 [1 2 3 4 5 6 8 10 11 12 13 14 15 17 18 19]</text>
</g>
<!-- T595 -->
<g id="node2" class="node">
<title>T595</title>
<polygon fill="none" stroke="#0058ad" points="0,-0.5 0,-29.5 1002,-29.5 1002,-0.5 0,-0.5"/>
<text text-anchor="middle" x="138.5" y="-11.3" font-family="Times,serif" font-size="14.00" fill="#0058ad">r 23 [2 3 4 5 6 7 8 9 10 11 12 13 15]</text>
<polyline fill="none" stroke="#0058ad" points="277,-0.5 277,-29.5 "/>
<text text-anchor="middle" x="426.5" y="-11.3" font-family="Times,serif" font-size="14.00" fill="#0058ad">r 20 [1 2 3 5 6 7 8 9 10 11 12 13 14 15]</text>
<polyline fill="none" stroke="#0058ad" points="576,-0.5 576,-29.5 "/>
<text text-anchor="middle" x="719" y="-11.3" font-family="Times,serif" font-size="14.00" fill="#0058ad">r 22 [1 2 3 4 5 6 8 10 11 12 13 14 15]</text>
<polyline fill="none" stroke="#0058ad" points="862,-0.5 862,-29.5 "/>
<text text-anchor="middle" x="897" y="-11.3" font-family="Times,serif" font-size="14.00" fill="#0058ad">a 23 16</text>
<polyline fill="none" stroke="#0058ad" points="932,-0.5 932,-29.5 "/>
<text text-anchor="middle" x="967" y="-11.3" font-family="Times,serif" font-size="14.00" fill="#0058ad">a 23 17</text>
</g>
<!-- T594&#45;&gt;T595 -->
<g id="edge1" class="edge">
<title>T594:f2&#45;&gt;T595:f3</title>
<path fill="none" stroke="#5b00c0" d="M945,-81C945,-53.76 908.25,-58.98 899.06,-39.85"/>
<polygon fill="#5b00c0" stroke="#5b00c0" points="902.47,-39.07 897,-30 895.62,-40.51 902.47,-39.07"/>
<text text-anchor="middle" x="945.5" y="-51.8" font-family="Times,serif" font-size="14.00" fill="#5b00c0">rw</text>
</g>
<!-- T595&#45;&gt;T594 -->
<g id="edge2" class="edge">
<title>T595:f2&#45;&gt;T594:f0</title>
<path fill="none" stroke="#5b00c0" d="M719,-30C719,-49.97 707.12,-55.5 703.22,-70.73"/>
<polygon fill="#5b00c0" stroke="#5b00c0" points="699.71,-70.66 702,-81 706.66,-71.48 699.71,-70.66"/>
<text text-anchor="middle" x="724.5" y="-51.8" font-family="Times,serif" font-size="14.00" fill="#5b00c0">rw</text>
</g>
</g>
</svg>
