<?xml version="1.0" encoding="UTF-8" standalone="no"?>
<!DOCTYPE svg PUBLIC "-//W3C//DTD SVG 1.1//EN"
 "http://www.w3.org/Graphics/SVG/1.1/DTD/svg11.dtd">
<!-- Generated by graphviz version 2.43.0 (0)
 -->
<!-- Title: a_graph Pages: 1 -->
<svg width="516pt" height="119pt"
 viewBox="0.00 0.00 516.00 119.00" xmlns="http://www.w3.org/2000/svg" xmlns:xlink="http://www.w3.org/1999/xlink">
<g id="graph0" class="graph" transform="scale(1 1) rotate(0) translate(4 115)">
<title>a_graph</title>
<polygon fill="white" stroke="transparent" points="-4,4 -4,-115 512,-115 512,4 -4,4"/>
<!-- T2014 -->
<g id="node1" class="node">
<title>T2014</title>
<polygon fill="none" stroke="#0058ad" points="0,-81.5 0,-110.5 508,-110.5 508,-81.5 0,-81.5"/>
<text text-anchor="middle" x="35" y="-92.3" font-family="Times,serif" font-size="14.00" fill="#0058ad">a 853 2</text>
<polyline fill="none" stroke="#0058ad" points="70,-81.5 70,-110.5 "/>
<text text-anchor="middle" x="105" y="-92.3" font-family="Times,serif" font-size="14.00" fill="#0058ad">a 850 1</text>
<polyline fill="none" stroke="#0058ad" points="140,-81.5 140,-110.5 "/>
<text text-anchor="middle" x="175" y="-92.3" font-family="Times,serif" font-size="14.00" fill="#0058ad">a 853 3</text>
<polyline fill="none" stroke="#0058ad" points="210,-81.5 210,-110.5 "/>
<text text-anchor="middle" x="249.5" y="-92.3" font-family="Times,serif" font-size="14.00" fill="#0058ad">r 838 [1]</text>
<polyline fill="none" stroke="#0058ad" points="289,-81.5 289,-110.5 "/>
<text text-anchor="middle" x="328.5" y="-92.3" font-family="Times,serif" font-size="14.00" fill="#0058ad">r 838 [1]</text>
<polyline fill="none" stroke="#0058ad" points="368,-81.5 368,-110.5 "/>
<text text-anchor="middle" x="403" y="-92.3" font-family="Times,serif" font-size="14.00" fill="#0058ad">a 838 3</text>
<polyline fill="none" stroke="#0058ad" points="438,-81.5 438,-110.5 "/>
<text text-anchor="middle" x="473" y="-92.3" font-family="Times,serif" font-size="14.00" fill="#0058ad">r 854 []</text>
</g>
<!-- T2015 -->
<g id="node2" class="node">
<title>T2015</title>
<polygon fill="none" stroke="#0058ad" points="56.5,-0.5 56.5,-29.5 451.5,-29.5 451.5,-0.5 56.5,-0.5"/>
<text text-anchor="middle" x="91.5" y="-11.3" font-family="Times,serif" font-size="14.00" fill="#0058ad">a 851 3</text>
<polyline fill="none" stroke="#0058ad" points="126.5,-0.5 126.5,-29.5 "/>
<text text-anchor="middle" x="161.5" y="-11.3" font-family="Times,serif" font-size="14.00" fill="#0058ad">a 854 1</text>
<polyline fill="none" stroke="#0058ad" points="196.5,-0.5 196.5,-29.5 "/>
<text text-anchor="middle" x="249.5" y="-11.3" font-family="Times,serif" font-size="14.00" fill="#0058ad">r 851 [1 2 3]</text>
<polyline fill="none" stroke="#0058ad" points="302.5,-0.5 302.5,-29.5 "/>
<text text-anchor="middle" x="342" y="-11.3" font-family="Times,serif" font-size="14.00" fill="#0058ad">r 854 [1]</text>
<polyline fill="none" stroke="#0058ad" points="381.5,-0.5 381.5,-29.5 "/>
<text text-anchor="middle" x="416.5" y="-11.3" font-family="Times,serif" font-size="14.00" fill="#0058ad">r 850 []</text>
</g>
<!-- T2014&#45;&gt;T2015 -->
<g id="edge1" class="edge">
<title>T2014:f6&#45;&gt;T2015:f1</title>
<path fill="none" stroke="#5b00c0" d="M473,-81C473,-48.89 212.32,-62.22 167.52,-37.92"/>
<polygon fill="#5b00c0" stroke="#5b00c0" points="170.06,-35.5 161,-30 164.65,-39.95 170.06,-35.5"/>
<text text-anchor="middle" x="429.5" y="-51.8" font-family="Times,serif" font-size="14.00" fill="#5b00c0">rw</text>
</g>
<!-- T2015&#45;&gt;T2014 -->
<g id="edge2" class="edge">
<title>T2015:f4&#45;&gt;T2014:f1</title>
<path fill="none" stroke="#5b00c0" d="M417,-30C417,-55.19 215.57,-42.43 191,-48 154.82,-56.2 113.58,-43.02 106.17,-70.94"/>
<polygon fill="#5b00c0" stroke="#5b00c0" points="102.68,-70.66 105,-81 109.63,-71.47 102.68,-70.66"/>
<text text-anchor="middle" x="200.5" y="-51.8" font-family="Times,serif" font-size="14.00" fill="#5b00c0">rw</text>
</g>
</g>
</svg>
