<?xml version="1.0" encoding="UTF-8" standalone="no"?>
<!DOCTYPE svg PUBLIC "-//W3C//DTD SVG 1.1//EN"
 "http://www.w3.org/Graphics/SVG/1.1/DTD/svg11.dtd">
<!-- Generated by graphviz version 2.43.0 (0)
 -->
<!-- Title: a_graph Pages: 1 -->
<svg width="586pt" height="119pt"
 viewBox="0.00 0.00 586.00 119.00" xmlns="http://www.w3.org/2000/svg" xmlns:xlink="http://www.w3.org/1999/xlink">
<g id="graph0" class="graph" transform="scale(1 1) rotate(0) translate(4 115)">
<title>a_graph</title>
<polygon fill="white" stroke="transparent" points="-4,4 -4,-115 582,-115 582,4 -4,4"/>
<!-- T2062 -->
<g id="node1" class="node">
<title>T2062</title>
<polygon fill="none" stroke="#0058ad" points="204,-81.5 204,-110.5 484,-110.5 484,-81.5 204,-81.5"/>
<text text-anchor="middle" x="239" y="-92.3" font-family="Times,serif" font-size="14.00" fill="#0058ad">a 868 3</text>
<polyline fill="none" stroke="#0058ad" points="274,-81.5 274,-110.5 "/>
<text text-anchor="middle" x="309" y="-92.3" font-family="Times,serif" font-size="14.00" fill="#0058ad">r 872 []</text>
<polyline fill="none" stroke="#0058ad" points="344,-81.5 344,-110.5 "/>
<text text-anchor="middle" x="379" y="-92.3" font-family="Times,serif" font-size="14.00" fill="#0058ad">a 879 1</text>
<polyline fill="none" stroke="#0058ad" points="414,-81.5 414,-110.5 "/>
<text text-anchor="middle" x="449" y="-92.3" font-family="Times,serif" font-size="14.00" fill="#0058ad">a 879 2</text>
</g>
<!-- T2063 -->
<g id="node2" class="node">
<title>T2063</title>
<polygon fill="none" stroke="#0058ad" points="0,-0.5 0,-29.5 578,-29.5 578,-0.5 0,-0.5"/>
<text text-anchor="middle" x="35" y="-11.3" font-family="Times,serif" font-size="14.00" fill="#0058ad">a 872 1</text>
<polyline fill="none" stroke="#0058ad" points="70,-0.5 70,-29.5 "/>
<text text-anchor="middle" x="109.5" y="-11.3" font-family="Times,serif" font-size="14.00" fill="#0058ad">r 877 [1]</text>
<polyline fill="none" stroke="#0058ad" points="149,-0.5 149,-29.5 "/>
<text text-anchor="middle" x="184" y="-11.3" font-family="Times,serif" font-size="14.00" fill="#0058ad">a 877 2</text>
<polyline fill="none" stroke="#0058ad" points="219,-0.5 219,-29.5 "/>
<text text-anchor="middle" x="254" y="-11.3" font-family="Times,serif" font-size="14.00" fill="#0058ad">a 878 1</text>
<polyline fill="none" stroke="#0058ad" points="289,-0.5 289,-29.5 "/>
<text text-anchor="middle" x="324" y="-11.3" font-family="Times,serif" font-size="14.00" fill="#0058ad">a 877 3</text>
<polyline fill="none" stroke="#0058ad" points="359,-0.5 359,-29.5 "/>
<text text-anchor="middle" x="398.5" y="-11.3" font-family="Times,serif" font-size="14.00" fill="#0058ad">r 876 [1]</text>
<polyline fill="none" stroke="#0058ad" points="438,-0.5 438,-29.5 "/>
<text text-anchor="middle" x="473" y="-11.3" font-family="Times,serif" font-size="14.00" fill="#0058ad">a 872 2</text>
<polyline fill="none" stroke="#0058ad" points="508,-0.5 508,-29.5 "/>
<text text-anchor="middle" x="543" y="-11.3" font-family="Times,serif" font-size="14.00" fill="#0058ad">r 879 []</text>
</g>
<!-- T2062&#45;&gt;T2063 -->
<g id="edge1" class="edge">
<title>T2062:f1&#45;&gt;T2063:f0</title>
<path fill="none" stroke="#5b00c0" d="M309,-81C309,39.24 50.82,-142.62 35.69,-40.08"/>
<polygon fill="#5b00c0" stroke="#5b00c0" points="39.18,-39.74 35,-30 32.19,-40.22 39.18,-39.74"/>
<text text-anchor="middle" x="315.5" y="-51.8" font-family="Times,serif" font-size="14.00" fill="#5b00c0">rw</text>
</g>
<!-- T2063&#45;&gt;T2062 -->
<g id="edge2" class="edge">
<title>T2063:f7&#45;&gt;T2062:f2</title>
<path fill="none" stroke="#5b00c0" d="M543,-30C543,-102.6 394.62,-14.17 380.13,-71.05"/>
<polygon fill="#5b00c0" stroke="#5b00c0" points="376.66,-70.67 379,-81 383.61,-71.46 376.66,-70.67"/>
<text text-anchor="middle" x="545.5" y="-51.8" font-family="Times,serif" font-size="14.00" fill="#5b00c0">rw</text>
</g>
</g>
</svg>
