<?xml version="1.0" encoding="UTF-8" standalone="no"?>
<!DOCTYPE svg PUBLIC "-//W3C//DTD SVG 1.1//EN"
 "http://www.w3.org/Graphics/SVG/1.1/DTD/svg11.dtd">
<!-- Generated by graphviz version 2.43.0 (0)
 -->
<!-- Title: a_graph Pages: 1 -->
<svg width="583pt" height="119pt"
 viewBox="0.00 0.00 582.50 119.00" xmlns="http://www.w3.org/2000/svg" xmlns:xlink="http://www.w3.org/1999/xlink">
<g id="graph0" class="graph" transform="scale(1 1) rotate(0) translate(4 115)">
<title>a_graph</title>
<polygon fill="white" stroke="transparent" points="-4,4 -4,-115 578.5,-115 578.5,4 -4,4"/>
<!-- T846 -->
<g id="node1" class="node">
<title>T846</title>
<polygon fill="none" stroke="#0058ad" points="202.5,-81.5 202.5,-110.5 574.5,-110.5 574.5,-81.5 202.5,-81.5"/>
<text text-anchor="middle" x="237.5" y="-92.3" font-family="Times,serif" font-size="14.00" fill="#0058ad">a 349 2</text>
<polyline fill="none" stroke="#0058ad" points="272.5,-81.5 272.5,-110.5 "/>
<text text-anchor="middle" x="318.5" y="-92.3" font-family="Times,serif" font-size="14.00" fill="#0058ad">r 349 [1 2]</text>
<polyline fill="none" stroke="#0058ad" points="364.5,-81.5 364.5,-110.5 "/>
<text text-anchor="middle" x="399.5" y="-92.3" font-family="Times,serif" font-size="14.00" fill="#0058ad">r 354 []</text>
<polyline fill="none" stroke="#0058ad" points="434.5,-81.5 434.5,-110.5 "/>
<text text-anchor="middle" x="469.5" y="-92.3" font-family="Times,serif" font-size="14.00" fill="#0058ad">r 353 []</text>
<polyline fill="none" stroke="#0058ad" points="504.5,-81.5 504.5,-110.5 "/>
<text text-anchor="middle" x="539.5" y="-92.3" font-family="Times,serif" font-size="14.00" fill="#0058ad">r 354 []</text>
</g>
<!-- T847 -->
<g id="node2" class="node">
<title>T847</title>
<polygon fill="none" stroke="#0058ad" points="0,-0.5 0,-29.5 571,-29.5 571,-0.5 0,-0.5"/>
<text text-anchor="middle" x="53" y="-11.3" font-family="Times,serif" font-size="14.00" fill="#0058ad">r 351 [1 2 3]</text>
<polyline fill="none" stroke="#0058ad" points="106,-0.5 106,-29.5 "/>
<text text-anchor="middle" x="159" y="-11.3" font-family="Times,serif" font-size="14.00" fill="#0058ad">r 351 [1 2 3]</text>
<polyline fill="none" stroke="#0058ad" points="212,-0.5 212,-29.5 "/>
<text text-anchor="middle" x="247" y="-11.3" font-family="Times,serif" font-size="14.00" fill="#0058ad">a 354 1</text>
<polyline fill="none" stroke="#0058ad" points="282,-0.5 282,-29.5 "/>
<text text-anchor="middle" x="317" y="-11.3" font-family="Times,serif" font-size="14.00" fill="#0058ad">r 353 []</text>
<polyline fill="none" stroke="#0058ad" points="352,-0.5 352,-29.5 "/>
<text text-anchor="middle" x="391.5" y="-11.3" font-family="Times,serif" font-size="14.00" fill="#0058ad">r 349 [1]</text>
<polyline fill="none" stroke="#0058ad" points="431,-0.5 431,-29.5 "/>
<text text-anchor="middle" x="466" y="-11.3" font-family="Times,serif" font-size="14.00" fill="#0058ad">a 354 2</text>
<polyline fill="none" stroke="#0058ad" points="501,-0.5 501,-29.5 "/>
<text text-anchor="middle" x="536" y="-11.3" font-family="Times,serif" font-size="14.00" fill="#0058ad">r 353 []</text>
</g>
<!-- T846&#45;&gt;T847 -->
<g id="edge1" class="edge">
<title>T846:f2&#45;&gt;T847:f2</title>
<path fill="none" stroke="#5b00c0" d="M399.5,-81C399.5,-73.34 287.53,-48.02 255.16,-35.25"/>
<polygon fill="#5b00c0" stroke="#5b00c0" points="256.87,-32.19 246.5,-30 253.24,-38.18 256.87,-32.19"/>
<text text-anchor="middle" x="359" y="-51.8" font-family="Times,serif" font-size="14.00" fill="#5b00c0">rw</text>
</g>
<!-- T847&#45;&gt;T846 -->
<g id="edge2" class="edge">
<title>T847:f4&#45;&gt;T846:f0</title>
<path fill="none" stroke="#5b00c0" d="M391.5,-30C391.5,-56.53 297.42,-36.54 273.5,-48 257.44,-55.69 243.5,-58.36 239.01,-71.06"/>
<polygon fill="#5b00c0" stroke="#5b00c0" points="235.55,-70.59 237.5,-81 242.47,-71.64 235.55,-70.59"/>
<text text-anchor="middle" x="283" y="-51.8" font-family="Times,serif" font-size="14.00" fill="#5b00c0">rw</text>
</g>
</g>
</svg>
