<?xml version="1.0" encoding="UTF-8" standalone="no"?>
<!DOCTYPE svg PUBLIC "-//W3C//DTD SVG 1.1//EN"
 "http://www.w3.org/Graphics/SVG/1.1/DTD/svg11.dtd">
<!-- Generated by graphviz version 2.43.0 (0)
 -->
<!-- Title: a_graph Pages: 1 -->
<svg width="2992pt" height="119pt"
 viewBox="0.00 0.00 2992.00 119.00" xmlns="http://www.w3.org/2000/svg" xmlns:xlink="http://www.w3.org/1999/xlink">
<g id="graph0" class="graph" transform="scale(1 1) rotate(0) translate(4 115)">
<title>a_graph</title>
<polygon fill="white" stroke="transparent" points="-4,4 -4,-115 2988,-115 2988,4 -4,4"/>
<!-- T290 -->
<g id="node1" class="node">
<title>T290</title>
<polygon fill="none" stroke="#0058ad" points="727,-81.5 727,-110.5 2984,-110.5 2984,-81.5 727,-81.5"/>
<text text-anchor="middle" x="757.5" y="-92.3" font-family="Times,serif" font-size="14.00" fill="#0058ad">a 9 31</text>
<polyline fill="none" stroke="#0058ad" points="788,-81.5 788,-110.5 "/>
<text text-anchor="middle" x="818.5" y="-92.3" font-family="Times,serif" font-size="14.00" fill="#0058ad">a 6 28</text>
<polyline fill="none" stroke="#0058ad" points="849,-81.5 849,-110.5 "/>
<text text-anchor="middle" x="1169.5" y="-92.3" font-family="Times,serif" font-size="14.00" fill="#0058ad">r 9 [1 2 3 4 5 6 7 8 9 10 12 13 14 15 16 17 18 19 20 21 22 23 24 25 26 27 28 29 30 31]</text>
<polyline fill="none" stroke="#0058ad" points="1490,-81.5 1490,-110.5 "/>
<text text-anchor="middle" x="1520.5" y="-92.3" font-family="Times,serif" font-size="14.00" fill="#0058ad">a 6 29</text>
<polyline fill="none" stroke="#0058ad" points="1551,-81.5 1551,-110.5 "/>
<text text-anchor="middle" x="1626.5" y="-92.3" font-family="Times,serif" font-size="14.00" fill="#0058ad">r 10 [3 4 5 6 7 8 9]</text>
<polyline fill="none" stroke="#0058ad" points="1702,-81.5 1702,-110.5 "/>
<text text-anchor="middle" x="2022.5" y="-92.3" font-family="Times,serif" font-size="14.00" fill="#0058ad">r 9 [1 2 3 4 5 6 7 8 9 10 12 13 14 15 16 17 18 19 20 21 22 23 24 25 26 27 28 29 30 31]</text>
<polyline fill="none" stroke="#0058ad" points="2343,-81.5 2343,-110.5 "/>
<text text-anchor="middle" x="2663.5" y="-92.3" font-family="Times,serif" font-size="14.00" fill="#0058ad">r 9 [1 2 3 4 5 6 7 8 9 10 12 13 14 15 16 17 18 19 20 21 22 23 24 25 26 27 28 29 30 31]</text>
</g>
<!-- T291 -->
<g id="node2" class="node">
<title>T291</title>
<polygon fill="none" stroke="#0058ad" points="0,-0.5 0,-29.5 1761,-29.5 1761,-0.5 0,-0.5"/>
<text text-anchor="middle" x="75.5" y="-11.3" font-family="Times,serif" font-size="14.00" fill="#0058ad">r 10 [3 4 5 6 7 8 9]</text>
<polyline fill="none" stroke="#0058ad" points="151,-0.5 151,-29.5 "/>
<text text-anchor="middle" x="460.5" y="-11.3" font-family="Times,serif" font-size="14.00" fill="#0058ad">r 9 [1 2 3 4 5 6 7 8 9 10 12 13 14 15 16 17 18 19 20 21 22 23 24 25 26 27 28 29 30]</text>
<polyline fill="none" stroke="#0058ad" points="770,-0.5 770,-29.5 "/>
<text text-anchor="middle" x="845.5" y="-11.3" font-family="Times,serif" font-size="14.00" fill="#0058ad">r 10 [3 4 5 6 7 8 9]</text>
<polyline fill="none" stroke="#0058ad" points="921,-0.5 921,-29.5 "/>
<text text-anchor="middle" x="996.5" y="-11.3" font-family="Times,serif" font-size="14.00" fill="#0058ad">r 10 [3 4 5 6 7 8 9]</text>
<polyline fill="none" stroke="#0058ad" points="1072,-0.5 1072,-29.5 "/>
<text text-anchor="middle" x="1381.5" y="-11.3" font-family="Times,serif" font-size="14.00" fill="#0058ad">r 9 [1 2 3 4 5 6 7 8 9 10 12 13 14 15 16 17 18 19 20 21 22 23 24 25 26 27 28 29 30]</text>
<polyline fill="none" stroke="#0058ad" points="1691,-0.5 1691,-29.5 "/>
<text text-anchor="middle" x="1726" y="-11.3" font-family="Times,serif" font-size="14.00" fill="#0058ad">a 10 10</text>
</g>
<!-- T290&#45;&gt;T291 -->
<g id="edge1" class="edge">
<title>T290:f4&#45;&gt;T291:f5</title>
<path fill="none" stroke="#5b00c0" d="M1626.5,-81C1626.5,-35.01 1711.49,-72.87 1724.76,-39.98"/>
<polygon fill="#5b00c0" stroke="#5b00c0" points="1728.23,-40.45 1726.5,-30 1721.34,-39.25 1728.23,-40.45"/>
<text text-anchor="middle" x="1727" y="-51.8" font-family="Times,serif" font-size="14.00" fill="#5b00c0">rw</text>
</g>
<!-- T291&#45;&gt;T290 -->
<g id="edge2" class="edge">
<title>T291:f1&#45;&gt;T290:f0</title>
<path fill="none" stroke="#5b00c0" d="M460.5,-30C460.5,-87.61 644.59,-95.32 715.19,-95.95"/>
<polygon fill="#5b00c0" stroke="#5b00c0" points="715.48,-99.45 725.5,-96 715.52,-92.45 715.48,-99.45"/>
<text text-anchor="middle" x="495" y="-51.8" font-family="Times,serif" font-size="14.00" fill="#5b00c0">rw</text>
</g>
</g>
</svg>
