<?xml version="1.0" encoding="UTF-8" standalone="no"?>
<!DOCTYPE svg PUBLIC "-//W3C//DTD SVG 1.1//EN"
 "http://www.w3.org/Graphics/SVG/1.1/DTD/svg11.dtd">
<!-- Generated by graphviz version 2.40.1 (20161225.0304)
 -->
<!-- Title: g Pages: 1 -->
<svg width="684pt" height="121pt"
 viewBox="0.00 0.00 683.71 120.80" xmlns="http://www.w3.org/2000/svg" xmlns:xlink="http://www.w3.org/1999/xlink">
<g id="graph0" class="graph" transform="scale(1 1) rotate(0) translate(4 116.8)">
<title>g</title>
<polygon fill="#ffffff" stroke="transparent" points="-4,4 -4,-116.8 679.7058,-116.8 679.7058,4 -4,4"/>
<!-- T154 -->
<g id="node1" class="node">
<title>T154</title>
<polygon fill="none" stroke="#0058ad" points="0,-83.3 0,-112.3 375.4154,-112.3 375.4154,-83.3 0,-83.3"/>
<text text-anchor="middle" x="35.5968" y="-93.6" font-family="Times,serif" font-size="14.00" fill="#0058ad">[:r 66 [1]]</text>
<polyline fill="none" stroke="#0058ad" points="71.1936,-83.3 71.1936,-112.3 "/>
<text text-anchor="middle" x="106.7904" y="-93.6" font-family="Times,serif" font-size="14.00" fill="#0058ad">[:r 66 [1]]</text>
<polyline fill="none" stroke="#0058ad" points="142.3872,-83.3 142.3872,-112.3 "/>
<text text-anchor="middle" x="174.484" y="-93.6" font-family="Times,serif" font-size="14.00" fill="#0058ad">[:r 62 []]</text>
<polyline fill="none" stroke="#0058ad" points="206.5808,-83.3 206.5808,-112.3 "/>
<text text-anchor="middle" x="255.4013" y="-93.6" font-family="Times,serif" font-size="14.00" fill="#0058ad">[:append 62 1]</text>
<polyline fill="none" stroke="#0058ad" points="304.2218,-83.3 304.2218,-112.3 "/>
<text text-anchor="middle" x="339.8186" y="-93.6" font-family="Times,serif" font-size="14.00" fill="#0058ad">[:r 62 [1]]</text>
</g>
<!-- T155 -->
<g id="node2" class="node">
<title>T155</title>
<polygon fill="none" stroke="#0058ad" points="23.7096,-.5 23.7096,-29.5 675.7058,-29.5 675.7058,-.5 23.7096,-.5"/>
<text text-anchor="middle" x="72.5301" y="-10.8" font-family="Times,serif" font-size="14.00" fill="#0058ad">[:append 66 2]</text>
<polyline fill="none" stroke="#0058ad" points="121.3506,-.5 121.3506,-29.5 "/>
<text text-anchor="middle" x="162.1974" y="-10.8" font-family="Times,serif" font-size="14.00" fill="#0058ad">[:r 66 [1 2]]</text>
<polyline fill="none" stroke="#0058ad" points="203.0442,-.5 203.0442,-29.5 "/>
<text text-anchor="middle" x="235.141" y="-10.8" font-family="Times,serif" font-size="14.00" fill="#0058ad">[:r 62 []]</text>
<polyline fill="none" stroke="#0058ad" points="267.2378,-.5 267.2378,-29.5 "/>
<text text-anchor="middle" x="308.0846" y="-10.8" font-family="Times,serif" font-size="14.00" fill="#0058ad">[:r 66 [1 2]]</text>
<polyline fill="none" stroke="#0058ad" points="348.9314,-.5 348.9314,-29.5 "/>
<text text-anchor="middle" x="389.7782" y="-10.8" font-family="Times,serif" font-size="14.00" fill="#0058ad">[:r 66 [1 2]]</text>
<polyline fill="none" stroke="#0058ad" points="430.625,-.5 430.625,-29.5 "/>
<text text-anchor="middle" x="471.4718" y="-10.8" font-family="Times,serif" font-size="14.00" fill="#0058ad">[:r 66 [1 2]]</text>
<polyline fill="none" stroke="#0058ad" points="512.3186,-.5 512.3186,-29.5 "/>
<text text-anchor="middle" x="553.1654" y="-10.8" font-family="Times,serif" font-size="14.00" fill="#0058ad">[:r 65 [1 2]]</text>
<polyline fill="none" stroke="#0058ad" points="594.0122,-.5 594.0122,-29.5 "/>
<text text-anchor="middle" x="634.859" y="-10.8" font-family="Times,serif" font-size="14.00" fill="#0058ad">[:r 66 [1 2]]</text>
</g>
<!-- T154&#45;&gt;T155 -->
<g id="edge1" class="edge">
<title>T154:f0&#45;&gt;T155:f0</title>
<path fill="none" stroke="#5b00c0" d="M35.7077,-82.8C35.7077,-58.1747 63.0331,-58.0424 70.7184,-40.3057"/>
<polygon fill="#5b00c0" stroke="#5b00c0" points="74.2489,-40.4821 72.7077,-30 67.3758,-39.1554 74.2489,-40.4821"/>
<text text-anchor="middle" x="110.8045" y="-52.2" font-family="Times,serif" font-size="14.00" fill="#5b00c0">T154 (rw) T155</text>
</g>
<!-- T155&#45;&gt;T154 -->
<g id="edge2" class="edge">
<title>T155:f2&#45;&gt;T154:f3</title>
<path fill="none" stroke="#5b00c0" d="M234.7077,-30C234.7077,-51.3086 249.6579,-56.2689 254.3298,-72.4686"/>
<polygon fill="#5b00c0" stroke="#5b00c0" points="250.9164,-73.3505 255.7077,-82.8 257.8549,-72.425 250.9164,-73.3505"/>
<text text-anchor="middle" x="294.8045" y="-52.2" font-family="Times,serif" font-size="14.00" fill="#5b00c0">T155 (rw) T154</text>
</g>
</g>
</svg>
