<?xml version="1.0" encoding="UTF-8" standalone="no"?>
<!DOCTYPE svg PUBLIC "-//W3C//DTD SVG 1.1//EN"
 "http://www.w3.org/Graphics/SVG/1.1/DTD/svg11.dtd">
<!-- Generated by graphviz version 2.43.0 (0)
 -->
<!-- Title: a_graph Pages: 1 -->
<svg width="4931pt" height="119pt"
 viewBox="0.00 0.00 4931.00 119.00" xmlns="http://www.w3.org/2000/svg" xmlns:xlink="http://www.w3.org/1999/xlink">
<g id="graph0" class="graph" transform="scale(1 1) rotate(0) translate(4 115)">
<title>a_graph</title>
<polygon fill="white" stroke="transparent" points="-4,4 -4,-115 4927,-115 4927,4 -4,4"/>
<!-- T756 -->
<g id="node1" class="node">
<title>T756</title>
<polygon fill="none" stroke="#0058ad" points="3570.5,-81.5 3570.5,-110.5 4664.5,-110.5 4664.5,-81.5 3570.5,-81.5"/>
<text text-anchor="middle" x="3601" y="-92.3" font-family="Times,serif" font-size="14.00" fill="#0058ad">a 58 1</text>
<polyline fill="none" stroke="#0058ad" points="3631.5,-81.5 3631.5,-110.5 "/>
<text text-anchor="middle" x="3662" y="-92.3" font-family="Times,serif" font-size="14.00" fill="#0058ad">a 58 2</text>
<polyline fill="none" stroke="#0058ad" points="3692.5,-81.5 3692.5,-110.5 "/>
<text text-anchor="middle" x="3723" y="-92.3" font-family="Times,serif" font-size="14.00" fill="#0058ad">a 58 3</text>
<polyline fill="none" stroke="#0058ad" points="3753.5,-81.5 3753.5,-110.5 "/>
<text text-anchor="middle" x="3842.5" y="-92.3" font-family="Times,serif" font-size="14.00" fill="#0058ad">r 53 [1 2 3 4 5 6 7 8 9]</text>
<polyline fill="none" stroke="#0058ad" points="3931.5,-81.5 3931.5,-110.5 "/>
<text text-anchor="middle" x="3980" y="-92.3" font-family="Times,serif" font-size="14.00" fill="#0058ad">r 58 [1 2 3]</text>
<polyline fill="none" stroke="#0058ad" points="4028.5,-81.5 4028.5,-110.5 "/>
<text text-anchor="middle" x="4117.5" y="-92.3" font-family="Times,serif" font-size="14.00" fill="#0058ad">r 53 [1 2 3 4 5 6 7 8 9]</text>
<polyline fill="none" stroke="#0058ad" points="4206.5,-81.5 4206.5,-110.5 "/>
<text text-anchor="middle" x="4255" y="-92.3" font-family="Times,serif" font-size="14.00" fill="#0058ad">r 58 [1 2 3]</text>
<polyline fill="none" stroke="#0058ad" points="4303.5,-81.5 4303.5,-110.5 "/>
<text text-anchor="middle" x="4334" y="-92.3" font-family="Times,serif" font-size="14.00" fill="#0058ad">a 58 4</text>
<polyline fill="none" stroke="#0058ad" points="4364.5,-81.5 4364.5,-110.5 "/>
<text text-anchor="middle" x="4453.5" y="-92.3" font-family="Times,serif" font-size="14.00" fill="#0058ad">r 53 [1 2 3 4 5 6 7 8 9]</text>
<polyline fill="none" stroke="#0058ad" points="4542.5,-81.5 4542.5,-110.5 "/>
<text text-anchor="middle" x="4573" y="-92.3" font-family="Times,serif" font-size="14.00" fill="#0058ad">a 57 1</text>
<polyline fill="none" stroke="#0058ad" points="4603.5,-81.5 4603.5,-110.5 "/>
<text text-anchor="middle" x="4634" y="-92.3" font-family="Times,serif" font-size="14.00" fill="#0058ad">a 57 2</text>
</g>
<!-- T754 -->
<g id="node2" class="node">
<title>T754</title>
<polygon fill="none" stroke="#0058ad" points="0,-0.5 0,-29.5 4923,-29.5 4923,-0.5 0,-0.5"/>
<text text-anchor="middle" x="35" y="-11.3" font-family="Times,serif" font-size="14.00" fill="#0058ad">a 56 29</text>
<polyline fill="none" stroke="#0058ad" points="70,-0.5 70,-29.5 "/>
<text text-anchor="middle" x="105" y="-11.3" font-family="Times,serif" font-size="14.00" fill="#0058ad">a 54 31</text>
<polyline fill="none" stroke="#0058ad" points="140,-0.5 140,-29.5 "/>
<text text-anchor="middle" x="454" y="-11.3" font-family="Times,serif" font-size="14.00" fill="#0058ad">r 54 [1 2 3 4 5 6 7 8 9 10 11 12 13 14 15 16 17 18 19 22 23 24 25 26 27 28 29 30 31]</text>
<polyline fill="none" stroke="#0058ad" points="768,-0.5 768,-29.5 "/>
<text text-anchor="middle" x="1082" y="-11.3" font-family="Times,serif" font-size="14.00" fill="#0058ad">r 54 [1 2 3 4 5 6 7 8 9 10 11 12 13 14 15 16 17 18 19 22 23 24 25 26 27 28 29 30 31]</text>
<polyline fill="none" stroke="#0058ad" points="1396,-0.5 1396,-29.5 "/>
<text text-anchor="middle" x="1642.5" y="-11.3" font-family="Times,serif" font-size="14.00" fill="#0058ad">r 56 [1 2 3 4 5 6 7 8 9 16 17 18 19 20 21 22 23 24 25 26 27 28 29]</text>
<polyline fill="none" stroke="#0058ad" points="1889,-0.5 1889,-29.5 "/>
<text text-anchor="middle" x="2203" y="-11.3" font-family="Times,serif" font-size="14.00" fill="#0058ad">r 54 [1 2 3 4 5 6 7 8 9 10 11 12 13 14 15 16 17 18 19 22 23 24 25 26 27 28 29 30 31]</text>
<polyline fill="none" stroke="#0058ad" points="2517,-0.5 2517,-29.5 "/>
<text text-anchor="middle" x="2552" y="-11.3" font-family="Times,serif" font-size="14.00" fill="#0058ad">a 53 10</text>
<polyline fill="none" stroke="#0058ad" points="2587,-0.5 2587,-29.5 "/>
<text text-anchor="middle" x="2622" y="-11.3" font-family="Times,serif" font-size="14.00" fill="#0058ad">a 54 32</text>
<polyline fill="none" stroke="#0058ad" points="2657,-0.5 2657,-29.5 "/>
<text text-anchor="middle" x="2692" y="-11.3" font-family="Times,serif" font-size="14.00" fill="#0058ad">a 56 30</text>
<polyline fill="none" stroke="#0058ad" points="2727,-0.5 2727,-29.5 "/>
<text text-anchor="middle" x="2984.5" y="-11.3" font-family="Times,serif" font-size="14.00" fill="#0058ad">r 56 [1 2 3 4 5 6 7 8 9 16 17 18 19 20 21 22 23 24 25 26 27 28 29 30]</text>
<polyline fill="none" stroke="#0058ad" points="3242,-0.5 3242,-29.5 "/>
<text text-anchor="middle" x="3567" y="-11.3" font-family="Times,serif" font-size="14.00" fill="#0058ad">r 54 [1 2 3 4 5 6 7 8 9 10 11 12 13 14 15 16 17 18 19 22 23 24 25 26 27 28 29 30 31 32]</text>
<polyline fill="none" stroke="#0058ad" points="3892,-0.5 3892,-29.5 "/>
<text text-anchor="middle" x="3927" y="-11.3" font-family="Times,serif" font-size="14.00" fill="#0058ad">a 56 31</text>
<polyline fill="none" stroke="#0058ad" points="3962,-0.5 3962,-29.5 "/>
<text text-anchor="middle" x="4062" y="-11.3" font-family="Times,serif" font-size="14.00" fill="#0058ad">r 53 [1 2 3 4 5 6 7 8 9 10]</text>
<polyline fill="none" stroke="#0058ad" points="4162,-0.5 4162,-29.5 "/>
<text text-anchor="middle" x="4197" y="-11.3" font-family="Times,serif" font-size="14.00" fill="#0058ad">a 56 32</text>
<polyline fill="none" stroke="#0058ad" points="4232,-0.5 4232,-29.5 "/>
<text text-anchor="middle" x="4512" y="-11.3" font-family="Times,serif" font-size="14.00" fill="#0058ad">r 56 [1 2 3 4 5 6 7 8 9 16 17 18 19 20 21 22 23 24 25 26 27 28 29 30 31 32]</text>
<polyline fill="none" stroke="#0058ad" points="4792,-0.5 4792,-29.5 "/>
<text text-anchor="middle" x="4827" y="-11.3" font-family="Times,serif" font-size="14.00" fill="#0058ad">a 53 11</text>
<polyline fill="none" stroke="#0058ad" points="4862,-0.5 4862,-29.5 "/>
<text text-anchor="middle" x="4892.5" y="-11.3" font-family="Times,serif" font-size="14.00" fill="#0058ad">r 58 []</text>
</g>
<!-- T756&#45;&gt;T754 -->
<g id="edge1" class="edge">
<title>T756:f3&#45;&gt;T754:f6</title>
<path fill="none" stroke="#5b00c0" d="M3842.5,-81C3842.5,58.94 2614.72,-162.15 2554.77,-39.84"/>
<polygon fill="#5b00c0" stroke="#5b00c0" points="2558.16,-38.96 2552.5,-30 2551.34,-40.53 2558.16,-38.96"/>
<text text-anchor="middle" x="3839" y="-51.8" font-family="Times,serif" font-size="14.00" fill="#5b00c0">rw</text>
</g>
<!-- T754&#45;&gt;T756 -->
<g id="edge2" class="edge">
<title>T754:f16&#45;&gt;T756:f0</title>
<path fill="none" stroke="#5b00c0" d="M4892.5,-30C4892.5,-47.05 3728.39,-61.5 3610.16,-78.29"/>
<polygon fill="#5b00c0" stroke="#5b00c0" points="3609.18,-74.92 3600.5,-81 3611.07,-81.66 3609.18,-74.92"/>
<text text-anchor="middle" x="4521" y="-51.8" font-family="Times,serif" font-size="14.00" fill="#5b00c0">rw</text>
</g>
</g>
</svg>
