<?xml version="1.0" encoding="UTF-8" standalone="no"?>
<!DOCTYPE svg PUBLIC "-//W3C//DTD SVG 1.1//EN"
 "http://www.w3.org/Graphics/SVG/1.1/DTD/svg11.dtd">
<!-- Generated by graphviz version 2.43.0 (0)
 -->
<!-- Title: a_graph Pages: 1 -->
<svg width="1625pt" height="119pt"
 viewBox="0.00 0.00 1625.00 119.00" xmlns="http://www.w3.org/2000/svg" xmlns:xlink="http://www.w3.org/1999/xlink">
<g id="graph0" class="graph" transform="scale(1 1) rotate(0) translate(4 115)">
<title>a_graph</title>
<polygon fill="white" stroke="transparent" points="-4,4 -4,-115 1621,-115 1621,4 -4,4"/>
<!-- T1161 -->
<g id="node1" class="node">
<title>T1161</title>
<polygon fill="none" stroke="#0058ad" points="0,-81.5 0,-110.5 1617,-110.5 1617,-81.5 0,-81.5"/>
<text text-anchor="middle" x="336.5" y="-92.3" font-family="Times,serif" font-size="14.00" fill="#0058ad">r 43 [1 2 3 4 5 6 7 8 9 10 11 12 13 14 15 16 17 18 19 20 21 22 23 24 25 26 27 28 29 30 31]</text>
<polyline fill="none" stroke="#0058ad" points="673,-81.5 673,-110.5 "/>
<text text-anchor="middle" x="708" y="-92.3" font-family="Times,serif" font-size="14.00" fill="#0058ad">a 44 10</text>
<polyline fill="none" stroke="#0058ad" points="743,-81.5 743,-110.5 "/>
<text text-anchor="middle" x="778" y="-92.3" font-family="Times,serif" font-size="14.00" fill="#0058ad">a 43 32</text>
<polyline fill="none" stroke="#0058ad" points="813,-81.5 813,-110.5 "/>
<text text-anchor="middle" x="1149.5" y="-92.3" font-family="Times,serif" font-size="14.00" fill="#0058ad">r 39 [1 2 3 4 5 6 7 8 9 10 11 12 13 14 15 16 17 18 19 20 21 22 23 24 25 26 27 28 29 30 31]</text>
<polyline fill="none" stroke="#0058ad" points="1486,-81.5 1486,-110.5 "/>
<text text-anchor="middle" x="1521" y="-92.3" font-family="Times,serif" font-size="14.00" fill="#0058ad">a 44 11</text>
<polyline fill="none" stroke="#0058ad" points="1556,-81.5 1556,-110.5 "/>
<text text-anchor="middle" x="1586.5" y="-92.3" font-family="Times,serif" font-size="14.00" fill="#0058ad">r 45 []</text>
</g>
<!-- T1160 -->
<g id="node2" class="node">
<title>T1160</title>
<polygon fill="none" stroke="#0058ad" points="1056,-0.5 1056,-29.5 1295,-29.5 1295,-0.5 1056,-0.5"/>
<text text-anchor="middle" x="1086.5" y="-11.3" font-family="Times,serif" font-size="14.00" fill="#0058ad">a 45 1</text>
<polyline fill="none" stroke="#0058ad" points="1117,-0.5 1117,-29.5 "/>
<text text-anchor="middle" x="1206" y="-11.3" font-family="Times,serif" font-size="14.00" fill="#0058ad">r 44 [1 2 3 4 5 6 7 8 9]</text>
</g>
<!-- T1161&#45;&gt;T1160 -->
<g id="edge1" class="edge">
<title>T1161:f5&#45;&gt;T1160:f0</title>
<path fill="none" stroke="#5b00c0" d="M1586.5,-81C1586.5,138.88 1102,-241.16 1086.86,-40.02"/>
<polygon fill="#5b00c0" stroke="#5b00c0" points="1090.36,-39.87 1086.5,-30 1083.36,-40.12 1090.36,-39.87"/>
<text text-anchor="middle" x="1593" y="-51.8" font-family="Times,serif" font-size="14.00" fill="#5b00c0">rw</text>
</g>
<!-- T1160&#45;&gt;T1161 -->
<g id="edge2" class="edge">
<title>T1160:f1&#45;&gt;T1161:f1</title>
<path fill="none" stroke="#5b00c0" d="M1206.5,-30C1206.5,-42.79 786.01,-63.33 717.02,-77.4"/>
<polygon fill="#5b00c0" stroke="#5b00c0" points="715.61,-74.19 707.5,-81 718.09,-80.73 715.61,-74.19"/>
<text text-anchor="middle" x="1054" y="-51.8" font-family="Times,serif" font-size="14.00" fill="#5b00c0">rw</text>
</g>
</g>
</svg>
