<?xml version="1.0" encoding="UTF-8" standalone="no"?>
<!DOCTYPE svg PUBLIC "-//W3C//DTD SVG 1.1//EN"
 "http://www.w3.org/Graphics/SVG/1.1/DTD/svg11.dtd">
<!-- Generated by graphviz version 2.43.0 (0)
 -->
<!-- Title: a_graph Pages: 1 -->
<svg width="1053pt" height="119pt"
 viewBox="0.00 0.00 1053.00 119.00" xmlns="http://www.w3.org/2000/svg" xmlns:xlink="http://www.w3.org/1999/xlink">
<g id="graph0" class="graph" transform="scale(1 1) rotate(0) translate(4 115)">
<title>a_graph</title>
<polygon fill="white" stroke="transparent" points="-4,4 -4,-115 1049,-115 1049,4 -4,4"/>
<!-- T248 -->
<g id="node1" class="node">
<title>T248</title>
<polygon fill="none" stroke="#0058ad" points="89.5,-81.5 89.5,-110.5 211.5,-110.5 211.5,-81.5 89.5,-81.5"/>
<text text-anchor="middle" x="120" y="-92.3" font-family="Times,serif" font-size="14.00" fill="#0058ad">r 11 []</text>
<polyline fill="none" stroke="#0058ad" points="150.5,-81.5 150.5,-110.5 "/>
<text text-anchor="middle" x="181" y="-92.3" font-family="Times,serif" font-size="14.00" fill="#0058ad">a 8 16</text>
</g>
<!-- T249 -->
<g id="node2" class="node">
<title>T249</title>
<polygon fill="none" stroke="#0058ad" points="0,-0.5 0,-29.5 1045,-29.5 1045,-0.5 0,-0.5"/>
<text text-anchor="middle" x="30.5" y="-11.3" font-family="Times,serif" font-size="14.00" fill="#0058ad">a 11 1</text>
<polyline fill="none" stroke="#0058ad" points="61,-0.5 61,-29.5 "/>
<text text-anchor="middle" x="123" y="-11.3" font-family="Times,serif" font-size="14.00" fill="#0058ad">r 10 [1 4 5 6 7]</text>
<polyline fill="none" stroke="#0058ad" points="185,-0.5 185,-29.5 "/>
<text text-anchor="middle" x="330" y="-11.3" font-family="Times,serif" font-size="14.00" fill="#0058ad">r 8 [1 2 3 5 6 7 8 9 10 11 12 13 14 15]</text>
<polyline fill="none" stroke="#0058ad" points="475,-0.5 475,-29.5 "/>
<text text-anchor="middle" x="505.5" y="-11.3" font-family="Times,serif" font-size="14.00" fill="#0058ad">a 11 2</text>
<polyline fill="none" stroke="#0058ad" points="536,-0.5 536,-29.5 "/>
<text text-anchor="middle" x="681" y="-11.3" font-family="Times,serif" font-size="14.00" fill="#0058ad">r 8 [1 2 3 5 6 7 8 9 10 11 12 13 14 15]</text>
<polyline fill="none" stroke="#0058ad" points="826,-0.5 826,-29.5 "/>
<text text-anchor="middle" x="856.5" y="-11.3" font-family="Times,serif" font-size="14.00" fill="#0058ad">a 11 3</text>
<polyline fill="none" stroke="#0058ad" points="887,-0.5 887,-29.5 "/>
<text text-anchor="middle" x="935.5" y="-11.3" font-family="Times,serif" font-size="14.00" fill="#0058ad">r 11 [1 2 3]</text>
<polyline fill="none" stroke="#0058ad" points="984,-0.5 984,-29.5 "/>
<text text-anchor="middle" x="1014.5" y="-11.3" font-family="Times,serif" font-size="14.00" fill="#0058ad">a 11 4</text>
</g>
<!-- T248&#45;&gt;T249 -->
<g id="edge1" class="edge">
<title>T248:f0&#45;&gt;T249:f0</title>
<path fill="none" stroke="#5b00c0" d="M88.5,-96C52.96,-96 34.07,-73.68 30.96,-40.22"/>
<polygon fill="#5b00c0" stroke="#5b00c0" points="34.45,-39.83 30.5,-30 27.45,-40.15 34.45,-39.83"/>
<text text-anchor="middle" x="46" y="-51.8" font-family="Times,serif" font-size="14.00" fill="#5b00c0">rw</text>
</g>
<!-- T249&#45;&gt;T248 -->
<g id="edge2" class="edge">
<title>T249:f2&#45;&gt;T248:f1</title>
<path fill="none" stroke="#5b00c0" d="M329.5,-30C329.5,-86.32 278.51,-95.12 222.61,-95.93"/>
<polygon fill="#5b00c0" stroke="#5b00c0" points="222.48,-92.43 212.5,-96 222.52,-99.43 222.48,-92.43"/>
<text text-anchor="middle" x="336" y="-51.8" font-family="Times,serif" font-size="14.00" fill="#5b00c0">rw</text>
</g>
</g>
</svg>
