<?xml version="1.0" encoding="UTF-8" standalone="no"?>
<!DOCTYPE svg PUBLIC "-//W3C//DTD SVG 1.1//EN"
 "http://www.w3.org/Graphics/SVG/1.1/DTD/svg11.dtd">
<!-- Generated by graphviz version 2.43.0 (0)
 -->
<!-- Title: a_graph Pages: 1 -->
<svg width="614pt" height="119pt"
 viewBox="0.00 0.00 614.00 119.00" xmlns="http://www.w3.org/2000/svg" xmlns:xlink="http://www.w3.org/1999/xlink">
<g id="graph0" class="graph" transform="scale(1 1) rotate(0) translate(4 115)">
<title>a_graph</title>
<polygon fill="white" stroke="transparent" points="-4,4 -4,-115 610,-115 610,4 -4,4"/>
<!-- T1309 -->
<g id="node1" class="node">
<title>T1309</title>
<polygon fill="none" stroke="#0058ad" points="1,-81.5 1,-110.5 606,-110.5 606,-81.5 1,-81.5"/>
<text text-anchor="middle" x="36" y="-92.3" font-family="Times,serif" font-size="14.00" fill="#0058ad">r 553 []</text>
<polyline fill="none" stroke="#0058ad" points="71,-81.5 71,-110.5 "/>
<text text-anchor="middle" x="106" y="-92.3" font-family="Times,serif" font-size="14.00" fill="#0058ad">a 552 3</text>
<polyline fill="none" stroke="#0058ad" points="141,-81.5 141,-110.5 "/>
<text text-anchor="middle" x="194" y="-92.3" font-family="Times,serif" font-size="14.00" fill="#0058ad">r 552 [1 2 3]</text>
<polyline fill="none" stroke="#0058ad" points="247,-81.5 247,-110.5 "/>
<text text-anchor="middle" x="282" y="-92.3" font-family="Times,serif" font-size="14.00" fill="#0058ad">a 557 1</text>
<polyline fill="none" stroke="#0058ad" points="317,-81.5 317,-110.5 "/>
<text text-anchor="middle" x="352" y="-92.3" font-family="Times,serif" font-size="14.00" fill="#0058ad">r 553 []</text>
<polyline fill="none" stroke="#0058ad" points="387,-81.5 387,-110.5 "/>
<text text-anchor="middle" x="426.5" y="-92.3" font-family="Times,serif" font-size="14.00" fill="#0058ad">r 557 [1]</text>
<polyline fill="none" stroke="#0058ad" points="466,-81.5 466,-110.5 "/>
<text text-anchor="middle" x="501" y="-92.3" font-family="Times,serif" font-size="14.00" fill="#0058ad">a 557 2</text>
<polyline fill="none" stroke="#0058ad" points="536,-81.5 536,-110.5 "/>
<text text-anchor="middle" x="571" y="-92.3" font-family="Times,serif" font-size="14.00" fill="#0058ad">a 557 3</text>
</g>
<!-- T1308 -->
<g id="node2" class="node">
<title>T1308</title>
<polygon fill="none" stroke="#0058ad" points="0,-0.5 0,-29.5 395,-29.5 395,-0.5 0,-0.5"/>
<text text-anchor="middle" x="35" y="-11.3" font-family="Times,serif" font-size="14.00" fill="#0058ad">a 553 1</text>
<polyline fill="none" stroke="#0058ad" points="70,-0.5 70,-29.5 "/>
<text text-anchor="middle" x="105" y="-11.3" font-family="Times,serif" font-size="14.00" fill="#0058ad">a 555 3</text>
<polyline fill="none" stroke="#0058ad" points="140,-0.5 140,-29.5 "/>
<text text-anchor="middle" x="193" y="-11.3" font-family="Times,serif" font-size="14.00" fill="#0058ad">r 555 [1 2 3]</text>
<polyline fill="none" stroke="#0058ad" points="246,-0.5 246,-29.5 "/>
<text text-anchor="middle" x="281" y="-11.3" font-family="Times,serif" font-size="14.00" fill="#0058ad">r 557 []</text>
<polyline fill="none" stroke="#0058ad" points="316,-0.5 316,-29.5 "/>
<text text-anchor="middle" x="355.5" y="-11.3" font-family="Times,serif" font-size="14.00" fill="#0058ad">r 553 [1]</text>
</g>
<!-- T1309&#45;&gt;T1308 -->
<g id="edge1" class="edge">
<title>T1309:f0&#45;&gt;T1308:f0</title>
<path fill="none" stroke="#5b00c0" d="M35.5,-81C35.5,-62.23 34.81,-55.12 34.58,-40.35"/>
<polygon fill="#5b00c0" stroke="#5b00c0" points="38.08,-39.97 34.5,-30 31.08,-40.03 38.08,-39.97"/>
<text text-anchor="middle" x="45" y="-51.8" font-family="Times,serif" font-size="14.00" fill="#5b00c0">rw</text>
</g>
<!-- T1308&#45;&gt;T1309 -->
<g id="edge2" class="edge">
<title>T1308:f3&#45;&gt;T1309:f3</title>
<path fill="none" stroke="#5b00c0" d="M281.5,-30C281.5,-48.77 281.5,-55.88 281.5,-70.65"/>
<polygon fill="#5b00c0" stroke="#5b00c0" points="278,-71 281.5,-81 285,-71 278,-71"/>
<text text-anchor="middle" x="291" y="-51.8" font-family="Times,serif" font-size="14.00" fill="#5b00c0">rw</text>
</g>
</g>
</svg>
