<?xml version="1.0" encoding="UTF-8" standalone="no"?>
<!DOCTYPE svg PUBLIC "-//W3C//DTD SVG 1.1//EN"
 "http://www.w3.org/Graphics/SVG/1.1/DTD/svg11.dtd">
<!-- Generated by graphviz version 2.43.0 (0)
 -->
<!-- Title: a_graph Pages: 1 -->
<svg width="403pt" height="119pt"
 viewBox="0.00 0.00 403.00 119.00" xmlns="http://www.w3.org/2000/svg" xmlns:xlink="http://www.w3.org/1999/xlink">
<g id="graph0" class="graph" transform="scale(1 1) rotate(0) translate(4 115)">
<title>a_graph</title>
<polygon fill="white" stroke="transparent" points="-4,4 -4,-115 399,-115 399,4 -4,4"/>
<!-- T3 -->
<g id="node1" class="node">
<title>T3</title>
<polygon fill="none" stroke="#0058ad" points="0,-81.5 0,-110.5 395,-110.5 395,-81.5 0,-81.5"/>
<text text-anchor="middle" x="29.5" y="-92.3" font-family="Times,serif" font-size="14.00" fill="#0058ad">r 2 nil</text>
<polyline fill="none" stroke="#0058ad" points="59,-81.5 59,-110.5 "/>
<text text-anchor="middle" x="88.5" y="-92.3" font-family="Times,serif" font-size="14.00" fill="#0058ad">r 1 nil</text>
<polyline fill="none" stroke="#0058ad" points="118,-81.5 118,-110.5 "/>
<text text-anchor="middle" x="146" y="-92.3" font-family="Times,serif" font-size="14.00" fill="#0058ad">w 2 1</text>
<polyline fill="none" stroke="#0058ad" points="174,-81.5 174,-110.5 "/>
<text text-anchor="middle" x="202" y="-92.3" font-family="Times,serif" font-size="14.00" fill="#0058ad">w 2 2</text>
<polyline fill="none" stroke="#0058ad" points="230,-81.5 230,-110.5 "/>
<text text-anchor="middle" x="259.5" y="-92.3" font-family="Times,serif" font-size="14.00" fill="#0058ad">r 0 nil</text>
<polyline fill="none" stroke="#0058ad" points="289,-81.5 289,-110.5 "/>
<text text-anchor="middle" x="317" y="-92.3" font-family="Times,serif" font-size="14.00" fill="#0058ad">w 2 3</text>
<polyline fill="none" stroke="#0058ad" points="345,-81.5 345,-110.5 "/>
<text text-anchor="middle" x="370" y="-92.3" font-family="Times,serif" font-size="14.00" fill="#0058ad">r 2 3</text>
</g>
<!-- T2 -->
<g id="node2" class="node">
<title>T2</title>
<polygon fill="none" stroke="#0058ad" points="109,-0.5 109,-29.5 342,-29.5 342,-0.5 109,-0.5"/>
<text text-anchor="middle" x="138.5" y="-11.3" font-family="Times,serif" font-size="14.00" fill="#0058ad">r 0 nil</text>
<polyline fill="none" stroke="#0058ad" points="168,-0.5 168,-29.5 "/>
<text text-anchor="middle" x="196" y="-11.3" font-family="Times,serif" font-size="14.00" fill="#0058ad">w 1 1</text>
<polyline fill="none" stroke="#0058ad" points="224,-0.5 224,-29.5 "/>
<text text-anchor="middle" x="253.5" y="-11.3" font-family="Times,serif" font-size="14.00" fill="#0058ad">r 2 nil</text>
<polyline fill="none" stroke="#0058ad" points="283,-0.5 283,-29.5 "/>
<text text-anchor="middle" x="312.5" y="-11.3" font-family="Times,serif" font-size="14.00" fill="#0058ad">r 2 nil</text>
</g>
<!-- T3&#45;&gt;T2 -->
<g id="edge1" class="edge">
<title>T3:f1&#45;&gt;T2:f1</title>
<path fill="none" stroke="#5b00c0" d="M88.5,-81C88.5,-32.23 180.21,-75.2 193.82,-40.05"/>
<polygon fill="#5b00c0" stroke="#5b00c0" points="197.3,-40.44 195.5,-30 190.4,-39.29 197.3,-40.44"/>
<text text-anchor="middle" x="196" y="-51.8" font-family="Times,serif" font-size="14.00" fill="#5b00c0">rw</text>
</g>
<!-- T2&#45;&gt;T3 -->
<g id="edge2" class="edge">
<title>T2:f2&#45;&gt;T3:f5</title>
<path fill="none" stroke="#5b00c0" d="M253.5,-30C253.5,-62.39 304.27,-48.69 315.37,-71"/>
<polygon fill="#5b00c0" stroke="#5b00c0" points="311.99,-71.95 317.5,-81 318.84,-70.49 311.99,-71.95"/>
<text text-anchor="middle" x="316" y="-51.8" font-family="Times,serif" font-size="14.00" fill="#5b00c0">rw</text>
</g>
</g>
</svg>
