<?xml version="1.0" encoding="UTF-8" standalone="no"?>
<!DOCTYPE svg PUBLIC "-//W3C//DTD SVG 1.1//EN"
 "http://www.w3.org/Graphics/SVG/1.1/DTD/svg11.dtd">
<!-- Generated by graphviz version 2.43.0 (0)
 -->
<!-- Title: a_graph Pages: 1 -->
<svg width="1933pt" height="119pt"
 viewBox="0.00 0.00 1933.00 119.00" xmlns="http://www.w3.org/2000/svg" xmlns:xlink="http://www.w3.org/1999/xlink">
<g id="graph0" class="graph" transform="scale(1 1) rotate(0) translate(4 115)">
<title>a_graph</title>
<polygon fill="white" stroke="transparent" points="-4,4 -4,-115 1929,-115 1929,4 -4,4"/>
<!-- T2808 -->
<g id="node1" class="node">
<title>T2808</title>
<polygon fill="none" stroke="#0058ad" points="105,-81.5 105,-110.5 254,-110.5 254,-81.5 105,-81.5"/>
<text text-anchor="middle" x="140" y="-92.3" font-family="Times,serif" font-size="14.00" fill="#0058ad">r 107 []</text>
<polyline fill="none" stroke="#0058ad" points="175,-81.5 175,-110.5 "/>
<text text-anchor="middle" x="214.5" y="-92.3" font-family="Times,serif" font-size="14.00" fill="#0058ad">a 103 30</text>
</g>
<!-- T2809 -->
<g id="node2" class="node">
<title>T2809</title>
<polygon fill="none" stroke="#0058ad" points="0,-0.5 0,-29.5 1925,-29.5 1925,-0.5 0,-0.5"/>
<text text-anchor="middle" x="35" y="-11.3" font-family="Times,serif" font-size="14.00" fill="#0058ad">a 107 2</text>
<polyline fill="none" stroke="#0058ad" points="70,-0.5 70,-29.5 "/>
<text text-anchor="middle" x="388.5" y="-11.3" font-family="Times,serif" font-size="14.00" fill="#0058ad">r 103 [1 2 3 4 5 6 7 8 9 10 11 12 13 14 15 16 17 18 19 20 21 22 23 24 25 26 27 28 29]</text>
<polyline fill="none" stroke="#0058ad" points="707,-0.5 707,-29.5 "/>
<text text-anchor="middle" x="1025.5" y="-11.3" font-family="Times,serif" font-size="14.00" fill="#0058ad">r 103 [1 2 3 4 5 6 7 8 9 10 11 12 13 14 15 16 17 18 19 20 21 22 23 24 25 26 27 28 29]</text>
<polyline fill="none" stroke="#0058ad" points="1344,-0.5 1344,-29.5 "/>
<text text-anchor="middle" x="1516" y="-11.3" font-family="Times,serif" font-size="14.00" fill="#0058ad">r 106 [1 2 3 4 5 6 7 8 9 10 11 12 13 14 16 17]</text>
<polyline fill="none" stroke="#0058ad" points="1688,-0.5 1688,-29.5 "/>
<text text-anchor="middle" x="1727.5" y="-11.3" font-family="Times,serif" font-size="14.00" fill="#0058ad">a 106 19</text>
<polyline fill="none" stroke="#0058ad" points="1767,-0.5 1767,-29.5 "/>
<text text-anchor="middle" x="1806.5" y="-11.3" font-family="Times,serif" font-size="14.00" fill="#0058ad">r 107 [2]</text>
<polyline fill="none" stroke="#0058ad" points="1846,-0.5 1846,-29.5 "/>
<text text-anchor="middle" x="1885.5" y="-11.3" font-family="Times,serif" font-size="14.00" fill="#0058ad">a 106 20</text>
</g>
<!-- T2808&#45;&gt;T2809 -->
<g id="edge1" class="edge">
<title>T2808:f0&#45;&gt;T2809:f0</title>
<path fill="none" stroke="#5b00c0" d="M103.5,-96C64.54,-96 38.96,-76.14 35.03,-40.06"/>
<polygon fill="#5b00c0" stroke="#5b00c0" points="38.52,-39.8 34.5,-30 31.53,-40.17 38.52,-39.8"/>
<text text-anchor="middle" x="51" y="-51.8" font-family="Times,serif" font-size="14.00" fill="#5b00c0">rw</text>
</g>
<!-- T2809&#45;&gt;T2808 -->
<g id="edge2" class="edge">
<title>T2809:f1&#45;&gt;T2808:f1</title>
<path fill="none" stroke="#5b00c0" d="M388.5,-30C388.5,-92.64 328.12,-95.83 265.55,-95.99"/>
<polygon fill="#5b00c0" stroke="#5b00c0" points="265.5,-92.49 255.5,-96 265.5,-99.49 265.5,-92.49"/>
<text text-anchor="middle" x="395" y="-51.8" font-family="Times,serif" font-size="14.00" fill="#5b00c0">rw</text>
</g>
</g>
</svg>
