<?xml version="1.0" encoding="UTF-8" standalone="no"?>
<!DOCTYPE svg PUBLIC "-//W3C//DTD SVG 1.1//EN"
 "http://www.w3.org/Graphics/SVG/1.1/DTD/svg11.dtd">
<!-- Generated by graphviz version 2.43.0 (0)
 -->
<!-- Title: a_graph Pages: 1 -->
<svg width="1706pt" height="119pt"
 viewBox="0.00 0.00 1706.00 119.00" xmlns="http://www.w3.org/2000/svg" xmlns:xlink="http://www.w3.org/1999/xlink">
<g id="graph0" class="graph" transform="scale(1 1) rotate(0) translate(4 115)">
<title>a_graph</title>
<polygon fill="white" stroke="transparent" points="-4,4 -4,-115 1702,-115 1702,4 -4,4"/>
<!-- T3252 -->
<g id="node1" class="node">
<title>T3252</title>
<polygon fill="none" stroke="#0058ad" points="317,-81.5 317,-110.5 1698,-110.5 1698,-81.5 317,-81.5"/>
<text text-anchor="middle" x="352" y="-92.3" font-family="Times,serif" font-size="14.00" fill="#0058ad">a 125 3</text>
<polyline fill="none" stroke="#0058ad" points="387,-81.5 387,-110.5 "/>
<text text-anchor="middle" x="440" y="-92.3" font-family="Times,serif" font-size="14.00" fill="#0058ad">r 125 [1 2 3]</text>
<polyline fill="none" stroke="#0058ad" points="493,-81.5 493,-110.5 "/>
<text text-anchor="middle" x="658.5" y="-92.3" font-family="Times,serif" font-size="14.00" fill="#0058ad">r 123 [1 2 3 4 5 6 7 8 10 11 12 13 14 15 16]</text>
<polyline fill="none" stroke="#0058ad" points="824,-81.5 824,-110.5 "/>
<text text-anchor="middle" x="989.5" y="-92.3" font-family="Times,serif" font-size="14.00" fill="#0058ad">r 123 [1 2 3 4 5 6 7 8 10 11 12 13 14 15 16]</text>
<polyline fill="none" stroke="#0058ad" points="1155,-81.5 1155,-110.5 "/>
<text text-anchor="middle" x="1208" y="-92.3" font-family="Times,serif" font-size="14.00" fill="#0058ad">r 125 [1 2 3]</text>
<polyline fill="none" stroke="#0058ad" points="1261,-81.5 1261,-110.5 "/>
<text text-anchor="middle" x="1426.5" y="-92.3" font-family="Times,serif" font-size="14.00" fill="#0058ad">r 123 [1 2 3 4 5 6 7 8 10 11 12 13 14 15 16]</text>
<polyline fill="none" stroke="#0058ad" points="1592,-81.5 1592,-110.5 "/>
<text text-anchor="middle" x="1645" y="-92.3" font-family="Times,serif" font-size="14.00" fill="#0058ad">r 125 [1 2 3]</text>
</g>
<!-- T3253 -->
<g id="node2" class="node">
<title>T3253</title>
<polygon fill="none" stroke="#0058ad" points="0,-0.5 0,-29.5 1469,-29.5 1469,-0.5 0,-0.5"/>
<text text-anchor="middle" x="217" y="-11.3" font-family="Times,serif" font-size="14.00" fill="#0058ad">r 121 [1 2 3 4 5 6 7 8 9 10 11 12 14 15 19 20 21 22 24 25]</text>
<polyline fill="none" stroke="#0058ad" points="434,-0.5 434,-29.5 "/>
<text text-anchor="middle" x="473.5" y="-11.3" font-family="Times,serif" font-size="14.00" fill="#0058ad">a 123 17</text>
<polyline fill="none" stroke="#0058ad" points="513,-0.5 513,-29.5 "/>
<text text-anchor="middle" x="559" y="-11.3" font-family="Times,serif" font-size="14.00" fill="#0058ad">r 125 [1 2]</text>
<polyline fill="none" stroke="#0058ad" points="605,-0.5 605,-29.5 "/>
<text text-anchor="middle" x="644.5" y="-11.3" font-family="Times,serif" font-size="14.00" fill="#0058ad">a 121 26</text>
<polyline fill="none" stroke="#0058ad" points="684,-0.5 684,-29.5 "/>
<text text-anchor="middle" x="723.5" y="-11.3" font-family="Times,serif" font-size="14.00" fill="#0058ad">a 121 27</text>
<polyline fill="none" stroke="#0058ad" points="763,-0.5 763,-29.5 "/>
<text text-anchor="middle" x="939.5" y="-11.3" font-family="Times,serif" font-size="14.00" fill="#0058ad">r 123 [1 2 3 4 5 6 7 8 10 11 12 13 14 15 16 17]</text>
<polyline fill="none" stroke="#0058ad" points="1116,-0.5 1116,-29.5 "/>
<text text-anchor="middle" x="1292.5" y="-11.3" font-family="Times,serif" font-size="14.00" fill="#0058ad">r 123 [1 2 3 4 5 6 7 8 10 11 12 13 14 15 16 17]</text>
</g>
<!-- T3252&#45;&gt;T3253 -->
<g id="edge1" class="edge">
<title>T3252:f2&#45;&gt;T3253:f1</title>
<path fill="none" stroke="#5b00c0" d="M658.5,-81C658.5,-44.78 527.63,-81.51 496.5,-63 484.49,-55.86 477.21,-50.65 474.6,-40.18"/>
<polygon fill="#5b00c0" stroke="#5b00c0" points="478.05,-39.57 473.5,-30 471.09,-40.32 478.05,-39.57"/>
<text text-anchor="middle" x="506" y="-51.8" font-family="Times,serif" font-size="14.00" fill="#5b00c0">rw</text>
</g>
<!-- T3253&#45;&gt;T3252 -->
<g id="edge2" class="edge">
<title>T3253:f2&#45;&gt;T3252:f0</title>
<path fill="none" stroke="#5b00c0" d="M558.5,-30C558.5,-54.09 537.85,-54.02 515.5,-63 500.88,-68.87 390.27,-64.41 359.45,-74.67"/>
<polygon fill="#5b00c0" stroke="#5b00c0" points="357.14,-72.03 351.5,-81 361.5,-77.51 357.14,-72.03"/>
<text text-anchor="middle" x="561" y="-51.8" font-family="Times,serif" font-size="14.00" fill="#5b00c0">rw</text>
</g>
</g>
</svg>
