<?xml version="1.0" encoding="UTF-8" standalone="no"?>
<!DOCTYPE svg PUBLIC "-//W3C//DTD SVG 1.1//EN"
 "http://www.w3.org/Graphics/SVG/1.1/DTD/svg11.dtd">
<!-- Generated by graphviz version 2.43.0 (0)
 -->
<!-- Title: a_graph Pages: 1 -->
<svg width="814pt" height="119pt"
 viewBox="0.00 0.00 814.00 119.00" xmlns="http://www.w3.org/2000/svg" xmlns:xlink="http://www.w3.org/1999/xlink">
<g id="graph0" class="graph" transform="scale(1 1) rotate(0) translate(4 115)">
<title>a_graph</title>
<polygon fill="white" stroke="transparent" points="-4,4 -4,-115 810,-115 810,4 -4,4"/>
<!-- T2374 -->
<g id="node1" class="node">
<title>T2374</title>
<polygon fill="none" stroke="#0058ad" points="218,-81.5 218,-110.5 652,-110.5 652,-81.5 218,-81.5"/>
<text text-anchor="middle" x="318" y="-92.3" font-family="Times,serif" font-size="14.00" fill="#0058ad">r 91 [1 2 3 4 5 6 7 8 9 10]</text>
<polyline fill="none" stroke="#0058ad" points="418,-81.5 418,-110.5 "/>
<text text-anchor="middle" x="500" y="-92.3" font-family="Times,serif" font-size="14.00" fill="#0058ad">r 89 [1 2 3 5 6 7 8 9]</text>
<polyline fill="none" stroke="#0058ad" points="582,-81.5 582,-110.5 "/>
<text text-anchor="middle" x="617" y="-92.3" font-family="Times,serif" font-size="14.00" fill="#0058ad">a 89 10</text>
</g>
<!-- T2375 -->
<g id="node2" class="node">
<title>T2375</title>
<polygon fill="none" stroke="#0058ad" points="0,-0.5 0,-29.5 806,-29.5 806,-0.5 0,-0.5"/>
<text text-anchor="middle" x="75.5" y="-11.3" font-family="Times,serif" font-size="14.00" fill="#0058ad">r 92 [1 2 3 4 5 6 7]</text>
<polyline fill="none" stroke="#0058ad" points="151,-0.5 151,-29.5 "/>
<text text-anchor="middle" x="251" y="-11.3" font-family="Times,serif" font-size="14.00" fill="#0058ad">r 91 [1 2 3 4 5 6 7 8 9 10]</text>
<polyline fill="none" stroke="#0058ad" points="351,-0.5 351,-29.5 "/>
<text text-anchor="middle" x="386" y="-11.3" font-family="Times,serif" font-size="14.00" fill="#0058ad">a 91 11</text>
<polyline fill="none" stroke="#0058ad" points="421,-0.5 421,-29.5 "/>
<text text-anchor="middle" x="503" y="-11.3" font-family="Times,serif" font-size="14.00" fill="#0058ad">r 89 [1 2 3 5 6 7 8 9]</text>
<polyline fill="none" stroke="#0058ad" points="585,-0.5 585,-29.5 "/>
<text text-anchor="middle" x="620" y="-11.3" font-family="Times,serif" font-size="14.00" fill="#0058ad">a 91 12</text>
<polyline fill="none" stroke="#0058ad" points="655,-0.5 655,-29.5 "/>
<text text-anchor="middle" x="730.5" y="-11.3" font-family="Times,serif" font-size="14.00" fill="#0058ad">r 92 [1 2 3 4 5 6 7]</text>
</g>
<!-- T2374&#45;&gt;T2375 -->
<g id="edge1" class="edge">
<title>T2374:f0&#45;&gt;T2375:f2</title>
<path fill="none" stroke="#5b00c0" d="M318,-81C318,-47.21 372.41,-63.29 383.89,-40.02"/>
<polygon fill="#5b00c0" stroke="#5b00c0" points="387.36,-40.51 386,-30 380.51,-39.06 387.36,-40.51"/>
<text text-anchor="middle" x="386.5" y="-51.8" font-family="Times,serif" font-size="14.00" fill="#5b00c0">rw</text>
</g>
<!-- T2375&#45;&gt;T2374 -->
<g id="edge2" class="edge">
<title>T2375:f3&#45;&gt;T2374:f2</title>
<path fill="none" stroke="#5b00c0" d="M503,-30C503,-81.6 601.53,-33.36 615.39,-70.92"/>
<polygon fill="#5b00c0" stroke="#5b00c0" points="611.96,-71.68 617,-81 618.88,-70.57 611.96,-71.68"/>
<text text-anchor="middle" x="618.5" y="-51.8" font-family="Times,serif" font-size="14.00" fill="#5b00c0">rw</text>
</g>
</g>
</svg>
