<?xml version="1.0" encoding="UTF-8" standalone="no"?>
<!DOCTYPE svg PUBLIC "-//W3C//DTD SVG 1.1//EN"
 "http://www.w3.org/Graphics/SVG/1.1/DTD/svg11.dtd">
<!-- Generated by graphviz version 2.43.0 (0)
 -->
<!-- Title: a_graph Pages: 1 -->
<svg width="2344pt" height="119pt"
 viewBox="0.00 0.00 2344.00 119.00" xmlns="http://www.w3.org/2000/svg" xmlns:xlink="http://www.w3.org/1999/xlink">
<g id="graph0" class="graph" transform="scale(1 1) rotate(0) translate(4 115)">
<title>a_graph</title>
<polygon fill="white" stroke="transparent" points="-4,4 -4,-115 2340,-115 2340,4 -4,4"/>
<!-- T2948 -->
<g id="node1" class="node">
<title>T2948</title>
<polygon fill="none" stroke="#0058ad" points="1131,-81.5 1131,-110.5 2336,-110.5 2336,-81.5 1131,-81.5"/>
<text text-anchor="middle" x="1166" y="-92.3" font-family="Times,serif" font-size="14.00" fill="#0058ad">a 112 1</text>
<polyline fill="none" stroke="#0058ad" points="1201,-81.5 1201,-110.5 "/>
<text text-anchor="middle" x="1240.5" y="-92.3" font-family="Times,serif" font-size="14.00" fill="#0058ad">a 111 10</text>
<polyline fill="none" stroke="#0058ad" points="1280,-81.5 1280,-110.5 "/>
<text text-anchor="middle" x="1598.5" y="-92.3" font-family="Times,serif" font-size="14.00" fill="#0058ad">r 110 [1 2 3 4 5 6 7 8 9 10 11 12 13 14 15 17 18 19 20 21 22 23 24 25 26 27 28 29 16]</text>
<polyline fill="none" stroke="#0058ad" points="1917,-81.5 1917,-110.5 "/>
<text text-anchor="middle" x="1952" y="-92.3" font-family="Times,serif" font-size="14.00" fill="#0058ad">r 113 []</text>
<polyline fill="none" stroke="#0058ad" points="1987,-81.5 1987,-110.5 "/>
<text text-anchor="middle" x="2022" y="-92.3" font-family="Times,serif" font-size="14.00" fill="#0058ad">a 113 1</text>
<polyline fill="none" stroke="#0058ad" points="2057,-81.5 2057,-110.5 "/>
<text text-anchor="middle" x="2092" y="-92.3" font-family="Times,serif" font-size="14.00" fill="#0058ad">a 113 2</text>
<polyline fill="none" stroke="#0058ad" points="2127,-81.5 2127,-110.5 "/>
<text text-anchor="middle" x="2231.5" y="-92.3" font-family="Times,serif" font-size="14.00" fill="#0058ad">r 111 [1 2 3 4 5 6 7 8 9 10]</text>
</g>
<!-- T2947 -->
<g id="node2" class="node">
<title>T2947</title>
<polygon fill="none" stroke="#0058ad" points="0,-0.5 0,-29.5 2271,-29.5 2271,-0.5 0,-0.5"/>
<text text-anchor="middle" x="323" y="-11.3" font-family="Times,serif" font-size="14.00" fill="#0058ad">r 108 [1 3 4 5 6 7 8 9 10 12 14 15 16 17 18 19 20 21 22 23 24 27 28 29 30 31 32 25 26]</text>
<polyline fill="none" stroke="#0058ad" points="646,-0.5 646,-29.5 "/>
<text text-anchor="middle" x="685.5" y="-11.3" font-family="Times,serif" font-size="14.00" fill="#0058ad">a 110 30</text>
<polyline fill="none" stroke="#0058ad" points="725,-0.5 725,-29.5 "/>
<text text-anchor="middle" x="1054.5" y="-11.3" font-family="Times,serif" font-size="14.00" fill="#0058ad">r 110 [1 2 3 4 5 6 7 8 9 10 11 12 13 14 15 17 18 19 20 21 22 23 24 25 26 27 28 29 16 30]</text>
<polyline fill="none" stroke="#0058ad" points="1384,-0.5 1384,-29.5 "/>
<text text-anchor="middle" x="1713.5" y="-11.3" font-family="Times,serif" font-size="14.00" fill="#0058ad">r 110 [1 2 3 4 5 6 7 8 9 10 11 12 13 14 15 17 18 19 20 21 22 23 24 25 26 27 28 29 16 30]</text>
<polyline fill="none" stroke="#0058ad" points="2043,-0.5 2043,-29.5 "/>
<text text-anchor="middle" x="2078" y="-11.3" font-family="Times,serif" font-size="14.00" fill="#0058ad">r 112 []</text>
<polyline fill="none" stroke="#0058ad" points="2113,-0.5 2113,-29.5 "/>
<text text-anchor="middle" x="2152.5" y="-11.3" font-family="Times,serif" font-size="14.00" fill="#0058ad">a 110 31</text>
<polyline fill="none" stroke="#0058ad" points="2192,-0.5 2192,-29.5 "/>
<text text-anchor="middle" x="2231.5" y="-11.3" font-family="Times,serif" font-size="14.00" fill="#0058ad">a 110 32</text>
</g>
<!-- T2948&#45;&gt;T2947 -->
<g id="edge1" class="edge">
<title>T2948:f2&#45;&gt;T2947:f1</title>
<path fill="none" stroke="#5b00c0" d="M1598.5,-81C1598.5,58.44 1425.62,-57.43 1286.5,-48 1271.11,-46.96 771.23,-46.73 695.16,-33.54"/>
<polygon fill="#5b00c0" stroke="#5b00c0" points="696.09,-30.15 685.5,-30 693.69,-36.72 696.09,-30.15"/>
<text text-anchor="middle" x="1607" y="-51.8" font-family="Times,serif" font-size="14.00" fill="#5b00c0">rw</text>
</g>
<!-- T2947&#45;&gt;T2948 -->
<g id="edge2" class="edge">
<title>T2947:f4&#45;&gt;T2948:f0</title>
<path fill="none" stroke="#5b00c0" d="M2078.5,-30C2078.5,-52.64 1285.8,-44.09 1263.5,-48 1221.94,-55.28 1174.1,-38.27 1166.53,-70.99"/>
<polygon fill="#5b00c0" stroke="#5b00c0" points="1163.04,-70.69 1165.5,-81 1170.01,-71.41 1163.04,-70.69"/>
<text text-anchor="middle" x="1273" y="-51.8" font-family="Times,serif" font-size="14.00" fill="#5b00c0">rw</text>
</g>
</g>
</svg>
