<?xml version="1.0" encoding="UTF-8" standalone="no"?>
<!DOCTYPE svg PUBLIC "-//W3C//DTD SVG 1.1//EN"
 "http://www.w3.org/Graphics/SVG/1.1/DTD/svg11.dtd">
<!-- Generated by graphviz version 2.43.0 (0)
 -->
<!-- Title: a_graph Pages: 1 -->
<svg width="606pt" height="119pt"
 viewBox="0.00 0.00 606.00 119.00" xmlns="http://www.w3.org/2000/svg" xmlns:xlink="http://www.w3.org/1999/xlink">
<g id="graph0" class="graph" transform="scale(1 1) rotate(0) translate(4 115)">
<title>a_graph</title>
<polygon fill="white" stroke="transparent" points="-4,4 -4,-115 602,-115 602,4 -4,4"/>
<!-- T1260 -->
<g id="node1" class="node">
<title>T1260</title>
<polygon fill="none" stroke="#0058ad" points="0,-81.5 0,-110.5 530,-110.5 530,-81.5 0,-81.5"/>
<text text-anchor="middle" x="46" y="-92.3" font-family="Times,serif" font-size="14.00" fill="#0058ad">r 554 [1 2]</text>
<polyline fill="none" stroke="#0058ad" points="92,-81.5 92,-110.5 "/>
<text text-anchor="middle" x="127" y="-92.3" font-family="Times,serif" font-size="14.00" fill="#0058ad">r 558 []</text>
<polyline fill="none" stroke="#0058ad" points="162,-81.5 162,-110.5 "/>
<text text-anchor="middle" x="197" y="-92.3" font-family="Times,serif" font-size="14.00" fill="#0058ad">r 558 []</text>
<polyline fill="none" stroke="#0058ad" points="232,-81.5 232,-110.5 "/>
<text text-anchor="middle" x="271.5" y="-92.3" font-family="Times,serif" font-size="14.00" fill="#0058ad">r 556 [1]</text>
<polyline fill="none" stroke="#0058ad" points="311,-81.5 311,-110.5 "/>
<text text-anchor="middle" x="346" y="-92.3" font-family="Times,serif" font-size="14.00" fill="#0058ad">a 558 1</text>
<polyline fill="none" stroke="#0058ad" points="381,-81.5 381,-110.5 "/>
<text text-anchor="middle" x="416" y="-92.3" font-family="Times,serif" font-size="14.00" fill="#0058ad">a 558 2</text>
<polyline fill="none" stroke="#0058ad" points="451,-81.5 451,-110.5 "/>
<text text-anchor="middle" x="490.5" y="-92.3" font-family="Times,serif" font-size="14.00" fill="#0058ad">r 556 [1]</text>
</g>
<!-- T1261 -->
<g id="node2" class="node">
<title>T1261</title>
<polygon fill="none" stroke="#0058ad" points="38,-0.5 38,-29.5 598,-29.5 598,-0.5 38,-0.5"/>
<text text-anchor="middle" x="73" y="-11.3" font-family="Times,serif" font-size="14.00" fill="#0058ad">a 553 3</text>
<polyline fill="none" stroke="#0058ad" points="108,-0.5 108,-29.5 "/>
<text text-anchor="middle" x="143" y="-11.3" font-family="Times,serif" font-size="14.00" fill="#0058ad">a 556 2</text>
<polyline fill="none" stroke="#0058ad" points="178,-0.5 178,-29.5 "/>
<text text-anchor="middle" x="213" y="-11.3" font-family="Times,serif" font-size="14.00" fill="#0058ad">r 557 []</text>
<polyline fill="none" stroke="#0058ad" points="248,-0.5 248,-29.5 "/>
<text text-anchor="middle" x="283" y="-11.3" font-family="Times,serif" font-size="14.00" fill="#0058ad">a 556 3</text>
<polyline fill="none" stroke="#0058ad" points="318,-0.5 318,-29.5 "/>
<text text-anchor="middle" x="353" y="-11.3" font-family="Times,serif" font-size="14.00" fill="#0058ad">a 557 1</text>
<polyline fill="none" stroke="#0058ad" points="388,-0.5 388,-29.5 "/>
<text text-anchor="middle" x="423" y="-11.3" font-family="Times,serif" font-size="14.00" fill="#0058ad">a 557 2</text>
<polyline fill="none" stroke="#0058ad" points="458,-0.5 458,-29.5 "/>
<text text-anchor="middle" x="493" y="-11.3" font-family="Times,serif" font-size="14.00" fill="#0058ad">a 557 3</text>
<polyline fill="none" stroke="#0058ad" points="528,-0.5 528,-29.5 "/>
<text text-anchor="middle" x="563" y="-11.3" font-family="Times,serif" font-size="14.00" fill="#0058ad">r 558 []</text>
</g>
<!-- T1260&#45;&gt;T1261 -->
<g id="edge1" class="edge">
<title>T1260:f3&#45;&gt;T1261:f1</title>
<path fill="none" stroke="#5b00c0" d="M272,-81C272,-23.2 158.62,-83.14 144.45,-40.06"/>
<polygon fill="#5b00c0" stroke="#5b00c0" points="147.89,-39.4 143,-30 140.96,-40.4 147.89,-39.4"/>
<text text-anchor="middle" x="275.5" y="-51.8" font-family="Times,serif" font-size="14.00" fill="#5b00c0">rw</text>
</g>
<!-- T1261&#45;&gt;T1260 -->
<g id="edge2" class="edge">
<title>T1261:f7&#45;&gt;T1260:f4</title>
<path fill="none" stroke="#5b00c0" d="M563,-30C563,-125.4 361.81,7.49 346.87,-70.96"/>
<polygon fill="#5b00c0" stroke="#5b00c0" points="343.38,-70.73 346,-81 350.35,-71.34 343.38,-70.73"/>
<text text-anchor="middle" x="569.5" y="-51.8" font-family="Times,serif" font-size="14.00" fill="#5b00c0">rw</text>
</g>
</g>
</svg>
