<?xml version="1.0" encoding="UTF-8" standalone="no"?>
<!DOCTYPE svg PUBLIC "-//W3C//DTD SVG 1.1//EN"
 "http://www.w3.org/Graphics/SVG/1.1/DTD/svg11.dtd">
<!-- Generated by graphviz version 2.43.0 (0)
 -->
<!-- Title: a_graph Pages: 1 -->
<svg width="629pt" height="119pt"
 viewBox="0.00 0.00 629.00 119.00" xmlns="http://www.w3.org/2000/svg" xmlns:xlink="http://www.w3.org/1999/xlink">
<g id="graph0" class="graph" transform="scale(1 1) rotate(0) translate(4 115)">
<title>a_graph</title>
<polygon fill="white" stroke="transparent" points="-4,4 -4,-115 625,-115 625,4 -4,4"/>
<!-- T55 -->
<g id="node1" class="node">
<title>T55</title>
<polygon fill="none" stroke="#0058ad" points="0,-81.5 0,-110.5 621,-110.5 621,-81.5 0,-81.5"/>
<text text-anchor="middle" x="41.5" y="-92.3" font-family="Times,serif" font-size="14.00" fill="#0058ad">r 23 [1 2]</text>
<polyline fill="none" stroke="#0058ad" points="83,-81.5 83,-110.5 "/>
<text text-anchor="middle" x="118" y="-92.3" font-family="Times,serif" font-size="14.00" fill="#0058ad">r 19 [1]</text>
<polyline fill="none" stroke="#0058ad" points="153,-81.5 153,-110.5 "/>
<text text-anchor="middle" x="194.5" y="-92.3" font-family="Times,serif" font-size="14.00" fill="#0058ad">r 23 [1 2]</text>
<polyline fill="none" stroke="#0058ad" points="236,-81.5 236,-110.5 "/>
<text text-anchor="middle" x="277.5" y="-92.3" font-family="Times,serif" font-size="14.00" fill="#0058ad">r 23 [1 2]</text>
<polyline fill="none" stroke="#0058ad" points="319,-81.5 319,-110.5 "/>
<text text-anchor="middle" x="360.5" y="-92.3" font-family="Times,serif" font-size="14.00" fill="#0058ad">r 21 [1 2]</text>
<polyline fill="none" stroke="#0058ad" points="402,-81.5 402,-110.5 "/>
<text text-anchor="middle" x="432.5" y="-92.3" font-family="Times,serif" font-size="14.00" fill="#0058ad">a 23 3</text>
<polyline fill="none" stroke="#0058ad" points="463,-81.5 463,-110.5 "/>
<text text-anchor="middle" x="493.5" y="-92.3" font-family="Times,serif" font-size="14.00" fill="#0058ad">a 22 2</text>
<polyline fill="none" stroke="#0058ad" points="524,-81.5 524,-110.5 "/>
<text text-anchor="middle" x="572.5" y="-92.3" font-family="Times,serif" font-size="14.00" fill="#0058ad">r 23 [1 2 3]</text>
</g>
<!-- T56 -->
<g id="node2" class="node">
<title>T56</title>
<polygon fill="none" stroke="#0058ad" points="141.5,-0.5 141.5,-29.5 573.5,-29.5 573.5,-0.5 141.5,-0.5"/>
<text text-anchor="middle" x="183" y="-11.3" font-family="Times,serif" font-size="14.00" fill="#0058ad">r 21 [1 2]</text>
<polyline fill="none" stroke="#0058ad" points="224.5,-0.5 224.5,-29.5 "/>
<text text-anchor="middle" x="266" y="-11.3" font-family="Times,serif" font-size="14.00" fill="#0058ad">r 21 [1 2]</text>
<polyline fill="none" stroke="#0058ad" points="307.5,-0.5 307.5,-29.5 "/>
<text text-anchor="middle" x="338" y="-11.3" font-family="Times,serif" font-size="14.00" fill="#0058ad">a 21 3</text>
<polyline fill="none" stroke="#0058ad" points="368.5,-0.5 368.5,-29.5 "/>
<text text-anchor="middle" x="399" y="-11.3" font-family="Times,serif" font-size="14.00" fill="#0058ad">r 24 []</text>
<polyline fill="none" stroke="#0058ad" points="429.5,-0.5 429.5,-29.5 "/>
<text text-anchor="middle" x="471" y="-11.3" font-family="Times,serif" font-size="14.00" fill="#0058ad">r 23 [1 2]</text>
<polyline fill="none" stroke="#0058ad" points="512.5,-0.5 512.5,-29.5 "/>
<text text-anchor="middle" x="543" y="-11.3" font-family="Times,serif" font-size="14.00" fill="#0058ad">a 25 1</text>
</g>
<!-- T55&#45;&gt;T56 -->
<g id="edge1" class="edge">
<title>T55:f4&#45;&gt;T56:f2</title>
<path fill="none" stroke="#5b00c0" d="M360.5,-81C360.5,-60.02 344.13,-55.84 339.01,-40.11"/>
<polygon fill="#5b00c0" stroke="#5b00c0" points="342.44,-39.37 337.5,-30 335.52,-40.41 342.44,-39.37"/>
<text text-anchor="middle" x="365" y="-51.8" font-family="Times,serif" font-size="14.00" fill="#5b00c0">rw</text>
</g>
<!-- T56&#45;&gt;T55 -->
<g id="edge2" class="edge">
<title>T56:f4&#45;&gt;T55:f5</title>
<path fill="none" stroke="#5b00c0" d="M471.5,-30C471.5,-54.52 442.7,-53.49 434.6,-70.82"/>
<polygon fill="#5b00c0" stroke="#5b00c0" points="431.09,-70.5 432.5,-81 437.95,-71.91 431.09,-70.5"/>
<text text-anchor="middle" x="472" y="-51.8" font-family="Times,serif" font-size="14.00" fill="#5b00c0">rw</text>
</g>
</g>
</svg>
