<?xml version="1.0" encoding="UTF-8" standalone="no"?>
<!DOCTYPE svg PUBLIC "-//W3C//DTD SVG 1.1//EN"
 "http://www.w3.org/Graphics/SVG/1.1/DTD/svg11.dtd">
<!-- Generated by graphviz version 2.43.0 (0)
 -->
<!-- Title: a_graph Pages: 1 -->
<svg width="586pt" height="119pt"
 viewBox="0.00 0.00 586.00 119.00" xmlns="http://www.w3.org/2000/svg" xmlns:xlink="http://www.w3.org/1999/xlink">
<g id="graph0" class="graph" transform="scale(1 1) rotate(0) translate(4 115)">
<title>a_graph</title>
<polygon fill="white" stroke="transparent" points="-4,4 -4,-115 582,-115 582,4 -4,4"/>
<!-- T792 -->
<g id="node1" class="node">
<title>T792</title>
<polygon fill="none" stroke="#0058ad" points="0,-81.5 0,-110.5 578,-110.5 578,-81.5 0,-81.5"/>
<text text-anchor="middle" x="46" y="-92.3" font-family="Times,serif" font-size="14.00" fill="#0058ad">r 353 [1 2]</text>
<polyline fill="none" stroke="#0058ad" points="92,-81.5 92,-110.5 "/>
<text text-anchor="middle" x="127" y="-92.3" font-family="Times,serif" font-size="14.00" fill="#0058ad">a 351 2</text>
<polyline fill="none" stroke="#0058ad" points="162,-81.5 162,-110.5 "/>
<text text-anchor="middle" x="208" y="-92.3" font-family="Times,serif" font-size="14.00" fill="#0058ad">r 353 [1 2]</text>
<polyline fill="none" stroke="#0058ad" points="254,-81.5 254,-110.5 "/>
<text text-anchor="middle" x="289" y="-92.3" font-family="Times,serif" font-size="14.00" fill="#0058ad">r 352 []</text>
<polyline fill="none" stroke="#0058ad" points="324,-81.5 324,-110.5 "/>
<text text-anchor="middle" x="370" y="-92.3" font-family="Times,serif" font-size="14.00" fill="#0058ad">r 353 [1 2]</text>
<polyline fill="none" stroke="#0058ad" points="416,-81.5 416,-110.5 "/>
<text text-anchor="middle" x="451" y="-92.3" font-family="Times,serif" font-size="14.00" fill="#0058ad">a 348 2</text>
<polyline fill="none" stroke="#0058ad" points="486,-81.5 486,-110.5 "/>
<text text-anchor="middle" x="532" y="-92.3" font-family="Times,serif" font-size="14.00" fill="#0058ad">r 348 [1 2]</text>
</g>
<!-- T793 -->
<g id="node2" class="node">
<title>T793</title>
<polygon fill="none" stroke="#0058ad" points="55.5,-0.5 55.5,-29.5 416.5,-29.5 416.5,-0.5 55.5,-0.5"/>
<text text-anchor="middle" x="90.5" y="-11.3" font-family="Times,serif" font-size="14.00" fill="#0058ad">a 353 3</text>
<polyline fill="none" stroke="#0058ad" points="125.5,-0.5 125.5,-29.5 "/>
<text text-anchor="middle" x="178.5" y="-11.3" font-family="Times,serif" font-size="14.00" fill="#0058ad">r 353 [1 2 3]</text>
<polyline fill="none" stroke="#0058ad" points="231.5,-0.5 231.5,-29.5 "/>
<text text-anchor="middle" x="284.5" y="-11.3" font-family="Times,serif" font-size="14.00" fill="#0058ad">r 353 [1 2 3]</text>
<polyline fill="none" stroke="#0058ad" points="337.5,-0.5 337.5,-29.5 "/>
<text text-anchor="middle" x="377" y="-11.3" font-family="Times,serif" font-size="14.00" fill="#0058ad">r 348 [1]</text>
</g>
<!-- T792&#45;&gt;T793 -->
<g id="edge1" class="edge">
<title>T792:f0&#45;&gt;T793:f0</title>
<path fill="none" stroke="#5b00c0" d="M46,-81C46,-55.04 79.09,-58.26 87.88,-40.06"/>
<polygon fill="#5b00c0" stroke="#5b00c0" points="91.36,-40.51 90,-30 84.51,-39.06 91.36,-40.51"/>
<text text-anchor="middle" x="90.5" y="-51.8" font-family="Times,serif" font-size="14.00" fill="#5b00c0">rw</text>
</g>
<!-- T793&#45;&gt;T792 -->
<g id="edge2" class="edge">
<title>T793:f3&#45;&gt;T792:f5</title>
<path fill="none" stroke="#5b00c0" d="M418,-15C447.34,-15 450.59,-41.57 450.96,-70.65"/>
<polygon fill="#5b00c0" stroke="#5b00c0" points="447.46,-71.02 451,-81 454.46,-70.98 447.46,-71.02"/>
<text text-anchor="middle" x="459.5" y="-51.8" font-family="Times,serif" font-size="14.00" fill="#5b00c0">rw</text>
</g>
</g>
</svg>
