<?xml version="1.0" encoding="UTF-8" standalone="no"?>
<!DOCTYPE svg PUBLIC "-//W3C//DTD SVG 1.1//EN"
 "http://www.w3.org/Graphics/SVG/1.1/DTD/svg11.dtd">
<!-- Generated by graphviz version 2.43.0 (0)
 -->
<!-- Title: a_graph Pages: 1 -->
<svg width="650pt" height="119pt"
 viewBox="0.00 0.00 650.00 119.00" xmlns="http://www.w3.org/2000/svg" xmlns:xlink="http://www.w3.org/1999/xlink">
<g id="graph0" class="graph" transform="scale(1 1) rotate(0) translate(4 115)">
<title>a_graph</title>
<polygon fill="white" stroke="transparent" points="-4,4 -4,-115 646,-115 646,4 -4,4"/>
<!-- T934 -->
<g id="node1" class="node">
<title>T934</title>
<polygon fill="none" stroke="#0058ad" points="0,-81.5 0,-110.5 636,-110.5 636,-81.5 0,-81.5"/>
<text text-anchor="middle" x="39.5" y="-92.3" font-family="Times,serif" font-size="14.00" fill="#0058ad">r 414 [1]</text>
<polyline fill="none" stroke="#0058ad" points="79,-81.5 79,-110.5 "/>
<text text-anchor="middle" x="114" y="-92.3" font-family="Times,serif" font-size="14.00" fill="#0058ad">a 410 2</text>
<polyline fill="none" stroke="#0058ad" points="149,-81.5 149,-110.5 "/>
<text text-anchor="middle" x="188.5" y="-92.3" font-family="Times,serif" font-size="14.00" fill="#0058ad">r 414 [1]</text>
<polyline fill="none" stroke="#0058ad" points="228,-81.5 228,-110.5 "/>
<text text-anchor="middle" x="263" y="-92.3" font-family="Times,serif" font-size="14.00" fill="#0058ad">a 414 2</text>
<polyline fill="none" stroke="#0058ad" points="298,-81.5 298,-110.5 "/>
<text text-anchor="middle" x="333" y="-92.3" font-family="Times,serif" font-size="14.00" fill="#0058ad">a 414 3</text>
<polyline fill="none" stroke="#0058ad" points="368,-81.5 368,-110.5 "/>
<text text-anchor="middle" x="414" y="-92.3" font-family="Times,serif" font-size="14.00" fill="#0058ad">r 410 [1 2]</text>
<polyline fill="none" stroke="#0058ad" points="460,-81.5 460,-110.5 "/>
<text text-anchor="middle" x="513" y="-92.3" font-family="Times,serif" font-size="14.00" fill="#0058ad">r 414 [1 2 3]</text>
<polyline fill="none" stroke="#0058ad" points="566,-81.5 566,-110.5 "/>
<text text-anchor="middle" x="601" y="-92.3" font-family="Times,serif" font-size="14.00" fill="#0058ad">r 413 []</text>
</g>
<!-- T935 -->
<g id="node2" class="node">
<title>T935</title>
<polygon fill="none" stroke="#0058ad" points="64,-0.5 64,-29.5 642,-29.5 642,-0.5 64,-0.5"/>
<text text-anchor="middle" x="99" y="-11.3" font-family="Times,serif" font-size="14.00" fill="#0058ad">r 413 []</text>
<polyline fill="none" stroke="#0058ad" points="134,-0.5 134,-29.5 "/>
<text text-anchor="middle" x="169" y="-11.3" font-family="Times,serif" font-size="14.00" fill="#0058ad">a 413 1</text>
<polyline fill="none" stroke="#0058ad" points="204,-0.5 204,-29.5 "/>
<text text-anchor="middle" x="243.5" y="-11.3" font-family="Times,serif" font-size="14.00" fill="#0058ad">r 414 [1]</text>
<polyline fill="none" stroke="#0058ad" points="283,-0.5 283,-29.5 "/>
<text text-anchor="middle" x="322.5" y="-11.3" font-family="Times,serif" font-size="14.00" fill="#0058ad">r 410 [1]</text>
<polyline fill="none" stroke="#0058ad" points="362,-0.5 362,-29.5 "/>
<text text-anchor="middle" x="397" y="-11.3" font-family="Times,serif" font-size="14.00" fill="#0058ad">r 415 []</text>
<polyline fill="none" stroke="#0058ad" points="432,-0.5 432,-29.5 "/>
<text text-anchor="middle" x="467" y="-11.3" font-family="Times,serif" font-size="14.00" fill="#0058ad">a 413 2</text>
<polyline fill="none" stroke="#0058ad" points="502,-0.5 502,-29.5 "/>
<text text-anchor="middle" x="537" y="-11.3" font-family="Times,serif" font-size="14.00" fill="#0058ad">a 413 3</text>
<polyline fill="none" stroke="#0058ad" points="572,-0.5 572,-29.5 "/>
<text text-anchor="middle" x="607" y="-11.3" font-family="Times,serif" font-size="14.00" fill="#0058ad">a 415 1</text>
</g>
<!-- T934&#45;&gt;T935 -->
<g id="edge1" class="edge">
<title>T934:f7&#45;&gt;T935:f1</title>
<path fill="none" stroke="#5b00c0" d="M601,-81C601,-58.86 238.52,-54.77 177.63,-35.66"/>
<polygon fill="#5b00c0" stroke="#5b00c0" points="179.28,-32.56 169,-30 175.44,-38.41 179.28,-32.56"/>
<text text-anchor="middle" x="505.5" y="-51.8" font-family="Times,serif" font-size="14.00" fill="#5b00c0">rw</text>
</g>
<!-- T935&#45;&gt;T934 -->
<g id="edge2" class="edge">
<title>T935:f3&#45;&gt;T934:f1</title>
<path fill="none" stroke="#5b00c0" d="M322,-30C322,-32.59 164.88,-66.96 123.75,-77.86"/>
<polygon fill="#5b00c0" stroke="#5b00c0" points="122.45,-74.6 114,-81 124.59,-81.27 122.45,-74.6"/>
<text text-anchor="middle" x="258.5" y="-51.8" font-family="Times,serif" font-size="14.00" fill="#5b00c0">rw</text>
</g>
</g>
</svg>
