<?xml version="1.0" encoding="UTF-8" standalone="no"?>
<!DOCTYPE svg PUBLIC "-//W3C//DTD SVG 1.1//EN"
 "http://www.w3.org/Graphics/SVG/1.1/DTD/svg11.dtd">
<!-- Generated by graphviz version 2.43.0 (0)
 -->
<!-- Title: a_graph Pages: 1 -->
<svg width="1360pt" height="119pt"
 viewBox="0.00 0.00 1360.00 119.00" xmlns="http://www.w3.org/2000/svg" xmlns:xlink="http://www.w3.org/1999/xlink">
<g id="graph0" class="graph" transform="scale(1 1) rotate(0) translate(4 115)">
<title>a_graph</title>
<polygon fill="white" stroke="transparent" points="-4,4 -4,-115 1356,-115 1356,4 -4,4"/>
<!-- T175 -->
<g id="node1" class="node">
<title>T175</title>
<polygon fill="none" stroke="#0058ad" points="339,-81.5 339,-110.5 635,-110.5 635,-81.5 339,-81.5"/>
<text text-anchor="middle" x="369.5" y="-92.3" font-family="Times,serif" font-size="14.00" fill="#0058ad">a 6 32</text>
<polyline fill="none" stroke="#0058ad" points="400,-81.5 400,-110.5 "/>
<text text-anchor="middle" x="426" y="-92.3" font-family="Times,serif" font-size="14.00" fill="#0058ad">a 9 1</text>
<polyline fill="none" stroke="#0058ad" points="452,-81.5 452,-110.5 "/>
<text text-anchor="middle" x="482.5" y="-92.3" font-family="Times,serif" font-size="14.00" fill="#0058ad">r 9 [1]</text>
<polyline fill="none" stroke="#0058ad" points="513,-81.5 513,-110.5 "/>
<text text-anchor="middle" x="543.5" y="-92.3" font-family="Times,serif" font-size="14.00" fill="#0058ad">r 9 [1]</text>
<polyline fill="none" stroke="#0058ad" points="574,-81.5 574,-110.5 "/>
<text text-anchor="middle" x="604.5" y="-92.3" font-family="Times,serif" font-size="14.00" fill="#0058ad">r 8 [1]</text>
</g>
<!-- T174 -->
<g id="node2" class="node">
<title>T174</title>
<polygon fill="none" stroke="#0058ad" points="0,-0.5 0,-29.5 1352,-29.5 1352,-0.5 0,-0.5"/>
<text text-anchor="middle" x="325" y="-11.3" font-family="Times,serif" font-size="14.00" fill="#0058ad">r 6 [1 3 4 5 6 7 8 9 10 11 12 13 14 15 16 17 18 19 20 21 22 23 24 25 26 27 28 29 30 31]</text>
<polyline fill="none" stroke="#0058ad" points="650,-0.5 650,-29.5 "/>
<text text-anchor="middle" x="676" y="-11.3" font-family="Times,serif" font-size="14.00" fill="#0058ad">a 8 2</text>
<polyline fill="none" stroke="#0058ad" points="702,-0.5 702,-29.5 "/>
<text text-anchor="middle" x="1027" y="-11.3" font-family="Times,serif" font-size="14.00" fill="#0058ad">r 6 [1 3 4 5 6 7 8 9 10 11 12 13 14 15 16 17 18 19 20 21 22 23 24 25 26 27 28 29 30 31]</text>
</g>
<!-- T175&#45;&gt;T174 -->
<g id="edge1" class="edge">
<title>T175:f4&#45;&gt;T174:f1</title>
<path fill="none" stroke="#5b00c0" d="M605,-81C605,-46.09 662.31,-64.1 673.95,-39.95"/>
<polygon fill="#5b00c0" stroke="#5b00c0" points="677.41,-40.5 676,-30 670.55,-39.09 677.41,-40.5"/>
<text text-anchor="middle" x="674.5" y="-51.8" font-family="Times,serif" font-size="14.00" fill="#5b00c0">rw</text>
</g>
<!-- T174&#45;&gt;T175 -->
<g id="edge2" class="edge">
<title>T174:f0&#45;&gt;T175:f0</title>
<path fill="none" stroke="#5b00c0" d="M325,-30C325,-55.96 358.09,-52.74 366.88,-70.94"/>
<polygon fill="#5b00c0" stroke="#5b00c0" points="363.51,-71.94 369,-81 370.36,-70.49 363.51,-71.94"/>
<text text-anchor="middle" x="369.5" y="-51.8" font-family="Times,serif" font-size="14.00" fill="#5b00c0">rw</text>
</g>
</g>
</svg>
