<?xml version="1.0" encoding="UTF-8" standalone="no"?>
<!DOCTYPE svg PUBLIC "-//W3C//DTD SVG 1.1//EN"
 "http://www.w3.org/Graphics/SVG/1.1/DTD/svg11.dtd">
<!-- Generated by graphviz version 2.43.0 (0)
 -->
<!-- Title: a_graph Pages: 1 -->
<svg width="1238pt" height="119pt"
 viewBox="0.00 0.00 1238.00 119.00" xmlns="http://www.w3.org/2000/svg" xmlns:xlink="http://www.w3.org/1999/xlink">
<g id="graph0" class="graph" transform="scale(1 1) rotate(0) translate(4 115)">
<title>a_graph</title>
<polygon fill="white" stroke="transparent" points="-4,4 -4,-115 1234,-115 1234,4 -4,4"/>
<!-- T482 -->
<g id="node1" class="node">
<title>T482</title>
<polygon fill="none" stroke="#0058ad" points="0,-81.5 0,-110.5 1230,-110.5 1230,-81.5 0,-81.5"/>
<text text-anchor="middle" x="30.5" y="-92.3" font-family="Times,serif" font-size="14.00" fill="#0058ad">a 19 9</text>
<polyline fill="none" stroke="#0058ad" points="61,-81.5 61,-110.5 "/>
<text text-anchor="middle" x="96" y="-92.3" font-family="Times,serif" font-size="14.00" fill="#0058ad">a 19 10</text>
<polyline fill="none" stroke="#0058ad" points="131,-81.5 131,-110.5 "/>
<text text-anchor="middle" x="166" y="-92.3" font-family="Times,serif" font-size="14.00" fill="#0058ad">a 19 11</text>
<polyline fill="none" stroke="#0058ad" points="201,-81.5 201,-110.5 "/>
<text text-anchor="middle" x="312.5" y="-92.3" font-family="Times,serif" font-size="14.00" fill="#0058ad">r 19 [1 2 3 4 5 6 7 8 9 10 11]</text>
<polyline fill="none" stroke="#0058ad" points="424,-81.5 424,-110.5 "/>
<text text-anchor="middle" x="459" y="-92.3" font-family="Times,serif" font-size="14.00" fill="#0058ad">a 19 12</text>
<polyline fill="none" stroke="#0058ad" points="494,-81.5 494,-110.5 "/>
<text text-anchor="middle" x="704.5" y="-92.3" font-family="Times,serif" font-size="14.00" fill="#0058ad">r 15 [1 2 3 4 5 6 7 12 13 15 16 17 18 19 20 21 22 23 24]</text>
<polyline fill="none" stroke="#0058ad" points="915,-81.5 915,-110.5 "/>
<text text-anchor="middle" x="1037.5" y="-92.3" font-family="Times,serif" font-size="14.00" fill="#0058ad">r 19 [1 2 3 4 5 6 7 8 9 10 11 12]</text>
<polyline fill="none" stroke="#0058ad" points="1160,-81.5 1160,-110.5 "/>
<text text-anchor="middle" x="1195" y="-92.3" font-family="Times,serif" font-size="14.00" fill="#0058ad">a 19 13</text>
</g>
<!-- T483 -->
<g id="node2" class="node">
<title>T483</title>
<polygon fill="none" stroke="#0058ad" points="125.5,-0.5 125.5,-29.5 998.5,-29.5 998.5,-0.5 125.5,-0.5"/>
<text text-anchor="middle" x="160.5" y="-11.3" font-family="Times,serif" font-size="14.00" fill="#0058ad">a 18 16</text>
<polyline fill="none" stroke="#0058ad" points="195.5,-0.5 195.5,-29.5 "/>
<text text-anchor="middle" x="277.5" y="-11.3" font-family="Times,serif" font-size="14.00" fill="#0058ad">r 19 [1 2 3 4 5 6 7 8]</text>
<polyline fill="none" stroke="#0058ad" points="359.5,-0.5 359.5,-29.5 "/>
<text text-anchor="middle" x="441.5" y="-11.3" font-family="Times,serif" font-size="14.00" fill="#0058ad">r 19 [1 2 3 4 5 6 7 8]</text>
<polyline fill="none" stroke="#0058ad" points="523.5,-0.5 523.5,-29.5 "/>
<text text-anchor="middle" x="558.5" y="-11.3" font-family="Times,serif" font-size="14.00" fill="#0058ad">a 15 25</text>
<polyline fill="none" stroke="#0058ad" points="593.5,-0.5 593.5,-29.5 "/>
<text text-anchor="middle" x="761" y="-11.3" font-family="Times,serif" font-size="14.00" fill="#0058ad">r 18 [1 2 3 4 5 6 7 8 9 10 11 12 13 14 15 16]</text>
<polyline fill="none" stroke="#0058ad" points="928.5,-0.5 928.5,-29.5 "/>
<text text-anchor="middle" x="963.5" y="-11.3" font-family="Times,serif" font-size="14.00" fill="#0058ad">a 18 17</text>
</g>
<!-- T482&#45;&gt;T483 -->
<g id="edge1" class="edge">
<title>T482:f5&#45;&gt;T483:f3</title>
<path fill="none" stroke="#5b00c0" d="M705,-81C705,-15.63 573.64,-90.07 559.27,-39.99"/>
<polygon fill="#5b00c0" stroke="#5b00c0" points="562.73,-39.48 558,-30 555.79,-40.36 562.73,-39.48"/>
<text text-anchor="middle" x="708.5" y="-51.8" font-family="Times,serif" font-size="14.00" fill="#5b00c0">rw</text>
</g>
<!-- T483&#45;&gt;T482 -->
<g id="edge2" class="edge">
<title>T483:f1&#45;&gt;T482:f0</title>
<path fill="none" stroke="#5b00c0" d="M277,-30C277,-138.37 46.13,19.91 30.8,-70.76"/>
<polygon fill="#5b00c0" stroke="#5b00c0" points="27.29,-70.76 30,-81 34.27,-71.3 27.29,-70.76"/>
<text text-anchor="middle" x="281.5" y="-51.8" font-family="Times,serif" font-size="14.00" fill="#5b00c0">rw</text>
</g>
</g>
</svg>
