<?xml version="1.0" encoding="UTF-8" standalone="no"?>
<!DOCTYPE svg PUBLIC "-//W3C//DTD SVG 1.1//EN"
 "http://www.w3.org/Graphics/SVG/1.1/DTD/svg11.dtd">
<!-- Generated by graphviz version 2.43.0 (0)
 -->
<!-- Title: a_graph Pages: 1 -->
<svg width="1099pt" height="119pt"
 viewBox="0.00 0.00 1099.00 119.00" xmlns="http://www.w3.org/2000/svg" xmlns:xlink="http://www.w3.org/1999/xlink">
<g id="graph0" class="graph" transform="scale(1 1) rotate(0) translate(4 115)">
<title>a_graph</title>
<polygon fill="white" stroke="transparent" points="-4,4 -4,-115 1095,-115 1095,4 -4,4"/>
<!-- T2288 -->
<g id="node1" class="node">
<title>T2288</title>
<polygon fill="none" stroke="#0058ad" points="39.5,-81.5 39.5,-110.5 755.5,-110.5 755.5,-81.5 39.5,-81.5"/>
<text text-anchor="middle" x="74.5" y="-92.3" font-family="Times,serif" font-size="14.00" fill="#0058ad">a 83 15</text>
<polyline fill="none" stroke="#0058ad" points="109.5,-81.5 109.5,-110.5 "/>
<text text-anchor="middle" x="432.5" y="-92.3" font-family="Times,serif" font-size="14.00" fill="#0058ad">r 84 [1 2 3 4 5 6 7 11 12 13 14 15 16 17 18 19 20 21 22 23 24 25 26 27 28 29 30 31 32]</text>
</g>
<!-- T2289 -->
<g id="node2" class="node">
<title>T2289</title>
<polygon fill="none" stroke="#0058ad" points="0,-0.5 0,-29.5 1091,-29.5 1091,-0.5 0,-0.5"/>
<text text-anchor="middle" x="30.5" y="-11.3" font-family="Times,serif" font-size="14.00" fill="#0058ad">a 84 8</text>
<polyline fill="none" stroke="#0058ad" points="61,-0.5 61,-29.5 "/>
<text text-anchor="middle" x="318.5" y="-11.3" font-family="Times,serif" font-size="14.00" fill="#0058ad">r 83 [1 2 3 4 5 6 7 8 9 10 11 12 13 14 18 19 20 23 24 27 29 30 31 32]</text>
<polyline fill="none" stroke="#0058ad" points="576,-0.5 576,-29.5 "/>
<text text-anchor="middle" x="833.5" y="-11.3" font-family="Times,serif" font-size="14.00" fill="#0058ad">r 83 [1 2 3 4 5 6 7 8 9 10 11 12 13 14 18 19 20 23 24 27 29 30 31 32]</text>
</g>
<!-- T2288&#45;&gt;T2289 -->
<g id="edge1" class="edge">
<title>T2288:f1&#45;&gt;T2289:f0</title>
<path fill="none" stroke="#5b00c0" d="M432.5,-81C432.5,33.72 290.32,-62.35 176.5,-48 162.75,-46.27 67.41,-46.28 38.68,-36.37"/>
<polygon fill="#5b00c0" stroke="#5b00c0" points="40.54,-33.39 30.5,-30 36.24,-38.91 40.54,-33.39"/>
<text text-anchor="middle" x="440" y="-51.8" font-family="Times,serif" font-size="14.00" fill="#5b00c0">rw</text>
</g>
<!-- T2289&#45;&gt;T2288 -->
<g id="edge2" class="edge">
<title>T2289:f1&#45;&gt;T2288:f0</title>
<path fill="none" stroke="#5b00c0" d="M318.5,-30C318.5,-48.44 171.36,-43.4 153.5,-48 120.39,-56.53 83.01,-45.66 75.75,-70.95"/>
<polygon fill="#5b00c0" stroke="#5b00c0" points="72.27,-70.64 74.5,-81 79.21,-71.51 72.27,-70.64"/>
<text text-anchor="middle" x="163" y="-51.8" font-family="Times,serif" font-size="14.00" fill="#5b00c0">rw</text>
</g>
</g>
</svg>
