<?xml version="1.0" encoding="UTF-8" standalone="no"?>
<!DOCTYPE svg PUBLIC "-//W3C//DTD SVG 1.1//EN"
 "http://www.w3.org/Graphics/SVG/1.1/DTD/svg11.dtd">
<!-- Generated by graphviz version 2.43.0 (0)
 -->
<!-- Title: a_graph Pages: 1 -->
<svg width="392pt" height="119pt"
 viewBox="0.00 0.00 391.50 119.00" xmlns="http://www.w3.org/2000/svg" xmlns:xlink="http://www.w3.org/1999/xlink">
<g id="graph0" class="graph" transform="scale(1 1) rotate(0) translate(4 115)">
<title>a_graph</title>
<polygon fill="white" stroke="transparent" points="-4,4 -4,-115 387.5,-115 387.5,4 -4,4"/>
<!-- T1801 -->
<g id="node1" class="node">
<title>T1801</title>
<polygon fill="none" stroke="#0058ad" points="86.5,-81.5 86.5,-110.5 383.5,-110.5 383.5,-81.5 86.5,-81.5"/>
<text text-anchor="middle" x="128" y="-92.3" font-family="Times,serif" font-size="14.00" fill="#0058ad">r 72 [1 2]</text>
<polyline fill="none" stroke="#0058ad" points="169.5,-81.5 169.5,-110.5 "/>
<text text-anchor="middle" x="200" y="-92.3" font-family="Times,serif" font-size="14.00" fill="#0058ad">a 71 8</text>
<polyline fill="none" stroke="#0058ad" points="230.5,-81.5 230.5,-110.5 "/>
<text text-anchor="middle" x="272" y="-92.3" font-family="Times,serif" font-size="14.00" fill="#0058ad">r 72 [1 2]</text>
<polyline fill="none" stroke="#0058ad" points="313.5,-81.5 313.5,-110.5 "/>
<text text-anchor="middle" x="348.5" y="-92.3" font-family="Times,serif" font-size="14.00" fill="#0058ad">a 69 12</text>
</g>
<!-- T1800 -->
<g id="node2" class="node">
<title>T1800</title>
<polygon fill="none" stroke="#0058ad" points="0,-0.5 0,-29.5 268,-29.5 268,-0.5 0,-0.5"/>
<text text-anchor="middle" x="41.5" y="-11.3" font-family="Times,serif" font-size="14.00" fill="#0058ad">r 72 [1 2]</text>
<polyline fill="none" stroke="#0058ad" points="83,-0.5 83,-29.5 "/>
<text text-anchor="middle" x="113.5" y="-11.3" font-family="Times,serif" font-size="14.00" fill="#0058ad">a 72 3</text>
<polyline fill="none" stroke="#0058ad" points="144,-0.5 144,-29.5 "/>
<text text-anchor="middle" x="206" y="-11.3" font-family="Times,serif" font-size="14.00" fill="#0058ad">r 71 [1 2 4 6 7]</text>
</g>
<!-- T1801&#45;&gt;T1800 -->
<g id="edge1" class="edge">
<title>T1801:f0&#45;&gt;T1800:f1</title>
<path fill="none" stroke="#5b00c0" d="M128,-81C128,-61.25 117.52,-55.39 114.08,-40.2"/>
<polygon fill="#5b00c0" stroke="#5b00c0" points="117.53,-39.58 113,-30 110.57,-40.31 117.53,-39.58"/>
<text text-anchor="middle" x="133.5" y="-51.8" font-family="Times,serif" font-size="14.00" fill="#5b00c0">rw</text>
</g>
<!-- T1800&#45;&gt;T1801 -->
<g id="edge2" class="edge">
<title>T1800:f2&#45;&gt;T1801:f1</title>
<path fill="none" stroke="#5b00c0" d="M206,-30C206,-48.9 201.89,-55.82 200.47,-70.6"/>
<polygon fill="#5b00c0" stroke="#5b00c0" points="196.96,-70.85 200,-81 203.95,-71.17 196.96,-70.85"/>
<text text-anchor="middle" x="213.5" y="-51.8" font-family="Times,serif" font-size="14.00" fill="#5b00c0">rw</text>
</g>
</g>
</svg>
