<?xml version="1.0" encoding="UTF-8" standalone="no"?>
<!DOCTYPE svg PUBLIC "-//W3C//DTD SVG 1.1//EN"
 "http://www.w3.org/Graphics/SVG/1.1/DTD/svg11.dtd">
<!-- Generated by graphviz version 2.43.0 (0)
 -->
<!-- Title: a_graph Pages: 1 -->
<svg width="606pt" height="119pt"
 viewBox="0.00 0.00 606.00 119.00" xmlns="http://www.w3.org/2000/svg" xmlns:xlink="http://www.w3.org/1999/xlink">
<g id="graph0" class="graph" transform="scale(1 1) rotate(0) translate(4 115)">
<title>a_graph</title>
<polygon fill="white" stroke="transparent" points="-4,4 -4,-115 602,-115 602,4 -4,4"/>
<!-- T841 -->
<g id="node1" class="node">
<title>T841</title>
<polygon fill="none" stroke="#0058ad" points="9.5,-81.5 9.5,-110.5 270.5,-110.5 270.5,-81.5 9.5,-81.5"/>
<text text-anchor="middle" x="40" y="-92.3" font-family="Times,serif" font-size="14.00" fill="#0058ad">a 33 6</text>
<polyline fill="none" stroke="#0058ad" points="70.5,-81.5 70.5,-110.5 "/>
<text text-anchor="middle" x="170.5" y="-92.3" font-family="Times,serif" font-size="14.00" fill="#0058ad">r 31 [1 2 3 4 5 6 7 8 9 10]</text>
</g>
<!-- T842 -->
<g id="node2" class="node">
<title>T842</title>
<polygon fill="none" stroke="#0058ad" points="0,-0.5 0,-29.5 598,-29.5 598,-0.5 0,-0.5"/>
<text text-anchor="middle" x="62" y="-11.3" font-family="Times,serif" font-size="14.00" fill="#0058ad">r 33 [1 2 3 4 5]</text>
<polyline fill="none" stroke="#0058ad" points="124,-0.5 124,-29.5 "/>
<text text-anchor="middle" x="159" y="-11.3" font-family="Times,serif" font-size="14.00" fill="#0058ad">a 31 11</text>
<polyline fill="none" stroke="#0058ad" points="194,-0.5 194,-29.5 "/>
<text text-anchor="middle" x="229" y="-11.3" font-family="Times,serif" font-size="14.00" fill="#0058ad">a 32 26</text>
<polyline fill="none" stroke="#0058ad" points="264,-0.5 264,-29.5 "/>
<text text-anchor="middle" x="299" y="-11.3" font-family="Times,serif" font-size="14.00" fill="#0058ad">a 32 27</text>
<polyline fill="none" stroke="#0058ad" points="334,-0.5 334,-29.5 "/>
<text text-anchor="middle" x="396" y="-11.3" font-family="Times,serif" font-size="14.00" fill="#0058ad">r 33 [1 2 3 4 5]</text>
<polyline fill="none" stroke="#0058ad" points="458,-0.5 458,-29.5 "/>
<text text-anchor="middle" x="493" y="-11.3" font-family="Times,serif" font-size="14.00" fill="#0058ad">a 32 28</text>
<polyline fill="none" stroke="#0058ad" points="528,-0.5 528,-29.5 "/>
<text text-anchor="middle" x="563" y="-11.3" font-family="Times,serif" font-size="14.00" fill="#0058ad">a 32 29</text>
</g>
<!-- T841&#45;&gt;T842 -->
<g id="edge1" class="edge">
<title>T841:f1&#45;&gt;T842:f1</title>
<path fill="none" stroke="#5b00c0" d="M171,-81C171,-61.53 162.61,-55.25 159.86,-40.1"/>
<polygon fill="#5b00c0" stroke="#5b00c0" points="163.34,-39.67 159,-30 156.36,-40.26 163.34,-39.67"/>
<text text-anchor="middle" x="176.5" y="-51.8" font-family="Times,serif" font-size="14.00" fill="#5b00c0">rw</text>
</g>
<!-- T842&#45;&gt;T841 -->
<g id="edge2" class="edge">
<title>T842:f0&#45;&gt;T841:f0</title>
<path fill="none" stroke="#5b00c0" d="M62,-30C62,-50.83 46.34,-55.24 41.44,-70.94"/>
<polygon fill="#5b00c0" stroke="#5b00c0" points="37.96,-70.6 40,-81 44.89,-71.6 37.96,-70.6"/>
<text text-anchor="middle" x="66.5" y="-51.8" font-family="Times,serif" font-size="14.00" fill="#5b00c0">rw</text>
</g>
</g>
</svg>
