<?xml version="1.0" encoding="UTF-8" standalone="no"?>
<!DOCTYPE svg PUBLIC "-//W3C//DTD SVG 1.1//EN"
 "http://www.w3.org/Graphics/SVG/1.1/DTD/svg11.dtd">
<!-- Generated by graphviz version 2.43.0 (0)
 -->
<!-- Title: a_graph Pages: 1 -->
<svg width="2529pt" height="119pt"
 viewBox="0.00 0.00 2529.00 119.00" xmlns="http://www.w3.org/2000/svg" xmlns:xlink="http://www.w3.org/1999/xlink">
<g id="graph0" class="graph" transform="scale(1 1) rotate(0) translate(4 115)">
<title>a_graph</title>
<polygon fill="white" stroke="transparent" points="-4,4 -4,-115 2525,-115 2525,4 -4,4"/>
<!-- T1716 -->
<g id="node1" class="node">
<title>T1716</title>
<polygon fill="none" stroke="#0058ad" points="473.5,-81.5 473.5,-110.5 1285.5,-110.5 1285.5,-81.5 473.5,-81.5"/>
<text text-anchor="middle" x="740" y="-92.3" font-family="Times,serif" font-size="14.00" fill="#0058ad">r 65 [1 4 5 6 7 8 9 10 11 12 13 14 15 16 17 18 19 20 21 22 23 24 25 26]</text>
<polyline fill="none" stroke="#0058ad" points="1006.5,-81.5 1006.5,-110.5 "/>
<text text-anchor="middle" x="1041.5" y="-92.3" font-family="Times,serif" font-size="14.00" fill="#0058ad">a 65 27</text>
<polyline fill="none" stroke="#0058ad" points="1076.5,-81.5 1076.5,-110.5 "/>
<text text-anchor="middle" x="1181" y="-92.3" font-family="Times,serif" font-size="14.00" fill="#0058ad">r 67 [1 2 3 4 5 6 8 9 10 11]</text>
</g>
<!-- T1717 -->
<g id="node2" class="node">
<title>T1717</title>
<polygon fill="none" stroke="#0058ad" points="0,-0.5 0,-29.5 2521,-29.5 2521,-0.5 0,-0.5"/>
<text text-anchor="middle" x="262" y="-11.3" font-family="Times,serif" font-size="14.00" fill="#0058ad">r 66 [1 2 3 4 5 6 8 9 10 12 13 14 15 16 17 18 19 20 21 22 23 24 25 26]</text>
<polyline fill="none" stroke="#0058ad" points="524,-0.5 524,-29.5 "/>
<text text-anchor="middle" x="559" y="-11.3" font-family="Times,serif" font-size="14.00" fill="#0058ad">a 66 27</text>
<polyline fill="none" stroke="#0058ad" points="594,-0.5 594,-29.5 "/>
<text text-anchor="middle" x="629" y="-11.3" font-family="Times,serif" font-size="14.00" fill="#0058ad">a 66 28</text>
<polyline fill="none" stroke="#0058ad" points="664,-0.5 664,-29.5 "/>
<text text-anchor="middle" x="699" y="-11.3" font-family="Times,serif" font-size="14.00" fill="#0058ad">a 66 29</text>
<polyline fill="none" stroke="#0058ad" points="734,-0.5 734,-29.5 "/>
<text text-anchor="middle" x="1000.5" y="-11.3" font-family="Times,serif" font-size="14.00" fill="#0058ad">r 65 [1 4 5 6 7 8 9 10 11 12 13 14 15 16 17 18 19 20 21 22 23 24 25 26]</text>
<polyline fill="none" stroke="#0058ad" points="1267,-0.5 1267,-29.5 "/>
<text text-anchor="middle" x="1302" y="-11.3" font-family="Times,serif" font-size="14.00" fill="#0058ad">a 67 12</text>
<polyline fill="none" stroke="#0058ad" points="1337,-0.5 1337,-29.5 "/>
<text text-anchor="middle" x="1633" y="-11.3" font-family="Times,serif" font-size="14.00" fill="#0058ad">r 66 [1 2 3 4 5 6 8 9 10 12 13 14 15 16 17 18 19 20 21 22 23 24 25 26 27 28 29]</text>
<polyline fill="none" stroke="#0058ad" points="1929,-0.5 1929,-29.5 "/>
<text text-anchor="middle" x="2225" y="-11.3" font-family="Times,serif" font-size="14.00" fill="#0058ad">r 66 [1 2 3 4 5 6 8 9 10 12 13 14 15 16 17 18 19 20 21 22 23 24 25 26 27 28 29]</text>
</g>
<!-- T1716&#45;&gt;T1717 -->
<g id="edge1" class="edge">
<title>T1716:f2&#45;&gt;T1717:f5</title>
<path fill="none" stroke="#5b00c0" d="M1181.5,-81C1181.5,-26.52 1286.96,-80.18 1300.97,-40.06"/>
<polygon fill="#5b00c0" stroke="#5b00c0" points="1304.46,-40.41 1302.5,-30 1297.54,-39.36 1304.46,-40.41"/>
<text text-anchor="middle" x="1303" y="-51.8" font-family="Times,serif" font-size="14.00" fill="#5b00c0">rw</text>
</g>
<!-- T1717&#45;&gt;T1716 -->
<g id="edge2" class="edge">
<title>T1717:f4&#45;&gt;T1716:f1</title>
<path fill="none" stroke="#5b00c0" d="M1000.5,-30C1000.5,-55.22 1031.33,-53.18 1039.52,-71.16"/>
<polygon fill="#5b00c0" stroke="#5b00c0" points="1036.1,-71.89 1041.5,-81 1042.96,-70.51 1036.1,-71.89"/>
<text text-anchor="middle" x="1043" y="-51.8" font-family="Times,serif" font-size="14.00" fill="#5b00c0">rw</text>
</g>
</g>
</svg>
