<?xml version="1.0" encoding="UTF-8" standalone="no"?>
<!DOCTYPE svg PUBLIC "-//W3C//DTD SVG 1.1//EN"
 "http://www.w3.org/Graphics/SVG/1.1/DTD/svg11.dtd">
<!-- Generated by graphviz version 2.43.0 (0)
 -->
<!-- Title: a_graph Pages: 1 -->
<svg width="1124pt" height="119pt"
 viewBox="0.00 0.00 1124.00 119.00" xmlns="http://www.w3.org/2000/svg" xmlns:xlink="http://www.w3.org/1999/xlink">
<g id="graph0" class="graph" transform="scale(1 1) rotate(0) translate(4 115)">
<title>a_graph</title>
<polygon fill="white" stroke="transparent" points="-4,4 -4,-115 1120,-115 1120,4 -4,4"/>
<!-- T3983 -->
<g id="node1" class="node">
<title>T3983</title>
<polygon fill="none" stroke="#0058ad" points="0,-81.5 0,-110.5 1116,-110.5 1116,-81.5 0,-81.5"/>
<text text-anchor="middle" x="172" y="-92.3" font-family="Times,serif" font-size="14.00" fill="#0058ad">r 151 [1 2 3 4 5 6 7 8 9 10 11 12 13 14 15 16]</text>
<polyline fill="none" stroke="#0058ad" points="344,-81.5 344,-110.5 "/>
<text text-anchor="middle" x="383.5" y="-92.3" font-family="Times,serif" font-size="14.00" fill="#0058ad">a 151 17</text>
<polyline fill="none" stroke="#0058ad" points="423,-81.5 423,-110.5 "/>
<text text-anchor="middle" x="496" y="-92.3" font-family="Times,serif" font-size="14.00" fill="#0058ad">r 152 [1 2 3 4 5 6]</text>
<polyline fill="none" stroke="#0058ad" points="569,-81.5 569,-110.5 "/>
<text text-anchor="middle" x="608.5" y="-92.3" font-family="Times,serif" font-size="14.00" fill="#0058ad">a 151 18</text>
<polyline fill="none" stroke="#0058ad" points="648,-81.5 648,-110.5 "/>
<text text-anchor="middle" x="842.5" y="-92.3" font-family="Times,serif" font-size="14.00" fill="#0058ad">r 151 [1 2 3 4 5 6 7 8 9 10 11 12 13 14 15 16 17 18]</text>
<polyline fill="none" stroke="#0058ad" points="1037,-81.5 1037,-110.5 "/>
<text text-anchor="middle" x="1076.5" y="-92.3" font-family="Times,serif" font-size="14.00" fill="#0058ad">a 151 19</text>
</g>
<!-- T3982 -->
<g id="node2" class="node">
<title>T3982</title>
<polygon fill="none" stroke="#0058ad" points="81.5,-0.5 81.5,-29.5 574.5,-29.5 574.5,-0.5 81.5,-0.5"/>
<text text-anchor="middle" x="253.5" y="-11.3" font-family="Times,serif" font-size="14.00" fill="#0058ad">r 151 [1 2 3 4 5 6 7 8 9 10 11 12 13 14 15 16]</text>
<polyline fill="none" stroke="#0058ad" points="425.5,-0.5 425.5,-29.5 "/>
<text text-anchor="middle" x="465" y="-11.3" font-family="Times,serif" font-size="14.00" fill="#0058ad">a 148 25</text>
<polyline fill="none" stroke="#0058ad" points="504.5,-0.5 504.5,-29.5 "/>
<text text-anchor="middle" x="539.5" y="-11.3" font-family="Times,serif" font-size="14.00" fill="#0058ad">a 152 7</text>
</g>
<!-- T3983&#45;&gt;T3982 -->
<g id="edge1" class="edge">
<title>T3983:f2&#45;&gt;T3982:f2</title>
<path fill="none" stroke="#5b00c0" d="M496,-81C496,-55.04 529.09,-58.26 537.88,-40.06"/>
<polygon fill="#5b00c0" stroke="#5b00c0" points="541.36,-40.51 540,-30 534.51,-39.06 541.36,-40.51"/>
<text text-anchor="middle" x="539.5" y="-51.8" font-family="Times,serif" font-size="14.00" fill="#5b00c0">rw</text>
</g>
<!-- T3982&#45;&gt;T3983 -->
<g id="edge2" class="edge">
<title>T3982:f0&#45;&gt;T3983:f1</title>
<path fill="none" stroke="#5b00c0" d="M253,-30C253,-88.19 367.26,-27.55 381.54,-70.88"/>
<polygon fill="#5b00c0" stroke="#5b00c0" points="378.11,-71.6 383,-81 385.04,-70.6 378.11,-71.6"/>
<text text-anchor="middle" x="385.5" y="-51.8" font-family="Times,serif" font-size="14.00" fill="#5b00c0">rw</text>
</g>
</g>
</svg>
