<?xml version="1.0" encoding="UTF-8" standalone="no"?>
<!DOCTYPE svg PUBLIC "-//W3C//DTD SVG 1.1//EN"
 "http://www.w3.org/Graphics/SVG/1.1/DTD/svg11.dtd">
<!-- Generated by graphviz version 2.43.0 (0)
 -->
<!-- Title: a_graph Pages: 1 -->
<svg width="3106pt" height="119pt"
 viewBox="0.00 0.00 3106.00 119.00" xmlns="http://www.w3.org/2000/svg" xmlns:xlink="http://www.w3.org/1999/xlink">
<g id="graph0" class="graph" transform="scale(1 1) rotate(0) translate(4 115)">
<title>a_graph</title>
<polygon fill="white" stroke="transparent" points="-4,4 -4,-115 3102,-115 3102,4 -4,4"/>
<!-- T2107 -->
<g id="node1" class="node">
<title>T2107</title>
<polygon fill="none" stroke="#0058ad" points="0,-81.5 0,-110.5 3098,-110.5 3098,-81.5 0,-81.5"/>
<text text-anchor="middle" x="269" y="-92.3" font-family="Times,serif" font-size="14.00" fill="#0058ad">r 77 [1 2 3 4 5 6 7 8 9 10 11 12 13 14 15 16 17 18 19 20 21 22 23 24 25]</text>
<polyline fill="none" stroke="#0058ad" points="538,-81.5 538,-110.5 "/>
<text text-anchor="middle" x="573" y="-92.3" font-family="Times,serif" font-size="14.00" fill="#0058ad">a 76 21</text>
<polyline fill="none" stroke="#0058ad" points="608,-81.5 608,-110.5 "/>
<text text-anchor="middle" x="832" y="-92.3" font-family="Times,serif" font-size="14.00" fill="#0058ad">r 76 [1 2 3 4 5 6 7 8 9 10 11 12 13 14 15 16 17 18 19 20 21]</text>
<polyline fill="none" stroke="#0058ad" points="1056,-81.5 1056,-110.5 "/>
<text text-anchor="middle" x="1325" y="-92.3" font-family="Times,serif" font-size="14.00" fill="#0058ad">r 73 [1 2 3 4 5 6 7 8 9 10 11 12 13 14 15 16 20 21 22 23 24 25 26 27 28]</text>
<polyline fill="none" stroke="#0058ad" points="1594,-81.5 1594,-110.5 "/>
<text text-anchor="middle" x="1863" y="-92.3" font-family="Times,serif" font-size="14.00" fill="#0058ad">r 77 [1 2 3 4 5 6 7 8 9 10 11 12 13 14 15 16 17 18 19 20 21 22 23 24 25]</text>
<polyline fill="none" stroke="#0058ad" points="2132,-81.5 2132,-110.5 "/>
<text text-anchor="middle" x="2356" y="-92.3" font-family="Times,serif" font-size="14.00" fill="#0058ad">r 76 [1 2 3 4 5 6 7 8 9 10 11 12 13 14 15 16 17 18 19 20 21]</text>
<polyline fill="none" stroke="#0058ad" points="2580,-81.5 2580,-110.5 "/>
<text text-anchor="middle" x="2804" y="-92.3" font-family="Times,serif" font-size="14.00" fill="#0058ad">r 76 [1 2 3 4 5 6 7 8 9 10 11 12 13 14 15 16 17 18 19 20 21]</text>
<polyline fill="none" stroke="#0058ad" points="3028,-81.5 3028,-110.5 "/>
<text text-anchor="middle" x="3063" y="-92.3" font-family="Times,serif" font-size="14.00" fill="#0058ad">a 77 26</text>
</g>
<!-- T2106 -->
<g id="node2" class="node">
<title>T2106</title>
<polygon fill="none" stroke="#0058ad" points="252.5,-0.5 252.5,-29.5 2431.5,-29.5 2431.5,-0.5 252.5,-0.5"/>
<text text-anchor="middle" x="287.5" y="-11.3" font-family="Times,serif" font-size="14.00" fill="#0058ad">a 73 29</text>
<polyline fill="none" stroke="#0058ad" points="322.5,-0.5 322.5,-29.5 "/>
<text text-anchor="middle" x="591.5" y="-11.3" font-family="Times,serif" font-size="14.00" fill="#0058ad">r 77 [1 2 3 4 5 6 7 8 9 10 11 12 13 14 15 16 17 18 19 20 21 22 23 24 25]</text>
<polyline fill="none" stroke="#0058ad" points="860.5,-0.5 860.5,-29.5 "/>
<text text-anchor="middle" x="1129.5" y="-11.3" font-family="Times,serif" font-size="14.00" fill="#0058ad">r 77 [1 2 3 4 5 6 7 8 9 10 11 12 13 14 15 16 17 18 19 20 21 22 23 24 25]</text>
<polyline fill="none" stroke="#0058ad" points="1398.5,-0.5 1398.5,-29.5 "/>
<text text-anchor="middle" x="1611" y="-11.3" font-family="Times,serif" font-size="14.00" fill="#0058ad">r 76 [1 2 3 4 5 6 7 8 9 10 11 12 13 14 15 16 17 18 19 20]</text>
<polyline fill="none" stroke="#0058ad" points="1823.5,-0.5 1823.5,-29.5 "/>
<text text-anchor="middle" x="2092.5" y="-11.3" font-family="Times,serif" font-size="14.00" fill="#0058ad">r 77 [1 2 3 4 5 6 7 8 9 10 11 12 13 14 15 16 17 18 19 20 21 22 23 24 25]</text>
<polyline fill="none" stroke="#0058ad" points="2361.5,-0.5 2361.5,-29.5 "/>
<text text-anchor="middle" x="2396.5" y="-11.3" font-family="Times,serif" font-size="14.00" fill="#0058ad">a 73 30</text>
</g>
<!-- T2107&#45;&gt;T2106 -->
<g id="edge1" class="edge">
<title>T2107:f3&#45;&gt;T2106:f0</title>
<path fill="none" stroke="#5b00c0" d="M1325,-81C1325,41.66 896.52,-53.93 774,-48 761.64,-47.4 364.98,-44.17 296.9,-33.28"/>
<polygon fill="#5b00c0" stroke="#5b00c0" points="297.59,-29.82 287,-30 295.39,-36.47 297.59,-29.82"/>
<text text-anchor="middle" x="1329.5" y="-51.8" font-family="Times,serif" font-size="14.00" fill="#5b00c0">rw</text>
</g>
<!-- T2106&#45;&gt;T2107 -->
<g id="edge2" class="edge">
<title>T2106:f3&#45;&gt;T2107:f1</title>
<path fill="none" stroke="#5b00c0" d="M1611,-30C1611,-53.89 774.77,-45.56 751,-48 674.56,-55.83 581.76,-5.41 573.58,-70.96"/>
<polygon fill="#5b00c0" stroke="#5b00c0" points="570.09,-70.81 573,-81 577.07,-71.22 570.09,-70.81"/>
<text text-anchor="middle" x="760.5" y="-51.8" font-family="Times,serif" font-size="14.00" fill="#5b00c0">rw</text>
</g>
</g>
</svg>
