<?xml version="1.0" encoding="UTF-8" standalone="no"?>
<!DOCTYPE svg PUBLIC "-//W3C//DTD SVG 1.1//EN"
 "http://www.w3.org/Graphics/SVG/1.1/DTD/svg11.dtd">
<!-- Generated by graphviz version 2.43.0 (0)
 -->
<!-- Title: a_graph Pages: 1 -->
<svg width="1695pt" height="119pt"
 viewBox="0.00 0.00 1695.50 119.00" xmlns="http://www.w3.org/2000/svg" xmlns:xlink="http://www.w3.org/1999/xlink">
<g id="graph0" class="graph" transform="scale(1 1) rotate(0) translate(4 115)">
<title>a_graph</title>
<polygon fill="white" stroke="transparent" points="-4,4 -4,-115 1691.5,-115 1691.5,4 -4,4"/>
<!-- T5026 -->
<g id="node1" class="node">
<title>T5026</title>
<polygon fill="none" stroke="#0058ad" points="55.5,-81.5 55.5,-110.5 1687.5,-110.5 1687.5,-81.5 55.5,-81.5"/>
<text text-anchor="middle" x="95" y="-92.3" font-family="Times,serif" font-size="14.00" fill="#0058ad">a 191 22</text>
<polyline fill="none" stroke="#0058ad" points="134.5,-81.5 134.5,-110.5 "/>
<text text-anchor="middle" x="194" y="-92.3" font-family="Times,serif" font-size="14.00" fill="#0058ad">r 192 [1 2 3 4]</text>
<polyline fill="none" stroke="#0058ad" points="253.5,-81.5 253.5,-110.5 "/>
<text text-anchor="middle" x="313" y="-92.3" font-family="Times,serif" font-size="14.00" fill="#0058ad">r 192 [1 2 3 4]</text>
<polyline fill="none" stroke="#0058ad" points="372.5,-81.5 372.5,-110.5 "/>
<text text-anchor="middle" x="432" y="-92.3" font-family="Times,serif" font-size="14.00" fill="#0058ad">r 192 [1 2 3 4]</text>
<polyline fill="none" stroke="#0058ad" points="491.5,-81.5 491.5,-110.5 "/>
<text text-anchor="middle" x="731" y="-92.3" font-family="Times,serif" font-size="14.00" fill="#0058ad">r 191 [1 2 3 4 5 6 7 8 9 10 11 12 13 14 15 16 17 18 19 20 21 22]</text>
<polyline fill="none" stroke="#0058ad" points="970.5,-81.5 970.5,-110.5 "/>
<text text-anchor="middle" x="1030" y="-92.3" font-family="Times,serif" font-size="14.00" fill="#0058ad">r 192 [1 2 3 4]</text>
<polyline fill="none" stroke="#0058ad" points="1089.5,-81.5 1089.5,-110.5 "/>
<text text-anchor="middle" x="1329" y="-92.3" font-family="Times,serif" font-size="14.00" fill="#0058ad">r 191 [1 2 3 4 5 6 7 8 9 10 11 12 13 14 15 16 17 18 19 20 21 22]</text>
<polyline fill="none" stroke="#0058ad" points="1568.5,-81.5 1568.5,-110.5 "/>
<text text-anchor="middle" x="1628" y="-92.3" font-family="Times,serif" font-size="14.00" fill="#0058ad">r 192 [1 2 3 4]</text>
</g>
<!-- T5025 -->
<g id="node2" class="node">
<title>T5025</title>
<polygon fill="none" stroke="#0058ad" points="0,-0.5 0,-29.5 1417,-29.5 1417,-0.5 0,-0.5"/>
<text text-anchor="middle" x="35" y="-11.3" font-family="Times,serif" font-size="14.00" fill="#0058ad">a 192 5</text>
<polyline fill="none" stroke="#0058ad" points="70,-0.5 70,-29.5 "/>
<text text-anchor="middle" x="136.5" y="-11.3" font-family="Times,serif" font-size="14.00" fill="#0058ad">r 192 [1 2 3 4 5]</text>
<polyline fill="none" stroke="#0058ad" points="203,-0.5 203,-29.5 "/>
<text text-anchor="middle" x="431.5" y="-11.3" font-family="Times,serif" font-size="14.00" fill="#0058ad">r 191 [1 2 3 4 5 6 7 8 9 10 11 12 13 14 15 16 17 18 19 20 21]</text>
<polyline fill="none" stroke="#0058ad" points="660,-0.5 660,-29.5 "/>
<text text-anchor="middle" x="888.5" y="-11.3" font-family="Times,serif" font-size="14.00" fill="#0058ad">r 191 [1 2 3 4 5 6 7 8 9 10 11 12 13 14 15 16 17 18 19 20 21]</text>
<polyline fill="none" stroke="#0058ad" points="1117,-0.5 1117,-29.5 "/>
<text text-anchor="middle" x="1152" y="-11.3" font-family="Times,serif" font-size="14.00" fill="#0058ad">a 192 6</text>
<polyline fill="none" stroke="#0058ad" points="1187,-0.5 1187,-29.5 "/>
<text text-anchor="middle" x="1222" y="-11.3" font-family="Times,serif" font-size="14.00" fill="#0058ad">a 192 7</text>
<polyline fill="none" stroke="#0058ad" points="1257,-0.5 1257,-29.5 "/>
<text text-anchor="middle" x="1337" y="-11.3" font-family="Times,serif" font-size="14.00" fill="#0058ad">r 192 [1 2 3 4 5 6 7]</text>
</g>
<!-- T5026&#45;&gt;T5025 -->
<g id="edge1" class="edge">
<title>T5026:f1&#45;&gt;T5025:f0</title>
<path fill="none" stroke="#5b00c0" d="M193.5,-81C193.5,-10.56 50.24,-94.76 35.69,-40.02"/>
<polygon fill="#5b00c0" stroke="#5b00c0" points="39.15,-39.52 34.5,-30 32.2,-40.34 39.15,-39.52"/>
<text text-anchor="middle" x="197" y="-51.8" font-family="Times,serif" font-size="14.00" fill="#5b00c0">rw</text>
</g>
<!-- T5025&#45;&gt;T5026 -->
<g id="edge2" class="edge">
<title>T5025:f2&#45;&gt;T5026:f0</title>
<path fill="none" stroke="#5b00c0" d="M431.5,-30C431.5,-32.12 160.66,-69.52 104.59,-78.95"/>
<polygon fill="#5b00c0" stroke="#5b00c0" points="103.6,-75.58 94.5,-81 105,-82.44 103.6,-75.58"/>
<text text-anchor="middle" x="323" y="-51.8" font-family="Times,serif" font-size="14.00" fill="#5b00c0">rw</text>
</g>
</g>
</svg>
