<?xml version="1.0" encoding="UTF-8" standalone="no"?>
<!DOCTYPE svg PUBLIC "-//W3C//DTD SVG 1.1//EN"
 "http://www.w3.org/Graphics/SVG/1.1/DTD/svg11.dtd">
<!-- Generated by graphviz version 2.43.0 (0)
 -->
<!-- Title: a_graph Pages: 1 -->
<svg width="1470pt" height="119pt"
 viewBox="0.00 0.00 1470.00 119.00" xmlns="http://www.w3.org/2000/svg" xmlns:xlink="http://www.w3.org/1999/xlink">
<g id="graph0" class="graph" transform="scale(1 1) rotate(0) translate(4 115)">
<title>a_graph</title>
<polygon fill="white" stroke="transparent" points="-4,4 -4,-115 1466,-115 1466,4 -4,4"/>
<!-- T736 -->
<g id="node1" class="node">
<title>T736</title>
<polygon fill="none" stroke="#0058ad" points="108,-81.5 108,-110.5 542,-110.5 542,-81.5 108,-81.5"/>
<text text-anchor="middle" x="176.5" y="-92.3" font-family="Times,serif" font-size="14.00" fill="#0058ad">r 29 [1 2 3 4 5 6]</text>
<polyline fill="none" stroke="#0058ad" points="245,-81.5 245,-110.5 "/>
<text text-anchor="middle" x="275.5" y="-92.3" font-family="Times,serif" font-size="14.00" fill="#0058ad">a 29 7</text>
<polyline fill="none" stroke="#0058ad" points="306,-81.5 306,-110.5 "/>
<text text-anchor="middle" x="424" y="-92.3" font-family="Times,serif" font-size="14.00" fill="#0058ad">r 28 [1 2 3 8 9 10 11 12 13 14]</text>
</g>
<!-- T737 -->
<g id="node2" class="node">
<title>T737</title>
<polygon fill="none" stroke="#0058ad" points="0,-0.5 0,-29.5 1462,-29.5 1462,-0.5 0,-0.5"/>
<text text-anchor="middle" x="118" y="-11.3" font-family="Times,serif" font-size="14.00" fill="#0058ad">r 28 [1 2 3 8 9 10 11 12 13 14]</text>
<polyline fill="none" stroke="#0058ad" points="236,-0.5 236,-29.5 "/>
<text text-anchor="middle" x="271" y="-11.3" font-family="Times,serif" font-size="14.00" fill="#0058ad">a 28 15</text>
<polyline fill="none" stroke="#0058ad" points="306,-0.5 306,-29.5 "/>
<text text-anchor="middle" x="374.5" y="-11.3" font-family="Times,serif" font-size="14.00" fill="#0058ad">r 29 [1 2 3 4 5 6]</text>
<polyline fill="none" stroke="#0058ad" points="443,-0.5 443,-29.5 "/>
<text text-anchor="middle" x="478" y="-11.3" font-family="Times,serif" font-size="14.00" fill="#0058ad">a 28 16</text>
<polyline fill="none" stroke="#0058ad" points="513,-0.5 513,-29.5 "/>
<text text-anchor="middle" x="581.5" y="-11.3" font-family="Times,serif" font-size="14.00" fill="#0058ad">r 29 [1 2 3 4 5 6]</text>
<polyline fill="none" stroke="#0058ad" points="650,-0.5 650,-29.5 "/>
<text text-anchor="middle" x="952.5" y="-11.3" font-family="Times,serif" font-size="14.00" fill="#0058ad">r 22 [1 2 3 4 5 6 7 8 9 10 11 14 15 17 18 19 20 21 22 24 25 26 27 28 29 30 31 32]</text>
<polyline fill="none" stroke="#0058ad" points="1255,-0.5 1255,-29.5 "/>
<text text-anchor="middle" x="1323.5" y="-11.3" font-family="Times,serif" font-size="14.00" fill="#0058ad">r 29 [1 2 3 4 5 6]</text>
<polyline fill="none" stroke="#0058ad" points="1392,-0.5 1392,-29.5 "/>
<text text-anchor="middle" x="1427" y="-11.3" font-family="Times,serif" font-size="14.00" fill="#0058ad">a 28 17</text>
</g>
<!-- T736&#45;&gt;T737 -->
<g id="edge1" class="edge">
<title>T736:f2&#45;&gt;T737:f1</title>
<path fill="none" stroke="#5b00c0" d="M424,-81C424,-81 314.07,-44.36 280.57,-33.19"/>
<polygon fill="#5b00c0" stroke="#5b00c0" points="281.59,-29.84 271,-30 279.38,-36.48 281.59,-29.84"/>
<text text-anchor="middle" x="374.5" y="-51.8" font-family="Times,serif" font-size="14.00" fill="#5b00c0">rw</text>
</g>
<!-- T737&#45;&gt;T736 -->
<g id="edge2" class="edge">
<title>T737:f2&#45;&gt;T736:f1</title>
<path fill="none" stroke="#5b00c0" d="M374,-30C374,-60.83 333.58,-32.37 307,-48 292.83,-56.33 280.74,-59.39 276.56,-70.92"/>
<polygon fill="#5b00c0" stroke="#5b00c0" points="273.07,-70.58 275,-81 279.99,-71.65 273.07,-70.58"/>
<text text-anchor="middle" x="316.5" y="-51.8" font-family="Times,serif" font-size="14.00" fill="#5b00c0">rw</text>
</g>
</g>
</svg>
