<?xml version="1.0" encoding="UTF-8" standalone="no"?>
<!DOCTYPE svg PUBLIC "-//W3C//DTD SVG 1.1//EN"
 "http://www.w3.org/Graphics/SVG/1.1/DTD/svg11.dtd">
<!-- Generated by graphviz version 2.43.0 (0)
 -->
<!-- Title: a_graph Pages: 1 -->
<svg width="1001pt" height="119pt"
 viewBox="0.00 0.00 1001.00 119.00" xmlns="http://www.w3.org/2000/svg" xmlns:xlink="http://www.w3.org/1999/xlink">
<g id="graph0" class="graph" transform="scale(1 1) rotate(0) translate(4 115)">
<title>a_graph</title>
<polygon fill="white" stroke="transparent" points="-4,4 -4,-115 997,-115 997,4 -4,4"/>
<!-- T394 -->
<g id="node1" class="node">
<title>T394</title>
<polygon fill="none" stroke="#0058ad" points="0,-81.5 0,-110.5 993,-110.5 993,-81.5 0,-81.5"/>
<text text-anchor="middle" x="30.5" y="-92.3" font-family="Times,serif" font-size="14.00" fill="#0058ad">a 15 3</text>
<polyline fill="none" stroke="#0058ad" points="61,-81.5 61,-110.5 "/>
<text text-anchor="middle" x="318.5" y="-92.3" font-family="Times,serif" font-size="14.00" fill="#0058ad">r 12 [1 2 3 4 5 6 7 8 9 10 11 12 13 14 15 16 17 19 20 21 22 23 24 25]</text>
<polyline fill="none" stroke="#0058ad" points="576,-81.5 576,-110.5 "/>
<text text-anchor="middle" x="624.5" y="-92.3" font-family="Times,serif" font-size="14.00" fill="#0058ad">r 15 [1 2 3]</text>
<polyline fill="none" stroke="#0058ad" points="673,-81.5 673,-110.5 "/>
<text text-anchor="middle" x="741.5" y="-92.3" font-family="Times,serif" font-size="14.00" fill="#0058ad">r 14 [1 2 3 4 5 6]</text>
<polyline fill="none" stroke="#0058ad" points="810,-81.5 810,-110.5 "/>
<text text-anchor="middle" x="840.5" y="-92.3" font-family="Times,serif" font-size="14.00" fill="#0058ad">a 14 7</text>
<polyline fill="none" stroke="#0058ad" points="871,-81.5 871,-110.5 "/>
<text text-anchor="middle" x="901.5" y="-92.3" font-family="Times,serif" font-size="14.00" fill="#0058ad">a 15 4</text>
<polyline fill="none" stroke="#0058ad" points="932,-81.5 932,-110.5 "/>
<text text-anchor="middle" x="962.5" y="-92.3" font-family="Times,serif" font-size="14.00" fill="#0058ad">a 15 5</text>
</g>
<!-- T392 -->
<g id="node2" class="node">
<title>T392</title>
<polygon fill="none" stroke="#0058ad" points="121,-0.5 121,-29.5 274,-29.5 274,-0.5 121,-0.5"/>
<text text-anchor="middle" x="162.5" y="-11.3" font-family="Times,serif" font-size="14.00" fill="#0058ad">r 15 [1 2]</text>
<polyline fill="none" stroke="#0058ad" points="204,-0.5 204,-29.5 "/>
<text text-anchor="middle" x="239" y="-11.3" font-family="Times,serif" font-size="14.00" fill="#0058ad">a 12 26</text>
</g>
<!-- T394&#45;&gt;T392 -->
<g id="edge1" class="edge">
<title>T394:f1&#45;&gt;T392:f1</title>
<path fill="none" stroke="#5b00c0" d="M318.5,-81C318.5,-49.68 312.11,-21.58 285.7,-16"/>
<polygon fill="#5b00c0" stroke="#5b00c0" points="285.79,-12.5 275.5,-15 285.11,-19.46 285.79,-12.5"/>
<text text-anchor="middle" x="327" y="-51.8" font-family="Times,serif" font-size="14.00" fill="#5b00c0">rw</text>
</g>
<!-- T392&#45;&gt;T394 -->
<g id="edge2" class="edge">
<title>T392:f0&#45;&gt;T394:f0</title>
<path fill="none" stroke="#5b00c0" d="M119.5,-15C73.81,-15 36.3,-29.42 31.11,-70.83"/>
<polygon fill="#5b00c0" stroke="#5b00c0" points="27.61,-70.81 30.5,-81 34.59,-71.23 27.61,-70.81"/>
<text text-anchor="middle" x="48" y="-51.8" font-family="Times,serif" font-size="14.00" fill="#5b00c0">rw</text>
</g>
</g>
</svg>
