<?xml version="1.0" encoding="UTF-8" standalone="no"?>
<!DOCTYPE svg PUBLIC "-//W3C//DTD SVG 1.1//EN"
 "http://www.w3.org/Graphics/SVG/1.1/DTD/svg11.dtd">
<!-- Generated by graphviz version 2.43.0 (0)
 -->
<!-- Title: a_graph Pages: 1 -->
<svg width="945pt" height="119pt"
 viewBox="0.00 0.00 944.50 119.00" xmlns="http://www.w3.org/2000/svg" xmlns:xlink="http://www.w3.org/1999/xlink">
<g id="graph0" class="graph" transform="scale(1 1) rotate(0) translate(4 115)">
<title>a_graph</title>
<polygon fill="white" stroke="transparent" points="-4,4 -4,-115 940.5,-115 940.5,4 -4,4"/>
<!-- T922 -->
<g id="node1" class="node">
<title>T922</title>
<polygon fill="none" stroke="#0058ad" points="60.5,-81.5 60.5,-110.5 936.5,-110.5 936.5,-81.5 60.5,-81.5"/>
<text text-anchor="middle" x="95.5" y="-92.3" font-family="Times,serif" font-size="14.00" fill="#0058ad">a 32 26</text>
<polyline fill="none" stroke="#0058ad" points="130.5,-81.5 130.5,-110.5 "/>
<text text-anchor="middle" x="399.5" y="-92.3" font-family="Times,serif" font-size="14.00" fill="#0058ad">r 32 [1 2 3 4 5 6 7 8 9 10 11 12 13 14 15 16 17 18 19 20 21 23 24 25 26]</text>
<polyline fill="none" stroke="#0058ad" points="668.5,-81.5 668.5,-110.5 "/>
<text text-anchor="middle" x="802.5" y="-92.3" font-family="Times,serif" font-size="14.00" fill="#0058ad">r 34 [1 2 3 4 5 6 7 8 9 10 11 12 13]</text>
</g>
<!-- T923 -->
<g id="node2" class="node">
<title>T923</title>
<polygon fill="none" stroke="#0058ad" points="0,-0.5 0,-29.5 853,-29.5 853,-0.5 0,-0.5"/>
<text text-anchor="middle" x="134" y="-11.3" font-family="Times,serif" font-size="14.00" fill="#0058ad">r 34 [1 2 3 4 5 6 7 8 9 10 11 12 13]</text>
<polyline fill="none" stroke="#0058ad" points="268,-0.5 268,-29.5 "/>
<text text-anchor="middle" x="303" y="-11.3" font-family="Times,serif" font-size="14.00" fill="#0058ad">a 34 14</text>
<polyline fill="none" stroke="#0058ad" points="338,-0.5 338,-29.5 "/>
<text text-anchor="middle" x="595.5" y="-11.3" font-family="Times,serif" font-size="14.00" fill="#0058ad">r 32 [1 2 3 4 5 6 7 8 9 10 11 12 13 14 15 16 17 18 19 20 21 23 24 25]</text>
</g>
<!-- T922&#45;&gt;T923 -->
<g id="edge1" class="edge">
<title>T922:f2&#45;&gt;T923:f1</title>
<path fill="none" stroke="#5b00c0" d="M802.5,-81C802.5,138.88 318,-241.16 302.86,-40.02"/>
<polygon fill="#5b00c0" stroke="#5b00c0" points="306.36,-39.87 302.5,-30 299.36,-40.12 306.36,-39.87"/>
<text text-anchor="middle" x="809" y="-51.8" font-family="Times,serif" font-size="14.00" fill="#5b00c0">rw</text>
</g>
<!-- T923&#45;&gt;T922 -->
<g id="edge2" class="edge">
<title>T923:f2&#45;&gt;T922:f0</title>
<path fill="none" stroke="#5b00c0" d="M595.5,-30C595.5,-47.42 299.8,-45.98 282.5,-48 202.27,-57.35 104.33,-1.73 96.06,-70.91"/>
<polygon fill="#5b00c0" stroke="#5b00c0" points="92.56,-70.82 95.5,-81 99.55,-71.21 92.56,-70.82"/>
<text text-anchor="middle" x="292" y="-51.8" font-family="Times,serif" font-size="14.00" fill="#5b00c0">rw</text>
</g>
</g>
</svg>
