<?xml version="1.0" encoding="UTF-8" standalone="no"?>
<!DOCTYPE svg PUBLIC "-//W3C//DTD SVG 1.1//EN"
 "http://www.w3.org/Graphics/SVG/1.1/DTD/svg11.dtd">
<!-- Generated by graphviz version 2.43.0 (0)
 -->
<!-- Title: a_graph Pages: 1 -->
<svg width="475pt" height="119pt"
 viewBox="0.00 0.00 475.00 119.00" xmlns="http://www.w3.org/2000/svg" xmlns:xlink="http://www.w3.org/1999/xlink">
<g id="graph0" class="graph" transform="scale(1 1) rotate(0) translate(4 115)">
<title>a_graph</title>
<polygon fill="white" stroke="transparent" points="-4,4 -4,-115 471,-115 471,4 -4,4"/>
<!-- T151 -->
<g id="node1" class="node">
<title>T151</title>
<polygon fill="none" stroke="#0058ad" points="0,-81.5 0,-110.5 467,-110.5 467,-81.5 0,-81.5"/>
<text text-anchor="middle" x="30.5" y="-92.3" font-family="Times,serif" font-size="14.00" fill="#0058ad">a 62 2</text>
<polyline fill="none" stroke="#0058ad" points="61,-81.5 61,-110.5 "/>
<text text-anchor="middle" x="91.5" y="-92.3" font-family="Times,serif" font-size="14.00" fill="#0058ad">a 62 3</text>
<polyline fill="none" stroke="#0058ad" points="122,-81.5 122,-110.5 "/>
<text text-anchor="middle" x="163.5" y="-92.3" font-family="Times,serif" font-size="14.00" fill="#0058ad">r 64 [1 2]</text>
<polyline fill="none" stroke="#0058ad" points="205,-81.5 205,-110.5 "/>
<text text-anchor="middle" x="235.5" y="-92.3" font-family="Times,serif" font-size="14.00" fill="#0058ad">r 65 []</text>
<polyline fill="none" stroke="#0058ad" points="266,-81.5 266,-110.5 "/>
<text text-anchor="middle" x="296.5" y="-92.3" font-family="Times,serif" font-size="14.00" fill="#0058ad">a 65 1</text>
<polyline fill="none" stroke="#0058ad" points="327,-81.5 327,-110.5 "/>
<text text-anchor="middle" x="362" y="-92.3" font-family="Times,serif" font-size="14.00" fill="#0058ad">r 65 [1]</text>
<polyline fill="none" stroke="#0058ad" points="397,-81.5 397,-110.5 "/>
<text text-anchor="middle" x="432" y="-92.3" font-family="Times,serif" font-size="14.00" fill="#0058ad">r 65 [1]</text>
</g>
<!-- T150 -->
<g id="node2" class="node">
<title>T150</title>
<polygon fill="none" stroke="#0058ad" points="86.5,-0.5 86.5,-29.5 402.5,-29.5 402.5,-0.5 86.5,-0.5"/>
<text text-anchor="middle" x="117" y="-11.3" font-family="Times,serif" font-size="14.00" fill="#0058ad">a 64 3</text>
<polyline fill="none" stroke="#0058ad" points="147.5,-0.5 147.5,-29.5 "/>
<text text-anchor="middle" x="196" y="-11.3" font-family="Times,serif" font-size="14.00" fill="#0058ad">r 57 [1 2 3]</text>
<polyline fill="none" stroke="#0058ad" points="244.5,-0.5 244.5,-29.5 "/>
<text text-anchor="middle" x="293" y="-11.3" font-family="Times,serif" font-size="14.00" fill="#0058ad">r 64 [1 2 3]</text>
<polyline fill="none" stroke="#0058ad" points="341.5,-0.5 341.5,-29.5 "/>
<text text-anchor="middle" x="372" y="-11.3" font-family="Times,serif" font-size="14.00" fill="#0058ad">r 65 []</text>
</g>
<!-- T151&#45;&gt;T150 -->
<g id="edge1" class="edge">
<title>T151:f2&#45;&gt;T150:f0</title>
<path fill="none" stroke="#5b00c0" d="M163.5,-81C163.5,-54.27 128.16,-58.73 118.77,-40.28"/>
<polygon fill="#5b00c0" stroke="#5b00c0" points="122.07,-39.01 116.5,-30 115.24,-40.52 122.07,-39.01"/>
<text text-anchor="middle" x="163" y="-51.8" font-family="Times,serif" font-size="14.00" fill="#5b00c0">rw</text>
</g>
<!-- T150&#45;&gt;T151 -->
<g id="edge2" class="edge">
<title>T150:f3&#45;&gt;T151:f4</title>
<path fill="none" stroke="#5b00c0" d="M372.5,-30C372.5,-66.71 310.62,-45.57 298.53,-70.98"/>
<polygon fill="#5b00c0" stroke="#5b00c0" points="295.06,-70.5 296.5,-81 301.92,-71.9 295.06,-70.5"/>
<text text-anchor="middle" x="372" y="-51.8" font-family="Times,serif" font-size="14.00" fill="#5b00c0">rw</text>
</g>
</g>
</svg>
