<?xml version="1.0" encoding="UTF-8" standalone="no"?>
<!DOCTYPE svg PUBLIC "-//W3C//DTD SVG 1.1//EN"
 "http://www.w3.org/Graphics/SVG/1.1/DTD/svg11.dtd">
<!-- Generated by graphviz version 2.43.0 (0)
 -->
<!-- Title: a_graph Pages: 1 -->
<svg width="1055pt" height="119pt"
 viewBox="0.00 0.00 1055.00 119.00" xmlns="http://www.w3.org/2000/svg" xmlns:xlink="http://www.w3.org/1999/xlink">
<g id="graph0" class="graph" transform="scale(1 1) rotate(0) translate(4 115)">
<title>a_graph</title>
<polygon fill="white" stroke="transparent" points="-4,4 -4,-115 1051,-115 1051,4 -4,4"/>
<!-- T1320 -->
<g id="node1" class="node">
<title>T1320</title>
<polygon fill="none" stroke="#0058ad" points="590.5,-81.5 590.5,-110.5 782.5,-110.5 782.5,-81.5 590.5,-81.5"/>
<text text-anchor="middle" x="621" y="-92.3" font-family="Times,serif" font-size="14.00" fill="#0058ad">a 51 1</text>
<polyline fill="none" stroke="#0058ad" points="651.5,-81.5 651.5,-110.5 "/>
<text text-anchor="middle" x="686.5" y="-92.3" font-family="Times,serif" font-size="14.00" fill="#0058ad">a 49 25</text>
<polyline fill="none" stroke="#0058ad" points="721.5,-81.5 721.5,-110.5 "/>
<text text-anchor="middle" x="752" y="-92.3" font-family="Times,serif" font-size="14.00" fill="#0058ad">r 50 []</text>
</g>
<!-- T1321 -->
<g id="node2" class="node">
<title>T1321</title>
<polygon fill="none" stroke="#0058ad" points="0,-0.5 0,-29.5 1047,-29.5 1047,-0.5 0,-0.5"/>
<text text-anchor="middle" x="246.5" y="-11.3" font-family="Times,serif" font-size="14.00" fill="#0058ad">r 49 [1 2 3 4 5 6 7 8 9 10 11 12 13 14 15 16 17 18 19 20 21 23 24]</text>
<polyline fill="none" stroke="#0058ad" points="493,-0.5 493,-29.5 "/>
<text text-anchor="middle" x="739.5" y="-11.3" font-family="Times,serif" font-size="14.00" fill="#0058ad">r 49 [1 2 3 4 5 6 7 8 9 10 11 12 13 14 15 16 17 18 19 20 21 23 24]</text>
<polyline fill="none" stroke="#0058ad" points="986,-0.5 986,-29.5 "/>
<text text-anchor="middle" x="1016.5" y="-11.3" font-family="Times,serif" font-size="14.00" fill="#0058ad">a 50 1</text>
</g>
<!-- T1320&#45;&gt;T1321 -->
<g id="edge1" class="edge">
<title>T1320:f2&#45;&gt;T1321:f2</title>
<path fill="none" stroke="#5b00c0" d="M783.5,-96C833.85,-96 993.92,-85.34 1014.35,-39.89"/>
<polygon fill="#5b00c0" stroke="#5b00c0" points="1017.8,-40.52 1016.5,-30 1010.96,-39.03 1017.8,-40.52"/>
<text text-anchor="middle" x="1016" y="-51.8" font-family="Times,serif" font-size="14.00" fill="#5b00c0">rw</text>
</g>
<!-- T1321&#45;&gt;T1320 -->
<g id="edge2" class="edge">
<title>T1321:f0&#45;&gt;T1320:f1</title>
<path fill="none" stroke="#5b00c0" d="M246.5,-30C246.5,-223.31 670.75,103.66 686.07,-70.85"/>
<polygon fill="#5b00c0" stroke="#5b00c0" points="682.58,-71.16 686.5,-81 689.58,-70.86 682.58,-71.16"/>
<text text-anchor="middle" x="693" y="-51.8" font-family="Times,serif" font-size="14.00" fill="#5b00c0">rw</text>
</g>
</g>
</svg>
