<?xml version="1.0" encoding="UTF-8" standalone="no"?>
<!DOCTYPE svg PUBLIC "-//W3C//DTD SVG 1.1//EN"
 "http://www.w3.org/Graphics/SVG/1.1/DTD/svg11.dtd">
<!-- Generated by graphviz version 2.43.0 (0)
 -->
<!-- Title: a_graph Pages: 1 -->
<svg width="1779pt" height="119pt"
 viewBox="0.00 0.00 1779.00 119.00" xmlns="http://www.w3.org/2000/svg" xmlns:xlink="http://www.w3.org/1999/xlink">
<g id="graph0" class="graph" transform="scale(1 1) rotate(0) translate(4 115)">
<title>a_graph</title>
<polygon fill="white" stroke="transparent" points="-4,4 -4,-115 1775,-115 1775,4 -4,4"/>
<!-- T991 -->
<g id="node1" class="node">
<title>T991</title>
<polygon fill="none" stroke="#0058ad" points="282.5,-81.5 282.5,-110.5 1036.5,-110.5 1036.5,-81.5 282.5,-81.5"/>
<text text-anchor="middle" x="317.5" y="-92.3" font-family="Times,serif" font-size="14.00" fill="#0058ad">a 38 31</text>
<polyline fill="none" stroke="#0058ad" points="352.5,-81.5 352.5,-110.5 "/>
<text text-anchor="middle" x="619" y="-92.3" font-family="Times,serif" font-size="14.00" fill="#0058ad">r 38 [2 4 5 6 7 8 9 10 11 12 13 14 15 16 20 21 22 23 24 25 26 27 28 31]</text>
<polyline fill="none" stroke="#0058ad" points="885.5,-81.5 885.5,-110.5 "/>
<text text-anchor="middle" x="961" y="-92.3" font-family="Times,serif" font-size="14.00" fill="#0058ad">r 39 [1 2 3 4 5 7 8]</text>
</g>
<!-- T990 -->
<g id="node2" class="node">
<title>T990</title>
<polygon fill="none" stroke="#0058ad" points="0,-0.5 0,-29.5 1771,-29.5 1771,-0.5 0,-0.5"/>
<text text-anchor="middle" x="255.5" y="-11.3" font-family="Times,serif" font-size="14.00" fill="#0058ad">r 38 [2 4 5 6 7 8 9 10 11 12 13 14 15 16 20 21 22 23 24 25 26 27 28]</text>
<polyline fill="none" stroke="#0058ad" points="511,-0.5 511,-29.5 "/>
<text text-anchor="middle" x="773" y="-11.3" font-family="Times,serif" font-size="14.00" fill="#0058ad">r 36 [1 2 4 5 6 7 8 9 10 11 12 13 14 15 16 18 19 20 21 22 23 24 25 26]</text>
<polyline fill="none" stroke="#0058ad" points="1035,-0.5 1035,-29.5 "/>
<text text-anchor="middle" x="1065.5" y="-11.3" font-family="Times,serif" font-size="14.00" fill="#0058ad">a 39 9</text>
<polyline fill="none" stroke="#0058ad" points="1096,-0.5 1096,-29.5 "/>
<text text-anchor="middle" x="1351.5" y="-11.3" font-family="Times,serif" font-size="14.00" fill="#0058ad">r 38 [2 4 5 6 7 8 9 10 11 12 13 14 15 16 20 21 22 23 24 25 26 27 28]</text>
<polyline fill="none" stroke="#0058ad" points="1607,-0.5 1607,-29.5 "/>
<text text-anchor="middle" x="1689" y="-11.3" font-family="Times,serif" font-size="14.00" fill="#0058ad">r 39 [1 2 3 4 5 7 8 9]</text>
</g>
<!-- T991&#45;&gt;T990 -->
<g id="edge1" class="edge">
<title>T991:f2&#45;&gt;T990:f2</title>
<path fill="none" stroke="#5b00c0" d="M1037.5,-96C1066,-96 1065.92,-68.68 1065.58,-40.12"/>
<polygon fill="#5b00c0" stroke="#5b00c0" points="1069.08,-39.97 1065.5,-30 1062.08,-40.03 1069.08,-39.97"/>
<text text-anchor="middle" x="1075" y="-51.8" font-family="Times,serif" font-size="14.00" fill="#5b00c0">rw</text>
</g>
<!-- T990&#45;&gt;T991 -->
<g id="edge2" class="edge">
<title>T990:f0&#45;&gt;T991:f0</title>
<path fill="none" stroke="#5b00c0" d="M255.5,-30C255.5,-57.71 251.23,-87.69 271.6,-94.55"/>
<polygon fill="#5b00c0" stroke="#5b00c0" points="271.1,-98.01 281.5,-96 272.11,-91.09 271.1,-98.01"/>
<text text-anchor="middle" x="265" y="-51.8" font-family="Times,serif" font-size="14.00" fill="#5b00c0">rw</text>
</g>
</g>
</svg>
