<?xml version="1.0" encoding="UTF-8" standalone="no"?>
<!DOCTYPE svg PUBLIC "-//W3C//DTD SVG 1.1//EN"
 "http://www.w3.org/Graphics/SVG/1.1/DTD/svg11.dtd">
<!-- Generated by graphviz version 2.43.0 (0)
 -->
<!-- Title: a_graph Pages: 1 -->
<svg width="1685pt" height="119pt"
 viewBox="0.00 0.00 1685.00 119.00" xmlns="http://www.w3.org/2000/svg" xmlns:xlink="http://www.w3.org/1999/xlink">
<g id="graph0" class="graph" transform="scale(1 1) rotate(0) translate(4 115)">
<title>a_graph</title>
<polygon fill="white" stroke="transparent" points="-4,4 -4,-115 1681,-115 1681,4 -4,4"/>
<!-- T422 -->
<g id="node1" class="node">
<title>T422</title>
<polygon fill="none" stroke="#0058ad" points="232.5,-81.5 232.5,-110.5 972.5,-110.5 972.5,-81.5 232.5,-81.5"/>
<text text-anchor="middle" x="400" y="-92.3" font-family="Times,serif" font-size="14.00" fill="#0058ad">r 15 [1 2 3 4 5 6 7 8 9 10 11 12 13 14 15 16]</text>
<polyline fill="none" stroke="#0058ad" points="567.5,-81.5 567.5,-110.5 "/>
<text text-anchor="middle" x="602.5" y="-92.3" font-family="Times,serif" font-size="14.00" fill="#0058ad">a 13 12</text>
<polyline fill="none" stroke="#0058ad" points="637.5,-81.5 637.5,-110.5 "/>
<text text-anchor="middle" x="805" y="-92.3" font-family="Times,serif" font-size="14.00" fill="#0058ad">r 15 [1 2 3 4 5 6 7 8 9 10 11 12 13 14 15 16]</text>
</g>
<!-- T423 -->
<g id="node2" class="node">
<title>T423</title>
<polygon fill="none" stroke="#0058ad" points="0,-0.5 0,-29.5 1677,-29.5 1677,-0.5 0,-0.5"/>
<text text-anchor="middle" x="104.5" y="-11.3" font-family="Times,serif" font-size="14.00" fill="#0058ad">r 13 [1 2 3 4 6 7 8 9 10 11]</text>
<polyline fill="none" stroke="#0058ad" points="209,-0.5 209,-29.5 "/>
<text text-anchor="middle" x="500.5" y="-11.3" font-family="Times,serif" font-size="14.00" fill="#0058ad">r 16 [1 2 3 4 5 6 7 8 9 10 11 12 13 14 15 16 17 18 19 20 21 22 23 24 25 26 27]</text>
<polyline fill="none" stroke="#0058ad" points="792,-0.5 792,-29.5 "/>
<text text-anchor="middle" x="827" y="-11.3" font-family="Times,serif" font-size="14.00" fill="#0058ad">a 16 30</text>
<polyline fill="none" stroke="#0058ad" points="862,-0.5 862,-29.5 "/>
<text text-anchor="middle" x="897" y="-11.3" font-family="Times,serif" font-size="14.00" fill="#0058ad">a 15 17</text>
<polyline fill="none" stroke="#0058ad" points="932,-0.5 932,-29.5 "/>
<text text-anchor="middle" x="967" y="-11.3" font-family="Times,serif" font-size="14.00" fill="#0058ad">a 15 18</text>
<polyline fill="none" stroke="#0058ad" points="1002,-0.5 1002,-29.5 "/>
<text text-anchor="middle" x="1304.5" y="-11.3" font-family="Times,serif" font-size="14.00" fill="#0058ad">r 16 [1 2 3 4 5 6 7 8 9 10 11 12 13 14 15 16 17 18 19 20 21 22 23 24 25 26 27 30]</text>
<polyline fill="none" stroke="#0058ad" points="1607,-0.5 1607,-29.5 "/>
<text text-anchor="middle" x="1642" y="-11.3" font-family="Times,serif" font-size="14.00" fill="#0058ad">a 16 31</text>
</g>
<!-- T422&#45;&gt;T423 -->
<g id="edge1" class="edge">
<title>T422:f0&#45;&gt;T423:f3</title>
<path fill="none" stroke="#5b00c0" d="M399.5,-81C399.5,-24.83 466.01,-56.73 521.5,-48 540.22,-45.06 833.82,-49.84 888.7,-35.2"/>
<polygon fill="#5b00c0" stroke="#5b00c0" points="890.67,-38.1 897.5,-30 887.11,-32.07 890.67,-38.1"/>
<text text-anchor="middle" x="531" y="-51.8" font-family="Times,serif" font-size="14.00" fill="#5b00c0">rw</text>
</g>
<!-- T423&#45;&gt;T422 -->
<g id="edge2" class="edge">
<title>T423:f0&#45;&gt;T422:f1</title>
<path fill="none" stroke="#5b00c0" d="M104.5,-30C104.5,-54.24 517.1,-41.65 540.5,-48 566.86,-55.16 594.56,-51.16 601.07,-70.96"/>
<polygon fill="#5b00c0" stroke="#5b00c0" points="597.63,-71.59 602.5,-81 604.56,-70.61 597.63,-71.59"/>
<text text-anchor="middle" x="606" y="-51.8" font-family="Times,serif" font-size="14.00" fill="#5b00c0">rw</text>
</g>
</g>
</svg>
