<?xml version="1.0" encoding="UTF-8" standalone="no"?>
<!DOCTYPE svg PUBLIC "-//W3C//DTD SVG 1.1//EN"
 "http://www.w3.org/Graphics/SVG/1.1/DTD/svg11.dtd">
<!-- Generated by graphviz version 2.43.0 (0)
 -->
<!-- Title: a_graph Pages: 1 -->
<svg width="2067pt" height="119pt"
 viewBox="0.00 0.00 2067.00 119.00" xmlns="http://www.w3.org/2000/svg" xmlns:xlink="http://www.w3.org/1999/xlink">
<g id="graph0" class="graph" transform="scale(1 1) rotate(0) translate(4 115)">
<title>a_graph</title>
<polygon fill="white" stroke="transparent" points="-4,4 -4,-115 2063,-115 2063,4 -4,4"/>
<!-- T1679 -->
<g id="node1" class="node">
<title>T1679</title>
<polygon fill="none" stroke="#0058ad" points="0,-81.5 0,-110.5 1133,-110.5 1133,-81.5 0,-81.5"/>
<text text-anchor="middle" x="75.5" y="-92.3" font-family="Times,serif" font-size="14.00" fill="#0058ad">r 65 [1 2 3 4 5 6 7]</text>
<polyline fill="none" stroke="#0058ad" points="151,-81.5 151,-110.5 "/>
<text text-anchor="middle" x="226.5" y="-92.3" font-family="Times,serif" font-size="14.00" fill="#0058ad">r 65 [1 2 3 4 5 6 7]</text>
<polyline fill="none" stroke="#0058ad" points="302,-81.5 302,-110.5 "/>
<text text-anchor="middle" x="494.5" y="-92.3" font-family="Times,serif" font-size="14.00" fill="#0058ad">r 64 [1 2 3 4 5 9 10 11 12 13 14 15 16 18 19 20 21]</text>
<polyline fill="none" stroke="#0058ad" points="687,-81.5 687,-110.5 "/>
<text text-anchor="middle" x="717.5" y="-92.3" font-family="Times,serif" font-size="14.00" fill="#0058ad">a 65 8</text>
<polyline fill="none" stroke="#0058ad" points="748,-81.5 748,-110.5 "/>
<text text-anchor="middle" x="940.5" y="-92.3" font-family="Times,serif" font-size="14.00" fill="#0058ad">r 64 [1 2 3 4 5 9 10 11 12 13 14 15 16 18 19 20 21]</text>
</g>
<!-- T1678 -->
<g id="node2" class="node">
<title>T1678</title>
<polygon fill="none" stroke="#0058ad" points="544,-0.5 544,-29.5 2059,-29.5 2059,-0.5 544,-0.5"/>
<text text-anchor="middle" x="579" y="-11.3" font-family="Times,serif" font-size="14.00" fill="#0058ad">a 64 22</text>
<polyline fill="none" stroke="#0058ad" points="614,-0.5 614,-29.5 "/>
<text text-anchor="middle" x="689.5" y="-11.3" font-family="Times,serif" font-size="14.00" fill="#0058ad">r 65 [1 2 3 4 5 6 7]</text>
<polyline fill="none" stroke="#0058ad" points="765,-0.5 765,-29.5 "/>
<text text-anchor="middle" x="1022.5" y="-11.3" font-family="Times,serif" font-size="14.00" fill="#0058ad">r 61 [1 2 3 4 5 6 7 8 9 10 11 12 13 14 15 16 17 18 19 20 21 22 23 24]</text>
<polyline fill="none" stroke="#0058ad" points="1280,-0.5 1280,-29.5 "/>
<text text-anchor="middle" x="1355.5" y="-11.3" font-family="Times,serif" font-size="14.00" fill="#0058ad">r 65 [1 2 3 4 5 6 7]</text>
<polyline fill="none" stroke="#0058ad" points="1431,-0.5 1431,-29.5 "/>
<text text-anchor="middle" x="1506.5" y="-11.3" font-family="Times,serif" font-size="14.00" fill="#0058ad">r 65 [1 2 3 4 5 6 7]</text>
<polyline fill="none" stroke="#0058ad" points="1582,-0.5 1582,-29.5 "/>
<text text-anchor="middle" x="1785.5" y="-11.3" font-family="Times,serif" font-size="14.00" fill="#0058ad">r 64 [1 2 3 4 5 9 10 11 12 13 14 15 16 18 19 20 21 22]</text>
<polyline fill="none" stroke="#0058ad" points="1989,-0.5 1989,-29.5 "/>
<text text-anchor="middle" x="2024" y="-11.3" font-family="Times,serif" font-size="14.00" fill="#0058ad">a 64 23</text>
</g>
<!-- T1679&#45;&gt;T1678 -->
<g id="edge1" class="edge">
<title>T1679:f2&#45;&gt;T1678:f0</title>
<path fill="none" stroke="#5b00c0" d="M494.5,-81C494.5,-48.41 503.97,-21.11 532.19,-15.9"/>
<polygon fill="#5b00c0" stroke="#5b00c0" points="532.84,-19.35 542.5,-15 532.23,-12.38 532.84,-19.35"/>
<text text-anchor="middle" x="509" y="-51.8" font-family="Times,serif" font-size="14.00" fill="#5b00c0">rw</text>
</g>
<!-- T1678&#45;&gt;T1679 -->
<g id="edge2" class="edge">
<title>T1678:f1&#45;&gt;T1679:f3</title>
<path fill="none" stroke="#5b00c0" d="M689.5,-30C689.5,-52.02 709.8,-54.77 715.83,-71.07"/>
<polygon fill="#5b00c0" stroke="#5b00c0" points="712.39,-71.72 717.5,-81 719.3,-70.56 712.39,-71.72"/>
<text text-anchor="middle" x="720" y="-51.8" font-family="Times,serif" font-size="14.00" fill="#5b00c0">rw</text>
</g>
</g>
</svg>
