<?xml version="1.0" encoding="UTF-8" standalone="no"?>
<!DOCTYPE svg PUBLIC "-//W3C//DTD SVG 1.1//EN"
 "http://www.w3.org/Graphics/SVG/1.1/DTD/svg11.dtd">
<!-- Generated by graphviz version 2.43.0 (0)
 -->
<!-- Title: a_graph Pages: 1 -->
<svg width="2180pt" height="119pt"
 viewBox="0.00 0.00 2179.50 119.00" xmlns="http://www.w3.org/2000/svg" xmlns:xlink="http://www.w3.org/1999/xlink">
<g id="graph0" class="graph" transform="scale(1 1) rotate(0) translate(4 115)">
<title>a_graph</title>
<polygon fill="white" stroke="transparent" points="-4,4 -4,-115 2175.5,-115 2175.5,4 -4,4"/>
<!-- T1816 -->
<g id="node1" class="node">
<title>T1816</title>
<polygon fill="none" stroke="#0058ad" points="825.5,-81.5 825.5,-110.5 2171.5,-110.5 2171.5,-81.5 825.5,-81.5"/>
<text text-anchor="middle" x="860.5" y="-92.3" font-family="Times,serif" font-size="14.00" fill="#0058ad">a 68 30</text>
<polyline fill="none" stroke="#0058ad" points="895.5,-81.5 895.5,-110.5 "/>
<text text-anchor="middle" x="1052" y="-92.3" font-family="Times,serif" font-size="14.00" fill="#0058ad">r 70 [1 2 3 4 5 6 7 8 9 10 11 12 13 14 15]</text>
<polyline fill="none" stroke="#0058ad" points="1208.5,-81.5 1208.5,-110.5 "/>
<text text-anchor="middle" x="1533.5" y="-92.3" font-family="Times,serif" font-size="14.00" fill="#0058ad">r 68 [1 2 3 4 5 6 7 8 9 10 11 12 13 14 15 16 17 18 19 20 21 22 23 24 25 26 27 28 29 30]</text>
<polyline fill="none" stroke="#0058ad" points="1858.5,-81.5 1858.5,-110.5 "/>
<text text-anchor="middle" x="2015" y="-92.3" font-family="Times,serif" font-size="14.00" fill="#0058ad">r 70 [1 2 3 4 5 6 7 8 9 10 11 12 13 14 15]</text>
</g>
<!-- T1817 -->
<g id="node2" class="node">
<title>T1817</title>
<polygon fill="none" stroke="#0058ad" points="0,-0.5 0,-29.5 1749,-29.5 1749,-0.5 0,-0.5"/>
<text text-anchor="middle" x="314" y="-11.3" font-family="Times,serif" font-size="14.00" fill="#0058ad">r 68 [1 2 3 4 5 6 7 8 9 10 11 12 13 14 15 16 17 18 19 20 21 22 23 24 25 26 27 28 29]</text>
<polyline fill="none" stroke="#0058ad" points="628,-0.5 628,-29.5 "/>
<text text-anchor="middle" x="829.5" y="-11.3" font-family="Times,serif" font-size="14.00" fill="#0058ad">r 66 [1 2 3 4 5 6 7 8 9 10 11 12 13 14 15 16 17 18 19]</text>
<polyline fill="none" stroke="#0058ad" points="1031,-0.5 1031,-29.5 "/>
<text text-anchor="middle" x="1187.5" y="-11.3" font-family="Times,serif" font-size="14.00" fill="#0058ad">r 70 [1 2 3 4 5 6 7 8 9 10 11 12 13 14 15]</text>
<polyline fill="none" stroke="#0058ad" points="1344,-0.5 1344,-29.5 "/>
<text text-anchor="middle" x="1379" y="-11.3" font-family="Times,serif" font-size="14.00" fill="#0058ad">a 70 16</text>
<polyline fill="none" stroke="#0058ad" points="1414,-0.5 1414,-29.5 "/>
<text text-anchor="middle" x="1581.5" y="-11.3" font-family="Times,serif" font-size="14.00" fill="#0058ad">r 70 [1 2 3 4 5 6 7 8 9 10 11 12 13 14 15 16]</text>
</g>
<!-- T1816&#45;&gt;T1817 -->
<g id="edge1" class="edge">
<title>T1816:f1&#45;&gt;T1817:f3</title>
<path fill="none" stroke="#5b00c0" d="M1051.5,-81C1051.5,62.93 1363.68,-165.85 1378.92,-40.12"/>
<polygon fill="#5b00c0" stroke="#5b00c0" points="1382.42,-40.18 1379.5,-30 1375.44,-39.78 1382.42,-40.18"/>
<text text-anchor="middle" x="1385" y="-51.8" font-family="Times,serif" font-size="14.00" fill="#5b00c0">rw</text>
</g>
<!-- T1817&#45;&gt;T1816 -->
<g id="edge2" class="edge">
<title>T1817:f0&#45;&gt;T1816:f0</title>
<path fill="none" stroke="#5b00c0" d="M313.5,-30C313.5,-84.68 727.4,-95.12 814.46,-95.94"/>
<polygon fill="#5b00c0" stroke="#5b00c0" points="814.48,-99.44 824.5,-96 814.52,-92.44 814.48,-99.44"/>
<text text-anchor="middle" x="380" y="-51.8" font-family="Times,serif" font-size="14.00" fill="#5b00c0">rw</text>
</g>
</g>
</svg>
