<?xml version="1.0" encoding="UTF-8" standalone="no"?>
<!DOCTYPE svg PUBLIC "-//W3C//DTD SVG 1.1//EN"
 "http://www.w3.org/Graphics/SVG/1.1/DTD/svg11.dtd">
<!-- Generated by graphviz version 2.43.0 (0)
 -->
<!-- Title: a_graph Pages: 1 -->
<svg width="1883pt" height="119pt"
 viewBox="0.00 0.00 1883.00 119.00" xmlns="http://www.w3.org/2000/svg" xmlns:xlink="http://www.w3.org/1999/xlink">
<g id="graph0" class="graph" transform="scale(1 1) rotate(0) translate(4 115)">
<title>a_graph</title>
<polygon fill="white" stroke="transparent" points="-4,4 -4,-115 1879,-115 1879,4 -4,4"/>
<!-- T3442 -->
<g id="node1" class="node">
<title>T3442</title>
<polygon fill="none" stroke="#0058ad" points="0,-81.5 0,-110.5 1875,-110.5 1875,-81.5 0,-81.5"/>
<text text-anchor="middle" x="199" y="-92.3" font-family="Times,serif" font-size="14.00" fill="#0058ad">r 130 [1 2 3 4 5 6 7 9 10 11 12 13 14 15 16 17 18 19]</text>
<polyline fill="none" stroke="#0058ad" points="398,-81.5 398,-110.5 "/>
<text text-anchor="middle" x="597" y="-92.3" font-family="Times,serif" font-size="14.00" fill="#0058ad">r 130 [1 2 3 4 5 6 7 9 10 11 12 13 14 15 16 17 18 19]</text>
<polyline fill="none" stroke="#0058ad" points="796,-81.5 796,-110.5 "/>
<text text-anchor="middle" x="835.5" y="-92.3" font-family="Times,serif" font-size="14.00" fill="#0058ad">a 130 20</text>
<polyline fill="none" stroke="#0058ad" points="875,-81.5 875,-110.5 "/>
<text text-anchor="middle" x="1085.5" y="-92.3" font-family="Times,serif" font-size="14.00" fill="#0058ad">r 130 [1 2 3 4 5 6 7 9 10 11 12 13 14 15 16 17 18 19 20]</text>
<polyline fill="none" stroke="#0058ad" points="1296,-81.5 1296,-110.5 "/>
<text text-anchor="middle" x="1335.5" y="-92.3" font-family="Times,serif" font-size="14.00" fill="#0058ad">r 131 [1]</text>
<polyline fill="none" stroke="#0058ad" points="1375,-81.5 1375,-110.5 "/>
<text text-anchor="middle" x="1585.5" y="-92.3" font-family="Times,serif" font-size="14.00" fill="#0058ad">r 130 [1 2 3 4 5 6 7 9 10 11 12 13 14 15 16 17 18 19 20]</text>
<polyline fill="none" stroke="#0058ad" points="1796,-81.5 1796,-110.5 "/>
<text text-anchor="middle" x="1835.5" y="-92.3" font-family="Times,serif" font-size="14.00" fill="#0058ad">r 131 [1]</text>
</g>
<!-- T3441 -->
<g id="node2" class="node">
<title>T3441</title>
<polygon fill="none" stroke="#0058ad" points="618.5,-0.5 618.5,-29.5 1472.5,-29.5 1472.5,-0.5 618.5,-0.5"/>
<text text-anchor="middle" x="817.5" y="-11.3" font-family="Times,serif" font-size="14.00" fill="#0058ad">r 130 [1 2 3 4 5 6 7 9 10 11 12 13 14 15 16 17 18 19]</text>
<polyline fill="none" stroke="#0058ad" points="1016.5,-0.5 1016.5,-29.5 "/>
<text text-anchor="middle" x="1056" y="-11.3" font-family="Times,serif" font-size="14.00" fill="#0058ad">r 131 [1]</text>
<polyline fill="none" stroke="#0058ad" points="1095.5,-0.5 1095.5,-29.5 "/>
<text text-anchor="middle" x="1135" y="-11.3" font-family="Times,serif" font-size="14.00" fill="#0058ad">r 131 [1]</text>
<polyline fill="none" stroke="#0058ad" points="1174.5,-0.5 1174.5,-29.5 "/>
<text text-anchor="middle" x="1214" y="-11.3" font-family="Times,serif" font-size="14.00" fill="#0058ad">r 131 [1]</text>
<polyline fill="none" stroke="#0058ad" points="1253.5,-0.5 1253.5,-29.5 "/>
<text text-anchor="middle" x="1293" y="-11.3" font-family="Times,serif" font-size="14.00" fill="#0058ad">r 131 [1]</text>
<polyline fill="none" stroke="#0058ad" points="1332.5,-0.5 1332.5,-29.5 "/>
<text text-anchor="middle" x="1367.5" y="-11.3" font-family="Times,serif" font-size="14.00" fill="#0058ad">a 131 2</text>
<polyline fill="none" stroke="#0058ad" points="1402.5,-0.5 1402.5,-29.5 "/>
<text text-anchor="middle" x="1437.5" y="-11.3" font-family="Times,serif" font-size="14.00" fill="#0058ad">a 131 3</text>
</g>
<!-- T3442&#45;&gt;T3441 -->
<g id="edge1" class="edge">
<title>T3442:f4&#45;&gt;T3441:f5</title>
<path fill="none" stroke="#5b00c0" d="M1335.5,-81C1335.5,-58.21 1358.71,-56.66 1365.59,-40.17"/>
<polygon fill="#5b00c0" stroke="#5b00c0" points="1369.1,-40.47 1367.5,-30 1362.22,-39.18 1369.1,-40.47"/>
<text text-anchor="middle" x="1369" y="-51.8" font-family="Times,serif" font-size="14.00" fill="#5b00c0">rw</text>
</g>
<!-- T3441&#45;&gt;T3442 -->
<g id="edge2" class="edge">
<title>T3441:f0&#45;&gt;T3442:f2</title>
<path fill="none" stroke="#5b00c0" d="M817.5,-30C817.5,-50.09 830.08,-55.43 834.21,-70.69"/>
<polygon fill="#5b00c0" stroke="#5b00c0" points="830.78,-71.51 835.5,-81 837.73,-70.64 830.78,-71.51"/>
<text text-anchor="middle" x="840" y="-51.8" font-family="Times,serif" font-size="14.00" fill="#5b00c0">rw</text>
</g>
</g>
</svg>
