<?xml version="1.0" encoding="UTF-8" standalone="no"?>
<!DOCTYPE svg PUBLIC "-//W3C//DTD SVG 1.1//EN"
 "http://www.w3.org/Graphics/SVG/1.1/DTD/svg11.dtd">
<!-- Generated by graphviz version 2.43.0 (0)
 -->
<!-- Title: a_graph Pages: 1 -->
<svg width="1198pt" height="119pt"
 viewBox="0.00 0.00 1198.00 119.00" xmlns="http://www.w3.org/2000/svg" xmlns:xlink="http://www.w3.org/1999/xlink">
<g id="graph0" class="graph" transform="scale(1 1) rotate(0) translate(4 115)">
<title>a_graph</title>
<polygon fill="white" stroke="transparent" points="-4,4 -4,-115 1194,-115 1194,4 -4,4"/>
<!-- T88 -->
<g id="node1" class="node">
<title>T88</title>
<polygon fill="none" stroke="#0058ad" points="312.5,-81.5 312.5,-110.5 1019.5,-110.5 1019.5,-81.5 312.5,-81.5"/>
<text text-anchor="middle" x="343" y="-92.3" font-family="Times,serif" font-size="14.00" fill="#0058ad">a 0 16</text>
<polyline fill="none" stroke="#0058ad" points="373.5,-81.5 373.5,-110.5 "/>
<text text-anchor="middle" x="410.5" y="-92.3" font-family="Times,serif" font-size="14.00" fill="#0058ad">r 4 [1 2]</text>
<polyline fill="none" stroke="#0058ad" points="447.5,-81.5 447.5,-110.5 "/>
<text text-anchor="middle" x="590.5" y="-92.3" font-family="Times,serif" font-size="14.00" fill="#0058ad">r 3 [1 2 3 4 5 6 10 11 12 13 14 15 16]</text>
<polyline fill="none" stroke="#0058ad" points="733.5,-81.5 733.5,-110.5 "/>
<text text-anchor="middle" x="876.5" y="-92.3" font-family="Times,serif" font-size="14.00" fill="#0058ad">r 3 [1 2 3 4 5 6 10 11 12 13 14 15 16]</text>
</g>
<!-- T89 -->
<g id="node2" class="node">
<title>T89</title>
<polygon fill="none" stroke="#0058ad" points="0,-0.5 0,-29.5 1190,-29.5 1190,-0.5 0,-0.5"/>
<text text-anchor="middle" x="30.5" y="-11.3" font-family="Times,serif" font-size="14.00" fill="#0058ad">a 3 17</text>
<polyline fill="none" stroke="#0058ad" points="61,-0.5 61,-29.5 "/>
<text text-anchor="middle" x="98" y="-11.3" font-family="Times,serif" font-size="14.00" fill="#0058ad">r 4 [1 2]</text>
<polyline fill="none" stroke="#0058ad" points="135,-0.5 135,-29.5 "/>
<text text-anchor="middle" x="289" y="-11.3" font-family="Times,serif" font-size="14.00" fill="#0058ad">r 3 [1 2 3 4 5 6 10 11 12 13 14 15 16 17]</text>
<polyline fill="none" stroke="#0058ad" points="443,-0.5 443,-29.5 "/>
<text text-anchor="middle" x="597" y="-11.3" font-family="Times,serif" font-size="14.00" fill="#0058ad">r 3 [1 2 3 4 5 6 10 11 12 13 14 15 16 17]</text>
<polyline fill="none" stroke="#0058ad" points="751,-0.5 751,-29.5 "/>
<text text-anchor="middle" x="903" y="-11.3" font-family="Times,serif" font-size="14.00" fill="#0058ad">r 0 [1 2 3 4 5 6 7 8 9 10 11 12 13 14 15]</text>
<polyline fill="none" stroke="#0058ad" points="1055,-0.5 1055,-29.5 "/>
<text text-anchor="middle" x="1085.5" y="-11.3" font-family="Times,serif" font-size="14.00" fill="#0058ad">a 3 18</text>
<polyline fill="none" stroke="#0058ad" points="1116,-0.5 1116,-29.5 "/>
<text text-anchor="middle" x="1153" y="-11.3" font-family="Times,serif" font-size="14.00" fill="#0058ad">r 4 [1 2]</text>
</g>
<!-- T88&#45;&gt;T89 -->
<g id="edge1" class="edge">
<title>T88:f2&#45;&gt;T89:f0</title>
<path fill="none" stroke="#5b00c0" d="M590,-81C590,-3.16 495.3,-57.16 418,-48 398.54,-45.69 94.39,-50.53 38.72,-35.27"/>
<polygon fill="#5b00c0" stroke="#5b00c0" points="40.37,-32.18 30,-30 36.75,-38.17 40.37,-32.18"/>
<text text-anchor="middle" x="596.5" y="-51.8" font-family="Times,serif" font-size="14.00" fill="#5b00c0">rw</text>
</g>
<!-- T89&#45;&gt;T88 -->
<g id="edge2" class="edge">
<title>T89:f4&#45;&gt;T88:f0</title>
<path fill="none" stroke="#5b00c0" d="M903,-30C903,-58.24 421.97,-39.64 395,-48 372.74,-54.9 350.68,-54.13 344.63,-70.65"/>
<polygon fill="#5b00c0" stroke="#5b00c0" points="341.09,-70.58 343,-81 348.01,-71.66 341.09,-70.58"/>
<text text-anchor="middle" x="404.5" y="-51.8" font-family="Times,serif" font-size="14.00" fill="#5b00c0">rw</text>
</g>
</g>
</svg>
