<?xml version="1.0" encoding="UTF-8" standalone="no"?>
<!DOCTYPE svg PUBLIC "-//W3C//DTD SVG 1.1//EN"
 "http://www.w3.org/Graphics/SVG/1.1/DTD/svg11.dtd">
<!-- Generated by graphviz version 2.43.0 (0)
 -->
<!-- Title: a_graph Pages: 1 -->
<svg width="1308pt" height="119pt"
 viewBox="0.00 0.00 1308.00 119.00" xmlns="http://www.w3.org/2000/svg" xmlns:xlink="http://www.w3.org/1999/xlink">
<g id="graph0" class="graph" transform="scale(1 1) rotate(0) translate(4 115)">
<title>a_graph</title>
<polygon fill="white" stroke="transparent" points="-4,4 -4,-115 1304,-115 1304,4 -4,4"/>
<!-- T1079 -->
<g id="node1" class="node">
<title>T1079</title>
<polygon fill="none" stroke="#0058ad" points="0,-81.5 0,-110.5 1300,-110.5 1300,-81.5 0,-81.5"/>
<text text-anchor="middle" x="82" y="-92.3" font-family="Times,serif" font-size="14.00" fill="#0058ad">r 40 [2 3 4 5 6 7 8 1]</text>
<polyline fill="none" stroke="#0058ad" points="164,-81.5 164,-110.5 "/>
<text text-anchor="middle" x="199" y="-92.3" font-family="Times,serif" font-size="14.00" fill="#0058ad">a 41 16</text>
<polyline fill="none" stroke="#0058ad" points="234,-81.5 234,-110.5 "/>
<text text-anchor="middle" x="401.5" y="-92.3" font-family="Times,serif" font-size="14.00" fill="#0058ad">r 41 [1 3 4 5 6 7 8 9 10 11 2 12 13 14 15 16]</text>
<polyline fill="none" stroke="#0058ad" points="569,-81.5 569,-110.5 "/>
<text text-anchor="middle" x="736.5" y="-92.3" font-family="Times,serif" font-size="14.00" fill="#0058ad">r 41 [1 3 4 5 6 7 8 9 10 11 2 12 13 14 15 16]</text>
<polyline fill="none" stroke="#0058ad" points="904,-81.5 904,-110.5 "/>
<text text-anchor="middle" x="1071.5" y="-92.3" font-family="Times,serif" font-size="14.00" fill="#0058ad">r 41 [1 3 4 5 6 7 8 9 10 11 2 12 13 14 15 16]</text>
<polyline fill="none" stroke="#0058ad" points="1239,-81.5 1239,-110.5 "/>
<text text-anchor="middle" x="1269.5" y="-92.3" font-family="Times,serif" font-size="14.00" fill="#0058ad">a 42 7</text>
</g>
<!-- T1080 -->
<g id="node2" class="node">
<title>T1080</title>
<polygon fill="none" stroke="#0058ad" points="868,-0.5 868,-29.5 1066,-29.5 1066,-0.5 868,-0.5"/>
<text text-anchor="middle" x="898.5" y="-11.3" font-family="Times,serif" font-size="14.00" fill="#0058ad">a 40 9</text>
<polyline fill="none" stroke="#0058ad" points="929,-0.5 929,-29.5 "/>
<text text-anchor="middle" x="997.5" y="-11.3" font-family="Times,serif" font-size="14.00" fill="#0058ad">r 42 [1 2 3 4 5 6]</text>
</g>
<!-- T1079&#45;&gt;T1080 -->
<g id="edge1" class="edge">
<title>T1079:f0&#45;&gt;T1080:f0</title>
<path fill="none" stroke="#5b00c0" d="M82,-81C82,-39.24 756.75,-17.09 856.7,-15.14"/>
<polygon fill="#5b00c0" stroke="#5b00c0" points="857.05,-18.64 867,-15 856.95,-11.64 857.05,-18.64"/>
<text text-anchor="middle" x="234.5" y="-51.8" font-family="Times,serif" font-size="14.00" fill="#5b00c0">rw</text>
</g>
<!-- T1080&#45;&gt;T1079 -->
<g id="edge2" class="edge">
<title>T1080:f1&#45;&gt;T1079:f5</title>
<path fill="none" stroke="#5b00c0" d="M1067,-15C1111.01,-15 1248.08,-30.98 1267.66,-71.16"/>
<polygon fill="#5b00c0" stroke="#5b00c0" points="1264.28,-72.08 1270,-81 1271.09,-70.46 1264.28,-72.08"/>
<text text-anchor="middle" x="1270.5" y="-51.8" font-family="Times,serif" font-size="14.00" fill="#5b00c0">rw</text>
</g>
</g>
</svg>
