<?xml version="1.0" encoding="UTF-8" standalone="no"?>
<!DOCTYPE svg PUBLIC "-//W3C//DTD SVG 1.1//EN"
 "http://www.w3.org/Graphics/SVG/1.1/DTD/svg11.dtd">
<!-- Generated by graphviz version 2.43.0 (0)
 -->
<!-- Title: a_graph Pages: 1 -->
<svg width="3661pt" height="119pt"
 viewBox="0.00 0.00 3661.00 119.00" xmlns="http://www.w3.org/2000/svg" xmlns:xlink="http://www.w3.org/1999/xlink">
<g id="graph0" class="graph" transform="scale(1 1) rotate(0) translate(4 115)">
<title>a_graph</title>
<polygon fill="white" stroke="transparent" points="-4,4 -4,-115 3657,-115 3657,4 -4,4"/>
<!-- T453 -->
<g id="node1" class="node">
<title>T453</title>
<polygon fill="none" stroke="#0058ad" points="0,-81.5 0,-110.5 3653,-110.5 3653,-81.5 0,-81.5"/>
<text text-anchor="middle" x="280" y="-92.3" font-family="Times,serif" font-size="14.00" fill="#0058ad">r 17 [1 2 3 4 5 6 7 8 9 10 11 12 13 14 15 16 17 18 19 20 21 22 23 24 25 26]</text>
<polyline fill="none" stroke="#0058ad" points="560,-81.5 560,-110.5 "/>
<text text-anchor="middle" x="795" y="-92.3" font-family="Times,serif" font-size="14.00" fill="#0058ad">r 16 [1 2 3 4 5 6 7 8 9 10 11 12 13 14 15 16 17 18 19 20 21 22]</text>
<polyline fill="none" stroke="#0058ad" points="1030,-81.5 1030,-110.5 "/>
<text text-anchor="middle" x="1265" y="-92.3" font-family="Times,serif" font-size="14.00" fill="#0058ad">r 16 [1 2 3 4 5 6 7 8 9 10 11 12 13 14 15 16 17 18 19 20 21 22]</text>
<polyline fill="none" stroke="#0058ad" points="1500,-81.5 1500,-110.5 "/>
<text text-anchor="middle" x="1735" y="-92.3" font-family="Times,serif" font-size="14.00" fill="#0058ad">r 16 [1 2 3 4 5 6 7 8 9 10 11 12 13 14 15 16 17 18 19 20 21 22]</text>
<polyline fill="none" stroke="#0058ad" points="1970,-81.5 1970,-110.5 "/>
<text text-anchor="middle" x="2250" y="-92.3" font-family="Times,serif" font-size="14.00" fill="#0058ad">r 17 [1 2 3 4 5 6 7 8 9 10 11 12 13 14 15 16 17 18 19 20 21 22 23 24 25 26]</text>
<polyline fill="none" stroke="#0058ad" points="2530,-81.5 2530,-110.5 "/>
<text text-anchor="middle" x="2565" y="-92.3" font-family="Times,serif" font-size="14.00" fill="#0058ad">a 17 27</text>
<polyline fill="none" stroke="#0058ad" points="2600,-81.5 2600,-110.5 "/>
<text text-anchor="middle" x="2891.5" y="-92.3" font-family="Times,serif" font-size="14.00" fill="#0058ad">r 17 [1 2 3 4 5 6 7 8 9 10 11 12 13 14 15 16 17 18 19 20 21 22 23 24 25 26 27]</text>
<polyline fill="none" stroke="#0058ad" points="3183,-81.5 3183,-110.5 "/>
<text text-anchor="middle" x="3418" y="-92.3" font-family="Times,serif" font-size="14.00" fill="#0058ad">r 16 [1 2 3 4 5 6 7 8 9 10 11 12 13 14 15 16 17 18 19 20 21 22]</text>
</g>
<!-- T452 -->
<g id="node2" class="node">
<title>T452</title>
<polygon fill="none" stroke="#0058ad" points="973.5,-0.5 973.5,-29.5 2143.5,-29.5 2143.5,-0.5 973.5,-0.5"/>
<text text-anchor="middle" x="1253.5" y="-11.3" font-family="Times,serif" font-size="14.00" fill="#0058ad">r 17 [1 2 3 4 5 6 7 8 9 10 11 12 13 14 15 16 17 18 19 20 21 22 23 24 25 26]</text>
<polyline fill="none" stroke="#0058ad" points="1533.5,-0.5 1533.5,-29.5 "/>
<text text-anchor="middle" x="1568.5" y="-11.3" font-family="Times,serif" font-size="14.00" fill="#0058ad">a 14 23</text>
<polyline fill="none" stroke="#0058ad" points="1603.5,-0.5 1603.5,-29.5 "/>
<text text-anchor="middle" x="1838.5" y="-11.3" font-family="Times,serif" font-size="14.00" fill="#0058ad">r 16 [1 2 3 4 5 6 7 8 9 10 11 12 13 14 15 16 17 18 19 20 21 22]</text>
<polyline fill="none" stroke="#0058ad" points="2073.5,-0.5 2073.5,-29.5 "/>
<text text-anchor="middle" x="2108.5" y="-11.3" font-family="Times,serif" font-size="14.00" fill="#0058ad">a 16 23</text>
</g>
<!-- T453&#45;&gt;T452 -->
<g id="edge1" class="edge">
<title>T453:f1&#45;&gt;T452:f3</title>
<path fill="none" stroke="#5b00c0" d="M794.5,-81C794.5,-10.87 2005.38,-95.71 2102.35,-37.99"/>
<polygon fill="#5b00c0" stroke="#5b00c0" points="2105.17,-40.06 2108.5,-30 2099.63,-35.79 2105.17,-40.06"/>
<text text-anchor="middle" x="2065" y="-51.8" font-family="Times,serif" font-size="14.00" fill="#5b00c0">rw</text>
</g>
<!-- T452&#45;&gt;T453 -->
<g id="edge2" class="edge">
<title>T452:f0&#45;&gt;T453:f5</title>
<path fill="none" stroke="#5b00c0" d="M1253.5,-30C1253.5,-52.92 2055.6,-46.97 2078.5,-48 2183.26,-52.69 2540.65,22.23 2564.27,-70.81"/>
<polygon fill="#5b00c0" stroke="#5b00c0" points="2560.83,-71.49 2565.5,-81 2567.78,-70.65 2560.83,-71.49"/>
<text text-anchor="middle" x="2568" y="-51.8" font-family="Times,serif" font-size="14.00" fill="#5b00c0">rw</text>
</g>
</g>
</svg>
