<?xml version="1.0" encoding="UTF-8" standalone="no"?>
<!DOCTYPE svg PUBLIC "-//W3C//DTD SVG 1.1//EN"
 "http://www.w3.org/Graphics/SVG/1.1/DTD/svg11.dtd">
<!-- Generated by graphviz version 2.43.0 (0)
 -->
<!-- Title: a_graph Pages: 1 -->
<svg width="526pt" height="119pt"
 viewBox="0.00 0.00 526.00 119.00" xmlns="http://www.w3.org/2000/svg" xmlns:xlink="http://www.w3.org/1999/xlink">
<g id="graph0" class="graph" transform="scale(1 1) rotate(0) translate(4 115)">
<title>a_graph</title>
<polygon fill="white" stroke="transparent" points="-4,4 -4,-115 522,-115 522,4 -4,4"/>
<!-- T1926 -->
<g id="node1" class="node">
<title>T1926</title>
<polygon fill="none" stroke="#0058ad" points="87,-81.5 87,-110.5 349,-110.5 349,-81.5 87,-81.5"/>
<text text-anchor="middle" x="122" y="-92.3" font-family="Times,serif" font-size="14.00" fill="#0058ad">a 45 19</text>
<polyline fill="none" stroke="#0058ad" points="157,-81.5 157,-110.5 "/>
<text text-anchor="middle" x="192" y="-92.3" font-family="Times,serif" font-size="14.00" fill="#0058ad">a 45 20</text>
<polyline fill="none" stroke="#0058ad" points="227,-81.5 227,-110.5 "/>
<text text-anchor="middle" x="257.5" y="-92.3" font-family="Times,serif" font-size="14.00" fill="#0058ad">r 47 []</text>
<polyline fill="none" stroke="#0058ad" points="288,-81.5 288,-110.5 "/>
<text text-anchor="middle" x="318.5" y="-92.3" font-family="Times,serif" font-size="14.00" fill="#0058ad">r 47 []</text>
</g>
<!-- T1927 -->
<g id="node2" class="node">
<title>T1927</title>
<polygon fill="none" stroke="#0058ad" points="0,-0.5 0,-29.5 518,-29.5 518,-0.5 0,-0.5"/>
<text text-anchor="middle" x="30.5" y="-11.3" font-family="Times,serif" font-size="14.00" fill="#0058ad">a 47 1</text>
<polyline fill="none" stroke="#0058ad" points="61,-0.5 61,-29.5 "/>
<text text-anchor="middle" x="91.5" y="-11.3" font-family="Times,serif" font-size="14.00" fill="#0058ad">a 46 2</text>
<polyline fill="none" stroke="#0058ad" points="122,-0.5 122,-29.5 "/>
<text text-anchor="middle" x="152.5" y="-11.3" font-family="Times,serif" font-size="14.00" fill="#0058ad">a 46 3</text>
<polyline fill="none" stroke="#0058ad" points="183,-0.5 183,-29.5 "/>
<text text-anchor="middle" x="350.5" y="-11.3" font-family="Times,serif" font-size="14.00" fill="#0058ad">r 45 [1 2 3 4 5 6 7 8 9 10 11 12 13 14 17 18]</text>
</g>
<!-- T1926&#45;&gt;T1927 -->
<g id="edge1" class="edge">
<title>T1926:f2&#45;&gt;T1927:f0</title>
<path fill="none" stroke="#5b00c0" d="M258,-81C258,-38.81 209.96,-58.11 169,-48 142.42,-41.44 55.19,-56.57 34.45,-39.18"/>
<polygon fill="#5b00c0" stroke="#5b00c0" points="37.51,-37.47 30,-30 31.21,-40.53 37.51,-37.47"/>
<text text-anchor="middle" x="261.5" y="-51.8" font-family="Times,serif" font-size="14.00" fill="#5b00c0">rw</text>
</g>
<!-- T1927&#45;&gt;T1926 -->
<g id="edge2" class="edge">
<title>T1927:f3&#45;&gt;T1926:f0</title>
<path fill="none" stroke="#5b00c0" d="M351,-30C351,-52.87 165.9,-36.74 146,-48 133.54,-55.05 125.8,-60.23 123.09,-71.01"/>
<polygon fill="#5b00c0" stroke="#5b00c0" points="119.61,-70.68 122,-81 126.56,-71.44 119.61,-70.68"/>
<text text-anchor="middle" x="155.5" y="-51.8" font-family="Times,serif" font-size="14.00" fill="#5b00c0">rw</text>
</g>
</g>
</svg>
