<?xml version="1.0" encoding="UTF-8" standalone="no"?>
<!DOCTYPE svg PUBLIC "-//W3C//DTD SVG 1.1//EN"
 "http://www.w3.org/Graphics/SVG/1.1/DTD/svg11.dtd">
<!-- Generated by graphviz version 2.43.0 (0)
 -->
<!-- Title: a_graph Pages: 1 -->
<svg width="2178pt" height="119pt"
 viewBox="0.00 0.00 2178.00 119.00" xmlns="http://www.w3.org/2000/svg" xmlns:xlink="http://www.w3.org/1999/xlink">
<g id="graph0" class="graph" transform="scale(1 1) rotate(0) translate(4 115)">
<title>a_graph</title>
<polygon fill="white" stroke="transparent" points="-4,4 -4,-115 2174,-115 2174,4 -4,4"/>
<!-- T1023 -->
<g id="node1" class="node">
<title>T1023</title>
<polygon fill="none" stroke="#0058ad" points="1933.5,-81.5 1933.5,-110.5 2064.5,-110.5 2064.5,-81.5 1933.5,-81.5"/>
<text text-anchor="middle" x="1968.5" y="-92.3" font-family="Times,serif" font-size="14.00" fill="#0058ad">a 37 10</text>
<polyline fill="none" stroke="#0058ad" points="2003.5,-81.5 2003.5,-110.5 "/>
<text text-anchor="middle" x="2034" y="-92.3" font-family="Times,serif" font-size="14.00" fill="#0058ad">r 39 []</text>
</g>
<!-- T1024 -->
<g id="node2" class="node">
<title>T1024</title>
<polygon fill="none" stroke="#0058ad" points="0,-0.5 0,-29.5 2170,-29.5 2170,-0.5 0,-0.5"/>
<text text-anchor="middle" x="264.5" y="-11.3" font-family="Times,serif" font-size="14.00" fill="#0058ad">r 36 [3 4 7 8 9 10 11 12 13 14 15 16 17 18 19 20 21 22 23 24 25 26 27]</text>
<polyline fill="none" stroke="#0058ad" points="529,-0.5 529,-29.5 "/>
<text text-anchor="middle" x="793.5" y="-11.3" font-family="Times,serif" font-size="14.00" fill="#0058ad">r 36 [3 4 7 8 9 10 11 12 13 14 15 16 17 18 19 20 21 22 23 24 25 26 27]</text>
<polyline fill="none" stroke="#0058ad" points="1058,-0.5 1058,-29.5 "/>
<text text-anchor="middle" x="1405.5" y="-11.3" font-family="Times,serif" font-size="14.00" fill="#0058ad">r 38 [1 2 3 4 5 6 7 8 9 10 11 12 13 14 15 16 17 18 19 20 21 22 23 24 25 26 27 28 29 30 31 32]</text>
<polyline fill="none" stroke="#0058ad" points="1753,-0.5 1753,-29.5 "/>
<text text-anchor="middle" x="1835" y="-11.3" font-family="Times,serif" font-size="14.00" fill="#0058ad">r 37 [1 2 4 5 6 7 8 9]</text>
<polyline fill="none" stroke="#0058ad" points="1917,-0.5 1917,-29.5 "/>
<text text-anchor="middle" x="1947.5" y="-11.3" font-family="Times,serif" font-size="14.00" fill="#0058ad">r 39 []</text>
<polyline fill="none" stroke="#0058ad" points="1978,-0.5 1978,-29.5 "/>
<text text-anchor="middle" x="2013" y="-11.3" font-family="Times,serif" font-size="14.00" fill="#0058ad">a 36 28</text>
<polyline fill="none" stroke="#0058ad" points="2048,-0.5 2048,-29.5 "/>
<text text-anchor="middle" x="2078.5" y="-11.3" font-family="Times,serif" font-size="14.00" fill="#0058ad">a 39 1</text>
<polyline fill="none" stroke="#0058ad" points="2109,-0.5 2109,-29.5 "/>
<text text-anchor="middle" x="2139.5" y="-11.3" font-family="Times,serif" font-size="14.00" fill="#0058ad">a 39 2</text>
</g>
<!-- T1023&#45;&gt;T1024 -->
<g id="edge1" class="edge">
<title>T1023:f1&#45;&gt;T1024:f6</title>
<path fill="none" stroke="#5b00c0" d="M2034,-81C2034,-54.79 2067.84,-58.42 2076.83,-40.13"/>
<polygon fill="#5b00c0" stroke="#5b00c0" points="2080.33,-40.51 2079,-30 2073.48,-39.04 2080.33,-40.51"/>
<text text-anchor="middle" x="2078.5" y="-51.8" font-family="Times,serif" font-size="14.00" fill="#5b00c0">rw</text>
</g>
<!-- T1024&#45;&gt;T1023 -->
<g id="edge2" class="edge">
<title>T1024:f3&#45;&gt;T1023:f0</title>
<path fill="none" stroke="#5b00c0" d="M1835,-30C1835,-78.68 1874.1,-93.99 1921.72,-95.81"/>
<polygon fill="#5b00c0" stroke="#5b00c0" points="1921.94,-99.31 1932,-96 1922.07,-92.32 1921.94,-99.31"/>
<text text-anchor="middle" x="1851.5" y="-51.8" font-family="Times,serif" font-size="14.00" fill="#5b00c0">rw</text>
</g>
</g>
</svg>
