<?xml version="1.0" encoding="UTF-8" standalone="no"?>
<!DOCTYPE svg PUBLIC "-//W3C//DTD SVG 1.1//EN"
 "http://www.w3.org/Graphics/SVG/1.1/DTD/svg11.dtd">
<!-- Generated by graphviz version 2.43.0 (0)
 -->
<!-- Title: a_graph Pages: 1 -->
<svg width="1613pt" height="119pt"
 viewBox="0.00 0.00 1613.00 119.00" xmlns="http://www.w3.org/2000/svg" xmlns:xlink="http://www.w3.org/1999/xlink">
<g id="graph0" class="graph" transform="scale(1 1) rotate(0) translate(4 115)">
<title>a_graph</title>
<polygon fill="white" stroke="transparent" points="-4,4 -4,-115 1609,-115 1609,4 -4,4"/>
<!-- T3905 -->
<g id="node1" class="node">
<title>T3905</title>
<polygon fill="none" stroke="#0058ad" points="0,-81.5 0,-110.5 1605,-110.5 1605,-81.5 0,-81.5"/>
<text text-anchor="middle" x="35" y="-92.3" font-family="Times,serif" font-size="14.00" fill="#0058ad">r 150 []</text>
<polyline fill="none" stroke="#0058ad" points="70,-81.5 70,-110.5 "/>
<text text-anchor="middle" x="123" y="-92.3" font-family="Times,serif" font-size="14.00" fill="#0058ad">r 149 [1 2 3]</text>
<polyline fill="none" stroke="#0058ad" points="176,-81.5 176,-110.5 "/>
<text text-anchor="middle" x="229" y="-92.3" font-family="Times,serif" font-size="14.00" fill="#0058ad">r 149 [1 2 3]</text>
<polyline fill="none" stroke="#0058ad" points="282,-81.5 282,-110.5 "/>
<text text-anchor="middle" x="566.5" y="-92.3" font-family="Times,serif" font-size="14.00" fill="#0058ad">r 148 [1 2 3 4 5 6 7 8 9 10 11 12 13 14 15 17 18 19 23 24 25 26 27 28 29 30]</text>
<polyline fill="none" stroke="#0058ad" points="851,-81.5 851,-110.5 "/>
<text text-anchor="middle" x="1135.5" y="-92.3" font-family="Times,serif" font-size="14.00" fill="#0058ad">r 148 [1 2 3 4 5 6 7 8 9 10 11 12 13 14 15 17 18 19 23 24 25 26 27 28 29 30]</text>
<polyline fill="none" stroke="#0058ad" points="1420,-81.5 1420,-110.5 "/>
<text text-anchor="middle" x="1459.5" y="-92.3" font-family="Times,serif" font-size="14.00" fill="#0058ad">a 148 31</text>
<polyline fill="none" stroke="#0058ad" points="1499,-81.5 1499,-110.5 "/>
<text text-anchor="middle" x="1552" y="-92.3" font-family="Times,serif" font-size="14.00" fill="#0058ad">r 149 [1 2 3]</text>
</g>
<!-- T3904 -->
<g id="node2" class="node">
<title>T3904</title>
<polygon fill="none" stroke="#0058ad" points="263.5,-0.5 263.5,-29.5 981.5,-29.5 981.5,-0.5 263.5,-0.5"/>
<text text-anchor="middle" x="548" y="-11.3" font-family="Times,serif" font-size="14.00" fill="#0058ad">r 148 [1 2 3 4 5 6 7 8 9 10 11 12 13 14 15 17 18 19 23 24 25 26 27 28 29 30]</text>
<polyline fill="none" stroke="#0058ad" points="832.5,-0.5 832.5,-29.5 "/>
<text text-anchor="middle" x="872" y="-11.3" font-family="Times,serif" font-size="14.00" fill="#0058ad">a 144 32</text>
<polyline fill="none" stroke="#0058ad" points="911.5,-0.5 911.5,-29.5 "/>
<text text-anchor="middle" x="946.5" y="-11.3" font-family="Times,serif" font-size="14.00" fill="#0058ad">a 150 1</text>
</g>
<!-- T3905&#45;&gt;T3904 -->
<g id="edge1" class="edge">
<title>T3905:f0&#45;&gt;T3904:f2</title>
<path fill="none" stroke="#5b00c0" d="M34.5,-81C34.5,118.42 914.72,-220.68 945.66,-40.19"/>
<polygon fill="#5b00c0" stroke="#5b00c0" points="949.17,-40.25 946.5,-30 942.19,-39.68 949.17,-40.25"/>
<text text-anchor="middle" x="951" y="-51.8" font-family="Times,serif" font-size="14.00" fill="#5b00c0">rw</text>
</g>
<!-- T3904&#45;&gt;T3905 -->
<g id="edge2" class="edge">
<title>T3904:f0&#45;&gt;T3905:f5</title>
<path fill="none" stroke="#5b00c0" d="M547.5,-30C547.5,-53.19 941.35,-46.73 964.5,-48 1071.03,-53.85 1434.98,23.97 1458.32,-70.94"/>
<polygon fill="#5b00c0" stroke="#5b00c0" points="1454.86,-71.47 1459.5,-81 1461.81,-70.66 1454.86,-71.47"/>
<text text-anchor="middle" x="1461" y="-51.8" font-family="Times,serif" font-size="14.00" fill="#5b00c0">rw</text>
</g>
</g>
</svg>
