<?xml version="1.0" encoding="UTF-8" standalone="no"?>
<!DOCTYPE svg PUBLIC "-//W3C//DTD SVG 1.1//EN"
 "http://www.w3.org/Graphics/SVG/1.1/DTD/svg11.dtd">
<!-- Generated by graphviz version 2.43.0 (0)
 -->
<!-- Title: a_graph Pages: 1 -->
<svg width="3085pt" height="119pt"
 viewBox="0.00 0.00 3085.00 119.00" xmlns="http://www.w3.org/2000/svg" xmlns:xlink="http://www.w3.org/1999/xlink">
<g id="graph0" class="graph" transform="scale(1 1) rotate(0) translate(4 115)">
<title>a_graph</title>
<polygon fill="white" stroke="transparent" points="-4,4 -4,-115 3081,-115 3081,4 -4,4"/>
<!-- T3295 -->
<g id="node1" class="node">
<title>T3295</title>
<polygon fill="none" stroke="#0058ad" points="215,-81.5 215,-110.5 3077,-110.5 3077,-81.5 215,-81.5"/>
<text text-anchor="middle" x="254.5" y="-92.3" font-family="Times,serif" font-size="14.00" fill="#0058ad">a 126 21</text>
<polyline fill="none" stroke="#0058ad" points="294,-81.5 294,-110.5 "/>
<text text-anchor="middle" x="522.5" y="-92.3" font-family="Times,serif" font-size="14.00" fill="#0058ad">r 126 [1 2 3 4 5 6 7 8 9 10 11 12 13 14 15 16 17 18 19 20 21]</text>
<polyline fill="none" stroke="#0058ad" points="751,-81.5 751,-110.5 "/>
<text text-anchor="middle" x="959" y="-92.3" font-family="Times,serif" font-size="14.00" fill="#0058ad">r 125 [1 2 3 7 8 9 10 11 12 13 14 15 16 17 18 19 20 21]</text>
<polyline fill="none" stroke="#0058ad" points="1167,-81.5 1167,-110.5 "/>
<text text-anchor="middle" x="1375" y="-92.3" font-family="Times,serif" font-size="14.00" fill="#0058ad">r 125 [1 2 3 7 8 9 10 11 12 13 14 15 16 17 18 19 20 21]</text>
<polyline fill="none" stroke="#0058ad" points="1583,-81.5 1583,-110.5 "/>
<text text-anchor="middle" x="1811.5" y="-92.3" font-family="Times,serif" font-size="14.00" fill="#0058ad">r 126 [1 2 3 4 5 6 7 8 9 10 11 12 13 14 15 16 17 18 19 20 21]</text>
<polyline fill="none" stroke="#0058ad" points="2040,-81.5 2040,-110.5 "/>
<text text-anchor="middle" x="2079.5" y="-92.3" font-family="Times,serif" font-size="14.00" fill="#0058ad">a 126 22</text>
<polyline fill="none" stroke="#0058ad" points="2119,-81.5 2119,-110.5 "/>
<text text-anchor="middle" x="2358.5" y="-92.3" font-family="Times,serif" font-size="14.00" fill="#0058ad">r 126 [1 2 3 4 5 6 7 8 9 10 11 12 13 14 15 16 17 18 19 20 21 22]</text>
<polyline fill="none" stroke="#0058ad" points="2598,-81.5 2598,-110.5 "/>
<text text-anchor="middle" x="2837.5" y="-92.3" font-family="Times,serif" font-size="14.00" fill="#0058ad">r 126 [1 2 3 4 5 6 7 8 9 10 11 12 13 14 15 16 17 18 19 20 21 22]</text>
</g>
<!-- T3294 -->
<g id="node2" class="node">
<title>T3294</title>
<polygon fill="none" stroke="#0058ad" points="0,-0.5 0,-29.5 1830,-29.5 1830,-0.5 0,-0.5"/>
<text text-anchor="middle" x="39.5" y="-11.3" font-family="Times,serif" font-size="14.00" fill="#0058ad">a 125 22</text>
<polyline fill="none" stroke="#0058ad" points="79,-0.5 79,-29.5 "/>
<text text-anchor="middle" x="298.5" y="-11.3" font-family="Times,serif" font-size="14.00" fill="#0058ad">r 125 [1 2 3 7 8 9 10 11 12 13 14 15 16 17 18 19 20 21 22]</text>
<polyline fill="none" stroke="#0058ad" points="518,-0.5 518,-29.5 "/>
<text text-anchor="middle" x="737.5" y="-11.3" font-family="Times,serif" font-size="14.00" fill="#0058ad">r 125 [1 2 3 7 8 9 10 11 12 13 14 15 16 17 18 19 20 21 22]</text>
<polyline fill="none" stroke="#0058ad" points="957,-0.5 957,-29.5 "/>
<text text-anchor="middle" x="1174" y="-11.3" font-family="Times,serif" font-size="14.00" fill="#0058ad">r 126 [1 2 3 4 5 6 7 8 9 10 11 12 13 14 15 16 17 18 19 20]</text>
<polyline fill="none" stroke="#0058ad" points="1391,-0.5 1391,-29.5 "/>
<text text-anchor="middle" x="1610.5" y="-11.3" font-family="Times,serif" font-size="14.00" fill="#0058ad">r 125 [1 2 3 7 8 9 10 11 12 13 14 15 16 17 18 19 20 21 22]</text>
</g>
<!-- T3295&#45;&gt;T3294 -->
<g id="edge1" class="edge">
<title>T3295:f2&#45;&gt;T3294:f0</title>
<path fill="none" stroke="#5b00c0" d="M959,-81C959,33.9 557.73,-54.22 443,-48 422.58,-46.89 104.66,-51.5 47.7,-35.4"/>
<polygon fill="#5b00c0" stroke="#5b00c0" points="49.34,-32.3 39,-30 45.65,-38.25 49.34,-32.3"/>
<text text-anchor="middle" x="963.5" y="-51.8" font-family="Times,serif" font-size="14.00" fill="#5b00c0">rw</text>
</g>
<!-- T3294&#45;&gt;T3295 -->
<g id="edge2" class="edge">
<title>T3294:f3&#45;&gt;T3295:f0</title>
<path fill="none" stroke="#5b00c0" d="M1174,-30C1174,-50.95 440.82,-45.7 420,-48 348.88,-55.86 262.87,-10.57 254.64,-70.86"/>
<polygon fill="#5b00c0" stroke="#5b00c0" points="251.14,-70.8 254,-81 258.12,-71.24 251.14,-70.8"/>
<text text-anchor="middle" x="429.5" y="-51.8" font-family="Times,serif" font-size="14.00" fill="#5b00c0">rw</text>
</g>
</g>
</svg>
