<?xml version="1.0" encoding="UTF-8" standalone="no"?>
<!DOCTYPE svg PUBLIC "-//W3C//DTD SVG 1.1//EN"
 "http://www.w3.org/Graphics/SVG/1.1/DTD/svg11.dtd">
<!-- Generated by graphviz version 2.43.0 (0)
 -->
<!-- Title: a_graph Pages: 1 -->
<svg width="2411pt" height="119pt"
 viewBox="0.00 0.00 2411.00 119.00" xmlns="http://www.w3.org/2000/svg" xmlns:xlink="http://www.w3.org/1999/xlink">
<g id="graph0" class="graph" transform="scale(1 1) rotate(0) translate(4 115)">
<title>a_graph</title>
<polygon fill="white" stroke="transparent" points="-4,4 -4,-115 2407,-115 2407,4 -4,4"/>
<!-- T775 -->
<g id="node1" class="node">
<title>T775</title>
<polygon fill="none" stroke="#0058ad" points="0,-81.5 0,-110.5 2403,-110.5 2403,-81.5 0,-81.5"/>
<text text-anchor="middle" x="325" y="-92.3" font-family="Times,serif" font-size="14.00" fill="#0058ad">r 23 [1 2 3 4 5 6 7 8 9 10 11 12 13 14 15 16 17 18 19 20 21 22 23 24 25 26 27 28 29 30]</text>
<polyline fill="none" stroke="#0058ad" points="650,-81.5 650,-110.5 "/>
<text text-anchor="middle" x="680.5" y="-92.3" font-family="Times,serif" font-size="14.00" fill="#0058ad">a 29 9</text>
<polyline fill="none" stroke="#0058ad" points="711,-81.5 711,-110.5 "/>
<text text-anchor="middle" x="800" y="-92.3" font-family="Times,serif" font-size="14.00" fill="#0058ad">r 29 [1 2 3 4 5 6 7 8 9]</text>
<polyline fill="none" stroke="#0058ad" points="889,-81.5 889,-110.5 "/>
<text text-anchor="middle" x="1214" y="-92.3" font-family="Times,serif" font-size="14.00" fill="#0058ad">r 23 [1 2 3 4 5 6 7 8 9 10 11 12 13 14 15 16 17 18 19 20 21 22 23 24 25 26 27 28 29 30]</text>
<polyline fill="none" stroke="#0058ad" points="1539,-81.5 1539,-110.5 "/>
<text text-anchor="middle" x="1801" y="-92.3" font-family="Times,serif" font-size="14.00" fill="#0058ad">r 27 [1 2 3 4 5 6 8 9 10 11 12 13 14 15 16 17 18 19 20 21 22 23 24 25]</text>
<polyline fill="none" stroke="#0058ad" points="2063,-81.5 2063,-110.5 "/>
<text text-anchor="middle" x="2098" y="-92.3" font-family="Times,serif" font-size="14.00" fill="#0058ad">a 29 10</text>
<polyline fill="none" stroke="#0058ad" points="2133,-81.5 2133,-110.5 "/>
<text text-anchor="middle" x="2233" y="-92.3" font-family="Times,serif" font-size="14.00" fill="#0058ad">r 29 [1 2 3 4 5 6 7 8 9 10]</text>
<polyline fill="none" stroke="#0058ad" points="2333,-81.5 2333,-110.5 "/>
<text text-anchor="middle" x="2368" y="-92.3" font-family="Times,serif" font-size="14.00" fill="#0058ad">a 29 11</text>
</g>
<!-- T777 -->
<g id="node2" class="node">
<title>T777</title>
<polygon fill="none" stroke="#0058ad" points="395.5,-0.5 395.5,-29.5 1167.5,-29.5 1167.5,-0.5 395.5,-0.5"/>
<text text-anchor="middle" x="430.5" y="-11.3" font-family="Times,serif" font-size="14.00" fill="#0058ad">a 23 31</text>
<polyline fill="none" stroke="#0058ad" points="465.5,-0.5 465.5,-29.5 "/>
<text text-anchor="middle" x="500.5" y="-11.3" font-family="Times,serif" font-size="14.00" fill="#0058ad">a 23 32</text>
<polyline fill="none" stroke="#0058ad" points="535.5,-0.5 535.5,-29.5 "/>
<text text-anchor="middle" x="617.5" y="-11.3" font-family="Times,serif" font-size="14.00" fill="#0058ad">r 29 [1 2 3 4 5 6 7 8]</text>
<polyline fill="none" stroke="#0058ad" points="699.5,-0.5 699.5,-29.5 "/>
<text text-anchor="middle" x="781.5" y="-11.3" font-family="Times,serif" font-size="14.00" fill="#0058ad">r 29 [1 2 3 4 5 6 7 8]</text>
<polyline fill="none" stroke="#0058ad" points="863.5,-0.5 863.5,-29.5 "/>
<text text-anchor="middle" x="898.5" y="-11.3" font-family="Times,serif" font-size="14.00" fill="#0058ad">a 27 27</text>
<polyline fill="none" stroke="#0058ad" points="933.5,-0.5 933.5,-29.5 "/>
<text text-anchor="middle" x="1015.5" y="-11.3" font-family="Times,serif" font-size="14.00" fill="#0058ad">r 29 [1 2 3 4 5 6 7 8]</text>
<polyline fill="none" stroke="#0058ad" points="1097.5,-0.5 1097.5,-29.5 "/>
<text text-anchor="middle" x="1132.5" y="-11.3" font-family="Times,serif" font-size="14.00" fill="#0058ad">a 27 28</text>
</g>
<!-- T775&#45;&gt;T777 -->
<g id="edge1" class="edge">
<title>T775:f0&#45;&gt;T777:f0</title>
<path fill="none" stroke="#5b00c0" d="M324.5,-81C324.5,-41.75 347.45,-18.94 384.3,-15.47"/>
<polygon fill="#5b00c0" stroke="#5b00c0" points="384.67,-18.95 394.5,-15 384.35,-11.96 384.67,-18.95"/>
<text text-anchor="middle" x="341" y="-51.8" font-family="Times,serif" font-size="14.00" fill="#5b00c0">rw</text>
</g>
<!-- T777&#45;&gt;T775 -->
<g id="edge2" class="edge">
<title>T777:f2&#45;&gt;T775:f1</title>
<path fill="none" stroke="#5b00c0" d="M617.5,-30C617.5,-62.08 667.47,-48.9 678.4,-71.08"/>
<polygon fill="#5b00c0" stroke="#5b00c0" points="675.01,-71.94 680.5,-81 681.86,-70.49 675.01,-71.94"/>
<text text-anchor="middle" x="680" y="-51.8" font-family="Times,serif" font-size="14.00" fill="#5b00c0">rw</text>
</g>
</g>
</svg>
