<?xml version="1.0" encoding="UTF-8" standalone="no"?>
<!DOCTYPE svg PUBLIC "-//W3C//DTD SVG 1.1//EN"
 "http://www.w3.org/Graphics/SVG/1.1/DTD/svg11.dtd">
<!-- Generated by graphviz version 2.43.0 (0)
 -->
<!-- Title: a_graph Pages: 1 -->
<svg width="2422pt" height="119pt"
 viewBox="0.00 0.00 2422.00 119.00" xmlns="http://www.w3.org/2000/svg" xmlns:xlink="http://www.w3.org/1999/xlink">
<g id="graph0" class="graph" transform="scale(1 1) rotate(0) translate(4 115)">
<title>a_graph</title>
<polygon fill="white" stroke="transparent" points="-4,4 -4,-115 2418,-115 2418,4 -4,4"/>
<!-- T2758 -->
<g id="node1" class="node">
<title>T2758</title>
<polygon fill="none" stroke="#0058ad" points="0,-81.5 0,-110.5 2245,-110.5 2245,-81.5 0,-81.5"/>
<text text-anchor="middle" x="262" y="-92.3" font-family="Times,serif" font-size="14.00" fill="#0058ad">r 104 [1 2 3 4 5 6 7 8 9 10 11 12 13 14 15 16 17 18 19 20 21 22 23 24]</text>
<polyline fill="none" stroke="#0058ad" points="524,-81.5 524,-110.5 "/>
<text text-anchor="middle" x="559" y="-92.3" font-family="Times,serif" font-size="14.00" fill="#0058ad">a 103 9</text>
<polyline fill="none" stroke="#0058ad" points="594,-81.5 594,-110.5 "/>
<text text-anchor="middle" x="856" y="-92.3" font-family="Times,serif" font-size="14.00" fill="#0058ad">r 104 [1 2 3 4 5 6 7 8 9 10 11 12 13 14 15 16 17 18 19 20 21 22 23 24]</text>
<polyline fill="none" stroke="#0058ad" points="1118,-81.5 1118,-110.5 "/>
<text text-anchor="middle" x="1157.5" y="-92.3" font-family="Times,serif" font-size="14.00" fill="#0058ad">a 105 15</text>
<polyline fill="none" stroke="#0058ad" points="1197,-81.5 1197,-110.5 "/>
<text text-anchor="middle" x="1459" y="-92.3" font-family="Times,serif" font-size="14.00" fill="#0058ad">r 104 [1 2 3 4 5 6 7 8 9 10 11 12 13 14 15 16 17 18 19 20 21 22 23 24]</text>
<polyline fill="none" stroke="#0058ad" points="1721,-81.5 1721,-110.5 "/>
<text text-anchor="middle" x="1983" y="-92.3" font-family="Times,serif" font-size="14.00" fill="#0058ad">r 104 [1 2 3 4 5 6 7 8 9 10 11 12 13 14 15 16 17 18 19 20 21 22 23 24]</text>
</g>
<!-- T2759 -->
<g id="node2" class="node">
<title>T2759</title>
<polygon fill="none" stroke="#0058ad" points="615,-0.5 615,-29.5 2414,-29.5 2414,-0.5 615,-0.5"/>
<text text-anchor="middle" x="654.5" y="-11.3" font-family="Times,serif" font-size="14.00" fill="#0058ad">a 104 25</text>
<polyline fill="none" stroke="#0058ad" points="694,-0.5 694,-29.5 "/>
<text text-anchor="middle" x="733.5" y="-11.3" font-family="Times,serif" font-size="14.00" fill="#0058ad">a 104 26</text>
<polyline fill="none" stroke="#0058ad" points="773,-0.5 773,-29.5 "/>
<text text-anchor="middle" x="922.5" y="-11.3" font-family="Times,serif" font-size="14.00" fill="#0058ad">r 105 [1 2 3 4 5 6 7 8 9 10 11 12 13 14]</text>
<polyline fill="none" stroke="#0058ad" points="1072,-0.5 1072,-29.5 "/>
<text text-anchor="middle" x="1111.5" y="-11.3" font-family="Times,serif" font-size="14.00" fill="#0058ad">a 104 27</text>
<polyline fill="none" stroke="#0058ad" points="1151,-0.5 1151,-29.5 "/>
<text text-anchor="middle" x="1447" y="-11.3" font-family="Times,serif" font-size="14.00" fill="#0058ad">r 104 [1 2 3 4 5 6 7 8 9 10 11 12 13 14 15 16 17 18 19 20 21 22 23 24 25 26 27]</text>
<polyline fill="none" stroke="#0058ad" points="1743,-0.5 1743,-29.5 "/>
<text text-anchor="middle" x="2039" y="-11.3" font-family="Times,serif" font-size="14.00" fill="#0058ad">r 104 [1 2 3 4 5 6 7 8 9 10 11 12 13 14 15 16 17 18 19 20 21 22 23 24 25 26 27]</text>
<polyline fill="none" stroke="#0058ad" points="2335,-0.5 2335,-29.5 "/>
<text text-anchor="middle" x="2374.5" y="-11.3" font-family="Times,serif" font-size="14.00" fill="#0058ad">a 104 28</text>
</g>
<!-- T2758&#45;&gt;T2759 -->
<g id="edge1" class="edge">
<title>T2758:f0&#45;&gt;T2759:f0</title>
<path fill="none" stroke="#5b00c0" d="M261.5,-81C261.5,-43.62 537.05,-18.22 603.41,-15.29"/>
<polygon fill="#5b00c0" stroke="#5b00c0" points="603.6,-18.78 613.5,-15 603.41,-11.78 603.6,-18.78"/>
<text text-anchor="middle" x="340" y="-51.8" font-family="Times,serif" font-size="14.00" fill="#5b00c0">rw</text>
</g>
<!-- T2759&#45;&gt;T2758 -->
<g id="edge2" class="edge">
<title>T2759:f2&#45;&gt;T2758:f3</title>
<path fill="none" stroke="#5b00c0" d="M922.5,-30C922.5,-133.22 1141.71,15.07 1156.7,-70.96"/>
<polygon fill="#5b00c0" stroke="#5b00c0" points="1153.21,-71.31 1157.5,-81 1160.19,-70.75 1153.21,-71.31"/>
<text text-anchor="middle" x="1162" y="-51.8" font-family="Times,serif" font-size="14.00" fill="#5b00c0">rw</text>
</g>
</g>
</svg>
