<?xml version="1.0" encoding="UTF-8" standalone="no"?>
<!DOCTYPE svg PUBLIC "-//W3C//DTD SVG 1.1//EN"
 "http://www.w3.org/Graphics/SVG/1.1/DTD/svg11.dtd">
<!-- Generated by graphviz version 2.43.0 (0)
 -->
<!-- Title: a_graph Pages: 1 -->
<svg width="1918pt" height="119pt"
 viewBox="0.00 0.00 1918.00 119.00" xmlns="http://www.w3.org/2000/svg" xmlns:xlink="http://www.w3.org/1999/xlink">
<g id="graph0" class="graph" transform="scale(1 1) rotate(0) translate(4 115)">
<title>a_graph</title>
<polygon fill="white" stroke="transparent" points="-4,4 -4,-115 1914,-115 1914,4 -4,4"/>
<!-- T689 -->
<g id="node1" class="node">
<title>T689</title>
<polygon fill="none" stroke="#0058ad" points="0,-81.5 0,-110.5 1910,-110.5 1910,-81.5 0,-81.5"/>
<text text-anchor="middle" x="291.5" y="-92.3" font-family="Times,serif" font-size="14.00" fill="#0058ad">r 26 [1 2 3 4 5 6 7 8 9 10 11 12 13 14 15 16 17 18 19 20 21 22 23 24 25 26 27]</text>
<polyline fill="none" stroke="#0058ad" points="583,-81.5 583,-110.5 "/>
<text text-anchor="middle" x="829.5" y="-92.3" font-family="Times,serif" font-size="14.00" fill="#0058ad">r 25 [1 2 3 4 5 6 7 8 9 10 11 12 13 14 15 16 17 18 19 20 21 22 23]</text>
<polyline fill="none" stroke="#0058ad" points="1076,-81.5 1076,-110.5 "/>
<text text-anchor="middle" x="1111" y="-92.3" font-family="Times,serif" font-size="14.00" fill="#0058ad">a 26 28</text>
<polyline fill="none" stroke="#0058ad" points="1146,-81.5 1146,-110.5 "/>
<text text-anchor="middle" x="1392.5" y="-92.3" font-family="Times,serif" font-size="14.00" fill="#0058ad">r 25 [1 2 3 4 5 6 7 8 9 10 11 12 13 14 15 16 17 18 19 20 21 22 23]</text>
<polyline fill="none" stroke="#0058ad" points="1639,-81.5 1639,-110.5 "/>
<text text-anchor="middle" x="1674" y="-92.3" font-family="Times,serif" font-size="14.00" fill="#0058ad">a 26 29</text>
<polyline fill="none" stroke="#0058ad" points="1709,-81.5 1709,-110.5 "/>
<text text-anchor="middle" x="1744" y="-92.3" font-family="Times,serif" font-size="14.00" fill="#0058ad">a 26 30</text>
<polyline fill="none" stroke="#0058ad" points="1779,-81.5 1779,-110.5 "/>
<text text-anchor="middle" x="1809.5" y="-92.3" font-family="Times,serif" font-size="14.00" fill="#0058ad">a 27 2</text>
<polyline fill="none" stroke="#0058ad" points="1840,-81.5 1840,-110.5 "/>
<text text-anchor="middle" x="1875" y="-92.3" font-family="Times,serif" font-size="14.00" fill="#0058ad">a 26 31</text>
</g>
<!-- T688 -->
<g id="node2" class="node">
<title>T688</title>
<polygon fill="none" stroke="#0058ad" points="515.5,-0.5 515.5,-29.5 1168.5,-29.5 1168.5,-0.5 515.5,-0.5"/>
<text text-anchor="middle" x="807" y="-11.3" font-family="Times,serif" font-size="14.00" fill="#0058ad">r 26 [1 2 3 4 5 6 7 8 9 10 11 12 13 14 15 16 17 18 19 20 21 22 23 24 25 26 27]</text>
<polyline fill="none" stroke="#0058ad" points="1098.5,-0.5 1098.5,-29.5 "/>
<text text-anchor="middle" x="1133.5" y="-11.3" font-family="Times,serif" font-size="14.00" fill="#0058ad">a 25 24</text>
</g>
<!-- T689&#45;&gt;T688 -->
<g id="edge1" class="edge">
<title>T689:f1&#45;&gt;T688:f1</title>
<path fill="none" stroke="#5b00c0" d="M829,-81C829,0.77 929.3,-61.21 1010,-48 1033.83,-44.1 1109.58,-54.37 1129.28,-39"/>
<polygon fill="#5b00c0" stroke="#5b00c0" points="1132.46,-40.48 1134,-30 1126.26,-37.23 1132.46,-40.48"/>
<text text-anchor="middle" x="1019.5" y="-51.8" font-family="Times,serif" font-size="14.00" fill="#5b00c0">rw</text>
</g>
<!-- T688&#45;&gt;T689 -->
<g id="edge2" class="edge">
<title>T688:f0&#45;&gt;T689:f2</title>
<path fill="none" stroke="#5b00c0" d="M807,-30C807,-54.75 1004.91,-42.32 1029,-48 1063.5,-56.14 1102.5,-44.47 1109.79,-70.98"/>
<polygon fill="#5b00c0" stroke="#5b00c0" points="1106.33,-71.49 1111,-81 1113.28,-70.65 1106.33,-71.49"/>
<text text-anchor="middle" x="1114.5" y="-51.8" font-family="Times,serif" font-size="14.00" fill="#5b00c0">rw</text>
</g>
</g>
</svg>
