<?xml version="1.0" encoding="UTF-8" standalone="no"?>
<!DOCTYPE svg PUBLIC "-//W3C//DTD SVG 1.1//EN"
 "http://www.w3.org/Graphics/SVG/1.1/DTD/svg11.dtd">
<!-- Generated by graphviz version 2.43.0 (0)
 -->
<!-- Title: a_graph Pages: 1 -->
<svg width="1943pt" height="119pt"
 viewBox="0.00 0.00 1943.00 119.00" xmlns="http://www.w3.org/2000/svg" xmlns:xlink="http://www.w3.org/1999/xlink">
<g id="graph0" class="graph" transform="scale(1 1) rotate(0) translate(4 115)">
<title>a_graph</title>
<polygon fill="white" stroke="transparent" points="-4,4 -4,-115 1939,-115 1939,4 -4,4"/>
<!-- T428 -->
<g id="node1" class="node">
<title>T428</title>
<polygon fill="none" stroke="#0058ad" points="0,-81.5 0,-110.5 1935,-110.5 1935,-81.5 0,-81.5"/>
<text text-anchor="middle" x="305" y="-92.3" font-family="Times,serif" font-size="14.00" fill="#0058ad">r 12 [1 2 8 9 10 11 14 15 16 17 18 20 21 22 23 24 25 26 27 28 29 30 31 32 19 3 4]</text>
<polyline fill="none" stroke="#0058ad" points="610,-81.5 610,-110.5 "/>
<text text-anchor="middle" x="930.5" y="-92.3" font-family="Times,serif" font-size="14.00" fill="#0058ad">r 6 [1 4 5 6 7 8 9 10 11 12 14 2 13 15 3 17 18 19 20 21 22 23 24 25 26 27 28 29 32 30]</text>
<polyline fill="none" stroke="#0058ad" points="1251,-81.5 1251,-110.5 "/>
<text text-anchor="middle" x="1281.5" y="-92.3" font-family="Times,serif" font-size="14.00" fill="#0058ad">a 12 5</text>
<polyline fill="none" stroke="#0058ad" points="1312,-81.5 1312,-110.5 "/>
<text text-anchor="middle" x="1623.5" y="-92.3" font-family="Times,serif" font-size="14.00" fill="#0058ad">r 12 [1 2 8 9 10 11 14 15 16 17 18 20 21 22 23 24 25 26 27 28 29 30 31 32 19 3 4 5]</text>
</g>
<!-- T427 -->
<g id="node2" class="node">
<title>T427</title>
<polygon fill="none" stroke="#0058ad" points="556,-0.5 556,-29.5 1837,-29.5 1837,-0.5 556,-0.5"/>
<text text-anchor="middle" x="861" y="-11.3" font-family="Times,serif" font-size="14.00" fill="#0058ad">r 12 [1 2 8 9 10 11 14 15 16 17 18 20 21 22 23 24 25 26 27 28 29 30 31 32 19 3 4]</text>
<polyline fill="none" stroke="#0058ad" points="1166,-0.5 1166,-29.5 "/>
<text text-anchor="middle" x="1196.5" y="-11.3" font-family="Times,serif" font-size="14.00" fill="#0058ad">a 6 31</text>
<polyline fill="none" stroke="#0058ad" points="1227,-0.5 1227,-29.5 "/>
<text text-anchor="middle" x="1532" y="-11.3" font-family="Times,serif" font-size="14.00" fill="#0058ad">r 12 [1 2 8 9 10 11 14 15 16 17 18 20 21 22 23 24 25 26 27 28 29 30 31 32 19 3 4]</text>
</g>
<!-- T428&#45;&gt;T427 -->
<g id="edge1" class="edge">
<title>T428:f1&#45;&gt;T427:f1</title>
<path fill="none" stroke="#5b00c0" d="M930.5,-81C930.5,-53.79 1148.02,-58.7 1189.66,-37.63"/>
<polygon fill="#5b00c0" stroke="#5b00c0" points="1192.43,-39.78 1196.5,-30 1187.22,-35.11 1192.43,-39.78"/>
<text text-anchor="middle" x="1149" y="-51.8" font-family="Times,serif" font-size="14.00" fill="#5b00c0">rw</text>
</g>
<!-- T427&#45;&gt;T428 -->
<g id="edge2" class="edge">
<title>T427:f0&#45;&gt;T428:f2</title>
<path fill="none" stroke="#5b00c0" d="M860.5,-30C860.5,-46.81 1145.92,-45.24 1162.5,-48 1212.94,-56.4 1272.68,-30.15 1280.61,-70.91"/>
<polygon fill="#5b00c0" stroke="#5b00c0" points="1277.14,-71.34 1281.5,-81 1284.11,-70.73 1277.14,-71.34"/>
<text text-anchor="middle" x="1287" y="-51.8" font-family="Times,serif" font-size="14.00" fill="#5b00c0">rw</text>
</g>
</g>
</svg>
