<?xml version="1.0" encoding="UTF-8" standalone="no"?>
<!DOCTYPE svg PUBLIC "-//W3C//DTD SVG 1.1//EN"
 "http://www.w3.org/Graphics/SVG/1.1/DTD/svg11.dtd">
<!-- Generated by graphviz version 2.43.0 (0)
 -->
<!-- Title: a_graph Pages: 1 -->
<svg width="4494pt" height="119pt"
 viewBox="0.00 0.00 4494.00 119.00" xmlns="http://www.w3.org/2000/svg" xmlns:xlink="http://www.w3.org/1999/xlink">
<g id="graph0" class="graph" transform="scale(1 1) rotate(0) translate(4 115)">
<title>a_graph</title>
<polygon fill="white" stroke="transparent" points="-4,4 -4,-115 4490,-115 4490,4 -4,4"/>
<!-- T3080 -->
<g id="node1" class="node">
<title>T3080</title>
<polygon fill="none" stroke="#0058ad" points="641.5,-81.5 641.5,-110.5 1908.5,-110.5 1908.5,-81.5 641.5,-81.5"/>
<text text-anchor="middle" x="957.5" y="-92.3" font-family="Times,serif" font-size="14.00" fill="#0058ad">r 113 [2 6 7 9 10 11 12 13 14 15 16 17 18 19 20 23 24 25 26 27 28 29 30 31 32 1 4 5]</text>
<polyline fill="none" stroke="#0058ad" points="1273.5,-81.5 1273.5,-110.5 "/>
<text text-anchor="middle" x="1556" y="-92.3" font-family="Times,serif" font-size="14.00" fill="#0058ad">r 112 [1 2 3 4 5 6 7 11 13 15 16 17 18 19 22 23 24 25 26 28 29 30 31 32 12]</text>
<polyline fill="none" stroke="#0058ad" points="1838.5,-81.5 1838.5,-110.5 "/>
<text text-anchor="middle" x="1873.5" y="-92.3" font-family="Times,serif" font-size="14.00" fill="#0058ad">a 113 8</text>
</g>
<!-- T3082 -->
<g id="node2" class="node">
<title>T3082</title>
<polygon fill="none" stroke="#0058ad" points="0,-0.5 0,-29.5 4486,-29.5 4486,-0.5 0,-0.5"/>
<text text-anchor="middle" x="316" y="-11.3" font-family="Times,serif" font-size="14.00" fill="#0058ad">r 113 [2 6 7 9 10 11 12 13 14 15 16 17 18 19 20 23 24 25 26 27 28 29 30 31 32 1 4 5]</text>
<polyline fill="none" stroke="#0058ad" points="632,-0.5 632,-29.5 "/>
<text text-anchor="middle" x="973" y="-11.3" font-family="Times,serif" font-size="14.00" fill="#0058ad">r 109 [1 2 3 4 5 6 7 8 9 10 11 12 13 15 16 17 18 19 20 21 22 23 24 25 26 27 29 30 31 32 28]</text>
<polyline fill="none" stroke="#0058ad" points="1314,-0.5 1314,-29.5 "/>
<text text-anchor="middle" x="1630" y="-11.3" font-family="Times,serif" font-size="14.00" fill="#0058ad">r 113 [2 6 7 9 10 11 12 13 14 15 16 17 18 19 20 23 24 25 26 27 28 29 30 31 32 1 4 5]</text>
<polyline fill="none" stroke="#0058ad" points="1946,-0.5 1946,-29.5 "/>
<text text-anchor="middle" x="2228.5" y="-11.3" font-family="Times,serif" font-size="14.00" fill="#0058ad">r 112 [1 2 3 4 5 6 7 11 13 15 16 17 18 19 22 23 24 25 26 28 29 30 31 32 12]</text>
<polyline fill="none" stroke="#0058ad" points="2511,-0.5 2511,-29.5 "/>
<text text-anchor="middle" x="2827" y="-11.3" font-family="Times,serif" font-size="14.00" fill="#0058ad">r 113 [2 6 7 9 10 11 12 13 14 15 16 17 18 19 20 23 24 25 26 27 28 29 30 31 32 1 4 5]</text>
<polyline fill="none" stroke="#0058ad" points="3143,-0.5 3143,-29.5 "/>
<text text-anchor="middle" x="3182.5" y="-11.3" font-family="Times,serif" font-size="14.00" fill="#0058ad">a 112 14</text>
<polyline fill="none" stroke="#0058ad" points="3222,-0.5 3222,-29.5 "/>
<text text-anchor="middle" x="3538" y="-11.3" font-family="Times,serif" font-size="14.00" fill="#0058ad">r 113 [2 6 7 9 10 11 12 13 14 15 16 17 18 19 20 23 24 25 26 27 28 29 30 31 32 1 4 5]</text>
<polyline fill="none" stroke="#0058ad" points="3854,-0.5 3854,-29.5 "/>
<text text-anchor="middle" x="4170" y="-11.3" font-family="Times,serif" font-size="14.00" fill="#0058ad">r 113 [2 6 7 9 10 11 12 13 14 15 16 17 18 19 20 23 24 25 26 27 28 29 30 31 32 1 4 5]</text>
</g>
<!-- T3080&#45;&gt;T3082 -->
<g id="edge1" class="edge">
<title>T3080:f1&#45;&gt;T3082:f5</title>
<path fill="none" stroke="#5b00c0" d="M1556,-81C1556,12.6 1670.74,-55.95 1764,-48 1782.68,-46.41 3049.63,-49.39 3173.31,-32.73"/>
<polygon fill="#5b00c0" stroke="#5b00c0" points="3174.32,-36.08 3183,-30 3172.43,-29.34 3174.32,-36.08"/>
<text text-anchor="middle" x="1773.5" y="-51.8" font-family="Times,serif" font-size="14.00" fill="#5b00c0">rw</text>
</g>
<!-- T3082&#45;&gt;T3080 -->
<g id="edge2" class="edge">
<title>T3082:f0&#45;&gt;T3080:f2</title>
<path fill="none" stroke="#5b00c0" d="M316,-30C316,-50.38 1762.95,-44.35 1783,-48 1821.52,-55.01 1865.31,-40.96 1872.86,-70.81"/>
<polygon fill="#5b00c0" stroke="#5b00c0" points="1869.41,-71.45 1874,-81 1876.37,-70.67 1869.41,-71.45"/>
<text text-anchor="middle" x="1878.5" y="-51.8" font-family="Times,serif" font-size="14.00" fill="#5b00c0">rw</text>
</g>
</g>
</svg>
