<?xml version="1.0" encoding="UTF-8" standalone="no"?>
<!DOCTYPE svg PUBLIC "-//W3C//DTD SVG 1.1//EN"
 "http://www.w3.org/Graphics/SVG/1.1/DTD/svg11.dtd">
<!-- Generated by graphviz version 2.43.0 (0)
 -->
<!-- Title: a_graph Pages: 1 -->
<svg width="1193pt" height="119pt"
 viewBox="0.00 0.00 1193.00 119.00" xmlns="http://www.w3.org/2000/svg" xmlns:xlink="http://www.w3.org/1999/xlink">
<g id="graph0" class="graph" transform="scale(1 1) rotate(0) translate(4 115)">
<title>a_graph</title>
<polygon fill="white" stroke="transparent" points="-4,4 -4,-115 1189,-115 1189,4 -4,4"/>
<!-- T998 -->
<g id="node1" class="node">
<title>T998</title>
<polygon fill="none" stroke="#0058ad" points="0,-81.5 0,-110.5 1185,-110.5 1185,-81.5 0,-81.5"/>
<text text-anchor="middle" x="224" y="-92.3" font-family="Times,serif" font-size="14.00" fill="#0058ad">r 37 [1 2 3 4 5 6 7 8 9 10 11 12 13 17 18 19 20 21 22 23 24]</text>
<polyline fill="none" stroke="#0058ad" points="448,-81.5 448,-110.5 "/>
<text text-anchor="middle" x="478.5" y="-92.3" font-family="Times,serif" font-size="14.00" fill="#0058ad">a 38 1</text>
<polyline fill="none" stroke="#0058ad" points="509,-81.5 509,-110.5 "/>
<text text-anchor="middle" x="643" y="-92.3" font-family="Times,serif" font-size="14.00" fill="#0058ad">r 35 [1 2 3 4 5 6 7 8 9 10 11 12 13]</text>
<polyline fill="none" stroke="#0058ad" points="777,-81.5 777,-110.5 "/>
<text text-anchor="middle" x="812" y="-92.3" font-family="Times,serif" font-size="14.00" fill="#0058ad">r 38 [1]</text>
<polyline fill="none" stroke="#0058ad" points="847,-81.5 847,-110.5 "/>
<text text-anchor="middle" x="882" y="-92.3" font-family="Times,serif" font-size="14.00" fill="#0058ad">r 38 [1]</text>
<polyline fill="none" stroke="#0058ad" points="917,-81.5 917,-110.5 "/>
<text text-anchor="middle" x="1051" y="-92.3" font-family="Times,serif" font-size="14.00" fill="#0058ad">r 35 [1 2 3 4 5 6 7 8 9 10 11 12 13]</text>
</g>
<!-- T999 -->
<g id="node2" class="node">
<title>T999</title>
<polygon fill="none" stroke="#0058ad" points="73.5,-0.5 73.5,-29.5 533.5,-29.5 533.5,-0.5 73.5,-0.5"/>
<text text-anchor="middle" x="207.5" y="-11.3" font-family="Times,serif" font-size="14.00" fill="#0058ad">r 35 [1 2 3 4 5 6 7 8 9 10 11 12 13]</text>
<polyline fill="none" stroke="#0058ad" points="341.5,-0.5 341.5,-29.5 "/>
<text text-anchor="middle" x="372" y="-11.3" font-family="Times,serif" font-size="14.00" fill="#0058ad">r 38 []</text>
<polyline fill="none" stroke="#0058ad" points="402.5,-0.5 402.5,-29.5 "/>
<text text-anchor="middle" x="437.5" y="-11.3" font-family="Times,serif" font-size="14.00" fill="#0058ad">a 37 25</text>
<polyline fill="none" stroke="#0058ad" points="472.5,-0.5 472.5,-29.5 "/>
<text text-anchor="middle" x="503" y="-11.3" font-family="Times,serif" font-size="14.00" fill="#0058ad">r 38 []</text>
</g>
<!-- T998&#45;&gt;T999 -->
<g id="edge1" class="edge">
<title>T998:f0&#45;&gt;T999:f2</title>
<path fill="none" stroke="#5b00c0" d="M223.5,-81C223.5,-70.26 388.81,-48.44 428.85,-35.02"/>
<polygon fill="#5b00c0" stroke="#5b00c0" points="430.61,-38.05 437.5,-30 427.09,-31.99 430.61,-38.05"/>
<text text-anchor="middle" x="378" y="-51.8" font-family="Times,serif" font-size="14.00" fill="#5b00c0">rw</text>
</g>
<!-- T999&#45;&gt;T998 -->
<g id="edge2" class="edge">
<title>T999:f1&#45;&gt;T998:f1</title>
<path fill="none" stroke="#5b00c0" d="M372.5,-30C372.5,-52.77 452.93,-54.73 473.67,-72.14"/>
<polygon fill="#5b00c0" stroke="#5b00c0" points="470.64,-73.9 478.5,-81 476.79,-70.54 470.64,-73.9"/>
<text text-anchor="middle" x="463" y="-51.8" font-family="Times,serif" font-size="14.00" fill="#5b00c0">rw</text>
</g>
</g>
</svg>
