<?xml version="1.0" encoding="UTF-8" standalone="no"?>
<!DOCTYPE svg PUBLIC "-//W3C//DTD SVG 1.1//EN"
 "http://www.w3.org/Graphics/SVG/1.1/DTD/svg11.dtd">
<!-- Generated by graphviz version 2.43.0 (0)
 -->
<!-- Title: a_graph Pages: 1 -->
<svg width="1028pt" height="119pt"
 viewBox="0.00 0.00 1028.00 119.00" xmlns="http://www.w3.org/2000/svg" xmlns:xlink="http://www.w3.org/1999/xlink">
<g id="graph0" class="graph" transform="scale(1 1) rotate(0) translate(4 115)">
<title>a_graph</title>
<polygon fill="white" stroke="transparent" points="-4,4 -4,-115 1024,-115 1024,4 -4,4"/>
<!-- T909 -->
<g id="node1" class="node">
<title>T909</title>
<polygon fill="none" stroke="#0058ad" points="0,-81.5 0,-110.5 858,-110.5 858,-81.5 0,-81.5"/>
<text text-anchor="middle" x="35" y="-92.3" font-family="Times,serif" font-size="14.00" fill="#0058ad">a 33 19</text>
<polyline fill="none" stroke="#0058ad" points="70,-81.5 70,-110.5 "/>
<text text-anchor="middle" x="258" y="-92.3" font-family="Times,serif" font-size="14.00" fill="#0058ad">r 33 [1 2 3 4 5 8 9 10 11 12 13 14 15 16 17 18 19]</text>
<polyline fill="none" stroke="#0058ad" points="446,-81.5 446,-110.5 "/>
<text text-anchor="middle" x="476.5" y="-92.3" font-family="Times,serif" font-size="14.00" fill="#0058ad">a 32 8</text>
<polyline fill="none" stroke="#0058ad" points="507,-81.5 507,-110.5 "/>
<text text-anchor="middle" x="562" y="-92.3" font-family="Times,serif" font-size="14.00" fill="#0058ad">r 35 [1 2 3 4]</text>
<polyline fill="none" stroke="#0058ad" points="617,-81.5 617,-110.5 "/>
<text text-anchor="middle" x="647.5" y="-92.3" font-family="Times,serif" font-size="14.00" fill="#0058ad">a 32 9</text>
<polyline fill="none" stroke="#0058ad" points="678,-81.5 678,-110.5 "/>
<text text-anchor="middle" x="713" y="-92.3" font-family="Times,serif" font-size="14.00" fill="#0058ad">a 32 10</text>
<polyline fill="none" stroke="#0058ad" points="748,-81.5 748,-110.5 "/>
<text text-anchor="middle" x="803" y="-92.3" font-family="Times,serif" font-size="14.00" fill="#0058ad">r 35 [1 2 3 4]</text>
</g>
<!-- T908 -->
<g id="node2" class="node">
<title>T908</title>
<polygon fill="none" stroke="#0058ad" points="436,-0.5 436,-29.5 1020,-29.5 1020,-0.5 436,-0.5"/>
<text text-anchor="middle" x="466.5" y="-11.3" font-family="Times,serif" font-size="14.00" fill="#0058ad">a 35 5</text>
<polyline fill="none" stroke="#0058ad" points="497,-0.5 497,-29.5 "/>
<text text-anchor="middle" x="572.5" y="-11.3" font-family="Times,serif" font-size="14.00" fill="#0058ad">r 32 [1 2 3 4 5 6 7]</text>
<polyline fill="none" stroke="#0058ad" points="648,-0.5 648,-29.5 "/>
<text text-anchor="middle" x="710" y="-11.3" font-family="Times,serif" font-size="14.00" fill="#0058ad">r 35 [1 2 3 4 5]</text>
<polyline fill="none" stroke="#0058ad" points="772,-0.5 772,-29.5 "/>
<text text-anchor="middle" x="834" y="-11.3" font-family="Times,serif" font-size="14.00" fill="#0058ad">r 35 [1 2 3 4 5]</text>
<polyline fill="none" stroke="#0058ad" points="896,-0.5 896,-29.5 "/>
<text text-anchor="middle" x="958" y="-11.3" font-family="Times,serif" font-size="14.00" fill="#0058ad">r 35 [1 2 3 4 5]</text>
</g>
<!-- T909&#45;&gt;T908 -->
<g id="edge1" class="edge">
<title>T909:f3&#45;&gt;T908:f0</title>
<path fill="none" stroke="#5b00c0" d="M562,-81C562,-51.88 524.1,-77.77 499,-63 484.61,-54.54 472.01,-51.76 467.64,-40.19"/>
<polygon fill="#5b00c0" stroke="#5b00c0" points="471.04,-39.32 466,-30 464.13,-40.43 471.04,-39.32"/>
<text text-anchor="middle" x="508.5" y="-51.8" font-family="Times,serif" font-size="14.00" fill="#5b00c0">rw</text>
</g>
<!-- T908&#45;&gt;T909 -->
<g id="edge2" class="edge">
<title>T908:f1&#45;&gt;T909:f2</title>
<path fill="none" stroke="#5b00c0" d="M572,-30C572,-58.13 542.93,-49.98 518,-63 504.49,-70.05 487.64,-65.19 480.47,-71.46"/>
<polygon fill="#5b00c0" stroke="#5b00c0" points="477.13,-70.41 477,-81 483.71,-72.8 477.13,-70.41"/>
<text text-anchor="middle" x="572.5" y="-51.8" font-family="Times,serif" font-size="14.00" fill="#5b00c0">rw</text>
</g>
</g>
</svg>
