<?xml version="1.0" encoding="UTF-8" standalone="no"?>
<!DOCTYPE svg PUBLIC "-//W3C//DTD SVG 1.1//EN"
 "http://www.w3.org/Graphics/SVG/1.1/DTD/svg11.dtd">
<!-- Generated by graphviz version 2.43.0 (0)
 -->
<!-- Title: a_graph Pages: 1 -->
<svg width="1030pt" height="119pt"
 viewBox="0.00 0.00 1030.00 119.00" xmlns="http://www.w3.org/2000/svg" xmlns:xlink="http://www.w3.org/1999/xlink">
<g id="graph0" class="graph" transform="scale(1 1) rotate(0) translate(4 115)">
<title>a_graph</title>
<polygon fill="white" stroke="transparent" points="-4,4 -4,-115 1026,-115 1026,4 -4,4"/>
<!-- T873 -->
<g id="node1" class="node">
<title>T873</title>
<polygon fill="none" stroke="#0058ad" points="0,-81.5 0,-110.5 1022,-110.5 1022,-81.5 0,-81.5"/>
<text text-anchor="middle" x="86.5" y="-92.3" font-family="Times,serif" font-size="14.00" fill="#0058ad">r 34 [1 2 3 6 7 8 9 13]</text>
<polyline fill="none" stroke="#0058ad" points="173,-81.5 173,-110.5 "/>
<text text-anchor="middle" x="235" y="-92.3" font-family="Times,serif" font-size="14.00" fill="#0058ad">r 33 [1 2 3 4 5]</text>
<polyline fill="none" stroke="#0058ad" points="297,-81.5 297,-110.5 "/>
<text text-anchor="middle" x="383.5" y="-92.3" font-family="Times,serif" font-size="14.00" fill="#0058ad">r 34 [1 2 3 6 7 8 9 13]</text>
<polyline fill="none" stroke="#0058ad" points="470,-81.5 470,-110.5 "/>
<text text-anchor="middle" x="532" y="-92.3" font-family="Times,serif" font-size="14.00" fill="#0058ad">r 33 [1 2 3 4 5]</text>
<polyline fill="none" stroke="#0058ad" points="594,-81.5 594,-110.5 "/>
<text text-anchor="middle" x="680.5" y="-92.3" font-family="Times,serif" font-size="14.00" fill="#0058ad">r 34 [1 2 3 6 7 8 9 13]</text>
<polyline fill="none" stroke="#0058ad" points="767,-81.5 767,-110.5 "/>
<text text-anchor="middle" x="802" y="-92.3" font-family="Times,serif" font-size="14.00" fill="#0058ad">a 34 14</text>
<polyline fill="none" stroke="#0058ad" points="837,-81.5 837,-110.5 "/>
<text text-anchor="middle" x="867.5" y="-92.3" font-family="Times,serif" font-size="14.00" fill="#0058ad">a 32 3</text>
<polyline fill="none" stroke="#0058ad" points="898,-81.5 898,-110.5 "/>
<text text-anchor="middle" x="960" y="-92.3" font-family="Times,serif" font-size="14.00" fill="#0058ad">r 33 [1 2 3 4 5]</text>
</g>
<!-- T872 -->
<g id="node2" class="node">
<title>T872</title>
<polygon fill="none" stroke="#0058ad" points="374,-0.5 374,-29.5 608,-29.5 608,-0.5 374,-0.5"/>
<text text-anchor="middle" x="460.5" y="-11.3" font-family="Times,serif" font-size="14.00" fill="#0058ad">r 34 [1 2 3 6 7 8 9 13]</text>
<polyline fill="none" stroke="#0058ad" points="547,-0.5 547,-29.5 "/>
<text text-anchor="middle" x="577.5" y="-11.3" font-family="Times,serif" font-size="14.00" fill="#0058ad">a 33 8</text>
</g>
<!-- T873&#45;&gt;T872 -->
<g id="edge1" class="edge">
<title>T873:f1&#45;&gt;T872:f1</title>
<path fill="none" stroke="#5b00c0" d="M235,-81C235,69.51 562.11,-172.29 577.44,-40.17"/>
<polygon fill="#5b00c0" stroke="#5b00c0" points="580.95,-40.18 578,-30 573.96,-39.79 580.95,-40.18"/>
<text text-anchor="middle" x="583.5" y="-51.8" font-family="Times,serif" font-size="14.00" fill="#5b00c0">rw</text>
</g>
<!-- T872&#45;&gt;T873 -->
<g id="edge2" class="edge">
<title>T872:f0&#45;&gt;T873:f5</title>
<path fill="none" stroke="#5b00c0" d="M460,-30C460,-45.35 581.81,-45.78 597,-48 684.75,-60.82 793.15,5.74 801.49,-70.93"/>
<polygon fill="#5b00c0" stroke="#5b00c0" points="798,-71.19 802,-81 804.99,-70.84 798,-71.19"/>
<text text-anchor="middle" x="808.5" y="-51.8" font-family="Times,serif" font-size="14.00" fill="#5b00c0">rw</text>
</g>
</g>
</svg>
