<?xml version="1.0" encoding="UTF-8" standalone="no"?>
<!DOCTYPE svg PUBLIC "-//W3C//DTD SVG 1.1//EN"
 "http://www.w3.org/Graphics/SVG/1.1/DTD/svg11.dtd">
<!-- Generated by graphviz version 2.43.0 (0)
 -->
<!-- Title: a_graph Pages: 1 -->
<svg width="1684pt" height="119pt"
 viewBox="0.00 0.00 1683.50 119.00" xmlns="http://www.w3.org/2000/svg" xmlns:xlink="http://www.w3.org/1999/xlink">
<g id="graph0" class="graph" transform="scale(1 1) rotate(0) translate(4 115)">
<title>a_graph</title>
<polygon fill="white" stroke="transparent" points="-4,4 -4,-115 1679.5,-115 1679.5,4 -4,4"/>
<!-- T1941 -->
<g id="node1" class="node">
<title>T1941</title>
<polygon fill="none" stroke="#0058ad" points="210.5,-81.5 210.5,-110.5 1675.5,-110.5 1675.5,-81.5 210.5,-81.5"/>
<text text-anchor="middle" x="468" y="-92.3" font-family="Times,serif" font-size="14.00" fill="#0058ad">r 72 [1 2 3 4 5 6 7 8 9 10 11 12 13 14 15 16 18 19 21 22 23 24 25 26]</text>
<polyline fill="none" stroke="#0058ad" points="725.5,-81.5 725.5,-110.5 "/>
<text text-anchor="middle" x="873" y="-92.3" font-family="Times,serif" font-size="14.00" fill="#0058ad">r 73 [1 2 6 7 8 9 10 11 13 14 17 18 19]</text>
<polyline fill="none" stroke="#0058ad" points="1020.5,-81.5 1020.5,-110.5 "/>
<text text-anchor="middle" x="1055.5" y="-92.3" font-family="Times,serif" font-size="14.00" fill="#0058ad">a 73 20</text>
<polyline fill="none" stroke="#0058ad" points="1090.5,-81.5 1090.5,-110.5 "/>
<text text-anchor="middle" x="1348" y="-92.3" font-family="Times,serif" font-size="14.00" fill="#0058ad">r 72 [1 2 3 4 5 6 7 8 9 10 11 12 13 14 15 16 18 19 21 22 23 24 25 26]</text>
<polyline fill="none" stroke="#0058ad" points="1605.5,-81.5 1605.5,-110.5 "/>
<text text-anchor="middle" x="1640.5" y="-92.3" font-family="Times,serif" font-size="14.00" fill="#0058ad">a 73 21</text>
</g>
<!-- T1940 -->
<g id="node2" class="node">
<title>T1940</title>
<polygon fill="none" stroke="#0058ad" points="0,-0.5 0,-29.5 950,-29.5 950,-0.5 0,-0.5"/>
<text text-anchor="middle" x="35" y="-11.3" font-family="Times,serif" font-size="14.00" fill="#0058ad">a 70 21</text>
<polyline fill="none" stroke="#0058ad" points="70,-0.5 70,-29.5 "/>
<text text-anchor="middle" x="327.5" y="-11.3" font-family="Times,serif" font-size="14.00" fill="#0058ad">r 72 [1 2 3 4 5 6 7 8 9 10 11 12 13 14 15 16 18 19 21 22 23 24 25 26]</text>
<polyline fill="none" stroke="#0058ad" points="585,-0.5 585,-29.5 "/>
<text text-anchor="middle" x="620" y="-11.3" font-family="Times,serif" font-size="14.00" fill="#0058ad">a 72 27</text>
<polyline fill="none" stroke="#0058ad" points="655,-0.5 655,-29.5 "/>
<text text-anchor="middle" x="802.5" y="-11.3" font-family="Times,serif" font-size="14.00" fill="#0058ad">r 73 [1 2 6 7 8 9 10 11 13 14 17 18 19]</text>
</g>
<!-- T1941&#45;&gt;T1940 -->
<g id="edge1" class="edge">
<title>T1941:f0&#45;&gt;T1940:f2</title>
<path fill="none" stroke="#5b00c0" d="M468,-81C468,-13.5 604.39,-92.06 618.78,-39.96"/>
<polygon fill="#5b00c0" stroke="#5b00c0" points="622.25,-40.35 620,-30 615.31,-39.5 622.25,-40.35"/>
<text text-anchor="middle" x="623.5" y="-51.8" font-family="Times,serif" font-size="14.00" fill="#5b00c0">rw</text>
</g>
<!-- T1940&#45;&gt;T1941 -->
<g id="edge2" class="edge">
<title>T1940:f3&#45;&gt;T1941:f2</title>
<path fill="none" stroke="#5b00c0" d="M951,-15C1002.57,-15 1049.55,-24.52 1055.39,-70.88"/>
<polygon fill="#5b00c0" stroke="#5b00c0" points="1051.9,-71.23 1056,-81 1058.89,-70.81 1051.9,-71.23"/>
<text text-anchor="middle" x="1062.5" y="-51.8" font-family="Times,serif" font-size="14.00" fill="#5b00c0">rw</text>
</g>
</g>
</svg>
