<?xml version="1.0" encoding="UTF-8" standalone="no"?>
<!DOCTYPE svg PUBLIC "-//W3C//DTD SVG 1.1//EN"
 "http://www.w3.org/Graphics/SVG/1.1/DTD/svg11.dtd">
<!-- Generated by graphviz version 2.43.0 (0)
 -->
<!-- Title: a_graph Pages: 1 -->
<svg width="747pt" height="119pt"
 viewBox="0.00 0.00 747.00 119.00" xmlns="http://www.w3.org/2000/svg" xmlns:xlink="http://www.w3.org/1999/xlink">
<g id="graph0" class="graph" transform="scale(1 1) rotate(0) translate(4 115)">
<title>a_graph</title>
<polygon fill="white" stroke="transparent" points="-4,4 -4,-115 743,-115 743,4 -4,4"/>
<!-- T340 -->
<g id="node1" class="node">
<title>T340</title>
<polygon fill="none" stroke="#0058ad" points="0,-81.5 0,-110.5 511,-110.5 511,-81.5 0,-81.5"/>
<text text-anchor="middle" x="145" y="-92.3" font-family="Times,serif" font-size="14.00" fill="#0058ad">r 12 [1 2 3 4 5 6 7 8 9 10 11 12 13 14]</text>
<polyline fill="none" stroke="#0058ad" points="290,-81.5 290,-110.5 "/>
<text text-anchor="middle" x="325" y="-92.3" font-family="Times,serif" font-size="14.00" fill="#0058ad">a 14 12</text>
<polyline fill="none" stroke="#0058ad" points="360,-81.5 360,-110.5 "/>
<text text-anchor="middle" x="435.5" y="-92.3" font-family="Times,serif" font-size="14.00" fill="#0058ad">r 13 [1 2 3 4 5 6 7]</text>
</g>
<!-- T341 -->
<g id="node2" class="node">
<title>T341</title>
<polygon fill="none" stroke="#0058ad" points="286,-0.5 286,-29.5 739,-29.5 739,-0.5 286,-0.5"/>
<text text-anchor="middle" x="316.5" y="-11.3" font-family="Times,serif" font-size="14.00" fill="#0058ad">a 13 8</text>
<polyline fill="none" stroke="#0058ad" points="347,-0.5 347,-29.5 "/>
<text text-anchor="middle" x="445" y="-11.3" font-family="Times,serif" font-size="14.00" fill="#0058ad">r 14 [1 2 3 4 7 8 9 10 11]</text>
<polyline fill="none" stroke="#0058ad" points="543,-0.5 543,-29.5 "/>
<text text-anchor="middle" x="641" y="-11.3" font-family="Times,serif" font-size="14.00" fill="#0058ad">r 14 [1 2 3 4 7 8 9 10 11]</text>
</g>
<!-- T340&#45;&gt;T341 -->
<g id="edge1" class="edge">
<title>T340:f2&#45;&gt;T341:f0</title>
<path fill="none" stroke="#5b00c0" d="M435.5,-81C435.5,-46.72 391.52,-77.59 360.5,-63 342.01,-54.31 323.69,-54.17 318.17,-40.08"/>
<polygon fill="#5b00c0" stroke="#5b00c0" points="321.59,-39.29 316.5,-30 314.68,-40.44 321.59,-39.29"/>
<text text-anchor="middle" x="370" y="-51.8" font-family="Times,serif" font-size="14.00" fill="#5b00c0">rw</text>
</g>
<!-- T341&#45;&gt;T340 -->
<g id="edge2" class="edge">
<title>T341:f1&#45;&gt;T340:f1</title>
<path fill="none" stroke="#5b00c0" d="M444.5,-30C444.5,-62.4 409.39,-50.51 379.5,-63 360.35,-71 336.28,-60.96 328.25,-71.06"/>
<polygon fill="#5b00c0" stroke="#5b00c0" points="324.79,-70.43 325.5,-81 331.54,-72.3 324.79,-70.43"/>
<text text-anchor="middle" x="446" y="-51.8" font-family="Times,serif" font-size="14.00" fill="#5b00c0">rw</text>
</g>
</g>
</svg>
