<?xml version="1.0" encoding="UTF-8" standalone="no"?>
<!DOCTYPE svg PUBLIC "-//W3C//DTD SVG 1.1//EN"
 "http://www.w3.org/Graphics/SVG/1.1/DTD/svg11.dtd">
<!-- Generated by graphviz version 2.43.0 (0)
 -->
<!-- Title: a_graph Pages: 1 -->
<svg width="2056pt" height="119pt"
 viewBox="0.00 0.00 2055.50 119.00" xmlns="http://www.w3.org/2000/svg" xmlns:xlink="http://www.w3.org/1999/xlink">
<g id="graph0" class="graph" transform="scale(1 1) rotate(0) translate(4 115)">
<title>a_graph</title>
<polygon fill="white" stroke="transparent" points="-4,4 -4,-115 2051.5,-115 2051.5,4 -4,4"/>
<!-- T1325 -->
<g id="node1" class="node">
<title>T1325</title>
<polygon fill="none" stroke="#0058ad" points="238.5,-81.5 238.5,-110.5 2047.5,-110.5 2047.5,-81.5 238.5,-81.5"/>
<text text-anchor="middle" x="361" y="-92.3" font-family="Times,serif" font-size="14.00" fill="#0058ad">r 63 [1 2 3 4 5 6 7 8 9 10 11 12]</text>
<polyline fill="none" stroke="#0058ad" points="483.5,-81.5 483.5,-110.5 "/>
<text text-anchor="middle" x="662.5" y="-92.3" font-family="Times,serif" font-size="14.00" fill="#0058ad">r 64 [1 2 3 4 5 6 7 8 9 10 11 12 13 14 15 17 18]</text>
<polyline fill="none" stroke="#0058ad" points="841.5,-81.5 841.5,-110.5 "/>
<text text-anchor="middle" x="1036" y="-92.3" font-family="Times,serif" font-size="14.00" fill="#0058ad">r 60 [2 3 4 5 6 7 8 9 10 11 12 13 14 15 16 21 22 23]</text>
<polyline fill="none" stroke="#0058ad" points="1230.5,-81.5 1230.5,-110.5 "/>
<text text-anchor="middle" x="1425" y="-92.3" font-family="Times,serif" font-size="14.00" fill="#0058ad">r 60 [2 3 4 5 6 7 8 9 10 11 12 13 14 15 16 21 22 23]</text>
<polyline fill="none" stroke="#0058ad" points="1619.5,-81.5 1619.5,-110.5 "/>
<text text-anchor="middle" x="1798.5" y="-92.3" font-family="Times,serif" font-size="14.00" fill="#0058ad">r 64 [1 2 3 4 5 6 7 8 9 10 11 12 13 14 15 17 18]</text>
<polyline fill="none" stroke="#0058ad" points="1977.5,-81.5 1977.5,-110.5 "/>
<text text-anchor="middle" x="2012.5" y="-92.3" font-family="Times,serif" font-size="14.00" fill="#0058ad">a 63 13</text>
</g>
<!-- T1324 -->
<g id="node2" class="node">
<title>T1324</title>
<polygon fill="none" stroke="#0058ad" points="0,-0.5 0,-29.5 1778,-29.5 1778,-0.5 0,-0.5"/>
<text text-anchor="middle" x="194.5" y="-11.3" font-family="Times,serif" font-size="14.00" fill="#0058ad">r 60 [2 3 4 5 6 7 8 9 10 11 12 13 14 15 16 21 22 23]</text>
<polyline fill="none" stroke="#0058ad" points="389,-0.5 389,-29.5 "/>
<text text-anchor="middle" x="568" y="-11.3" font-family="Times,serif" font-size="14.00" fill="#0058ad">r 64 [1 2 3 4 5 6 7 8 9 10 11 12 13 14 15 17 18]</text>
<polyline fill="none" stroke="#0058ad" points="747,-0.5 747,-29.5 "/>
<text text-anchor="middle" x="926" y="-11.3" font-family="Times,serif" font-size="14.00" fill="#0058ad">r 64 [1 2 3 4 5 6 7 8 9 10 11 12 13 14 15 17 18]</text>
<polyline fill="none" stroke="#0058ad" points="1105,-0.5 1105,-29.5 "/>
<text text-anchor="middle" x="1284" y="-11.3" font-family="Times,serif" font-size="14.00" fill="#0058ad">r 64 [1 2 3 4 5 6 7 8 9 10 11 12 13 14 15 17 18]</text>
<polyline fill="none" stroke="#0058ad" points="1463,-0.5 1463,-29.5 "/>
<text text-anchor="middle" x="1585.5" y="-11.3" font-family="Times,serif" font-size="14.00" fill="#0058ad">r 63 [1 2 3 4 5 6 7 8 9 10 11 12]</text>
<polyline fill="none" stroke="#0058ad" points="1708,-0.5 1708,-29.5 "/>
<text text-anchor="middle" x="1743" y="-11.3" font-family="Times,serif" font-size="14.00" fill="#0058ad">a 64 19</text>
</g>
<!-- T1325&#45;&gt;T1324 -->
<g id="edge1" class="edge">
<title>T1325:f1&#45;&gt;T1324:f5</title>
<path fill="none" stroke="#5b00c0" d="M662,-81C662,-52.55 1630,-59.19 1733.98,-34.52"/>
<polygon fill="#5b00c0" stroke="#5b00c0" points="1735.63,-37.61 1743,-30 1732.49,-31.35 1735.63,-37.61"/>
<text text-anchor="middle" x="1519.5" y="-51.8" font-family="Times,serif" font-size="14.00" fill="#5b00c0">rw</text>
</g>
<!-- T1324&#45;&gt;T1325 -->
<g id="edge2" class="edge">
<title>T1324:f4&#45;&gt;T1325:f5</title>
<path fill="none" stroke="#5b00c0" d="M1586,-30C1586,-217.58 1997.3,98.01 2012.56,-70.89"/>
<polygon fill="#5b00c0" stroke="#5b00c0" points="2009.07,-71.16 2013,-81 2016.07,-70.86 2009.07,-71.16"/>
<text text-anchor="middle" x="2021.5" y="-51.8" font-family="Times,serif" font-size="14.00" fill="#5b00c0">rw</text>
</g>
</g>
</svg>
