<?xml version="1.0" encoding="UTF-8" standalone="no"?>
<!DOCTYPE svg PUBLIC "-//W3C//DTD SVG 1.1//EN"
 "http://www.w3.org/Graphics/SVG/1.1/DTD/svg11.dtd">
<!-- Generated by graphviz version 2.43.0 (0)
 -->
<!-- Title: a_graph Pages: 1 -->
<svg width="1663pt" height="119pt"
 viewBox="0.00 0.00 1663.00 119.00" xmlns="http://www.w3.org/2000/svg" xmlns:xlink="http://www.w3.org/1999/xlink">
<g id="graph0" class="graph" transform="scale(1 1) rotate(0) translate(4 115)">
<title>a_graph</title>
<polygon fill="white" stroke="transparent" points="-4,4 -4,-115 1659,-115 1659,4 -4,4"/>
<!-- T1415 -->
<g id="node1" class="node">
<title>T1415</title>
<polygon fill="none" stroke="#0058ad" points="592.5,-81.5 592.5,-110.5 1122.5,-110.5 1122.5,-81.5 592.5,-81.5"/>
<text text-anchor="middle" x="627.5" y="-92.3" font-family="Times,serif" font-size="14.00" fill="#0058ad">a 53 14</text>
<polyline fill="none" stroke="#0058ad" points="662.5,-81.5 662.5,-110.5 "/>
<text text-anchor="middle" x="787.5" y="-92.3" font-family="Times,serif" font-size="14.00" fill="#0058ad">r 50 [1 2 3 7 8 9 10 11 12 13 14]</text>
<polyline fill="none" stroke="#0058ad" points="912.5,-81.5 912.5,-110.5 "/>
<text text-anchor="middle" x="947.5" y="-92.3" font-family="Times,serif" font-size="14.00" fill="#0058ad">a 53 15</text>
<polyline fill="none" stroke="#0058ad" points="982.5,-81.5 982.5,-110.5 "/>
<text text-anchor="middle" x="1017.5" y="-92.3" font-family="Times,serif" font-size="14.00" fill="#0058ad">a 53 16</text>
<polyline fill="none" stroke="#0058ad" points="1052.5,-81.5 1052.5,-110.5 "/>
<text text-anchor="middle" x="1087.5" y="-92.3" font-family="Times,serif" font-size="14.00" fill="#0058ad">a 53 17</text>
</g>
<!-- T1414 -->
<g id="node2" class="node">
<title>T1414</title>
<polygon fill="none" stroke="#0058ad" points="0,-0.5 0,-29.5 1655,-29.5 1655,-0.5 0,-0.5"/>
<text text-anchor="middle" x="134" y="-11.3" font-family="Times,serif" font-size="14.00" fill="#0058ad">r 53 [1 2 3 4 5 6 7 8 9 10 11 12 13]</text>
<polyline fill="none" stroke="#0058ad" points="268,-0.5 268,-29.5 "/>
<text text-anchor="middle" x="390.5" y="-11.3" font-family="Times,serif" font-size="14.00" fill="#0058ad">r 52 [1 2 3 4 5 6 7 8 9 10 11 12]</text>
<polyline fill="none" stroke="#0058ad" points="513,-0.5 513,-29.5 "/>
<text text-anchor="middle" x="647" y="-11.3" font-family="Times,serif" font-size="14.00" fill="#0058ad">r 53 [1 2 3 4 5 6 7 8 9 10 11 12 13]</text>
<polyline fill="none" stroke="#0058ad" points="781,-0.5 781,-29.5 "/>
<text text-anchor="middle" x="915" y="-11.3" font-family="Times,serif" font-size="14.00" fill="#0058ad">r 53 [1 2 3 4 5 6 7 8 9 10 11 12 13]</text>
<polyline fill="none" stroke="#0058ad" points="1049,-0.5 1049,-29.5 "/>
<text text-anchor="middle" x="1084" y="-11.3" font-family="Times,serif" font-size="14.00" fill="#0058ad">a 50 15</text>
<polyline fill="none" stroke="#0058ad" points="1119,-0.5 1119,-29.5 "/>
<text text-anchor="middle" x="1253" y="-11.3" font-family="Times,serif" font-size="14.00" fill="#0058ad">r 53 [1 2 3 4 5 6 7 8 9 10 11 12 13]</text>
<polyline fill="none" stroke="#0058ad" points="1387,-0.5 1387,-29.5 "/>
<text text-anchor="middle" x="1521" y="-11.3" font-family="Times,serif" font-size="14.00" fill="#0058ad">r 53 [1 2 3 4 5 6 7 8 9 10 11 12 13]</text>
</g>
<!-- T1415&#45;&gt;T1414 -->
<g id="edge1" class="edge">
<title>T1415:f1&#45;&gt;T1414:f4</title>
<path fill="none" stroke="#5b00c0" d="M787.5,-81C787.5,49.27 1068.48,-152.33 1083.85,-40.21"/>
<polygon fill="#5b00c0" stroke="#5b00c0" points="1087.35,-40.2 1084.5,-30 1080.37,-39.76 1087.35,-40.2"/>
<text text-anchor="middle" x="1090" y="-51.8" font-family="Times,serif" font-size="14.00" fill="#5b00c0">rw</text>
</g>
<!-- T1414&#45;&gt;T1415 -->
<g id="edge2" class="edge">
<title>T1414:f0&#45;&gt;T1415:f0</title>
<path fill="none" stroke="#5b00c0" d="M133.5,-30C133.5,-78.8 499.84,-94.42 581.02,-95.88"/>
<polygon fill="#5b00c0" stroke="#5b00c0" points="581.46,-99.39 591.5,-96 581.54,-92.39 581.46,-99.39"/>
<text text-anchor="middle" x="203" y="-51.8" font-family="Times,serif" font-size="14.00" fill="#5b00c0">rw</text>
</g>
</g>
</svg>
