<?xml version="1.0" encoding="UTF-8" standalone="no"?>
<!DOCTYPE svg PUBLIC "-//W3C//DTD SVG 1.1//EN"
 "http://www.w3.org/Graphics/SVG/1.1/DTD/svg11.dtd">
<!-- Generated by graphviz version 2.43.0 (0)
 -->
<!-- Title: a_graph Pages: 1 -->
<svg width="2303pt" height="119pt"
 viewBox="0.00 0.00 2302.50 119.00" xmlns="http://www.w3.org/2000/svg" xmlns:xlink="http://www.w3.org/1999/xlink">
<g id="graph0" class="graph" transform="scale(1 1) rotate(0) translate(4 115)">
<title>a_graph</title>
<polygon fill="white" stroke="transparent" points="-4,4 -4,-115 2298.5,-115 2298.5,4 -4,4"/>
<!-- T80 -->
<g id="node1" class="node">
<title>T80</title>
<polygon fill="none" stroke="#0058ad" points="489.5,-81.5 489.5,-110.5 2294.5,-110.5 2294.5,-81.5 489.5,-81.5"/>
<text text-anchor="middle" x="520" y="-92.3" font-family="Times,serif" font-size="14.00" fill="#0058ad">a 1 23</text>
<polyline fill="none" stroke="#0058ad" points="550.5,-81.5 550.5,-110.5 "/>
<text text-anchor="middle" x="736" y="-92.3" font-family="Times,serif" font-size="14.00" fill="#0058ad">r 3 [1 2 3 4 5 6 7 8 9 10 11 12 13 14 15 16 17 18]</text>
<polyline fill="none" stroke="#0058ad" points="921.5,-81.5 921.5,-110.5 "/>
<text text-anchor="middle" x="1073.5" y="-92.3" font-family="Times,serif" font-size="14.00" fill="#0058ad">r 0 [1 2 3 4 5 6 7 8 9 10 11 12 13 14 15]</text>
<polyline fill="none" stroke="#0058ad" points="1225.5,-81.5 1225.5,-110.5 "/>
<text text-anchor="middle" x="1256" y="-92.3" font-family="Times,serif" font-size="14.00" fill="#0058ad">a 1 24</text>
<polyline fill="none" stroke="#0058ad" points="1286.5,-81.5 1286.5,-110.5 "/>
<text text-anchor="middle" x="1472" y="-92.3" font-family="Times,serif" font-size="14.00" fill="#0058ad">r 3 [1 2 3 4 5 6 7 8 9 10 11 12 13 14 15 16 17 18]</text>
<polyline fill="none" stroke="#0058ad" points="1657.5,-81.5 1657.5,-110.5 "/>
<text text-anchor="middle" x="1688" y="-92.3" font-family="Times,serif" font-size="14.00" fill="#0058ad">a 3 19</text>
<polyline fill="none" stroke="#0058ad" points="1718.5,-81.5 1718.5,-110.5 "/>
<text text-anchor="middle" x="1749" y="-92.3" font-family="Times,serif" font-size="14.00" fill="#0058ad">a 1 25</text>
<polyline fill="none" stroke="#0058ad" points="1779.5,-81.5 1779.5,-110.5 "/>
<text text-anchor="middle" x="2037" y="-92.3" font-family="Times,serif" font-size="14.00" fill="#0058ad">r 1 [1 2 4 5 6 7 8 9 10 11 12 13 14 15 16 17 18 19 20 21 22 23 24 25]</text>
</g>
<!-- T78 -->
<g id="node2" class="node">
<title>T78</title>
<polygon fill="none" stroke="#0058ad" points="0,-0.5 0,-29.5 880,-29.5 880,-0.5 0,-0.5"/>
<text text-anchor="middle" x="185.5" y="-11.3" font-family="Times,serif" font-size="14.00" fill="#0058ad">r 3 [1 2 3 4 5 6 7 8 9 10 11 12 13 14 15 16 17 18]</text>
<polyline fill="none" stroke="#0058ad" points="371,-0.5 371,-29.5 "/>
<text text-anchor="middle" x="595" y="-11.3" font-family="Times,serif" font-size="14.00" fill="#0058ad">r 1 [1 2 4 5 6 7 8 9 10 11 12 13 14 15 16 17 18 19 20 21 22]</text>
<polyline fill="none" stroke="#0058ad" points="819,-0.5 819,-29.5 "/>
<text text-anchor="middle" x="849.5" y="-11.3" font-family="Times,serif" font-size="14.00" fill="#0058ad">a 0 16</text>
</g>
<!-- T80&#45;&gt;T78 -->
<g id="edge1" class="edge">
<title>T80:f2&#45;&gt;T78:f2</title>
<path fill="none" stroke="#5b00c0" d="M1073,-81C1073,-38.88 944.98,-17.88 891.26,-15.28"/>
<polygon fill="#5b00c0" stroke="#5b00c0" points="891.09,-11.77 881,-15 890.9,-18.77 891.09,-11.77"/>
<text text-anchor="middle" x="1071.5" y="-51.8" font-family="Times,serif" font-size="14.00" fill="#5b00c0">rw</text>
</g>
<!-- T78&#45;&gt;T80 -->
<g id="edge2" class="edge">
<title>T78:f1&#45;&gt;T80:f0</title>
<path fill="none" stroke="#5b00c0" d="M595,-30C595,-66.37 533.93,-45.81 522.01,-71.06"/>
<polygon fill="#5b00c0" stroke="#5b00c0" points="518.55,-70.51 520,-81 525.41,-71.89 518.55,-70.51"/>
<text text-anchor="middle" x="594.5" y="-51.8" font-family="Times,serif" font-size="14.00" fill="#5b00c0">rw</text>
</g>
</g>
</svg>
