<?xml version="1.0" encoding="UTF-8" standalone="no"?>
<!DOCTYPE svg PUBLIC "-//W3C//DTD SVG 1.1//EN"
 "http://www.w3.org/Graphics/SVG/1.1/DTD/svg11.dtd">
<!-- Generated by graphviz version 2.43.0 (0)
 -->
<!-- Title: a_graph Pages: 1 -->
<svg width="793pt" height="119pt"
 viewBox="0.00 0.00 793.00 119.00" xmlns="http://www.w3.org/2000/svg" xmlns:xlink="http://www.w3.org/1999/xlink">
<g id="graph0" class="graph" transform="scale(1 1) rotate(0) translate(4 115)">
<title>a_graph</title>
<polygon fill="white" stroke="transparent" points="-4,4 -4,-115 789,-115 789,4 -4,4"/>
<!-- T1337 -->
<g id="node1" class="node">
<title>T1337</title>
<polygon fill="none" stroke="#0058ad" points="371,-81.5 371,-110.5 785,-110.5 785,-81.5 371,-81.5"/>
<text text-anchor="middle" x="406" y="-92.3" font-family="Times,serif" font-size="14.00" fill="#0058ad">a 35 15</text>
<polyline fill="none" stroke="#0058ad" points="441,-81.5 441,-110.5 "/>
<text text-anchor="middle" x="509.5" y="-92.3" font-family="Times,serif" font-size="14.00" fill="#0058ad">r 37 [1 2 3 4 5 6]</text>
<polyline fill="none" stroke="#0058ad" points="578,-81.5 578,-110.5 "/>
<text text-anchor="middle" x="613" y="-92.3" font-family="Times,serif" font-size="14.00" fill="#0058ad">a 35 16</text>
<polyline fill="none" stroke="#0058ad" points="648,-81.5 648,-110.5 "/>
<text text-anchor="middle" x="716.5" y="-92.3" font-family="Times,serif" font-size="14.00" fill="#0058ad">r 37 [1 2 3 4 5 6]</text>
</g>
<!-- T1336 -->
<g id="node2" class="node">
<title>T1336</title>
<polygon fill="none" stroke="#0058ad" points="0,-0.5 0,-29.5 558,-29.5 558,-0.5 0,-0.5"/>
<text text-anchor="middle" x="68.5" y="-11.3" font-family="Times,serif" font-size="14.00" fill="#0058ad">r 37 [1 2 3 4 5 6]</text>
<polyline fill="none" stroke="#0058ad" points="137,-0.5 137,-29.5 "/>
<text text-anchor="middle" x="172" y="-11.3" font-family="Times,serif" font-size="14.00" fill="#0058ad">a 36 10</text>
<polyline fill="none" stroke="#0058ad" points="207,-0.5 207,-29.5 "/>
<text text-anchor="middle" x="352" y="-11.3" font-family="Times,serif" font-size="14.00" fill="#0058ad">r 35 [1 2 3 4 5 6 7 8 9 10 11 12 13 14]</text>
<polyline fill="none" stroke="#0058ad" points="497,-0.5 497,-29.5 "/>
<text text-anchor="middle" x="527.5" y="-11.3" font-family="Times,serif" font-size="14.00" fill="#0058ad">a 37 7</text>
</g>
<!-- T1337&#45;&gt;T1336 -->
<g id="edge1" class="edge">
<title>T1337:f1&#45;&gt;T1336:f3</title>
<path fill="none" stroke="#5b00c0" d="M509,-81C509,-60.59 522.53,-55.53 526.75,-39.92"/>
<polygon fill="#5b00c0" stroke="#5b00c0" points="530.23,-40.36 528,-30 523.28,-39.49 530.23,-40.36"/>
<text text-anchor="middle" x="532.5" y="-51.8" font-family="Times,serif" font-size="14.00" fill="#5b00c0">rw</text>
</g>
<!-- T1336&#45;&gt;T1337 -->
<g id="edge2" class="edge">
<title>T1336:f2&#45;&gt;T1337:f0</title>
<path fill="none" stroke="#5b00c0" d="M352,-30C352,-59.01 393.71,-50.92 403.82,-70.95"/>
<polygon fill="#5b00c0" stroke="#5b00c0" points="400.46,-71.97 406,-81 407.3,-70.48 400.46,-71.97"/>
<text text-anchor="middle" x="405.5" y="-51.8" font-family="Times,serif" font-size="14.00" fill="#5b00c0">rw</text>
</g>
</g>
</svg>
