<?xml version="1.0" encoding="UTF-8" standalone="no"?>
<!DOCTYPE svg PUBLIC "-//W3C//DTD SVG 1.1//EN"
 "http://www.w3.org/Graphics/SVG/1.1/DTD/svg11.dtd">
<!-- Generated by graphviz version 2.43.0 (0)
 -->
<!-- Title: a_graph Pages: 1 -->
<svg width="1846pt" height="119pt"
 viewBox="0.00 0.00 1845.50 119.00" xmlns="http://www.w3.org/2000/svg" xmlns:xlink="http://www.w3.org/1999/xlink">
<g id="graph0" class="graph" transform="scale(1 1) rotate(0) translate(4 115)">
<title>a_graph</title>
<polygon fill="white" stroke="transparent" points="-4,4 -4,-115 1841.5,-115 1841.5,4 -4,4"/>
<!-- T450 -->
<g id="node1" class="node">
<title>T450</title>
<polygon fill="none" stroke="#0058ad" points="353.5,-81.5 353.5,-110.5 1837.5,-110.5 1837.5,-81.5 353.5,-81.5"/>
<text text-anchor="middle" x="388.5" y="-92.3" font-family="Times,serif" font-size="14.00" fill="#0058ad">a 11 31</text>
<polyline fill="none" stroke="#0058ad" points="423.5,-81.5 423.5,-110.5 "/>
<text text-anchor="middle" x="647.5" y="-92.3" font-family="Times,serif" font-size="14.00" fill="#0058ad">r 12 [1 2 3 4 5 6 7 8 9 10 11 12 13 14 15 16 17 18 19 20 21]</text>
<polyline fill="none" stroke="#0058ad" points="871.5,-81.5 871.5,-110.5 "/>
<text text-anchor="middle" x="1095.5" y="-92.3" font-family="Times,serif" font-size="14.00" fill="#0058ad">r 12 [1 2 3 4 5 6 7 8 9 10 11 12 13 14 15 16 17 18 19 20 21]</text>
<polyline fill="none" stroke="#0058ad" points="1319.5,-81.5 1319.5,-110.5 "/>
<text text-anchor="middle" x="1354.5" y="-92.3" font-family="Times,serif" font-size="14.00" fill="#0058ad">a 11 32</text>
<polyline fill="none" stroke="#0058ad" points="1389.5,-81.5 1389.5,-110.5 "/>
<text text-anchor="middle" x="1613.5" y="-92.3" font-family="Times,serif" font-size="14.00" fill="#0058ad">r 12 [1 2 3 4 5 6 7 8 9 10 11 12 13 14 15 16 17 18 19 20 21]</text>
</g>
<!-- T451 -->
<g id="node2" class="node">
<title>T451</title>
<polygon fill="none" stroke="#0058ad" points="0,-0.5 0,-29.5 1267,-29.5 1267,-0.5 0,-0.5"/>
<text text-anchor="middle" x="325" y="-11.3" font-family="Times,serif" font-size="14.00" fill="#0058ad">r 11 [1 2 3 4 5 6 7 8 9 10 11 12 13 14 15 16 17 18 19 20 21 22 23 24 25 26 27 28 29 30]</text>
<polyline fill="none" stroke="#0058ad" points="650,-0.5 650,-29.5 "/>
<text text-anchor="middle" x="685" y="-11.3" font-family="Times,serif" font-size="14.00" fill="#0058ad">a 12 22</text>
<polyline fill="none" stroke="#0058ad" points="720,-0.5 720,-29.5 "/>
<text text-anchor="middle" x="750.5" y="-11.3" font-family="Times,serif" font-size="14.00" fill="#0058ad">a 13 1</text>
<polyline fill="none" stroke="#0058ad" points="781,-0.5 781,-29.5 "/>
<text text-anchor="middle" x="989" y="-11.3" font-family="Times,serif" font-size="14.00" fill="#0058ad">r 9 [1 2 3 4 5 6 7 8 9 10 11 12 13 14 15 16 17 18 19 20]</text>
<polyline fill="none" stroke="#0058ad" points="1197,-0.5 1197,-29.5 "/>
<text text-anchor="middle" x="1232" y="-11.3" font-family="Times,serif" font-size="14.00" fill="#0058ad">a 12 23</text>
</g>
<!-- T450&#45;&gt;T451 -->
<g id="edge1" class="edge">
<title>T450:f1&#45;&gt;T451:f1</title>
<path fill="none" stroke="#5b00c0" d="M647.5,-81C647.5,-56.71 675.56,-57.38 683.46,-40.11"/>
<polygon fill="#5b00c0" stroke="#5b00c0" points="686.95,-40.5 685.5,-30 680.09,-39.11 686.95,-40.5"/>
<text text-anchor="middle" x="686" y="-51.8" font-family="Times,serif" font-size="14.00" fill="#5b00c0">rw</text>
</g>
<!-- T451&#45;&gt;T450 -->
<g id="edge2" class="edge">
<title>T451:f0&#45;&gt;T450:f0</title>
<path fill="none" stroke="#5b00c0" d="M324.5,-30C324.5,-58.01 321.52,-87.77 342.43,-94.56"/>
<polygon fill="#5b00c0" stroke="#5b00c0" points="342.11,-98.05 352.5,-96 343.09,-91.12 342.11,-98.05"/>
<text text-anchor="middle" x="335" y="-51.8" font-family="Times,serif" font-size="14.00" fill="#5b00c0">rw</text>
</g>
</g>
</svg>
