<?xml version="1.0" encoding="UTF-8" standalone="no"?>
<!DOCTYPE svg PUBLIC "-//W3C//DTD SVG 1.1//EN"
 "http://www.w3.org/Graphics/SVG/1.1/DTD/svg11.dtd">
<!-- Generated by graphviz version 2.43.0 (0)
 -->
<!-- Title: a_graph Pages: 1 -->
<svg width="1168pt" height="119pt"
 viewBox="0.00 0.00 1168.00 119.00" xmlns="http://www.w3.org/2000/svg" xmlns:xlink="http://www.w3.org/1999/xlink">
<g id="graph0" class="graph" transform="scale(1 1) rotate(0) translate(4 115)">
<title>a_graph</title>
<polygon fill="white" stroke="transparent" points="-4,4 -4,-115 1164,-115 1164,4 -4,4"/>
<!-- T1619 -->
<g id="node1" class="node">
<title>T1619</title>
<polygon fill="none" stroke="#0058ad" points="509,-81.5 509,-110.5 649,-110.5 649,-81.5 509,-81.5"/>
<text text-anchor="middle" x="544" y="-92.3" font-family="Times,serif" font-size="14.00" fill="#0058ad">a 42 29</text>
<polyline fill="none" stroke="#0058ad" points="579,-81.5 579,-110.5 "/>
<text text-anchor="middle" x="614" y="-92.3" font-family="Times,serif" font-size="14.00" fill="#0058ad">r 44 [1]</text>
</g>
<!-- T1618 -->
<g id="node2" class="node">
<title>T1618</title>
<polygon fill="none" stroke="#0058ad" points="0,-0.5 0,-29.5 1160,-29.5 1160,-0.5 0,-0.5"/>
<text text-anchor="middle" x="296" y="-11.3" font-family="Times,serif" font-size="14.00" fill="#0058ad">r 42 [1 3 4 5 6 7 8 9 10 11 12 13 14 15 16 17 18 19 20 21 22 23 24 25 26 27 28]</text>
<polyline fill="none" stroke="#0058ad" points="592,-0.5 592,-29.5 "/>
<text text-anchor="middle" x="627" y="-11.3" font-family="Times,serif" font-size="14.00" fill="#0058ad">a 41 18</text>
<polyline fill="none" stroke="#0058ad" points="662,-0.5 662,-29.5 "/>
<text text-anchor="middle" x="697" y="-11.3" font-family="Times,serif" font-size="14.00" fill="#0058ad">r 44 [1]</text>
<polyline fill="none" stroke="#0058ad" points="732,-0.5 732,-29.5 "/>
<text text-anchor="middle" x="762.5" y="-11.3" font-family="Times,serif" font-size="14.00" fill="#0058ad">a 44 2</text>
<polyline fill="none" stroke="#0058ad" points="793,-0.5 793,-29.5 "/>
<text text-anchor="middle" x="976.5" y="-11.3" font-family="Times,serif" font-size="14.00" fill="#0058ad">r 41 [1 2 3 5 6 7 8 9 10 11 12 13 14 15 16 17 18]</text>
</g>
<!-- T1619&#45;&gt;T1618 -->
<g id="edge1" class="edge">
<title>T1619:f1&#45;&gt;T1618:f3</title>
<path fill="none" stroke="#5b00c0" d="M650,-96C704.64,-96 756.35,-89.08 762.41,-40.02"/>
<polygon fill="#5b00c0" stroke="#5b00c0" points="765.9,-40.19 763,-30 758.92,-39.78 765.9,-40.19"/>
<text text-anchor="middle" x="769.5" y="-51.8" font-family="Times,serif" font-size="14.00" fill="#5b00c0">rw</text>
</g>
<!-- T1618&#45;&gt;T1619 -->
<g id="edge2" class="edge">
<title>T1618:f0&#45;&gt;T1619:f0</title>
<path fill="none" stroke="#5b00c0" d="M296,-30C296,-76.35 439.56,-93.86 497.85,-95.81"/>
<polygon fill="#5b00c0" stroke="#5b00c0" points="497.94,-99.32 508,-96 498.07,-92.32 497.94,-99.32"/>
<text text-anchor="middle" x="334.5" y="-51.8" font-family="Times,serif" font-size="14.00" fill="#5b00c0">rw</text>
</g>
</g>
</svg>
