<?xml version="1.0" encoding="UTF-8" standalone="no"?>
<!DOCTYPE svg PUBLIC "-//W3C//DTD SVG 1.1//EN"
 "http://www.w3.org/Graphics/SVG/1.1/DTD/svg11.dtd">
<!-- Generated by graphviz version 2.43.0 (0)
 -->
<!-- Title: a_graph Pages: 1 -->
<svg width="1149pt" height="119pt"
 viewBox="0.00 0.00 1149.00 119.00" xmlns="http://www.w3.org/2000/svg" xmlns:xlink="http://www.w3.org/1999/xlink">
<g id="graph0" class="graph" transform="scale(1 1) rotate(0) translate(4 115)">
<title>a_graph</title>
<polygon fill="white" stroke="transparent" points="-4,4 -4,-115 1145,-115 1145,4 -4,4"/>
<!-- T1444 -->
<g id="node1" class="node">
<title>T1444</title>
<polygon fill="none" stroke="#0058ad" points="260.5,-81.5 260.5,-110.5 1066.5,-110.5 1066.5,-81.5 260.5,-81.5"/>
<text text-anchor="middle" x="365" y="-92.3" font-family="Times,serif" font-size="14.00" fill="#0058ad">r 54 [1 2 4 5 6 7 8 9 10 11]</text>
<polyline fill="none" stroke="#0058ad" points="469.5,-81.5 469.5,-110.5 "/>
<text text-anchor="middle" x="500" y="-92.3" font-family="Times,serif" font-size="14.00" fill="#0058ad">a 56 4</text>
<polyline fill="none" stroke="#0058ad" points="530.5,-81.5 530.5,-110.5 "/>
<text text-anchor="middle" x="565.5" y="-92.3" font-family="Times,serif" font-size="14.00" fill="#0058ad">a 54 12</text>
<polyline fill="none" stroke="#0058ad" points="600.5,-81.5 600.5,-110.5 "/>
<text text-anchor="middle" x="655.5" y="-92.3" font-family="Times,serif" font-size="14.00" fill="#0058ad">r 56 [1 2 3 4]</text>
<polyline fill="none" stroke="#0058ad" points="710.5,-81.5 710.5,-110.5 "/>
<text text-anchor="middle" x="799.5" y="-92.3" font-family="Times,serif" font-size="14.00" fill="#0058ad">r 55 [1 2 3 4 5 6 7 8 9]</text>
<polyline fill="none" stroke="#0058ad" points="888.5,-81.5 888.5,-110.5 "/>
<text text-anchor="middle" x="977.5" y="-92.3" font-family="Times,serif" font-size="14.00" fill="#0058ad">r 55 [1 2 3 4 5 6 7 8 9]</text>
</g>
<!-- T1445 -->
<g id="node2" class="node">
<title>T1445</title>
<polygon fill="none" stroke="#0058ad" points="0,-0.5 0,-29.5 1141,-29.5 1141,-0.5 0,-0.5"/>
<text text-anchor="middle" x="89" y="-11.3" font-family="Times,serif" font-size="14.00" fill="#0058ad">r 55 [1 2 3 4 5 6 7 8 9]</text>
<polyline fill="none" stroke="#0058ad" points="178,-0.5 178,-29.5 "/>
<text text-anchor="middle" x="282.5" y="-11.3" font-family="Times,serif" font-size="14.00" fill="#0058ad">r 54 [1 2 4 5 6 7 8 9 10 11]</text>
<polyline fill="none" stroke="#0058ad" points="387,-0.5 387,-29.5 "/>
<text text-anchor="middle" x="435.5" y="-11.3" font-family="Times,serif" font-size="14.00" fill="#0058ad">r 56 [1 2 3]</text>
<polyline fill="none" stroke="#0058ad" points="484,-0.5 484,-29.5 "/>
<text text-anchor="middle" x="588.5" y="-11.3" font-family="Times,serif" font-size="14.00" fill="#0058ad">r 54 [1 2 4 5 6 7 8 9 10 11]</text>
<polyline fill="none" stroke="#0058ad" points="693,-0.5 693,-29.5 "/>
<text text-anchor="middle" x="782" y="-11.3" font-family="Times,serif" font-size="14.00" fill="#0058ad">r 55 [1 2 3 4 5 6 7 8 9]</text>
<polyline fill="none" stroke="#0058ad" points="871,-0.5 871,-29.5 "/>
<text text-anchor="middle" x="906" y="-11.3" font-family="Times,serif" font-size="14.00" fill="#0058ad">a 55 10</text>
<polyline fill="none" stroke="#0058ad" points="941,-0.5 941,-29.5 "/>
<text text-anchor="middle" x="1041" y="-11.3" font-family="Times,serif" font-size="14.00" fill="#0058ad">r 55 [1 2 3 4 5 6 7 8 9 10]</text>
</g>
<!-- T1444&#45;&gt;T1445 -->
<g id="edge1" class="edge">
<title>T1444:f4&#45;&gt;T1445:f5</title>
<path fill="none" stroke="#5b00c0" d="M799.5,-81C799.5,-32.23 891.21,-75.2 904.82,-40.05"/>
<polygon fill="#5b00c0" stroke="#5b00c0" points="908.3,-40.44 906.5,-30 901.4,-39.29 908.3,-40.44"/>
<text text-anchor="middle" x="906" y="-51.8" font-family="Times,serif" font-size="14.00" fill="#5b00c0">rw</text>
</g>
<!-- T1445&#45;&gt;T1444 -->
<g id="edge2" class="edge">
<title>T1445:f2&#45;&gt;T1444:f1</title>
<path fill="none" stroke="#5b00c0" d="M435.5,-30C435.5,-62.39 486.27,-48.69 497.37,-71"/>
<polygon fill="#5b00c0" stroke="#5b00c0" points="493.99,-71.95 499.5,-81 500.84,-70.49 493.99,-71.95"/>
<text text-anchor="middle" x="498" y="-51.8" font-family="Times,serif" font-size="14.00" fill="#5b00c0">rw</text>
</g>
</g>
</svg>
