<?xml version="1.0" encoding="UTF-8" standalone="no"?>
<!DOCTYPE svg PUBLIC "-//W3C//DTD SVG 1.1//EN"
 "http://www.w3.org/Graphics/SVG/1.1/DTD/svg11.dtd">
<!-- Generated by graphviz version 2.43.0 (0)
 -->
<!-- Title: a_graph Pages: 1 -->
<svg width="1493pt" height="119pt"
 viewBox="0.00 0.00 1492.50 119.00" xmlns="http://www.w3.org/2000/svg" xmlns:xlink="http://www.w3.org/1999/xlink">
<g id="graph0" class="graph" transform="scale(1 1) rotate(0) translate(4 115)">
<title>a_graph</title>
<polygon fill="white" stroke="transparent" points="-4,4 -4,-115 1488.5,-115 1488.5,4 -4,4"/>
<!-- T3052 -->
<g id="node1" class="node">
<title>T3052</title>
<polygon fill="none" stroke="#0058ad" points="0,-81.5 0,-110.5 1150,-110.5 1150,-81.5 0,-81.5"/>
<text text-anchor="middle" x="206" y="-92.3" font-family="Times,serif" font-size="14.00" fill="#0058ad">r 116 [1 2 3 4 5 6 7 8 9 10 11 12 13 14 15 16 17 18 19]</text>
<polyline fill="none" stroke="#0058ad" points="412,-81.5 412,-110.5 "/>
<text text-anchor="middle" x="595.5" y="-92.3" font-family="Times,serif" font-size="14.00" fill="#0058ad">r 115 [1 2 3 4 5 6 7 8 9 10 11 12 13 14 15 16 17]</text>
<polyline fill="none" stroke="#0058ad" points="779,-81.5 779,-110.5 "/>
<text text-anchor="middle" x="852" y="-92.3" font-family="Times,serif" font-size="14.00" fill="#0058ad">r 118 [1 2 3 4 5 6]</text>
<polyline fill="none" stroke="#0058ad" points="925,-81.5 925,-110.5 "/>
<text text-anchor="middle" x="998" y="-92.3" font-family="Times,serif" font-size="14.00" fill="#0058ad">r 118 [1 2 3 4 5 6]</text>
<polyline fill="none" stroke="#0058ad" points="1071,-81.5 1071,-110.5 "/>
<text text-anchor="middle" x="1110.5" y="-92.3" font-family="Times,serif" font-size="14.00" fill="#0058ad">a 115 18</text>
</g>
<!-- T3053 -->
<g id="node2" class="node">
<title>T3053</title>
<polygon fill="none" stroke="#0058ad" points="749.5,-0.5 749.5,-29.5 1484.5,-29.5 1484.5,-0.5 749.5,-0.5"/>
<text text-anchor="middle" x="784.5" y="-11.3" font-family="Times,serif" font-size="14.00" fill="#0058ad">a 118 7</text>
<polyline fill="none" stroke="#0058ad" points="819.5,-0.5 819.5,-29.5 "/>
<text text-anchor="middle" x="854.5" y="-11.3" font-family="Times,serif" font-size="14.00" fill="#0058ad">a 118 8</text>
<polyline fill="none" stroke="#0058ad" points="889.5,-0.5 889.5,-29.5 "/>
<text text-anchor="middle" x="924.5" y="-11.3" font-family="Times,serif" font-size="14.00" fill="#0058ad">a 118 9</text>
<polyline fill="none" stroke="#0058ad" points="959.5,-0.5 959.5,-29.5 "/>
<text text-anchor="middle" x="999" y="-11.3" font-family="Times,serif" font-size="14.00" fill="#0058ad">a 118 10</text>
<polyline fill="none" stroke="#0058ad" points="1038.5,-0.5 1038.5,-29.5 "/>
<text text-anchor="middle" x="1222" y="-11.3" font-family="Times,serif" font-size="14.00" fill="#0058ad">r 115 [1 2 3 4 5 6 7 8 9 10 11 12 13 14 15 16 17]</text>
<polyline fill="none" stroke="#0058ad" points="1405.5,-0.5 1405.5,-29.5 "/>
<text text-anchor="middle" x="1445" y="-11.3" font-family="Times,serif" font-size="14.00" fill="#0058ad">a 116 20</text>
</g>
<!-- T3052&#45;&gt;T3053 -->
<g id="edge1" class="edge">
<title>T3052:f2&#45;&gt;T3053:f0</title>
<path fill="none" stroke="#5b00c0" d="M852,-81C852,-47.21 797.59,-63.29 786.11,-40.02"/>
<polygon fill="#5b00c0" stroke="#5b00c0" points="789.49,-39.06 784,-30 782.64,-40.51 789.49,-39.06"/>
<text text-anchor="middle" x="852.5" y="-51.8" font-family="Times,serif" font-size="14.00" fill="#5b00c0">rw</text>
</g>
<!-- T3053&#45;&gt;T3052 -->
<g id="edge2" class="edge">
<title>T3053:f4&#45;&gt;T3052:f4</title>
<path fill="none" stroke="#5b00c0" d="M1222,-30C1222,-69.55 1198.48,-92.1 1161.29,-95.54"/>
<polygon fill="#5b00c0" stroke="#5b00c0" points="1160.83,-92.06 1151,-96 1161.15,-99.05 1160.83,-92.06"/>
<text text-anchor="middle" x="1228.5" y="-51.8" font-family="Times,serif" font-size="14.00" fill="#5b00c0">rw</text>
</g>
</g>
</svg>
