<?xml version="1.0" encoding="UTF-8" standalone="no"?>
<!DOCTYPE svg PUBLIC "-//W3C//DTD SVG 1.1//EN"
 "http://www.w3.org/Graphics/SVG/1.1/DTD/svg11.dtd">
<!-- Generated by graphviz version 2.43.0 (0)
 -->
<!-- Title: a_graph Pages: 1 -->
<svg width="3172pt" height="119pt"
 viewBox="0.00 0.00 3172.00 119.00" xmlns="http://www.w3.org/2000/svg" xmlns:xlink="http://www.w3.org/1999/xlink">
<g id="graph0" class="graph" transform="scale(1 1) rotate(0) translate(4 115)">
<title>a_graph</title>
<polygon fill="white" stroke="transparent" points="-4,4 -4,-115 3168,-115 3168,4 -4,4"/>
<!-- T2354 -->
<g id="node1" class="node">
<title>T2354</title>
<polygon fill="none" stroke="#0058ad" points="959,-81.5 959,-110.5 3164,-110.5 3164,-81.5 959,-81.5"/>
<text text-anchor="middle" x="994" y="-92.3" font-family="Times,serif" font-size="14.00" fill="#0058ad">a 90 30</text>
<polyline fill="none" stroke="#0058ad" points="1029,-81.5 1029,-110.5 "/>
<text text-anchor="middle" x="1174" y="-92.3" font-family="Times,serif" font-size="14.00" fill="#0058ad">r 89 [1 2 3 4 5 6 7 8 9 10 11 12 13 14]</text>
<polyline fill="none" stroke="#0058ad" points="1319,-81.5 1319,-110.5 "/>
<text text-anchor="middle" x="1354" y="-92.3" font-family="Times,serif" font-size="14.00" fill="#0058ad">a 87 19</text>
<polyline fill="none" stroke="#0058ad" points="1389,-81.5 1389,-110.5 "/>
<text text-anchor="middle" x="1714" y="-92.3" font-family="Times,serif" font-size="14.00" fill="#0058ad">r 90 [1 2 3 4 5 6 7 8 9 10 11 12 13 14 15 16 17 18 19 20 21 22 23 24 25 26 27 28 29 30]</text>
<polyline fill="none" stroke="#0058ad" points="2039,-81.5 2039,-110.5 "/>
<text text-anchor="middle" x="2074" y="-92.3" font-family="Times,serif" font-size="14.00" fill="#0058ad">a 90 31</text>
<polyline fill="none" stroke="#0058ad" points="2109,-81.5 2109,-110.5 "/>
<text text-anchor="middle" x="2144" y="-92.3" font-family="Times,serif" font-size="14.00" fill="#0058ad">a 90 32</text>
<polyline fill="none" stroke="#0058ad" points="2179,-81.5 2179,-110.5 "/>
<text text-anchor="middle" x="2324" y="-92.3" font-family="Times,serif" font-size="14.00" fill="#0058ad">r 89 [1 2 3 4 5 6 7 8 9 10 11 12 13 14]</text>
<polyline fill="none" stroke="#0058ad" points="2469,-81.5 2469,-110.5 "/>
<text text-anchor="middle" x="2816.5" y="-92.3" font-family="Times,serif" font-size="14.00" fill="#0058ad">r 90 [1 2 3 4 5 6 7 8 9 10 11 12 13 14 15 16 17 18 19 20 21 22 23 24 25 26 27 28 29 30 31 32]</text>
</g>
<!-- T2355 -->
<g id="node2" class="node">
<title>T2355</title>
<polygon fill="none" stroke="#0058ad" points="0,-0.5 0,-29.5 1869,-29.5 1869,-0.5 0,-0.5"/>
<text text-anchor="middle" x="314" y="-11.3" font-family="Times,serif" font-size="14.00" fill="#0058ad">r 90 [1 2 3 4 5 6 7 8 9 10 11 12 13 14 15 16 17 18 19 20 21 22 23 24 25 26 27 28 29]</text>
<polyline fill="none" stroke="#0058ad" points="628,-0.5 628,-29.5 "/>
<text text-anchor="middle" x="773" y="-11.3" font-family="Times,serif" font-size="14.00" fill="#0058ad">r 89 [1 2 3 4 5 6 7 8 9 10 11 12 13 14]</text>
<polyline fill="none" stroke="#0058ad" points="918,-0.5 918,-29.5 "/>
<text text-anchor="middle" x="1232" y="-11.3" font-family="Times,serif" font-size="14.00" fill="#0058ad">r 90 [1 2 3 4 5 6 7 8 9 10 11 12 13 14 15 16 17 18 19 20 21 22 23 24 25 26 27 28 29]</text>
<polyline fill="none" stroke="#0058ad" points="1546,-0.5 1546,-29.5 "/>
<text text-anchor="middle" x="1581" y="-11.3" font-family="Times,serif" font-size="14.00" fill="#0058ad">a 89 15</text>
<polyline fill="none" stroke="#0058ad" points="1616,-0.5 1616,-29.5 "/>
<text text-anchor="middle" x="1646.5" y="-11.3" font-family="Times,serif" font-size="14.00" fill="#0058ad">a 91 1</text>
<polyline fill="none" stroke="#0058ad" points="1677,-0.5 1677,-29.5 "/>
<text text-anchor="middle" x="1712" y="-11.3" font-family="Times,serif" font-size="14.00" fill="#0058ad">r 91 [1]</text>
<polyline fill="none" stroke="#0058ad" points="1747,-0.5 1747,-29.5 "/>
<text text-anchor="middle" x="1777.5" y="-11.3" font-family="Times,serif" font-size="14.00" fill="#0058ad">a 91 2</text>
<polyline fill="none" stroke="#0058ad" points="1808,-0.5 1808,-29.5 "/>
<text text-anchor="middle" x="1838.5" y="-11.3" font-family="Times,serif" font-size="14.00" fill="#0058ad">a 91 3</text>
</g>
<!-- T2354&#45;&gt;T2355 -->
<g id="edge1" class="edge">
<title>T2354:f1&#45;&gt;T2355:f3</title>
<path fill="none" stroke="#5b00c0" d="M1173.5,-81C1173.5,98.18 1565.72,-200.65 1581.04,-40.15"/>
<polygon fill="#5b00c0" stroke="#5b00c0" points="1584.54,-40.15 1581.5,-30 1577.55,-39.83 1584.54,-40.15"/>
<text text-anchor="middle" x="1589" y="-51.8" font-family="Times,serif" font-size="14.00" fill="#5b00c0">rw</text>
</g>
<!-- T2355&#45;&gt;T2354 -->
<g id="edge2" class="edge">
<title>T2355:f0&#45;&gt;T2354:f0</title>
<path fill="none" stroke="#5b00c0" d="M313.5,-30C313.5,-64.1 860.22,-92.88 947.48,-95.76"/>
<polygon fill="#5b00c0" stroke="#5b00c0" points="947.42,-99.26 957.5,-96 947.59,-92.26 947.42,-99.26"/>
<text text-anchor="middle" x="472" y="-51.8" font-family="Times,serif" font-size="14.00" fill="#5b00c0">rw</text>
</g>
</g>
</svg>
