<?xml version="1.0" encoding="UTF-8" standalone="no"?>
<!DOCTYPE svg PUBLIC "-//W3C//DTD SVG 1.1//EN"
 "http://www.w3.org/Graphics/SVG/1.1/DTD/svg11.dtd">
<!-- Generated by graphviz version 2.43.0 (0)
 -->
<!-- Title: a_graph Pages: 1 -->
<svg width="1492pt" height="119pt"
 viewBox="0.00 0.00 1492.00 119.00" xmlns="http://www.w3.org/2000/svg" xmlns:xlink="http://www.w3.org/1999/xlink">
<g id="graph0" class="graph" transform="scale(1 1) rotate(0) translate(4 115)">
<title>a_graph</title>
<polygon fill="white" stroke="transparent" points="-4,4 -4,-115 1488,-115 1488,4 -4,4"/>
<!-- T2643 -->
<g id="node1" class="node">
<title>T2643</title>
<polygon fill="none" stroke="#0058ad" points="0,-81.5 0,-110.5 1484,-110.5 1484,-81.5 0,-81.5"/>
<text text-anchor="middle" x="138.5" y="-92.3" font-family="Times,serif" font-size="14.00" fill="#0058ad">r 102 [1 2 3 4 5 6 7 8 9 10 11 12 13]</text>
<polyline fill="none" stroke="#0058ad" points="277,-81.5 277,-110.5 "/>
<text text-anchor="middle" x="350" y="-92.3" font-family="Times,serif" font-size="14.00" fill="#0058ad">r 101 [1 2 3 4 5 6]</text>
<polyline fill="none" stroke="#0058ad" points="423,-81.5 423,-110.5 "/>
<text text-anchor="middle" x="458" y="-92.3" font-family="Times,serif" font-size="14.00" fill="#0058ad">a 101 7</text>
<polyline fill="none" stroke="#0058ad" points="493,-81.5 493,-110.5 "/>
<text text-anchor="middle" x="631.5" y="-92.3" font-family="Times,serif" font-size="14.00" fill="#0058ad">r 102 [1 2 3 4 5 6 7 8 9 10 11 12 13]</text>
<polyline fill="none" stroke="#0058ad" points="770,-81.5 770,-110.5 "/>
<text text-anchor="middle" x="908.5" y="-92.3" font-family="Times,serif" font-size="14.00" fill="#0058ad">r 102 [1 2 3 4 5 6 7 8 9 10 11 12 13]</text>
<polyline fill="none" stroke="#0058ad" points="1047,-81.5 1047,-110.5 "/>
<text text-anchor="middle" x="1127" y="-92.3" font-family="Times,serif" font-size="14.00" fill="#0058ad">r 101 [1 2 3 4 5 6 7]</text>
<polyline fill="none" stroke="#0058ad" points="1207,-81.5 1207,-110.5 "/>
<text text-anchor="middle" x="1345.5" y="-92.3" font-family="Times,serif" font-size="14.00" fill="#0058ad">r 102 [1 2 3 4 5 6 7 8 9 10 11 12 13]</text>
</g>
<!-- T2645 -->
<g id="node2" class="node">
<title>T2645</title>
<polygon fill="none" stroke="#0058ad" points="61.5,-0.5 61.5,-29.5 502.5,-29.5 502.5,-0.5 61.5,-0.5"/>
<text text-anchor="middle" x="134.5" y="-11.3" font-family="Times,serif" font-size="14.00" fill="#0058ad">r 101 [1 2 3 4 5 6]</text>
<polyline fill="none" stroke="#0058ad" points="207.5,-0.5 207.5,-29.5 "/>
<text text-anchor="middle" x="280.5" y="-11.3" font-family="Times,serif" font-size="14.00" fill="#0058ad">r 101 [1 2 3 4 5 6]</text>
<polyline fill="none" stroke="#0058ad" points="353.5,-0.5 353.5,-29.5 "/>
<text text-anchor="middle" x="388.5" y="-11.3" font-family="Times,serif" font-size="14.00" fill="#0058ad">a 99 13</text>
<polyline fill="none" stroke="#0058ad" points="423.5,-0.5 423.5,-29.5 "/>
<text text-anchor="middle" x="463" y="-11.3" font-family="Times,serif" font-size="14.00" fill="#0058ad">a 102 14</text>
</g>
<!-- T2643&#45;&gt;T2645 -->
<g id="edge1" class="edge">
<title>T2643:f0&#45;&gt;T2645:f3</title>
<path fill="none" stroke="#5b00c0" d="M138,-81C138,13.48 254.66,-62.64 348,-48 369.96,-44.56 439.11,-52.84 458.12,-38.82"/>
<polygon fill="#5b00c0" stroke="#5b00c0" points="461.22,-40.44 463,-30 455.1,-37.06 461.22,-40.44"/>
<text text-anchor="middle" x="357.5" y="-51.8" font-family="Times,serif" font-size="14.00" fill="#5b00c0">rw</text>
</g>
<!-- T2645&#45;&gt;T2643 -->
<g id="edge2" class="edge">
<title>T2645:f0&#45;&gt;T2643:f2</title>
<path fill="none" stroke="#5b00c0" d="M134,-30C134,-55.97 341.62,-42.52 367,-48 405.28,-56.26 449.26,-41.18 456.86,-70.84"/>
<polygon fill="#5b00c0" stroke="#5b00c0" points="453.4,-71.45 458,-81 460.36,-70.67 453.4,-71.45"/>
<text text-anchor="middle" x="462.5" y="-51.8" font-family="Times,serif" font-size="14.00" fill="#5b00c0">rw</text>
</g>
</g>
</svg>
