<?xml version="1.0" encoding="UTF-8" standalone="no"?>
<!DOCTYPE svg PUBLIC "-//W3C//DTD SVG 1.1//EN"
 "http://www.w3.org/Graphics/SVG/1.1/DTD/svg11.dtd">
<!-- Generated by graphviz version 2.43.0 (0)
 -->
<!-- Title: a_graph Pages: 1 -->
<svg width="875pt" height="119pt"
 viewBox="0.00 0.00 875.00 119.00" xmlns="http://www.w3.org/2000/svg" xmlns:xlink="http://www.w3.org/1999/xlink">
<g id="graph0" class="graph" transform="scale(1 1) rotate(0) translate(4 115)">
<title>a_graph</title>
<polygon fill="white" stroke="transparent" points="-4,4 -4,-115 871,-115 871,4 -4,4"/>
<!-- T22 -->
<g id="node1" class="node">
<title>T22</title>
<polygon fill="none" stroke="#0058ad" points="15.5,-81.5 15.5,-110.5 549.5,-110.5 549.5,-81.5 15.5,-81.5"/>
<text text-anchor="middle" x="46" y="-92.3" font-family="Times,serif" font-size="14.00" fill="#0058ad">a 1 13</text>
<polyline fill="none" stroke="#0058ad" points="76.5,-81.5 76.5,-110.5 "/>
<text text-anchor="middle" x="107" y="-92.3" font-family="Times,serif" font-size="14.00" fill="#0058ad">a 1 14</text>
<polyline fill="none" stroke="#0058ad" points="137.5,-81.5 137.5,-110.5 "/>
<text text-anchor="middle" x="343.5" y="-92.3" font-family="Times,serif" font-size="14.00" fill="#0058ad">r 2 [1 2 5 6 7 8 9 10 11 12 13 14 15 16 17 18 19 20 21]</text>
</g>
<!-- T23 -->
<g id="node2" class="node">
<title>T23</title>
<polygon fill="none" stroke="#0058ad" points="0,-0.5 0,-29.5 867,-29.5 867,-0.5 0,-0.5"/>
<text text-anchor="middle" x="30.5" y="-11.3" font-family="Times,serif" font-size="14.00" fill="#0058ad">a 2 22</text>
<polyline fill="none" stroke="#0058ad" points="61,-0.5 61,-29.5 "/>
<text text-anchor="middle" x="87" y="-11.3" font-family="Times,serif" font-size="14.00" fill="#0058ad">a 0 4</text>
<polyline fill="none" stroke="#0058ad" points="113,-0.5 113,-29.5 "/>
<text text-anchor="middle" x="231" y="-11.3" font-family="Times,serif" font-size="14.00" fill="#0058ad">r 1 [1 2 3 4 5 6 7 8 9 10 11 12]</text>
<polyline fill="none" stroke="#0058ad" points="349,-0.5 349,-29.5 "/>
<text text-anchor="middle" x="379.5" y="-11.3" font-family="Times,serif" font-size="14.00" fill="#0058ad">a 2 23</text>
<polyline fill="none" stroke="#0058ad" points="410,-0.5 410,-29.5 "/>
<text text-anchor="middle" x="638.5" y="-11.3" font-family="Times,serif" font-size="14.00" fill="#0058ad">r 2 [1 2 5 6 7 8 9 10 11 12 13 14 15 16 17 18 19 20 21 22 23]</text>
</g>
<!-- T22&#45;&gt;T23 -->
<g id="edge1" class="edge">
<title>T22:f2&#45;&gt;T23:f0</title>
<path fill="none" stroke="#5b00c0" d="M343.5,-81C343.5,-77.06 93.04,-42.88 40.21,-32.57"/>
<polygon fill="#5b00c0" stroke="#5b00c0" points="41.06,-29.17 30.5,-30 39.27,-35.94 41.06,-29.17"/>
<text text-anchor="middle" x="242" y="-51.8" font-family="Times,serif" font-size="14.00" fill="#5b00c0">rw</text>
</g>
<!-- T23&#45;&gt;T22 -->
<g id="edge2" class="edge">
<title>T23:f2&#45;&gt;T22:f0</title>
<path fill="none" stroke="#5b00c0" d="M230.5,-30C230.5,-55.43 141.84,-40.63 117.5,-48 87.49,-57.08 53.82,-48.24 46.82,-71.07"/>
<polygon fill="#5b00c0" stroke="#5b00c0" points="43.35,-70.63 45.5,-81 50.29,-71.55 43.35,-70.63"/>
<text text-anchor="middle" x="127" y="-51.8" font-family="Times,serif" font-size="14.00" fill="#5b00c0">rw</text>
</g>
</g>
</svg>
