<?xml version="1.0" encoding="UTF-8" standalone="no"?>
<!DOCTYPE svg PUBLIC "-//W3C//DTD SVG 1.1//EN"
 "http://www.w3.org/Graphics/SVG/1.1/DTD/svg11.dtd">
<!-- Generated by graphviz version 2.43.0 (0)
 -->
<!-- Title: a_graph Pages: 1 -->
<svg width="3477pt" height="119pt"
 viewBox="0.00 0.00 3477.00 119.00" xmlns="http://www.w3.org/2000/svg" xmlns:xlink="http://www.w3.org/1999/xlink">
<g id="graph0" class="graph" transform="scale(1 1) rotate(0) translate(4 115)">
<title>a_graph</title>
<polygon fill="white" stroke="transparent" points="-4,4 -4,-115 3473,-115 3473,4 -4,4"/>
<!-- T2776 -->
<g id="node1" class="node">
<title>T2776</title>
<polygon fill="none" stroke="#0058ad" points="0,-81.5 0,-110.5 3453,-110.5 3453,-81.5 0,-81.5"/>
<text text-anchor="middle" x="39.5" y="-92.3" font-family="Times,serif" font-size="14.00" fill="#0058ad">a 104 29</text>
<polyline fill="none" stroke="#0058ad" points="79,-81.5 79,-110.5 "/>
<text text-anchor="middle" x="406.5" y="-92.3" font-family="Times,serif" font-size="14.00" fill="#0058ad">r 105 [1 2 3 6 7 8 9 10 11 12 13 14 15 16 17 18 19 20 21 22 23 24 25 26 27 28 30 31 32]</text>
<polyline fill="none" stroke="#0058ad" points="734,-81.5 734,-110.5 "/>
<text text-anchor="middle" x="1061.5" y="-92.3" font-family="Times,serif" font-size="14.00" fill="#0058ad">r 105 [1 2 3 6 7 8 9 10 11 12 13 14 15 16 17 18 19 20 21 22 23 24 25 26 27 28 30 31 32]</text>
<polyline fill="none" stroke="#0058ad" points="1389,-81.5 1389,-110.5 "/>
<text text-anchor="middle" x="1716.5" y="-92.3" font-family="Times,serif" font-size="14.00" fill="#0058ad">r 105 [1 2 3 6 7 8 9 10 11 12 13 14 15 16 17 18 19 20 21 22 23 24 25 26 27 28 30 31 32]</text>
<polyline fill="none" stroke="#0058ad" points="2044,-81.5 2044,-110.5 "/>
<text text-anchor="middle" x="2371.5" y="-92.3" font-family="Times,serif" font-size="14.00" fill="#0058ad">r 105 [1 2 3 6 7 8 9 10 11 12 13 14 15 16 17 18 19 20 21 22 23 24 25 26 27 28 30 31 32]</text>
<polyline fill="none" stroke="#0058ad" points="2699,-81.5 2699,-110.5 "/>
<text text-anchor="middle" x="3006" y="-92.3" font-family="Times,serif" font-size="14.00" fill="#0058ad">r 104 [1 2 3 4 5 6 7 8 9 10 11 12 13 14 15 16 17 18 19 20 21 22 23 25 26 27 28 29]</text>
<polyline fill="none" stroke="#0058ad" points="3313,-81.5 3313,-110.5 "/>
<text text-anchor="middle" x="3348" y="-92.3" font-family="Times,serif" font-size="14.00" fill="#0058ad">r 107 []</text>
<polyline fill="none" stroke="#0058ad" points="3383,-81.5 3383,-110.5 "/>
<text text-anchor="middle" x="3418" y="-92.3" font-family="Times,serif" font-size="14.00" fill="#0058ad">a 106 6</text>
</g>
<!-- T2777 -->
<g id="node2" class="node">
<title>T2777</title>
<polygon fill="none" stroke="#0058ad" points="3280,-0.5 3280,-29.5 3469,-29.5 3469,-0.5 3280,-0.5"/>
<text text-anchor="middle" x="3339.5" y="-11.3" font-family="Times,serif" font-size="14.00" fill="#0058ad">r 106 [2 3 4 5]</text>
<polyline fill="none" stroke="#0058ad" points="3399,-0.5 3399,-29.5 "/>
<text text-anchor="middle" x="3434" y="-11.3" font-family="Times,serif" font-size="14.00" fill="#0058ad">a 107 1</text>
</g>
<!-- T2776&#45;&gt;T2777 -->
<g id="edge1" class="edge">
<title>T2776:f6&#45;&gt;T2777:f1</title>
<path fill="none" stroke="#5b00c0" d="M3348.5,-81C3348.5,-63.37 3356.24,-58.36 3370.5,-48 3390.67,-33.34 3422.36,-51.64 3431.78,-39.97"/>
<polygon fill="#5b00c0" stroke="#5b00c0" points="3435.24,-40.57 3434.5,-30 3428.49,-38.72 3435.24,-40.57"/>
<text text-anchor="middle" x="3380" y="-51.8" font-family="Times,serif" font-size="14.00" fill="#5b00c0">rw</text>
</g>
<!-- T2777&#45;&gt;T2776 -->
<g id="edge2" class="edge">
<title>T2777:f0&#45;&gt;T2776:f7</title>
<path fill="none" stroke="#5b00c0" d="M3339.5,-30C3339.5,-53.62 3369.98,-34.71 3389.5,-48 3402.36,-56.76 3413.14,-60.11 3416.99,-71"/>
<polygon fill="#5b00c0" stroke="#5b00c0" points="3413.55,-71.64 3418.5,-81 3420.47,-70.59 3413.55,-71.64"/>
<text text-anchor="middle" x="3422" y="-51.8" font-family="Times,serif" font-size="14.00" fill="#5b00c0">rw</text>
</g>
</g>
</svg>
