<?xml version="1.0" encoding="UTF-8" standalone="no"?>
<!DOCTYPE svg PUBLIC "-//W3C//DTD SVG 1.1//EN"
 "http://www.w3.org/Graphics/SVG/1.1/DTD/svg11.dtd">
<!-- Generated by graphviz version 2.43.0 (0)
 -->
<!-- Title: a_graph Pages: 1 -->
<svg width="1578pt" height="119pt"
 viewBox="0.00 0.00 1578.00 119.00" xmlns="http://www.w3.org/2000/svg" xmlns:xlink="http://www.w3.org/1999/xlink">
<g id="graph0" class="graph" transform="scale(1 1) rotate(0) translate(4 115)">
<title>a_graph</title>
<polygon fill="white" stroke="transparent" points="-4,4 -4,-115 1574,-115 1574,4 -4,4"/>
<!-- T108 -->
<g id="node1" class="node">
<title>T108</title>
<polygon fill="none" stroke="#0058ad" points="0,-81.5 0,-110.5 552,-110.5 552,-81.5 0,-81.5"/>
<text text-anchor="middle" x="26" y="-92.3" font-family="Times,serif" font-size="14.00" fill="#0058ad">a 5 1</text>
<polyline fill="none" stroke="#0058ad" points="52,-81.5 52,-110.5 "/>
<text text-anchor="middle" x="271.5" y="-92.3" font-family="Times,serif" font-size="14.00" fill="#0058ad">r 0 [1 2 3 4 5 6 7 8 9 10 11 12 13 14 15 16 19 20 21 22 23]</text>
<polyline fill="none" stroke="#0058ad" points="491,-81.5 491,-110.5 "/>
<text text-anchor="middle" x="521.5" y="-92.3" font-family="Times,serif" font-size="14.00" fill="#0058ad">r 5 [1]</text>
</g>
<!-- T109 -->
<g id="node2" class="node">
<title>T109</title>
<polygon fill="none" stroke="#0058ad" points="42,-0.5 42,-29.5 1570,-29.5 1570,-0.5 42,-0.5"/>
<text text-anchor="middle" x="68" y="-11.3" font-family="Times,serif" font-size="14.00" fill="#0058ad">r 5 []</text>
<polyline fill="none" stroke="#0058ad" points="94,-0.5 94,-29.5 "/>
<text text-anchor="middle" x="124.5" y="-11.3" font-family="Times,serif" font-size="14.00" fill="#0058ad">a 4 19</text>
<polyline fill="none" stroke="#0058ad" points="155,-0.5 155,-29.5 "/>
<text text-anchor="middle" x="185.5" y="-11.3" font-family="Times,serif" font-size="14.00" fill="#0058ad">a 4 20</text>
<polyline fill="none" stroke="#0058ad" points="216,-0.5 216,-29.5 "/>
<text text-anchor="middle" x="246.5" y="-11.3" font-family="Times,serif" font-size="14.00" fill="#0058ad">a 0 24</text>
<polyline fill="none" stroke="#0058ad" points="277,-0.5 277,-29.5 "/>
<text text-anchor="middle" x="485" y="-11.3" font-family="Times,serif" font-size="14.00" fill="#0058ad">r 4 [1 2 3 4 5 6 7 8 9 10 11 12 13 14 15 16 17 18 19 20]</text>
<polyline fill="none" stroke="#0058ad" points="693,-0.5 693,-29.5 "/>
<text text-anchor="middle" x="923.5" y="-11.3" font-family="Times,serif" font-size="14.00" fill="#0058ad">r 0 [1 2 3 4 5 6 7 8 9 10 11 12 13 14 15 16 19 20 21 22 23 24]</text>
<polyline fill="none" stroke="#0058ad" points="1154,-0.5 1154,-29.5 "/>
<text text-anchor="middle" x="1362" y="-11.3" font-family="Times,serif" font-size="14.00" fill="#0058ad">r 4 [1 2 3 4 5 6 7 8 9 10 11 12 13 14 15 16 17 18 19 20]</text>
</g>
<!-- T108&#45;&gt;T109 -->
<g id="edge1" class="edge">
<title>T108:f1&#45;&gt;T109:f3</title>
<path fill="none" stroke="#5b00c0" d="M271,-81C271,-59.7 253.2,-56.01 247.64,-40.21"/>
<polygon fill="#5b00c0" stroke="#5b00c0" points="251.04,-39.32 246,-30 244.13,-40.43 251.04,-39.32"/>
<text text-anchor="middle" x="273.5" y="-51.8" font-family="Times,serif" font-size="14.00" fill="#5b00c0">rw</text>
</g>
<!-- T109&#45;&gt;T108 -->
<g id="edge2" class="edge">
<title>T109:f0&#45;&gt;T108:f0</title>
<path fill="none" stroke="#5b00c0" d="M41,-15C14.21,-15 23.24,-43.49 25.54,-70.97"/>
<polygon fill="#5b00c0" stroke="#5b00c0" points="22.04,-71.17 26,-81 29.04,-70.85 22.04,-71.17"/>
<text text-anchor="middle" x="34.5" y="-51.8" font-family="Times,serif" font-size="14.00" fill="#5b00c0">rw</text>
</g>
</g>
</svg>
