<?xml version="1.0" encoding="UTF-8" standalone="no"?>
<!DOCTYPE svg PUBLIC "-//W3C//DTD SVG 1.1//EN"
 "http://www.w3.org/Graphics/SVG/1.1/DTD/svg11.dtd">
<!-- Generated by graphviz version 2.43.0 (0)
 -->
<!-- Title: a_graph Pages: 1 -->
<svg width="1840pt" height="119pt"
 viewBox="0.00 0.00 1840.00 119.00" xmlns="http://www.w3.org/2000/svg" xmlns:xlink="http://www.w3.org/1999/xlink">
<g id="graph0" class="graph" transform="scale(1 1) rotate(0) translate(4 115)">
<title>a_graph</title>
<polygon fill="white" stroke="transparent" points="-4,4 -4,-115 1836,-115 1836,4 -4,4"/>
<!-- T1967 -->
<g id="node1" class="node">
<title>T1967</title>
<polygon fill="none" stroke="#0058ad" points="0,-81.5 0,-110.5 1832,-110.5 1832,-81.5 0,-81.5"/>
<text text-anchor="middle" x="212.5" y="-92.3" font-family="Times,serif" font-size="14.00" fill="#0058ad">r 75 [1 2 3 4 5 6 7 8 9 10 11 12 13 14 15 16 17 18 19 20]</text>
<polyline fill="none" stroke="#0058ad" points="425,-81.5 425,-110.5 "/>
<text text-anchor="middle" x="637.5" y="-92.3" font-family="Times,serif" font-size="14.00" fill="#0058ad">r 75 [1 2 3 4 5 6 7 8 9 10 11 12 13 14 15 16 17 18 19 20]</text>
<polyline fill="none" stroke="#0058ad" points="850,-81.5 850,-110.5 "/>
<text text-anchor="middle" x="885" y="-92.3" font-family="Times,serif" font-size="14.00" fill="#0058ad">a 70 27</text>
<polyline fill="none" stroke="#0058ad" points="920,-81.5 920,-110.5 "/>
<text text-anchor="middle" x="955" y="-92.3" font-family="Times,serif" font-size="14.00" fill="#0058ad">a 70 28</text>
<polyline fill="none" stroke="#0058ad" points="990,-81.5 990,-110.5 "/>
<text text-anchor="middle" x="1200.5" y="-92.3" font-family="Times,serif" font-size="14.00" fill="#0058ad">r 74 [1 2 3 4 5 8 9 10 13 14 15 16 17 18 19 20 21 22 23]</text>
<polyline fill="none" stroke="#0058ad" points="1411,-81.5 1411,-110.5 "/>
<text text-anchor="middle" x="1621.5" y="-92.3" font-family="Times,serif" font-size="14.00" fill="#0058ad">r 74 [1 2 3 4 5 8 9 10 13 14 15 16 17 18 19 20 21 22 23]</text>
</g>
<!-- T1966 -->
<g id="node2" class="node">
<title>T1966</title>
<polygon fill="none" stroke="#0058ad" points="23,-0.5 23,-29.5 1413,-29.5 1413,-0.5 23,-0.5"/>
<text text-anchor="middle" x="235.5" y="-11.3" font-family="Times,serif" font-size="14.00" fill="#0058ad">r 75 [1 2 3 4 5 6 7 8 9 10 11 12 13 14 15 16 17 18 19 20]</text>
<polyline fill="none" stroke="#0058ad" points="448,-0.5 448,-29.5 "/>
<text text-anchor="middle" x="660.5" y="-11.3" font-family="Times,serif" font-size="14.00" fill="#0058ad">r 75 [1 2 3 4 5 6 7 8 9 10 11 12 13 14 15 16 17 18 19 20]</text>
<polyline fill="none" stroke="#0058ad" points="873,-0.5 873,-29.5 "/>
<text text-anchor="middle" x="908" y="-11.3" font-family="Times,serif" font-size="14.00" fill="#0058ad">a 74 24</text>
<polyline fill="none" stroke="#0058ad" points="943,-0.5 943,-29.5 "/>
<text text-anchor="middle" x="1178" y="-11.3" font-family="Times,serif" font-size="14.00" fill="#0058ad">r 70 [1 2 3 4 5 6 7 8 9 11 12 13 14 15 16 17 18 19 20 21 22 26]</text>
</g>
<!-- T1967&#45;&gt;T1966 -->
<g id="edge1" class="edge">
<title>T1967:f4&#45;&gt;T1966:f2</title>
<path fill="none" stroke="#5b00c0" d="M1201,-81C1201,-66.19 965.52,-50.22 916.77,-35.17"/>
<polygon fill="#5b00c0" stroke="#5b00c0" points="918.39,-32.07 908,-30 914.83,-38.1 918.39,-32.07"/>
<text text-anchor="middle" x="1123.5" y="-51.8" font-family="Times,serif" font-size="14.00" fill="#5b00c0">rw</text>
</g>
<!-- T1966&#45;&gt;T1967 -->
<g id="edge2" class="edge">
<title>T1966:f3&#45;&gt;T1967:f2</title>
<path fill="none" stroke="#5b00c0" d="M1178,-30C1178,-53.09 993.5,-42.81 971,-48 934.85,-56.33 893.59,-43.04 886.17,-70.95"/>
<polygon fill="#5b00c0" stroke="#5b00c0" points="882.68,-70.66 885,-81 889.64,-71.47 882.68,-70.66"/>
<text text-anchor="middle" x="980.5" y="-51.8" font-family="Times,serif" font-size="14.00" fill="#5b00c0">rw</text>
</g>
</g>
</svg>
