<?xml version="1.0" encoding="UTF-8" standalone="no"?>
<!DOCTYPE svg PUBLIC "-//W3C//DTD SVG 1.1//EN"
 "http://www.w3.org/Graphics/SVG/1.1/DTD/svg11.dtd">
<!-- Generated by graphviz version 2.43.0 (0)
 -->
<!-- Title: a_graph Pages: 1 -->
<svg width="2521pt" height="119pt"
 viewBox="0.00 0.00 2521.00 119.00" xmlns="http://www.w3.org/2000/svg" xmlns:xlink="http://www.w3.org/1999/xlink">
<g id="graph0" class="graph" transform="scale(1 1) rotate(0) translate(4 115)">
<title>a_graph</title>
<polygon fill="white" stroke="transparent" points="-4,4 -4,-115 2517,-115 2517,4 -4,4"/>
<!-- T5840 -->
<g id="node1" class="node">
<title>T5840</title>
<polygon fill="none" stroke="#0058ad" points="430,-81.5 430,-110.5 2513,-110.5 2513,-81.5 430,-81.5"/>
<text text-anchor="middle" x="651.5" y="-92.3" font-family="Times,serif" font-size="14.00" fill="#0058ad">r 222 [1 2 3 5 6 7 8 9 10 11 12 13 14 15 16 17 20 21 22 23]</text>
<polyline fill="none" stroke="#0058ad" points="873,-81.5 873,-110.5 "/>
<text text-anchor="middle" x="912.5" y="-92.3" font-family="Times,serif" font-size="14.00" fill="#0058ad">a 218 27</text>
<polyline fill="none" stroke="#0058ad" points="952,-81.5 952,-110.5 "/>
<text text-anchor="middle" x="1036.5" y="-92.3" font-family="Times,serif" font-size="14.00" fill="#0058ad">r 223 [2 3 4 5 6 9 10]</text>
<polyline fill="none" stroke="#0058ad" points="1121,-81.5 1121,-110.5 "/>
<text text-anchor="middle" x="1342.5" y="-92.3" font-family="Times,serif" font-size="14.00" fill="#0058ad">r 222 [1 2 3 5 6 7 8 9 10 11 12 13 14 15 16 17 20 21 22 23]</text>
<polyline fill="none" stroke="#0058ad" points="1564,-81.5 1564,-110.5 "/>
<text text-anchor="middle" x="1785.5" y="-92.3" font-family="Times,serif" font-size="14.00" fill="#0058ad">r 222 [1 2 3 5 6 7 8 9 10 11 12 13 14 15 16 17 20 21 22 23]</text>
<polyline fill="none" stroke="#0058ad" points="2007,-81.5 2007,-110.5 "/>
<text text-anchor="middle" x="2260" y="-92.3" font-family="Times,serif" font-size="14.00" fill="#0058ad">r 218 [1 2 3 4 5 7 10 11 12 13 14 15 17 18 19 21 22 23 24 25 26 27]</text>
</g>
<!-- T5841 -->
<g id="node2" class="node">
<title>T5841</title>
<polygon fill="none" stroke="#0058ad" points="0,-0.5 0,-29.5 2301,-29.5 2301,-0.5 0,-0.5"/>
<text text-anchor="middle" x="84.5" y="-11.3" font-family="Times,serif" font-size="14.00" fill="#0058ad">r 223 [2 3 4 5 6 9 10]</text>
<polyline fill="none" stroke="#0058ad" points="169,-0.5 169,-29.5 "/>
<text text-anchor="middle" x="390.5" y="-11.3" font-family="Times,serif" font-size="14.00" fill="#0058ad">r 222 [1 2 3 5 6 7 8 9 10 11 12 13 14 15 16 17 20 21 22 23]</text>
<polyline fill="none" stroke="#0058ad" points="612,-0.5 612,-29.5 "/>
<text text-anchor="middle" x="854" y="-11.3" font-family="Times,serif" font-size="14.00" fill="#0058ad">r 218 [1 2 3 4 5 7 10 11 12 13 14 15 17 18 19 21 22 23 24 25 26]</text>
<polyline fill="none" stroke="#0058ad" points="1096,-0.5 1096,-29.5 "/>
<text text-anchor="middle" x="1135.5" y="-11.3" font-family="Times,serif" font-size="14.00" fill="#0058ad">a 223 11</text>
<polyline fill="none" stroke="#0058ad" points="1175,-0.5 1175,-29.5 "/>
<text text-anchor="middle" x="1417" y="-11.3" font-family="Times,serif" font-size="14.00" fill="#0058ad">r 218 [1 2 3 4 5 7 10 11 12 13 14 15 17 18 19 21 22 23 24 25 26]</text>
<polyline fill="none" stroke="#0058ad" points="1659,-0.5 1659,-29.5 "/>
<text text-anchor="middle" x="1901" y="-11.3" font-family="Times,serif" font-size="14.00" fill="#0058ad">r 218 [1 2 3 4 5 7 10 11 12 13 14 15 17 18 19 21 22 23 24 25 26]</text>
<polyline fill="none" stroke="#0058ad" points="2143,-0.5 2143,-29.5 "/>
<text text-anchor="middle" x="2182.5" y="-11.3" font-family="Times,serif" font-size="14.00" fill="#0058ad">a 222 24</text>
<polyline fill="none" stroke="#0058ad" points="2222,-0.5 2222,-29.5 "/>
<text text-anchor="middle" x="2261.5" y="-11.3" font-family="Times,serif" font-size="14.00" fill="#0058ad">a 223 12</text>
</g>
<!-- T5840&#45;&gt;T5841 -->
<g id="edge1" class="edge">
<title>T5840:f2&#45;&gt;T5841:f3</title>
<path fill="none" stroke="#5b00c0" d="M1036.5,-81C1036.5,-35.37 1120.64,-72.59 1133.78,-39.91"/>
<polygon fill="#5b00c0" stroke="#5b00c0" points="1137.24,-40.45 1135.5,-30 1130.34,-39.25 1137.24,-40.45"/>
<text text-anchor="middle" x="1137" y="-51.8" font-family="Times,serif" font-size="14.00" fill="#5b00c0">rw</text>
</g>
<!-- T5841&#45;&gt;T5840 -->
<g id="edge2" class="edge">
<title>T5841:f2&#45;&gt;T5840:f1</title>
<path fill="none" stroke="#5b00c0" d="M853.5,-30C853.5,-60.73 899.89,-49.81 910.4,-71.11"/>
<polygon fill="#5b00c0" stroke="#5b00c0" points="907,-71.94 912.5,-81 913.85,-70.49 907,-71.94"/>
<text text-anchor="middle" x="913" y="-51.8" font-family="Times,serif" font-size="14.00" fill="#5b00c0">rw</text>
</g>
</g>
</svg>
