<?xml version="1.0" encoding="UTF-8" standalone="no"?>
<!DOCTYPE svg PUBLIC "-//W3C//DTD SVG 1.1//EN"
 "http://www.w3.org/Graphics/SVG/1.1/DTD/svg11.dtd">
<!-- Generated by graphviz version 2.43.0 (0)
 -->
<!-- Title: a_graph Pages: 1 -->
<svg width="2791pt" height="119pt"
 viewBox="0.00 0.00 2790.50 119.00" xmlns="http://www.w3.org/2000/svg" xmlns:xlink="http://www.w3.org/1999/xlink">
<g id="graph0" class="graph" transform="scale(1 1) rotate(0) translate(4 115)">
<title>a_graph</title>
<polygon fill="white" stroke="transparent" points="-4,4 -4,-115 2786.5,-115 2786.5,4 -4,4"/>
<!-- T2129 -->
<g id="node1" class="node">
<title>T2129</title>
<polygon fill="none" stroke="#0058ad" points="0,-81.5 0,-110.5 2413,-110.5 2413,-81.5 0,-81.5"/>
<text text-anchor="middle" x="300.5" y="-92.3" font-family="Times,serif" font-size="14.00" fill="#0058ad">r 78 [1 3 4 5 8 9 11 12 13 14 15 16 17 19 20 21 22 23 24 25 26 27 28 29 2 30 31]</text>
<polyline fill="none" stroke="#0058ad" points="601,-81.5 601,-110.5 "/>
<text text-anchor="middle" x="865.5" y="-92.3" font-family="Times,serif" font-size="14.00" fill="#0058ad">r 77 [1 2 3 13 14 15 16 17 18 19 20 21 23 24 25 26 27 29 30 31 32 4 5]</text>
<polyline fill="none" stroke="#0058ad" points="1130,-81.5 1130,-110.5 "/>
<text text-anchor="middle" x="1160.5" y="-92.3" font-family="Times,serif" font-size="14.00" fill="#0058ad">a 77 6</text>
<polyline fill="none" stroke="#0058ad" points="1191,-81.5 1191,-110.5 "/>
<text text-anchor="middle" x="1462" y="-92.3" font-family="Times,serif" font-size="14.00" fill="#0058ad">r 77 [1 2 3 13 14 15 16 17 18 19 20 21 23 24 25 26 27 29 30 31 32 4 5 6]</text>
<polyline fill="none" stroke="#0058ad" points="1733,-81.5 1733,-110.5 "/>
<text text-anchor="middle" x="1763.5" y="-92.3" font-family="Times,serif" font-size="14.00" fill="#0058ad">a 77 7</text>
<polyline fill="none" stroke="#0058ad" points="1794,-81.5 1794,-110.5 "/>
<text text-anchor="middle" x="2103.5" y="-92.3" font-family="Times,serif" font-size="14.00" fill="#0058ad">r 76 [1 2 3 9 10 11 12 13 14 15 16 20 21 22 24 25 26 27 28 29 30 31 32 18 19 23 4]</text>
</g>
<!-- T2128 -->
<g id="node2" class="node">
<title>T2128</title>
<polygon fill="none" stroke="#0058ad" points="970.5,-0.5 970.5,-29.5 2782.5,-29.5 2782.5,-0.5 970.5,-0.5"/>
<text text-anchor="middle" x="1235" y="-11.3" font-family="Times,serif" font-size="14.00" fill="#0058ad">r 77 [1 2 3 13 14 15 16 17 18 19 20 21 23 24 25 26 27 29 30 31 32 4 5]</text>
<polyline fill="none" stroke="#0058ad" points="1499.5,-0.5 1499.5,-29.5 "/>
<text text-anchor="middle" x="1764" y="-11.3" font-family="Times,serif" font-size="14.00" fill="#0058ad">r 77 [1 2 3 13 14 15 16 17 18 19 20 21 23 24 25 26 27 29 30 31 32 4 5]</text>
<polyline fill="none" stroke="#0058ad" points="2028.5,-0.5 2028.5,-29.5 "/>
<text text-anchor="middle" x="2059" y="-11.3" font-family="Times,serif" font-size="14.00" fill="#0058ad">a 76 5</text>
<polyline fill="none" stroke="#0058ad" points="2089.5,-0.5 2089.5,-29.5 "/>
<text text-anchor="middle" x="2405.5" y="-11.3" font-family="Times,serif" font-size="14.00" fill="#0058ad">r 76 [1 2 3 9 10 11 12 13 14 15 16 20 21 22 24 25 26 27 28 29 30 31 32 18 19 23 4 5]</text>
<polyline fill="none" stroke="#0058ad" points="2721.5,-0.5 2721.5,-29.5 "/>
<text text-anchor="middle" x="2752" y="-11.3" font-family="Times,serif" font-size="14.00" fill="#0058ad">a 76 6</text>
</g>
<!-- T2129&#45;&gt;T2128 -->
<g id="edge1" class="edge">
<title>T2129:f5&#45;&gt;T2128:f2</title>
<path fill="none" stroke="#5b00c0" d="M2103.5,-81C2103.5,-55.04 2070.41,-58.26 2061.62,-40.06"/>
<polygon fill="#5b00c0" stroke="#5b00c0" points="2064.99,-39.06 2059.5,-30 2058.14,-40.51 2064.99,-39.06"/>
<text text-anchor="middle" x="2103" y="-51.8" font-family="Times,serif" font-size="14.00" fill="#5b00c0">rw</text>
</g>
<!-- T2128&#45;&gt;T2129 -->
<g id="edge2" class="edge">
<title>T2128:f0&#45;&gt;T2129:f2</title>
<path fill="none" stroke="#5b00c0" d="M1234.5,-30C1234.5,-66.04 1174.25,-46.04 1162.48,-71.14"/>
<polygon fill="#5b00c0" stroke="#5b00c0" points="1159.04,-70.51 1160.5,-81 1165.9,-71.88 1159.04,-70.51"/>
<text text-anchor="middle" x="1234" y="-51.8" font-family="Times,serif" font-size="14.00" fill="#5b00c0">rw</text>
</g>
</g>
</svg>
