<?xml version="1.0" encoding="UTF-8" standalone="no"?>
<!DOCTYPE svg PUBLIC "-//W3C//DTD SVG 1.1//EN"
 "http://www.w3.org/Graphics/SVG/1.1/DTD/svg11.dtd">
<!-- Generated by graphviz version 2.43.0 (0)
 -->
<!-- Title: a_graph Pages: 1 -->
<svg width="1553pt" height="119pt"
 viewBox="0.00 0.00 1553.00 119.00" xmlns="http://www.w3.org/2000/svg" xmlns:xlink="http://www.w3.org/1999/xlink">
<g id="graph0" class="graph" transform="scale(1 1) rotate(0) translate(4 115)">
<title>a_graph</title>
<polygon fill="white" stroke="transparent" points="-4,4 -4,-115 1549,-115 1549,4 -4,4"/>
<!-- T1249 -->
<g id="node1" class="node">
<title>T1249</title>
<polygon fill="none" stroke="#0058ad" points="0,-81.5 0,-110.5 1545,-110.5 1545,-81.5 0,-81.5"/>
<text text-anchor="middle" x="35" y="-92.3" font-family="Times,serif" font-size="14.00" fill="#0058ad">a 48 14</text>
<polyline fill="none" stroke="#0058ad" points="70,-81.5 70,-110.5 "/>
<text text-anchor="middle" x="105" y="-92.3" font-family="Times,serif" font-size="14.00" fill="#0058ad">a 48 15</text>
<polyline fill="none" stroke="#0058ad" points="140,-81.5 140,-110.5 "/>
<text text-anchor="middle" x="175" y="-92.3" font-family="Times,serif" font-size="14.00" fill="#0058ad">a 44 29</text>
<polyline fill="none" stroke="#0058ad" points="210,-81.5 210,-110.5 "/>
<text text-anchor="middle" x="366.5" y="-92.3" font-family="Times,serif" font-size="14.00" fill="#0058ad">r 48 [1 2 3 4 5 6 7 8 9 10 11 12 13 14 15]</text>
<polyline fill="none" stroke="#0058ad" points="523,-81.5 523,-110.5 "/>
<text text-anchor="middle" x="558" y="-92.3" font-family="Times,serif" font-size="14.00" fill="#0058ad">a 48 16</text>
<polyline fill="none" stroke="#0058ad" points="593,-81.5 593,-110.5 "/>
<text text-anchor="middle" x="628" y="-92.3" font-family="Times,serif" font-size="14.00" fill="#0058ad">a 44 30</text>
<polyline fill="none" stroke="#0058ad" points="663,-81.5 663,-110.5 "/>
<text text-anchor="middle" x="936.5" y="-92.3" font-family="Times,serif" font-size="14.00" fill="#0058ad">r 47 [2 3 4 5 6 7 8 9 10 11 12 13 14 15 16 17 18 19 20 21 22 23 24 25 26]</text>
<polyline fill="none" stroke="#0058ad" points="1210,-81.5 1210,-110.5 "/>
<text text-anchor="middle" x="1377.5" y="-92.3" font-family="Times,serif" font-size="14.00" fill="#0058ad">r 48 [1 2 3 4 5 6 7 8 9 10 11 12 13 14 15 16]</text>
</g>
<!-- T1248 -->
<g id="node2" class="node">
<title>T1248</title>
<polygon fill="none" stroke="#0058ad" points="150.5,-0.5 150.5,-29.5 1012.5,-29.5 1012.5,-0.5 150.5,-0.5"/>
<text text-anchor="middle" x="185.5" y="-11.3" font-family="Times,serif" font-size="14.00" fill="#0058ad">a 47 27</text>
<polyline fill="none" stroke="#0058ad" points="220.5,-0.5 220.5,-29.5 "/>
<text text-anchor="middle" x="354.5" y="-11.3" font-family="Times,serif" font-size="14.00" fill="#0058ad">r 48 [1 2 3 4 5 6 7 8 9 10 11 12 13]</text>
<polyline fill="none" stroke="#0058ad" points="488.5,-0.5 488.5,-29.5 "/>
<text text-anchor="middle" x="750.5" y="-11.3" font-family="Times,serif" font-size="14.00" fill="#0058ad">r 44 [1 2 3 4 6 7 8 9 10 12 13 14 17 18 19 20 21 22 23 24 25 26 27 28]</text>
</g>
<!-- T1249&#45;&gt;T1248 -->
<g id="edge1" class="edge">
<title>T1249:f6&#45;&gt;T1248:f0</title>
<path fill="none" stroke="#5b00c0" d="M936.5,-81C936.5,-41.71 273.69,-68.14 193.43,-36.81"/>
<polygon fill="#5b00c0" stroke="#5b00c0" points="195.37,-33.86 185.5,-30 190.8,-39.17 195.37,-33.86"/>
<text text-anchor="middle" x="852" y="-51.8" font-family="Times,serif" font-size="14.00" fill="#5b00c0">rw</text>
</g>
<!-- T1248&#45;&gt;T1249 -->
<g id="edge2" class="edge">
<title>T1248:f1&#45;&gt;T1249:f0</title>
<path fill="none" stroke="#5b00c0" d="M354.5,-30C354.5,-38.07 97.32,-65.42 44.08,-77.49"/>
<polygon fill="#5b00c0" stroke="#5b00c0" points="42.68,-74.27 34.5,-81 45.09,-80.84 42.68,-74.27"/>
<text text-anchor="middle" x="260" y="-51.8" font-family="Times,serif" font-size="14.00" fill="#5b00c0">rw</text>
</g>
</g>
</svg>
