<?xml version="1.0" encoding="UTF-8" standalone="no"?>
<!DOCTYPE svg PUBLIC "-//W3C//DTD SVG 1.1//EN"
 "http://www.w3.org/Graphics/SVG/1.1/DTD/svg11.dtd">
<!-- Generated by graphviz version 2.43.0 (0)
 -->
<!-- Title: a_graph Pages: 1 -->
<svg width="2285pt" height="119pt"
 viewBox="0.00 0.00 2284.50 119.00" xmlns="http://www.w3.org/2000/svg" xmlns:xlink="http://www.w3.org/1999/xlink">
<g id="graph0" class="graph" transform="scale(1 1) rotate(0) translate(4 115)">
<title>a_graph</title>
<polygon fill="white" stroke="transparent" points="-4,4 -4,-115 2280.5,-115 2280.5,4 -4,4"/>
<!-- T2885 -->
<g id="node1" class="node">
<title>T2885</title>
<polygon fill="none" stroke="#0058ad" points="0,-81.5 0,-110.5 1978,-110.5 1978,-81.5 0,-81.5"/>
<text text-anchor="middle" x="239.5" y="-92.3" font-family="Times,serif" font-size="14.00" fill="#0058ad">r 111 [1 2 3 4 5 6 7 8 9 10 11 12 13 14 15 16 17 18 19 20 21 22]</text>
<polyline fill="none" stroke="#0058ad" points="479,-81.5 479,-110.5 "/>
<text text-anchor="middle" x="514" y="-92.3" font-family="Times,serif" font-size="14.00" fill="#0058ad">a 110 8</text>
<polyline fill="none" stroke="#0058ad" points="549,-81.5 549,-110.5 "/>
<text text-anchor="middle" x="788.5" y="-92.3" font-family="Times,serif" font-size="14.00" fill="#0058ad">r 111 [1 2 3 4 5 6 7 8 9 10 11 12 13 14 15 16 17 18 19 20 21 22]</text>
<polyline fill="none" stroke="#0058ad" points="1028,-81.5 1028,-110.5 "/>
<text text-anchor="middle" x="1265.5" y="-92.3" font-family="Times,serif" font-size="14.00" fill="#0058ad">r 109 [1 2 3 4 5 8 9 10 11 12 13 14 17 18 19 20 21 22 23 24 25]</text>
<polyline fill="none" stroke="#0058ad" points="1503,-81.5 1503,-110.5 "/>
<text text-anchor="middle" x="1740.5" y="-92.3" font-family="Times,serif" font-size="14.00" fill="#0058ad">r 109 [1 2 3 4 5 8 9 10 11 12 13 14 17 18 19 20 21 22 23 24 25]</text>
</g>
<!-- T2886 -->
<g id="node2" class="node">
<title>T2886</title>
<polygon fill="none" stroke="#0058ad" points="297.5,-0.5 297.5,-29.5 2276.5,-29.5 2276.5,-0.5 297.5,-0.5"/>
<text text-anchor="middle" x="337" y="-11.3" font-family="Times,serif" font-size="14.00" fill="#0058ad">a 111 23</text>
<polyline fill="none" stroke="#0058ad" points="376.5,-0.5 376.5,-29.5 "/>
<text text-anchor="middle" x="456.5" y="-11.3" font-family="Times,serif" font-size="14.00" fill="#0058ad">r 110 [1 2 3 4 5 6 7]</text>
<polyline fill="none" stroke="#0058ad" points="536.5,-0.5 536.5,-29.5 "/>
<text text-anchor="middle" x="616.5" y="-11.3" font-family="Times,serif" font-size="14.00" fill="#0058ad">r 110 [1 2 3 4 5 6 7]</text>
<polyline fill="none" stroke="#0058ad" points="696.5,-0.5 696.5,-29.5 "/>
<text text-anchor="middle" x="947.5" y="-11.3" font-family="Times,serif" font-size="14.00" fill="#0058ad">r 111 [1 2 3 4 5 6 7 8 9 10 11 12 13 14 15 16 17 18 19 20 21 22 23]</text>
<polyline fill="none" stroke="#0058ad" points="1198.5,-0.5 1198.5,-29.5 "/>
<text text-anchor="middle" x="1238" y="-11.3" font-family="Times,serif" font-size="14.00" fill="#0058ad">a 109 26</text>
<polyline fill="none" stroke="#0058ad" points="1277.5,-0.5 1277.5,-29.5 "/>
<text text-anchor="middle" x="1526" y="-11.3" font-family="Times,serif" font-size="14.00" fill="#0058ad">r 109 [1 2 3 4 5 8 9 10 11 12 13 14 17 18 19 20 21 22 23 24 25 26]</text>
<polyline fill="none" stroke="#0058ad" points="1774.5,-0.5 1774.5,-29.5 "/>
<text text-anchor="middle" x="2025.5" y="-11.3" font-family="Times,serif" font-size="14.00" fill="#0058ad">r 111 [1 2 3 4 5 6 7 8 9 10 11 12 13 14 15 16 17 18 19 20 21 22 23]</text>
</g>
<!-- T2885&#45;&gt;T2886 -->
<g id="edge1" class="edge">
<title>T2885:f0&#45;&gt;T2886:f0</title>
<path fill="none" stroke="#5b00c0" d="M239,-81C239,-45.88 253.98,-20.21 285.64,-15.71"/>
<polygon fill="#5b00c0" stroke="#5b00c0" points="286.26,-19.17 296,-15 285.79,-12.19 286.26,-19.17"/>
<text text-anchor="middle" x="253.5" y="-51.8" font-family="Times,serif" font-size="14.00" fill="#5b00c0">rw</text>
</g>
<!-- T2886&#45;&gt;T2885 -->
<g id="edge2" class="edge">
<title>T2886:f1&#45;&gt;T2885:f1</title>
<path fill="none" stroke="#5b00c0" d="M456,-30C456,-60.44 501.6,-50.01 511.94,-71.18"/>
<polygon fill="#5b00c0" stroke="#5b00c0" points="508.52,-71.93 514,-81 515.37,-70.49 508.52,-71.93"/>
<text text-anchor="middle" x="514.5" y="-51.8" font-family="Times,serif" font-size="14.00" fill="#5b00c0">rw</text>
</g>
</g>
</svg>
