<?xml version="1.0" encoding="UTF-8" standalone="no"?>
<!DOCTYPE svg PUBLIC "-//W3C//DTD SVG 1.1//EN"
 "http://www.w3.org/Graphics/SVG/1.1/DTD/svg11.dtd">
<!-- Generated by graphviz version 2.43.0 (0)
 -->
<!-- Title: a_graph Pages: 1 -->
<svg width="2655pt" height="119pt"
 viewBox="0.00 0.00 2655.00 119.00" xmlns="http://www.w3.org/2000/svg" xmlns:xlink="http://www.w3.org/1999/xlink">
<g id="graph0" class="graph" transform="scale(1 1) rotate(0) translate(4 115)">
<title>a_graph</title>
<polygon fill="white" stroke="transparent" points="-4,4 -4,-115 2651,-115 2651,4 -4,4"/>
<!-- T479 -->
<g id="node1" class="node">
<title>T479</title>
<polygon fill="none" stroke="#0058ad" points="0,-81.5 0,-110.5 2647,-110.5 2647,-81.5 0,-81.5"/>
<text text-anchor="middle" x="300.5" y="-92.3" font-family="Times,serif" font-size="14.00" fill="#0058ad">r 12 [2 3 6 11 13 14 15 16 18 19 20 21 22 23 25 26 27 28 29 30 31 32 17 4 7 8 9]</text>
<polyline fill="none" stroke="#0058ad" points="601,-81.5 601,-110.5 "/>
<text text-anchor="middle" x="631.5" y="-92.3" font-family="Times,serif" font-size="14.00" fill="#0058ad">a 8 25</text>
<polyline fill="none" stroke="#0058ad" points="662,-81.5 662,-110.5 "/>
<text text-anchor="middle" x="697" y="-92.3" font-family="Times,serif" font-size="14.00" fill="#0058ad">a 12 10</text>
<polyline fill="none" stroke="#0058ad" points="732,-81.5 732,-110.5 "/>
<text text-anchor="middle" x="1055" y="-92.3" font-family="Times,serif" font-size="14.00" fill="#0058ad">r 13 [1 4 6 7 9 10 11 12 13 14 15 16 18 19 20 21 22 23 24 25 26 28 29 30 31 32 17 2 3]</text>
<polyline fill="none" stroke="#0058ad" points="1378,-81.5 1378,-110.5 "/>
<text text-anchor="middle" x="1701" y="-92.3" font-family="Times,serif" font-size="14.00" fill="#0058ad">r 13 [1 4 6 7 9 10 11 12 13 14 15 16 18 19 20 21 22 23 24 25 26 28 29 30 31 32 17 2 3]</text>
<polyline fill="none" stroke="#0058ad" points="2024,-81.5 2024,-110.5 "/>
<text text-anchor="middle" x="2335.5" y="-92.3" font-family="Times,serif" font-size="14.00" fill="#0058ad">r 12 [2 3 6 11 13 14 15 16 18 19 20 21 22 23 25 26 27 28 29 30 31 32 17 4 7 8 9 10]</text>
</g>
<!-- T478 -->
<g id="node2" class="node">
<title>T478</title>
<polygon fill="none" stroke="#0058ad" points="751,-0.5 751,-29.5 2072,-29.5 2072,-0.5 751,-0.5"/>
<text text-anchor="middle" x="781.5" y="-11.3" font-family="Times,serif" font-size="14.00" fill="#0058ad">a 13 5</text>
<polyline fill="none" stroke="#0058ad" points="812,-0.5 812,-29.5 "/>
<text text-anchor="middle" x="1112.5" y="-11.3" font-family="Times,serif" font-size="14.00" fill="#0058ad">r 12 [2 3 6 11 13 14 15 16 18 19 20 21 22 23 25 26 27 28 29 30 31 32 17 4 7 8 9]</text>
<polyline fill="none" stroke="#0058ad" points="1413,-0.5 1413,-29.5 "/>
<text text-anchor="middle" x="1742.5" y="-11.3" font-family="Times,serif" font-size="14.00" fill="#0058ad">r 13 [1 4 6 7 9 10 11 12 13 14 15 16 18 19 20 21 22 23 24 25 26 28 29 30 31 32 17 2 3 5]</text>
</g>
<!-- T479&#45;&gt;T478 -->
<g id="edge1" class="edge">
<title>T479:f3&#45;&gt;T478:f0</title>
<path fill="none" stroke="#5b00c0" d="M1054.5,-81C1054.5,-52.5 955.54,-68.15 927.5,-63 865.77,-51.67 790.58,-91.55 782.26,-40.26"/>
<polygon fill="#5b00c0" stroke="#5b00c0" points="785.73,-39.71 781.5,-30 778.75,-40.23 785.73,-39.71"/>
<text text-anchor="middle" x="937" y="-51.8" font-family="Times,serif" font-size="14.00" fill="#5b00c0">rw</text>
</g>
<!-- T478&#45;&gt;T479 -->
<g id="edge2" class="edge">
<title>T478:f1&#45;&gt;T479:f2</title>
<path fill="none" stroke="#5b00c0" d="M1112.5,-30C1112.5,-105.22 1021.05,-52.95 946.5,-63 934.32,-64.64 748.81,-66.56 705.49,-76.57"/>
<polygon fill="#5b00c0" stroke="#5b00c0" points="703.92,-73.44 696.5,-81 707.02,-79.72 703.92,-73.44"/>
<text text-anchor="middle" x="1120" y="-51.8" font-family="Times,serif" font-size="14.00" fill="#5b00c0">rw</text>
</g>
</g>
</svg>
