<?xml version="1.0" encoding="UTF-8" standalone="no"?>
<!DOCTYPE svg PUBLIC "-//W3C//DTD SVG 1.1//EN"
 "http://www.w3.org/Graphics/SVG/1.1/DTD/svg11.dtd">
<!-- Generated by graphviz version 2.43.0 (0)
 -->
<!-- Title: a_graph Pages: 1 -->
<svg width="1361pt" height="119pt"
 viewBox="0.00 0.00 1361.00 119.00" xmlns="http://www.w3.org/2000/svg" xmlns:xlink="http://www.w3.org/1999/xlink">
<g id="graph0" class="graph" transform="scale(1 1) rotate(0) translate(4 115)">
<title>a_graph</title>
<polygon fill="white" stroke="transparent" points="-4,4 -4,-115 1357,-115 1357,4 -4,4"/>
<!-- T1017 -->
<g id="node1" class="node">
<title>T1017</title>
<polygon fill="none" stroke="#0058ad" points="0,-81.5 0,-110.5 1353,-110.5 1353,-81.5 0,-81.5"/>
<text text-anchor="middle" x="35" y="-92.3" font-family="Times,serif" font-size="14.00" fill="#0058ad">a 38 30</text>
<polyline fill="none" stroke="#0058ad" points="70,-81.5 70,-110.5 "/>
<text text-anchor="middle" x="105" y="-92.3" font-family="Times,serif" font-size="14.00" fill="#0058ad">a 38 31</text>
<polyline fill="none" stroke="#0058ad" points="140,-81.5 140,-110.5 "/>
<text text-anchor="middle" x="334.5" y="-92.3" font-family="Times,serif" font-size="14.00" fill="#0058ad">r 34 [1 2 3 4 5 6 7 9 10 11 12 13 14 15 16 17 18 19]</text>
<polyline fill="none" stroke="#0058ad" points="529,-81.5 529,-110.5 "/>
<text text-anchor="middle" x="865.5" y="-92.3" font-family="Times,serif" font-size="14.00" fill="#0058ad">r 38 [1 2 3 4 5 6 7 8 9 10 11 12 13 14 15 16 17 18 19 20 21 22 23 24 25 26 27 28 29 30 31]</text>
<polyline fill="none" stroke="#0058ad" points="1202,-81.5 1202,-110.5 "/>
<text text-anchor="middle" x="1277.5" y="-92.3" font-family="Times,serif" font-size="14.00" fill="#0058ad">r 39 [1 2 3 4 5 6 7]</text>
</g>
<!-- T1016 -->
<g id="node2" class="node">
<title>T1016</title>
<polygon fill="none" stroke="#0058ad" points="153.5,-0.5 153.5,-29.5 1137.5,-29.5 1137.5,-0.5 153.5,-0.5"/>
<text text-anchor="middle" x="184" y="-11.3" font-family="Times,serif" font-size="14.00" fill="#0058ad">a 39 8</text>
<polyline fill="none" stroke="#0058ad" points="214.5,-0.5 214.5,-29.5 "/>
<text text-anchor="middle" x="528.5" y="-11.3" font-family="Times,serif" font-size="14.00" fill="#0058ad">r 38 [1 2 3 4 5 6 7 8 9 10 11 12 13 14 15 16 17 18 19 20 21 22 23 24 25 26 27 28 29]</text>
<polyline fill="none" stroke="#0058ad" points="842.5,-0.5 842.5,-29.5 "/>
<text text-anchor="middle" x="924.5" y="-11.3" font-family="Times,serif" font-size="14.00" fill="#0058ad">r 39 [1 2 3 4 5 6 7 8]</text>
<polyline fill="none" stroke="#0058ad" points="1006.5,-0.5 1006.5,-29.5 "/>
<text text-anchor="middle" x="1037" y="-11.3" font-family="Times,serif" font-size="14.00" fill="#0058ad">a 39 9</text>
<polyline fill="none" stroke="#0058ad" points="1067.5,-0.5 1067.5,-29.5 "/>
<text text-anchor="middle" x="1102.5" y="-11.3" font-family="Times,serif" font-size="14.00" fill="#0058ad">a 39 10</text>
</g>
<!-- T1017&#45;&gt;T1016 -->
<g id="edge1" class="edge">
<title>T1017:f4&#45;&gt;T1016:f0</title>
<path fill="none" stroke="#5b00c0" d="M1277.5,-81C1277.5,-52.21 297.86,-59.48 192.63,-34.57"/>
<polygon fill="#5b00c0" stroke="#5b00c0" points="194.01,-31.34 183.5,-30 190.88,-37.6 194.01,-31.34"/>
<text text-anchor="middle" x="1050" y="-51.8" font-family="Times,serif" font-size="14.00" fill="#5b00c0">rw</text>
</g>
<!-- T1016&#45;&gt;T1017 -->
<g id="edge2" class="edge">
<title>T1016:f1&#45;&gt;T1017:f0</title>
<path fill="none" stroke="#5b00c0" d="M528.5,-30C528.5,-42.66 112.22,-63.43 43.93,-77.42"/>
<polygon fill="#5b00c0" stroke="#5b00c0" points="42.61,-74.18 34.5,-81 45.09,-80.72 42.61,-74.18"/>
<text text-anchor="middle" x="378" y="-51.8" font-family="Times,serif" font-size="14.00" fill="#5b00c0">rw</text>
</g>
</g>
</svg>
