<?xml version="1.0" encoding="UTF-8" standalone="no"?>
<!DOCTYPE svg PUBLIC "-//W3C//DTD SVG 1.1//EN"
 "http://www.w3.org/Graphics/SVG/1.1/DTD/svg11.dtd">
<!-- Generated by graphviz version 2.43.0 (0)
 -->
<!-- Title: a_graph Pages: 1 -->
<svg width="1005pt" height="200pt"
 viewBox="0.00 0.00 1005.00 200.00" xmlns="http://www.w3.org/2000/svg" xmlns:xlink="http://www.w3.org/1999/xlink">
<g id="graph0" class="graph" transform="scale(1 1) rotate(0) translate(4 196)">
<title>a_graph</title>
<polygon fill="white" stroke="transparent" points="-4,4 -4,-196 1001,-196 1001,4 -4,4"/>
<!-- T193 -->
<g id="node1" class="node">
<title>T193</title>
<polygon fill="none" stroke="#0058ad" points="0,-162.5 0,-191.5 825,-191.5 825,-162.5 0,-162.5"/>
<text text-anchor="middle" x="30.5" y="-173.3" font-family="Times,serif" font-size="14.00" fill="#0058ad">a 84 1</text>
<polyline fill="none" stroke="#0058ad" points="61,-162.5 61,-191.5 "/>
<text text-anchor="middle" x="91.5" y="-173.3" font-family="Times,serif" font-size="14.00" fill="#0058ad">a 79 4</text>
<polyline fill="none" stroke="#0058ad" points="122,-162.5 122,-191.5 "/>
<text text-anchor="middle" x="157" y="-173.3" font-family="Times,serif" font-size="14.00" fill="#0058ad">r 84 [1]</text>
<polyline fill="none" stroke="#0058ad" points="192,-162.5 192,-191.5 "/>
<text text-anchor="middle" x="227" y="-173.3" font-family="Times,serif" font-size="14.00" fill="#0058ad">r 78 [1]</text>
<polyline fill="none" stroke="#0058ad" points="262,-162.5 262,-191.5 "/>
<text text-anchor="middle" x="297" y="-173.3" font-family="Times,serif" font-size="14.00" fill="#0058ad">r 84 [1]</text>
<polyline fill="none" stroke="#0058ad" points="332,-162.5 332,-191.5 "/>
<text text-anchor="middle" x="362.5" y="-173.3" font-family="Times,serif" font-size="14.00" fill="#0058ad">a 84 2</text>
<polyline fill="none" stroke="#0058ad" points="393,-162.5 393,-191.5 "/>
<text text-anchor="middle" x="434.5" y="-173.3" font-family="Times,serif" font-size="14.00" fill="#0058ad">r 84 [1 2]</text>
<polyline fill="none" stroke="#0058ad" points="476,-162.5 476,-191.5 "/>
<text text-anchor="middle" x="517.5" y="-173.3" font-family="Times,serif" font-size="14.00" fill="#0058ad">r 84 [1 2]</text>
<polyline fill="none" stroke="#0058ad" points="559,-162.5 559,-191.5 "/>
<text text-anchor="middle" x="589.5" y="-173.3" font-family="Times,serif" font-size="14.00" fill="#0058ad">r 82 []</text>
<polyline fill="none" stroke="#0058ad" points="620,-162.5 620,-191.5 "/>
<text text-anchor="middle" x="650.5" y="-173.3" font-family="Times,serif" font-size="14.00" fill="#0058ad">a 84 3</text>
<polyline fill="none" stroke="#0058ad" points="681,-162.5 681,-191.5 "/>
<text text-anchor="middle" x="711.5" y="-173.3" font-family="Times,serif" font-size="14.00" fill="#0058ad">a 84 4</text>
<polyline fill="none" stroke="#0058ad" points="742,-162.5 742,-191.5 "/>
<text text-anchor="middle" x="783.5" y="-173.3" font-family="Times,serif" font-size="14.00" fill="#0058ad">r 79 [1 4]</text>
</g>
<!-- T189 -->
<g id="node2" class="node">
<title>T189</title>
<polygon fill="none" stroke="#0058ad" points="390,-81.5 390,-110.5 997,-110.5 997,-81.5 390,-81.5"/>
<text text-anchor="middle" x="420.5" y="-92.3" font-family="Times,serif" font-size="14.00" fill="#0058ad">a 83 2</text>
<polyline fill="none" stroke="#0058ad" points="451,-81.5 451,-110.5 "/>
<text text-anchor="middle" x="481.5" y="-92.3" font-family="Times,serif" font-size="14.00" fill="#0058ad">a 82 3</text>
<polyline fill="none" stroke="#0058ad" points="512,-81.5 512,-110.5 "/>
<text text-anchor="middle" x="542.5" y="-92.3" font-family="Times,serif" font-size="14.00" fill="#0058ad">r 78 []</text>
<polyline fill="none" stroke="#0058ad" points="573,-81.5 573,-110.5 "/>
<text text-anchor="middle" x="603.5" y="-92.3" font-family="Times,serif" font-size="14.00" fill="#0058ad">a 83 3</text>
<polyline fill="none" stroke="#0058ad" points="634,-81.5 634,-110.5 "/>
<text text-anchor="middle" x="669" y="-92.3" font-family="Times,serif" font-size="14.00" fill="#0058ad">r 82 [3]</text>
<polyline fill="none" stroke="#0058ad" points="704,-81.5 704,-110.5 "/>
<text text-anchor="middle" x="734.5" y="-92.3" font-family="Times,serif" font-size="14.00" fill="#0058ad">a 83 4</text>
<polyline fill="none" stroke="#0058ad" points="765,-81.5 765,-110.5 "/>
<text text-anchor="middle" x="795.5" y="-92.3" font-family="Times,serif" font-size="14.00" fill="#0058ad">a 83 5</text>
<polyline fill="none" stroke="#0058ad" points="826,-81.5 826,-110.5 "/>
<text text-anchor="middle" x="881" y="-92.3" font-family="Times,serif" font-size="14.00" fill="#0058ad">r 83 [2 3 4 5]</text>
<polyline fill="none" stroke="#0058ad" points="936,-81.5 936,-110.5 "/>
<text text-anchor="middle" x="966.5" y="-92.3" font-family="Times,serif" font-size="14.00" fill="#0058ad">a 82 4</text>
</g>
<!-- T193&#45;&gt;T189 -->
<g id="edge1" class="edge">
<title>T193:f8&#45;&gt;T189:f1</title>
<path fill="none" stroke="#5b00c0" d="M589.5,-162C589.5,-112.86 496.94,-156.49 483.2,-121.12"/>
<polygon fill="#5b00c0" stroke="#5b00c0" points="486.61,-120.28 481.5,-111 479.7,-121.44 486.61,-120.28"/>
<text text-anchor="middle" x="591" y="-132.8" font-family="Times,serif" font-size="14.00" fill="#5b00c0">rw</text>
</g>
<!-- T198 -->
<g id="node3" class="node">
<title>T198</title>
<polygon fill="none" stroke="#0058ad" points="259,-0.5 259,-29.5 826,-29.5 826,-0.5 259,-0.5"/>
<text text-anchor="middle" x="289.5" y="-11.3" font-family="Times,serif" font-size="14.00" fill="#0058ad">r 84 []</text>
<polyline fill="none" stroke="#0058ad" points="320,-0.5 320,-29.5 "/>
<text text-anchor="middle" x="350.5" y="-11.3" font-family="Times,serif" font-size="14.00" fill="#0058ad">r 84 []</text>
<polyline fill="none" stroke="#0058ad" points="381,-0.5 381,-29.5 "/>
<text text-anchor="middle" x="411.5" y="-11.3" font-family="Times,serif" font-size="14.00" fill="#0058ad">a 85 1</text>
<polyline fill="none" stroke="#0058ad" points="442,-0.5 442,-29.5 "/>
<text text-anchor="middle" x="472.5" y="-11.3" font-family="Times,serif" font-size="14.00" fill="#0058ad">r 84 []</text>
<polyline fill="none" stroke="#0058ad" points="503,-0.5 503,-29.5 "/>
<text text-anchor="middle" x="538" y="-11.3" font-family="Times,serif" font-size="14.00" fill="#0058ad">r 85 [1]</text>
<polyline fill="none" stroke="#0058ad" points="573,-0.5 573,-29.5 "/>
<text text-anchor="middle" x="603.5" y="-11.3" font-family="Times,serif" font-size="14.00" fill="#0058ad">a 85 2</text>
<polyline fill="none" stroke="#0058ad" points="634,-0.5 634,-29.5 "/>
<text text-anchor="middle" x="664.5" y="-11.3" font-family="Times,serif" font-size="14.00" fill="#0058ad">a 85 3</text>
<polyline fill="none" stroke="#0058ad" points="695,-0.5 695,-29.5 "/>
<text text-anchor="middle" x="725.5" y="-11.3" font-family="Times,serif" font-size="14.00" fill="#0058ad">a 85 4</text>
<polyline fill="none" stroke="#0058ad" points="756,-0.5 756,-29.5 "/>
<text text-anchor="middle" x="791" y="-11.3" font-family="Times,serif" font-size="14.00" fill="#0058ad">r 78 [1]</text>
</g>
<!-- T189&#45;&gt;T198 -->
<g id="edge2" class="edge">
<title>T189&#45;&gt;T198</title>
<path fill="none" stroke="#0050c0" d="M667.54,-81.42C642.62,-68.38 604.8,-48.59 577.28,-34.19"/>
<polygon fill="#0050c0" stroke="#0050c0" points="578.85,-31.07 568.37,-29.54 575.61,-37.27 578.85,-31.07"/>
<text text-anchor="middle" x="638" y="-51.8" font-family="Times,serif" font-size="14.00" fill="#0050c0">rt</text>
</g>
<!-- T198&#45;&gt;T193 -->
<g id="edge3" class="edge">
<title>T198:f0&#45;&gt;T193:f0</title>
<path fill="none" stroke="#5b00c0" d="M257.5,-15C140.83,-15 36.77,-40.26 30.77,-151.67"/>
<polygon fill="#5b00c0" stroke="#5b00c0" points="27.27,-151.91 30.5,-162 34.26,-152.1 27.27,-151.91"/>
<text text-anchor="middle" x="63" y="-92.3" font-family="Times,serif" font-size="14.00" fill="#5b00c0">rw</text>
</g>
</g>
</svg>
