<?xml version="1.0" encoding="UTF-8" standalone="no"?>
<!DOCTYPE svg PUBLIC "-//W3C//DTD SVG 1.1//EN"
 "http://www.w3.org/Graphics/SVG/1.1/DTD/svg11.dtd">
<!-- Generated by graphviz version 2.43.0 (0)
 -->
<!-- Title: a_graph Pages: 1 -->
<svg width="606pt" height="119pt"
 viewBox="0.00 0.00 605.50 119.00" xmlns="http://www.w3.org/2000/svg" xmlns:xlink="http://www.w3.org/1999/xlink">
<g id="graph0" class="graph" transform="scale(1 1) rotate(0) translate(4 115)">
<title>a_graph</title>
<polygon fill="white" stroke="transparent" points="-4,4 -4,-115 601.5,-115 601.5,4 -4,4"/>
<!-- T2003 -->
<g id="node1" class="node">
<title>T2003</title>
<polygon fill="none" stroke="#0058ad" points="58.5,-81.5 58.5,-110.5 597.5,-110.5 597.5,-81.5 58.5,-81.5"/>
<text text-anchor="middle" x="93.5" y="-92.3" font-family="Times,serif" font-size="14.00" fill="#0058ad">a 867 1</text>
<polyline fill="none" stroke="#0058ad" points="128.5,-81.5 128.5,-110.5 "/>
<text text-anchor="middle" x="163.5" y="-92.3" font-family="Times,serif" font-size="14.00" fill="#0058ad">a 869 1</text>
<polyline fill="none" stroke="#0058ad" points="198.5,-81.5 198.5,-110.5 "/>
<text text-anchor="middle" x="238" y="-92.3" font-family="Times,serif" font-size="14.00" fill="#0058ad">r 865 [1]</text>
<polyline fill="none" stroke="#0058ad" points="277.5,-81.5 277.5,-110.5 "/>
<text text-anchor="middle" x="312.5" y="-92.3" font-family="Times,serif" font-size="14.00" fill="#0058ad">a 869 2</text>
<polyline fill="none" stroke="#0058ad" points="347.5,-81.5 347.5,-110.5 "/>
<text text-anchor="middle" x="387" y="-92.3" font-family="Times,serif" font-size="14.00" fill="#0058ad">r 865 [1]</text>
<polyline fill="none" stroke="#0058ad" points="426.5,-81.5 426.5,-110.5 "/>
<text text-anchor="middle" x="472.5" y="-92.3" font-family="Times,serif" font-size="14.00" fill="#0058ad">r 869 [1 2]</text>
<polyline fill="none" stroke="#0058ad" points="518.5,-81.5 518.5,-110.5 "/>
<text text-anchor="middle" x="558" y="-92.3" font-family="Times,serif" font-size="14.00" fill="#0058ad">r 865 [1]</text>
</g>
<!-- T2000 -->
<g id="node2" class="node">
<title>T2000</title>
<polygon fill="none" stroke="#0058ad" points="0,-0.5 0,-29.5 350,-29.5 350,-0.5 0,-0.5"/>
<text text-anchor="middle" x="35" y="-11.3" font-family="Times,serif" font-size="14.00" fill="#0058ad">r 869 []</text>
<polyline fill="none" stroke="#0058ad" points="70,-0.5 70,-29.5 "/>
<text text-anchor="middle" x="105" y="-11.3" font-family="Times,serif" font-size="14.00" fill="#0058ad">a 862 3</text>
<polyline fill="none" stroke="#0058ad" points="140,-0.5 140,-29.5 "/>
<text text-anchor="middle" x="175" y="-11.3" font-family="Times,serif" font-size="14.00" fill="#0058ad">a 858 3</text>
<polyline fill="none" stroke="#0058ad" points="210,-0.5 210,-29.5 "/>
<text text-anchor="middle" x="245" y="-11.3" font-family="Times,serif" font-size="14.00" fill="#0058ad">r 869 []</text>
<polyline fill="none" stroke="#0058ad" points="280,-0.5 280,-29.5 "/>
<text text-anchor="middle" x="315" y="-11.3" font-family="Times,serif" font-size="14.00" fill="#0058ad">a 865 2</text>
</g>
<!-- T2003&#45;&gt;T2000 -->
<g id="edge1" class="edge">
<title>T2003:f2&#45;&gt;T2000:f4</title>
<path fill="none" stroke="#5b00c0" d="M238,-81C238,-43.96 300.7,-65.66 312.94,-40.1"/>
<polygon fill="#5b00c0" stroke="#5b00c0" points="316.43,-40.5 315,-30 309.57,-39.1 316.43,-40.5"/>
<text text-anchor="middle" x="314.5" y="-51.8" font-family="Times,serif" font-size="14.00" fill="#5b00c0">rw</text>
</g>
<!-- T2000&#45;&gt;T2003 -->
<g id="edge2" class="edge">
<title>T2000:f0&#45;&gt;T2003:f1</title>
<path fill="none" stroke="#5b00c0" d="M35,-30C35,-87.41 147.5,-28.18 161.56,-71.01"/>
<polygon fill="#5b00c0" stroke="#5b00c0" points="158.11,-71.6 163,-81 165.04,-70.6 158.11,-71.6"/>
<text text-anchor="middle" x="166.5" y="-51.8" font-family="Times,serif" font-size="14.00" fill="#5b00c0">rw</text>
</g>
</g>
</svg>
