<?xml version="1.0" encoding="UTF-8" standalone="no"?>
<!DOCTYPE svg PUBLIC "-//W3C//DTD SVG 1.1//EN"
 "http://www.w3.org/Graphics/SVG/1.1/DTD/svg11.dtd">
<!-- Generated by graphviz version 2.43.0 (0)
 -->
<!-- Title: a_graph Pages: 1 -->
<svg width="5023pt" height="119pt"
 viewBox="0.00 0.00 5023.00 119.00" xmlns="http://www.w3.org/2000/svg" xmlns:xlink="http://www.w3.org/1999/xlink">
<g id="graph0" class="graph" transform="scale(1 1) rotate(0) translate(4 115)">
<title>a_graph</title>
<polygon fill="white" stroke="transparent" points="-4,4 -4,-115 5019,-115 5019,4 -4,4"/>
<!-- T1946 -->
<g id="node1" class="node">
<title>T1946</title>
<polygon fill="none" stroke="#0058ad" points="355,-81.5 355,-110.5 5015,-110.5 5015,-81.5 355,-81.5"/>
<text text-anchor="middle" x="394.5" y="-92.3" font-family="Times,serif" font-size="14.00" fill="#0058ad">a 198 27</text>
<polyline fill="none" stroke="#0058ad" points="434,-81.5 434,-110.5 "/>
<text text-anchor="middle" x="473.5" y="-92.3" font-family="Times,serif" font-size="14.00" fill="#0058ad">a 199 17</text>
<polyline fill="none" stroke="#0058ad" points="513,-81.5 513,-110.5 "/>
<text text-anchor="middle" x="768.5" y="-92.3" font-family="Times,serif" font-size="14.00" fill="#0058ad">r 195 [1 2 3 5 6 7 8 9 11 12 13 14 15 16 17 18 19 20 21 22 23 24 25]</text>
<polyline fill="none" stroke="#0058ad" points="1024,-81.5 1024,-110.5 "/>
<text text-anchor="middle" x="1063.5" y="-92.3" font-family="Times,serif" font-size="14.00" fill="#0058ad">a 198 28</text>
<polyline fill="none" stroke="#0058ad" points="1103,-81.5 1103,-110.5 "/>
<text text-anchor="middle" x="1410" y="-92.3" font-family="Times,serif" font-size="14.00" fill="#0058ad">r 198 [1 2 3 4 5 6 7 8 9 10 11 12 13 14 15 16 17 18 19 20 21 22 23 24 25 26 27 28]</text>
<polyline fill="none" stroke="#0058ad" points="1717,-81.5 1717,-110.5 "/>
<text text-anchor="middle" x="1756.5" y="-92.3" font-family="Times,serif" font-size="14.00" fill="#0058ad">a 199 18</text>
<polyline fill="none" stroke="#0058ad" points="1796,-81.5 1796,-110.5 "/>
<text text-anchor="middle" x="1835.5" y="-92.3" font-family="Times,serif" font-size="14.00" fill="#0058ad">a 198 29</text>
<polyline fill="none" stroke="#0058ad" points="1875,-81.5 1875,-110.5 "/>
<text text-anchor="middle" x="1914.5" y="-92.3" font-family="Times,serif" font-size="14.00" fill="#0058ad">a 199 19</text>
<polyline fill="none" stroke="#0058ad" points="1954,-81.5 1954,-110.5 "/>
<text text-anchor="middle" x="2272.5" y="-92.3" font-family="Times,serif" font-size="14.00" fill="#0058ad">r 198 [1 2 3 4 5 6 7 8 9 10 11 12 13 14 15 16 17 18 19 20 21 22 23 24 25 26 27 28 29]</text>
<polyline fill="none" stroke="#0058ad" points="2591,-81.5 2591,-110.5 "/>
<text text-anchor="middle" x="2630.5" y="-92.3" font-family="Times,serif" font-size="14.00" fill="#0058ad">a 198 30</text>
<polyline fill="none" stroke="#0058ad" points="2670,-81.5 2670,-110.5 "/>
<text text-anchor="middle" x="2876" y="-92.3" font-family="Times,serif" font-size="14.00" fill="#0058ad">r 199 [1 2 3 4 5 6 7 8 9 10 11 12 13 14 15 16 17 18 19]</text>
<polyline fill="none" stroke="#0058ad" points="3082,-81.5 3082,-110.5 "/>
<text text-anchor="middle" x="3411.5" y="-92.3" font-family="Times,serif" font-size="14.00" fill="#0058ad">r 198 [1 2 3 4 5 6 7 8 9 10 11 12 13 14 15 16 17 18 19 20 21 22 23 24 25 26 27 28 29 30]</text>
<polyline fill="none" stroke="#0058ad" points="3741,-81.5 3741,-110.5 "/>
<text text-anchor="middle" x="3947" y="-92.3" font-family="Times,serif" font-size="14.00" fill="#0058ad">r 199 [1 2 3 4 5 6 7 8 9 10 11 12 13 14 15 16 17 18 19]</text>
<polyline fill="none" stroke="#0058ad" points="4153,-81.5 4153,-110.5 "/>
<text text-anchor="middle" x="4192.5" y="-92.3" font-family="Times,serif" font-size="14.00" fill="#0058ad">a 198 31</text>
<polyline fill="none" stroke="#0058ad" points="4232,-81.5 4232,-110.5 "/>
<text text-anchor="middle" x="4271.5" y="-92.3" font-family="Times,serif" font-size="14.00" fill="#0058ad">a 198 32</text>
<polyline fill="none" stroke="#0058ad" points="4311,-81.5 4311,-110.5 "/>
<text text-anchor="middle" x="4663" y="-92.3" font-family="Times,serif" font-size="14.00" fill="#0058ad">r 198 [1 2 3 4 5 6 7 8 9 10 11 12 13 14 15 16 17 18 19 20 21 22 23 24 25 26 27 28 29 30 31 32]</text>
</g>
<!-- T1947 -->
<g id="node2" class="node">
<title>T1947</title>
<polygon fill="none" stroke="#0058ad" points="0,-0.5 0,-29.5 2608,-29.5 2608,-0.5 0,-0.5"/>
<text text-anchor="middle" x="284.5" y="-11.3" font-family="Times,serif" font-size="14.00" fill="#0058ad">r 198 [1 2 3 4 5 6 7 8 9 10 11 12 13 14 15 16 17 18 19 20 21 22 23 24 25 26]</text>
<polyline fill="none" stroke="#0058ad" points="569,-0.5 569,-29.5 "/>
<text text-anchor="middle" x="741" y="-11.3" font-family="Times,serif" font-size="14.00" fill="#0058ad">r 199 [1 2 3 4 5 6 7 8 9 10 11 12 13 14 15 16]</text>
<polyline fill="none" stroke="#0058ad" points="913,-0.5 913,-29.5 "/>
<text text-anchor="middle" x="952.5" y="-11.3" font-family="Times,serif" font-size="14.00" fill="#0058ad">a 195 26</text>
<polyline fill="none" stroke="#0058ad" points="992,-0.5 992,-29.5 "/>
<text text-anchor="middle" x="1031.5" y="-11.3" font-family="Times,serif" font-size="14.00" fill="#0058ad">a 195 27</text>
<polyline fill="none" stroke="#0058ad" points="1071,-0.5 1071,-29.5 "/>
<text text-anchor="middle" x="1355.5" y="-11.3" font-family="Times,serif" font-size="14.00" fill="#0058ad">r 198 [1 2 3 4 5 6 7 8 9 10 11 12 13 14 15 16 17 18 19 20 21 22 23 24 25 26]</text>
<polyline fill="none" stroke="#0058ad" points="1640,-0.5 1640,-29.5 "/>
<text text-anchor="middle" x="1675" y="-11.3" font-family="Times,serif" font-size="14.00" fill="#0058ad">r 200 []</text>
<polyline fill="none" stroke="#0058ad" points="1710,-0.5 1710,-29.5 "/>
<text text-anchor="middle" x="1882" y="-11.3" font-family="Times,serif" font-size="14.00" fill="#0058ad">r 199 [1 2 3 4 5 6 7 8 9 10 11 12 13 14 15 16]</text>
<polyline fill="none" stroke="#0058ad" points="2054,-0.5 2054,-29.5 "/>
<text text-anchor="middle" x="2089" y="-11.3" font-family="Times,serif" font-size="14.00" fill="#0058ad">r 200 []</text>
<polyline fill="none" stroke="#0058ad" points="2124,-0.5 2124,-29.5 "/>
<text text-anchor="middle" x="2159" y="-11.3" font-family="Times,serif" font-size="14.00" fill="#0058ad">r 200 []</text>
<polyline fill="none" stroke="#0058ad" points="2194,-0.5 2194,-29.5 "/>
<text text-anchor="middle" x="2366" y="-11.3" font-family="Times,serif" font-size="14.00" fill="#0058ad">r 199 [1 2 3 4 5 6 7 8 9 10 11 12 13 14 15 16]</text>
<polyline fill="none" stroke="#0058ad" points="2538,-0.5 2538,-29.5 "/>
<text text-anchor="middle" x="2573" y="-11.3" font-family="Times,serif" font-size="14.00" fill="#0058ad">a 200 1</text>
</g>
<!-- T1946&#45;&gt;T1947 -->
<g id="edge1" class="edge">
<title>T1946:f2&#45;&gt;T1947:f2</title>
<path fill="none" stroke="#5b00c0" d="M768,-81C768,0.05 935.84,-104.61 950.92,-40.24"/>
<polygon fill="#5b00c0" stroke="#5b00c0" points="954.43,-40.31 952,-30 947.47,-39.58 954.43,-40.31"/>
<text text-anchor="middle" x="956.5" y="-51.8" font-family="Times,serif" font-size="14.00" fill="#5b00c0">rw</text>
</g>
<!-- T1947&#45;&gt;T1946 -->
<g id="edge2" class="edge">
<title>T1947:f0&#45;&gt;T1946:f0</title>
<path fill="none" stroke="#5b00c0" d="M284,-30C284,-69.25 306.95,-92.06 343.8,-95.53"/>
<polygon fill="#5b00c0" stroke="#5b00c0" points="343.85,-99.04 354,-96 344.17,-92.05 343.85,-99.04"/>
<text text-anchor="middle" x="300.5" y="-51.8" font-family="Times,serif" font-size="14.00" fill="#5b00c0">rw</text>
</g>
</g>
</svg>
