<?xml version="1.0" encoding="UTF-8" standalone="no"?>
<!DOCTYPE svg PUBLIC "-//W3C//DTD SVG 1.1//EN"
 "http://www.w3.org/Graphics/SVG/1.1/DTD/svg11.dtd">
<!-- Generated by graphviz version 2.43.0 (0)
 -->
<!-- Title: a_graph Pages: 1 -->
<svg width="1936pt" height="119pt"
 viewBox="0.00 0.00 1936.00 119.00" xmlns="http://www.w3.org/2000/svg" xmlns:xlink="http://www.w3.org/1999/xlink">
<g id="graph0" class="graph" transform="scale(1 1) rotate(0) translate(4 115)">
<title>a_graph</title>
<polygon fill="white" stroke="transparent" points="-4,4 -4,-115 1932,-115 1932,4 -4,4"/>
<!-- T5268 -->
<g id="node1" class="node">
<title>T5268</title>
<polygon fill="none" stroke="#0058ad" points="294.5,-81.5 294.5,-110.5 1497.5,-110.5 1497.5,-81.5 294.5,-81.5"/>
<text text-anchor="middle" x="334" y="-92.3" font-family="Times,serif" font-size="14.00" fill="#0058ad">a 199 18</text>
<polyline fill="none" stroke="#0058ad" points="373.5,-81.5 373.5,-110.5 "/>
<text text-anchor="middle" x="413" y="-92.3" font-family="Times,serif" font-size="14.00" fill="#0058ad">a 199 19</text>
<polyline fill="none" stroke="#0058ad" points="452.5,-81.5 452.5,-110.5 "/>
<text text-anchor="middle" x="519" y="-92.3" font-family="Times,serif" font-size="14.00" fill="#0058ad">r 200 [1 2 3 4 5]</text>
<polyline fill="none" stroke="#0058ad" points="585.5,-81.5 585.5,-110.5 "/>
<text text-anchor="middle" x="652" y="-92.3" font-family="Times,serif" font-size="14.00" fill="#0058ad">r 200 [1 2 3 4 5]</text>
<polyline fill="none" stroke="#0058ad" points="718.5,-81.5 718.5,-110.5 "/>
<text text-anchor="middle" x="785" y="-92.3" font-family="Times,serif" font-size="14.00" fill="#0058ad">r 200 [1 2 3 4 5]</text>
<polyline fill="none" stroke="#0058ad" points="851.5,-81.5 851.5,-110.5 "/>
<text text-anchor="middle" x="891" y="-92.3" font-family="Times,serif" font-size="14.00" fill="#0058ad">a 199 20</text>
<polyline fill="none" stroke="#0058ad" points="930.5,-81.5 930.5,-110.5 "/>
<text text-anchor="middle" x="997" y="-92.3" font-family="Times,serif" font-size="14.00" fill="#0058ad">r 200 [1 2 3 4 5]</text>
<polyline fill="none" stroke="#0058ad" points="1063.5,-81.5 1063.5,-110.5 "/>
<text text-anchor="middle" x="1280.5" y="-92.3" font-family="Times,serif" font-size="14.00" fill="#0058ad">r 199 [1 2 3 4 5 6 7 8 9 10 11 12 13 14 15 16 17 18 19 20]</text>
</g>
<!-- T5269 -->
<g id="node2" class="node">
<title>T5269</title>
<polygon fill="none" stroke="#0058ad" points="0,-0.5 0,-29.5 1928,-29.5 1928,-0.5 0,-0.5"/>
<text text-anchor="middle" x="183.5" y="-11.3" font-family="Times,serif" font-size="14.00" fill="#0058ad">r 199 [1 2 3 4 5 6 7 8 9 10 11 12 13 14 15 16 17]</text>
<polyline fill="none" stroke="#0058ad" points="367,-0.5 367,-29.5 "/>
<text text-anchor="middle" x="550.5" y="-11.3" font-family="Times,serif" font-size="14.00" fill="#0058ad">r 199 [1 2 3 4 5 6 7 8 9 10 11 12 13 14 15 16 17]</text>
<polyline fill="none" stroke="#0058ad" points="734,-0.5 734,-29.5 "/>
<text text-anchor="middle" x="769" y="-11.3" font-family="Times,serif" font-size="14.00" fill="#0058ad">a 200 6</text>
<polyline fill="none" stroke="#0058ad" points="804,-0.5 804,-29.5 "/>
<text text-anchor="middle" x="987.5" y="-11.3" font-family="Times,serif" font-size="14.00" fill="#0058ad">r 199 [1 2 3 4 5 6 7 8 9 10 11 12 13 14 15 16 17]</text>
<polyline fill="none" stroke="#0058ad" points="1171,-0.5 1171,-29.5 "/>
<text text-anchor="middle" x="1206" y="-11.3" font-family="Times,serif" font-size="14.00" fill="#0058ad">a 200 7</text>
<polyline fill="none" stroke="#0058ad" points="1241,-0.5 1241,-29.5 "/>
<text text-anchor="middle" x="1424.5" y="-11.3" font-family="Times,serif" font-size="14.00" fill="#0058ad">r 199 [1 2 3 4 5 6 7 8 9 10 11 12 13 14 15 16 17]</text>
<polyline fill="none" stroke="#0058ad" points="1608,-0.5 1608,-29.5 "/>
<text text-anchor="middle" x="1688" y="-11.3" font-family="Times,serif" font-size="14.00" fill="#0058ad">r 200 [1 2 3 4 5 6 7]</text>
<polyline fill="none" stroke="#0058ad" points="1768,-0.5 1768,-29.5 "/>
<text text-anchor="middle" x="1848" y="-11.3" font-family="Times,serif" font-size="14.00" fill="#0058ad">r 200 [1 2 3 4 5 6 7]</text>
</g>
<!-- T5268&#45;&gt;T5269 -->
<g id="edge1" class="edge">
<title>T5268:f2&#45;&gt;T5269:f2</title>
<path fill="none" stroke="#5b00c0" d="M519,-81C519,28.75 753.15,-132.37 768.24,-40.08"/>
<polygon fill="#5b00c0" stroke="#5b00c0" points="771.74,-40.24 769,-30 764.76,-39.71 771.74,-40.24"/>
<text text-anchor="middle" x="774.5" y="-51.8" font-family="Times,serif" font-size="14.00" fill="#5b00c0">rw</text>
</g>
<!-- T5269&#45;&gt;T5268 -->
<g id="edge2" class="edge">
<title>T5269:f0&#45;&gt;T5268:f0</title>
<path fill="none" stroke="#5b00c0" d="M183,-30C183,-83.56 229.76,-94.74 282.7,-95.89"/>
<polygon fill="#5b00c0" stroke="#5b00c0" points="282.96,-99.4 293,-96 283.04,-92.4 282.96,-99.4"/>
<text text-anchor="middle" x="200.5" y="-51.8" font-family="Times,serif" font-size="14.00" fill="#5b00c0">rw</text>
</g>
</g>
</svg>
