<?xml version="1.0" encoding="UTF-8" standalone="no"?>
<!DOCTYPE svg PUBLIC "-//W3C//DTD SVG 1.1//EN"
 "http://www.w3.org/Graphics/SVG/1.1/DTD/svg11.dtd">
<!-- Generated by graphviz version 2.43.0 (0)
 -->
<!-- Title: a_graph Pages: 1 -->
<svg width="2534pt" height="119pt"
 viewBox="0.00 0.00 2533.50 119.00" xmlns="http://www.w3.org/2000/svg" xmlns:xlink="http://www.w3.org/1999/xlink">
<g id="graph0" class="graph" transform="scale(1 1) rotate(0) translate(4 115)">
<title>a_graph</title>
<polygon fill="white" stroke="transparent" points="-4,4 -4,-115 2529.5,-115 2529.5,4 -4,4"/>
<!-- T1467 -->
<g id="node1" class="node">
<title>T1467</title>
<polygon fill="none" stroke="#0058ad" points="0,-81.5 0,-110.5 2216,-110.5 2216,-81.5 0,-81.5"/>
<text text-anchor="middle" x="35" y="-92.3" font-family="Times,serif" font-size="14.00" fill="#0058ad">a 54 30</text>
<polyline fill="none" stroke="#0058ad" points="70,-81.5 70,-110.5 "/>
<text text-anchor="middle" x="381.5" y="-92.3" font-family="Times,serif" font-size="14.00" fill="#0058ad">r 54 [1 2 3 6 7 8 9 10 11 12 13 14 15 16 17 18 19 20 21 22 23 24 25 26 27 28 29 30]</text>
<polyline fill="none" stroke="#0058ad" points="693,-81.5 693,-110.5 "/>
<text text-anchor="middle" x="1004.5" y="-92.3" font-family="Times,serif" font-size="14.00" fill="#0058ad">r 54 [1 2 3 6 7 8 9 10 11 12 13 14 15 16 17 18 19 20 21 22 23 24 25 26 27 28 29 30]</text>
<polyline fill="none" stroke="#0058ad" points="1316,-81.5 1316,-110.5 "/>
<text text-anchor="middle" x="1351" y="-92.3" font-family="Times,serif" font-size="14.00" fill="#0058ad">a 54 31</text>
<polyline fill="none" stroke="#0058ad" points="1386,-81.5 1386,-110.5 "/>
<text text-anchor="middle" x="1421" y="-92.3" font-family="Times,serif" font-size="14.00" fill="#0058ad">a 54 32</text>
<polyline fill="none" stroke="#0058ad" points="1456,-81.5 1456,-110.5 "/>
<text text-anchor="middle" x="1646" y="-92.3" font-family="Times,serif" font-size="14.00" fill="#0058ad">r 56 [1 2 3 4 5 6 7 8 9 10 11 12 13 14 15 16 17 18]</text>
<polyline fill="none" stroke="#0058ad" points="1836,-81.5 1836,-110.5 "/>
<text text-anchor="middle" x="2026" y="-92.3" font-family="Times,serif" font-size="14.00" fill="#0058ad">r 56 [1 2 3 4 5 6 7 8 9 10 11 12 13 14 15 16 17 18]</text>
</g>
<!-- T1469 -->
<g id="node2" class="node">
<title>T1469</title>
<polygon fill="none" stroke="#0058ad" points="44.5,-0.5 44.5,-29.5 2525.5,-29.5 2525.5,-0.5 44.5,-0.5"/>
<text text-anchor="middle" x="79.5" y="-11.3" font-family="Times,serif" font-size="14.00" fill="#0058ad">a 56 19</text>
<polyline fill="none" stroke="#0058ad" points="114.5,-0.5 114.5,-29.5 "/>
<text text-anchor="middle" x="316" y="-11.3" font-family="Times,serif" font-size="14.00" fill="#0058ad">r 56 [1 2 3 4 5 6 7 8 9 10 11 12 13 14 15 16 17 18 19]</text>
<polyline fill="none" stroke="#0058ad" points="517.5,-0.5 517.5,-29.5 "/>
<text text-anchor="middle" x="818" y="-11.3" font-family="Times,serif" font-size="14.00" fill="#0058ad">r 54 [1 2 3 6 7 8 9 10 11 12 13 14 15 16 17 18 19 20 21 22 23 24 25 26 27 28 29]</text>
<polyline fill="none" stroke="#0058ad" points="1118.5,-0.5 1118.5,-29.5 "/>
<text text-anchor="middle" x="1419" y="-11.3" font-family="Times,serif" font-size="14.00" fill="#0058ad">r 54 [1 2 3 6 7 8 9 10 11 12 13 14 15 16 17 18 19 20 21 22 23 24 25 26 27 28 29]</text>
<polyline fill="none" stroke="#0058ad" points="1719.5,-0.5 1719.5,-29.5 "/>
<text text-anchor="middle" x="1921" y="-11.3" font-family="Times,serif" font-size="14.00" fill="#0058ad">r 56 [1 2 3 4 5 6 7 8 9 10 11 12 13 14 15 16 17 18 19]</text>
<polyline fill="none" stroke="#0058ad" points="2122.5,-0.5 2122.5,-29.5 "/>
<text text-anchor="middle" x="2324" y="-11.3" font-family="Times,serif" font-size="14.00" fill="#0058ad">r 56 [1 2 3 4 5 6 7 8 9 10 11 12 13 14 15 16 17 18 19]</text>
</g>
<!-- T1467&#45;&gt;T1469 -->
<g id="edge1" class="edge">
<title>T1467:f5&#45;&gt;T1469:f0</title>
<path fill="none" stroke="#5b00c0" d="M1646,-81C1646,-60.22 219.54,-52.49 88.6,-32.91"/>
<polygon fill="#5b00c0" stroke="#5b00c0" points="89.59,-29.55 79,-30 87.55,-36.25 89.59,-29.55"/>
<text text-anchor="middle" x="1234.5" y="-51.8" font-family="Times,serif" font-size="14.00" fill="#5b00c0">rw</text>
</g>
<!-- T1469&#45;&gt;T1467 -->
<g id="edge2" class="edge">
<title>T1469:f2&#45;&gt;T1467:f0</title>
<path fill="none" stroke="#5b00c0" d="M818,-30C818,-49.03 494.99,-46.79 476,-48 381.47,-54.02 59.46,12.21 36.32,-71"/>
<polygon fill="#5b00c0" stroke="#5b00c0" points="32.83,-70.63 35,-81 39.77,-71.54 32.83,-70.63"/>
<text text-anchor="middle" x="485.5" y="-51.8" font-family="Times,serif" font-size="14.00" fill="#5b00c0">rw</text>
</g>
</g>
</svg>
