<?xml version="1.0" encoding="UTF-8" standalone="no"?>
<!DOCTYPE svg PUBLIC "-//W3C//DTD SVG 1.1//EN"
 "http://www.w3.org/Graphics/SVG/1.1/DTD/svg11.dtd">
<!-- Generated by graphviz version 2.43.0 (0)
 -->
<!-- Title: a_graph Pages: 1 -->
<svg width="963pt" height="119pt"
 viewBox="0.00 0.00 963.00 119.00" xmlns="http://www.w3.org/2000/svg" xmlns:xlink="http://www.w3.org/1999/xlink">
<g id="graph0" class="graph" transform="scale(1 1) rotate(0) translate(4 115)">
<title>a_graph</title>
<polygon fill="white" stroke="transparent" points="-4,4 -4,-115 959,-115 959,4 -4,4"/>
<!-- T404 -->
<g id="node1" class="node">
<title>T404</title>
<polygon fill="none" stroke="#0058ad" points="0,-81.5 0,-110.5 955,-110.5 955,-81.5 0,-81.5"/>
<text text-anchor="middle" x="62" y="-92.3" font-family="Times,serif" font-size="14.00" fill="#0058ad">r 17 [1 2 3 4 8]</text>
<polyline fill="none" stroke="#0058ad" points="124,-81.5 124,-110.5 "/>
<text text-anchor="middle" x="192.5" y="-92.3" font-family="Times,serif" font-size="14.00" fill="#0058ad">r 15 [1 2 3 4 5 6]</text>
<polyline fill="none" stroke="#0058ad" points="261,-81.5 261,-110.5 "/>
<text text-anchor="middle" x="329.5" y="-92.3" font-family="Times,serif" font-size="14.00" fill="#0058ad">r 16 [1 2 3 6 7 8]</text>
<polyline fill="none" stroke="#0058ad" points="398,-81.5 398,-110.5 "/>
<text text-anchor="middle" x="460" y="-92.3" font-family="Times,serif" font-size="14.00" fill="#0058ad">r 17 [1 2 3 4 8]</text>
<polyline fill="none" stroke="#0058ad" points="522,-81.5 522,-110.5 "/>
<text text-anchor="middle" x="584" y="-92.3" font-family="Times,serif" font-size="14.00" fill="#0058ad">r 17 [1 2 3 4 8]</text>
<polyline fill="none" stroke="#0058ad" points="646,-81.5 646,-110.5 "/>
<text text-anchor="middle" x="708" y="-92.3" font-family="Times,serif" font-size="14.00" fill="#0058ad">r 17 [1 2 3 4 8]</text>
<polyline fill="none" stroke="#0058ad" points="770,-81.5 770,-110.5 "/>
<text text-anchor="middle" x="832" y="-92.3" font-family="Times,serif" font-size="14.00" fill="#0058ad">r 17 [1 2 3 4 8]</text>
<polyline fill="none" stroke="#0058ad" points="894,-81.5 894,-110.5 "/>
<text text-anchor="middle" x="924.5" y="-92.3" font-family="Times,serif" font-size="14.00" fill="#0058ad">a 16 9</text>
</g>
<!-- T405 -->
<g id="node2" class="node">
<title>T405</title>
<polygon fill="none" stroke="#0058ad" points="18.5,-0.5 18.5,-29.5 808.5,-29.5 808.5,-0.5 18.5,-0.5"/>
<text text-anchor="middle" x="80.5" y="-11.3" font-family="Times,serif" font-size="14.00" fill="#0058ad">r 17 [1 2 3 4 8]</text>
<polyline fill="none" stroke="#0058ad" points="142.5,-0.5 142.5,-29.5 "/>
<text text-anchor="middle" x="204.5" y="-11.3" font-family="Times,serif" font-size="14.00" fill="#0058ad">r 17 [1 2 3 4 8]</text>
<polyline fill="none" stroke="#0058ad" points="266.5,-0.5 266.5,-29.5 "/>
<text text-anchor="middle" x="297" y="-11.3" font-family="Times,serif" font-size="14.00" fill="#0058ad">a 17 9</text>
<polyline fill="none" stroke="#0058ad" points="327.5,-0.5 327.5,-29.5 "/>
<text text-anchor="middle" x="396" y="-11.3" font-family="Times,serif" font-size="14.00" fill="#0058ad">r 15 [1 2 3 4 5 6]</text>
<polyline fill="none" stroke="#0058ad" points="464.5,-0.5 464.5,-29.5 "/>
<text text-anchor="middle" x="533" y="-11.3" font-family="Times,serif" font-size="14.00" fill="#0058ad">r 16 [1 2 3 6 7 8]</text>
<polyline fill="none" stroke="#0058ad" points="601.5,-0.5 601.5,-29.5 "/>
<text text-anchor="middle" x="670" y="-11.3" font-family="Times,serif" font-size="14.00" fill="#0058ad">r 16 [1 2 3 6 7 8]</text>
<polyline fill="none" stroke="#0058ad" points="738.5,-0.5 738.5,-29.5 "/>
<text text-anchor="middle" x="773.5" y="-11.3" font-family="Times,serif" font-size="14.00" fill="#0058ad">a 17 10</text>
</g>
<!-- T404&#45;&gt;T405 -->
<g id="edge1" class="edge">
<title>T404:f0&#45;&gt;T405:f2</title>
<path fill="none" stroke="#5b00c0" d="M61.5,-81C61.5,22.22 280.71,-126.07 295.7,-40.04"/>
<polygon fill="#5b00c0" stroke="#5b00c0" points="299.19,-40.25 296.5,-30 292.21,-39.69 299.19,-40.25"/>
<text text-anchor="middle" x="302" y="-51.8" font-family="Times,serif" font-size="14.00" fill="#5b00c0">rw</text>
</g>
<!-- T405&#45;&gt;T404 -->
<g id="edge2" class="edge">
<title>T405:f4&#45;&gt;T404:f7</title>
<path fill="none" stroke="#5b00c0" d="M533.5,-30C533.5,-201.66 908.63,82.17 924.01,-70.81"/>
<polygon fill="#5b00c0" stroke="#5b00c0" points="920.53,-71.18 924.5,-81 927.52,-70.84 920.53,-71.18"/>
<text text-anchor="middle" x="932" y="-51.8" font-family="Times,serif" font-size="14.00" fill="#5b00c0">rw</text>
</g>
</g>
</svg>
