<?xml version="1.0" encoding="UTF-8" standalone="no"?>
<!DOCTYPE svg PUBLIC "-//W3C//DTD SVG 1.1//EN"
 "http://www.w3.org/Graphics/SVG/1.1/DTD/svg11.dtd">
<!-- Generated by graphviz version 2.43.0 (0)
 -->
<!-- Title: a_graph Pages: 1 -->
<svg width="720pt" height="119pt"
 viewBox="0.00 0.00 720.00 119.00" xmlns="http://www.w3.org/2000/svg" xmlns:xlink="http://www.w3.org/1999/xlink">
<g id="graph0" class="graph" transform="scale(1 1) rotate(0) translate(4 115)">
<title>a_graph</title>
<polygon fill="white" stroke="transparent" points="-4,4 -4,-115 716,-115 716,4 -4,4"/>
<!-- T1076 -->
<g id="node1" class="node">
<title>T1076</title>
<polygon fill="none" stroke="#0058ad" points="0,-81.5 0,-110.5 438,-110.5 438,-81.5 0,-81.5"/>
<text text-anchor="middle" x="39.5" y="-92.3" font-family="Times,serif" font-size="14.00" fill="#0058ad">r 467 [1]</text>
<polyline fill="none" stroke="#0058ad" points="79,-81.5 79,-110.5 "/>
<text text-anchor="middle" x="118.5" y="-92.3" font-family="Times,serif" font-size="14.00" fill="#0058ad">r 467 [1]</text>
<polyline fill="none" stroke="#0058ad" points="158,-81.5 158,-110.5 "/>
<text text-anchor="middle" x="193" y="-92.3" font-family="Times,serif" font-size="14.00" fill="#0058ad">a 469 1</text>
<polyline fill="none" stroke="#0058ad" points="228,-81.5 228,-110.5 "/>
<text text-anchor="middle" x="263" y="-92.3" font-family="Times,serif" font-size="14.00" fill="#0058ad">r 470 []</text>
<polyline fill="none" stroke="#0058ad" points="298,-81.5 298,-110.5 "/>
<text text-anchor="middle" x="333" y="-92.3" font-family="Times,serif" font-size="14.00" fill="#0058ad">a 466 2</text>
<polyline fill="none" stroke="#0058ad" points="368,-81.5 368,-110.5 "/>
<text text-anchor="middle" x="403" y="-92.3" font-family="Times,serif" font-size="14.00" fill="#0058ad">a 466 3</text>
</g>
<!-- T1074 -->
<g id="node2" class="node">
<title>T1074</title>
<polygon fill="none" stroke="#0058ad" points="46,-0.5 46,-29.5 712,-29.5 712,-0.5 46,-0.5"/>
<text text-anchor="middle" x="85.5" y="-11.3" font-family="Times,serif" font-size="14.00" fill="#0058ad">r 466 [1]</text>
<polyline fill="none" stroke="#0058ad" points="125,-0.5 125,-29.5 "/>
<text text-anchor="middle" x="160" y="-11.3" font-family="Times,serif" font-size="14.00" fill="#0058ad">a 467 2</text>
<polyline fill="none" stroke="#0058ad" points="195,-0.5 195,-29.5 "/>
<text text-anchor="middle" x="234.5" y="-11.3" font-family="Times,serif" font-size="14.00" fill="#0058ad">r 466 [1]</text>
<polyline fill="none" stroke="#0058ad" points="274,-0.5 274,-29.5 "/>
<text text-anchor="middle" x="320" y="-11.3" font-family="Times,serif" font-size="14.00" fill="#0058ad">r 467 [1 2]</text>
<polyline fill="none" stroke="#0058ad" points="366,-0.5 366,-29.5 "/>
<text text-anchor="middle" x="412" y="-11.3" font-family="Times,serif" font-size="14.00" fill="#0058ad">r 467 [1 2]</text>
<polyline fill="none" stroke="#0058ad" points="458,-0.5 458,-29.5 "/>
<text text-anchor="middle" x="504" y="-11.3" font-family="Times,serif" font-size="14.00" fill="#0058ad">r 467 [1 2]</text>
<polyline fill="none" stroke="#0058ad" points="550,-0.5 550,-29.5 "/>
<text text-anchor="middle" x="596" y="-11.3" font-family="Times,serif" font-size="14.00" fill="#0058ad">r 467 [1 2]</text>
<polyline fill="none" stroke="#0058ad" points="642,-0.5 642,-29.5 "/>
<text text-anchor="middle" x="677" y="-11.3" font-family="Times,serif" font-size="14.00" fill="#0058ad">a 467 3</text>
</g>
<!-- T1076&#45;&gt;T1074 -->
<g id="edge1" class="edge">
<title>T1076:f0&#45;&gt;T1074:f1</title>
<path fill="none" stroke="#5b00c0" d="M39,-81C39,-26.52 144.46,-80.18 158.47,-40.06"/>
<polygon fill="#5b00c0" stroke="#5b00c0" points="161.96,-40.41 160,-30 155.04,-39.36 161.96,-40.41"/>
<text text-anchor="middle" x="161.5" y="-51.8" font-family="Times,serif" font-size="14.00" fill="#5b00c0">rw</text>
</g>
<!-- T1074&#45;&gt;T1076 -->
<g id="edge2" class="edge">
<title>T1074:f0&#45;&gt;T1076:f4</title>
<path fill="none" stroke="#5b00c0" d="M85,-30C85,-50.4 155.02,-43.91 175,-48 241.71,-61.64 324.14,-14.48 332.34,-71.01"/>
<polygon fill="#5b00c0" stroke="#5b00c0" points="328.84,-71.25 333,-81 335.83,-70.79 328.84,-71.25"/>
<text text-anchor="middle" x="338.5" y="-51.8" font-family="Times,serif" font-size="14.00" fill="#5b00c0">rw</text>
</g>
</g>
</svg>
