<?xml version="1.0" encoding="UTF-8" standalone="no"?>
<!DOCTYPE svg PUBLIC "-//W3C//DTD SVG 1.1//EN"
 "http://www.w3.org/Graphics/SVG/1.1/DTD/svg11.dtd">
<!-- Generated by graphviz version 2.43.0 (0)
 -->
<!-- Title: a_graph Pages: 1 -->
<svg width="401pt" height="119pt"
 viewBox="0.00 0.00 400.50 119.00" xmlns="http://www.w3.org/2000/svg" xmlns:xlink="http://www.w3.org/1999/xlink">
<g id="graph0" class="graph" transform="scale(1 1) rotate(0) translate(4 115)">
<title>a_graph</title>
<polygon fill="white" stroke="transparent" points="-4,4 -4,-115 396.5,-115 396.5,4 -4,4"/>
<!-- T1094 -->
<g id="node1" class="node">
<title>T1094</title>
<polygon fill="none" stroke="#0058ad" points="6.5,-81.5 6.5,-110.5 392.5,-110.5 392.5,-81.5 6.5,-81.5"/>
<text text-anchor="middle" x="41.5" y="-92.3" font-family="Times,serif" font-size="14.00" fill="#0058ad">a 478 2</text>
<polyline fill="none" stroke="#0058ad" points="76.5,-81.5 76.5,-110.5 "/>
<text text-anchor="middle" x="111.5" y="-92.3" font-family="Times,serif" font-size="14.00" fill="#0058ad">a 478 3</text>
<polyline fill="none" stroke="#0058ad" points="146.5,-81.5 146.5,-110.5 "/>
<text text-anchor="middle" x="181.5" y="-92.3" font-family="Times,serif" font-size="14.00" fill="#0058ad">r 468 []</text>
<polyline fill="none" stroke="#0058ad" points="216.5,-81.5 216.5,-110.5 "/>
<text text-anchor="middle" x="269.5" y="-92.3" font-family="Times,serif" font-size="14.00" fill="#0058ad">r 478 [1 2 3]</text>
<polyline fill="none" stroke="#0058ad" points="322.5,-81.5 322.5,-110.5 "/>
<text text-anchor="middle" x="357.5" y="-92.3" font-family="Times,serif" font-size="14.00" fill="#0058ad">a 476 3</text>
</g>
<!-- T1095 -->
<g id="node2" class="node">
<title>T1095</title>
<polygon fill="none" stroke="#0058ad" points="0,-0.5 0,-29.5 289,-29.5 289,-0.5 0,-0.5"/>
<text text-anchor="middle" x="39.5" y="-11.3" font-family="Times,serif" font-size="14.00" fill="#0058ad">r 478 [1]</text>
<polyline fill="none" stroke="#0058ad" points="79,-0.5 79,-29.5 "/>
<text text-anchor="middle" x="114" y="-11.3" font-family="Times,serif" font-size="14.00" fill="#0058ad">r 479 []</text>
<polyline fill="none" stroke="#0058ad" points="149,-0.5 149,-29.5 "/>
<text text-anchor="middle" x="184" y="-11.3" font-family="Times,serif" font-size="14.00" fill="#0058ad">a 468 2</text>
<polyline fill="none" stroke="#0058ad" points="219,-0.5 219,-29.5 "/>
<text text-anchor="middle" x="254" y="-11.3" font-family="Times,serif" font-size="14.00" fill="#0058ad">a 443 3</text>
</g>
<!-- T1094&#45;&gt;T1095 -->
<g id="edge1" class="edge">
<title>T1094:f2&#45;&gt;T1095:f2</title>
<path fill="none" stroke="#5b00c0" d="M181.5,-81C181.5,-62.2 183.56,-55.13 184.26,-40.36"/>
<polygon fill="#5b00c0" stroke="#5b00c0" points="187.77,-40.08 184.5,-30 180.77,-39.92 187.77,-40.08"/>
<text text-anchor="middle" x="194" y="-51.8" font-family="Times,serif" font-size="14.00" fill="#5b00c0">rw</text>
</g>
<!-- T1095&#45;&gt;T1094 -->
<g id="edge2" class="edge">
<title>T1095:f0&#45;&gt;T1094:f0</title>
<path fill="none" stroke="#5b00c0" d="M39.5,-30C39.5,-48.79 40.87,-55.88 41.34,-70.64"/>
<polygon fill="#5b00c0" stroke="#5b00c0" points="37.85,-71.05 41.5,-81 44.85,-70.95 37.85,-71.05"/>
<text text-anchor="middle" x="51" y="-51.8" font-family="Times,serif" font-size="14.00" fill="#5b00c0">rw</text>
</g>
</g>
</svg>
