<?xml version="1.0" encoding="UTF-8" standalone="no"?>
<!DOCTYPE svg PUBLIC "-//W3C//DTD SVG 1.1//EN"
 "http://www.w3.org/Graphics/SVG/1.1/DTD/svg11.dtd">
<!-- Generated by graphviz version 2.43.0 (0)
 -->
<!-- Title: a_graph Pages: 1 -->
<svg width="741pt" height="119pt"
 viewBox="0.00 0.00 740.50 119.00" xmlns="http://www.w3.org/2000/svg" xmlns:xlink="http://www.w3.org/1999/xlink">
<g id="graph0" class="graph" transform="scale(1 1) rotate(0) translate(4 115)">
<title>a_graph</title>
<polygon fill="white" stroke="transparent" points="-4,4 -4,-115 736.5,-115 736.5,4 -4,4"/>
<!-- T441 -->
<g id="node1" class="node">
<title>T441</title>
<polygon fill="none" stroke="#0058ad" points="0,-81.5 0,-110.5 641,-110.5 641,-81.5 0,-81.5"/>
<text text-anchor="middle" x="39.5" y="-92.3" font-family="Times,serif" font-size="14.00" fill="#0058ad">r 186 [1]</text>
<polyline fill="none" stroke="#0058ad" points="79,-81.5 79,-110.5 "/>
<text text-anchor="middle" x="132" y="-92.3" font-family="Times,serif" font-size="14.00" fill="#0058ad">r 182 [1 2 3]</text>
<polyline fill="none" stroke="#0058ad" points="185,-81.5 185,-110.5 "/>
<text text-anchor="middle" x="224.5" y="-92.3" font-family="Times,serif" font-size="14.00" fill="#0058ad">r 184 [1]</text>
<polyline fill="none" stroke="#0058ad" points="264,-81.5 264,-110.5 "/>
<text text-anchor="middle" x="303.5" y="-92.3" font-family="Times,serif" font-size="14.00" fill="#0058ad">r 186 [1]</text>
<polyline fill="none" stroke="#0058ad" points="343,-81.5 343,-110.5 "/>
<text text-anchor="middle" x="378" y="-92.3" font-family="Times,serif" font-size="14.00" fill="#0058ad">a 187 1</text>
<polyline fill="none" stroke="#0058ad" points="413,-81.5 413,-110.5 "/>
<text text-anchor="middle" x="448" y="-92.3" font-family="Times,serif" font-size="14.00" fill="#0058ad">a 187 2</text>
<polyline fill="none" stroke="#0058ad" points="483,-81.5 483,-110.5 "/>
<text text-anchor="middle" x="522.5" y="-92.3" font-family="Times,serif" font-size="14.00" fill="#0058ad">r 186 [1]</text>
<polyline fill="none" stroke="#0058ad" points="562,-81.5 562,-110.5 "/>
<text text-anchor="middle" x="601.5" y="-92.3" font-family="Times,serif" font-size="14.00" fill="#0058ad">r 186 [1]</text>
</g>
<!-- T440 -->
<g id="node2" class="node">
<title>T440</title>
<polygon fill="none" stroke="#0058ad" points="172.5,-0.5 172.5,-29.5 732.5,-29.5 732.5,-0.5 172.5,-0.5"/>
<text text-anchor="middle" x="207.5" y="-11.3" font-family="Times,serif" font-size="14.00" fill="#0058ad">a 186 2</text>
<polyline fill="none" stroke="#0058ad" points="242.5,-0.5 242.5,-29.5 "/>
<text text-anchor="middle" x="277.5" y="-11.3" font-family="Times,serif" font-size="14.00" fill="#0058ad">r 187 []</text>
<polyline fill="none" stroke="#0058ad" points="312.5,-0.5 312.5,-29.5 "/>
<text text-anchor="middle" x="347.5" y="-11.3" font-family="Times,serif" font-size="14.00" fill="#0058ad">a 186 3</text>
<polyline fill="none" stroke="#0058ad" points="382.5,-0.5 382.5,-29.5 "/>
<text text-anchor="middle" x="417.5" y="-11.3" font-family="Times,serif" font-size="14.00" fill="#0058ad">r 187 []</text>
<polyline fill="none" stroke="#0058ad" points="452.5,-0.5 452.5,-29.5 "/>
<text text-anchor="middle" x="487.5" y="-11.3" font-family="Times,serif" font-size="14.00" fill="#0058ad">r 187 []</text>
<polyline fill="none" stroke="#0058ad" points="522.5,-0.5 522.5,-29.5 "/>
<text text-anchor="middle" x="557.5" y="-11.3" font-family="Times,serif" font-size="14.00" fill="#0058ad">r 187 []</text>
<polyline fill="none" stroke="#0058ad" points="592.5,-0.5 592.5,-29.5 "/>
<text text-anchor="middle" x="627.5" y="-11.3" font-family="Times,serif" font-size="14.00" fill="#0058ad">r 187 []</text>
<polyline fill="none" stroke="#0058ad" points="662.5,-0.5 662.5,-29.5 "/>
<text text-anchor="middle" x="697.5" y="-11.3" font-family="Times,serif" font-size="14.00" fill="#0058ad">r 187 []</text>
</g>
<!-- T441&#45;&gt;T440 -->
<g id="edge1" class="edge">
<title>T441:f0&#45;&gt;T440:f0</title>
<path fill="none" stroke="#5b00c0" d="M39.5,-81C39.5,-18.87 99.09,-15.22 161.13,-15.01"/>
<polygon fill="#5b00c0" stroke="#5b00c0" points="161.5,-18.51 171.5,-15 161.5,-11.51 161.5,-18.51"/>
<text text-anchor="middle" x="57" y="-51.8" font-family="Times,serif" font-size="14.00" fill="#5b00c0">rw</text>
</g>
<!-- T440&#45;&gt;T441 -->
<g id="edge2" class="edge">
<title>T440:f1&#45;&gt;T441:f4</title>
<path fill="none" stroke="#5b00c0" d="M277.5,-30C277.5,-76.36 363.34,-37.85 376.75,-70.95"/>
<polygon fill="#5b00c0" stroke="#5b00c0" points="373.33,-71.75 378.5,-81 380.23,-70.55 373.33,-71.75"/>
<text text-anchor="middle" x="379" y="-51.8" font-family="Times,serif" font-size="14.00" fill="#5b00c0">rw</text>
</g>
</g>
</svg>
