<?xml version="1.0" encoding="UTF-8" standalone="no"?>
<!DOCTYPE svg PUBLIC "-//W3C//DTD SVG 1.1//EN"
 "http://www.w3.org/Graphics/SVG/1.1/DTD/svg11.dtd">
<!-- Generated by graphviz version 2.43.0 (0)
 -->
<!-- Title: a_graph Pages: 1 -->
<svg width="797pt" height="119pt"
 viewBox="0.00 0.00 796.50 119.00" xmlns="http://www.w3.org/2000/svg" xmlns:xlink="http://www.w3.org/1999/xlink">
<g id="graph0" class="graph" transform="scale(1 1) rotate(0) translate(4 115)">
<title>a_graph</title>
<polygon fill="white" stroke="transparent" points="-4,4 -4,-115 792.5,-115 792.5,4 -4,4"/>
<!-- T674 -->
<g id="node1" class="node">
<title>T674</title>
<polygon fill="none" stroke="#0058ad" points="0,-81.5 0,-110.5 557,-110.5 557,-81.5 0,-81.5"/>
<text text-anchor="middle" x="35" y="-92.3" font-family="Times,serif" font-size="14.00" fill="#0058ad">r 289 []</text>
<polyline fill="none" stroke="#0058ad" points="70,-81.5 70,-110.5 "/>
<text text-anchor="middle" x="105" y="-92.3" font-family="Times,serif" font-size="14.00" fill="#0058ad">r 289 []</text>
<polyline fill="none" stroke="#0058ad" points="140,-81.5 140,-110.5 "/>
<text text-anchor="middle" x="175" y="-92.3" font-family="Times,serif" font-size="14.00" fill="#0058ad">a 289 3</text>
<polyline fill="none" stroke="#0058ad" points="210,-81.5 210,-110.5 "/>
<text text-anchor="middle" x="263" y="-92.3" font-family="Times,serif" font-size="14.00" fill="#0058ad">r 284 [1 2 3]</text>
<polyline fill="none" stroke="#0058ad" points="316,-81.5 316,-110.5 "/>
<text text-anchor="middle" x="351" y="-92.3" font-family="Times,serif" font-size="14.00" fill="#0058ad">a 270 3</text>
<polyline fill="none" stroke="#0058ad" points="386,-81.5 386,-110.5 "/>
<text text-anchor="middle" x="432" y="-92.3" font-family="Times,serif" font-size="14.00" fill="#0058ad">r 281 [1 2]</text>
<polyline fill="none" stroke="#0058ad" points="478,-81.5 478,-110.5 "/>
<text text-anchor="middle" x="517.5" y="-92.3" font-family="Times,serif" font-size="14.00" fill="#0058ad">r 289 [3]</text>
</g>
<!-- T675 -->
<g id="node2" class="node">
<title>T675</title>
<polygon fill="none" stroke="#0058ad" points="98.5,-0.5 98.5,-29.5 788.5,-29.5 788.5,-0.5 98.5,-0.5"/>
<text text-anchor="middle" x="144.5" y="-11.3" font-family="Times,serif" font-size="14.00" fill="#0058ad">r 281 [1 2]</text>
<polyline fill="none" stroke="#0058ad" points="190.5,-0.5 190.5,-29.5 "/>
<text text-anchor="middle" x="225.5" y="-11.3" font-family="Times,serif" font-size="14.00" fill="#0058ad">r 289 []</text>
<polyline fill="none" stroke="#0058ad" points="260.5,-0.5 260.5,-29.5 "/>
<text text-anchor="middle" x="313.5" y="-11.3" font-family="Times,serif" font-size="14.00" fill="#0058ad">r 284 [1 2 3]</text>
<polyline fill="none" stroke="#0058ad" points="366.5,-0.5 366.5,-29.5 "/>
<text text-anchor="middle" x="401.5" y="-11.3" font-family="Times,serif" font-size="14.00" fill="#0058ad">a 281 3</text>
<polyline fill="none" stroke="#0058ad" points="436.5,-0.5 436.5,-29.5 "/>
<text text-anchor="middle" x="489.5" y="-11.3" font-family="Times,serif" font-size="14.00" fill="#0058ad">r 281 [1 2 3]</text>
<polyline fill="none" stroke="#0058ad" points="542.5,-0.5 542.5,-29.5 "/>
<text text-anchor="middle" x="595.5" y="-11.3" font-family="Times,serif" font-size="14.00" fill="#0058ad">r 284 [1 2 3]</text>
<polyline fill="none" stroke="#0058ad" points="648.5,-0.5 648.5,-29.5 "/>
<text text-anchor="middle" x="683.5" y="-11.3" font-family="Times,serif" font-size="14.00" fill="#0058ad">r 290 []</text>
<polyline fill="none" stroke="#0058ad" points="718.5,-0.5 718.5,-29.5 "/>
<text text-anchor="middle" x="753.5" y="-11.3" font-family="Times,serif" font-size="14.00" fill="#0058ad">r 290 []</text>
</g>
<!-- T674&#45;&gt;T675 -->
<g id="edge1" class="edge">
<title>T674:f5&#45;&gt;T675:f3</title>
<path fill="none" stroke="#5b00c0" d="M432.5,-81C432.5,-58.41 410.02,-56.55 403.35,-40.11"/>
<polygon fill="#5b00c0" stroke="#5b00c0" points="406.74,-39.21 401.5,-30 399.85,-40.47 406.74,-39.21"/>
<text text-anchor="middle" x="434" y="-51.8" font-family="Times,serif" font-size="14.00" fill="#5b00c0">rw</text>
</g>
<!-- T675&#45;&gt;T674 -->
<g id="edge2" class="edge">
<title>T675:f1&#45;&gt;T674:f2</title>
<path fill="none" stroke="#5b00c0" d="M225.5,-30C225.5,-58.17 186.1,-51.46 176.56,-71.18"/>
<polygon fill="#5b00c0" stroke="#5b00c0" points="173.13,-70.49 174.5,-81 179.98,-71.93 173.13,-70.49"/>
<text text-anchor="middle" x="226" y="-51.8" font-family="Times,serif" font-size="14.00" fill="#5b00c0">rw</text>
</g>
</g>
</svg>
