<?xml version="1.0" encoding="UTF-8" standalone="no"?>
<!DOCTYPE svg PUBLIC "-//W3C//DTD SVG 1.1//EN"
 "http://www.w3.org/Graphics/SVG/1.1/DTD/svg11.dtd">
<!-- Generated by graphviz version 2.43.0 (0)
 -->
<!-- Title: a_graph Pages: 1 -->
<svg width="1473pt" height="119pt"
 viewBox="0.00 0.00 1473.00 119.00" xmlns="http://www.w3.org/2000/svg" xmlns:xlink="http://www.w3.org/1999/xlink">
<g id="graph0" class="graph" transform="scale(1 1) rotate(0) translate(4 115)">
<title>a_graph</title>
<polygon fill="white" stroke="transparent" points="-4,4 -4,-115 1469,-115 1469,4 -4,4"/>
<!-- T1900 -->
<g id="node1" class="node">
<title>T1900</title>
<polygon fill="none" stroke="#0058ad" points="640,-81.5 640,-110.5 1465,-110.5 1465,-81.5 640,-81.5"/>
<text text-anchor="middle" x="708.5" y="-92.3" font-family="Times,serif" font-size="14.00" fill="#0058ad">r 74 [1 2 3 4 5 6]</text>
<polyline fill="none" stroke="#0058ad" points="777,-81.5 777,-110.5 "/>
<text text-anchor="middle" x="812" y="-92.3" font-family="Times,serif" font-size="14.00" fill="#0058ad">a 72 28</text>
<polyline fill="none" stroke="#0058ad" points="847,-81.5 847,-110.5 "/>
<text text-anchor="middle" x="882" y="-92.3" font-family="Times,serif" font-size="14.00" fill="#0058ad">a 70 22</text>
<polyline fill="none" stroke="#0058ad" points="917,-81.5 917,-110.5 "/>
<text text-anchor="middle" x="985.5" y="-92.3" font-family="Times,serif" font-size="14.00" fill="#0058ad">r 74 [1 2 3 4 5 6]</text>
<polyline fill="none" stroke="#0058ad" points="1054,-81.5 1054,-110.5 "/>
<text text-anchor="middle" x="1122.5" y="-92.3" font-family="Times,serif" font-size="14.00" fill="#0058ad">r 74 [1 2 3 4 5 6]</text>
<polyline fill="none" stroke="#0058ad" points="1191,-81.5 1191,-110.5 "/>
<text text-anchor="middle" x="1259.5" y="-92.3" font-family="Times,serif" font-size="14.00" fill="#0058ad">r 74 [1 2 3 4 5 6]</text>
<polyline fill="none" stroke="#0058ad" points="1328,-81.5 1328,-110.5 "/>
<text text-anchor="middle" x="1396.5" y="-92.3" font-family="Times,serif" font-size="14.00" fill="#0058ad">r 74 [1 2 3 4 5 6]</text>
</g>
<!-- T1899 -->
<g id="node2" class="node">
<title>T1899</title>
<polygon fill="none" stroke="#0058ad" points="0,-0.5 0,-29.5 1147,-29.5 1147,-0.5 0,-0.5"/>
<text text-anchor="middle" x="68.5" y="-11.3" font-family="Times,serif" font-size="14.00" fill="#0058ad">r 74 [1 2 3 4 5 6]</text>
<polyline fill="none" stroke="#0058ad" points="137,-0.5 137,-29.5 "/>
<text text-anchor="middle" x="406" y="-11.3" font-family="Times,serif" font-size="14.00" fill="#0058ad">r 72 [1 2 3 4 5 6 7 8 9 10 11 12 13 14 15 16 17 18 21 22 23 24 25 26 27]</text>
<polyline fill="none" stroke="#0058ad" points="675,-0.5 675,-29.5 "/>
<text text-anchor="middle" x="743.5" y="-11.3" font-family="Times,serif" font-size="14.00" fill="#0058ad">r 74 [1 2 3 4 5 6]</text>
<polyline fill="none" stroke="#0058ad" points="812,-0.5 812,-29.5 "/>
<text text-anchor="middle" x="880.5" y="-11.3" font-family="Times,serif" font-size="14.00" fill="#0058ad">r 74 [1 2 3 4 5 6]</text>
<polyline fill="none" stroke="#0058ad" points="949,-0.5 949,-29.5 "/>
<text text-anchor="middle" x="1017.5" y="-11.3" font-family="Times,serif" font-size="14.00" fill="#0058ad">r 74 [1 2 3 4 5 6]</text>
<polyline fill="none" stroke="#0058ad" points="1086,-0.5 1086,-29.5 "/>
<text text-anchor="middle" x="1116.5" y="-11.3" font-family="Times,serif" font-size="14.00" fill="#0058ad">a 74 7</text>
</g>
<!-- T1900&#45;&gt;T1899 -->
<g id="edge1" class="edge">
<title>T1900:f0&#45;&gt;T1899:f5</title>
<path fill="none" stroke="#5b00c0" d="M708.5,-81C708.5,-55.48 731.36,-56.29 755.5,-48 772.67,-42.1 1054,-48.57 1107.69,-35.02"/>
<polygon fill="#5b00c0" stroke="#5b00c0" points="1109.54,-37.99 1116.5,-30 1106.08,-31.9 1109.54,-37.99"/>
<text text-anchor="middle" x="765" y="-51.8" font-family="Times,serif" font-size="14.00" fill="#5b00c0">rw</text>
</g>
<!-- T1899&#45;&gt;T1900 -->
<g id="edge2" class="edge">
<title>T1899:f1&#45;&gt;T1900:f1</title>
<path fill="none" stroke="#5b00c0" d="M405.5,-30C405.5,-50.52 755.51,-40.22 774.5,-48 791.23,-54.85 805.41,-57.84 809.97,-70.86"/>
<polygon fill="#5b00c0" stroke="#5b00c0" points="806.54,-71.64 811.5,-81 813.46,-70.59 806.54,-71.64"/>
<text text-anchor="middle" x="814" y="-51.8" font-family="Times,serif" font-size="14.00" fill="#5b00c0">rw</text>
</g>
</g>
</svg>
