<?xml version="1.0" encoding="UTF-8" standalone="no"?>
<!DOCTYPE svg PUBLIC "-//W3C//DTD SVG 1.1//EN"
 "http://www.w3.org/Graphics/SVG/1.1/DTD/svg11.dtd">
<!-- Generated by graphviz version 2.43.0 (0)
 -->
<!-- Title: a_graph Pages: 1 -->
<svg width="1391pt" height="119pt"
 viewBox="0.00 0.00 1390.50 119.00" xmlns="http://www.w3.org/2000/svg" xmlns:xlink="http://www.w3.org/1999/xlink">
<g id="graph0" class="graph" transform="scale(1 1) rotate(0) translate(4 115)">
<title>a_graph</title>
<polygon fill="white" stroke="transparent" points="-4,4 -4,-115 1386.5,-115 1386.5,4 -4,4"/>
<!-- T791 -->
<g id="node1" class="node">
<title>T791</title>
<polygon fill="none" stroke="#0058ad" points="235.5,-81.5 235.5,-110.5 1382.5,-110.5 1382.5,-81.5 235.5,-81.5"/>
<text text-anchor="middle" x="437" y="-92.3" font-family="Times,serif" font-size="14.00" fill="#0058ad">r 27 [1 2 3 4 5 6 7 8 9 10 11 12 13 14 15 16 18 19 20]</text>
<polyline fill="none" stroke="#0058ad" points="638.5,-81.5 638.5,-110.5 "/>
<text text-anchor="middle" x="687" y="-92.3" font-family="Times,serif" font-size="14.00" fill="#0058ad">r 29 [1 2 3]</text>
<polyline fill="none" stroke="#0058ad" points="735.5,-81.5 735.5,-110.5 "/>
<text text-anchor="middle" x="766" y="-92.3" font-family="Times,serif" font-size="14.00" fill="#0058ad">a 29 4</text>
<polyline fill="none" stroke="#0058ad" points="796.5,-81.5 796.5,-110.5 "/>
<text text-anchor="middle" x="827" y="-92.3" font-family="Times,serif" font-size="14.00" fill="#0058ad">a 29 5</text>
<polyline fill="none" stroke="#0058ad" points="857.5,-81.5 857.5,-110.5 "/>
<text text-anchor="middle" x="1059" y="-92.3" font-family="Times,serif" font-size="14.00" fill="#0058ad">r 27 [1 2 3 4 5 6 7 8 9 10 11 12 13 14 15 16 18 19 20]</text>
<polyline fill="none" stroke="#0058ad" points="1260.5,-81.5 1260.5,-110.5 "/>
<text text-anchor="middle" x="1291" y="-92.3" font-family="Times,serif" font-size="14.00" fill="#0058ad">a 29 6</text>
<polyline fill="none" stroke="#0058ad" points="1321.5,-81.5 1321.5,-110.5 "/>
<text text-anchor="middle" x="1352" y="-92.3" font-family="Times,serif" font-size="14.00" fill="#0058ad">a 29 7</text>
</g>
<!-- T790 -->
<g id="node2" class="node">
<title>T790</title>
<polygon fill="none" stroke="#0058ad" points="0,-0.5 0,-29.5 798,-29.5 798,-0.5 0,-0.5"/>
<text text-anchor="middle" x="201.5" y="-11.3" font-family="Times,serif" font-size="14.00" fill="#0058ad">r 27 [1 2 3 4 5 6 7 8 9 10 11 12 13 14 15 16 18 19 20]</text>
<polyline fill="none" stroke="#0058ad" points="403,-0.5 403,-29.5 "/>
<text text-anchor="middle" x="433.5" y="-11.3" font-family="Times,serif" font-size="14.00" fill="#0058ad">r 30 []</text>
<polyline fill="none" stroke="#0058ad" points="464,-0.5 464,-29.5 "/>
<text text-anchor="middle" x="499" y="-11.3" font-family="Times,serif" font-size="14.00" fill="#0058ad">a 27 21</text>
<polyline fill="none" stroke="#0058ad" points="534,-0.5 534,-29.5 "/>
<text text-anchor="middle" x="582.5" y="-11.3" font-family="Times,serif" font-size="14.00" fill="#0058ad">r 29 [1 2 3]</text>
<polyline fill="none" stroke="#0058ad" points="631,-0.5 631,-29.5 "/>
<text text-anchor="middle" x="666" y="-11.3" font-family="Times,serif" font-size="14.00" fill="#0058ad">a 27 22</text>
<polyline fill="none" stroke="#0058ad" points="701,-0.5 701,-29.5 "/>
<text text-anchor="middle" x="749.5" y="-11.3" font-family="Times,serif" font-size="14.00" fill="#0058ad">r 29 [1 2 3]</text>
</g>
<!-- T791&#45;&gt;T790 -->
<g id="edge1" class="edge">
<title>T791:f0&#45;&gt;T790:f2</title>
<path fill="none" stroke="#5b00c0" d="M437,-81C437,-49.22 486.18,-61.9 496.94,-39.84"/>
<polygon fill="#5b00c0" stroke="#5b00c0" points="500.37,-40.51 499,-30 493.52,-39.07 500.37,-40.51"/>
<text text-anchor="middle" x="498.5" y="-51.8" font-family="Times,serif" font-size="14.00" fill="#5b00c0">rw</text>
</g>
<!-- T790&#45;&gt;T791 -->
<g id="edge2" class="edge">
<title>T790:f3&#45;&gt;T791:f2</title>
<path fill="none" stroke="#5b00c0" d="M583,-30C583,-110.64 749.93,-6.75 764.93,-70.81"/>
<polygon fill="#5b00c0" stroke="#5b00c0" points="761.47,-71.42 766,-81 768.43,-70.69 761.47,-71.42"/>
<text text-anchor="middle" x="769.5" y="-51.8" font-family="Times,serif" font-size="14.00" fill="#5b00c0">rw</text>
</g>
</g>
</svg>
