<?xml version="1.0" encoding="UTF-8" standalone="no"?>
<!DOCTYPE svg PUBLIC "-//W3C//DTD SVG 1.1//EN"
 "http://www.w3.org/Graphics/SVG/1.1/DTD/svg11.dtd">
<!-- Generated by graphviz version 2.43.0 (0)
 -->
<!-- Title: a_graph Pages: 1 -->
<svg width="2267pt" height="119pt"
 viewBox="0.00 0.00 2267.00 119.00" xmlns="http://www.w3.org/2000/svg" xmlns:xlink="http://www.w3.org/1999/xlink">
<g id="graph0" class="graph" transform="scale(1 1) rotate(0) translate(4 115)">
<title>a_graph</title>
<polygon fill="white" stroke="transparent" points="-4,4 -4,-115 2263,-115 2263,4 -4,4"/>
<!-- T1975 -->
<g id="node1" class="node">
<title>T1975</title>
<polygon fill="none" stroke="#0058ad" points="778.5,-81.5 778.5,-110.5 2210.5,-110.5 2210.5,-81.5 778.5,-81.5"/>
<text text-anchor="middle" x="912.5" y="-92.3" font-family="Times,serif" font-size="14.00" fill="#0058ad">r 75 [1 2 3 4 5 6 7 8 9 10 11 12 13]</text>
<polyline fill="none" stroke="#0058ad" points="1046.5,-81.5 1046.5,-110.5 "/>
<text text-anchor="middle" x="1081.5" y="-92.3" font-family="Times,serif" font-size="14.00" fill="#0058ad">a 78 21</text>
<polyline fill="none" stroke="#0058ad" points="1116.5,-81.5 1116.5,-110.5 "/>
<text text-anchor="middle" x="1439.5" y="-92.3" font-family="Times,serif" font-size="14.00" fill="#0058ad">r 76 [1 2 3 6 7 8 9 10 11 12 13 14 15 16 17 18 19 20 21 22 23 24 25 26 27 28 29 30 31]</text>
<polyline fill="none" stroke="#0058ad" points="1762.5,-81.5 1762.5,-110.5 "/>
<text text-anchor="middle" x="1986.5" y="-92.3" font-family="Times,serif" font-size="14.00" fill="#0058ad">r 78 [1 2 3 4 5 6 7 8 9 10 11 12 13 14 15 16 17 18 19 20 21]</text>
</g>
<!-- T1974 -->
<g id="node2" class="node">
<title>T1974</title>
<polygon fill="none" stroke="#0058ad" points="0,-0.5 0,-29.5 2259,-29.5 2259,-0.5 0,-0.5"/>
<text text-anchor="middle" x="134" y="-11.3" font-family="Times,serif" font-size="14.00" fill="#0058ad">r 75 [1 2 3 4 5 6 7 8 9 10 11 12 13]</text>
<polyline fill="none" stroke="#0058ad" points="268,-0.5 268,-29.5 "/>
<text text-anchor="middle" x="480.5" y="-11.3" font-family="Times,serif" font-size="14.00" fill="#0058ad">r 78 [1 2 3 4 5 6 7 8 9 10 11 12 13 14 15 16 17 18 19 20]</text>
<polyline fill="none" stroke="#0058ad" points="693,-0.5 693,-29.5 "/>
<text text-anchor="middle" x="905.5" y="-11.3" font-family="Times,serif" font-size="14.00" fill="#0058ad">r 78 [1 2 3 4 5 6 7 8 9 10 11 12 13 14 15 16 17 18 19 20]</text>
<polyline fill="none" stroke="#0058ad" points="1118,-0.5 1118,-29.5 "/>
<text text-anchor="middle" x="1441" y="-11.3" font-family="Times,serif" font-size="14.00" fill="#0058ad">r 76 [1 2 3 6 7 8 9 10 11 12 13 14 15 16 17 18 19 20 21 22 23 24 25 26 27 28 29 30 31]</text>
<polyline fill="none" stroke="#0058ad" points="1764,-0.5 1764,-29.5 "/>
<text text-anchor="middle" x="1799" y="-11.3" font-family="Times,serif" font-size="14.00" fill="#0058ad">a 76 32</text>
<polyline fill="none" stroke="#0058ad" points="1834,-0.5 1834,-29.5 "/>
<text text-anchor="middle" x="2046.5" y="-11.3" font-family="Times,serif" font-size="14.00" fill="#0058ad">r 78 [1 2 3 4 5 6 7 8 9 10 11 12 13 14 15 16 17 18 19 20]</text>
</g>
<!-- T1975&#45;&gt;T1974 -->
<g id="edge1" class="edge">
<title>T1975:f2&#45;&gt;T1974:f4</title>
<path fill="none" stroke="#5b00c0" d="M1439.5,-81C1439.5,76.97 1783.51,-179.59 1798.96,-40.24"/>
<polygon fill="#5b00c0" stroke="#5b00c0" points="1802.47,-40.17 1799.5,-30 1795.48,-39.8 1802.47,-40.17"/>
<text text-anchor="middle" x="1805" y="-51.8" font-family="Times,serif" font-size="14.00" fill="#5b00c0">rw</text>
</g>
<!-- T1974&#45;&gt;T1975 -->
<g id="edge2" class="edge">
<title>T1974:f1&#45;&gt;T1975:f1</title>
<path fill="none" stroke="#5b00c0" d="M480.5,-30C480.5,-160.37 1049.08,41.43 1080.18,-70.78"/>
<polygon fill="#5b00c0" stroke="#5b00c0" points="1076.74,-71.53 1081.5,-81 1083.69,-70.63 1076.74,-71.53"/>
<text text-anchor="middle" x="1085" y="-51.8" font-family="Times,serif" font-size="14.00" fill="#5b00c0">rw</text>
</g>
</g>
</svg>
