<?xml version="1.0" encoding="UTF-8" standalone="no"?>
<!DOCTYPE svg PUBLIC "-//W3C//DTD SVG 1.1//EN"
 "http://www.w3.org/Graphics/SVG/1.1/DTD/svg11.dtd">
<!-- Generated by graphviz version 2.43.0 (0)
 -->
<!-- Title: a_graph Pages: 1 -->
<svg width="1551pt" height="119pt"
 viewBox="0.00 0.00 1551.00 119.00" xmlns="http://www.w3.org/2000/svg" xmlns:xlink="http://www.w3.org/1999/xlink">
<g id="graph0" class="graph" transform="scale(1 1) rotate(0) translate(4 115)">
<title>a_graph</title>
<polygon fill="white" stroke="transparent" points="-4,4 -4,-115 1547,-115 1547,4 -4,4"/>
<!-- T747 -->
<g id="node1" class="node">
<title>T747</title>
<polygon fill="none" stroke="#0058ad" points="0,-81.5 0,-110.5 1543,-110.5 1543,-81.5 0,-81.5"/>
<text text-anchor="middle" x="201.5" y="-92.3" font-family="Times,serif" font-size="14.00" fill="#0058ad">r 27 [1 2 3 4 5 6 7 8 9 10 11 12 13 14 15 16 17 18 19]</text>
<polyline fill="none" stroke="#0058ad" points="403,-81.5 403,-110.5 "/>
<text text-anchor="middle" x="433.5" y="-92.3" font-family="Times,serif" font-size="14.00" fill="#0058ad">a 30 6</text>
<polyline fill="none" stroke="#0058ad" points="464,-81.5 464,-110.5 "/>
<text text-anchor="middle" x="665.5" y="-92.3" font-family="Times,serif" font-size="14.00" fill="#0058ad">r 27 [1 2 3 4 5 6 7 8 9 10 11 12 13 14 15 16 17 18 19]</text>
<polyline fill="none" stroke="#0058ad" points="867,-81.5 867,-110.5 "/>
<text text-anchor="middle" x="897.5" y="-92.3" font-family="Times,serif" font-size="14.00" fill="#0058ad">a 30 7</text>
<polyline fill="none" stroke="#0058ad" points="928,-81.5 928,-110.5 "/>
<text text-anchor="middle" x="1129.5" y="-92.3" font-family="Times,serif" font-size="14.00" fill="#0058ad">r 27 [1 2 3 4 5 6 7 8 9 10 11 12 13 14 15 16 17 18 19]</text>
<polyline fill="none" stroke="#0058ad" points="1331,-81.5 1331,-110.5 "/>
<text text-anchor="middle" x="1406.5" y="-92.3" font-family="Times,serif" font-size="14.00" fill="#0058ad">r 30 [1 2 3 4 5 6 7]</text>
<polyline fill="none" stroke="#0058ad" points="1482,-81.5 1482,-110.5 "/>
<text text-anchor="middle" x="1512.5" y="-92.3" font-family="Times,serif" font-size="14.00" fill="#0058ad">a 30 8</text>
</g>
<!-- T746 -->
<g id="node2" class="node">
<title>T746</title>
<polygon fill="none" stroke="#0058ad" points="160,-0.5 160,-29.5 733,-29.5 733,-0.5 160,-0.5"/>
<text text-anchor="middle" x="222" y="-11.3" font-family="Times,serif" font-size="14.00" fill="#0058ad">r 30 [1 2 3 4 5]</text>
<polyline fill="none" stroke="#0058ad" points="284,-0.5 284,-29.5 "/>
<text text-anchor="middle" x="319" y="-11.3" font-family="Times,serif" font-size="14.00" fill="#0058ad">a 27 20</text>
<polyline fill="none" stroke="#0058ad" points="354,-0.5 354,-29.5 "/>
<text text-anchor="middle" x="384.5" y="-11.3" font-family="Times,serif" font-size="14.00" fill="#0058ad">a 29 7</text>
<polyline fill="none" stroke="#0058ad" points="415,-0.5 415,-29.5 "/>
<text text-anchor="middle" x="477" y="-11.3" font-family="Times,serif" font-size="14.00" fill="#0058ad">r 30 [1 2 3 4 5]</text>
<polyline fill="none" stroke="#0058ad" points="539,-0.5 539,-29.5 "/>
<text text-anchor="middle" x="574" y="-11.3" font-family="Times,serif" font-size="14.00" fill="#0058ad">a 27 21</text>
<polyline fill="none" stroke="#0058ad" points="609,-0.5 609,-29.5 "/>
<text text-anchor="middle" x="671" y="-11.3" font-family="Times,serif" font-size="14.00" fill="#0058ad">r 30 [1 2 3 4 5]</text>
</g>
<!-- T747&#45;&gt;T746 -->
<g id="edge1" class="edge">
<title>T747:f0&#45;&gt;T746:f1</title>
<path fill="none" stroke="#5b00c0" d="M201.5,-81C201.5,-56.07 291.88,-57.48 313.77,-38.93"/>
<polygon fill="#5b00c0" stroke="#5b00c0" points="316.91,-40.47 318.5,-30 310.72,-37.2 316.91,-40.47"/>
<text text-anchor="middle" x="303" y="-51.8" font-family="Times,serif" font-size="14.00" fill="#5b00c0">rw</text>
</g>
<!-- T746&#45;&gt;T747 -->
<g id="edge2" class="edge">
<title>T746:f0&#45;&gt;T747:f1</title>
<path fill="none" stroke="#5b00c0" d="M221.5,-30C221.5,-51.49 295.58,-43.08 316.5,-48 365.39,-59.5 424.5,-31.44 432.57,-70.85"/>
<polygon fill="#5b00c0" stroke="#5b00c0" points="429.1,-71.36 433.5,-81 436.07,-70.72 429.1,-71.36"/>
<text text-anchor="middle" x="439" y="-51.8" font-family="Times,serif" font-size="14.00" fill="#5b00c0">rw</text>
</g>
</g>
</svg>
