<?xml version="1.0" encoding="UTF-8" standalone="no"?>
<!DOCTYPE svg PUBLIC "-//W3C//DTD SVG 1.1//EN"
 "http://www.w3.org/Graphics/SVG/1.1/DTD/svg11.dtd">
<!-- Generated by graphviz version 2.43.0 (0)
 -->
<!-- Title: a_graph Pages: 1 -->
<svg width="2288pt" height="119pt"
 viewBox="0.00 0.00 2287.50 119.00" xmlns="http://www.w3.org/2000/svg" xmlns:xlink="http://www.w3.org/1999/xlink">
<g id="graph0" class="graph" transform="scale(1 1) rotate(0) translate(4 115)">
<title>a_graph</title>
<polygon fill="white" stroke="transparent" points="-4,4 -4,-115 2283.5,-115 2283.5,4 -4,4"/>
<!-- T1255 -->
<g id="node1" class="node">
<title>T1255</title>
<polygon fill="none" stroke="#0058ad" points="311.5,-81.5 311.5,-110.5 2279.5,-110.5 2279.5,-81.5 311.5,-81.5"/>
<text text-anchor="middle" x="346.5" y="-92.3" font-family="Times,serif" font-size="14.00" fill="#0058ad">a 46 19</text>
<polyline fill="none" stroke="#0058ad" points="381.5,-81.5 381.5,-110.5 "/>
<text text-anchor="middle" x="661.5" y="-92.3" font-family="Times,serif" font-size="14.00" fill="#0058ad">r 47 [1 2 3 4 5 6 7 8 9 10 11 12 13 14 15 16 17 18 19 20 21 22 23 24 25 26]</text>
<polyline fill="none" stroke="#0058ad" points="941.5,-81.5 941.5,-110.5 "/>
<text text-anchor="middle" x="1136" y="-92.3" font-family="Times,serif" font-size="14.00" fill="#0058ad">r 46 [1 2 3 4 5 7 8 9 10 11 12 13 14 15 16 17 18 19]</text>
<polyline fill="none" stroke="#0058ad" points="1330.5,-81.5 1330.5,-110.5 "/>
<text text-anchor="middle" x="1610.5" y="-92.3" font-family="Times,serif" font-size="14.00" fill="#0058ad">r 47 [1 2 3 4 5 6 7 8 9 10 11 12 13 14 15 16 17 18 19 20 21 22 23 24 25 26]</text>
<polyline fill="none" stroke="#0058ad" points="1890.5,-81.5 1890.5,-110.5 "/>
<text text-anchor="middle" x="2085" y="-92.3" font-family="Times,serif" font-size="14.00" fill="#0058ad">r 46 [1 2 3 4 5 7 8 9 10 11 12 13 14 15 16 17 18 19]</text>
</g>
<!-- T1254 -->
<g id="node2" class="node">
<title>T1254</title>
<polygon fill="none" stroke="#0058ad" points="0,-0.5 0,-29.5 1377,-29.5 1377,-0.5 0,-0.5"/>
<text text-anchor="middle" x="35" y="-11.3" font-family="Times,serif" font-size="14.00" fill="#0058ad">a 49 14</text>
<polyline fill="none" stroke="#0058ad" points="70,-0.5 70,-29.5 "/>
<text text-anchor="middle" x="105" y="-11.3" font-family="Times,serif" font-size="14.00" fill="#0058ad">a 47 27</text>
<polyline fill="none" stroke="#0058ad" points="140,-0.5 140,-29.5 "/>
<text text-anchor="middle" x="285" y="-11.3" font-family="Times,serif" font-size="14.00" fill="#0058ad">r 49 [1 2 3 4 5 6 7 8 9 10 11 12 13 14]</text>
<polyline fill="none" stroke="#0058ad" points="430,-0.5 430,-29.5 "/>
<text text-anchor="middle" x="575" y="-11.3" font-family="Times,serif" font-size="14.00" fill="#0058ad">r 49 [1 2 3 4 5 6 7 8 9 10 11 12 13 14]</text>
<polyline fill="none" stroke="#0058ad" points="720,-0.5 720,-29.5 "/>
<text text-anchor="middle" x="903.5" y="-11.3" font-family="Times,serif" font-size="14.00" fill="#0058ad">r 46 [1 2 3 4 5 7 8 9 10 11 12 13 14 15 16 17 18]</text>
<polyline fill="none" stroke="#0058ad" points="1087,-0.5 1087,-29.5 "/>
<text text-anchor="middle" x="1232" y="-11.3" font-family="Times,serif" font-size="14.00" fill="#0058ad">r 49 [1 2 3 4 5 6 7 8 9 10 11 12 13 14]</text>
</g>
<!-- T1255&#45;&gt;T1254 -->
<g id="edge1" class="edge">
<title>T1255:f1&#45;&gt;T1254:f1</title>
<path fill="none" stroke="#5b00c0" d="M661.5,-81C661.5,19.19 538.19,-58.04 438.5,-48 421.85,-46.32 164.41,-48.14 113.29,-34.95"/>
<polygon fill="#5b00c0" stroke="#5b00c0" points="114.93,-31.86 104.5,-30 111.49,-37.96 114.93,-31.86"/>
<text text-anchor="middle" x="668" y="-51.8" font-family="Times,serif" font-size="14.00" fill="#5b00c0">rw</text>
</g>
<!-- T1254&#45;&gt;T1255 -->
<g id="edge2" class="edge">
<title>T1254:f4&#45;&gt;T1255:f0</title>
<path fill="none" stroke="#5b00c0" d="M903.5,-30C903.5,-57.13 441.84,-41.51 415.5,-48 386.23,-55.21 354.62,-48.85 347.83,-71.02"/>
<polygon fill="#5b00c0" stroke="#5b00c0" points="344.35,-70.63 346.5,-81 351.29,-71.55 344.35,-70.63"/>
<text text-anchor="middle" x="425" y="-51.8" font-family="Times,serif" font-size="14.00" fill="#5b00c0">rw</text>
</g>
</g>
</svg>
