<?xml version="1.0" encoding="UTF-8" standalone="no"?>
<!DOCTYPE svg PUBLIC "-//W3C//DTD SVG 1.1//EN"
 "http://www.w3.org/Graphics/SVG/1.1/DTD/svg11.dtd">
<!-- Generated by graphviz version 2.43.0 (0)
 -->
<!-- Title: a_graph Pages: 1 -->
<svg width="656pt" height="119pt"
 viewBox="0.00 0.00 655.50 119.00" xmlns="http://www.w3.org/2000/svg" xmlns:xlink="http://www.w3.org/1999/xlink">
<g id="graph0" class="graph" transform="scale(1 1) rotate(0) translate(4 115)">
<title>a_graph</title>
<polygon fill="white" stroke="transparent" points="-4,4 -4,-115 651.5,-115 651.5,4 -4,4"/>
<!-- T1315 -->
<g id="node1" class="node">
<title>T1315</title>
<polygon fill="none" stroke="#0058ad" points="0,-81.5 0,-110.5 521,-110.5 521,-81.5 0,-81.5"/>
<text text-anchor="middle" x="35" y="-92.3" font-family="Times,serif" font-size="14.00" fill="#0058ad">a 567 3</text>
<polyline fill="none" stroke="#0058ad" points="70,-81.5 70,-110.5 "/>
<text text-anchor="middle" x="105" y="-92.3" font-family="Times,serif" font-size="14.00" fill="#0058ad">a 550 3</text>
<polyline fill="none" stroke="#0058ad" points="140,-81.5 140,-110.5 "/>
<text text-anchor="middle" x="175" y="-92.3" font-family="Times,serif" font-size="14.00" fill="#0058ad">a 540 3</text>
<polyline fill="none" stroke="#0058ad" points="210,-81.5 210,-110.5 "/>
<text text-anchor="middle" x="249.5" y="-92.3" font-family="Times,serif" font-size="14.00" fill="#0058ad">r 566 [1]</text>
<polyline fill="none" stroke="#0058ad" points="289,-81.5 289,-110.5 "/>
<text text-anchor="middle" x="324" y="-92.3" font-family="Times,serif" font-size="14.00" fill="#0058ad">r 568 []</text>
<polyline fill="none" stroke="#0058ad" points="359,-81.5 359,-110.5 "/>
<text text-anchor="middle" x="394" y="-92.3" font-family="Times,serif" font-size="14.00" fill="#0058ad">a 568 1</text>
<polyline fill="none" stroke="#0058ad" points="429,-81.5 429,-110.5 "/>
<text text-anchor="middle" x="475" y="-92.3" font-family="Times,serif" font-size="14.00" fill="#0058ad">r 560 [1 2]</text>
</g>
<!-- T1314 -->
<g id="node2" class="node">
<title>T1314</title>
<polygon fill="none" stroke="#0058ad" points="367.5,-0.5 367.5,-29.5 647.5,-29.5 647.5,-0.5 367.5,-0.5"/>
<text text-anchor="middle" x="402.5" y="-11.3" font-family="Times,serif" font-size="14.00" fill="#0058ad">r 568 []</text>
<polyline fill="none" stroke="#0058ad" points="437.5,-0.5 437.5,-29.5 "/>
<text text-anchor="middle" x="472.5" y="-11.3" font-family="Times,serif" font-size="14.00" fill="#0058ad">a 560 3</text>
<polyline fill="none" stroke="#0058ad" points="507.5,-0.5 507.5,-29.5 "/>
<text text-anchor="middle" x="542.5" y="-11.3" font-family="Times,serif" font-size="14.00" fill="#0058ad">r 568 []</text>
<polyline fill="none" stroke="#0058ad" points="577.5,-0.5 577.5,-29.5 "/>
<text text-anchor="middle" x="612.5" y="-11.3" font-family="Times,serif" font-size="14.00" fill="#0058ad">r 568 []</text>
</g>
<!-- T1315&#45;&gt;T1314 -->
<g id="edge1" class="edge">
<title>T1315:f6&#45;&gt;T1314:f1</title>
<path fill="none" stroke="#5b00c0" d="M475.5,-81C475.5,-62.2 473.44,-55.13 472.74,-40.36"/>
<polygon fill="#5b00c0" stroke="#5b00c0" points="476.23,-39.92 472.5,-30 469.23,-40.08 476.23,-39.92"/>
<text text-anchor="middle" x="484" y="-51.8" font-family="Times,serif" font-size="14.00" fill="#5b00c0">rw</text>
</g>
<!-- T1314&#45;&gt;T1315 -->
<g id="edge2" class="edge">
<title>T1314:f0&#45;&gt;T1315:f5</title>
<path fill="none" stroke="#5b00c0" d="M402.5,-30C402.5,-49.18 396.91,-55.9 395.08,-70.99"/>
<polygon fill="#5b00c0" stroke="#5b00c0" points="391.58,-70.82 394.5,-81 398.57,-71.22 391.58,-70.82"/>
<text text-anchor="middle" x="410" y="-51.8" font-family="Times,serif" font-size="14.00" fill="#5b00c0">rw</text>
</g>
</g>
</svg>
