<?xml version="1.0" encoding="UTF-8" standalone="no"?>
<!DOCTYPE svg PUBLIC "-//W3C//DTD SVG 1.1//EN"
 "http://www.w3.org/Graphics/SVG/1.1/DTD/svg11.dtd">
<!-- Generated by graphviz version 2.43.0 (0)
 -->
<!-- Title: a_graph Pages: 1 -->
<svg width="631pt" height="119pt"
 viewBox="0.00 0.00 631.00 119.00" xmlns="http://www.w3.org/2000/svg" xmlns:xlink="http://www.w3.org/1999/xlink">
<g id="graph0" class="graph" transform="scale(1 1) rotate(0) translate(4 115)">
<title>a_graph</title>
<polygon fill="white" stroke="transparent" points="-4,4 -4,-115 627,-115 627,4 -4,4"/>
<!-- T1378 -->
<g id="node1" class="node">
<title>T1378</title>
<polygon fill="none" stroke="#0058ad" points="0,-81.5 0,-110.5 368,-110.5 368,-81.5 0,-81.5"/>
<text text-anchor="middle" x="39.5" y="-92.3" font-family="Times,serif" font-size="14.00" fill="#0058ad">r 592 [1]</text>
<polyline fill="none" stroke="#0058ad" points="79,-81.5 79,-110.5 "/>
<text text-anchor="middle" x="118.5" y="-92.3" font-family="Times,serif" font-size="14.00" fill="#0058ad">r 592 [1]</text>
<polyline fill="none" stroke="#0058ad" points="158,-81.5 158,-110.5 "/>
<text text-anchor="middle" x="193" y="-92.3" font-family="Times,serif" font-size="14.00" fill="#0058ad">a 592 2</text>
<polyline fill="none" stroke="#0058ad" points="228,-81.5 228,-110.5 "/>
<text text-anchor="middle" x="263" y="-92.3" font-family="Times,serif" font-size="14.00" fill="#0058ad">r 593 []</text>
<polyline fill="none" stroke="#0058ad" points="298,-81.5 298,-110.5 "/>
<text text-anchor="middle" x="333" y="-92.3" font-family="Times,serif" font-size="14.00" fill="#0058ad">a 592 3</text>
</g>
<!-- T1379 -->
<g id="node2" class="node">
<title>T1379</title>
<polygon fill="none" stroke="#0058ad" points="115,-0.5 115,-29.5 623,-29.5 623,-0.5 115,-0.5"/>
<text text-anchor="middle" x="154.5" y="-11.3" font-family="Times,serif" font-size="14.00" fill="#0058ad">r 592 [1]</text>
<polyline fill="none" stroke="#0058ad" points="194,-0.5 194,-29.5 "/>
<text text-anchor="middle" x="233.5" y="-11.3" font-family="Times,serif" font-size="14.00" fill="#0058ad">r 591 [1]</text>
<polyline fill="none" stroke="#0058ad" points="273,-0.5 273,-29.5 "/>
<text text-anchor="middle" x="308" y="-11.3" font-family="Times,serif" font-size="14.00" fill="#0058ad">a 584 1</text>
<polyline fill="none" stroke="#0058ad" points="343,-0.5 343,-29.5 "/>
<text text-anchor="middle" x="378" y="-11.3" font-family="Times,serif" font-size="14.00" fill="#0058ad">a 593 1</text>
<polyline fill="none" stroke="#0058ad" points="413,-0.5 413,-29.5 "/>
<text text-anchor="middle" x="448" y="-11.3" font-family="Times,serif" font-size="14.00" fill="#0058ad">a 595 1</text>
<polyline fill="none" stroke="#0058ad" points="483,-0.5 483,-29.5 "/>
<text text-anchor="middle" x="518" y="-11.3" font-family="Times,serif" font-size="14.00" fill="#0058ad">a 593 2</text>
<polyline fill="none" stroke="#0058ad" points="553,-0.5 553,-29.5 "/>
<text text-anchor="middle" x="588" y="-11.3" font-family="Times,serif" font-size="14.00" fill="#0058ad">a 591 2</text>
</g>
<!-- T1378&#45;&gt;T1379 -->
<g id="edge1" class="edge">
<title>T1378:f3&#45;&gt;T1379:f3</title>
<path fill="none" stroke="#5b00c0" d="M263,-81C263,-29.02 362.4,-77.94 376.37,-40.14"/>
<polygon fill="#5b00c0" stroke="#5b00c0" points="379.87,-40.43 378,-30 372.96,-39.32 379.87,-40.43"/>
<text text-anchor="middle" x="379.5" y="-51.8" font-family="Times,serif" font-size="14.00" fill="#5b00c0">rw</text>
</g>
<!-- T1379&#45;&gt;T1378 -->
<g id="edge2" class="edge">
<title>T1379:f0&#45;&gt;T1378:f2</title>
<path fill="none" stroke="#5b00c0" d="M154,-30C154,-54.52 182.8,-53.49 190.9,-70.82"/>
<polygon fill="#5b00c0" stroke="#5b00c0" points="187.55,-71.91 193,-81 194.41,-70.5 187.55,-71.91"/>
<text text-anchor="middle" x="194.5" y="-51.8" font-family="Times,serif" font-size="14.00" fill="#5b00c0">rw</text>
</g>
</g>
</svg>
