<?xml version="1.0" encoding="UTF-8" standalone="no"?>
<!DOCTYPE svg PUBLIC "-//W3C//DTD SVG 1.1//EN"
 "http://www.w3.org/Graphics/SVG/1.1/DTD/svg11.dtd">
<!-- Generated by graphviz version 2.43.0 (0)
 -->
<!-- Title: a_graph Pages: 1 -->
<svg width="577pt" height="119pt"
 viewBox="0.00 0.00 577.00 119.00" xmlns="http://www.w3.org/2000/svg" xmlns:xlink="http://www.w3.org/1999/xlink">
<g id="graph0" class="graph" transform="scale(1 1) rotate(0) translate(4 115)">
<title>a_graph</title>
<polygon fill="white" stroke="transparent" points="-4,4 -4,-115 573,-115 573,4 -4,4"/>
<!-- T443 -->
<g id="node1" class="node">
<title>T443</title>
<polygon fill="none" stroke="#0058ad" points="0,-81.5 0,-110.5 359,-110.5 359,-81.5 0,-81.5"/>
<text text-anchor="middle" x="35" y="-92.3" font-family="Times,serif" font-size="14.00" fill="#0058ad">r 204 []</text>
<polyline fill="none" stroke="#0058ad" points="70,-81.5 70,-110.5 "/>
<text text-anchor="middle" x="105" y="-92.3" font-family="Times,serif" font-size="14.00" fill="#0058ad">r 203 []</text>
<polyline fill="none" stroke="#0058ad" points="140,-81.5 140,-110.5 "/>
<text text-anchor="middle" x="175" y="-92.3" font-family="Times,serif" font-size="14.00" fill="#0058ad">a 204 1</text>
<polyline fill="none" stroke="#0058ad" points="210,-81.5 210,-110.5 "/>
<text text-anchor="middle" x="249.5" y="-92.3" font-family="Times,serif" font-size="14.00" fill="#0058ad">r 204 [1]</text>
<polyline fill="none" stroke="#0058ad" points="289,-81.5 289,-110.5 "/>
<text text-anchor="middle" x="324" y="-92.3" font-family="Times,serif" font-size="14.00" fill="#0058ad">r 203 []</text>
</g>
<!-- T442 -->
<g id="node2" class="node">
<title>T442</title>
<polygon fill="none" stroke="#0058ad" points="70,-0.5 70,-29.5 569,-29.5 569,-0.5 70,-0.5"/>
<text text-anchor="middle" x="105" y="-11.3" font-family="Times,serif" font-size="14.00" fill="#0058ad">a 203 1</text>
<polyline fill="none" stroke="#0058ad" points="140,-0.5 140,-29.5 "/>
<text text-anchor="middle" x="175" y="-11.3" font-family="Times,serif" font-size="14.00" fill="#0058ad">r 204 []</text>
<polyline fill="none" stroke="#0058ad" points="210,-0.5 210,-29.5 "/>
<text text-anchor="middle" x="249.5" y="-11.3" font-family="Times,serif" font-size="14.00" fill="#0058ad">r 203 [1]</text>
<polyline fill="none" stroke="#0058ad" points="289,-0.5 289,-29.5 "/>
<text text-anchor="middle" x="324" y="-11.3" font-family="Times,serif" font-size="14.00" fill="#0058ad">r 204 []</text>
<polyline fill="none" stroke="#0058ad" points="359,-0.5 359,-29.5 "/>
<text text-anchor="middle" x="394" y="-11.3" font-family="Times,serif" font-size="14.00" fill="#0058ad">r 204 []</text>
<polyline fill="none" stroke="#0058ad" points="429,-0.5 429,-29.5 "/>
<text text-anchor="middle" x="464" y="-11.3" font-family="Times,serif" font-size="14.00" fill="#0058ad">r 204 []</text>
<polyline fill="none" stroke="#0058ad" points="499,-0.5 499,-29.5 "/>
<text text-anchor="middle" x="534" y="-11.3" font-family="Times,serif" font-size="14.00" fill="#0058ad">a 203 2</text>
</g>
<!-- T443&#45;&gt;T442 -->
<g id="edge1" class="edge">
<title>T443:f1&#45;&gt;T442:f0</title>
<path fill="none" stroke="#5b00c0" d="M104.5,-81C104.5,-62.23 104.5,-55.12 104.5,-40.35"/>
<polygon fill="#5b00c0" stroke="#5b00c0" points="108,-40 104.5,-30 101,-40 108,-40"/>
<text text-anchor="middle" x="114" y="-51.8" font-family="Times,serif" font-size="14.00" fill="#5b00c0">rw</text>
</g>
<!-- T442&#45;&gt;T443 -->
<g id="edge2" class="edge">
<title>T442:f1&#45;&gt;T443:f2</title>
<path fill="none" stroke="#5b00c0" d="M174.5,-30C174.5,-48.77 174.5,-55.88 174.5,-70.65"/>
<polygon fill="#5b00c0" stroke="#5b00c0" points="171,-71 174.5,-81 178,-71 171,-71"/>
<text text-anchor="middle" x="185" y="-51.8" font-family="Times,serif" font-size="14.00" fill="#5b00c0">rw</text>
</g>
</g>
</svg>
