<?xml version="1.0" encoding="UTF-8" standalone="no"?>
<!DOCTYPE svg PUBLIC "-//W3C//DTD SVG 1.1//EN"
 "http://www.w3.org/Graphics/SVG/1.1/DTD/svg11.dtd">
<!-- Generated by graphviz version 2.43.0 (0)
 -->
<!-- Title: a_graph Pages: 1 -->
<svg width="689pt" height="119pt"
 viewBox="0.00 0.00 689.50 119.00" xmlns="http://www.w3.org/2000/svg" xmlns:xlink="http://www.w3.org/1999/xlink">
<g id="graph0" class="graph" transform="scale(1 1) rotate(0) translate(4 115)">
<title>a_graph</title>
<polygon fill="white" stroke="transparent" points="-4,4 -4,-115 685.5,-115 685.5,4 -4,4"/>
<!-- T2207 -->
<g id="node1" class="node">
<title>T2207</title>
<polygon fill="none" stroke="#0058ad" points="67.5,-81.5 67.5,-110.5 681.5,-110.5 681.5,-81.5 67.5,-81.5"/>
<text text-anchor="middle" x="107" y="-92.3" font-family="Times,serif" font-size="14.00" fill="#0058ad">r 949 [1]</text>
<polyline fill="none" stroke="#0058ad" points="146.5,-81.5 146.5,-110.5 "/>
<text text-anchor="middle" x="181.5" y="-92.3" font-family="Times,serif" font-size="14.00" fill="#0058ad">a 951 1</text>
<polyline fill="none" stroke="#0058ad" points="216.5,-81.5 216.5,-110.5 "/>
<text text-anchor="middle" x="251.5" y="-92.3" font-family="Times,serif" font-size="14.00" fill="#0058ad">a 952 1</text>
<polyline fill="none" stroke="#0058ad" points="286.5,-81.5 286.5,-110.5 "/>
<text text-anchor="middle" x="326" y="-92.3" font-family="Times,serif" font-size="14.00" fill="#0058ad">r 952 [1]</text>
<polyline fill="none" stroke="#0058ad" points="365.5,-81.5 365.5,-110.5 "/>
<text text-anchor="middle" x="405" y="-92.3" font-family="Times,serif" font-size="14.00" fill="#0058ad">r 949 [1]</text>
<polyline fill="none" stroke="#0058ad" points="444.5,-81.5 444.5,-110.5 "/>
<text text-anchor="middle" x="484" y="-92.3" font-family="Times,serif" font-size="14.00" fill="#0058ad">r 952 [1]</text>
<polyline fill="none" stroke="#0058ad" points="523.5,-81.5 523.5,-110.5 "/>
<text text-anchor="middle" x="563" y="-92.3" font-family="Times,serif" font-size="14.00" fill="#0058ad">r 951 [1]</text>
<polyline fill="none" stroke="#0058ad" points="602.5,-81.5 602.5,-110.5 "/>
<text text-anchor="middle" x="642" y="-92.3" font-family="Times,serif" font-size="14.00" fill="#0058ad">r 949 [1]</text>
</g>
<!-- T2206 -->
<g id="node2" class="node">
<title>T2206</title>
<polygon fill="none" stroke="#0058ad" points="0,-0.5 0,-29.5 289,-29.5 289,-0.5 0,-0.5"/>
<text text-anchor="middle" x="35" y="-11.3" font-family="Times,serif" font-size="14.00" fill="#0058ad">r 951 []</text>
<polyline fill="none" stroke="#0058ad" points="70,-0.5 70,-29.5 "/>
<text text-anchor="middle" x="109.5" y="-11.3" font-family="Times,serif" font-size="14.00" fill="#0058ad">r 949 [1]</text>
<polyline fill="none" stroke="#0058ad" points="149,-0.5 149,-29.5 "/>
<text text-anchor="middle" x="184" y="-11.3" font-family="Times,serif" font-size="14.00" fill="#0058ad">a 948 2</text>
<polyline fill="none" stroke="#0058ad" points="219,-0.5 219,-29.5 "/>
<text text-anchor="middle" x="254" y="-11.3" font-family="Times,serif" font-size="14.00" fill="#0058ad">a 949 2</text>
</g>
<!-- T2207&#45;&gt;T2206 -->
<g id="edge1" class="edge">
<title>T2207:f0&#45;&gt;T2206:f3</title>
<path fill="none" stroke="#5b00c0" d="M106.5,-81C106.5,-62.33 116.34,-57.36 132.5,-48 152.97,-36.14 229.02,-51.77 249.43,-38.63"/>
<polygon fill="#5b00c0" stroke="#5b00c0" points="252.45,-40.4 254.5,-30 246.42,-36.85 252.45,-40.4"/>
<text text-anchor="middle" x="142" y="-51.8" font-family="Times,serif" font-size="14.00" fill="#5b00c0">rw</text>
</g>
<!-- T2206&#45;&gt;T2207 -->
<g id="edge2" class="edge">
<title>T2206:f0&#45;&gt;T2207:f1</title>
<path fill="none" stroke="#5b00c0" d="M34.5,-30C34.5,-56.31 128.32,-35.55 151.5,-48 165.55,-55.55 176.41,-59.48 180.12,-71.06"/>
<polygon fill="#5b00c0" stroke="#5b00c0" points="176.66,-71.58 181.5,-81 183.59,-70.61 176.66,-71.58"/>
<text text-anchor="middle" x="185" y="-51.8" font-family="Times,serif" font-size="14.00" fill="#5b00c0">rw</text>
</g>
</g>
</svg>
