<?xml version="1.0" encoding="UTF-8" standalone="no"?>
<!DOCTYPE svg PUBLIC "-//W3C//DTD SVG 1.1//EN"
 "http://www.w3.org/Graphics/SVG/1.1/DTD/svg11.dtd">
<!-- Generated by graphviz version 2.43.0 (0)
 -->
<!-- Title: a_graph Pages: 1 -->
<svg width="745pt" height="119pt"
 viewBox="0.00 0.00 745.00 119.00" xmlns="http://www.w3.org/2000/svg" xmlns:xlink="http://www.w3.org/1999/xlink">
<g id="graph0" class="graph" transform="scale(1 1) rotate(0) translate(4 115)">
<title>a_graph</title>
<polygon fill="white" stroke="transparent" points="-4,4 -4,-115 741,-115 741,4 -4,4"/>
<!-- T2809 -->
<g id="node1" class="node">
<title>T2809</title>
<polygon fill="none" stroke="#0058ad" points="135,-81.5 135,-110.5 737,-110.5 737,-81.5 135,-81.5"/>
<text text-anchor="middle" x="174.5" y="-92.3" font-family="Times,serif" font-size="14.00" fill="#0058ad">a 1223 1</text>
<polyline fill="none" stroke="#0058ad" points="214,-81.5 214,-110.5 "/>
<text text-anchor="middle" x="253.5" y="-92.3" font-family="Times,serif" font-size="14.00" fill="#0058ad">a 1224 1</text>
<polyline fill="none" stroke="#0058ad" points="293,-81.5 293,-110.5 "/>
<text text-anchor="middle" x="337" y="-92.3" font-family="Times,serif" font-size="14.00" fill="#0058ad">r 1224 [1]</text>
<polyline fill="none" stroke="#0058ad" points="381,-81.5 381,-110.5 "/>
<text text-anchor="middle" x="420.5" y="-92.3" font-family="Times,serif" font-size="14.00" fill="#0058ad">a 1224 2</text>
<polyline fill="none" stroke="#0058ad" points="460,-81.5 460,-110.5 "/>
<text text-anchor="middle" x="510.5" y="-92.3" font-family="Times,serif" font-size="14.00" fill="#0058ad">r 1224 [1 2]</text>
<polyline fill="none" stroke="#0058ad" points="561,-81.5 561,-110.5 "/>
<text text-anchor="middle" x="605" y="-92.3" font-family="Times,serif" font-size="14.00" fill="#0058ad">r 1215 [1]</text>
<polyline fill="none" stroke="#0058ad" points="649,-81.5 649,-110.5 "/>
<text text-anchor="middle" x="693" y="-92.3" font-family="Times,serif" font-size="14.00" fill="#0058ad">r 1223 [1]</text>
</g>
<!-- T2808 -->
<g id="node2" class="node">
<title>T2808</title>
<polygon fill="none" stroke="#0058ad" points="0,-0.5 0,-29.5 474,-29.5 474,-0.5 0,-0.5"/>
<text text-anchor="middle" x="39.5" y="-11.3" font-family="Times,serif" font-size="14.00" fill="#0058ad">a 1222 1</text>
<polyline fill="none" stroke="#0058ad" points="79,-0.5 79,-29.5 "/>
<text text-anchor="middle" x="118.5" y="-11.3" font-family="Times,serif" font-size="14.00" fill="#0058ad">a 1222 2</text>
<polyline fill="none" stroke="#0058ad" points="158,-0.5 158,-29.5 "/>
<text text-anchor="middle" x="197.5" y="-11.3" font-family="Times,serif" font-size="14.00" fill="#0058ad">a 1221 3</text>
<polyline fill="none" stroke="#0058ad" points="237,-0.5 237,-29.5 "/>
<text text-anchor="middle" x="276.5" y="-11.3" font-family="Times,serif" font-size="14.00" fill="#0058ad">r 1223 []</text>
<polyline fill="none" stroke="#0058ad" points="316,-0.5 316,-29.5 "/>
<text text-anchor="middle" x="355.5" y="-11.3" font-family="Times,serif" font-size="14.00" fill="#0058ad">a 1222 3</text>
<polyline fill="none" stroke="#0058ad" points="395,-0.5 395,-29.5 "/>
<text text-anchor="middle" x="434.5" y="-11.3" font-family="Times,serif" font-size="14.00" fill="#0058ad">a 1215 2</text>
</g>
<!-- T2809&#45;&gt;T2808 -->
<g id="edge1" class="edge">
<title>T2809:f5&#45;&gt;T2808:f5</title>
<path fill="none" stroke="#5b00c0" d="M605,-81C605,-19.62 546.49,-15.3 485.24,-15.02"/>
<polygon fill="#5b00c0" stroke="#5b00c0" points="485.01,-11.52 475,-15 484.99,-18.52 485.01,-11.52"/>
<text text-anchor="middle" x="611.5" y="-51.8" font-family="Times,serif" font-size="14.00" fill="#5b00c0">rw</text>
</g>
<!-- T2808&#45;&gt;T2809 -->
<g id="edge2" class="edge">
<title>T2808:f3&#45;&gt;T2809:f0</title>
<path fill="none" stroke="#5b00c0" d="M277,-30C277,-77.09 189.47,-37.29 175.79,-70.8"/>
<polygon fill="#5b00c0" stroke="#5b00c0" points="172.28,-70.55 174,-81 179.17,-71.75 172.28,-70.55"/>
<text text-anchor="middle" x="277.5" y="-51.8" font-family="Times,serif" font-size="14.00" fill="#5b00c0">rw</text>
</g>
</g>
</svg>
