<?xml version="1.0" encoding="UTF-8" standalone="no"?>
<!DOCTYPE svg PUBLIC "-//W3C//DTD SVG 1.1//EN"
 "http://www.w3.org/Graphics/SVG/1.1/DTD/svg11.dtd">
<!-- Generated by graphviz version 2.43.0 (0)
 -->
<!-- Title: a_graph Pages: 1 -->
<svg width="671pt" height="119pt"
 viewBox="0.00 0.00 671.00 119.00" xmlns="http://www.w3.org/2000/svg" xmlns:xlink="http://www.w3.org/1999/xlink">
<g id="graph0" class="graph" transform="scale(1 1) rotate(0) translate(4 115)">
<title>a_graph</title>
<polygon fill="white" stroke="transparent" points="-4,4 -4,-115 667,-115 667,4 -4,4"/>
<!-- T2697 -->
<g id="node1" class="node">
<title>T2697</title>
<polygon fill="none" stroke="#0058ad" points="0,-81.5 0,-110.5 663,-110.5 663,-81.5 0,-81.5"/>
<text text-anchor="middle" x="39.5" y="-92.3" font-family="Times,serif" font-size="14.00" fill="#0058ad">a 1176 1</text>
<polyline fill="none" stroke="#0058ad" points="79,-81.5 79,-110.5 "/>
<text text-anchor="middle" x="118.5" y="-92.3" font-family="Times,serif" font-size="14.00" fill="#0058ad">a 1174 1</text>
<polyline fill="none" stroke="#0058ad" points="158,-81.5 158,-110.5 "/>
<text text-anchor="middle" x="197.5" y="-92.3" font-family="Times,serif" font-size="14.00" fill="#0058ad">a 1174 2</text>
<polyline fill="none" stroke="#0058ad" points="237,-81.5 237,-110.5 "/>
<text text-anchor="middle" x="281" y="-92.3" font-family="Times,serif" font-size="14.00" fill="#0058ad">r 1172 [1]</text>
<polyline fill="none" stroke="#0058ad" points="325,-81.5 325,-110.5 "/>
<text text-anchor="middle" x="364.5" y="-92.3" font-family="Times,serif" font-size="14.00" fill="#0058ad">a 1175 1</text>
<polyline fill="none" stroke="#0058ad" points="404,-81.5 404,-110.5 "/>
<text text-anchor="middle" x="454.5" y="-92.3" font-family="Times,serif" font-size="14.00" fill="#0058ad">r 1173 [1 2]</text>
<polyline fill="none" stroke="#0058ad" points="505,-81.5 505,-110.5 "/>
<text text-anchor="middle" x="544.5" y="-92.3" font-family="Times,serif" font-size="14.00" fill="#0058ad">a 1174 3</text>
<polyline fill="none" stroke="#0058ad" points="584,-81.5 584,-110.5 "/>
<text text-anchor="middle" x="623.5" y="-92.3" font-family="Times,serif" font-size="14.00" fill="#0058ad">a 1175 2</text>
</g>
<!-- T2696 -->
<g id="node2" class="node">
<title>T2696</title>
<polygon fill="none" stroke="#0058ad" points="131,-0.5 131,-29.5 548,-29.5 548,-0.5 131,-0.5"/>
<text text-anchor="middle" x="170.5" y="-11.3" font-family="Times,serif" font-size="14.00" fill="#0058ad">r 1174 []</text>
<polyline fill="none" stroke="#0058ad" points="210,-0.5 210,-29.5 "/>
<text text-anchor="middle" x="249.5" y="-11.3" font-family="Times,serif" font-size="14.00" fill="#0058ad">a 1172 2</text>
<polyline fill="none" stroke="#0058ad" points="289,-0.5 289,-29.5 "/>
<text text-anchor="middle" x="339.5" y="-11.3" font-family="Times,serif" font-size="14.00" fill="#0058ad">r 1172 [1 2]</text>
<polyline fill="none" stroke="#0058ad" points="390,-0.5 390,-29.5 "/>
<text text-anchor="middle" x="429.5" y="-11.3" font-family="Times,serif" font-size="14.00" fill="#0058ad">r 1177 []</text>
<polyline fill="none" stroke="#0058ad" points="469,-0.5 469,-29.5 "/>
<text text-anchor="middle" x="508.5" y="-11.3" font-family="Times,serif" font-size="14.00" fill="#0058ad">a 1177 1</text>
</g>
<!-- T2697&#45;&gt;T2696 -->
<g id="edge1" class="edge">
<title>T2697:f3&#45;&gt;T2696:f1</title>
<path fill="none" stroke="#5b00c0" d="M280.5,-81C280.5,-58.41 258.02,-56.55 251.35,-40.11"/>
<polygon fill="#5b00c0" stroke="#5b00c0" points="254.74,-39.21 249.5,-30 247.85,-40.47 254.74,-39.21"/>
<text text-anchor="middle" x="282" y="-51.8" font-family="Times,serif" font-size="14.00" fill="#5b00c0">rw</text>
</g>
<!-- T2696&#45;&gt;T2697 -->
<g id="edge2" class="edge">
<title>T2696:f0&#45;&gt;T2697:f1</title>
<path fill="none" stroke="#5b00c0" d="M129.5,-15C103.13,-15 114.88,-43.51 117.88,-70.7"/>
<polygon fill="#5b00c0" stroke="#5b00c0" points="114.4,-71.23 118.5,-81 121.39,-70.81 114.4,-71.23"/>
<text text-anchor="middle" x="127" y="-51.8" font-family="Times,serif" font-size="14.00" fill="#5b00c0">rw</text>
</g>
</g>
</svg>
