<?xml version="1.0" encoding="UTF-8" standalone="no"?>
<!DOCTYPE svg PUBLIC "-//W3C//DTD SVG 1.1//EN"
 "http://www.w3.org/Graphics/SVG/1.1/DTD/svg11.dtd">
<!-- Generated by graphviz version 2.43.0 (0)
 -->
<!-- Title: a_graph Pages: 1 -->
<svg width="888pt" height="119pt"
 viewBox="0.00 0.00 888.00 119.00" xmlns="http://www.w3.org/2000/svg" xmlns:xlink="http://www.w3.org/1999/xlink">
<g id="graph0" class="graph" transform="scale(1 1) rotate(0) translate(4 115)">
<title>a_graph</title>
<polygon fill="white" stroke="transparent" points="-4,4 -4,-115 884,-115 884,4 -4,4"/>
<!-- T3775 -->
<g id="node1" class="node">
<title>T3775</title>
<polygon fill="none" stroke="#0058ad" points="309,-81.5 309,-110.5 880,-110.5 880,-81.5 309,-81.5"/>
<text text-anchor="middle" x="353" y="-92.3" font-family="Times,serif" font-size="14.00" fill="#0058ad">r 1652 [1]</text>
<polyline fill="none" stroke="#0058ad" points="397,-81.5 397,-110.5 "/>
<text text-anchor="middle" x="436.5" y="-92.3" font-family="Times,serif" font-size="14.00" fill="#0058ad">r 1653 []</text>
<polyline fill="none" stroke="#0058ad" points="476,-81.5 476,-110.5 "/>
<text text-anchor="middle" x="515.5" y="-92.3" font-family="Times,serif" font-size="14.00" fill="#0058ad">r 1654 []</text>
<polyline fill="none" stroke="#0058ad" points="555,-81.5 555,-110.5 "/>
<text text-anchor="middle" x="594.5" y="-92.3" font-family="Times,serif" font-size="14.00" fill="#0058ad">a 1653 1</text>
<polyline fill="none" stroke="#0058ad" points="634,-81.5 634,-110.5 "/>
<text text-anchor="middle" x="673.5" y="-92.3" font-family="Times,serif" font-size="14.00" fill="#0058ad">r 1654 []</text>
<polyline fill="none" stroke="#0058ad" points="713,-81.5 713,-110.5 "/>
<text text-anchor="middle" x="752.5" y="-92.3" font-family="Times,serif" font-size="14.00" fill="#0058ad">a 1651 2</text>
<polyline fill="none" stroke="#0058ad" points="792,-81.5 792,-110.5 "/>
<text text-anchor="middle" x="836" y="-92.3" font-family="Times,serif" font-size="14.00" fill="#0058ad">r 1653 [1]</text>
</g>
<!-- T3774 -->
<g id="node2" class="node">
<title>T3774</title>
<polygon fill="none" stroke="#0058ad" points="0,-0.5 0,-29.5 717,-29.5 717,-0.5 0,-0.5"/>
<text text-anchor="middle" x="44" y="-11.3" font-family="Times,serif" font-size="14.00" fill="#0058ad">r 1651 [1]</text>
<polyline fill="none" stroke="#0058ad" points="88,-0.5 88,-29.5 "/>
<text text-anchor="middle" x="132" y="-11.3" font-family="Times,serif" font-size="14.00" fill="#0058ad">r 1652 [1]</text>
<polyline fill="none" stroke="#0058ad" points="176,-0.5 176,-29.5 "/>
<text text-anchor="middle" x="215.5" y="-11.3" font-family="Times,serif" font-size="14.00" fill="#0058ad">a 1652 2</text>
<polyline fill="none" stroke="#0058ad" points="255,-0.5 255,-29.5 "/>
<text text-anchor="middle" x="299" y="-11.3" font-family="Times,serif" font-size="14.00" fill="#0058ad">r 1647 [1]</text>
<polyline fill="none" stroke="#0058ad" points="343,-0.5 343,-29.5 "/>
<text text-anchor="middle" x="393.5" y="-11.3" font-family="Times,serif" font-size="14.00" fill="#0058ad">r 1652 [1 2]</text>
<polyline fill="none" stroke="#0058ad" points="444,-0.5 444,-29.5 "/>
<text text-anchor="middle" x="483.5" y="-11.3" font-family="Times,serif" font-size="14.00" fill="#0058ad">a 1652 3</text>
<polyline fill="none" stroke="#0058ad" points="523,-0.5 523,-29.5 "/>
<text text-anchor="middle" x="580.5" y="-11.3" font-family="Times,serif" font-size="14.00" fill="#0058ad">r 1652 [1 2 3]</text>
<polyline fill="none" stroke="#0058ad" points="638,-0.5 638,-29.5 "/>
<text text-anchor="middle" x="677.5" y="-11.3" font-family="Times,serif" font-size="14.00" fill="#0058ad">r 1653 []</text>
</g>
<!-- T3775&#45;&gt;T3774 -->
<g id="edge1" class="edge">
<title>T3775:f0&#45;&gt;T3774:f2</title>
<path fill="none" stroke="#5b00c0" d="M307.5,-96C260.72,-96 221.4,-82.45 216.11,-40.11"/>
<polygon fill="#5b00c0" stroke="#5b00c0" points="219.59,-39.77 215.5,-30 212.61,-40.19 219.59,-39.77"/>
<text text-anchor="middle" x="233" y="-51.8" font-family="Times,serif" font-size="14.00" fill="#5b00c0">rw</text>
</g>
<!-- T3774&#45;&gt;T3775 -->
<g id="edge2" class="edge">
<title>T3774:f7&#45;&gt;T3775:f3</title>
<path fill="none" stroke="#5b00c0" d="M677.5,-30C677.5,-69.41 608.74,-43.46 596.39,-71.13"/>
<polygon fill="#5b00c0" stroke="#5b00c0" points="592.94,-70.52 594.5,-81 599.82,-71.84 592.94,-70.52"/>
<text text-anchor="middle" x="677" y="-51.8" font-family="Times,serif" font-size="14.00" fill="#5b00c0">rw</text>
</g>
</g>
</svg>
