<?xml version="1.0" encoding="UTF-8" standalone="no"?>
<!DOCTYPE svg PUBLIC "-//W3C//DTD SVG 1.1//EN"
 "http://www.w3.org/Graphics/SVG/1.1/DTD/svg11.dtd">
<!-- Generated by graphviz version 2.43.0 (0)
 -->
<!-- Title: a_graph Pages: 1 -->
<svg width="617pt" height="119pt"
 viewBox="0.00 0.00 616.50 119.00" xmlns="http://www.w3.org/2000/svg" xmlns:xlink="http://www.w3.org/1999/xlink">
<g id="graph0" class="graph" transform="scale(1 1) rotate(0) translate(4 115)">
<title>a_graph</title>
<polygon fill="white" stroke="transparent" points="-4,4 -4,-115 612.5,-115 612.5,4 -4,4"/>
<!-- T793 -->
<g id="node1" class="node">
<title>T793</title>
<polygon fill="none" stroke="#0058ad" points="0,-81.5 0,-110.5 381,-110.5 381,-81.5 0,-81.5"/>
<text text-anchor="middle" x="46" y="-92.3" font-family="Times,serif" font-size="14.00" fill="#0058ad">r 304 [1 2]</text>
<polyline fill="none" stroke="#0058ad" points="92,-81.5 92,-110.5 "/>
<text text-anchor="middle" x="127" y="-92.3" font-family="Times,serif" font-size="14.00" fill="#0058ad">a 338 2</text>
<polyline fill="none" stroke="#0058ad" points="162,-81.5 162,-110.5 "/>
<text text-anchor="middle" x="201.5" y="-92.3" font-family="Times,serif" font-size="14.00" fill="#0058ad">r 334 [1]</text>
<polyline fill="none" stroke="#0058ad" points="241,-81.5 241,-110.5 "/>
<text text-anchor="middle" x="276" y="-92.3" font-family="Times,serif" font-size="14.00" fill="#0058ad">a 338 3</text>
<polyline fill="none" stroke="#0058ad" points="311,-81.5 311,-110.5 "/>
<text text-anchor="middle" x="346" y="-92.3" font-family="Times,serif" font-size="14.00" fill="#0058ad">a 339 1</text>
</g>
<!-- T792 -->
<g id="node2" class="node">
<title>T792</title>
<polygon fill="none" stroke="#0058ad" points="144.5,-0.5 144.5,-29.5 608.5,-29.5 608.5,-0.5 144.5,-0.5"/>
<text text-anchor="middle" x="179.5" y="-11.3" font-family="Times,serif" font-size="14.00" fill="#0058ad">a 334 2</text>
<polyline fill="none" stroke="#0058ad" points="214.5,-0.5 214.5,-29.5 "/>
<text text-anchor="middle" x="260.5" y="-11.3" font-family="Times,serif" font-size="14.00" fill="#0058ad">r 335 [1 2]</text>
<polyline fill="none" stroke="#0058ad" points="306.5,-0.5 306.5,-29.5 "/>
<text text-anchor="middle" x="341.5" y="-11.3" font-family="Times,serif" font-size="14.00" fill="#0058ad">a 334 3</text>
<polyline fill="none" stroke="#0058ad" points="376.5,-0.5 376.5,-29.5 "/>
<text text-anchor="middle" x="411.5" y="-11.3" font-family="Times,serif" font-size="14.00" fill="#0058ad">r 339 []</text>
<polyline fill="none" stroke="#0058ad" points="446.5,-0.5 446.5,-29.5 "/>
<text text-anchor="middle" x="481.5" y="-11.3" font-family="Times,serif" font-size="14.00" fill="#0058ad">r 339 []</text>
<polyline fill="none" stroke="#0058ad" points="516.5,-0.5 516.5,-29.5 "/>
<text text-anchor="middle" x="562.5" y="-11.3" font-family="Times,serif" font-size="14.00" fill="#0058ad">r 335 [1 2]</text>
</g>
<!-- T793&#45;&gt;T792 -->
<g id="edge1" class="edge">
<title>T793:f2&#45;&gt;T792:f0</title>
<path fill="none" stroke="#5b00c0" d="M201.5,-81C201.5,-60.17 185.84,-55.76 180.94,-40.06"/>
<polygon fill="#5b00c0" stroke="#5b00c0" points="184.39,-39.4 179.5,-30 177.46,-40.4 184.39,-39.4"/>
<text text-anchor="middle" x="206" y="-51.8" font-family="Times,serif" font-size="14.00" fill="#5b00c0">rw</text>
</g>
<!-- T792&#45;&gt;T793 -->
<g id="edge2" class="edge">
<title>T792:f3&#45;&gt;T793:f4</title>
<path fill="none" stroke="#5b00c0" d="M411.5,-30C411.5,-62.7 359.94,-48.48 348.66,-70.92"/>
<polygon fill="#5b00c0" stroke="#5b00c0" points="345.18,-70.49 346.5,-81 352.02,-71.96 345.18,-70.49"/>
<text text-anchor="middle" x="410" y="-51.8" font-family="Times,serif" font-size="14.00" fill="#5b00c0">rw</text>
</g>
</g>
</svg>
