<?xml version="1.0" encoding="UTF-8" standalone="no"?>
<!DOCTYPE svg PUBLIC "-//W3C//DTD SVG 1.1//EN"
 "http://www.w3.org/Graphics/SVG/1.1/DTD/svg11.dtd">
<!-- Generated by graphviz version 2.43.0 (0)
 -->
<!-- Title: a_graph Pages: 1 -->
<svg width="676pt" height="119pt"
 viewBox="0.00 0.00 675.50 119.00" xmlns="http://www.w3.org/2000/svg" xmlns:xlink="http://www.w3.org/1999/xlink">
<g id="graph0" class="graph" transform="scale(1 1) rotate(0) translate(4 115)">
<title>a_graph</title>
<polygon fill="white" stroke="transparent" points="-4,4 -4,-115 671.5,-115 671.5,4 -4,4"/>
<!-- T1773 -->
<g id="node1" class="node">
<title>T1773</title>
<polygon fill="none" stroke="#0058ad" points="76.5,-81.5 76.5,-110.5 667.5,-110.5 667.5,-81.5 76.5,-81.5"/>
<text text-anchor="middle" x="122.5" y="-92.3" font-family="Times,serif" font-size="14.00" fill="#0058ad">r 764 [1 2]</text>
<polyline fill="none" stroke="#0058ad" points="168.5,-81.5 168.5,-110.5 "/>
<text text-anchor="middle" x="203.5" y="-92.3" font-family="Times,serif" font-size="14.00" fill="#0058ad">a 764 3</text>
<polyline fill="none" stroke="#0058ad" points="238.5,-81.5 238.5,-110.5 "/>
<text text-anchor="middle" x="273.5" y="-92.3" font-family="Times,serif" font-size="14.00" fill="#0058ad">r 765 []</text>
<polyline fill="none" stroke="#0058ad" points="308.5,-81.5 308.5,-110.5 "/>
<text text-anchor="middle" x="343.5" y="-92.3" font-family="Times,serif" font-size="14.00" fill="#0058ad">r 767 []</text>
<polyline fill="none" stroke="#0058ad" points="378.5,-81.5 378.5,-110.5 "/>
<text text-anchor="middle" x="413.5" y="-92.3" font-family="Times,serif" font-size="14.00" fill="#0058ad">a 767 1</text>
<polyline fill="none" stroke="#0058ad" points="448.5,-81.5 448.5,-110.5 "/>
<text text-anchor="middle" x="488" y="-92.3" font-family="Times,serif" font-size="14.00" fill="#0058ad">r 762 [1]</text>
<polyline fill="none" stroke="#0058ad" points="527.5,-81.5 527.5,-110.5 "/>
<text text-anchor="middle" x="562.5" y="-92.3" font-family="Times,serif" font-size="14.00" fill="#0058ad">r 766 []</text>
<polyline fill="none" stroke="#0058ad" points="597.5,-81.5 597.5,-110.5 "/>
<text text-anchor="middle" x="632.5" y="-92.3" font-family="Times,serif" font-size="14.00" fill="#0058ad">a 767 2</text>
</g>
<!-- T1772 -->
<g id="node2" class="node">
<title>T1772</title>
<polygon fill="none" stroke="#0058ad" points="0,-0.5 0,-29.5 626,-29.5 626,-0.5 0,-0.5"/>
<text text-anchor="middle" x="46" y="-11.3" font-family="Times,serif" font-size="14.00" fill="#0058ad">r 758 [1 2]</text>
<polyline fill="none" stroke="#0058ad" points="92,-0.5 92,-29.5 "/>
<text text-anchor="middle" x="127" y="-11.3" font-family="Times,serif" font-size="14.00" fill="#0058ad">a 765 1</text>
<polyline fill="none" stroke="#0058ad" points="162,-0.5 162,-29.5 "/>
<text text-anchor="middle" x="197" y="-11.3" font-family="Times,serif" font-size="14.00" fill="#0058ad">a 765 2</text>
<polyline fill="none" stroke="#0058ad" points="232,-0.5 232,-29.5 "/>
<text text-anchor="middle" x="267" y="-11.3" font-family="Times,serif" font-size="14.00" fill="#0058ad">a 765 3</text>
<polyline fill="none" stroke="#0058ad" points="302,-0.5 302,-29.5 "/>
<text text-anchor="middle" x="348" y="-11.3" font-family="Times,serif" font-size="14.00" fill="#0058ad">r 764 [1 2]</text>
<polyline fill="none" stroke="#0058ad" points="394,-0.5 394,-29.5 "/>
<text text-anchor="middle" x="440" y="-11.3" font-family="Times,serif" font-size="14.00" fill="#0058ad">r 764 [1 2]</text>
<polyline fill="none" stroke="#0058ad" points="486,-0.5 486,-29.5 "/>
<text text-anchor="middle" x="521" y="-11.3" font-family="Times,serif" font-size="14.00" fill="#0058ad">a 762 2</text>
<polyline fill="none" stroke="#0058ad" points="556,-0.5 556,-29.5 "/>
<text text-anchor="middle" x="591" y="-11.3" font-family="Times,serif" font-size="14.00" fill="#0058ad">a 758 3</text>
</g>
<!-- T1773&#45;&gt;T1772 -->
<g id="edge1" class="edge">
<title>T1773:f2&#45;&gt;T1772:f1</title>
<path fill="none" stroke="#5b00c0" d="M273,-81C273,-57.95 253.96,-57.59 233,-48 214.67,-39.61 151.81,-49.57 132.61,-38.54"/>
<polygon fill="#5b00c0" stroke="#5b00c0" points="135.42,-36.43 127,-30 129.57,-40.28 135.42,-36.43"/>
<text text-anchor="middle" x="274.5" y="-51.8" font-family="Times,serif" font-size="14.00" fill="#5b00c0">rw</text>
</g>
<!-- T1772&#45;&gt;T1773 -->
<g id="edge2" class="edge">
<title>T1772:f4&#45;&gt;T1773:f1</title>
<path fill="none" stroke="#5b00c0" d="M348,-30C348,-60.93 232.72,-27.02 210,-48 201.74,-55.63 201.93,-61.94 202.54,-70.95"/>
<polygon fill="#5b00c0" stroke="#5b00c0" points="199.05,-71.17 203,-81 206.04,-70.85 199.05,-71.17"/>
<text text-anchor="middle" x="219.5" y="-51.8" font-family="Times,serif" font-size="14.00" fill="#5b00c0">rw</text>
</g>
</g>
</svg>
