<?xml version="1.0" encoding="UTF-8" standalone="no"?>
<!DOCTYPE svg PUBLIC "-//W3C//DTD SVG 1.1//EN"
 "http://www.w3.org/Graphics/SVG/1.1/DTD/svg11.dtd">
<!-- Generated by graphviz version 2.43.0 (0)
 -->
<!-- Title: a_graph Pages: 1 -->
<svg width="556pt" height="119pt"
 viewBox="0.00 0.00 556.00 119.00" xmlns="http://www.w3.org/2000/svg" xmlns:xlink="http://www.w3.org/1999/xlink">
<g id="graph0" class="graph" transform="scale(1 1) rotate(0) translate(4 115)">
<title>a_graph</title>
<polygon fill="white" stroke="transparent" points="-4,4 -4,-115 552,-115 552,4 -4,4"/>
<!-- T466 -->
<g id="node1" class="node">
<title>T466</title>
<polygon fill="none" stroke="#0058ad" points="142.5,-81.5 142.5,-110.5 453.5,-110.5 453.5,-81.5 142.5,-81.5"/>
<text text-anchor="middle" x="177.5" y="-92.3" font-family="Times,serif" font-size="14.00" fill="#0058ad">r 202 []</text>
<polyline fill="none" stroke="#0058ad" points="212.5,-81.5 212.5,-110.5 "/>
<text text-anchor="middle" x="247.5" y="-92.3" font-family="Times,serif" font-size="14.00" fill="#0058ad">a 202 1</text>
<polyline fill="none" stroke="#0058ad" points="282.5,-81.5 282.5,-110.5 "/>
<text text-anchor="middle" x="322" y="-92.3" font-family="Times,serif" font-size="14.00" fill="#0058ad">r 194 [2]</text>
<polyline fill="none" stroke="#0058ad" points="361.5,-81.5 361.5,-110.5 "/>
<text text-anchor="middle" x="407.5" y="-92.3" font-family="Times,serif" font-size="14.00" fill="#0058ad">r 201 [1 2]</text>
</g>
<!-- T465 -->
<g id="node2" class="node">
<title>T465</title>
<polygon fill="none" stroke="#0058ad" points="0,-0.5 0,-29.5 548,-29.5 548,-0.5 0,-0.5"/>
<text text-anchor="middle" x="46" y="-11.3" font-family="Times,serif" font-size="14.00" fill="#0058ad">r 201 [1 2]</text>
<polyline fill="none" stroke="#0058ad" points="92,-0.5 92,-29.5 "/>
<text text-anchor="middle" x="127" y="-11.3" font-family="Times,serif" font-size="14.00" fill="#0058ad">a 194 3</text>
<polyline fill="none" stroke="#0058ad" points="162,-0.5 162,-29.5 "/>
<text text-anchor="middle" x="197" y="-11.3" font-family="Times,serif" font-size="14.00" fill="#0058ad">a 199 1</text>
<polyline fill="none" stroke="#0058ad" points="232,-0.5 232,-29.5 "/>
<text text-anchor="middle" x="285" y="-11.3" font-family="Times,serif" font-size="14.00" fill="#0058ad">r 155 [1 2 3]</text>
<polyline fill="none" stroke="#0058ad" points="338,-0.5 338,-29.5 "/>
<text text-anchor="middle" x="373" y="-11.3" font-family="Times,serif" font-size="14.00" fill="#0058ad">a 200 3</text>
<polyline fill="none" stroke="#0058ad" points="408,-0.5 408,-29.5 "/>
<text text-anchor="middle" x="443" y="-11.3" font-family="Times,serif" font-size="14.00" fill="#0058ad">r 202 []</text>
<polyline fill="none" stroke="#0058ad" points="478,-0.5 478,-29.5 "/>
<text text-anchor="middle" x="513" y="-11.3" font-family="Times,serif" font-size="14.00" fill="#0058ad">a 201 3</text>
</g>
<!-- T466&#45;&gt;T465 -->
<g id="edge1" class="edge">
<title>T466:f2&#45;&gt;T465:f1</title>
<path fill="none" stroke="#5b00c0" d="M322,-81C322,-56.91 301.32,-57.07 279,-48 251.06,-36.64 153.16,-58.02 131.33,-39.29"/>
<polygon fill="#5b00c0" stroke="#5b00c0" points="134.4,-37.58 127,-30 128.06,-40.54 134.4,-37.58"/>
<text text-anchor="middle" x="324.5" y="-51.8" font-family="Times,serif" font-size="14.00" fill="#5b00c0">rw</text>
</g>
<!-- T465&#45;&gt;T466 -->
<g id="edge2" class="edge">
<title>T465:f5&#45;&gt;T466:f1</title>
<path fill="none" stroke="#5b00c0" d="M443,-30C443,-71.75 287.92,-21.1 256,-48 247.28,-55.35 246.58,-61.68 246.77,-70.81"/>
<polygon fill="#5b00c0" stroke="#5b00c0" points="243.28,-71.08 247,-81 250.27,-70.92 243.28,-71.08"/>
<text text-anchor="middle" x="265.5" y="-51.8" font-family="Times,serif" font-size="14.00" fill="#5b00c0">rw</text>
</g>
</g>
</svg>
