<?xml version="1.0" encoding="UTF-8" standalone="no"?>
<!DOCTYPE svg PUBLIC "-//W3C//DTD SVG 1.1//EN"
 "http://www.w3.org/Graphics/SVG/1.1/DTD/svg11.dtd">
<!-- Generated by graphviz version 2.43.0 (0)
 -->
<!-- Title: a_graph Pages: 1 -->
<svg width="973pt" height="119pt"
 viewBox="0.00 0.00 973.00 119.00" xmlns="http://www.w3.org/2000/svg" xmlns:xlink="http://www.w3.org/1999/xlink">
<g id="graph0" class="graph" transform="scale(1 1) rotate(0) translate(4 115)">
<title>a_graph</title>
<polygon fill="white" stroke="transparent" points="-4,4 -4,-115 969,-115 969,4 -4,4"/>
<!-- T2091 -->
<g id="node1" class="node">
<title>T2091</title>
<polygon fill="none" stroke="#0058ad" points="431,-81.5 431,-110.5 965,-110.5 965,-81.5 431,-81.5"/>
<text text-anchor="middle" x="477" y="-92.3" font-family="Times,serif" font-size="14.00" fill="#0058ad">r 896 [1 2]</text>
<polyline fill="none" stroke="#0058ad" points="523,-81.5 523,-110.5 "/>
<text text-anchor="middle" x="558" y="-92.3" font-family="Times,serif" font-size="14.00" fill="#0058ad">r 892 []</text>
<polyline fill="none" stroke="#0058ad" points="593,-81.5 593,-110.5 "/>
<text text-anchor="middle" x="628" y="-92.3" font-family="Times,serif" font-size="14.00" fill="#0058ad">r 897 []</text>
<polyline fill="none" stroke="#0058ad" points="663,-81.5 663,-110.5 "/>
<text text-anchor="middle" x="698" y="-92.3" font-family="Times,serif" font-size="14.00" fill="#0058ad">a 892 1</text>
<polyline fill="none" stroke="#0058ad" points="733,-81.5 733,-110.5 "/>
<text text-anchor="middle" x="768" y="-92.3" font-family="Times,serif" font-size="14.00" fill="#0058ad">r 897 []</text>
<polyline fill="none" stroke="#0058ad" points="803,-81.5 803,-110.5 "/>
<text text-anchor="middle" x="849" y="-92.3" font-family="Times,serif" font-size="14.00" fill="#0058ad">r 896 [1 2]</text>
<polyline fill="none" stroke="#0058ad" points="895,-81.5 895,-110.5 "/>
<text text-anchor="middle" x="930" y="-92.3" font-family="Times,serif" font-size="14.00" fill="#0058ad">r 897 []</text>
</g>
<!-- T2090 -->
<g id="node2" class="node">
<title>T2090</title>
<polygon fill="none" stroke="#0058ad" points="0,-0.5 0,-29.5 740,-29.5 740,-0.5 0,-0.5"/>
<text text-anchor="middle" x="53" y="-11.3" font-family="Times,serif" font-size="14.00" fill="#0058ad">r 887 [1 2 3]</text>
<polyline fill="none" stroke="#0058ad" points="106,-0.5 106,-29.5 "/>
<text text-anchor="middle" x="159" y="-11.3" font-family="Times,serif" font-size="14.00" fill="#0058ad">r 895 [1 2 3]</text>
<polyline fill="none" stroke="#0058ad" points="212,-0.5 212,-29.5 "/>
<text text-anchor="middle" x="265" y="-11.3" font-family="Times,serif" font-size="14.00" fill="#0058ad">r 895 [1 2 3]</text>
<polyline fill="none" stroke="#0058ad" points="318,-0.5 318,-29.5 "/>
<text text-anchor="middle" x="371" y="-11.3" font-family="Times,serif" font-size="14.00" fill="#0058ad">r 895 [1 2 3]</text>
<polyline fill="none" stroke="#0058ad" points="424,-0.5 424,-29.5 "/>
<text text-anchor="middle" x="459" y="-11.3" font-family="Times,serif" font-size="14.00" fill="#0058ad">a 896 3</text>
<polyline fill="none" stroke="#0058ad" points="494,-0.5 494,-29.5 "/>
<text text-anchor="middle" x="547" y="-11.3" font-family="Times,serif" font-size="14.00" fill="#0058ad">r 895 [1 2 3]</text>
<polyline fill="none" stroke="#0058ad" points="600,-0.5 600,-29.5 "/>
<text text-anchor="middle" x="635" y="-11.3" font-family="Times,serif" font-size="14.00" fill="#0058ad">a 879 3</text>
<polyline fill="none" stroke="#0058ad" points="670,-0.5 670,-29.5 "/>
<text text-anchor="middle" x="705" y="-11.3" font-family="Times,serif" font-size="14.00" fill="#0058ad">r 892 []</text>
</g>
<!-- T2091&#45;&gt;T2090 -->
<g id="edge1" class="edge">
<title>T2091:f0&#45;&gt;T2090:f4</title>
<path fill="none" stroke="#5b00c0" d="M477,-81C477,-60.91 464.42,-55.57 460.29,-40.31"/>
<polygon fill="#5b00c0" stroke="#5b00c0" points="463.72,-39.49 459,-30 456.77,-40.36 463.72,-39.49"/>
<text text-anchor="middle" x="482.5" y="-51.8" font-family="Times,serif" font-size="14.00" fill="#5b00c0">rw</text>
</g>
<!-- T2090&#45;&gt;T2091 -->
<g id="edge2" class="edge">
<title>T2090:f7&#45;&gt;T2091:f3</title>
<path fill="none" stroke="#5b00c0" d="M705,-30C705,-49.13 700.11,-55.93 698.5,-71.01"/>
<polygon fill="#5b00c0" stroke="#5b00c0" points="695.01,-70.84 698,-81 702,-71.19 695.01,-70.84"/>
<text text-anchor="middle" x="712.5" y="-51.8" font-family="Times,serif" font-size="14.00" fill="#5b00c0">rw</text>
</g>
</g>
</svg>
