<?xml version="1.0" encoding="UTF-8" standalone="no"?>
<!DOCTYPE svg PUBLIC "-//W3C//DTD SVG 1.1//EN"
 "http://www.w3.org/Graphics/SVG/1.1/DTD/svg11.dtd">
<!-- Generated by graphviz version 2.43.0 (0)
 -->
<!-- Title: a_graph Pages: 1 -->
<svg width="766pt" height="119pt"
 viewBox="0.00 0.00 765.50 119.00" xmlns="http://www.w3.org/2000/svg" xmlns:xlink="http://www.w3.org/1999/xlink">
<g id="graph0" class="graph" transform="scale(1 1) rotate(0) translate(4 115)">
<title>a_graph</title>
<polygon fill="white" stroke="transparent" points="-4,4 -4,-115 761.5,-115 761.5,4 -4,4"/>
<!-- T2760 -->
<g id="node1" class="node">
<title>T2760</title>
<polygon fill="none" stroke="#0058ad" points="0,-81.5 0,-110.5 690,-110.5 690,-81.5 0,-81.5"/>
<text text-anchor="middle" x="39.5" y="-92.3" font-family="Times,serif" font-size="14.00" fill="#0058ad">a 1196 2</text>
<polyline fill="none" stroke="#0058ad" points="79,-81.5 79,-110.5 "/>
<text text-anchor="middle" x="118.5" y="-92.3" font-family="Times,serif" font-size="14.00" fill="#0058ad">a 1196 3</text>
<polyline fill="none" stroke="#0058ad" points="158,-81.5 158,-110.5 "/>
<text text-anchor="middle" x="197.5" y="-92.3" font-family="Times,serif" font-size="14.00" fill="#0058ad">a 1201 2</text>
<polyline fill="none" stroke="#0058ad" points="237,-81.5 237,-110.5 "/>
<text text-anchor="middle" x="276.5" y="-92.3" font-family="Times,serif" font-size="14.00" fill="#0058ad">r 1200 []</text>
<polyline fill="none" stroke="#0058ad" points="316,-81.5 316,-110.5 "/>
<text text-anchor="middle" x="355.5" y="-92.3" font-family="Times,serif" font-size="14.00" fill="#0058ad">a 1199 2</text>
<polyline fill="none" stroke="#0058ad" points="395,-81.5 395,-110.5 "/>
<text text-anchor="middle" x="445.5" y="-92.3" font-family="Times,serif" font-size="14.00" fill="#0058ad">r 1201 [1 2]</text>
<polyline fill="none" stroke="#0058ad" points="496,-81.5 496,-110.5 "/>
<text text-anchor="middle" x="553.5" y="-92.3" font-family="Times,serif" font-size="14.00" fill="#0058ad">r 1196 [1 2 3]</text>
<polyline fill="none" stroke="#0058ad" points="611,-81.5 611,-110.5 "/>
<text text-anchor="middle" x="650.5" y="-92.3" font-family="Times,serif" font-size="14.00" fill="#0058ad">a 1199 3</text>
</g>
<!-- T2761 -->
<g id="node2" class="node">
<title>T2761</title>
<polygon fill="none" stroke="#0058ad" points="142.5,-0.5 142.5,-29.5 757.5,-29.5 757.5,-0.5 142.5,-0.5"/>
<text text-anchor="middle" x="182" y="-11.3" font-family="Times,serif" font-size="14.00" fill="#0058ad">r 1200 []</text>
<polyline fill="none" stroke="#0058ad" points="221.5,-0.5 221.5,-29.5 "/>
<text text-anchor="middle" x="265.5" y="-11.3" font-family="Times,serif" font-size="14.00" fill="#0058ad">r 1199 [1]</text>
<polyline fill="none" stroke="#0058ad" points="309.5,-0.5 309.5,-29.5 "/>
<text text-anchor="middle" x="349" y="-11.3" font-family="Times,serif" font-size="14.00" fill="#0058ad">a 1200 1</text>
<polyline fill="none" stroke="#0058ad" points="388.5,-0.5 388.5,-29.5 "/>
<text text-anchor="middle" x="432.5" y="-11.3" font-family="Times,serif" font-size="14.00" fill="#0058ad">r 1199 [1]</text>
<polyline fill="none" stroke="#0058ad" points="476.5,-0.5 476.5,-29.5 "/>
<text text-anchor="middle" x="516" y="-11.3" font-family="Times,serif" font-size="14.00" fill="#0058ad">a 1200 2</text>
<polyline fill="none" stroke="#0058ad" points="555.5,-0.5 555.5,-29.5 "/>
<text text-anchor="middle" x="606" y="-11.3" font-family="Times,serif" font-size="14.00" fill="#0058ad">r 1200 [1 2]</text>
<polyline fill="none" stroke="#0058ad" points="656.5,-0.5 656.5,-29.5 "/>
<text text-anchor="middle" x="707" y="-11.3" font-family="Times,serif" font-size="14.00" fill="#0058ad">r 1200 [1 2]</text>
</g>
<!-- T2760&#45;&gt;T2761 -->
<g id="edge1" class="edge">
<title>T2760:f3&#45;&gt;T2761:f2</title>
<path fill="none" stroke="#5b00c0" d="M276,-81C276,-63.85 282.63,-58.74 296,-48 311.76,-35.34 336.9,-47.79 345.77,-39.56"/>
<polygon fill="#5b00c0" stroke="#5b00c0" points="349.12,-40.59 349,-30 342.48,-38.35 349.12,-40.59"/>
<text text-anchor="middle" x="305.5" y="-51.8" font-family="Times,serif" font-size="14.00" fill="#5b00c0">rw</text>
</g>
<!-- T2761&#45;&gt;T2760 -->
<g id="edge2" class="edge">
<title>T2761:f1&#45;&gt;T2760:f4</title>
<path fill="none" stroke="#5b00c0" d="M265,-30C265,-53.62 294.41,-36.44 315,-48 331.89,-57.48 348.92,-57.85 354.28,-70.98"/>
<polygon fill="#5b00c0" stroke="#5b00c0" points="350.86,-71.74 356,-81 357.76,-70.55 350.86,-71.74"/>
<text text-anchor="middle" x="357.5" y="-51.8" font-family="Times,serif" font-size="14.00" fill="#5b00c0">rw</text>
</g>
</g>
</svg>
