<?xml version="1.0" encoding="UTF-8" standalone="no"?>
<!DOCTYPE svg PUBLIC "-//W3C//DTD SVG 1.1//EN"
 "http://www.w3.org/Graphics/SVG/1.1/DTD/svg11.dtd">
<!-- Generated by graphviz version 2.43.0 (0)
 -->
<!-- Title: a_graph Pages: 1 -->
<svg width="639pt" height="119pt"
 viewBox="0.00 0.00 639.00 119.00" xmlns="http://www.w3.org/2000/svg" xmlns:xlink="http://www.w3.org/1999/xlink">
<g id="graph0" class="graph" transform="scale(1 1) rotate(0) translate(4 115)">
<title>a_graph</title>
<polygon fill="white" stroke="transparent" points="-4,4 -4,-115 635,-115 635,4 -4,4"/>
<!-- T536 -->
<g id="node1" class="node">
<title>T536</title>
<polygon fill="none" stroke="#0058ad" points="0,-81.5 0,-110.5 626,-110.5 626,-81.5 0,-81.5"/>
<text text-anchor="middle" x="35" y="-92.3" font-family="Times,serif" font-size="14.00" fill="#0058ad">a 229 1</text>
<polyline fill="none" stroke="#0058ad" points="70,-81.5 70,-110.5 "/>
<text text-anchor="middle" x="105" y="-92.3" font-family="Times,serif" font-size="14.00" fill="#0058ad">a 230 2</text>
<polyline fill="none" stroke="#0058ad" points="140,-81.5 140,-110.5 "/>
<text text-anchor="middle" x="186" y="-92.3" font-family="Times,serif" font-size="14.00" fill="#0058ad">r 228 [1 2]</text>
<polyline fill="none" stroke="#0058ad" points="232,-81.5 232,-110.5 "/>
<text text-anchor="middle" x="278" y="-92.3" font-family="Times,serif" font-size="14.00" fill="#0058ad">r 228 [1 2]</text>
<polyline fill="none" stroke="#0058ad" points="324,-81.5 324,-110.5 "/>
<text text-anchor="middle" x="359" y="-92.3" font-family="Times,serif" font-size="14.00" fill="#0058ad">a 230 3</text>
<polyline fill="none" stroke="#0058ad" points="394,-81.5 394,-110.5 "/>
<text text-anchor="middle" x="440" y="-92.3" font-family="Times,serif" font-size="14.00" fill="#0058ad">r 228 [1 2]</text>
<polyline fill="none" stroke="#0058ad" points="486,-81.5 486,-110.5 "/>
<text text-anchor="middle" x="521" y="-92.3" font-family="Times,serif" font-size="14.00" fill="#0058ad">r 231 []</text>
<polyline fill="none" stroke="#0058ad" points="556,-81.5 556,-110.5 "/>
<text text-anchor="middle" x="591" y="-92.3" font-family="Times,serif" font-size="14.00" fill="#0058ad">a 228 3</text>
</g>
<!-- T537 -->
<g id="node2" class="node">
<title>T537</title>
<polygon fill="none" stroke="#0058ad" points="123,-0.5 123,-29.5 631,-29.5 631,-0.5 123,-0.5"/>
<text text-anchor="middle" x="158" y="-11.3" font-family="Times,serif" font-size="14.00" fill="#0058ad">r 229 []</text>
<polyline fill="none" stroke="#0058ad" points="193,-0.5 193,-29.5 "/>
<text text-anchor="middle" x="228" y="-11.3" font-family="Times,serif" font-size="14.00" fill="#0058ad">r 231 []</text>
<polyline fill="none" stroke="#0058ad" points="263,-0.5 263,-29.5 "/>
<text text-anchor="middle" x="298" y="-11.3" font-family="Times,serif" font-size="14.00" fill="#0058ad">a 224 3</text>
<polyline fill="none" stroke="#0058ad" points="333,-0.5 333,-29.5 "/>
<text text-anchor="middle" x="372.5" y="-11.3" font-family="Times,serif" font-size="14.00" fill="#0058ad">r 214 [1]</text>
<polyline fill="none" stroke="#0058ad" points="412,-0.5 412,-29.5 "/>
<text text-anchor="middle" x="447" y="-11.3" font-family="Times,serif" font-size="14.00" fill="#0058ad">a 231 1</text>
<polyline fill="none" stroke="#0058ad" points="482,-0.5 482,-29.5 "/>
<text text-anchor="middle" x="521.5" y="-11.3" font-family="Times,serif" font-size="14.00" fill="#0058ad">r 231 [1]</text>
<polyline fill="none" stroke="#0058ad" points="561,-0.5 561,-29.5 "/>
<text text-anchor="middle" x="596" y="-11.3" font-family="Times,serif" font-size="14.00" fill="#0058ad">a 231 2</text>
</g>
<!-- T536&#45;&gt;T537 -->
<g id="edge1" class="edge">
<title>T536:f6&#45;&gt;T537:f4</title>
<path fill="none" stroke="#5b00c0" d="M521,-81C521,-44.96 460.75,-64.96 448.98,-39.86"/>
<polygon fill="#5b00c0" stroke="#5b00c0" points="452.4,-39.12 447,-30 445.54,-40.49 452.4,-39.12"/>
<text text-anchor="middle" x="519.5" y="-51.8" font-family="Times,serif" font-size="14.00" fill="#5b00c0">rw</text>
</g>
<!-- T537&#45;&gt;T536 -->
<g id="edge2" class="edge">
<title>T537:f0&#45;&gt;T536:f0</title>
<path fill="none" stroke="#5b00c0" d="M122,-15C76.97,-15 40.61,-30.03 35.59,-70.96"/>
<polygon fill="#5b00c0" stroke="#5b00c0" points="32.09,-70.81 35,-81 39.08,-71.22 32.09,-70.81"/>
<text text-anchor="middle" x="52.5" y="-51.8" font-family="Times,serif" font-size="14.00" fill="#5b00c0">rw</text>
</g>
</g>
</svg>
