<?xml version="1.0" encoding="UTF-8" standalone="no"?>
<!DOCTYPE svg PUBLIC "-//W3C//DTD SVG 1.1//EN"
 "http://www.w3.org/Graphics/SVG/1.1/DTD/svg11.dtd">
<!-- Generated by graphviz version 2.43.0 (0)
 -->
<!-- Title: a_graph Pages: 1 -->
<svg width="2793pt" height="120pt"
 viewBox="0.00 0.00 2793.00 119.77" xmlns="http://www.w3.org/2000/svg" xmlns:xlink="http://www.w3.org/1999/xlink">
<g id="graph0" class="graph" transform="scale(1 1) rotate(0) translate(4 115.77)">
<title>a_graph</title>
<polygon fill="white" stroke="transparent" points="-4,4 -4,-115.77 2789,-115.77 2789,4 -4,4"/>
<!-- T2331 -->
<g id="node1" class="node">
<title>T2331</title>
<polygon fill="none" stroke="#0058ad" points="0,-81.87 0,-110.87 2785,-110.87 2785,-81.87 0,-81.87"/>
<text text-anchor="middle" x="305" y="-92.67" font-family="Times,serif" font-size="14.00" fill="#0058ad">r 87 [4 5 6 7 8 9 10 11 12 13 14 15 16 17 18 19 20 21 22 23 24 25 26 27 28 29 30]</text>
<polyline fill="none" stroke="#0058ad" points="610,-81.87 610,-110.87 "/>
<text text-anchor="middle" x="915" y="-92.67" font-family="Times,serif" font-size="14.00" fill="#0058ad">r 87 [4 5 6 7 8 9 10 11 12 13 14 15 16 17 18 19 20 21 22 23 24 25 26 27 28 29 30]</text>
<polyline fill="none" stroke="#0058ad" points="1220,-81.87 1220,-110.87 "/>
<text text-anchor="middle" x="1412.5" y="-92.67" font-family="Times,serif" font-size="14.00" fill="#0058ad">r 86 [1 5 6 7 8 9 10 11 12 13 14 15 16 17 18 19 20]</text>
<polyline fill="none" stroke="#0058ad" points="1605,-81.87 1605,-110.87 "/>
<text text-anchor="middle" x="1640" y="-92.67" font-family="Times,serif" font-size="14.00" fill="#0058ad">a 87 31</text>
<polyline fill="none" stroke="#0058ad" points="1675,-81.87 1675,-110.87 "/>
<text text-anchor="middle" x="1867.5" y="-92.67" font-family="Times,serif" font-size="14.00" fill="#0058ad">r 86 [1 5 6 7 8 9 10 11 12 13 14 15 16 17 18 19 20]</text>
<polyline fill="none" stroke="#0058ad" points="2060,-81.87 2060,-110.87 "/>
<text text-anchor="middle" x="2095" y="-92.67" font-family="Times,serif" font-size="14.00" fill="#0058ad">a 87 32</text>
<polyline fill="none" stroke="#0058ad" points="2130,-81.87 2130,-110.87 "/>
<text text-anchor="middle" x="2457.5" y="-92.67" font-family="Times,serif" font-size="14.00" fill="#0058ad">r 87 [4 5 6 7 8 9 10 11 12 13 14 15 16 17 18 19 20 21 22 23 24 25 26 27 28 29 30 31 32]</text>
</g>
<!-- T2333 -->
<g id="node2" class="node">
<title>T2333</title>
<polygon fill="none" stroke="#0058ad" points="1030.5,-0.87 1030.5,-29.87 2646.5,-29.87 2646.5,-0.87 1030.5,-0.87"/>
<text text-anchor="middle" x="1065.5" y="-11.67" font-family="Times,serif" font-size="14.00" fill="#0058ad">a 86 21</text>
<polyline fill="none" stroke="#0058ad" points="1100.5,-0.87 1100.5,-29.87 "/>
<text text-anchor="middle" x="1304" y="-11.67" font-family="Times,serif" font-size="14.00" fill="#0058ad">r 86 [1 5 6 7 8 9 10 11 12 13 14 15 16 17 18 19 20 21]</text>
<polyline fill="none" stroke="#0058ad" points="1507.5,-0.87 1507.5,-29.87 "/>
<text text-anchor="middle" x="1711" y="-11.67" font-family="Times,serif" font-size="14.00" fill="#0058ad">r 86 [1 5 6 7 8 9 10 11 12 13 14 15 16 17 18 19 20 21]</text>
<polyline fill="none" stroke="#0058ad" points="1914.5,-0.87 1914.5,-29.87 "/>
<text text-anchor="middle" x="2219.5" y="-11.67" font-family="Times,serif" font-size="14.00" fill="#0058ad">r 87 [4 5 6 7 8 9 10 11 12 13 14 15 16 17 18 19 20 21 22 23 24 25 26 27 28 29 30]</text>
<polyline fill="none" stroke="#0058ad" points="2524.5,-0.87 2524.5,-29.87 "/>
<text text-anchor="middle" x="2555" y="-11.67" font-family="Times,serif" font-size="14.00" fill="#0058ad">r 88 []</text>
<polyline fill="none" stroke="#0058ad" points="2585.5,-0.87 2585.5,-29.87 "/>
<text text-anchor="middle" x="2616" y="-11.67" font-family="Times,serif" font-size="14.00" fill="#0058ad">a 88 1</text>
</g>
<!-- T2331&#45;&gt;T2333 -->
<g id="edge1" class="edge">
<title>T2331:f2&#45;&gt;T2333:f0</title>
<path fill="none" stroke="#5b00c0" d="M1412.5,-81.37C1412.5,70.86 1081.58,-174.25 1066.06,-40.65"/>
<polygon fill="#5b00c0" stroke="#5b00c0" points="1069.54,-40.16 1065.5,-30.37 1062.55,-40.54 1069.54,-40.16"/>
<text text-anchor="middle" x="1419" y="-52.17" font-family="Times,serif" font-size="14.00" fill="#5b00c0">rw</text>
</g>
<!-- T2333&#45;&gt;T2331 -->
<g id="edge2" class="edge">
<title>T2333:f3&#45;&gt;T2331:f3</title>
<path fill="none" stroke="#5b00c0" d="M2219.5,-30.37C2219.5,-285.16 1656.22,164.37 1640.82,-71.17"/>
<polygon fill="#5b00c0" stroke="#5b00c0" points="1637.32,-71.26 1640.5,-81.37 1644.31,-71.48 1637.32,-71.26"/>
<text text-anchor="middle" x="2226" y="-52.17" font-family="Times,serif" font-size="14.00" fill="#5b00c0">rw</text>
</g>
</g>
</svg>
