<?xml version="1.0" encoding="UTF-8" standalone="no"?>
<!DOCTYPE svg PUBLIC "-//W3C//DTD SVG 1.1//EN"
 "http://www.w3.org/Graphics/SVG/1.1/DTD/svg11.dtd">
<!-- Generated by graphviz version 2.43.0 (0)
 -->
<!-- Title: a_graph Pages: 1 -->
<svg width="2152pt" height="119pt"
 viewBox="0.00 0.00 2152.00 119.00" xmlns="http://www.w3.org/2000/svg" xmlns:xlink="http://www.w3.org/1999/xlink">
<g id="graph0" class="graph" transform="scale(1 1) rotate(0) translate(4 115)">
<title>a_graph</title>
<polygon fill="white" stroke="transparent" points="-4,4 -4,-115 2148,-115 2148,4 -4,4"/>
<!-- T1848 -->
<g id="node1" class="node">
<title>T1848</title>
<polygon fill="none" stroke="#0058ad" points="497,-81.5 497,-110.5 1531,-110.5 1531,-81.5 497,-81.5"/>
<text text-anchor="middle" x="550" y="-92.3" font-family="Times,serif" font-size="14.00" fill="#0058ad">r 208 [1 2 3]</text>
<polyline fill="none" stroke="#0058ad" points="603,-81.5 603,-110.5 "/>
<text text-anchor="middle" x="642.5" y="-92.3" font-family="Times,serif" font-size="14.00" fill="#0058ad">a 209 32</text>
<polyline fill="none" stroke="#0058ad" points="682,-81.5 682,-110.5 "/>
<text text-anchor="middle" x="735" y="-92.3" font-family="Times,serif" font-size="14.00" fill="#0058ad">r 210 [1 2 3]</text>
<polyline fill="none" stroke="#0058ad" points="788,-81.5 788,-110.5 "/>
<text text-anchor="middle" x="1106.5" y="-92.3" font-family="Times,serif" font-size="14.00" fill="#0058ad">r 209 [1 2 3 4 5 6 7 8 9 10 11 12 13 14 15 16 17 18 19 20 21 22 23 24 25 26 27 28 32]</text>
<polyline fill="none" stroke="#0058ad" points="1425,-81.5 1425,-110.5 "/>
<text text-anchor="middle" x="1478" y="-92.3" font-family="Times,serif" font-size="14.00" fill="#0058ad">r 210 [1 2 3]</text>
</g>
<!-- T1849 -->
<g id="node2" class="node">
<title>T1849</title>
<polygon fill="none" stroke="#0058ad" points="0,-0.5 0,-29.5 2144,-29.5 2144,-0.5 0,-0.5"/>
<text text-anchor="middle" x="53" y="-11.3" font-family="Times,serif" font-size="14.00" fill="#0058ad">r 208 [1 2 3]</text>
<polyline fill="none" stroke="#0058ad" points="106,-0.5 106,-29.5 "/>
<text text-anchor="middle" x="413" y="-11.3" font-family="Times,serif" font-size="14.00" fill="#0058ad">r 209 [1 2 3 4 5 6 7 8 9 10 11 12 13 14 15 16 17 18 19 20 21 22 23 24 25 26 27 28]</text>
<polyline fill="none" stroke="#0058ad" points="720,-0.5 720,-29.5 "/>
<text text-anchor="middle" x="755" y="-11.3" font-family="Times,serif" font-size="14.00" fill="#0058ad">a 208 4</text>
<polyline fill="none" stroke="#0058ad" points="790,-0.5 790,-29.5 "/>
<text text-anchor="middle" x="825" y="-11.3" font-family="Times,serif" font-size="14.00" fill="#0058ad">a 211 1</text>
<polyline fill="none" stroke="#0058ad" points="860,-0.5 860,-29.5 "/>
<text text-anchor="middle" x="899.5" y="-11.3" font-family="Times,serif" font-size="14.00" fill="#0058ad">r 211 [1]</text>
<polyline fill="none" stroke="#0058ad" points="939,-0.5 939,-29.5 "/>
<text text-anchor="middle" x="974" y="-11.3" font-family="Times,serif" font-size="14.00" fill="#0058ad">a 210 5</text>
<polyline fill="none" stroke="#0058ad" points="1009,-0.5 1009,-29.5 "/>
<text text-anchor="middle" x="1044" y="-11.3" font-family="Times,serif" font-size="14.00" fill="#0058ad">a 211 2</text>
<polyline fill="none" stroke="#0058ad" points="1079,-0.5 1079,-29.5 "/>
<text text-anchor="middle" x="1114" y="-11.3" font-family="Times,serif" font-size="14.00" fill="#0058ad">a 210 6</text>
<polyline fill="none" stroke="#0058ad" points="1149,-0.5 1149,-29.5 "/>
<text text-anchor="middle" x="1184" y="-11.3" font-family="Times,serif" font-size="14.00" fill="#0058ad">a 208 5</text>
<polyline fill="none" stroke="#0058ad" points="1219,-0.5 1219,-29.5 "/>
<text text-anchor="middle" x="1254" y="-11.3" font-family="Times,serif" font-size="14.00" fill="#0058ad">a 211 3</text>
<polyline fill="none" stroke="#0058ad" points="1289,-0.5 1289,-29.5 "/>
<text text-anchor="middle" x="1324" y="-11.3" font-family="Times,serif" font-size="14.00" fill="#0058ad">a 211 4</text>
<polyline fill="none" stroke="#0058ad" points="1359,-0.5 1359,-29.5 "/>
<text text-anchor="middle" x="1394" y="-11.3" font-family="Times,serif" font-size="14.00" fill="#0058ad">a 210 7</text>
<polyline fill="none" stroke="#0058ad" points="1429,-0.5 1429,-29.5 "/>
<text text-anchor="middle" x="1464" y="-11.3" font-family="Times,serif" font-size="14.00" fill="#0058ad">a 208 6</text>
<polyline fill="none" stroke="#0058ad" points="1499,-0.5 1499,-29.5 "/>
<text text-anchor="middle" x="1534" y="-11.3" font-family="Times,serif" font-size="14.00" fill="#0058ad">a 211 5</text>
<polyline fill="none" stroke="#0058ad" points="1569,-0.5 1569,-29.5 "/>
<text text-anchor="middle" x="1604" y="-11.3" font-family="Times,serif" font-size="14.00" fill="#0058ad">a 211 6</text>
<polyline fill="none" stroke="#0058ad" points="1639,-0.5 1639,-29.5 "/>
<text text-anchor="middle" x="1712" y="-11.3" font-family="Times,serif" font-size="14.00" fill="#0058ad">r 211 [1 2 3 4 5 6]</text>
<polyline fill="none" stroke="#0058ad" points="1785,-0.5 1785,-29.5 "/>
<text text-anchor="middle" x="1820" y="-11.3" font-family="Times,serif" font-size="14.00" fill="#0058ad">a 211 7</text>
<polyline fill="none" stroke="#0058ad" points="1855,-0.5 1855,-29.5 "/>
<text text-anchor="middle" x="1890" y="-11.3" font-family="Times,serif" font-size="14.00" fill="#0058ad">a 211 8</text>
<polyline fill="none" stroke="#0058ad" points="1925,-0.5 1925,-29.5 "/>
<text text-anchor="middle" x="1960" y="-11.3" font-family="Times,serif" font-size="14.00" fill="#0058ad">a 210 8</text>
<polyline fill="none" stroke="#0058ad" points="1995,-0.5 1995,-29.5 "/>
<text text-anchor="middle" x="2030" y="-11.3" font-family="Times,serif" font-size="14.00" fill="#0058ad">a 211 9</text>
<polyline fill="none" stroke="#0058ad" points="2065,-0.5 2065,-29.5 "/>
<text text-anchor="middle" x="2104.5" y="-11.3" font-family="Times,serif" font-size="14.00" fill="#0058ad">a 211 10</text>
</g>
<!-- T1848&#45;&gt;T1849 -->
<g id="edge1" class="edge">
<title>T1848:f0&#45;&gt;T1849:f2</title>
<path fill="none" stroke="#5b00c0" d="M550,-81C550,-62.33 559.63,-56.98 576,-48 591.2,-39.66 714.65,-47.28 747.17,-36.42"/>
<polygon fill="#5b00c0" stroke="#5b00c0" points="749.48,-39.05 755,-30 745.05,-33.63 749.48,-39.05"/>
<text text-anchor="middle" x="585.5" y="-51.8" font-family="Times,serif" font-size="14.00" fill="#5b00c0">rw</text>
</g>
<!-- T1849&#45;&gt;T1848 -->
<g id="edge2" class="edge">
<title>T1849:f1&#45;&gt;T1848:f1</title>
<path fill="none" stroke="#5b00c0" d="M413,-30C413,-50.32 575.95,-40.93 595,-48 615.19,-55.49 634.77,-55.66 640.39,-70.87"/>
<polygon fill="#5b00c0" stroke="#5b00c0" points="636.98,-71.67 642,-81 643.89,-70.58 636.98,-71.67"/>
<text text-anchor="middle" x="644.5" y="-51.8" font-family="Times,serif" font-size="14.00" fill="#5b00c0">rw</text>
</g>
</g>
</svg>
