<?xml version="1.0" encoding="UTF-8" standalone="no"?>
<!DOCTYPE svg PUBLIC "-//W3C//DTD SVG 1.1//EN"
 "http://www.w3.org/Graphics/SVG/1.1/DTD/svg11.dtd">
<!-- Generated by graphviz version 2.43.0 (0)
 -->
<!-- Title: a_graph Pages: 1 -->
<svg width="1783pt" height="119pt"
 viewBox="0.00 0.00 1783.00 119.00" xmlns="http://www.w3.org/2000/svg" xmlns:xlink="http://www.w3.org/1999/xlink">
<g id="graph0" class="graph" transform="scale(1 1) rotate(0) translate(4 115)">
<title>a_graph</title>
<polygon fill="white" stroke="transparent" points="-4,4 -4,-115 1779,-115 1779,4 -4,4"/>
<!-- T2657 -->
<g id="node1" class="node">
<title>T2657</title>
<polygon fill="none" stroke="#0058ad" points="0,-81.5 0,-110.5 1775,-110.5 1775,-81.5 0,-81.5"/>
<text text-anchor="middle" x="39.5" y="-92.3" font-family="Times,serif" font-size="14.00" fill="#0058ad">r 102 [1]</text>
<polyline fill="none" stroke="#0058ad" points="79,-81.5 79,-110.5 "/>
<text text-anchor="middle" x="262.5" y="-92.3" font-family="Times,serif" font-size="14.00" fill="#0058ad">r 99 [1 2 4 5 6 7 8 9 10 11 12 13 14 15 16 17 18]</text>
<polyline fill="none" stroke="#0058ad" points="446,-81.5 446,-110.5 "/>
<text text-anchor="middle" x="485.5" y="-92.3" font-family="Times,serif" font-size="14.00" fill="#0058ad">r 102 [1]</text>
<polyline fill="none" stroke="#0058ad" points="525,-81.5 525,-110.5 "/>
<text text-anchor="middle" x="564.5" y="-92.3" font-family="Times,serif" font-size="14.00" fill="#0058ad">r 102 [1]</text>
<polyline fill="none" stroke="#0058ad" points="604,-81.5 604,-110.5 "/>
<text text-anchor="middle" x="639" y="-92.3" font-family="Times,serif" font-size="14.00" fill="#0058ad">a 102 2</text>
<polyline fill="none" stroke="#0058ad" points="674,-81.5 674,-110.5 "/>
<text text-anchor="middle" x="857.5" y="-92.3" font-family="Times,serif" font-size="14.00" fill="#0058ad">r 99 [1 2 4 5 6 7 8 9 10 11 12 13 14 15 16 17 18]</text>
<polyline fill="none" stroke="#0058ad" points="1041,-81.5 1041,-110.5 "/>
<text text-anchor="middle" x="1224.5" y="-92.3" font-family="Times,serif" font-size="14.00" fill="#0058ad">r 99 [1 2 4 5 6 7 8 9 10 11 12 13 14 15 16 17 18]</text>
<polyline fill="none" stroke="#0058ad" points="1408,-81.5 1408,-110.5 "/>
<text text-anchor="middle" x="1591.5" y="-92.3" font-family="Times,serif" font-size="14.00" fill="#0058ad">r 99 [1 2 4 5 6 7 8 9 10 11 12 13 14 15 16 17 18]</text>
</g>
<!-- T2658 -->
<g id="node2" class="node">
<title>T2658</title>
<polygon fill="none" stroke="#0058ad" points="291,-0.5 291,-29.5 862,-29.5 862,-0.5 291,-0.5"/>
<text text-anchor="middle" x="330.5" y="-11.3" font-family="Times,serif" font-size="14.00" fill="#0058ad">r 102 [1]</text>
<polyline fill="none" stroke="#0058ad" points="370,-0.5 370,-29.5 "/>
<text text-anchor="middle" x="405" y="-11.3" font-family="Times,serif" font-size="14.00" fill="#0058ad">a 99 19</text>
<polyline fill="none" stroke="#0058ad" points="440,-0.5 440,-29.5 "/>
<text text-anchor="middle" x="475" y="-11.3" font-family="Times,serif" font-size="14.00" fill="#0058ad">a 101 4</text>
<polyline fill="none" stroke="#0058ad" points="510,-0.5 510,-29.5 "/>
<text text-anchor="middle" x="545" y="-11.3" font-family="Times,serif" font-size="14.00" fill="#0058ad">a 101 5</text>
<polyline fill="none" stroke="#0058ad" points="580,-0.5 580,-29.5 "/>
<text text-anchor="middle" x="646.5" y="-11.3" font-family="Times,serif" font-size="14.00" fill="#0058ad">r 101 [1 2 3 4 5]</text>
<polyline fill="none" stroke="#0058ad" points="713,-0.5 713,-29.5 "/>
<text text-anchor="middle" x="748" y="-11.3" font-family="Times,serif" font-size="14.00" fill="#0058ad">a 99 20</text>
<polyline fill="none" stroke="#0058ad" points="783,-0.5 783,-29.5 "/>
<text text-anchor="middle" x="822.5" y="-11.3" font-family="Times,serif" font-size="14.00" fill="#0058ad">r 102 [1]</text>
</g>
<!-- T2657&#45;&gt;T2658 -->
<g id="edge1" class="edge">
<title>T2657:f1&#45;&gt;T2658:f1</title>
<path fill="none" stroke="#5b00c0" d="M262.5,-81C262.5,-17.74 388.87,-88.12 403.18,-40"/>
<polygon fill="#5b00c0" stroke="#5b00c0" points="406.67,-40.37 404.5,-30 399.73,-39.46 406.67,-40.37"/>
<text text-anchor="middle" x="409" y="-51.8" font-family="Times,serif" font-size="14.00" fill="#5b00c0">rw</text>
</g>
<!-- T2658&#45;&gt;T2657 -->
<g id="edge2" class="edge">
<title>T2658:f0&#45;&gt;T2657:f4</title>
<path fill="none" stroke="#5b00c0" d="M330.5,-30C330.5,-37.76 576.96,-65.51 628.94,-77.48"/>
<polygon fill="#5b00c0" stroke="#5b00c0" points="627.91,-80.83 638.5,-81 630.33,-74.26 627.91,-80.83"/>
<text text-anchor="middle" x="540" y="-51.8" font-family="Times,serif" font-size="14.00" fill="#5b00c0">rw</text>
</g>
</g>
</svg>
