<?xml version="1.0" encoding="UTF-8" standalone="no"?>
<!DOCTYPE svg PUBLIC "-//W3C//DTD SVG 1.1//EN"
 "http://www.w3.org/Graphics/SVG/1.1/DTD/svg11.dtd">
<!-- Generated by graphviz version 2.43.0 (0)
 -->
<!-- Title: a_graph Pages: 1 -->
<svg width="619pt" height="119pt"
 viewBox="0.00 0.00 619.00 119.00" xmlns="http://www.w3.org/2000/svg" xmlns:xlink="http://www.w3.org/1999/xlink">
<g id="graph0" class="graph" transform="scale(1 1) rotate(0) translate(4 115)">
<title>a_graph</title>
<polygon fill="white" stroke="transparent" points="-4,4 -4,-115 615,-115 615,4 -4,4"/>
<!-- T779 -->
<g id="node1" class="node">
<title>T779</title>
<polygon fill="none" stroke="#0058ad" points="56,-81.5 56,-110.5 277,-110.5 277,-81.5 56,-81.5"/>
<text text-anchor="middle" x="131.5" y="-92.3" font-family="Times,serif" font-size="14.00" fill="#0058ad">r 30 [2 3 4 5 6 7 8]</text>
<polyline fill="none" stroke="#0058ad" points="207,-81.5 207,-110.5 "/>
<text text-anchor="middle" x="242" y="-92.3" font-family="Times,serif" font-size="14.00" fill="#0058ad">a 31 11</text>
</g>
<!-- T780 -->
<g id="node2" class="node">
<title>T780</title>
<polygon fill="none" stroke="#0058ad" points="0,-0.5 0,-29.5 611,-29.5 611,-0.5 0,-0.5"/>
<text text-anchor="middle" x="80" y="-11.3" font-family="Times,serif" font-size="14.00" fill="#0058ad">r 31 [1 2 3 4 5 9 10]</text>
<polyline fill="none" stroke="#0058ad" points="160,-0.5 160,-29.5 "/>
<text text-anchor="middle" x="195" y="-11.3" font-family="Times,serif" font-size="14.00" fill="#0058ad">a 28 16</text>
<polyline fill="none" stroke="#0058ad" points="230,-0.5 230,-29.5 "/>
<text text-anchor="middle" x="260.5" y="-11.3" font-family="Times,serif" font-size="14.00" fill="#0058ad">a 30 9</text>
<polyline fill="none" stroke="#0058ad" points="291,-0.5 291,-29.5 "/>
<text text-anchor="middle" x="371" y="-11.3" font-family="Times,serif" font-size="14.00" fill="#0058ad">r 31 [1 2 3 4 5 9 10]</text>
<polyline fill="none" stroke="#0058ad" points="451,-0.5 451,-29.5 "/>
<text text-anchor="middle" x="531" y="-11.3" font-family="Times,serif" font-size="14.00" fill="#0058ad">r 31 [1 2 3 4 5 9 10]</text>
</g>
<!-- T779&#45;&gt;T780 -->
<g id="edge1" class="edge">
<title>T779:f0&#45;&gt;T780:f2</title>
<path fill="none" stroke="#5b00c0" d="M131.5,-81C131.5,-53.25 158.89,-58.67 184.5,-48 212.66,-36.27 250.03,-58.07 258.67,-39.95"/>
<polygon fill="#5b00c0" stroke="#5b00c0" points="262.13,-40.47 260.5,-30 255.25,-39.2 262.13,-40.47"/>
<text text-anchor="middle" x="194" y="-51.8" font-family="Times,serif" font-size="14.00" fill="#5b00c0">rw</text>
</g>
<!-- T780&#45;&gt;T779 -->
<g id="edge2" class="edge">
<title>T780:f0&#45;&gt;T779:f1</title>
<path fill="none" stroke="#5b00c0" d="M79.5,-30C79.5,-57.84 178.11,-36.56 203.5,-48 220.64,-55.72 236.14,-57.71 240.96,-71.07"/>
<polygon fill="#5b00c0" stroke="#5b00c0" points="237.51,-71.65 242.5,-81 244.43,-70.58 237.51,-71.65"/>
<text text-anchor="middle" x="245" y="-51.8" font-family="Times,serif" font-size="14.00" fill="#5b00c0">rw</text>
</g>
</g>
</svg>
