<?xml version="1.0" encoding="UTF-8" standalone="no"?>
<!DOCTYPE svg PUBLIC "-//W3C//DTD SVG 1.1//EN"
 "http://www.w3.org/Graphics/SVG/1.1/DTD/svg11.dtd">
<!-- Generated by graphviz version 2.43.0 (0)
 -->
<!-- Title: a_graph Pages: 1 -->
<svg width="974pt" height="119pt"
 viewBox="0.00 0.00 974.00 119.00" xmlns="http://www.w3.org/2000/svg" xmlns:xlink="http://www.w3.org/1999/xlink">
<g id="graph0" class="graph" transform="scale(1 1) rotate(0) translate(4 115)">
<title>a_graph</title>
<polygon fill="white" stroke="transparent" points="-4,4 -4,-115 970,-115 970,4 -4,4"/>
<!-- T2394 -->
<g id="node1" class="node">
<title>T2394</title>
<polygon fill="none" stroke="#0058ad" points="0,-81.5 0,-110.5 966,-110.5 966,-81.5 0,-81.5"/>
<text text-anchor="middle" x="30.5" y="-92.3" font-family="Times,serif" font-size="14.00" fill="#0058ad">a 87 9</text>
<polyline fill="none" stroke="#0058ad" points="61,-81.5 61,-110.5 "/>
<text text-anchor="middle" x="91.5" y="-92.3" font-family="Times,serif" font-size="14.00" fill="#0058ad">a 90 3</text>
<polyline fill="none" stroke="#0058ad" points="122,-81.5 122,-110.5 "/>
<text text-anchor="middle" x="152.5" y="-92.3" font-family="Times,serif" font-size="14.00" fill="#0058ad">a 90 4</text>
<polyline fill="none" stroke="#0058ad" points="183,-81.5 183,-110.5 "/>
<text text-anchor="middle" x="463" y="-92.3" font-family="Times,serif" font-size="14.00" fill="#0058ad">r 90 [1 2 5 6 7 8 9 10 11 12 13 14 15 16 17 18 19 20 21 22 23 24 25 26 3 4]</text>
<polyline fill="none" stroke="#0058ad" points="743,-81.5 743,-110.5 "/>
<text text-anchor="middle" x="854.5" y="-92.3" font-family="Times,serif" font-size="14.00" fill="#0058ad">r 89 [1 2 3 4 5 6 7 8 9 10 11]</text>
</g>
<!-- T2393 -->
<g id="node2" class="node">
<title>T2393</title>
<polygon fill="none" stroke="#0058ad" points="107,-0.5 107,-29.5 955,-29.5 955,-0.5 107,-0.5"/>
<text text-anchor="middle" x="142" y="-11.3" font-family="Times,serif" font-size="14.00" fill="#0058ad">a 89 12</text>
<polyline fill="none" stroke="#0058ad" points="177,-0.5 177,-29.5 "/>
<text text-anchor="middle" x="443.5" y="-11.3" font-family="Times,serif" font-size="14.00" fill="#0058ad">r 90 [1 2 5 6 7 8 9 10 11 12 13 14 15 16 17 18 19 20 21 22 23 24 25 26]</text>
<polyline fill="none" stroke="#0058ad" points="710,-0.5 710,-29.5 "/>
<text text-anchor="middle" x="832.5" y="-11.3" font-family="Times,serif" font-size="14.00" fill="#0058ad">r 89 [1 2 3 4 5 6 7 8 9 10 11 12]</text>
</g>
<!-- T2394&#45;&gt;T2393 -->
<g id="edge1" class="edge">
<title>T2394:f4&#45;&gt;T2393:f0</title>
<path fill="none" stroke="#5b00c0" d="M855,-81C855,-62.48 234.85,-51.42 151.28,-33.9"/>
<polygon fill="#5b00c0" stroke="#5b00c0" points="152.57,-30.65 142,-30 149.86,-37.1 152.57,-30.65"/>
<text text-anchor="middle" x="653.5" y="-51.8" font-family="Times,serif" font-size="14.00" fill="#5b00c0">rw</text>
</g>
<!-- T2393&#45;&gt;T2394 -->
<g id="edge2" class="edge">
<title>T2393:f1&#45;&gt;T2394:f1</title>
<path fill="none" stroke="#5b00c0" d="M443,-30C443,-34.45 157.63,-68.23 100.78,-78.52"/>
<polygon fill="#5b00c0" stroke="#5b00c0" points="99.83,-75.15 91,-81 101.55,-81.93 99.83,-75.15"/>
<text text-anchor="middle" x="328.5" y="-51.8" font-family="Times,serif" font-size="14.00" fill="#5b00c0">rw</text>
</g>
</g>
</svg>
