<?xml version="1.0" encoding="UTF-8" standalone="no"?>
<!DOCTYPE svg PUBLIC "-//W3C//DTD SVG 1.1//EN"
 "http://www.w3.org/Graphics/SVG/1.1/DTD/svg11.dtd">
<!-- Generated by graphviz version 2.43.0 (0)
 -->
<!-- Title: a_graph Pages: 1 -->
<svg width="1531pt" height="119pt"
 viewBox="0.00 0.00 1531.00 119.00" xmlns="http://www.w3.org/2000/svg" xmlns:xlink="http://www.w3.org/1999/xlink">
<g id="graph0" class="graph" transform="scale(1 1) rotate(0) translate(4 115)">
<title>a_graph</title>
<polygon fill="white" stroke="transparent" points="-4,4 -4,-115 1527,-115 1527,4 -4,4"/>
<!-- T4109 -->
<g id="node1" class="node">
<title>T4109</title>
<polygon fill="none" stroke="#0058ad" points="0,-81.5 0,-110.5 1523,-110.5 1523,-81.5 0,-81.5"/>
<text text-anchor="middle" x="152" y="-92.3" font-family="Times,serif" font-size="14.00" fill="#0058ad">r 154 [1 2 3 4 7 8 11 12 13 14 16 17 18]</text>
<polyline fill="none" stroke="#0058ad" points="304,-81.5 304,-110.5 "/>
<text text-anchor="middle" x="456" y="-92.3" font-family="Times,serif" font-size="14.00" fill="#0058ad">r 154 [1 2 3 4 7 8 11 12 13 14 16 17 18]</text>
<polyline fill="none" stroke="#0058ad" points="608,-81.5 608,-110.5 "/>
<text text-anchor="middle" x="760" y="-92.3" font-family="Times,serif" font-size="14.00" fill="#0058ad">r 154 [1 2 3 4 7 8 11 12 13 14 16 17 18]</text>
<polyline fill="none" stroke="#0058ad" points="912,-81.5 912,-110.5 "/>
<text text-anchor="middle" x="951.5" y="-92.3" font-family="Times,serif" font-size="14.00" fill="#0058ad">a 151 22</text>
<polyline fill="none" stroke="#0058ad" points="991,-81.5 991,-110.5 "/>
<text text-anchor="middle" x="1030.5" y="-92.3" font-family="Times,serif" font-size="14.00" fill="#0058ad">a 151 23</text>
<polyline fill="none" stroke="#0058ad" points="1070,-81.5 1070,-110.5 "/>
<text text-anchor="middle" x="1105" y="-92.3" font-family="Times,serif" font-size="14.00" fill="#0058ad">r 155 []</text>
<polyline fill="none" stroke="#0058ad" points="1140,-81.5 1140,-110.5 "/>
<text text-anchor="middle" x="1292" y="-92.3" font-family="Times,serif" font-size="14.00" fill="#0058ad">r 154 [1 2 3 4 7 8 11 12 13 14 16 17 18]</text>
<polyline fill="none" stroke="#0058ad" points="1444,-81.5 1444,-110.5 "/>
<text text-anchor="middle" x="1483.5" y="-92.3" font-family="Times,serif" font-size="14.00" fill="#0058ad">a 154 20</text>
</g>
<!-- T4108 -->
<g id="node2" class="node">
<title>T4108</title>
<polygon fill="none" stroke="#0058ad" points="1021.5,-0.5 1021.5,-29.5 1465.5,-29.5 1465.5,-0.5 1021.5,-0.5"/>
<text text-anchor="middle" x="1056.5" y="-11.3" font-family="Times,serif" font-size="14.00" fill="#0058ad">r 155 []</text>
<polyline fill="none" stroke="#0058ad" points="1091.5,-0.5 1091.5,-29.5 "/>
<text text-anchor="middle" x="1243.5" y="-11.3" font-family="Times,serif" font-size="14.00" fill="#0058ad">r 154 [1 2 3 4 7 8 11 12 13 14 16 17 18]</text>
<polyline fill="none" stroke="#0058ad" points="1395.5,-0.5 1395.5,-29.5 "/>
<text text-anchor="middle" x="1430.5" y="-11.3" font-family="Times,serif" font-size="14.00" fill="#0058ad">a 155 1</text>
</g>
<!-- T4109&#45;&gt;T4108 -->
<g id="edge1" class="edge">
<title>T4109:f5&#45;&gt;T4108:f2</title>
<path fill="none" stroke="#5b00c0" d="M1105.5,-81C1105.5,-64.51 1370.12,-51.13 1421.81,-35.25"/>
<polygon fill="#5b00c0" stroke="#5b00c0" points="1423.75,-38.17 1430.5,-30 1420.13,-32.18 1423.75,-38.17"/>
<text text-anchor="middle" x="1343" y="-51.8" font-family="Times,serif" font-size="14.00" fill="#5b00c0">rw</text>
</g>
<!-- T4108&#45;&gt;T4109 -->
<g id="edge2" class="edge">
<title>T4108:f1&#45;&gt;T4109:f7</title>
<path fill="none" stroke="#5b00c0" d="M1243.5,-30C1243.5,-55.43 1331.61,-42.8 1356.5,-48 1409.91,-59.16 1474.54,-27.28 1482.65,-70.88"/>
<polygon fill="#5b00c0" stroke="#5b00c0" points="1479.18,-71.33 1483.5,-81 1486.15,-70.74 1479.18,-71.33"/>
<text text-anchor="middle" x="1489" y="-51.8" font-family="Times,serif" font-size="14.00" fill="#5b00c0">rw</text>
</g>
</g>
</svg>
