<?xml version="1.0" encoding="UTF-8" standalone="no"?>
<!DOCTYPE svg PUBLIC "-//W3C//DTD SVG 1.1//EN"
 "http://www.w3.org/Graphics/SVG/1.1/DTD/svg11.dtd">
<!-- Generated by graphviz version 2.43.0 (0)
 -->
<!-- Title: a_graph Pages: 1 -->
<svg width="889pt" height="119pt"
 viewBox="0.00 0.00 889.00 119.00" xmlns="http://www.w3.org/2000/svg" xmlns:xlink="http://www.w3.org/1999/xlink">
<g id="graph0" class="graph" transform="scale(1 1) rotate(0) translate(4 115)">
<title>a_graph</title>
<polygon fill="white" stroke="transparent" points="-4,4 -4,-115 885,-115 885,4 -4,4"/>
<!-- T5580 -->
<g id="node1" class="node">
<title>T5580</title>
<polygon fill="none" stroke="#0058ad" points="230,-81.5 230,-110.5 881,-110.5 881,-81.5 230,-81.5"/>
<text text-anchor="middle" x="269.5" y="-92.3" font-family="Times,serif" font-size="14.00" fill="#0058ad">a 214 18</text>
<polyline fill="none" stroke="#0058ad" points="309,-81.5 309,-110.5 "/>
<text text-anchor="middle" x="344" y="-92.3" font-family="Times,serif" font-size="14.00" fill="#0058ad">a 213 5</text>
<polyline fill="none" stroke="#0058ad" points="379,-81.5 379,-110.5 "/>
<text text-anchor="middle" x="418.5" y="-92.3" font-family="Times,serif" font-size="14.00" fill="#0058ad">a 214 19</text>
<polyline fill="none" stroke="#0058ad" points="458,-81.5 458,-110.5 "/>
<text text-anchor="middle" x="630" y="-92.3" font-family="Times,serif" font-size="14.00" fill="#0058ad">r 212 [1 2 3 4 5 6 7 8 9 10 11 12 13 14 15 16]</text>
<polyline fill="none" stroke="#0058ad" points="802,-81.5 802,-110.5 "/>
<text text-anchor="middle" x="841.5" y="-92.3" font-family="Times,serif" font-size="14.00" fill="#0058ad">a 214 20</text>
</g>
<!-- T5581 -->
<g id="node2" class="node">
<title>T5581</title>
<polygon fill="none" stroke="#0058ad" points="0,-0.5 0,-29.5 813,-29.5 813,-0.5 0,-0.5"/>
<text text-anchor="middle" x="183.5" y="-11.3" font-family="Times,serif" font-size="14.00" fill="#0058ad">r 214 [1 2 3 4 5 6 7 8 9 10 11 12 13 14 15 16 17]</text>
<polyline fill="none" stroke="#0058ad" points="367,-0.5 367,-29.5 "/>
<text text-anchor="middle" x="550.5" y="-11.3" font-family="Times,serif" font-size="14.00" fill="#0058ad">r 214 [1 2 3 4 5 6 7 8 9 10 11 12 13 14 15 16 17]</text>
<polyline fill="none" stroke="#0058ad" points="734,-0.5 734,-29.5 "/>
<text text-anchor="middle" x="773.5" y="-11.3" font-family="Times,serif" font-size="14.00" fill="#0058ad">a 212 17</text>
</g>
<!-- T5580&#45;&gt;T5581 -->
<g id="edge1" class="edge">
<title>T5580:f3&#45;&gt;T5581:f2</title>
<path fill="none" stroke="#5b00c0" d="M630.5,-81C630.5,-17.35 757.76,-88.45 772.18,-40.06"/>
<polygon fill="#5b00c0" stroke="#5b00c0" points="775.67,-40.37 773.5,-30 768.73,-39.46 775.67,-40.37"/>
<text text-anchor="middle" x="777" y="-51.8" font-family="Times,serif" font-size="14.00" fill="#5b00c0">rw</text>
</g>
<!-- T5581&#45;&gt;T5580 -->
<g id="edge2" class="edge">
<title>T5581:f0&#45;&gt;T5580:f0</title>
<path fill="none" stroke="#5b00c0" d="M183.5,-30C183.5,-61.9 191.17,-89.75 218.47,-95.08"/>
<polygon fill="#5b00c0" stroke="#5b00c0" points="218.22,-98.57 228.5,-96 218.86,-91.6 218.22,-98.57"/>
<text text-anchor="middle" x="196" y="-51.8" font-family="Times,serif" font-size="14.00" fill="#5b00c0">rw</text>
</g>
</g>
</svg>
