<?xml version="1.0" encoding="UTF-8" standalone="no"?>
<!DOCTYPE svg PUBLIC "-//W3C//DTD SVG 1.1//EN"
 "http://www.w3.org/Graphics/SVG/1.1/DTD/svg11.dtd">
<!-- Generated by graphviz version 2.43.0 (0)
 -->
<!-- Title: a_graph Pages: 1 -->
<svg width="724pt" height="119pt"
 viewBox="0.00 0.00 724.00 119.00" xmlns="http://www.w3.org/2000/svg" xmlns:xlink="http://www.w3.org/1999/xlink">
<g id="graph0" class="graph" transform="scale(1 1) rotate(0) translate(4 115)">
<title>a_graph</title>
<polygon fill="white" stroke="transparent" points="-4,4 -4,-115 720,-115 720,4 -4,4"/>
<!-- T5717 -->
<g id="node1" class="node">
<title>T5717</title>
<polygon fill="none" stroke="#0058ad" points="90.5,-81.5 90.5,-110.5 525.5,-110.5 525.5,-81.5 90.5,-81.5"/>
<text text-anchor="middle" x="130" y="-92.3" font-family="Times,serif" font-size="14.00" fill="#0058ad">a 213 30</text>
<polyline fill="none" stroke="#0058ad" points="169.5,-81.5 169.5,-110.5 "/>
<text text-anchor="middle" x="308" y="-92.3" font-family="Times,serif" font-size="14.00" fill="#0058ad">r 218 [1 2 3 4 5 6 7 8 9 10 11 12 13]</text>
<polyline fill="none" stroke="#0058ad" points="446.5,-81.5 446.5,-110.5 "/>
<text text-anchor="middle" x="486" y="-92.3" font-family="Times,serif" font-size="14.00" fill="#0058ad">a 217 16</text>
</g>
<!-- T5716 -->
<g id="node2" class="node">
<title>T5716</title>
<polygon fill="none" stroke="#0058ad" points="0,-0.5 0,-29.5 716,-29.5 716,-0.5 0,-0.5"/>
<text text-anchor="middle" x="39.5" y="-11.3" font-family="Times,serif" font-size="14.00" fill="#0058ad">a 218 14</text>
<polyline fill="none" stroke="#0058ad" points="79,-0.5 79,-29.5 "/>
<text text-anchor="middle" x="397.5" y="-11.3" font-family="Times,serif" font-size="14.00" fill="#0058ad">r 213 [1 2 3 4 5 6 7 8 9 10 11 12 13 14 15 16 17 18 19 20 21 22 23 24 25 26 27 28 29]</text>
</g>
<!-- T5717&#45;&gt;T5716 -->
<g id="edge1" class="edge">
<title>T5717:f1&#45;&gt;T5716:f0</title>
<path fill="none" stroke="#5b00c0" d="M308,-81C308,-25.26 241.7,-58.73 187,-48 173.16,-45.29 75.57,-46.15 46.9,-36.24"/>
<polygon fill="#5b00c0" stroke="#5b00c0" points="49.02,-33.45 39,-30 44.68,-38.95 49.02,-33.45"/>
<text text-anchor="middle" x="313.5" y="-51.8" font-family="Times,serif" font-size="14.00" fill="#5b00c0">rw</text>
</g>
<!-- T5716&#45;&gt;T5717 -->
<g id="edge2" class="edge">
<title>T5716:f1&#45;&gt;T5717:f0</title>
<path fill="none" stroke="#5b00c0" d="M398,-30C398,-56.08 187.77,-37.28 164,-48 148.4,-55.03 135.71,-58.52 131.49,-70.88"/>
<polygon fill="#5b00c0" stroke="#5b00c0" points="128,-70.6 130,-81 134.92,-71.62 128,-70.6"/>
<text text-anchor="middle" x="173.5" y="-51.8" font-family="Times,serif" font-size="14.00" fill="#5b00c0">rw</text>
</g>
</g>
</svg>
