<?xml version="1.0" encoding="UTF-8" standalone="no"?>
<!DOCTYPE svg PUBLIC "-//W3C//DTD SVG 1.1//EN"
 "http://www.w3.org/Graphics/SVG/1.1/DTD/svg11.dtd">
<!-- Generated by graphviz version 2.43.0 (0)
 -->
<!-- Title: a_graph Pages: 1 -->
<svg width="1362pt" height="119pt"
 viewBox="0.00 0.00 1361.50 119.00" xmlns="http://www.w3.org/2000/svg" xmlns:xlink="http://www.w3.org/1999/xlink">
<g id="graph0" class="graph" transform="scale(1 1) rotate(0) translate(4 115)">
<title>a_graph</title>
<polygon fill="white" stroke="transparent" points="-4,4 -4,-115 1357.5,-115 1357.5,4 -4,4"/>
<!-- T3034 -->
<g id="node1" class="node">
<title>T3034</title>
<polygon fill="none" stroke="#0058ad" points="0,-81.5 0,-110.5 860,-110.5 860,-81.5 0,-81.5"/>
<text text-anchor="middle" x="35" y="-92.3" font-family="Times,serif" font-size="14.00" fill="#0058ad">a 116 1</text>
<polyline fill="none" stroke="#0058ad" points="70,-81.5 70,-110.5 "/>
<text text-anchor="middle" x="219.5" y="-92.3" font-family="Times,serif" font-size="14.00" fill="#0058ad">r 115 [1 2 3 4 5 6 7 8 9 10 11 12 13 14]</text>
<polyline fill="none" stroke="#0058ad" points="369,-81.5 369,-110.5 "/>
<text text-anchor="middle" x="408.5" y="-92.3" font-family="Times,serif" font-size="14.00" fill="#0058ad">a 112 18</text>
<polyline fill="none" stroke="#0058ad" points="448,-81.5 448,-110.5 "/>
<text text-anchor="middle" x="487.5" y="-92.3" font-family="Times,serif" font-size="14.00" fill="#0058ad">r 116 [1]</text>
<polyline fill="none" stroke="#0058ad" points="527,-81.5 527,-110.5 "/>
<text text-anchor="middle" x="566.5" y="-92.3" font-family="Times,serif" font-size="14.00" fill="#0058ad">r 116 [1]</text>
<polyline fill="none" stroke="#0058ad" points="606,-81.5 606,-110.5 "/>
<text text-anchor="middle" x="641" y="-92.3" font-family="Times,serif" font-size="14.00" fill="#0058ad">a 116 2</text>
<polyline fill="none" stroke="#0058ad" points="676,-81.5 676,-110.5 "/>
<text text-anchor="middle" x="722" y="-92.3" font-family="Times,serif" font-size="14.00" fill="#0058ad">r 116 [1 2]</text>
<polyline fill="none" stroke="#0058ad" points="768,-81.5 768,-110.5 "/>
<text text-anchor="middle" x="814" y="-92.3" font-family="Times,serif" font-size="14.00" fill="#0058ad">r 116 [1 2]</text>
</g>
<!-- T3035 -->
<g id="node2" class="node">
<title>T3035</title>
<polygon fill="none" stroke="#0058ad" points="58.5,-0.5 58.5,-29.5 1353.5,-29.5 1353.5,-0.5 58.5,-0.5"/>
<text text-anchor="middle" x="98" y="-11.3" font-family="Times,serif" font-size="14.00" fill="#0058ad">a 115 15</text>
<polyline fill="none" stroke="#0058ad" points="137.5,-0.5 137.5,-29.5 "/>
<text text-anchor="middle" x="172.5" y="-11.3" font-family="Times,serif" font-size="14.00" fill="#0058ad">r 116 []</text>
<polyline fill="none" stroke="#0058ad" points="207.5,-0.5 207.5,-29.5 "/>
<text text-anchor="middle" x="368.5" y="-11.3" font-family="Times,serif" font-size="14.00" fill="#0058ad">r 115 [1 2 3 4 5 6 7 8 9 10 11 12 13 14 15]</text>
<polyline fill="none" stroke="#0058ad" points="529.5,-0.5 529.5,-29.5 "/>
<text text-anchor="middle" x="690.5" y="-11.3" font-family="Times,serif" font-size="14.00" fill="#0058ad">r 115 [1 2 3 4 5 6 7 8 9 10 11 12 13 14 15]</text>
<polyline fill="none" stroke="#0058ad" points="851.5,-0.5 851.5,-29.5 "/>
<text text-anchor="middle" x="891" y="-11.3" font-family="Times,serif" font-size="14.00" fill="#0058ad">a 115 16</text>
<polyline fill="none" stroke="#0058ad" points="930.5,-0.5 930.5,-29.5 "/>
<text text-anchor="middle" x="1102.5" y="-11.3" font-family="Times,serif" font-size="14.00" fill="#0058ad">r 115 [1 2 3 4 5 6 7 8 9 10 11 12 13 14 15 16]</text>
<polyline fill="none" stroke="#0058ad" points="1274.5,-0.5 1274.5,-29.5 "/>
<text text-anchor="middle" x="1314" y="-11.3" font-family="Times,serif" font-size="14.00" fill="#0058ad">a 115 17</text>
</g>
<!-- T3034&#45;&gt;T3035 -->
<g id="edge1" class="edge">
<title>T3034:f1&#45;&gt;T3035:f0</title>
<path fill="none" stroke="#5b00c0" d="M219,-81C219,-57.55 133.91,-76.88 115,-63 104.82,-55.53 100.26,-49.82 98.69,-40.16"/>
<polygon fill="#5b00c0" stroke="#5b00c0" points="102.17,-39.74 98,-30 95.18,-40.21 102.17,-39.74"/>
<text text-anchor="middle" x="124.5" y="-51.8" font-family="Times,serif" font-size="14.00" fill="#5b00c0">rw</text>
</g>
<!-- T3035&#45;&gt;T3034 -->
<g id="edge2" class="edge">
<title>T3035:f1&#45;&gt;T3034:f0</title>
<path fill="none" stroke="#5b00c0" d="M172,-30C172,-52.37 154.17,-53.32 134,-63 117.15,-71.09 59.29,-62.61 40.76,-72.67"/>
<polygon fill="#5b00c0" stroke="#5b00c0" points="37.81,-70.78 35,-81 43.57,-74.76 37.81,-70.78"/>
<text text-anchor="middle" x="174.5" y="-51.8" font-family="Times,serif" font-size="14.00" fill="#5b00c0">rw</text>
</g>
</g>
</svg>
