<?xml version="1.0" encoding="UTF-8" standalone="no"?>
<!DOCTYPE svg PUBLIC "-//W3C//DTD SVG 1.1//EN"
 "http://www.w3.org/Graphics/SVG/1.1/DTD/svg11.dtd">
<!-- Generated by graphviz version 2.43.0 (0)
 -->
<!-- Title: a_graph Pages: 1 -->
<svg width="2469pt" height="119pt"
 viewBox="0.00 0.00 2469.00 119.00" xmlns="http://www.w3.org/2000/svg" xmlns:xlink="http://www.w3.org/1999/xlink">
<g id="graph0" class="graph" transform="scale(1 1) rotate(0) translate(4 115)">
<title>a_graph</title>
<polygon fill="white" stroke="transparent" points="-4,4 -4,-115 2465,-115 2465,4 -4,4"/>
<!-- T4824 -->
<g id="node1" class="node">
<title>T4824</title>
<polygon fill="none" stroke="#0058ad" points="0,-81.5 0,-110.5 2461,-110.5 2461,-81.5 0,-81.5"/>
<text text-anchor="middle" x="183.5" y="-92.3" font-family="Times,serif" font-size="14.00" fill="#0058ad">r 183 [1 2 3 4 5 6 7 8 9 10 11 16 19 20 21 22 23]</text>
<polyline fill="none" stroke="#0058ad" points="367,-81.5 367,-110.5 "/>
<text text-anchor="middle" x="550.5" y="-92.3" font-family="Times,serif" font-size="14.00" fill="#0058ad">r 183 [1 2 3 4 5 6 7 8 9 10 11 16 19 20 21 22 23]</text>
<polyline fill="none" stroke="#0058ad" points="734,-81.5 734,-110.5 "/>
<text text-anchor="middle" x="917.5" y="-92.3" font-family="Times,serif" font-size="14.00" fill="#0058ad">r 183 [1 2 3 4 5 6 7 8 9 10 11 16 19 20 21 22 23]</text>
<polyline fill="none" stroke="#0058ad" points="1101,-81.5 1101,-110.5 "/>
<text text-anchor="middle" x="1284.5" y="-92.3" font-family="Times,serif" font-size="14.00" fill="#0058ad">r 183 [1 2 3 4 5 6 7 8 9 10 11 16 19 20 21 22 23]</text>
<polyline fill="none" stroke="#0058ad" points="1468,-81.5 1468,-110.5 "/>
<text text-anchor="middle" x="1507.5" y="-92.3" font-family="Times,serif" font-size="14.00" fill="#0058ad">a 183 24</text>
<polyline fill="none" stroke="#0058ad" points="1547,-81.5 1547,-110.5 "/>
<text text-anchor="middle" x="1775.5" y="-92.3" font-family="Times,serif" font-size="14.00" fill="#0058ad">r 180 [1 2 3 4 5 6 7 8 9 10 11 12 13 14 15 16 17 18 19 20 24]</text>
<polyline fill="none" stroke="#0058ad" points="2004,-81.5 2004,-110.5 "/>
<text text-anchor="middle" x="2232.5" y="-92.3" font-family="Times,serif" font-size="14.00" fill="#0058ad">r 180 [1 2 3 4 5 6 7 8 9 10 11 12 13 14 15 16 17 18 19 20 24]</text>
</g>
<!-- T4825 -->
<g id="node2" class="node">
<title>T4825</title>
<polygon fill="none" stroke="#0058ad" points="537,-0.5 537,-29.5 1976,-29.5 1976,-0.5 537,-0.5"/>
<text text-anchor="middle" x="765.5" y="-11.3" font-family="Times,serif" font-size="14.00" fill="#0058ad">r 180 [1 2 3 4 5 6 7 8 9 10 11 12 13 14 15 16 17 18 19 20 24]</text>
<polyline fill="none" stroke="#0058ad" points="994,-0.5 994,-29.5 "/>
<text text-anchor="middle" x="1222.5" y="-11.3" font-family="Times,serif" font-size="14.00" fill="#0058ad">r 180 [1 2 3 4 5 6 7 8 9 10 11 12 13 14 15 16 17 18 19 20 24]</text>
<polyline fill="none" stroke="#0058ad" points="1451,-0.5 1451,-29.5 "/>
<text text-anchor="middle" x="1490.5" y="-11.3" font-family="Times,serif" font-size="14.00" fill="#0058ad">a 180 25</text>
<polyline fill="none" stroke="#0058ad" points="1530,-0.5 1530,-29.5 "/>
<text text-anchor="middle" x="1569.5" y="-11.3" font-family="Times,serif" font-size="14.00" fill="#0058ad">a 180 26</text>
<polyline fill="none" stroke="#0058ad" points="1609,-0.5 1609,-29.5 "/>
<text text-anchor="middle" x="1792.5" y="-11.3" font-family="Times,serif" font-size="14.00" fill="#0058ad">r 183 [1 2 3 4 5 6 7 8 9 10 11 16 19 20 21 22 23]</text>
</g>
<!-- T4824&#45;&gt;T4825 -->
<g id="edge1" class="edge">
<title>T4824:f5&#45;&gt;T4825:f2</title>
<path fill="none" stroke="#5b00c0" d="M1775.5,-81C1775.5,-73.84 1549.43,-45.36 1499.98,-33.53"/>
<polygon fill="#5b00c0" stroke="#5b00c0" points="1501.09,-30.21 1490.5,-30 1498.65,-36.77 1501.09,-30.21"/>
<text text-anchor="middle" x="1684" y="-51.8" font-family="Times,serif" font-size="14.00" fill="#5b00c0">rw</text>
</g>
<!-- T4825&#45;&gt;T4824 -->
<g id="edge2" class="edge">
<title>T4825:f4&#45;&gt;T4824:f4</title>
<path fill="none" stroke="#5b00c0" d="M1792.5,-30C1792.5,-74.7 1741.17,-53.49 1697.5,-63 1679.45,-66.93 1548.67,-61.58 1515.26,-74.15"/>
<polygon fill="#5b00c0" stroke="#5b00c0" points="1512.68,-71.76 1507.5,-81 1517.31,-77.01 1512.68,-71.76"/>
<text text-anchor="middle" x="1797" y="-51.8" font-family="Times,serif" font-size="14.00" fill="#5b00c0">rw</text>
</g>
</g>
</svg>
