<?xml version="1.0" encoding="UTF-8" standalone="no"?>
<!DOCTYPE svg PUBLIC "-//W3C//DTD SVG 1.1//EN"
 "http://www.w3.org/Graphics/SVG/1.1/DTD/svg11.dtd">
<!-- Generated by graphviz version 2.43.0 (0)
 -->
<!-- Title: a_graph Pages: 1 -->
<svg width="1546pt" height="119pt"
 viewBox="0.00 0.00 1546.00 119.00" xmlns="http://www.w3.org/2000/svg" xmlns:xlink="http://www.w3.org/1999/xlink">
<g id="graph0" class="graph" transform="scale(1 1) rotate(0) translate(4 115)">
<title>a_graph</title>
<polygon fill="white" stroke="transparent" points="-4,4 -4,-115 1542,-115 1542,4 -4,4"/>
<!-- T5035 -->
<g id="node1" class="node">
<title>T5035</title>
<polygon fill="none" stroke="#0058ad" points="612.5,-81.5 612.5,-110.5 1329.5,-110.5 1329.5,-81.5 612.5,-81.5"/>
<text text-anchor="middle" x="647.5" y="-92.3" font-family="Times,serif" font-size="14.00" fill="#0058ad">r 192 []</text>
<polyline fill="none" stroke="#0058ad" points="682.5,-81.5 682.5,-110.5 "/>
<text text-anchor="middle" x="717.5" y="-92.3" font-family="Times,serif" font-size="14.00" fill="#0058ad">a 189 8</text>
<polyline fill="none" stroke="#0058ad" points="752.5,-81.5 752.5,-110.5 "/>
<text text-anchor="middle" x="787.5" y="-92.3" font-family="Times,serif" font-size="14.00" fill="#0058ad">r 192 []</text>
<polyline fill="none" stroke="#0058ad" points="822.5,-81.5 822.5,-110.5 "/>
<text text-anchor="middle" x="857.5" y="-92.3" font-family="Times,serif" font-size="14.00" fill="#0058ad">r 192 []</text>
<polyline fill="none" stroke="#0058ad" points="892.5,-81.5 892.5,-110.5 "/>
<text text-anchor="middle" x="1076" y="-92.3" font-family="Times,serif" font-size="14.00" fill="#0058ad">r 191 [1 2 3 4 5 6 7 8 9 10 11 12 13 14 15 16 17]</text>
<polyline fill="none" stroke="#0058ad" points="1259.5,-81.5 1259.5,-110.5 "/>
<text text-anchor="middle" x="1294.5" y="-92.3" font-family="Times,serif" font-size="14.00" fill="#0058ad">r 192 []</text>
</g>
<!-- T5034 -->
<g id="node2" class="node">
<title>T5034</title>
<polygon fill="none" stroke="#0058ad" points="0,-0.5 0,-29.5 1538,-29.5 1538,-0.5 0,-0.5"/>
<text text-anchor="middle" x="39.5" y="-11.3" font-family="Times,serif" font-size="14.00" fill="#0058ad">a 190 32</text>
<polyline fill="none" stroke="#0058ad" points="79,-0.5 79,-29.5 "/>
<text text-anchor="middle" x="262.5" y="-11.3" font-family="Times,serif" font-size="14.00" fill="#0058ad">r 191 [1 2 3 4 5 6 7 8 9 10 11 12 13 14 15 16 17]</text>
<polyline fill="none" stroke="#0058ad" points="446,-0.5 446,-29.5 "/>
<text text-anchor="middle" x="485.5" y="-11.3" font-family="Times,serif" font-size="14.00" fill="#0058ad">a 191 18</text>
<polyline fill="none" stroke="#0058ad" points="525,-0.5 525,-29.5 "/>
<text text-anchor="middle" x="877" y="-11.3" font-family="Times,serif" font-size="14.00" fill="#0058ad">r 190 [1 2 3 4 5 6 7 8 9 10 11 12 13 14 15 16 17 18 19 20 21 22 23 24 25 26 27 28 29 30 31 32]</text>
<polyline fill="none" stroke="#0058ad" points="1229,-0.5 1229,-29.5 "/>
<text text-anchor="middle" x="1309" y="-11.3" font-family="Times,serif" font-size="14.00" fill="#0058ad">r 189 [1 2 3 4 5 6 7]</text>
<polyline fill="none" stroke="#0058ad" points="1389,-0.5 1389,-29.5 "/>
<text text-anchor="middle" x="1424" y="-11.3" font-family="Times,serif" font-size="14.00" fill="#0058ad">a 192 1</text>
<polyline fill="none" stroke="#0058ad" points="1459,-0.5 1459,-29.5 "/>
<text text-anchor="middle" x="1498.5" y="-11.3" font-family="Times,serif" font-size="14.00" fill="#0058ad">r 192 [1]</text>
</g>
<!-- T5035&#45;&gt;T5034 -->
<g id="edge1" class="edge">
<title>T5035:f4&#45;&gt;T5034:f2</title>
<path fill="none" stroke="#5b00c0" d="M1076,-81C1076,33.72 934.25,-58.42 820,-48 803.29,-46.48 545.09,-48.21 493.81,-34.97"/>
<polygon fill="#5b00c0" stroke="#5b00c0" points="495.43,-31.86 485,-30 491.99,-37.96 495.43,-31.86"/>
<text text-anchor="middle" x="1084.5" y="-51.8" font-family="Times,serif" font-size="14.00" fill="#5b00c0">rw</text>
</g>
<!-- T5034&#45;&gt;T5035 -->
<g id="edge2" class="edge">
<title>T5034:f4&#45;&gt;T5035:f1</title>
<path fill="none" stroke="#5b00c0" d="M1309,-30C1309,-58.46 824.82,-41.98 797,-48 763.23,-55.31 725.56,-45.08 718.26,-70.81"/>
<polygon fill="#5b00c0" stroke="#5b00c0" points="714.76,-70.65 717,-81 721.7,-71.51 714.76,-70.65"/>
<text text-anchor="middle" x="806.5" y="-51.8" font-family="Times,serif" font-size="14.00" fill="#5b00c0">rw</text>
</g>
</g>
</svg>
