<?xml version="1.0" encoding="UTF-8" standalone="no"?>
<!DOCTYPE svg PUBLIC "-//W3C//DTD SVG 1.1//EN"
 "http://www.w3.org/Graphics/SVG/1.1/DTD/svg11.dtd">
<!-- Generated by graphviz version 2.43.0 (0)
 -->
<!-- Title: a_graph Pages: 1 -->
<svg width="420pt" height="119pt"
 viewBox="0.00 0.00 420.00 119.00" xmlns="http://www.w3.org/2000/svg" xmlns:xlink="http://www.w3.org/1999/xlink">
<g id="graph0" class="graph" transform="scale(1 1) rotate(0) translate(4 115)">
<title>a_graph</title>
<polygon fill="white" stroke="transparent" points="-4,4 -4,-115 416,-115 416,4 -4,4"/>
<!-- T1880 -->
<g id="node1" class="node">
<title>T1880</title>
<polygon fill="none" stroke="#0058ad" points="0,-81.5 0,-110.5 412,-110.5 412,-81.5 0,-81.5"/>
<text text-anchor="middle" x="134" y="-92.3" font-family="Times,serif" font-size="14.00" fill="#0058ad">r 44 [1 2 3 4 5 6 7 8 9 10 11 12 13]</text>
<polyline fill="none" stroke="#0058ad" points="268,-81.5 268,-110.5 "/>
<text text-anchor="middle" x="298.5" y="-92.3" font-family="Times,serif" font-size="14.00" fill="#0058ad">a 45 2</text>
<polyline fill="none" stroke="#0058ad" points="329,-81.5 329,-110.5 "/>
<text text-anchor="middle" x="370.5" y="-92.3" font-family="Times,serif" font-size="14.00" fill="#0058ad">r 45 [1 2]</text>
</g>
<!-- T1881 -->
<g id="node2" class="node">
<title>T1881</title>
<polygon fill="none" stroke="#0058ad" points="115,-0.5 115,-29.5 395,-29.5 395,-0.5 115,-0.5"/>
<text text-anchor="middle" x="150" y="-11.3" font-family="Times,serif" font-size="14.00" fill="#0058ad">a 44 14</text>
<polyline fill="none" stroke="#0058ad" points="185,-0.5 185,-29.5 "/>
<text text-anchor="middle" x="220" y="-11.3" font-family="Times,serif" font-size="14.00" fill="#0058ad">a 39 31</text>
<polyline fill="none" stroke="#0058ad" points="255,-0.5 255,-29.5 "/>
<text text-anchor="middle" x="290" y="-11.3" font-family="Times,serif" font-size="14.00" fill="#0058ad">r 45 [1]</text>
<polyline fill="none" stroke="#0058ad" points="325,-0.5 325,-29.5 "/>
<text text-anchor="middle" x="360" y="-11.3" font-family="Times,serif" font-size="14.00" fill="#0058ad">a 39 32</text>
</g>
<!-- T1880&#45;&gt;T1881 -->
<g id="edge1" class="edge">
<title>T1880:f0&#45;&gt;T1881:f0</title>
<path fill="none" stroke="#5b00c0" d="M134,-81C134,-61.14 145.18,-55.45 148.85,-40.23"/>
<polygon fill="#5b00c0" stroke="#5b00c0" points="152.36,-40.33 150,-30 145.4,-39.55 152.36,-40.33"/>
<text text-anchor="middle" x="155.5" y="-51.8" font-family="Times,serif" font-size="14.00" fill="#5b00c0">rw</text>
</g>
<!-- T1881&#45;&gt;T1880 -->
<g id="edge2" class="edge">
<title>T1881:f2&#45;&gt;T1880:f1</title>
<path fill="none" stroke="#5b00c0" d="M290,-30C290,-49.24 296.29,-55.87 298.35,-70.97"/>
<polygon fill="#5b00c0" stroke="#5b00c0" points="294.86,-71.25 299,-81 301.85,-70.8 294.86,-71.25"/>
<text text-anchor="middle" x="305.5" y="-51.8" font-family="Times,serif" font-size="14.00" fill="#5b00c0">rw</text>
</g>
</g>
</svg>
