<?xml version="1.0" encoding="UTF-8" standalone="no"?>
<!DOCTYPE svg PUBLIC "-//W3C//DTD SVG 1.1//EN"
 "http://www.w3.org/Graphics/SVG/1.1/DTD/svg11.dtd">
<!-- Generated by graphviz version 2.43.0 (0)
 -->
<!-- Title: a_graph Pages: 1 -->
<svg width="1943pt" height="119pt"
 viewBox="0.00 0.00 1943.00 119.00" xmlns="http://www.w3.org/2000/svg" xmlns:xlink="http://www.w3.org/1999/xlink">
<g id="graph0" class="graph" transform="scale(1 1) rotate(0) translate(4 115)">
<title>a_graph</title>
<polygon fill="white" stroke="transparent" points="-4,4 -4,-115 1939,-115 1939,4 -4,4"/>
<!-- T1655 -->
<g id="node1" class="node">
<title>T1655</title>
<polygon fill="none" stroke="#0058ad" points="827.5,-81.5 827.5,-110.5 1541.5,-110.5 1541.5,-81.5 827.5,-81.5"/>
<text text-anchor="middle" x="862.5" y="-92.3" font-family="Times,serif" font-size="14.00" fill="#0058ad">a 170 4</text>
<polyline fill="none" stroke="#0058ad" points="897.5,-81.5 897.5,-110.5 "/>
<text text-anchor="middle" x="1058.5" y="-92.3" font-family="Times,serif" font-size="14.00" fill="#0058ad">r 169 [1 2 3 4 5 6 7 8 9 10 11 12 13 14 15]</text>
<polyline fill="none" stroke="#0058ad" points="1219.5,-81.5 1219.5,-110.5 "/>
<text text-anchor="middle" x="1380.5" y="-92.3" font-family="Times,serif" font-size="14.00" fill="#0058ad">r 169 [1 2 3 4 5 6 7 8 9 10 11 12 13 14 15]</text>
</g>
<!-- T1657 -->
<g id="node2" class="node">
<title>T1657</title>
<polygon fill="none" stroke="#0058ad" points="0,-0.5 0,-29.5 1935,-29.5 1935,-0.5 0,-0.5"/>
<text text-anchor="middle" x="39.5" y="-11.3" font-family="Times,serif" font-size="14.00" fill="#0058ad">a 169 16</text>
<polyline fill="none" stroke="#0058ad" points="79,-0.5 79,-29.5 "/>
<text text-anchor="middle" x="118.5" y="-11.3" font-family="Times,serif" font-size="14.00" fill="#0058ad">a 169 17</text>
<polyline fill="none" stroke="#0058ad" points="158,-0.5 158,-29.5 "/>
<text text-anchor="middle" x="341.5" y="-11.3" font-family="Times,serif" font-size="14.00" fill="#0058ad">r 169 [1 2 3 4 5 6 7 8 9 10 11 12 13 14 15 16 17]</text>
<polyline fill="none" stroke="#0058ad" points="525,-0.5 525,-29.5 "/>
<text text-anchor="middle" x="708.5" y="-11.3" font-family="Times,serif" font-size="14.00" fill="#0058ad">r 169 [1 2 3 4 5 6 7 8 9 10 11 12 13 14 15 16 17]</text>
<polyline fill="none" stroke="#0058ad" points="892,-0.5 892,-29.5 "/>
<text text-anchor="middle" x="1075.5" y="-11.3" font-family="Times,serif" font-size="14.00" fill="#0058ad">r 169 [1 2 3 4 5 6 7 8 9 10 11 12 13 14 15 16 17]</text>
<polyline fill="none" stroke="#0058ad" points="1259,-0.5 1259,-29.5 "/>
<text text-anchor="middle" x="1298.5" y="-11.3" font-family="Times,serif" font-size="14.00" fill="#0058ad">a 169 18</text>
<polyline fill="none" stroke="#0058ad" points="1338,-0.5 1338,-29.5 "/>
<text text-anchor="middle" x="1377.5" y="-11.3" font-family="Times,serif" font-size="14.00" fill="#0058ad">a 169 19</text>
<polyline fill="none" stroke="#0058ad" points="1417,-0.5 1417,-29.5 "/>
<text text-anchor="middle" x="1623" y="-11.3" font-family="Times,serif" font-size="14.00" fill="#0058ad">r 169 [1 2 3 4 5 6 7 8 9 10 11 12 13 14 15 16 17 18 19]</text>
<polyline fill="none" stroke="#0058ad" points="1829,-0.5 1829,-29.5 "/>
<text text-anchor="middle" x="1882" y="-11.3" font-family="Times,serif" font-size="14.00" fill="#0058ad">r 170 [1 2 3]</text>
</g>
<!-- T1655&#45;&gt;T1657 -->
<g id="edge1" class="edge">
<title>T1655:f1&#45;&gt;T1657:f0</title>
<path fill="none" stroke="#5b00c0" d="M1058.5,-81C1058.5,-19.67 985.31,-56.01 924.5,-48 901.62,-44.99 142.23,-53.43 48.88,-34.16"/>
<polygon fill="#5b00c0" stroke="#5b00c0" points="50.06,-30.85 39.5,-30 47.22,-37.25 50.06,-30.85"/>
<text text-anchor="middle" x="1065" y="-51.8" font-family="Times,serif" font-size="14.00" fill="#5b00c0">rw</text>
</g>
<!-- T1657&#45;&gt;T1655 -->
<g id="edge2" class="edge">
<title>T1657:f8&#45;&gt;T1655:f0</title>
<path fill="none" stroke="#5b00c0" d="M1882.5,-30C1882.5,-57.25 927,-38.39 901.5,-48 883.9,-54.63 868.71,-57.34 864,-70.97"/>
<polygon fill="#5b00c0" stroke="#5b00c0" points="860.52,-70.59 862.5,-81 867.44,-71.63 860.52,-70.59"/>
<text text-anchor="middle" x="911" y="-51.8" font-family="Times,serif" font-size="14.00" fill="#5b00c0">rw</text>
</g>
</g>
</svg>
