<?xml version="1.0" encoding="UTF-8" standalone="no"?>
<!DOCTYPE svg PUBLIC "-//W3C//DTD SVG 1.1//EN"
 "http://www.w3.org/Graphics/SVG/1.1/DTD/svg11.dtd">
<!-- Generated by graphviz version 2.43.0 (0)
 -->
<!-- Title: a_graph Pages: 1 -->
<svg width="773pt" height="119pt"
 viewBox="0.00 0.00 773.00 119.00" xmlns="http://www.w3.org/2000/svg" xmlns:xlink="http://www.w3.org/1999/xlink">
<g id="graph0" class="graph" transform="scale(1 1) rotate(0) translate(4 115)">
<title>a_graph</title>
<polygon fill="white" stroke="transparent" points="-4,4 -4,-115 769,-115 769,4 -4,4"/>
<!-- T2170 -->
<g id="node1" class="node">
<title>T2170</title>
<polygon fill="none" stroke="#0058ad" points="170.5,-81.5 170.5,-110.5 756.5,-110.5 756.5,-81.5 170.5,-81.5"/>
<text text-anchor="middle" x="282" y="-92.3" font-family="Times,serif" font-size="14.00" fill="#0058ad">r 82 [1 2 3 4 5 6 7 8 9 10 11]</text>
<polyline fill="none" stroke="#0058ad" points="393.5,-81.5 393.5,-110.5 "/>
<text text-anchor="middle" x="428.5" y="-92.3" font-family="Times,serif" font-size="14.00" fill="#0058ad">a 80 19</text>
<polyline fill="none" stroke="#0058ad" points="463.5,-81.5 463.5,-110.5 "/>
<text text-anchor="middle" x="575" y="-92.3" font-family="Times,serif" font-size="14.00" fill="#0058ad">r 82 [1 2 3 4 5 6 7 8 9 10 11]</text>
<polyline fill="none" stroke="#0058ad" points="686.5,-81.5 686.5,-110.5 "/>
<text text-anchor="middle" x="721.5" y="-92.3" font-family="Times,serif" font-size="14.00" fill="#0058ad">a 80 20</text>
</g>
<!-- T2169 -->
<g id="node2" class="node">
<title>T2169</title>
<polygon fill="none" stroke="#0058ad" points="0,-0.5 0,-29.5 765,-29.5 765,-0.5 0,-0.5"/>
<text text-anchor="middle" x="35" y="-11.3" font-family="Times,serif" font-size="14.00" fill="#0058ad">a 82 12</text>
<polyline fill="none" stroke="#0058ad" points="70,-0.5 70,-29.5 "/>
<text text-anchor="middle" x="192.5" y="-11.3" font-family="Times,serif" font-size="14.00" fill="#0058ad">r 82 [1 2 3 4 5 6 7 8 9 10 11 12]</text>
<polyline fill="none" stroke="#0058ad" points="315,-0.5 315,-29.5 "/>
<text text-anchor="middle" x="350" y="-11.3" font-family="Times,serif" font-size="14.00" fill="#0058ad">a 82 13</text>
<polyline fill="none" stroke="#0058ad" points="385,-0.5 385,-29.5 "/>
<text text-anchor="middle" x="575" y="-11.3" font-family="Times,serif" font-size="14.00" fill="#0058ad">r 80 [1 2 3 4 5 6 7 8 9 10 11 12 13 14 15 16 17 18]</text>
</g>
<!-- T2170&#45;&gt;T2169 -->
<g id="edge1" class="edge">
<title>T2170:f0&#45;&gt;T2169:f0</title>
<path fill="none" stroke="#5b00c0" d="M169.5,-96C139.37,-96 53.69,-69.45 37.25,-39.73"/>
<polygon fill="#5b00c0" stroke="#5b00c0" points="40.59,-38.67 34.5,-30 33.85,-40.57 40.59,-38.67"/>
<text text-anchor="middle" x="73" y="-51.8" font-family="Times,serif" font-size="14.00" fill="#5b00c0">rw</text>
</g>
<!-- T2169&#45;&gt;T2170 -->
<g id="edge2" class="edge">
<title>T2169:f3&#45;&gt;T2170:f1</title>
<path fill="none" stroke="#5b00c0" d="M575.5,-30C575.5,-95.37 444.14,-20.93 429.77,-71.01"/>
<polygon fill="#5b00c0" stroke="#5b00c0" points="426.29,-70.64 428.5,-81 433.23,-71.52 426.29,-70.64"/>
<text text-anchor="middle" x="579" y="-51.8" font-family="Times,serif" font-size="14.00" fill="#5b00c0">rw</text>
</g>
</g>
</svg>
