<?xml version="1.0" encoding="UTF-8" standalone="no"?>
<!DOCTYPE svg PUBLIC "-//W3C//DTD SVG 1.1//EN"
 "http://www.w3.org/Graphics/SVG/1.1/DTD/svg11.dtd">
<!-- Generated by graphviz version 2.43.0 (0)
 -->
<!-- Title: a_graph Pages: 1 -->
<svg width="1220pt" height="119pt"
 viewBox="0.00 0.00 1220.00 119.00" xmlns="http://www.w3.org/2000/svg" xmlns:xlink="http://www.w3.org/1999/xlink">
<g id="graph0" class="graph" transform="scale(1 1) rotate(0) translate(4 115)">
<title>a_graph</title>
<polygon fill="white" stroke="transparent" points="-4,4 -4,-115 1216,-115 1216,4 -4,4"/>
<!-- T1574 -->
<g id="node1" class="node">
<title>T1574</title>
<polygon fill="none" stroke="#0058ad" points="229,-81.5 229,-110.5 1212,-110.5 1212,-81.5 229,-81.5"/>
<text text-anchor="middle" x="264" y="-92.3" font-family="Times,serif" font-size="14.00" fill="#0058ad">a 61 31</text>
<polyline fill="none" stroke="#0058ad" points="299,-81.5 299,-110.5 "/>
<text text-anchor="middle" x="334" y="-92.3" font-family="Times,serif" font-size="14.00" fill="#0058ad">a 61 32</text>
<polyline fill="none" stroke="#0058ad" points="369,-81.5 369,-110.5 "/>
<text text-anchor="middle" x="399.5" y="-92.3" font-family="Times,serif" font-size="14.00" fill="#0058ad">r 62 []</text>
<polyline fill="none" stroke="#0058ad" points="430,-81.5 430,-110.5 "/>
<text text-anchor="middle" x="460.5" y="-92.3" font-family="Times,serif" font-size="14.00" fill="#0058ad">a 62 1</text>
<polyline fill="none" stroke="#0058ad" points="491,-81.5 491,-110.5 "/>
<text text-anchor="middle" x="521.5" y="-92.3" font-family="Times,serif" font-size="14.00" fill="#0058ad">a 62 2</text>
<polyline fill="none" stroke="#0058ad" points="552,-81.5 552,-110.5 "/>
<text text-anchor="middle" x="821" y="-92.3" font-family="Times,serif" font-size="14.00" fill="#0058ad">r 60 [1 2 3 4 5 6 7 8 9 10 11 12 13 14 15 16 17 18 19 20 21 22 23 24 25]</text>
<polyline fill="none" stroke="#0058ad" points="1090,-81.5 1090,-110.5 "/>
<text text-anchor="middle" x="1120.5" y="-92.3" font-family="Times,serif" font-size="14.00" fill="#0058ad">a 62 3</text>
<polyline fill="none" stroke="#0058ad" points="1151,-81.5 1151,-110.5 "/>
<text text-anchor="middle" x="1181.5" y="-92.3" font-family="Times,serif" font-size="14.00" fill="#0058ad">a 62 4</text>
</g>
<!-- T1575 -->
<g id="node2" class="node">
<title>T1575</title>
<polygon fill="none" stroke="#0058ad" points="0,-0.5 0,-29.5 739,-29.5 739,-0.5 0,-0.5"/>
<text text-anchor="middle" x="269" y="-11.3" font-family="Times,serif" font-size="14.00" fill="#0058ad">r 60 [1 2 3 4 5 6 7 8 9 10 11 12 13 14 15 16 17 18 19 20 21 22 23 24 25]</text>
<polyline fill="none" stroke="#0058ad" points="538,-0.5 538,-29.5 "/>
<text text-anchor="middle" x="573" y="-11.3" font-family="Times,serif" font-size="14.00" fill="#0058ad">a 60 26</text>
<polyline fill="none" stroke="#0058ad" points="608,-0.5 608,-29.5 "/>
<text text-anchor="middle" x="643" y="-11.3" font-family="Times,serif" font-size="14.00" fill="#0058ad">a 60 27</text>
<polyline fill="none" stroke="#0058ad" points="678,-0.5 678,-29.5 "/>
<text text-anchor="middle" x="708.5" y="-11.3" font-family="Times,serif" font-size="14.00" fill="#0058ad">r 62 []</text>
</g>
<!-- T1574&#45;&gt;T1575 -->
<g id="edge1" class="edge">
<title>T1574:f5&#45;&gt;T1575:f1</title>
<path fill="none" stroke="#5b00c0" d="M821.5,-81C821.5,27.9 589.23,-131.61 574.26,-40.01"/>
<polygon fill="#5b00c0" stroke="#5b00c0" points="577.74,-39.71 573.5,-30 570.76,-40.24 577.74,-39.71"/>
<text text-anchor="middle" x="826" y="-51.8" font-family="Times,serif" font-size="14.00" fill="#5b00c0">rw</text>
</g>
<!-- T1575&#45;&gt;T1574 -->
<g id="edge2" class="edge">
<title>T1575:f3&#45;&gt;T1574:f3</title>
<path fill="none" stroke="#5b00c0" d="M708.5,-30C708.5,-47.23 571.29,-44.12 554.5,-48 515.07,-57.11 469.18,-40.14 461.59,-70.97"/>
<polygon fill="#5b00c0" stroke="#5b00c0" points="458.1,-70.68 460.5,-81 465.06,-71.44 458.1,-70.68"/>
<text text-anchor="middle" x="564" y="-51.8" font-family="Times,serif" font-size="14.00" fill="#5b00c0">rw</text>
</g>
</g>
</svg>
