<?xml version="1.0" encoding="UTF-8" standalone="no"?>
<!DOCTYPE svg PUBLIC "-//W3C//DTD SVG 1.1//EN"
 "http://www.w3.org/Graphics/SVG/1.1/DTD/svg11.dtd">
<!-- Generated by graphviz version 2.43.0 (0)
 -->
<!-- Title: a_graph Pages: 1 -->
<svg width="1726pt" height="119pt"
 viewBox="0.00 0.00 1726.00 119.00" xmlns="http://www.w3.org/2000/svg" xmlns:xlink="http://www.w3.org/1999/xlink">
<g id="graph0" class="graph" transform="scale(1 1) rotate(0) translate(4 115)">
<title>a_graph</title>
<polygon fill="white" stroke="transparent" points="-4,4 -4,-115 1722,-115 1722,4 -4,4"/>
<!-- T1985 -->
<g id="node1" class="node">
<title>T1985</title>
<polygon fill="none" stroke="#0058ad" points="0,-81.5 0,-110.5 1698,-110.5 1698,-81.5 0,-81.5"/>
<text text-anchor="middle" x="149.5" y="-92.3" font-family="Times,serif" font-size="14.00" fill="#0058ad">r 78 [1 2 3 4 6 7 8 9 10 11 12 13 14 15]</text>
<polyline fill="none" stroke="#0058ad" points="299,-81.5 299,-110.5 "/>
<text text-anchor="middle" x="489" y="-92.3" font-family="Times,serif" font-size="14.00" fill="#0058ad">r 77 [1 2 3 4 5 6 7 8 9 10 11 12 13 15 16 17 18 21]</text>
<polyline fill="none" stroke="#0058ad" points="679,-81.5 679,-110.5 "/>
<text text-anchor="middle" x="1004" y="-92.3" font-family="Times,serif" font-size="14.00" fill="#0058ad">r 72 [1 2 3 4 5 6 7 8 9 10 11 12 13 14 15 16 17 18 19 20 21 22 23 24 25 27 28 29 30 31]</text>
<polyline fill="none" stroke="#0058ad" points="1329,-81.5 1329,-110.5 "/>
<text text-anchor="middle" x="1478.5" y="-92.3" font-family="Times,serif" font-size="14.00" fill="#0058ad">r 78 [1 2 3 4 6 7 8 9 10 11 12 13 14 15]</text>
<polyline fill="none" stroke="#0058ad" points="1628,-81.5 1628,-110.5 "/>
<text text-anchor="middle" x="1663" y="-92.3" font-family="Times,serif" font-size="14.00" fill="#0058ad">a 77 22</text>
</g>
<!-- T1984 -->
<g id="node2" class="node">
<title>T1984</title>
<polygon fill="none" stroke="#0058ad" points="876,-0.5 876,-29.5 1718,-29.5 1718,-0.5 876,-0.5"/>
<text text-anchor="middle" x="1066" y="-11.3" font-family="Times,serif" font-size="14.00" fill="#0058ad">r 77 [1 2 3 4 5 6 7 8 9 10 11 12 13 15 16 17 18 21]</text>
<polyline fill="none" stroke="#0058ad" points="1256,-0.5 1256,-29.5 "/>
<text text-anchor="middle" x="1291" y="-11.3" font-family="Times,serif" font-size="14.00" fill="#0058ad">a 72 32</text>
<polyline fill="none" stroke="#0058ad" points="1326,-0.5 1326,-29.5 "/>
<text text-anchor="middle" x="1361" y="-11.3" font-family="Times,serif" font-size="14.00" fill="#0058ad">a 78 16</text>
<polyline fill="none" stroke="#0058ad" points="1396,-0.5 1396,-29.5 "/>
<text text-anchor="middle" x="1557" y="-11.3" font-family="Times,serif" font-size="14.00" fill="#0058ad">r 78 [1 2 3 4 6 7 8 9 10 11 12 13 14 15 16]</text>
</g>
<!-- T1985&#45;&gt;T1984 -->
<g id="edge1" class="edge">
<title>T1985:f2&#45;&gt;T1984:f1</title>
<path fill="none" stroke="#5b00c0" d="M1004,-81C1004,44.88 1274.97,-148.04 1290.32,-40.21"/>
<polygon fill="#5b00c0" stroke="#5b00c0" points="1293.83,-40.21 1291,-30 1286.85,-39.75 1293.83,-40.21"/>
<text text-anchor="middle" x="1298.5" y="-51.8" font-family="Times,serif" font-size="14.00" fill="#5b00c0">rw</text>
</g>
<!-- T1984&#45;&gt;T1985 -->
<g id="edge2" class="edge">
<title>T1984:f0&#45;&gt;T1985:f4</title>
<path fill="none" stroke="#5b00c0" d="M1066,-30C1066,-43.7 1298.34,-46.86 1312,-48 1464.64,-60.76 1654.27,69.62 1662.71,-70.88"/>
<polygon fill="#5b00c0" stroke="#5b00c0" points="1659.21,-71.11 1663,-81 1666.21,-70.9 1659.21,-71.11"/>
<text text-anchor="middle" x="1669.5" y="-51.8" font-family="Times,serif" font-size="14.00" fill="#5b00c0">rw</text>
</g>
</g>
</svg>
