<?xml version="1.0" encoding="UTF-8" standalone="no"?>
<!DOCTYPE svg PUBLIC "-//W3C//DTD SVG 1.1//EN"
 "http://www.w3.org/Graphics/SVG/1.1/DTD/svg11.dtd">
<!-- Generated by graphviz version 2.43.0 (0)
 -->
<!-- Title: a_graph Pages: 1 -->
<svg width="1206pt" height="119pt"
 viewBox="0.00 0.00 1205.50 119.00" xmlns="http://www.w3.org/2000/svg" xmlns:xlink="http://www.w3.org/1999/xlink">
<g id="graph0" class="graph" transform="scale(1 1) rotate(0) translate(4 115)">
<title>a_graph</title>
<polygon fill="white" stroke="transparent" points="-4,4 -4,-115 1201.5,-115 1201.5,4 -4,4"/>
<!-- T688 -->
<g id="node1" class="node">
<title>T688</title>
<polygon fill="none" stroke="#0058ad" points="0,-81.5 0,-110.5 606,-110.5 606,-81.5 0,-81.5"/>
<text text-anchor="middle" x="48.5" y="-92.3" font-family="Times,serif" font-size="14.00" fill="#0058ad">r 25 [2 3 4]</text>
<polyline fill="none" stroke="#0058ad" points="97,-81.5 97,-110.5 "/>
<text text-anchor="middle" x="321" y="-92.3" font-family="Times,serif" font-size="14.00" fill="#0058ad">r 26 [1 2 3 4 5 6 7 8 9 10 12 13 14 15 16 17 18 19 20 21 22]</text>
<polyline fill="none" stroke="#0058ad" points="545,-81.5 545,-110.5 "/>
<text text-anchor="middle" x="575.5" y="-92.3" font-family="Times,serif" font-size="14.00" fill="#0058ad">a 27 9</text>
</g>
<!-- T689 -->
<g id="node2" class="node">
<title>T689</title>
<polygon fill="none" stroke="#0058ad" points="62.5,-0.5 62.5,-29.5 1197.5,-29.5 1197.5,-0.5 62.5,-0.5"/>
<text text-anchor="middle" x="138" y="-11.3" font-family="Times,serif" font-size="14.00" fill="#0058ad">r 27 [2 3 4 5 6 7 8]</text>
<polyline fill="none" stroke="#0058ad" points="213.5,-0.5 213.5,-29.5 "/>
<text text-anchor="middle" x="244" y="-11.3" font-family="Times,serif" font-size="14.00" fill="#0058ad">a 25 5</text>
<polyline fill="none" stroke="#0058ad" points="274.5,-0.5 274.5,-29.5 "/>
<text text-anchor="middle" x="329.5" y="-11.3" font-family="Times,serif" font-size="14.00" fill="#0058ad">r 25 [2 3 4 5]</text>
<polyline fill="none" stroke="#0058ad" points="384.5,-0.5 384.5,-29.5 "/>
<text text-anchor="middle" x="415" y="-11.3" font-family="Times,serif" font-size="14.00" fill="#0058ad">a 25 6</text>
<polyline fill="none" stroke="#0058ad" points="445.5,-0.5 445.5,-29.5 "/>
<text text-anchor="middle" x="476" y="-11.3" font-family="Times,serif" font-size="14.00" fill="#0058ad">a 25 7</text>
<polyline fill="none" stroke="#0058ad" points="506.5,-0.5 506.5,-29.5 "/>
<text text-anchor="middle" x="541.5" y="-11.3" font-family="Times,serif" font-size="14.00" fill="#0058ad">a 26 23</text>
<polyline fill="none" stroke="#0058ad" points="576.5,-0.5 576.5,-29.5 "/>
<text text-anchor="middle" x="811.5" y="-11.3" font-family="Times,serif" font-size="14.00" fill="#0058ad">r 26 [1 2 3 4 5 6 7 8 9 10 12 13 14 15 16 17 18 19 20 21 22 23]</text>
<polyline fill="none" stroke="#0058ad" points="1046.5,-0.5 1046.5,-29.5 "/>
<text text-anchor="middle" x="1122" y="-11.3" font-family="Times,serif" font-size="14.00" fill="#0058ad">r 27 [2 3 4 5 6 7 8]</text>
</g>
<!-- T688&#45;&gt;T689 -->
<g id="edge1" class="edge">
<title>T688:f0&#45;&gt;T689:f1</title>
<path fill="none" stroke="#5b00c0" d="M48,-81C48,5.32 228.25,-109.8 243.04,-40"/>
<polygon fill="#5b00c0" stroke="#5b00c0" points="246.53,-40.29 244,-30 239.56,-39.62 246.53,-40.29"/>
<text text-anchor="middle" x="248.5" y="-51.8" font-family="Times,serif" font-size="14.00" fill="#5b00c0">rw</text>
</g>
<!-- T689&#45;&gt;T688 -->
<g id="edge2" class="edge">
<title>T689:f0&#45;&gt;T688:f2</title>
<path fill="none" stroke="#5b00c0" d="M138,-30C138,-41.17 502.39,-64.2 566.44,-77.46"/>
<polygon fill="#5b00c0" stroke="#5b00c0" points="565.41,-80.81 576,-81 567.84,-74.24 565.41,-80.81"/>
<text text-anchor="middle" x="443.5" y="-51.8" font-family="Times,serif" font-size="14.00" fill="#5b00c0">rw</text>
</g>
</g>
</svg>
