<?xml version="1.0" encoding="UTF-8" standalone="no"?>
<!DOCTYPE svg PUBLIC "-//W3C//DTD SVG 1.1//EN"
 "http://www.w3.org/Graphics/SVG/1.1/DTD/svg11.dtd">
<!-- Generated by graphviz version 2.43.0 (0)
 -->
<!-- Title: a_graph Pages: 1 -->
<svg width="1184pt" height="119pt"
 viewBox="0.00 0.00 1184.00 119.00" xmlns="http://www.w3.org/2000/svg" xmlns:xlink="http://www.w3.org/1999/xlink">
<g id="graph0" class="graph" transform="scale(1 1) rotate(0) translate(4 115)">
<title>a_graph</title>
<polygon fill="white" stroke="transparent" points="-4,4 -4,-115 1180,-115 1180,4 -4,4"/>
<!-- T2224 -->
<g id="node1" class="node">
<title>T2224</title>
<polygon fill="none" stroke="#0058ad" points="466.5,-81.5 466.5,-110.5 673.5,-110.5 673.5,-81.5 466.5,-81.5"/>
<text text-anchor="middle" x="501.5" y="-92.3" font-family="Times,serif" font-size="14.00" fill="#0058ad">a 83 32</text>
<polyline fill="none" stroke="#0058ad" points="536.5,-81.5 536.5,-110.5 "/>
<text text-anchor="middle" x="605" y="-92.3" font-family="Times,serif" font-size="14.00" fill="#0058ad">r 84 [1 2 3 4 5 6]</text>
</g>
<!-- T2225 -->
<g id="node2" class="node">
<title>T2225</title>
<polygon fill="none" stroke="#0058ad" points="0,-0.5 0,-29.5 1176,-29.5 1176,-0.5 0,-0.5"/>
<text text-anchor="middle" x="336.5" y="-11.3" font-family="Times,serif" font-size="14.00" fill="#0058ad">r 83 [1 2 3 4 5 6 7 8 9 10 11 12 13 14 15 16 17 18 19 20 21 22 23 24 25 26 27 28 29 30 31]</text>
<polyline fill="none" stroke="#0058ad" points="673,-0.5 673,-29.5 "/>
<text text-anchor="middle" x="703.5" y="-11.3" font-family="Times,serif" font-size="14.00" fill="#0058ad">a 84 7</text>
<polyline fill="none" stroke="#0058ad" points="734,-0.5 734,-29.5 "/>
<text text-anchor="middle" x="769" y="-11.3" font-family="Times,serif" font-size="14.00" fill="#0058ad">a 81 21</text>
<polyline fill="none" stroke="#0058ad" points="804,-0.5 804,-29.5 "/>
<text text-anchor="middle" x="879.5" y="-11.3" font-family="Times,serif" font-size="14.00" fill="#0058ad">r 84 [1 2 3 4 5 6 7]</text>
<polyline fill="none" stroke="#0058ad" points="955,-0.5 955,-29.5 "/>
<text text-anchor="middle" x="1030.5" y="-11.3" font-family="Times,serif" font-size="14.00" fill="#0058ad">r 84 [1 2 3 4 5 6 7]</text>
<polyline fill="none" stroke="#0058ad" points="1106,-0.5 1106,-29.5 "/>
<text text-anchor="middle" x="1141" y="-11.3" font-family="Times,serif" font-size="14.00" fill="#0058ad">a 81 22</text>
</g>
<!-- T2224&#45;&gt;T2225 -->
<g id="edge1" class="edge">
<title>T2224:f1&#45;&gt;T2225:f1</title>
<path fill="none" stroke="#5b00c0" d="M605,-81C605,-35.37 689.14,-72.59 702.28,-39.91"/>
<polygon fill="#5b00c0" stroke="#5b00c0" points="705.74,-40.45 704,-30 698.84,-39.25 705.74,-40.45"/>
<text text-anchor="middle" x="704.5" y="-51.8" font-family="Times,serif" font-size="14.00" fill="#5b00c0">rw</text>
</g>
<!-- T2225&#45;&gt;T2224 -->
<g id="edge2" class="edge">
<title>T2225:f0&#45;&gt;T2224:f0</title>
<path fill="none" stroke="#5b00c0" d="M336,-30C336,-91.01 393.97,-95.66 454.82,-95.98"/>
<polygon fill="#5b00c0" stroke="#5b00c0" points="454.99,-99.48 465,-96 455.01,-92.48 454.99,-99.48"/>
<text text-anchor="middle" x="353.5" y="-51.8" font-family="Times,serif" font-size="14.00" fill="#5b00c0">rw</text>
</g>
</g>
</svg>
