<?xml version="1.0" encoding="UTF-8" standalone="no"?>
<!DOCTYPE svg PUBLIC "-//W3C//DTD SVG 1.1//EN"
 "http://www.w3.org/Graphics/SVG/1.1/DTD/svg11.dtd">
<!-- Generated by graphviz version 2.43.0 (0)
 -->
<!-- Title: a_graph Pages: 1 -->
<svg width="2767pt" height="119pt"
 viewBox="0.00 0.00 2767.00 119.00" xmlns="http://www.w3.org/2000/svg" xmlns:xlink="http://www.w3.org/1999/xlink">
<g id="graph0" class="graph" transform="scale(1 1) rotate(0) translate(4 115)">
<title>a_graph</title>
<polygon fill="white" stroke="transparent" points="-4,4 -4,-115 2763,-115 2763,4 -4,4"/>
<!-- T2221 -->
<g id="node1" class="node">
<title>T2221</title>
<polygon fill="none" stroke="#0058ad" points="389.5,-81.5 389.5,-110.5 971.5,-110.5 971.5,-81.5 389.5,-81.5"/>
<text text-anchor="middle" x="451.5" y="-92.3" font-family="Times,serif" font-size="14.00" fill="#0058ad">r 84 [1 2 3 4 5]</text>
<polyline fill="none" stroke="#0058ad" points="513.5,-81.5 513.5,-110.5 "/>
<text text-anchor="middle" x="548.5" y="-92.3" font-family="Times,serif" font-size="14.00" fill="#0058ad">a 83 30</text>
<polyline fill="none" stroke="#0058ad" points="583.5,-81.5 583.5,-110.5 "/>
<text text-anchor="middle" x="618.5" y="-92.3" font-family="Times,serif" font-size="14.00" fill="#0058ad">a 83 31</text>
<polyline fill="none" stroke="#0058ad" points="653.5,-81.5 653.5,-110.5 "/>
<text text-anchor="middle" x="715.5" y="-92.3" font-family="Times,serif" font-size="14.00" fill="#0058ad">r 84 [1 2 3 4 5]</text>
<polyline fill="none" stroke="#0058ad" points="777.5,-81.5 777.5,-110.5 "/>
<text text-anchor="middle" x="812.5" y="-92.3" font-family="Times,serif" font-size="14.00" fill="#0058ad">a 81 20</text>
<polyline fill="none" stroke="#0058ad" points="847.5,-81.5 847.5,-110.5 "/>
<text text-anchor="middle" x="909.5" y="-92.3" font-family="Times,serif" font-size="14.00" fill="#0058ad">r 84 [1 2 3 4 5]</text>
</g>
<!-- T2220 -->
<g id="node2" class="node">
<title>T2220</title>
<polygon fill="none" stroke="#0058ad" points="0,-0.5 0,-29.5 2759,-29.5 2759,-0.5 0,-0.5"/>
<text text-anchor="middle" x="314" y="-11.3" font-family="Times,serif" font-size="14.00" fill="#0058ad">r 83 [1 2 3 4 5 6 7 8 9 10 11 12 13 14 15 16 17 18 19 20 21 22 23 24 25 26 27 28 29]</text>
<polyline fill="none" stroke="#0058ad" points="628,-0.5 628,-29.5 "/>
<text text-anchor="middle" x="658.5" y="-11.3" font-family="Times,serif" font-size="14.00" fill="#0058ad">a 84 6</text>
<polyline fill="none" stroke="#0058ad" points="689,-0.5 689,-29.5 "/>
<text text-anchor="middle" x="757.5" y="-11.3" font-family="Times,serif" font-size="14.00" fill="#0058ad">r 84 [1 2 3 4 5 6]</text>
<polyline fill="none" stroke="#0058ad" points="826,-0.5 826,-29.5 "/>
<text text-anchor="middle" x="1140" y="-11.3" font-family="Times,serif" font-size="14.00" fill="#0058ad">r 83 [1 2 3 4 5 6 7 8 9 10 11 12 13 14 15 16 17 18 19 20 21 22 23 24 25 26 27 28 29]</text>
<polyline fill="none" stroke="#0058ad" points="1454,-0.5 1454,-29.5 "/>
<text text-anchor="middle" x="1522.5" y="-11.3" font-family="Times,serif" font-size="14.00" fill="#0058ad">r 84 [1 2 3 4 5 6]</text>
<polyline fill="none" stroke="#0058ad" points="1591,-0.5 1591,-29.5 "/>
<text text-anchor="middle" x="1905" y="-11.3" font-family="Times,serif" font-size="14.00" fill="#0058ad">r 83 [1 2 3 4 5 6 7 8 9 10 11 12 13 14 15 16 17 18 19 20 21 22 23 24 25 26 27 28 29]</text>
<polyline fill="none" stroke="#0058ad" points="2219,-0.5 2219,-29.5 "/>
<text text-anchor="middle" x="2287.5" y="-11.3" font-family="Times,serif" font-size="14.00" fill="#0058ad">r 84 [1 2 3 4 5 6]</text>
<polyline fill="none" stroke="#0058ad" points="2356,-0.5 2356,-29.5 "/>
<text text-anchor="middle" x="2557.5" y="-11.3" font-family="Times,serif" font-size="14.00" fill="#0058ad">r 81 [1 2 3 4 5 6 7 8 9 10 11 12 13 14 15 16 17 18 19]</text>
</g>
<!-- T2221&#45;&gt;T2220 -->
<g id="edge1" class="edge">
<title>T2221:f0&#45;&gt;T2220:f1</title>
<path fill="none" stroke="#5b00c0" d="M451.5,-81C451.5,-61.47 463.14,-56.93 480.5,-48 495.83,-40.11 618.43,-47.32 650.73,-36.41"/>
<polygon fill="#5b00c0" stroke="#5b00c0" points="653.01,-39.06 658.5,-30 648.56,-33.66 653.01,-39.06"/>
<text text-anchor="middle" x="490" y="-51.8" font-family="Times,serif" font-size="14.00" fill="#5b00c0">rw</text>
</g>
<!-- T2220&#45;&gt;T2221 -->
<g id="edge2" class="edge">
<title>T2220:f0&#45;&gt;T2221:f1</title>
<path fill="none" stroke="#5b00c0" d="M313.5,-30C313.5,-50.76 479.96,-40.99 499.5,-48 520.54,-55.55 541.28,-55.13 546.97,-71.06"/>
<polygon fill="#5b00c0" stroke="#5b00c0" points="543.52,-71.65 548.5,-81 550.44,-70.58 543.52,-71.65"/>
<text text-anchor="middle" x="551" y="-51.8" font-family="Times,serif" font-size="14.00" fill="#5b00c0">rw</text>
</g>
</g>
</svg>
