<?xml version="1.0" encoding="UTF-8" standalone="no"?>
<!DOCTYPE svg PUBLIC "-//W3C//DTD SVG 1.1//EN"
 "http://www.w3.org/Graphics/SVG/1.1/DTD/svg11.dtd">
<!-- Generated by graphviz version 2.43.0 (0)
 -->
<!-- Title: a_graph Pages: 1 -->
<svg width="1400pt" height="119pt"
 viewBox="0.00 0.00 1400.00 119.00" xmlns="http://www.w3.org/2000/svg" xmlns:xlink="http://www.w3.org/1999/xlink">
<g id="graph0" class="graph" transform="scale(1 1) rotate(0) translate(4 115)">
<title>a_graph</title>
<polygon fill="white" stroke="transparent" points="-4,4 -4,-115 1396,-115 1396,4 -4,4"/>
<!-- T1705 -->
<g id="node1" class="node">
<title>T1705</title>
<polygon fill="none" stroke="#0058ad" points="0,-81.5 0,-110.5 1392,-110.5 1392,-81.5 0,-81.5"/>
<text text-anchor="middle" x="35" y="-92.3" font-family="Times,serif" font-size="14.00" fill="#0058ad">a 64 21</text>
<polyline fill="none" stroke="#0058ad" points="70,-81.5 70,-110.5 "/>
<text text-anchor="middle" x="282.5" y="-92.3" font-family="Times,serif" font-size="14.00" fill="#0058ad">r 64 [1 2 3 4 5 6 7 8 9 10 11 12 13 14 15 17 18 19 20 21]</text>
<polyline fill="none" stroke="#0058ad" points="495,-81.5 495,-110.5 "/>
<text text-anchor="middle" x="530" y="-92.3" font-family="Times,serif" font-size="14.00" fill="#0058ad">a 64 22</text>
<polyline fill="none" stroke="#0058ad" points="565,-81.5 565,-110.5 "/>
<text text-anchor="middle" x="658.5" y="-92.3" font-family="Times,serif" font-size="14.00" fill="#0058ad">r 63 [1 2 3 4 5 6 7 8 11]</text>
<polyline fill="none" stroke="#0058ad" points="752,-81.5 752,-110.5 "/>
<text text-anchor="middle" x="976" y="-92.3" font-family="Times,serif" font-size="14.00" fill="#0058ad">r 64 [1 2 3 4 5 6 7 8 9 10 11 12 13 14 15 17 18 19 20 21 22]</text>
<polyline fill="none" stroke="#0058ad" points="1200,-81.5 1200,-110.5 "/>
<text text-anchor="middle" x="1235" y="-92.3" font-family="Times,serif" font-size="14.00" fill="#0058ad">a 64 23</text>
<polyline fill="none" stroke="#0058ad" points="1270,-81.5 1270,-110.5 "/>
<text text-anchor="middle" x="1300.5" y="-92.3" font-family="Times,serif" font-size="14.00" fill="#0058ad">a 65 8</text>
<polyline fill="none" stroke="#0058ad" points="1331,-81.5 1331,-110.5 "/>
<text text-anchor="middle" x="1361.5" y="-92.3" font-family="Times,serif" font-size="14.00" fill="#0058ad">a 65 9</text>
</g>
<!-- T1704 -->
<g id="node2" class="node">
<title>T1704</title>
<polygon fill="none" stroke="#0058ad" points="89,-0.5 89,-29.5 771,-29.5 771,-0.5 89,-0.5"/>
<text text-anchor="middle" x="124" y="-11.3" font-family="Times,serif" font-size="14.00" fill="#0058ad">a 63 12</text>
<polyline fill="none" stroke="#0058ad" points="159,-0.5 159,-29.5 "/>
<text text-anchor="middle" x="263.5" y="-11.3" font-family="Times,serif" font-size="14.00" fill="#0058ad">r 63 [1 2 3 4 5 6 7 8 11 12]</text>
<polyline fill="none" stroke="#0058ad" points="368,-0.5 368,-29.5 "/>
<text text-anchor="middle" x="569.5" y="-11.3" font-family="Times,serif" font-size="14.00" fill="#0058ad">r 64 [1 2 3 4 5 6 7 8 9 10 11 12 13 14 15 17 18 19 20]</text>
</g>
<!-- T1705&#45;&gt;T1704 -->
<g id="edge1" class="edge">
<title>T1705:f3&#45;&gt;T1704:f0</title>
<path fill="none" stroke="#5b00c0" d="M658,-81C658,-53.41 200.32,-58.74 132.39,-36.03"/>
<polygon fill="#5b00c0" stroke="#5b00c0" points="134.16,-33 124,-30 130.08,-38.68 134.16,-33"/>
<text text-anchor="middle" x="551.5" y="-51.8" font-family="Times,serif" font-size="14.00" fill="#5b00c0">rw</text>
</g>
<!-- T1704&#45;&gt;T1705 -->
<g id="edge2" class="edge">
<title>T1704:f2&#45;&gt;T1705:f0</title>
<path fill="none" stroke="#5b00c0" d="M570,-30C570,-49.69 235.56,-45.73 216,-48 138.42,-57.01 43.93,-4.32 35.59,-70.81"/>
<polygon fill="#5b00c0" stroke="#5b00c0" points="32.09,-70.81 35,-81 39.08,-71.22 32.09,-70.81"/>
<text text-anchor="middle" x="225.5" y="-51.8" font-family="Times,serif" font-size="14.00" fill="#5b00c0">rw</text>
</g>
</g>
</svg>
