<?xml version="1.0" encoding="UTF-8" standalone="no"?>
<!DOCTYPE svg PUBLIC "-//W3C//DTD SVG 1.1//EN"
 "http://www.w3.org/Graphics/SVG/1.1/DTD/svg11.dtd">
<!-- Generated by graphviz version 2.43.0 (0)
 -->
<!-- Title: a_graph Pages: 1 -->
<svg width="2308pt" height="119pt"
 viewBox="0.00 0.00 2308.00 119.00" xmlns="http://www.w3.org/2000/svg" xmlns:xlink="http://www.w3.org/1999/xlink">
<g id="graph0" class="graph" transform="scale(1 1) rotate(0) translate(4 115)">
<title>a_graph</title>
<polygon fill="white" stroke="transparent" points="-4,4 -4,-115 2304,-115 2304,4 -4,4"/>
<!-- T80 -->
<g id="node1" class="node">
<title>T80</title>
<polygon fill="none" stroke="#0058ad" points="0,-81.5 0,-110.5 1164,-110.5 1164,-81.5 0,-81.5"/>
<text text-anchor="middle" x="242" y="-92.3" font-family="Times,serif" font-size="14.00" fill="#0058ad">r 3 [1 2 3 4 5 6 7 8 9 10 11 12 13 14 15 16 17 18 19 20 21 23 24]</text>
<polyline fill="none" stroke="#0058ad" points="484,-81.5 484,-110.5 "/>
<text text-anchor="middle" x="514.5" y="-92.3" font-family="Times,serif" font-size="14.00" fill="#0058ad">a 3 25</text>
<polyline fill="none" stroke="#0058ad" points="545,-81.5 545,-110.5 "/>
<text text-anchor="middle" x="798" y="-92.3" font-family="Times,serif" font-size="14.00" fill="#0058ad">r 3 [1 2 3 4 5 6 7 8 9 10 11 12 13 14 15 16 17 18 19 20 21 23 24 25]</text>
<polyline fill="none" stroke="#0058ad" points="1051,-81.5 1051,-110.5 "/>
<text text-anchor="middle" x="1077" y="-92.3" font-family="Times,serif" font-size="14.00" fill="#0058ad">r 4 []</text>
<polyline fill="none" stroke="#0058ad" points="1103,-81.5 1103,-110.5 "/>
<text text-anchor="middle" x="1133.5" y="-92.3" font-family="Times,serif" font-size="14.00" fill="#0058ad">a 3 26</text>
</g>
<!-- T81 -->
<g id="node2" class="node">
<title>T81</title>
<polygon fill="none" stroke="#0058ad" points="444,-0.5 444,-29.5 2300,-29.5 2300,-0.5 444,-0.5"/>
<text text-anchor="middle" x="474.5" y="-11.3" font-family="Times,serif" font-size="14.00" fill="#0058ad">a 0 10</text>
<polyline fill="none" stroke="#0058ad" points="505,-0.5 505,-29.5 "/>
<text text-anchor="middle" x="531" y="-11.3" font-family="Times,serif" font-size="14.00" fill="#0058ad">a 4 1</text>
<polyline fill="none" stroke="#0058ad" points="557,-0.5 557,-29.5 "/>
<text text-anchor="middle" x="799" y="-11.3" font-family="Times,serif" font-size="14.00" fill="#0058ad">r 3 [1 2 3 4 5 6 7 8 9 10 11 12 13 14 15 16 17 18 19 20 21 23 24]</text>
<polyline fill="none" stroke="#0058ad" points="1041,-0.5 1041,-29.5 "/>
<text text-anchor="middle" x="1071.5" y="-11.3" font-family="Times,serif" font-size="14.00" fill="#0058ad">r 4 [1]</text>
<polyline fill="none" stroke="#0058ad" points="1102,-0.5 1102,-29.5 "/>
<text text-anchor="middle" x="1191" y="-11.3" font-family="Times,serif" font-size="14.00" fill="#0058ad">r 0 [1 2 3 4 5 7 8 9 10]</text>
<polyline fill="none" stroke="#0058ad" points="1280,-0.5 1280,-29.5 "/>
<text text-anchor="middle" x="1306" y="-11.3" font-family="Times,serif" font-size="14.00" fill="#0058ad">a 4 2</text>
<polyline fill="none" stroke="#0058ad" points="1332,-0.5 1332,-29.5 "/>
<text text-anchor="middle" x="1574" y="-11.3" font-family="Times,serif" font-size="14.00" fill="#0058ad">r 3 [1 2 3 4 5 6 7 8 9 10 11 12 13 14 15 16 17 18 19 20 21 23 24]</text>
<polyline fill="none" stroke="#0058ad" points="1816,-0.5 1816,-29.5 "/>
<text text-anchor="middle" x="2058" y="-11.3" font-family="Times,serif" font-size="14.00" fill="#0058ad">r 3 [1 2 3 4 5 6 7 8 9 10 11 12 13 14 15 16 17 18 19 20 21 23 24]</text>
</g>
<!-- T80&#45;&gt;T81 -->
<g id="edge1" class="edge">
<title>T80:f3&#45;&gt;T81:f1</title>
<path fill="none" stroke="#5b00c0" d="M1077,-81C1077,-66.96 612.98,-48.41 540.48,-33.66"/>
<polygon fill="#5b00c0" stroke="#5b00c0" points="541.59,-30.34 531,-30 539.07,-36.87 541.59,-30.34"/>
<text text-anchor="middle" x="924.5" y="-51.8" font-family="Times,serif" font-size="14.00" fill="#5b00c0">rw</text>
</g>
<!-- T81&#45;&gt;T80 -->
<g id="edge2" class="edge">
<title>T81:f2&#45;&gt;T80:f1</title>
<path fill="none" stroke="#5b00c0" d="M799,-30C799,-58.94 698.51,-43 670,-48 603.88,-59.59 523.05,-15.24 514.7,-70.77"/>
<polygon fill="#5b00c0" stroke="#5b00c0" points="511.2,-70.78 514,-81 518.18,-71.26 511.2,-70.78"/>
<text text-anchor="middle" x="679.5" y="-51.8" font-family="Times,serif" font-size="14.00" fill="#5b00c0">rw</text>
</g>
</g>
</svg>
