<?xml version="1.0" encoding="UTF-8" standalone="no"?>
<!DOCTYPE svg PUBLIC "-//W3C//DTD SVG 1.1//EN"
 "http://www.w3.org/Graphics/SVG/1.1/DTD/svg11.dtd">
<!-- Generated by graphviz version 2.43.0 (0)
 -->
<!-- Title: a_graph Pages: 1 -->
<svg width="1269pt" height="119pt"
 viewBox="0.00 0.00 1269.00 119.00" xmlns="http://www.w3.org/2000/svg" xmlns:xlink="http://www.w3.org/1999/xlink">
<g id="graph0" class="graph" transform="scale(1 1) rotate(0) translate(4 115)">
<title>a_graph</title>
<polygon fill="white" stroke="transparent" points="-4,4 -4,-115 1265,-115 1265,4 -4,4"/>
<!-- T351 -->
<g id="node1" class="node">
<title>T351</title>
<polygon fill="none" stroke="#0058ad" points="247,-81.5 247,-110.5 1248,-110.5 1248,-81.5 247,-81.5"/>
<text text-anchor="middle" x="277.5" y="-92.3" font-family="Times,serif" font-size="14.00" fill="#0058ad">a 9 20</text>
<polyline fill="none" stroke="#0058ad" points="308,-81.5 308,-110.5 "/>
<text text-anchor="middle" x="493.5" y="-92.3" font-family="Times,serif" font-size="14.00" fill="#0058ad">r 13 [1 2 3 8 9 10 11 12 14 15 16 17 18 19 20 21]</text>
<polyline fill="none" stroke="#0058ad" points="679,-81.5 679,-110.5 "/>
<text text-anchor="middle" x="864.5" y="-92.3" font-family="Times,serif" font-size="14.00" fill="#0058ad">r 13 [1 2 3 8 9 10 11 12 14 15 16 17 18 19 20 21]</text>
<polyline fill="none" stroke="#0058ad" points="1050,-81.5 1050,-110.5 "/>
<text text-anchor="middle" x="1118.5" y="-92.3" font-family="Times,serif" font-size="14.00" fill="#0058ad">r 14 [1 2 3 4 5 7]</text>
<polyline fill="none" stroke="#0058ad" points="1187,-81.5 1187,-110.5 "/>
<text text-anchor="middle" x="1217.5" y="-92.3" font-family="Times,serif" font-size="14.00" fill="#0058ad">a 14 8</text>
</g>
<!-- T350 -->
<g id="node2" class="node">
<title>T350</title>
<polygon fill="none" stroke="#0058ad" points="0,-0.5 0,-29.5 1261,-29.5 1261,-0.5 0,-0.5"/>
<text text-anchor="middle" x="68.5" y="-11.3" font-family="Times,serif" font-size="14.00" fill="#0058ad">r 14 [1 2 3 4 5 7]</text>
<polyline fill="none" stroke="#0058ad" points="137,-0.5 137,-29.5 "/>
<text text-anchor="middle" x="293.5" y="-11.3" font-family="Times,serif" font-size="14.00" fill="#0058ad">r 9 [2 3 4 5 6 7 8 9 10 11 12 13 14 15 19]</text>
<polyline fill="none" stroke="#0058ad" points="450,-0.5 450,-29.5 "/>
<text text-anchor="middle" x="485" y="-11.3" font-family="Times,serif" font-size="14.00" fill="#0058ad">a 13 22</text>
<polyline fill="none" stroke="#0058ad" points="520,-0.5 520,-29.5 "/>
<text text-anchor="middle" x="588.5" y="-11.3" font-family="Times,serif" font-size="14.00" fill="#0058ad">r 14 [1 2 3 4 5 7]</text>
<polyline fill="none" stroke="#0058ad" points="657,-0.5 657,-29.5 "/>
<text text-anchor="middle" x="854" y="-11.3" font-family="Times,serif" font-size="14.00" fill="#0058ad">r 13 [1 2 3 8 9 10 11 12 14 15 16 17 18 19 20 21 22]</text>
<polyline fill="none" stroke="#0058ad" points="1051,-0.5 1051,-29.5 "/>
<text text-anchor="middle" x="1086" y="-11.3" font-family="Times,serif" font-size="14.00" fill="#0058ad">a 13 23</text>
<polyline fill="none" stroke="#0058ad" points="1121,-0.5 1121,-29.5 "/>
<text text-anchor="middle" x="1156" y="-11.3" font-family="Times,serif" font-size="14.00" fill="#0058ad">a 13 24</text>
<polyline fill="none" stroke="#0058ad" points="1191,-0.5 1191,-29.5 "/>
<text text-anchor="middle" x="1226" y="-11.3" font-family="Times,serif" font-size="14.00" fill="#0058ad">a 13 25</text>
</g>
<!-- T351&#45;&gt;T350 -->
<g id="edge1" class="edge">
<title>T351:f1&#45;&gt;T350:f2</title>
<path fill="none" stroke="#5b00c0" d="M493.5,-81C493.5,-61.76 487.21,-55.13 485.15,-40.03"/>
<polygon fill="#5b00c0" stroke="#5b00c0" points="488.64,-39.75 484.5,-30 481.65,-40.2 488.64,-39.75"/>
<text text-anchor="middle" x="501" y="-51.8" font-family="Times,serif" font-size="14.00" fill="#5b00c0">rw</text>
</g>
<!-- T350&#45;&gt;T351 -->
<g id="edge2" class="edge">
<title>T350:f1&#45;&gt;T351:f0</title>
<path fill="none" stroke="#5b00c0" d="M293.5,-30C293.5,-49.86 282.32,-55.55 278.65,-70.77"/>
<polygon fill="#5b00c0" stroke="#5b00c0" points="275.14,-70.67 277.5,-81 282.1,-71.45 275.14,-70.67"/>
<text text-anchor="middle" x="299" y="-51.8" font-family="Times,serif" font-size="14.00" fill="#5b00c0">rw</text>
</g>
</g>
</svg>
