<?xml version="1.0" encoding="UTF-8" standalone="no"?>
<!DOCTYPE svg PUBLIC "-//W3C//DTD SVG 1.1//EN"
 "http://www.w3.org/Graphics/SVG/1.1/DTD/svg11.dtd">
<!-- Generated by graphviz version 2.43.0 (0)
 -->
<!-- Title: a_graph Pages: 1 -->
<svg width="743pt" height="119pt"
 viewBox="0.00 0.00 743.00 119.00" xmlns="http://www.w3.org/2000/svg" xmlns:xlink="http://www.w3.org/1999/xlink">
<g id="graph0" class="graph" transform="scale(1 1) rotate(0) translate(4 115)">
<title>a_graph</title>
<polygon fill="white" stroke="transparent" points="-4,4 -4,-115 739,-115 739,4 -4,4"/>
<!-- T1765 -->
<g id="node1" class="node">
<title>T1765</title>
<polygon fill="none" stroke="#0058ad" points="0,-81.5 0,-110.5 735,-110.5 735,-81.5 0,-81.5"/>
<text text-anchor="middle" x="35" y="-92.3" font-family="Times,serif" font-size="14.00" fill="#0058ad">a 69 12</text>
<polyline fill="none" stroke="#0058ad" points="70,-81.5 70,-110.5 "/>
<text text-anchor="middle" x="105" y="-92.3" font-family="Times,serif" font-size="14.00" fill="#0058ad">a 69 13</text>
<polyline fill="none" stroke="#0058ad" points="140,-81.5 140,-110.5 "/>
<text text-anchor="middle" x="175" y="-92.3" font-family="Times,serif" font-size="14.00" fill="#0058ad">a 69 14</text>
<polyline fill="none" stroke="#0058ad" points="210,-81.5 210,-110.5 "/>
<text text-anchor="middle" x="245" y="-92.3" font-family="Times,serif" font-size="14.00" fill="#0058ad">a 68 26</text>
<polyline fill="none" stroke="#0058ad" points="280,-81.5 280,-110.5 "/>
<text text-anchor="middle" x="402.5" y="-92.3" font-family="Times,serif" font-size="14.00" fill="#0058ad">r 66 [1 2 3 4 5 6 7 8 9 10 11 12]</text>
<polyline fill="none" stroke="#0058ad" points="525,-81.5 525,-110.5 "/>
<text text-anchor="middle" x="560" y="-92.3" font-family="Times,serif" font-size="14.00" fill="#0058ad">a 68 27</text>
<polyline fill="none" stroke="#0058ad" points="595,-81.5 595,-110.5 "/>
<text text-anchor="middle" x="630" y="-92.3" font-family="Times,serif" font-size="14.00" fill="#0058ad">a 68 28</text>
<polyline fill="none" stroke="#0058ad" points="665,-81.5 665,-110.5 "/>
<text text-anchor="middle" x="700" y="-92.3" font-family="Times,serif" font-size="14.00" fill="#0058ad">a 69 15</text>
</g>
<!-- T1764 -->
<g id="node2" class="node">
<title>T1764</title>
<polygon fill="none" stroke="#0058ad" points="61.5,-0.5 61.5,-29.5 577.5,-29.5 577.5,-0.5 61.5,-0.5"/>
<text text-anchor="middle" x="173" y="-11.3" font-family="Times,serif" font-size="14.00" fill="#0058ad">r 69 [1 2 3 4 5 6 7 8 9 10 11]</text>
<polyline fill="none" stroke="#0058ad" points="284.5,-0.5 284.5,-29.5 "/>
<text text-anchor="middle" x="319.5" y="-11.3" font-family="Times,serif" font-size="14.00" fill="#0058ad">a 66 13</text>
<polyline fill="none" stroke="#0058ad" points="354.5,-0.5 354.5,-29.5 "/>
<text text-anchor="middle" x="466" y="-11.3" font-family="Times,serif" font-size="14.00" fill="#0058ad">r 69 [1 2 3 4 5 6 7 8 9 10 11]</text>
</g>
<!-- T1765&#45;&gt;T1764 -->
<g id="edge1" class="edge">
<title>T1765:f4&#45;&gt;T1764:f1</title>
<path fill="none" stroke="#5b00c0" d="M402.5,-81C402.5,-41.59 333.74,-67.54 321.39,-39.87"/>
<polygon fill="#5b00c0" stroke="#5b00c0" points="324.82,-39.16 319.5,-30 317.94,-40.48 324.82,-39.16"/>
<text text-anchor="middle" x="401" y="-51.8" font-family="Times,serif" font-size="14.00" fill="#5b00c0">rw</text>
</g>
<!-- T1764&#45;&gt;T1765 -->
<g id="edge2" class="edge">
<title>T1764:f0&#45;&gt;T1765:f0</title>
<path fill="none" stroke="#5b00c0" d="M60.5,-15C32.3,-15 33.75,-42.58 34.37,-70.97"/>
<polygon fill="#5b00c0" stroke="#5b00c0" points="30.87,-71.05 34.5,-81 37.87,-70.95 30.87,-71.05"/>
<text text-anchor="middle" x="44" y="-51.8" font-family="Times,serif" font-size="14.00" fill="#5b00c0">rw</text>
</g>
</g>
</svg>
