<?xml version="1.0" encoding="UTF-8" standalone="no"?>
<!DOCTYPE svg PUBLIC "-//W3C//DTD SVG 1.1//EN"
 "http://www.w3.org/Graphics/SVG/1.1/DTD/svg11.dtd">
<!-- Generated by graphviz version 2.43.0 (0)
 -->
<!-- Title: a_graph Pages: 1 -->
<svg width="1716pt" height="119pt"
 viewBox="0.00 0.00 1716.00 119.00" xmlns="http://www.w3.org/2000/svg" xmlns:xlink="http://www.w3.org/1999/xlink">
<g id="graph0" class="graph" transform="scale(1 1) rotate(0) translate(4 115)">
<title>a_graph</title>
<polygon fill="white" stroke="transparent" points="-4,4 -4,-115 1712,-115 1712,4 -4,4"/>
<!-- T2377 -->
<g id="node1" class="node">
<title>T2377</title>
<polygon fill="none" stroke="#0058ad" points="198.5,-81.5 198.5,-110.5 1153.5,-110.5 1153.5,-81.5 198.5,-81.5"/>
<text text-anchor="middle" x="404.5" y="-92.3" font-family="Times,serif" font-size="14.00" fill="#0058ad">r 91 [1 2 3 4 6 7 8 9 10 11 12 13 14 15 16 17 18 19 20]</text>
<polyline fill="none" stroke="#0058ad" points="610.5,-81.5 610.5,-110.5 "/>
<text text-anchor="middle" x="816.5" y="-92.3" font-family="Times,serif" font-size="14.00" fill="#0058ad">r 91 [1 2 3 4 6 7 8 9 10 11 12 13 14 15 16 17 18 19 20]</text>
<polyline fill="none" stroke="#0058ad" points="1022.5,-81.5 1022.5,-110.5 "/>
<text text-anchor="middle" x="1053" y="-92.3" font-family="Times,serif" font-size="14.00" fill="#0058ad">a 92 3</text>
<polyline fill="none" stroke="#0058ad" points="1083.5,-81.5 1083.5,-110.5 "/>
<text text-anchor="middle" x="1118.5" y="-92.3" font-family="Times,serif" font-size="14.00" fill="#0058ad">a 89 22</text>
</g>
<!-- T2375 -->
<g id="node2" class="node">
<title>T2375</title>
<polygon fill="none" stroke="#0058ad" points="0,-0.5 0,-29.5 1708,-29.5 1708,-0.5 0,-0.5"/>
<text text-anchor="middle" x="35" y="-11.3" font-family="Times,serif" font-size="14.00" fill="#0058ad">a 91 21</text>
<polyline fill="none" stroke="#0058ad" points="70,-0.5 70,-29.5 "/>
<text text-anchor="middle" x="105" y="-11.3" font-family="Times,serif" font-size="14.00" fill="#0058ad">a 91 22</text>
<polyline fill="none" stroke="#0058ad" points="140,-0.5 140,-29.5 "/>
<text text-anchor="middle" x="368.5" y="-11.3" font-family="Times,serif" font-size="14.00" fill="#0058ad">r 91 [1 2 3 4 6 7 8 9 10 11 12 13 14 15 16 17 18 19 20 21 22]</text>
<polyline fill="none" stroke="#0058ad" points="597,-0.5 597,-29.5 "/>
<text text-anchor="middle" x="632" y="-11.3" font-family="Times,serif" font-size="14.00" fill="#0058ad">a 91 23</text>
<polyline fill="none" stroke="#0058ad" points="667,-0.5 667,-29.5 "/>
<text text-anchor="middle" x="906.5" y="-11.3" font-family="Times,serif" font-size="14.00" fill="#0058ad">r 91 [1 2 3 4 6 7 8 9 10 11 12 13 14 15 16 17 18 19 20 21 22 23]</text>
<polyline fill="none" stroke="#0058ad" points="1146,-0.5 1146,-29.5 "/>
<text text-anchor="middle" x="1385.5" y="-11.3" font-family="Times,serif" font-size="14.00" fill="#0058ad">r 91 [1 2 3 4 6 7 8 9 10 11 12 13 14 15 16 17 18 19 20 21 22 23]</text>
<polyline fill="none" stroke="#0058ad" points="1625,-0.5 1625,-29.5 "/>
<text text-anchor="middle" x="1666.5" y="-11.3" font-family="Times,serif" font-size="14.00" fill="#0058ad">r 92 [1 2]</text>
</g>
<!-- T2377&#45;&gt;T2375 -->
<g id="edge1" class="edge">
<title>T2377:f0&#45;&gt;T2375:f0</title>
<path fill="none" stroke="#5b00c0" d="M197,-96C161.47,-96 55.54,-73.34 37.6,-39.75"/>
<polygon fill="#5b00c0" stroke="#5b00c0" points="40.96,-38.76 35,-30 34.19,-40.56 40.96,-38.76"/>
<text text-anchor="middle" x="72.5" y="-51.8" font-family="Times,serif" font-size="14.00" fill="#5b00c0">rw</text>
</g>
<!-- T2375&#45;&gt;T2377 -->
<g id="edge2" class="edge">
<title>T2375:f6&#45;&gt;T2377:f2</title>
<path fill="none" stroke="#5b00c0" d="M1667,-30C1667,-163.3 1084.95,44.41 1054.26,-70.91"/>
<polygon fill="#5b00c0" stroke="#5b00c0" points="1050.76,-70.64 1053,-81 1057.71,-71.51 1050.76,-70.64"/>
<text text-anchor="middle" x="1670.5" y="-51.8" font-family="Times,serif" font-size="14.00" fill="#5b00c0">rw</text>
</g>
</g>
</svg>
