<?xml version="1.0" encoding="UTF-8" standalone="no"?>
<!DOCTYPE svg PUBLIC "-//W3C//DTD SVG 1.1//EN"
 "http://www.w3.org/Graphics/SVG/1.1/DTD/svg11.dtd">
<!-- Generated by graphviz version 2.43.0 (0)
 -->
<!-- Title: a_graph Pages: 1 -->
<svg width="2769pt" height="119pt"
 viewBox="0.00 0.00 2768.50 119.00" xmlns="http://www.w3.org/2000/svg" xmlns:xlink="http://www.w3.org/1999/xlink">
<g id="graph0" class="graph" transform="scale(1 1) rotate(0) translate(4 115)">
<title>a_graph</title>
<polygon fill="white" stroke="transparent" points="-4,4 -4,-115 2764.5,-115 2764.5,4 -4,4"/>
<!-- T2854 -->
<g id="node1" class="node">
<title>T2854</title>
<polygon fill="none" stroke="#0058ad" points="65.5,-81.5 65.5,-110.5 2760.5,-110.5 2760.5,-81.5 65.5,-81.5"/>
<text text-anchor="middle" x="105" y="-92.3" font-family="Times,serif" font-size="14.00" fill="#0058ad">a 110 23</text>
<polyline fill="none" stroke="#0058ad" points="144.5,-81.5 144.5,-110.5 "/>
<text text-anchor="middle" x="411" y="-92.3" font-family="Times,serif" font-size="14.00" fill="#0058ad">r 108 [1 2 3 4 5 7 8 9 10 11 12 13 14 15 16 17 18 19 20 21 22 23 24 25]</text>
<polyline fill="none" stroke="#0058ad" points="677.5,-81.5 677.5,-110.5 "/>
<text text-anchor="middle" x="939.5" y="-92.3" font-family="Times,serif" font-size="14.00" fill="#0058ad">r 111 [1 2 3 4 5 6 7 8 9 10 11 12 13 14 15 16 17 18 19 20 21 22 23 24]</text>
<polyline fill="none" stroke="#0058ad" points="1201.5,-81.5 1201.5,-110.5 "/>
<text text-anchor="middle" x="1452.5" y="-92.3" font-family="Times,serif" font-size="14.00" fill="#0058ad">r 110 [1 2 3 4 5 6 7 8 9 10 11 12 13 14 15 16 17 18 19 20 21 22 23]</text>
<polyline fill="none" stroke="#0058ad" points="1703.5,-81.5 1703.5,-110.5 "/>
<text text-anchor="middle" x="1965.5" y="-92.3" font-family="Times,serif" font-size="14.00" fill="#0058ad">r 111 [1 2 3 4 5 6 7 8 9 10 11 12 13 14 15 16 17 18 19 20 21 22 23 24]</text>
<polyline fill="none" stroke="#0058ad" points="2227.5,-81.5 2227.5,-110.5 "/>
<text text-anchor="middle" x="2494" y="-92.3" font-family="Times,serif" font-size="14.00" fill="#0058ad">r 108 [1 2 3 4 5 7 8 9 10 11 12 13 14 15 16 17 18 19 20 21 22 23 24 25]</text>
</g>
<!-- T2855 -->
<g id="node2" class="node">
<title>T2855</title>
<polygon fill="none" stroke="#0058ad" points="0,-0.5 0,-29.5 716,-29.5 716,-0.5 0,-0.5"/>
<text text-anchor="middle" x="39.5" y="-11.3" font-family="Times,serif" font-size="14.00" fill="#0058ad">a 108 26</text>
<polyline fill="none" stroke="#0058ad" points="79,-0.5 79,-29.5 "/>
<text text-anchor="middle" x="118.5" y="-11.3" font-family="Times,serif" font-size="14.00" fill="#0058ad">a 108 27</text>
<polyline fill="none" stroke="#0058ad" points="158,-0.5 158,-29.5 "/>
<text text-anchor="middle" x="197.5" y="-11.3" font-family="Times,serif" font-size="14.00" fill="#0058ad">a 111 25</text>
<polyline fill="none" stroke="#0058ad" points="237,-0.5 237,-29.5 "/>
<text text-anchor="middle" x="476.5" y="-11.3" font-family="Times,serif" font-size="14.00" fill="#0058ad">r 110 [1 2 3 4 5 6 7 8 9 10 11 12 13 14 15 16 17 18 19 20 21 22]</text>
</g>
<!-- T2854&#45;&gt;T2855 -->
<g id="edge1" class="edge">
<title>T2854:f1&#45;&gt;T2855:f0</title>
<path fill="none" stroke="#5b00c0" d="M411,-81C411,16.55 290.69,-60.96 194,-48 179.3,-46.03 76.32,-46.95 46.86,-36.4"/>
<polygon fill="#5b00c0" stroke="#5b00c0" points="48.96,-33.6 39,-30 44.54,-39.03 48.96,-33.6"/>
<text text-anchor="middle" x="417.5" y="-51.8" font-family="Times,serif" font-size="14.00" fill="#5b00c0">rw</text>
</g>
<!-- T2855&#45;&gt;T2854 -->
<g id="edge2" class="edge">
<title>T2855:f3&#45;&gt;T2854:f0</title>
<path fill="none" stroke="#5b00c0" d="M477,-30C477,-47.03 187.45,-43.6 171,-48 143.03,-55.48 113.01,-49.91 106.35,-71.07"/>
<polygon fill="#5b00c0" stroke="#5b00c0" points="102.88,-70.62 105,-81 109.82,-71.56 102.88,-70.62"/>
<text text-anchor="middle" x="180.5" y="-51.8" font-family="Times,serif" font-size="14.00" fill="#5b00c0">rw</text>
</g>
</g>
</svg>
