<?xml version="1.0" encoding="UTF-8" standalone="no"?>
<!DOCTYPE svg PUBLIC "-//W3C//DTD SVG 1.1//EN"
 "http://www.w3.org/Graphics/SVG/1.1/DTD/svg11.dtd">
<!-- Generated by graphviz version 2.43.0 (0)
 -->
<!-- Title: a_graph Pages: 1 -->
<svg width="1248pt" height="119pt"
 viewBox="0.00 0.00 1247.50 119.00" xmlns="http://www.w3.org/2000/svg" xmlns:xlink="http://www.w3.org/1999/xlink">
<g id="graph0" class="graph" transform="scale(1 1) rotate(0) translate(4 115)">
<title>a_graph</title>
<polygon fill="white" stroke="transparent" points="-4,4 -4,-115 1243.5,-115 1243.5,4 -4,4"/>
<!-- T1054 -->
<g id="node1" class="node">
<title>T1054</title>
<polygon fill="none" stroke="#0058ad" points="0,-81.5 0,-110.5 383,-110.5 383,-81.5 0,-81.5"/>
<text text-anchor="middle" x="156.5" y="-92.3" font-family="Times,serif" font-size="14.00" fill="#0058ad">r 40 [1 2 3 4 5 6 7 8 9 10 11 12 13 14 15]</text>
<polyline fill="none" stroke="#0058ad" points="313,-81.5 313,-110.5 "/>
<text text-anchor="middle" x="348" y="-92.3" font-family="Times,serif" font-size="14.00" fill="#0058ad">a 41 26</text>
</g>
<!-- T1055 -->
<g id="node2" class="node">
<title>T1055</title>
<polygon fill="none" stroke="#0058ad" points="93.5,-0.5 93.5,-29.5 1239.5,-29.5 1239.5,-0.5 93.5,-0.5"/>
<text text-anchor="middle" x="128.5" y="-11.3" font-family="Times,serif" font-size="14.00" fill="#0058ad">a 40 16</text>
<polyline fill="none" stroke="#0058ad" points="163.5,-0.5 163.5,-29.5 "/>
<text text-anchor="middle" x="432.5" y="-11.3" font-family="Times,serif" font-size="14.00" fill="#0058ad">r 41 [1 2 3 4 5 6 7 8 9 10 11 12 13 14 15 16 17 18 19 20 21 22 23 24 25]</text>
<polyline fill="none" stroke="#0058ad" points="701.5,-0.5 701.5,-29.5 "/>
<text text-anchor="middle" x="970.5" y="-11.3" font-family="Times,serif" font-size="14.00" fill="#0058ad">r 41 [1 2 3 4 5 6 7 8 9 10 11 12 13 14 15 16 17 18 19 20 21 22 23 24 25]</text>
</g>
<!-- T1054&#45;&gt;T1055 -->
<g id="edge1" class="edge">
<title>T1054:f0&#45;&gt;T1055:f0</title>
<path fill="none" stroke="#5b00c0" d="M156.5,-81C156.5,-58.98 136.2,-56.23 130.17,-39.93"/>
<polygon fill="#5b00c0" stroke="#5b00c0" points="133.61,-39.28 128.5,-30 126.7,-40.44 133.61,-39.28"/>
<text text-anchor="middle" x="160" y="-51.8" font-family="Times,serif" font-size="14.00" fill="#5b00c0">rw</text>
</g>
<!-- T1055&#45;&gt;T1054 -->
<g id="edge2" class="edge">
<title>T1055:f1&#45;&gt;T1054:f1</title>
<path fill="none" stroke="#5b00c0" d="M432.5,-30C432.5,-69.75 362.92,-43.21 350.41,-71.05"/>
<polygon fill="#5b00c0" stroke="#5b00c0" points="346.95,-70.52 348.5,-81 353.82,-71.84 346.95,-70.52"/>
<text text-anchor="middle" x="431" y="-51.8" font-family="Times,serif" font-size="14.00" fill="#5b00c0">rw</text>
</g>
</g>
</svg>
