<?xml version="1.0" encoding="UTF-8" standalone="no"?>
<!DOCTYPE svg PUBLIC "-//W3C//DTD SVG 1.1//EN"
 "http://www.w3.org/Graphics/SVG/1.1/DTD/svg11.dtd">
<!-- Generated by graphviz version 2.43.0 (0)
 -->
<!-- Title: a_graph Pages: 1 -->
<svg width="1562pt" height="119pt"
 viewBox="0.00 0.00 1562.00 119.00" xmlns="http://www.w3.org/2000/svg" xmlns:xlink="http://www.w3.org/1999/xlink">
<g id="graph0" class="graph" transform="scale(1 1) rotate(0) translate(4 115)">
<title>a_graph</title>
<polygon fill="white" stroke="transparent" points="-4,4 -4,-115 1558,-115 1558,4 -4,4"/>
<!-- T1373 -->
<g id="node1" class="node">
<title>T1373</title>
<polygon fill="none" stroke="#0058ad" points="0,-81.5 0,-110.5 1448,-110.5 1448,-81.5 0,-81.5"/>
<text text-anchor="middle" x="35" y="-92.3" font-family="Times,serif" font-size="14.00" fill="#0058ad">a 52 29</text>
<polyline fill="none" stroke="#0058ad" points="70,-81.5 70,-110.5 "/>
<text text-anchor="middle" x="384" y="-92.3" font-family="Times,serif" font-size="14.00" fill="#0058ad">r 52 [1 2 3 4 5 6 7 8 9 10 11 12 13 14 15 16 17 18 19 20 21 22 23 24 25 26 27 28 29]</text>
<polyline fill="none" stroke="#0058ad" points="698,-81.5 698,-110.5 "/>
<text text-anchor="middle" x="1012" y="-92.3" font-family="Times,serif" font-size="14.00" fill="#0058ad">r 50 [1 2 3 4 5 6 7 8 9 10 11 12 13 14 15 16 18 19 20 21 22 23 24 25 26 27 28 29 30]</text>
<polyline fill="none" stroke="#0058ad" points="1326,-81.5 1326,-110.5 "/>
<text text-anchor="middle" x="1356.5" y="-92.3" font-family="Times,serif" font-size="14.00" fill="#0058ad">a 53 4</text>
<polyline fill="none" stroke="#0058ad" points="1387,-81.5 1387,-110.5 "/>
<text text-anchor="middle" x="1417.5" y="-92.3" font-family="Times,serif" font-size="14.00" fill="#0058ad">a 53 5</text>
</g>
<!-- T1372 -->
<g id="node2" class="node">
<title>T1372</title>
<polygon fill="none" stroke="#0058ad" points="132,-0.5 132,-29.5 1554,-29.5 1554,-0.5 132,-0.5"/>
<text text-anchor="middle" x="434.5" y="-11.3" font-family="Times,serif" font-size="14.00" fill="#0058ad">r 52 [1 2 3 4 5 6 7 8 9 10 11 12 13 14 15 16 17 18 19 20 21 22 23 24 25 26 27 28]</text>
<polyline fill="none" stroke="#0058ad" points="737,-0.5 737,-29.5 "/>
<text text-anchor="middle" x="772" y="-11.3" font-family="Times,serif" font-size="14.00" fill="#0058ad">a 50 31</text>
<polyline fill="none" stroke="#0058ad" points="807,-0.5 807,-29.5 "/>
<text text-anchor="middle" x="855.5" y="-11.3" font-family="Times,serif" font-size="14.00" fill="#0058ad">r 53 [1 2 3]</text>
<polyline fill="none" stroke="#0058ad" points="904,-0.5 904,-29.5 "/>
<text text-anchor="middle" x="1229" y="-11.3" font-family="Times,serif" font-size="14.00" fill="#0058ad">r 50 [1 2 3 4 5 6 7 8 9 10 11 12 13 14 15 16 18 19 20 21 22 23 24 25 26 27 28 29 30 31]</text>
</g>
<!-- T1373&#45;&gt;T1372 -->
<g id="edge1" class="edge">
<title>T1373:f2&#45;&gt;T1372:f1</title>
<path fill="none" stroke="#5b00c0" d="M1012,-81C1012,24.32 788.13,-127.95 772.82,-40.24"/>
<polygon fill="#5b00c0" stroke="#5b00c0" points="776.29,-39.69 772,-30 769.31,-40.25 776.29,-39.69"/>
<text text-anchor="middle" x="1016.5" y="-51.8" font-family="Times,serif" font-size="14.00" fill="#5b00c0">rw</text>
</g>
<!-- T1372&#45;&gt;T1373 -->
<g id="edge2" class="edge">
<title>T1372:f0&#45;&gt;T1373:f0</title>
<path fill="none" stroke="#5b00c0" d="M131,-15C82.76,-15 41.08,-27.34 35.61,-70.9"/>
<polygon fill="#5b00c0" stroke="#5b00c0" points="32.11,-70.81 35,-81 39.09,-71.23 32.11,-70.81"/>
<text text-anchor="middle" x="52.5" y="-51.8" font-family="Times,serif" font-size="14.00" fill="#5b00c0">rw</text>
</g>
</g>
</svg>
