<?xml version="1.0" encoding="UTF-8" standalone="no"?>
<!DOCTYPE svg PUBLIC "-//W3C//DTD SVG 1.1//EN"
 "http://www.w3.org/Graphics/SVG/1.1/DTD/svg11.dtd">
<!-- Generated by graphviz version 2.43.0 (0)
 -->
<!-- Title: a_graph Pages: 1 -->
<svg width="433pt" height="119pt"
 viewBox="0.00 0.00 433.00 119.00" xmlns="http://www.w3.org/2000/svg" xmlns:xlink="http://www.w3.org/1999/xlink">
<g id="graph0" class="graph" transform="scale(1 1) rotate(0) translate(4 115)">
<title>a_graph</title>
<polygon fill="white" stroke="transparent" points="-4,4 -4,-115 429,-115 429,4 -4,4"/>
<!-- T3 -->
<g id="node1" class="node">
<title>T3</title>
<polygon fill="none" stroke="#0058ad" points="0,-81.5 0,-110.5 425,-110.5 425,-81.5 0,-81.5"/>
<text text-anchor="middle" x="26" y="-92.3" font-family="Times,serif" font-size="14.00" fill="#0058ad">r 0 []</text>
<polyline fill="none" stroke="#0058ad" points="52,-81.5 52,-110.5 "/>
<text text-anchor="middle" x="78" y="-92.3" font-family="Times,serif" font-size="14.00" fill="#0058ad">r 2 []</text>
<polyline fill="none" stroke="#0058ad" points="104,-81.5 104,-110.5 "/>
<text text-anchor="middle" x="130" y="-92.3" font-family="Times,serif" font-size="14.00" fill="#0058ad">r 1 []</text>
<polyline fill="none" stroke="#0058ad" points="156,-81.5 156,-110.5 "/>
<text text-anchor="middle" x="182" y="-92.3" font-family="Times,serif" font-size="14.00" fill="#0058ad">a 0 1</text>
<polyline fill="none" stroke="#0058ad" points="208,-81.5 208,-110.5 "/>
<text text-anchor="middle" x="238.5" y="-92.3" font-family="Times,serif" font-size="14.00" fill="#0058ad">r 0 [1]</text>
<polyline fill="none" stroke="#0058ad" points="269,-81.5 269,-110.5 "/>
<text text-anchor="middle" x="295" y="-92.3" font-family="Times,serif" font-size="14.00" fill="#0058ad">r 2 []</text>
<polyline fill="none" stroke="#0058ad" points="321,-81.5 321,-110.5 "/>
<text text-anchor="middle" x="347" y="-92.3" font-family="Times,serif" font-size="14.00" fill="#0058ad">a 2 1</text>
<polyline fill="none" stroke="#0058ad" points="373,-81.5 373,-110.5 "/>
<text text-anchor="middle" x="399" y="-92.3" font-family="Times,serif" font-size="14.00" fill="#0058ad">a 2 2</text>
</g>
<!-- T2 -->
<g id="node2" class="node">
<title>T2</title>
<polygon fill="none" stroke="#0058ad" points="160.5,-0.5 160.5,-29.5 316.5,-29.5 316.5,-0.5 160.5,-0.5"/>
<text text-anchor="middle" x="186.5" y="-11.3" font-family="Times,serif" font-size="14.00" fill="#0058ad">r 2 []</text>
<polyline fill="none" stroke="#0058ad" points="212.5,-0.5 212.5,-29.5 "/>
<text text-anchor="middle" x="238.5" y="-11.3" font-family="Times,serif" font-size="14.00" fill="#0058ad">r 2 []</text>
<polyline fill="none" stroke="#0058ad" points="264.5,-0.5 264.5,-29.5 "/>
<text text-anchor="middle" x="290.5" y="-11.3" font-family="Times,serif" font-size="14.00" fill="#0058ad">a 1 1</text>
</g>
<!-- T3&#45;&gt;T2 -->
<g id="edge1" class="edge">
<title>T3:f2&#45;&gt;T2:f2</title>
<path fill="none" stroke="#5b00c0" d="M129.5,-81C129.5,-64.65 251.67,-52.33 283.16,-37.02"/>
<polygon fill="#5b00c0" stroke="#5b00c0" points="285.69,-39.44 290.5,-30 280.85,-34.38 285.69,-39.44"/>
<text text-anchor="middle" x="253" y="-51.8" font-family="Times,serif" font-size="14.00" fill="#5b00c0">rw</text>
</g>
<!-- T2&#45;&gt;T3 -->
<g id="edge2" class="edge">
<title>T2:f0&#45;&gt;T3:f6</title>
<path fill="none" stroke="#5b00c0" d="M186.5,-30C186.5,-48.22 249.11,-42.54 266.5,-48 299.82,-58.46 338.65,-45.38 346.19,-70.81"/>
<polygon fill="#5b00c0" stroke="#5b00c0" points="342.76,-71.53 347.5,-81 349.7,-70.64 342.76,-71.53"/>
<text text-anchor="middle" x="351" y="-51.8" font-family="Times,serif" font-size="14.00" fill="#5b00c0">rw</text>
</g>
</g>
</svg>
