<?xml version="1.0" encoding="UTF-8" standalone="no"?>
<!DOCTYPE svg PUBLIC "-//W3C//DTD SVG 1.1//EN"
 "http://www.w3.org/Graphics/SVG/1.1/DTD/svg11.dtd">
<!-- Generated by graphviz version 2.43.0 (0)
 -->
<!-- Title: a_graph Pages: 1 -->
<svg width="1087pt" height="119pt"
 viewBox="0.00 0.00 1087.00 119.00" xmlns="http://www.w3.org/2000/svg" xmlns:xlink="http://www.w3.org/1999/xlink">
<g id="graph0" class="graph" transform="scale(1 1) rotate(0) translate(4 115)">
<title>a_graph</title>
<polygon fill="white" stroke="transparent" points="-4,4 -4,-115 1083,-115 1083,4 -4,4"/>
<!-- T1026 -->
<g id="node1" class="node">
<title>T1026</title>
<polygon fill="none" stroke="#0058ad" points="0,-81.5 0,-110.5 1079,-110.5 1079,-81.5 0,-81.5"/>
<text text-anchor="middle" x="48.5" y="-92.3" font-family="Times,serif" font-size="14.00" fill="#0058ad">r 39 [1 2 3]</text>
<polyline fill="none" stroke="#0058ad" points="97,-81.5 97,-110.5 "/>
<text text-anchor="middle" x="399.5" y="-92.3" font-family="Times,serif" font-size="14.00" fill="#0058ad">r 32 [1 2 3 4 5 6 7 8 9 10 11 12 13 14 15 16 17 18 19 20 21 22 23 24 25 26 27 28]</text>
<polyline fill="none" stroke="#0058ad" points="702,-81.5 702,-110.5 "/>
<text text-anchor="middle" x="732.5" y="-92.3" font-family="Times,serif" font-size="14.00" fill="#0058ad">a 38 8</text>
<polyline fill="none" stroke="#0058ad" points="763,-81.5 763,-110.5 "/>
<text text-anchor="middle" x="811.5" y="-92.3" font-family="Times,serif" font-size="14.00" fill="#0058ad">r 39 [1 2 3]</text>
<polyline fill="none" stroke="#0058ad" points="860,-81.5 860,-110.5 "/>
<text text-anchor="middle" x="908.5" y="-92.3" font-family="Times,serif" font-size="14.00" fill="#0058ad">r 39 [1 2 3]</text>
<polyline fill="none" stroke="#0058ad" points="957,-81.5 957,-110.5 "/>
<text text-anchor="middle" x="987.5" y="-92.3" font-family="Times,serif" font-size="14.00" fill="#0058ad">a 39 4</text>
<polyline fill="none" stroke="#0058ad" points="1018,-81.5 1018,-110.5 "/>
<text text-anchor="middle" x="1048.5" y="-92.3" font-family="Times,serif" font-size="14.00" fill="#0058ad">a 38 9</text>
</g>
<!-- T1027 -->
<g id="node2" class="node">
<title>T1027</title>
<polygon fill="none" stroke="#0058ad" points="466.5,-0.5 466.5,-29.5 730.5,-29.5 730.5,-0.5 466.5,-0.5"/>
<text text-anchor="middle" x="515" y="-11.3" font-family="Times,serif" font-size="14.00" fill="#0058ad">r 39 [1 2 3]</text>
<polyline fill="none" stroke="#0058ad" points="563.5,-0.5 563.5,-29.5 "/>
<text text-anchor="middle" x="598.5" y="-11.3" font-family="Times,serif" font-size="14.00" fill="#0058ad">a 32 29</text>
<polyline fill="none" stroke="#0058ad" points="633.5,-0.5 633.5,-29.5 "/>
<text text-anchor="middle" x="682" y="-11.3" font-family="Times,serif" font-size="14.00" fill="#0058ad">r 39 [1 2 3]</text>
</g>
<!-- T1026&#45;&gt;T1027 -->
<g id="edge1" class="edge">
<title>T1026:f1&#45;&gt;T1027:f1</title>
<path fill="none" stroke="#5b00c0" d="M399.5,-81C399.5,6.56 582.51,-110.88 597.52,-40.14"/>
<polygon fill="#5b00c0" stroke="#5b00c0" points="601.02,-40.29 598.5,-30 594.06,-39.62 601.02,-40.29"/>
<text text-anchor="middle" x="603" y="-51.8" font-family="Times,serif" font-size="14.00" fill="#5b00c0">rw</text>
</g>
<!-- T1027&#45;&gt;T1026 -->
<g id="edge2" class="edge">
<title>T1027:f0&#45;&gt;T1026:f5</title>
<path fill="none" stroke="#5b00c0" d="M514.5,-30C514.5,-54.31 914.78,-54.69 978.89,-75.17"/>
<polygon fill="#5b00c0" stroke="#5b00c0" points="977.26,-78.29 987.5,-81 981.18,-72.49 977.26,-78.29"/>
<text text-anchor="middle" x="882" y="-51.8" font-family="Times,serif" font-size="14.00" fill="#5b00c0">rw</text>
</g>
</g>
</svg>
