<?xml version="1.0" encoding="UTF-8" standalone="no"?>
<!DOCTYPE svg PUBLIC "-//W3C//DTD SVG 1.1//EN"
 "http://www.w3.org/Graphics/SVG/1.1/DTD/svg11.dtd">
<!-- Generated by graphviz version 2.43.0 (0)
 -->
<!-- Title: a_graph Pages: 1 -->
<svg width="1659pt" height="119pt"
 viewBox="0.00 0.00 1659.00 119.00" xmlns="http://www.w3.org/2000/svg" xmlns:xlink="http://www.w3.org/1999/xlink">
<g id="graph0" class="graph" transform="scale(1 1) rotate(0) translate(4 115)">
<title>a_graph</title>
<polygon fill="white" stroke="transparent" points="-4,4 -4,-115 1655,-115 1655,4 -4,4"/>
<!-- T118 -->
<g id="node1" class="node">
<title>T118</title>
<polygon fill="none" stroke="#0058ad" points="93,-81.5 93,-110.5 1016,-110.5 1016,-81.5 93,-81.5"/>
<text text-anchor="middle" x="123.5" y="-92.3" font-family="Times,serif" font-size="14.00" fill="#0058ad">a 4 19</text>
<polyline fill="none" stroke="#0058ad" points="154,-81.5 154,-110.5 "/>
<text text-anchor="middle" x="184.5" y="-92.3" font-family="Times,serif" font-size="14.00" fill="#0058ad">a 4 20</text>
<polyline fill="none" stroke="#0058ad" points="215,-81.5 215,-110.5 "/>
<text text-anchor="middle" x="423" y="-92.3" font-family="Times,serif" font-size="14.00" fill="#0058ad">r 4 [1 2 3 4 5 6 7 8 9 10 11 12 13 14 15 16 17 18 19 20]</text>
<polyline fill="none" stroke="#0058ad" points="631,-81.5 631,-110.5 "/>
<text text-anchor="middle" x="661.5" y="-92.3" font-family="Times,serif" font-size="14.00" fill="#0058ad">a 4 21</text>
<polyline fill="none" stroke="#0058ad" points="692,-81.5 692,-110.5 "/>
<text text-anchor="middle" x="722.5" y="-92.3" font-family="Times,serif" font-size="14.00" fill="#0058ad">a 4 22</text>
<polyline fill="none" stroke="#0058ad" points="753,-81.5 753,-110.5 "/>
<text text-anchor="middle" x="803.5" y="-92.3" font-family="Times,serif" font-size="14.00" fill="#0058ad">r 5 [1 2 3 4]</text>
<polyline fill="none" stroke="#0058ad" points="854,-81.5 854,-110.5 "/>
<text text-anchor="middle" x="884.5" y="-92.3" font-family="Times,serif" font-size="14.00" fill="#0058ad">a 0 19</text>
<polyline fill="none" stroke="#0058ad" points="915,-81.5 915,-110.5 "/>
<text text-anchor="middle" x="965.5" y="-92.3" font-family="Times,serif" font-size="14.00" fill="#0058ad">r 5 [1 2 3 4]</text>
</g>
<!-- T116 -->
<g id="node2" class="node">
<title>T116</title>
<polygon fill="none" stroke="#0058ad" points="0,-0.5 0,-29.5 1651,-29.5 1651,-0.5 0,-0.5"/>
<text text-anchor="middle" x="185.5" y="-11.3" font-family="Times,serif" font-size="14.00" fill="#0058ad">r 4 [1 2 3 4 5 6 7 8 9 10 11 12 13 14 15 16 17 18]</text>
<polyline fill="none" stroke="#0058ad" points="371,-0.5 371,-29.5 "/>
<text text-anchor="middle" x="556.5" y="-11.3" font-family="Times,serif" font-size="14.00" fill="#0058ad">r 4 [1 2 3 4 5 6 7 8 9 10 11 12 13 14 15 16 17 18]</text>
<polyline fill="none" stroke="#0058ad" points="742,-0.5 742,-29.5 "/>
<text text-anchor="middle" x="768" y="-11.3" font-family="Times,serif" font-size="14.00" fill="#0058ad">a 5 5</text>
<polyline fill="none" stroke="#0058ad" points="794,-0.5 794,-29.5 "/>
<text text-anchor="middle" x="851.5" y="-11.3" font-family="Times,serif" font-size="14.00" fill="#0058ad">r 5 [1 2 3 4 5]</text>
<polyline fill="none" stroke="#0058ad" points="909,-0.5 909,-29.5 "/>
<text text-anchor="middle" x="1094.5" y="-11.3" font-family="Times,serif" font-size="14.00" fill="#0058ad">r 0 [1 2 3 4 5 6 7 8 9 10 11 12 13 14 15 16 17 18]</text>
<polyline fill="none" stroke="#0058ad" points="1280,-0.5 1280,-29.5 "/>
<text text-anchor="middle" x="1465.5" y="-11.3" font-family="Times,serif" font-size="14.00" fill="#0058ad">r 4 [1 2 3 4 5 6 7 8 9 10 11 12 13 14 15 16 17 18]</text>
</g>
<!-- T118&#45;&gt;T116 -->
<g id="edge1" class="edge">
<title>T118:f5&#45;&gt;T116:f2</title>
<path fill="none" stroke="#5b00c0" d="M803.5,-81C803.5,-57.16 776.91,-57.12 769.44,-39.97"/>
<polygon fill="#5b00c0" stroke="#5b00c0" points="772.84,-39.15 767.5,-30 765.97,-40.48 772.84,-39.15"/>
<text text-anchor="middle" x="805" y="-51.8" font-family="Times,serif" font-size="14.00" fill="#5b00c0">rw</text>
</g>
<!-- T116&#45;&gt;T118 -->
<g id="edge2" class="edge">
<title>T116:f0&#45;&gt;T118:f0</title>
<path fill="none" stroke="#5b00c0" d="M185.5,-30C185.5,-61.78 136.32,-49.1 125.56,-71.16"/>
<polygon fill="#5b00c0" stroke="#5b00c0" points="122.13,-70.49 123.5,-81 128.98,-71.93 122.13,-70.49"/>
<text text-anchor="middle" x="185" y="-51.8" font-family="Times,serif" font-size="14.00" fill="#5b00c0">rw</text>
</g>
</g>
</svg>
