<?xml version="1.0" encoding="UTF-8" standalone="no"?>
<!DOCTYPE svg PUBLIC "-//W3C//DTD SVG 1.1//EN"
 "http://www.w3.org/Graphics/SVG/1.1/DTD/svg11.dtd">
<!-- Generated by graphviz version 2.43.0 (0)
 -->
<!-- Title: a_graph Pages: 1 -->
<svg width="1585pt" height="119pt"
 viewBox="0.00 0.00 1585.00 119.00" xmlns="http://www.w3.org/2000/svg" xmlns:xlink="http://www.w3.org/1999/xlink">
<g id="graph0" class="graph" transform="scale(1 1) rotate(0) translate(4 115)">
<title>a_graph</title>
<polygon fill="white" stroke="transparent" points="-4,4 -4,-115 1581,-115 1581,4 -4,4"/>
<!-- T3800 -->
<g id="node1" class="node">
<title>T3800</title>
<polygon fill="none" stroke="#0058ad" points="574.5,-81.5 574.5,-110.5 826.5,-110.5 826.5,-81.5 574.5,-81.5"/>
<text text-anchor="middle" x="661" y="-92.3" font-family="Times,serif" font-size="14.00" fill="#0058ad">r 143 [1 2 3 4 5 6 7 8]</text>
<polyline fill="none" stroke="#0058ad" points="747.5,-81.5 747.5,-110.5 "/>
<text text-anchor="middle" x="787" y="-92.3" font-family="Times,serif" font-size="14.00" fill="#0058ad">a 141 28</text>
</g>
<!-- T3801 -->
<g id="node2" class="node">
<title>T3801</title>
<polygon fill="none" stroke="#0058ad" points="0,-0.5 0,-29.5 1577,-29.5 1577,-0.5 0,-0.5"/>
<text text-anchor="middle" x="136" y="-11.3" font-family="Times,serif" font-size="14.00" fill="#0058ad">r 139 [1 2 3 5 6 7 9 10 11 12 13 14]</text>
<polyline fill="none" stroke="#0058ad" points="272,-0.5 272,-29.5 "/>
<text text-anchor="middle" x="561" y="-11.3" font-family="Times,serif" font-size="14.00" fill="#0058ad">r 141 [1 3 4 5 6 7 8 9 10 11 12 13 14 15 16 17 18 19 20 21 22 23 24 25 26 27]</text>
<polyline fill="none" stroke="#0058ad" points="850,-0.5 850,-29.5 "/>
<text text-anchor="middle" x="885" y="-11.3" font-family="Times,serif" font-size="14.00" fill="#0058ad">a 143 9</text>
<polyline fill="none" stroke="#0058ad" points="920,-0.5 920,-29.5 "/>
<text text-anchor="middle" x="1209" y="-11.3" font-family="Times,serif" font-size="14.00" fill="#0058ad">r 141 [1 3 4 5 6 7 8 9 10 11 12 13 14 15 16 17 18 19 20 21 22 23 24 25 26 27]</text>
<polyline fill="none" stroke="#0058ad" points="1498,-0.5 1498,-29.5 "/>
<text text-anchor="middle" x="1537.5" y="-11.3" font-family="Times,serif" font-size="14.00" fill="#0058ad">a 139 15</text>
</g>
<!-- T3800&#45;&gt;T3801 -->
<g id="edge1" class="edge">
<title>T3800:f0&#45;&gt;T3801:f2</title>
<path fill="none" stroke="#5b00c0" d="M660.5,-81C660.5,-49 693.87,-57.26 724.5,-48 739.31,-43.52 847.57,-46.74 877.72,-36.31"/>
<polygon fill="#5b00c0" stroke="#5b00c0" points="879.94,-39.02 885.5,-30 875.53,-33.58 879.94,-39.02"/>
<text text-anchor="middle" x="734" y="-51.8" font-family="Times,serif" font-size="14.00" fill="#5b00c0">rw</text>
</g>
<!-- T3801&#45;&gt;T3800 -->
<g id="edge2" class="edge">
<title>T3801:f1&#45;&gt;T3800:f1</title>
<path fill="none" stroke="#5b00c0" d="M560.5,-30C560.5,-50.43 724.46,-40.6 743.5,-48 762.55,-55.4 780.5,-56.41 785.87,-70.82"/>
<polygon fill="#5b00c0" stroke="#5b00c0" points="782.47,-71.68 787.5,-81 789.38,-70.57 782.47,-71.68"/>
<text text-anchor="middle" x="790" y="-51.8" font-family="Times,serif" font-size="14.00" fill="#5b00c0">rw</text>
</g>
</g>
</svg>
