<?xml version="1.0" encoding="UTF-8" standalone="no"?>
<!DOCTYPE svg PUBLIC "-//W3C//DTD SVG 1.1//EN"
 "http://www.w3.org/Graphics/SVG/1.1/DTD/svg11.dtd">
<!-- Generated by graphviz version 2.43.0 (0)
 -->
<!-- Title: a_graph Pages: 1 -->
<svg width="2083pt" height="119pt"
 viewBox="0.00 0.00 2083.00 119.00" xmlns="http://www.w3.org/2000/svg" xmlns:xlink="http://www.w3.org/1999/xlink">
<g id="graph0" class="graph" transform="scale(1 1) rotate(0) translate(4 115)">
<title>a_graph</title>
<polygon fill="white" stroke="transparent" points="-4,4 -4,-115 2079,-115 2079,4 -4,4"/>
<!-- T2282 -->
<g id="node1" class="node">
<title>T2282</title>
<polygon fill="none" stroke="#0058ad" points="0,-81.5 0,-110.5 2075,-110.5 2075,-81.5 0,-81.5"/>
<text text-anchor="middle" x="183.5" y="-92.3" font-family="Times,serif" font-size="14.00" fill="#0058ad">r 85 [1 2 3 4 6 7 8 9 10 11 12 13 14 15 16 17 18]</text>
<polyline fill="none" stroke="#0058ad" points="367,-81.5 367,-110.5 "/>
<text text-anchor="middle" x="629" y="-92.3" font-family="Times,serif" font-size="14.00" fill="#0058ad">r 80 [1 2 3 4 5 6 8 9 10 11 12 13 14 16 17 18 19 20 21 22 23 24 25 26]</text>
<polyline fill="none" stroke="#0058ad" points="891,-81.5 891,-110.5 "/>
<text text-anchor="middle" x="1153" y="-92.3" font-family="Times,serif" font-size="14.00" fill="#0058ad">r 80 [1 2 3 4 5 6 8 9 10 11 12 13 14 16 17 18 19 20 21 22 23 24 25 26]</text>
<polyline fill="none" stroke="#0058ad" points="1415,-81.5 1415,-110.5 "/>
<text text-anchor="middle" x="1450" y="-92.3" font-family="Times,serif" font-size="14.00" fill="#0058ad">a 85 19</text>
<polyline fill="none" stroke="#0058ad" points="1485,-81.5 1485,-110.5 "/>
<text text-anchor="middle" x="1679.5" y="-92.3" font-family="Times,serif" font-size="14.00" fill="#0058ad">r 85 [1 2 3 4 6 7 8 9 10 11 12 13 14 15 16 17 18 19]</text>
<polyline fill="none" stroke="#0058ad" points="1874,-81.5 1874,-110.5 "/>
<text text-anchor="middle" x="1904.5" y="-92.3" font-family="Times,serif" font-size="14.00" fill="#0058ad">a 84 7</text>
<polyline fill="none" stroke="#0058ad" points="1935,-81.5 1935,-110.5 "/>
<text text-anchor="middle" x="1970" y="-92.3" font-family="Times,serif" font-size="14.00" fill="#0058ad">a 85 20</text>
<polyline fill="none" stroke="#0058ad" points="2005,-81.5 2005,-110.5 "/>
<text text-anchor="middle" x="2040" y="-92.3" font-family="Times,serif" font-size="14.00" fill="#0058ad">a 85 21</text>
</g>
<!-- T2281 -->
<g id="node2" class="node">
<title>T2281</title>
<polygon fill="none" stroke="#0058ad" points="747,-0.5 747,-29.5 1184,-29.5 1184,-0.5 747,-0.5"/>
<text text-anchor="middle" x="930.5" y="-11.3" font-family="Times,serif" font-size="14.00" fill="#0058ad">r 85 [1 2 3 4 6 7 8 9 10 11 12 13 14 15 16 17 18]</text>
<polyline fill="none" stroke="#0058ad" points="1114,-0.5 1114,-29.5 "/>
<text text-anchor="middle" x="1149" y="-11.3" font-family="Times,serif" font-size="14.00" fill="#0058ad">a 80 27</text>
</g>
<!-- T2282&#45;&gt;T2281 -->
<g id="edge1" class="edge">
<title>T2282:f1&#45;&gt;T2281:f1</title>
<path fill="none" stroke="#5b00c0" d="M628.5,-81C628.5,148.14 1133.85,-250.27 1149.15,-40.13"/>
<polygon fill="#5b00c0" stroke="#5b00c0" points="1152.65,-40.12 1149.5,-30 1145.65,-39.87 1152.65,-40.12"/>
<text text-anchor="middle" x="1156" y="-51.8" font-family="Times,serif" font-size="14.00" fill="#5b00c0">rw</text>
</g>
<!-- T2281&#45;&gt;T2282 -->
<g id="edge2" class="edge">
<title>T2281:f0&#45;&gt;T2282:f3</title>
<path fill="none" stroke="#5b00c0" d="M930.5,-30C930.5,-43.32 1156.25,-46.72 1169.5,-48 1291.12,-59.72 1441.7,38.9 1450.13,-70.86"/>
<polygon fill="#5b00c0" stroke="#5b00c0" points="1446.64,-71.13 1450.5,-81 1453.63,-70.88 1446.64,-71.13"/>
<text text-anchor="middle" x="1458" y="-51.8" font-family="Times,serif" font-size="14.00" fill="#5b00c0">rw</text>
</g>
</g>
</svg>
