<?xml version="1.0" encoding="UTF-8" standalone="no"?>
<!DOCTYPE svg PUBLIC "-//W3C//DTD SVG 1.1//EN"
 "http://www.w3.org/Graphics/SVG/1.1/DTD/svg11.dtd">
<!-- Generated by graphviz version 2.43.0 (0)
 -->
<!-- Title: a_graph Pages: 1 -->
<svg width="2635pt" height="119pt"
 viewBox="0.00 0.00 2635.00 119.00" xmlns="http://www.w3.org/2000/svg" xmlns:xlink="http://www.w3.org/1999/xlink">
<g id="graph0" class="graph" transform="scale(1 1) rotate(0) translate(4 115)">
<title>a_graph</title>
<polygon fill="white" stroke="transparent" points="-4,4 -4,-115 2631,-115 2631,4 -4,4"/>
<!-- T1447 -->
<g id="node1" class="node">
<title>T1447</title>
<polygon fill="none" stroke="#0058ad" points="89,-81.5 89,-110.5 2627,-110.5 2627,-81.5 89,-81.5"/>
<text text-anchor="middle" x="382.5" y="-92.3" font-family="Times,serif" font-size="14.00" fill="#0058ad">r 52 [1 2 3 4 8 9 10 11 12 13 14 15 16 17 18 19 20 21 22 23 24 25 26 27 28 29]</text>
<polyline fill="none" stroke="#0058ad" points="676,-81.5 676,-110.5 "/>
<text text-anchor="middle" x="969.5" y="-92.3" font-family="Times,serif" font-size="14.00" fill="#0058ad">r 52 [1 2 3 4 8 9 10 11 12 13 14 15 16 17 18 19 20 21 22 23 24 25 26 27 28 29]</text>
<polyline fill="none" stroke="#0058ad" points="1263,-81.5 1263,-110.5 "/>
<text text-anchor="middle" x="1298" y="-92.3" font-family="Times,serif" font-size="14.00" fill="#0058ad">a 51 23</text>
<polyline fill="none" stroke="#0058ad" points="1333,-81.5 1333,-110.5 "/>
<text text-anchor="middle" x="1395" y="-92.3" font-family="Times,serif" font-size="14.00" fill="#0058ad">r 53 [1 2 3 4 5]</text>
<polyline fill="none" stroke="#0058ad" points="1457,-81.5 1457,-110.5 "/>
<text text-anchor="middle" x="1750.5" y="-92.3" font-family="Times,serif" font-size="14.00" fill="#0058ad">r 52 [1 2 3 4 8 9 10 11 12 13 14 15 16 17 18 19 20 21 22 23 24 25 26 27 28 29]</text>
<polyline fill="none" stroke="#0058ad" points="2044,-81.5 2044,-110.5 "/>
<text text-anchor="middle" x="2270" y="-92.3" font-family="Times,serif" font-size="14.00" fill="#0058ad">r 51 [3 4 5 7 8 9 10 11 12 13 14 15 16 17 18 19 20 21 22 23]</text>
<polyline fill="none" stroke="#0058ad" points="2496,-81.5 2496,-110.5 "/>
<text text-anchor="middle" x="2526.5" y="-92.3" font-family="Times,serif" font-size="14.00" fill="#0058ad">a 53 6</text>
<polyline fill="none" stroke="#0058ad" points="2557,-81.5 2557,-110.5 "/>
<text text-anchor="middle" x="2592" y="-92.3" font-family="Times,serif" font-size="14.00" fill="#0058ad">a 51 24</text>
</g>
<!-- T1446 -->
<g id="node2" class="node">
<title>T1446</title>
<polygon fill="none" stroke="#0058ad" points="0,-0.5 0,-29.5 2414,-29.5 2414,-0.5 0,-0.5"/>
<text text-anchor="middle" x="35" y="-11.3" font-family="Times,serif" font-size="14.00" fill="#0058ad">a 52 30</text>
<polyline fill="none" stroke="#0058ad" points="70,-0.5 70,-29.5 "/>
<text text-anchor="middle" x="375" y="-11.3" font-family="Times,serif" font-size="14.00" fill="#0058ad">r 52 [1 2 3 4 8 9 10 11 12 13 14 15 16 17 18 19 20 21 22 23 24 25 26 27 28 29 30]</text>
<polyline fill="none" stroke="#0058ad" points="680,-0.5 680,-29.5 "/>
<text text-anchor="middle" x="985" y="-11.3" font-family="Times,serif" font-size="14.00" fill="#0058ad">r 52 [1 2 3 4 8 9 10 11 12 13 14 15 16 17 18 19 20 21 22 23 24 25 26 27 28 29 30]</text>
<polyline fill="none" stroke="#0058ad" points="1290,-0.5 1290,-29.5 "/>
<text text-anchor="middle" x="1505" y="-11.3" font-family="Times,serif" font-size="14.00" fill="#0058ad">r 51 [3 4 5 7 8 9 10 11 12 13 14 15 16 17 18 19 20 21 22]</text>
<polyline fill="none" stroke="#0058ad" points="1720,-0.5 1720,-29.5 "/>
<text text-anchor="middle" x="1755" y="-11.3" font-family="Times,serif" font-size="14.00" fill="#0058ad">a 52 31</text>
<polyline fill="none" stroke="#0058ad" points="1790,-0.5 1790,-29.5 "/>
<text text-anchor="middle" x="1852" y="-11.3" font-family="Times,serif" font-size="14.00" fill="#0058ad">r 53 [1 2 3 4 5]</text>
<polyline fill="none" stroke="#0058ad" points="1914,-0.5 1914,-29.5 "/>
<text text-anchor="middle" x="1949" y="-11.3" font-family="Times,serif" font-size="14.00" fill="#0058ad">a 52 32</text>
<polyline fill="none" stroke="#0058ad" points="1984,-0.5 1984,-29.5 "/>
<text text-anchor="middle" x="2199" y="-11.3" font-family="Times,serif" font-size="14.00" fill="#0058ad">r 51 [3 4 5 7 8 9 10 11 12 13 14 15 16 17 18 19 20 21 22]</text>
</g>
<!-- T1447&#45;&gt;T1446 -->
<g id="edge1" class="edge">
<title>T1447:f0&#45;&gt;T1446:f0</title>
<path fill="none" stroke="#5b00c0" d="M88,-96C53.91,-96 38.08,-72.69 35.41,-40.32"/>
<polygon fill="#5b00c0" stroke="#5b00c0" points="38.9,-39.85 35,-30 31.9,-40.13 38.9,-39.85"/>
<text text-anchor="middle" x="49.5" y="-51.8" font-family="Times,serif" font-size="14.00" fill="#5b00c0">rw</text>
</g>
<!-- T1446&#45;&gt;T1447 -->
<g id="edge2" class="edge">
<title>T1446:f3&#45;&gt;T1447:f2</title>
<path fill="none" stroke="#5b00c0" d="M1505,-30C1505,-121.05 1313.86,3.29 1298.92,-70.94"/>
<polygon fill="#5b00c0" stroke="#5b00c0" points="1295.43,-70.72 1298,-81 1302.4,-71.36 1295.43,-70.72"/>
<text text-anchor="middle" x="1510.5" y="-51.8" font-family="Times,serif" font-size="14.00" fill="#5b00c0">rw</text>
</g>
</g>
</svg>
