<?xml version="1.0" encoding="UTF-8" standalone="no"?>
<!DOCTYPE svg PUBLIC "-//W3C//DTD SVG 1.1//EN"
 "http://www.w3.org/Graphics/SVG/1.1/DTD/svg11.dtd">
<!-- Generated by graphviz version 2.43.0 (0)
 -->
<!-- Title: a_graph Pages: 1 -->
<svg width="1381pt" height="119pt"
 viewBox="0.00 0.00 1381.00 119.00" xmlns="http://www.w3.org/2000/svg" xmlns:xlink="http://www.w3.org/1999/xlink">
<g id="graph0" class="graph" transform="scale(1 1) rotate(0) translate(4 115)">
<title>a_graph</title>
<polygon fill="white" stroke="transparent" points="-4,4 -4,-115 1377,-115 1377,4 -4,4"/>
<!-- T3481 -->
<g id="node1" class="node">
<title>T3481</title>
<polygon fill="none" stroke="#0058ad" points="9.5,-81.5 9.5,-110.5 811.5,-110.5 811.5,-81.5 9.5,-81.5"/>
<text text-anchor="middle" x="89.5" y="-92.3" font-family="Times,serif" font-size="14.00" fill="#0058ad">r 132 [1 2 3 4 5 8 9]</text>
<polyline fill="none" stroke="#0058ad" points="169.5,-81.5 169.5,-110.5 "/>
<text text-anchor="middle" x="411.5" y="-92.3" font-family="Times,serif" font-size="14.00" fill="#0058ad">r 128 [1 2 3 4 5 6 10 11 12 14 16 17 18 19 20 21 22 23 24 27 28]</text>
<polyline fill="none" stroke="#0058ad" points="653.5,-81.5 653.5,-110.5 "/>
<text text-anchor="middle" x="693" y="-92.3" font-family="Times,serif" font-size="14.00" fill="#0058ad">a 128 29</text>
<polyline fill="none" stroke="#0058ad" points="732.5,-81.5 732.5,-110.5 "/>
<text text-anchor="middle" x="772" y="-92.3" font-family="Times,serif" font-size="14.00" fill="#0058ad">a 131 11</text>
</g>
<!-- T3480 -->
<g id="node2" class="node">
<title>T3480</title>
<polygon fill="none" stroke="#0058ad" points="0,-0.5 0,-29.5 1373,-29.5 1373,-0.5 0,-0.5"/>
<text text-anchor="middle" x="39.5" y="-11.3" font-family="Times,serif" font-size="14.00" fill="#0058ad">a 132 10</text>
<polyline fill="none" stroke="#0058ad" points="79,-0.5 79,-29.5 "/>
<text text-anchor="middle" x="170" y="-11.3" font-family="Times,serif" font-size="14.00" fill="#0058ad">r 132 [1 2 3 4 5 8 9 10]</text>
<polyline fill="none" stroke="#0058ad" points="261,-0.5 261,-29.5 "/>
<text text-anchor="middle" x="300.5" y="-11.3" font-family="Times,serif" font-size="14.00" fill="#0058ad">a 132 11</text>
<polyline fill="none" stroke="#0058ad" points="340,-0.5 340,-29.5 "/>
<text text-anchor="middle" x="442.5" y="-11.3" font-family="Times,serif" font-size="14.00" fill="#0058ad">r 132 [1 2 3 4 5 8 9 10 11]</text>
<polyline fill="none" stroke="#0058ad" points="545,-0.5 545,-29.5 "/>
<text text-anchor="middle" x="647.5" y="-11.3" font-family="Times,serif" font-size="14.00" fill="#0058ad">r 132 [1 2 3 4 5 8 9 10 11]</text>
<polyline fill="none" stroke="#0058ad" points="750,-0.5 750,-29.5 "/>
<text text-anchor="middle" x="854.5" y="-11.3" font-family="Times,serif" font-size="14.00" fill="#0058ad">r 131 [1 2 3 4 5 6 7 8 9 10]</text>
<polyline fill="none" stroke="#0058ad" points="959,-0.5 959,-29.5 "/>
<text text-anchor="middle" x="1061.5" y="-11.3" font-family="Times,serif" font-size="14.00" fill="#0058ad">r 132 [1 2 3 4 5 8 9 10 11]</text>
<polyline fill="none" stroke="#0058ad" points="1164,-0.5 1164,-29.5 "/>
<text text-anchor="middle" x="1268.5" y="-11.3" font-family="Times,serif" font-size="14.00" fill="#0058ad">r 131 [1 2 3 4 5 6 7 8 9 10]</text>
</g>
<!-- T3481&#45;&gt;T3480 -->
<g id="edge1" class="edge">
<title>T3481:f0&#45;&gt;T3480:f0</title>
<path fill="none" stroke="#5b00c0" d="M89.5,-81C89.5,-53.23 51.22,-59.31 41.65,-40"/>
<polygon fill="#5b00c0" stroke="#5b00c0" points="45.02,-39.04 39.5,-30 38.18,-40.51 45.02,-39.04"/>
<text text-anchor="middle" x="90" y="-51.8" font-family="Times,serif" font-size="14.00" fill="#5b00c0">rw</text>
</g>
<!-- T3480&#45;&gt;T3481 -->
<g id="edge2" class="edge">
<title>T3480:f5&#45;&gt;T3481:f3</title>
<path fill="none" stroke="#5b00c0" d="M854.5,-30C854.5,-61.1 848.71,-89.37 822.61,-94.99"/>
<polygon fill="#5b00c0" stroke="#5b00c0" points="822.1,-91.52 812.5,-96 822.8,-98.49 822.1,-91.52"/>
<text text-anchor="middle" x="863" y="-51.8" font-family="Times,serif" font-size="14.00" fill="#5b00c0">rw</text>
</g>
</g>
</svg>
