<?xml version="1.0" encoding="UTF-8" standalone="no"?>
<!DOCTYPE svg PUBLIC "-//W3C//DTD SVG 1.1//EN"
 "http://www.w3.org/Graphics/SVG/1.1/DTD/svg11.dtd">
<!-- Generated by graphviz version 2.43.0 (0)
 -->
<!-- Title: a_graph Pages: 1 -->
<svg width="1174pt" height="119pt"
 viewBox="0.00 0.00 1173.50 119.00" xmlns="http://www.w3.org/2000/svg" xmlns:xlink="http://www.w3.org/1999/xlink">
<g id="graph0" class="graph" transform="scale(1 1) rotate(0) translate(4 115)">
<title>a_graph</title>
<polygon fill="white" stroke="transparent" points="-4,4 -4,-115 1169.5,-115 1169.5,4 -4,4"/>
<!-- T3355 -->
<g id="node1" class="node">
<title>T3355</title>
<polygon fill="none" stroke="#0058ad" points="0,-81.5 0,-110.5 668,-110.5 668,-81.5 0,-81.5"/>
<text text-anchor="middle" x="149.5" y="-92.3" font-family="Times,serif" font-size="14.00" fill="#0058ad">r 126 [1 2 3 4 5 6 7 8 9 10 11 12 13 14]</text>
<polyline fill="none" stroke="#0058ad" points="299,-81.5 299,-110.5 "/>
<text text-anchor="middle" x="334" y="-92.3" font-family="Times,serif" font-size="14.00" fill="#0058ad">a 127 2</text>
<polyline fill="none" stroke="#0058ad" points="369,-81.5 369,-110.5 "/>
<text text-anchor="middle" x="518.5" y="-92.3" font-family="Times,serif" font-size="14.00" fill="#0058ad">r 126 [1 2 3 4 5 6 7 8 9 10 11 12 13 14]</text>
</g>
<!-- T3356 -->
<g id="node2" class="node">
<title>T3356</title>
<polygon fill="none" stroke="#0058ad" points="126.5,-0.5 126.5,-29.5 1165.5,-29.5 1165.5,-0.5 126.5,-0.5"/>
<text text-anchor="middle" x="166" y="-11.3" font-family="Times,serif" font-size="14.00" fill="#0058ad">r 127 [1]</text>
<polyline fill="none" stroke="#0058ad" points="205.5,-0.5 205.5,-29.5 "/>
<text text-anchor="middle" x="245" y="-11.3" font-family="Times,serif" font-size="14.00" fill="#0058ad">a 126 15</text>
<polyline fill="none" stroke="#0058ad" points="284.5,-0.5 284.5,-29.5 "/>
<text text-anchor="middle" x="324" y="-11.3" font-family="Times,serif" font-size="14.00" fill="#0058ad">r 127 [1]</text>
<polyline fill="none" stroke="#0058ad" points="363.5,-0.5 363.5,-29.5 "/>
<text text-anchor="middle" x="524.5" y="-11.3" font-family="Times,serif" font-size="14.00" fill="#0058ad">r 126 [1 2 3 4 5 6 7 8 9 10 11 12 13 14 15]</text>
<polyline fill="none" stroke="#0058ad" points="685.5,-0.5 685.5,-29.5 "/>
<text text-anchor="middle" x="725" y="-11.3" font-family="Times,serif" font-size="14.00" fill="#0058ad">r 127 [1]</text>
<polyline fill="none" stroke="#0058ad" points="764.5,-0.5 764.5,-29.5 "/>
<text text-anchor="middle" x="925.5" y="-11.3" font-family="Times,serif" font-size="14.00" fill="#0058ad">r 126 [1 2 3 4 5 6 7 8 9 10 11 12 13 14 15]</text>
<polyline fill="none" stroke="#0058ad" points="1086.5,-0.5 1086.5,-29.5 "/>
<text text-anchor="middle" x="1126" y="-11.3" font-family="Times,serif" font-size="14.00" fill="#0058ad">a 126 16</text>
</g>
<!-- T3355&#45;&gt;T3356 -->
<g id="edge1" class="edge">
<title>T3355:f0&#45;&gt;T3356:f1</title>
<path fill="none" stroke="#5b00c0" d="M149,-81C149,-60.15 220.54,-55.29 240.11,-38.81"/>
<polygon fill="#5b00c0" stroke="#5b00c0" points="243.21,-40.44 245,-30 237.09,-37.04 243.21,-40.44"/>
<text text-anchor="middle" x="231.5" y="-51.8" font-family="Times,serif" font-size="14.00" fill="#5b00c0">rw</text>
</g>
<!-- T3356&#45;&gt;T3355 -->
<g id="edge2" class="edge">
<title>T3356:f0&#45;&gt;T3355:f1</title>
<path fill="none" stroke="#5b00c0" d="M166,-30C166,-47.14 224.57,-43.13 241,-48 279.27,-59.35 324.92,-41.04 332.81,-70.73"/>
<polygon fill="#5b00c0" stroke="#5b00c0" points="329.37,-71.47 334,-81 336.33,-70.66 329.37,-71.47"/>
<text text-anchor="middle" x="337.5" y="-51.8" font-family="Times,serif" font-size="14.00" fill="#5b00c0">rw</text>
</g>
</g>
</svg>
