<?xml version="1.0" encoding="UTF-8" standalone="no"?>
<!DOCTYPE svg PUBLIC "-//W3C//DTD SVG 1.1//EN"
 "http://www.w3.org/Graphics/SVG/1.1/DTD/svg11.dtd">
<!-- Generated by graphviz version 2.43.0 (0)
 -->
<!-- Title: a_graph Pages: 1 -->
<svg width="861pt" height="119pt"
 viewBox="0.00 0.00 861.00 119.00" xmlns="http://www.w3.org/2000/svg" xmlns:xlink="http://www.w3.org/1999/xlink">
<g id="graph0" class="graph" transform="scale(1 1) rotate(0) translate(4 115)">
<title>a_graph</title>
<polygon fill="white" stroke="transparent" points="-4,4 -4,-115 857,-115 857,4 -4,4"/>
<!-- T813 -->
<g id="node1" class="node">
<title>T813</title>
<polygon fill="none" stroke="#0058ad" points="98,-81.5 98,-110.5 853,-110.5 853,-81.5 98,-81.5"/>
<text text-anchor="middle" x="133" y="-92.3" font-family="Times,serif" font-size="14.00" fill="#0058ad">a 30 31</text>
<polyline fill="none" stroke="#0058ad" points="168,-81.5 168,-110.5 "/>
<text text-anchor="middle" x="203" y="-92.3" font-family="Times,serif" font-size="14.00" fill="#0058ad">a 29 17</text>
<polyline fill="none" stroke="#0058ad" points="238,-81.5 238,-110.5 "/>
<text text-anchor="middle" x="273" y="-92.3" font-family="Times,serif" font-size="14.00" fill="#0058ad">a 25 25</text>
<polyline fill="none" stroke="#0058ad" points="308,-81.5 308,-110.5 "/>
<text text-anchor="middle" x="343" y="-92.3" font-family="Times,serif" font-size="14.00" fill="#0058ad">a 30 32</text>
<polyline fill="none" stroke="#0058ad" points="378,-81.5 378,-110.5 "/>
<text text-anchor="middle" x="413" y="-92.3" font-family="Times,serif" font-size="14.00" fill="#0058ad">a 29 18</text>
<polyline fill="none" stroke="#0058ad" points="448,-81.5 448,-110.5 "/>
<text text-anchor="middle" x="478.5" y="-92.3" font-family="Times,serif" font-size="14.00" fill="#0058ad">r 31 []</text>
<polyline fill="none" stroke="#0058ad" points="509,-81.5 509,-110.5 "/>
<text text-anchor="middle" x="681" y="-92.3" font-family="Times,serif" font-size="14.00" fill="#0058ad">r 29 [1 2 3 4 5 6 8 9 11 12 13 14 15 16 17 18]</text>
</g>
<!-- T812 -->
<g id="node2" class="node">
<title>T812</title>
<polygon fill="none" stroke="#0058ad" points="0,-0.5 0,-29.5 801,-29.5 801,-0.5 0,-0.5"/>
<text text-anchor="middle" x="30.5" y="-11.3" font-family="Times,serif" font-size="14.00" fill="#0058ad">a 31 1</text>
<polyline fill="none" stroke="#0058ad" points="61,-0.5 61,-29.5 "/>
<text text-anchor="middle" x="96" y="-11.3" font-family="Times,serif" font-size="14.00" fill="#0058ad">r 31 [1]</text>
<polyline fill="none" stroke="#0058ad" points="131,-0.5 131,-29.5 "/>
<text text-anchor="middle" x="161.5" y="-11.3" font-family="Times,serif" font-size="14.00" fill="#0058ad">a 31 2</text>
<polyline fill="none" stroke="#0058ad" points="192,-0.5 192,-29.5 "/>
<text text-anchor="middle" x="233.5" y="-11.3" font-family="Times,serif" font-size="14.00" fill="#0058ad">r 31 [1 2]</text>
<polyline fill="none" stroke="#0058ad" points="275,-0.5 275,-29.5 "/>
<text text-anchor="middle" x="316.5" y="-11.3" font-family="Times,serif" font-size="14.00" fill="#0058ad">r 31 [1 2]</text>
<polyline fill="none" stroke="#0058ad" points="358,-0.5 358,-29.5 "/>
<text text-anchor="middle" x="399.5" y="-11.3" font-family="Times,serif" font-size="14.00" fill="#0058ad">r 31 [1 2]</text>
<polyline fill="none" stroke="#0058ad" points="441,-0.5 441,-29.5 "/>
<text text-anchor="middle" x="471.5" y="-11.3" font-family="Times,serif" font-size="14.00" fill="#0058ad">a 31 3</text>
<polyline fill="none" stroke="#0058ad" points="502,-0.5 502,-29.5 "/>
<text text-anchor="middle" x="651.5" y="-11.3" font-family="Times,serif" font-size="14.00" fill="#0058ad">r 29 [1 2 3 4 5 6 8 9 11 12 13 14 15 16]</text>
</g>
<!-- T813&#45;&gt;T812 -->
<g id="edge1" class="edge">
<title>T813:f5&#45;&gt;T812:f0</title>
<path fill="none" stroke="#5b00c0" d="M478.5,-81C478.5,6.46 371.34,-58.44 284.5,-48 272.1,-46.51 83.64,-44.65 39.64,-34.5"/>
<polygon fill="#5b00c0" stroke="#5b00c0" points="41.02,-31.28 30.5,-30 37.93,-37.56 41.02,-31.28"/>
<text text-anchor="middle" x="486" y="-51.8" font-family="Times,serif" font-size="14.00" fill="#5b00c0">rw</text>
</g>
<!-- T812&#45;&gt;T813 -->
<g id="edge2" class="edge">
<title>T812:f7&#45;&gt;T813:f1</title>
<path fill="none" stroke="#5b00c0" d="M651.5,-30C651.5,-51.69 282.36,-42.05 261.5,-48 236.45,-55.15 210.48,-52.12 204.02,-70.78"/>
<polygon fill="#5b00c0" stroke="#5b00c0" points="200.51,-70.59 202.5,-81 207.43,-71.62 200.51,-70.59"/>
<text text-anchor="middle" x="271" y="-51.8" font-family="Times,serif" font-size="14.00" fill="#5b00c0">rw</text>
</g>
</g>
</svg>
