<?xml version="1.0" encoding="UTF-8" standalone="no"?>
<!DOCTYPE svg PUBLIC "-//W3C//DTD SVG 1.1//EN"
 "http://www.w3.org/Graphics/SVG/1.1/DTD/svg11.dtd">
<!-- Generated by graphviz version 2.43.0 (0)
 -->
<!-- Title: a_graph Pages: 1 -->
<svg width="898pt" height="119pt"
 viewBox="0.00 0.00 898.00 119.00" xmlns="http://www.w3.org/2000/svg" xmlns:xlink="http://www.w3.org/1999/xlink">
<g id="graph0" class="graph" transform="scale(1 1) rotate(0) translate(4 115)">
<title>a_graph</title>
<polygon fill="white" stroke="transparent" points="-4,4 -4,-115 894,-115 894,4 -4,4"/>
<!-- T873 -->
<g id="node1" class="node">
<title>T873</title>
<polygon fill="none" stroke="#0058ad" points="157,-81.5 157,-110.5 497,-110.5 497,-81.5 157,-81.5"/>
<text text-anchor="middle" x="187.5" y="-92.3" font-family="Times,serif" font-size="14.00" fill="#0058ad">a 34 3</text>
<polyline fill="none" stroke="#0058ad" points="218,-81.5 218,-110.5 "/>
<text text-anchor="middle" x="248.5" y="-92.3" font-family="Times,serif" font-size="14.00" fill="#0058ad">a 33 6</text>
<polyline fill="none" stroke="#0058ad" points="279,-81.5 279,-110.5 "/>
<text text-anchor="middle" x="388" y="-92.3" font-family="Times,serif" font-size="14.00" fill="#0058ad">r 32 [1 2 3 4 5 6 7 10 11 12]</text>
</g>
<!-- T872 -->
<g id="node2" class="node">
<title>T872</title>
<polygon fill="none" stroke="#0058ad" points="0,-0.5 0,-29.5 890,-29.5 890,-0.5 0,-0.5"/>
<text text-anchor="middle" x="35" y="-11.3" font-family="Times,serif" font-size="14.00" fill="#0058ad">a 32 13</text>
<polyline fill="none" stroke="#0058ad" points="70,-0.5 70,-29.5 "/>
<text text-anchor="middle" x="190.5" y="-11.3" font-family="Times,serif" font-size="14.00" fill="#0058ad">r 32 [1 2 3 4 5 6 7 10 11 12 13]</text>
<polyline fill="none" stroke="#0058ad" points="311,-0.5 311,-29.5 "/>
<text text-anchor="middle" x="431.5" y="-11.3" font-family="Times,serif" font-size="14.00" fill="#0058ad">r 32 [1 2 3 4 5 6 7 10 11 12 13]</text>
<polyline fill="none" stroke="#0058ad" points="552,-0.5 552,-29.5 "/>
<text text-anchor="middle" x="600.5" y="-11.3" font-family="Times,serif" font-size="14.00" fill="#0058ad">r 33 [1 2 5]</text>
<polyline fill="none" stroke="#0058ad" points="649,-0.5 649,-29.5 "/>
<text text-anchor="middle" x="769.5" y="-11.3" font-family="Times,serif" font-size="14.00" fill="#0058ad">r 32 [1 2 3 4 5 6 7 10 11 12 13]</text>
</g>
<!-- T873&#45;&gt;T872 -->
<g id="edge1" class="edge">
<title>T873:f2&#45;&gt;T872:f0</title>
<path fill="none" stroke="#5b00c0" d="M388,-81C388,-37.56 338.52,-56.91 296,-48 270.44,-42.64 80.13,-55.85 41.74,-37.5"/>
<polygon fill="#5b00c0" stroke="#5b00c0" points="44.29,-35.1 35,-30 39.08,-39.78 44.29,-35.1"/>
<text text-anchor="middle" x="391.5" y="-51.8" font-family="Times,serif" font-size="14.00" fill="#5b00c0">rw</text>
</g>
<!-- T872&#45;&gt;T873 -->
<g id="edge2" class="edge">
<title>T872:f3&#45;&gt;T873:f1</title>
<path fill="none" stroke="#5b00c0" d="M601,-30C601,-66.5 305.23,-30.87 273,-48 260.18,-54.82 252.03,-59.97 249.16,-70.87"/>
<polygon fill="#5b00c0" stroke="#5b00c0" points="245.66,-70.67 248,-81 252.61,-71.46 245.66,-70.67"/>
<text text-anchor="middle" x="282.5" y="-51.8" font-family="Times,serif" font-size="14.00" fill="#5b00c0">rw</text>
</g>
</g>
</svg>
