<?xml version="1.0" encoding="UTF-8" standalone="no"?>
<!DOCTYPE svg PUBLIC "-//W3C//DTD SVG 1.1//EN"
 "http://www.w3.org/Graphics/SVG/1.1/DTD/svg11.dtd">
<!-- Generated by graphviz version 2.43.0 (0)
 -->
<!-- Title: a_graph Pages: 1 -->
<svg width="1522pt" height="119pt"
 viewBox="0.00 0.00 1521.50 119.00" xmlns="http://www.w3.org/2000/svg" xmlns:xlink="http://www.w3.org/1999/xlink">
<g id="graph0" class="graph" transform="scale(1 1) rotate(0) translate(4 115)">
<title>a_graph</title>
<polygon fill="white" stroke="transparent" points="-4,4 -4,-115 1517.5,-115 1517.5,4 -4,4"/>
<!-- T106 -->
<g id="node1" class="node">
<title>T106</title>
<polygon fill="none" stroke="#0058ad" points="0,-81.5 0,-110.5 1325,-110.5 1325,-81.5 0,-81.5"/>
<text text-anchor="middle" x="152" y="-92.3" font-family="Times,serif" font-size="14.00" fill="#0058ad">r 0 [1 2 3 4 5 6 7 8 9 10 11 12 13 14 15]</text>
<polyline fill="none" stroke="#0058ad" points="304,-81.5 304,-110.5 "/>
<text text-anchor="middle" x="512" y="-92.3" font-family="Times,serif" font-size="14.00" fill="#0058ad">r 4 [1 2 3 4 5 6 7 8 9 10 15 16 17 18 19 20 21 22 23 24]</text>
<polyline fill="none" stroke="#0058ad" points="720,-81.5 720,-110.5 "/>
<text text-anchor="middle" x="784" y="-92.3" font-family="Times,serif" font-size="14.00" fill="#0058ad">r 5 [3 4 5 6 7 8]</text>
<polyline fill="none" stroke="#0058ad" points="848,-81.5 848,-110.5 "/>
<text text-anchor="middle" x="1056" y="-92.3" font-family="Times,serif" font-size="14.00" fill="#0058ad">r 4 [1 2 3 4 5 6 7 8 9 10 15 16 17 18 19 20 21 22 23 24]</text>
<polyline fill="none" stroke="#0058ad" points="1264,-81.5 1264,-110.5 "/>
<text text-anchor="middle" x="1294.5" y="-92.3" font-family="Times,serif" font-size="14.00" fill="#0058ad">a 4 25</text>
</g>
<!-- T107 -->
<g id="node2" class="node">
<title>T107</title>
<polygon fill="none" stroke="#0058ad" points="501.5,-0.5 501.5,-29.5 1513.5,-29.5 1513.5,-0.5 501.5,-0.5"/>
<text text-anchor="middle" x="709.5" y="-11.3" font-family="Times,serif" font-size="14.00" fill="#0058ad">r 4 [1 2 3 4 5 6 7 8 9 10 15 16 17 18 19 20 21 22 23 24]</text>
<polyline fill="none" stroke="#0058ad" points="917.5,-0.5 917.5,-29.5 "/>
<text text-anchor="middle" x="1125.5" y="-11.3" font-family="Times,serif" font-size="14.00" fill="#0058ad">r 4 [1 2 3 4 5 6 7 8 9 10 15 16 17 18 19 20 21 22 23 24]</text>
<polyline fill="none" stroke="#0058ad" points="1333.5,-0.5 1333.5,-29.5 "/>
<text text-anchor="middle" x="1397.5" y="-11.3" font-family="Times,serif" font-size="14.00" fill="#0058ad">r 5 [3 4 5 6 7 8]</text>
<polyline fill="none" stroke="#0058ad" points="1461.5,-0.5 1461.5,-29.5 "/>
<text text-anchor="middle" x="1487.5" y="-11.3" font-family="Times,serif" font-size="14.00" fill="#0058ad">a 5 9</text>
</g>
<!-- T106&#45;&gt;T107 -->
<g id="edge1" class="edge">
<title>T106:f2&#45;&gt;T107:f3</title>
<path fill="none" stroke="#5b00c0" d="M784.5,-81C784.5,76.13 979.78,-59.36 1136.5,-48 1154.07,-46.73 1425.72,-48.99 1478.61,-35.1"/>
<polygon fill="#5b00c0" stroke="#5b00c0" points="1480.57,-38.02 1487.5,-30 1477.09,-31.94 1480.57,-38.02"/>
<text text-anchor="middle" x="1146" y="-51.8" font-family="Times,serif" font-size="14.00" fill="#5b00c0">rw</text>
</g>
<!-- T107&#45;&gt;T106 -->
<g id="edge2" class="edge">
<title>T107:f0&#45;&gt;T106:f4</title>
<path fill="none" stroke="#5b00c0" d="M709.5,-30C709.5,-54.8 1130.93,-44.62 1155.5,-48 1214.72,-56.15 1285.63,-21.93 1293.73,-70.87"/>
<polygon fill="#5b00c0" stroke="#5b00c0" points="1290.26,-71.29 1294.5,-81 1297.24,-70.76 1290.26,-71.29"/>
<text text-anchor="middle" x="1300" y="-51.8" font-family="Times,serif" font-size="14.00" fill="#5b00c0">rw</text>
</g>
</g>
</svg>
