<?xml version="1.0" encoding="UTF-8" standalone="no"?>
<!DOCTYPE svg PUBLIC "-//W3C//DTD SVG 1.1//EN"
 "http://www.w3.org/Graphics/SVG/1.1/DTD/svg11.dtd">
<!-- Generated by graphviz version 2.43.0 (0)
 -->
<!-- Title: a_graph Pages: 1 -->
<svg width="264pt" height="119pt"
 viewBox="0.00 0.00 263.50 119.00" xmlns="http://www.w3.org/2000/svg" xmlns:xlink="http://www.w3.org/1999/xlink">
<g id="graph0" class="graph" transform="scale(1 1) rotate(0) translate(4 115)">
<title>a_graph</title>
<polygon fill="white" stroke="transparent" points="-4,4 -4,-115 259.5,-115 259.5,4 -4,4"/>
<!-- T401 -->
<g id="node1" class="node">
<title>T401</title>
<polygon fill="none" stroke="#0058ad" points="0,-81.5 0,-110.5 232,-110.5 232,-81.5 0,-81.5"/>
<text text-anchor="middle" x="30.5" y="-92.3" font-family="Times,serif" font-size="14.00" fill="#0058ad">r 23 []</text>
<polyline fill="none" stroke="#0058ad" points="61,-81.5 61,-110.5 "/>
<text text-anchor="middle" x="91.5" y="-92.3" font-family="Times,serif" font-size="14.00" fill="#0058ad">a 23 2</text>
<polyline fill="none" stroke="#0058ad" points="122,-81.5 122,-110.5 "/>
<text text-anchor="middle" x="177" y="-92.3" font-family="Times,serif" font-size="14.00" fill="#0058ad">r 22 [1 2 3 4]</text>
</g>
<!-- T399 -->
<g id="node2" class="node">
<title>T399</title>
<polygon fill="none" stroke="#0058ad" points="2.5,-0.5 2.5,-29.5 255.5,-29.5 255.5,-0.5 2.5,-0.5"/>
<text text-anchor="middle" x="37.5" y="-11.3" font-family="Times,serif" font-size="14.00" fill="#0058ad">a 20 29</text>
<polyline fill="none" stroke="#0058ad" points="72.5,-0.5 72.5,-29.5 "/>
<text text-anchor="middle" x="103" y="-11.3" font-family="Times,serif" font-size="14.00" fill="#0058ad">a 22 5</text>
<polyline fill="none" stroke="#0058ad" points="133.5,-0.5 133.5,-29.5 "/>
<text text-anchor="middle" x="164" y="-11.3" font-family="Times,serif" font-size="14.00" fill="#0058ad">r 23 []</text>
<polyline fill="none" stroke="#0058ad" points="194.5,-0.5 194.5,-29.5 "/>
<text text-anchor="middle" x="225" y="-11.3" font-family="Times,serif" font-size="14.00" fill="#0058ad">a 22 6</text>
</g>
<!-- T401&#45;&gt;T399 -->
<g id="edge1" class="edge">
<title>T401:f2&#45;&gt;T399:f1</title>
<path fill="none" stroke="#5b00c0" d="M177,-81C177,-72.89 128.15,-50.88 109.83,-37.56"/>
<polygon fill="#5b00c0" stroke="#5b00c0" points="112.3,-35.07 103,-30 107.11,-39.77 112.3,-35.07"/>
<text text-anchor="middle" x="162.5" y="-51.8" font-family="Times,serif" font-size="14.00" fill="#5b00c0">rw</text>
</g>
<!-- T399&#45;&gt;T401 -->
<g id="edge2" class="edge">
<title>T399:f2&#45;&gt;T401:f1</title>
<path fill="none" stroke="#5b00c0" d="M164,-30C164,-58.27 123.6,-28.64 103,-48 94.47,-56.02 91.99,-61.79 91.28,-70.76"/>
<polygon fill="#5b00c0" stroke="#5b00c0" points="87.77,-70.91 91,-81 94.77,-71.1 87.77,-70.91"/>
<text text-anchor="middle" x="112.5" y="-51.8" font-family="Times,serif" font-size="14.00" fill="#5b00c0">rw</text>
</g>
</g>
</svg>
