<?xml version="1.0" encoding="UTF-8" standalone="no"?>
<!DOCTYPE svg PUBLIC "-//W3C//DTD SVG 1.1//EN"
 "http://www.w3.org/Graphics/SVG/1.1/DTD/svg11.dtd">
<!-- Generated by graphviz version 2.43.0 (0)
 -->
<!-- Title: a_graph Pages: 1 -->
<svg width="1426pt" height="119pt"
 viewBox="0.00 0.00 1426.00 119.00" xmlns="http://www.w3.org/2000/svg" xmlns:xlink="http://www.w3.org/1999/xlink">
<g id="graph0" class="graph" transform="scale(1 1) rotate(0) translate(4 115)">
<title>a_graph</title>
<polygon fill="white" stroke="transparent" points="-4,4 -4,-115 1422,-115 1422,4 -4,4"/>
<!-- T1442 -->
<g id="node1" class="node">
<title>T1442</title>
<polygon fill="none" stroke="#0058ad" points="0,-81.5 0,-110.5 1418,-110.5 1418,-81.5 0,-81.5"/>
<text text-anchor="middle" x="35" y="-92.3" font-family="Times,serif" font-size="14.00" fill="#0058ad">a 55 17</text>
<polyline fill="none" stroke="#0058ad" points="70,-81.5 70,-110.5 "/>
<text text-anchor="middle" x="105" y="-92.3" font-family="Times,serif" font-size="14.00" fill="#0058ad">a 55 18</text>
<polyline fill="none" stroke="#0058ad" points="140,-81.5 140,-110.5 "/>
<text text-anchor="middle" x="316.5" y="-92.3" font-family="Times,serif" font-size="14.00" fill="#0058ad">r 55 [1 2 3 4 5 6 9 10 11 12 13 14 15 16 17 18]</text>
<polyline fill="none" stroke="#0058ad" points="493,-81.5 493,-110.5 "/>
<text text-anchor="middle" x="669.5" y="-92.3" font-family="Times,serif" font-size="14.00" fill="#0058ad">r 55 [1 2 3 4 5 6 9 10 11 12 13 14 15 16 17 18]</text>
<polyline fill="none" stroke="#0058ad" points="846,-81.5 846,-110.5 "/>
<text text-anchor="middle" x="881" y="-92.3" font-family="Times,serif" font-size="14.00" fill="#0058ad">a 55 19</text>
<polyline fill="none" stroke="#0058ad" points="916,-81.5 916,-110.5 "/>
<text text-anchor="middle" x="1167" y="-92.3" font-family="Times,serif" font-size="14.00" fill="#0058ad">r 52 [1 2 3 4 5 7 8 9 10 11 12 13 14 15 16 17 18 19 20 21 22 23 24]</text>
</g>
<!-- T1443 -->
<g id="node2" class="node">
<title>T1443</title>
<polygon fill="none" stroke="#0058ad" points="437,-0.5 437,-29.5 885,-29.5 885,-0.5 437,-0.5"/>
<text text-anchor="middle" x="472" y="-11.3" font-family="Times,serif" font-size="14.00" fill="#0058ad">a 52 25</text>
<polyline fill="none" stroke="#0058ad" points="507,-0.5 507,-29.5 "/>
<text text-anchor="middle" x="542" y="-11.3" font-family="Times,serif" font-size="14.00" fill="#0058ad">a 51 31</text>
<polyline fill="none" stroke="#0058ad" points="577,-0.5 577,-29.5 "/>
<text text-anchor="middle" x="731" y="-11.3" font-family="Times,serif" font-size="14.00" fill="#0058ad">r 55 [1 2 3 4 5 6 9 10 11 12 13 14 15 16]</text>
</g>
<!-- T1442&#45;&gt;T1443 -->
<g id="edge1" class="edge">
<title>T1442:f5&#45;&gt;T1443:f0</title>
<path fill="none" stroke="#5b00c0" d="M1167,-81C1167,70.23 504.2,-172.96 473.13,-40.22"/>
<polygon fill="#5b00c0" stroke="#5b00c0" points="476.58,-39.56 472,-30 469.62,-40.32 476.58,-39.56"/>
<text text-anchor="middle" x="1168.5" y="-51.8" font-family="Times,serif" font-size="14.00" fill="#5b00c0">rw</text>
</g>
<!-- T1443&#45;&gt;T1442 -->
<g id="edge2" class="edge">
<title>T1443:f2&#45;&gt;T1442:f0</title>
<path fill="none" stroke="#5b00c0" d="M731,-30C731,-45.31 471.27,-46.9 456,-48 366.06,-54.47 60.22,7.68 36.47,-70.73"/>
<polygon fill="#5b00c0" stroke="#5b00c0" points="32.95,-70.61 35,-81 39.88,-71.59 32.95,-70.61"/>
<text text-anchor="middle" x="465.5" y="-51.8" font-family="Times,serif" font-size="14.00" fill="#5b00c0">rw</text>
</g>
</g>
</svg>
