<?xml version="1.0" encoding="UTF-8" standalone="no"?>
<!DOCTYPE svg PUBLIC "-//W3C//DTD SVG 1.1//EN"
 "http://www.w3.org/Graphics/SVG/1.1/DTD/svg11.dtd">
<!-- Generated by graphviz version 2.43.0 (0)
 -->
<!-- Title: a_graph Pages: 1 -->
<svg width="1717pt" height="119pt"
 viewBox="0.00 0.00 1717.00 119.00" xmlns="http://www.w3.org/2000/svg" xmlns:xlink="http://www.w3.org/1999/xlink">
<g id="graph0" class="graph" transform="scale(1 1) rotate(0) translate(4 115)">
<title>a_graph</title>
<polygon fill="white" stroke="transparent" points="-4,4 -4,-115 1713,-115 1713,4 -4,4"/>
<!-- T113 -->
<g id="node1" class="node">
<title>T113</title>
<polygon fill="none" stroke="#0058ad" points="57,-81.5 57,-110.5 660,-110.5 660,-81.5 57,-81.5"/>
<text text-anchor="middle" x="332.5" y="-92.3" font-family="Times,serif" font-size="14.00" fill="#0058ad">r 4 [1 2 3 4 5 6 7 8 9 10 11 12 13 14 15 16 17 18 19 20 21 24 25 26 27 28]</text>
<polyline fill="none" stroke="#0058ad" points="608,-81.5 608,-110.5 "/>
<text text-anchor="middle" x="634" y="-92.3" font-family="Times,serif" font-size="14.00" fill="#0058ad">a 5 9</text>
</g>
<!-- T112 -->
<g id="node2" class="node">
<title>T112</title>
<polygon fill="none" stroke="#0058ad" points="0,-0.5 0,-29.5 1709,-29.5 1709,-0.5 0,-0.5"/>
<text text-anchor="middle" x="30.5" y="-11.3" font-family="Times,serif" font-size="14.00" fill="#0058ad">a 0 12</text>
<polyline fill="none" stroke="#0058ad" points="61,-0.5 61,-29.5 "/>
<text text-anchor="middle" x="179" y="-11.3" font-family="Times,serif" font-size="14.00" fill="#0058ad">r 0 [1 2 3 4 5 6 7 8 9 10 11 12]</text>
<polyline fill="none" stroke="#0058ad" points="297,-0.5 297,-29.5 "/>
<text text-anchor="middle" x="368" y="-11.3" font-family="Times,serif" font-size="14.00" fill="#0058ad">r 5 [1 2 3 4 6 7 8]</text>
<polyline fill="none" stroke="#0058ad" points="439,-0.5 439,-29.5 "/>
<text text-anchor="middle" x="469.5" y="-11.3" font-family="Times,serif" font-size="14.00" fill="#0058ad">a 4 29</text>
<polyline fill="none" stroke="#0058ad" points="500,-0.5 500,-29.5 "/>
<text text-anchor="middle" x="787" y="-11.3" font-family="Times,serif" font-size="14.00" fill="#0058ad">r 4 [1 2 3 4 5 6 7 8 9 10 11 12 13 14 15 16 17 18 19 20 21 24 25 26 27 28 29]</text>
<polyline fill="none" stroke="#0058ad" points="1074,-0.5 1074,-29.5 "/>
<text text-anchor="middle" x="1361" y="-11.3" font-family="Times,serif" font-size="14.00" fill="#0058ad">r 4 [1 2 3 4 5 6 7 8 9 10 11 12 13 14 15 16 17 18 19 20 21 24 25 26 27 28 29]</text>
<polyline fill="none" stroke="#0058ad" points="1648,-0.5 1648,-29.5 "/>
<text text-anchor="middle" x="1678.5" y="-11.3" font-family="Times,serif" font-size="14.00" fill="#0058ad">a 4 30</text>
</g>
<!-- T113&#45;&gt;T112 -->
<g id="edge1" class="edge">
<title>T113:f0&#45;&gt;T112:f3</title>
<path fill="none" stroke="#5b00c0" d="M332.5,-81C332.5,-19.84 453.92,-86.21 468.14,-40"/>
<polygon fill="#5b00c0" stroke="#5b00c0" points="471.62,-40.38 469.5,-30 464.69,-39.44 471.62,-40.38"/>
<text text-anchor="middle" x="472" y="-51.8" font-family="Times,serif" font-size="14.00" fill="#5b00c0">rw</text>
</g>
<!-- T112&#45;&gt;T113 -->
<g id="edge2" class="edge">
<title>T112:f2&#45;&gt;T113:f1</title>
<path fill="none" stroke="#5b00c0" d="M367.5,-30C367.5,-56.53 459.43,-43.13 485.5,-48 548.53,-59.77 625.54,-18.17 633.78,-70.88"/>
<polygon fill="#5b00c0" stroke="#5b00c0" points="630.3,-71.27 634.5,-81 637.28,-70.78 630.3,-71.27"/>
<text text-anchor="middle" x="640" y="-51.8" font-family="Times,serif" font-size="14.00" fill="#5b00c0">rw</text>
</g>
</g>
</svg>
