<?xml version="1.0" encoding="UTF-8" standalone="no"?>
<!DOCTYPE svg PUBLIC "-//W3C//DTD SVG 1.1//EN"
 "http://www.w3.org/Graphics/SVG/1.1/DTD/svg11.dtd">
<!-- Generated by graphviz version 2.43.0 (0)
 -->
<!-- Title: a_graph Pages: 1 -->
<svg width="563pt" height="119pt"
 viewBox="0.00 0.00 563.00 119.00" xmlns="http://www.w3.org/2000/svg" xmlns:xlink="http://www.w3.org/1999/xlink">
<g id="graph0" class="graph" transform="scale(1 1) rotate(0) translate(4 115)">
<title>a_graph</title>
<polygon fill="white" stroke="transparent" points="-4,4 -4,-115 559,-115 559,4 -4,4"/>
<!-- T1932 -->
<g id="node1" class="node">
<title>T1932</title>
<polygon fill="none" stroke="#0058ad" points="0,-81.5 0,-110.5 372,-110.5 372,-81.5 0,-81.5"/>
<text text-anchor="middle" x="35" y="-92.3" font-family="Times,serif" font-size="14.00" fill="#0058ad">a 803 1</text>
<polyline fill="none" stroke="#0058ad" points="70,-81.5 70,-110.5 "/>
<text text-anchor="middle" x="105" y="-92.3" font-family="Times,serif" font-size="14.00" fill="#0058ad">r 804 []</text>
<polyline fill="none" stroke="#0058ad" points="140,-81.5 140,-110.5 "/>
<text text-anchor="middle" x="186" y="-92.3" font-family="Times,serif" font-size="14.00" fill="#0058ad">r 801 [1 2]</text>
<polyline fill="none" stroke="#0058ad" points="232,-81.5 232,-110.5 "/>
<text text-anchor="middle" x="267" y="-92.3" font-family="Times,serif" font-size="14.00" fill="#0058ad">r 804 []</text>
<polyline fill="none" stroke="#0058ad" points="302,-81.5 302,-110.5 "/>
<text text-anchor="middle" x="337" y="-92.3" font-family="Times,serif" font-size="14.00" fill="#0058ad">a 801 3</text>
</g>
<!-- T1933 -->
<g id="node2" class="node">
<title>T1933</title>
<polygon fill="none" stroke="#0058ad" points="113,-0.5 113,-29.5 555,-29.5 555,-0.5 113,-0.5"/>
<text text-anchor="middle" x="148" y="-11.3" font-family="Times,serif" font-size="14.00" fill="#0058ad">r 804 []</text>
<polyline fill="none" stroke="#0058ad" points="183,-0.5 183,-29.5 "/>
<text text-anchor="middle" x="218" y="-11.3" font-family="Times,serif" font-size="14.00" fill="#0058ad">a 804 1</text>
<polyline fill="none" stroke="#0058ad" points="253,-0.5 253,-29.5 "/>
<text text-anchor="middle" x="299" y="-11.3" font-family="Times,serif" font-size="14.00" fill="#0058ad">r 801 [1 2]</text>
<polyline fill="none" stroke="#0058ad" points="345,-0.5 345,-29.5 "/>
<text text-anchor="middle" x="380" y="-11.3" font-family="Times,serif" font-size="14.00" fill="#0058ad">a 804 2</text>
<polyline fill="none" stroke="#0058ad" points="415,-0.5 415,-29.5 "/>
<text text-anchor="middle" x="450" y="-11.3" font-family="Times,serif" font-size="14.00" fill="#0058ad">a 788 3</text>
<polyline fill="none" stroke="#0058ad" points="485,-0.5 485,-29.5 "/>
<text text-anchor="middle" x="520" y="-11.3" font-family="Times,serif" font-size="14.00" fill="#0058ad">r 800 []</text>
</g>
<!-- T1932&#45;&gt;T1933 -->
<g id="edge1" class="edge">
<title>T1932:f1&#45;&gt;T1933:f1</title>
<path fill="none" stroke="#5b00c0" d="M105,-81C105,-29.77 202.67,-77.34 216.4,-40.01"/>
<polygon fill="#5b00c0" stroke="#5b00c0" points="219.88,-40.43 218,-30 212.97,-39.32 219.88,-40.43"/>
<text text-anchor="middle" x="220.5" y="-51.8" font-family="Times,serif" font-size="14.00" fill="#5b00c0">rw</text>
</g>
<!-- T1933&#45;&gt;T1932 -->
<g id="edge2" class="edge">
<title>T1933:f2&#45;&gt;T1932:f4</title>
<path fill="none" stroke="#5b00c0" d="M299,-30C299,-54.29 327.06,-53.62 334.96,-70.89"/>
<polygon fill="#5b00c0" stroke="#5b00c0" points="331.59,-71.89 337,-81 338.45,-70.5 331.59,-71.89"/>
<text text-anchor="middle" x="337.5" y="-51.8" font-family="Times,serif" font-size="14.00" fill="#5b00c0">rw</text>
</g>
</g>
</svg>
