<?xml version="1.0" encoding="UTF-8" standalone="no"?>
<!DOCTYPE svg PUBLIC "-//W3C//DTD SVG 1.1//EN"
 "http://www.w3.org/Graphics/SVG/1.1/DTD/svg11.dtd">
<!-- Generated by graphviz version 2.43.0 (0)
 -->
<!-- Title: a_graph Pages: 1 -->
<svg width="486pt" height="119pt"
 viewBox="0.00 0.00 486.00 119.00" xmlns="http://www.w3.org/2000/svg" xmlns:xlink="http://www.w3.org/1999/xlink">
<g id="graph0" class="graph" transform="scale(1 1) rotate(0) translate(4 115)">
<title>a_graph</title>
<polygon fill="white" stroke="transparent" points="-4,4 -4,-115 482,-115 482,4 -4,4"/>
<!-- T914 -->
<g id="node1" class="node">
<title>T914</title>
<polygon fill="none" stroke="#0058ad" points="14,-81.5 14,-110.5 316,-110.5 316,-81.5 14,-81.5"/>
<text text-anchor="middle" x="49" y="-92.3" font-family="Times,serif" font-size="14.00" fill="#0058ad">r 372 []</text>
<polyline fill="none" stroke="#0058ad" points="84,-81.5 84,-110.5 "/>
<text text-anchor="middle" x="119" y="-92.3" font-family="Times,serif" font-size="14.00" fill="#0058ad">r 372 []</text>
<polyline fill="none" stroke="#0058ad" points="154,-81.5 154,-110.5 "/>
<text text-anchor="middle" x="189" y="-92.3" font-family="Times,serif" font-size="14.00" fill="#0058ad">a 372 1</text>
<polyline fill="none" stroke="#0058ad" points="224,-81.5 224,-110.5 "/>
<text text-anchor="middle" x="270" y="-92.3" font-family="Times,serif" font-size="14.00" fill="#0058ad">r 375 [1 2]</text>
</g>
<!-- T915 -->
<g id="node2" class="node">
<title>T915</title>
<polygon fill="none" stroke="#0058ad" points="0,-0.5 0,-29.5 478,-29.5 478,-0.5 0,-0.5"/>
<text text-anchor="middle" x="35" y="-11.3" font-family="Times,serif" font-size="14.00" fill="#0058ad">a 364 2</text>
<polyline fill="none" stroke="#0058ad" points="70,-0.5 70,-29.5 "/>
<text text-anchor="middle" x="116" y="-11.3" font-family="Times,serif" font-size="14.00" fill="#0058ad">r 375 [1 2]</text>
<polyline fill="none" stroke="#0058ad" points="162,-0.5 162,-29.5 "/>
<text text-anchor="middle" x="197" y="-11.3" font-family="Times,serif" font-size="14.00" fill="#0058ad">r 372 []</text>
<polyline fill="none" stroke="#0058ad" points="232,-0.5 232,-29.5 "/>
<text text-anchor="middle" x="267" y="-11.3" font-family="Times,serif" font-size="14.00" fill="#0058ad">a 375 3</text>
<polyline fill="none" stroke="#0058ad" points="302,-0.5 302,-29.5 "/>
<text text-anchor="middle" x="337" y="-11.3" font-family="Times,serif" font-size="14.00" fill="#0058ad">r 372 []</text>
<polyline fill="none" stroke="#0058ad" points="372,-0.5 372,-29.5 "/>
<text text-anchor="middle" x="425" y="-11.3" font-family="Times,serif" font-size="14.00" fill="#0058ad">r 375 [1 2 3]</text>
</g>
<!-- T914&#45;&gt;T915 -->
<g id="edge1" class="edge">
<title>T914:f3&#45;&gt;T915:f3</title>
<path fill="none" stroke="#5b00c0" d="M270,-81C270,-62.2 267.94,-55.13 267.24,-40.36"/>
<polygon fill="#5b00c0" stroke="#5b00c0" points="270.73,-39.92 267,-30 263.73,-40.08 270.73,-39.92"/>
<text text-anchor="middle" x="278.5" y="-51.8" font-family="Times,serif" font-size="14.00" fill="#5b00c0">rw</text>
</g>
<!-- T915&#45;&gt;T914 -->
<g id="edge2" class="edge">
<title>T915:f2&#45;&gt;T914:f2</title>
<path fill="none" stroke="#5b00c0" d="M197,-30C197,-49.18 191.41,-55.9 189.58,-70.99"/>
<polygon fill="#5b00c0" stroke="#5b00c0" points="186.08,-70.82 189,-81 193.07,-71.22 186.08,-70.82"/>
<text text-anchor="middle" x="204.5" y="-51.8" font-family="Times,serif" font-size="14.00" fill="#5b00c0">rw</text>
</g>
</g>
</svg>
