<?xml version="1.0" encoding="UTF-8" standalone="no"?>
<!DOCTYPE svg PUBLIC "-//W3C//DTD SVG 1.1//EN"
 "http://www.w3.org/Graphics/SVG/1.1/DTD/svg11.dtd">
<!-- Generated by graphviz version 2.43.0 (0)
 -->
<!-- Title: a_graph Pages: 1 -->
<svg width="750pt" height="119pt"
 viewBox="0.00 0.00 750.00 119.00" xmlns="http://www.w3.org/2000/svg" xmlns:xlink="http://www.w3.org/1999/xlink">
<g id="graph0" class="graph" transform="scale(1 1) rotate(0) translate(4 115)">
<title>a_graph</title>
<polygon fill="white" stroke="transparent" points="-4,4 -4,-115 746,-115 746,4 -4,4"/>
<!-- T1869 -->
<g id="node1" class="node">
<title>T1869</title>
<polygon fill="none" stroke="#0058ad" points="182,-81.5 182,-110.5 742,-110.5 742,-81.5 182,-81.5"/>
<text text-anchor="middle" x="217" y="-92.3" font-family="Times,serif" font-size="14.00" fill="#0058ad">r 778 []</text>
<polyline fill="none" stroke="#0058ad" points="252,-81.5 252,-110.5 "/>
<text text-anchor="middle" x="287" y="-92.3" font-family="Times,serif" font-size="14.00" fill="#0058ad">r 779 []</text>
<polyline fill="none" stroke="#0058ad" points="322,-81.5 322,-110.5 "/>
<text text-anchor="middle" x="357" y="-92.3" font-family="Times,serif" font-size="14.00" fill="#0058ad">a 779 1</text>
<polyline fill="none" stroke="#0058ad" points="392,-81.5 392,-110.5 "/>
<text text-anchor="middle" x="427" y="-92.3" font-family="Times,serif" font-size="14.00" fill="#0058ad">a 766 2</text>
<polyline fill="none" stroke="#0058ad" points="462,-81.5 462,-110.5 "/>
<text text-anchor="middle" x="497" y="-92.3" font-family="Times,serif" font-size="14.00" fill="#0058ad">r 778 []</text>
<polyline fill="none" stroke="#0058ad" points="532,-81.5 532,-110.5 "/>
<text text-anchor="middle" x="567" y="-92.3" font-family="Times,serif" font-size="14.00" fill="#0058ad">r 778 []</text>
<polyline fill="none" stroke="#0058ad" points="602,-81.5 602,-110.5 "/>
<text text-anchor="middle" x="637" y="-92.3" font-family="Times,serif" font-size="14.00" fill="#0058ad">r 778 []</text>
<polyline fill="none" stroke="#0058ad" points="672,-81.5 672,-110.5 "/>
<text text-anchor="middle" x="707" y="-92.3" font-family="Times,serif" font-size="14.00" fill="#0058ad">a 779 2</text>
</g>
<!-- T1868 -->
<g id="node2" class="node">
<title>T1868</title>
<polygon fill="none" stroke="#0058ad" points="0,-0.5 0,-29.5 580,-29.5 580,-0.5 0,-0.5"/>
<text text-anchor="middle" x="35" y="-11.3" font-family="Times,serif" font-size="14.00" fill="#0058ad">a 776 3</text>
<polyline fill="none" stroke="#0058ad" points="70,-0.5 70,-29.5 "/>
<text text-anchor="middle" x="105" y="-11.3" font-family="Times,serif" font-size="14.00" fill="#0058ad">a 775 3</text>
<polyline fill="none" stroke="#0058ad" points="140,-0.5 140,-29.5 "/>
<text text-anchor="middle" x="179.5" y="-11.3" font-family="Times,serif" font-size="14.00" fill="#0058ad">r 766 [1]</text>
<polyline fill="none" stroke="#0058ad" points="219,-0.5 219,-29.5 "/>
<text text-anchor="middle" x="272" y="-11.3" font-family="Times,serif" font-size="14.00" fill="#0058ad">r 775 [1 2 3]</text>
<polyline fill="none" stroke="#0058ad" points="325,-0.5 325,-29.5 "/>
<text text-anchor="middle" x="378" y="-11.3" font-family="Times,serif" font-size="14.00" fill="#0058ad">r 776 [1 2 3]</text>
<polyline fill="none" stroke="#0058ad" points="431,-0.5 431,-29.5 "/>
<text text-anchor="middle" x="466" y="-11.3" font-family="Times,serif" font-size="14.00" fill="#0058ad">a 778 1</text>
<polyline fill="none" stroke="#0058ad" points="501,-0.5 501,-29.5 "/>
<text text-anchor="middle" x="540.5" y="-11.3" font-family="Times,serif" font-size="14.00" fill="#0058ad">r 778 [1]</text>
</g>
<!-- T1869&#45;&gt;T1868 -->
<g id="edge1" class="edge">
<title>T1869:f0&#45;&gt;T1868:f5</title>
<path fill="none" stroke="#5b00c0" d="M217,-81C217,-22.68 286.85,-59.61 344,-48 367.18,-43.29 441.26,-53.72 461.08,-39.03"/>
<polygon fill="#5b00c0" stroke="#5b00c0" points="464.29,-40.46 466,-30 458.14,-37.11 464.29,-40.46"/>
<text text-anchor="middle" x="353.5" y="-51.8" font-family="Times,serif" font-size="14.00" fill="#5b00c0">rw</text>
</g>
<!-- T1868&#45;&gt;T1869 -->
<g id="edge2" class="edge">
<title>T1868:f2&#45;&gt;T1869:f3</title>
<path fill="none" stroke="#5b00c0" d="M179,-30C179,-50.54 343.3,-42.19 363,-48 389.98,-55.96 418.97,-50.7 425.6,-71.03"/>
<polygon fill="#5b00c0" stroke="#5b00c0" points="422.14,-71.58 427,-81 429.07,-70.61 422.14,-71.58"/>
<text text-anchor="middle" x="428.5" y="-51.8" font-family="Times,serif" font-size="14.00" fill="#5b00c0">rw</text>
</g>
</g>
</svg>
