<?xml version="1.0" encoding="UTF-8" standalone="no"?>
<!DOCTYPE svg PUBLIC "-//W3C//DTD SVG 1.1//EN"
 "http://www.w3.org/Graphics/SVG/1.1/DTD/svg11.dtd">
<!-- Generated by graphviz version 2.43.0 (0)
 -->
<!-- Title: a_graph Pages: 1 -->
<svg width="460pt" height="119pt"
 viewBox="0.00 0.00 460.50 119.00" xmlns="http://www.w3.org/2000/svg" xmlns:xlink="http://www.w3.org/1999/xlink">
<g id="graph0" class="graph" transform="scale(1 1) rotate(0) translate(4 115)">
<title>a_graph</title>
<polygon fill="white" stroke="transparent" points="-4,4 -4,-115 456.5,-115 456.5,4 -4,4"/>
<!-- T2690 -->
<g id="node1" class="node">
<title>T2690</title>
<polygon fill="none" stroke="#0058ad" points="4.5,-81.5 4.5,-110.5 452.5,-110.5 452.5,-81.5 4.5,-81.5"/>
<text text-anchor="middle" x="44" y="-92.3" font-family="Times,serif" font-size="14.00" fill="#0058ad">a 1125 2</text>
<polyline fill="none" stroke="#0058ad" points="83.5,-81.5 83.5,-110.5 "/>
<text text-anchor="middle" x="127.5" y="-92.3" font-family="Times,serif" font-size="14.00" fill="#0058ad">r 1127 [1]</text>
<polyline fill="none" stroke="#0058ad" points="171.5,-81.5 171.5,-110.5 "/>
<text text-anchor="middle" x="222" y="-92.3" font-family="Times,serif" font-size="14.00" fill="#0058ad">r 1114 [1 2]</text>
<polyline fill="none" stroke="#0058ad" points="272.5,-81.5 272.5,-110.5 "/>
<text text-anchor="middle" x="312" y="-92.3" font-family="Times,serif" font-size="14.00" fill="#0058ad">a 1125 3</text>
<polyline fill="none" stroke="#0058ad" points="351.5,-81.5 351.5,-110.5 "/>
<text text-anchor="middle" x="402" y="-92.3" font-family="Times,serif" font-size="14.00" fill="#0058ad">r 1112 [1 2]</text>
</g>
<!-- T2691 -->
<g id="node2" class="node">
<title>T2691</title>
<polygon fill="none" stroke="#0058ad" points="0,-0.5 0,-29.5 361,-29.5 361,-0.5 0,-0.5"/>
<text text-anchor="middle" x="44" y="-11.3" font-family="Times,serif" font-size="14.00" fill="#0058ad">r 1125 [1]</text>
<polyline fill="none" stroke="#0058ad" points="88,-0.5 88,-29.5 "/>
<text text-anchor="middle" x="127.5" y="-11.3" font-family="Times,serif" font-size="14.00" fill="#0058ad">a 1127 2</text>
<polyline fill="none" stroke="#0058ad" points="167,-0.5 167,-29.5 "/>
<text text-anchor="middle" x="206.5" y="-11.3" font-family="Times,serif" font-size="14.00" fill="#0058ad">a 1127 3</text>
<polyline fill="none" stroke="#0058ad" points="246,-0.5 246,-29.5 "/>
<text text-anchor="middle" x="303.5" y="-11.3" font-family="Times,serif" font-size="14.00" fill="#0058ad">r 1127 [1 2 3]</text>
</g>
<!-- T2690&#45;&gt;T2691 -->
<g id="edge1" class="edge">
<title>T2690:f1&#45;&gt;T2691:f1</title>
<path fill="none" stroke="#5b00c0" d="M127.5,-81C127.5,-62.23 127.5,-55.12 127.5,-40.35"/>
<polygon fill="#5b00c0" stroke="#5b00c0" points="131,-40 127.5,-30 124,-40 131,-40"/>
<text text-anchor="middle" x="137" y="-51.8" font-family="Times,serif" font-size="14.00" fill="#5b00c0">rw</text>
</g>
<!-- T2691&#45;&gt;T2690 -->
<g id="edge2" class="edge">
<title>T2691:f0&#45;&gt;T2690:f0</title>
<path fill="none" stroke="#5b00c0" d="M43.5,-30C43.5,-48.77 43.5,-55.88 43.5,-70.65"/>
<polygon fill="#5b00c0" stroke="#5b00c0" points="40,-71 43.5,-81 47,-71 40,-71"/>
<text text-anchor="middle" x="53" y="-51.8" font-family="Times,serif" font-size="14.00" fill="#5b00c0">rw</text>
</g>
</g>
</svg>
