<?xml version="1.0" encoding="UTF-8" standalone="no"?>
<!DOCTYPE svg PUBLIC "-//W3C//DTD SVG 1.1//EN"
 "http://www.w3.org/Graphics/SVG/1.1/DTD/svg11.dtd">
<!-- Generated by graphviz version 2.43.0 (0)
 -->
<!-- Title: a_graph Pages: 1 -->
<svg width="837pt" height="119pt"
 viewBox="0.00 0.00 837.00 119.00" xmlns="http://www.w3.org/2000/svg" xmlns:xlink="http://www.w3.org/1999/xlink">
<g id="graph0" class="graph" transform="scale(1 1) rotate(0) translate(4 115)">
<title>a_graph</title>
<polygon fill="white" stroke="transparent" points="-4,4 -4,-115 833,-115 833,4 -4,4"/>
<!-- T1644 -->
<g id="node1" class="node">
<title>T1644</title>
<polygon fill="none" stroke="#0058ad" points="0,-81.5 0,-110.5 592,-110.5 592,-81.5 0,-81.5"/>
<text text-anchor="middle" x="35" y="-92.3" font-family="Times,serif" font-size="14.00" fill="#0058ad">a 683 3</text>
<polyline fill="none" stroke="#0058ad" points="70,-81.5 70,-110.5 "/>
<text text-anchor="middle" x="116" y="-92.3" font-family="Times,serif" font-size="14.00" fill="#0058ad">r 616 [1 2]</text>
<polyline fill="none" stroke="#0058ad" points="162,-81.5 162,-110.5 "/>
<text text-anchor="middle" x="197" y="-92.3" font-family="Times,serif" font-size="14.00" fill="#0058ad">a 688 3</text>
<polyline fill="none" stroke="#0058ad" points="232,-81.5 232,-110.5 "/>
<text text-anchor="middle" x="285" y="-92.3" font-family="Times,serif" font-size="14.00" fill="#0058ad">r 688 [1 2 3]</text>
<polyline fill="none" stroke="#0058ad" points="338,-81.5 338,-110.5 "/>
<text text-anchor="middle" x="384" y="-92.3" font-family="Times,serif" font-size="14.00" fill="#0058ad">r 685 [1 2]</text>
<polyline fill="none" stroke="#0058ad" points="430,-81.5 430,-110.5 "/>
<text text-anchor="middle" x="476" y="-92.3" font-family="Times,serif" font-size="14.00" fill="#0058ad">r 685 [1 2]</text>
<polyline fill="none" stroke="#0058ad" points="522,-81.5 522,-110.5 "/>
<text text-anchor="middle" x="557" y="-92.3" font-family="Times,serif" font-size="14.00" fill="#0058ad">a 616 3</text>
</g>
<!-- T1645 -->
<g id="node2" class="node">
<title>T1645</title>
<polygon fill="none" stroke="#0058ad" points="273,-0.5 273,-29.5 829,-29.5 829,-0.5 273,-0.5"/>
<text text-anchor="middle" x="319" y="-11.3" font-family="Times,serif" font-size="14.00" fill="#0058ad">r 616 [1 2]</text>
<polyline fill="none" stroke="#0058ad" points="365,-0.5 365,-29.5 "/>
<text text-anchor="middle" x="411" y="-11.3" font-family="Times,serif" font-size="14.00" fill="#0058ad">r 616 [1 2]</text>
<polyline fill="none" stroke="#0058ad" points="457,-0.5 457,-29.5 "/>
<text text-anchor="middle" x="492" y="-11.3" font-family="Times,serif" font-size="14.00" fill="#0058ad">r 690 []</text>
<polyline fill="none" stroke="#0058ad" points="527,-0.5 527,-29.5 "/>
<text text-anchor="middle" x="573" y="-11.3" font-family="Times,serif" font-size="14.00" fill="#0058ad">r 685 [1 2]</text>
<polyline fill="none" stroke="#0058ad" points="619,-0.5 619,-29.5 "/>
<text text-anchor="middle" x="654" y="-11.3" font-family="Times,serif" font-size="14.00" fill="#0058ad">a 685 3</text>
<polyline fill="none" stroke="#0058ad" points="689,-0.5 689,-29.5 "/>
<text text-anchor="middle" x="724" y="-11.3" font-family="Times,serif" font-size="14.00" fill="#0058ad">r 689 []</text>
<polyline fill="none" stroke="#0058ad" points="759,-0.5 759,-29.5 "/>
<text text-anchor="middle" x="794" y="-11.3" font-family="Times,serif" font-size="14.00" fill="#0058ad">r 689 []</text>
</g>
<!-- T1644&#45;&gt;T1645 -->
<g id="edge1" class="edge">
<title>T1644:f4&#45;&gt;T1645:f4</title>
<path fill="none" stroke="#5b00c0" d="M384,-81C384,-34.62 437.67,-57.82 483,-48 499.12,-44.51 614.85,-47.87 646.19,-36.56"/>
<polygon fill="#5b00c0" stroke="#5b00c0" points="648.59,-39.11 654,-30 644.09,-33.75 648.59,-39.11"/>
<text text-anchor="middle" x="492.5" y="-51.8" font-family="Times,serif" font-size="14.00" fill="#5b00c0">rw</text>
</g>
<!-- T1645&#45;&gt;T1644 -->
<g id="edge2" class="edge">
<title>T1645:f0&#45;&gt;T1644:f6</title>
<path fill="none" stroke="#5b00c0" d="M319,-30C319,-50.43 482.6,-41.59 502,-48 525.26,-55.69 549.16,-53.48 555.42,-70.8"/>
<polygon fill="#5b00c0" stroke="#5b00c0" points="552.01,-71.65 557,-81 558.93,-70.58 552.01,-71.65"/>
<text text-anchor="middle" x="560.5" y="-51.8" font-family="Times,serif" font-size="14.00" fill="#5b00c0">rw</text>
</g>
</g>
</svg>
