<?xml version="1.0" encoding="UTF-8" standalone="no"?>
<!DOCTYPE svg PUBLIC "-//W3C//DTD SVG 1.1//EN"
 "http://www.w3.org/Graphics/SVG/1.1/DTD/svg11.dtd">
<!-- Generated by graphviz version 2.43.0 (0)
 -->
<!-- Title: a_graph Pages: 1 -->
<svg width="595pt" height="119pt"
 viewBox="0.00 0.00 594.50 119.00" xmlns="http://www.w3.org/2000/svg" xmlns:xlink="http://www.w3.org/1999/xlink">
<g id="graph0" class="graph" transform="scale(1 1) rotate(0) translate(4 115)">
<title>a_graph</title>
<polygon fill="white" stroke="transparent" points="-4,4 -4,-115 590.5,-115 590.5,4 -4,4"/>
<!-- T2085 -->
<g id="node1" class="node">
<title>T2085</title>
<polygon fill="none" stroke="#0058ad" points="157.5,-81.5 157.5,-110.5 586.5,-110.5 586.5,-81.5 157.5,-81.5"/>
<text text-anchor="middle" x="192.5" y="-92.3" font-family="Times,serif" font-size="14.00" fill="#0058ad">r 871 []</text>
<polyline fill="none" stroke="#0058ad" points="227.5,-81.5 227.5,-110.5 "/>
<text text-anchor="middle" x="267" y="-92.3" font-family="Times,serif" font-size="14.00" fill="#0058ad">r 866 [1]</text>
<polyline fill="none" stroke="#0058ad" points="306.5,-81.5 306.5,-110.5 "/>
<text text-anchor="middle" x="341.5" y="-92.3" font-family="Times,serif" font-size="14.00" fill="#0058ad">a 872 1</text>
<polyline fill="none" stroke="#0058ad" points="376.5,-81.5 376.5,-110.5 "/>
<text text-anchor="middle" x="411.5" y="-92.3" font-family="Times,serif" font-size="14.00" fill="#0058ad">a 872 2</text>
<polyline fill="none" stroke="#0058ad" points="446.5,-81.5 446.5,-110.5 "/>
<text text-anchor="middle" x="481.5" y="-92.3" font-family="Times,serif" font-size="14.00" fill="#0058ad">a 872 3</text>
<polyline fill="none" stroke="#0058ad" points="516.5,-81.5 516.5,-110.5 "/>
<text text-anchor="middle" x="551.5" y="-92.3" font-family="Times,serif" font-size="14.00" fill="#0058ad">r 871 []</text>
</g>
<!-- T2084 -->
<g id="node2" class="node">
<title>T2084</title>
<polygon fill="none" stroke="#0058ad" points="0,-0.5 0,-29.5 372,-29.5 372,-0.5 0,-0.5"/>
<text text-anchor="middle" x="46" y="-11.3" font-family="Times,serif" font-size="14.00" fill="#0058ad">r 870 [1 2]</text>
<polyline fill="none" stroke="#0058ad" points="92,-0.5 92,-29.5 "/>
<text text-anchor="middle" x="127" y="-11.3" font-family="Times,serif" font-size="14.00" fill="#0058ad">a 870 3</text>
<polyline fill="none" stroke="#0058ad" points="162,-0.5 162,-29.5 "/>
<text text-anchor="middle" x="197" y="-11.3" font-family="Times,serif" font-size="14.00" fill="#0058ad">r 872 []</text>
<polyline fill="none" stroke="#0058ad" points="232,-0.5 232,-29.5 "/>
<text text-anchor="middle" x="267" y="-11.3" font-family="Times,serif" font-size="14.00" fill="#0058ad">r 872 []</text>
<polyline fill="none" stroke="#0058ad" points="302,-0.5 302,-29.5 "/>
<text text-anchor="middle" x="337" y="-11.3" font-family="Times,serif" font-size="14.00" fill="#0058ad">a 871 1</text>
</g>
<!-- T2085&#45;&gt;T2084 -->
<g id="edge1" class="edge">
<title>T2085:f0&#45;&gt;T2084:f4</title>
<path fill="none" stroke="#5b00c0" d="M192,-81C192,-42.13 236.23,-60.62 273,-48 296.8,-39.83 326.48,-53.95 334.76,-40.07"/>
<polygon fill="#5b00c0" stroke="#5b00c0" points="338.25,-40.52 337,-30 331.41,-39 338.25,-40.52"/>
<text text-anchor="middle" x="282.5" y="-51.8" font-family="Times,serif" font-size="14.00" fill="#5b00c0">rw</text>
</g>
<!-- T2084&#45;&gt;T2085 -->
<g id="edge2" class="edge">
<title>T2084:f2&#45;&gt;T2085:f2</title>
<path fill="none" stroke="#5b00c0" d="M197,-30C197,-51.49 272.13,-39.83 292,-48 312.68,-56.5 333.67,-55.41 339.45,-71.12"/>
<polygon fill="#5b00c0" stroke="#5b00c0" points="335.99,-71.66 341,-81 342.91,-70.58 335.99,-71.66"/>
<text text-anchor="middle" x="342.5" y="-51.8" font-family="Times,serif" font-size="14.00" fill="#5b00c0">rw</text>
</g>
</g>
</svg>
