<?xml version="1.0" encoding="UTF-8" standalone="no"?>
<!DOCTYPE svg PUBLIC "-//W3C//DTD SVG 1.1//EN"
 "http://www.w3.org/Graphics/SVG/1.1/DTD/svg11.dtd">
<!-- Generated by graphviz version 2.43.0 (0)
 -->
<!-- Title: a_graph Pages: 1 -->
<svg width="626pt" height="119pt"
 viewBox="0.00 0.00 626.00 119.00" xmlns="http://www.w3.org/2000/svg" xmlns:xlink="http://www.w3.org/1999/xlink">
<g id="graph0" class="graph" transform="scale(1 1) rotate(0) translate(4 115)">
<title>a_graph</title>
<polygon fill="white" stroke="transparent" points="-4,4 -4,-115 622,-115 622,4 -4,4"/>
<!-- T469 -->
<g id="node1" class="node">
<title>T469</title>
<polygon fill="none" stroke="#0058ad" points="0,-81.5 0,-110.5 618,-110.5 618,-81.5 0,-81.5"/>
<text text-anchor="middle" x="39.5" y="-92.3" font-family="Times,serif" font-size="14.00" fill="#0058ad">r 210 [1]</text>
<polyline fill="none" stroke="#0058ad" points="79,-81.5 79,-110.5 "/>
<text text-anchor="middle" x="118.5" y="-92.3" font-family="Times,serif" font-size="14.00" fill="#0058ad">r 209 [1]</text>
<polyline fill="none" stroke="#0058ad" points="158,-81.5 158,-110.5 "/>
<text text-anchor="middle" x="193" y="-92.3" font-family="Times,serif" font-size="14.00" fill="#0058ad">a 211 1</text>
<polyline fill="none" stroke="#0058ad" points="228,-81.5 228,-110.5 "/>
<text text-anchor="middle" x="267.5" y="-92.3" font-family="Times,serif" font-size="14.00" fill="#0058ad">r 211 [1]</text>
<polyline fill="none" stroke="#0058ad" points="307,-81.5 307,-110.5 "/>
<text text-anchor="middle" x="346.5" y="-92.3" font-family="Times,serif" font-size="14.00" fill="#0058ad">r 206 [1]</text>
<polyline fill="none" stroke="#0058ad" points="386,-81.5 386,-110.5 "/>
<text text-anchor="middle" x="421" y="-92.3" font-family="Times,serif" font-size="14.00" fill="#0058ad">a 211 2</text>
<polyline fill="none" stroke="#0058ad" points="456,-81.5 456,-110.5 "/>
<text text-anchor="middle" x="502" y="-92.3" font-family="Times,serif" font-size="14.00" fill="#0058ad">r 211 [1 2]</text>
<polyline fill="none" stroke="#0058ad" points="548,-81.5 548,-110.5 "/>
<text text-anchor="middle" x="583" y="-92.3" font-family="Times,serif" font-size="14.00" fill="#0058ad">a 211 3</text>
</g>
<!-- T468 -->
<g id="node2" class="node">
<title>T468</title>
<polygon fill="none" stroke="#0058ad" points="18,-0.5 18,-29.5 298,-29.5 298,-0.5 18,-0.5"/>
<text text-anchor="middle" x="53" y="-11.3" font-family="Times,serif" font-size="14.00" fill="#0058ad">r 211 []</text>
<polyline fill="none" stroke="#0058ad" points="88,-0.5 88,-29.5 "/>
<text text-anchor="middle" x="123" y="-11.3" font-family="Times,serif" font-size="14.00" fill="#0058ad">a 210 2</text>
<polyline fill="none" stroke="#0058ad" points="158,-0.5 158,-29.5 "/>
<text text-anchor="middle" x="193" y="-11.3" font-family="Times,serif" font-size="14.00" fill="#0058ad">r 211 []</text>
<polyline fill="none" stroke="#0058ad" points="228,-0.5 228,-29.5 "/>
<text text-anchor="middle" x="263" y="-11.3" font-family="Times,serif" font-size="14.00" fill="#0058ad">r 211 []</text>
</g>
<!-- T469&#45;&gt;T468 -->
<g id="edge1" class="edge">
<title>T469:f0&#45;&gt;T468:f1</title>
<path fill="none" stroke="#5b00c0" d="M39,-81C39,-76.59 93.92,-49.53 114.95,-36.45"/>
<polygon fill="#5b00c0" stroke="#5b00c0" points="117.39,-38.98 123,-30 113.01,-33.52 117.39,-38.98"/>
<text text-anchor="middle" x="103.5" y="-51.8" font-family="Times,serif" font-size="14.00" fill="#5b00c0">rw</text>
</g>
<!-- T468&#45;&gt;T469 -->
<g id="edge2" class="edge">
<title>T468:f0&#45;&gt;T469:f2</title>
<path fill="none" stroke="#5b00c0" d="M53,-30C53,-58.69 87.96,-38.39 115,-48 146.73,-59.27 184.11,-46.66 191.64,-70.82"/>
<polygon fill="#5b00c0" stroke="#5b00c0" points="188.21,-71.55 193,-81 195.14,-70.62 188.21,-71.55"/>
<text text-anchor="middle" x="196.5" y="-51.8" font-family="Times,serif" font-size="14.00" fill="#5b00c0">rw</text>
</g>
</g>
</svg>
