<?xml version="1.0" encoding="UTF-8" standalone="no"?>
<!DOCTYPE svg PUBLIC "-//W3C//DTD SVG 1.1//EN"
 "http://www.w3.org/Graphics/SVG/1.1/DTD/svg11.dtd">
<!-- Generated by graphviz version 2.43.0 (0)
 -->
<!-- Title: a_graph Pages: 1 -->
<svg width="654pt" height="119pt"
 viewBox="0.00 0.00 654.00 119.00" xmlns="http://www.w3.org/2000/svg" xmlns:xlink="http://www.w3.org/1999/xlink">
<g id="graph0" class="graph" transform="scale(1 1) rotate(0) translate(4 115)">
<title>a_graph</title>
<polygon fill="white" stroke="transparent" points="-4,4 -4,-115 650,-115 650,4 -4,4"/>
<!-- T716 -->
<g id="node1" class="node">
<title>T716</title>
<polygon fill="none" stroke="#0058ad" points="20,-81.5 20,-110.5 646,-110.5 646,-81.5 20,-81.5"/>
<text text-anchor="middle" x="55" y="-92.3" font-family="Times,serif" font-size="14.00" fill="#0058ad">a 321 2</text>
<polyline fill="none" stroke="#0058ad" points="90,-81.5 90,-110.5 "/>
<text text-anchor="middle" x="136" y="-92.3" font-family="Times,serif" font-size="14.00" fill="#0058ad">r 321 [1 2]</text>
<polyline fill="none" stroke="#0058ad" points="182,-81.5 182,-110.5 "/>
<text text-anchor="middle" x="217" y="-92.3" font-family="Times,serif" font-size="14.00" fill="#0058ad">r 320 []</text>
<polyline fill="none" stroke="#0058ad" points="252,-81.5 252,-110.5 "/>
<text text-anchor="middle" x="298" y="-92.3" font-family="Times,serif" font-size="14.00" fill="#0058ad">r 321 [1 2]</text>
<polyline fill="none" stroke="#0058ad" points="344,-81.5 344,-110.5 "/>
<text text-anchor="middle" x="390" y="-92.3" font-family="Times,serif" font-size="14.00" fill="#0058ad">r 321 [1 2]</text>
<polyline fill="none" stroke="#0058ad" points="436,-81.5 436,-110.5 "/>
<text text-anchor="middle" x="471" y="-92.3" font-family="Times,serif" font-size="14.00" fill="#0058ad">a 321 3</text>
<polyline fill="none" stroke="#0058ad" points="506,-81.5 506,-110.5 "/>
<text text-anchor="middle" x="541" y="-92.3" font-family="Times,serif" font-size="14.00" fill="#0058ad">a 318 1</text>
<polyline fill="none" stroke="#0058ad" points="576,-81.5 576,-110.5 "/>
<text text-anchor="middle" x="611" y="-92.3" font-family="Times,serif" font-size="14.00" fill="#0058ad">r 320 []</text>
</g>
<!-- T717 -->
<g id="node2" class="node">
<title>T717</title>
<polygon fill="none" stroke="#0058ad" points="0,-0.5 0,-29.5 298,-29.5 298,-0.5 0,-0.5"/>
<text text-anchor="middle" x="35" y="-11.3" font-family="Times,serif" font-size="14.00" fill="#0058ad">a 322 1</text>
<polyline fill="none" stroke="#0058ad" points="70,-0.5 70,-29.5 "/>
<text text-anchor="middle" x="109.5" y="-11.3" font-family="Times,serif" font-size="14.00" fill="#0058ad">r 321 [1]</text>
<polyline fill="none" stroke="#0058ad" points="149,-0.5 149,-29.5 "/>
<text text-anchor="middle" x="184" y="-11.3" font-family="Times,serif" font-size="14.00" fill="#0058ad">a 320 1</text>
<polyline fill="none" stroke="#0058ad" points="219,-0.5 219,-29.5 "/>
<text text-anchor="middle" x="258.5" y="-11.3" font-family="Times,serif" font-size="14.00" fill="#0058ad">r 322 [1]</text>
</g>
<!-- T716&#45;&gt;T717 -->
<g id="edge1" class="edge">
<title>T716:f2&#45;&gt;T717:f2</title>
<path fill="none" stroke="#5b00c0" d="M217,-81C217,-58.01 193.07,-56.77 185.97,-40.24"/>
<polygon fill="#5b00c0" stroke="#5b00c0" points="189.32,-39.16 184,-30 182.45,-40.48 189.32,-39.16"/>
<text text-anchor="middle" x="219.5" y="-51.8" font-family="Times,serif" font-size="14.00" fill="#5b00c0">rw</text>
</g>
<!-- T717&#45;&gt;T716 -->
<g id="edge2" class="edge">
<title>T717:f1&#45;&gt;T716:f0</title>
<path fill="none" stroke="#5b00c0" d="M109,-30C109,-59.01 67.29,-50.92 57.18,-70.95"/>
<polygon fill="#5b00c0" stroke="#5b00c0" points="53.7,-70.48 55,-81 60.54,-71.97 53.7,-70.48"/>
<text text-anchor="middle" x="108.5" y="-51.8" font-family="Times,serif" font-size="14.00" fill="#5b00c0">rw</text>
</g>
</g>
</svg>
