<?xml version="1.0" encoding="UTF-8" standalone="no"?>
<!DOCTYPE svg PUBLIC "-//W3C//DTD SVG 1.1//EN"
 "http://www.w3.org/Graphics/SVG/1.1/DTD/svg11.dtd">
<!-- Generated by graphviz version 2.43.0 (0)
 -->
<!-- Title: a_graph Pages: 1 -->
<svg width="534pt" height="119pt"
 viewBox="0.00 0.00 534.00 119.00" xmlns="http://www.w3.org/2000/svg" xmlns:xlink="http://www.w3.org/1999/xlink">
<g id="graph0" class="graph" transform="scale(1 1) rotate(0) translate(4 115)">
<title>a_graph</title>
<polygon fill="white" stroke="transparent" points="-4,4 -4,-115 530,-115 530,4 -4,4"/>
<!-- T1248 -->
<g id="node1" class="node">
<title>T1248</title>
<polygon fill="none" stroke="#0058ad" points="62,-81.5 62,-110.5 434,-110.5 434,-81.5 62,-81.5"/>
<text text-anchor="middle" x="97" y="-92.3" font-family="Times,serif" font-size="14.00" fill="#0058ad">a 541 2</text>
<polyline fill="none" stroke="#0058ad" points="132,-81.5 132,-110.5 "/>
<text text-anchor="middle" x="167" y="-92.3" font-family="Times,serif" font-size="14.00" fill="#0058ad">r 543 []</text>
<polyline fill="none" stroke="#0058ad" points="202,-81.5 202,-110.5 "/>
<text text-anchor="middle" x="237" y="-92.3" font-family="Times,serif" font-size="14.00" fill="#0058ad">r 543 []</text>
<polyline fill="none" stroke="#0058ad" points="272,-81.5 272,-110.5 "/>
<text text-anchor="middle" x="318" y="-92.3" font-family="Times,serif" font-size="14.00" fill="#0058ad">r 541 [1 2]</text>
<polyline fill="none" stroke="#0058ad" points="364,-81.5 364,-110.5 "/>
<text text-anchor="middle" x="399" y="-92.3" font-family="Times,serif" font-size="14.00" fill="#0058ad">r 539 []</text>
</g>
<!-- T1249 -->
<g id="node2" class="node">
<title>T1249</title>
<polygon fill="none" stroke="#0058ad" points="0,-0.5 0,-29.5 526,-29.5 526,-0.5 0,-0.5"/>
<text text-anchor="middle" x="39.5" y="-11.3" font-family="Times,serif" font-size="14.00" fill="#0058ad">r 541 [1]</text>
<polyline fill="none" stroke="#0058ad" points="79,-0.5 79,-29.5 "/>
<text text-anchor="middle" x="114" y="-11.3" font-family="Times,serif" font-size="14.00" fill="#0058ad">a 544 1</text>
<polyline fill="none" stroke="#0058ad" points="149,-0.5 149,-29.5 "/>
<text text-anchor="middle" x="188.5" y="-11.3" font-family="Times,serif" font-size="14.00" fill="#0058ad">r 541 [1]</text>
<polyline fill="none" stroke="#0058ad" points="228,-0.5 228,-29.5 "/>
<text text-anchor="middle" x="263" y="-11.3" font-family="Times,serif" font-size="14.00" fill="#0058ad">a 543 1</text>
<polyline fill="none" stroke="#0058ad" points="298,-0.5 298,-29.5 "/>
<text text-anchor="middle" x="337.5" y="-11.3" font-family="Times,serif" font-size="14.00" fill="#0058ad">r 543 [1]</text>
<polyline fill="none" stroke="#0058ad" points="377,-0.5 377,-29.5 "/>
<text text-anchor="middle" x="416.5" y="-11.3" font-family="Times,serif" font-size="14.00" fill="#0058ad">r 543 [1]</text>
<polyline fill="none" stroke="#0058ad" points="456,-0.5 456,-29.5 "/>
<text text-anchor="middle" x="491" y="-11.3" font-family="Times,serif" font-size="14.00" fill="#0058ad">r 545 []</text>
</g>
<!-- T1248&#45;&gt;T1249 -->
<g id="edge1" class="edge">
<title>T1248:f1&#45;&gt;T1249:f3</title>
<path fill="none" stroke="#5b00c0" d="M167,-81C167,-36.65 247.9,-71.46 261.17,-40.1"/>
<polygon fill="#5b00c0" stroke="#5b00c0" points="264.66,-40.46 263,-30 257.77,-39.21 264.66,-40.46"/>
<text text-anchor="middle" x="264.5" y="-51.8" font-family="Times,serif" font-size="14.00" fill="#5b00c0">rw</text>
</g>
<!-- T1249&#45;&gt;T1248 -->
<g id="edge2" class="edge">
<title>T1249:f0&#45;&gt;T1248:f0</title>
<path fill="none" stroke="#5b00c0" d="M39,-30C39,-56.81 32.29,-86.76 50.67,-94.24"/>
<polygon fill="#5b00c0" stroke="#5b00c0" points="50.55,-97.77 61,-96 51.73,-90.87 50.55,-97.77"/>
<text text-anchor="middle" x="48.5" y="-51.8" font-family="Times,serif" font-size="14.00" fill="#5b00c0">rw</text>
</g>
</g>
</svg>
