<?xml version="1.0" encoding="UTF-8" standalone="no"?>
<!DOCTYPE svg PUBLIC "-//W3C//DTD SVG 1.1//EN"
 "http://www.w3.org/Graphics/SVG/1.1/DTD/svg11.dtd">
<!-- Generated by graphviz version 2.43.0 (0)
 -->
<!-- Title: a_graph Pages: 1 -->
<svg width="2296pt" height="119pt"
 viewBox="0.00 0.00 2296.00 119.00" xmlns="http://www.w3.org/2000/svg" xmlns:xlink="http://www.w3.org/1999/xlink">
<g id="graph0" class="graph" transform="scale(1 1) rotate(0) translate(4 115)">
<title>a_graph</title>
<polygon fill="white" stroke="transparent" points="-4,4 -4,-115 2292,-115 2292,4 -4,4"/>
<!-- T1936 -->
<g id="node1" class="node">
<title>T1936</title>
<polygon fill="none" stroke="#0058ad" points="0,-81.5 0,-110.5 2019,-110.5 2019,-81.5 0,-81.5"/>
<text text-anchor="middle" x="291.5" y="-92.3" font-family="Times,serif" font-size="14.00" fill="#0058ad">r 57 [1 2 3 4 5 6 7 8 9 10 11 12 13 14 15 16 17 18 19 20 21 22 23 24 25 26 27]</text>
<polyline fill="none" stroke="#0058ad" points="583,-81.5 583,-110.5 "/>
<text text-anchor="middle" x="874.5" y="-92.3" font-family="Times,serif" font-size="14.00" fill="#0058ad">r 57 [1 2 3 4 5 6 7 8 9 10 11 12 13 14 15 16 17 18 19 20 21 22 23 24 25 26 27]</text>
<polyline fill="none" stroke="#0058ad" points="1166,-81.5 1166,-110.5 "/>
<text text-anchor="middle" x="1266" y="-92.3" font-family="Times,serif" font-size="14.00" fill="#0058ad">r 60 [1 2 3 4 5 6 7 8 9 10]</text>
<polyline fill="none" stroke="#0058ad" points="1366,-81.5 1366,-110.5 "/>
<text text-anchor="middle" x="1657.5" y="-92.3" font-family="Times,serif" font-size="14.00" fill="#0058ad">r 57 [1 2 3 4 5 6 7 8 9 10 11 12 13 14 15 16 17 18 19 20 21 22 23 24 25 26 27]</text>
<polyline fill="none" stroke="#0058ad" points="1949,-81.5 1949,-110.5 "/>
<text text-anchor="middle" x="1984" y="-92.3" font-family="Times,serif" font-size="14.00" fill="#0058ad">a 58 15</text>
</g>
<!-- T1937 -->
<g id="node2" class="node">
<title>T1937</title>
<polygon fill="none" stroke="#0058ad" points="1635,-0.5 1635,-29.5 2288,-29.5 2288,-0.5 1635,-0.5"/>
<text text-anchor="middle" x="1670" y="-11.3" font-family="Times,serif" font-size="14.00" fill="#0058ad">a 60 11</text>
<polyline fill="none" stroke="#0058ad" points="1705,-0.5 1705,-29.5 "/>
<text text-anchor="middle" x="1850" y="-11.3" font-family="Times,serif" font-size="14.00" fill="#0058ad">r 58 [1 2 3 4 5 6 7 8 9 10 11 12 13 14]</text>
<polyline fill="none" stroke="#0058ad" points="1995,-0.5 1995,-29.5 "/>
<text text-anchor="middle" x="2106.5" y="-11.3" font-family="Times,serif" font-size="14.00" fill="#0058ad">r 60 [1 2 3 4 5 6 7 8 9 10 11]</text>
<polyline fill="none" stroke="#0058ad" points="2218,-0.5 2218,-29.5 "/>
<text text-anchor="middle" x="2253" y="-11.3" font-family="Times,serif" font-size="14.00" fill="#0058ad">a 57 28</text>
</g>
<!-- T1936&#45;&gt;T1937 -->
<g id="edge1" class="edge">
<title>T1936:f2&#45;&gt;T1937:f0</title>
<path fill="none" stroke="#5b00c0" d="M1266.5,-81C1266.5,-42 1555.03,-17.94 1623.41,-15.25"/>
<polygon fill="#5b00c0" stroke="#5b00c0" points="1623.59,-18.75 1633.5,-15 1623.42,-11.75 1623.59,-18.75"/>
<text text-anchor="middle" x="1348" y="-51.8" font-family="Times,serif" font-size="14.00" fill="#5b00c0">rw</text>
</g>
<!-- T1937&#45;&gt;T1936 -->
<g id="edge2" class="edge">
<title>T1937:f1&#45;&gt;T1936:f4</title>
<path fill="none" stroke="#5b00c0" d="M1849.5,-30C1849.5,-90.26 1968.65,-25.7 1983.08,-70.84"/>
<polygon fill="#5b00c0" stroke="#5b00c0" points="1979.64,-71.58 1984.5,-81 1986.58,-70.61 1979.64,-71.58"/>
<text text-anchor="middle" x="1986" y="-51.8" font-family="Times,serif" font-size="14.00" fill="#5b00c0">rw</text>
</g>
</g>
</svg>
