<?xml version="1.0" encoding="UTF-8" standalone="no"?>
<!DOCTYPE svg PUBLIC "-//W3C//DTD SVG 1.1//EN"
 "http://www.w3.org/Graphics/SVG/1.1/DTD/svg11.dtd">
<!-- Generated by graphviz version 2.43.0 (0)
 -->
<!-- Title: a_graph Pages: 1 -->
<svg width="1333pt" height="119pt"
 viewBox="0.00 0.00 1333.00 119.00" xmlns="http://www.w3.org/2000/svg" xmlns:xlink="http://www.w3.org/1999/xlink">
<g id="graph0" class="graph" transform="scale(1 1) rotate(0) translate(4 115)">
<title>a_graph</title>
<polygon fill="white" stroke="transparent" points="-4,4 -4,-115 1329,-115 1329,4 -4,4"/>
<!-- T1915 -->
<g id="node1" class="node">
<title>T1915</title>
<polygon fill="none" stroke="#0058ad" points="373,-81.5 373,-110.5 726,-110.5 726,-81.5 373,-81.5"/>
<text text-anchor="middle" x="473" y="-92.3" font-family="Times,serif" font-size="14.00" fill="#0058ad">r 58 [1 2 3 4 5 6 7 8 9 10]</text>
<polyline fill="none" stroke="#0058ad" points="573,-81.5 573,-110.5 "/>
<text text-anchor="middle" x="608" y="-92.3" font-family="Times,serif" font-size="14.00" fill="#0058ad">a 57 27</text>
<polyline fill="none" stroke="#0058ad" points="643,-81.5 643,-110.5 "/>
<text text-anchor="middle" x="684.5" y="-92.3" font-family="Times,serif" font-size="14.00" fill="#0058ad">r 60 [1 2]</text>
</g>
<!-- T1914 -->
<g id="node2" class="node">
<title>T1914</title>
<polygon fill="none" stroke="#0058ad" points="0,-0.5 0,-29.5 1325,-29.5 1325,-0.5 0,-0.5"/>
<text text-anchor="middle" x="280" y="-11.3" font-family="Times,serif" font-size="14.00" fill="#0058ad">r 57 [1 2 3 4 5 6 7 8 9 10 11 12 13 14 15 16 17 18 19 20 21 22 23 24 25 26]</text>
<polyline fill="none" stroke="#0058ad" points="560,-0.5 560,-29.5 "/>
<text text-anchor="middle" x="601.5" y="-11.3" font-family="Times,serif" font-size="14.00" fill="#0058ad">r 60 [1 2]</text>
<polyline fill="none" stroke="#0058ad" points="643,-0.5 643,-29.5 "/>
<text text-anchor="middle" x="923" y="-11.3" font-family="Times,serif" font-size="14.00" fill="#0058ad">r 57 [1 2 3 4 5 6 7 8 9 10 11 12 13 14 15 16 17 18 19 20 21 22 23 24 25 26]</text>
<polyline fill="none" stroke="#0058ad" points="1203,-0.5 1203,-29.5 "/>
<text text-anchor="middle" x="1233.5" y="-11.3" font-family="Times,serif" font-size="14.00" fill="#0058ad">a 60 3</text>
<polyline fill="none" stroke="#0058ad" points="1264,-0.5 1264,-29.5 "/>
<text text-anchor="middle" x="1294.5" y="-11.3" font-family="Times,serif" font-size="14.00" fill="#0058ad">a 60 4</text>
</g>
<!-- T1915&#45;&gt;T1914 -->
<g id="edge1" class="edge">
<title>T1915:f2&#45;&gt;T1914:f3</title>
<path fill="none" stroke="#5b00c0" d="M727.5,-96C780.99,-96 1183.86,-87.72 1229.33,-39.19"/>
<polygon fill="#5b00c0" stroke="#5b00c0" points="1232.55,-40.55 1233.5,-30 1226.18,-37.66 1232.55,-40.55"/>
<text text-anchor="middle" x="1225" y="-51.8" font-family="Times,serif" font-size="14.00" fill="#5b00c0">rw</text>
</g>
<!-- T1914&#45;&gt;T1915 -->
<g id="edge2" class="edge">
<title>T1914:f0&#45;&gt;T1915:f1</title>
<path fill="none" stroke="#5b00c0" d="M279.5,-30C279.5,-174.36 592.63,55.24 607.92,-70.85"/>
<polygon fill="#5b00c0" stroke="#5b00c0" points="604.44,-71.22 608.5,-81 611.42,-70.82 604.44,-71.22"/>
<text text-anchor="middle" x="614" y="-51.8" font-family="Times,serif" font-size="14.00" fill="#5b00c0">rw</text>
</g>
</g>
</svg>
