<?xml version="1.0" encoding="UTF-8" standalone="no"?>
<!DOCTYPE svg PUBLIC "-//W3C//DTD SVG 1.1//EN"
 "http://www.w3.org/Graphics/SVG/1.1/DTD/svg11.dtd">
<!-- Generated by graphviz version 2.43.0 (0)
 -->
<!-- Title: a_graph Pages: 1 -->
<svg width="364pt" height="119pt"
 viewBox="0.00 0.00 364.00 119.00" xmlns="http://www.w3.org/2000/svg" xmlns:xlink="http://www.w3.org/1999/xlink">
<g id="graph0" class="graph" transform="scale(1 1) rotate(0) translate(4 115)">
<title>a_graph</title>
<polygon fill="white" stroke="transparent" points="-4,4 -4,-115 360,-115 360,4 -4,4"/>
<!-- T49 -->
<g id="node1" class="node">
<title>T49</title>
<polygon fill="none" stroke="#0058ad" points="31,-81.5 31,-110.5 356,-110.5 356,-81.5 31,-81.5"/>
<text text-anchor="middle" x="63.5" y="-92.3" font-family="Times,serif" font-size="14.00" fill="#0058ad">w 24 1</text>
<polyline fill="none" stroke="#0058ad" points="96,-81.5 96,-110.5 "/>
<text text-anchor="middle" x="128.5" y="-92.3" font-family="Times,serif" font-size="14.00" fill="#0058ad">w 24 2</text>
<polyline fill="none" stroke="#0058ad" points="161,-81.5 161,-110.5 "/>
<text text-anchor="middle" x="190.5" y="-92.3" font-family="Times,serif" font-size="14.00" fill="#0058ad">r 24 2</text>
<polyline fill="none" stroke="#0058ad" points="220,-81.5 220,-110.5 "/>
<text text-anchor="middle" x="254" y="-92.3" font-family="Times,serif" font-size="14.00" fill="#0058ad">r 18 nil</text>
<polyline fill="none" stroke="#0058ad" points="288,-81.5 288,-110.5 "/>
<text text-anchor="middle" x="322" y="-92.3" font-family="Times,serif" font-size="14.00" fill="#0058ad">r 23 nil</text>
</g>
<!-- T48 -->
<g id="node2" class="node">
<title>T48</title>
<polygon fill="none" stroke="#0058ad" points="0,-0.5 0,-29.5 331,-29.5 331,-0.5 0,-0.5"/>
<text text-anchor="middle" x="34" y="-11.3" font-family="Times,serif" font-size="14.00" fill="#0058ad">r 19 nil</text>
<polyline fill="none" stroke="#0058ad" points="68,-0.5 68,-29.5 "/>
<text text-anchor="middle" x="102" y="-11.3" font-family="Times,serif" font-size="14.00" fill="#0058ad">r 24 nil</text>
<polyline fill="none" stroke="#0058ad" points="136,-0.5 136,-29.5 "/>
<text text-anchor="middle" x="168.5" y="-11.3" font-family="Times,serif" font-size="14.00" fill="#0058ad">w 18 1</text>
<polyline fill="none" stroke="#0058ad" points="201,-0.5 201,-29.5 "/>
<text text-anchor="middle" x="233.5" y="-11.3" font-family="Times,serif" font-size="14.00" fill="#0058ad">w 18 2</text>
<polyline fill="none" stroke="#0058ad" points="266,-0.5 266,-29.5 "/>
<text text-anchor="middle" x="298.5" y="-11.3" font-family="Times,serif" font-size="14.00" fill="#0058ad">w 18 3</text>
</g>
<!-- T49&#45;&gt;T48 -->
<g id="edge1" class="edge">
<title>T49:f3&#45;&gt;T48:f4</title>
<path fill="none" stroke="#5b00c0" d="M254.5,-81C254.5,-55.04 287.59,-58.26 296.38,-40.06"/>
<polygon fill="#5b00c0" stroke="#5b00c0" points="299.86,-40.51 298.5,-30 293.01,-39.06 299.86,-40.51"/>
<text text-anchor="middle" x="298" y="-51.8" font-family="Times,serif" font-size="14.00" fill="#5b00c0">rw</text>
</g>
<!-- T48&#45;&gt;T49 -->
<g id="edge2" class="edge">
<title>T48:f1&#45;&gt;T49:f1</title>
<path fill="none" stroke="#5b00c0" d="M101.5,-30C101.5,-51.84 121.08,-54.87 126.89,-71.12"/>
<polygon fill="#5b00c0" stroke="#5b00c0" points="123.44,-71.69 128.5,-81 130.35,-70.57 123.44,-71.69"/>
<text text-anchor="middle" x="131" y="-51.8" font-family="Times,serif" font-size="14.00" fill="#5b00c0">rw</text>
</g>
</g>
</svg>
