<?xml version="1.0" encoding="UTF-8" standalone="no"?>
<!DOCTYPE svg PUBLIC "-//W3C//DTD SVG 1.1//EN"
 "http://www.w3.org/Graphics/SVG/1.1/DTD/svg11.dtd">
<!-- Generated by graphviz version 2.43.0 (0)
 -->
<!-- Title: a_graph Pages: 1 -->
<svg width="739pt" height="119pt"
 viewBox="0.00 0.00 738.50 119.00" xmlns="http://www.w3.org/2000/svg" xmlns:xlink="http://www.w3.org/1999/xlink">
<g id="graph0" class="graph" transform="scale(1 1) rotate(0) translate(4 115)">
<title>a_graph</title>
<polygon fill="white" stroke="transparent" points="-4,4 -4,-115 734.5,-115 734.5,4 -4,4"/>
<!-- T3008 -->
<g id="node1" class="node">
<title>T3008</title>
<polygon fill="none" stroke="#0058ad" points="0,-81.5 0,-110.5 581,-110.5 581,-81.5 0,-81.5"/>
<text text-anchor="middle" x="43" y="-92.3" font-family="Times,serif" font-size="14.00" fill="#0058ad">r 1286 nil</text>
<polyline fill="none" stroke="#0058ad" points="86,-81.5 86,-110.5 "/>
<text text-anchor="middle" x="124.5" y="-92.3" font-family="Times,serif" font-size="14.00" fill="#0058ad">r 1257 3</text>
<polyline fill="none" stroke="#0058ad" points="163,-81.5 163,-110.5 "/>
<text text-anchor="middle" x="206" y="-92.3" font-family="Times,serif" font-size="14.00" fill="#0058ad">r 1286 nil</text>
<polyline fill="none" stroke="#0058ad" points="249,-81.5 249,-110.5 "/>
<text text-anchor="middle" x="292" y="-92.3" font-family="Times,serif" font-size="14.00" fill="#0058ad">r 1285 nil</text>
<polyline fill="none" stroke="#0058ad" points="335,-81.5 335,-110.5 "/>
<text text-anchor="middle" x="378" y="-92.3" font-family="Times,serif" font-size="14.00" fill="#0058ad">r 1286 nil</text>
<polyline fill="none" stroke="#0058ad" points="421,-81.5 421,-110.5 "/>
<text text-anchor="middle" x="459.5" y="-92.3" font-family="Times,serif" font-size="14.00" fill="#0058ad">r 1282 2</text>
<polyline fill="none" stroke="#0058ad" points="498,-81.5 498,-110.5 "/>
<text text-anchor="middle" x="539.5" y="-92.3" font-family="Times,serif" font-size="14.00" fill="#0058ad">w 1286 1</text>
</g>
<!-- T3009 -->
<g id="node2" class="node">
<title>T3009</title>
<polygon fill="none" stroke="#0058ad" points="158.5,-0.5 158.5,-29.5 730.5,-29.5 730.5,-0.5 158.5,-0.5"/>
<text text-anchor="middle" x="197" y="-11.3" font-family="Times,serif" font-size="14.00" fill="#0058ad">r 1282 2</text>
<polyline fill="none" stroke="#0058ad" points="235.5,-0.5 235.5,-29.5 "/>
<text text-anchor="middle" x="278.5" y="-11.3" font-family="Times,serif" font-size="14.00" fill="#0058ad">r 1286 nil</text>
<polyline fill="none" stroke="#0058ad" points="321.5,-0.5 321.5,-29.5 "/>
<text text-anchor="middle" x="360" y="-11.3" font-family="Times,serif" font-size="14.00" fill="#0058ad">r 1282 2</text>
<polyline fill="none" stroke="#0058ad" points="398.5,-0.5 398.5,-29.5 "/>
<text text-anchor="middle" x="441.5" y="-11.3" font-family="Times,serif" font-size="14.00" fill="#0058ad">r 1286 nil</text>
<polyline fill="none" stroke="#0058ad" points="484.5,-0.5 484.5,-29.5 "/>
<text text-anchor="middle" x="523" y="-11.3" font-family="Times,serif" font-size="14.00" fill="#0058ad">r 1274 2</text>
<polyline fill="none" stroke="#0058ad" points="561.5,-0.5 561.5,-29.5 "/>
<text text-anchor="middle" x="603" y="-11.3" font-family="Times,serif" font-size="14.00" fill="#0058ad">w 1285 1</text>
<polyline fill="none" stroke="#0058ad" points="644.5,-0.5 644.5,-29.5 "/>
<text text-anchor="middle" x="687.5" y="-11.3" font-family="Times,serif" font-size="14.00" fill="#0058ad">r 1286 nil</text>
</g>
<!-- T3008&#45;&gt;T3009 -->
<g id="edge1" class="edge">
<title>T3008:f3&#45;&gt;T3009:f5</title>
<path fill="none" stroke="#5b00c0" d="M292.5,-81C292.5,-11 377.43,-59.33 446.5,-48 461.32,-45.57 565.68,-46.97 595.54,-36.44"/>
<polygon fill="#5b00c0" stroke="#5b00c0" points="597.93,-39.01 603.5,-30 593.52,-33.57 597.93,-39.01"/>
<text text-anchor="middle" x="456" y="-51.8" font-family="Times,serif" font-size="14.00" fill="#5b00c0">rw</text>
</g>
<!-- T3009&#45;&gt;T3008 -->
<g id="edge2" class="edge">
<title>T3009:f1&#45;&gt;T3008:f6</title>
<path fill="none" stroke="#5b00c0" d="M278.5,-30C278.5,-50.87 445.32,-42.68 465.5,-48 496.51,-56.17 530.98,-47.4 538.15,-70.82"/>
<polygon fill="#5b00c0" stroke="#5b00c0" points="534.72,-71.55 539.5,-81 541.66,-70.63 534.72,-71.55"/>
<text text-anchor="middle" x="543" y="-51.8" font-family="Times,serif" font-size="14.00" fill="#5b00c0">rw</text>
</g>
</g>
</svg>
