<?xml version="1.0" encoding="UTF-8" standalone="no"?>
<!DOCTYPE svg PUBLIC "-//W3C//DTD SVG 1.1//EN"
 "http://www.w3.org/Graphics/SVG/1.1/DTD/svg11.dtd">
<!-- Generated by graphviz version 2.43.0 (0)
 -->
<!-- Title: a_graph Pages: 1 -->
<svg width="646pt" height="119pt"
 viewBox="0.00 0.00 646.00 119.00" xmlns="http://www.w3.org/2000/svg" xmlns:xlink="http://www.w3.org/1999/xlink">
<g id="graph0" class="graph" transform="scale(1 1) rotate(0) translate(4 115)">
<title>a_graph</title>
<polygon fill="white" stroke="transparent" points="-4,4 -4,-115 642,-115 642,4 -4,4"/>
<!-- T2335 -->
<g id="node1" class="node">
<title>T2335</title>
<polygon fill="none" stroke="#0058ad" points="0,-81.5 0,-110.5 632,-110.5 632,-81.5 0,-81.5"/>
<text text-anchor="middle" x="39.5" y="-92.3" font-family="Times,serif" font-size="14.00" fill="#0058ad">r 1009 []</text>
<polyline fill="none" stroke="#0058ad" points="79,-81.5 79,-110.5 "/>
<text text-anchor="middle" x="118.5" y="-92.3" font-family="Times,serif" font-size="14.00" fill="#0058ad">r 1009 []</text>
<polyline fill="none" stroke="#0058ad" points="158,-81.5 158,-110.5 "/>
<text text-anchor="middle" x="197.5" y="-92.3" font-family="Times,serif" font-size="14.00" fill="#0058ad">r 1009 []</text>
<polyline fill="none" stroke="#0058ad" points="237,-81.5 237,-110.5 "/>
<text text-anchor="middle" x="276.5" y="-92.3" font-family="Times,serif" font-size="14.00" fill="#0058ad">a 1010 1</text>
<polyline fill="none" stroke="#0058ad" points="316,-81.5 316,-110.5 "/>
<text text-anchor="middle" x="355.5" y="-92.3" font-family="Times,serif" font-size="14.00" fill="#0058ad">a 1010 2</text>
<polyline fill="none" stroke="#0058ad" points="395,-81.5 395,-110.5 "/>
<text text-anchor="middle" x="434.5" y="-92.3" font-family="Times,serif" font-size="14.00" fill="#0058ad">a 1010 3</text>
<polyline fill="none" stroke="#0058ad" points="474,-81.5 474,-110.5 "/>
<text text-anchor="middle" x="513.5" y="-92.3" font-family="Times,serif" font-size="14.00" fill="#0058ad">r 1011 []</text>
<polyline fill="none" stroke="#0058ad" points="553,-81.5 553,-110.5 "/>
<text text-anchor="middle" x="592.5" y="-92.3" font-family="Times,serif" font-size="14.00" fill="#0058ad">a 1008 1</text>
</g>
<!-- T2334 -->
<g id="node2" class="node">
<title>T2334</title>
<polygon fill="none" stroke="#0058ad" points="40,-0.5 40,-29.5 638,-29.5 638,-0.5 40,-0.5"/>
<text text-anchor="middle" x="79.5" y="-11.3" font-family="Times,serif" font-size="14.00" fill="#0058ad">a 1006 3</text>
<polyline fill="none" stroke="#0058ad" points="119,-0.5 119,-29.5 "/>
<text text-anchor="middle" x="158.5" y="-11.3" font-family="Times,serif" font-size="14.00" fill="#0058ad">a 1009 1</text>
<polyline fill="none" stroke="#0058ad" points="198,-0.5 198,-29.5 "/>
<text text-anchor="middle" x="237.5" y="-11.3" font-family="Times,serif" font-size="14.00" fill="#0058ad">a 1009 2</text>
<polyline fill="none" stroke="#0058ad" points="277,-0.5 277,-29.5 "/>
<text text-anchor="middle" x="316.5" y="-11.3" font-family="Times,serif" font-size="14.00" fill="#0058ad">a 1009 3</text>
<polyline fill="none" stroke="#0058ad" points="356,-0.5 356,-29.5 "/>
<text text-anchor="middle" x="395.5" y="-11.3" font-family="Times,serif" font-size="14.00" fill="#0058ad">r 1008 []</text>
<polyline fill="none" stroke="#0058ad" points="435,-0.5 435,-29.5 "/>
<text text-anchor="middle" x="479" y="-11.3" font-family="Times,serif" font-size="14.00" fill="#0058ad">r 1007 [1]</text>
<polyline fill="none" stroke="#0058ad" points="523,-0.5 523,-29.5 "/>
<text text-anchor="middle" x="580.5" y="-11.3" font-family="Times,serif" font-size="14.00" fill="#0058ad">r 1009 [1 2 3]</text>
</g>
<!-- T2335&#45;&gt;T2334 -->
<g id="edge1" class="edge">
<title>T2335:f0&#45;&gt;T2334:f1</title>
<path fill="none" stroke="#5b00c0" d="M39,-81C39,-27.28 142.72,-79.57 156.5,-39.93"/>
<polygon fill="#5b00c0" stroke="#5b00c0" points="159.96,-40.41 158,-30 153.04,-39.36 159.96,-40.41"/>
<text text-anchor="middle" x="159.5" y="-51.8" font-family="Times,serif" font-size="14.00" fill="#5b00c0">rw</text>
</g>
<!-- T2334&#45;&gt;T2335 -->
<g id="edge2" class="edge">
<title>T2334:f4&#45;&gt;T2335:f7</title>
<path fill="none" stroke="#5b00c0" d="M396,-30C396,-116.73 577.17,-0.84 592.03,-70.95"/>
<polygon fill="#5b00c0" stroke="#5b00c0" points="588.56,-71.38 593,-81 595.53,-70.71 588.56,-71.38"/>
<text text-anchor="middle" x="596.5" y="-51.8" font-family="Times,serif" font-size="14.00" fill="#5b00c0">rw</text>
</g>
</g>
</svg>
