<?xml version="1.0" encoding="UTF-8" standalone="no"?>
<!DOCTYPE svg PUBLIC "-//W3C//DTD SVG 1.1//EN"
 "http://www.w3.org/Graphics/SVG/1.1/DTD/svg11.dtd">
<!-- Generated by graphviz version 2.43.0 (0)
 -->
<!-- Title: a_graph Pages: 1 -->
<svg width="743pt" height="119pt"
 viewBox="0.00 0.00 743.00 119.00" xmlns="http://www.w3.org/2000/svg" xmlns:xlink="http://www.w3.org/1999/xlink">
<g id="graph0" class="graph" transform="scale(1 1) rotate(0) translate(4 115)">
<title>a_graph</title>
<polygon fill="white" stroke="transparent" points="-4,4 -4,-115 739,-115 739,4 -4,4"/>
<!-- T2870 -->
<g id="node1" class="node">
<title>T2870</title>
<polygon fill="none" stroke="#0058ad" points="248.5,-81.5 248.5,-110.5 722.5,-110.5 722.5,-81.5 248.5,-81.5"/>
<text text-anchor="middle" x="288" y="-92.3" font-family="Times,serif" font-size="14.00" fill="#0058ad">r 1253 []</text>
<polyline fill="none" stroke="#0058ad" points="327.5,-81.5 327.5,-110.5 "/>
<text text-anchor="middle" x="367" y="-92.3" font-family="Times,serif" font-size="14.00" fill="#0058ad">r 1254 []</text>
<polyline fill="none" stroke="#0058ad" points="406.5,-81.5 406.5,-110.5 "/>
<text text-anchor="middle" x="446" y="-92.3" font-family="Times,serif" font-size="14.00" fill="#0058ad">r 1254 []</text>
<polyline fill="none" stroke="#0058ad" points="485.5,-81.5 485.5,-110.5 "/>
<text text-anchor="middle" x="525" y="-92.3" font-family="Times,serif" font-size="14.00" fill="#0058ad">r 1254 []</text>
<polyline fill="none" stroke="#0058ad" points="564.5,-81.5 564.5,-110.5 "/>
<text text-anchor="middle" x="604" y="-92.3" font-family="Times,serif" font-size="14.00" fill="#0058ad">a 1251 1</text>
<polyline fill="none" stroke="#0058ad" points="643.5,-81.5 643.5,-110.5 "/>
<text text-anchor="middle" x="683" y="-92.3" font-family="Times,serif" font-size="14.00" fill="#0058ad">r 1254 []</text>
</g>
<!-- T2871 -->
<g id="node2" class="node">
<title>T2871</title>
<polygon fill="none" stroke="#0058ad" points="0,-0.5 0,-29.5 735,-29.5 735,-0.5 0,-0.5"/>
<text text-anchor="middle" x="50.5" y="-11.3" font-family="Times,serif" font-size="14.00" fill="#0058ad">r 1247 [2 3]</text>
<polyline fill="none" stroke="#0058ad" points="101,-0.5 101,-29.5 "/>
<text text-anchor="middle" x="140.5" y="-11.3" font-family="Times,serif" font-size="14.00" fill="#0058ad">a 1252 3</text>
<polyline fill="none" stroke="#0058ad" points="180,-0.5 180,-29.5 "/>
<text text-anchor="middle" x="237.5" y="-11.3" font-family="Times,serif" font-size="14.00" fill="#0058ad">r 1252 [1 2 3]</text>
<polyline fill="none" stroke="#0058ad" points="295,-0.5 295,-29.5 "/>
<text text-anchor="middle" x="334.5" y="-11.3" font-family="Times,serif" font-size="14.00" fill="#0058ad">a 1253 1</text>
<polyline fill="none" stroke="#0058ad" points="374,-0.5 374,-29.5 "/>
<text text-anchor="middle" x="431.5" y="-11.3" font-family="Times,serif" font-size="14.00" fill="#0058ad">r 1252 [1 2 3]</text>
<polyline fill="none" stroke="#0058ad" points="489,-0.5 489,-29.5 "/>
<text text-anchor="middle" x="528.5" y="-11.3" font-family="Times,serif" font-size="14.00" fill="#0058ad">r 1251 []</text>
<polyline fill="none" stroke="#0058ad" points="568,-0.5 568,-29.5 "/>
<text text-anchor="middle" x="607.5" y="-11.3" font-family="Times,serif" font-size="14.00" fill="#0058ad">a 1254 1</text>
<polyline fill="none" stroke="#0058ad" points="647,-0.5 647,-29.5 "/>
<text text-anchor="middle" x="691" y="-11.3" font-family="Times,serif" font-size="14.00" fill="#0058ad">r 1254 [1]</text>
</g>
<!-- T2870&#45;&gt;T2871 -->
<g id="edge1" class="edge">
<title>T2870:f0&#45;&gt;T2871:f3</title>
<path fill="none" stroke="#5b00c0" d="M287.5,-81C287.5,-54.27 322.84,-58.73 332.23,-40.28"/>
<polygon fill="#5b00c0" stroke="#5b00c0" points="335.76,-40.52 334.5,-30 328.93,-39.01 335.76,-40.52"/>
<text text-anchor="middle" x="334" y="-51.8" font-family="Times,serif" font-size="14.00" fill="#5b00c0">rw</text>
</g>
<!-- T2871&#45;&gt;T2870 -->
<g id="edge2" class="edge">
<title>T2871:f5&#45;&gt;T2870:f4</title>
<path fill="none" stroke="#5b00c0" d="M528.5,-30C528.5,-66.71 590.38,-45.57 602.47,-70.98"/>
<polygon fill="#5b00c0" stroke="#5b00c0" points="599.08,-71.9 604.5,-81 605.94,-70.5 599.08,-71.9"/>
<text text-anchor="middle" x="604" y="-51.8" font-family="Times,serif" font-size="14.00" fill="#5b00c0">rw</text>
</g>
</g>
</svg>
