<?xml version="1.0" encoding="UTF-8" standalone="no"?>
<!DOCTYPE svg PUBLIC "-//W3C//DTD SVG 1.1//EN"
 "http://www.w3.org/Graphics/SVG/1.1/DTD/svg11.dtd">
<!-- Generated by graphviz version 2.43.0 (0)
 -->
<!-- Title: a_graph Pages: 1 -->
<svg width="590pt" height="119pt"
 viewBox="0.00 0.00 590.00 119.00" xmlns="http://www.w3.org/2000/svg" xmlns:xlink="http://www.w3.org/1999/xlink">
<g id="graph0" class="graph" transform="scale(1 1) rotate(0) translate(4 115)">
<title>a_graph</title>
<polygon fill="white" stroke="transparent" points="-4,4 -4,-115 586,-115 586,4 -4,4"/>
<!-- T1972 -->
<g id="node1" class="node">
<title>T1972</title>
<polygon fill="none" stroke="#0058ad" points="4,-81.5 4,-110.5 306,-110.5 306,-81.5 4,-81.5"/>
<text text-anchor="middle" x="39" y="-92.3" font-family="Times,serif" font-size="14.00" fill="#0058ad">a 850 2</text>
<polyline fill="none" stroke="#0058ad" points="74,-81.5 74,-110.5 "/>
<text text-anchor="middle" x="109" y="-92.3" font-family="Times,serif" font-size="14.00" fill="#0058ad">r 856 []</text>
<polyline fill="none" stroke="#0058ad" points="144,-81.5 144,-110.5 "/>
<text text-anchor="middle" x="190" y="-92.3" font-family="Times,serif" font-size="14.00" fill="#0058ad">r 853 [1 2]</text>
<polyline fill="none" stroke="#0058ad" points="236,-81.5 236,-110.5 "/>
<text text-anchor="middle" x="271" y="-92.3" font-family="Times,serif" font-size="14.00" fill="#0058ad">a 852 1</text>
</g>
<!-- T1973 -->
<g id="node2" class="node">
<title>T1973</title>
<polygon fill="none" stroke="#0058ad" points="0,-0.5 0,-29.5 582,-29.5 582,-0.5 0,-0.5"/>
<text text-anchor="middle" x="35" y="-11.3" font-family="Times,serif" font-size="14.00" fill="#0058ad">a 855 1</text>
<polyline fill="none" stroke="#0058ad" points="70,-0.5 70,-29.5 "/>
<text text-anchor="middle" x="105" y="-11.3" font-family="Times,serif" font-size="14.00" fill="#0058ad">a 855 2</text>
<polyline fill="none" stroke="#0058ad" points="140,-0.5 140,-29.5 "/>
<text text-anchor="middle" x="175" y="-11.3" font-family="Times,serif" font-size="14.00" fill="#0058ad">a 853 3</text>
<polyline fill="none" stroke="#0058ad" points="210,-0.5 210,-29.5 "/>
<text text-anchor="middle" x="245" y="-11.3" font-family="Times,serif" font-size="14.00" fill="#0058ad">a 855 3</text>
<polyline fill="none" stroke="#0058ad" points="280,-0.5 280,-29.5 "/>
<text text-anchor="middle" x="315" y="-11.3" font-family="Times,serif" font-size="14.00" fill="#0058ad">r 852 []</text>
<polyline fill="none" stroke="#0058ad" points="350,-0.5 350,-29.5 "/>
<text text-anchor="middle" x="385" y="-11.3" font-family="Times,serif" font-size="14.00" fill="#0058ad">a 856 1</text>
<polyline fill="none" stroke="#0058ad" points="420,-0.5 420,-29.5 "/>
<text text-anchor="middle" x="455" y="-11.3" font-family="Times,serif" font-size="14.00" fill="#0058ad">a 856 2</text>
<polyline fill="none" stroke="#0058ad" points="490,-0.5 490,-29.5 "/>
<text text-anchor="middle" x="536" y="-11.3" font-family="Times,serif" font-size="14.00" fill="#0058ad">r 856 [1 2]</text>
</g>
<!-- T1972&#45;&gt;T1973 -->
<g id="edge1" class="edge">
<title>T1972:f2&#45;&gt;T1973:f2</title>
<path fill="none" stroke="#5b00c0" d="M190,-81C190,-61.25 179.52,-55.39 176.08,-40.2"/>
<polygon fill="#5b00c0" stroke="#5b00c0" points="179.53,-39.58 175,-30 172.57,-40.31 179.53,-39.58"/>
<text text-anchor="middle" x="195.5" y="-51.8" font-family="Times,serif" font-size="14.00" fill="#5b00c0">rw</text>
</g>
<!-- T1973&#45;&gt;T1972 -->
<g id="edge2" class="edge">
<title>T1973:f4&#45;&gt;T1972:f3</title>
<path fill="none" stroke="#5b00c0" d="M315,-30C315,-55.96 281.91,-52.74 273.12,-70.94"/>
<polygon fill="#5b00c0" stroke="#5b00c0" points="269.64,-70.49 271,-81 276.49,-71.94 269.64,-70.49"/>
<text text-anchor="middle" x="314.5" y="-51.8" font-family="Times,serif" font-size="14.00" fill="#5b00c0">rw</text>
</g>
</g>
</svg>
