<?xml version="1.0" encoding="UTF-8" standalone="no"?>
<!DOCTYPE svg PUBLIC "-//W3C//DTD SVG 1.1//EN"
 "http://www.w3.org/Graphics/SVG/1.1/DTD/svg11.dtd">
<!-- Generated by graphviz version 2.43.0 (0)
 -->
<!-- Title: a_graph Pages: 1 -->
<svg width="558pt" height="119pt"
 viewBox="0.00 0.00 558.00 119.00" xmlns="http://www.w3.org/2000/svg" xmlns:xlink="http://www.w3.org/1999/xlink">
<g id="graph0" class="graph" transform="scale(1 1) rotate(0) translate(4 115)">
<title>a_graph</title>
<polygon fill="white" stroke="transparent" points="-4,4 -4,-115 554,-115 554,4 -4,4"/>
<!-- T1096 -->
<g id="node1" class="node">
<title>T1096</title>
<polygon fill="none" stroke="#0058ad" points="42,-81.5 42,-110.5 550,-110.5 550,-81.5 42,-81.5"/>
<text text-anchor="middle" x="88" y="-92.3" font-family="Times,serif" font-size="14.00" fill="#0058ad">r 466 [1 2]</text>
<polyline fill="none" stroke="#0058ad" points="134,-81.5 134,-110.5 "/>
<text text-anchor="middle" x="169" y="-92.3" font-family="Times,serif" font-size="14.00" fill="#0058ad">r 468 []</text>
<polyline fill="none" stroke="#0058ad" points="204,-81.5 204,-110.5 "/>
<text text-anchor="middle" x="250" y="-92.3" font-family="Times,serif" font-size="14.00" fill="#0058ad">r 466 [1 2]</text>
<polyline fill="none" stroke="#0058ad" points="296,-81.5 296,-110.5 "/>
<text text-anchor="middle" x="342" y="-92.3" font-family="Times,serif" font-size="14.00" fill="#0058ad">r 466 [1 2]</text>
<polyline fill="none" stroke="#0058ad" points="388,-81.5 388,-110.5 "/>
<text text-anchor="middle" x="434" y="-92.3" font-family="Times,serif" font-size="14.00" fill="#0058ad">r 466 [1 2]</text>
<polyline fill="none" stroke="#0058ad" points="480,-81.5 480,-110.5 "/>
<text text-anchor="middle" x="515" y="-92.3" font-family="Times,serif" font-size="14.00" fill="#0058ad">a 463 2</text>
</g>
<!-- T1097 -->
<g id="node2" class="node">
<title>T1097</title>
<polygon fill="none" stroke="#0058ad" points="0,-0.5 0,-29.5 546,-29.5 546,-0.5 0,-0.5"/>
<text text-anchor="middle" x="53" y="-11.3" font-family="Times,serif" font-size="14.00" fill="#0058ad">r 460 [1 2 3]</text>
<polyline fill="none" stroke="#0058ad" points="106,-0.5 106,-29.5 "/>
<text text-anchor="middle" x="141" y="-11.3" font-family="Times,serif" font-size="14.00" fill="#0058ad">a 466 3</text>
<polyline fill="none" stroke="#0058ad" points="176,-0.5 176,-29.5 "/>
<text text-anchor="middle" x="229" y="-11.3" font-family="Times,serif" font-size="14.00" fill="#0058ad">r 466 [1 2 3]</text>
<polyline fill="none" stroke="#0058ad" points="282,-0.5 282,-29.5 "/>
<text text-anchor="middle" x="335" y="-11.3" font-family="Times,serif" font-size="14.00" fill="#0058ad">r 466 [1 2 3]</text>
<polyline fill="none" stroke="#0058ad" points="388,-0.5 388,-29.5 "/>
<text text-anchor="middle" x="427.5" y="-11.3" font-family="Times,serif" font-size="14.00" fill="#0058ad">r 463 [1]</text>
<polyline fill="none" stroke="#0058ad" points="467,-0.5 467,-29.5 "/>
<text text-anchor="middle" x="506.5" y="-11.3" font-family="Times,serif" font-size="14.00" fill="#0058ad">r 463 [1]</text>
</g>
<!-- T1096&#45;&gt;T1097 -->
<g id="edge1" class="edge">
<title>T1096:f0&#45;&gt;T1097:f1</title>
<path fill="none" stroke="#5b00c0" d="M88,-81C88,-52.27 128.94,-59.9 138.86,-39.97"/>
<polygon fill="#5b00c0" stroke="#5b00c0" points="142.32,-40.51 141,-30 135.48,-39.04 142.32,-40.51"/>
<text text-anchor="middle" x="140.5" y="-51.8" font-family="Times,serif" font-size="14.00" fill="#5b00c0">rw</text>
</g>
<!-- T1097&#45;&gt;T1096 -->
<g id="edge2" class="edge">
<title>T1097:f4&#45;&gt;T1096:f5</title>
<path fill="none" stroke="#5b00c0" d="M428,-30C428,-70.79 500.07,-42.45 513.02,-70.82"/>
<polygon fill="#5b00c0" stroke="#5b00c0" points="509.65,-71.85 515,-81 516.53,-70.52 509.65,-71.85"/>
<text text-anchor="middle" x="514.5" y="-51.8" font-family="Times,serif" font-size="14.00" fill="#5b00c0">rw</text>
</g>
</g>
</svg>
