<?xml version="1.0" encoding="UTF-8" standalone="no"?>
<!DOCTYPE svg PUBLIC "-//W3C//DTD SVG 1.1//EN"
 "http://www.w3.org/Graphics/SVG/1.1/DTD/svg11.dtd">
<!-- Generated by graphviz version 2.43.0 (0)
 -->
<!-- Title: a_graph Pages: 1 -->
<svg width="589pt" height="200pt"
 viewBox="0.00 0.00 589.01 200.00" xmlns="http://www.w3.org/2000/svg" xmlns:xlink="http://www.w3.org/1999/xlink">
<g id="graph0" class="graph" transform="scale(1 1) rotate(0) translate(4 196)">
<title>a_graph</title>
<polygon fill="white" stroke="transparent" points="-4,4 -4,-196 585.01,-196 585.01,4 -4,4"/>
<!-- T2003 -->
<g id="node1" class="node">
<title>T2003</title>
<polygon fill="none" stroke="#0058ad" points="42.01,-162.5 42.01,-191.5 581.01,-191.5 581.01,-162.5 42.01,-162.5"/>
<text text-anchor="middle" x="77.01" y="-173.3" font-family="Times,serif" font-size="14.00" fill="#0058ad">a 867 1</text>
<polyline fill="none" stroke="#0058ad" points="112.01,-162.5 112.01,-191.5 "/>
<text text-anchor="middle" x="147.01" y="-173.3" font-family="Times,serif" font-size="14.00" fill="#0058ad">a 869 1</text>
<polyline fill="none" stroke="#0058ad" points="182.01,-162.5 182.01,-191.5 "/>
<text text-anchor="middle" x="221.51" y="-173.3" font-family="Times,serif" font-size="14.00" fill="#0058ad">r 865 [1]</text>
<polyline fill="none" stroke="#0058ad" points="261.01,-162.5 261.01,-191.5 "/>
<text text-anchor="middle" x="296.01" y="-173.3" font-family="Times,serif" font-size="14.00" fill="#0058ad">a 869 2</text>
<polyline fill="none" stroke="#0058ad" points="331.01,-162.5 331.01,-191.5 "/>
<text text-anchor="middle" x="370.51" y="-173.3" font-family="Times,serif" font-size="14.00" fill="#0058ad">r 865 [1]</text>
<polyline fill="none" stroke="#0058ad" points="410.01,-162.5 410.01,-191.5 "/>
<text text-anchor="middle" x="456.01" y="-173.3" font-family="Times,serif" font-size="14.00" fill="#0058ad">r 869 [1 2]</text>
<polyline fill="none" stroke="#0058ad" points="502.01,-162.5 502.01,-191.5 "/>
<text text-anchor="middle" x="541.51" y="-173.3" font-family="Times,serif" font-size="14.00" fill="#0058ad">r 865 [1]</text>
</g>
<!-- T2000 -->
<g id="node2" class="node">
<title>T2000</title>
<polygon fill="none" stroke="#0058ad" points="34.51,-81.5 34.51,-110.5 384.51,-110.5 384.51,-81.5 34.51,-81.5"/>
<text text-anchor="middle" x="69.51" y="-92.3" font-family="Times,serif" font-size="14.00" fill="#0058ad">r 869 []</text>
<polyline fill="none" stroke="#0058ad" points="104.51,-81.5 104.51,-110.5 "/>
<text text-anchor="middle" x="139.51" y="-92.3" font-family="Times,serif" font-size="14.00" fill="#0058ad">a 862 3</text>
<polyline fill="none" stroke="#0058ad" points="174.51,-81.5 174.51,-110.5 "/>
<text text-anchor="middle" x="209.51" y="-92.3" font-family="Times,serif" font-size="14.00" fill="#0058ad">a 858 3</text>
<polyline fill="none" stroke="#0058ad" points="244.51,-81.5 244.51,-110.5 "/>
<text text-anchor="middle" x="279.51" y="-92.3" font-family="Times,serif" font-size="14.00" fill="#0058ad">r 869 []</text>
<polyline fill="none" stroke="#0058ad" points="314.51,-81.5 314.51,-110.5 "/>
<text text-anchor="middle" x="349.51" y="-92.3" font-family="Times,serif" font-size="14.00" fill="#0058ad">a 865 2</text>
</g>
<!-- T2003&#45;&gt;T2000 -->
<g id="edge1" class="edge">
<title>T2003:f2&#45;&gt;T2000:f4</title>
<path fill="none" stroke="#5b00c0" d="M221.51,-162C221.51,-104.59 334.01,-163.82 348.08,-120.99"/>
<polygon fill="#5b00c0" stroke="#5b00c0" points="351.55,-121.4 349.51,-111 344.62,-120.4 351.55,-121.4"/>
<text text-anchor="middle" x="352.01" y="-132.8" font-family="Times,serif" font-size="14.00" fill="#5b00c0">rw</text>
</g>
<!-- T2002 -->
<g id="node3" class="node">
<title>T2002</title>
<polygon fill="none" stroke="#0058ad" points="69.51,-0.5 69.51,-29.5 349.51,-29.5 349.51,-0.5 69.51,-0.5"/>
<text text-anchor="middle" x="104.51" y="-11.3" font-family="Times,serif" font-size="14.00" fill="#0058ad">a 865 3</text>
<polyline fill="none" stroke="#0058ad" points="139.51,-0.5 139.51,-29.5 "/>
<text text-anchor="middle" x="174.51" y="-11.3" font-family="Times,serif" font-size="14.00" fill="#0058ad">r 869 []</text>
<polyline fill="none" stroke="#0058ad" points="209.51,-0.5 209.51,-29.5 "/>
<text text-anchor="middle" x="244.51" y="-11.3" font-family="Times,serif" font-size="14.00" fill="#0058ad">r 869 []</text>
<polyline fill="none" stroke="#0058ad" points="279.51,-0.5 279.51,-29.5 "/>
<text text-anchor="middle" x="314.51" y="-11.3" font-family="Times,serif" font-size="14.00" fill="#0058ad">r 869 []</text>
</g>
<!-- T2003&#45;&gt;T2002 -->
<g id="edge2" class="edge">
<title>T2003:f2&#45;&gt;T2002:f0</title>
<path fill="none" stroke="#5b00c0" d="M221.51,-162C221.51,-129.75 337.15,-159.34 365.51,-144 392.46,-129.42 412.97,-104.67 393.51,-81 345.48,-22.55 301.07,-60.86 226.51,-48 203.09,-43.96 128.55,-54 109.16,-38.87"/>
<polygon fill="#5b00c0" stroke="#5b00c0" points="112.25,-37.23 104.51,-30 106.05,-40.48 112.25,-37.23"/>
<text text-anchor="middle" x="410.01" y="-92.3" font-family="Times,serif" font-size="14.00" fill="#5b00c0">rw</text>
</g>
<!-- T2000&#45;&gt;T2003 -->
<g id="edge4" class="edge">
<title>T2000:f0&#45;&gt;T2003:f1</title>
<path fill="none" stroke="#5b00c0" d="M69.51,-111C69.51,-148.04 132.21,-126.34 144.45,-151.9"/>
<polygon fill="#5b00c0" stroke="#5b00c0" points="141.08,-152.9 146.51,-162 147.94,-151.5 141.08,-152.9"/>
<text text-anchor="middle" x="146.01" y="-132.8" font-family="Times,serif" font-size="14.00" fill="#5b00c0">rw</text>
</g>
<!-- T2000&#45;&gt;T2002 -->
<g id="edge3" class="edge">
<title>T2000&#45;&gt;T2002</title>
<path fill="none" stroke="#0050c0" d="M209.51,-81.24C209.51,-69.8 209.51,-53.25 209.51,-39.69"/>
<polygon fill="#0050c0" stroke="#0050c0" points="213.01,-39.6 209.51,-29.6 206.01,-39.6 213.01,-39.6"/>
<text text-anchor="middle" x="216.01" y="-51.8" font-family="Times,serif" font-size="14.00" fill="#0050c0">rt</text>
</g>
<!-- T2002&#45;&gt;T2003 -->
<g id="edge5" class="edge">
<title>T2002:f1&#45;&gt;T2003:f1</title>
<path fill="none" stroke="#5b00c0" d="M174.51,-30C174.51,-108.03 52.99,-18.32 6.51,-81 -18.03,-114.09 35.79,-129.93 74.51,-144 101.4,-153.77 135.8,-135.33 144.46,-151.77"/>
<polygon fill="#5b00c0" stroke="#5b00c0" points="141.12,-152.88 146.51,-162 147.98,-151.51 141.12,-152.88"/>
<text text-anchor="middle" x="16.01" y="-92.3" font-family="Times,serif" font-size="14.00" fill="#5b00c0">rw</text>
</g>
</g>
</svg>
