<?xml version="1.0" encoding="UTF-8" standalone="no"?>
<!DOCTYPE svg PUBLIC "-//W3C//DTD SVG 1.1//EN"
 "http://www.w3.org/Graphics/SVG/1.1/DTD/svg11.dtd">
<!-- Generated by graphviz version 2.43.0 (0)
 -->
<!-- Title: a_graph Pages: 1 -->
<svg width="358pt" height="119pt"
 viewBox="0.00 0.00 358.00 119.00" xmlns="http://www.w3.org/2000/svg" xmlns:xlink="http://www.w3.org/1999/xlink">
<g id="graph0" class="graph" transform="scale(1 1) rotate(0) translate(4 115)">
<title>a_graph</title>
<polygon fill="white" stroke="transparent" points="-4,4 -4,-115 354,-115 354,4 -4,4"/>
<!-- T456 -->
<g id="node1" class="node">
<title>T456</title>
<polygon fill="none" stroke="#0058ad" points="0,-81.5 0,-110.5 350,-110.5 350,-81.5 0,-81.5"/>
<text text-anchor="middle" x="35" y="-92.3" font-family="Times,serif" font-size="14.00" fill="#0058ad">r 196 []</text>
<polyline fill="none" stroke="#0058ad" points="70,-81.5 70,-110.5 "/>
<text text-anchor="middle" x="105" y="-92.3" font-family="Times,serif" font-size="14.00" fill="#0058ad">r 195 []</text>
<polyline fill="none" stroke="#0058ad" points="140,-81.5 140,-110.5 "/>
<text text-anchor="middle" x="175" y="-92.3" font-family="Times,serif" font-size="14.00" fill="#0058ad">a 195 1</text>
<polyline fill="none" stroke="#0058ad" points="210,-81.5 210,-110.5 "/>
<text text-anchor="middle" x="245" y="-92.3" font-family="Times,serif" font-size="14.00" fill="#0058ad">r 196 []</text>
<polyline fill="none" stroke="#0058ad" points="280,-81.5 280,-110.5 "/>
<text text-anchor="middle" x="315" y="-92.3" font-family="Times,serif" font-size="14.00" fill="#0058ad">a 195 2</text>
</g>
<!-- T457 -->
<g id="node2" class="node">
<title>T457</title>
<polygon fill="none" stroke="#0058ad" points="44,-0.5 44,-29.5 324,-29.5 324,-0.5 44,-0.5"/>
<text text-anchor="middle" x="79" y="-11.3" font-family="Times,serif" font-size="14.00" fill="#0058ad">a 196 1</text>
<polyline fill="none" stroke="#0058ad" points="114,-0.5 114,-29.5 "/>
<text text-anchor="middle" x="149" y="-11.3" font-family="Times,serif" font-size="14.00" fill="#0058ad">r 195 []</text>
<polyline fill="none" stroke="#0058ad" points="184,-0.5 184,-29.5 "/>
<text text-anchor="middle" x="219" y="-11.3" font-family="Times,serif" font-size="14.00" fill="#0058ad">a 196 2</text>
<polyline fill="none" stroke="#0058ad" points="254,-0.5 254,-29.5 "/>
<text text-anchor="middle" x="289" y="-11.3" font-family="Times,serif" font-size="14.00" fill="#0058ad">a 196 3</text>
</g>
<!-- T456&#45;&gt;T457 -->
<g id="edge1" class="edge">
<title>T456:f0&#45;&gt;T457:f0</title>
<path fill="none" stroke="#5b00c0" d="M35,-81C35,-55.84 19.37,-25.67 32.98,-17.27"/>
<polygon fill="#5b00c0" stroke="#5b00c0" points="34.02,-20.62 43,-15 32.47,-13.79 34.02,-20.62"/>
<text text-anchor="middle" x="42.5" y="-51.8" font-family="Times,serif" font-size="14.00" fill="#5b00c0">rw</text>
</g>
<!-- T457&#45;&gt;T456 -->
<g id="edge2" class="edge">
<title>T457:f1&#45;&gt;T456:f2</title>
<path fill="none" stroke="#5b00c0" d="M149,-30C149,-51.47 167.51,-54.9 173.29,-70.74"/>
<polygon fill="#5b00c0" stroke="#5b00c0" points="169.91,-71.71 175,-81 176.81,-70.56 169.91,-71.71"/>
<text text-anchor="middle" x="177.5" y="-51.8" font-family="Times,serif" font-size="14.00" fill="#5b00c0">rw</text>
</g>
</g>
</svg>
