<?xml version="1.0" encoding="UTF-8" standalone="no"?>
<!DOCTYPE svg PUBLIC "-//W3C//DTD SVG 1.1//EN"
 "http://www.w3.org/Graphics/SVG/1.1/DTD/svg11.dtd">
<!-- Generated by graphviz version 2.43.0 (0)
 -->
<!-- Title: a_graph Pages: 1 -->
<svg width="638pt" height="119pt"
 viewBox="0.00 0.00 638.00 119.00" xmlns="http://www.w3.org/2000/svg" xmlns:xlink="http://www.w3.org/1999/xlink">
<g id="graph0" class="graph" transform="scale(1 1) rotate(0) translate(4 115)">
<title>a_graph</title>
<polygon fill="white" stroke="transparent" points="-4,4 -4,-115 634,-115 634,4 -4,4"/>
<!-- T809 -->
<g id="node1" class="node">
<title>T809</title>
<polygon fill="none" stroke="#0058ad" points="131,-81.5 131,-110.5 630,-110.5 630,-81.5 131,-81.5"/>
<text text-anchor="middle" x="166" y="-92.3" font-family="Times,serif" font-size="14.00" fill="#0058ad">a 342 1</text>
<polyline fill="none" stroke="#0058ad" points="201,-81.5 201,-110.5 "/>
<text text-anchor="middle" x="236" y="-92.3" font-family="Times,serif" font-size="14.00" fill="#0058ad">a 344 1</text>
<polyline fill="none" stroke="#0058ad" points="271,-81.5 271,-110.5 "/>
<text text-anchor="middle" x="310.5" y="-92.3" font-family="Times,serif" font-size="14.00" fill="#0058ad">r 343 [1]</text>
<polyline fill="none" stroke="#0058ad" points="350,-81.5 350,-110.5 "/>
<text text-anchor="middle" x="385" y="-92.3" font-family="Times,serif" font-size="14.00" fill="#0058ad">a 342 2</text>
<polyline fill="none" stroke="#0058ad" points="420,-81.5 420,-110.5 "/>
<text text-anchor="middle" x="455" y="-92.3" font-family="Times,serif" font-size="14.00" fill="#0058ad">a 344 2</text>
<polyline fill="none" stroke="#0058ad" points="490,-81.5 490,-110.5 "/>
<text text-anchor="middle" x="525" y="-92.3" font-family="Times,serif" font-size="14.00" fill="#0058ad">a 342 3</text>
<polyline fill="none" stroke="#0058ad" points="560,-81.5 560,-110.5 "/>
<text text-anchor="middle" x="595" y="-92.3" font-family="Times,serif" font-size="14.00" fill="#0058ad">r 345 []</text>
</g>
<!-- T808 -->
<g id="node2" class="node">
<title>T808</title>
<polygon fill="none" stroke="#0058ad" points="0,-0.5 0,-29.5 359,-29.5 359,-0.5 0,-0.5"/>
<text text-anchor="middle" x="35" y="-11.3" font-family="Times,serif" font-size="14.00" fill="#0058ad">r 345 []</text>
<polyline fill="none" stroke="#0058ad" points="70,-0.5 70,-29.5 "/>
<text text-anchor="middle" x="109.5" y="-11.3" font-family="Times,serif" font-size="14.00" fill="#0058ad">r 343 [1]</text>
<polyline fill="none" stroke="#0058ad" points="149,-0.5 149,-29.5 "/>
<text text-anchor="middle" x="184" y="-11.3" font-family="Times,serif" font-size="14.00" fill="#0058ad">r 342 []</text>
<polyline fill="none" stroke="#0058ad" points="219,-0.5 219,-29.5 "/>
<text text-anchor="middle" x="254" y="-11.3" font-family="Times,serif" font-size="14.00" fill="#0058ad">a 343 2</text>
<polyline fill="none" stroke="#0058ad" points="289,-0.5 289,-29.5 "/>
<text text-anchor="middle" x="324" y="-11.3" font-family="Times,serif" font-size="14.00" fill="#0058ad">r 345 []</text>
</g>
<!-- T809&#45;&gt;T808 -->
<g id="edge1" class="edge">
<title>T809:f2&#45;&gt;T808:f3</title>
<path fill="none" stroke="#5b00c0" d="M310.5,-81C310.5,-51.28 266.86,-60.52 256.63,-39.94"/>
<polygon fill="#5b00c0" stroke="#5b00c0" points="260.02,-39.05 254.5,-30 253.17,-40.51 260.02,-39.05"/>
<text text-anchor="middle" x="309" y="-51.8" font-family="Times,serif" font-size="14.00" fill="#5b00c0">rw</text>
</g>
<!-- T808&#45;&gt;T809 -->
<g id="edge2" class="edge">
<title>T808:f2&#45;&gt;T809:f0</title>
<path fill="none" stroke="#5b00c0" d="M184.5,-30C184.5,-50.41 170.97,-55.47 166.75,-71.08"/>
<polygon fill="#5b00c0" stroke="#5b00c0" points="163.27,-70.64 165.5,-81 170.22,-71.51 163.27,-70.64"/>
<text text-anchor="middle" x="190" y="-51.8" font-family="Times,serif" font-size="14.00" fill="#5b00c0">rw</text>
</g>
</g>
</svg>
