<?xml version="1.0" encoding="UTF-8" standalone="no"?>
<!DOCTYPE svg PUBLIC "-//W3C//DTD SVG 1.1//EN"
 "http://www.w3.org/Graphics/SVG/1.1/DTD/svg11.dtd">
<!-- Generated by graphviz version 2.43.0 (0)
 -->
<!-- Title: a_graph Pages: 1 -->
<svg width="546pt" height="119pt"
 viewBox="0.00 0.00 546.00 119.00" xmlns="http://www.w3.org/2000/svg" xmlns:xlink="http://www.w3.org/1999/xlink">
<g id="graph0" class="graph" transform="scale(1 1) rotate(0) translate(4 115)">
<title>a_graph</title>
<polygon fill="white" stroke="transparent" points="-4,4 -4,-115 542,-115 542,4 -4,4"/>
<!-- T246 -->
<g id="node1" class="node">
<title>T246</title>
<polygon fill="none" stroke="#0058ad" points="0,-81.5 0,-110.5 538,-110.5 538,-81.5 0,-81.5"/>
<text text-anchor="middle" x="208" y="-92.3" font-family="Times,serif" font-size="14.00" fill="#0058ad">r 9 [1 2 3 4 5 6 7 8 9 10 11 14 15 16 17 18 19 20 21 23]</text>
<polyline fill="none" stroke="#0058ad" points="416,-81.5 416,-110.5 "/>
<text text-anchor="middle" x="446.5" y="-92.3" font-family="Times,serif" font-size="14.00" fill="#0058ad">a 11 3</text>
<polyline fill="none" stroke="#0058ad" points="477,-81.5 477,-110.5 "/>
<text text-anchor="middle" x="507.5" y="-92.3" font-family="Times,serif" font-size="14.00" fill="#0058ad">a 10 3</text>
</g>
<!-- T247 -->
<g id="node2" class="node">
<title>T247</title>
<polygon fill="none" stroke="#0058ad" points="220,-0.5 220,-29.5 412,-29.5 412,-0.5 220,-0.5"/>
<text text-anchor="middle" x="250.5" y="-11.3" font-family="Times,serif" font-size="14.00" fill="#0058ad">a 9 24</text>
<polyline fill="none" stroke="#0058ad" points="281,-0.5 281,-29.5 "/>
<text text-anchor="middle" x="311.5" y="-11.3" font-family="Times,serif" font-size="14.00" fill="#0058ad">a 9 25</text>
<polyline fill="none" stroke="#0058ad" points="342,-0.5 342,-29.5 "/>
<text text-anchor="middle" x="377" y="-11.3" font-family="Times,serif" font-size="14.00" fill="#0058ad">r 11 [1]</text>
</g>
<!-- T246&#45;&gt;T247 -->
<g id="edge1" class="edge">
<title>T246:f0&#45;&gt;T247:f0</title>
<path fill="none" stroke="#5b00c0" d="M208,-81C208,-55.54 239.58,-57.97 247.97,-39.91"/>
<polygon fill="#5b00c0" stroke="#5b00c0" points="251.43,-40.5 250,-30 244.57,-39.1 251.43,-40.5"/>
<text text-anchor="middle" x="250.5" y="-51.8" font-family="Times,serif" font-size="14.00" fill="#5b00c0">rw</text>
</g>
<!-- T247&#45;&gt;T246 -->
<g id="edge2" class="edge">
<title>T247:f2&#45;&gt;T246:f1</title>
<path fill="none" stroke="#5b00c0" d="M413,-15C442.65,-15 446.47,-41.64 446.94,-70.98"/>
<polygon fill="#5b00c0" stroke="#5b00c0" points="443.44,-71.02 447,-81 450.44,-70.98 443.44,-71.02"/>
<text text-anchor="middle" x="455.5" y="-51.8" font-family="Times,serif" font-size="14.00" fill="#5b00c0">rw</text>
</g>
</g>
</svg>
