<?xml version="1.0" encoding="UTF-8" standalone="no"?>
<!DOCTYPE svg PUBLIC "-//W3C//DTD SVG 1.1//EN"
 "http://www.w3.org/Graphics/SVG/1.1/DTD/svg11.dtd">
<!-- Generated by graphviz version 2.43.0 (0)
 -->
<!-- Title: a_graph Pages: 1 -->
<svg width="1313pt" height="119pt"
 viewBox="0.00 0.00 1313.00 119.00" xmlns="http://www.w3.org/2000/svg" xmlns:xlink="http://www.w3.org/1999/xlink">
<g id="graph0" class="graph" transform="scale(1 1) rotate(0) translate(4 115)">
<title>a_graph</title>
<polygon fill="white" stroke="transparent" points="-4,4 -4,-115 1309,-115 1309,4 -4,4"/>
<!-- T938 -->
<g id="node1" class="node">
<title>T938</title>
<polygon fill="none" stroke="#0058ad" points="0,-81.5 0,-110.5 1305,-110.5 1305,-81.5 0,-81.5"/>
<text text-anchor="middle" x="122.5" y="-92.3" font-family="Times,serif" font-size="14.00" fill="#0058ad">r 36 [1 2 3 4 5 6 7 8 9 10 11 12]</text>
<polyline fill="none" stroke="#0058ad" points="245,-81.5 245,-110.5 "/>
<text text-anchor="middle" x="307" y="-92.3" font-family="Times,serif" font-size="14.00" fill="#0058ad">r 35 [1 2 3 4 5]</text>
<polyline fill="none" stroke="#0058ad" points="369,-81.5 369,-110.5 "/>
<text text-anchor="middle" x="491.5" y="-92.3" font-family="Times,serif" font-size="14.00" fill="#0058ad">r 36 [1 2 3 4 5 6 7 8 9 10 11 12]</text>
<polyline fill="none" stroke="#0058ad" points="614,-81.5 614,-110.5 "/>
<text text-anchor="middle" x="736.5" y="-92.3" font-family="Times,serif" font-size="14.00" fill="#0058ad">r 36 [1 2 3 4 5 6 7 8 9 10 11 12]</text>
<polyline fill="none" stroke="#0058ad" points="859,-81.5 859,-110.5 "/>
<text text-anchor="middle" x="889.5" y="-92.3" font-family="Times,serif" font-size="14.00" fill="#0058ad">r 37 []</text>
<polyline fill="none" stroke="#0058ad" points="920,-81.5 920,-110.5 "/>
<text text-anchor="middle" x="1042.5" y="-92.3" font-family="Times,serif" font-size="14.00" fill="#0058ad">r 36 [1 2 3 4 5 6 7 8 9 10 11 12]</text>
<polyline fill="none" stroke="#0058ad" points="1165,-81.5 1165,-110.5 "/>
<text text-anchor="middle" x="1200" y="-92.3" font-family="Times,serif" font-size="14.00" fill="#0058ad">a 36 13</text>
<polyline fill="none" stroke="#0058ad" points="1235,-81.5 1235,-110.5 "/>
<text text-anchor="middle" x="1270" y="-92.3" font-family="Times,serif" font-size="14.00" fill="#0058ad">a 36 14</text>
</g>
<!-- T937 -->
<g id="node2" class="node">
<title>T937</title>
<polygon fill="none" stroke="#0058ad" points="794.5,-0.5 794.5,-29.5 1224.5,-29.5 1224.5,-0.5 794.5,-0.5"/>
<text text-anchor="middle" x="856.5" y="-11.3" font-family="Times,serif" font-size="14.00" fill="#0058ad">r 35 [1 2 3 4 5]</text>
<polyline fill="none" stroke="#0058ad" points="918.5,-0.5 918.5,-29.5 "/>
<text text-anchor="middle" x="949" y="-11.3" font-family="Times,serif" font-size="14.00" fill="#0058ad">a 37 1</text>
<polyline fill="none" stroke="#0058ad" points="979.5,-0.5 979.5,-29.5 "/>
<text text-anchor="middle" x="1102" y="-11.3" font-family="Times,serif" font-size="14.00" fill="#0058ad">r 36 [1 2 3 4 5 6 7 8 9 10 11 12]</text>
</g>
<!-- T938&#45;&gt;T937 -->
<g id="edge1" class="edge">
<title>T938:f4&#45;&gt;T937:f1</title>
<path fill="none" stroke="#5b00c0" d="M889.5,-81C889.5,-50.27 935.89,-61.19 946.4,-39.89"/>
<polygon fill="#5b00c0" stroke="#5b00c0" points="949.85,-40.51 948.5,-30 943,-39.06 949.85,-40.51"/>
<text text-anchor="middle" x="949" y="-51.8" font-family="Times,serif" font-size="14.00" fill="#5b00c0">rw</text>
</g>
<!-- T937&#45;&gt;T938 -->
<g id="edge2" class="edge">
<title>T937:f2&#45;&gt;T938:f6</title>
<path fill="none" stroke="#5b00c0" d="M1225.5,-15C1253.56,-15 1211.41,-42.71 1202.21,-71.01"/>
<polygon fill="#5b00c0" stroke="#5b00c0" points="1198.74,-70.55 1200.5,-81 1205.64,-71.73 1198.74,-70.55"/>
<text text-anchor="middle" x="1223" y="-51.8" font-family="Times,serif" font-size="14.00" fill="#5b00c0">rw</text>
</g>
</g>
</svg>
