<?xml version="1.0" encoding="UTF-8" standalone="no"?>
<!DOCTYPE svg PUBLIC "-//W3C//DTD SVG 1.1//EN"
 "http://www.w3.org/Graphics/SVG/1.1/DTD/svg11.dtd">
<!-- Generated by graphviz version 2.43.0 (0)
 -->
<!-- Title: a_graph Pages: 1 -->
<svg width="911pt" height="119pt"
 viewBox="0.00 0.00 911.00 119.00" xmlns="http://www.w3.org/2000/svg" xmlns:xlink="http://www.w3.org/1999/xlink">
<g id="graph0" class="graph" transform="scale(1 1) rotate(0) translate(4 115)">
<title>a_graph</title>
<polygon fill="white" stroke="transparent" points="-4,4 -4,-115 907,-115 907,4 -4,4"/>
<!-- T3402 -->
<g id="node1" class="node">
<title>T3402</title>
<polygon fill="none" stroke="#0058ad" points="0,-81.5 0,-110.5 903,-110.5 903,-81.5 0,-81.5"/>
<text text-anchor="middle" x="206" y="-92.3" font-family="Times,serif" font-size="14.00" fill="#0058ad">r 121 [1 2 3 4 5 6 7 9 10 15 16 20 28 29 30 31 32 8 11]</text>
<polyline fill="none" stroke="#0058ad" points="412,-81.5 412,-110.5 "/>
<text text-anchor="middle" x="618" y="-92.3" font-family="Times,serif" font-size="14.00" fill="#0058ad">r 121 [1 2 3 4 5 6 7 9 10 15 16 20 28 29 30 31 32 8 11]</text>
<polyline fill="none" stroke="#0058ad" points="824,-81.5 824,-110.5 "/>
<text text-anchor="middle" x="863.5" y="-92.3" font-family="Times,serif" font-size="14.00" fill="#0058ad">a 120 13</text>
</g>
<!-- T3403 -->
<g id="node2" class="node">
<title>T3403</title>
<polygon fill="none" stroke="#0058ad" points="70.5,-0.5 70.5,-29.5 820.5,-29.5 820.5,-0.5 70.5,-0.5"/>
<text text-anchor="middle" x="366.5" y="-11.3" font-family="Times,serif" font-size="14.00" fill="#0058ad">r 120 [1 2 3 4 5 6 7 8 9 10 11 14 15 16 20 21 23 24 25 26 27 28 29 30 31 32 12]</text>
<polyline fill="none" stroke="#0058ad" points="662.5,-0.5 662.5,-29.5 "/>
<text text-anchor="middle" x="702" y="-11.3" font-family="Times,serif" font-size="14.00" fill="#0058ad">a 121 12</text>
<polyline fill="none" stroke="#0058ad" points="741.5,-0.5 741.5,-29.5 "/>
<text text-anchor="middle" x="781" y="-11.3" font-family="Times,serif" font-size="14.00" fill="#0058ad">a 121 13</text>
</g>
<!-- T3402&#45;&gt;T3403 -->
<g id="edge1" class="edge">
<title>T3402:f0&#45;&gt;T3403:f1</title>
<path fill="none" stroke="#5b00c0" d="M205.5,-81C205.5,-55.36 629.67,-57.26 694.29,-35.81"/>
<polygon fill="#5b00c0" stroke="#5b00c0" points="696.36,-38.63 702.5,-30 692.31,-32.92 696.36,-38.63"/>
<text text-anchor="middle" x="604" y="-51.8" font-family="Times,serif" font-size="14.00" fill="#5b00c0">rw</text>
</g>
<!-- T3403&#45;&gt;T3402 -->
<g id="edge2" class="edge">
<title>T3403:f0&#45;&gt;T3402:f2</title>
<path fill="none" stroke="#5b00c0" d="M366.5,-30C366.5,-43.98 603.59,-46.57 617.5,-48 723.7,-58.92 854.74,23.71 863.08,-70.94"/>
<polygon fill="#5b00c0" stroke="#5b00c0" points="859.59,-71.15 863.5,-81 866.58,-70.86 859.59,-71.15"/>
<text text-anchor="middle" x="870" y="-51.8" font-family="Times,serif" font-size="14.00" fill="#5b00c0">rw</text>
</g>
</g>
</svg>
