<?xml version="1.0" encoding="UTF-8" standalone="no"?>
<!DOCTYPE svg PUBLIC "-//W3C//DTD SVG 1.1//EN"
 "http://www.w3.org/Graphics/SVG/1.1/DTD/svg11.dtd">
<!-- Generated by graphviz version 2.43.0 (0)
 -->
<!-- Title: a_graph Pages: 1 -->
<svg width="948pt" height="119pt"
 viewBox="0.00 0.00 948.00 119.00" xmlns="http://www.w3.org/2000/svg" xmlns:xlink="http://www.w3.org/1999/xlink">
<g id="graph0" class="graph" transform="scale(1 1) rotate(0) translate(4 115)">
<title>a_graph</title>
<polygon fill="white" stroke="transparent" points="-4,4 -4,-115 944,-115 944,4 -4,4"/>
<!-- T1528 -->
<g id="node1" class="node">
<title>T1528</title>
<polygon fill="none" stroke="#0058ad" points="229.5,-81.5 229.5,-110.5 430.5,-110.5 430.5,-81.5 229.5,-81.5"/>
<text text-anchor="middle" x="264.5" y="-92.3" font-family="Times,serif" font-size="14.00" fill="#0058ad">a 55 32</text>
<polyline fill="none" stroke="#0058ad" points="299.5,-81.5 299.5,-110.5 "/>
<text text-anchor="middle" x="330" y="-92.3" font-family="Times,serif" font-size="14.00" fill="#0058ad">r 57 []</text>
<polyline fill="none" stroke="#0058ad" points="360.5,-81.5 360.5,-110.5 "/>
<text text-anchor="middle" x="395.5" y="-92.3" font-family="Times,serif" font-size="14.00" fill="#0058ad">a 51 29</text>
</g>
<!-- T1529 -->
<g id="node2" class="node">
<title>T1529</title>
<polygon fill="none" stroke="#0058ad" points="0,-0.5 0,-29.5 940,-29.5 940,-0.5 0,-0.5"/>
<text text-anchor="middle" x="30.5" y="-11.3" font-family="Times,serif" font-size="14.00" fill="#0058ad">r 57 []</text>
<polyline fill="none" stroke="#0058ad" points="61,-0.5 61,-29.5 "/>
<text text-anchor="middle" x="91.5" y="-11.3" font-family="Times,serif" font-size="14.00" fill="#0058ad">a 57 1</text>
<polyline fill="none" stroke="#0058ad" points="122,-0.5 122,-29.5 "/>
<text text-anchor="middle" x="157" y="-11.3" font-family="Times,serif" font-size="14.00" fill="#0058ad">a 56 11</text>
<polyline fill="none" stroke="#0058ad" points="192,-0.5 192,-29.5 "/>
<text text-anchor="middle" x="227" y="-11.3" font-family="Times,serif" font-size="14.00" fill="#0058ad">r 57 [1]</text>
<polyline fill="none" stroke="#0058ad" points="262,-0.5 262,-29.5 "/>
<text text-anchor="middle" x="540" y="-11.3" font-family="Times,serif" font-size="14.00" fill="#0058ad">r 51 [1 2 4 5 7 8 9 11 12 13 14 15 16 17 18 19 20 21 22 23 24 25 26 27 28]</text>
<polyline fill="none" stroke="#0058ad" points="818,-0.5 818,-29.5 "/>
<text text-anchor="middle" x="848.5" y="-11.3" font-family="Times,serif" font-size="14.00" fill="#0058ad">a 57 2</text>
<polyline fill="none" stroke="#0058ad" points="879,-0.5 879,-29.5 "/>
<text text-anchor="middle" x="909.5" y="-11.3" font-family="Times,serif" font-size="14.00" fill="#0058ad">a 57 3</text>
</g>
<!-- T1528&#45;&gt;T1529 -->
<g id="edge1" class="edge">
<title>T1528:f1&#45;&gt;T1529:f1</title>
<path fill="none" stroke="#5b00c0" d="M330,-81C330,23.9 107.06,-127.57 91.82,-40.2"/>
<polygon fill="#5b00c0" stroke="#5b00c0" points="95.29,-39.69 91,-30 88.31,-40.25 95.29,-39.69"/>
<text text-anchor="middle" x="335.5" y="-51.8" font-family="Times,serif" font-size="14.00" fill="#5b00c0">rw</text>
</g>
<!-- T1529&#45;&gt;T1528 -->
<g id="edge2" class="edge">
<title>T1529:f4&#45;&gt;T1528:f2</title>
<path fill="none" stroke="#5b00c0" d="M540,-30C540,-82.85 494.33,-94.65 442.16,-95.88"/>
<polygon fill="#5b00c0" stroke="#5b00c0" points="441.96,-92.39 432,-96 442.04,-99.39 441.96,-92.39"/>
<text text-anchor="middle" x="546.5" y="-51.8" font-family="Times,serif" font-size="14.00" fill="#5b00c0">rw</text>
</g>
</g>
</svg>
