<?xml version="1.0" encoding="UTF-8" standalone="no"?>
<!DOCTYPE svg PUBLIC "-//W3C//DTD SVG 1.1//EN"
 "http://www.w3.org/Graphics/SVG/1.1/DTD/svg11.dtd">
<!-- Generated by graphviz version 2.43.0 (0)
 -->
<!-- Title: a_graph Pages: 1 -->
<svg width="1375pt" height="119pt"
 viewBox="0.00 0.00 1374.50 119.00" xmlns="http://www.w3.org/2000/svg" xmlns:xlink="http://www.w3.org/1999/xlink">
<g id="graph0" class="graph" transform="scale(1 1) rotate(0) translate(4 115)">
<title>a_graph</title>
<polygon fill="white" stroke="transparent" points="-4,4 -4,-115 1370.5,-115 1370.5,4 -4,4"/>
<!-- T203 -->
<g id="node1" class="node">
<title>T203</title>
<polygon fill="none" stroke="#0058ad" points="118.5,-81.5 118.5,-110.5 1366.5,-110.5 1366.5,-81.5 118.5,-81.5"/>
<text text-anchor="middle" x="149" y="-92.3" font-family="Times,serif" font-size="14.00" fill="#0058ad">a 7 31</text>
<polyline fill="none" stroke="#0058ad" points="179.5,-81.5 179.5,-110.5 "/>
<text text-anchor="middle" x="250.5" y="-92.3" font-family="Times,serif" font-size="14.00" fill="#0058ad">r 8 [1 2 3 4 5 6 7]</text>
<polyline fill="none" stroke="#0058ad" points="321.5,-81.5 321.5,-110.5 "/>
<text text-anchor="middle" x="352" y="-92.3" font-family="Times,serif" font-size="14.00" fill="#0058ad">a 7 32</text>
<polyline fill="none" stroke="#0058ad" points="382.5,-81.5 382.5,-110.5 "/>
<text text-anchor="middle" x="408.5" y="-92.3" font-family="Times,serif" font-size="14.00" fill="#0058ad">r 9 []</text>
<polyline fill="none" stroke="#0058ad" points="434.5,-81.5 434.5,-110.5 "/>
<text text-anchor="middle" x="460.5" y="-92.3" font-family="Times,serif" font-size="14.00" fill="#0058ad">r 9 []</text>
<polyline fill="none" stroke="#0058ad" points="486.5,-81.5 486.5,-110.5 "/>
<text text-anchor="middle" x="557.5" y="-92.3" font-family="Times,serif" font-size="14.00" fill="#0058ad">r 8 [1 2 3 4 5 6 7]</text>
<polyline fill="none" stroke="#0058ad" points="628.5,-81.5 628.5,-110.5 "/>
<text text-anchor="middle" x="971.5" y="-92.3" font-family="Times,serif" font-size="14.00" fill="#0058ad">r 7 [1 2 3 4 5 6 7 8 9 10 11 12 13 14 15 16 17 18 19 20 21 22 23 24 25 26 27 28 29 30 31 32]</text>
<polyline fill="none" stroke="#0058ad" points="1314.5,-81.5 1314.5,-110.5 "/>
<text text-anchor="middle" x="1340.5" y="-92.3" font-family="Times,serif" font-size="14.00" fill="#0058ad">a 9 1</text>
</g>
<!-- T204 -->
<g id="node2" class="node">
<title>T204</title>
<polygon fill="none" stroke="#0058ad" points="0,-0.5 0,-29.5 693,-29.5 693,-0.5 0,-0.5"/>
<text text-anchor="middle" x="26" y="-11.3" font-family="Times,serif" font-size="14.00" fill="#0058ad">a 8 8</text>
<polyline fill="none" stroke="#0058ad" points="52,-0.5 52,-29.5 "/>
<text text-anchor="middle" x="372.5" y="-11.3" font-family="Times,serif" font-size="14.00" fill="#0058ad">r 7 [1 2 3 4 5 6 7 8 9 10 11 12 13 14 15 16 17 18 19 20 21 22 23 24 25 26 27 28 29 30]</text>
</g>
<!-- T203&#45;&gt;T204 -->
<g id="edge1" class="edge">
<title>T203:f1&#45;&gt;T204:f0</title>
<path fill="none" stroke="#5b00c0" d="M250.5,-81C250.5,-49 217.13,-57.26 186.5,-48 171.69,-43.52 63.43,-46.74 33.28,-36.31"/>
<polygon fill="#5b00c0" stroke="#5b00c0" points="35.47,-33.58 25.5,-30 31.06,-39.02 35.47,-33.58"/>
<text text-anchor="middle" x="252" y="-51.8" font-family="Times,serif" font-size="14.00" fill="#5b00c0">rw</text>
</g>
<!-- T204&#45;&gt;T203 -->
<g id="edge2" class="edge">
<title>T204:f1&#45;&gt;T203:f0</title>
<path fill="none" stroke="#5b00c0" d="M372.5,-30C372.5,-53.31 182.54,-34.55 163.5,-48 153.43,-55.12 149.98,-61.24 148.93,-70.94"/>
<polygon fill="#5b00c0" stroke="#5b00c0" points="145.43,-70.86 148.5,-81 152.42,-71.16 145.43,-70.86"/>
<text text-anchor="middle" x="173" y="-51.8" font-family="Times,serif" font-size="14.00" fill="#5b00c0">rw</text>
</g>
</g>
</svg>
