<?xml version="1.0" encoding="UTF-8" standalone="no"?>
<!DOCTYPE svg PUBLIC "-//W3C//DTD SVG 1.1//EN"
 "http://www.w3.org/Graphics/SVG/1.1/DTD/svg11.dtd">
<!-- Generated by graphviz version 2.43.0 (0)
 -->
<!-- Title: a_graph Pages: 1 -->
<svg width="1034pt" height="119pt"
 viewBox="0.00 0.00 1033.50 119.00" xmlns="http://www.w3.org/2000/svg" xmlns:xlink="http://www.w3.org/1999/xlink">
<g id="graph0" class="graph" transform="scale(1 1) rotate(0) translate(4 115)">
<title>a_graph</title>
<polygon fill="white" stroke="transparent" points="-4,4 -4,-115 1029.5,-115 1029.5,4 -4,4"/>
<!-- T1537 -->
<g id="node1" class="node">
<title>T1537</title>
<polygon fill="none" stroke="#0058ad" points="239.5,-81.5 239.5,-110.5 1025.5,-110.5 1025.5,-81.5 239.5,-81.5"/>
<text text-anchor="middle" x="301.5" y="-92.3" font-family="Times,serif" font-size="14.00" fill="#0058ad">r 57 [1 2 3 4 5]</text>
<polyline fill="none" stroke="#0058ad" points="363.5,-81.5 363.5,-110.5 "/>
<text text-anchor="middle" x="398.5" y="-92.3" font-family="Times,serif" font-size="14.00" fill="#0058ad">a 56 14</text>
<polyline fill="none" stroke="#0058ad" points="433.5,-81.5 433.5,-110.5 "/>
<text text-anchor="middle" x="729.5" y="-92.3" font-family="Times,serif" font-size="14.00" fill="#0058ad">r 51 [1 2 4 5 7 8 9 11 12 13 14 15 16 17 18 19 20 21 22 23 24 25 26 27 28 29 6]</text>
</g>
<!-- T1542 -->
<g id="node2" class="node">
<title>T1542</title>
<polygon fill="none" stroke="#0058ad" points="0,-0.5 0,-29.5 859,-29.5 859,-0.5 0,-0.5"/>
<text text-anchor="middle" x="134" y="-11.3" font-family="Times,serif" font-size="14.00" fill="#0058ad">r 56 [1 2 3 4 5 6 7 8 9 10 11 12 13]</text>
<polyline fill="none" stroke="#0058ad" points="268,-0.5 268,-29.5 "/>
<text text-anchor="middle" x="402" y="-11.3" font-family="Times,serif" font-size="14.00" fill="#0058ad">r 56 [1 2 3 4 5 6 7 8 9 10 11 12 13]</text>
<polyline fill="none" stroke="#0058ad" points="536,-0.5 536,-29.5 "/>
<text text-anchor="middle" x="566.5" y="-11.3" font-family="Times,serif" font-size="14.00" fill="#0058ad">a 57 6</text>
<polyline fill="none" stroke="#0058ad" points="597,-0.5 597,-29.5 "/>
<text text-anchor="middle" x="632" y="-11.3" font-family="Times,serif" font-size="14.00" fill="#0058ad">a 51 30</text>
<polyline fill="none" stroke="#0058ad" points="667,-0.5 667,-29.5 "/>
<text text-anchor="middle" x="697.5" y="-11.3" font-family="Times,serif" font-size="14.00" fill="#0058ad">a 57 7</text>
<polyline fill="none" stroke="#0058ad" points="728,-0.5 728,-29.5 "/>
<text text-anchor="middle" x="763" y="-11.3" font-family="Times,serif" font-size="14.00" fill="#0058ad">a 51 31</text>
<polyline fill="none" stroke="#0058ad" points="798,-0.5 798,-29.5 "/>
<text text-anchor="middle" x="828.5" y="-11.3" font-family="Times,serif" font-size="14.00" fill="#0058ad">a 57 8</text>
</g>
<!-- T1537&#45;&gt;T1542 -->
<g id="edge1" class="edge">
<title>T1537:f0&#45;&gt;T1542:f2</title>
<path fill="none" stroke="#5b00c0" d="M301.5,-81C301.5,-57.26 321.4,-56.66 343.5,-48 363.93,-40 522.09,-51.47 558.87,-37.16"/>
<polygon fill="#5b00c0" stroke="#5b00c0" points="561.61,-39.4 566.5,-30 556.81,-34.3 561.61,-39.4"/>
<text text-anchor="middle" x="353" y="-51.8" font-family="Times,serif" font-size="14.00" fill="#5b00c0">rw</text>
</g>
<!-- T1542&#45;&gt;T1537 -->
<g id="edge2" class="edge">
<title>T1542:f0&#45;&gt;T1537:f1</title>
<path fill="none" stroke="#5b00c0" d="M133.5,-30C133.5,-55.52 339.09,-37.82 362.5,-48 378.83,-55.1 392.59,-58.15 397.01,-71"/>
<polygon fill="#5b00c0" stroke="#5b00c0" points="393.57,-71.62 398.5,-81 400.49,-70.59 393.57,-71.62"/>
<text text-anchor="middle" x="402" y="-51.8" font-family="Times,serif" font-size="14.00" fill="#5b00c0">rw</text>
</g>
</g>
</svg>
