<?xml version="1.0" encoding="UTF-8" standalone="no"?>
<!DOCTYPE svg PUBLIC "-//W3C//DTD SVG 1.1//EN"
 "http://www.w3.org/Graphics/SVG/1.1/DTD/svg11.dtd">
<!-- Generated by graphviz version 2.43.0 (0)
 -->
<!-- Title: a_graph Pages: 1 -->
<svg width="787pt" height="119pt"
 viewBox="0.00 0.00 787.00 119.00" xmlns="http://www.w3.org/2000/svg" xmlns:xlink="http://www.w3.org/1999/xlink">
<g id="graph0" class="graph" transform="scale(1 1) rotate(0) translate(4 115)">
<title>a_graph</title>
<polygon fill="white" stroke="transparent" points="-4,4 -4,-115 783,-115 783,4 -4,4"/>
<!-- T3220 -->
<g id="node1" class="node">
<title>T3220</title>
<polygon fill="none" stroke="#0058ad" points="0,-81.5 0,-110.5 779,-110.5 779,-81.5 0,-81.5"/>
<text text-anchor="middle" x="39.5" y="-92.3" font-family="Times,serif" font-size="14.00" fill="#0058ad">a 120 13</text>
<polyline fill="none" stroke="#0058ad" points="79,-81.5 79,-110.5 "/>
<text text-anchor="middle" x="217.5" y="-92.3" font-family="Times,serif" font-size="14.00" fill="#0058ad">r 120 [1 2 3 4 5 6 7 8 9 10 11 12 13]</text>
<polyline fill="none" stroke="#0058ad" points="356,-81.5 356,-110.5 "/>
<text text-anchor="middle" x="429" y="-92.3" font-family="Times,serif" font-size="14.00" fill="#0058ad">r 122 [1 2 3 4 5 6]</text>
<polyline fill="none" stroke="#0058ad" points="502,-81.5 502,-110.5 "/>
<text text-anchor="middle" x="640.5" y="-92.3" font-family="Times,serif" font-size="14.00" fill="#0058ad">r 120 [1 2 3 4 5 6 7 8 9 10 11 12 13]</text>
</g>
<!-- T3221 -->
<g id="node2" class="node">
<title>T3221</title>
<polygon fill="none" stroke="#0058ad" points="31.5,-0.5 31.5,-29.5 585.5,-29.5 585.5,-0.5 31.5,-0.5"/>
<text text-anchor="middle" x="66.5" y="-11.3" font-family="Times,serif" font-size="14.00" fill="#0058ad">a 122 7</text>
<polyline fill="none" stroke="#0058ad" points="101.5,-0.5 101.5,-29.5 "/>
<text text-anchor="middle" x="228.5" y="-11.3" font-family="Times,serif" font-size="14.00" fill="#0058ad">r 120 [1 2 3 4 5 6 7 8 9 10 11 12]</text>
<polyline fill="none" stroke="#0058ad" points="355.5,-0.5 355.5,-29.5 "/>
<text text-anchor="middle" x="435.5" y="-11.3" font-family="Times,serif" font-size="14.00" fill="#0058ad">r 122 [1 2 3 4 5 6 7]</text>
<polyline fill="none" stroke="#0058ad" points="515.5,-0.5 515.5,-29.5 "/>
<text text-anchor="middle" x="550.5" y="-11.3" font-family="Times,serif" font-size="14.00" fill="#0058ad">a 122 8</text>
</g>
<!-- T3220&#45;&gt;T3221 -->
<g id="edge1" class="edge">
<title>T3220:f2&#45;&gt;T3221:f0</title>
<path fill="none" stroke="#5b00c0" d="M429.5,-81C429.5,-62.5 130.09,-52.34 75.12,-35.37"/>
<polygon fill="#5b00c0" stroke="#5b00c0" points="76.84,-32.32 66.5,-30 73.14,-38.26 76.84,-32.32"/>
<text text-anchor="middle" x="341" y="-51.8" font-family="Times,serif" font-size="14.00" fill="#5b00c0">rw</text>
</g>
<!-- T3221&#45;&gt;T3220 -->
<g id="edge2" class="edge">
<title>T3221:f1&#45;&gt;T3220:f0</title>
<path fill="none" stroke="#5b00c0" d="M228.5,-30C228.5,-49.96 159.8,-42.89 140.5,-48 98.59,-59.09 48.52,-37.83 40.58,-70.8"/>
<polygon fill="#5b00c0" stroke="#5b00c0" points="37.07,-70.69 39.5,-81 44.04,-71.42 37.07,-70.69"/>
<text text-anchor="middle" x="150" y="-51.8" font-family="Times,serif" font-size="14.00" fill="#5b00c0">rw</text>
</g>
</g>
</svg>
