<?xml version="1.0" encoding="UTF-8" standalone="no"?>
<!DOCTYPE svg PUBLIC "-//W3C//DTD SVG 1.1//EN"
 "http://www.w3.org/Graphics/SVG/1.1/DTD/svg11.dtd">
<!-- Generated by graphviz version 2.43.0 (0)
 -->
<!-- Title: a_graph Pages: 1 -->
<svg width="2708pt" height="119pt"
 viewBox="0.00 0.00 2708.00 119.00" xmlns="http://www.w3.org/2000/svg" xmlns:xlink="http://www.w3.org/1999/xlink">
<g id="graph0" class="graph" transform="scale(1 1) rotate(0) translate(4 115)">
<title>a_graph</title>
<polygon fill="white" stroke="transparent" points="-4,4 -4,-115 2704,-115 2704,4 -4,4"/>
<!-- T1633 -->
<g id="node1" class="node">
<title>T1633</title>
<polygon fill="none" stroke="#0058ad" points="0,-81.5 0,-110.5 2700,-110.5 2700,-81.5 0,-81.5"/>
<text text-anchor="middle" x="219.5" y="-92.3" font-family="Times,serif" font-size="14.00" fill="#0058ad">r 60 [1 2 3 4 5 10 11 12 13 14 15 16 17 18 19 20 21 22 23]</text>
<polyline fill="none" stroke="#0058ad" points="439,-81.5 439,-110.5 "/>
<text text-anchor="middle" x="658.5" y="-92.3" font-family="Times,serif" font-size="14.00" fill="#0058ad">r 60 [1 2 3 4 5 10 11 12 13 14 15 16 17 18 19 20 21 22 23]</text>
<polyline fill="none" stroke="#0058ad" points="878,-81.5 878,-110.5 "/>
<text text-anchor="middle" x="960" y="-92.3" font-family="Times,serif" font-size="14.00" fill="#0058ad">r 61 [1 2 3 4 5 6 7 8]</text>
<polyline fill="none" stroke="#0058ad" points="1042,-81.5 1042,-110.5 "/>
<text text-anchor="middle" x="1077" y="-92.3" font-family="Times,serif" font-size="14.00" fill="#0058ad">a 60 24</text>
<polyline fill="none" stroke="#0058ad" points="1112,-81.5 1112,-110.5 "/>
<text text-anchor="middle" x="1414.5" y="-92.3" font-family="Times,serif" font-size="14.00" fill="#0058ad">r 56 [1 2 3 4 5 6 7 8 9 10 11 12 13 14 15 16 17 18 20 21 22 23 24 25 26 27 28 29]</text>
<polyline fill="none" stroke="#0058ad" points="1717,-81.5 1717,-110.5 "/>
<text text-anchor="middle" x="1947.5" y="-92.3" font-family="Times,serif" font-size="14.00" fill="#0058ad">r 60 [1 2 3 4 5 10 11 12 13 14 15 16 17 18 19 20 21 22 23 24]</text>
<polyline fill="none" stroke="#0058ad" points="2178,-81.5 2178,-110.5 "/>
<text text-anchor="middle" x="2208.5" y="-92.3" font-family="Times,serif" font-size="14.00" fill="#0058ad">a 61 9</text>
<polyline fill="none" stroke="#0058ad" points="2239,-81.5 2239,-110.5 "/>
<text text-anchor="middle" x="2469.5" y="-92.3" font-family="Times,serif" font-size="14.00" fill="#0058ad">r 60 [1 2 3 4 5 10 11 12 13 14 15 16 17 18 19 20 21 22 23 24]</text>
</g>
<!-- T1632 -->
<g id="node2" class="node">
<title>T1632</title>
<polygon fill="none" stroke="#0058ad" points="909.5,-0.5 909.5,-29.5 1418.5,-29.5 1418.5,-0.5 909.5,-0.5"/>
<text text-anchor="middle" x="1129" y="-11.3" font-family="Times,serif" font-size="14.00" fill="#0058ad">r 60 [1 2 3 4 5 10 11 12 13 14 15 16 17 18 19 20 21 22 23]</text>
<polyline fill="none" stroke="#0058ad" points="1348.5,-0.5 1348.5,-29.5 "/>
<text text-anchor="middle" x="1383.5" y="-11.3" font-family="Times,serif" font-size="14.00" fill="#0058ad">a 56 30</text>
</g>
<!-- T1633&#45;&gt;T1632 -->
<g id="edge1" class="edge">
<title>T1633:f4&#45;&gt;T1632:f1</title>
<path fill="none" stroke="#5b00c0" d="M1415,-81C1415,-58.41 1392.52,-56.55 1385.85,-40.11"/>
<polygon fill="#5b00c0" stroke="#5b00c0" points="1389.24,-39.21 1384,-30 1382.35,-40.47 1389.24,-39.21"/>
<text text-anchor="middle" x="1416.5" y="-51.8" font-family="Times,serif" font-size="14.00" fill="#5b00c0">rw</text>
</g>
<!-- T1632&#45;&gt;T1633 -->
<g id="edge2" class="edge">
<title>T1632:f0&#45;&gt;T1633:f3</title>
<path fill="none" stroke="#5b00c0" d="M1129,-30C1129,-58.45 1088.83,-51.28 1079.1,-71.1"/>
<polygon fill="#5b00c0" stroke="#5b00c0" points="1075.66,-70.49 1077,-81 1082.5,-71.95 1075.66,-70.49"/>
<text text-anchor="middle" x="1128.5" y="-51.8" font-family="Times,serif" font-size="14.00" fill="#5b00c0">rw</text>
</g>
</g>
</svg>
