<?xml version="1.0" encoding="UTF-8" standalone="no"?>
<!DOCTYPE svg PUBLIC "-//W3C//DTD SVG 1.1//EN"
 "http://www.w3.org/Graphics/SVG/1.1/DTD/svg11.dtd">
<!-- Generated by graphviz version 2.43.0 (0)
 -->
<!-- Title: a_graph Pages: 1 -->
<svg width="1171pt" height="119pt"
 viewBox="0.00 0.00 1171.00 119.00" xmlns="http://www.w3.org/2000/svg" xmlns:xlink="http://www.w3.org/1999/xlink">
<g id="graph0" class="graph" transform="scale(1 1) rotate(0) translate(4 115)">
<title>a_graph</title>
<polygon fill="white" stroke="transparent" points="-4,4 -4,-115 1167,-115 1167,4 -4,4"/>
<!-- T802 -->
<g id="node1" class="node">
<title>T802</title>
<polygon fill="none" stroke="#0058ad" points="0,-81.5 0,-110.5 945,-110.5 945,-81.5 0,-81.5"/>
<text text-anchor="middle" x="190" y="-92.3" font-family="Times,serif" font-size="14.00" fill="#0058ad">r 30 [1 2 3 4 5 6 7 8 9 10 11 12 13 14 15 16 17 18]</text>
<polyline fill="none" stroke="#0058ad" points="380,-81.5 380,-110.5 "/>
<text text-anchor="middle" x="415" y="-92.3" font-family="Times,serif" font-size="14.00" fill="#0058ad">r 32 [2]</text>
<polyline fill="none" stroke="#0058ad" points="450,-81.5 450,-110.5 "/>
<text text-anchor="middle" x="662.5" y="-92.3" font-family="Times,serif" font-size="14.00" fill="#0058ad">r 29 [1 2 3 4 5 6 7 8 9 10 11 12 13 14 15 16 17 18 19 20]</text>
<polyline fill="none" stroke="#0058ad" points="875,-81.5 875,-110.5 "/>
<text text-anchor="middle" x="910" y="-92.3" font-family="Times,serif" font-size="14.00" fill="#0058ad">a 30 19</text>
</g>
<!-- T803 -->
<g id="node2" class="node">
<title>T803</title>
<polygon fill="none" stroke="#0058ad" points="166,-0.5 166,-29.5 1163,-29.5 1163,-0.5 166,-0.5"/>
<text text-anchor="middle" x="378.5" y="-11.3" font-family="Times,serif" font-size="14.00" fill="#0058ad">r 29 [1 2 3 4 5 6 7 8 9 10 11 12 13 14 15 16 17 18 19 20]</text>
<polyline fill="none" stroke="#0058ad" points="591,-0.5 591,-29.5 "/>
<text text-anchor="middle" x="626" y="-11.3" font-family="Times,serif" font-size="14.00" fill="#0058ad">a 29 23</text>
<polyline fill="none" stroke="#0058ad" points="661,-0.5 661,-29.5 "/>
<text text-anchor="middle" x="691.5" y="-11.3" font-family="Times,serif" font-size="14.00" fill="#0058ad">a 32 3</text>
<polyline fill="none" stroke="#0058ad" points="722,-0.5 722,-29.5 "/>
<text text-anchor="middle" x="752.5" y="-11.3" font-family="Times,serif" font-size="14.00" fill="#0058ad">a 32 4</text>
<polyline fill="none" stroke="#0058ad" points="783,-0.5 783,-29.5 "/>
<text text-anchor="middle" x="973" y="-11.3" font-family="Times,serif" font-size="14.00" fill="#0058ad">r 30 [1 2 3 4 5 6 7 8 9 10 11 12 13 14 15 16 17 18]</text>
</g>
<!-- T802&#45;&gt;T803 -->
<g id="edge1" class="edge">
<title>T802:f2&#45;&gt;T803:f1</title>
<path fill="none" stroke="#5b00c0" d="M662.5,-81C662.5,-56.93 635.17,-57.25 627.49,-40.04"/>
<polygon fill="#5b00c0" stroke="#5b00c0" points="630.88,-39.13 625.5,-30 624.01,-40.49 630.88,-39.13"/>
<text text-anchor="middle" x="665" y="-51.8" font-family="Times,serif" font-size="14.00" fill="#5b00c0">rw</text>
</g>
<!-- T803&#45;&gt;T802 -->
<g id="edge2" class="edge">
<title>T803:f4&#45;&gt;T802:f3</title>
<path fill="none" stroke="#5b00c0" d="M973.5,-30C973.5,-57.86 977.13,-87.73 956.49,-94.56"/>
<polygon fill="#5b00c0" stroke="#5b00c0" points="955.9,-91.11 946.5,-96 956.9,-98.03 955.9,-91.11"/>
<text text-anchor="middle" x="983" y="-51.8" font-family="Times,serif" font-size="14.00" fill="#5b00c0">rw</text>
</g>
</g>
</svg>
