<?xml version="1.0" encoding="UTF-8" standalone="no"?>
<!DOCTYPE svg PUBLIC "-//W3C//DTD SVG 1.1//EN"
 "http://www.w3.org/Graphics/SVG/1.1/DTD/svg11.dtd">
<!-- Generated by graphviz version 2.43.0 (0)
 -->
<!-- Title: a_graph Pages: 1 -->
<svg width="480pt" height="119pt"
 viewBox="0.00 0.00 479.50 119.00" xmlns="http://www.w3.org/2000/svg" xmlns:xlink="http://www.w3.org/1999/xlink">
<g id="graph0" class="graph" transform="scale(1 1) rotate(0) translate(4 115)">
<title>a_graph</title>
<polygon fill="white" stroke="transparent" points="-4,4 -4,-115 475.5,-115 475.5,4 -4,4"/>
<!-- T3200 -->
<g id="node1" class="node">
<title>T3200</title>
<polygon fill="none" stroke="#0058ad" points="83.5,-81.5 83.5,-110.5 471.5,-110.5 471.5,-81.5 83.5,-81.5"/>
<text text-anchor="middle" x="136.5" y="-92.3" font-family="Times,serif" font-size="14.00" fill="#0058ad">r 121 [1 2 3]</text>
<polyline fill="none" stroke="#0058ad" points="189.5,-81.5 189.5,-110.5 "/>
<text text-anchor="middle" x="242.5" y="-92.3" font-family="Times,serif" font-size="14.00" fill="#0058ad">r 121 [1 2 3]</text>
<polyline fill="none" stroke="#0058ad" points="295.5,-81.5 295.5,-110.5 "/>
<text text-anchor="middle" x="330.5" y="-92.3" font-family="Times,serif" font-size="14.00" fill="#0058ad">a 120 7</text>
<polyline fill="none" stroke="#0058ad" points="365.5,-81.5 365.5,-110.5 "/>
<text text-anchor="middle" x="418.5" y="-92.3" font-family="Times,serif" font-size="14.00" fill="#0058ad">r 121 [1 2 3]</text>
</g>
<!-- T3201 -->
<g id="node2" class="node">
<title>T3201</title>
<polygon fill="none" stroke="#0058ad" points="0,-0.5 0,-29.5 441,-29.5 441,-0.5 0,-0.5"/>
<text text-anchor="middle" x="53" y="-11.3" font-family="Times,serif" font-size="14.00" fill="#0058ad">r 121 [1 2 3]</text>
<polyline fill="none" stroke="#0058ad" points="106,-0.5 106,-29.5 "/>
<text text-anchor="middle" x="179" y="-11.3" font-family="Times,serif" font-size="14.00" fill="#0058ad">r 120 [1 2 3 4 5 6]</text>
<polyline fill="none" stroke="#0058ad" points="252,-0.5 252,-29.5 "/>
<text text-anchor="middle" x="287" y="-11.3" font-family="Times,serif" font-size="14.00" fill="#0058ad">a 121 5</text>
<polyline fill="none" stroke="#0058ad" points="322,-0.5 322,-29.5 "/>
<text text-anchor="middle" x="381.5" y="-11.3" font-family="Times,serif" font-size="14.00" fill="#0058ad">r 121 [1 2 3 5]</text>
</g>
<!-- T3200&#45;&gt;T3201 -->
<g id="edge1" class="edge">
<title>T3200:f0&#45;&gt;T3201:f2</title>
<path fill="none" stroke="#5b00c0" d="M136.5,-81C136.5,-65.64 250.05,-51.89 280.22,-36.95"/>
<polygon fill="#5b00c0" stroke="#5b00c0" points="282.68,-39.44 287.5,-30 277.85,-34.37 282.68,-39.44"/>
<text text-anchor="middle" x="253" y="-51.8" font-family="Times,serif" font-size="14.00" fill="#5b00c0">rw</text>
</g>
<!-- T3201&#45;&gt;T3200 -->
<g id="edge2" class="edge">
<title>T3201:f1&#45;&gt;T3200:f2</title>
<path fill="none" stroke="#5b00c0" d="M178.5,-30C178.5,-49.96 247.67,-41.36 266.5,-48 293.03,-57.35 322.36,-51.03 329.08,-71.1"/>
<polygon fill="#5b00c0" stroke="#5b00c0" points="325.62,-71.6 330.5,-81 332.54,-70.6 325.62,-71.6"/>
<text text-anchor="middle" x="332" y="-51.8" font-family="Times,serif" font-size="14.00" fill="#5b00c0">rw</text>
</g>
</g>
</svg>
