<?xml version="1.0" encoding="UTF-8" standalone="no"?>
<!DOCTYPE svg PUBLIC "-//W3C//DTD SVG 1.1//EN"
 "http://www.w3.org/Graphics/SVG/1.1/DTD/svg11.dtd">
<!-- Generated by graphviz version 2.43.0 (0)
 -->
<!-- Title: a_graph Pages: 1 -->
<svg width="935pt" height="119pt"
 viewBox="0.00 0.00 935.00 119.00" xmlns="http://www.w3.org/2000/svg" xmlns:xlink="http://www.w3.org/1999/xlink">
<g id="graph0" class="graph" transform="scale(1 1) rotate(0) translate(4 115)">
<title>a_graph</title>
<polygon fill="white" stroke="transparent" points="-4,4 -4,-115 931,-115 931,4 -4,4"/>
<!-- T937 -->
<g id="node1" class="node">
<title>T937</title>
<polygon fill="none" stroke="#0058ad" points="555.5,-81.5 555.5,-110.5 887.5,-110.5 887.5,-81.5 555.5,-81.5"/>
<text text-anchor="middle" x="590.5" y="-92.3" font-family="Times,serif" font-size="14.00" fill="#0058ad">a 35 30</text>
<polyline fill="none" stroke="#0058ad" points="625.5,-81.5 625.5,-110.5 "/>
<text text-anchor="middle" x="660.5" y="-92.3" font-family="Times,serif" font-size="14.00" fill="#0058ad">a 34 14</text>
<polyline fill="none" stroke="#0058ad" points="695.5,-81.5 695.5,-110.5 "/>
<text text-anchor="middle" x="730.5" y="-92.3" font-family="Times,serif" font-size="14.00" fill="#0058ad">a 35 31</text>
<polyline fill="none" stroke="#0058ad" points="765.5,-81.5 765.5,-110.5 "/>
<text text-anchor="middle" x="796" y="-92.3" font-family="Times,serif" font-size="14.00" fill="#0058ad">r 37 []</text>
<polyline fill="none" stroke="#0058ad" points="826.5,-81.5 826.5,-110.5 "/>
<text text-anchor="middle" x="857" y="-92.3" font-family="Times,serif" font-size="14.00" fill="#0058ad">r 37 []</text>
</g>
<!-- T939 -->
<g id="node2" class="node">
<title>T939</title>
<polygon fill="none" stroke="#0058ad" points="0,-0.5 0,-29.5 927,-29.5 927,-0.5 0,-0.5"/>
<text text-anchor="middle" x="122.5" y="-11.3" font-family="Times,serif" font-size="14.00" fill="#0058ad">r 34 [1 2 3 4 5 6 7 8 9 10 11 12]</text>
<polyline fill="none" stroke="#0058ad" points="245,-0.5 245,-29.5 "/>
<text text-anchor="middle" x="525" y="-11.3" font-family="Times,serif" font-size="14.00" fill="#0058ad">r 35 [1 2 3 4 5 6 7 8 9 10 11 12 13 14 15 16 17 18 19 20 21 22 23 24 27 28]</text>
<polyline fill="none" stroke="#0058ad" points="805,-0.5 805,-29.5 "/>
<text text-anchor="middle" x="835.5" y="-11.3" font-family="Times,serif" font-size="14.00" fill="#0058ad">a 37 1</text>
<polyline fill="none" stroke="#0058ad" points="866,-0.5 866,-29.5 "/>
<text text-anchor="middle" x="896.5" y="-11.3" font-family="Times,serif" font-size="14.00" fill="#0058ad">a 37 2</text>
</g>
<!-- T937&#45;&gt;T939 -->
<g id="edge1" class="edge">
<title>T937:f3&#45;&gt;T939:f2</title>
<path fill="none" stroke="#5b00c0" d="M796.5,-81C796.5,-56.48 825.3,-57.51 833.4,-40.18"/>
<polygon fill="#5b00c0" stroke="#5b00c0" points="836.91,-40.5 835.5,-30 830.05,-39.09 836.91,-40.5"/>
<text text-anchor="middle" x="836" y="-51.8" font-family="Times,serif" font-size="14.00" fill="#5b00c0">rw</text>
</g>
<!-- T939&#45;&gt;T937 -->
<g id="edge2" class="edge">
<title>T939:f1&#45;&gt;T937:f0</title>
<path fill="none" stroke="#5b00c0" d="M525.5,-30C525.5,-62.7 577.06,-48.48 588.34,-70.92"/>
<polygon fill="#5b00c0" stroke="#5b00c0" points="584.98,-71.96 590.5,-81 591.82,-70.49 584.98,-71.96"/>
<text text-anchor="middle" x="589" y="-51.8" font-family="Times,serif" font-size="14.00" fill="#5b00c0">rw</text>
</g>
</g>
</svg>
