<?xml version="1.0" encoding="UTF-8" standalone="no"?>
<!DOCTYPE svg PUBLIC "-//W3C//DTD SVG 1.1//EN"
 "http://www.w3.org/Graphics/SVG/1.1/DTD/svg11.dtd">
<!-- Generated by graphviz version 2.43.0 (0)
 -->
<!-- Title: a_graph Pages: 1 -->
<svg width="1675pt" height="119pt"
 viewBox="0.00 0.00 1675.00 119.00" xmlns="http://www.w3.org/2000/svg" xmlns:xlink="http://www.w3.org/1999/xlink">
<g id="graph0" class="graph" transform="scale(1 1) rotate(0) translate(4 115)">
<title>a_graph</title>
<polygon fill="white" stroke="transparent" points="-4,4 -4,-115 1671,-115 1671,4 -4,4"/>
<!-- T2852 -->
<g id="node1" class="node">
<title>T2852</title>
<polygon fill="none" stroke="#0058ad" points="0,-81.5 0,-110.5 1667,-110.5 1667,-81.5 0,-81.5"/>
<text text-anchor="middle" x="194.5" y="-92.3" font-family="Times,serif" font-size="14.00" fill="#0058ad">r 106 [1 2 3 4 5 6 7 8 9 10 11 12 14 15 16 17 18 19]</text>
<polyline fill="none" stroke="#0058ad" points="389,-81.5 389,-110.5 "/>
<text text-anchor="middle" x="480" y="-92.3" font-family="Times,serif" font-size="14.00" fill="#0058ad">r 107 [1 2 3 6 7 8 9 10]</text>
<polyline fill="none" stroke="#0058ad" points="571,-81.5 571,-110.5 "/>
<text text-anchor="middle" x="743" y="-92.3" font-family="Times,serif" font-size="14.00" fill="#0058ad">r 104 [1 2 3 4 5 6 7 8 9 10 11 12 13 15 16 17]</text>
<polyline fill="none" stroke="#0058ad" points="915,-81.5 915,-110.5 "/>
<text text-anchor="middle" x="954.5" y="-92.3" font-family="Times,serif" font-size="14.00" fill="#0058ad">a 107 11</text>
<polyline fill="none" stroke="#0058ad" points="994,-81.5 994,-110.5 "/>
<text text-anchor="middle" x="1096.5" y="-92.3" font-family="Times,serif" font-size="14.00" fill="#0058ad">r 107 [1 2 3 6 7 8 9 10 11]</text>
<polyline fill="none" stroke="#0058ad" points="1199,-81.5 1199,-110.5 "/>
<text text-anchor="middle" x="1393.5" y="-92.3" font-family="Times,serif" font-size="14.00" fill="#0058ad">r 106 [1 2 3 4 5 6 7 8 9 10 11 12 14 15 16 17 18 19]</text>
<polyline fill="none" stroke="#0058ad" points="1588,-81.5 1588,-110.5 "/>
<text text-anchor="middle" x="1627.5" y="-92.3" font-family="Times,serif" font-size="14.00" fill="#0058ad">a 107 12</text>
</g>
<!-- T2854 -->
<g id="node2" class="node">
<title>T2854</title>
<polygon fill="none" stroke="#0058ad" points="40.5,-0.5 40.5,-29.5 1374.5,-29.5 1374.5,-0.5 40.5,-0.5"/>
<text text-anchor="middle" x="235" y="-11.3" font-family="Times,serif" font-size="14.00" fill="#0058ad">r 106 [1 2 3 4 5 6 7 8 9 10 11 12 14 15 16 17 18 19]</text>
<polyline fill="none" stroke="#0058ad" points="429.5,-0.5 429.5,-29.5 "/>
<text text-anchor="middle" x="520.5" y="-11.3" font-family="Times,serif" font-size="14.00" fill="#0058ad">r 107 [1 2 3 6 7 8 9 10]</text>
<polyline fill="none" stroke="#0058ad" points="611.5,-0.5 611.5,-29.5 "/>
<text text-anchor="middle" x="783.5" y="-11.3" font-family="Times,serif" font-size="14.00" fill="#0058ad">r 104 [1 2 3 4 5 6 7 8 9 10 11 12 13 15 16 17]</text>
<polyline fill="none" stroke="#0058ad" points="955.5,-0.5 955.5,-29.5 "/>
<text text-anchor="middle" x="1046.5" y="-11.3" font-family="Times,serif" font-size="14.00" fill="#0058ad">r 107 [1 2 3 6 7 8 9 10]</text>
<polyline fill="none" stroke="#0058ad" points="1137.5,-0.5 1137.5,-29.5 "/>
<text text-anchor="middle" x="1177" y="-11.3" font-family="Times,serif" font-size="14.00" fill="#0058ad">a 104 18</text>
<polyline fill="none" stroke="#0058ad" points="1216.5,-0.5 1216.5,-29.5 "/>
<text text-anchor="middle" x="1256" y="-11.3" font-family="Times,serif" font-size="14.00" fill="#0058ad">a 106 20</text>
<polyline fill="none" stroke="#0058ad" points="1295.5,-0.5 1295.5,-29.5 "/>
<text text-anchor="middle" x="1335" y="-11.3" font-family="Times,serif" font-size="14.00" fill="#0058ad">a 106 21</text>
</g>
<!-- T2852&#45;&gt;T2854 -->
<g id="edge1" class="edge">
<title>T2852:f2&#45;&gt;T2854:f4</title>
<path fill="none" stroke="#5b00c0" d="M742.5,-81C742.5,-21.82 813.03,-57.11 871.5,-48 886.55,-45.65 1119.53,-46.73 1168.51,-34.79"/>
<polygon fill="#5b00c0" stroke="#5b00c0" points="1170.32,-37.79 1177.5,-30 1167.03,-31.61 1170.32,-37.79"/>
<text text-anchor="middle" x="881" y="-51.8" font-family="Times,serif" font-size="14.00" fill="#5b00c0">rw</text>
</g>
<!-- T2854&#45;&gt;T2852 -->
<g id="edge2" class="edge">
<title>T2854:f1&#45;&gt;T2852:f3</title>
<path fill="none" stroke="#5b00c0" d="M520.5,-30C520.5,-50.58 870.62,-42.66 890.5,-48 917.67,-55.29 946.52,-50.54 953.11,-71.01"/>
<polygon fill="#5b00c0" stroke="#5b00c0" points="949.65,-71.58 954.5,-81 956.59,-70.61 949.65,-71.58"/>
<text text-anchor="middle" x="956" y="-51.8" font-family="Times,serif" font-size="14.00" fill="#5b00c0">rw</text>
</g>
</g>
</svg>
