<?xml version="1.0" encoding="UTF-8" standalone="no"?>
<!DOCTYPE svg PUBLIC "-//W3C//DTD SVG 1.1//EN"
 "http://www.w3.org/Graphics/SVG/1.1/DTD/svg11.dtd">
<!-- Generated by graphviz version 2.43.0 (0)
 -->
<!-- Title: a_graph Pages: 1 -->
<svg width="2230pt" height="119pt"
 viewBox="0.00 0.00 2229.50 119.00" xmlns="http://www.w3.org/2000/svg" xmlns:xlink="http://www.w3.org/1999/xlink">
<g id="graph0" class="graph" transform="scale(1 1) rotate(0) translate(4 115)">
<title>a_graph</title>
<polygon fill="white" stroke="transparent" points="-4,4 -4,-115 2225.5,-115 2225.5,4 -4,4"/>
<!-- T3316 -->
<g id="node1" class="node">
<title>T3316</title>
<polygon fill="none" stroke="#0058ad" points="686.5,-81.5 686.5,-110.5 2221.5,-110.5 2221.5,-81.5 686.5,-81.5"/>
<text text-anchor="middle" x="726" y="-92.3" font-family="Times,serif" font-size="14.00" fill="#0058ad">a 124 14</text>
<polyline fill="none" stroke="#0058ad" points="765.5,-81.5 765.5,-110.5 "/>
<text text-anchor="middle" x="818.5" y="-92.3" font-family="Times,serif" font-size="14.00" fill="#0058ad">r 125 [1 2 3]</text>
<polyline fill="none" stroke="#0058ad" points="871.5,-81.5 871.5,-110.5 "/>
<text text-anchor="middle" x="924.5" y="-92.3" font-family="Times,serif" font-size="14.00" fill="#0058ad">r 125 [1 2 3]</text>
<polyline fill="none" stroke="#0058ad" points="977.5,-81.5 977.5,-110.5 "/>
<text text-anchor="middle" x="1127" y="-92.3" font-family="Times,serif" font-size="14.00" fill="#0058ad">r 124 [1 2 3 4 5 6 7 8 9 10 11 12 13 14]</text>
<polyline fill="none" stroke="#0058ad" points="1276.5,-81.5 1276.5,-110.5 "/>
<text text-anchor="middle" x="1426" y="-92.3" font-family="Times,serif" font-size="14.00" fill="#0058ad">r 124 [1 2 3 4 5 6 7 8 9 10 11 12 13 14]</text>
<polyline fill="none" stroke="#0058ad" points="1575.5,-81.5 1575.5,-110.5 "/>
<text text-anchor="middle" x="1898.5" y="-92.3" font-family="Times,serif" font-size="14.00" fill="#0058ad">r 121 [1 2 3 5 6 7 8 9 10 11 12 13 14 15 16 17 18 19 20 21 22 23 24 25 26 27 28 29 30]</text>
</g>
<!-- T3317 -->
<g id="node2" class="node">
<title>T3317</title>
<polygon fill="none" stroke="#0058ad" points="0,-0.5 0,-29.5 1552,-29.5 1552,-0.5 0,-0.5"/>
<text text-anchor="middle" x="138.5" y="-11.3" font-family="Times,serif" font-size="14.00" fill="#0058ad">r 124 [1 2 3 4 5 6 7 8 9 10 11 12 13]</text>
<polyline fill="none" stroke="#0058ad" points="277,-0.5 277,-29.5 "/>
<text text-anchor="middle" x="600" y="-11.3" font-family="Times,serif" font-size="14.00" fill="#0058ad">r 121 [1 2 3 5 6 7 8 9 10 11 12 13 14 15 16 17 18 19 20 21 22 23 24 25 26 27 28 29 30]</text>
<polyline fill="none" stroke="#0058ad" points="923,-0.5 923,-29.5 "/>
<text text-anchor="middle" x="976" y="-11.3" font-family="Times,serif" font-size="14.00" fill="#0058ad">r 125 [1 2 3]</text>
<polyline fill="none" stroke="#0058ad" points="1029,-0.5 1029,-29.5 "/>
<text text-anchor="middle" x="1082" y="-11.3" font-family="Times,serif" font-size="14.00" fill="#0058ad">r 125 [1 2 3]</text>
<polyline fill="none" stroke="#0058ad" points="1135,-0.5 1135,-29.5 "/>
<text text-anchor="middle" x="1170" y="-11.3" font-family="Times,serif" font-size="14.00" fill="#0058ad">a 125 8</text>
<polyline fill="none" stroke="#0058ad" points="1205,-0.5 1205,-29.5 "/>
<text text-anchor="middle" x="1343.5" y="-11.3" font-family="Times,serif" font-size="14.00" fill="#0058ad">r 124 [1 2 3 4 5 6 7 8 9 10 11 12 13]</text>
<polyline fill="none" stroke="#0058ad" points="1482,-0.5 1482,-29.5 "/>
<text text-anchor="middle" x="1517" y="-11.3" font-family="Times,serif" font-size="14.00" fill="#0058ad">a 125 9</text>
</g>
<!-- T3316&#45;&gt;T3317 -->
<g id="edge1" class="edge">
<title>T3316:f1&#45;&gt;T3317:f4</title>
<path fill="none" stroke="#5b00c0" d="M818,-81C818,73.53 1154.37,-176.38 1169.48,-40.02"/>
<polygon fill="#5b00c0" stroke="#5b00c0" points="1172.97,-40.17 1170,-30 1165.98,-39.8 1172.97,-40.17"/>
<text text-anchor="middle" x="1175.5" y="-51.8" font-family="Times,serif" font-size="14.00" fill="#5b00c0">rw</text>
</g>
<!-- T3317&#45;&gt;T3316 -->
<g id="edge2" class="edge">
<title>T3317:f0&#45;&gt;T3316:f0</title>
<path fill="none" stroke="#5b00c0" d="M138,-30C138,-88.59 582.93,-95.48 674.83,-95.97"/>
<polygon fill="#5b00c0" stroke="#5b00c0" points="674.99,-99.47 685,-96 675.01,-92.47 674.99,-99.47"/>
<text text-anchor="middle" x="208.5" y="-51.8" font-family="Times,serif" font-size="14.00" fill="#5b00c0">rw</text>
</g>
</g>
</svg>
