<?xml version="1.0" encoding="UTF-8" standalone="no"?>
<!DOCTYPE svg PUBLIC "-//W3C//DTD SVG 1.1//EN"
 "http://www.w3.org/Graphics/SVG/1.1/DTD/svg11.dtd">
<!-- Generated by graphviz version 2.43.0 (0)
 -->
<!-- Title: a_graph Pages: 1 -->
<svg width="764pt" height="119pt"
 viewBox="0.00 0.00 763.50 119.00" xmlns="http://www.w3.org/2000/svg" xmlns:xlink="http://www.w3.org/1999/xlink">
<g id="graph0" class="graph" transform="scale(1 1) rotate(0) translate(4 115)">
<title>a_graph</title>
<polygon fill="white" stroke="transparent" points="-4,4 -4,-115 759.5,-115 759.5,4 -4,4"/>
<!-- T628 -->
<g id="node1" class="node">
<title>T628</title>
<polygon fill="none" stroke="#0058ad" points="186.5,-81.5 186.5,-110.5 755.5,-110.5 755.5,-81.5 186.5,-81.5"/>
<text text-anchor="middle" x="226" y="-92.3" font-family="Times,serif" font-size="14.00" fill="#0058ad">r 267 [1]</text>
<polyline fill="none" stroke="#0058ad" points="265.5,-81.5 265.5,-110.5 "/>
<text text-anchor="middle" x="300.5" y="-92.3" font-family="Times,serif" font-size="14.00" fill="#0058ad">r 270 []</text>
<polyline fill="none" stroke="#0058ad" points="335.5,-81.5 335.5,-110.5 "/>
<text text-anchor="middle" x="370.5" y="-92.3" font-family="Times,serif" font-size="14.00" fill="#0058ad">r 270 []</text>
<polyline fill="none" stroke="#0058ad" points="405.5,-81.5 405.5,-110.5 "/>
<text text-anchor="middle" x="440.5" y="-92.3" font-family="Times,serif" font-size="14.00" fill="#0058ad">r 270 []</text>
<polyline fill="none" stroke="#0058ad" points="475.5,-81.5 475.5,-110.5 "/>
<text text-anchor="middle" x="510.5" y="-92.3" font-family="Times,serif" font-size="14.00" fill="#0058ad">a 271 1</text>
<polyline fill="none" stroke="#0058ad" points="545.5,-81.5 545.5,-110.5 "/>
<text text-anchor="middle" x="580.5" y="-92.3" font-family="Times,serif" font-size="14.00" fill="#0058ad">a 270 2</text>
<polyline fill="none" stroke="#0058ad" points="615.5,-81.5 615.5,-110.5 "/>
<text text-anchor="middle" x="650.5" y="-92.3" font-family="Times,serif" font-size="14.00" fill="#0058ad">a 270 3</text>
<polyline fill="none" stroke="#0058ad" points="685.5,-81.5 685.5,-110.5 "/>
<text text-anchor="middle" x="720.5" y="-92.3" font-family="Times,serif" font-size="14.00" fill="#0058ad">a 271 2</text>
</g>
<!-- T625 -->
<g id="node2" class="node">
<title>T625</title>
<polygon fill="none" stroke="#0058ad" points="0,-0.5 0,-29.5 438,-29.5 438,-0.5 0,-0.5"/>
<text text-anchor="middle" x="35" y="-11.3" font-family="Times,serif" font-size="14.00" fill="#0058ad">a 266 2</text>
<polyline fill="none" stroke="#0058ad" points="70,-0.5 70,-29.5 "/>
<text text-anchor="middle" x="105" y="-11.3" font-family="Times,serif" font-size="14.00" fill="#0058ad">a 269 3</text>
<polyline fill="none" stroke="#0058ad" points="140,-0.5 140,-29.5 "/>
<text text-anchor="middle" x="179.5" y="-11.3" font-family="Times,serif" font-size="14.00" fill="#0058ad">r 269 [3]</text>
<polyline fill="none" stroke="#0058ad" points="219,-0.5 219,-29.5 "/>
<text text-anchor="middle" x="258.5" y="-11.3" font-family="Times,serif" font-size="14.00" fill="#0058ad">r 269 [3]</text>
<polyline fill="none" stroke="#0058ad" points="298,-0.5 298,-29.5 "/>
<text text-anchor="middle" x="333" y="-11.3" font-family="Times,serif" font-size="14.00" fill="#0058ad">a 267 3</text>
<polyline fill="none" stroke="#0058ad" points="368,-0.5 368,-29.5 "/>
<text text-anchor="middle" x="403" y="-11.3" font-family="Times,serif" font-size="14.00" fill="#0058ad">r 270 []</text>
</g>
<!-- T628&#45;&gt;T625 -->
<g id="edge1" class="edge">
<title>T628:f0&#45;&gt;T625:f4</title>
<path fill="none" stroke="#5b00c0" d="M226,-81C226,-32.23 317.71,-75.2 331.32,-40.05"/>
<polygon fill="#5b00c0" stroke="#5b00c0" points="334.8,-40.44 333,-30 327.9,-39.29 334.8,-40.44"/>
<text text-anchor="middle" x="332.5" y="-51.8" font-family="Times,serif" font-size="14.00" fill="#5b00c0">rw</text>
</g>
<!-- T625&#45;&gt;T628 -->
<g id="edge2" class="edge">
<title>T625:f5&#45;&gt;T628:f5</title>
<path fill="none" stroke="#5b00c0" d="M439,-15C470.54,-15 561.54,-40.63 578.32,-71.33"/>
<polygon fill="#5b00c0" stroke="#5b00c0" points="574.96,-72.3 581,-81 581.7,-70.43 574.96,-72.3"/>
<text text-anchor="middle" x="580.5" y="-51.8" font-family="Times,serif" font-size="14.00" fill="#5b00c0">rw</text>
</g>
</g>
</svg>
