<?xml version="1.0" encoding="UTF-8" standalone="no"?>
<!DOCTYPE svg PUBLIC "-//W3C//DTD SVG 1.1//EN"
 "http://www.w3.org/Graphics/SVG/1.1/DTD/svg11.dtd">
<!-- Generated by graphviz version 2.43.0 (0)
 -->
<!-- Title: a_graph Pages: 1 -->
<svg width="811pt" height="119pt"
 viewBox="0.00 0.00 811.00 119.00" xmlns="http://www.w3.org/2000/svg" xmlns:xlink="http://www.w3.org/1999/xlink">
<g id="graph0" class="graph" transform="scale(1 1) rotate(0) translate(4 115)">
<title>a_graph</title>
<polygon fill="white" stroke="transparent" points="-4,4 -4,-115 807,-115 807,4 -4,4"/>
<!-- T3214 -->
<g id="node1" class="node">
<title>T3214</title>
<polygon fill="none" stroke="#0058ad" points="214,-81.5 214,-110.5 803,-110.5 803,-81.5 214,-81.5"/>
<text text-anchor="middle" x="253.5" y="-92.3" font-family="Times,serif" font-size="14.00" fill="#0058ad">a 1377 3</text>
<polyline fill="none" stroke="#0058ad" points="293,-81.5 293,-110.5 "/>
<text text-anchor="middle" x="332.5" y="-92.3" font-family="Times,serif" font-size="14.00" fill="#0058ad">r 1379 []</text>
<polyline fill="none" stroke="#0058ad" points="372,-81.5 372,-110.5 "/>
<text text-anchor="middle" x="411.5" y="-92.3" font-family="Times,serif" font-size="14.00" fill="#0058ad">r 1380 []</text>
<polyline fill="none" stroke="#0058ad" points="451,-81.5 451,-110.5 "/>
<text text-anchor="middle" x="508.5" y="-92.3" font-family="Times,serif" font-size="14.00" fill="#0058ad">r 1377 [1 2 3]</text>
<polyline fill="none" stroke="#0058ad" points="566,-81.5 566,-110.5 "/>
<text text-anchor="middle" x="605.5" y="-92.3" font-family="Times,serif" font-size="14.00" fill="#0058ad">r 1382 []</text>
<polyline fill="none" stroke="#0058ad" points="645,-81.5 645,-110.5 "/>
<text text-anchor="middle" x="684.5" y="-92.3" font-family="Times,serif" font-size="14.00" fill="#0058ad">r 1382 []</text>
<polyline fill="none" stroke="#0058ad" points="724,-81.5 724,-110.5 "/>
<text text-anchor="middle" x="763.5" y="-92.3" font-family="Times,serif" font-size="14.00" fill="#0058ad">a 1379 1</text>
</g>
<!-- T3213 -->
<g id="node2" class="node">
<title>T3213</title>
<polygon fill="none" stroke="#0058ad" points="0,-0.5 0,-29.5 685,-29.5 685,-0.5 0,-0.5"/>
<text text-anchor="middle" x="39.5" y="-11.3" font-family="Times,serif" font-size="14.00" fill="#0058ad">a 1375 3</text>
<polyline fill="none" stroke="#0058ad" points="79,-0.5 79,-29.5 "/>
<text text-anchor="middle" x="123" y="-11.3" font-family="Times,serif" font-size="14.00" fill="#0058ad">r 1378 [2]</text>
<polyline fill="none" stroke="#0058ad" points="167,-0.5 167,-29.5 "/>
<text text-anchor="middle" x="206.5" y="-11.3" font-family="Times,serif" font-size="14.00" fill="#0058ad">a 1378 3</text>
<polyline fill="none" stroke="#0058ad" points="246,-0.5 246,-29.5 "/>
<text text-anchor="middle" x="296.5" y="-11.3" font-family="Times,serif" font-size="14.00" fill="#0058ad">r 1377 [1 2]</text>
<polyline fill="none" stroke="#0058ad" points="347,-0.5 347,-29.5 "/>
<text text-anchor="middle" x="386.5" y="-11.3" font-family="Times,serif" font-size="14.00" fill="#0058ad">a 1380 1</text>
<polyline fill="none" stroke="#0058ad" points="426,-0.5 426,-29.5 "/>
<text text-anchor="middle" x="465.5" y="-11.3" font-family="Times,serif" font-size="14.00" fill="#0058ad">a 1380 2</text>
<polyline fill="none" stroke="#0058ad" points="505,-0.5 505,-29.5 "/>
<text text-anchor="middle" x="555.5" y="-11.3" font-family="Times,serif" font-size="14.00" fill="#0058ad">r 1380 [1 2]</text>
<polyline fill="none" stroke="#0058ad" points="606,-0.5 606,-29.5 "/>
<text text-anchor="middle" x="645.5" y="-11.3" font-family="Times,serif" font-size="14.00" fill="#0058ad">a 1380 3</text>
</g>
<!-- T3214&#45;&gt;T3213 -->
<g id="edge1" class="edge">
<title>T3214:f2&#45;&gt;T3213:f4</title>
<path fill="none" stroke="#5b00c0" d="M411.5,-81C411.5,-59.7 393.7,-56.01 388.14,-40.21"/>
<polygon fill="#5b00c0" stroke="#5b00c0" points="391.54,-39.32 386.5,-30 384.63,-40.43 391.54,-39.32"/>
<text text-anchor="middle" x="414" y="-51.8" font-family="Times,serif" font-size="14.00" fill="#5b00c0">rw</text>
</g>
<!-- T3213&#45;&gt;T3214 -->
<g id="edge2" class="edge">
<title>T3213:f3&#45;&gt;T3214:f0</title>
<path fill="none" stroke="#5b00c0" d="M296.5,-30C296.5,-55.71 264.16,-52.89 255.57,-71.02"/>
<polygon fill="#5b00c0" stroke="#5b00c0" points="252.11,-70.5 253.5,-81 258.96,-71.92 252.11,-70.5"/>
<text text-anchor="middle" x="297" y="-51.8" font-family="Times,serif" font-size="14.00" fill="#5b00c0">rw</text>
</g>
</g>
</svg>
