<?xml version="1.0" encoding="UTF-8" standalone="no"?>
<!DOCTYPE svg PUBLIC "-//W3C//DTD SVG 1.1//EN"
 "http://www.w3.org/Graphics/SVG/1.1/DTD/svg11.dtd">
<!-- Generated by graphviz version 2.43.0 (0)
 -->
<!-- Title: a_graph Pages: 1 -->
<svg width="543pt" height="119pt"
 viewBox="0.00 0.00 543.00 119.00" xmlns="http://www.w3.org/2000/svg" xmlns:xlink="http://www.w3.org/1999/xlink">
<g id="graph0" class="graph" transform="scale(1 1) rotate(0) translate(4 115)">
<title>a_graph</title>
<polygon fill="white" stroke="transparent" points="-4,4 -4,-115 539,-115 539,4 -4,4"/>
<!-- T1724 -->
<g id="node1" class="node">
<title>T1724</title>
<polygon fill="none" stroke="#0058ad" points="46.5,-81.5 46.5,-110.5 344.5,-110.5 344.5,-81.5 46.5,-81.5"/>
<text text-anchor="middle" x="81.5" y="-92.3" font-family="Times,serif" font-size="14.00" fill="#0058ad">r 735 []</text>
<polyline fill="none" stroke="#0058ad" points="116.5,-81.5 116.5,-110.5 "/>
<text text-anchor="middle" x="156" y="-92.3" font-family="Times,serif" font-size="14.00" fill="#0058ad">r 736 [1]</text>
<polyline fill="none" stroke="#0058ad" points="195.5,-81.5 195.5,-110.5 "/>
<text text-anchor="middle" x="230.5" y="-92.3" font-family="Times,serif" font-size="14.00" fill="#0058ad">a 736 3</text>
<polyline fill="none" stroke="#0058ad" points="265.5,-81.5 265.5,-110.5 "/>
<text text-anchor="middle" x="305" y="-92.3" font-family="Times,serif" font-size="14.00" fill="#0058ad">r 723 [1]</text>
</g>
<!-- T1725 -->
<g id="node2" class="node">
<title>T1725</title>
<polygon fill="none" stroke="#0058ad" points="0,-0.5 0,-29.5 535,-29.5 535,-0.5 0,-0.5"/>
<text text-anchor="middle" x="39.5" y="-11.3" font-family="Times,serif" font-size="14.00" fill="#0058ad">r 736 [1]</text>
<polyline fill="none" stroke="#0058ad" points="79,-0.5 79,-29.5 "/>
<text text-anchor="middle" x="118.5" y="-11.3" font-family="Times,serif" font-size="14.00" fill="#0058ad">r 736 [1]</text>
<polyline fill="none" stroke="#0058ad" points="158,-0.5 158,-29.5 "/>
<text text-anchor="middle" x="197.5" y="-11.3" font-family="Times,serif" font-size="14.00" fill="#0058ad">r 736 [1]</text>
<polyline fill="none" stroke="#0058ad" points="237,-0.5 237,-29.5 "/>
<text text-anchor="middle" x="272" y="-11.3" font-family="Times,serif" font-size="14.00" fill="#0058ad">a 735 1</text>
<polyline fill="none" stroke="#0058ad" points="307,-0.5 307,-29.5 "/>
<text text-anchor="middle" x="346.5" y="-11.3" font-family="Times,serif" font-size="14.00" fill="#0058ad">r 736 [1]</text>
<polyline fill="none" stroke="#0058ad" points="386,-0.5 386,-29.5 "/>
<text text-anchor="middle" x="421" y="-11.3" font-family="Times,serif" font-size="14.00" fill="#0058ad">a 737 1</text>
<polyline fill="none" stroke="#0058ad" points="456,-0.5 456,-29.5 "/>
<text text-anchor="middle" x="495.5" y="-11.3" font-family="Times,serif" font-size="14.00" fill="#0058ad">r 737 [1]</text>
</g>
<!-- T1724&#45;&gt;T1725 -->
<g id="edge1" class="edge">
<title>T1724:f0&#45;&gt;T1725:f3</title>
<path fill="none" stroke="#5b00c0" d="M81.5,-81C81.5,-42.13 125.08,-58.54 162.5,-48 182.8,-42.28 248.29,-51.21 267.29,-38.69"/>
<polygon fill="#5b00c0" stroke="#5b00c0" points="270.36,-40.38 272.5,-30 264.36,-36.78 270.36,-40.38"/>
<text text-anchor="middle" x="172" y="-51.8" font-family="Times,serif" font-size="14.00" fill="#5b00c0">rw</text>
</g>
<!-- T1725&#45;&gt;T1724 -->
<g id="edge2" class="edge">
<title>T1725:f0&#45;&gt;T1724:f2</title>
<path fill="none" stroke="#5b00c0" d="M39.5,-30C39.5,-61.81 151.72,-36.81 181.5,-48 202.43,-55.86 223.25,-55.22 228.97,-71.08"/>
<polygon fill="#5b00c0" stroke="#5b00c0" points="225.51,-71.65 230.5,-81 232.43,-70.58 225.51,-71.65"/>
<text text-anchor="middle" x="233" y="-51.8" font-family="Times,serif" font-size="14.00" fill="#5b00c0">rw</text>
</g>
</g>
</svg>
