<?xml version="1.0" encoding="UTF-8" standalone="no"?>
<!DOCTYPE svg PUBLIC "-//W3C//DTD SVG 1.1//EN"
 "http://www.w3.org/Graphics/SVG/1.1/DTD/svg11.dtd">
<!-- Generated by graphviz version 2.43.0 (0)
 -->
<!-- Title: a_graph Pages: 1 -->
<svg width="708pt" height="119pt"
 viewBox="0.00 0.00 707.50 119.00" xmlns="http://www.w3.org/2000/svg" xmlns:xlink="http://www.w3.org/1999/xlink">
<g id="graph0" class="graph" transform="scale(1 1) rotate(0) translate(4 115)">
<title>a_graph</title>
<polygon fill="white" stroke="transparent" points="-4,4 -4,-115 703.5,-115 703.5,4 -4,4"/>
<!-- T488 -->
<g id="node1" class="node">
<title>T488</title>
<polygon fill="none" stroke="#0058ad" points="0,-81.5 0,-110.5 635,-110.5 635,-81.5 0,-81.5"/>
<text text-anchor="middle" x="35" y="-92.3" font-family="Times,serif" font-size="14.00" fill="#0058ad">a 210 1</text>
<polyline fill="none" stroke="#0058ad" points="70,-81.5 70,-110.5 "/>
<text text-anchor="middle" x="116" y="-92.3" font-family="Times,serif" font-size="14.00" fill="#0058ad">r 209 [1 2]</text>
<polyline fill="none" stroke="#0058ad" points="162,-81.5 162,-110.5 "/>
<text text-anchor="middle" x="208" y="-92.3" font-family="Times,serif" font-size="14.00" fill="#0058ad">r 209 [1 2]</text>
<polyline fill="none" stroke="#0058ad" points="254,-81.5 254,-110.5 "/>
<text text-anchor="middle" x="300" y="-92.3" font-family="Times,serif" font-size="14.00" fill="#0058ad">r 209 [1 2]</text>
<polyline fill="none" stroke="#0058ad" points="346,-81.5 346,-110.5 "/>
<text text-anchor="middle" x="381" y="-92.3" font-family="Times,serif" font-size="14.00" fill="#0058ad">a 209 3</text>
<polyline fill="none" stroke="#0058ad" points="416,-81.5 416,-110.5 "/>
<text text-anchor="middle" x="451" y="-92.3" font-family="Times,serif" font-size="14.00" fill="#0058ad">a 208 3</text>
<polyline fill="none" stroke="#0058ad" points="486,-81.5 486,-110.5 "/>
<text text-anchor="middle" x="525.5" y="-92.3" font-family="Times,serif" font-size="14.00" fill="#0058ad">r 210 [1]</text>
<polyline fill="none" stroke="#0058ad" points="565,-81.5 565,-110.5 "/>
<text text-anchor="middle" x="600" y="-92.3" font-family="Times,serif" font-size="14.00" fill="#0058ad">r 212 []</text>
</g>
<!-- T492 -->
<g id="node2" class="node">
<title>T492</title>
<polygon fill="none" stroke="#0058ad" points="81.5,-0.5 81.5,-29.5 699.5,-29.5 699.5,-0.5 81.5,-0.5"/>
<text text-anchor="middle" x="116.5" y="-11.3" font-family="Times,serif" font-size="14.00" fill="#0058ad">a 212 1</text>
<polyline fill="none" stroke="#0058ad" points="151.5,-0.5 151.5,-29.5 "/>
<text text-anchor="middle" x="186.5" y="-11.3" font-family="Times,serif" font-size="14.00" fill="#0058ad">a 212 2</text>
<polyline fill="none" stroke="#0058ad" points="221.5,-0.5 221.5,-29.5 "/>
<text text-anchor="middle" x="256.5" y="-11.3" font-family="Times,serif" font-size="14.00" fill="#0058ad">r 210 []</text>
<polyline fill="none" stroke="#0058ad" points="291.5,-0.5 291.5,-29.5 "/>
<text text-anchor="middle" x="337.5" y="-11.3" font-family="Times,serif" font-size="14.00" fill="#0058ad">r 212 [1 2]</text>
<polyline fill="none" stroke="#0058ad" points="383.5,-0.5 383.5,-29.5 "/>
<text text-anchor="middle" x="418.5" y="-11.3" font-family="Times,serif" font-size="14.00" fill="#0058ad">a 212 3</text>
<polyline fill="none" stroke="#0058ad" points="453.5,-0.5 453.5,-29.5 "/>
<text text-anchor="middle" x="488.5" y="-11.3" font-family="Times,serif" font-size="14.00" fill="#0058ad">a 214 1</text>
<polyline fill="none" stroke="#0058ad" points="523.5,-0.5 523.5,-29.5 "/>
<text text-anchor="middle" x="558.5" y="-11.3" font-family="Times,serif" font-size="14.00" fill="#0058ad">r 211 []</text>
<polyline fill="none" stroke="#0058ad" points="593.5,-0.5 593.5,-29.5 "/>
<text text-anchor="middle" x="646.5" y="-11.3" font-family="Times,serif" font-size="14.00" fill="#0058ad">r 212 [1 2 3]</text>
</g>
<!-- T488&#45;&gt;T492 -->
<g id="edge1" class="edge">
<title>T488:f7&#45;&gt;T492:f0</title>
<path fill="none" stroke="#5b00c0" d="M600.5,-81C600.5,-56.07 189.17,-56.74 124.9,-35.81"/>
<polygon fill="#5b00c0" stroke="#5b00c0" points="126.71,-32.81 116.5,-30 122.73,-38.57 126.71,-32.81"/>
<text text-anchor="middle" x="493" y="-51.8" font-family="Times,serif" font-size="14.00" fill="#5b00c0">rw</text>
</g>
<!-- T492&#45;&gt;T488 -->
<g id="edge2" class="edge">
<title>T492:f2&#45;&gt;T488:f0</title>
<path fill="none" stroke="#5b00c0" d="M256.5,-30C256.5,-52.54 80.41,-55.31 41.89,-73.52"/>
<polygon fill="#5b00c0" stroke="#5b00c0" points="39.04,-71.43 34.5,-81 44.02,-76.35 39.04,-71.43"/>
<text text-anchor="middle" x="212" y="-51.8" font-family="Times,serif" font-size="14.00" fill="#5b00c0">rw</text>
</g>
</g>
</svg>
