<?xml version="1.0" encoding="UTF-8" standalone="no"?>
<!DOCTYPE svg PUBLIC "-//W3C//DTD SVG 1.1//EN"
 "http://www.w3.org/Graphics/SVG/1.1/DTD/svg11.dtd">
<!-- Generated by graphviz version 2.43.0 (0)
 -->
<!-- Title: a_graph Pages: 1 -->
<svg width="616pt" height="119pt"
 viewBox="0.00 0.00 616.00 119.00" xmlns="http://www.w3.org/2000/svg" xmlns:xlink="http://www.w3.org/1999/xlink">
<g id="graph0" class="graph" transform="scale(1 1) rotate(0) translate(4 115)">
<title>a_graph</title>
<polygon fill="white" stroke="transparent" points="-4,4 -4,-115 612,-115 612,4 -4,4"/>
<!-- T960 -->
<g id="node1" class="node">
<title>T960</title>
<polygon fill="none" stroke="#0058ad" points="240,-81.5 240,-110.5 608,-110.5 608,-81.5 240,-81.5"/>
<text text-anchor="middle" x="275" y="-92.3" font-family="Times,serif" font-size="14.00" fill="#0058ad">r 410 []</text>
<polyline fill="none" stroke="#0058ad" points="310,-81.5 310,-110.5 "/>
<text text-anchor="middle" x="345" y="-92.3" font-family="Times,serif" font-size="14.00" fill="#0058ad">a 410 1</text>
<polyline fill="none" stroke="#0058ad" points="380,-81.5 380,-110.5 "/>
<text text-anchor="middle" x="419.5" y="-92.3" font-family="Times,serif" font-size="14.00" fill="#0058ad">r 407 [1]</text>
<polyline fill="none" stroke="#0058ad" points="459,-81.5 459,-110.5 "/>
<text text-anchor="middle" x="494" y="-92.3" font-family="Times,serif" font-size="14.00" fill="#0058ad">a 404 2</text>
<polyline fill="none" stroke="#0058ad" points="529,-81.5 529,-110.5 "/>
<text text-anchor="middle" x="568.5" y="-92.3" font-family="Times,serif" font-size="14.00" fill="#0058ad">r 410 [1]</text>
</g>
<!-- T961 -->
<g id="node2" class="node">
<title>T961</title>
<polygon fill="none" stroke="#0058ad" points="0,-0.5 0,-29.5 508,-29.5 508,-0.5 0,-0.5"/>
<text text-anchor="middle" x="39.5" y="-11.3" font-family="Times,serif" font-size="14.00" fill="#0058ad">r 404 [1]</text>
<polyline fill="none" stroke="#0058ad" points="79,-0.5 79,-29.5 "/>
<text text-anchor="middle" x="114" y="-11.3" font-family="Times,serif" font-size="14.00" fill="#0058ad">a 409 1</text>
<polyline fill="none" stroke="#0058ad" points="149,-0.5 149,-29.5 "/>
<text text-anchor="middle" x="184" y="-11.3" font-family="Times,serif" font-size="14.00" fill="#0058ad">r 410 []</text>
<polyline fill="none" stroke="#0058ad" points="219,-0.5 219,-29.5 "/>
<text text-anchor="middle" x="254" y="-11.3" font-family="Times,serif" font-size="14.00" fill="#0058ad">r 410 []</text>
<polyline fill="none" stroke="#0058ad" points="289,-0.5 289,-29.5 "/>
<text text-anchor="middle" x="324" y="-11.3" font-family="Times,serif" font-size="14.00" fill="#0058ad">r 410 []</text>
<polyline fill="none" stroke="#0058ad" points="359,-0.5 359,-29.5 "/>
<text text-anchor="middle" x="398.5" y="-11.3" font-family="Times,serif" font-size="14.00" fill="#0058ad">r 407 [1]</text>
<polyline fill="none" stroke="#0058ad" points="438,-0.5 438,-29.5 "/>
<text text-anchor="middle" x="473" y="-11.3" font-family="Times,serif" font-size="14.00" fill="#0058ad">a 407 2</text>
</g>
<!-- T960&#45;&gt;T961 -->
<g id="edge1" class="edge">
<title>T960:f2&#45;&gt;T961:f6</title>
<path fill="none" stroke="#5b00c0" d="M419,-81C419,-51.99 460.71,-60.08 470.82,-40.05"/>
<polygon fill="#5b00c0" stroke="#5b00c0" points="474.3,-40.52 473,-30 467.46,-39.03 474.3,-40.52"/>
<text text-anchor="middle" x="471.5" y="-51.8" font-family="Times,serif" font-size="14.00" fill="#5b00c0">rw</text>
</g>
<!-- T961&#45;&gt;T960 -->
<g id="edge2" class="edge">
<title>T961:f2&#45;&gt;T960:f1</title>
<path fill="none" stroke="#5b00c0" d="M184,-30C184,-101.25 329.06,-15.56 343.8,-70.87"/>
<polygon fill="#5b00c0" stroke="#5b00c0" points="340.35,-71.48 345,-81 347.3,-70.66 340.35,-71.48"/>
<text text-anchor="middle" x="347.5" y="-51.8" font-family="Times,serif" font-size="14.00" fill="#5b00c0">rw</text>
</g>
</g>
</svg>
