<?xml version="1.0" encoding="UTF-8" standalone="no"?>
<!DOCTYPE svg PUBLIC "-//W3C//DTD SVG 1.1//EN"
 "http://www.w3.org/Graphics/SVG/1.1/DTD/svg11.dtd">
<!-- Generated by graphviz version 2.43.0 (0)
 -->
<!-- Title: a_graph Pages: 1 -->
<svg width="727pt" height="119pt"
 viewBox="0.00 0.00 726.50 119.00" xmlns="http://www.w3.org/2000/svg" xmlns:xlink="http://www.w3.org/1999/xlink">
<g id="graph0" class="graph" transform="scale(1 1) rotate(0) translate(4 115)">
<title>a_graph</title>
<polygon fill="white" stroke="transparent" points="-4,4 -4,-115 722.5,-115 722.5,4 -4,4"/>
<!-- T2716 -->
<g id="node1" class="node">
<title>T2716</title>
<polygon fill="none" stroke="#0058ad" points="0,-81.5 0,-110.5 641,-110.5 641,-81.5 0,-81.5"/>
<text text-anchor="middle" x="44" y="-92.3" font-family="Times,serif" font-size="14.00" fill="#0058ad">r 1149 [1]</text>
<polyline fill="none" stroke="#0058ad" points="88,-81.5 88,-110.5 "/>
<text text-anchor="middle" x="127.5" y="-92.3" font-family="Times,serif" font-size="14.00" fill="#0058ad">r 1142 []</text>
<polyline fill="none" stroke="#0058ad" points="167,-81.5 167,-110.5 "/>
<text text-anchor="middle" x="206.5" y="-92.3" font-family="Times,serif" font-size="14.00" fill="#0058ad">a 1149 2</text>
<polyline fill="none" stroke="#0058ad" points="246,-81.5 246,-110.5 "/>
<text text-anchor="middle" x="285.5" y="-92.3" font-family="Times,serif" font-size="14.00" fill="#0058ad">a 1149 3</text>
<polyline fill="none" stroke="#0058ad" points="325,-81.5 325,-110.5 "/>
<text text-anchor="middle" x="364.5" y="-92.3" font-family="Times,serif" font-size="14.00" fill="#0058ad">a 1153 1</text>
<polyline fill="none" stroke="#0058ad" points="404,-81.5 404,-110.5 "/>
<text text-anchor="middle" x="443.5" y="-92.3" font-family="Times,serif" font-size="14.00" fill="#0058ad">a 1153 2</text>
<polyline fill="none" stroke="#0058ad" points="483,-81.5 483,-110.5 "/>
<text text-anchor="middle" x="522.5" y="-92.3" font-family="Times,serif" font-size="14.00" fill="#0058ad">r 1154 []</text>
<polyline fill="none" stroke="#0058ad" points="562,-81.5 562,-110.5 "/>
<text text-anchor="middle" x="601.5" y="-92.3" font-family="Times,serif" font-size="14.00" fill="#0058ad">a 1153 3</text>
</g>
<!-- T2714 -->
<g id="node2" class="node">
<title>T2714</title>
<polygon fill="none" stroke="#0058ad" points="384.5,-0.5 384.5,-29.5 718.5,-29.5 718.5,-0.5 384.5,-0.5"/>
<text text-anchor="middle" x="424" y="-11.3" font-family="Times,serif" font-size="14.00" fill="#0058ad">r 1153 []</text>
<polyline fill="none" stroke="#0058ad" points="463.5,-0.5 463.5,-29.5 "/>
<text text-anchor="middle" x="503" y="-11.3" font-family="Times,serif" font-size="14.00" fill="#0058ad">a 1154 1</text>
<polyline fill="none" stroke="#0058ad" points="542.5,-0.5 542.5,-29.5 "/>
<text text-anchor="middle" x="586.5" y="-11.3" font-family="Times,serif" font-size="14.00" fill="#0058ad">r 1154 [1]</text>
<polyline fill="none" stroke="#0058ad" points="630.5,-0.5 630.5,-29.5 "/>
<text text-anchor="middle" x="674.5" y="-11.3" font-family="Times,serif" font-size="14.00" fill="#0058ad">r 1154 [1]</text>
</g>
<!-- T2716&#45;&gt;T2714 -->
<g id="edge1" class="edge">
<title>T2716:f6&#45;&gt;T2714:f1</title>
<path fill="none" stroke="#5b00c0" d="M522.5,-81C522.5,-60.46 508.26,-55.61 503.81,-39.97"/>
<polygon fill="#5b00c0" stroke="#5b00c0" points="507.28,-39.46 502.5,-30 500.34,-40.37 507.28,-39.46"/>
<text text-anchor="middle" x="527" y="-51.8" font-family="Times,serif" font-size="14.00" fill="#5b00c0">rw</text>
</g>
<!-- T2714&#45;&gt;T2716 -->
<g id="edge2" class="edge">
<title>T2714:f0&#45;&gt;T2716:f4</title>
<path fill="none" stroke="#5b00c0" d="M383.5,-15C356.31,-15 362.48,-43.14 364.16,-70.86"/>
<polygon fill="#5b00c0" stroke="#5b00c0" points="360.66,-71.12 364.5,-81 367.66,-70.89 360.66,-71.12"/>
<text text-anchor="middle" x="374" y="-51.8" font-family="Times,serif" font-size="14.00" fill="#5b00c0">rw</text>
</g>
</g>
</svg>
