<?xml version="1.0" encoding="UTF-8" standalone="no"?>
<!DOCTYPE svg PUBLIC "-//W3C//DTD SVG 1.1//EN"
 "http://www.w3.org/Graphics/SVG/1.1/DTD/svg11.dtd">
<!-- Generated by graphviz version 2.43.0 (0)
 -->
<!-- Title: a_graph Pages: 1 -->
<svg width="711pt" height="119pt"
 viewBox="0.00 0.00 711.00 119.00" xmlns="http://www.w3.org/2000/svg" xmlns:xlink="http://www.w3.org/1999/xlink">
<g id="graph0" class="graph" transform="scale(1 1) rotate(0) translate(4 115)">
<title>a_graph</title>
<polygon fill="white" stroke="transparent" points="-4,4 -4,-115 707,-115 707,4 -4,4"/>
<!-- T1786 -->
<g id="node1" class="node">
<title>T1786</title>
<polygon fill="none" stroke="#0058ad" points="326,-81.5 326,-110.5 703,-110.5 703,-81.5 326,-81.5"/>
<text text-anchor="middle" x="361" y="-92.3" font-family="Times,serif" font-size="14.00" fill="#0058ad">a 762 1</text>
<polyline fill="none" stroke="#0058ad" points="396,-81.5 396,-110.5 "/>
<text text-anchor="middle" x="435.5" y="-92.3" font-family="Times,serif" font-size="14.00" fill="#0058ad">r 762 [1]</text>
<polyline fill="none" stroke="#0058ad" points="475,-81.5 475,-110.5 "/>
<text text-anchor="middle" x="510" y="-92.3" font-family="Times,serif" font-size="14.00" fill="#0058ad">a 760 1</text>
<polyline fill="none" stroke="#0058ad" points="545,-81.5 545,-110.5 "/>
<text text-anchor="middle" x="584.5" y="-92.3" font-family="Times,serif" font-size="14.00" fill="#0058ad">r 756 [2]</text>
<polyline fill="none" stroke="#0058ad" points="624,-81.5 624,-110.5 "/>
<text text-anchor="middle" x="663.5" y="-92.3" font-family="Times,serif" font-size="14.00" fill="#0058ad">r 762 [1]</text>
</g>
<!-- T1787 -->
<g id="node2" class="node">
<title>T1787</title>
<polygon fill="none" stroke="#0058ad" points="0,-0.5 0,-29.5 627,-29.5 627,-0.5 0,-0.5"/>
<text text-anchor="middle" x="35" y="-11.3" font-family="Times,serif" font-size="14.00" fill="#0058ad">a 761 3</text>
<polyline fill="none" stroke="#0058ad" points="70,-0.5 70,-29.5 "/>
<text text-anchor="middle" x="116" y="-11.3" font-family="Times,serif" font-size="14.00" fill="#0058ad">r 745 [1 2]</text>
<polyline fill="none" stroke="#0058ad" points="162,-0.5 162,-29.5 "/>
<text text-anchor="middle" x="201.5" y="-11.3" font-family="Times,serif" font-size="14.00" fill="#0058ad">r 756 [2]</text>
<polyline fill="none" stroke="#0058ad" points="241,-0.5 241,-29.5 "/>
<text text-anchor="middle" x="276" y="-11.3" font-family="Times,serif" font-size="14.00" fill="#0058ad">a 759 3</text>
<polyline fill="none" stroke="#0058ad" points="311,-0.5 311,-29.5 "/>
<text text-anchor="middle" x="346" y="-11.3" font-family="Times,serif" font-size="14.00" fill="#0058ad">r 762 []</text>
<polyline fill="none" stroke="#0058ad" points="381,-0.5 381,-29.5 "/>
<text text-anchor="middle" x="416" y="-11.3" font-family="Times,serif" font-size="14.00" fill="#0058ad">r 762 []</text>
<polyline fill="none" stroke="#0058ad" points="451,-0.5 451,-29.5 "/>
<text text-anchor="middle" x="504" y="-11.3" font-family="Times,serif" font-size="14.00" fill="#0058ad">r 759 [1 2 3]</text>
<polyline fill="none" stroke="#0058ad" points="557,-0.5 557,-29.5 "/>
<text text-anchor="middle" x="592" y="-11.3" font-family="Times,serif" font-size="14.00" fill="#0058ad">a 756 3</text>
</g>
<!-- T1786&#45;&gt;T1787 -->
<g id="edge1" class="edge">
<title>T1786:f3&#45;&gt;T1787:f7</title>
<path fill="none" stroke="#5b00c0" d="M584.5,-81C584.5,-61.82 590.09,-55.1 591.92,-40.01"/>
<polygon fill="#5b00c0" stroke="#5b00c0" points="595.42,-40.18 592.5,-30 588.43,-39.78 595.42,-40.18"/>
<text text-anchor="middle" x="599" y="-51.8" font-family="Times,serif" font-size="14.00" fill="#5b00c0">rw</text>
</g>
<!-- T1787&#45;&gt;T1786 -->
<g id="edge2" class="edge">
<title>T1787:f4&#45;&gt;T1786:f0</title>
<path fill="none" stroke="#5b00c0" d="M346.5,-30C346.5,-49.65 356.28,-55.66 359.49,-70.83"/>
<polygon fill="#5b00c0" stroke="#5b00c0" points="356.03,-71.39 360.5,-81 363,-70.7 356.03,-71.39"/>
<text text-anchor="middle" x="366" y="-51.8" font-family="Times,serif" font-size="14.00" fill="#5b00c0">rw</text>
</g>
</g>
</svg>
