<?xml version="1.0" encoding="UTF-8" standalone="no"?>
<!DOCTYPE svg PUBLIC "-//W3C//DTD SVG 1.1//EN"
 "http://www.w3.org/Graphics/SVG/1.1/DTD/svg11.dtd">
<!-- Generated by graphviz version 2.43.0 (0)
 -->
<!-- Title: a_graph Pages: 1 -->
<svg width="703pt" height="119pt"
 viewBox="0.00 0.00 703.00 119.00" xmlns="http://www.w3.org/2000/svg" xmlns:xlink="http://www.w3.org/1999/xlink">
<g id="graph0" class="graph" transform="scale(1 1) rotate(0) translate(4 115)">
<title>a_graph</title>
<polygon fill="white" stroke="transparent" points="-4,4 -4,-115 699,-115 699,4 -4,4"/>
<!-- T3068 -->
<g id="node1" class="node">
<title>T3068</title>
<polygon fill="none" stroke="#0058ad" points="56,-81.5 56,-110.5 495,-110.5 495,-81.5 56,-81.5"/>
<text text-anchor="middle" x="95.5" y="-92.3" font-family="Times,serif" font-size="14.00" fill="#0058ad">a 1314 2</text>
<polyline fill="none" stroke="#0058ad" points="135,-81.5 135,-110.5 "/>
<text text-anchor="middle" x="185.5" y="-92.3" font-family="Times,serif" font-size="14.00" fill="#0058ad">r 1314 [1 2]</text>
<polyline fill="none" stroke="#0058ad" points="236,-81.5 236,-110.5 "/>
<text text-anchor="middle" x="286.5" y="-92.3" font-family="Times,serif" font-size="14.00" fill="#0058ad">r 1314 [1 2]</text>
<polyline fill="none" stroke="#0058ad" points="337,-81.5 337,-110.5 "/>
<text text-anchor="middle" x="376.5" y="-92.3" font-family="Times,serif" font-size="14.00" fill="#0058ad">a 1313 1</text>
<polyline fill="none" stroke="#0058ad" points="416,-81.5 416,-110.5 "/>
<text text-anchor="middle" x="455.5" y="-92.3" font-family="Times,serif" font-size="14.00" fill="#0058ad">r 1312 []</text>
</g>
<!-- T3069 -->
<g id="node2" class="node">
<title>T3069</title>
<polygon fill="none" stroke="#0058ad" points="0,-0.5 0,-29.5 695,-29.5 695,-0.5 0,-0.5"/>
<text text-anchor="middle" x="57.5" y="-11.3" font-family="Times,serif" font-size="14.00" fill="#0058ad">r 1299 [1 2 3]</text>
<polyline fill="none" stroke="#0058ad" points="115,-0.5 115,-29.5 "/>
<text text-anchor="middle" x="154.5" y="-11.3" font-family="Times,serif" font-size="14.00" fill="#0058ad">a 1312 3</text>
<polyline fill="none" stroke="#0058ad" points="194,-0.5 194,-29.5 "/>
<text text-anchor="middle" x="238" y="-11.3" font-family="Times,serif" font-size="14.00" fill="#0058ad">r 1314 [1]</text>
<polyline fill="none" stroke="#0058ad" points="282,-0.5 282,-29.5 "/>
<text text-anchor="middle" x="326" y="-11.3" font-family="Times,serif" font-size="14.00" fill="#0058ad">r 1312 [3]</text>
<polyline fill="none" stroke="#0058ad" points="370,-0.5 370,-29.5 "/>
<text text-anchor="middle" x="409.5" y="-11.3" font-family="Times,serif" font-size="14.00" fill="#0058ad">r 1315 []</text>
<polyline fill="none" stroke="#0058ad" points="449,-0.5 449,-29.5 "/>
<text text-anchor="middle" x="488.5" y="-11.3" font-family="Times,serif" font-size="14.00" fill="#0058ad">a 1317 1</text>
<polyline fill="none" stroke="#0058ad" points="528,-0.5 528,-29.5 "/>
<text text-anchor="middle" x="572" y="-11.3" font-family="Times,serif" font-size="14.00" fill="#0058ad">r 1317 [1]</text>
<polyline fill="none" stroke="#0058ad" points="616,-0.5 616,-29.5 "/>
<text text-anchor="middle" x="655.5" y="-11.3" font-family="Times,serif" font-size="14.00" fill="#0058ad">r 1316 []</text>
</g>
<!-- T3068&#45;&gt;T3069 -->
<g id="edge1" class="edge">
<title>T3068:f4&#45;&gt;T3069:f1</title>
<path fill="none" stroke="#5b00c0" d="M455.5,-81C455.5,-50.06 205.09,-61.35 161.07,-37.84"/>
<polygon fill="#5b00c0" stroke="#5b00c0" points="163.61,-35.42 154.5,-30 158.24,-39.91 163.61,-35.42"/>
<text text-anchor="middle" x="407" y="-51.8" font-family="Times,serif" font-size="14.00" fill="#5b00c0">rw</text>
</g>
<!-- T3069&#45;&gt;T3068 -->
<g id="edge2" class="edge">
<title>T3069:f2&#45;&gt;T3068:f0</title>
<path fill="none" stroke="#5b00c0" d="M237.5,-30C237.5,-31.77 136.41,-65.37 104.82,-77.08"/>
<polygon fill="#5b00c0" stroke="#5b00c0" points="103.36,-73.9 95.5,-81 106.07,-80.35 103.36,-73.9"/>
<text text-anchor="middle" x="197" y="-51.8" font-family="Times,serif" font-size="14.00" fill="#5b00c0">rw</text>
</g>
</g>
</svg>
