<?xml version="1.0" encoding="UTF-8" standalone="no"?>
<!DOCTYPE svg PUBLIC "-//W3C//DTD SVG 1.1//EN"
 "http://www.w3.org/Graphics/SVG/1.1/DTD/svg11.dtd">
<!-- Generated by graphviz version 2.43.0 (0)
 -->
<!-- Title: a_graph Pages: 1 -->
<svg width="374pt" height="119pt"
 viewBox="0.00 0.00 374.00 119.00" xmlns="http://www.w3.org/2000/svg" xmlns:xlink="http://www.w3.org/1999/xlink">
<g id="graph0" class="graph" transform="scale(1 1) rotate(0) translate(4 115)">
<title>a_graph</title>
<polygon fill="white" stroke="transparent" points="-4,4 -4,-115 370,-115 370,4 -4,4"/>
<!-- T2372 -->
<g id="node1" class="node">
<title>T2372</title>
<polygon fill="none" stroke="#0058ad" points="0,-81.5 0,-110.5 325,-110.5 325,-81.5 0,-81.5"/>
<text text-anchor="middle" x="39.5" y="-92.3" font-family="Times,serif" font-size="14.00" fill="#0058ad">a 1007 2</text>
<polyline fill="none" stroke="#0058ad" points="79,-81.5 79,-110.5 "/>
<text text-anchor="middle" x="123" y="-92.3" font-family="Times,serif" font-size="14.00" fill="#0058ad">r 1005 [1]</text>
<polyline fill="none" stroke="#0058ad" points="167,-81.5 167,-110.5 "/>
<text text-anchor="middle" x="206.5" y="-92.3" font-family="Times,serif" font-size="14.00" fill="#0058ad">a 1007 3</text>
<polyline fill="none" stroke="#0058ad" points="246,-81.5 246,-110.5 "/>
<text text-anchor="middle" x="285.5" y="-92.3" font-family="Times,serif" font-size="14.00" fill="#0058ad">r 1008 []</text>
</g>
<!-- T2374 -->
<g id="node2" class="node">
<title>T2374</title>
<polygon fill="none" stroke="#0058ad" points="41,-0.5 41,-29.5 366,-29.5 366,-0.5 41,-0.5"/>
<text text-anchor="middle" x="80.5" y="-11.3" font-family="Times,serif" font-size="14.00" fill="#0058ad">a 1008 2</text>
<polyline fill="none" stroke="#0058ad" points="120,-0.5 120,-29.5 "/>
<text text-anchor="middle" x="159.5" y="-11.3" font-family="Times,serif" font-size="14.00" fill="#0058ad">a 1008 3</text>
<polyline fill="none" stroke="#0058ad" points="199,-0.5 199,-29.5 "/>
<text text-anchor="middle" x="243" y="-11.3" font-family="Times,serif" font-size="14.00" fill="#0058ad">r 1007 [1]</text>
<polyline fill="none" stroke="#0058ad" points="287,-0.5 287,-29.5 "/>
<text text-anchor="middle" x="326.5" y="-11.3" font-family="Times,serif" font-size="14.00" fill="#0058ad">a 1010 1</text>
</g>
<!-- T2372&#45;&gt;T2374 -->
<g id="edge1" class="edge">
<title>T2372:f3&#45;&gt;T2374:f0</title>
<path fill="none" stroke="#5b00c0" d="M285.5,-81C285.5,-60.19 124.31,-54.64 87.8,-37.29"/>
<polygon fill="#5b00c0" stroke="#5b00c0" points="90.05,-34.59 80.5,-30 85.1,-39.54 90.05,-34.59"/>
<text text-anchor="middle" x="240" y="-51.8" font-family="Times,serif" font-size="14.00" fill="#5b00c0">rw</text>
</g>
<!-- T2374&#45;&gt;T2372 -->
<g id="edge2" class="edge">
<title>T2374:f2&#45;&gt;T2372:f0</title>
<path fill="none" stroke="#5b00c0" d="M243.5,-30C243.5,-59.6 139.93,-39.74 111.5,-48 81.39,-56.74 47.8,-48.17 40.82,-71.05"/>
<polygon fill="#5b00c0" stroke="#5b00c0" points="37.34,-70.63 39.5,-81 44.28,-71.55 37.34,-70.63"/>
<text text-anchor="middle" x="121" y="-51.8" font-family="Times,serif" font-size="14.00" fill="#5b00c0">rw</text>
</g>
</g>
</svg>
