<?xml version="1.0" encoding="UTF-8" standalone="no"?>
<!DOCTYPE svg PUBLIC "-//W3C//DTD SVG 1.1//EN"
 "http://www.w3.org/Graphics/SVG/1.1/DTD/svg11.dtd">
<!-- Generated by graphviz version 2.43.0 (0)
 -->
<!-- Title: a_graph Pages: 1 -->
<svg width="589pt" height="119pt"
 viewBox="0.00 0.00 588.50 119.00" xmlns="http://www.w3.org/2000/svg" xmlns:xlink="http://www.w3.org/1999/xlink">
<g id="graph0" class="graph" transform="scale(1 1) rotate(0) translate(4 115)">
<title>a_graph</title>
<polygon fill="white" stroke="transparent" points="-4,4 -4,-115 584.5,-115 584.5,4 -4,4"/>
<!-- T645 -->
<g id="node1" class="node">
<title>T645</title>
<polygon fill="none" stroke="#0058ad" points="41.5,-81.5 41.5,-110.5 580.5,-110.5 580.5,-81.5 41.5,-81.5"/>
<text text-anchor="middle" x="81" y="-92.3" font-family="Times,serif" font-size="14.00" fill="#0058ad">r 274 [1]</text>
<polyline fill="none" stroke="#0058ad" points="120.5,-81.5 120.5,-110.5 "/>
<text text-anchor="middle" x="155.5" y="-92.3" font-family="Times,serif" font-size="14.00" fill="#0058ad">a 277 3</text>
<polyline fill="none" stroke="#0058ad" points="190.5,-81.5 190.5,-110.5 "/>
<text text-anchor="middle" x="230" y="-92.3" font-family="Times,serif" font-size="14.00" fill="#0058ad">r 274 [1]</text>
<polyline fill="none" stroke="#0058ad" points="269.5,-81.5 269.5,-110.5 "/>
<text text-anchor="middle" x="309" y="-92.3" font-family="Times,serif" font-size="14.00" fill="#0058ad">r 277 [3]</text>
<polyline fill="none" stroke="#0058ad" points="348.5,-81.5 348.5,-110.5 "/>
<text text-anchor="middle" x="383.5" y="-92.3" font-family="Times,serif" font-size="14.00" fill="#0058ad">a 280 1</text>
<polyline fill="none" stroke="#0058ad" points="418.5,-81.5 418.5,-110.5 "/>
<text text-anchor="middle" x="453.5" y="-92.3" font-family="Times,serif" font-size="14.00" fill="#0058ad">a 280 2</text>
<polyline fill="none" stroke="#0058ad" points="488.5,-81.5 488.5,-110.5 "/>
<text text-anchor="middle" x="534.5" y="-92.3" font-family="Times,serif" font-size="14.00" fill="#0058ad">r 280 [1 2]</text>
</g>
<!-- T646 -->
<g id="node2" class="node">
<title>T646</title>
<polygon fill="none" stroke="#0058ad" points="0,-0.5 0,-29.5 438,-29.5 438,-0.5 0,-0.5"/>
<text text-anchor="middle" x="39.5" y="-11.3" font-family="Times,serif" font-size="14.00" fill="#0058ad">r 274 [1]</text>
<polyline fill="none" stroke="#0058ad" points="79,-0.5 79,-29.5 "/>
<text text-anchor="middle" x="114" y="-11.3" font-family="Times,serif" font-size="14.00" fill="#0058ad">r 279 []</text>
<polyline fill="none" stroke="#0058ad" points="149,-0.5 149,-29.5 "/>
<text text-anchor="middle" x="188.5" y="-11.3" font-family="Times,serif" font-size="14.00" fill="#0058ad">r 274 [1]</text>
<polyline fill="none" stroke="#0058ad" points="228,-0.5 228,-29.5 "/>
<text text-anchor="middle" x="263" y="-11.3" font-family="Times,serif" font-size="14.00" fill="#0058ad">r 280 []</text>
<polyline fill="none" stroke="#0058ad" points="298,-0.5 298,-29.5 "/>
<text text-anchor="middle" x="333" y="-11.3" font-family="Times,serif" font-size="14.00" fill="#0058ad">a 274 2</text>
<polyline fill="none" stroke="#0058ad" points="368,-0.5 368,-29.5 "/>
<text text-anchor="middle" x="403" y="-11.3" font-family="Times,serif" font-size="14.00" fill="#0058ad">r 280 []</text>
</g>
<!-- T645&#45;&gt;T646 -->
<g id="edge1" class="edge">
<title>T645:f0&#45;&gt;T646:f4</title>
<path fill="none" stroke="#5b00c0" d="M81,-81C81,-68.31 280.01,-49.18 324.33,-35.05"/>
<polygon fill="#5b00c0" stroke="#5b00c0" points="326.12,-38.06 333,-30 322.6,-32.01 326.12,-38.06"/>
<text text-anchor="middle" x="260.5" y="-51.8" font-family="Times,serif" font-size="14.00" fill="#5b00c0">rw</text>
</g>
<!-- T646&#45;&gt;T645 -->
<g id="edge2" class="edge">
<title>T646:f3&#45;&gt;T645:f4</title>
<path fill="none" stroke="#5b00c0" d="M263,-30C263,-55.65 356.47,-53.07 379.11,-71.88"/>
<polygon fill="#5b00c0" stroke="#5b00c0" points="376.19,-73.84 384,-81 382.36,-70.53 376.19,-73.84"/>
<text text-anchor="middle" x="366.5" y="-51.8" font-family="Times,serif" font-size="14.00" fill="#5b00c0">rw</text>
</g>
</g>
</svg>
