<?xml version="1.0" encoding="UTF-8" standalone="no"?>
<!DOCTYPE svg PUBLIC "-//W3C//DTD SVG 1.1//EN"
 "http://www.w3.org/Graphics/SVG/1.1/DTD/svg11.dtd">
<!-- Generated by graphviz version 2.43.0 (0)
 -->
<!-- Title: a_graph Pages: 1 -->
<svg width="667pt" height="119pt"
 viewBox="0.00 0.00 667.00 119.00" xmlns="http://www.w3.org/2000/svg" xmlns:xlink="http://www.w3.org/1999/xlink">
<g id="graph0" class="graph" transform="scale(1 1) rotate(0) translate(4 115)">
<title>a_graph</title>
<polygon fill="white" stroke="transparent" points="-4,4 -4,-115 663,-115 663,4 -4,4"/>
<!-- T3371 -->
<g id="node1" class="node">
<title>T3371</title>
<polygon fill="none" stroke="#0058ad" points="0,-81.5 0,-110.5 659,-110.5 659,-81.5 0,-81.5"/>
<text text-anchor="middle" x="39.5" y="-92.3" font-family="Times,serif" font-size="14.00" fill="#0058ad">r 1445 []</text>
<polyline fill="none" stroke="#0058ad" points="79,-81.5 79,-110.5 "/>
<text text-anchor="middle" x="123" y="-92.3" font-family="Times,serif" font-size="14.00" fill="#0058ad">r 1450 [1]</text>
<polyline fill="none" stroke="#0058ad" points="167,-81.5 167,-110.5 "/>
<text text-anchor="middle" x="211" y="-92.3" font-family="Times,serif" font-size="14.00" fill="#0058ad">r 1451 [1]</text>
<polyline fill="none" stroke="#0058ad" points="255,-81.5 255,-110.5 "/>
<text text-anchor="middle" x="299" y="-92.3" font-family="Times,serif" font-size="14.00" fill="#0058ad">r 1450 [1]</text>
<polyline fill="none" stroke="#0058ad" points="343,-81.5 343,-110.5 "/>
<text text-anchor="middle" x="382.5" y="-92.3" font-family="Times,serif" font-size="14.00" fill="#0058ad">a 1450 2</text>
<polyline fill="none" stroke="#0058ad" points="422,-81.5 422,-110.5 "/>
<text text-anchor="middle" x="461.5" y="-92.3" font-family="Times,serif" font-size="14.00" fill="#0058ad">a 1450 3</text>
<polyline fill="none" stroke="#0058ad" points="501,-81.5 501,-110.5 "/>
<text text-anchor="middle" x="540.5" y="-92.3" font-family="Times,serif" font-size="14.00" fill="#0058ad">a 1451 2</text>
<polyline fill="none" stroke="#0058ad" points="580,-81.5 580,-110.5 "/>
<text text-anchor="middle" x="619.5" y="-92.3" font-family="Times,serif" font-size="14.00" fill="#0058ad">r 1445 []</text>
</g>
<!-- T3368 -->
<g id="node2" class="node">
<title>T3368</title>
<polygon fill="none" stroke="#0058ad" points="58,-0.5 58,-29.5 647,-29.5 647,-0.5 58,-0.5"/>
<text text-anchor="middle" x="97.5" y="-11.3" font-family="Times,serif" font-size="14.00" fill="#0058ad">a 1445 1</text>
<polyline fill="none" stroke="#0058ad" points="137,-0.5 137,-29.5 "/>
<text text-anchor="middle" x="176.5" y="-11.3" font-family="Times,serif" font-size="14.00" fill="#0058ad">a 1447 2</text>
<polyline fill="none" stroke="#0058ad" points="216,-0.5 216,-29.5 "/>
<text text-anchor="middle" x="260" y="-11.3" font-family="Times,serif" font-size="14.00" fill="#0058ad">r 1451 [1]</text>
<polyline fill="none" stroke="#0058ad" points="304,-0.5 304,-29.5 "/>
<text text-anchor="middle" x="348" y="-11.3" font-family="Times,serif" font-size="14.00" fill="#0058ad">r 1450 [1]</text>
<polyline fill="none" stroke="#0058ad" points="392,-0.5 392,-29.5 "/>
<text text-anchor="middle" x="436" y="-11.3" font-family="Times,serif" font-size="14.00" fill="#0058ad">r 1445 [1]</text>
<polyline fill="none" stroke="#0058ad" points="480,-0.5 480,-29.5 "/>
<text text-anchor="middle" x="519.5" y="-11.3" font-family="Times,serif" font-size="14.00" fill="#0058ad">a 1446 1</text>
<polyline fill="none" stroke="#0058ad" points="559,-0.5 559,-29.5 "/>
<text text-anchor="middle" x="603" y="-11.3" font-family="Times,serif" font-size="14.00" fill="#0058ad">r 1450 [1]</text>
</g>
<!-- T3371&#45;&gt;T3368 -->
<g id="edge1" class="edge">
<title>T3371:f0&#45;&gt;T3368:f0</title>
<path fill="none" stroke="#5b00c0" d="M39.5,-81C39.5,-54.73 29.51,-24.39 46.6,-16.79"/>
<polygon fill="#5b00c0" stroke="#5b00c0" points="47.28,-20.23 56.5,-15 46.04,-13.34 47.28,-20.23"/>
<text text-anchor="middle" x="48" y="-51.8" font-family="Times,serif" font-size="14.00" fill="#5b00c0">rw</text>
</g>
<!-- T3368&#45;&gt;T3371 -->
<g id="edge2" class="edge">
<title>T3368:f3&#45;&gt;T3371:f4</title>
<path fill="none" stroke="#5b00c0" d="M347.5,-30C347.5,-53.63 373.35,-54.01 380.62,-71.09"/>
<polygon fill="#5b00c0" stroke="#5b00c0" points="377.2,-71.83 382.5,-81 384.07,-70.52 377.2,-71.83"/>
<text text-anchor="middle" x="383" y="-51.8" font-family="Times,serif" font-size="14.00" fill="#5b00c0">rw</text>
</g>
</g>
</svg>
