<?xml version="1.0" encoding="UTF-8" standalone="no"?>
<!DOCTYPE svg PUBLIC "-//W3C//DTD SVG 1.1//EN"
 "http://www.w3.org/Graphics/SVG/1.1/DTD/svg11.dtd">
<!-- Generated by graphviz version 2.43.0 (0)
 -->
<!-- Title: a_graph Pages: 1 -->
<svg width="681pt" height="119pt"
 viewBox="0.00 0.00 680.50 119.00" xmlns="http://www.w3.org/2000/svg" xmlns:xlink="http://www.w3.org/1999/xlink">
<g id="graph0" class="graph" transform="scale(1 1) rotate(0) translate(4 115)">
<title>a_graph</title>
<polygon fill="white" stroke="transparent" points="-4,4 -4,-115 676.5,-115 676.5,4 -4,4"/>
<!-- T201 -->
<g id="node1" class="node">
<title>T201</title>
<polygon fill="none" stroke="#0058ad" points="74.5,-81.5 74.5,-110.5 672.5,-110.5 672.5,-81.5 74.5,-81.5"/>
<text text-anchor="middle" x="105" y="-92.3" font-family="Times,serif" font-size="14.00" fill="#0058ad">r 84 []</text>
<polyline fill="none" stroke="#0058ad" points="135.5,-81.5 135.5,-110.5 "/>
<text text-anchor="middle" x="166" y="-92.3" font-family="Times,serif" font-size="14.00" fill="#0058ad">a 82 3</text>
<polyline fill="none" stroke="#0058ad" points="196.5,-81.5 196.5,-110.5 "/>
<text text-anchor="middle" x="238" y="-92.3" font-family="Times,serif" font-size="14.00" fill="#0058ad">r 82 [1 3]</text>
<polyline fill="none" stroke="#0058ad" points="279.5,-81.5 279.5,-110.5 "/>
<text text-anchor="middle" x="321" y="-92.3" font-family="Times,serif" font-size="14.00" fill="#0058ad">r 85 [1 2]</text>
<polyline fill="none" stroke="#0058ad" points="362.5,-81.5 362.5,-110.5 "/>
<text text-anchor="middle" x="404" y="-92.3" font-family="Times,serif" font-size="14.00" fill="#0058ad">r 82 [1 3]</text>
<polyline fill="none" stroke="#0058ad" points="445.5,-81.5 445.5,-110.5 "/>
<text text-anchor="middle" x="476" y="-92.3" font-family="Times,serif" font-size="14.00" fill="#0058ad">a 86 1</text>
<polyline fill="none" stroke="#0058ad" points="506.5,-81.5 506.5,-110.5 "/>
<text text-anchor="middle" x="548" y="-92.3" font-family="Times,serif" font-size="14.00" fill="#0058ad">r 82 [1 3]</text>
<polyline fill="none" stroke="#0058ad" points="589.5,-81.5 589.5,-110.5 "/>
<text text-anchor="middle" x="631" y="-92.3" font-family="Times,serif" font-size="14.00" fill="#0058ad">r 82 [1 3]</text>
</g>
<!-- T200 -->
<g id="node2" class="node">
<title>T200</title>
<polygon fill="none" stroke="#0058ad" points="0,-0.5 0,-29.5 469,-29.5 469,-0.5 0,-0.5"/>
<text text-anchor="middle" x="41.5" y="-11.3" font-family="Times,serif" font-size="14.00" fill="#0058ad">r 85 [1 2]</text>
<polyline fill="none" stroke="#0058ad" points="83,-0.5 83,-29.5 "/>
<text text-anchor="middle" x="113.5" y="-11.3" font-family="Times,serif" font-size="14.00" fill="#0058ad">a 85 3</text>
<polyline fill="none" stroke="#0058ad" points="144,-0.5 144,-29.5 "/>
<text text-anchor="middle" x="192.5" y="-11.3" font-family="Times,serif" font-size="14.00" fill="#0058ad">r 85 [1 2 3]</text>
<polyline fill="none" stroke="#0058ad" points="241,-0.5 241,-29.5 "/>
<text text-anchor="middle" x="289.5" y="-11.3" font-family="Times,serif" font-size="14.00" fill="#0058ad">r 85 [1 2 3]</text>
<polyline fill="none" stroke="#0058ad" points="338,-0.5 338,-29.5 "/>
<text text-anchor="middle" x="373" y="-11.3" font-family="Times,serif" font-size="14.00" fill="#0058ad">r 82 [1]</text>
<polyline fill="none" stroke="#0058ad" points="408,-0.5 408,-29.5 "/>
<text text-anchor="middle" x="438.5" y="-11.3" font-family="Times,serif" font-size="14.00" fill="#0058ad">a 81 2</text>
</g>
<!-- T201&#45;&gt;T200 -->
<g id="edge1" class="edge">
<title>T201:f3&#45;&gt;T200:f1</title>
<path fill="none" stroke="#5b00c0" d="M320.5,-81C320.5,-32.93 264.18,-59.46 217.5,-48 198.28,-43.28 137.45,-50.41 118.92,-38.66"/>
<polygon fill="#5b00c0" stroke="#5b00c0" points="121.77,-36.62 113.5,-30 115.83,-40.33 121.77,-36.62"/>
<text text-anchor="middle" x="325" y="-51.8" font-family="Times,serif" font-size="14.00" fill="#5b00c0">rw</text>
</g>
<!-- T200&#45;&gt;T201 -->
<g id="edge2" class="edge">
<title>T200:f4&#45;&gt;T201:f1</title>
<path fill="none" stroke="#5b00c0" d="M373.5,-30C373.5,-49.99 212.28,-38.86 194.5,-48 180.66,-55.12 170.46,-59.45 166.89,-70.79"/>
<polygon fill="#5b00c0" stroke="#5b00c0" points="163.38,-70.62 165.5,-81 170.32,-71.56 163.38,-70.62"/>
<text text-anchor="middle" x="204" y="-51.8" font-family="Times,serif" font-size="14.00" fill="#5b00c0">rw</text>
</g>
</g>
</svg>
