<?xml version="1.0" encoding="UTF-8" standalone="no"?>
<!DOCTYPE svg PUBLIC "-//W3C//DTD SVG 1.1//EN"
 "http://www.w3.org/Graphics/SVG/1.1/DTD/svg11.dtd">
<!-- Generated by graphviz version 2.43.0 (0)
 -->
<!-- Title: a_graph Pages: 1 -->
<svg width="518pt" height="200pt"
 viewBox="0.00 0.00 518.00 200.00" xmlns="http://www.w3.org/2000/svg" xmlns:xlink="http://www.w3.org/1999/xlink">
<g id="graph0" class="graph" transform="scale(1 1) rotate(0) translate(4 196)">
<title>a_graph</title>
<polygon fill="white" stroke="transparent" points="-4,4 -4,-196 514,-196 514,4 -4,4"/>
<!-- T1672 -->
<g id="node1" class="node">
<title>T1672</title>
<polygon fill="none" stroke="#0058ad" points="73.5,-162.5 73.5,-191.5 467.5,-191.5 467.5,-162.5 73.5,-162.5"/>
<text text-anchor="middle" x="108.5" y="-173.3" font-family="Times,serif" font-size="14.00" fill="#0058ad">r 714 []</text>
<polyline fill="none" stroke="#0058ad" points="143.5,-162.5 143.5,-191.5 "/>
<text text-anchor="middle" x="189.5" y="-173.3" font-family="Times,serif" font-size="14.00" fill="#0058ad">r 711 [1 2]</text>
<polyline fill="none" stroke="#0058ad" points="235.5,-162.5 235.5,-191.5 "/>
<text text-anchor="middle" x="281.5" y="-173.3" font-family="Times,serif" font-size="14.00" fill="#0058ad">r 711 [1 2]</text>
<polyline fill="none" stroke="#0058ad" points="327.5,-162.5 327.5,-191.5 "/>
<text text-anchor="middle" x="362.5" y="-173.3" font-family="Times,serif" font-size="14.00" fill="#0058ad">r 714 []</text>
<polyline fill="none" stroke="#0058ad" points="397.5,-162.5 397.5,-191.5 "/>
<text text-anchor="middle" x="432.5" y="-173.3" font-family="Times,serif" font-size="14.00" fill="#0058ad">a 714 1</text>
</g>
<!-- T1671 -->
<g id="node3" class="node">
<title>T1671</title>
<polygon fill="none" stroke="#0058ad" points="0,-81.5 0,-110.5 289,-110.5 289,-81.5 0,-81.5"/>
<text text-anchor="middle" x="39.5" y="-92.3" font-family="Times,serif" font-size="14.00" fill="#0058ad">r 712 [1]</text>
<polyline fill="none" stroke="#0058ad" points="79,-81.5 79,-110.5 "/>
<text text-anchor="middle" x="114" y="-92.3" font-family="Times,serif" font-size="14.00" fill="#0058ad">r 713 []</text>
<polyline fill="none" stroke="#0058ad" points="149,-81.5 149,-110.5 "/>
<text text-anchor="middle" x="184" y="-92.3" font-family="Times,serif" font-size="14.00" fill="#0058ad">r 713 []</text>
<polyline fill="none" stroke="#0058ad" points="219,-81.5 219,-110.5 "/>
<text text-anchor="middle" x="254" y="-92.3" font-family="Times,serif" font-size="14.00" fill="#0058ad">a 711 3</text>
</g>
<!-- T1672&#45;&gt;T1671 -->
<g id="edge1" class="edge">
<title>T1672:f1&#45;&gt;T1671:f3</title>
<path fill="none" stroke="#5b00c0" d="M189.5,-162C189.5,-129.3 241.06,-143.52 252.34,-121.08"/>
<polygon fill="#5b00c0" stroke="#5b00c0" points="255.82,-121.51 254.5,-111 248.98,-120.04 255.82,-121.51"/>
<text text-anchor="middle" x="254" y="-132.8" font-family="Times,serif" font-size="14.00" fill="#5b00c0">rw</text>
</g>
<!-- T1673 -->
<g id="node2" class="node">
<title>T1673</title>
<polygon fill="none" stroke="#0058ad" points="221,-0.5 221,-29.5 510,-29.5 510,-0.5 221,-0.5"/>
<text text-anchor="middle" x="256" y="-11.3" font-family="Times,serif" font-size="14.00" fill="#0058ad">r 714 []</text>
<polyline fill="none" stroke="#0058ad" points="291,-0.5 291,-29.5 "/>
<text text-anchor="middle" x="330.5" y="-11.3" font-family="Times,serif" font-size="14.00" fill="#0058ad">r 712 [1]</text>
<polyline fill="none" stroke="#0058ad" points="370,-0.5 370,-29.5 "/>
<text text-anchor="middle" x="405" y="-11.3" font-family="Times,serif" font-size="14.00" fill="#0058ad">a 712 3</text>
<polyline fill="none" stroke="#0058ad" points="440,-0.5 440,-29.5 "/>
<text text-anchor="middle" x="475" y="-11.3" font-family="Times,serif" font-size="14.00" fill="#0058ad">a 715 1</text>
</g>
<!-- T1673&#45;&gt;T1672 -->
<g id="edge2" class="edge">
<title>T1673:f0&#45;&gt;T1672:f4</title>
<path fill="none" stroke="#5b00c0" d="M255.5,-30C255.5,-58.72 360.67,-30.56 383.5,-48 424.59,-79.38 431.7,-103.65 432.43,-152"/>
<polygon fill="#5b00c0" stroke="#5b00c0" points="428.93,-152.02 432.5,-162 435.93,-151.98 428.93,-152.02"/>
<text text-anchor="middle" x="438" y="-92.3" font-family="Times,serif" font-size="14.00" fill="#5b00c0">rw</text>
</g>
<!-- T1671&#45;&gt;T1673 -->
<g id="edge3" class="edge">
<title>T1671:f0&#45;&gt;T1673:f2</title>
<path fill="none" stroke="#5b00c0" d="M39.5,-81C39.5,-43.07 351.87,-66.74 399.45,-38.19"/>
<polygon fill="#5b00c0" stroke="#5b00c0" points="402.38,-40.12 405.5,-30 396.74,-35.97 402.38,-40.12"/>
<text text-anchor="middle" x="370" y="-51.8" font-family="Times,serif" font-size="14.00" fill="#5b00c0">rw</text>
</g>
</g>
</svg>
