<?xml version="1.0" encoding="UTF-8" standalone="no"?>
<!DOCTYPE svg PUBLIC "-//W3C//DTD SVG 1.1//EN"
 "http://www.w3.org/Graphics/SVG/1.1/DTD/svg11.dtd">
<!-- Generated by graphviz version 2.43.0 (0)
 -->
<!-- Title: a_graph Pages: 1 -->
<svg width="640pt" height="119pt"
 viewBox="0.00 0.00 640.00 119.00" xmlns="http://www.w3.org/2000/svg" xmlns:xlink="http://www.w3.org/1999/xlink">
<g id="graph0" class="graph" transform="scale(1 1) rotate(0) translate(4 115)">
<title>a_graph</title>
<polygon fill="white" stroke="transparent" points="-4,4 -4,-115 636,-115 636,4 -4,4"/>
<!-- T3448 -->
<g id="node1" class="node">
<title>T3448</title>
<polygon fill="none" stroke="#0058ad" points="0,-81.5 0,-110.5 395,-110.5 395,-81.5 0,-81.5"/>
<text text-anchor="middle" x="39.5" y="-92.3" font-family="Times,serif" font-size="14.00" fill="#0058ad">a 1485 3</text>
<polyline fill="none" stroke="#0058ad" points="79,-81.5 79,-110.5 "/>
<text text-anchor="middle" x="118.5" y="-92.3" font-family="Times,serif" font-size="14.00" fill="#0058ad">a 1483 1</text>
<polyline fill="none" stroke="#0058ad" points="158,-81.5 158,-110.5 "/>
<text text-anchor="middle" x="197.5" y="-92.3" font-family="Times,serif" font-size="14.00" fill="#0058ad">a 1484 1</text>
<polyline fill="none" stroke="#0058ad" points="237,-81.5 237,-110.5 "/>
<text text-anchor="middle" x="276.5" y="-92.3" font-family="Times,serif" font-size="14.00" fill="#0058ad">a 1487 1</text>
<polyline fill="none" stroke="#0058ad" points="316,-81.5 316,-110.5 "/>
<text text-anchor="middle" x="355.5" y="-92.3" font-family="Times,serif" font-size="14.00" fill="#0058ad">r 1488 []</text>
</g>
<!-- T3449 -->
<g id="node2" class="node">
<title>T3449</title>
<polygon fill="none" stroke="#0058ad" points="39,-0.5 39,-29.5 632,-29.5 632,-0.5 39,-0.5"/>
<text text-anchor="middle" x="78.5" y="-11.3" font-family="Times,serif" font-size="14.00" fill="#0058ad">a 1489 1</text>
<polyline fill="none" stroke="#0058ad" points="118,-0.5 118,-29.5 "/>
<text text-anchor="middle" x="157.5" y="-11.3" font-family="Times,serif" font-size="14.00" fill="#0058ad">a 1489 2</text>
<polyline fill="none" stroke="#0058ad" points="197,-0.5 197,-29.5 "/>
<text text-anchor="middle" x="236.5" y="-11.3" font-family="Times,serif" font-size="14.00" fill="#0058ad">a 1488 1</text>
<polyline fill="none" stroke="#0058ad" points="276,-0.5 276,-29.5 "/>
<text text-anchor="middle" x="315.5" y="-11.3" font-family="Times,serif" font-size="14.00" fill="#0058ad">r 1484 []</text>
<polyline fill="none" stroke="#0058ad" points="355,-0.5 355,-29.5 "/>
<text text-anchor="middle" x="399" y="-11.3" font-family="Times,serif" font-size="14.00" fill="#0058ad">r 1488 [1]</text>
<polyline fill="none" stroke="#0058ad" points="443,-0.5 443,-29.5 "/>
<text text-anchor="middle" x="487" y="-11.3" font-family="Times,serif" font-size="14.00" fill="#0058ad">r 1488 [1]</text>
<polyline fill="none" stroke="#0058ad" points="531,-0.5 531,-29.5 "/>
<text text-anchor="middle" x="581.5" y="-11.3" font-family="Times,serif" font-size="14.00" fill="#0058ad">r 1489 [1 2]</text>
</g>
<!-- T3448&#45;&gt;T3449 -->
<g id="edge1" class="edge">
<title>T3448:f4&#45;&gt;T3449:f2</title>
<path fill="none" stroke="#5b00c0" d="M355.5,-81C355.5,-81 273.89,-46.02 245.84,-34"/>
<polygon fill="#5b00c0" stroke="#5b00c0" points="247.07,-30.72 236.5,-30 244.31,-37.16 247.07,-30.72"/>
<text text-anchor="middle" x="319" y="-51.8" font-family="Times,serif" font-size="14.00" fill="#5b00c0">rw</text>
</g>
<!-- T3449&#45;&gt;T3448 -->
<g id="edge2" class="edge">
<title>T3449:f3&#45;&gt;T3448:f2</title>
<path fill="none" stroke="#5b00c0" d="M315.5,-30C315.5,-56.57 282.96,-37.63 258.5,-48 233.89,-58.43 206.09,-52.41 199.14,-70.72"/>
<polygon fill="#5b00c0" stroke="#5b00c0" points="195.62,-70.57 197.5,-81 202.53,-71.68 195.62,-70.57"/>
<text text-anchor="middle" x="268" y="-51.8" font-family="Times,serif" font-size="14.00" fill="#5b00c0">rw</text>
</g>
</g>
</svg>
