<?xml version="1.0" encoding="UTF-8" standalone="no"?>
<!DOCTYPE svg PUBLIC "-//W3C//DTD SVG 1.1//EN"
 "http://www.w3.org/Graphics/SVG/1.1/DTD/svg11.dtd">
<!-- Generated by graphviz version 2.43.0 (0)
 -->
<!-- Title: a_graph Pages: 1 -->
<svg width="542pt" height="119pt"
 viewBox="0.00 0.00 542.00 119.00" xmlns="http://www.w3.org/2000/svg" xmlns:xlink="http://www.w3.org/1999/xlink">
<g id="graph0" class="graph" transform="scale(1 1) rotate(0) translate(4 115)">
<title>a_graph</title>
<polygon fill="white" stroke="transparent" points="-4,4 -4,-115 538,-115 538,4 -4,4"/>
<!-- T1416 -->
<g id="node1" class="node">
<title>T1416</title>
<polygon fill="none" stroke="#0058ad" points="0,-81.5 0,-110.5 534,-110.5 534,-81.5 0,-81.5"/>
<text text-anchor="middle" x="35" y="-92.3" font-family="Times,serif" font-size="14.00" fill="#0058ad">a 603 1</text>
<polyline fill="none" stroke="#0058ad" points="70,-81.5 70,-110.5 "/>
<text text-anchor="middle" x="105" y="-92.3" font-family="Times,serif" font-size="14.00" fill="#0058ad">a 603 2</text>
<polyline fill="none" stroke="#0058ad" points="140,-81.5 140,-110.5 "/>
<text text-anchor="middle" x="186" y="-92.3" font-family="Times,serif" font-size="14.00" fill="#0058ad">r 603 [1 2]</text>
<polyline fill="none" stroke="#0058ad" points="232,-81.5 232,-110.5 "/>
<text text-anchor="middle" x="278" y="-92.3" font-family="Times,serif" font-size="14.00" fill="#0058ad">r 603 [1 2]</text>
<polyline fill="none" stroke="#0058ad" points="324,-81.5 324,-110.5 "/>
<text text-anchor="middle" x="359" y="-92.3" font-family="Times,serif" font-size="14.00" fill="#0058ad">r 599 []</text>
<polyline fill="none" stroke="#0058ad" points="394,-81.5 394,-110.5 "/>
<text text-anchor="middle" x="429" y="-92.3" font-family="Times,serif" font-size="14.00" fill="#0058ad">r 604 []</text>
<polyline fill="none" stroke="#0058ad" points="464,-81.5 464,-110.5 "/>
<text text-anchor="middle" x="499" y="-92.3" font-family="Times,serif" font-size="14.00" fill="#0058ad">a 603 3</text>
</g>
<!-- T1417 -->
<g id="node2" class="node">
<title>T1417</title>
<polygon fill="none" stroke="#0058ad" points="38,-0.5 38,-29.5 442,-29.5 442,-0.5 38,-0.5"/>
<text text-anchor="middle" x="73" y="-11.3" font-family="Times,serif" font-size="14.00" fill="#0058ad">r 603 []</text>
<polyline fill="none" stroke="#0058ad" points="108,-0.5 108,-29.5 "/>
<text text-anchor="middle" x="147.5" y="-11.3" font-family="Times,serif" font-size="14.00" fill="#0058ad">r 599 [1]</text>
<polyline fill="none" stroke="#0058ad" points="187,-0.5 187,-29.5 "/>
<text text-anchor="middle" x="226.5" y="-11.3" font-family="Times,serif" font-size="14.00" fill="#0058ad">r 600 [1]</text>
<polyline fill="none" stroke="#0058ad" points="266,-0.5 266,-29.5 "/>
<text text-anchor="middle" x="319" y="-11.3" font-family="Times,serif" font-size="14.00" fill="#0058ad">r 592 [1 2 3]</text>
<polyline fill="none" stroke="#0058ad" points="372,-0.5 372,-29.5 "/>
<text text-anchor="middle" x="407" y="-11.3" font-family="Times,serif" font-size="14.00" fill="#0058ad">a 604 1</text>
</g>
<!-- T1416&#45;&gt;T1417 -->
<g id="edge1" class="edge">
<title>T1416:f5&#45;&gt;T1417:f4</title>
<path fill="none" stroke="#5b00c0" d="M429,-81C429,-60.17 413.34,-55.76 408.44,-40.06"/>
<polygon fill="#5b00c0" stroke="#5b00c0" points="411.89,-39.4 407,-30 404.96,-40.4 411.89,-39.4"/>
<text text-anchor="middle" x="432.5" y="-51.8" font-family="Times,serif" font-size="14.00" fill="#5b00c0">rw</text>
</g>
<!-- T1417&#45;&gt;T1416 -->
<g id="edge2" class="edge">
<title>T1417:f0&#45;&gt;T1416:f0</title>
<path fill="none" stroke="#5b00c0" d="M73,-30C73,-54.29 44.94,-53.62 37.04,-70.89"/>
<polygon fill="#5b00c0" stroke="#5b00c0" points="33.55,-70.5 35,-81 40.41,-71.89 33.55,-70.5"/>
<text text-anchor="middle" x="74.5" y="-51.8" font-family="Times,serif" font-size="14.00" fill="#5b00c0">rw</text>
</g>
</g>
</svg>
