<?xml version="1.0" encoding="UTF-8" standalone="no"?>
<!DOCTYPE svg PUBLIC "-//W3C//DTD SVG 1.1//EN"
 "http://www.w3.org/Graphics/SVG/1.1/DTD/svg11.dtd">
<!-- Generated by graphviz version 2.43.0 (0)
 -->
<!-- Title: a_graph Pages: 1 -->
<svg width="628pt" height="119pt"
 viewBox="0.00 0.00 627.50 119.00" xmlns="http://www.w3.org/2000/svg" xmlns:xlink="http://www.w3.org/1999/xlink">
<g id="graph0" class="graph" transform="scale(1 1) rotate(0) translate(4 115)">
<title>a_graph</title>
<polygon fill="white" stroke="transparent" points="-4,4 -4,-115 623.5,-115 623.5,4 -4,4"/>
<!-- T890 -->
<g id="node1" class="node">
<title>T890</title>
<polygon fill="none" stroke="#0058ad" points="127.5,-81.5 127.5,-110.5 619.5,-110.5 619.5,-81.5 127.5,-81.5"/>
<text text-anchor="middle" x="162.5" y="-92.3" font-family="Times,serif" font-size="14.00" fill="#0058ad">r 381 []</text>
<polyline fill="none" stroke="#0058ad" points="197.5,-81.5 197.5,-110.5 "/>
<text text-anchor="middle" x="232.5" y="-92.3" font-family="Times,serif" font-size="14.00" fill="#0058ad">a 383 1</text>
<polyline fill="none" stroke="#0058ad" points="267.5,-81.5 267.5,-110.5 "/>
<text text-anchor="middle" x="302.5" y="-92.3" font-family="Times,serif" font-size="14.00" fill="#0058ad">a 383 2</text>
<polyline fill="none" stroke="#0058ad" points="337.5,-81.5 337.5,-110.5 "/>
<text text-anchor="middle" x="372.5" y="-92.3" font-family="Times,serif" font-size="14.00" fill="#0058ad">a 383 3</text>
<polyline fill="none" stroke="#0058ad" points="407.5,-81.5 407.5,-110.5 "/>
<text text-anchor="middle" x="460.5" y="-92.3" font-family="Times,serif" font-size="14.00" fill="#0058ad">r 379 [1 2 3]</text>
<polyline fill="none" stroke="#0058ad" points="513.5,-81.5 513.5,-110.5 "/>
<text text-anchor="middle" x="566.5" y="-92.3" font-family="Times,serif" font-size="14.00" fill="#0058ad">r 383 [1 2 3]</text>
</g>
<!-- T891 -->
<g id="node2" class="node">
<title>T891</title>
<polygon fill="none" stroke="#0058ad" points="0,-0.5 0,-29.5 395,-29.5 395,-0.5 0,-0.5"/>
<text text-anchor="middle" x="35" y="-11.3" font-family="Times,serif" font-size="14.00" fill="#0058ad">r 383 []</text>
<polyline fill="none" stroke="#0058ad" points="70,-0.5 70,-29.5 "/>
<text text-anchor="middle" x="109.5" y="-11.3" font-family="Times,serif" font-size="14.00" fill="#0058ad">r 372 [2]</text>
<polyline fill="none" stroke="#0058ad" points="149,-0.5 149,-29.5 "/>
<text text-anchor="middle" x="184" y="-11.3" font-family="Times,serif" font-size="14.00" fill="#0058ad">r 384 []</text>
<polyline fill="none" stroke="#0058ad" points="219,-0.5 219,-29.5 "/>
<text text-anchor="middle" x="272" y="-11.3" font-family="Times,serif" font-size="14.00" fill="#0058ad">r 379 [1 2 3]</text>
<polyline fill="none" stroke="#0058ad" points="325,-0.5 325,-29.5 "/>
<text text-anchor="middle" x="360" y="-11.3" font-family="Times,serif" font-size="14.00" fill="#0058ad">a 381 1</text>
</g>
<!-- T890&#45;&gt;T891 -->
<g id="edge1" class="edge">
<title>T890:f0&#45;&gt;T891:f4</title>
<path fill="none" stroke="#5b00c0" d="M162.5,-81C162.5,-63.37 169.4,-57.1 184.5,-48 214.88,-29.69 333.74,-61.78 356.66,-39.34"/>
<polygon fill="#5b00c0" stroke="#5b00c0" points="359.93,-40.58 360.5,-30 353.46,-37.92 359.93,-40.58"/>
<text text-anchor="middle" x="194" y="-51.8" font-family="Times,serif" font-size="14.00" fill="#5b00c0">rw</text>
</g>
<!-- T891&#45;&gt;T890 -->
<g id="edge2" class="edge">
<title>T891:f0&#45;&gt;T890:f1</title>
<path fill="none" stroke="#5b00c0" d="M34.5,-30C34.5,-67.77 169.96,-30.63 203.5,-48 217.32,-55.16 227.53,-59.46 231.11,-70.8"/>
<polygon fill="#5b00c0" stroke="#5b00c0" points="227.68,-71.57 232.5,-81 234.61,-70.62 227.68,-71.57"/>
<text text-anchor="middle" x="237" y="-51.8" font-family="Times,serif" font-size="14.00" fill="#5b00c0">rw</text>
</g>
</g>
</svg>
