<?xml version="1.0" encoding="UTF-8" standalone="no"?>
<!DOCTYPE svg PUBLIC "-//W3C//DTD SVG 1.1//EN"
 "http://www.w3.org/Graphics/SVG/1.1/DTD/svg11.dtd">
<!-- Generated by graphviz version 2.43.0 (0)
 -->
<!-- Title: a_graph Pages: 1 -->
<svg width="581pt" height="119pt"
 viewBox="0.00 0.00 581.00 119.00" xmlns="http://www.w3.org/2000/svg" xmlns:xlink="http://www.w3.org/1999/xlink">
<g id="graph0" class="graph" transform="scale(1 1) rotate(0) translate(4 115)">
<title>a_graph</title>
<polygon fill="white" stroke="transparent" points="-4,4 -4,-115 577,-115 577,4 -4,4"/>
<!-- T244 -->
<g id="node1" class="node">
<title>T244</title>
<polygon fill="none" stroke="#0058ad" points="21,-81.5 21,-110.5 450,-110.5 450,-81.5 21,-81.5"/>
<text text-anchor="middle" x="56" y="-92.3" font-family="Times,serif" font-size="14.00" fill="#0058ad">r 102 []</text>
<polyline fill="none" stroke="#0058ad" points="91,-81.5 91,-110.5 "/>
<text text-anchor="middle" x="130.5" y="-92.3" font-family="Times,serif" font-size="14.00" fill="#0058ad">r 101 [1]</text>
<polyline fill="none" stroke="#0058ad" points="170,-81.5 170,-110.5 "/>
<text text-anchor="middle" x="205" y="-92.3" font-family="Times,serif" font-size="14.00" fill="#0058ad">r 102 []</text>
<polyline fill="none" stroke="#0058ad" points="240,-81.5 240,-110.5 "/>
<text text-anchor="middle" x="275" y="-92.3" font-family="Times,serif" font-size="14.00" fill="#0058ad">a 101 2</text>
<polyline fill="none" stroke="#0058ad" points="310,-81.5 310,-110.5 "/>
<text text-anchor="middle" x="345" y="-92.3" font-family="Times,serif" font-size="14.00" fill="#0058ad">r 104 []</text>
<polyline fill="none" stroke="#0058ad" points="380,-81.5 380,-110.5 "/>
<text text-anchor="middle" x="415" y="-92.3" font-family="Times,serif" font-size="14.00" fill="#0058ad">a 105 1</text>
</g>
<!-- T242 -->
<g id="node2" class="node">
<title>T242</title>
<polygon fill="none" stroke="#0058ad" points="0,-0.5 0,-29.5 573,-29.5 573,-0.5 0,-0.5"/>
<text text-anchor="middle" x="35" y="-11.3" font-family="Times,serif" font-size="14.00" fill="#0058ad">a 102 1</text>
<polyline fill="none" stroke="#0058ad" points="70,-0.5 70,-29.5 "/>
<text text-anchor="middle" x="105" y="-11.3" font-family="Times,serif" font-size="14.00" fill="#0058ad">r 99 [2]</text>
<polyline fill="none" stroke="#0058ad" points="140,-0.5 140,-29.5 "/>
<text text-anchor="middle" x="175" y="-11.3" font-family="Times,serif" font-size="14.00" fill="#0058ad">a 102 2</text>
<polyline fill="none" stroke="#0058ad" points="210,-0.5 210,-29.5 "/>
<text text-anchor="middle" x="240.5" y="-11.3" font-family="Times,serif" font-size="14.00" fill="#0058ad">a 84 3</text>
<polyline fill="none" stroke="#0058ad" points="271,-0.5 271,-29.5 "/>
<text text-anchor="middle" x="310.5" y="-11.3" font-family="Times,serif" font-size="14.00" fill="#0058ad">r 101 [1]</text>
<polyline fill="none" stroke="#0058ad" points="350,-0.5 350,-29.5 "/>
<text text-anchor="middle" x="389.5" y="-11.3" font-family="Times,serif" font-size="14.00" fill="#0058ad">r 101 [1]</text>
<polyline fill="none" stroke="#0058ad" points="429,-0.5 429,-29.5 "/>
<text text-anchor="middle" x="459.5" y="-11.3" font-family="Times,serif" font-size="14.00" fill="#0058ad">a 99 3</text>
<polyline fill="none" stroke="#0058ad" points="490,-0.5 490,-29.5 "/>
<text text-anchor="middle" x="531.5" y="-11.3" font-family="Times,serif" font-size="14.00" fill="#0058ad">r 99 [2 3]</text>
</g>
<!-- T244&#45;&gt;T242 -->
<g id="edge1" class="edge">
<title>T244:f0&#45;&gt;T242:f0</title>
<path fill="none" stroke="#5b00c0" d="M55.5,-81C55.5,-60.32 40.55,-55.68 35.88,-40.01"/>
<polygon fill="#5b00c0" stroke="#5b00c0" points="39.33,-39.43 34.5,-30 32.4,-40.38 39.33,-39.43"/>
<text text-anchor="middle" x="60" y="-51.8" font-family="Times,serif" font-size="14.00" fill="#5b00c0">rw</text>
</g>
<!-- T242&#45;&gt;T244 -->
<g id="edge2" class="edge">
<title>T242:f4&#45;&gt;T244:f3</title>
<path fill="none" stroke="#5b00c0" d="M310.5,-30C310.5,-53.63 284.65,-54.01 277.38,-71.09"/>
<polygon fill="#5b00c0" stroke="#5b00c0" points="273.93,-70.52 275.5,-81 280.8,-71.83 273.93,-70.52"/>
<text text-anchor="middle" x="311" y="-51.8" font-family="Times,serif" font-size="14.00" fill="#5b00c0">rw</text>
</g>
</g>
</svg>
