<?xml version="1.0" encoding="UTF-8" standalone="no"?>
<!DOCTYPE svg PUBLIC "-//W3C//DTD SVG 1.1//EN"
 "http://www.w3.org/Graphics/SVG/1.1/DTD/svg11.dtd">
<!-- Generated by graphviz version 2.43.0 (0)
 -->
<!-- Title: a_graph Pages: 1 -->
<svg width="619pt" height="119pt"
 viewBox="0.00 0.00 619.00 119.00" xmlns="http://www.w3.org/2000/svg" xmlns:xlink="http://www.w3.org/1999/xlink">
<g id="graph0" class="graph" transform="scale(1 1) rotate(0) translate(4 115)">
<title>a_graph</title>
<polygon fill="white" stroke="transparent" points="-4,4 -4,-115 615,-115 615,4 -4,4"/>
<!-- T856 -->
<g id="node1" class="node">
<title>T856</title>
<polygon fill="none" stroke="#0058ad" points="169,-81.5 169,-110.5 611,-110.5 611,-81.5 169,-81.5"/>
<text text-anchor="middle" x="204" y="-92.3" font-family="Times,serif" font-size="14.00" fill="#0058ad">a 371 1</text>
<polyline fill="none" stroke="#0058ad" points="239,-81.5 239,-110.5 "/>
<text text-anchor="middle" x="285" y="-92.3" font-family="Times,serif" font-size="14.00" fill="#0058ad">r 367 [1 2]</text>
<polyline fill="none" stroke="#0058ad" points="331,-81.5 331,-110.5 "/>
<text text-anchor="middle" x="366" y="-92.3" font-family="Times,serif" font-size="14.00" fill="#0058ad">a 371 2</text>
<polyline fill="none" stroke="#0058ad" points="401,-81.5 401,-110.5 "/>
<text text-anchor="middle" x="436" y="-92.3" font-family="Times,serif" font-size="14.00" fill="#0058ad">a 370 1</text>
<polyline fill="none" stroke="#0058ad" points="471,-81.5 471,-110.5 "/>
<text text-anchor="middle" x="506" y="-92.3" font-family="Times,serif" font-size="14.00" fill="#0058ad">a 370 2</text>
<polyline fill="none" stroke="#0058ad" points="541,-81.5 541,-110.5 "/>
<text text-anchor="middle" x="576" y="-92.3" font-family="Times,serif" font-size="14.00" fill="#0058ad">a 370 3</text>
</g>
<!-- T854 -->
<g id="node2" class="node">
<title>T854</title>
<polygon fill="none" stroke="#0058ad" points="0,-0.5 0,-29.5 350,-29.5 350,-0.5 0,-0.5"/>
<text text-anchor="middle" x="35" y="-11.3" font-family="Times,serif" font-size="14.00" fill="#0058ad">a 365 3</text>
<polyline fill="none" stroke="#0058ad" points="70,-0.5 70,-29.5 "/>
<text text-anchor="middle" x="105" y="-11.3" font-family="Times,serif" font-size="14.00" fill="#0058ad">r 370 []</text>
<polyline fill="none" stroke="#0058ad" points="140,-0.5 140,-29.5 "/>
<text text-anchor="middle" x="175" y="-11.3" font-family="Times,serif" font-size="14.00" fill="#0058ad">a 367 3</text>
<polyline fill="none" stroke="#0058ad" points="210,-0.5 210,-29.5 "/>
<text text-anchor="middle" x="245" y="-11.3" font-family="Times,serif" font-size="14.00" fill="#0058ad">r 370 []</text>
<polyline fill="none" stroke="#0058ad" points="280,-0.5 280,-29.5 "/>
<text text-anchor="middle" x="315" y="-11.3" font-family="Times,serif" font-size="14.00" fill="#0058ad">r 371 []</text>
</g>
<!-- T856&#45;&gt;T854 -->
<g id="edge1" class="edge">
<title>T856:f1&#45;&gt;T854:f2</title>
<path fill="none" stroke="#5b00c0" d="M285,-81C285,-55.11 260.4,-59.08 237,-48 215.12,-37.63 186.02,-52.37 177.47,-40"/>
<polygon fill="#5b00c0" stroke="#5b00c0" points="180.79,-38.87 175,-30 174,-40.55 180.79,-38.87"/>
<text text-anchor="middle" x="285.5" y="-51.8" font-family="Times,serif" font-size="14.00" fill="#5b00c0">rw</text>
</g>
<!-- T854&#45;&gt;T856 -->
<g id="edge2" class="edge">
<title>T854:f4&#45;&gt;T856:f0</title>
<path fill="none" stroke="#5b00c0" d="M315,-30C315,-52.8 231.04,-32.86 214,-48 205.41,-55.63 204.08,-61.76 203.95,-70.81"/>
<polygon fill="#5b00c0" stroke="#5b00c0" points="200.45,-71.02 204,-81 207.45,-70.98 200.45,-71.02"/>
<text text-anchor="middle" x="223.5" y="-51.8" font-family="Times,serif" font-size="14.00" fill="#5b00c0">rw</text>
</g>
</g>
</svg>
