<?xml version="1.0" encoding="UTF-8" standalone="no"?>
<!DOCTYPE svg PUBLIC "-//W3C//DTD SVG 1.1//EN"
 "http://www.w3.org/Graphics/SVG/1.1/DTD/svg11.dtd">
<!-- Generated by graphviz version 2.43.0 (0)
 -->
<!-- Title: a_graph Pages: 1 -->
<svg width="679pt" height="119pt"
 viewBox="0.00 0.00 678.50 119.00" xmlns="http://www.w3.org/2000/svg" xmlns:xlink="http://www.w3.org/1999/xlink">
<g id="graph0" class="graph" transform="scale(1 1) rotate(0) translate(4 115)">
<title>a_graph</title>
<polygon fill="white" stroke="transparent" points="-4,4 -4,-115 674.5,-115 674.5,4 -4,4"/>
<!-- T3089 -->
<g id="node1" class="node">
<title>T3089</title>
<polygon fill="none" stroke="#0058ad" points="86.5,-81.5 86.5,-110.5 670.5,-110.5 670.5,-81.5 86.5,-81.5"/>
<text text-anchor="middle" x="126" y="-92.3" font-family="Times,serif" font-size="14.00" fill="#0058ad">a 1315 2</text>
<polyline fill="none" stroke="#0058ad" points="165.5,-81.5 165.5,-110.5 "/>
<text text-anchor="middle" x="209.5" y="-92.3" font-family="Times,serif" font-size="14.00" fill="#0058ad">r 1323 [1]</text>
<polyline fill="none" stroke="#0058ad" points="253.5,-81.5 253.5,-110.5 "/>
<text text-anchor="middle" x="293" y="-92.3" font-family="Times,serif" font-size="14.00" fill="#0058ad">a 1322 2</text>
<polyline fill="none" stroke="#0058ad" points="332.5,-81.5 332.5,-110.5 "/>
<text text-anchor="middle" x="372" y="-92.3" font-family="Times,serif" font-size="14.00" fill="#0058ad">r 1324 []</text>
<polyline fill="none" stroke="#0058ad" points="411.5,-81.5 411.5,-110.5 "/>
<text text-anchor="middle" x="451" y="-92.3" font-family="Times,serif" font-size="14.00" fill="#0058ad">r 1324 []</text>
<polyline fill="none" stroke="#0058ad" points="490.5,-81.5 490.5,-110.5 "/>
<text text-anchor="middle" x="541" y="-92.3" font-family="Times,serif" font-size="14.00" fill="#0058ad">r 1322 [1 2]</text>
<polyline fill="none" stroke="#0058ad" points="591.5,-81.5 591.5,-110.5 "/>
<text text-anchor="middle" x="631" y="-92.3" font-family="Times,serif" font-size="14.00" fill="#0058ad">r 1324 []</text>
</g>
<!-- T3086 -->
<g id="node2" class="node">
<title>T3086</title>
<polygon fill="none" stroke="#0058ad" points="0,-0.5 0,-29.5 343,-29.5 343,-0.5 0,-0.5"/>
<text text-anchor="middle" x="44" y="-11.3" font-family="Times,serif" font-size="14.00" fill="#0058ad">r 1323 [1]</text>
<polyline fill="none" stroke="#0058ad" points="88,-0.5 88,-29.5 "/>
<text text-anchor="middle" x="132" y="-11.3" font-family="Times,serif" font-size="14.00" fill="#0058ad">r 1323 [1]</text>
<polyline fill="none" stroke="#0058ad" points="176,-0.5 176,-29.5 "/>
<text text-anchor="middle" x="220" y="-11.3" font-family="Times,serif" font-size="14.00" fill="#0058ad">r 1322 [1]</text>
<polyline fill="none" stroke="#0058ad" points="264,-0.5 264,-29.5 "/>
<text text-anchor="middle" x="303.5" y="-11.3" font-family="Times,serif" font-size="14.00" fill="#0058ad">a 1323 2</text>
</g>
<!-- T3089&#45;&gt;T3086 -->
<g id="edge1" class="edge">
<title>T3089:f1&#45;&gt;T3086:f3</title>
<path fill="none" stroke="#5b00c0" d="M209.5,-81C209.5,-60.57 223.99,-58.53 241.5,-48 262.24,-35.52 292.12,-51.71 300.95,-39.84"/>
<polygon fill="#5b00c0" stroke="#5b00c0" points="304.38,-40.56 303.5,-30 297.6,-38.8 304.38,-40.56"/>
<text text-anchor="middle" x="251" y="-51.8" font-family="Times,serif" font-size="14.00" fill="#5b00c0">rw</text>
</g>
<!-- T3086&#45;&gt;T3089 -->
<g id="edge2" class="edge">
<title>T3086:f2&#45;&gt;T3089:f2</title>
<path fill="none" stroke="#5b00c0" d="M220.5,-30C220.5,-49.49 244.54,-36.8 260.5,-48 273.96,-57.44 286.48,-59.83 290.85,-71.04"/>
<polygon fill="#5b00c0" stroke="#5b00c0" points="287.42,-71.7 292.5,-81 294.32,-70.56 287.42,-71.7"/>
<text text-anchor="middle" x="295" y="-51.8" font-family="Times,serif" font-size="14.00" fill="#5b00c0">rw</text>
</g>
</g>
</svg>
