<?xml version="1.0" encoding="UTF-8" standalone="no"?>
<!DOCTYPE svg PUBLIC "-//W3C//DTD SVG 1.1//EN"
 "http://www.w3.org/Graphics/SVG/1.1/DTD/svg11.dtd">
<!-- Generated by graphviz version 2.43.0 (0)
 -->
<!-- Title: a_graph Pages: 1 -->
<svg width="666pt" height="119pt"
 viewBox="0.00 0.00 666.00 119.00" xmlns="http://www.w3.org/2000/svg" xmlns:xlink="http://www.w3.org/1999/xlink">
<g id="graph0" class="graph" transform="scale(1 1) rotate(0) translate(4 115)">
<title>a_graph</title>
<polygon fill="white" stroke="transparent" points="-4,4 -4,-115 662,-115 662,4 -4,4"/>
<!-- T216 -->
<g id="node1" class="node">
<title>T216</title>
<polygon fill="none" stroke="#0058ad" points="209,-81.5 209,-110.5 658,-110.5 658,-81.5 209,-81.5"/>
<text text-anchor="middle" x="239.5" y="-92.3" font-family="Times,serif" font-size="14.00" fill="#0058ad">a 87 3</text>
<polyline fill="none" stroke="#0058ad" points="270,-81.5 270,-110.5 "/>
<text text-anchor="middle" x="311.5" y="-92.3" font-family="Times,serif" font-size="14.00" fill="#0058ad">r 87 [1 3]</text>
<polyline fill="none" stroke="#0058ad" points="353,-81.5 353,-110.5 "/>
<text text-anchor="middle" x="383.5" y="-92.3" font-family="Times,serif" font-size="14.00" fill="#0058ad">r 91 []</text>
<polyline fill="none" stroke="#0058ad" points="414,-81.5 414,-110.5 "/>
<text text-anchor="middle" x="444.5" y="-92.3" font-family="Times,serif" font-size="14.00" fill="#0058ad">a 92 1</text>
<polyline fill="none" stroke="#0058ad" points="475,-81.5 475,-110.5 "/>
<text text-anchor="middle" x="505.5" y="-92.3" font-family="Times,serif" font-size="14.00" fill="#0058ad">a 92 2</text>
<polyline fill="none" stroke="#0058ad" points="536,-81.5 536,-110.5 "/>
<text text-anchor="middle" x="566.5" y="-92.3" font-family="Times,serif" font-size="14.00" fill="#0058ad">r 84 []</text>
<polyline fill="none" stroke="#0058ad" points="597,-81.5 597,-110.5 "/>
<text text-anchor="middle" x="627.5" y="-92.3" font-family="Times,serif" font-size="14.00" fill="#0058ad">r 91 []</text>
</g>
<!-- T214 -->
<g id="node2" class="node">
<title>T214</title>
<polygon fill="none" stroke="#0058ad" points="0,-0.5 0,-29.5 533,-29.5 533,-0.5 0,-0.5"/>
<text text-anchor="middle" x="30.5" y="-11.3" font-family="Times,serif" font-size="14.00" fill="#0058ad">r 89 []</text>
<polyline fill="none" stroke="#0058ad" points="61,-0.5 61,-29.5 "/>
<text text-anchor="middle" x="91.5" y="-11.3" font-family="Times,serif" font-size="14.00" fill="#0058ad">r 89 []</text>
<polyline fill="none" stroke="#0058ad" points="122,-0.5 122,-29.5 "/>
<text text-anchor="middle" x="170.5" y="-11.3" font-family="Times,serif" font-size="14.00" fill="#0058ad">r 67 [1 2 3]</text>
<polyline fill="none" stroke="#0058ad" points="219,-0.5 219,-29.5 "/>
<text text-anchor="middle" x="249.5" y="-11.3" font-family="Times,serif" font-size="14.00" fill="#0058ad">a 90 1</text>
<polyline fill="none" stroke="#0058ad" points="280,-0.5 280,-29.5 "/>
<text text-anchor="middle" x="315" y="-11.3" font-family="Times,serif" font-size="14.00" fill="#0058ad">r 87 [1]</text>
<polyline fill="none" stroke="#0058ad" points="350,-0.5 350,-29.5 "/>
<text text-anchor="middle" x="380.5" y="-11.3" font-family="Times,serif" font-size="14.00" fill="#0058ad">a 90 2</text>
<polyline fill="none" stroke="#0058ad" points="411,-0.5 411,-29.5 "/>
<text text-anchor="middle" x="441.5" y="-11.3" font-family="Times,serif" font-size="14.00" fill="#0058ad">a 84 1</text>
<polyline fill="none" stroke="#0058ad" points="472,-0.5 472,-29.5 "/>
<text text-anchor="middle" x="502.5" y="-11.3" font-family="Times,serif" font-size="14.00" fill="#0058ad">a 90 3</text>
</g>
<!-- T216&#45;&gt;T214 -->
<g id="edge1" class="edge">
<title>T216:f5&#45;&gt;T214:f6</title>
<path fill="none" stroke="#5b00c0" d="M566.5,-81C566.5,-24.87 457.09,-81.64 442.99,-40.06"/>
<polygon fill="#5b00c0" stroke="#5b00c0" points="446.43,-39.38 441.5,-30 439.5,-40.4 446.43,-39.38"/>
<text text-anchor="middle" x="569" y="-51.8" font-family="Times,serif" font-size="14.00" fill="#5b00c0">rw</text>
</g>
<!-- T214&#45;&gt;T216 -->
<g id="edge2" class="edge">
<title>T214:f4&#45;&gt;T216:f0</title>
<path fill="none" stroke="#5b00c0" d="M315.5,-30C315.5,-66.71 253.62,-45.57 241.53,-70.98"/>
<polygon fill="#5b00c0" stroke="#5b00c0" points="238.06,-70.5 239.5,-81 244.92,-71.9 238.06,-70.5"/>
<text text-anchor="middle" x="315" y="-51.8" font-family="Times,serif" font-size="14.00" fill="#5b00c0">rw</text>
</g>
</g>
</svg>
