<?xml version="1.0" encoding="UTF-8" standalone="no"?>
<!DOCTYPE svg PUBLIC "-//W3C//DTD SVG 1.1//EN"
 "http://www.w3.org/Graphics/SVG/1.1/DTD/svg11.dtd">
<!-- Generated by graphviz version 2.43.0 (0)
 -->
<!-- Title: a_graph Pages: 1 -->
<svg width="599pt" height="119pt"
 viewBox="0.00 0.00 599.00 119.00" xmlns="http://www.w3.org/2000/svg" xmlns:xlink="http://www.w3.org/1999/xlink">
<g id="graph0" class="graph" transform="scale(1 1) rotate(0) translate(4 115)">
<title>a_graph</title>
<polygon fill="white" stroke="transparent" points="-4,4 -4,-115 595,-115 595,4 -4,4"/>
<!-- T2310 -->
<g id="node1" class="node">
<title>T2310</title>
<polygon fill="none" stroke="#0058ad" points="0,-81.5 0,-110.5 591,-110.5 591,-81.5 0,-81.5"/>
<text text-anchor="middle" x="35" y="-92.3" font-family="Times,serif" font-size="14.00" fill="#0058ad">r 981 []</text>
<polyline fill="none" stroke="#0058ad" points="70,-81.5 70,-110.5 "/>
<text text-anchor="middle" x="105" y="-92.3" font-family="Times,serif" font-size="14.00" fill="#0058ad">r 981 []</text>
<polyline fill="none" stroke="#0058ad" points="140,-81.5 140,-110.5 "/>
<text text-anchor="middle" x="175" y="-92.3" font-family="Times,serif" font-size="14.00" fill="#0058ad">r 982 []</text>
<polyline fill="none" stroke="#0058ad" points="210,-81.5 210,-110.5 "/>
<text text-anchor="middle" x="245" y="-92.3" font-family="Times,serif" font-size="14.00" fill="#0058ad">a 982 1</text>
<polyline fill="none" stroke="#0058ad" points="280,-81.5 280,-110.5 "/>
<text text-anchor="middle" x="319.5" y="-92.3" font-family="Times,serif" font-size="14.00" fill="#0058ad">r 982 [1]</text>
<polyline fill="none" stroke="#0058ad" points="359,-81.5 359,-110.5 "/>
<text text-anchor="middle" x="405" y="-92.3" font-family="Times,serif" font-size="14.00" fill="#0058ad">r 971 [1 2]</text>
<polyline fill="none" stroke="#0058ad" points="451,-81.5 451,-110.5 "/>
<text text-anchor="middle" x="486" y="-92.3" font-family="Times,serif" font-size="14.00" fill="#0058ad">a 981 1</text>
<polyline fill="none" stroke="#0058ad" points="521,-81.5 521,-110.5 "/>
<text text-anchor="middle" x="556" y="-92.3" font-family="Times,serif" font-size="14.00" fill="#0058ad">a 981 2</text>
</g>
<!-- T2311 -->
<g id="node2" class="node">
<title>T2311</title>
<polygon fill="none" stroke="#0058ad" points="184.5,-0.5 184.5,-29.5 534.5,-29.5 534.5,-0.5 184.5,-0.5"/>
<text text-anchor="middle" x="219.5" y="-11.3" font-family="Times,serif" font-size="14.00" fill="#0058ad">r 976 []</text>
<polyline fill="none" stroke="#0058ad" points="254.5,-0.5 254.5,-29.5 "/>
<text text-anchor="middle" x="289.5" y="-11.3" font-family="Times,serif" font-size="14.00" fill="#0058ad">a 971 3</text>
<polyline fill="none" stroke="#0058ad" points="324.5,-0.5 324.5,-29.5 "/>
<text text-anchor="middle" x="359.5" y="-11.3" font-family="Times,serif" font-size="14.00" fill="#0058ad">r 982 []</text>
<polyline fill="none" stroke="#0058ad" points="394.5,-0.5 394.5,-29.5 "/>
<text text-anchor="middle" x="429.5" y="-11.3" font-family="Times,serif" font-size="14.00" fill="#0058ad">r 982 []</text>
<polyline fill="none" stroke="#0058ad" points="464.5,-0.5 464.5,-29.5 "/>
<text text-anchor="middle" x="499.5" y="-11.3" font-family="Times,serif" font-size="14.00" fill="#0058ad">r 982 []</text>
</g>
<!-- T2310&#45;&gt;T2311 -->
<g id="edge1" class="edge">
<title>T2310:f5&#45;&gt;T2311:f1</title>
<path fill="none" stroke="#5b00c0" d="M405.5,-81C405.5,-56.25 315.89,-57.36 294.19,-38.88"/>
<polygon fill="#5b00c0" stroke="#5b00c0" points="297.27,-37.21 289.5,-30 291.08,-40.48 297.27,-37.21"/>
<text text-anchor="middle" x="389" y="-51.8" font-family="Times,serif" font-size="14.00" fill="#5b00c0">rw</text>
</g>
<!-- T2311&#45;&gt;T2310 -->
<g id="edge2" class="edge">
<title>T2311:f2&#45;&gt;T2310:f3</title>
<path fill="none" stroke="#5b00c0" d="M359.5,-30C359.5,-60.83 320.5,-35.08 292.5,-48 272.67,-57.15 252.13,-55.92 246.2,-70.87"/>
<polygon fill="#5b00c0" stroke="#5b00c0" points="242.7,-70.56 244.5,-81 249.6,-71.72 242.7,-70.56"/>
<text text-anchor="middle" x="302" y="-51.8" font-family="Times,serif" font-size="14.00" fill="#5b00c0">rw</text>
</g>
</g>
</svg>
