<?xml version="1.0" encoding="UTF-8" standalone="no"?>
<!DOCTYPE svg PUBLIC "-//W3C//DTD SVG 1.1//EN"
 "http://www.w3.org/Graphics/SVG/1.1/DTD/svg11.dtd">
<!-- Generated by graphviz version 2.43.0 (0)
 -->
<!-- Title: a_graph Pages: 1 -->
<svg width="616pt" height="200pt"
 viewBox="0.00 0.00 615.50 200.00" xmlns="http://www.w3.org/2000/svg" xmlns:xlink="http://www.w3.org/1999/xlink">
<g id="graph0" class="graph" transform="scale(1 1) rotate(0) translate(4 196)">
<title>a_graph</title>
<polygon fill="white" stroke="transparent" points="-4,4 -4,-196 611.5,-196 611.5,4 -4,4"/>
<!-- T3502 -->
<g id="node1" class="node">
<title>T3502</title>
<polygon fill="none" stroke="#0058ad" points="0,-162.5 0,-191.5 404,-191.5 404,-162.5 0,-162.5"/>
<text text-anchor="middle" x="44" y="-173.3" font-family="Times,serif" font-size="14.00" fill="#0058ad">r 1502 [1]</text>
<polyline fill="none" stroke="#0058ad" points="88,-162.5 88,-191.5 "/>
<text text-anchor="middle" x="127.5" y="-173.3" font-family="Times,serif" font-size="14.00" fill="#0058ad">a 1508 2</text>
<polyline fill="none" stroke="#0058ad" points="167,-162.5 167,-191.5 "/>
<text text-anchor="middle" x="206.5" y="-173.3" font-family="Times,serif" font-size="14.00" fill="#0058ad">a 1502 3</text>
<polyline fill="none" stroke="#0058ad" points="246,-162.5 246,-191.5 "/>
<text text-anchor="middle" x="285.5" y="-173.3" font-family="Times,serif" font-size="14.00" fill="#0058ad">a 1508 3</text>
<polyline fill="none" stroke="#0058ad" points="325,-162.5 325,-191.5 "/>
<text text-anchor="middle" x="364.5" y="-173.3" font-family="Times,serif" font-size="14.00" fill="#0058ad">r 1510 []</text>
</g>
<!-- T3501 -->
<g id="node3" class="node">
<title>T3501</title>
<polygon fill="none" stroke="#0058ad" points="282.5,-81.5 282.5,-110.5 607.5,-110.5 607.5,-81.5 282.5,-81.5"/>
<text text-anchor="middle" x="322" y="-92.3" font-family="Times,serif" font-size="14.00" fill="#0058ad">a 1510 1</text>
<polyline fill="none" stroke="#0058ad" points="361.5,-81.5 361.5,-110.5 "/>
<text text-anchor="middle" x="405.5" y="-92.3" font-family="Times,serif" font-size="14.00" fill="#0058ad">r 1510 [1]</text>
<polyline fill="none" stroke="#0058ad" points="449.5,-81.5 449.5,-110.5 "/>
<text text-anchor="middle" x="489" y="-92.3" font-family="Times,serif" font-size="14.00" fill="#0058ad">r 1509 []</text>
<polyline fill="none" stroke="#0058ad" points="528.5,-81.5 528.5,-110.5 "/>
<text text-anchor="middle" x="568" y="-92.3" font-family="Times,serif" font-size="14.00" fill="#0058ad">a 1510 2</text>
</g>
<!-- T3502&#45;&gt;T3501 -->
<g id="edge1" class="edge">
<title>T3502:f4&#45;&gt;T3501:f0</title>
<path fill="none" stroke="#5b00c0" d="M365,-162C365,-136.29 332.66,-139.11 324.07,-120.98"/>
<polygon fill="#5b00c0" stroke="#5b00c0" points="327.46,-120.08 322,-111 320.61,-121.5 327.46,-120.08"/>
<text text-anchor="middle" x="364.5" y="-132.8" font-family="Times,serif" font-size="14.00" fill="#5b00c0">rw</text>
</g>
<!-- T3503 -->
<g id="node2" class="node">
<title>T3503</title>
<polygon fill="none" stroke="#0058ad" points="102.5,-0.5 102.5,-29.5 497.5,-29.5 497.5,-0.5 102.5,-0.5"/>
<text text-anchor="middle" x="142" y="-11.3" font-family="Times,serif" font-size="14.00" fill="#0058ad">r 1508 []</text>
<polyline fill="none" stroke="#0058ad" points="181.5,-0.5 181.5,-29.5 "/>
<text text-anchor="middle" x="221" y="-11.3" font-family="Times,serif" font-size="14.00" fill="#0058ad">r 1511 []</text>
<polyline fill="none" stroke="#0058ad" points="260.5,-0.5 260.5,-29.5 "/>
<text text-anchor="middle" x="300" y="-11.3" font-family="Times,serif" font-size="14.00" fill="#0058ad">a 1510 3</text>
<polyline fill="none" stroke="#0058ad" points="339.5,-0.5 339.5,-29.5 "/>
<text text-anchor="middle" x="379" y="-11.3" font-family="Times,serif" font-size="14.00" fill="#0058ad">r 1512 []</text>
<polyline fill="none" stroke="#0058ad" points="418.5,-0.5 418.5,-29.5 "/>
<text text-anchor="middle" x="458" y="-11.3" font-family="Times,serif" font-size="14.00" fill="#0058ad">r 1512 []</text>
</g>
<!-- T3503&#45;&gt;T3502 -->
<g id="edge2" class="edge">
<title>T3503:f0&#45;&gt;T3502:f1</title>
<path fill="none" stroke="#5b00c0" d="M142,-30C142,-85.47 128.76,-101.11 127.16,-151.75"/>
<polygon fill="#5b00c0" stroke="#5b00c0" points="123.65,-151.95 127,-162 130.65,-152.06 123.65,-151.95"/>
<text text-anchor="middle" x="147.5" y="-92.3" font-family="Times,serif" font-size="14.00" fill="#5b00c0">rw</text>
</g>
<!-- T3501&#45;&gt;T3503 -->
<g id="edge3" class="edge">
<title>T3501:f0&#45;&gt;T3503:f2</title>
<path fill="none" stroke="#c02700" d="M322,-81C322,-60.17 306.34,-55.76 301.44,-40.06"/>
<polygon fill="#c02700" stroke="#c02700" points="304.89,-39.4 300,-30 297.96,-40.4 304.89,-39.4"/>
<text text-anchor="middle" x="328.5" y="-51.8" font-family="Times,serif" font-size="14.00" fill="#c02700">ww</text>
</g>
</g>
</svg>
