<?xml version="1.0" encoding="UTF-8" standalone="no"?>
<!DOCTYPE svg PUBLIC "-//W3C//DTD SVG 1.1//EN"
 "http://www.w3.org/Graphics/SVG/1.1/DTD/svg11.dtd">
<!-- Generated by graphviz version 2.43.0 (0)
 -->
<!-- Title: a_graph Pages: 1 -->
<svg width="412pt" height="119pt"
 viewBox="0.00 0.00 412.00 119.00" xmlns="http://www.w3.org/2000/svg" xmlns:xlink="http://www.w3.org/1999/xlink">
<g id="graph0" class="graph" transform="scale(1 1) rotate(0) translate(4 115)">
<title>a_graph</title>
<polygon fill="white" stroke="transparent" points="-4,4 -4,-115 408,-115 408,4 -4,4"/>
<!-- T2865 -->
<g id="node1" class="node">
<title>T2865</title>
<polygon fill="none" stroke="#0058ad" points="35,-81.5 35,-110.5 373,-110.5 373,-81.5 35,-81.5"/>
<text text-anchor="middle" x="74.5" y="-92.3" font-family="Times,serif" font-size="14.00" fill="#0058ad">r 1221 []</text>
<polyline fill="none" stroke="#0058ad" points="114,-81.5 114,-110.5 "/>
<text text-anchor="middle" x="164.5" y="-92.3" font-family="Times,serif" font-size="14.00" fill="#0058ad">r 1209 [1 2]</text>
<polyline fill="none" stroke="#0058ad" points="215,-81.5 215,-110.5 "/>
<text text-anchor="middle" x="254.5" y="-92.3" font-family="Times,serif" font-size="14.00" fill="#0058ad">r 1221 []</text>
<polyline fill="none" stroke="#0058ad" points="294,-81.5 294,-110.5 "/>
<text text-anchor="middle" x="333.5" y="-92.3" font-family="Times,serif" font-size="14.00" fill="#0058ad">a 1219 2</text>
</g>
<!-- T2866 -->
<g id="node2" class="node">
<title>T2866</title>
<polygon fill="none" stroke="#0058ad" points="0,-0.5 0,-29.5 404,-29.5 404,-0.5 0,-0.5"/>
<text text-anchor="middle" x="39.5" y="-11.3" font-family="Times,serif" font-size="14.00" fill="#0058ad">r 1220 []</text>
<polyline fill="none" stroke="#0058ad" points="79,-0.5 79,-29.5 "/>
<text text-anchor="middle" x="123" y="-11.3" font-family="Times,serif" font-size="14.00" fill="#0058ad">r 1219 [1]</text>
<polyline fill="none" stroke="#0058ad" points="167,-0.5 167,-29.5 "/>
<text text-anchor="middle" x="206.5" y="-11.3" font-family="Times,serif" font-size="14.00" fill="#0058ad">r 1221 []</text>
<polyline fill="none" stroke="#0058ad" points="246,-0.5 246,-29.5 "/>
<text text-anchor="middle" x="285.5" y="-11.3" font-family="Times,serif" font-size="14.00" fill="#0058ad">a 1221 1</text>
<polyline fill="none" stroke="#0058ad" points="325,-0.5 325,-29.5 "/>
<text text-anchor="middle" x="364.5" y="-11.3" font-family="Times,serif" font-size="14.00" fill="#0058ad">a 1209 3</text>
</g>
<!-- T2865&#45;&gt;T2866 -->
<g id="edge1" class="edge">
<title>T2865:f0&#45;&gt;T2866:f3</title>
<path fill="none" stroke="#5b00c0" d="M74,-81C74,-59.42 242.16,-55.04 278.95,-37.23"/>
<polygon fill="#5b00c0" stroke="#5b00c0" points="281.52,-39.6 286,-30 276.51,-34.71 281.52,-39.6"/>
<text text-anchor="middle" x="244.5" y="-51.8" font-family="Times,serif" font-size="14.00" fill="#5b00c0">rw</text>
</g>
<!-- T2866&#45;&gt;T2865 -->
<g id="edge2" class="edge">
<title>T2866:f1&#45;&gt;T2865:f3</title>
<path fill="none" stroke="#5b00c0" d="M123,-30C123,-60.27 228.84,-39.9 258,-48 289.74,-56.82 325.51,-46.8 332.7,-70.95"/>
<polygon fill="#5b00c0" stroke="#5b00c0" points="329.25,-71.53 334,-81 336.19,-70.63 329.25,-71.53"/>
<text text-anchor="middle" x="336.5" y="-51.8" font-family="Times,serif" font-size="14.00" fill="#5b00c0">rw</text>
</g>
</g>
</svg>
