<?xml version="1.0" encoding="UTF-8" standalone="no"?>
<!DOCTYPE svg PUBLIC "-//W3C//DTD SVG 1.1//EN"
 "http://www.w3.org/Graphics/SVG/1.1/DTD/svg11.dtd">
<!-- Generated by graphviz version 2.43.0 (0)
 -->
<!-- Title: a_graph Pages: 1 -->
<svg width="596pt" height="119pt"
 viewBox="0.00 0.00 596.00 119.00" xmlns="http://www.w3.org/2000/svg" xmlns:xlink="http://www.w3.org/1999/xlink">
<g id="graph0" class="graph" transform="scale(1 1) rotate(0) translate(4 115)">
<title>a_graph</title>
<polygon fill="white" stroke="transparent" points="-4,4 -4,-115 592,-115 592,4 -4,4"/>
<!-- T1340 -->
<g id="node1" class="node">
<title>T1340</title>
<polygon fill="none" stroke="#0058ad" points="0,-81.5 0,-110.5 289,-110.5 289,-81.5 0,-81.5"/>
<text text-anchor="middle" x="39.5" y="-92.3" font-family="Times,serif" font-size="14.00" fill="#0058ad">r 569 [1]</text>
<polyline fill="none" stroke="#0058ad" points="79,-81.5 79,-110.5 "/>
<text text-anchor="middle" x="114" y="-92.3" font-family="Times,serif" font-size="14.00" fill="#0058ad">a 574 1</text>
<polyline fill="none" stroke="#0058ad" points="149,-81.5 149,-110.5 "/>
<text text-anchor="middle" x="184" y="-92.3" font-family="Times,serif" font-size="14.00" fill="#0058ad">a 573 1</text>
<polyline fill="none" stroke="#0058ad" points="219,-81.5 219,-110.5 "/>
<text text-anchor="middle" x="254" y="-92.3" font-family="Times,serif" font-size="14.00" fill="#0058ad">r 560 []</text>
</g>
<!-- T1343 -->
<g id="node2" class="node">
<title>T1343</title>
<polygon fill="none" stroke="#0058ad" points="1,-0.5 1,-29.5 588,-29.5 588,-0.5 1,-0.5"/>
<text text-anchor="middle" x="36" y="-11.3" font-family="Times,serif" font-size="14.00" fill="#0058ad">a 572 1</text>
<polyline fill="none" stroke="#0058ad" points="71,-0.5 71,-29.5 "/>
<text text-anchor="middle" x="110.5" y="-11.3" font-family="Times,serif" font-size="14.00" fill="#0058ad">r 572 [1]</text>
<polyline fill="none" stroke="#0058ad" points="150,-0.5 150,-29.5 "/>
<text text-anchor="middle" x="185" y="-11.3" font-family="Times,serif" font-size="14.00" fill="#0058ad">r 573 []</text>
<polyline fill="none" stroke="#0058ad" points="220,-0.5 220,-29.5 "/>
<text text-anchor="middle" x="255" y="-11.3" font-family="Times,serif" font-size="14.00" fill="#0058ad">a 560 2</text>
<polyline fill="none" stroke="#0058ad" points="290,-0.5 290,-29.5 "/>
<text text-anchor="middle" x="329.5" y="-11.3" font-family="Times,serif" font-size="14.00" fill="#0058ad">r 572 [1]</text>
<polyline fill="none" stroke="#0058ad" points="369,-0.5 369,-29.5 "/>
<text text-anchor="middle" x="408.5" y="-11.3" font-family="Times,serif" font-size="14.00" fill="#0058ad">r 572 [1]</text>
<polyline fill="none" stroke="#0058ad" points="448,-0.5 448,-29.5 "/>
<text text-anchor="middle" x="483" y="-11.3" font-family="Times,serif" font-size="14.00" fill="#0058ad">a 572 2</text>
<polyline fill="none" stroke="#0058ad" points="518,-0.5 518,-29.5 "/>
<text text-anchor="middle" x="553" y="-11.3" font-family="Times,serif" font-size="14.00" fill="#0058ad">a 572 3</text>
</g>
<!-- T1340&#45;&gt;T1343 -->
<g id="edge1" class="edge">
<title>T1340:f3&#45;&gt;T1343:f3</title>
<path fill="none" stroke="#5b00c0" d="M254.5,-81C254.5,-62.23 254.5,-55.12 254.5,-40.35"/>
<polygon fill="#5b00c0" stroke="#5b00c0" points="258,-40 254.5,-30 251,-40 258,-40"/>
<text text-anchor="middle" x="264" y="-51.8" font-family="Times,serif" font-size="14.00" fill="#5b00c0">rw</text>
</g>
<!-- T1343&#45;&gt;T1340 -->
<g id="edge2" class="edge">
<title>T1343:f2&#45;&gt;T1340:f2</title>
<path fill="none" stroke="#5b00c0" d="M184.5,-30C184.5,-48.77 184.5,-55.88 184.5,-70.65"/>
<polygon fill="#5b00c0" stroke="#5b00c0" points="181,-71 184.5,-81 188,-71 181,-71"/>
<text text-anchor="middle" x="194" y="-51.8" font-family="Times,serif" font-size="14.00" fill="#5b00c0">rw</text>
</g>
</g>
</svg>
