<?xml version="1.0" encoding="UTF-8" standalone="no"?>
<!DOCTYPE svg PUBLIC "-//W3C//DTD SVG 1.1//EN"
 "http://www.w3.org/Graphics/SVG/1.1/DTD/svg11.dtd">
<!-- Generated by graphviz version 2.43.0 (0)
 -->
<!-- Title: a_graph Pages: 1 -->
<svg width="568pt" height="119pt"
 viewBox="0.00 0.00 568.00 119.00" xmlns="http://www.w3.org/2000/svg" xmlns:xlink="http://www.w3.org/1999/xlink">
<g id="graph0" class="graph" transform="scale(1 1) rotate(0) translate(4 115)">
<title>a_graph</title>
<polygon fill="white" stroke="transparent" points="-4,4 -4,-115 564,-115 564,4 -4,4"/>
<!-- T899 -->
<g id="node1" class="node">
<title>T899</title>
<polygon fill="none" stroke="#0058ad" points="42,-81.5 42,-110.5 322,-110.5 322,-81.5 42,-81.5"/>
<text text-anchor="middle" x="77" y="-92.3" font-family="Times,serif" font-size="14.00" fill="#0058ad">r 386 []</text>
<polyline fill="none" stroke="#0058ad" points="112,-81.5 112,-110.5 "/>
<text text-anchor="middle" x="147" y="-92.3" font-family="Times,serif" font-size="14.00" fill="#0058ad">a 385 1</text>
<polyline fill="none" stroke="#0058ad" points="182,-81.5 182,-110.5 "/>
<text text-anchor="middle" x="217" y="-92.3" font-family="Times,serif" font-size="14.00" fill="#0058ad">r 387 []</text>
<polyline fill="none" stroke="#0058ad" points="252,-81.5 252,-110.5 "/>
<text text-anchor="middle" x="287" y="-92.3" font-family="Times,serif" font-size="14.00" fill="#0058ad">a 387 1</text>
</g>
<!-- T898 -->
<g id="node2" class="node">
<title>T898</title>
<polygon fill="none" stroke="#0058ad" points="0,-0.5 0,-29.5 560,-29.5 560,-0.5 0,-0.5"/>
<text text-anchor="middle" x="35" y="-11.3" font-family="Times,serif" font-size="14.00" fill="#0058ad">r 386 []</text>
<polyline fill="none" stroke="#0058ad" points="70,-0.5 70,-29.5 "/>
<text text-anchor="middle" x="105" y="-11.3" font-family="Times,serif" font-size="14.00" fill="#0058ad">r 387 []</text>
<polyline fill="none" stroke="#0058ad" points="140,-0.5 140,-29.5 "/>
<text text-anchor="middle" x="175" y="-11.3" font-family="Times,serif" font-size="14.00" fill="#0058ad">a 386 1</text>
<polyline fill="none" stroke="#0058ad" points="210,-0.5 210,-29.5 "/>
<text text-anchor="middle" x="245" y="-11.3" font-family="Times,serif" font-size="14.00" fill="#0058ad">a 386 2</text>
<polyline fill="none" stroke="#0058ad" points="280,-0.5 280,-29.5 "/>
<text text-anchor="middle" x="315" y="-11.3" font-family="Times,serif" font-size="14.00" fill="#0058ad">a 386 3</text>
<polyline fill="none" stroke="#0058ad" points="350,-0.5 350,-29.5 "/>
<text text-anchor="middle" x="385" y="-11.3" font-family="Times,serif" font-size="14.00" fill="#0058ad">r 387 []</text>
<polyline fill="none" stroke="#0058ad" points="420,-0.5 420,-29.5 "/>
<text text-anchor="middle" x="455" y="-11.3" font-family="Times,serif" font-size="14.00" fill="#0058ad">a 377 2</text>
<polyline fill="none" stroke="#0058ad" points="490,-0.5 490,-29.5 "/>
<text text-anchor="middle" x="525" y="-11.3" font-family="Times,serif" font-size="14.00" fill="#0058ad">r 387 []</text>
</g>
<!-- T899&#45;&gt;T898 -->
<g id="edge1" class="edge">
<title>T899:f0&#45;&gt;T898:f2</title>
<path fill="none" stroke="#5b00c0" d="M77,-81C77,-35.93 159.58,-72 173.13,-40.25"/>
<polygon fill="#5b00c0" stroke="#5b00c0" points="176.65,-40.47 175,-30 169.76,-39.21 176.65,-40.47"/>
<text text-anchor="middle" x="176.5" y="-51.8" font-family="Times,serif" font-size="14.00" fill="#5b00c0">rw</text>
</g>
<!-- T898&#45;&gt;T899 -->
<g id="edge2" class="edge">
<title>T898:f1&#45;&gt;T899:f3</title>
<path fill="none" stroke="#5b00c0" d="M105,-30C105,-49.31 171.38,-42.88 190,-48 230.14,-59.03 277.94,-39.42 285.86,-70.75"/>
<polygon fill="#5b00c0" stroke="#5b00c0" points="282.42,-71.45 287,-81 289.38,-70.68 282.42,-71.45"/>
<text text-anchor="middle" x="291.5" y="-51.8" font-family="Times,serif" font-size="14.00" fill="#5b00c0">rw</text>
</g>
</g>
</svg>
