<?xml version="1.0" encoding="UTF-8" standalone="no"?>
<!DOCTYPE svg PUBLIC "-//W3C//DTD SVG 1.1//EN"
 "http://www.w3.org/Graphics/SVG/1.1/DTD/svg11.dtd">
<!-- Generated by graphviz version 2.43.0 (0)
 -->
<!-- Title: a_graph Pages: 1 -->
<svg width="477pt" height="119pt"
 viewBox="0.00 0.00 477.50 119.00" xmlns="http://www.w3.org/2000/svg" xmlns:xlink="http://www.w3.org/1999/xlink">
<g id="graph0" class="graph" transform="scale(1 1) rotate(0) translate(4 115)">
<title>a_graph</title>
<polygon fill="white" stroke="transparent" points="-4,4 -4,-115 473.5,-115 473.5,4 -4,4"/>
<!-- T957 -->
<g id="node1" class="node">
<title>T957</title>
<polygon fill="none" stroke="#0058ad" points="0,-81.5 0,-110.5 372,-110.5 372,-81.5 0,-81.5"/>
<text text-anchor="middle" x="35" y="-92.3" font-family="Times,serif" font-size="14.00" fill="#0058ad">r 408 []</text>
<polyline fill="none" stroke="#0058ad" points="70,-81.5 70,-110.5 "/>
<text text-anchor="middle" x="116" y="-92.3" font-family="Times,serif" font-size="14.00" fill="#0058ad">r 402 [1 2]</text>
<polyline fill="none" stroke="#0058ad" points="162,-81.5 162,-110.5 "/>
<text text-anchor="middle" x="197" y="-92.3" font-family="Times,serif" font-size="14.00" fill="#0058ad">r 408 []</text>
<polyline fill="none" stroke="#0058ad" points="232,-81.5 232,-110.5 "/>
<text text-anchor="middle" x="267" y="-92.3" font-family="Times,serif" font-size="14.00" fill="#0058ad">a 407 1</text>
<polyline fill="none" stroke="#0058ad" points="302,-81.5 302,-110.5 "/>
<text text-anchor="middle" x="337" y="-92.3" font-family="Times,serif" font-size="14.00" fill="#0058ad">a 402 3</text>
</g>
<!-- T956 -->
<g id="node2" class="node">
<title>T956</title>
<polygon fill="none" stroke="#0058ad" points="88.5,-0.5 88.5,-29.5 469.5,-29.5 469.5,-0.5 88.5,-0.5"/>
<text text-anchor="middle" x="123.5" y="-11.3" font-family="Times,serif" font-size="14.00" fill="#0058ad">a 408 1</text>
<polyline fill="none" stroke="#0058ad" points="158.5,-0.5 158.5,-29.5 "/>
<text text-anchor="middle" x="198" y="-11.3" font-family="Times,serif" font-size="14.00" fill="#0058ad">r 408 [1]</text>
<polyline fill="none" stroke="#0058ad" points="237.5,-0.5 237.5,-29.5 "/>
<text text-anchor="middle" x="283.5" y="-11.3" font-family="Times,serif" font-size="14.00" fill="#0058ad">r 402 [1 2]</text>
<polyline fill="none" stroke="#0058ad" points="329.5,-0.5 329.5,-29.5 "/>
<text text-anchor="middle" x="364.5" y="-11.3" font-family="Times,serif" font-size="14.00" fill="#0058ad">a 408 2</text>
<polyline fill="none" stroke="#0058ad" points="399.5,-0.5 399.5,-29.5 "/>
<text text-anchor="middle" x="434.5" y="-11.3" font-family="Times,serif" font-size="14.00" fill="#0058ad">a 408 3</text>
</g>
<!-- T957&#45;&gt;T956 -->
<g id="edge1" class="edge">
<title>T957:f0&#45;&gt;T956:f0</title>
<path fill="none" stroke="#5b00c0" d="M35,-81C35,-47.3 46.93,-20.68 76.7,-15.8"/>
<polygon fill="#5b00c0" stroke="#5b00c0" points="77.3,-19.27 87,-15 76.76,-12.29 77.3,-19.27"/>
<text text-anchor="middle" x="49.5" y="-51.8" font-family="Times,serif" font-size="14.00" fill="#5b00c0">rw</text>
</g>
<!-- T956&#45;&gt;T957 -->
<g id="edge2" class="edge">
<title>T956:f2&#45;&gt;T957:f4</title>
<path fill="none" stroke="#5b00c0" d="M284,-30C284,-58.73 324.94,-51.1 334.86,-71.03"/>
<polygon fill="#5b00c0" stroke="#5b00c0" points="331.48,-71.96 337,-81 338.32,-70.49 331.48,-71.96"/>
<text text-anchor="middle" x="335.5" y="-51.8" font-family="Times,serif" font-size="14.00" fill="#5b00c0">rw</text>
</g>
</g>
</svg>
