<?xml version="1.0" encoding="UTF-8" standalone="no"?>
<!DOCTYPE svg PUBLIC "-//W3C//DTD SVG 1.1//EN"
 "http://www.w3.org/Graphics/SVG/1.1/DTD/svg11.dtd">
<!-- Generated by graphviz version 2.43.0 (0)
 -->
<!-- Title: a_graph Pages: 1 -->
<svg width="657pt" height="119pt"
 viewBox="0.00 0.00 657.00 119.00" xmlns="http://www.w3.org/2000/svg" xmlns:xlink="http://www.w3.org/1999/xlink">
<g id="graph0" class="graph" transform="scale(1 1) rotate(0) translate(4 115)">
<title>a_graph</title>
<polygon fill="white" stroke="transparent" points="-4,4 -4,-115 653,-115 653,4 -4,4"/>
<!-- T1026 -->
<g id="node1" class="node">
<title>T1026</title>
<polygon fill="none" stroke="#0058ad" points="0,-81.5 0,-110.5 649,-110.5 649,-81.5 0,-81.5"/>
<text text-anchor="middle" x="35" y="-92.3" font-family="Times,serif" font-size="14.00" fill="#0058ad">a 434 2</text>
<polyline fill="none" stroke="#0058ad" points="70,-81.5 70,-110.5 "/>
<text text-anchor="middle" x="123" y="-92.3" font-family="Times,serif" font-size="14.00" fill="#0058ad">r 431 [1 2 3]</text>
<polyline fill="none" stroke="#0058ad" points="176,-81.5 176,-110.5 "/>
<text text-anchor="middle" x="222" y="-92.3" font-family="Times,serif" font-size="14.00" fill="#0058ad">r 434 [1 2]</text>
<polyline fill="none" stroke="#0058ad" points="268,-81.5 268,-110.5 "/>
<text text-anchor="middle" x="307.5" y="-92.3" font-family="Times,serif" font-size="14.00" fill="#0058ad">r 433 [1]</text>
<polyline fill="none" stroke="#0058ad" points="347,-81.5 347,-110.5 "/>
<text text-anchor="middle" x="382" y="-92.3" font-family="Times,serif" font-size="14.00" fill="#0058ad">r 435 []</text>
<polyline fill="none" stroke="#0058ad" points="417,-81.5 417,-110.5 "/>
<text text-anchor="middle" x="452" y="-92.3" font-family="Times,serif" font-size="14.00" fill="#0058ad">a 433 2</text>
<polyline fill="none" stroke="#0058ad" points="487,-81.5 487,-110.5 "/>
<text text-anchor="middle" x="533" y="-92.3" font-family="Times,serif" font-size="14.00" fill="#0058ad">r 434 [1 2]</text>
<polyline fill="none" stroke="#0058ad" points="579,-81.5 579,-110.5 "/>
<text text-anchor="middle" x="614" y="-92.3" font-family="Times,serif" font-size="14.00" fill="#0058ad">a 434 3</text>
</g>
<!-- T1027 -->
<g id="node2" class="node">
<title>T1027</title>
<polygon fill="none" stroke="#0058ad" points="38,-0.5 38,-29.5 485,-29.5 485,-0.5 38,-0.5"/>
<text text-anchor="middle" x="77.5" y="-11.3" font-family="Times,serif" font-size="14.00" fill="#0058ad">r 432 [1]</text>
<polyline fill="none" stroke="#0058ad" points="117,-0.5 117,-29.5 "/>
<text text-anchor="middle" x="156.5" y="-11.3" font-family="Times,serif" font-size="14.00" fill="#0058ad">r 434 [1]</text>
<polyline fill="none" stroke="#0058ad" points="196,-0.5 196,-29.5 "/>
<text text-anchor="middle" x="235.5" y="-11.3" font-family="Times,serif" font-size="14.00" fill="#0058ad">r 434 [1]</text>
<polyline fill="none" stroke="#0058ad" points="275,-0.5 275,-29.5 "/>
<text text-anchor="middle" x="310" y="-11.3" font-family="Times,serif" font-size="14.00" fill="#0058ad">a 435 1</text>
<polyline fill="none" stroke="#0058ad" points="345,-0.5 345,-29.5 "/>
<text text-anchor="middle" x="380" y="-11.3" font-family="Times,serif" font-size="14.00" fill="#0058ad">a 435 2</text>
<polyline fill="none" stroke="#0058ad" points="415,-0.5 415,-29.5 "/>
<text text-anchor="middle" x="450" y="-11.3" font-family="Times,serif" font-size="14.00" fill="#0058ad">r 436 []</text>
</g>
<!-- T1026&#45;&gt;T1027 -->
<g id="edge1" class="edge">
<title>T1026:f4&#45;&gt;T1027:f3</title>
<path fill="none" stroke="#5b00c0" d="M382.5,-81C382.5,-45.77 324.38,-64.33 312.58,-40.03"/>
<polygon fill="#5b00c0" stroke="#5b00c0" points="315.96,-39.08 310.5,-30 309.1,-40.5 315.96,-39.08"/>
<text text-anchor="middle" x="381" y="-51.8" font-family="Times,serif" font-size="14.00" fill="#5b00c0">rw</text>
</g>
<!-- T1027&#45;&gt;T1026 -->
<g id="edge2" class="edge">
<title>T1027:f1&#45;&gt;T1026:f0</title>
<path fill="none" stroke="#5b00c0" d="M156.5,-30C156.5,-84.87 50.17,-30.52 36.04,-70.88"/>
<polygon fill="#5b00c0" stroke="#5b00c0" points="32.55,-70.59 34.5,-81 39.47,-71.64 32.55,-70.59"/>
<text text-anchor="middle" x="160" y="-51.8" font-family="Times,serif" font-size="14.00" fill="#5b00c0">rw</text>
</g>
</g>
</svg>
