<?xml version="1.0" encoding="UTF-8" standalone="no"?>
<!DOCTYPE svg PUBLIC "-//W3C//DTD SVG 1.1//EN"
 "http://www.w3.org/Graphics/SVG/1.1/DTD/svg11.dtd">
<!-- Generated by graphviz version 2.43.0 (0)
 -->
<!-- Title: a_graph Pages: 1 -->
<svg width="634pt" height="119pt"
 viewBox="0.00 0.00 634.00 119.00" xmlns="http://www.w3.org/2000/svg" xmlns:xlink="http://www.w3.org/1999/xlink">
<g id="graph0" class="graph" transform="scale(1 1) rotate(0) translate(4 115)">
<title>a_graph</title>
<polygon fill="white" stroke="transparent" points="-4,4 -4,-115 630,-115 630,4 -4,4"/>
<!-- T2250 -->
<g id="node1" class="node">
<title>T2250</title>
<polygon fill="none" stroke="#0058ad" points="0,-81.5 0,-110.5 626,-110.5 626,-81.5 0,-81.5"/>
<text text-anchor="middle" x="46" y="-92.3" font-family="Times,serif" font-size="14.00" fill="#0058ad">r 914 [1 3]</text>
<polyline fill="none" stroke="#0058ad" points="92,-81.5 92,-110.5 "/>
<text text-anchor="middle" x="127" y="-92.3" font-family="Times,serif" font-size="14.00" fill="#0058ad">a 957 2</text>
<polyline fill="none" stroke="#0058ad" points="162,-81.5 162,-110.5 "/>
<text text-anchor="middle" x="197" y="-92.3" font-family="Times,serif" font-size="14.00" fill="#0058ad">a 957 3</text>
<polyline fill="none" stroke="#0058ad" points="232,-81.5 232,-110.5 "/>
<text text-anchor="middle" x="267" y="-92.3" font-family="Times,serif" font-size="14.00" fill="#0058ad">a 956 3</text>
<polyline fill="none" stroke="#0058ad" points="302,-81.5 302,-110.5 "/>
<text text-anchor="middle" x="337" y="-92.3" font-family="Times,serif" font-size="14.00" fill="#0058ad">r 958 []</text>
<polyline fill="none" stroke="#0058ad" points="372,-81.5 372,-110.5 "/>
<text text-anchor="middle" x="418" y="-92.3" font-family="Times,serif" font-size="14.00" fill="#0058ad">r 951 [2 3]</text>
<polyline fill="none" stroke="#0058ad" points="464,-81.5 464,-110.5 "/>
<text text-anchor="middle" x="499" y="-92.3" font-family="Times,serif" font-size="14.00" fill="#0058ad">a 949 2</text>
<polyline fill="none" stroke="#0058ad" points="534,-81.5 534,-110.5 "/>
<text text-anchor="middle" x="580" y="-92.3" font-family="Times,serif" font-size="14.00" fill="#0058ad">r 951 [2 3]</text>
</g>
<!-- T2251 -->
<g id="node2" class="node">
<title>T2251</title>
<polygon fill="none" stroke="#0058ad" points="191,-0.5 191,-29.5 515,-29.5 515,-0.5 191,-0.5"/>
<text text-anchor="middle" x="226" y="-11.3" font-family="Times,serif" font-size="14.00" fill="#0058ad">a 958 1</text>
<polyline fill="none" stroke="#0058ad" points="261,-0.5 261,-29.5 "/>
<text text-anchor="middle" x="296" y="-11.3" font-family="Times,serif" font-size="14.00" fill="#0058ad">a 958 2</text>
<polyline fill="none" stroke="#0058ad" points="331,-0.5 331,-29.5 "/>
<text text-anchor="middle" x="377" y="-11.3" font-family="Times,serif" font-size="14.00" fill="#0058ad">r 956 [1 2]</text>
<polyline fill="none" stroke="#0058ad" points="423,-0.5 423,-29.5 "/>
<text text-anchor="middle" x="469" y="-11.3" font-family="Times,serif" font-size="14.00" fill="#0058ad">r 956 [1 2]</text>
</g>
<!-- T2250&#45;&gt;T2251 -->
<g id="edge1" class="edge">
<title>T2250:f4&#45;&gt;T2251:f0</title>
<path fill="none" stroke="#5b00c0" d="M337,-81C337,-57.95 317.56,-58.42 297,-48 271.82,-35.24 236.92,-55.56 228.09,-39.95"/>
<polygon fill="#5b00c0" stroke="#5b00c0" points="231.48,-39.07 226,-30 224.63,-40.51 231.48,-39.07"/>
<text text-anchor="middle" x="337.5" y="-51.8" font-family="Times,serif" font-size="14.00" fill="#5b00c0">rw</text>
</g>
<!-- T2251&#45;&gt;T2250 -->
<g id="edge2" class="edge">
<title>T2251:f2&#45;&gt;T2250:f3</title>
<path fill="none" stroke="#5b00c0" d="M377,-30C377,-53.24 290.72,-31.87 274,-48 265.91,-55.81 266.02,-62.03 266.58,-70.98"/>
<polygon fill="#5b00c0" stroke="#5b00c0" points="263.08,-71.16 267,-81 270.07,-70.86 263.08,-71.16"/>
<text text-anchor="middle" x="283.5" y="-51.8" font-family="Times,serif" font-size="14.00" fill="#5b00c0">rw</text>
</g>
</g>
</svg>
