<?xml version="1.0" encoding="UTF-8" standalone="no"?>
<!DOCTYPE svg PUBLIC "-//W3C//DTD SVG 1.1//EN"
 "http://www.w3.org/Graphics/SVG/1.1/DTD/svg11.dtd">
<!-- Generated by graphviz version 2.43.0 (0)
 -->
<!-- Title: a_graph Pages: 1 -->
<svg width="541pt" height="119pt"
 viewBox="0.00 0.00 540.50 119.00" xmlns="http://www.w3.org/2000/svg" xmlns:xlink="http://www.w3.org/1999/xlink">
<g id="graph0" class="graph" transform="scale(1 1) rotate(0) translate(4 115)">
<title>a_graph</title>
<polygon fill="white" stroke="transparent" points="-4,4 -4,-115 536.5,-115 536.5,4 -4,4"/>
<!-- T2149 -->
<g id="node1" class="node">
<title>T2149</title>
<polygon fill="none" stroke="#0058ad" points="0,-81.5 0,-110.5 490,-110.5 490,-81.5 0,-81.5"/>
<text text-anchor="middle" x="35" y="-92.3" font-family="Times,serif" font-size="14.00" fill="#0058ad">r 912 []</text>
<polyline fill="none" stroke="#0058ad" points="70,-81.5 70,-110.5 "/>
<text text-anchor="middle" x="105" y="-92.3" font-family="Times,serif" font-size="14.00" fill="#0058ad">r 912 []</text>
<polyline fill="none" stroke="#0058ad" points="140,-81.5 140,-110.5 "/>
<text text-anchor="middle" x="175" y="-92.3" font-family="Times,serif" font-size="14.00" fill="#0058ad">a 912 3</text>
<polyline fill="none" stroke="#0058ad" points="210,-81.5 210,-110.5 "/>
<text text-anchor="middle" x="245" y="-92.3" font-family="Times,serif" font-size="14.00" fill="#0058ad">r 915 []</text>
<polyline fill="none" stroke="#0058ad" points="280,-81.5 280,-110.5 "/>
<text text-anchor="middle" x="315" y="-92.3" font-family="Times,serif" font-size="14.00" fill="#0058ad">r 913 []</text>
<polyline fill="none" stroke="#0058ad" points="350,-81.5 350,-110.5 "/>
<text text-anchor="middle" x="385" y="-92.3" font-family="Times,serif" font-size="14.00" fill="#0058ad">r 913 []</text>
<polyline fill="none" stroke="#0058ad" points="420,-81.5 420,-110.5 "/>
<text text-anchor="middle" x="455" y="-92.3" font-family="Times,serif" font-size="14.00" fill="#0058ad">r 913 []</text>
</g>
<!-- T2148 -->
<g id="node2" class="node">
<title>T2148</title>
<polygon fill="none" stroke="#0058ad" points="81.5,-0.5 81.5,-29.5 532.5,-29.5 532.5,-0.5 81.5,-0.5"/>
<text text-anchor="middle" x="116.5" y="-11.3" font-family="Times,serif" font-size="14.00" fill="#0058ad">r 913 []</text>
<polyline fill="none" stroke="#0058ad" points="151.5,-0.5 151.5,-29.5 "/>
<text text-anchor="middle" x="186.5" y="-11.3" font-family="Times,serif" font-size="14.00" fill="#0058ad">a 913 1</text>
<polyline fill="none" stroke="#0058ad" points="221.5,-0.5 221.5,-29.5 "/>
<text text-anchor="middle" x="256.5" y="-11.3" font-family="Times,serif" font-size="14.00" fill="#0058ad">r 912 []</text>
<polyline fill="none" stroke="#0058ad" points="291.5,-0.5 291.5,-29.5 "/>
<text text-anchor="middle" x="331" y="-11.3" font-family="Times,serif" font-size="14.00" fill="#0058ad">r 913 [1]</text>
<polyline fill="none" stroke="#0058ad" points="370.5,-0.5 370.5,-29.5 "/>
<text text-anchor="middle" x="405.5" y="-11.3" font-family="Times,serif" font-size="14.00" fill="#0058ad">a 913 2</text>
<polyline fill="none" stroke="#0058ad" points="440.5,-0.5 440.5,-29.5 "/>
<text text-anchor="middle" x="486.5" y="-11.3" font-family="Times,serif" font-size="14.00" fill="#0058ad">r 913 [1 2]</text>
</g>
<!-- T2149&#45;&gt;T2148 -->
<g id="edge1" class="edge">
<title>T2149:f4&#45;&gt;T2148:f1</title>
<path fill="none" stroke="#5b00c0" d="M315,-81C315,-67.81 220.59,-51.15 193.31,-36.95"/>
<polygon fill="#5b00c0" stroke="#5b00c0" points="195.66,-34.36 186,-30 190.83,-39.43 195.66,-34.36"/>
<text text-anchor="middle" x="285.5" y="-51.8" font-family="Times,serif" font-size="14.00" fill="#5b00c0">rw</text>
</g>
<!-- T2148&#45;&gt;T2149 -->
<g id="edge2" class="edge">
<title>T2148:f2&#45;&gt;T2149:f2</title>
<path fill="none" stroke="#5b00c0" d="M256,-30C256,-55.72 222.08,-33.27 201,-48 188.92,-56.44 179.72,-60.48 176.37,-70.98"/>
<polygon fill="#5b00c0" stroke="#5b00c0" points="172.89,-70.62 175,-81 179.82,-71.57 172.89,-70.62"/>
<text text-anchor="middle" x="210.5" y="-51.8" font-family="Times,serif" font-size="14.00" fill="#5b00c0">rw</text>
</g>
</g>
</svg>
