<?xml version="1.0" encoding="UTF-8" standalone="no"?>
<!DOCTYPE svg PUBLIC "-//W3C//DTD SVG 1.1//EN"
 "http://www.w3.org/Graphics/SVG/1.1/DTD/svg11.dtd">
<!-- Generated by graphviz version 2.43.0 (0)
 -->
<!-- Title: a_graph Pages: 1 -->
<svg width="911pt" height="119pt"
 viewBox="0.00 0.00 910.50 119.00" xmlns="http://www.w3.org/2000/svg" xmlns:xlink="http://www.w3.org/1999/xlink">
<g id="graph0" class="graph" transform="scale(1 1) rotate(0) translate(4 115)">
<title>a_graph</title>
<polygon fill="white" stroke="transparent" points="-4,4 -4,-115 906.5,-115 906.5,4 -4,4"/>
<!-- T2450 -->
<g id="node1" class="node">
<title>T2450</title>
<polygon fill="none" stroke="#0058ad" points="0,-81.5 0,-110.5 554,-110.5 554,-81.5 0,-81.5"/>
<text text-anchor="middle" x="50.5" y="-92.3" font-family="Times,serif" font-size="14.00" fill="#0058ad">r 1036 [1 2]</text>
<polyline fill="none" stroke="#0058ad" points="101,-81.5 101,-110.5 "/>
<text text-anchor="middle" x="140.5" y="-92.3" font-family="Times,serif" font-size="14.00" fill="#0058ad">r 1037 []</text>
<polyline fill="none" stroke="#0058ad" points="180,-81.5 180,-110.5 "/>
<text text-anchor="middle" x="219.5" y="-92.3" font-family="Times,serif" font-size="14.00" fill="#0058ad">a 1036 3</text>
<polyline fill="none" stroke="#0058ad" points="259,-81.5 259,-110.5 "/>
<text text-anchor="middle" x="316.5" y="-92.3" font-family="Times,serif" font-size="14.00" fill="#0058ad">r 1036 [1 2 3]</text>
<polyline fill="none" stroke="#0058ad" points="374,-81.5 374,-110.5 "/>
<text text-anchor="middle" x="420" y="-92.3" font-family="Times,serif" font-size="14.00" fill="#0058ad">r 976 [1 2]</text>
<polyline fill="none" stroke="#0058ad" points="466,-81.5 466,-110.5 "/>
<text text-anchor="middle" x="510" y="-92.3" font-family="Times,serif" font-size="14.00" fill="#0058ad">r 1035 [2]</text>
</g>
<!-- T2451 -->
<g id="node2" class="node">
<title>T2451</title>
<polygon fill="none" stroke="#0058ad" points="217.5,-0.5 217.5,-29.5 902.5,-29.5 902.5,-0.5 217.5,-0.5"/>
<text text-anchor="middle" x="257" y="-11.3" font-family="Times,serif" font-size="14.00" fill="#0058ad">a 1035 3</text>
<polyline fill="none" stroke="#0058ad" points="296.5,-0.5 296.5,-29.5 "/>
<text text-anchor="middle" x="347" y="-11.3" font-family="Times,serif" font-size="14.00" fill="#0058ad">r 1036 [1 2]</text>
<polyline fill="none" stroke="#0058ad" points="397.5,-0.5 397.5,-29.5 "/>
<text text-anchor="middle" x="448" y="-11.3" font-family="Times,serif" font-size="14.00" fill="#0058ad">r 1036 [1 2]</text>
<polyline fill="none" stroke="#0058ad" points="498.5,-0.5 498.5,-29.5 "/>
<text text-anchor="middle" x="538" y="-11.3" font-family="Times,serif" font-size="14.00" fill="#0058ad">a 1038 1</text>
<polyline fill="none" stroke="#0058ad" points="577.5,-0.5 577.5,-29.5 "/>
<text text-anchor="middle" x="617" y="-11.3" font-family="Times,serif" font-size="14.00" fill="#0058ad">r 1039 []</text>
<polyline fill="none" stroke="#0058ad" points="656.5,-0.5 656.5,-29.5 "/>
<text text-anchor="middle" x="700.5" y="-11.3" font-family="Times,serif" font-size="14.00" fill="#0058ad">r 1038 [1]</text>
<polyline fill="none" stroke="#0058ad" points="744.5,-0.5 744.5,-29.5 "/>
<text text-anchor="middle" x="784" y="-11.3" font-family="Times,serif" font-size="14.00" fill="#0058ad">a 1039 1</text>
<polyline fill="none" stroke="#0058ad" points="823.5,-0.5 823.5,-29.5 "/>
<text text-anchor="middle" x="863" y="-11.3" font-family="Times,serif" font-size="14.00" fill="#0058ad">a 1033 1</text>
</g>
<!-- T2450&#45;&gt;T2451 -->
<g id="edge1" class="edge">
<title>T2450:f5&#45;&gt;T2451:f0</title>
<path fill="none" stroke="#5b00c0" d="M510,-81C510,-55.12 304,-57.77 263.77,-37.46"/>
<polygon fill="#5b00c0" stroke="#5b00c0" points="266.31,-35.06 257,-30 261.12,-39.76 266.31,-35.06"/>
<text text-anchor="middle" x="464.5" y="-51.8" font-family="Times,serif" font-size="14.00" fill="#5b00c0">rw</text>
</g>
<!-- T2451&#45;&gt;T2450 -->
<g id="edge2" class="edge">
<title>T2451:f1&#45;&gt;T2450:f2</title>
<path fill="none" stroke="#5b00c0" d="M347,-30C347,-56.99 314.16,-38.22 289,-48 260.57,-59.05 227.52,-49.41 220.4,-71.06"/>
<polygon fill="#5b00c0" stroke="#5b00c0" points="216.93,-70.61 219,-81 223.86,-71.58 216.93,-70.61"/>
<text text-anchor="middle" x="298.5" y="-51.8" font-family="Times,serif" font-size="14.00" fill="#5b00c0">rw</text>
</g>
</g>
</svg>
