<?xml version="1.0" encoding="UTF-8" standalone="no"?>
<!DOCTYPE svg PUBLIC "-//W3C//DTD SVG 1.1//EN"
 "http://www.w3.org/Graphics/SVG/1.1/DTD/svg11.dtd">
<!-- Generated by graphviz version 2.43.0 (0)
 -->
<!-- Title: a_graph Pages: 1 -->
<svg width="527pt" height="200pt"
 viewBox="0.00 0.00 527.29 200.00" xmlns="http://www.w3.org/2000/svg" xmlns:xlink="http://www.w3.org/1999/xlink">
<g id="graph0" class="graph" transform="scale(1 1) rotate(0) translate(4 196)">
<title>a_graph</title>
<polygon fill="white" stroke="transparent" points="-4,4 -4,-196 523.29,-196 523.29,4 -4,4"/>
<!-- T1107 -->
<g id="node1" class="node">
<title>T1107</title>
<polygon fill="none" stroke="#0058ad" points="55.29,-162.5 55.29,-191.5 335.29,-191.5 335.29,-162.5 55.29,-162.5"/>
<text text-anchor="middle" x="90.29" y="-173.3" font-family="Times,serif" font-size="14.00" fill="#0058ad">a 470 1</text>
<polyline fill="none" stroke="#0058ad" points="125.29,-162.5 125.29,-191.5 "/>
<text text-anchor="middle" x="160.29" y="-173.3" font-family="Times,serif" font-size="14.00" fill="#0058ad">r 468 []</text>
<polyline fill="none" stroke="#0058ad" points="195.29,-162.5 195.29,-191.5 "/>
<text text-anchor="middle" x="230.29" y="-173.3" font-family="Times,serif" font-size="14.00" fill="#0058ad">r 468 []</text>
<polyline fill="none" stroke="#0058ad" points="265.29,-162.5 265.29,-191.5 "/>
<text text-anchor="middle" x="300.29" y="-173.3" font-family="Times,serif" font-size="14.00" fill="#0058ad">a 470 2</text>
</g>
<!-- T1104 -->
<g id="node3" class="node">
<title>T1104</title>
<polygon fill="none" stroke="#0058ad" points="55.79,-81.5 55.79,-110.5 344.79,-110.5 344.79,-81.5 55.79,-81.5"/>
<text text-anchor="middle" x="90.79" y="-92.3" font-family="Times,serif" font-size="14.00" fill="#0058ad">a 465 3</text>
<polyline fill="none" stroke="#0058ad" points="125.79,-81.5 125.79,-110.5 "/>
<text text-anchor="middle" x="160.79" y="-92.3" font-family="Times,serif" font-size="14.00" fill="#0058ad">a 467 1</text>
<polyline fill="none" stroke="#0058ad" points="195.79,-81.5 195.79,-110.5 "/>
<text text-anchor="middle" x="230.79" y="-92.3" font-family="Times,serif" font-size="14.00" fill="#0058ad">a 468 1</text>
<polyline fill="none" stroke="#0058ad" points="265.79,-81.5 265.79,-110.5 "/>
<text text-anchor="middle" x="305.29" y="-92.3" font-family="Times,serif" font-size="14.00" fill="#0058ad">r 468 [1]</text>
</g>
<!-- T1107&#45;&gt;T1104 -->
<g id="edge1" class="edge">
<title>T1107:f1&#45;&gt;T1104:f2</title>
<path fill="none" stroke="#5b00c0" d="M160.29,-162C160.29,-127.09 217.6,-145.1 229.24,-120.95"/>
<polygon fill="#5b00c0" stroke="#5b00c0" points="232.7,-121.5 231.29,-111 225.84,-120.09 232.7,-121.5"/>
<text text-anchor="middle" x="229.79" y="-132.8" font-family="Times,serif" font-size="14.00" fill="#5b00c0">rw</text>
</g>
<!-- T1108 -->
<g id="node2" class="node">
<title>T1108</title>
<polygon fill="none" stroke="#0058ad" points="55.29,-0.5 55.29,-29.5 519.29,-29.5 519.29,-0.5 55.29,-0.5"/>
<text text-anchor="middle" x="90.29" y="-11.3" font-family="Times,serif" font-size="14.00" fill="#0058ad">r 470 []</text>
<polyline fill="none" stroke="#0058ad" points="125.29,-0.5 125.29,-29.5 "/>
<text text-anchor="middle" x="160.29" y="-11.3" font-family="Times,serif" font-size="14.00" fill="#0058ad">a 468 2</text>
<polyline fill="none" stroke="#0058ad" points="195.29,-0.5 195.29,-29.5 "/>
<text text-anchor="middle" x="241.29" y="-11.3" font-family="Times,serif" font-size="14.00" fill="#0058ad">r 468 [1 2]</text>
<polyline fill="none" stroke="#0058ad" points="287.29,-0.5 287.29,-29.5 "/>
<text text-anchor="middle" x="322.29" y="-11.3" font-family="Times,serif" font-size="14.00" fill="#0058ad">r 470 []</text>
<polyline fill="none" stroke="#0058ad" points="357.29,-0.5 357.29,-29.5 "/>
<text text-anchor="middle" x="392.29" y="-11.3" font-family="Times,serif" font-size="14.00" fill="#0058ad">r 470 []</text>
<polyline fill="none" stroke="#0058ad" points="427.29,-0.5 427.29,-29.5 "/>
<text text-anchor="middle" x="473.29" y="-11.3" font-family="Times,serif" font-size="14.00" fill="#0058ad">r 468 [1 2]</text>
</g>
<!-- T1108&#45;&gt;T1107 -->
<g id="edge2" class="edge">
<title>T1108:f0&#45;&gt;T1107:f0</title>
<path fill="none" stroke="#5b00c0" d="M54.29,-15C-14.2,-15 -17.54,-161.57 44.26,-175.88"/>
<polygon fill="#5b00c0" stroke="#5b00c0" points="43.96,-179.37 54.29,-177 44.74,-172.41 43.96,-179.37"/>
<text text-anchor="middle" x="10.79" y="-92.3" font-family="Times,serif" font-size="14.00" fill="#5b00c0">rw</text>
</g>
<!-- T1104&#45;&gt;T1108 -->
<g id="edge3" class="edge">
<title>T1104:f2&#45;&gt;T1108:f1</title>
<path fill="none" stroke="#c02700" d="M231.29,-81C231.29,-46.09 173.98,-64.1 162.34,-39.95"/>
<polygon fill="#c02700" stroke="#c02700" points="165.73,-39.09 160.29,-30 158.88,-40.5 165.73,-39.09"/>
<text text-anchor="middle" x="232.79" y="-51.8" font-family="Times,serif" font-size="14.00" fill="#c02700">ww</text>
</g>
</g>
</svg>
