<?xml version="1.0" encoding="UTF-8" standalone="no"?>
<!DOCTYPE svg PUBLIC "-//W3C//DTD SVG 1.1//EN"
 "http://www.w3.org/Graphics/SVG/1.1/DTD/svg11.dtd">
<!-- Generated by graphviz version 2.43.0 (0)
 -->
<!-- Title: a_graph Pages: 1 -->
<svg width="705pt" height="119pt"
 viewBox="0.00 0.00 704.50 119.00" xmlns="http://www.w3.org/2000/svg" xmlns:xlink="http://www.w3.org/1999/xlink">
<g id="graph0" class="graph" transform="scale(1 1) rotate(0) translate(4 115)">
<title>a_graph</title>
<polygon fill="white" stroke="transparent" points="-4,4 -4,-115 700.5,-115 700.5,4 -4,4"/>
<!-- T1018 -->
<g id="node1" class="node">
<title>T1018</title>
<polygon fill="none" stroke="#0058ad" points="105.5,-81.5 105.5,-110.5 696.5,-110.5 696.5,-81.5 105.5,-81.5"/>
<text text-anchor="middle" x="140.5" y="-92.3" font-family="Times,serif" font-size="14.00" fill="#0058ad">r 430 []</text>
<polyline fill="none" stroke="#0058ad" points="175.5,-81.5 175.5,-110.5 "/>
<text text-anchor="middle" x="210.5" y="-92.3" font-family="Times,serif" font-size="14.00" fill="#0058ad">a 430 1</text>
<polyline fill="none" stroke="#0058ad" points="245.5,-81.5 245.5,-110.5 "/>
<text text-anchor="middle" x="280.5" y="-92.3" font-family="Times,serif" font-size="14.00" fill="#0058ad">r 431 []</text>
<polyline fill="none" stroke="#0058ad" points="315.5,-81.5 315.5,-110.5 "/>
<text text-anchor="middle" x="350.5" y="-92.3" font-family="Times,serif" font-size="14.00" fill="#0058ad">a 432 1</text>
<polyline fill="none" stroke="#0058ad" points="385.5,-81.5 385.5,-110.5 "/>
<text text-anchor="middle" x="420.5" y="-92.3" font-family="Times,serif" font-size="14.00" fill="#0058ad">a 430 2</text>
<polyline fill="none" stroke="#0058ad" points="455.5,-81.5 455.5,-110.5 "/>
<text text-anchor="middle" x="495" y="-92.3" font-family="Times,serif" font-size="14.00" fill="#0058ad">r 432 [1]</text>
<polyline fill="none" stroke="#0058ad" points="534.5,-81.5 534.5,-110.5 "/>
<text text-anchor="middle" x="580.5" y="-92.3" font-family="Times,serif" font-size="14.00" fill="#0058ad">r 430 [1 2]</text>
<polyline fill="none" stroke="#0058ad" points="626.5,-81.5 626.5,-110.5 "/>
<text text-anchor="middle" x="661.5" y="-92.3" font-family="Times,serif" font-size="14.00" fill="#0058ad">r 431 []</text>
</g>
<!-- T1017 -->
<g id="node2" class="node">
<title>T1017</title>
<polygon fill="none" stroke="#0058ad" points="0,-0.5 0,-29.5 350,-29.5 350,-0.5 0,-0.5"/>
<text text-anchor="middle" x="35" y="-11.3" font-family="Times,serif" font-size="14.00" fill="#0058ad">a 429 3</text>
<polyline fill="none" stroke="#0058ad" points="70,-0.5 70,-29.5 "/>
<text text-anchor="middle" x="105" y="-11.3" font-family="Times,serif" font-size="14.00" fill="#0058ad">r 430 []</text>
<polyline fill="none" stroke="#0058ad" points="140,-0.5 140,-29.5 "/>
<text text-anchor="middle" x="175" y="-11.3" font-family="Times,serif" font-size="14.00" fill="#0058ad">r 430 []</text>
<polyline fill="none" stroke="#0058ad" points="210,-0.5 210,-29.5 "/>
<text text-anchor="middle" x="245" y="-11.3" font-family="Times,serif" font-size="14.00" fill="#0058ad">r 430 []</text>
<polyline fill="none" stroke="#0058ad" points="280,-0.5 280,-29.5 "/>
<text text-anchor="middle" x="315" y="-11.3" font-family="Times,serif" font-size="14.00" fill="#0058ad">a 431 1</text>
</g>
<!-- T1018&#45;&gt;T1017 -->
<g id="edge1" class="edge">
<title>T1018:f2&#45;&gt;T1017:f4</title>
<path fill="none" stroke="#5b00c0" d="M280,-81C280,-57.37 305.85,-56.99 313.12,-39.91"/>
<polygon fill="#5b00c0" stroke="#5b00c0" points="316.57,-40.48 315,-30 309.7,-39.17 316.57,-40.48"/>
<text text-anchor="middle" x="315.5" y="-51.8" font-family="Times,serif" font-size="14.00" fill="#5b00c0">rw</text>
</g>
<!-- T1017&#45;&gt;T1018 -->
<g id="edge2" class="edge">
<title>T1017:f1&#45;&gt;T1018:f1</title>
<path fill="none" stroke="#5b00c0" d="M105,-30C105,-78.03 194.99,-36.38 208.35,-71.09"/>
<polygon fill="#5b00c0" stroke="#5b00c0" points="204.91,-71.71 210,-81 211.81,-70.56 204.91,-71.71"/>
<text text-anchor="middle" x="210.5" y="-51.8" font-family="Times,serif" font-size="14.00" fill="#5b00c0">rw</text>
</g>
</g>
</svg>
