<?xml version="1.0" encoding="UTF-8" standalone="no"?>
<!DOCTYPE svg PUBLIC "-//W3C//DTD SVG 1.1//EN"
 "http://www.w3.org/Graphics/SVG/1.1/DTD/svg11.dtd">
<!-- Generated by graphviz version 2.43.0 (0)
 -->
<!-- Title: a_graph Pages: 1 -->
<svg width="2598pt" height="119pt"
 viewBox="0.00 0.00 2598.00 119.00" xmlns="http://www.w3.org/2000/svg" xmlns:xlink="http://www.w3.org/1999/xlink">
<g id="graph0" class="graph" transform="scale(1 1) rotate(0) translate(4 115)">
<title>a_graph</title>
<polygon fill="white" stroke="transparent" points="-4,4 -4,-115 2594,-115 2594,4 -4,4"/>
<!-- T3593 -->
<g id="node1" class="node">
<title>T3593</title>
<polygon fill="none" stroke="#0058ad" points="0,-81.5 0,-110.5 2590,-110.5 2590,-81.5 0,-81.5"/>
<text text-anchor="middle" x="35" y="-92.3" font-family="Times,serif" font-size="14.00" fill="#0058ad">a 130 2</text>
<polyline fill="none" stroke="#0058ad" points="70,-81.5 70,-110.5 "/>
<text text-anchor="middle" x="354.5" y="-92.3" font-family="Times,serif" font-size="14.00" fill="#0058ad">r 129 [1 2 3 4 5 6 7 8 9 14 15 16 20 21 22 23 24 26 27 28 29 30 31 32 10 11]</text>
<polyline fill="none" stroke="#0058ad" points="639,-81.5 639,-110.5 "/>
<text text-anchor="middle" x="678.5" y="-92.3" font-family="Times,serif" font-size="14.00" fill="#0058ad">a 129 12</text>
<polyline fill="none" stroke="#0058ad" points="718,-81.5 718,-110.5 "/>
<text text-anchor="middle" x="1056.5" y="-92.3" font-family="Times,serif" font-size="14.00" fill="#0058ad">r 130 [1 3 6 7 8 9 10 11 12 13 14 15 17 18 19 20 21 22 23 24 25 26 27 28 29 16 30 31 32 2]</text>
<polyline fill="none" stroke="#0058ad" points="1395,-81.5 1395,-110.5 "/>
<text text-anchor="middle" x="1646" y="-92.3" font-family="Times,serif" font-size="14.00" fill="#0058ad">r 126 [1 2 3 4 5 6 7 8 9 10 11 12 13 14 16 17 18 19 20 21 22 23 24]</text>
<polyline fill="none" stroke="#0058ad" points="1897,-81.5 1897,-110.5 "/>
<text text-anchor="middle" x="1936.5" y="-92.3" font-family="Times,serif" font-size="14.00" fill="#0058ad">a 129 13</text>
<polyline fill="none" stroke="#0058ad" points="1976,-81.5 1976,-110.5 "/>
<text text-anchor="middle" x="2283" y="-92.3" font-family="Times,serif" font-size="14.00" fill="#0058ad">r 129 [1 2 3 4 5 6 7 8 9 14 15 16 20 21 22 23 24 26 27 28 29 30 31 32 10 11 12 13]</text>
</g>
<!-- T3594 -->
<g id="node2" class="node">
<title>T3594</title>
<polygon fill="none" stroke="#0058ad" points="332.5,-0.5 332.5,-29.5 1719.5,-29.5 1719.5,-0.5 332.5,-0.5"/>
<text text-anchor="middle" x="372" y="-11.3" font-family="Times,serif" font-size="14.00" fill="#0058ad">a 126 25</text>
<polyline fill="none" stroke="#0058ad" points="411.5,-0.5 411.5,-29.5 "/>
<text text-anchor="middle" x="446.5" y="-11.3" font-family="Times,serif" font-size="14.00" fill="#0058ad">a 132 8</text>
<polyline fill="none" stroke="#0058ad" points="481.5,-0.5 481.5,-29.5 "/>
<text text-anchor="middle" x="568" y="-11.3" font-family="Times,serif" font-size="14.00" fill="#0058ad">r 132 [1 2 3 4 5 6 7 8]</text>
<polyline fill="none" stroke="#0058ad" points="654.5,-0.5 654.5,-29.5 "/>
<text text-anchor="middle" x="741" y="-11.3" font-family="Times,serif" font-size="14.00" fill="#0058ad">r 132 [1 2 3 4 5 6 7 8]</text>
<polyline fill="none" stroke="#0058ad" points="827.5,-0.5 827.5,-29.5 "/>
<text text-anchor="middle" x="862.5" y="-11.3" font-family="Times,serif" font-size="14.00" fill="#0058ad">a 132 9</text>
<polyline fill="none" stroke="#0058ad" points="897.5,-0.5 897.5,-29.5 "/>
<text text-anchor="middle" x="937" y="-11.3" font-family="Times,serif" font-size="14.00" fill="#0058ad">a 126 26</text>
<polyline fill="none" stroke="#0058ad" points="976.5,-0.5 976.5,-29.5 "/>
<text text-anchor="middle" x="1308.5" y="-11.3" font-family="Times,serif" font-size="14.00" fill="#0058ad">r 130 [1 3 6 7 8 9 10 11 12 13 14 15 17 18 19 20 21 22 23 24 25 26 27 28 29 16 30 31 32]</text>
<polyline fill="none" stroke="#0058ad" points="1640.5,-0.5 1640.5,-29.5 "/>
<text text-anchor="middle" x="1680" y="-11.3" font-family="Times,serif" font-size="14.00" fill="#0058ad">a 132 10</text>
</g>
<!-- T3593&#45;&gt;T3594 -->
<g id="edge1" class="edge">
<title>T3593:f4&#45;&gt;T3594:f0</title>
<path fill="none" stroke="#5b00c0" d="M1646,-81C1646,-47.31 493.38,-63.61 380.82,-34.81"/>
<polygon fill="#5b00c0" stroke="#5b00c0" points="382.46,-31.71 372,-30 379.1,-37.86 382.46,-31.71"/>
<text text-anchor="middle" x="1441.5" y="-51.8" font-family="Times,serif" font-size="14.00" fill="#5b00c0">rw</text>
</g>
<!-- T3594&#45;&gt;T3593 -->
<g id="edge2" class="edge">
<title>T3594:f6&#45;&gt;T3593:f0</title>
<path fill="none" stroke="#5b00c0" d="M1309,-30C1309,-50.76 582.74,-47.1 562,-48 448.32,-52.93 59.54,31.01 36.11,-70.9"/>
<polygon fill="#5b00c0" stroke="#5b00c0" points="32.61,-70.68 35,-81 39.57,-71.44 32.61,-70.68"/>
<text text-anchor="middle" x="571.5" y="-51.8" font-family="Times,serif" font-size="14.00" fill="#5b00c0">rw</text>
</g>
</g>
</svg>
