<?xml version="1.0" encoding="UTF-8" standalone="no"?>
<!DOCTYPE svg PUBLIC "-//W3C//DTD SVG 1.1//EN"
 "http://www.w3.org/Graphics/SVG/1.1/DTD/svg11.dtd">
<!-- Generated by graphviz version 2.43.0 (0)
 -->
<!-- Title: a_graph Pages: 1 -->
<svg width="1018pt" height="119pt"
 viewBox="0.00 0.00 1018.00 119.00" xmlns="http://www.w3.org/2000/svg" xmlns:xlink="http://www.w3.org/1999/xlink">
<g id="graph0" class="graph" transform="scale(1 1) rotate(0) translate(4 115)">
<title>a_graph</title>
<polygon fill="white" stroke="transparent" points="-4,4 -4,-115 1014,-115 1014,4 -4,4"/>
<!-- T3637 -->
<g id="node1" class="node">
<title>T3637</title>
<polygon fill="none" stroke="#0058ad" points="170,-81.5 170,-110.5 1010,-110.5 1010,-81.5 170,-81.5"/>
<text text-anchor="middle" x="205" y="-92.3" font-family="Times,serif" font-size="14.00" fill="#0058ad">r 135 []</text>
<polyline fill="none" stroke="#0058ad" points="240,-81.5 240,-110.5 "/>
<text text-anchor="middle" x="389.5" y="-92.3" font-family="Times,serif" font-size="14.00" fill="#0058ad">r 133 [1 2 3 4 5 6 7 8 9 10 11 12 13 14]</text>
<polyline fill="none" stroke="#0058ad" points="539,-81.5 539,-110.5 "/>
<text text-anchor="middle" x="578.5" y="-92.3" font-family="Times,serif" font-size="14.00" fill="#0058ad">a 133 16</text>
<polyline fill="none" stroke="#0058ad" points="618,-81.5 618,-110.5 "/>
<text text-anchor="middle" x="653" y="-92.3" font-family="Times,serif" font-size="14.00" fill="#0058ad">r 135 []</text>
<polyline fill="none" stroke="#0058ad" points="688,-81.5 688,-110.5 "/>
<text text-anchor="middle" x="849" y="-92.3" font-family="Times,serif" font-size="14.00" fill="#0058ad">r 133 [1 2 3 4 5 6 7 8 9 10 11 12 13 14 16]</text>
</g>
<!-- T3636 -->
<g id="node2" class="node">
<title>T3636</title>
<polygon fill="none" stroke="#0058ad" points="0,-0.5 0,-29.5 826,-29.5 826,-0.5 0,-0.5"/>
<text text-anchor="middle" x="149.5" y="-11.3" font-family="Times,serif" font-size="14.00" fill="#0058ad">r 133 [1 2 3 4 5 6 7 8 9 10 11 12 13 14]</text>
<polyline fill="none" stroke="#0058ad" points="299,-0.5 299,-29.5 "/>
<text text-anchor="middle" x="448.5" y="-11.3" font-family="Times,serif" font-size="14.00" fill="#0058ad">r 133 [1 2 3 4 5 6 7 8 9 10 11 12 13 14]</text>
<polyline fill="none" stroke="#0058ad" points="598,-0.5 598,-29.5 "/>
<text text-anchor="middle" x="633" y="-11.3" font-family="Times,serif" font-size="14.00" fill="#0058ad">a 135 1</text>
<polyline fill="none" stroke="#0058ad" points="668,-0.5 668,-29.5 "/>
<text text-anchor="middle" x="707.5" y="-11.3" font-family="Times,serif" font-size="14.00" fill="#0058ad">r 135 [1]</text>
<polyline fill="none" stroke="#0058ad" points="747,-0.5 747,-29.5 "/>
<text text-anchor="middle" x="786.5" y="-11.3" font-family="Times,serif" font-size="14.00" fill="#0058ad">r 135 [1]</text>
</g>
<!-- T3637&#45;&gt;T3636 -->
<g id="edge1" class="edge">
<title>T3637:f0&#45;&gt;T3636:f2</title>
<path fill="none" stroke="#5b00c0" d="M205,-81C205,30.63 343.12,-60.92 454,-48 471.22,-45.99 593.18,-48.96 625.28,-36.75"/>
<polygon fill="#5b00c0" stroke="#5b00c0" points="627.78,-39.22 633,-30 623.17,-33.95 627.78,-39.22"/>
<text text-anchor="middle" x="463.5" y="-51.8" font-family="Times,serif" font-size="14.00" fill="#5b00c0">rw</text>
</g>
<!-- T3636&#45;&gt;T3637 -->
<g id="edge2" class="edge">
<title>T3636:f0&#45;&gt;T3637:f2</title>
<path fill="none" stroke="#5b00c0" d="M149,-30C149,-48.03 455.26,-44.77 473,-48 517.37,-56.07 569.17,-35.73 576.99,-70.83"/>
<polygon fill="#5b00c0" stroke="#5b00c0" points="573.53,-71.39 578,-81 580.49,-70.7 573.53,-71.39"/>
<text text-anchor="middle" x="583.5" y="-51.8" font-family="Times,serif" font-size="14.00" fill="#5b00c0">rw</text>
</g>
</g>
</svg>
