<?xml version="1.0" encoding="UTF-8" standalone="no"?>
<!DOCTYPE svg PUBLIC "-//W3C//DTD SVG 1.1//EN"
 "http://www.w3.org/Graphics/SVG/1.1/DTD/svg11.dtd">
<!-- Generated by graphviz version 2.43.0 (0)
 -->
<!-- Title: a_graph Pages: 1 -->
<svg width="911pt" height="119pt"
 viewBox="0.00 0.00 911.00 119.00" xmlns="http://www.w3.org/2000/svg" xmlns:xlink="http://www.w3.org/1999/xlink">
<g id="graph0" class="graph" transform="scale(1 1) rotate(0) translate(4 115)">
<title>a_graph</title>
<polygon fill="white" stroke="transparent" points="-4,4 -4,-115 907,-115 907,4 -4,4"/>
<!-- T436 -->
<g id="node1" class="node">
<title>T436</title>
<polygon fill="none" stroke="#0058ad" points="86.5,-81.5 86.5,-110.5 810.5,-110.5 810.5,-81.5 86.5,-81.5"/>
<text text-anchor="middle" x="117" y="-92.3" font-family="Times,serif" font-size="14.00" fill="#0058ad">a 18 3</text>
<polyline fill="none" stroke="#0058ad" points="147.5,-81.5 147.5,-110.5 "/>
<text text-anchor="middle" x="196" y="-92.3" font-family="Times,serif" font-size="14.00" fill="#0058ad">r 18 [1 2 3]</text>
<polyline fill="none" stroke="#0058ad" points="244.5,-81.5 244.5,-110.5 "/>
<text text-anchor="middle" x="333.5" y="-92.3" font-family="Times,serif" font-size="14.00" fill="#0058ad">r 17 [1 2 3 4 5 6 7 8 9]</text>
<polyline fill="none" stroke="#0058ad" points="422.5,-81.5 422.5,-110.5 "/>
<text text-anchor="middle" x="471" y="-92.3" font-family="Times,serif" font-size="14.00" fill="#0058ad">r 18 [1 2 3]</text>
<polyline fill="none" stroke="#0058ad" points="519.5,-81.5 519.5,-110.5 "/>
<text text-anchor="middle" x="568" y="-92.3" font-family="Times,serif" font-size="14.00" fill="#0058ad">r 18 [1 2 3]</text>
<polyline fill="none" stroke="#0058ad" points="616.5,-81.5 616.5,-110.5 "/>
<text text-anchor="middle" x="665" y="-92.3" font-family="Times,serif" font-size="14.00" fill="#0058ad">r 18 [1 2 3]</text>
<polyline fill="none" stroke="#0058ad" points="713.5,-81.5 713.5,-110.5 "/>
<text text-anchor="middle" x="762" y="-92.3" font-family="Times,serif" font-size="14.00" fill="#0058ad">r 18 [1 2 3]</text>
</g>
<!-- T437 -->
<g id="node2" class="node">
<title>T437</title>
<polygon fill="none" stroke="#0058ad" points="0,-0.5 0,-29.5 903,-29.5 903,-0.5 0,-0.5"/>
<text text-anchor="middle" x="41.5" y="-11.3" font-family="Times,serif" font-size="14.00" fill="#0058ad">r 18 [1 2]</text>
<polyline fill="none" stroke="#0058ad" points="83,-0.5 83,-29.5 "/>
<text text-anchor="middle" x="253" y="-11.3" font-family="Times,serif" font-size="14.00" fill="#0058ad">r 15 [2 3 4 5 6 9 10 11 12 13 14 15 16 17 18]</text>
<polyline fill="none" stroke="#0058ad" points="423,-0.5 423,-29.5 "/>
<text text-anchor="middle" x="458" y="-11.3" font-family="Times,serif" font-size="14.00" fill="#0058ad">a 17 10</text>
<polyline fill="none" stroke="#0058ad" points="493,-0.5 493,-29.5 "/>
<text text-anchor="middle" x="528" y="-11.3" font-family="Times,serif" font-size="14.00" fill="#0058ad">a 17 11</text>
<polyline fill="none" stroke="#0058ad" points="563,-0.5 563,-29.5 "/>
<text text-anchor="middle" x="733" y="-11.3" font-family="Times,serif" font-size="14.00" fill="#0058ad">r 15 [2 3 4 5 6 9 10 11 12 13 14 15 16 17 18]</text>
</g>
<!-- T436&#45;&gt;T437 -->
<g id="edge1" class="edge">
<title>T436:f2&#45;&gt;T437:f2</title>
<path fill="none" stroke="#5b00c0" d="M333.5,-81C333.5,-24.87 442.91,-81.64 457.01,-40.06"/>
<polygon fill="#5b00c0" stroke="#5b00c0" points="460.5,-40.4 458.5,-30 453.57,-39.38 460.5,-40.4"/>
<text text-anchor="middle" x="462" y="-51.8" font-family="Times,serif" font-size="14.00" fill="#5b00c0">rw</text>
</g>
<!-- T437&#45;&gt;T436 -->
<g id="edge2" class="edge">
<title>T437:f0&#45;&gt;T436:f0</title>
<path fill="none" stroke="#5b00c0" d="M41.5,-30C41.5,-61.54 48.5,-89.46 75.21,-95"/>
<polygon fill="#5b00c0" stroke="#5b00c0" points="75.21,-98.52 85.5,-96 75.88,-91.55 75.21,-98.52"/>
<text text-anchor="middle" x="55" y="-51.8" font-family="Times,serif" font-size="14.00" fill="#5b00c0">rw</text>
</g>
</g>
</svg>
