<?xml version="1.0" encoding="UTF-8" standalone="no"?>
<!DOCTYPE svg PUBLIC "-//W3C//DTD SVG 1.1//EN"
 "http://www.w3.org/Graphics/SVG/1.1/DTD/svg11.dtd">
<!-- Generated by graphviz version 2.43.0 (0)
 -->
<!-- Title: a_graph Pages: 1 -->
<svg width="2542pt" height="119pt"
 viewBox="0.00 0.00 2542.00 119.00" xmlns="http://www.w3.org/2000/svg" xmlns:xlink="http://www.w3.org/1999/xlink">
<g id="graph0" class="graph" transform="scale(1 1) rotate(0) translate(4 115)">
<title>a_graph</title>
<polygon fill="white" stroke="transparent" points="-4,4 -4,-115 2538,-115 2538,4 -4,4"/>
<!-- T3106 -->
<g id="node1" class="node">
<title>T3106</title>
<polygon fill="none" stroke="#0058ad" points="665,-81.5 665,-110.5 2534,-110.5 2534,-81.5 665,-81.5"/>
<text text-anchor="middle" x="961" y="-92.3" font-family="Times,serif" font-size="14.00" fill="#0058ad">r 121 [1 2 3 4 5 6 7 8 9 10 11 12 13 14 15 16 19 20 21 22 23 24 25 26 27 28 29]</text>
<polyline fill="none" stroke="#0058ad" points="1257,-81.5 1257,-110.5 "/>
<text text-anchor="middle" x="1296.5" y="-92.3" font-family="Times,serif" font-size="14.00" fill="#0058ad">a 119 20</text>
<polyline fill="none" stroke="#0058ad" points="1336,-81.5 1336,-110.5 "/>
<text text-anchor="middle" x="1375.5" y="-92.3" font-family="Times,serif" font-size="14.00" fill="#0058ad">a 122 24</text>
<polyline fill="none" stroke="#0058ad" points="1415,-81.5 1415,-110.5 "/>
<text text-anchor="middle" x="1454.5" y="-92.3" font-family="Times,serif" font-size="14.00" fill="#0058ad">a 122 25</text>
<polyline fill="none" stroke="#0058ad" points="1494,-81.5 1494,-110.5 "/>
<text text-anchor="middle" x="1754" y="-92.3" font-family="Times,serif" font-size="14.00" fill="#0058ad">r 122 [1 2 3 4 5 6 7 10 11 12 13 14 15 16 17 18 19 20 21 22 23 24 25]</text>
<polyline fill="none" stroke="#0058ad" points="2014,-81.5 2014,-110.5 "/>
<text text-anchor="middle" x="2274" y="-92.3" font-family="Times,serif" font-size="14.00" fill="#0058ad">r 122 [1 2 3 4 5 6 7 10 11 12 13 14 15 16 17 18 19 20 21 22 23 24 25]</text>
</g>
<!-- T3107 -->
<g id="node2" class="node">
<title>T3107</title>
<polygon fill="none" stroke="#0058ad" points="0,-0.5 0,-29.5 2055,-29.5 2055,-0.5 0,-0.5"/>
<text text-anchor="middle" x="39.5" y="-11.3" font-family="Times,serif" font-size="14.00" fill="#0058ad">a 121 30</text>
<polyline fill="none" stroke="#0058ad" points="79,-0.5 79,-29.5 "/>
<text text-anchor="middle" x="316.5" y="-11.3" font-family="Times,serif" font-size="14.00" fill="#0058ad">r 122 [1 2 3 4 5 6 7 10 11 12 13 14 15 16 17 18 19 20 21 22 23]</text>
<polyline fill="none" stroke="#0058ad" points="554,-0.5 554,-29.5 "/>
<text text-anchor="middle" x="861" y="-11.3" font-family="Times,serif" font-size="14.00" fill="#0058ad">r 121 [1 2 3 4 5 6 7 8 9 10 11 12 13 14 15 16 19 20 21 22 23 24 25 26 27 28 29 30]</text>
<polyline fill="none" stroke="#0058ad" points="1168,-0.5 1168,-29.5 "/>
<text text-anchor="middle" x="1405.5" y="-11.3" font-family="Times,serif" font-size="14.00" fill="#0058ad">r 122 [1 2 3 4 5 6 7 10 11 12 13 14 15 16 17 18 19 20 21 22 23]</text>
<polyline fill="none" stroke="#0058ad" points="1643,-0.5 1643,-29.5 "/>
<text text-anchor="middle" x="1849" y="-11.3" font-family="Times,serif" font-size="14.00" fill="#0058ad">r 119 [1 2 3 4 5 6 7 8 9 10 11 12 13 14 15 16 17 18 19]</text>
</g>
<!-- T3106&#45;&gt;T3107 -->
<g id="edge1" class="edge">
<title>T3106:f0&#45;&gt;T3107:f0</title>
<path fill="none" stroke="#5b00c0" d="M663.5,-96C630.95,-96 115.3,-68.86 46.96,-36.89"/>
<polygon fill="#5b00c0" stroke="#5b00c0" points="49.22,-34.21 39.5,-30 44.47,-39.36 49.22,-34.21"/>
<text text-anchor="middle" x="193" y="-51.8" font-family="Times,serif" font-size="14.00" fill="#5b00c0">rw</text>
</g>
<!-- T3107&#45;&gt;T3106 -->
<g id="edge2" class="edge">
<title>T3107:f4&#45;&gt;T3106:f1</title>
<path fill="none" stroke="#5b00c0" d="M1849.5,-30C1849.5,-273.33 1312.05,153.42 1296.83,-70.93"/>
<polygon fill="#5b00c0" stroke="#5b00c0" points="1293.33,-70.89 1296.5,-81 1300.33,-71.12 1293.33,-70.89"/>
<text text-anchor="middle" x="1857" y="-51.8" font-family="Times,serif" font-size="14.00" fill="#5b00c0">rw</text>
</g>
</g>
</svg>
