<?xml version="1.0" encoding="UTF-8" standalone="no"?>
<!DOCTYPE svg PUBLIC "-//W3C//DTD SVG 1.1//EN"
 "http://www.w3.org/Graphics/SVG/1.1/DTD/svg11.dtd">
<!-- Generated by graphviz version 2.43.0 (0)
 -->
<!-- Title: a_graph Pages: 1 -->
<svg width="2309pt" height="119pt"
 viewBox="0.00 0.00 2309.00 119.00" xmlns="http://www.w3.org/2000/svg" xmlns:xlink="http://www.w3.org/1999/xlink">
<g id="graph0" class="graph" transform="scale(1 1) rotate(0) translate(4 115)">
<title>a_graph</title>
<polygon fill="white" stroke="transparent" points="-4,4 -4,-115 2305,-115 2305,4 -4,4"/>
<!-- T2280 -->
<g id="node1" class="node">
<title>T2280</title>
<polygon fill="none" stroke="#0058ad" points="401,-81.5 401,-110.5 2301,-110.5 2301,-81.5 401,-81.5"/>
<text text-anchor="middle" x="436" y="-92.3" font-family="Times,serif" font-size="14.00" fill="#0058ad">a 88 30</text>
<polyline fill="none" stroke="#0058ad" points="471,-81.5 471,-110.5 "/>
<text text-anchor="middle" x="506" y="-92.3" font-family="Times,serif" font-size="14.00" fill="#0058ad">r 89 [1]</text>
<polyline fill="none" stroke="#0058ad" points="541,-81.5 541,-110.5 "/>
<text text-anchor="middle" x="832.5" y="-92.3" font-family="Times,serif" font-size="14.00" fill="#0058ad">r 88 [1 2 3 4 5 6 7 8 9 10 11 12 13 14 15 16 17 18 19 23 24 25 26 27 28 29 30]</text>
<polyline fill="none" stroke="#0058ad" points="1124,-81.5 1124,-110.5 "/>
<text text-anchor="middle" x="1159" y="-92.3" font-family="Times,serif" font-size="14.00" fill="#0058ad">r 89 [1]</text>
<polyline fill="none" stroke="#0058ad" points="1194,-81.5 1194,-110.5 "/>
<text text-anchor="middle" x="1456" y="-92.3" font-family="Times,serif" font-size="14.00" fill="#0058ad">r 82 [1 3 4 5 6 7 8 9 10 11 12 13 14 15 16 17 18 19 20 21 22 23 24 25]</text>
<polyline fill="none" stroke="#0058ad" points="1718,-81.5 1718,-110.5 "/>
<text text-anchor="middle" x="2009.5" y="-92.3" font-family="Times,serif" font-size="14.00" fill="#0058ad">r 88 [1 2 3 4 5 6 7 8 9 10 11 12 13 14 15 16 17 18 19 23 24 25 26 27 28 29 30]</text>
</g>
<!-- T2281 -->
<g id="node2" class="node">
<title>T2281</title>
<polygon fill="none" stroke="#0058ad" points="0,-0.5 0,-29.5 1750,-29.5 1750,-0.5 0,-0.5"/>
<text text-anchor="middle" x="280" y="-11.3" font-family="Times,serif" font-size="14.00" fill="#0058ad">r 88 [1 2 3 4 5 6 7 8 9 10 11 12 13 14 15 16 17 18 19 23 24 25 26 27 28 29]</text>
<polyline fill="none" stroke="#0058ad" points="560,-0.5 560,-29.5 "/>
<text text-anchor="middle" x="840" y="-11.3" font-family="Times,serif" font-size="14.00" fill="#0058ad">r 88 [1 2 3 4 5 6 7 8 9 10 11 12 13 14 15 16 17 18 19 23 24 25 26 27 28 29]</text>
<polyline fill="none" stroke="#0058ad" points="1120,-0.5 1120,-29.5 "/>
<text text-anchor="middle" x="1400" y="-11.3" font-family="Times,serif" font-size="14.00" fill="#0058ad">r 88 [1 2 3 4 5 6 7 8 9 10 11 12 13 14 15 16 17 18 19 23 24 25 26 27 28 29]</text>
<polyline fill="none" stroke="#0058ad" points="1680,-0.5 1680,-29.5 "/>
<text text-anchor="middle" x="1715" y="-11.3" font-family="Times,serif" font-size="14.00" fill="#0058ad">a 82 26</text>
</g>
<!-- T2280&#45;&gt;T2281 -->
<g id="edge1" class="edge">
<title>T2280:f4&#45;&gt;T2281:f3</title>
<path fill="none" stroke="#5b00c0" d="M1456,-81C1456,32.66 1699.07,-136.14 1714.26,-40.14"/>
<polygon fill="#5b00c0" stroke="#5b00c0" points="1717.76,-40.23 1715,-30 1710.78,-39.72 1717.76,-40.23"/>
<text text-anchor="middle" x="1719.5" y="-51.8" font-family="Times,serif" font-size="14.00" fill="#5b00c0">rw</text>
</g>
<!-- T2281&#45;&gt;T2280 -->
<g id="edge2" class="edge">
<title>T2281:f0&#45;&gt;T2280:f0</title>
<path fill="none" stroke="#5b00c0" d="M280,-30C280,-87.42 332.62,-95.24 389.68,-95.94"/>
<polygon fill="#5b00c0" stroke="#5b00c0" points="389.98,-99.44 400,-96 390.02,-92.44 389.98,-99.44"/>
<text text-anchor="middle" x="296.5" y="-51.8" font-family="Times,serif" font-size="14.00" fill="#5b00c0">rw</text>
</g>
</g>
</svg>
