<?xml version="1.0" encoding="UTF-8" standalone="no"?>
<!DOCTYPE svg PUBLIC "-//W3C//DTD SVG 1.1//EN"
 "http://www.w3.org/Graphics/SVG/1.1/DTD/svg11.dtd">
<!-- Generated by graphviz version 2.43.0 (0)
 -->
<!-- Title: a_graph Pages: 1 -->
<svg width="3218pt" height="119pt"
 viewBox="0.00 0.00 3218.00 119.00" xmlns="http://www.w3.org/2000/svg" xmlns:xlink="http://www.w3.org/1999/xlink">
<g id="graph0" class="graph" transform="scale(1 1) rotate(0) translate(4 115)">
<title>a_graph</title>
<polygon fill="white" stroke="transparent" points="-4,4 -4,-115 3214,-115 3214,4 -4,4"/>
<!-- T723 -->
<g id="node1" class="node">
<title>T723</title>
<polygon fill="none" stroke="#0058ad" points="0,-81.5 0,-110.5 3210,-110.5 3210,-81.5 0,-81.5"/>
<text text-anchor="middle" x="280" y="-92.3" font-family="Times,serif" font-size="14.00" fill="#0058ad">r 28 [1 2 3 4 5 6 7 8 9 10 11 12 13 14 15 16 17 20 21 22 23 24 25 26 27 28]</text>
<polyline fill="none" stroke="#0058ad" points="560,-81.5 560,-110.5 "/>
<text text-anchor="middle" x="885" y="-92.3" font-family="Times,serif" font-size="14.00" fill="#0058ad">r 27 [1 2 3 4 5 6 7 8 9 10 11 12 13 14 15 16 17 18 19 20 21 22 23 24 25 26 27 28 29 30]</text>
<polyline fill="none" stroke="#0058ad" points="1210,-81.5 1210,-110.5 "/>
<text text-anchor="middle" x="1535" y="-92.3" font-family="Times,serif" font-size="14.00" fill="#0058ad">r 27 [1 2 3 4 5 6 7 8 9 10 11 12 13 14 15 16 17 18 19 20 21 22 23 24 25 26 27 28 29 30]</text>
<polyline fill="none" stroke="#0058ad" points="1860,-81.5 1860,-110.5 "/>
<text text-anchor="middle" x="2185" y="-92.3" font-family="Times,serif" font-size="14.00" fill="#0058ad">r 27 [1 2 3 4 5 6 7 8 9 10 11 12 13 14 15 16 17 18 19 20 21 22 23 24 25 26 27 28 29 30]</text>
<polyline fill="none" stroke="#0058ad" points="2510,-81.5 2510,-110.5 "/>
<text text-anchor="middle" x="2545" y="-92.3" font-family="Times,serif" font-size="14.00" fill="#0058ad">a 27 31</text>
<polyline fill="none" stroke="#0058ad" points="2580,-81.5 2580,-110.5 "/>
<text text-anchor="middle" x="2860" y="-92.3" font-family="Times,serif" font-size="14.00" fill="#0058ad">r 28 [1 2 3 4 5 6 7 8 9 10 11 12 13 14 15 16 17 20 21 22 23 24 25 26 27 28]</text>
<polyline fill="none" stroke="#0058ad" points="3140,-81.5 3140,-110.5 "/>
<text text-anchor="middle" x="3175" y="-92.3" font-family="Times,serif" font-size="14.00" fill="#0058ad">a 27 32</text>
</g>
<!-- T721 -->
<g id="node2" class="node">
<title>T721</title>
<polygon fill="none" stroke="#0058ad" points="600,-0.5 600,-29.5 2076,-29.5 2076,-0.5 600,-0.5"/>
<text text-anchor="middle" x="925" y="-11.3" font-family="Times,serif" font-size="14.00" fill="#0058ad">r 27 [1 2 3 4 5 6 7 8 9 10 11 12 13 14 15 16 17 18 19 20 21 22 23 24 25 26 27 28 29 30]</text>
<polyline fill="none" stroke="#0058ad" points="1250,-0.5 1250,-29.5 "/>
<text text-anchor="middle" x="1404" y="-11.3" font-family="Times,serif" font-size="14.00" fill="#0058ad">r 24 [2 3 4 5 7 8 9 10 11 12 13 15 16 17]</text>
<polyline fill="none" stroke="#0058ad" points="1558,-0.5 1558,-29.5 "/>
<text text-anchor="middle" x="1712" y="-11.3" font-family="Times,serif" font-size="14.00" fill="#0058ad">r 24 [2 3 4 5 7 8 9 10 11 12 13 15 16 17]</text>
<polyline fill="none" stroke="#0058ad" points="1866,-0.5 1866,-29.5 "/>
<text text-anchor="middle" x="1901" y="-11.3" font-family="Times,serif" font-size="14.00" fill="#0058ad">a 28 29</text>
<polyline fill="none" stroke="#0058ad" points="1936,-0.5 1936,-29.5 "/>
<text text-anchor="middle" x="1971" y="-11.3" font-family="Times,serif" font-size="14.00" fill="#0058ad">a 28 30</text>
<polyline fill="none" stroke="#0058ad" points="2006,-0.5 2006,-29.5 "/>
<text text-anchor="middle" x="2041" y="-11.3" font-family="Times,serif" font-size="14.00" fill="#0058ad">a 28 31</text>
</g>
<!-- T723&#45;&gt;T721 -->
<g id="edge1" class="edge">
<title>T723:f0&#45;&gt;T721:f3</title>
<path fill="none" stroke="#5b00c0" d="M280,-81C280,95.68 1838.3,-198.3 1899.17,-40.01"/>
<polygon fill="#5b00c0" stroke="#5b00c0" points="1902.64,-40.47 1901,-30 1895.76,-39.21 1902.64,-40.47"/>
<text text-anchor="middle" x="1902.5" y="-51.8" font-family="Times,serif" font-size="14.00" fill="#5b00c0">rw</text>
</g>
<!-- T721&#45;&gt;T723 -->
<g id="edge2" class="edge">
<title>T721:f0&#45;&gt;T723:f4</title>
<path fill="none" stroke="#5b00c0" d="M925,-30C925,-43.77 1902.24,-47.51 1916,-48 2052.33,-52.81 2520.39,53.36 2544.07,-70.82"/>
<polygon fill="#5b00c0" stroke="#5b00c0" points="2540.6,-71.36 2545,-81 2547.57,-70.72 2540.6,-71.36"/>
<text text-anchor="middle" x="2548.5" y="-51.8" font-family="Times,serif" font-size="14.00" fill="#5b00c0">rw</text>
</g>
</g>
</svg>
