<?xml version="1.0" encoding="UTF-8" standalone="no"?>
<!DOCTYPE svg PUBLIC "-//W3C//DTD SVG 1.1//EN"
 "http://www.w3.org/Graphics/SVG/1.1/DTD/svg11.dtd">
<!-- Generated by graphviz version 2.40.1 (20161225.0304)
 -->
<!-- Title: g Pages: 1 -->
<svg width="1154pt" height="121pt"
 viewBox="0.00 0.00 1153.86 120.80" xmlns="http://www.w3.org/2000/svg" xmlns:xlink="http://www.w3.org/1999/xlink">
<g id="graph0" class="graph" transform="scale(1 1) rotate(0) translate(4 116.8)">
<title>g</title>
<polygon fill="#ffffff" stroke="transparent" points="-4,4 -4,-116.8 1149.8647,-116.8 1149.8647,4 -4,4"/>
<!-- T3391 -->
<g id="node1" class="node">
<title>T3391</title>
<polygon fill="none" stroke="#0058ad" points="0,-83.3 0,-112.3 895.4794,-112.3 895.4794,-83.3 0,-83.3"/>
<text text-anchor="middle" x="47.8468" y="-93.6" font-family="Times,serif" font-size="14.00" fill="#0058ad">[:r 1403 [1 2]]</text>
<polyline fill="none" stroke="#0058ad" points="95.6936,-83.3 95.6936,-112.3 "/>
<text text-anchor="middle" x="151.5141" y="-93.6" font-family="Times,serif" font-size="14.00" fill="#0058ad">[:append 1404 2]</text>
<polyline fill="none" stroke="#0058ad" points="207.3346,-83.3 207.3346,-112.3 "/>
<text text-anchor="middle" x="249.9314" y="-93.6" font-family="Times,serif" font-size="14.00" fill="#0058ad">[:r 1404 [2]]</text>
<polyline fill="none" stroke="#0058ad" points="292.5282,-83.3 292.5282,-112.3 "/>
<text text-anchor="middle" x="331.625" y="-93.6" font-family="Times,serif" font-size="14.00" fill="#0058ad">[:r 1405 []]</text>
<polyline fill="none" stroke="#0058ad" points="370.7218,-83.3 370.7218,-112.3 "/>
<text text-anchor="middle" x="426.5423" y="-93.6" font-family="Times,serif" font-size="14.00" fill="#0058ad">[:append 1406 1]</text>
<polyline fill="none" stroke="#0058ad" points="482.3628,-83.3 482.3628,-112.3 "/>
<text text-anchor="middle" x="521.4596" y="-93.6" font-family="Times,serif" font-size="14.00" fill="#0058ad">[:r 1405 []]</text>
<polyline fill="none" stroke="#0058ad" points="560.5564,-83.3 560.5564,-112.3 "/>
<text text-anchor="middle" x="616.3769" y="-93.6" font-family="Times,serif" font-size="14.00" fill="#0058ad">[:append 1405 4]</text>
<polyline fill="none" stroke="#0058ad" points="672.1974,-83.3 672.1974,-112.3 "/>
<text text-anchor="middle" x="728.0179" y="-93.6" font-family="Times,serif" font-size="14.00" fill="#0058ad">[:append 1406 2]</text>
<polyline fill="none" stroke="#0058ad" points="783.8384,-83.3 783.8384,-112.3 "/>
<text text-anchor="middle" x="839.6589" y="-93.6" font-family="Times,serif" font-size="14.00" fill="#0058ad">[:append 1406 3]</text>
</g>
<!-- T3393 -->
<g id="node2" class="node">
<title>T3393</title>
<polygon fill="none" stroke="#0058ad" points="475.6147,-.5 475.6147,-29.5 1145.8647,-29.5 1145.8647,-.5 475.6147,-.5"/>
<text text-anchor="middle" x="528.7115" y="-10.8" font-family="Times,serif" font-size="14.00" fill="#0058ad">[:r 1406 [1 2 3]]</text>
<polyline fill="none" stroke="#0058ad" points="581.8083,-.5 581.8083,-29.5 "/>
<text text-anchor="middle" x="634.9051" y="-10.8" font-family="Times,serif" font-size="14.00" fill="#0058ad">[:r 1406 [1 2 3]]</text>
<polyline fill="none" stroke="#0058ad" points="688.0019,-.5 688.0019,-29.5 "/>
<text text-anchor="middle" x="743.8224" y="-10.8" font-family="Times,serif" font-size="14.00" fill="#0058ad">[:append 1406 4]</text>
<polyline fill="none" stroke="#0058ad" points="799.6429,-.5 799.6429,-29.5 "/>
<text text-anchor="middle" x="855.4634" y="-10.8" font-family="Times,serif" font-size="14.00" fill="#0058ad">[:append 1406 5]</text>
<polyline fill="none" stroke="#0058ad" points="911.2839,-.5 911.2839,-29.5 "/>
<text text-anchor="middle" x="950.3807" y="-10.8" font-family="Times,serif" font-size="14.00" fill="#0058ad">[:r 1405 []]</text>
<polyline fill="none" stroke="#0058ad" points="989.4775,-.5 989.4775,-29.5 "/>
<text text-anchor="middle" x="1028.5743" y="-10.8" font-family="Times,serif" font-size="14.00" fill="#0058ad">[:r 1405 []]</text>
<polyline fill="none" stroke="#0058ad" points="1067.6711,-.5 1067.6711,-29.5 "/>
<text text-anchor="middle" x="1106.7679" y="-10.8" font-family="Times,serif" font-size="14.00" fill="#0058ad">[:r 1405 []]</text>
</g>
<!-- T3391&#45;&gt;T3393 -->
<g id="edge1" class="edge">
<title>T3391:f8&#45;&gt;T3393:f0</title>
<path fill="none" stroke="#c000a5" d="M839.7397,-82.8C839.7397,-49.2451 805.0215,-57.1551 772.7397,-48 749.4468,-41.3942 574.1004,-53.8405 536.0221,-37.4373"/>
<polygon fill="#c000a5" stroke="#c000a5" points="538.2368,-34.6964 528.7397,-30 533.2352,-39.5938 538.2368,-34.6964"/>
<text text-anchor="middle" x="884.8365" y="-52.2" font-family="Times,serif" font-size="14.00" fill="#c000a5">T3391 (wr) T3393</text>
</g>
<!-- T3393&#45;&gt;T3391 -->
<g id="edge2" class="edge">
<title>T3393:f4&#45;&gt;T3391:f6</title>
<path fill="none" stroke="#5b00c0" d="M950.7397,-30C950.7397,-61.8621 694.5197,-37.1937 664.5461,-48 643.493,-55.5902 623.6287,-56.4313 618.1954,-72.7425"/>
<polygon fill="#5b00c0" stroke="#5b00c0" points="614.7083,-72.4017 616.7397,-82.8 621.6361,-73.4045 614.7083,-72.4017"/>
<text text-anchor="middle" x="715.8365" y="-52.2" font-family="Times,serif" font-size="14.00" fill="#5b00c0">T3393 (rw) T3391</text>
</g>
</g>
</svg>
