<?xml version="1.0" encoding="UTF-8" standalone="no"?>
<!DOCTYPE svg PUBLIC "-//W3C//DTD SVG 1.1//EN"
 "http://www.w3.org/Graphics/SVG/1.1/DTD/svg11.dtd">
<!-- Generated by graphviz version 2.40.1 (20161225.0304)
 -->
<!-- Title: g Pages: 1 -->
<svg width="1337pt" height="204pt"
 viewBox="0.00 0.00 1337.05 203.60" xmlns="http://www.w3.org/2000/svg" xmlns:xlink="http://www.w3.org/1999/xlink">
<g id="graph0" class="graph" transform="scale(1 1) rotate(0) translate(4 199.6)">
<title>g</title>
<polygon fill="#ffffff" stroke="transparent" points="-4,4 -4,-199.6 1333.0545,-199.6 1333.0545,4 -4,4"/>
<!-- T112 -->
<g id="node1" class="node">
<title>T112</title>
<polygon fill="none" stroke="#0058ad" points="0,-166.1 0,-195.1 948.4192,-195.1 948.4192,-166.1 0,-166.1"/>
<text text-anchor="middle" x="46.0968" y="-176.4" font-family="Times,serif" font-size="14.00" fill="#0058ad">[:r 45 [1 2 3]]</text>
<polyline fill="none" stroke="#0058ad" points="92.1936,-166.1 92.1936,-195.1 "/>
<text text-anchor="middle" x="124.2904" y="-176.4" font-family="Times,serif" font-size="14.00" fill="#0058ad">[:r 49 []]</text>
<polyline fill="none" stroke="#0058ad" points="156.3872,-166.1 156.3872,-195.1 "/>
<text text-anchor="middle" x="205.2077" y="-176.4" font-family="Times,serif" font-size="14.00" fill="#0058ad">[:append 49 2]</text>
<polyline fill="none" stroke="#0058ad" points="254.0282,-166.1 254.0282,-195.1 "/>
<text text-anchor="middle" x="302.8487" y="-176.4" font-family="Times,serif" font-size="14.00" fill="#0058ad">[:append 45 5]</text>
<polyline fill="none" stroke="#0058ad" points="351.6692,-166.1 351.6692,-195.1 "/>
<text text-anchor="middle" x="387.266" y="-176.4" font-family="Times,serif" font-size="14.00" fill="#0058ad">[:r 49 [2]]</text>
<polyline fill="none" stroke="#0058ad" points="422.8628,-166.1 422.8628,-195.1 "/>
<text text-anchor="middle" x="471.6833" y="-176.4" font-family="Times,serif" font-size="14.00" fill="#0058ad">[:append 49 3]</text>
<polyline fill="none" stroke="#0058ad" points="520.5038,-166.1 520.5038,-195.1 "/>
<text text-anchor="middle" x="571.8506" y="-176.4" font-family="Times,serif" font-size="14.00" fill="#0058ad">[:r 45 [1 2 3 5]]</text>
<polyline fill="none" stroke="#0058ad" points="623.1974,-166.1 623.1974,-195.1 "/>
<text text-anchor="middle" x="664.0442" y="-176.4" font-family="Times,serif" font-size="14.00" fill="#0058ad">[:r 49 [2 3]]</text>
<polyline fill="none" stroke="#0058ad" points="704.891,-166.1 704.891,-195.1 "/>
<text text-anchor="middle" x="753.7115" y="-176.4" font-family="Times,serif" font-size="14.00" fill="#0058ad">[:append 50 1]</text>
<polyline fill="none" stroke="#0058ad" points="802.532,-166.1 802.532,-195.1 "/>
<text text-anchor="middle" x="834.6288" y="-176.4" font-family="Times,serif" font-size="14.00" fill="#0058ad">[:r 47 []]</text>
<polyline fill="none" stroke="#0058ad" points="866.7256,-166.1 866.7256,-195.1 "/>
<text text-anchor="middle" x="907.5724" y="-176.4" font-family="Times,serif" font-size="14.00" fill="#0058ad">[:r 49 [2 3]]</text>
</g>
<!-- T118 -->
<g id="node2" class="node">
<title>T118</title>
<polygon fill="none" stroke="#0058ad" points="693.3647,-83.3 693.3647,-112.3 1329.0545,-112.3 1329.0545,-83.3 693.3647,-83.3"/>
<text text-anchor="middle" x="725.4615" y="-93.6" font-family="Times,serif" font-size="14.00" fill="#0058ad">[:r 51 []]</text>
<polyline fill="none" stroke="#0058ad" points="757.5583,-83.3 757.5583,-112.3 "/>
<text text-anchor="middle" x="806.3788" y="-93.6" font-family="Times,serif" font-size="14.00" fill="#0058ad">[:append 39 5]</text>
<polyline fill="none" stroke="#0058ad" points="855.1993,-83.3 855.1993,-112.3 "/>
<text text-anchor="middle" x="887.2961" y="-93.6" font-family="Times,serif" font-size="14.00" fill="#0058ad">[:r 51 []]</text>
<polyline fill="none" stroke="#0058ad" points="919.3929,-83.3 919.3929,-112.3 "/>
<text text-anchor="middle" x="951.4897" y="-93.6" font-family="Times,serif" font-size="14.00" fill="#0058ad">[:r 51 []]</text>
<polyline fill="none" stroke="#0058ad" points="983.5865,-83.3 983.5865,-112.3 "/>
<text text-anchor="middle" x="1015.6833" y="-93.6" font-family="Times,serif" font-size="14.00" fill="#0058ad">[:r 51 []]</text>
<polyline fill="none" stroke="#0058ad" points="1047.7801,-83.3 1047.7801,-112.3 "/>
<text text-anchor="middle" x="1079.8769" y="-93.6" font-family="Times,serif" font-size="14.00" fill="#0058ad">[:r 51 []]</text>
<polyline fill="none" stroke="#0058ad" points="1111.9737,-83.3 1111.9737,-112.3 "/>
<text text-anchor="middle" x="1152.8205" y="-93.6" font-family="Times,serif" font-size="14.00" fill="#0058ad">[:r 39 [2 5]]</text>
<polyline fill="none" stroke="#0058ad" points="1193.6673,-83.3 1193.6673,-112.3 "/>
<text text-anchor="middle" x="1229.2641" y="-93.6" font-family="Times,serif" font-size="14.00" fill="#0058ad">[:r 50 [1]]</text>
<polyline fill="none" stroke="#0058ad" points="1264.8609,-83.3 1264.8609,-112.3 "/>
<text text-anchor="middle" x="1296.9577" y="-93.6" font-family="Times,serif" font-size="14.00" fill="#0058ad">[:r 51 []]</text>
</g>
<!-- T112&#45;&gt;T118 -->
<g id="edge1" class="edge">
<title>T112:f8&#45;&gt;T118:f7</title>
<path fill="none" stroke="#c000a5" d="M754.2096,-165.6C754.2096,43.285 1213.569,-313.0201 1228.8212,-122.9012"/>
<polygon fill="#c000a5" stroke="#c000a5" points="1232.3227,-122.9271 1229.2096,-112.8 1225.3279,-122.6581 1232.3227,-122.9271"/>
<text text-anchor="middle" x="1271.3064" y="-135" font-family="Times,serif" font-size="14.00" fill="#c000a5">T112 (wr) T118</text>
</g>
<!-- T115 -->
<g id="node3" class="node">
<title>T115</title>
<polygon fill="none" stroke="#0058ad" points="389.3609,-.5 389.3609,-29.5 939.0583,-29.5 939.0583,-.5 389.3609,-.5"/>
<text text-anchor="middle" x="421.4577" y="-10.8" font-family="Times,serif" font-size="14.00" fill="#0058ad">[:r 51 []]</text>
<polyline fill="none" stroke="#0058ad" points="453.5545,-.5 453.5545,-29.5 "/>
<text text-anchor="middle" x="485.6513" y="-10.8" font-family="Times,serif" font-size="14.00" fill="#0058ad">[:r 51 []]</text>
<polyline fill="none" stroke="#0058ad" points="517.7481,-.5 517.7481,-29.5 "/>
<text text-anchor="middle" x="549.8449" y="-10.8" font-family="Times,serif" font-size="14.00" fill="#0058ad">[:r 51 []]</text>
<polyline fill="none" stroke="#0058ad" points="581.9417,-.5 581.9417,-29.5 "/>
<text text-anchor="middle" x="614.0385" y="-10.8" font-family="Times,serif" font-size="14.00" fill="#0058ad">[:r 50 []]</text>
<polyline fill="none" stroke="#0058ad" points="646.1353,-.5 646.1353,-29.5 "/>
<text text-anchor="middle" x="694.9558" y="-10.8" font-family="Times,serif" font-size="14.00" fill="#0058ad">[:append 51 2]</text>
<polyline fill="none" stroke="#0058ad" points="743.7763,-.5 743.7763,-29.5 "/>
<text text-anchor="middle" x="792.5968" y="-10.8" font-family="Times,serif" font-size="14.00" fill="#0058ad">[:append 47 2]</text>
<polyline fill="none" stroke="#0058ad" points="841.4173,-.5 841.4173,-29.5 "/>
<text text-anchor="middle" x="890.2378" y="-10.8" font-family="Times,serif" font-size="14.00" fill="#0058ad">[:append 51 3]</text>
</g>
<!-- T118&#45;&gt;T115 -->
<g id="edge2" class="edge">
<title>T118:f0&#45;&gt;T115:f4</title>
<path fill="none" stroke="#5b00c0" d="M725.2096,-82.8C725.2096,-59.6054 703.0538,-57.2152 696.8225,-39.8719"/>
<polygon fill="#5b00c0" stroke="#5b00c0" points="700.2764,-39.3047 695.2096,-30 693.368,-40.4335 700.2764,-39.3047"/>
<text text-anchor="middle" x="763.3064" y="-52.2" font-family="Times,serif" font-size="14.00" fill="#5b00c0">T118 (rw) T115</text>
</g>
<!-- T115&#45;&gt;T112 -->
<g id="edge3" class="edge">
<title>T115:f3&#45;&gt;T112:f8</title>
<path fill="none" stroke="#5b00c0" d="M614.2096,-30C614.2096,-67.8786 571.8164,-82.1086 594.016,-112.8 635.7198,-170.4563 742.5886,-98.6849 753.3349,-155.3614"/>
<polygon fill="#5b00c0" stroke="#5b00c0" points="749.871,-155.9343 754.2096,-165.6 756.8456,-155.3383 749.871,-155.9343"/>
<text text-anchor="middle" x="638.3064" y="-93.6" font-family="Times,serif" font-size="14.00" fill="#5b00c0">T115 (rw) T112</text>
</g>
</g>
</svg>
