<?xml version="1.0" encoding="UTF-8" standalone="no"?>
<!DOCTYPE svg PUBLIC "-//W3C//DTD SVG 1.1//EN"
 "http://www.w3.org/Graphics/SVG/1.1/DTD/svg11.dtd">
<!-- Generated by graphviz version 2.40.1 (20161225.0304)
 -->
<!-- Title: g Pages: 1 -->
<svg width="1103pt" height="204pt"
 viewBox="0.00 0.00 1103.35 203.60" xmlns="http://www.w3.org/2000/svg" xmlns:xlink="http://www.w3.org/1999/xlink">
<g id="graph0" class="graph" transform="scale(1 1) rotate(0) translate(4 199.6)">
<title>g</title>
<polygon fill="#ffffff" stroke="transparent" points="-4,4 -4,-199.6 1099.3506,-199.6 1099.3506,4 -4,4"/>
<!-- T10621 -->
<g id="node1" class="node">
<title>T10621</title>
<polygon fill="none" stroke="#0058ad" points="381.4032,-166.1 381.4032,-195.1 1083.548,-195.1 1083.548,-166.1 381.4032,-166.1"/>
<text text-anchor="middle" x="437.2237" y="-176.4" font-family="Times,serif" font-size="14.00" fill="#0058ad">[:append 4472 1]</text>
<polyline fill="none" stroke="#0058ad" points="493.0442,-166.1 493.0442,-195.1 "/>
<text text-anchor="middle" x="535.641" y="-176.4" font-family="Times,serif" font-size="14.00" fill="#0058ad">[:r 4464 [1]]</text>
<polyline fill="none" stroke="#0058ad" points="578.2378,-166.1 578.2378,-195.1 "/>
<text text-anchor="middle" x="634.0583" y="-176.4" font-family="Times,serif" font-size="14.00" fill="#0058ad">[:append 4471 3]</text>
<polyline fill="none" stroke="#0058ad" points="689.8788,-166.1 689.8788,-195.1 "/>
<text text-anchor="middle" x="732.4756" y="-176.4" font-family="Times,serif" font-size="14.00" fill="#0058ad">[:r 4472 [1]]</text>
<polyline fill="none" stroke="#0058ad" points="775.0724,-166.1 775.0724,-195.1 "/>
<text text-anchor="middle" x="830.8929" y="-176.4" font-family="Times,serif" font-size="14.00" fill="#0058ad">[:append 4472 2]</text>
<polyline fill="none" stroke="#0058ad" points="886.7134,-166.1 886.7134,-195.1 "/>
<text text-anchor="middle" x="929.3102" y="-176.4" font-family="Times,serif" font-size="14.00" fill="#0058ad">[:r 4471 [3]]</text>
<polyline fill="none" stroke="#0058ad" points="971.907,-166.1 971.907,-195.1 "/>
<text text-anchor="middle" x="1027.7275" y="-176.4" font-family="Times,serif" font-size="14.00" fill="#0058ad">[:append 4472 3]</text>
</g>
<!-- T10608 -->
<g id="node2" class="node">
<title>T10608</title>
<polygon fill="none" stroke="#0058ad" points="0,-83.3 0,-112.3 658.9512,-112.3 658.9512,-83.3 0,-83.3"/>
<text text-anchor="middle" x="55.8205" y="-93.6" font-family="Times,serif" font-size="14.00" fill="#0058ad">[:append 4470 1]</text>
<polyline fill="none" stroke="#0058ad" points="111.641,-83.3 111.641,-112.3 "/>
<text text-anchor="middle" x="167.4615" y="-93.6" font-family="Times,serif" font-size="14.00" fill="#0058ad">[:append 4470 2]</text>
<polyline fill="none" stroke="#0058ad" points="223.282,-83.3 223.282,-112.3 "/>
<text text-anchor="middle" x="279.1025" y="-93.6" font-family="Times,serif" font-size="14.00" fill="#0058ad">[:append 4470 3]</text>
<polyline fill="none" stroke="#0058ad" points="334.923,-83.3 334.923,-112.3 "/>
<text text-anchor="middle" x="390.7435" y="-93.6" font-family="Times,serif" font-size="14.00" fill="#0058ad">[:append 4464 2]</text>
<polyline fill="none" stroke="#0058ad" points="446.564,-83.3 446.564,-112.3 "/>
<text text-anchor="middle" x="499.6608" y="-93.6" font-family="Times,serif" font-size="14.00" fill="#0058ad">[:r 4470 [1 2 3]]</text>
<polyline fill="none" stroke="#0058ad" points="552.7576,-83.3 552.7576,-112.3 "/>
<text text-anchor="middle" x="605.8544" y="-93.6" font-family="Times,serif" font-size="14.00" fill="#0058ad">[:r 4470 [1 2 3]]</text>
</g>
<!-- T10621&#45;&gt;T10608 -->
<g id="edge1" class="edge">
<title>T10621:f1&#45;&gt;T10608:f3</title>
<path fill="none" stroke="#5b00c0" d="M535.4756,-165.6C535.4756,-100.7666 405.9013,-172.6137 391.7291,-122.7298"/>
<polygon fill="#5b00c0" stroke="#5b00c0" points="395.2006,-122.2829 390.4756,-112.8 388.2557,-123.1596 395.2006,-122.2829"/>
<text text-anchor="middle" x="588.5724" y="-135" font-family="Times,serif" font-size="14.00" fill="#5b00c0">T10621 (rw) T10608</text>
</g>
<!-- T10616 -->
<g id="node3" class="node">
<title>T10616</title>
<polygon fill="none" stroke="#0058ad" points="463.6006,-.5 463.6006,-29.5 1095.3506,-29.5 1095.3506,-.5 463.6006,-.5"/>
<text text-anchor="middle" x="502.6974" y="-10.8" font-family="Times,serif" font-size="14.00" fill="#0058ad">[:r 4471 []]</text>
<polyline fill="none" stroke="#0058ad" points="541.7942,-.5 541.7942,-29.5 "/>
<text text-anchor="middle" x="580.891" y="-10.8" font-family="Times,serif" font-size="14.00" fill="#0058ad">[:r 4471 []]</text>
<polyline fill="none" stroke="#0058ad" points="619.9878,-.5 619.9878,-29.5 "/>
<text text-anchor="middle" x="667.8346" y="-10.8" font-family="Times,serif" font-size="14.00" fill="#0058ad">[:r 4464 [1 2]]</text>
<polyline fill="none" stroke="#0058ad" points="715.6814,-.5 715.6814,-29.5 "/>
<text text-anchor="middle" x="754.7782" y="-10.8" font-family="Times,serif" font-size="14.00" fill="#0058ad">[:r 4473 []]</text>
<polyline fill="none" stroke="#0058ad" points="793.875,-.5 793.875,-29.5 "/>
<text text-anchor="middle" x="832.9718" y="-10.8" font-family="Times,serif" font-size="14.00" fill="#0058ad">[:r 4471 []]</text>
<polyline fill="none" stroke="#0058ad" points="872.0686,-.5 872.0686,-29.5 "/>
<text text-anchor="middle" x="927.8891" y="-10.8" font-family="Times,serif" font-size="14.00" fill="#0058ad">[:append 4475 1]</text>
<polyline fill="none" stroke="#0058ad" points="983.7096,-.5 983.7096,-29.5 "/>
<text text-anchor="middle" x="1039.5301" y="-10.8" font-family="Times,serif" font-size="14.00" fill="#0058ad">[:append 4474 1]</text>
</g>
<!-- T10608&#45;&gt;T10616 -->
<g id="edge2" class="edge">
<title>T10608:f3&#45;&gt;T10616:f2</title>
<path fill="none" stroke="#c000a5" d="M390.4756,-82.8C390.4756,-4.8909 485.6975,-62.3051 562.282,-48 581.9523,-44.3258 643.3178,-50.9212 662.0142,-38.8262"/>
<polygon fill="#c000a5" stroke="#c000a5" points="665.1901,-40.3454 667.4756,-30 659.2374,-36.6621 665.1901,-40.3454"/>
<text text-anchor="middle" x="620.5724" y="-52.2" font-family="Times,serif" font-size="14.00" fill="#c000a5">T10608 (wr) T10616</text>
</g>
<!-- T10616&#45;&gt;T10621 -->
<g id="edge3" class="edge">
<title>T10616:f0&#45;&gt;T10621:f2</title>
<path fill="none" stroke="#5b00c0" d="M502.4756,-30C502.4756,-69.7573 653.8146,-18.507 680.4756,-48 711.3932,-82.2018 677.2755,-109.3897 651.4756,-147.6 648.0119,-152.7298 643.066,-154.3022 639.4012,-156.6546"/>
<polygon fill="#5b00c0" stroke="#5b00c0" points="636.2332,-155.1519 634.4756,-165.6 642.365,-158.5284 636.2332,-155.1519"/>
<text text-anchor="middle" x="750.5724" y="-93.6" font-family="Times,serif" font-size="14.00" fill="#5b00c0">T10616 (rw) T10621</text>
</g>
</g>
</svg>
