<?xml version="1.0" encoding="UTF-8" standalone="no"?>
<!DOCTYPE svg PUBLIC "-//W3C//DTD SVG 1.1//EN"
 "http://www.w3.org/Graphics/SVG/1.1/DTD/svg11.dtd">
<!-- Generated by graphviz version 2.40.1 (20161225.0304)
 -->
<!-- Title: g Pages: 1 -->
<svg width="596pt" height="121pt"
 viewBox="0.00 0.00 595.80 120.80" xmlns="http://www.w3.org/2000/svg" xmlns:xlink="http://www.w3.org/1999/xlink">
<g id="graph0" class="graph" transform="scale(1 1) rotate(0) translate(4 116.8)">
<title>g</title>
<polygon fill="#ffffff" stroke="transparent" points="-4,4 -4,-116.8 591.8026,-116.8 591.8026,4 -4,4"/>
<!-- T1158 -->
<g id="node1" class="node">
<title>T1158</title>
<polygon fill="none" stroke="#0058ad" points="6.7462,-83.3 6.7462,-112.3 491.0564,-112.3 491.0564,-83.3 6.7462,-83.3"/>
<text text-anchor="middle" x="56.343" y="-93.6" font-family="Times,serif" font-size="14.00" fill="#0058ad">[:r 506 [1 2 3]]</text>
<polyline fill="none" stroke="#0058ad" points="105.9398,-83.3 105.9398,-112.3 "/>
<text text-anchor="middle" x="158.2603" y="-93.6" font-family="Times,serif" font-size="14.00" fill="#0058ad">[:append 503 3]</text>
<polyline fill="none" stroke="#0058ad" points="210.5808,-83.3 210.5808,-112.3 "/>
<text text-anchor="middle" x="262.9013" y="-93.6" font-family="Times,serif" font-size="14.00" fill="#0058ad">[:append 507 1]</text>
<polyline fill="none" stroke="#0058ad" points="315.2218,-83.3 315.2218,-112.3 "/>
<text text-anchor="middle" x="350.8186" y="-93.6" font-family="Times,serif" font-size="14.00" fill="#0058ad">[:r 508 []]</text>
<polyline fill="none" stroke="#0058ad" points="386.4154,-83.3 386.4154,-112.3 "/>
<text text-anchor="middle" x="438.7359" y="-93.6" font-family="Times,serif" font-size="14.00" fill="#0058ad">[:append 507 2]</text>
</g>
<!-- T1159 -->
<g id="node2" class="node">
<title>T1159</title>
<polygon fill="none" stroke="#0058ad" points="0,-.5 0,-29.5 587.8026,-29.5 587.8026,-.5 0,-.5"/>
<text text-anchor="middle" x="44.3468" y="-10.8" font-family="Times,serif" font-size="14.00" fill="#0058ad">[:r 505 [1 2]]</text>
<polyline fill="none" stroke="#0058ad" points="88.6936,-.5 88.6936,-29.5 "/>
<text text-anchor="middle" x="141.0141" y="-10.8" font-family="Times,serif" font-size="14.00" fill="#0058ad">[:append 508 1]</text>
<polyline fill="none" stroke="#0058ad" points="193.3346,-.5 193.3346,-29.5 "/>
<text text-anchor="middle" x="232.4314" y="-10.8" font-family="Times,serif" font-size="14.00" fill="#0058ad">[:r 508 [1]]</text>
<polyline fill="none" stroke="#0058ad" points="271.5282,-.5 271.5282,-29.5 "/>
<text text-anchor="middle" x="310.625" y="-10.8" font-family="Times,serif" font-size="14.00" fill="#0058ad">[:r 508 [1]]</text>
<polyline fill="none" stroke="#0058ad" points="349.7218,-.5 349.7218,-29.5 "/>
<text text-anchor="middle" x="394.0686" y="-10.8" font-family="Times,serif" font-size="14.00" fill="#0058ad">[:r 505 [1 2]]</text>
<polyline fill="none" stroke="#0058ad" points="438.4154,-.5 438.4154,-29.5 "/>
<text text-anchor="middle" x="474.0122" y="-10.8" font-family="Times,serif" font-size="14.00" fill="#0058ad">[:r 507 []]</text>
<polyline fill="none" stroke="#0058ad" points="509.609,-.5 509.609,-29.5 "/>
<text text-anchor="middle" x="548.7058" y="-10.8" font-family="Times,serif" font-size="14.00" fill="#0058ad">[:r 508 [1]]</text>
</g>
<!-- T1158&#45;&gt;T1159 -->
<g id="edge1" class="edge">
<title>T1158:f3&#45;&gt;T1159:f1</title>
<path fill="none" stroke="#5b00c0" d="M350.9013,-82.8C350.9013,-67.3078 359.6964,-59.1119 348.9013,-48 334.6944,-33.3763 184.7855,-48.4733 148.6878,-36.5944"/>
<polygon fill="#5b00c0" stroke="#5b00c0" points="150.7943,-33.7919 140.9013,-30 146.2704,-39.1337 150.7943,-33.7919"/>
<text text-anchor="middle" x="405.9981" y="-52.2" font-family="Times,serif" font-size="14.00" fill="#5b00c0">T1158 (rw) T1159</text>
</g>
<!-- T1159&#45;&gt;T1158 -->
<g id="edge2" class="edge">
<title>T1159:f5&#45;&gt;T1158:f2</title>
<path fill="none" stroke="#5b00c0" d="M473.9013,-30C473.9013,-55.9875 258.3624,-28.9301 240.7077,-48 235.6352,-53.4791 237.4958,-58.0595 240.7077,-64.8 244.0368,-71.7865 251.5499,-72.2263 256.9115,-74.3776"/>
<polygon fill="#5b00c0" stroke="#5b00c0" points="254.2534,-76.6791 262.9013,-82.8 259.958,-72.6222 254.2534,-76.6791"/>
<text text-anchor="middle" x="291.9981" y="-52.2" font-family="Times,serif" font-size="14.00" fill="#5b00c0">T1159 (rw) T1158</text>
</g>
</g>
</svg>
