<?xml version="1.0" encoding="UTF-8" standalone="no"?>
<!DOCTYPE svg PUBLIC "-//W3C//DTD SVG 1.1//EN"
 "http://www.w3.org/Graphics/SVG/1.1/DTD/svg11.dtd">
<!-- Generated by graphviz version 2.40.1 (20161225.0304)
 -->
<!-- Title: g Pages: 1 -->
<svg width="741pt" height="121pt"
 viewBox="0.00 0.00 741.47 120.80" xmlns="http://www.w3.org/2000/svg" xmlns:xlink="http://www.w3.org/1999/xlink">
<g id="graph0" class="graph" transform="scale(1 1) rotate(0) translate(4 116.8)">
<title>g</title>
<polygon fill="#ffffff" stroke="transparent" points="-4,4 -4,-116.8 737.4737,-116.8 737.4737,4 -4,4"/>
<!-- T10019 -->
<g id="node1" class="node">
<title>T10019</title>
<polygon fill="none" stroke="#0058ad" points="0,-83.3 0,-112.3 614.25,-112.3 614.25,-83.3 0,-83.3"/>
<text text-anchor="middle" x="39.0968" y="-93.6" font-family="Times,serif" font-size="14.00" fill="#0058ad">[:r 4282 []]</text>
<polyline fill="none" stroke="#0058ad" points="78.1936,-83.3 78.1936,-112.3 "/>
<text text-anchor="middle" x="134.0141" y="-93.6" font-family="Times,serif" font-size="14.00" fill="#0058ad">[:append 4283 1]</text>
<polyline fill="none" stroke="#0058ad" points="189.8346,-83.3 189.8346,-112.3 "/>
<text text-anchor="middle" x="228.9314" y="-93.6" font-family="Times,serif" font-size="14.00" fill="#0058ad">[:r 4284 []]</text>
<polyline fill="none" stroke="#0058ad" points="268.0282,-83.3 268.0282,-112.3 "/>
<text text-anchor="middle" x="307.125" y="-93.6" font-family="Times,serif" font-size="14.00" fill="#0058ad">[:r 4282 []]</text>
<polyline fill="none" stroke="#0058ad" points="346.2218,-83.3 346.2218,-112.3 "/>
<text text-anchor="middle" x="402.0423" y="-93.6" font-family="Times,serif" font-size="14.00" fill="#0058ad">[:append 4283 2]</text>
<polyline fill="none" stroke="#0058ad" points="457.8628,-83.3 457.8628,-112.3 "/>
<text text-anchor="middle" x="496.9596" y="-93.6" font-family="Times,serif" font-size="14.00" fill="#0058ad">[:r 4284 []]</text>
<polyline fill="none" stroke="#0058ad" points="536.0564,-83.3 536.0564,-112.3 "/>
<text text-anchor="middle" x="575.1532" y="-93.6" font-family="Times,serif" font-size="14.00" fill="#0058ad">[:r 4284 []]</text>
</g>
<!-- T10028 -->
<g id="node2" class="node">
<title>T10028</title>
<polygon fill="none" stroke="#0058ad" points="78.7763,-.5 78.7763,-29.5 733.4737,-29.5 733.4737,-.5 78.7763,-.5"/>
<text text-anchor="middle" x="134.5968" y="-10.8" font-family="Times,serif" font-size="14.00" fill="#0058ad">[:append 4284 1]</text>
<polyline fill="none" stroke="#0058ad" points="190.4173,-.5 190.4173,-29.5 "/>
<text text-anchor="middle" x="229.5141" y="-10.8" font-family="Times,serif" font-size="14.00" fill="#0058ad">[:r 4283 []]</text>
<polyline fill="none" stroke="#0058ad" points="268.6109,-.5 268.6109,-29.5 "/>
<text text-anchor="middle" x="307.7077" y="-10.8" font-family="Times,serif" font-size="14.00" fill="#0058ad">[:r 4283 []]</text>
<polyline fill="none" stroke="#0058ad" points="346.8045,-.5 346.8045,-29.5 "/>
<text text-anchor="middle" x="389.4013" y="-10.8" font-family="Times,serif" font-size="14.00" fill="#0058ad">[:r 4284 [1]]</text>
<polyline fill="none" stroke="#0058ad" points="431.9981,-.5 431.9981,-29.5 "/>
<text text-anchor="middle" x="487.8186" y="-10.8" font-family="Times,serif" font-size="14.00" fill="#0058ad">[:append 4284 2]</text>
<polyline fill="none" stroke="#0058ad" points="543.6391,-.5 543.6391,-29.5 "/>
<text text-anchor="middle" x="599.4596" y="-10.8" font-family="Times,serif" font-size="14.00" fill="#0058ad">[:append 4284 3]</text>
<polyline fill="none" stroke="#0058ad" points="655.2801,-.5 655.2801,-29.5 "/>
<text text-anchor="middle" x="694.3769" y="-10.8" font-family="Times,serif" font-size="14.00" fill="#0058ad">[:r 4283 []]</text>
</g>
<!-- T10019&#45;&gt;T10028 -->
<g id="edge1" class="edge">
<title>T10019:f2&#45;&gt;T10028:f0</title>
<path fill="none" stroke="#5b00c0" d="M229.125,-82.8C229.125,-56.4516 129.0901,-84.7954 111.9314,-64.8 107.0689,-59.1337 108.7195,-54.7405 111.9314,-48 115.2605,-41.0135 122.7736,-40.5737 128.1352,-38.4224"/>
<polygon fill="#5b00c0" stroke="#5b00c0" points="131.1817,-40.1778 134.125,-30 125.4771,-36.1209 131.1817,-40.1778"/>
<text text-anchor="middle" x="171.2218" y="-52.2" font-family="Times,serif" font-size="14.00" fill="#5b00c0">T10019 (rw) T10028</text>
</g>
<!-- T10028&#45;&gt;T10019 -->
<g id="edge2" class="edge">
<title>T10028:f1&#45;&gt;T10019:f1</title>
<path fill="none" stroke="#5b00c0" d="M229.125,-30C229.125,-45.4731 240.0066,-52.8933 230.125,-64.8 205.1091,-94.9424 147.0735,-49.9976 135.9771,-72.8258"/>
<polygon fill="#5b00c0" stroke="#5b00c0" points="132.5095,-72.3291 134.125,-82.8 139.3919,-73.6071 132.5095,-72.3291"/>
<text text-anchor="middle" x="293.2218" y="-52.2" font-family="Times,serif" font-size="14.00" fill="#5b00c0">T10028 (rw) T10019</text>
</g>
</g>
</svg>
