<?xml version="1.0" encoding="UTF-8" standalone="no"?>
<!DOCTYPE svg PUBLIC "-//W3C//DTD SVG 1.1//EN"
 "http://www.w3.org/Graphics/SVG/1.1/DTD/svg11.dtd">
<!-- Generated by graphviz version 2.40.1 (20161225.0304)
 -->
<!-- Title: g Pages: 1 -->
<svg width="576pt" height="121pt"
 viewBox="0.00 0.00 576.45 120.80" xmlns="http://www.w3.org/2000/svg" xmlns:xlink="http://www.w3.org/1999/xlink">
<g id="graph0" class="graph" transform="scale(1 1) rotate(0) translate(4 116.8)">
<title>g</title>
<polygon fill="#ffffff" stroke="transparent" points="-4,4 -4,-116.8 572.4532,-116.8 572.4532,4 -4,4"/>
<!-- T294 -->
<g id="node1" class="node">
<title>T294</title>
<polygon fill="none" stroke="#0058ad" points="0,-83.3 0,-112.3 556.4252,-112.3 556.4252,-83.3 0,-83.3"/>
<text text-anchor="middle" x="34.4362" y="-93.6" font-family="Times,serif" font-size="14.00" fill="#0058ad">[:r 125 2]</text>
<polyline fill="none" stroke="#0058ad" points="68.8724,-83.3 68.8724,-112.3 "/>
<text text-anchor="middle" x="103.3086" y="-93.6" font-family="Times,serif" font-size="14.00" fill="#0058ad">[:r 125 2]</text>
<polyline fill="none" stroke="#0058ad" points="137.7448,-83.3 137.7448,-112.3 "/>
<text text-anchor="middle" x="172.181" y="-93.6" font-family="Times,serif" font-size="14.00" fill="#0058ad">[:r 125 2]</text>
<polyline fill="none" stroke="#0058ad" points="206.6172,-83.3 206.6172,-112.3 "/>
<text text-anchor="middle" x="241.0534" y="-93.6" font-family="Times,serif" font-size="14.00" fill="#0058ad">[:r 122 2]</text>
<polyline fill="none" stroke="#0058ad" points="275.4896,-83.3 275.4896,-112.3 "/>
<text text-anchor="middle" x="309.9258" y="-93.6" font-family="Times,serif" font-size="14.00" fill="#0058ad">[:r 124 1]</text>
<polyline fill="none" stroke="#0058ad" points="344.362,-83.3 344.362,-112.3 "/>
<text text-anchor="middle" x="381.5212" y="-93.6" font-family="Times,serif" font-size="14.00" fill="#0058ad">[:w 125 3]</text>
<polyline fill="none" stroke="#0058ad" points="418.6804,-83.3 418.6804,-112.3 "/>
<text text-anchor="middle" x="453.1166" y="-93.6" font-family="Times,serif" font-size="14.00" fill="#0058ad">[:r 125 3]</text>
<polyline fill="none" stroke="#0058ad" points="487.5528,-83.3 487.5528,-112.3 "/>
<text text-anchor="middle" x="521.989" y="-93.6" font-family="Times,serif" font-size="14.00" fill="#0058ad">[:r 125 3]</text>
</g>
<!-- T295 -->
<g id="node2" class="node">
<title>T295</title>
<polygon fill="none" stroke="#0058ad" points="199.972,-.5 199.972,-29.5 568.4532,-29.5 568.4532,-.5 199.972,-.5"/>
<text text-anchor="middle" x="234.4082" y="-10.8" font-family="Times,serif" font-size="14.00" fill="#0058ad">[:r 125 2]</text>
<polyline fill="none" stroke="#0058ad" points="268.8444,-.5 268.8444,-29.5 "/>
<text text-anchor="middle" x="307.1712" y="-10.8" font-family="Times,serif" font-size="14.00" fill="#0058ad">[:r 126 nil]</text>
<polyline fill="none" stroke="#0058ad" points="345.498,-.5 345.498,-29.5 "/>
<text text-anchor="middle" x="382.6572" y="-10.8" font-family="Times,serif" font-size="14.00" fill="#0058ad">[:w 126 1]</text>
<polyline fill="none" stroke="#0058ad" points="419.8164,-.5 419.8164,-29.5 "/>
<text text-anchor="middle" x="456.9756" y="-10.8" font-family="Times,serif" font-size="14.00" fill="#0058ad">[:w 124 2]</text>
<polyline fill="none" stroke="#0058ad" points="494.1348,-.5 494.1348,-29.5 "/>
<text text-anchor="middle" x="531.294" y="-10.8" font-family="Times,serif" font-size="14.00" fill="#0058ad">[:w 124 3]</text>
</g>
<!-- T294&#45;&gt;T295 -->
<g id="edge1" class="edge">
<title>T294:f4&#45;&gt;T295:f3</title>
<path fill="none" stroke="#5b00c0" d="M310.2126,-82.8C310.2126,-70.7771 294.9366,-75.7712 290.019,-64.8 286.965,-57.9865 285.0298,-53.5551 290.019,-48 312.355,-23.1302 428.5165,-58.2527 452.7709,-39.1897"/>
<polygon fill="#5b00c0" stroke="#5b00c0" points="456.012,-40.5266 457.2126,-30 449.7096,-37.4804 456.012,-40.5266"/>
<text text-anchor="middle" x="335.3094" y="-52.2" font-family="Times,serif" font-size="14.00" fill="#5b00c0">T294 (rw) T295</text>
</g>
<!-- T295&#45;&gt;T294 -->
<g id="edge2" class="edge">
<title>T295:f0&#45;&gt;T294:f5</title>
<path fill="none" stroke="#5b00c0" d="M234.2126,-30C234.2126,-62.6901 358.2081,-23.8248 380.2126,-48 388.1055,-56.6715 384.61,-63.2993 382.4539,-72.7349"/>
<polygon fill="#5b00c0" stroke="#5b00c0" points="378.963,-72.4468 381.2126,-82.8 385.9104,-73.3036 378.963,-72.4468"/>
<text text-anchor="middle" x="430.3094" y="-52.2" font-family="Times,serif" font-size="14.00" fill="#5b00c0">T295 (rw) T294</text>
</g>
</g>
</svg>
