<?xml version="1.0" encoding="UTF-8" standalone="no"?>
<!DOCTYPE svg PUBLIC "-//W3C//DTD SVG 1.1//EN"
 "http://www.w3.org/Graphics/SVG/1.1/DTD/svg11.dtd">
<!-- Generated by graphviz version 2.40.1 (20161225.0304)
 -->
<!-- Title: g Pages: 1 -->
<svg width="775pt" height="121pt"
 viewBox="0.00 0.00 775.13 120.80" xmlns="http://www.w3.org/2000/svg" xmlns:xlink="http://www.w3.org/1999/xlink">
<g id="graph0" class="graph" transform="scale(1 1) rotate(0) translate(4 116.8)">
<title>g</title>
<polygon fill="#ffffff" stroke="transparent" points="-4,4 -4,-116.8 771.1292,-116.8 771.1292,4 -4,4"/>
<!-- T1175 -->
<g id="node1" class="node">
<title>T1175</title>
<polygon fill="none" stroke="#0058ad" points="0,-83.3 0,-112.3 561.8712,-112.3 561.8712,-83.3 0,-83.3"/>
<text text-anchor="middle" x="34.4362" y="-93.6" font-family="Times,serif" font-size="14.00" fill="#0058ad">[:r 513 1]</text>
<polyline fill="none" stroke="#0058ad" points="68.8724,-83.3 68.8724,-112.3 "/>
<text text-anchor="middle" x="106.0316" y="-93.6" font-family="Times,serif" font-size="14.00" fill="#0058ad">[:w 514 1]</text>
<polyline fill="none" stroke="#0058ad" points="143.1908,-83.3 143.1908,-112.3 "/>
<text text-anchor="middle" x="177.627" y="-93.6" font-family="Times,serif" font-size="14.00" fill="#0058ad">[:r 514 1]</text>
<polyline fill="none" stroke="#0058ad" points="212.0632,-83.3 212.0632,-112.3 "/>
<text text-anchor="middle" x="246.4994" y="-93.6" font-family="Times,serif" font-size="14.00" fill="#0058ad">[:r 513 1]</text>
<polyline fill="none" stroke="#0058ad" points="280.9356,-83.3 280.9356,-112.3 "/>
<text text-anchor="middle" x="318.0948" y="-93.6" font-family="Times,serif" font-size="14.00" fill="#0058ad">[:w 513 2]</text>
<polyline fill="none" stroke="#0058ad" points="355.254,-83.3 355.254,-112.3 "/>
<text text-anchor="middle" x="389.6902" y="-93.6" font-family="Times,serif" font-size="14.00" fill="#0058ad">[:r 513 2]</text>
<polyline fill="none" stroke="#0058ad" points="424.1264,-83.3 424.1264,-112.3 "/>
<text text-anchor="middle" x="458.5626" y="-93.6" font-family="Times,serif" font-size="14.00" fill="#0058ad">[:r 514 1]</text>
<polyline fill="none" stroke="#0058ad" points="492.9988,-83.3 492.9988,-112.3 "/>
<text text-anchor="middle" x="527.435" y="-93.6" font-family="Times,serif" font-size="14.00" fill="#0058ad">[:r 507 2]</text>
</g>
<!-- T1174 -->
<g id="node2" class="node">
<title>T1174</title>
<polygon fill="none" stroke="#0058ad" points="130.554,-.5 130.554,-29.5 703.3172,-29.5 703.3172,-.5 130.554,-.5"/>
<text text-anchor="middle" x="164.9902" y="-10.8" font-family="Times,serif" font-size="14.00" fill="#0058ad">[:r 476 2]</text>
<polyline fill="none" stroke="#0058ad" points="199.4264,-.5 199.4264,-29.5 "/>
<text text-anchor="middle" x="233.8626" y="-10.8" font-family="Times,serif" font-size="14.00" fill="#0058ad">[:r 513 1]</text>
<polyline fill="none" stroke="#0058ad" points="268.2988,-.5 268.2988,-29.5 "/>
<text text-anchor="middle" x="302.735" y="-10.8" font-family="Times,serif" font-size="14.00" fill="#0058ad">[:r 512 2]</text>
<polyline fill="none" stroke="#0058ad" points="337.1712,-.5 337.1712,-29.5 "/>
<text text-anchor="middle" x="374.3304" y="-10.8" font-family="Times,serif" font-size="14.00" fill="#0058ad">[:w 509 1]</text>
<polyline fill="none" stroke="#0058ad" points="411.4896,-.5 411.4896,-29.5 "/>
<text text-anchor="middle" x="445.9258" y="-10.8" font-family="Times,serif" font-size="14.00" fill="#0058ad">[:r 513 1]</text>
<polyline fill="none" stroke="#0058ad" points="480.362,-.5 480.362,-29.5 "/>
<text text-anchor="middle" x="517.5212" y="-10.8" font-family="Times,serif" font-size="14.00" fill="#0058ad">[:w 476 3]</text>
<polyline fill="none" stroke="#0058ad" points="554.6804,-.5 554.6804,-29.5 "/>
<text text-anchor="middle" x="591.8396" y="-10.8" font-family="Times,serif" font-size="14.00" fill="#0058ad">[:w 512 3]</text>
<polyline fill="none" stroke="#0058ad" points="628.9988,-.5 628.9988,-29.5 "/>
<text text-anchor="middle" x="666.158" y="-10.8" font-family="Times,serif" font-size="14.00" fill="#0058ad">[:w 507 3]</text>
</g>
<!-- T1175&#45;&gt;T1174 -->
<g id="edge1" class="edge">
<title>T1175:f7&#45;&gt;T1174:f7</title>
<path fill="none" stroke="#5b00c0" d="M561.9356,-97.8C613.5564,-97.8 659.6156,-86.7518 665.3385,-40.1467"/>
<polygon fill="#5b00c0" stroke="#5b00c0" points="668.842,-40.1884 665.9356,-30 661.8541,-39.7771 668.842,-40.1884"/>
<text text-anchor="middle" x="715.0324" y="-52.2" font-family="Times,serif" font-size="14.00" fill="#5b00c0">T1175 (rw) T1174</text>
</g>
<!-- T1174&#45;&gt;T1175 -->
<g id="edge2" class="edge">
<title>T1174:f1&#45;&gt;T1175:f4</title>
<path fill="none" stroke="#5b00c0" d="M233.9356,-30C233.9356,-70.1343 303.5199,-44.4218 316.0233,-72.7243"/>
<polygon fill="#5b00c0" stroke="#5b00c0" points="312.6323,-73.628 317.9356,-82.8 319.5095,-72.3227 312.6323,-73.628"/>
<text text-anchor="middle" x="362.0324" y="-52.2" font-family="Times,serif" font-size="14.00" fill="#5b00c0">T1174 (rw) T1175</text>
</g>
</g>
</svg>
