<?xml version="1.0" encoding="UTF-8" standalone="no"?>
<!DOCTYPE svg PUBLIC "-//W3C//DTD SVG 1.1//EN"
 "http://www.w3.org/Graphics/SVG/1.1/DTD/svg11.dtd">
<!-- Generated by graphviz version 2.43.0 (0)
 -->
<!-- Title: a_graph Pages: 1 -->
<svg width="1211pt" height="119pt"
 viewBox="0.00 0.00 1210.94 119.00" xmlns="http://www.w3.org/2000/svg" xmlns:xlink="http://www.w3.org/1999/xlink">
<g id="graph0" class="graph" transform="scale(1 1) rotate(0) translate(4 115)">
<title>a_graph</title>
<polygon fill="white" stroke="transparent" points="-4,4 -4,-115 1206.94,-115 1206.94,4 -4,4"/>
<!-- T2451 -->
<g id="node1" class="node">
<title>T2451</title>
<polygon fill="none" stroke="#0058ad" points="13.94,-81.5 13.94,-110.5 1202.94,-110.5 1202.94,-81.5 13.94,-81.5"/>
<text text-anchor="middle" x="48.94" y="-92.3" font-family="Times,serif" font-size="14.00" fill="#0058ad">a 91 32</text>
<polyline fill="none" stroke="#0058ad" points="83.94,-81.5 83.94,-110.5 "/>
<text text-anchor="middle" x="339.44" y="-92.3" font-family="Times,serif" font-size="14.00" fill="#0058ad">r 91 [1 2 3 4 6 7 8 12 13 14 15 16 17 21 22 25 26 27 28 29 30 31 32]</text>
<polyline fill="none" stroke="#0058ad" points="594.94,-81.5 594.94,-110.5 "/>
<text text-anchor="middle" x="643.44" y="-92.3" font-family="Times,serif" font-size="14.00" fill="#0058ad">r 92 [1 2 3]</text>
<polyline fill="none" stroke="#0058ad" points="691.94,-81.5 691.94,-110.5 "/>
<text text-anchor="middle" x="947.44" y="-92.3" font-family="Times,serif" font-size="14.00" fill="#0058ad">r 91 [1 2 3 4 6 7 8 12 13 14 15 16 17 21 22 25 26 27 28 29 30 31 32]</text>
</g>
<!-- T2452 -->
<g id="node2" class="node">
<title>T2452</title>
<polygon fill="none" stroke="#0058ad" points="4.94,-0.5 4.94,-29.5 553.94,-29.5 553.94,-0.5 4.94,-0.5"/>
<text text-anchor="middle" x="248.94" y="-11.3" font-family="Times,serif" font-size="14.00" fill="#0058ad">r 91 [1 2 3 4 6 7 8 12 13 14 15 16 17 21 22 25 26 27 28 29 30 31]</text>
<polyline fill="none" stroke="#0058ad" points="492.94,-0.5 492.94,-29.5 "/>
<text text-anchor="middle" x="523.44" y="-11.3" font-family="Times,serif" font-size="14.00" fill="#0058ad">a 92 4</text>
</g>
<!-- T2451&#45;&gt;T2452 -->
<g id="edge1" class="edge">
<title>T2451:f2&#45;&gt;T2452:f1</title>
<path fill="none" stroke="#5b00c0" d="M643.44,-81C643.44,-35.55 609.63,-17.56 565.59,-15.26"/>
<polygon fill="#5b00c0" stroke="#5b00c0" points="565.52,-11.76 555.44,-15 565.34,-18.75 565.52,-11.76"/>
<text text-anchor="middle" x="649.94" y="-51.8" font-family="Times,serif" font-size="14.00" fill="#5b00c0">rw</text>
</g>
<!-- T2452&#45;&gt;T2451 -->
<g id="edge2" class="edge">
<title>T2452:f0&#45;&gt;T2451:f0</title>
<path fill="none" stroke="#5b00c0" d="M3.44,-15C-3.24,-15 1.9,-23.82 4.44,-30 14.29,-54.02 40.14,-52.22 46.84,-70.84"/>
<polygon fill="#5b00c0" stroke="#5b00c0" points="43.42,-71.67 48.44,-81 50.34,-70.58 43.42,-71.67"/>
<text text-anchor="middle" x="51.94" y="-51.8" font-family="Times,serif" font-size="14.00" fill="#5b00c0">rw</text>
</g>
</g>
</svg>
