<?xml version="1.0" encoding="UTF-8" standalone="no"?>
<!DOCTYPE svg PUBLIC "-//W3C//DTD SVG 1.1//EN"
 "http://www.w3.org/Graphics/SVG/1.1/DTD/svg11.dtd">
<!-- Generated by graphviz version 2.43.0 (0)
 -->
<!-- Title: a_graph Pages: 1 -->
<svg width="689pt" height="119pt"
 viewBox="0.00 0.00 689.00 119.00" xmlns="http://www.w3.org/2000/svg" xmlns:xlink="http://www.w3.org/1999/xlink">
<g id="graph0" class="graph" transform="scale(1 1) rotate(0) translate(4 115)">
<title>a_graph</title>
<polygon fill="white" stroke="transparent" points="-4,4 -4,-115 685,-115 685,4 -4,4"/>
<!-- T2237 -->
<g id="node1" class="node">
<title>T2237</title>
<polygon fill="none" stroke="#0058ad" points="466.5,-81.5 466.5,-110.5 678.5,-110.5 678.5,-81.5 466.5,-81.5"/>
<text text-anchor="middle" x="542" y="-92.3" font-family="Times,serif" font-size="14.00" fill="#0058ad">r 84 [1 2 3 4 5 6 7]</text>
<polyline fill="none" stroke="#0058ad" points="617.5,-81.5 617.5,-110.5 "/>
<text text-anchor="middle" x="648" y="-92.3" font-family="Times,serif" font-size="14.00" fill="#0058ad">a 85 4</text>
</g>
<!-- T2238 -->
<g id="node2" class="node">
<title>T2238</title>
<polygon fill="none" stroke="#0058ad" points="0,-0.5 0,-29.5 681,-29.5 681,-0.5 0,-0.5"/>
<text text-anchor="middle" x="35" y="-11.3" font-family="Times,serif" font-size="14.00" fill="#0058ad">a 80 20</text>
<polyline fill="none" stroke="#0058ad" points="70,-0.5 70,-29.5 "/>
<text text-anchor="middle" x="145.5" y="-11.3" font-family="Times,serif" font-size="14.00" fill="#0058ad">r 84 [1 2 3 4 5 6 7]</text>
<polyline fill="none" stroke="#0058ad" points="221,-0.5 221,-29.5 "/>
<text text-anchor="middle" x="296.5" y="-11.3" font-family="Times,serif" font-size="14.00" fill="#0058ad">r 84 [1 2 3 4 5 6 7]</text>
<polyline fill="none" stroke="#0058ad" points="372,-0.5 372,-29.5 "/>
<text text-anchor="middle" x="447.5" y="-11.3" font-family="Times,serif" font-size="14.00" fill="#0058ad">r 84 [1 2 3 4 5 6 7]</text>
<polyline fill="none" stroke="#0058ad" points="523,-0.5 523,-29.5 "/>
<text text-anchor="middle" x="571.5" y="-11.3" font-family="Times,serif" font-size="14.00" fill="#0058ad">r 85 [1 2 3]</text>
<polyline fill="none" stroke="#0058ad" points="620,-0.5 620,-29.5 "/>
<text text-anchor="middle" x="650.5" y="-11.3" font-family="Times,serif" font-size="14.00" fill="#0058ad">a 84 8</text>
</g>
<!-- T2237&#45;&gt;T2238 -->
<g id="edge1" class="edge">
<title>T2237:f0&#45;&gt;T2238:f5</title>
<path fill="none" stroke="#5b00c0" d="M541.5,-81C541.5,-54.74 566.77,-59.23 590.5,-48 611.73,-37.95 639.85,-51.87 648.12,-39.74"/>
<polygon fill="#5b00c0" stroke="#5b00c0" points="651.52,-40.55 650.5,-30 644.72,-38.88 651.52,-40.55"/>
<text text-anchor="middle" x="600" y="-51.8" font-family="Times,serif" font-size="14.00" fill="#5b00c0">rw</text>
</g>
<!-- T2238&#45;&gt;T2237 -->
<g id="edge2" class="edge">
<title>T2238:f4&#45;&gt;T2237:f1</title>
<path fill="none" stroke="#5b00c0" d="M571.5,-30C571.5,-48.69 593.79,-37.88 609.5,-48 625.16,-58.09 641.37,-58.55 646.69,-70.93"/>
<polygon fill="#5b00c0" stroke="#5b00c0" points="643.29,-71.78 648.5,-81 650.18,-70.54 643.29,-71.78"/>
<text text-anchor="middle" x="648" y="-51.8" font-family="Times,serif" font-size="14.00" fill="#5b00c0">rw</text>
</g>
</g>
</svg>
