<?xml version="1.0" encoding="UTF-8" standalone="no"?>
<!DOCTYPE svg PUBLIC "-//W3C//DTD SVG 1.1//EN"
 "http://www.w3.org/Graphics/SVG/1.1/DTD/svg11.dtd">
<!-- Generated by graphviz version 2.43.0 (0)
 -->
<!-- Title: a_graph Pages: 1 -->
<svg width="1718pt" height="119pt"
 viewBox="0.00 0.00 1718.00 119.00" xmlns="http://www.w3.org/2000/svg" xmlns:xlink="http://www.w3.org/1999/xlink">
<g id="graph0" class="graph" transform="scale(1 1) rotate(0) translate(4 115)">
<title>a_graph</title>
<polygon fill="white" stroke="transparent" points="-4,4 -4,-115 1714,-115 1714,4 -4,4"/>
<!-- T383 -->
<g id="node1" class="node">
<title>T383</title>
<polygon fill="none" stroke="#0058ad" points="566,-81.5 566,-110.5 1710,-110.5 1710,-81.5 566,-81.5"/>
<text text-anchor="middle" x="601" y="-92.3" font-family="Times,serif" font-size="14.00" fill="#0058ad">a 12 23</text>
<polyline fill="none" stroke="#0058ad" points="636,-81.5 636,-110.5 "/>
<text text-anchor="middle" x="815" y="-92.3" font-family="Times,serif" font-size="14.00" fill="#0058ad">r 14 [1 2 3 4 5 6 7 8 9 11 12 13 14 15 17 18 19]</text>
<polyline fill="none" stroke="#0058ad" points="994,-81.5 994,-110.5 "/>
<text text-anchor="middle" x="1173" y="-92.3" font-family="Times,serif" font-size="14.00" fill="#0058ad">r 14 [1 2 3 4 5 6 7 8 9 11 12 13 14 15 17 18 19]</text>
<polyline fill="none" stroke="#0058ad" points="1352,-81.5 1352,-110.5 "/>
<text text-anchor="middle" x="1531" y="-92.3" font-family="Times,serif" font-size="14.00" fill="#0058ad">r 14 [1 2 3 4 5 6 7 8 9 11 12 13 14 15 17 18 19]</text>
</g>
<!-- T382 -->
<g id="node2" class="node">
<title>T382</title>
<polygon fill="none" stroke="#0058ad" points="0,-0.5 0,-29.5 1618,-29.5 1618,-0.5 0,-0.5"/>
<text text-anchor="middle" x="179" y="-11.3" font-family="Times,serif" font-size="14.00" fill="#0058ad">r 14 [1 2 3 4 5 6 7 8 9 11 12 13 14 15 17 18 19]</text>
<polyline fill="none" stroke="#0058ad" points="358,-0.5 358,-29.5 "/>
<text text-anchor="middle" x="393" y="-11.3" font-family="Times,serif" font-size="14.00" fill="#0058ad">a 14 20</text>
<polyline fill="none" stroke="#0058ad" points="428,-0.5 428,-29.5 "/>
<text text-anchor="middle" x="618" y="-11.3" font-family="Times,serif" font-size="14.00" fill="#0058ad">r 14 [1 2 3 4 5 6 7 8 9 11 12 13 14 15 17 18 19 20]</text>
<polyline fill="none" stroke="#0058ad" points="808,-0.5 808,-29.5 "/>
<text text-anchor="middle" x="1023" y="-11.3" font-family="Times,serif" font-size="14.00" fill="#0058ad">r 12 [1 2 3 4 6 9 10 11 12 13 14 15 16 17 18 19 20 21 22]</text>
<polyline fill="none" stroke="#0058ad" points="1238,-0.5 1238,-29.5 "/>
<text text-anchor="middle" x="1428" y="-11.3" font-family="Times,serif" font-size="14.00" fill="#0058ad">r 14 [1 2 3 4 5 6 7 8 9 11 12 13 14 15 17 18 19 20]</text>
</g>
<!-- T383&#45;&gt;T382 -->
<g id="edge1" class="edge">
<title>T383:f1&#45;&gt;T382:f1</title>
<path fill="none" stroke="#5b00c0" d="M815,-81C815,-13.61 733.71,-57.57 667,-48 653.58,-46.07 447.62,-45.4 401.93,-34.57"/>
<polygon fill="#5b00c0" stroke="#5b00c0" points="403.5,-31.44 393,-30 400.31,-37.67 403.5,-31.44"/>
<text text-anchor="middle" x="820.5" y="-51.8" font-family="Times,serif" font-size="14.00" fill="#5b00c0">rw</text>
</g>
<!-- T382&#45;&gt;T383 -->
<g id="edge2" class="edge">
<title>T382:f3&#45;&gt;T383:f0</title>
<path fill="none" stroke="#5b00c0" d="M1023,-30C1023,-51.08 663.79,-40.75 644,-48 625.09,-54.92 607.75,-56.5 602.57,-70.9"/>
<polygon fill="#5b00c0" stroke="#5b00c0" points="599.07,-70.58 601,-81 605.99,-71.65 599.07,-70.58"/>
<text text-anchor="middle" x="653.5" y="-51.8" font-family="Times,serif" font-size="14.00" fill="#5b00c0">rw</text>
</g>
</g>
</svg>
