<?xml version="1.0" encoding="UTF-8" standalone="no"?>
<!DOCTYPE svg PUBLIC "-//W3C//DTD SVG 1.1//EN"
 "http://www.w3.org/Graphics/SVG/1.1/DTD/svg11.dtd">
<!-- Generated by graphviz version 2.43.0 (0)
 -->
<!-- Title: a_graph Pages: 1 -->
<svg width="1256pt" height="119pt"
 viewBox="0.00 0.00 1255.50 119.00" xmlns="http://www.w3.org/2000/svg" xmlns:xlink="http://www.w3.org/1999/xlink">
<g id="graph0" class="graph" transform="scale(1 1) rotate(0) translate(4 115)">
<title>a_graph</title>
<polygon fill="white" stroke="transparent" points="-4,4 -4,-115 1251.5,-115 1251.5,4 -4,4"/>
<!-- T837 -->
<g id="node1" class="node">
<title>T837</title>
<polygon fill="none" stroke="#0058ad" points="0,-81.5 0,-110.5 1138,-110.5 1138,-81.5 0,-81.5"/>
<text text-anchor="middle" x="284.5" y="-92.3" font-family="Times,serif" font-size="14.00" fill="#0058ad">r 28 [1 2 3 4 5 6 7 9 11 12 14 15 17 18 19 20 21 22 23 24 25 26 27 28 29 30]</text>
<polyline fill="none" stroke="#0058ad" points="569,-81.5 569,-110.5 "/>
<text text-anchor="middle" x="610.5" y="-92.3" font-family="Times,serif" font-size="14.00" fill="#0058ad">r 31 [1 2]</text>
<polyline fill="none" stroke="#0058ad" points="652,-81.5 652,-110.5 "/>
<text text-anchor="middle" x="693.5" y="-92.3" font-family="Times,serif" font-size="14.00" fill="#0058ad">r 31 [1 2]</text>
<polyline fill="none" stroke="#0058ad" points="735,-81.5 735,-110.5 "/>
<text text-anchor="middle" x="765.5" y="-92.3" font-family="Times,serif" font-size="14.00" fill="#0058ad">a 31 3</text>
<polyline fill="none" stroke="#0058ad" points="796,-81.5 796,-110.5 "/>
<text text-anchor="middle" x="826.5" y="-92.3" font-family="Times,serif" font-size="14.00" fill="#0058ad">a 30 8</text>
<polyline fill="none" stroke="#0058ad" points="857,-81.5 857,-110.5 "/>
<text text-anchor="middle" x="887.5" y="-92.3" font-family="Times,serif" font-size="14.00" fill="#0058ad">a 31 4</text>
<polyline fill="none" stroke="#0058ad" points="918,-81.5 918,-110.5 "/>
<text text-anchor="middle" x="973" y="-92.3" font-family="Times,serif" font-size="14.00" fill="#0058ad">r 31 [1 2 3 4]</text>
<polyline fill="none" stroke="#0058ad" points="1028,-81.5 1028,-110.5 "/>
<text text-anchor="middle" x="1083" y="-92.3" font-family="Times,serif" font-size="14.00" fill="#0058ad">r 31 [1 2 3 4]</text>
</g>
<!-- T838 -->
<g id="node2" class="node">
<title>T838</title>
<polygon fill="none" stroke="#0058ad" points="502.5,-0.5 502.5,-29.5 1247.5,-29.5 1247.5,-0.5 502.5,-0.5"/>
<text text-anchor="middle" x="537.5" y="-11.3" font-family="Times,serif" font-size="14.00" fill="#0058ad">a 28 31</text>
<polyline fill="none" stroke="#0058ad" points="572.5,-0.5 572.5,-29.5 "/>
<text text-anchor="middle" x="614" y="-11.3" font-family="Times,serif" font-size="14.00" fill="#0058ad">r 31 [1 2]</text>
<polyline fill="none" stroke="#0058ad" points="655.5,-0.5 655.5,-29.5 "/>
<text text-anchor="middle" x="951.5" y="-11.3" font-family="Times,serif" font-size="14.00" fill="#0058ad">r 28 [1 2 3 4 5 6 7 9 11 12 14 15 17 18 19 20 21 22 23 24 25 26 27 28 29 30 31]</text>
</g>
<!-- T837&#45;&gt;T838 -->
<g id="edge1" class="edge">
<title>T837:f0&#45;&gt;T838:f0</title>
<path fill="none" stroke="#5b00c0" d="M284,-81C284,-33.55 431.65,-16.95 491,-15.16"/>
<polygon fill="#5b00c0" stroke="#5b00c0" points="491.06,-18.66 501,-15 490.94,-11.67 491.06,-18.66"/>
<text text-anchor="middle" x="322.5" y="-51.8" font-family="Times,serif" font-size="14.00" fill="#5b00c0">rw</text>
</g>
<!-- T838&#45;&gt;T837 -->
<g id="edge2" class="edge">
<title>T838:f1&#45;&gt;T837:f3</title>
<path fill="none" stroke="#5b00c0" d="M614,-30C614,-97.5 750.39,-18.94 764.78,-71.04"/>
<polygon fill="#5b00c0" stroke="#5b00c0" points="761.31,-71.5 766,-81 768.25,-70.65 761.31,-71.5"/>
<text text-anchor="middle" x="768.5" y="-51.8" font-family="Times,serif" font-size="14.00" fill="#5b00c0">rw</text>
</g>
</g>
</svg>
