<?xml version="1.0" encoding="UTF-8" standalone="no"?>
<!DOCTYPE svg PUBLIC "-//W3C//DTD SVG 1.1//EN"
 "http://www.w3.org/Graphics/SVG/1.1/DTD/svg11.dtd">
<!-- Generated by graphviz version 2.43.0 (0)
 -->
<!-- Title: a_graph Pages: 1 -->
<svg width="1354pt" height="119pt"
 viewBox="0.00 0.00 1354.00 119.00" xmlns="http://www.w3.org/2000/svg" xmlns:xlink="http://www.w3.org/1999/xlink">
<g id="graph0" class="graph" transform="scale(1 1) rotate(0) translate(4 115)">
<title>a_graph</title>
<polygon fill="white" stroke="transparent" points="-4,4 -4,-115 1350,-115 1350,4 -4,4"/>
<!-- T1031 -->
<g id="node1" class="node">
<title>T1031</title>
<polygon fill="none" stroke="#0058ad" points="357,-81.5 357,-110.5 925,-110.5 925,-81.5 357,-81.5"/>
<text text-anchor="middle" x="392" y="-92.3" font-family="Times,serif" font-size="14.00" fill="#0058ad">a 32 30</text>
<polyline fill="none" stroke="#0058ad" points="427,-81.5 427,-110.5 "/>
<text text-anchor="middle" x="516" y="-92.3" font-family="Times,serif" font-size="14.00" fill="#0058ad">r 38 [1 2 3 4 5 6 7 8 9]</text>
<polyline fill="none" stroke="#0058ad" points="605,-81.5 605,-110.5 "/>
<text text-anchor="middle" x="640" y="-92.3" font-family="Times,serif" font-size="14.00" fill="#0058ad">a 32 31</text>
<polyline fill="none" stroke="#0058ad" points="675,-81.5 675,-110.5 "/>
<text text-anchor="middle" x="710" y="-92.3" font-family="Times,serif" font-size="14.00" fill="#0058ad">a 38 10</text>
<polyline fill="none" stroke="#0058ad" points="745,-81.5 745,-110.5 "/>
<text text-anchor="middle" x="780" y="-92.3" font-family="Times,serif" font-size="14.00" fill="#0058ad">a 38 11</text>
<polyline fill="none" stroke="#0058ad" points="815,-81.5 815,-110.5 "/>
<text text-anchor="middle" x="870" y="-92.3" font-family="Times,serif" font-size="14.00" fill="#0058ad">r 39 [1 2 3 4]</text>
</g>
<!-- T1030 -->
<g id="node2" class="node">
<title>T1030</title>
<polygon fill="none" stroke="#0058ad" points="0,-0.5 0,-29.5 1346,-29.5 1346,-0.5 0,-0.5"/>
<text text-anchor="middle" x="89" y="-11.3" font-family="Times,serif" font-size="14.00" fill="#0058ad">r 38 [1 2 3 4 5 6 7 8 9]</text>
<polyline fill="none" stroke="#0058ad" points="178,-0.5 178,-29.5 "/>
<text text-anchor="middle" x="233" y="-11.3" font-family="Times,serif" font-size="14.00" fill="#0058ad">r 39 [1 2 3 4]</text>
<polyline fill="none" stroke="#0058ad" points="288,-0.5 288,-29.5 "/>
<text text-anchor="middle" x="343" y="-11.3" font-family="Times,serif" font-size="14.00" fill="#0058ad">r 39 [1 2 3 4]</text>
<polyline fill="none" stroke="#0058ad" points="398,-0.5 398,-29.5 "/>
<text text-anchor="middle" x="428.5" y="-11.3" font-family="Times,serif" font-size="14.00" fill="#0058ad">a 39 5</text>
<polyline fill="none" stroke="#0058ad" points="459,-0.5 459,-29.5 "/>
<text text-anchor="middle" x="489.5" y="-11.3" font-family="Times,serif" font-size="14.00" fill="#0058ad">a 39 6</text>
<polyline fill="none" stroke="#0058ad" points="520,-0.5 520,-29.5 "/>
<text text-anchor="middle" x="834" y="-11.3" font-family="Times,serif" font-size="14.00" fill="#0058ad">r 32 [1 2 3 4 5 6 7 8 9 10 11 12 13 14 15 16 17 18 19 20 21 22 23 24 25 26 27 28 29]</text>
<polyline fill="none" stroke="#0058ad" points="1148,-0.5 1148,-29.5 "/>
<text text-anchor="middle" x="1216.5" y="-11.3" font-family="Times,serif" font-size="14.00" fill="#0058ad">r 39 [1 2 3 4 5 6]</text>
<polyline fill="none" stroke="#0058ad" points="1285,-0.5 1285,-29.5 "/>
<text text-anchor="middle" x="1315.5" y="-11.3" font-family="Times,serif" font-size="14.00" fill="#0058ad">a 39 7</text>
</g>
<!-- T1031&#45;&gt;T1030 -->
<g id="edge1" class="edge">
<title>T1031:f5&#45;&gt;T1030:f3</title>
<path fill="none" stroke="#5b00c0" d="M870,-81C870,-58.31 497.54,-55.13 436.43,-35.64"/>
<polygon fill="#5b00c0" stroke="#5b00c0" points="438.26,-32.65 428,-30 434.37,-38.47 438.26,-32.65"/>
<text text-anchor="middle" x="772.5" y="-51.8" font-family="Times,serif" font-size="14.00" fill="#5b00c0">rw</text>
</g>
<!-- T1030&#45;&gt;T1031 -->
<g id="edge2" class="edge">
<title>T1030:f5&#45;&gt;T1031:f0</title>
<path fill="none" stroke="#5b00c0" d="M834,-30C834,-47.97 528.73,-45.08 511,-48 460.55,-56.3 400.82,-30.14 392.88,-70.91"/>
<polygon fill="#5b00c0" stroke="#5b00c0" points="389.39,-70.73 392,-81 396.36,-71.34 389.39,-70.73"/>
<text text-anchor="middle" x="520.5" y="-51.8" font-family="Times,serif" font-size="14.00" fill="#5b00c0">rw</text>
</g>
</g>
</svg>
