<?xml version="1.0" encoding="UTF-8" standalone="no"?>
<!DOCTYPE svg PUBLIC "-//W3C//DTD SVG 1.1//EN"
 "http://www.w3.org/Graphics/SVG/1.1/DTD/svg11.dtd">
<!-- Generated by graphviz version 2.43.0 (0)
 -->
<!-- Title: a_graph Pages: 1 -->
<svg width="2309pt" height="119pt"
 viewBox="0.00 0.00 2309.00 119.00" xmlns="http://www.w3.org/2000/svg" xmlns:xlink="http://www.w3.org/1999/xlink">
<g id="graph0" class="graph" transform="scale(1 1) rotate(0) translate(4 115)">
<title>a_graph</title>
<polygon fill="white" stroke="transparent" points="-4,4 -4,-115 2305,-115 2305,4 -4,4"/>
<!-- T534 -->
<g id="node1" class="node">
<title>T534</title>
<polygon fill="none" stroke="#0058ad" points="1005,-81.5 1005,-110.5 2301,-110.5 2301,-81.5 1005,-81.5"/>
<text text-anchor="middle" x="1035.5" y="-92.3" font-family="Times,serif" font-size="14.00" fill="#0058ad">a 21 4</text>
<polyline fill="none" stroke="#0058ad" points="1066,-81.5 1066,-110.5 "/>
<text text-anchor="middle" x="1323.5" y="-92.3" font-family="Times,serif" font-size="14.00" fill="#0058ad">r 20 [1 2 3 4 5 6 7 8 9 10 11 12 13 14 15 16 17 18 19 20 21 22 23 24]</text>
<polyline fill="none" stroke="#0058ad" points="1581,-81.5 1581,-110.5 "/>
<text text-anchor="middle" x="1616" y="-92.3" font-family="Times,serif" font-size="14.00" fill="#0058ad">a 20 25</text>
<polyline fill="none" stroke="#0058ad" points="1651,-81.5 1651,-110.5 "/>
<text text-anchor="middle" x="1751" y="-92.3" font-family="Times,serif" font-size="14.00" fill="#0058ad">r 19 [1 2 3 4 5 6 7 8 9 10]</text>
<polyline fill="none" stroke="#0058ad" points="1851,-81.5 1851,-110.5 "/>
<text text-anchor="middle" x="1906" y="-92.3" font-family="Times,serif" font-size="14.00" fill="#0058ad">r 21 [1 2 3 4]</text>
<polyline fill="none" stroke="#0058ad" points="1961,-81.5 1961,-110.5 "/>
<text text-anchor="middle" x="1996" y="-92.3" font-family="Times,serif" font-size="14.00" fill="#0058ad">a 20 26</text>
<polyline fill="none" stroke="#0058ad" points="2031,-81.5 2031,-110.5 "/>
<text text-anchor="middle" x="2131" y="-92.3" font-family="Times,serif" font-size="14.00" fill="#0058ad">r 19 [1 2 3 4 5 6 7 8 9 10]</text>
<polyline fill="none" stroke="#0058ad" points="2231,-81.5 2231,-110.5 "/>
<text text-anchor="middle" x="2266" y="-92.3" font-family="Times,serif" font-size="14.00" fill="#0058ad">a 20 27</text>
</g>
<!-- T535 -->
<g id="node2" class="node">
<title>T535</title>
<polygon fill="none" stroke="#0058ad" points="0,-0.5 0,-29.5 1712,-29.5 1712,-0.5 0,-0.5"/>
<text text-anchor="middle" x="257.5" y="-11.3" font-family="Times,serif" font-size="14.00" fill="#0058ad">r 20 [1 2 3 4 5 6 7 8 9 10 11 12 13 14 15 16 17 18 19 20 21 22 23 24]</text>
<polyline fill="none" stroke="#0058ad" points="515,-0.5 515,-29.5 "/>
<text text-anchor="middle" x="772.5" y="-11.3" font-family="Times,serif" font-size="14.00" fill="#0058ad">r 20 [1 2 3 4 5 6 7 8 9 10 11 12 13 14 15 16 17 18 19 20 21 22 23 24]</text>
<polyline fill="none" stroke="#0058ad" points="1030,-0.5 1030,-29.5 "/>
<text text-anchor="middle" x="1078.5" y="-11.3" font-family="Times,serif" font-size="14.00" fill="#0058ad">r 21 [1 2 3]</text>
<polyline fill="none" stroke="#0058ad" points="1127,-0.5 1127,-29.5 "/>
<text text-anchor="middle" x="1384.5" y="-11.3" font-family="Times,serif" font-size="14.00" fill="#0058ad">r 20 [1 2 3 4 5 6 7 8 9 10 11 12 13 14 15 16 17 18 19 20 21 22 23 24]</text>
<polyline fill="none" stroke="#0058ad" points="1642,-0.5 1642,-29.5 "/>
<text text-anchor="middle" x="1677" y="-11.3" font-family="Times,serif" font-size="14.00" fill="#0058ad">a 19 11</text>
</g>
<!-- T534&#45;&gt;T535 -->
<g id="edge1" class="edge">
<title>T534:f3&#45;&gt;T535:f4</title>
<path fill="none" stroke="#5b00c0" d="M1751,-81C1751,-50.85 1747.71,-22.05 1723.07,-16.11"/>
<polygon fill="#5b00c0" stroke="#5b00c0" points="1723.32,-12.62 1713,-15 1722.55,-19.58 1723.32,-12.62"/>
<text text-anchor="middle" x="1759.5" y="-51.8" font-family="Times,serif" font-size="14.00" fill="#5b00c0">rw</text>
</g>
<!-- T535&#45;&gt;T534 -->
<g id="edge2" class="edge">
<title>T535:f2&#45;&gt;T534:f0</title>
<path fill="none" stroke="#5b00c0" d="M1079,-30C1079,-55.96 1045.91,-52.74 1037.12,-70.94"/>
<polygon fill="#5b00c0" stroke="#5b00c0" points="1033.64,-70.49 1035,-81 1040.49,-71.94 1033.64,-70.49"/>
<text text-anchor="middle" x="1078.5" y="-51.8" font-family="Times,serif" font-size="14.00" fill="#5b00c0">rw</text>
</g>
</g>
</svg>
