<?xml version="1.0" encoding="UTF-8" standalone="no"?>
<!DOCTYPE svg PUBLIC "-//W3C//DTD SVG 1.1//EN"
 "http://www.w3.org/Graphics/SVG/1.1/DTD/svg11.dtd">
<!-- Generated by graphviz version 2.43.0 (0)
 -->
<!-- Title: a_graph Pages: 1 -->
<svg width="871pt" height="119pt"
 viewBox="0.00 0.00 871.00 119.00" xmlns="http://www.w3.org/2000/svg" xmlns:xlink="http://www.w3.org/1999/xlink">
<g id="graph0" class="graph" transform="scale(1 1) rotate(0) translate(4 115)">
<title>a_graph</title>
<polygon fill="white" stroke="transparent" points="-4,4 -4,-115 867,-115 867,4 -4,4"/>
<!-- T3392 -->
<g id="node1" class="node">
<title>T3392</title>
<polygon fill="none" stroke="#0058ad" points="0,-81.5 0,-110.5 863,-110.5 863,-81.5 0,-81.5"/>
<text text-anchor="middle" x="35" y="-92.3" font-family="Times,serif" font-size="14.00" fill="#0058ad">a 131 6</text>
<polyline fill="none" stroke="#0058ad" points="70,-81.5 70,-110.5 "/>
<text text-anchor="middle" x="190.5" y="-92.3" font-family="Times,serif" font-size="14.00" fill="#0058ad">r 130 [1 2 3 4 5 6 8 9 16 17 18]</text>
<polyline fill="none" stroke="#0058ad" points="311,-81.5 311,-110.5 "/>
<text text-anchor="middle" x="431.5" y="-92.3" font-family="Times,serif" font-size="14.00" fill="#0058ad">r 130 [1 2 3 4 5 6 8 9 16 17 18]</text>
<polyline fill="none" stroke="#0058ad" points="552,-81.5 552,-110.5 "/>
<text text-anchor="middle" x="587" y="-92.3" font-family="Times,serif" font-size="14.00" fill="#0058ad">a 131 7</text>
<polyline fill="none" stroke="#0058ad" points="622,-81.5 622,-110.5 "/>
<text text-anchor="middle" x="742.5" y="-92.3" font-family="Times,serif" font-size="14.00" fill="#0058ad">r 130 [1 2 3 4 5 6 8 9 16 17 18]</text>
</g>
<!-- T3393 -->
<g id="node2" class="node">
<title>T3393</title>
<polygon fill="none" stroke="#0058ad" points="21,-0.5 21,-29.5 756,-29.5 756,-0.5 21,-0.5"/>
<text text-anchor="middle" x="74" y="-11.3" font-family="Times,serif" font-size="14.00" fill="#0058ad">r 131 [1 4 5]</text>
<polyline fill="none" stroke="#0058ad" points="127,-0.5 127,-29.5 "/>
<text text-anchor="middle" x="166.5" y="-11.3" font-family="Times,serif" font-size="14.00" fill="#0058ad">a 130 19</text>
<polyline fill="none" stroke="#0058ad" points="206,-0.5 206,-29.5 "/>
<text text-anchor="middle" x="245.5" y="-11.3" font-family="Times,serif" font-size="14.00" fill="#0058ad">a 130 20</text>
<polyline fill="none" stroke="#0058ad" points="285,-0.5 285,-29.5 "/>
<text text-anchor="middle" x="428" y="-11.3" font-family="Times,serif" font-size="14.00" fill="#0058ad">r 130 [1 2 3 4 5 6 8 9 16 17 18 19 20]</text>
<polyline fill="none" stroke="#0058ad" points="571,-0.5 571,-29.5 "/>
<text text-anchor="middle" x="624" y="-11.3" font-family="Times,serif" font-size="14.00" fill="#0058ad">r 131 [1 4 5]</text>
<polyline fill="none" stroke="#0058ad" points="677,-0.5 677,-29.5 "/>
<text text-anchor="middle" x="716.5" y="-11.3" font-family="Times,serif" font-size="14.00" fill="#0058ad">a 130 21</text>
</g>
<!-- T3392&#45;&gt;T3393 -->
<g id="edge1" class="edge">
<title>T3392:f1&#45;&gt;T3393:f1</title>
<path fill="none" stroke="#5b00c0" d="M190.5,-81C190.5,-59.86 173.41,-55.92 168.07,-40.16"/>
<polygon fill="#5b00c0" stroke="#5b00c0" points="171.49,-39.35 166.5,-30 164.57,-40.42 171.49,-39.35"/>
<text text-anchor="middle" x="195" y="-51.8" font-family="Times,serif" font-size="14.00" fill="#5b00c0">rw</text>
</g>
<!-- T3393&#45;&gt;T3392 -->
<g id="edge2" class="edge">
<title>T3393:f0&#45;&gt;T3392:f0</title>
<path fill="none" stroke="#5b00c0" d="M73.5,-30C73.5,-54.52 44.7,-53.49 36.6,-70.82"/>
<polygon fill="#5b00c0" stroke="#5b00c0" points="33.09,-70.5 34.5,-81 39.95,-71.91 33.09,-70.5"/>
<text text-anchor="middle" x="75" y="-51.8" font-family="Times,serif" font-size="14.00" fill="#5b00c0">rw</text>
</g>
</g>
</svg>
