<?xml version="1.0" encoding="UTF-8" standalone="no"?>
<!DOCTYPE svg PUBLIC "-//W3C//DTD SVG 1.1//EN"
 "http://www.w3.org/Graphics/SVG/1.1/DTD/svg11.dtd">
<!-- Generated by graphviz version 2.43.0 (0)
 -->
<!-- Title: a_graph Pages: 1 -->
<svg width="4724pt" height="119pt"
 viewBox="0.00 0.00 4724.00 119.00" xmlns="http://www.w3.org/2000/svg" xmlns:xlink="http://www.w3.org/1999/xlink">
<g id="graph0" class="graph" transform="scale(1 1) rotate(0) translate(4 115)">
<title>a_graph</title>
<polygon fill="white" stroke="transparent" points="-4,4 -4,-115 4720,-115 4720,4 -4,4"/>
<!-- T1895 -->
<g id="node1" class="node">
<title>T1895</title>
<polygon fill="none" stroke="#0058ad" points="556,-81.5 556,-110.5 4716,-110.5 4716,-81.5 556,-81.5"/>
<text text-anchor="middle" x="843" y="-92.3" font-family="Times,serif" font-size="14.00" fill="#0058ad">r 70 [1 2 3 4 9 10 11 12 13 15 16 17 18 19 22 23 24 25 26 27 28 29 30 31 32]</text>
<polyline fill="none" stroke="#0058ad" points="1130,-81.5 1130,-110.5 "/>
<text text-anchor="middle" x="1417" y="-92.3" font-family="Times,serif" font-size="14.00" fill="#0058ad">r 70 [1 2 3 4 9 10 11 12 13 15 16 17 18 19 22 23 24 25 26 27 28 29 30 31 32]</text>
<polyline fill="none" stroke="#0058ad" points="1704,-81.5 1704,-110.5 "/>
<text text-anchor="middle" x="2004.5" y="-92.3" font-family="Times,serif" font-size="14.00" fill="#0058ad">r 66 [1 2 4 5 6 7 8 10 11 14 15 16 17 18 19 20 21 22 23 24 25 26 29 30 32 28 27]</text>
<polyline fill="none" stroke="#0058ad" points="2305,-81.5 2305,-110.5 "/>
<text text-anchor="middle" x="2605.5" y="-92.3" font-family="Times,serif" font-size="14.00" fill="#0058ad">r 66 [1 2 4 5 6 7 8 10 11 14 15 16 17 18 19 20 21 22 23 24 25 26 29 30 32 28 27]</text>
<polyline fill="none" stroke="#0058ad" points="2906,-81.5 2906,-110.5 "/>
<text text-anchor="middle" x="3193" y="-92.3" font-family="Times,serif" font-size="14.00" fill="#0058ad">r 70 [1 2 3 4 9 10 11 12 13 15 16 17 18 19 22 23 24 25 26 27 28 29 30 31 32]</text>
<polyline fill="none" stroke="#0058ad" points="3480,-81.5 3480,-110.5 "/>
<text text-anchor="middle" x="3510.5" y="-92.3" font-family="Times,serif" font-size="14.00" fill="#0058ad">a 69 4</text>
<polyline fill="none" stroke="#0058ad" points="3541,-81.5 3541,-110.5 "/>
<text text-anchor="middle" x="3841.5" y="-92.3" font-family="Times,serif" font-size="14.00" fill="#0058ad">r 66 [1 2 4 5 6 7 8 10 11 14 15 16 17 18 19 20 21 22 23 24 25 26 29 30 32 28 27]</text>
<polyline fill="none" stroke="#0058ad" points="4142,-81.5 4142,-110.5 "/>
<text text-anchor="middle" x="4429" y="-92.3" font-family="Times,serif" font-size="14.00" fill="#0058ad">r 70 [1 2 3 4 9 10 11 12 13 15 16 17 18 19 22 23 24 25 26 27 28 29 30 31 32]</text>
</g>
<!-- T1896 -->
<g id="node2" class="node">
<title>T1896</title>
<polygon fill="none" stroke="#0058ad" points="0,-0.5 0,-29.5 3606,-29.5 3606,-0.5 0,-0.5"/>
<text text-anchor="middle" x="287" y="-11.3" font-family="Times,serif" font-size="14.00" fill="#0058ad">r 70 [1 2 3 4 9 10 11 12 13 15 16 17 18 19 22 23 24 25 26 27 28 29 30 31 32]</text>
<polyline fill="none" stroke="#0058ad" points="574,-0.5 574,-29.5 "/>
<text text-anchor="middle" x="874.5" y="-11.3" font-family="Times,serif" font-size="14.00" fill="#0058ad">r 66 [1 2 4 5 6 7 8 10 11 14 15 16 17 18 19 20 21 22 23 24 25 26 29 30 32 28 27]</text>
<polyline fill="none" stroke="#0058ad" points="1175,-0.5 1175,-29.5 "/>
<text text-anchor="middle" x="1441.5" y="-11.3" font-family="Times,serif" font-size="14.00" fill="#0058ad">r 69 [1 2 3 5 7 8 10 11 12 13 14 15 16 17 18 19 20 9 21 22 23 24 25 26]</text>
<polyline fill="none" stroke="#0058ad" points="1708,-0.5 1708,-29.5 "/>
<text text-anchor="middle" x="2008.5" y="-11.3" font-family="Times,serif" font-size="14.00" fill="#0058ad">r 66 [1 2 4 5 6 7 8 10 11 14 15 16 17 18 19 20 21 22 23 24 25 26 29 30 32 28 27]</text>
<polyline fill="none" stroke="#0058ad" points="2309,-0.5 2309,-29.5 "/>
<text text-anchor="middle" x="2596" y="-11.3" font-family="Times,serif" font-size="14.00" fill="#0058ad">r 70 [1 2 3 4 9 10 11 12 13 15 16 17 18 19 22 23 24 25 26 27 28 29 30 31 32]</text>
<polyline fill="none" stroke="#0058ad" points="2883,-0.5 2883,-29.5 "/>
<text text-anchor="middle" x="2913.5" y="-11.3" font-family="Times,serif" font-size="14.00" fill="#0058ad">a 70 5</text>
<polyline fill="none" stroke="#0058ad" points="2944,-0.5 2944,-29.5 "/>
<text text-anchor="middle" x="3244.5" y="-11.3" font-family="Times,serif" font-size="14.00" fill="#0058ad">r 66 [1 2 4 5 6 7 8 10 11 14 15 16 17 18 19 20 21 22 23 24 25 26 29 30 32 28 27]</text>
<polyline fill="none" stroke="#0058ad" points="3545,-0.5 3545,-29.5 "/>
<text text-anchor="middle" x="3575.5" y="-11.3" font-family="Times,serif" font-size="14.00" fill="#0058ad">a 70 6</text>
</g>
<!-- T1895&#45;&gt;T1896 -->
<g id="edge1" class="edge">
<title>T1895:f0&#45;&gt;T1896:f5</title>
<path fill="none" stroke="#5b00c0" d="M843,-81C843,-25.59 2763.14,-82.96 2905.66,-35.92"/>
<polygon fill="#5b00c0" stroke="#5b00c0" points="2907.87,-38.64 2914,-30 2903.82,-32.93 2907.87,-38.64"/>
<text text-anchor="middle" x="2780.5" y="-51.8" font-family="Times,serif" font-size="14.00" fill="#5b00c0">rw</text>
</g>
<!-- T1896&#45;&gt;T1895 -->
<g id="edge2" class="edge">
<title>T1896:f2&#45;&gt;T1895:f5</title>
<path fill="none" stroke="#5b00c0" d="M1441,-30C1441,-48.79 2775.21,-47.44 2794,-48 2949.85,-52.62 3486.15,72.68 3510.17,-70.69"/>
<polygon fill="#5b00c0" stroke="#5b00c0" points="3506.71,-71.31 3511,-81 3513.68,-70.75 3506.71,-71.31"/>
<text text-anchor="middle" x="3514.5" y="-51.8" font-family="Times,serif" font-size="14.00" fill="#5b00c0">rw</text>
</g>
</g>
</svg>
