<?xml version="1.0" encoding="UTF-8" standalone="no"?>
<!DOCTYPE svg PUBLIC "-//W3C//DTD SVG 1.1//EN"
 "http://www.w3.org/Graphics/SVG/1.1/DTD/svg11.dtd">
<!-- Generated by graphviz version 2.43.0 (0)
 -->
<!-- Title: a_graph Pages: 1 -->
<svg width="1009pt" height="119pt"
 viewBox="0.00 0.00 1009.00 119.00" xmlns="http://www.w3.org/2000/svg" xmlns:xlink="http://www.w3.org/1999/xlink">
<g id="graph0" class="graph" transform="scale(1 1) rotate(0) translate(4 115)">
<title>a_graph</title>
<polygon fill="white" stroke="transparent" points="-4,4 -4,-115 1005,-115 1005,4 -4,4"/>
<!-- T717 -->
<g id="node1" class="node">
<title>T717</title>
<polygon fill="none" stroke="#0058ad" points="0,-81.5 0,-110.5 1001,-110.5 1001,-81.5 0,-81.5"/>
<text text-anchor="middle" x="35" y="-92.3" font-family="Times,serif" font-size="14.00" fill="#0058ad">a 29 10</text>
<polyline fill="none" stroke="#0058ad" points="70,-81.5 70,-110.5 "/>
<text text-anchor="middle" x="215" y="-92.3" font-family="Times,serif" font-size="14.00" fill="#0058ad">r 28 [1 2 3 4 5 6 7 8 9 10 11 12 13 14]</text>
<polyline fill="none" stroke="#0058ad" points="360,-81.5 360,-110.5 "/>
<text text-anchor="middle" x="460" y="-92.3" font-family="Times,serif" font-size="14.00" fill="#0058ad">r 29 [1 2 3 4 5 6 7 8 9 10]</text>
<polyline fill="none" stroke="#0058ad" points="560,-81.5 560,-110.5 "/>
<text text-anchor="middle" x="635.5" y="-92.3" font-family="Times,serif" font-size="14.00" fill="#0058ad">r 27 [1 2 3 4 5 6 7]</text>
<polyline fill="none" stroke="#0058ad" points="711,-81.5 711,-110.5 "/>
<text text-anchor="middle" x="856" y="-92.3" font-family="Times,serif" font-size="14.00" fill="#0058ad">r 28 [1 2 3 4 5 6 7 8 9 10 11 12 13 14]</text>
</g>
<!-- T716 -->
<g id="node2" class="node">
<title>T716</title>
<polygon fill="none" stroke="#0058ad" points="27.5,-0.5 27.5,-29.5 275.5,-29.5 275.5,-0.5 27.5,-0.5"/>
<text text-anchor="middle" x="62.5" y="-11.3" font-family="Times,serif" font-size="14.00" fill="#0058ad">a 28 15</text>
<polyline fill="none" stroke="#0058ad" points="97.5,-0.5 97.5,-29.5 "/>
<text text-anchor="middle" x="186.5" y="-11.3" font-family="Times,serif" font-size="14.00" fill="#0058ad">r 29 [1 2 3 4 5 6 7 8 9]</text>
</g>
<!-- T717&#45;&gt;T716 -->
<g id="edge1" class="edge">
<title>T717:f1&#45;&gt;T716:f0</title>
<path fill="none" stroke="#5b00c0" d="M214.5,-81C214.5,-65.55 100.19,-51.94 69.83,-36.98"/>
<polygon fill="#5b00c0" stroke="#5b00c0" points="72.16,-34.36 62.5,-30 67.33,-39.43 72.16,-34.36"/>
<text text-anchor="middle" x="179" y="-51.8" font-family="Times,serif" font-size="14.00" fill="#5b00c0">rw</text>
</g>
<!-- T716&#45;&gt;T717 -->
<g id="edge2" class="edge">
<title>T716:f1&#45;&gt;T717:f0</title>
<path fill="none" stroke="#5b00c0" d="M186.5,-30C186.5,-53.24 105.05,-39.32 83.5,-48 62.76,-56.35 41.81,-55.37 36.05,-71.11"/>
<polygon fill="#5b00c0" stroke="#5b00c0" points="32.59,-70.58 34.5,-81 39.5,-71.66 32.59,-70.58"/>
<text text-anchor="middle" x="93" y="-51.8" font-family="Times,serif" font-size="14.00" fill="#5b00c0">rw</text>
</g>
</g>
</svg>
