<?xml version="1.0" encoding="UTF-8" standalone="no"?>
<!DOCTYPE svg PUBLIC "-//W3C//DTD SVG 1.1//EN"
 "http://www.w3.org/Graphics/SVG/1.1/DTD/svg11.dtd">
<!-- Generated by graphviz version 2.43.0 (0)
 -->
<!-- Title: a_graph Pages: 1 -->
<svg width="1132pt" height="119pt"
 viewBox="0.00 0.00 1132.00 119.00" xmlns="http://www.w3.org/2000/svg" xmlns:xlink="http://www.w3.org/1999/xlink">
<g id="graph0" class="graph" transform="scale(1 1) rotate(0) translate(4 115)">
<title>a_graph</title>
<polygon fill="white" stroke="transparent" points="-4,4 -4,-115 1128,-115 1128,4 -4,4"/>
<!-- T1290 -->
<g id="node1" class="node">
<title>T1290</title>
<polygon fill="none" stroke="#0058ad" points="316,-81.5 316,-110.5 1080,-110.5 1080,-81.5 316,-81.5"/>
<text text-anchor="middle" x="346.5" y="-92.3" font-family="Times,serif" font-size="14.00" fill="#0058ad">a 52 8</text>
<polyline fill="none" stroke="#0058ad" points="377,-81.5 377,-110.5 "/>
<text text-anchor="middle" x="407.5" y="-92.3" font-family="Times,serif" font-size="14.00" fill="#0058ad">a 52 9</text>
<polyline fill="none" stroke="#0058ad" points="438,-81.5 438,-110.5 "/>
<text text-anchor="middle" x="565" y="-92.3" font-family="Times,serif" font-size="14.00" fill="#0058ad">r 51 [1 2 3 4 5 6 7 8 13 14 15 16]</text>
<polyline fill="none" stroke="#0058ad" points="692,-81.5 692,-110.5 "/>
<text text-anchor="middle" x="781" y="-92.3" font-family="Times,serif" font-size="14.00" fill="#0058ad">r 52 [1 2 3 4 5 6 7 8 9]</text>
<polyline fill="none" stroke="#0058ad" points="870,-81.5 870,-110.5 "/>
<text text-anchor="middle" x="905" y="-92.3" font-family="Times,serif" font-size="14.00" fill="#0058ad">a 50 14</text>
<polyline fill="none" stroke="#0058ad" points="940,-81.5 940,-110.5 "/>
<text text-anchor="middle" x="975" y="-92.3" font-family="Times,serif" font-size="14.00" fill="#0058ad">a 52 10</text>
<polyline fill="none" stroke="#0058ad" points="1010,-81.5 1010,-110.5 "/>
<text text-anchor="middle" x="1045" y="-92.3" font-family="Times,serif" font-size="14.00" fill="#0058ad">a 52 11</text>
</g>
<!-- T1289 -->
<g id="node2" class="node">
<title>T1289</title>
<polygon fill="none" stroke="#0058ad" points="0,-0.5 0,-29.5 1124,-29.5 1124,-0.5 0,-0.5"/>
<text text-anchor="middle" x="127" y="-11.3" font-family="Times,serif" font-size="14.00" fill="#0058ad">r 51 [1 2 3 4 5 6 7 8 13 14 15 16]</text>
<polyline fill="none" stroke="#0058ad" points="254,-0.5 254,-29.5 "/>
<text text-anchor="middle" x="329.5" y="-11.3" font-family="Times,serif" font-size="14.00" fill="#0058ad">r 52 [1 2 3 4 5 6 7]</text>
<polyline fill="none" stroke="#0058ad" points="405,-0.5 405,-29.5 "/>
<text text-anchor="middle" x="480.5" y="-11.3" font-family="Times,serif" font-size="14.00" fill="#0058ad">r 52 [1 2 3 4 5 6 7]</text>
<polyline fill="none" stroke="#0058ad" points="556,-0.5 556,-29.5 "/>
<text text-anchor="middle" x="591" y="-11.3" font-family="Times,serif" font-size="14.00" fill="#0058ad">a 51 17</text>
<polyline fill="none" stroke="#0058ad" points="626,-0.5 626,-29.5 "/>
<text text-anchor="middle" x="764.5" y="-11.3" font-family="Times,serif" font-size="14.00" fill="#0058ad">r 51 [1 2 3 4 5 6 7 8 13 14 15 16 17]</text>
<polyline fill="none" stroke="#0058ad" points="903,-0.5 903,-29.5 "/>
<text text-anchor="middle" x="938" y="-11.3" font-family="Times,serif" font-size="14.00" fill="#0058ad">a 51 18</text>
<polyline fill="none" stroke="#0058ad" points="973,-0.5 973,-29.5 "/>
<text text-anchor="middle" x="1048.5" y="-11.3" font-family="Times,serif" font-size="14.00" fill="#0058ad">r 52 [1 2 3 4 5 6 7]</text>
</g>
<!-- T1290&#45;&gt;T1289 -->
<g id="edge1" class="edge">
<title>T1290:f2&#45;&gt;T1289:f3</title>
<path fill="none" stroke="#5b00c0" d="M565,-81C565,-59.53 583.51,-56.1 589.29,-40.26"/>
<polygon fill="#5b00c0" stroke="#5b00c0" points="592.81,-40.44 591,-30 585.91,-39.29 592.81,-40.44"/>
<text text-anchor="middle" x="594.5" y="-51.8" font-family="Times,serif" font-size="14.00" fill="#5b00c0">rw</text>
</g>
<!-- T1289&#45;&gt;T1290 -->
<g id="edge2" class="edge">
<title>T1289:f1&#45;&gt;T1290:f0</title>
<path fill="none" stroke="#5b00c0" d="M329,-30C329,-49.97 340.88,-55.5 344.78,-70.73"/>
<polygon fill="#5b00c0" stroke="#5b00c0" points="341.34,-71.48 346,-81 348.29,-70.66 341.34,-71.48"/>
<text text-anchor="middle" x="351.5" y="-51.8" font-family="Times,serif" font-size="14.00" fill="#5b00c0">rw</text>
</g>
</g>
</svg>
