<?xml version="1.0" encoding="UTF-8" standalone="no"?>
<!DOCTYPE svg PUBLIC "-//W3C//DTD SVG 1.1//EN"
 "http://www.w3.org/Graphics/SVG/1.1/DTD/svg11.dtd">
<!-- Generated by graphviz version 2.43.0 (0)
 -->
<!-- Title: a_graph Pages: 1 -->
<svg width="846pt" height="119pt"
 viewBox="0.00 0.00 846.00 119.00" xmlns="http://www.w3.org/2000/svg" xmlns:xlink="http://www.w3.org/1999/xlink">
<g id="graph0" class="graph" transform="scale(1 1) rotate(0) translate(4 115)">
<title>a_graph</title>
<polygon fill="white" stroke="transparent" points="-4,4 -4,-115 842,-115 842,4 -4,4"/>
<!-- T1282 -->
<g id="node1" class="node">
<title>T1282</title>
<polygon fill="none" stroke="#0058ad" points="0,-81.5 0,-110.5 838,-110.5 838,-81.5 0,-81.5"/>
<text text-anchor="middle" x="30.5" y="-92.3" font-family="Times,serif" font-size="14.00" fill="#0058ad">r 52 []</text>
<polyline fill="none" stroke="#0058ad" points="61,-81.5 61,-110.5 "/>
<text text-anchor="middle" x="143" y="-92.3" font-family="Times,serif" font-size="14.00" fill="#0058ad">r 51 [1 2 3 4 5 6 7 8]</text>
<polyline fill="none" stroke="#0058ad" points="225,-81.5 225,-110.5 "/>
<text text-anchor="middle" x="255.5" y="-92.3" font-family="Times,serif" font-size="14.00" fill="#0058ad">a 52 1</text>
<polyline fill="none" stroke="#0058ad" points="286,-81.5 286,-110.5 "/>
<text text-anchor="middle" x="368" y="-92.3" font-family="Times,serif" font-size="14.00" fill="#0058ad">r 51 [1 2 3 4 5 6 7 8]</text>
<polyline fill="none" stroke="#0058ad" points="450,-81.5 450,-110.5 "/>
<text text-anchor="middle" x="480.5" y="-92.3" font-family="Times,serif" font-size="14.00" fill="#0058ad">a 52 2</text>
<polyline fill="none" stroke="#0058ad" points="511,-81.5 511,-110.5 "/>
<text text-anchor="middle" x="541.5" y="-92.3" font-family="Times,serif" font-size="14.00" fill="#0058ad">a 52 3</text>
<polyline fill="none" stroke="#0058ad" points="572,-81.5 572,-110.5 "/>
<text text-anchor="middle" x="674.5" y="-92.3" font-family="Times,serif" font-size="14.00" fill="#0058ad">r 50 [1 2 3 4 5 6 10 11 12]</text>
<polyline fill="none" stroke="#0058ad" points="777,-81.5 777,-110.5 "/>
<text text-anchor="middle" x="807.5" y="-92.3" font-family="Times,serif" font-size="14.00" fill="#0058ad">a 52 4</text>
</g>
<!-- T1281 -->
<g id="node2" class="node">
<title>T1281</title>
<polygon fill="none" stroke="#0058ad" points="408,-0.5 408,-29.5 600,-29.5 600,-0.5 408,-0.5"/>
<text text-anchor="middle" x="438.5" y="-11.3" font-family="Times,serif" font-size="14.00" fill="#0058ad">r 52 []</text>
<polyline fill="none" stroke="#0058ad" points="469,-0.5 469,-29.5 "/>
<text text-anchor="middle" x="499.5" y="-11.3" font-family="Times,serif" font-size="14.00" fill="#0058ad">r 52 []</text>
<polyline fill="none" stroke="#0058ad" points="530,-0.5 530,-29.5 "/>
<text text-anchor="middle" x="565" y="-11.3" font-family="Times,serif" font-size="14.00" fill="#0058ad">a 50 13</text>
</g>
<!-- T1282&#45;&gt;T1281 -->
<g id="edge1" class="edge">
<title>T1282:f6&#45;&gt;T1281:f2</title>
<path fill="none" stroke="#5b00c0" d="M675,-81C675,-40.37 649.56,-18.56 611.06,-15.4"/>
<polygon fill="#5b00c0" stroke="#5b00c0" points="611.13,-11.9 601,-15 610.85,-18.9 611.13,-11.9"/>
<text text-anchor="middle" x="681.5" y="-51.8" font-family="Times,serif" font-size="14.00" fill="#5b00c0">rw</text>
</g>
<!-- T1281&#45;&gt;T1282 -->
<g id="edge2" class="edge">
<title>T1281:f0&#45;&gt;T1282:f2</title>
<path fill="none" stroke="#5b00c0" d="M407,-15C373.48,-15 275.06,-39.17 257.65,-71.28"/>
<polygon fill="#5b00c0" stroke="#5b00c0" points="254.25,-70.43 255,-81 261.01,-72.27 254.25,-70.43"/>
<text text-anchor="middle" x="294.5" y="-51.8" font-family="Times,serif" font-size="14.00" fill="#5b00c0">rw</text>
</g>
</g>
</svg>
