<?xml version="1.0" encoding="UTF-8" standalone="no"?>
<!DOCTYPE svg PUBLIC "-//W3C//DTD SVG 1.1//EN"
 "http://www.w3.org/Graphics/SVG/1.1/DTD/svg11.dtd">
<!-- Generated by graphviz version 2.43.0 (0)
 -->
<!-- Title: a_graph Pages: 1 -->
<svg width="2598pt" height="119pt"
 viewBox="0.00 0.00 2598.00 119.00" xmlns="http://www.w3.org/2000/svg" xmlns:xlink="http://www.w3.org/1999/xlink">
<g id="graph0" class="graph" transform="scale(1 1) rotate(0) translate(4 115)">
<title>a_graph</title>
<polygon fill="white" stroke="transparent" points="-4,4 -4,-115 2594,-115 2594,4 -4,4"/>
<!-- T1902 -->
<g id="node1" class="node">
<title>T1902</title>
<polygon fill="none" stroke="#0058ad" points="0,-81.5 0,-110.5 2590,-110.5 2590,-81.5 0,-81.5"/>
<text text-anchor="middle" x="307" y="-92.3" font-family="Times,serif" font-size="14.00" fill="#0058ad">r 65 [1 2 3 4 5 7 8 9 10 11 12 13 14 15 16 17 18 20 21 22 23 24 27 28 29 30 31 32]</text>
<polyline fill="none" stroke="#0058ad" points="614,-81.5 614,-110.5 "/>
<text text-anchor="middle" x="921" y="-92.3" font-family="Times,serif" font-size="14.00" fill="#0058ad">r 65 [1 2 3 4 5 7 8 9 10 11 12 13 14 15 16 17 18 20 21 22 23 24 27 28 29 30 31 32]</text>
<polyline fill="none" stroke="#0058ad" points="1228,-81.5 1228,-110.5 "/>
<text text-anchor="middle" x="1524" y="-92.3" font-family="Times,serif" font-size="14.00" fill="#0058ad">r 61 [1 2 3 5 6 7 8 9 11 12 13 14 15 16 17 18 19 21 22 23 24 25 26 27 28 29 32]</text>
<polyline fill="none" stroke="#0058ad" points="1820,-81.5 1820,-110.5 "/>
<text text-anchor="middle" x="2100" y="-92.3" font-family="Times,serif" font-size="14.00" fill="#0058ad">r 66 [1 2 3 4 5 6 7 8 9 10 11 12 13 14 15 17 18 19 20 24 25 26 27 28 29 32]</text>
<polyline fill="none" stroke="#0058ad" points="2380,-81.5 2380,-110.5 "/>
<text text-anchor="middle" x="2415" y="-92.3" font-family="Times,serif" font-size="14.00" fill="#0058ad">a 66 21</text>
<polyline fill="none" stroke="#0058ad" points="2450,-81.5 2450,-110.5 "/>
<text text-anchor="middle" x="2485" y="-92.3" font-family="Times,serif" font-size="14.00" fill="#0058ad">a 66 22</text>
<polyline fill="none" stroke="#0058ad" points="2520,-81.5 2520,-110.5 "/>
<text text-anchor="middle" x="2555" y="-92.3" font-family="Times,serif" font-size="14.00" fill="#0058ad">a 66 23</text>
</g>
<!-- T1901 -->
<g id="node2" class="node">
<title>T1901</title>
<polygon fill="none" stroke="#0058ad" points="923,-0.5 923,-29.5 1623,-29.5 1623,-0.5 923,-0.5"/>
<text text-anchor="middle" x="1203" y="-11.3" font-family="Times,serif" font-size="14.00" fill="#0058ad">r 66 [1 2 3 4 5 6 7 8 9 10 11 12 13 14 15 17 18 19 20 24 25 26 27 28 29 32]</text>
<polyline fill="none" stroke="#0058ad" points="1483,-0.5 1483,-29.5 "/>
<text text-anchor="middle" x="1518" y="-11.3" font-family="Times,serif" font-size="14.00" fill="#0058ad">a 65 25</text>
<polyline fill="none" stroke="#0058ad" points="1553,-0.5 1553,-29.5 "/>
<text text-anchor="middle" x="1588" y="-11.3" font-family="Times,serif" font-size="14.00" fill="#0058ad">a 65 26</text>
</g>
<!-- T1902&#45;&gt;T1901 -->
<g id="edge1" class="edge">
<title>T1902:f0&#45;&gt;T1901:f1</title>
<path fill="none" stroke="#5b00c0" d="M307,-81C307,50.12 1454.98,-153.41 1515.52,-39.93"/>
<polygon fill="#5b00c0" stroke="#5b00c0" points="1518.97,-40.55 1518,-30 1512.18,-38.85 1518.97,-40.55"/>
<text text-anchor="middle" x="1514.5" y="-51.8" font-family="Times,serif" font-size="14.00" fill="#5b00c0">rw</text>
</g>
<!-- T1901&#45;&gt;T1902 -->
<g id="edge2" class="edge">
<title>T1901:f0&#45;&gt;T1902:f4</title>
<path fill="none" stroke="#5b00c0" d="M1203,-30C1203,-45.96 2290.54,-62.33 2405.24,-78.33"/>
<polygon fill="#5b00c0" stroke="#5b00c0" points="2404.43,-81.74 2415,-81 2406.28,-74.99 2404.43,-81.74"/>
<text text-anchor="middle" x="2065.5" y="-51.8" font-family="Times,serif" font-size="14.00" fill="#5b00c0">rw</text>
</g>
</g>
</svg>
