<?xml version="1.0" encoding="UTF-8" standalone="no"?>
<!DOCTYPE svg PUBLIC "-//W3C//DTD SVG 1.1//EN"
 "http://www.w3.org/Graphics/SVG/1.1/DTD/svg11.dtd">
<!-- Generated by graphviz version 2.43.0 (0)
 -->
<!-- Title: a_graph Pages: 1 -->
<svg width="1836pt" height="119pt"
 viewBox="0.00 0.00 1836.00 119.00" xmlns="http://www.w3.org/2000/svg" xmlns:xlink="http://www.w3.org/1999/xlink">
<g id="graph0" class="graph" transform="scale(1 1) rotate(0) translate(4 115)">
<title>a_graph</title>
<polygon fill="white" stroke="transparent" points="-4,4 -4,-115 1832,-115 1832,4 -4,4"/>
<!-- T2783 -->
<g id="node1" class="node">
<title>T2783</title>
<polygon fill="none" stroke="#0058ad" points="0,-81.5 0,-110.5 1828,-110.5 1828,-81.5 0,-81.5"/>
<text text-anchor="middle" x="39.5" y="-92.3" font-family="Times,serif" font-size="14.00" fill="#0058ad">a 102 15</text>
<polyline fill="none" stroke="#0058ad" points="79,-81.5 79,-110.5 "/>
<text text-anchor="middle" x="210.5" y="-92.3" font-family="Times,serif" font-size="14.00" fill="#0058ad">r 102 [1 2 3 4 5 6 8 9 12 13 14 15]</text>
<polyline fill="none" stroke="#0058ad" points="342,-81.5 342,-110.5 "/>
<text text-anchor="middle" x="570.5" y="-92.3" font-family="Times,serif" font-size="14.00" fill="#0058ad">r 103 [1 2 3 4 5 6 7 8 9 10 11 12 13 14 17 18 19 21 22 23 24]</text>
<polyline fill="none" stroke="#0058ad" points="799,-81.5 799,-110.5 "/>
<text text-anchor="middle" x="930.5" y="-92.3" font-family="Times,serif" font-size="14.00" fill="#0058ad">r 102 [1 2 3 4 5 6 8 9 12 13 14 15]</text>
<polyline fill="none" stroke="#0058ad" points="1062,-81.5 1062,-110.5 "/>
<text text-anchor="middle" x="1290.5" y="-92.3" font-family="Times,serif" font-size="14.00" fill="#0058ad">r 103 [1 2 3 4 5 6 7 8 9 10 11 12 13 14 17 18 19 21 22 23 24]</text>
<polyline fill="none" stroke="#0058ad" points="1519,-81.5 1519,-110.5 "/>
<text text-anchor="middle" x="1599" y="-92.3" font-family="Times,serif" font-size="14.00" fill="#0058ad">r 104 [1 3 4 5 6 7 8]</text>
<polyline fill="none" stroke="#0058ad" points="1679,-81.5 1679,-110.5 "/>
<text text-anchor="middle" x="1714" y="-92.3" font-family="Times,serif" font-size="14.00" fill="#0058ad">a 104 9</text>
<polyline fill="none" stroke="#0058ad" points="1749,-81.5 1749,-110.5 "/>
<text text-anchor="middle" x="1788.5" y="-92.3" font-family="Times,serif" font-size="14.00" fill="#0058ad">a 104 10</text>
</g>
<!-- T2784 -->
<g id="node2" class="node">
<title>T2784</title>
<polygon fill="none" stroke="#0058ad" points="1298.5,-0.5 1298.5,-29.5 1537.5,-29.5 1537.5,-0.5 1298.5,-0.5"/>
<text text-anchor="middle" x="1338" y="-11.3" font-family="Times,serif" font-size="14.00" fill="#0058ad">a 103 25</text>
<polyline fill="none" stroke="#0058ad" points="1377.5,-0.5 1377.5,-29.5 "/>
<text text-anchor="middle" x="1457.5" y="-11.3" font-family="Times,serif" font-size="14.00" fill="#0058ad">r 104 [1 3 4 5 6 7 8]</text>
</g>
<!-- T2783&#45;&gt;T2784 -->
<g id="edge1" class="edge">
<title>T2783:f2&#45;&gt;T2784:f0</title>
<path fill="none" stroke="#5b00c0" d="M570,-81C570,-42.39 1192.32,-17.47 1286.89,-15.17"/>
<polygon fill="#5b00c0" stroke="#5b00c0" points="1287.06,-18.67 1297,-15 1286.94,-11.67 1287.06,-18.67"/>
<text text-anchor="middle" x="729.5" y="-51.8" font-family="Times,serif" font-size="14.00" fill="#5b00c0">rw</text>
</g>
<!-- T2784&#45;&gt;T2783 -->
<g id="edge2" class="edge">
<title>T2784:f1&#45;&gt;T2783:f6</title>
<path fill="none" stroke="#5b00c0" d="M1539,-15C1577.15,-15 1692.73,-35.59 1711.43,-71.12"/>
<polygon fill="#5b00c0" stroke="#5b00c0" points="1708.1,-72.2 1714,-81 1714.87,-70.44 1708.1,-72.2"/>
<text text-anchor="middle" x="1713.5" y="-51.8" font-family="Times,serif" font-size="14.00" fill="#5b00c0">rw</text>
</g>
</g>
</svg>
