<?xml version="1.0" encoding="UTF-8" standalone="no"?>
<!DOCTYPE svg PUBLIC "-//W3C//DTD SVG 1.1//EN"
 "http://www.w3.org/Graphics/SVG/1.1/DTD/svg11.dtd">
<!-- Generated by graphviz version 2.43.0 (0)
 -->
<!-- Title: a_graph Pages: 1 -->
<svg width="1220pt" height="119pt"
 viewBox="0.00 0.00 1219.50 119.00" xmlns="http://www.w3.org/2000/svg" xmlns:xlink="http://www.w3.org/1999/xlink">
<g id="graph0" class="graph" transform="scale(1 1) rotate(0) translate(4 115)">
<title>a_graph</title>
<polygon fill="white" stroke="transparent" points="-4,4 -4,-115 1215.5,-115 1215.5,4 -4,4"/>
<!-- T2100 -->
<g id="node1" class="node">
<title>T2100</title>
<polygon fill="none" stroke="#0058ad" points="100.5,-81.5 100.5,-110.5 1211.5,-110.5 1211.5,-81.5 100.5,-81.5"/>
<text text-anchor="middle" x="131" y="-92.3" font-family="Times,serif" font-size="14.00" fill="#0058ad">a 79 4</text>
<polyline fill="none" stroke="#0058ad" points="161.5,-81.5 161.5,-110.5 "/>
<text text-anchor="middle" x="196.5" y="-92.3" font-family="Times,serif" font-size="14.00" fill="#0058ad">a 76 18</text>
<polyline fill="none" stroke="#0058ad" points="231.5,-81.5 231.5,-110.5 "/>
<text text-anchor="middle" x="354" y="-92.3" font-family="Times,serif" font-size="14.00" fill="#0058ad">r 78 [1 2 3 4 5 6 7 8 9 10 11 12]</text>
<polyline fill="none" stroke="#0058ad" points="476.5,-81.5 476.5,-110.5 "/>
<text text-anchor="middle" x="599" y="-92.3" font-family="Times,serif" font-size="14.00" fill="#0058ad">r 78 [1 2 3 4 5 6 7 8 9 10 11 12]</text>
<polyline fill="none" stroke="#0058ad" points="721.5,-81.5 721.5,-110.5 "/>
<text text-anchor="middle" x="844" y="-92.3" font-family="Times,serif" font-size="14.00" fill="#0058ad">r 78 [1 2 3 4 5 6 7 8 9 10 11 12]</text>
<polyline fill="none" stroke="#0058ad" points="966.5,-81.5 966.5,-110.5 "/>
<text text-anchor="middle" x="1089" y="-92.3" font-family="Times,serif" font-size="14.00" fill="#0058ad">r 78 [1 2 3 4 5 6 7 8 9 10 11 12]</text>
</g>
<!-- T2099 -->
<g id="node2" class="node">
<title>T2099</title>
<polygon fill="none" stroke="#0058ad" points="0,-0.5 0,-29.5 638,-29.5 638,-0.5 0,-0.5"/>
<text text-anchor="middle" x="35" y="-11.3" font-family="Times,serif" font-size="14.00" fill="#0058ad">a 78 13</text>
<polyline fill="none" stroke="#0058ad" points="70,-0.5 70,-29.5 "/>
<text text-anchor="middle" x="235.5" y="-11.3" font-family="Times,serif" font-size="14.00" fill="#0058ad">r 76 [3 4 5 6 7 8 9 10 11 12 13 14 15 16 17]</text>
<polyline fill="none" stroke="#0058ad" points="401,-0.5 401,-29.5 "/>
<text text-anchor="middle" x="449.5" y="-11.3" font-family="Times,serif" font-size="14.00" fill="#0058ad">r 79 [1 2 3]</text>
<polyline fill="none" stroke="#0058ad" points="498,-0.5 498,-29.5 "/>
<text text-anchor="middle" x="533" y="-11.3" font-family="Times,serif" font-size="14.00" fill="#0058ad">a 78 14</text>
<polyline fill="none" stroke="#0058ad" points="568,-0.5 568,-29.5 "/>
<text text-anchor="middle" x="603" y="-11.3" font-family="Times,serif" font-size="14.00" fill="#0058ad">a 78 15</text>
</g>
<!-- T2100&#45;&gt;T2099 -->
<g id="edge1" class="edge">
<title>T2100:f2&#45;&gt;T2099:f0</title>
<path fill="none" stroke="#5b00c0" d="M354,-81C354,-11 269.11,-59.14 200,-48 184.35,-45.48 73.74,-47.62 42.94,-36.56"/>
<polygon fill="#5b00c0" stroke="#5b00c0" points="44.94,-33.67 35,-30 40.48,-39.07 44.94,-33.67"/>
<text text-anchor="middle" x="359.5" y="-51.8" font-family="Times,serif" font-size="14.00" fill="#5b00c0">rw</text>
</g>
<!-- T2099&#45;&gt;T2100 -->
<g id="edge2" class="edge">
<title>T2099:f2&#45;&gt;T2100:f0</title>
<path fill="none" stroke="#5b00c0" d="M450,-30C450,-60.4 205.62,-37.75 177,-48 157.01,-55.16 138.01,-55.82 132.55,-70.96"/>
<polygon fill="#5b00c0" stroke="#5b00c0" points="129.07,-70.58 131,-81 135.99,-71.65 129.07,-70.58"/>
<text text-anchor="middle" x="186.5" y="-51.8" font-family="Times,serif" font-size="14.00" fill="#5b00c0">rw</text>
</g>
</g>
</svg>
