<?xml version="1.0" encoding="UTF-8" standalone="no"?>
<!DOCTYPE svg PUBLIC "-//W3C//DTD SVG 1.1//EN"
 "http://www.w3.org/Graphics/SVG/1.1/DTD/svg11.dtd">
<!-- Generated by graphviz version 2.43.0 (0)
 -->
<!-- Title: a_graph Pages: 1 -->
<svg width="2186pt" height="119pt"
 viewBox="0.00 0.00 2186.00 119.00" xmlns="http://www.w3.org/2000/svg" xmlns:xlink="http://www.w3.org/1999/xlink">
<g id="graph0" class="graph" transform="scale(1 1) rotate(0) translate(4 115)">
<title>a_graph</title>
<polygon fill="white" stroke="transparent" points="-4,4 -4,-115 2182,-115 2182,4 -4,4"/>
<!-- T1657 -->
<g id="node1" class="node">
<title>T1657</title>
<polygon fill="none" stroke="#0058ad" points="636,-81.5 636,-110.5 1600,-110.5 1600,-81.5 636,-81.5"/>
<text text-anchor="middle" x="675.5" y="-92.3" font-family="Times,serif" font-size="14.00" fill="#0058ad">a 115 24</text>
<polyline fill="none" stroke="#0058ad" points="715,-81.5 715,-110.5 "/>
<text text-anchor="middle" x="959" y="-92.3" font-family="Times,serif" font-size="14.00" fill="#0058ad">r 115 [1 2 3 4 5 6 7 9 10 11 12 14 15 16 17 18 19 20 21 22 23 24]</text>
<polyline fill="none" stroke="#0058ad" points="1203,-81.5 1203,-110.5 "/>
<text text-anchor="middle" x="1242.5" y="-92.3" font-family="Times,serif" font-size="14.00" fill="#0058ad">a 115 25</text>
<polyline fill="none" stroke="#0058ad" points="1282,-81.5 1282,-110.5 "/>
<text text-anchor="middle" x="1335" y="-92.3" font-family="Times,serif" font-size="14.00" fill="#0058ad">r 117 [1 2 3]</text>
<polyline fill="none" stroke="#0058ad" points="1388,-81.5 1388,-110.5 "/>
<text text-anchor="middle" x="1441" y="-92.3" font-family="Times,serif" font-size="14.00" fill="#0058ad">r 117 [1 2 3]</text>
<polyline fill="none" stroke="#0058ad" points="1494,-81.5 1494,-110.5 "/>
<text text-anchor="middle" x="1547" y="-92.3" font-family="Times,serif" font-size="14.00" fill="#0058ad">r 117 [1 2 3]</text>
</g>
<!-- T1656 -->
<g id="node2" class="node">
<title>T1656</title>
<polygon fill="none" stroke="#0058ad" points="0,-0.5 0,-29.5 2178,-29.5 2178,-0.5 0,-0.5"/>
<text text-anchor="middle" x="39.5" y="-11.3" font-family="Times,serif" font-size="14.00" fill="#0058ad">a 114 15</text>
<polyline fill="none" stroke="#0058ad" points="79,-0.5 79,-29.5 "/>
<text text-anchor="middle" x="312" y="-11.3" font-family="Times,serif" font-size="14.00" fill="#0058ad">r 115 [1 2 3 4 5 6 7 9 10 11 12 14 15 16 17 18 19 20 21 22 23]</text>
<polyline fill="none" stroke="#0058ad" points="545,-0.5 545,-29.5 "/>
<text text-anchor="middle" x="706" y="-11.3" font-family="Times,serif" font-size="14.00" fill="#0058ad">r 114 [1 2 3 4 5 6 7 8 9 10 11 12 13 14 15]</text>
<polyline fill="none" stroke="#0058ad" points="867,-0.5 867,-29.5 "/>
<text text-anchor="middle" x="920" y="-11.3" font-family="Times,serif" font-size="14.00" fill="#0058ad">r 117 [1 2 3]</text>
<polyline fill="none" stroke="#0058ad" points="973,-0.5 973,-29.5 "/>
<text text-anchor="middle" x="1206" y="-11.3" font-family="Times,serif" font-size="14.00" fill="#0058ad">r 115 [1 2 3 4 5 6 7 9 10 11 12 14 15 16 17 18 19 20 21 22 23]</text>
<polyline fill="none" stroke="#0058ad" points="1439,-0.5 1439,-29.5 "/>
<text text-anchor="middle" x="1672" y="-11.3" font-family="Times,serif" font-size="14.00" fill="#0058ad">r 115 [1 2 3 4 5 6 7 9 10 11 12 14 15 16 17 18 19 20 21 22 23]</text>
<polyline fill="none" stroke="#0058ad" points="1905,-0.5 1905,-29.5 "/>
<text text-anchor="middle" x="1940" y="-11.3" font-family="Times,serif" font-size="14.00" fill="#0058ad">a 117 4</text>
<polyline fill="none" stroke="#0058ad" points="1975,-0.5 1975,-29.5 "/>
<text text-anchor="middle" x="2010" y="-11.3" font-family="Times,serif" font-size="14.00" fill="#0058ad">a 117 5</text>
<polyline fill="none" stroke="#0058ad" points="2045,-0.5 2045,-29.5 "/>
<text text-anchor="middle" x="2111.5" y="-11.3" font-family="Times,serif" font-size="14.00" fill="#0058ad">r 117 [1 2 3 4 5]</text>
</g>
<!-- T1657&#45;&gt;T1656 -->
<g id="edge1" class="edge">
<title>T1657:f3&#45;&gt;T1656:f6</title>
<path fill="none" stroke="#5b00c0" d="M1335,-81C1335,50.36 1908.52,-153.63 1938.76,-39.95"/>
<polygon fill="#5b00c0" stroke="#5b00c0" points="1942.24,-40.36 1940,-30 1935.29,-39.49 1942.24,-40.36"/>
<text text-anchor="middle" x="1942.5" y="-51.8" font-family="Times,serif" font-size="14.00" fill="#5b00c0">rw</text>
</g>
<!-- T1656&#45;&gt;T1657 -->
<g id="edge2" class="edge">
<title>T1656:f1&#45;&gt;T1657:f0</title>
<path fill="none" stroke="#5b00c0" d="M312,-30C312,-64.27 562.64,-92.18 624.95,-95.64"/>
<polygon fill="#5b00c0" stroke="#5b00c0" points="624.88,-99.14 635,-96 625.13,-92.14 624.88,-99.14"/>
<text text-anchor="middle" x="391.5" y="-51.8" font-family="Times,serif" font-size="14.00" fill="#5b00c0">rw</text>
</g>
</g>
</svg>
