<?xml version="1.0" encoding="UTF-8" standalone="no"?>
<!DOCTYPE svg PUBLIC "-//W3C//DTD SVG 1.1//EN"
 "http://www.w3.org/Graphics/SVG/1.1/DTD/svg11.dtd">
<!-- Generated by graphviz version 2.43.0 (0)
 -->
<!-- Title: a_graph Pages: 1 -->
<svg width="1080pt" height="119pt"
 viewBox="0.00 0.00 1079.50 119.00" xmlns="http://www.w3.org/2000/svg" xmlns:xlink="http://www.w3.org/1999/xlink">
<g id="graph0" class="graph" transform="scale(1 1) rotate(0) translate(4 115)">
<title>a_graph</title>
<polygon fill="white" stroke="transparent" points="-4,4 -4,-115 1075.5,-115 1075.5,4 -4,4"/>
<!-- T623 -->
<g id="node1" class="node">
<title>T623</title>
<polygon fill="none" stroke="#0058ad" points="0,-81.5 0,-110.5 389,-110.5 389,-81.5 0,-81.5"/>
<text text-anchor="middle" x="82" y="-92.3" font-family="Times,serif" font-size="14.00" fill="#0058ad">r 46 [1 2 3 4 5 6 7 8]</text>
<polyline fill="none" stroke="#0058ad" points="164,-81.5 164,-110.5 "/>
<text text-anchor="middle" x="246" y="-92.3" font-family="Times,serif" font-size="14.00" fill="#0058ad">r 46 [1 2 3 4 5 6 7 8]</text>
<polyline fill="none" stroke="#0058ad" points="328,-81.5 328,-110.5 "/>
<text text-anchor="middle" x="358.5" y="-92.3" font-family="Times,serif" font-size="14.00" fill="#0058ad">a 44 9</text>
</g>
<!-- T622 -->
<g id="node2" class="node">
<title>T622</title>
<polygon fill="none" stroke="#0058ad" points="23.5,-0.5 23.5,-29.5 1071.5,-29.5 1071.5,-0.5 23.5,-0.5"/>
<text text-anchor="middle" x="105.5" y="-11.3" font-family="Times,serif" font-size="14.00" fill="#0058ad">r 44 [1 2 3 4 5 6 7 8]</text>
<polyline fill="none" stroke="#0058ad" points="187.5,-0.5 187.5,-29.5 "/>
<text text-anchor="middle" x="218" y="-11.3" font-family="Times,serif" font-size="14.00" fill="#0058ad">a 46 9</text>
<polyline fill="none" stroke="#0058ad" points="248.5,-0.5 248.5,-29.5 "/>
<text text-anchor="middle" x="330.5" y="-11.3" font-family="Times,serif" font-size="14.00" fill="#0058ad">r 44 [1 2 3 4 5 6 7 8]</text>
<polyline fill="none" stroke="#0058ad" points="412.5,-0.5 412.5,-29.5 "/>
<text text-anchor="middle" x="447.5" y="-11.3" font-family="Times,serif" font-size="14.00" fill="#0058ad">a 46 10</text>
<polyline fill="none" stroke="#0058ad" points="482.5,-0.5 482.5,-29.5 "/>
<text text-anchor="middle" x="677" y="-11.3" font-family="Times,serif" font-size="14.00" fill="#0058ad">r 43 [2 3 4 5 6 7 8 9 10 11 12 13 14 15 16 17 18 19]</text>
<polyline fill="none" stroke="#0058ad" points="871.5,-0.5 871.5,-29.5 "/>
<text text-anchor="middle" x="971.5" y="-11.3" font-family="Times,serif" font-size="14.00" fill="#0058ad">r 46 [1 2 3 4 5 6 7 8 9 10]</text>
</g>
<!-- T623&#45;&gt;T622 -->
<g id="edge1" class="edge">
<title>T623:f0&#45;&gt;T622:f1</title>
<path fill="none" stroke="#5b00c0" d="M81.5,-81C81.5,-20.23 202.03,-85.89 216.15,-39.94"/>
<polygon fill="#5b00c0" stroke="#5b00c0" points="219.63,-40.38 217.5,-30 212.69,-39.44 219.63,-40.38"/>
<text text-anchor="middle" x="220" y="-51.8" font-family="Times,serif" font-size="14.00" fill="#5b00c0">rw</text>
</g>
<!-- T622&#45;&gt;T623 -->
<g id="edge2" class="edge">
<title>T622:f0&#45;&gt;T623:f2</title>
<path fill="none" stroke="#5b00c0" d="M105.5,-30C105.5,-58.72 205.34,-42.32 233.5,-48 286.2,-58.62 349.7,-27.96 357.67,-71.01"/>
<polygon fill="#5b00c0" stroke="#5b00c0" points="354.18,-71.33 358.5,-81 361.16,-70.74 354.18,-71.33"/>
<text text-anchor="middle" x="364" y="-51.8" font-family="Times,serif" font-size="14.00" fill="#5b00c0">rw</text>
</g>
</g>
</svg>
