<?xml version="1.0" encoding="UTF-8" standalone="no"?>
<!DOCTYPE svg PUBLIC "-//W3C//DTD SVG 1.1//EN"
 "http://www.w3.org/Graphics/SVG/1.1/DTD/svg11.dtd">
<!-- Generated by graphviz version 2.43.0 (0)
 -->
<!-- Title: a_graph Pages: 1 -->
<svg width="317pt" height="119pt"
 viewBox="0.00 0.00 317.00 119.00" xmlns="http://www.w3.org/2000/svg" xmlns:xlink="http://www.w3.org/1999/xlink">
<g id="graph0" class="graph" transform="scale(1 1) rotate(0) translate(4 115)">
<title>a_graph</title>
<polygon fill="white" stroke="transparent" points="-4,4 -4,-115 313,-115 313,4 -4,4"/>
<!-- T2152 -->
<g id="node1" class="node">
<title>T2152</title>
<polygon fill="none" stroke="#0058ad" points="22,-81.5 22,-110.5 193,-110.5 193,-81.5 22,-81.5"/>
<text text-anchor="middle" x="77" y="-92.3" font-family="Times,serif" font-size="14.00" fill="#0058ad">r 80 [1 2 3 4]</text>
<polyline fill="none" stroke="#0058ad" points="132,-81.5 132,-110.5 "/>
<text text-anchor="middle" x="162.5" y="-92.3" font-family="Times,serif" font-size="14.00" fill="#0058ad">a 81 6</text>
</g>
<!-- T2151 -->
<g id="node2" class="node">
<title>T2151</title>
<polygon fill="none" stroke="#0058ad" points="0,-0.5 0,-29.5 309,-29.5 309,-0.5 0,-0.5"/>
<text text-anchor="middle" x="62" y="-11.3" font-family="Times,serif" font-size="14.00" fill="#0058ad">r 81 [1 2 3 4 5]</text>
<polyline fill="none" stroke="#0058ad" points="124,-0.5 124,-29.5 "/>
<text text-anchor="middle" x="154.5" y="-11.3" font-family="Times,serif" font-size="14.00" fill="#0058ad">a 80 5</text>
<polyline fill="none" stroke="#0058ad" points="185,-0.5 185,-29.5 "/>
<text text-anchor="middle" x="247" y="-11.3" font-family="Times,serif" font-size="14.00" fill="#0058ad">r 81 [1 2 3 4 5]</text>
</g>
<!-- T2152&#45;&gt;T2151 -->
<g id="edge1" class="edge">
<title>T2152:f0&#45;&gt;T2151:f1</title>
<path fill="none" stroke="#5b00c0" d="M76.5,-81C76.5,-59.94 92.88,-59.53 110.5,-48 124.04,-39.14 142.64,-45.68 150.61,-39.75"/>
<polygon fill="#5b00c0" stroke="#5b00c0" points="154.05,-40.59 154.5,-30 147.55,-37.99 154.05,-40.59"/>
<text text-anchor="middle" x="120" y="-51.8" font-family="Times,serif" font-size="14.00" fill="#5b00c0">rw</text>
</g>
<!-- T2151&#45;&gt;T2152 -->
<g id="edge2" class="edge">
<title>T2151:f0&#45;&gt;T2152:f1</title>
<path fill="none" stroke="#5b00c0" d="M61.5,-30C61.5,-61.26 102.4,-32.41 129.5,-48 143.97,-56.32 156.52,-59.19 160.87,-70.8"/>
<polygon fill="#5b00c0" stroke="#5b00c0" points="157.47,-71.68 162.5,-81 164.38,-70.57 157.47,-71.68"/>
<text text-anchor="middle" x="164" y="-51.8" font-family="Times,serif" font-size="14.00" fill="#5b00c0">rw</text>
</g>
</g>
</svg>
