<?xml version="1.0" encoding="UTF-8" standalone="no"?>
<!DOCTYPE svg PUBLIC "-//W3C//DTD SVG 1.1//EN"
 "http://www.w3.org/Graphics/SVG/1.1/DTD/svg11.dtd">
<!-- Generated by graphviz version 2.43.0 (0)
 -->
<!-- Title: a_graph Pages: 1 -->
<svg width="1494pt" height="119pt"
 viewBox="0.00 0.00 1494.00 119.00" xmlns="http://www.w3.org/2000/svg" xmlns:xlink="http://www.w3.org/1999/xlink">
<g id="graph0" class="graph" transform="scale(1 1) rotate(0) translate(4 115)">
<title>a_graph</title>
<polygon fill="white" stroke="transparent" points="-4,4 -4,-115 1490,-115 1490,4 -4,4"/>
<!-- T2183 -->
<g id="node1" class="node">
<title>T2183</title>
<polygon fill="none" stroke="#0058ad" points="81,-81.5 81,-110.5 221,-110.5 221,-81.5 81,-81.5"/>
<text text-anchor="middle" x="116" y="-92.3" font-family="Times,serif" font-size="14.00" fill="#0058ad">r 81 [1]</text>
<polyline fill="none" stroke="#0058ad" points="151,-81.5 151,-110.5 "/>
<text text-anchor="middle" x="186" y="-92.3" font-family="Times,serif" font-size="14.00" fill="#0058ad">a 79 26</text>
</g>
<!-- T2185 -->
<g id="node2" class="node">
<title>T2185</title>
<polygon fill="none" stroke="#0058ad" points="0,-0.5 0,-29.5 1486,-29.5 1486,-0.5 0,-0.5"/>
<text text-anchor="middle" x="30.5" y="-11.3" font-family="Times,serif" font-size="14.00" fill="#0058ad">a 81 2</text>
<polyline fill="none" stroke="#0058ad" points="61,-0.5 61,-29.5 "/>
<text text-anchor="middle" x="330" y="-11.3" font-family="Times,serif" font-size="14.00" fill="#0058ad">r 79 [1 2 3 4 5 6 7 8 9 10 11 12 13 14 15 16 17 18 19 20 21 22 23 24 25]</text>
<polyline fill="none" stroke="#0058ad" points="599,-0.5 599,-29.5 "/>
<text text-anchor="middle" x="634" y="-11.3" font-family="Times,serif" font-size="14.00" fill="#0058ad">a 76 32</text>
<polyline fill="none" stroke="#0058ad" points="669,-0.5 669,-29.5 "/>
<text text-anchor="middle" x="699.5" y="-11.3" font-family="Times,serif" font-size="14.00" fill="#0058ad">a 81 3</text>
<polyline fill="none" stroke="#0058ad" points="730,-0.5 730,-29.5 "/>
<text text-anchor="middle" x="1077.5" y="-11.3" font-family="Times,serif" font-size="14.00" fill="#0058ad">r 76 [3 4 5 6 7 8 9 10 11 12 13 14 15 16 17 18 19 20 21 22 23 24 25 26 27 28 29 1 2 30 31 32]</text>
<polyline fill="none" stroke="#0058ad" points="1425,-0.5 1425,-29.5 "/>
<text text-anchor="middle" x="1455.5" y="-11.3" font-family="Times,serif" font-size="14.00" fill="#0058ad">a 81 4</text>
</g>
<!-- T2183&#45;&gt;T2185 -->
<g id="edge1" class="edge">
<title>T2183:f0&#45;&gt;T2185:f0</title>
<path fill="none" stroke="#5b00c0" d="M80,-96C46.65,-96 32.68,-72.02 30.36,-40.13"/>
<polygon fill="#5b00c0" stroke="#5b00c0" points="33.85,-39.87 30,-30 26.85,-40.12 33.85,-39.87"/>
<text text-anchor="middle" x="44.5" y="-51.8" font-family="Times,serif" font-size="14.00" fill="#5b00c0">rw</text>
</g>
<!-- T2185&#45;&gt;T2183 -->
<g id="edge2" class="edge">
<title>T2185:f1&#45;&gt;T2183:f1</title>
<path fill="none" stroke="#5b00c0" d="M330,-30C330,-94.05 201.85,-22.22 187.33,-70.88"/>
<polygon fill="#5b00c0" stroke="#5b00c0" points="183.84,-70.63 186,-81 190.78,-71.54 183.84,-70.63"/>
<text text-anchor="middle" x="333.5" y="-51.8" font-family="Times,serif" font-size="14.00" fill="#5b00c0">rw</text>
</g>
</g>
</svg>
