<?xml version="1.0" encoding="UTF-8" standalone="no"?>
<!DOCTYPE svg PUBLIC "-//W3C//DTD SVG 1.1//EN"
 "http://www.w3.org/Graphics/SVG/1.1/DTD/svg11.dtd">
<!-- Generated by graphviz version 2.43.0 (0)
 -->
<!-- Title: a_graph Pages: 1 -->
<svg width="1135pt" height="119pt"
 viewBox="0.00 0.00 1135.00 119.00" xmlns="http://www.w3.org/2000/svg" xmlns:xlink="http://www.w3.org/1999/xlink">
<g id="graph0" class="graph" transform="scale(1 1) rotate(0) translate(4 115)">
<title>a_graph</title>
<polygon fill="white" stroke="transparent" points="-4,4 -4,-115 1131,-115 1131,4 -4,4"/>
<!-- T3756 -->
<g id="node1" class="node">
<title>T3756</title>
<polygon fill="none" stroke="#0058ad" points="0,-81.5 0,-110.5 1127,-110.5 1127,-81.5 0,-81.5"/>
<text text-anchor="middle" x="80" y="-92.3" font-family="Times,serif" font-size="14.00" fill="#0058ad">r 140 [1 2 3 4 5 6 7]</text>
<polyline fill="none" stroke="#0058ad" points="160,-81.5 160,-110.5 "/>
<text text-anchor="middle" x="240" y="-92.3" font-family="Times,serif" font-size="14.00" fill="#0058ad">r 140 [1 2 3 4 5 6 7]</text>
<polyline fill="none" stroke="#0058ad" points="320,-81.5 320,-110.5 "/>
<text text-anchor="middle" x="355" y="-92.3" font-family="Times,serif" font-size="14.00" fill="#0058ad">a 140 8</text>
<polyline fill="none" stroke="#0058ad" points="390,-81.5 390,-110.5 "/>
<text text-anchor="middle" x="425" y="-92.3" font-family="Times,serif" font-size="14.00" fill="#0058ad">a 140 9</text>
<polyline fill="none" stroke="#0058ad" points="460,-81.5 460,-110.5 "/>
<text text-anchor="middle" x="553.5" y="-92.3" font-family="Times,serif" font-size="14.00" fill="#0058ad">r 140 [1 2 3 4 5 6 7 8 9]</text>
<polyline fill="none" stroke="#0058ad" points="647,-81.5 647,-110.5 "/>
<text text-anchor="middle" x="740.5" y="-92.3" font-family="Times,serif" font-size="14.00" fill="#0058ad">r 140 [1 2 3 4 5 6 7 8 9]</text>
<polyline fill="none" stroke="#0058ad" points="834,-81.5 834,-110.5 "/>
<text text-anchor="middle" x="887" y="-92.3" font-family="Times,serif" font-size="14.00" fill="#0058ad">r 141 [1 2 3]</text>
<polyline fill="none" stroke="#0058ad" points="940,-81.5 940,-110.5 "/>
<text text-anchor="middle" x="1033.5" y="-92.3" font-family="Times,serif" font-size="14.00" fill="#0058ad">r 140 [1 2 3 4 5 6 7 8 9]</text>
</g>
<!-- T3755 -->
<g id="node2" class="node">
<title>T3755</title>
<polygon fill="none" stroke="#0058ad" points="535.5,-0.5 535.5,-29.5 765.5,-29.5 765.5,-0.5 535.5,-0.5"/>
<text text-anchor="middle" x="615.5" y="-11.3" font-family="Times,serif" font-size="14.00" fill="#0058ad">r 140 [1 2 3 4 5 6 7]</text>
<polyline fill="none" stroke="#0058ad" points="695.5,-0.5 695.5,-29.5 "/>
<text text-anchor="middle" x="730.5" y="-11.3" font-family="Times,serif" font-size="14.00" fill="#0058ad">a 141 4</text>
</g>
<!-- T3756&#45;&gt;T3755 -->
<g id="edge1" class="edge">
<title>T3756:f6&#45;&gt;T3755:f1</title>
<path fill="none" stroke="#5b00c0" d="M887.5,-81C887.5,-23.09 834.11,-15.69 776.53,-15.05"/>
<polygon fill="#5b00c0" stroke="#5b00c0" points="776.52,-11.55 766.5,-15 776.48,-18.55 776.52,-11.55"/>
<text text-anchor="middle" x="894" y="-51.8" font-family="Times,serif" font-size="14.00" fill="#5b00c0">rw</text>
</g>
<!-- T3755&#45;&gt;T3756 -->
<g id="edge2" class="edge">
<title>T3755:f0&#45;&gt;T3756:f2</title>
<path fill="none" stroke="#5b00c0" d="M534.5,-15C495.39,-15 376.4,-34.71 357.15,-70.91"/>
<polygon fill="#5b00c0" stroke="#5b00c0" points="353.65,-70.44 354.5,-81 360.42,-72.21 353.65,-70.44"/>
<text text-anchor="middle" x="392" y="-51.8" font-family="Times,serif" font-size="14.00" fill="#5b00c0">rw</text>
</g>
</g>
</svg>
