<?xml version="1.0" encoding="UTF-8" standalone="no"?>
<!DOCTYPE svg PUBLIC "-//W3C//DTD SVG 1.1//EN"
 "http://www.w3.org/Graphics/SVG/1.1/DTD/svg11.dtd">
<!-- Generated by graphviz version 2.43.0 (0)
 -->
<!-- Title: a_graph Pages: 1 -->
<svg width="2834pt" height="119pt"
 viewBox="0.00 0.00 2833.50 119.00" xmlns="http://www.w3.org/2000/svg" xmlns:xlink="http://www.w3.org/1999/xlink">
<g id="graph0" class="graph" transform="scale(1 1) rotate(0) translate(4 115)">
<title>a_graph</title>
<polygon fill="white" stroke="transparent" points="-4,4 -4,-115 2829.5,-115 2829.5,4 -4,4"/>
<!-- T2502 -->
<g id="node1" class="node">
<title>T2502</title>
<polygon fill="none" stroke="#0058ad" points="0,-81.5 0,-110.5 984,-110.5 984,-81.5 0,-81.5"/>
<text text-anchor="middle" x="228.5" y="-92.3" font-family="Times,serif" font-size="14.00" fill="#0058ad">r 93 [2 3 4 5 6 7 8 9 10 11 12 13 14 15 16 17 18 19 20 21 22]</text>
<polyline fill="none" stroke="#0058ad" points="457,-81.5 457,-110.5 "/>
<text text-anchor="middle" x="685.5" y="-92.3" font-family="Times,serif" font-size="14.00" fill="#0058ad">r 93 [2 3 4 5 6 7 8 9 10 11 12 13 14 15 16 17 18 19 20 21 22]</text>
<polyline fill="none" stroke="#0058ad" points="914,-81.5 914,-110.5 "/>
<text text-anchor="middle" x="949" y="-92.3" font-family="Times,serif" font-size="14.00" fill="#0058ad">a 91 32</text>
</g>
<!-- T2503 -->
<g id="node2" class="node">
<title>T2503</title>
<polygon fill="none" stroke="#0058ad" points="38.5,-0.5 38.5,-29.5 2825.5,-29.5 2825.5,-0.5 38.5,-0.5"/>
<text text-anchor="middle" x="280.5" y="-11.3" font-family="Times,serif" font-size="14.00" fill="#0058ad">r 91 [1 2 5 8 9 10 11 13 14 15 17 18 22 23 24 25 26 27 28 29 30]</text>
<polyline fill="none" stroke="#0058ad" points="522.5,-0.5 522.5,-29.5 "/>
<text text-anchor="middle" x="557.5" y="-11.3" font-family="Times,serif" font-size="14.00" fill="#0058ad">a 93 26</text>
<polyline fill="none" stroke="#0058ad" points="592.5,-0.5 592.5,-29.5 "/>
<text text-anchor="middle" x="627.5" y="-11.3" font-family="Times,serif" font-size="14.00" fill="#0058ad">a 86 31</text>
<polyline fill="none" stroke="#0058ad" points="662.5,-0.5 662.5,-29.5 "/>
<text text-anchor="middle" x="902" y="-11.3" font-family="Times,serif" font-size="14.00" fill="#0058ad">r 93 [2 3 4 5 6 7 8 9 10 11 12 13 14 15 16 17 18 19 20 21 22 26]</text>
<polyline fill="none" stroke="#0058ad" points="1141.5,-0.5 1141.5,-29.5 "/>
<text text-anchor="middle" x="1455.5" y="-11.3" font-family="Times,serif" font-size="14.00" fill="#0058ad">r 86 [1 2 3 4 5 6 7 8 9 10 11 12 13 14 17 18 19 20 21 22 23 24 25 26 27 28 29 30 31]</text>
<polyline fill="none" stroke="#0058ad" points="1769.5,-0.5 1769.5,-29.5 "/>
<text text-anchor="middle" x="1804.5" y="-11.3" font-family="Times,serif" font-size="14.00" fill="#0058ad">a 93 27</text>
<polyline fill="none" stroke="#0058ad" points="1839.5,-0.5 1839.5,-29.5 "/>
<text text-anchor="middle" x="2081.5" y="-11.3" font-family="Times,serif" font-size="14.00" fill="#0058ad">r 91 [1 2 5 8 9 10 11 13 14 15 17 18 22 23 24 25 26 27 28 29 30]</text>
<polyline fill="none" stroke="#0058ad" points="2323.5,-0.5 2323.5,-29.5 "/>
<text text-anchor="middle" x="2574.5" y="-11.3" font-family="Times,serif" font-size="14.00" fill="#0058ad">r 93 [2 3 4 5 6 7 8 9 10 11 12 13 14 15 16 17 18 19 20 21 22 26 27]</text>
</g>
<!-- T2502&#45;&gt;T2503 -->
<g id="edge1" class="edge">
<title>T2502:f0&#45;&gt;T2503:f1</title>
<path fill="none" stroke="#5b00c0" d="M228,-81C228,63.36 541.13,-166.24 556.42,-40.15"/>
<polygon fill="#5b00c0" stroke="#5b00c0" points="559.92,-40.18 557,-30 552.94,-39.78 559.92,-40.18"/>
<text text-anchor="middle" x="563.5" y="-51.8" font-family="Times,serif" font-size="14.00" fill="#5b00c0">rw</text>
</g>
<!-- T2503&#45;&gt;T2502 -->
<g id="edge2" class="edge">
<title>T2503:f0&#45;&gt;T2502:f2</title>
<path fill="none" stroke="#5b00c0" d="M280,-30C280,-46.53 560.52,-46.77 577,-48 738.97,-60.09 940.15,78.81 948.72,-70.73"/>
<polygon fill="#5b00c0" stroke="#5b00c0" points="945.23,-71.1 949,-81 952.22,-70.91 945.23,-71.1"/>
<text text-anchor="middle" x="957.5" y="-51.8" font-family="Times,serif" font-size="14.00" fill="#5b00c0">rw</text>
</g>
</g>
</svg>
