<?xml version="1.0" encoding="UTF-8" standalone="no"?>
<!DOCTYPE svg PUBLIC "-//W3C//DTD SVG 1.1//EN"
 "http://www.w3.org/Graphics/SVG/1.1/DTD/svg11.dtd">
<!-- Generated by graphviz version 2.43.0 (0)
 -->
<!-- Title: a_graph Pages: 1 -->
<svg width="540pt" height="119pt"
 viewBox="0.00 0.00 540.00 119.00" xmlns="http://www.w3.org/2000/svg" xmlns:xlink="http://www.w3.org/1999/xlink">
<g id="graph0" class="graph" transform="scale(1 1) rotate(0) translate(4 115)">
<title>a_graph</title>
<polygon fill="white" stroke="transparent" points="-4,4 -4,-115 536,-115 536,4 -4,4"/>
<!-- T1906 -->
<g id="node1" class="node">
<title>T1906</title>
<polygon fill="none" stroke="#0058ad" points="0,-81.5 0,-110.5 509,-110.5 509,-81.5 0,-81.5"/>
<text text-anchor="middle" x="224" y="-92.3" font-family="Times,serif" font-size="14.00" fill="#0058ad">r 71 [1 2 3 4 5 6 7 8 9 10 11 12 13 14 15 16 17 18 19 20 21]</text>
<polyline fill="none" stroke="#0058ad" points="448,-81.5 448,-110.5 "/>
<text text-anchor="middle" x="478.5" y="-92.3" font-family="Times,serif" font-size="14.00" fill="#0058ad">a 72 7</text>
</g>
<!-- T1907 -->
<g id="node2" class="node">
<title>T1907</title>
<polygon fill="none" stroke="#0058ad" points="225,-0.5 225,-29.5 532,-29.5 532,-0.5 225,-0.5"/>
<text text-anchor="middle" x="273.5" y="-11.3" font-family="Times,serif" font-size="14.00" fill="#0058ad">r 72 [1 5 6]</text>
<polyline fill="none" stroke="#0058ad" points="322,-0.5 322,-29.5 "/>
<text text-anchor="middle" x="357" y="-11.3" font-family="Times,serif" font-size="14.00" fill="#0058ad">a 65 24</text>
<polyline fill="none" stroke="#0058ad" points="392,-0.5 392,-29.5 "/>
<text text-anchor="middle" x="427" y="-11.3" font-family="Times,serif" font-size="14.00" fill="#0058ad">a 71 22</text>
<polyline fill="none" stroke="#0058ad" points="462,-0.5 462,-29.5 "/>
<text text-anchor="middle" x="497" y="-11.3" font-family="Times,serif" font-size="14.00" fill="#0058ad">a 65 25</text>
</g>
<!-- T1906&#45;&gt;T1907 -->
<g id="edge1" class="edge">
<title>T1906:f0&#45;&gt;T1907:f2</title>
<path fill="none" stroke="#5b00c0" d="M223.5,-81C223.5,-60.28 383.9,-54.58 420.24,-37.26"/>
<polygon fill="#5b00c0" stroke="#5b00c0" points="422.9,-39.55 427.5,-30 417.95,-34.6 422.9,-39.55"/>
<text text-anchor="middle" x="383" y="-51.8" font-family="Times,serif" font-size="14.00" fill="#5b00c0">rw</text>
</g>
<!-- T1907&#45;&gt;T1906 -->
<g id="edge2" class="edge">
<title>T1907:f0&#45;&gt;T1906:f1</title>
<path fill="none" stroke="#5b00c0" d="M273.5,-30C273.5,-57.62 369.83,-40.79 396.5,-48 430.72,-57.25 469.95,-44.69 477.29,-71.01"/>
<polygon fill="#5b00c0" stroke="#5b00c0" points="473.82,-71.5 478.5,-81 480.77,-70.65 473.82,-71.5"/>
<text text-anchor="middle" x="482" y="-51.8" font-family="Times,serif" font-size="14.00" fill="#5b00c0">rw</text>
</g>
</g>
</svg>
