<?xml version="1.0" encoding="UTF-8" standalone="no"?>
<!DOCTYPE svg PUBLIC "-//W3C//DTD SVG 1.1//EN"
 "http://www.w3.org/Graphics/SVG/1.1/DTD/svg11.dtd">
<!-- Generated by graphviz version 2.43.0 (0)
 -->
<!-- Title: a_graph Pages: 1 -->
<svg width="1559pt" height="119pt"
 viewBox="0.00 0.00 1559.00 119.00" xmlns="http://www.w3.org/2000/svg" xmlns:xlink="http://www.w3.org/1999/xlink">
<g id="graph0" class="graph" transform="scale(1 1) rotate(0) translate(4 115)">
<title>a_graph</title>
<polygon fill="white" stroke="transparent" points="-4,4 -4,-115 1555,-115 1555,4 -4,4"/>
<!-- T2001 -->
<g id="node1" class="node">
<title>T2001</title>
<polygon fill="none" stroke="#0058ad" points="0,-81.5 0,-110.5 1551,-110.5 1551,-81.5 0,-81.5"/>
<text text-anchor="middle" x="35" y="-92.3" font-family="Times,serif" font-size="14.00" fill="#0058ad">a 76 10</text>
<polyline fill="none" stroke="#0058ad" points="70,-81.5 70,-110.5 "/>
<text text-anchor="middle" x="100.5" y="-92.3" font-family="Times,serif" font-size="14.00" fill="#0058ad">a 75 6</text>
<polyline fill="none" stroke="#0058ad" points="131,-81.5 131,-110.5 "/>
<text text-anchor="middle" x="166" y="-92.3" font-family="Times,serif" font-size="14.00" fill="#0058ad">a 76 11</text>
<polyline fill="none" stroke="#0058ad" points="201,-81.5 201,-110.5 "/>
<text text-anchor="middle" x="447.5" y="-92.3" font-family="Times,serif" font-size="14.00" fill="#0058ad">r 73 [1 2 3 4 5 6 7 8 9 10 11 12 13 14 15 16 17 18 19 20 21 22 24]</text>
<polyline fill="none" stroke="#0058ad" points="694,-81.5 694,-110.5 "/>
<text text-anchor="middle" x="940.5" y="-92.3" font-family="Times,serif" font-size="14.00" fill="#0058ad">r 73 [1 2 3 4 5 6 7 8 9 10 11 12 13 14 15 16 17 18 19 20 21 22 24]</text>
<polyline fill="none" stroke="#0058ad" points="1187,-81.5 1187,-110.5 "/>
<text text-anchor="middle" x="1278" y="-92.3" font-family="Times,serif" font-size="14.00" fill="#0058ad">r 76 [1 5 6 7 8 9 10 11]</text>
<polyline fill="none" stroke="#0058ad" points="1369,-81.5 1369,-110.5 "/>
<text text-anchor="middle" x="1460" y="-92.3" font-family="Times,serif" font-size="14.00" fill="#0058ad">r 76 [1 5 6 7 8 9 10 11]</text>
</g>
<!-- T2000 -->
<g id="node2" class="node">
<title>T2000</title>
<polygon fill="none" stroke="#0058ad" points="169.5,-0.5 169.5,-29.5 513.5,-29.5 513.5,-0.5 169.5,-0.5"/>
<text text-anchor="middle" x="204.5" y="-11.3" font-family="Times,serif" font-size="14.00" fill="#0058ad">a 73 25</text>
<polyline fill="none" stroke="#0058ad" points="239.5,-0.5 239.5,-29.5 "/>
<text text-anchor="middle" x="308" y="-11.3" font-family="Times,serif" font-size="14.00" fill="#0058ad">r 76 [1 5 6 7 8 9]</text>
<polyline fill="none" stroke="#0058ad" points="376.5,-0.5 376.5,-29.5 "/>
<text text-anchor="middle" x="445" y="-11.3" font-family="Times,serif" font-size="14.00" fill="#0058ad">r 76 [1 5 6 7 8 9]</text>
</g>
<!-- T2001&#45;&gt;T2000 -->
<g id="edge1" class="edge">
<title>T2001:f3&#45;&gt;T2000:f0</title>
<path fill="none" stroke="#5b00c0" d="M447.5,-81C447.5,-57.47 257.76,-73.08 236.5,-63 221.65,-55.95 209.98,-52.11 205.99,-40.23"/>
<polygon fill="#5b00c0" stroke="#5b00c0" points="209.4,-39.39 204.5,-30 202.47,-40.4 209.4,-39.39"/>
<text text-anchor="middle" x="246" y="-51.8" font-family="Times,serif" font-size="14.00" fill="#5b00c0">rw</text>
</g>
<!-- T2000&#45;&gt;T2001 -->
<g id="edge2" class="edge">
<title>T2000:f1&#45;&gt;T2001:f0</title>
<path fill="none" stroke="#5b00c0" d="M307.5,-30C307.5,-57.37 281.45,-54.3 255.5,-63 234.88,-69.91 78.43,-59.45 42.04,-73.85"/>
<polygon fill="#5b00c0" stroke="#5b00c0" points="39.35,-71.58 34.5,-81 44.17,-76.66 39.35,-71.58"/>
<text text-anchor="middle" x="310" y="-51.8" font-family="Times,serif" font-size="14.00" fill="#5b00c0">rw</text>
</g>
</g>
</svg>
