<?xml version="1.0" encoding="UTF-8" standalone="no"?>
<!DOCTYPE svg PUBLIC "-//W3C//DTD SVG 1.1//EN"
 "http://www.w3.org/Graphics/SVG/1.1/DTD/svg11.dtd">
<!-- Generated by graphviz version 2.43.0 (0)
 -->
<!-- Title: a_graph Pages: 1 -->
<svg width="592pt" height="119pt"
 viewBox="0.00 0.00 592.00 119.00" xmlns="http://www.w3.org/2000/svg" xmlns:xlink="http://www.w3.org/1999/xlink">
<g id="graph0" class="graph" transform="scale(1 1) rotate(0) translate(4 115)">
<title>a_graph</title>
<polygon fill="white" stroke="transparent" points="-4,4 -4,-115 588,-115 588,4 -4,4"/>
<!-- T488 -->
<g id="node1" class="node">
<title>T488</title>
<polygon fill="none" stroke="#0058ad" points="0,-81.5 0,-110.5 584,-110.5 584,-81.5 0,-81.5"/>
<text text-anchor="middle" x="53" y="-92.3" font-family="Times,serif" font-size="14.00" fill="#0058ad">r 204 [1 2 3]</text>
<polyline fill="none" stroke="#0058ad" points="106,-81.5 106,-110.5 "/>
<text text-anchor="middle" x="141" y="-92.3" font-family="Times,serif" font-size="14.00" fill="#0058ad">a 206 1</text>
<polyline fill="none" stroke="#0058ad" points="176,-81.5 176,-110.5 "/>
<text text-anchor="middle" x="211" y="-92.3" font-family="Times,serif" font-size="14.00" fill="#0058ad">r 207 []</text>
<polyline fill="none" stroke="#0058ad" points="246,-81.5 246,-110.5 "/>
<text text-anchor="middle" x="281" y="-92.3" font-family="Times,serif" font-size="14.00" fill="#0058ad">a 206 2</text>
<polyline fill="none" stroke="#0058ad" points="316,-81.5 316,-110.5 "/>
<text text-anchor="middle" x="362" y="-92.3" font-family="Times,serif" font-size="14.00" fill="#0058ad">r 206 [1 2]</text>
<polyline fill="none" stroke="#0058ad" points="408,-81.5 408,-110.5 "/>
<text text-anchor="middle" x="443" y="-92.3" font-family="Times,serif" font-size="14.00" fill="#0058ad">r 201 []</text>
<polyline fill="none" stroke="#0058ad" points="478,-81.5 478,-110.5 "/>
<text text-anchor="middle" x="531" y="-92.3" font-family="Times,serif" font-size="14.00" fill="#0058ad">r 160 [1 2 3]</text>
</g>
<!-- T489 -->
<g id="node2" class="node">
<title>T489</title>
<polygon fill="none" stroke="#0058ad" points="88,-0.5 88,-29.5 508,-29.5 508,-0.5 88,-0.5"/>
<text text-anchor="middle" x="123" y="-11.3" font-family="Times,serif" font-size="14.00" fill="#0058ad">r 206 []</text>
<polyline fill="none" stroke="#0058ad" points="158,-0.5 158,-29.5 "/>
<text text-anchor="middle" x="193" y="-11.3" font-family="Times,serif" font-size="14.00" fill="#0058ad">r 206 []</text>
<polyline fill="none" stroke="#0058ad" points="228,-0.5 228,-29.5 "/>
<text text-anchor="middle" x="263" y="-11.3" font-family="Times,serif" font-size="14.00" fill="#0058ad">r 203 []</text>
<polyline fill="none" stroke="#0058ad" points="298,-0.5 298,-29.5 "/>
<text text-anchor="middle" x="333" y="-11.3" font-family="Times,serif" font-size="14.00" fill="#0058ad">a 203 1</text>
<polyline fill="none" stroke="#0058ad" points="368,-0.5 368,-29.5 "/>
<text text-anchor="middle" x="403" y="-11.3" font-family="Times,serif" font-size="14.00" fill="#0058ad">r 201 []</text>
<polyline fill="none" stroke="#0058ad" points="438,-0.5 438,-29.5 "/>
<text text-anchor="middle" x="473" y="-11.3" font-family="Times,serif" font-size="14.00" fill="#0058ad">a 201 1</text>
</g>
<!-- T488&#45;&gt;T489 -->
<g id="edge1" class="edge">
<title>T488:f5&#45;&gt;T489:f5</title>
<path fill="none" stroke="#5b00c0" d="M443,-81C443,-58.61 464.75,-56.44 471.21,-40.05"/>
<polygon fill="#5b00c0" stroke="#5b00c0" points="474.7,-40.46 473,-30 467.8,-39.23 474.7,-40.46"/>
<text text-anchor="middle" x="474.5" y="-51.8" font-family="Times,serif" font-size="14.00" fill="#5b00c0">rw</text>
</g>
<!-- T489&#45;&gt;T488 -->
<g id="edge2" class="edge">
<title>T489:f0&#45;&gt;T488:f1</title>
<path fill="none" stroke="#5b00c0" d="M123,-30C123,-50.09 135.58,-55.43 139.71,-70.69"/>
<polygon fill="#5b00c0" stroke="#5b00c0" points="136.28,-71.51 141,-81 143.23,-70.64 136.28,-71.51"/>
<text text-anchor="middle" x="146.5" y="-51.8" font-family="Times,serif" font-size="14.00" fill="#5b00c0">rw</text>
</g>
</g>
</svg>
