<?xml version="1.0" encoding="UTF-8" standalone="no"?>
<!DOCTYPE svg PUBLIC "-//W3C//DTD SVG 1.1//EN"
 "http://www.w3.org/Graphics/SVG/1.1/DTD/svg11.dtd">
<!-- Generated by graphviz version 2.43.0 (0)
 -->
<!-- Title: a_graph Pages: 1 -->
<svg width="560pt" height="119pt"
 viewBox="0.00 0.00 560.00 119.00" xmlns="http://www.w3.org/2000/svg" xmlns:xlink="http://www.w3.org/1999/xlink">
<g id="graph0" class="graph" transform="scale(1 1) rotate(0) translate(4 115)">
<title>a_graph</title>
<polygon fill="white" stroke="transparent" points="-4,4 -4,-115 556,-115 556,4 -4,4"/>
<!-- T326 -->
<g id="node1" class="node">
<title>T326</title>
<polygon fill="none" stroke="#0058ad" points="94.5,-81.5 94.5,-110.5 471.5,-110.5 471.5,-81.5 94.5,-81.5"/>
<text text-anchor="middle" x="134" y="-92.3" font-family="Times,serif" font-size="14.00" fill="#0058ad">r 137 [1]</text>
<polyline fill="none" stroke="#0058ad" points="173.5,-81.5 173.5,-110.5 "/>
<text text-anchor="middle" x="208.5" y="-92.3" font-family="Times,serif" font-size="14.00" fill="#0058ad">a 135 1</text>
<polyline fill="none" stroke="#0058ad" points="243.5,-81.5 243.5,-110.5 "/>
<text text-anchor="middle" x="283" y="-92.3" font-family="Times,serif" font-size="14.00" fill="#0058ad">r 135 [1]</text>
<polyline fill="none" stroke="#0058ad" points="322.5,-81.5 322.5,-110.5 "/>
<text text-anchor="middle" x="357.5" y="-92.3" font-family="Times,serif" font-size="14.00" fill="#0058ad">a 136 3</text>
<polyline fill="none" stroke="#0058ad" points="392.5,-81.5 392.5,-110.5 "/>
<text text-anchor="middle" x="432" y="-92.3" font-family="Times,serif" font-size="14.00" fill="#0058ad">r 137 [1]</text>
</g>
<!-- T327 -->
<g id="node2" class="node">
<title>T327</title>
<polygon fill="none" stroke="#0058ad" points="0,-0.5 0,-29.5 552,-29.5 552,-0.5 0,-0.5"/>
<text text-anchor="middle" x="46" y="-11.3" font-family="Times,serif" font-size="14.00" fill="#0058ad">r 136 [1 2]</text>
<polyline fill="none" stroke="#0058ad" points="92,-0.5 92,-29.5 "/>
<text text-anchor="middle" x="131.5" y="-11.3" font-family="Times,serif" font-size="14.00" fill="#0058ad">r 137 [1]</text>
<polyline fill="none" stroke="#0058ad" points="171,-0.5 171,-29.5 "/>
<text text-anchor="middle" x="206" y="-11.3" font-family="Times,serif" font-size="14.00" fill="#0058ad">a 138 1</text>
<polyline fill="none" stroke="#0058ad" points="241,-0.5 241,-29.5 "/>
<text text-anchor="middle" x="280.5" y="-11.3" font-family="Times,serif" font-size="14.00" fill="#0058ad">r 138 [1]</text>
<polyline fill="none" stroke="#0058ad" points="320,-0.5 320,-29.5 "/>
<text text-anchor="middle" x="366" y="-11.3" font-family="Times,serif" font-size="14.00" fill="#0058ad">r 136 [1 2]</text>
<polyline fill="none" stroke="#0058ad" points="412,-0.5 412,-29.5 "/>
<text text-anchor="middle" x="447" y="-11.3" font-family="Times,serif" font-size="14.00" fill="#0058ad">a 137 2</text>
<polyline fill="none" stroke="#0058ad" points="482,-0.5 482,-29.5 "/>
<text text-anchor="middle" x="517" y="-11.3" font-family="Times,serif" font-size="14.00" fill="#0058ad">a 137 3</text>
</g>
<!-- T326&#45;&gt;T327 -->
<g id="edge1" class="edge">
<title>T326:f0&#45;&gt;T327:f5</title>
<path fill="none" stroke="#5b00c0" d="M134,-81C134,-17.94 209.83,-58.58 272,-48 288.71,-45.16 408.04,-48.41 439.44,-36.57"/>
<polygon fill="#5b00c0" stroke="#5b00c0" points="441.75,-39.2 447,-30 437.16,-33.92 441.75,-39.2"/>
<text text-anchor="middle" x="281.5" y="-51.8" font-family="Times,serif" font-size="14.00" fill="#5b00c0">rw</text>
</g>
<!-- T327&#45;&gt;T326 -->
<g id="edge2" class="edge">
<title>T327:f0&#45;&gt;T326:f3</title>
<path fill="none" stroke="#5b00c0" d="M46,-30C46,-57.3 264.66,-40.84 291,-48 319.28,-55.69 349.84,-49.65 356.62,-70.97"/>
<polygon fill="#5b00c0" stroke="#5b00c0" points="353.17,-71.57 358,-81 360.1,-70.62 353.17,-71.57"/>
<text text-anchor="middle" x="361.5" y="-51.8" font-family="Times,serif" font-size="14.00" fill="#5b00c0">rw</text>
</g>
</g>
</svg>
