<?xml version="1.0" encoding="UTF-8" standalone="no"?>
<!DOCTYPE svg PUBLIC "-//W3C//DTD SVG 1.1//EN"
 "http://www.w3.org/Graphics/SVG/1.1/DTD/svg11.dtd">
<!-- Generated by graphviz version 2.43.0 (0)
 -->
<!-- Title: a_graph Pages: 1 -->
<svg width="740pt" height="119pt"
 viewBox="0.00 0.00 740.00 119.00" xmlns="http://www.w3.org/2000/svg" xmlns:xlink="http://www.w3.org/1999/xlink">
<g id="graph0" class="graph" transform="scale(1 1) rotate(0) translate(4 115)">
<title>a_graph</title>
<polygon fill="white" stroke="transparent" points="-4,4 -4,-115 736,-115 736,4 -4,4"/>
<!-- T519 -->
<g id="node1" class="node">
<title>T519</title>
<polygon fill="none" stroke="#0058ad" points="233,-81.5 233,-110.5 732,-110.5 732,-81.5 233,-81.5"/>
<text text-anchor="middle" x="268" y="-92.3" font-family="Times,serif" font-size="14.00" fill="#0058ad">a 213 3</text>
<polyline fill="none" stroke="#0058ad" points="303,-81.5 303,-110.5 "/>
<text text-anchor="middle" x="342.5" y="-92.3" font-family="Times,serif" font-size="14.00" fill="#0058ad">r 216 [1]</text>
<polyline fill="none" stroke="#0058ad" points="382,-81.5 382,-110.5 "/>
<text text-anchor="middle" x="417" y="-92.3" font-family="Times,serif" font-size="14.00" fill="#0058ad">a 217 2</text>
<polyline fill="none" stroke="#0058ad" points="452,-81.5 452,-110.5 "/>
<text text-anchor="middle" x="487" y="-92.3" font-family="Times,serif" font-size="14.00" fill="#0058ad">r 218 []</text>
<polyline fill="none" stroke="#0058ad" points="522,-81.5 522,-110.5 "/>
<text text-anchor="middle" x="557" y="-92.3" font-family="Times,serif" font-size="14.00" fill="#0058ad">a 217 3</text>
<polyline fill="none" stroke="#0058ad" points="592,-81.5 592,-110.5 "/>
<text text-anchor="middle" x="627" y="-92.3" font-family="Times,serif" font-size="14.00" fill="#0058ad">r 218 []</text>
<polyline fill="none" stroke="#0058ad" points="662,-81.5 662,-110.5 "/>
<text text-anchor="middle" x="697" y="-92.3" font-family="Times,serif" font-size="14.00" fill="#0058ad">a 218 1</text>
</g>
<!-- T518 -->
<g id="node2" class="node">
<title>T518</title>
<polygon fill="none" stroke="#0058ad" points="0,-0.5 0,-29.5 399,-29.5 399,-0.5 0,-0.5"/>
<text text-anchor="middle" x="39.5" y="-11.3" font-family="Times,serif" font-size="14.00" fill="#0058ad">r 216 [1]</text>
<polyline fill="none" stroke="#0058ad" points="79,-0.5 79,-29.5 "/>
<text text-anchor="middle" x="118.5" y="-11.3" font-family="Times,serif" font-size="14.00" fill="#0058ad">r 216 [1]</text>
<polyline fill="none" stroke="#0058ad" points="158,-0.5 158,-29.5 "/>
<text text-anchor="middle" x="204" y="-11.3" font-family="Times,serif" font-size="14.00" fill="#0058ad">r 213 [1 2]</text>
<polyline fill="none" stroke="#0058ad" points="250,-0.5 250,-29.5 "/>
<text text-anchor="middle" x="289.5" y="-11.3" font-family="Times,serif" font-size="14.00" fill="#0058ad">r 216 [1]</text>
<polyline fill="none" stroke="#0058ad" points="329,-0.5 329,-29.5 "/>
<text text-anchor="middle" x="364" y="-11.3" font-family="Times,serif" font-size="14.00" fill="#0058ad">a 216 3</text>
</g>
<!-- T519&#45;&gt;T518 -->
<g id="edge1" class="edge">
<title>T519:f1&#45;&gt;T518:f4</title>
<path fill="none" stroke="#5b00c0" d="M342.5,-81C342.5,-60.17 358.16,-55.76 363.06,-40.06"/>
<polygon fill="#5b00c0" stroke="#5b00c0" points="366.54,-40.4 364.5,-30 359.61,-39.4 366.54,-40.4"/>
<text text-anchor="middle" x="369" y="-51.8" font-family="Times,serif" font-size="14.00" fill="#5b00c0">rw</text>
</g>
<!-- T518&#45;&gt;T519 -->
<g id="edge2" class="edge">
<title>T518:f2&#45;&gt;T519:f0</title>
<path fill="none" stroke="#5b00c0" d="M204.5,-30C204.5,-62.08 254.47,-48.9 265.4,-71.08"/>
<polygon fill="#5b00c0" stroke="#5b00c0" points="262.01,-71.94 267.5,-81 268.86,-70.49 262.01,-71.94"/>
<text text-anchor="middle" x="267" y="-51.8" font-family="Times,serif" font-size="14.00" fill="#5b00c0">rw</text>
</g>
</g>
</svg>
