<?xml version="1.0" encoding="UTF-8" standalone="no"?>
<!DOCTYPE svg PUBLIC "-//W3C//DTD SVG 1.1//EN"
 "http://www.w3.org/Graphics/SVG/1.1/DTD/svg11.dtd">
<!-- Generated by graphviz version 2.43.0 (0)
 -->
<!-- Title: a_graph Pages: 1 -->
<svg width="832pt" height="119pt"
 viewBox="0.00 0.00 832.00 119.00" xmlns="http://www.w3.org/2000/svg" xmlns:xlink="http://www.w3.org/1999/xlink">
<g id="graph0" class="graph" transform="scale(1 1) rotate(0) translate(4 115)">
<title>a_graph</title>
<polygon fill="white" stroke="transparent" points="-4,4 -4,-115 828,-115 828,4 -4,4"/>
<!-- T1594 -->
<g id="node1" class="node">
<title>T1594</title>
<polygon fill="none" stroke="#0058ad" points="0,-81.5 0,-110.5 824,-110.5 824,-81.5 0,-81.5"/>
<text text-anchor="middle" x="46" y="-92.3" font-family="Times,serif" font-size="14.00" fill="#0058ad">r 663 [1 2]</text>
<polyline fill="none" stroke="#0058ad" points="92,-81.5 92,-110.5 "/>
<text text-anchor="middle" x="138" y="-92.3" font-family="Times,serif" font-size="14.00" fill="#0058ad">r 660 [1 4]</text>
<polyline fill="none" stroke="#0058ad" points="184,-81.5 184,-110.5 "/>
<text text-anchor="middle" x="230" y="-92.3" font-family="Times,serif" font-size="14.00" fill="#0058ad">r 656 [1 3]</text>
<polyline fill="none" stroke="#0058ad" points="276,-81.5 276,-110.5 "/>
<text text-anchor="middle" x="311" y="-92.3" font-family="Times,serif" font-size="14.00" fill="#0058ad">a 663 3</text>
<polyline fill="none" stroke="#0058ad" points="346,-81.5 346,-110.5 "/>
<text text-anchor="middle" x="399" y="-92.3" font-family="Times,serif" font-size="14.00" fill="#0058ad">r 596 [1 2 4]</text>
<polyline fill="none" stroke="#0058ad" points="452,-81.5 452,-110.5 "/>
<text text-anchor="middle" x="487" y="-92.3" font-family="Times,serif" font-size="14.00" fill="#0058ad">a 663 4</text>
<polyline fill="none" stroke="#0058ad" points="522,-81.5 522,-110.5 "/>
<text text-anchor="middle" x="557" y="-92.3" font-family="Times,serif" font-size="14.00" fill="#0058ad">a 663 5</text>
<polyline fill="none" stroke="#0058ad" points="592,-81.5 592,-110.5 "/>
<text text-anchor="middle" x="638" y="-92.3" font-family="Times,serif" font-size="14.00" fill="#0058ad">r 660 [1 4]</text>
<polyline fill="none" stroke="#0058ad" points="684,-81.5 684,-110.5 "/>
<text text-anchor="middle" x="719" y="-92.3" font-family="Times,serif" font-size="14.00" fill="#0058ad">a 662 2</text>
<polyline fill="none" stroke="#0058ad" points="754,-81.5 754,-110.5 "/>
<text text-anchor="middle" x="789" y="-92.3" font-family="Times,serif" font-size="14.00" fill="#0058ad">a 662 3</text>
</g>
<!-- T1595 -->
<g id="node2" class="node">
<title>T1595</title>
<polygon fill="none" stroke="#0058ad" points="271,-0.5 271,-29.5 727,-29.5 727,-0.5 271,-0.5"/>
<text text-anchor="middle" x="306" y="-11.3" font-family="Times,serif" font-size="14.00" fill="#0058ad">a 664 1</text>
<polyline fill="none" stroke="#0058ad" points="341,-0.5 341,-29.5 "/>
<text text-anchor="middle" x="380.5" y="-11.3" font-family="Times,serif" font-size="14.00" fill="#0058ad">r 664 [1]</text>
<polyline fill="none" stroke="#0058ad" points="420,-0.5 420,-29.5 "/>
<text text-anchor="middle" x="455" y="-11.3" font-family="Times,serif" font-size="14.00" fill="#0058ad">a 660 5</text>
<polyline fill="none" stroke="#0058ad" points="490,-0.5 490,-29.5 "/>
<text text-anchor="middle" x="529.5" y="-11.3" font-family="Times,serif" font-size="14.00" fill="#0058ad">r 662 [1]</text>
<polyline fill="none" stroke="#0058ad" points="569,-0.5 569,-29.5 "/>
<text text-anchor="middle" x="608.5" y="-11.3" font-family="Times,serif" font-size="14.00" fill="#0058ad">r 664 [1]</text>
<polyline fill="none" stroke="#0058ad" points="648,-0.5 648,-29.5 "/>
<text text-anchor="middle" x="687.5" y="-11.3" font-family="Times,serif" font-size="14.00" fill="#0058ad">r 662 [1]</text>
</g>
<!-- T1594&#45;&gt;T1595 -->
<g id="edge1" class="edge">
<title>T1594:f1&#45;&gt;T1595:f2</title>
<path fill="none" stroke="#5b00c0" d="M138,-81C138,58.08 439.11,-161.04 454.4,-40.15"/>
<polygon fill="#5b00c0" stroke="#5b00c0" points="457.9,-40.19 455,-30 450.91,-39.77 457.9,-40.19"/>
<text text-anchor="middle" x="461.5" y="-51.8" font-family="Times,serif" font-size="14.00" fill="#5b00c0">rw</text>
</g>
<!-- T1595&#45;&gt;T1594 -->
<g id="edge2" class="edge">
<title>T1595:f3&#45;&gt;T1594:f8</title>
<path fill="none" stroke="#5b00c0" d="M530,-30C530,-113.27 703.11,-4.18 717.98,-70.91"/>
<polygon fill="#5b00c0" stroke="#5b00c0" points="714.51,-71.4 719,-81 721.48,-70.7 714.51,-71.4"/>
<text text-anchor="middle" x="722.5" y="-51.8" font-family="Times,serif" font-size="14.00" fill="#5b00c0">rw</text>
</g>
</g>
</svg>
