<?xml version="1.0" encoding="UTF-8" standalone="no"?>
<!DOCTYPE svg PUBLIC "-//W3C//DTD SVG 1.1//EN"
 "http://www.w3.org/Graphics/SVG/1.1/DTD/svg11.dtd">
<!-- Generated by graphviz version 2.43.0 (0)
 -->
<!-- Title: a_graph Pages: 1 -->
<svg width="869pt" height="200pt"
 viewBox="0.00 0.00 868.50 200.00" xmlns="http://www.w3.org/2000/svg" xmlns:xlink="http://www.w3.org/1999/xlink">
<g id="graph0" class="graph" transform="scale(1 1) rotate(0) translate(4 196)">
<title>a_graph</title>
<polygon fill="white" stroke="transparent" points="-4,4 -4,-196 864.5,-196 864.5,4 -4,4"/>
<!-- T118 -->
<g id="node1" class="node">
<title>T118</title>
<polygon fill="none" stroke="#0058ad" points="280.5,-162.5 280.5,-191.5 860.5,-191.5 860.5,-162.5 280.5,-162.5"/>
<text text-anchor="middle" x="311" y="-173.3" font-family="Times,serif" font-size="14.00" fill="#0058ad">r 51 []</text>
<polyline fill="none" stroke="#0058ad" points="341.5,-162.5 341.5,-191.5 "/>
<text text-anchor="middle" x="372" y="-173.3" font-family="Times,serif" font-size="14.00" fill="#0058ad">a 39 5</text>
<polyline fill="none" stroke="#0058ad" points="402.5,-162.5 402.5,-191.5 "/>
<text text-anchor="middle" x="433" y="-173.3" font-family="Times,serif" font-size="14.00" fill="#0058ad">r 51 []</text>
<polyline fill="none" stroke="#0058ad" points="463.5,-162.5 463.5,-191.5 "/>
<text text-anchor="middle" x="494" y="-173.3" font-family="Times,serif" font-size="14.00" fill="#0058ad">r 51 []</text>
<polyline fill="none" stroke="#0058ad" points="524.5,-162.5 524.5,-191.5 "/>
<text text-anchor="middle" x="555" y="-173.3" font-family="Times,serif" font-size="14.00" fill="#0058ad">r 51 []</text>
<polyline fill="none" stroke="#0058ad" points="585.5,-162.5 585.5,-191.5 "/>
<text text-anchor="middle" x="616" y="-173.3" font-family="Times,serif" font-size="14.00" fill="#0058ad">r 51 []</text>
<polyline fill="none" stroke="#0058ad" points="646.5,-162.5 646.5,-191.5 "/>
<text text-anchor="middle" x="688" y="-173.3" font-family="Times,serif" font-size="14.00" fill="#0058ad">r 39 [2 5]</text>
<polyline fill="none" stroke="#0058ad" points="729.5,-162.5 729.5,-191.5 "/>
<text text-anchor="middle" x="764.5" y="-173.3" font-family="Times,serif" font-size="14.00" fill="#0058ad">r 50 [1]</text>
<polyline fill="none" stroke="#0058ad" points="799.5,-162.5 799.5,-191.5 "/>
<text text-anchor="middle" x="830" y="-173.3" font-family="Times,serif" font-size="14.00" fill="#0058ad">r 51 []</text>
</g>
<!-- T115 -->
<g id="node2" class="node">
<title>T115</title>
<polygon fill="none" stroke="#0058ad" points="201,-81.5 201,-110.5 628,-110.5 628,-81.5 201,-81.5"/>
<text text-anchor="middle" x="231.5" y="-92.3" font-family="Times,serif" font-size="14.00" fill="#0058ad">r 51 []</text>
<polyline fill="none" stroke="#0058ad" points="262,-81.5 262,-110.5 "/>
<text text-anchor="middle" x="292.5" y="-92.3" font-family="Times,serif" font-size="14.00" fill="#0058ad">r 51 []</text>
<polyline fill="none" stroke="#0058ad" points="323,-81.5 323,-110.5 "/>
<text text-anchor="middle" x="353.5" y="-92.3" font-family="Times,serif" font-size="14.00" fill="#0058ad">r 51 []</text>
<polyline fill="none" stroke="#0058ad" points="384,-81.5 384,-110.5 "/>
<text text-anchor="middle" x="414.5" y="-92.3" font-family="Times,serif" font-size="14.00" fill="#0058ad">r 50 []</text>
<polyline fill="none" stroke="#0058ad" points="445,-81.5 445,-110.5 "/>
<text text-anchor="middle" x="475.5" y="-92.3" font-family="Times,serif" font-size="14.00" fill="#0058ad">a 51 2</text>
<polyline fill="none" stroke="#0058ad" points="506,-81.5 506,-110.5 "/>
<text text-anchor="middle" x="536.5" y="-92.3" font-family="Times,serif" font-size="14.00" fill="#0058ad">a 47 2</text>
<polyline fill="none" stroke="#0058ad" points="567,-81.5 567,-110.5 "/>
<text text-anchor="middle" x="597.5" y="-92.3" font-family="Times,serif" font-size="14.00" fill="#0058ad">a 51 3</text>
</g>
<!-- T118&#45;&gt;T115 -->
<g id="edge1" class="edge">
<title>T118:f0&#45;&gt;T115:f4</title>
<path fill="none" stroke="#5b00c0" d="M310.5,-162C310.5,-88.99 459.78,-178.17 474.36,-121"/>
<polygon fill="#5b00c0" stroke="#5b00c0" points="477.84,-121.33 475.5,-111 470.89,-120.54 477.84,-121.33"/>
<text text-anchor="middle" x="481" y="-132.8" font-family="Times,serif" font-size="14.00" fill="#5b00c0">rw</text>
</g>
<!-- T112 -->
<g id="node3" class="node">
<title>T112</title>
<polygon fill="none" stroke="#0058ad" points="0,-0.5 0,-29.5 809,-29.5 809,-0.5 0,-0.5"/>
<text text-anchor="middle" x="48.5" y="-11.3" font-family="Times,serif" font-size="14.00" fill="#0058ad">r 45 [1 2 3]</text>
<polyline fill="none" stroke="#0058ad" points="97,-0.5 97,-29.5 "/>
<text text-anchor="middle" x="127.5" y="-11.3" font-family="Times,serif" font-size="14.00" fill="#0058ad">r 49 []</text>
<polyline fill="none" stroke="#0058ad" points="158,-0.5 158,-29.5 "/>
<text text-anchor="middle" x="188.5" y="-11.3" font-family="Times,serif" font-size="14.00" fill="#0058ad">a 49 2</text>
<polyline fill="none" stroke="#0058ad" points="219,-0.5 219,-29.5 "/>
<text text-anchor="middle" x="249.5" y="-11.3" font-family="Times,serif" font-size="14.00" fill="#0058ad">a 45 5</text>
<polyline fill="none" stroke="#0058ad" points="280,-0.5 280,-29.5 "/>
<text text-anchor="middle" x="315" y="-11.3" font-family="Times,serif" font-size="14.00" fill="#0058ad">r 49 [2]</text>
<polyline fill="none" stroke="#0058ad" points="350,-0.5 350,-29.5 "/>
<text text-anchor="middle" x="380.5" y="-11.3" font-family="Times,serif" font-size="14.00" fill="#0058ad">a 49 3</text>
<polyline fill="none" stroke="#0058ad" points="411,-0.5 411,-29.5 "/>
<text text-anchor="middle" x="466" y="-11.3" font-family="Times,serif" font-size="14.00" fill="#0058ad">r 45 [1 2 3 5]</text>
<polyline fill="none" stroke="#0058ad" points="521,-0.5 521,-29.5 "/>
<text text-anchor="middle" x="562.5" y="-11.3" font-family="Times,serif" font-size="14.00" fill="#0058ad">r 49 [2 3]</text>
<polyline fill="none" stroke="#0058ad" points="604,-0.5 604,-29.5 "/>
<text text-anchor="middle" x="634.5" y="-11.3" font-family="Times,serif" font-size="14.00" fill="#0058ad">a 50 1</text>
<polyline fill="none" stroke="#0058ad" points="665,-0.5 665,-29.5 "/>
<text text-anchor="middle" x="695.5" y="-11.3" font-family="Times,serif" font-size="14.00" fill="#0058ad">r 47 []</text>
<polyline fill="none" stroke="#0058ad" points="726,-0.5 726,-29.5 "/>
<text text-anchor="middle" x="767.5" y="-11.3" font-family="Times,serif" font-size="14.00" fill="#0058ad">r 49 [2 3]</text>
</g>
<!-- T115&#45;&gt;T112 -->
<g id="edge2" class="edge">
<title>T115:f3&#45;&gt;T112:f8</title>
<path fill="none" stroke="#5b00c0" d="M414.5,-81C414.5,15.65 618.47,-119.6 633.61,-40.17"/>
<polygon fill="#5b00c0" stroke="#5b00c0" points="637.12,-40.27 634.5,-30 630.14,-39.66 637.12,-40.27"/>
<text text-anchor="middle" x="640" y="-51.8" font-family="Times,serif" font-size="14.00" fill="#5b00c0">rw</text>
</g>
<!-- T112&#45;&gt;T118 -->
<g id="edge3" class="edge">
<title>T112:f8&#45;&gt;T118:f7</title>
<path fill="none" stroke="#c000a5" d="M634.5,-30C634.5,-41.63 645.22,-39.83 653.5,-48 701.29,-95.14 758.37,-91.79 764.04,-151.81"/>
<polygon fill="#c000a5" stroke="#c000a5" points="760.55,-152.17 764.5,-162 767.55,-151.85 760.55,-152.17"/>
<text text-anchor="middle" x="755" y="-92.3" font-family="Times,serif" font-size="14.00" fill="#c000a5">wr</text>
</g>
</g>
</svg>
