<?xml version="1.0" encoding="UTF-8" standalone="no"?>
<!DOCTYPE svg PUBLIC "-//W3C//DTD SVG 1.1//EN"
 "http://www.w3.org/Graphics/SVG/1.1/DTD/svg11.dtd">
<!-- Generated by graphviz version 2.43.0 (0)
 -->
<!-- Title: a_graph Pages: 1 -->
<svg width="1027pt" height="119pt"
 viewBox="0.00 0.00 1027.00 119.00" xmlns="http://www.w3.org/2000/svg" xmlns:xlink="http://www.w3.org/1999/xlink">
<g id="graph0" class="graph" transform="scale(1 1) rotate(0) translate(4 115)">
<title>a_graph</title>
<polygon fill="white" stroke="transparent" points="-4,4 -4,-115 1023,-115 1023,4 -4,4"/>
<!-- T2834 -->
<g id="node1" class="node">
<title>T2834</title>
<polygon fill="none" stroke="#0058ad" points="193,-81.5 193,-110.5 1019,-110.5 1019,-81.5 193,-81.5"/>
<text text-anchor="middle" x="232.5" y="-92.3" font-family="Times,serif" font-size="14.00" fill="#0058ad">r 1179 []</text>
<polyline fill="none" stroke="#0058ad" points="272,-81.5 272,-110.5 "/>
<text text-anchor="middle" x="311.5" y="-92.3" font-family="Times,serif" font-size="14.00" fill="#0058ad">a 1179 3</text>
<polyline fill="none" stroke="#0058ad" points="351,-81.5 351,-110.5 "/>
<text text-anchor="middle" x="390.5" y="-92.3" font-family="Times,serif" font-size="14.00" fill="#0058ad">a 1171 1</text>
<polyline fill="none" stroke="#0058ad" points="430,-81.5 430,-110.5 "/>
<text text-anchor="middle" x="469.5" y="-92.3" font-family="Times,serif" font-size="14.00" fill="#0058ad">r 1178 []</text>
<polyline fill="none" stroke="#0058ad" points="509,-81.5 509,-110.5 "/>
<text text-anchor="middle" x="548.5" y="-92.3" font-family="Times,serif" font-size="14.00" fill="#0058ad">a 1179 4</text>
<polyline fill="none" stroke="#0058ad" points="588,-81.5 588,-110.5 "/>
<text text-anchor="middle" x="627.5" y="-92.3" font-family="Times,serif" font-size="14.00" fill="#0058ad">a 1179 5</text>
<polyline fill="none" stroke="#0058ad" points="667,-81.5 667,-110.5 "/>
<text text-anchor="middle" x="706.5" y="-92.3" font-family="Times,serif" font-size="14.00" fill="#0058ad">a 1171 2</text>
<polyline fill="none" stroke="#0058ad" points="746,-81.5 746,-110.5 "/>
<text text-anchor="middle" x="803.5" y="-92.3" font-family="Times,serif" font-size="14.00" fill="#0058ad">r 1179 [3 4 5]</text>
<polyline fill="none" stroke="#0058ad" points="861,-81.5 861,-110.5 "/>
<text text-anchor="middle" x="900.5" y="-92.3" font-family="Times,serif" font-size="14.00" fill="#0058ad">a 1144 1</text>
<polyline fill="none" stroke="#0058ad" points="940,-81.5 940,-110.5 "/>
<text text-anchor="middle" x="979.5" y="-92.3" font-family="Times,serif" font-size="14.00" fill="#0058ad">r 1176 []</text>
</g>
<!-- T2836 -->
<g id="node2" class="node">
<title>T2836</title>
<polygon fill="none" stroke="#0058ad" points="0,-0.5 0,-29.5 992,-29.5 992,-0.5 0,-0.5"/>
<text text-anchor="middle" x="39.5" y="-11.3" font-family="Times,serif" font-size="14.00" fill="#0058ad">r 1172 []</text>
<polyline fill="none" stroke="#0058ad" points="79,-0.5 79,-29.5 "/>
<text text-anchor="middle" x="118.5" y="-11.3" font-family="Times,serif" font-size="14.00" fill="#0058ad">r 1176 []</text>
<polyline fill="none" stroke="#0058ad" points="158,-0.5 158,-29.5 "/>
<text text-anchor="middle" x="197.5" y="-11.3" font-family="Times,serif" font-size="14.00" fill="#0058ad">r 1176 []</text>
<polyline fill="none" stroke="#0058ad" points="237,-0.5 237,-29.5 "/>
<text text-anchor="middle" x="276.5" y="-11.3" font-family="Times,serif" font-size="14.00" fill="#0058ad">r 1176 []</text>
<polyline fill="none" stroke="#0058ad" points="316,-0.5 316,-29.5 "/>
<text text-anchor="middle" x="355.5" y="-11.3" font-family="Times,serif" font-size="14.00" fill="#0058ad">r 1179 []</text>
<polyline fill="none" stroke="#0058ad" points="395,-0.5 395,-29.5 "/>
<text text-anchor="middle" x="434.5" y="-11.3" font-family="Times,serif" font-size="14.00" fill="#0058ad">r 1178 []</text>
<polyline fill="none" stroke="#0058ad" points="474,-0.5 474,-29.5 "/>
<text text-anchor="middle" x="513.5" y="-11.3" font-family="Times,serif" font-size="14.00" fill="#0058ad">a 1180 1</text>
<polyline fill="none" stroke="#0058ad" points="553,-0.5 553,-29.5 "/>
<text text-anchor="middle" x="592.5" y="-11.3" font-family="Times,serif" font-size="14.00" fill="#0058ad">r 1176 []</text>
<polyline fill="none" stroke="#0058ad" points="632,-0.5 632,-29.5 "/>
<text text-anchor="middle" x="671.5" y="-11.3" font-family="Times,serif" font-size="14.00" fill="#0058ad">a 1180 2</text>
<polyline fill="none" stroke="#0058ad" points="711,-0.5 711,-29.5 "/>
<text text-anchor="middle" x="761.5" y="-11.3" font-family="Times,serif" font-size="14.00" fill="#0058ad">r 1180 [1 2]</text>
<polyline fill="none" stroke="#0058ad" points="812,-0.5 812,-29.5 "/>
<text text-anchor="middle" x="862.5" y="-11.3" font-family="Times,serif" font-size="14.00" fill="#0058ad">r 1180 [1 2]</text>
<polyline fill="none" stroke="#0058ad" points="913,-0.5 913,-29.5 "/>
<text text-anchor="middle" x="952.5" y="-11.3" font-family="Times,serif" font-size="14.00" fill="#0058ad">a 1176 4</text>
</g>
<!-- T2834&#45;&gt;T2836 -->
<g id="edge1" class="edge">
<title>T2834:f9&#45;&gt;T2836:f11</title>
<path fill="none" stroke="#5b00c0" d="M980,-81C980,-59.16 960.42,-56.13 954.61,-39.88"/>
<polygon fill="#5b00c0" stroke="#5b00c0" points="958.06,-39.31 953,-30 951.15,-40.43 958.06,-39.31"/>
<text text-anchor="middle" x="982.5" y="-51.8" font-family="Times,serif" font-size="14.00" fill="#5b00c0">rw</text>
</g>
<!-- T2836&#45;&gt;T2834 -->
<g id="edge2" class="edge">
<title>T2836:f4&#45;&gt;T2834:f1</title>
<path fill="none" stroke="#5b00c0" d="M355,-30C355,-55.96 321.91,-52.74 313.12,-70.94"/>
<polygon fill="#5b00c0" stroke="#5b00c0" points="309.64,-70.49 311,-81 316.49,-71.94 309.64,-70.49"/>
<text text-anchor="middle" x="354.5" y="-51.8" font-family="Times,serif" font-size="14.00" fill="#5b00c0">rw</text>
</g>
</g>
</svg>
