<?xml version="1.0" encoding="UTF-8" standalone="no"?>
<!DOCTYPE svg PUBLIC "-//W3C//DTD SVG 1.1//EN"
 "http://www.w3.org/Graphics/SVG/1.1/DTD/svg11.dtd">
<!-- Generated by graphviz version 2.43.0 (0)
 -->
<!-- Title: a_graph Pages: 1 -->
<svg width="620pt" height="119pt"
 viewBox="0.00 0.00 619.50 119.00" xmlns="http://www.w3.org/2000/svg" xmlns:xlink="http://www.w3.org/1999/xlink">
<g id="graph0" class="graph" transform="scale(1 1) rotate(0) translate(4 115)">
<title>a_graph</title>
<polygon fill="white" stroke="transparent" points="-4,4 -4,-115 615.5,-115 615.5,4 -4,4"/>
<!-- T1375 -->
<g id="node1" class="node">
<title>T1375</title>
<polygon fill="none" stroke="#0058ad" points="85.5,-81.5 85.5,-110.5 611.5,-110.5 611.5,-81.5 85.5,-81.5"/>
<text text-anchor="middle" x="125" y="-92.3" font-family="Times,serif" font-size="14.00" fill="#0058ad">r 569 [4]</text>
<polyline fill="none" stroke="#0058ad" points="164.5,-81.5 164.5,-110.5 "/>
<text text-anchor="middle" x="199.5" y="-92.3" font-family="Times,serif" font-size="14.00" fill="#0058ad">a 571 4</text>
<polyline fill="none" stroke="#0058ad" points="234.5,-81.5 234.5,-110.5 "/>
<text text-anchor="middle" x="274" y="-92.3" font-family="Times,serif" font-size="14.00" fill="#0058ad">r 571 [4]</text>
<polyline fill="none" stroke="#0058ad" points="313.5,-81.5 313.5,-110.5 "/>
<text text-anchor="middle" x="353" y="-92.3" font-family="Times,serif" font-size="14.00" fill="#0058ad">r 571 [4]</text>
<polyline fill="none" stroke="#0058ad" points="392.5,-81.5 392.5,-110.5 "/>
<text text-anchor="middle" x="427.5" y="-92.3" font-family="Times,serif" font-size="14.00" fill="#0058ad">a 564 2</text>
<polyline fill="none" stroke="#0058ad" points="462.5,-81.5 462.5,-110.5 "/>
<text text-anchor="middle" x="502" y="-92.3" font-family="Times,serif" font-size="14.00" fill="#0058ad">r 571 [4]</text>
<polyline fill="none" stroke="#0058ad" points="541.5,-81.5 541.5,-110.5 "/>
<text text-anchor="middle" x="576.5" y="-92.3" font-family="Times,serif" font-size="14.00" fill="#0058ad">r 573 []</text>
</g>
<!-- T1374 -->
<g id="node2" class="node">
<title>T1374</title>
<polygon fill="none" stroke="#0058ad" points="0,-0.5 0,-29.5 571,-29.5 571,-0.5 0,-0.5"/>
<text text-anchor="middle" x="35" y="-11.3" font-family="Times,serif" font-size="14.00" fill="#0058ad">a 570 3</text>
<polyline fill="none" stroke="#0058ad" points="70,-0.5 70,-29.5 "/>
<text text-anchor="middle" x="105" y="-11.3" font-family="Times,serif" font-size="14.00" fill="#0058ad">a 569 5</text>
<polyline fill="none" stroke="#0058ad" points="140,-0.5 140,-29.5 "/>
<text text-anchor="middle" x="175" y="-11.3" font-family="Times,serif" font-size="14.00" fill="#0058ad">a 524 4</text>
<polyline fill="none" stroke="#0058ad" points="210,-0.5 210,-29.5 "/>
<text text-anchor="middle" x="263" y="-11.3" font-family="Times,serif" font-size="14.00" fill="#0058ad">r 570 [1 2 3]</text>
<polyline fill="none" stroke="#0058ad" points="316,-0.5 316,-29.5 "/>
<text text-anchor="middle" x="369" y="-11.3" font-family="Times,serif" font-size="14.00" fill="#0058ad">r 570 [1 2 3]</text>
<polyline fill="none" stroke="#0058ad" points="422,-0.5 422,-29.5 "/>
<text text-anchor="middle" x="461.5" y="-11.3" font-family="Times,serif" font-size="14.00" fill="#0058ad">r 564 [1]</text>
<polyline fill="none" stroke="#0058ad" points="501,-0.5 501,-29.5 "/>
<text text-anchor="middle" x="536" y="-11.3" font-family="Times,serif" font-size="14.00" fill="#0058ad">a 570 4</text>
</g>
<!-- T1375&#45;&gt;T1374 -->
<g id="edge1" class="edge">
<title>T1375:f0&#45;&gt;T1374:f1</title>
<path fill="none" stroke="#5b00c0" d="M124.5,-81C124.5,-60.46 110.26,-55.61 105.81,-39.97"/>
<polygon fill="#5b00c0" stroke="#5b00c0" points="109.28,-39.46 104.5,-30 102.34,-40.37 109.28,-39.46"/>
<text text-anchor="middle" x="130" y="-51.8" font-family="Times,serif" font-size="14.00" fill="#5b00c0">rw</text>
</g>
<!-- T1374&#45;&gt;T1375 -->
<g id="edge2" class="edge">
<title>T1374:f5&#45;&gt;T1375:f4</title>
<path fill="none" stroke="#5b00c0" d="M461.5,-30C461.5,-53.41 436.39,-54.13 429.33,-71.16"/>
<polygon fill="#5b00c0" stroke="#5b00c0" points="425.89,-70.53 427.5,-81 432.77,-71.81 425.89,-70.53"/>
<text text-anchor="middle" x="462" y="-51.8" font-family="Times,serif" font-size="14.00" fill="#5b00c0">rw</text>
</g>
</g>
</svg>
