<?xml version="1.0" encoding="UTF-8" standalone="no"?>
<!DOCTYPE svg PUBLIC "-//W3C//DTD SVG 1.1//EN"
 "http://www.w3.org/Graphics/SVG/1.1/DTD/svg11.dtd">
<!-- Generated by graphviz version 2.43.0 (0)
 -->
<!-- Title: a_graph Pages: 1 -->
<svg width="1143pt" height="119pt"
 viewBox="0.00 0.00 1143.00 119.00" xmlns="http://www.w3.org/2000/svg" xmlns:xlink="http://www.w3.org/1999/xlink">
<g id="graph0" class="graph" transform="scale(1 1) rotate(0) translate(4 115)">
<title>a_graph</title>
<polygon fill="white" stroke="transparent" points="-4,4 -4,-115 1139,-115 1139,4 -4,4"/>
<!-- T2737 -->
<g id="node1" class="node">
<title>T2737</title>
<polygon fill="none" stroke="#0058ad" points="287,-81.5 287,-110.5 1135,-110.5 1135,-81.5 287,-81.5"/>
<text text-anchor="middle" x="326.5" y="-92.3" font-family="Times,serif" font-size="14.00" fill="#0058ad">a 1133 1</text>
<polyline fill="none" stroke="#0058ad" points="366,-81.5 366,-110.5 "/>
<text text-anchor="middle" x="416.5" y="-92.3" font-family="Times,serif" font-size="14.00" fill="#0058ad">r 1119 [1 2]</text>
<polyline fill="none" stroke="#0058ad" points="467,-81.5 467,-110.5 "/>
<text text-anchor="middle" x="506.5" y="-92.3" font-family="Times,serif" font-size="14.00" fill="#0058ad">r 1125 []</text>
<polyline fill="none" stroke="#0058ad" points="546,-81.5 546,-110.5 "/>
<text text-anchor="middle" x="590" y="-92.3" font-family="Times,serif" font-size="14.00" fill="#0058ad">r 1133 [1]</text>
<polyline fill="none" stroke="#0058ad" points="634,-81.5 634,-110.5 "/>
<text text-anchor="middle" x="678" y="-92.3" font-family="Times,serif" font-size="14.00" fill="#0058ad">r 1133 [1]</text>
<polyline fill="none" stroke="#0058ad" points="722,-81.5 722,-110.5 "/>
<text text-anchor="middle" x="761.5" y="-92.3" font-family="Times,serif" font-size="14.00" fill="#0058ad">r 1125 []</text>
<polyline fill="none" stroke="#0058ad" points="801,-81.5 801,-110.5 "/>
<text text-anchor="middle" x="845" y="-92.3" font-family="Times,serif" font-size="14.00" fill="#0058ad">r 1133 [1]</text>
<polyline fill="none" stroke="#0058ad" points="889,-81.5 889,-110.5 "/>
<text text-anchor="middle" x="933" y="-92.3" font-family="Times,serif" font-size="14.00" fill="#0058ad">r 1133 [1]</text>
<polyline fill="none" stroke="#0058ad" points="977,-81.5 977,-110.5 "/>
<text text-anchor="middle" x="1016.5" y="-92.3" font-family="Times,serif" font-size="14.00" fill="#0058ad">a 1131 3</text>
<polyline fill="none" stroke="#0058ad" points="1056,-81.5 1056,-110.5 "/>
<text text-anchor="middle" x="1095.5" y="-92.3" font-family="Times,serif" font-size="14.00" fill="#0058ad">a 1133 2</text>
</g>
<!-- T2731 -->
<g id="node2" class="node">
<title>T2731</title>
<polygon fill="none" stroke="#0058ad" points="0,-0.5 0,-29.5 834,-29.5 834,-0.5 0,-0.5"/>
<text text-anchor="middle" x="39.5" y="-11.3" font-family="Times,serif" font-size="14.00" fill="#0058ad">a 1125 3</text>
<polyline fill="none" stroke="#0058ad" points="79,-0.5 79,-29.5 "/>
<text text-anchor="middle" x="118.5" y="-11.3" font-family="Times,serif" font-size="14.00" fill="#0058ad">a 1132 3</text>
<polyline fill="none" stroke="#0058ad" points="158,-0.5 158,-29.5 "/>
<text text-anchor="middle" x="197.5" y="-11.3" font-family="Times,serif" font-size="14.00" fill="#0058ad">a 1132 4</text>
<polyline fill="none" stroke="#0058ad" points="237,-0.5 237,-29.5 "/>
<text text-anchor="middle" x="287.5" y="-11.3" font-family="Times,serif" font-size="14.00" fill="#0058ad">r 1132 [3 4]</text>
<polyline fill="none" stroke="#0058ad" points="338,-0.5 338,-29.5 "/>
<text text-anchor="middle" x="377.5" y="-11.3" font-family="Times,serif" font-size="14.00" fill="#0058ad">r 1128 []</text>
<polyline fill="none" stroke="#0058ad" points="417,-0.5 417,-29.5 "/>
<text text-anchor="middle" x="456.5" y="-11.3" font-family="Times,serif" font-size="14.00" fill="#0058ad">r 1128 []</text>
<polyline fill="none" stroke="#0058ad" points="496,-0.5 496,-29.5 "/>
<text text-anchor="middle" x="535.5" y="-11.3" font-family="Times,serif" font-size="14.00" fill="#0058ad">r 1131 []</text>
<polyline fill="none" stroke="#0058ad" points="575,-0.5 575,-29.5 "/>
<text text-anchor="middle" x="614.5" y="-11.3" font-family="Times,serif" font-size="14.00" fill="#0058ad">a 1132 5</text>
<polyline fill="none" stroke="#0058ad" points="654,-0.5 654,-29.5 "/>
<text text-anchor="middle" x="704.5" y="-11.3" font-family="Times,serif" font-size="14.00" fill="#0058ad">r 1119 [1 2]</text>
<polyline fill="none" stroke="#0058ad" points="755,-0.5 755,-29.5 "/>
<text text-anchor="middle" x="794.5" y="-11.3" font-family="Times,serif" font-size="14.00" fill="#0058ad">r 1133 []</text>
</g>
<!-- T2737&#45;&gt;T2731 -->
<g id="edge1" class="edge">
<title>T2737:f2&#45;&gt;T2731:f0</title>
<path fill="none" stroke="#5b00c0" d="M506,-81C506,-24.83 439.47,-56.85 384,-48 366.9,-45.27 99.75,-48.44 47.74,-34.98"/>
<polygon fill="#5b00c0" stroke="#5b00c0" points="49.42,-31.91 39,-30 45.95,-37.99 49.42,-31.91"/>
<text text-anchor="middle" x="512.5" y="-51.8" font-family="Times,serif" font-size="14.00" fill="#5b00c0">rw</text>
</g>
<!-- T2731&#45;&gt;T2737 -->
<g id="edge2" class="edge">
<title>T2731:f9&#45;&gt;T2737:f0</title>
<path fill="none" stroke="#5b00c0" d="M795,-30C795,-54.13 383.24,-38.63 361,-48 344.84,-54.81 331.64,-58.27 327.42,-71.09"/>
<polygon fill="#5b00c0" stroke="#5b00c0" points="323.95,-70.6 326,-81 330.88,-71.6 323.95,-70.6"/>
<text text-anchor="middle" x="370.5" y="-51.8" font-family="Times,serif" font-size="14.00" fill="#5b00c0">rw</text>
</g>
</g>
</svg>
