<?xml version="1.0" encoding="UTF-8" standalone="no"?>
<!DOCTYPE svg PUBLIC "-//W3C//DTD SVG 1.1//EN"
 "http://www.w3.org/Graphics/SVG/1.1/DTD/svg11.dtd">
<!-- Generated by graphviz version 2.43.0 (0)
 -->
<!-- Title: a_graph Pages: 1 -->
<svg width="1109pt" height="119pt"
 viewBox="0.00 0.00 1108.50 119.00" xmlns="http://www.w3.org/2000/svg" xmlns:xlink="http://www.w3.org/1999/xlink">
<g id="graph0" class="graph" transform="scale(1 1) rotate(0) translate(4 115)">
<title>a_graph</title>
<polygon fill="white" stroke="transparent" points="-4,4 -4,-115 1104.5,-115 1104.5,4 -4,4"/>
<!-- T274 -->
<g id="node1" class="node">
<title>T274</title>
<polygon fill="none" stroke="#0058ad" points="0,-81.5 0,-110.5 749,-110.5 749,-81.5 0,-81.5"/>
<text text-anchor="middle" x="35" y="-92.3" font-family="Times,serif" font-size="14.00" fill="#0058ad">r 113 []</text>
<polyline fill="none" stroke="#0058ad" points="70,-81.5 70,-110.5 "/>
<text text-anchor="middle" x="105" y="-92.3" font-family="Times,serif" font-size="14.00" fill="#0058ad">r 113 []</text>
<polyline fill="none" stroke="#0058ad" points="140,-81.5 140,-110.5 "/>
<text text-anchor="middle" x="175" y="-92.3" font-family="Times,serif" font-size="14.00" fill="#0058ad">a 113 2</text>
<polyline fill="none" stroke="#0058ad" points="210,-81.5 210,-110.5 "/>
<text text-anchor="middle" x="245" y="-92.3" font-family="Times,serif" font-size="14.00" fill="#0058ad">a 113 3</text>
<polyline fill="none" stroke="#0058ad" points="280,-81.5 280,-110.5 "/>
<text text-anchor="middle" x="315" y="-92.3" font-family="Times,serif" font-size="14.00" fill="#0058ad">a 113 4</text>
<polyline fill="none" stroke="#0058ad" points="350,-81.5 350,-110.5 "/>
<text text-anchor="middle" x="385" y="-92.3" font-family="Times,serif" font-size="14.00" fill="#0058ad">a 113 5</text>
<polyline fill="none" stroke="#0058ad" points="420,-81.5 420,-110.5 "/>
<text text-anchor="middle" x="455" y="-92.3" font-family="Times,serif" font-size="14.00" fill="#0058ad">a 114 1</text>
<polyline fill="none" stroke="#0058ad" points="490,-81.5 490,-110.5 "/>
<text text-anchor="middle" x="549.5" y="-92.3" font-family="Times,serif" font-size="14.00" fill="#0058ad">r 113 [2 3 4 5]</text>
<polyline fill="none" stroke="#0058ad" points="609,-81.5 609,-110.5 "/>
<text text-anchor="middle" x="644" y="-92.3" font-family="Times,serif" font-size="14.00" fill="#0058ad">r 115 []</text>
<polyline fill="none" stroke="#0058ad" points="679,-81.5 679,-110.5 "/>
<text text-anchor="middle" x="714" y="-92.3" font-family="Times,serif" font-size="14.00" fill="#0058ad">a 114 2</text>
</g>
<!-- T278 -->
<g id="node2" class="node">
<title>T278</title>
<polygon fill="none" stroke="#0058ad" points="308.5,-0.5 308.5,-29.5 1100.5,-29.5 1100.5,-0.5 308.5,-0.5"/>
<text text-anchor="middle" x="339" y="-11.3" font-family="Times,serif" font-size="14.00" fill="#0058ad">a 91 5</text>
<polyline fill="none" stroke="#0058ad" points="369.5,-0.5 369.5,-29.5 "/>
<text text-anchor="middle" x="404.5" y="-11.3" font-family="Times,serif" font-size="14.00" fill="#0058ad">r 116 []</text>
<polyline fill="none" stroke="#0058ad" points="439.5,-0.5 439.5,-29.5 "/>
<text text-anchor="middle" x="474.5" y="-11.3" font-family="Times,serif" font-size="14.00" fill="#0058ad">r 116 []</text>
<polyline fill="none" stroke="#0058ad" points="509.5,-0.5 509.5,-29.5 "/>
<text text-anchor="middle" x="544.5" y="-11.3" font-family="Times,serif" font-size="14.00" fill="#0058ad">r 114 []</text>
<polyline fill="none" stroke="#0058ad" points="579.5,-0.5 579.5,-29.5 "/>
<text text-anchor="middle" x="614.5" y="-11.3" font-family="Times,serif" font-size="14.00" fill="#0058ad">a 115 4</text>
<polyline fill="none" stroke="#0058ad" points="649.5,-0.5 649.5,-29.5 "/>
<text text-anchor="middle" x="684.5" y="-11.3" font-family="Times,serif" font-size="14.00" fill="#0058ad">a 116 1</text>
<polyline fill="none" stroke="#0058ad" points="719.5,-0.5 719.5,-29.5 "/>
<text text-anchor="middle" x="759" y="-11.3" font-family="Times,serif" font-size="14.00" fill="#0058ad">r 115 [4]</text>
<polyline fill="none" stroke="#0058ad" points="798.5,-0.5 798.5,-29.5 "/>
<text text-anchor="middle" x="838" y="-11.3" font-family="Times,serif" font-size="14.00" fill="#0058ad">r 115 [4]</text>
<polyline fill="none" stroke="#0058ad" points="877.5,-0.5 877.5,-29.5 "/>
<text text-anchor="middle" x="919" y="-11.3" font-family="Times,serif" font-size="14.00" fill="#0058ad">r 91 [2 5]</text>
<polyline fill="none" stroke="#0058ad" points="960.5,-0.5 960.5,-29.5 "/>
<text text-anchor="middle" x="995.5" y="-11.3" font-family="Times,serif" font-size="14.00" fill="#0058ad">a 115 5</text>
<polyline fill="none" stroke="#0058ad" points="1030.5,-0.5 1030.5,-29.5 "/>
<text text-anchor="middle" x="1065.5" y="-11.3" font-family="Times,serif" font-size="14.00" fill="#0058ad">a 116 2</text>
</g>
<!-- T274&#45;&gt;T278 -->
<g id="edge1" class="edge">
<title>T274:f8&#45;&gt;T278:f4</title>
<path fill="none" stroke="#5b00c0" d="M644.5,-81C644.5,-58.61 622.75,-56.44 616.29,-40.05"/>
<polygon fill="#5b00c0" stroke="#5b00c0" points="619.7,-39.23 614.5,-30 612.8,-40.46 619.7,-39.23"/>
<text text-anchor="middle" x="646" y="-51.8" font-family="Times,serif" font-size="14.00" fill="#5b00c0">rw</text>
</g>
<!-- T278&#45;&gt;T274 -->
<g id="edge2" class="edge">
<title>T278:f3&#45;&gt;T274:f6</title>
<path fill="none" stroke="#5b00c0" d="M544.5,-30C544.5,-71.67 470.14,-41.68 457.36,-71.04"/>
<polygon fill="#5b00c0" stroke="#5b00c0" points="453.89,-70.53 455.5,-81 460.77,-71.81 453.89,-70.53"/>
<text text-anchor="middle" x="544" y="-51.8" font-family="Times,serif" font-size="14.00" fill="#5b00c0">rw</text>
</g>
</g>
</svg>
