<?xml version="1.0" encoding="UTF-8" standalone="no"?>
<!DOCTYPE svg PUBLIC "-//W3C//DTD SVG 1.1//EN"
 "http://www.w3.org/Graphics/SVG/1.1/DTD/svg11.dtd">
<!-- Generated by graphviz version 2.43.0 (0)
 -->
<!-- Title: a_graph Pages: 1 -->
<svg width="1311pt" height="200pt"
 viewBox="0.00 0.00 1311.00 200.00" xmlns="http://www.w3.org/2000/svg" xmlns:xlink="http://www.w3.org/1999/xlink">
<g id="graph0" class="graph" transform="scale(1 1) rotate(0) translate(4 196)">
<title>a_graph</title>
<polygon fill="white" stroke="transparent" points="-4,4 -4,-196 1307,-196 1307,4 -4,4"/>
<!-- T2311 -->
<g id="node1" class="node">
<title>T2311</title>
<polygon fill="none" stroke="#0058ad" points="0,-162.5 0,-191.5 880,-191.5 880,-162.5 0,-162.5"/>
<text text-anchor="middle" x="35" y="-173.3" font-family="Times,serif" font-size="14.00" fill="#0058ad">a 953 2</text>
<polyline fill="none" stroke="#0058ad" points="70,-162.5 70,-191.5 "/>
<text text-anchor="middle" x="105" y="-173.3" font-family="Times,serif" font-size="14.00" fill="#0058ad">a 953 3</text>
<polyline fill="none" stroke="#0058ad" points="140,-162.5 140,-191.5 "/>
<text text-anchor="middle" x="186" y="-173.3" font-family="Times,serif" font-size="14.00" fill="#0058ad">r 944 [2 3]</text>
<polyline fill="none" stroke="#0058ad" points="232,-162.5 232,-191.5 "/>
<text text-anchor="middle" x="267" y="-173.3" font-family="Times,serif" font-size="14.00" fill="#0058ad">a 937 4</text>
<polyline fill="none" stroke="#0058ad" points="302,-162.5 302,-191.5 "/>
<text text-anchor="middle" x="348" y="-173.3" font-family="Times,serif" font-size="14.00" fill="#0058ad">r 949 [1 2]</text>
<polyline fill="none" stroke="#0058ad" points="394,-162.5 394,-191.5 "/>
<text text-anchor="middle" x="440" y="-173.3" font-family="Times,serif" font-size="14.00" fill="#0058ad">r 953 [2 3]</text>
<polyline fill="none" stroke="#0058ad" points="486,-162.5 486,-191.5 "/>
<text text-anchor="middle" x="521" y="-173.3" font-family="Times,serif" font-size="14.00" fill="#0058ad">a 953 4</text>
<polyline fill="none" stroke="#0058ad" points="556,-162.5 556,-191.5 "/>
<text text-anchor="middle" x="602" y="-173.3" font-family="Times,serif" font-size="14.00" fill="#0058ad">r 949 [1 2]</text>
<polyline fill="none" stroke="#0058ad" points="648,-162.5 648,-191.5 "/>
<text text-anchor="middle" x="683" y="-173.3" font-family="Times,serif" font-size="14.00" fill="#0058ad">a 954 1</text>
<polyline fill="none" stroke="#0058ad" points="718,-162.5 718,-191.5 "/>
<text text-anchor="middle" x="753" y="-173.3" font-family="Times,serif" font-size="14.00" fill="#0058ad">a 953 5</text>
<polyline fill="none" stroke="#0058ad" points="788,-162.5 788,-191.5 "/>
<text text-anchor="middle" x="834" y="-173.3" font-family="Times,serif" font-size="14.00" fill="#0058ad">r 949 [1 2]</text>
</g>
<!-- T2315 -->
<g id="node2" class="node">
<title>T2315</title>
<polygon fill="none" stroke="#0058ad" points="593,-81.5 593,-110.5 1303,-110.5 1303,-81.5 593,-81.5"/>
<text text-anchor="middle" x="628" y="-92.3" font-family="Times,serif" font-size="14.00" fill="#0058ad">r 955 []</text>
<polyline fill="none" stroke="#0058ad" points="663,-81.5 663,-110.5 "/>
<text text-anchor="middle" x="698" y="-92.3" font-family="Times,serif" font-size="14.00" fill="#0058ad">r 958 []</text>
<polyline fill="none" stroke="#0058ad" points="733,-81.5 733,-110.5 "/>
<text text-anchor="middle" x="768" y="-92.3" font-family="Times,serif" font-size="14.00" fill="#0058ad">r 955 []</text>
<polyline fill="none" stroke="#0058ad" points="803,-81.5 803,-110.5 "/>
<text text-anchor="middle" x="838" y="-92.3" font-family="Times,serif" font-size="14.00" fill="#0058ad">r 958 []</text>
<polyline fill="none" stroke="#0058ad" points="873,-81.5 873,-110.5 "/>
<text text-anchor="middle" x="932.5" y="-92.3" font-family="Times,serif" font-size="14.00" fill="#0058ad">r 937 [1 2 3 4]</text>
<polyline fill="none" stroke="#0058ad" points="992,-81.5 992,-110.5 "/>
<text text-anchor="middle" x="1027" y="-92.3" font-family="Times,serif" font-size="14.00" fill="#0058ad">a 958 1</text>
<polyline fill="none" stroke="#0058ad" points="1062,-81.5 1062,-110.5 "/>
<text text-anchor="middle" x="1097" y="-92.3" font-family="Times,serif" font-size="14.00" fill="#0058ad">a 954 2</text>
<polyline fill="none" stroke="#0058ad" points="1132,-81.5 1132,-110.5 "/>
<text text-anchor="middle" x="1178" y="-92.3" font-family="Times,serif" font-size="14.00" fill="#0058ad">r 954 [1 2]</text>
<polyline fill="none" stroke="#0058ad" points="1224,-81.5 1224,-110.5 "/>
<text text-anchor="middle" x="1263.5" y="-92.3" font-family="Times,serif" font-size="14.00" fill="#0058ad">r 958 [1]</text>
</g>
<!-- T2311&#45;&gt;T2315 -->
<g id="edge1" class="edge">
<title>T2311:f8&#45;&gt;T2315:f6</title>
<path fill="none" stroke="#c02700" d="M683,-162C683,19.77 1080.99,-284.09 1096.53,-121.29"/>
<polygon fill="#c02700" stroke="#c02700" points="1100.04,-121.15 1097,-111 1093.05,-120.83 1100.04,-121.15"/>
<text text-anchor="middle" x="1107.5" y="-132.8" font-family="Times,serif" font-size="14.00" fill="#c02700">ww</text>
</g>
<!-- T2314 -->
<g id="node3" class="node">
<title>T2314</title>
<polygon fill="none" stroke="#0058ad" points="425,-0.5 425,-29.5 1055,-29.5 1055,-0.5 425,-0.5"/>
<text text-anchor="middle" x="460" y="-11.3" font-family="Times,serif" font-size="14.00" fill="#0058ad">a 823 5</text>
<polyline fill="none" stroke="#0058ad" points="495,-0.5 495,-29.5 "/>
<text text-anchor="middle" x="530" y="-11.3" font-family="Times,serif" font-size="14.00" fill="#0058ad">r 954 []</text>
<polyline fill="none" stroke="#0058ad" points="565,-0.5 565,-29.5 "/>
<text text-anchor="middle" x="600" y="-11.3" font-family="Times,serif" font-size="14.00" fill="#0058ad">r 957 []</text>
<polyline fill="none" stroke="#0058ad" points="635,-0.5 635,-29.5 "/>
<text text-anchor="middle" x="670" y="-11.3" font-family="Times,serif" font-size="14.00" fill="#0058ad">a 955 1</text>
<polyline fill="none" stroke="#0058ad" points="705,-0.5 705,-29.5 "/>
<text text-anchor="middle" x="740" y="-11.3" font-family="Times,serif" font-size="14.00" fill="#0058ad">a 957 1</text>
<polyline fill="none" stroke="#0058ad" points="775,-0.5 775,-29.5 "/>
<text text-anchor="middle" x="810" y="-11.3" font-family="Times,serif" font-size="14.00" fill="#0058ad">a 956 1</text>
<polyline fill="none" stroke="#0058ad" points="845,-0.5 845,-29.5 "/>
<text text-anchor="middle" x="880" y="-11.3" font-family="Times,serif" font-size="14.00" fill="#0058ad">a 956 2</text>
<polyline fill="none" stroke="#0058ad" points="915,-0.5 915,-29.5 "/>
<text text-anchor="middle" x="950" y="-11.3" font-family="Times,serif" font-size="14.00" fill="#0058ad">a 955 2</text>
<polyline fill="none" stroke="#0058ad" points="985,-0.5 985,-29.5 "/>
<text text-anchor="middle" x="1020" y="-11.3" font-family="Times,serif" font-size="14.00" fill="#0058ad">a 957 2</text>
</g>
<!-- T2315&#45;&gt;T2314 -->
<g id="edge2" class="edge">
<title>T2315:f0&#45;&gt;T2314:f3</title>
<path fill="none" stroke="#5b00c0" d="M628,-81C628,-55.54 659.58,-57.97 667.97,-39.91"/>
<polygon fill="#5b00c0" stroke="#5b00c0" points="671.43,-40.5 670,-30 664.57,-39.1 671.43,-40.5"/>
<text text-anchor="middle" x="669.5" y="-51.8" font-family="Times,serif" font-size="14.00" fill="#5b00c0">rw</text>
</g>
<!-- T2314&#45;&gt;T2311 -->
<g id="edge3" class="edge">
<title>T2314:f1&#45;&gt;T2311:f8</title>
<path fill="none" stroke="#5b00c0" d="M530,-30C530,-69.22 537.27,-83.27 565,-111 602.71,-148.72 672.86,-110.66 682.01,-151.93"/>
<polygon fill="#5b00c0" stroke="#5b00c0" points="678.54,-152.39 683,-162 685.5,-151.7 678.54,-152.39"/>
<text text-anchor="middle" x="574.5" y="-92.3" font-family="Times,serif" font-size="14.00" fill="#5b00c0">rw</text>
</g>
</g>
</svg>
