<?xml version="1.0" encoding="UTF-8" standalone="no"?>
<!DOCTYPE svg PUBLIC "-//W3C//DTD SVG 1.1//EN"
 "http://www.w3.org/Graphics/SVG/1.1/DTD/svg11.dtd">
<!-- Generated by graphviz version 2.43.0 (0)
 -->
<!-- Title: a_graph Pages: 1 -->
<svg width="861pt" height="119pt"
 viewBox="0.00 0.00 861.00 119.00" xmlns="http://www.w3.org/2000/svg" xmlns:xlink="http://www.w3.org/1999/xlink">
<g id="graph0" class="graph" transform="scale(1 1) rotate(0) translate(4 115)">
<title>a_graph</title>
<polygon fill="white" stroke="transparent" points="-4,4 -4,-115 857,-115 857,4 -4,4"/>
<!-- T255 -->
<g id="node1" class="node">
<title>T255</title>
<polygon fill="none" stroke="#0058ad" points="0,-81.5 0,-110.5 853,-110.5 853,-81.5 0,-81.5"/>
<text text-anchor="middle" x="35" y="-92.3" font-family="Times,serif" font-size="14.00" fill="#0058ad">r 105 []</text>
<polyline fill="none" stroke="#0058ad" points="70,-81.5 70,-110.5 "/>
<text text-anchor="middle" x="105" y="-92.3" font-family="Times,serif" font-size="14.00" fill="#0058ad">r 102 []</text>
<polyline fill="none" stroke="#0058ad" points="140,-81.5 140,-110.5 "/>
<text text-anchor="middle" x="175" y="-92.3" font-family="Times,serif" font-size="14.00" fill="#0058ad">r 107 []</text>
<polyline fill="none" stroke="#0058ad" points="210,-81.5 210,-110.5 "/>
<text text-anchor="middle" x="251.5" y="-92.3" font-family="Times,serif" font-size="14.00" fill="#0058ad">r 75 [3 4]</text>
<polyline fill="none" stroke="#0058ad" points="293,-81.5 293,-110.5 "/>
<text text-anchor="middle" x="328" y="-92.3" font-family="Times,serif" font-size="14.00" fill="#0058ad">a 107 1</text>
<polyline fill="none" stroke="#0058ad" points="363,-81.5 363,-110.5 "/>
<text text-anchor="middle" x="402.5" y="-92.3" font-family="Times,serif" font-size="14.00" fill="#0058ad">r 107 [1]</text>
<polyline fill="none" stroke="#0058ad" points="442,-81.5 442,-110.5 "/>
<text text-anchor="middle" x="477" y="-92.3" font-family="Times,serif" font-size="14.00" fill="#0058ad">a 107 2</text>
<polyline fill="none" stroke="#0058ad" points="512,-81.5 512,-110.5 "/>
<text text-anchor="middle" x="547" y="-92.3" font-family="Times,serif" font-size="14.00" fill="#0058ad">r 102 []</text>
<polyline fill="none" stroke="#0058ad" points="582,-81.5 582,-110.5 "/>
<text text-anchor="middle" x="617" y="-92.3" font-family="Times,serif" font-size="14.00" fill="#0058ad">a 106 1</text>
<polyline fill="none" stroke="#0058ad" points="652,-81.5 652,-110.5 "/>
<text text-anchor="middle" x="678" y="-92.3" font-family="Times,serif" font-size="14.00" fill="#0058ad">a 1 5</text>
<polyline fill="none" stroke="#0058ad" points="704,-81.5 704,-110.5 "/>
<text text-anchor="middle" x="739" y="-92.3" font-family="Times,serif" font-size="14.00" fill="#0058ad">r 102 []</text>
<polyline fill="none" stroke="#0058ad" points="774,-81.5 774,-110.5 "/>
<text text-anchor="middle" x="813.5" y="-92.3" font-family="Times,serif" font-size="14.00" fill="#0058ad">r 106 [1]</text>
</g>
<!-- T260 -->
<g id="node2" class="node">
<title>T260</title>
<polygon fill="none" stroke="#0058ad" points="139.5,-0.5 139.5,-29.5 581.5,-29.5 581.5,-0.5 139.5,-0.5"/>
<text text-anchor="middle" x="174.5" y="-11.3" font-family="Times,serif" font-size="14.00" fill="#0058ad">r 106 []</text>
<polyline fill="none" stroke="#0058ad" points="209.5,-0.5 209.5,-29.5 "/>
<text text-anchor="middle" x="244.5" y="-11.3" font-family="Times,serif" font-size="14.00" fill="#0058ad">r 109 []</text>
<polyline fill="none" stroke="#0058ad" points="279.5,-0.5 279.5,-29.5 "/>
<text text-anchor="middle" x="314.5" y="-11.3" font-family="Times,serif" font-size="14.00" fill="#0058ad">a 109 1</text>
<polyline fill="none" stroke="#0058ad" points="349.5,-0.5 349.5,-29.5 "/>
<text text-anchor="middle" x="384.5" y="-11.3" font-family="Times,serif" font-size="14.00" fill="#0058ad">a 109 2</text>
<polyline fill="none" stroke="#0058ad" points="419.5,-0.5 419.5,-29.5 "/>
<text text-anchor="middle" x="465.5" y="-11.3" font-family="Times,serif" font-size="14.00" fill="#0058ad">r 109 [1 2]</text>
<polyline fill="none" stroke="#0058ad" points="511.5,-0.5 511.5,-29.5 "/>
<text text-anchor="middle" x="546.5" y="-11.3" font-family="Times,serif" font-size="14.00" fill="#0058ad">a 102 5</text>
</g>
<!-- T255&#45;&gt;T260 -->
<g id="edge1" class="edge">
<title>T255:f1&#45;&gt;T260:f5</title>
<path fill="none" stroke="#5b00c0" d="M104.5,-81C104.5,-58.31 476.96,-55.13 538.07,-35.64"/>
<polygon fill="#5b00c0" stroke="#5b00c0" points="540.13,-38.47 546.5,-30 536.24,-32.65 540.13,-38.47"/>
<text text-anchor="middle" x="450" y="-51.8" font-family="Times,serif" font-size="14.00" fill="#5b00c0">rw</text>
</g>
<!-- T260&#45;&gt;T255 -->
<g id="edge2" class="edge">
<title>T260:f0&#45;&gt;T255:f8</title>
<path fill="none" stroke="#5b00c0" d="M174.5,-30C174.5,-46.09 447.56,-45.81 463.5,-48 529.19,-57.03 608.61,-15.75 616.81,-70.87"/>
<polygon fill="#5b00c0" stroke="#5b00c0" points="613.33,-71.26 617.5,-81 620.31,-70.78 613.33,-71.26"/>
<text text-anchor="middle" x="623" y="-51.8" font-family="Times,serif" font-size="14.00" fill="#5b00c0">rw</text>
</g>
</g>
</svg>
