<?xml version="1.0" encoding="UTF-8" standalone="no"?>
<!DOCTYPE svg PUBLIC "-//W3C//DTD SVG 1.1//EN"
 "http://www.w3.org/Graphics/SVG/1.1/DTD/svg11.dtd">
<!-- Generated by graphviz version 2.43.0 (0)
 -->
<!-- Title: a_graph Pages: 1 -->
<svg width="1074pt" height="119pt"
 viewBox="0.00 0.00 1073.50 119.00" xmlns="http://www.w3.org/2000/svg" xmlns:xlink="http://www.w3.org/1999/xlink">
<g id="graph0" class="graph" transform="scale(1 1) rotate(0) translate(4 115)">
<title>a_graph</title>
<polygon fill="white" stroke="transparent" points="-4,4 -4,-115 1069.5,-115 1069.5,4 -4,4"/>
<!-- T2970 -->
<g id="node1" class="node">
<title>T2970</title>
<polygon fill="none" stroke="#0058ad" points="0,-81.5 0,-110.5 821,-110.5 821,-81.5 0,-81.5"/>
<text text-anchor="middle" x="39.5" y="-92.3" font-family="Times,serif" font-size="14.00" fill="#0058ad">a 1236 3</text>
<polyline fill="none" stroke="#0058ad" points="79,-81.5 79,-110.5 "/>
<text text-anchor="middle" x="118.5" y="-92.3" font-family="Times,serif" font-size="14.00" fill="#0058ad">a 1236 4</text>
<polyline fill="none" stroke="#0058ad" points="158,-81.5 158,-110.5 "/>
<text text-anchor="middle" x="197.5" y="-92.3" font-family="Times,serif" font-size="14.00" fill="#0058ad">a 1235 3</text>
<polyline fill="none" stroke="#0058ad" points="237,-81.5 237,-110.5 "/>
<text text-anchor="middle" x="276.5" y="-92.3" font-family="Times,serif" font-size="14.00" fill="#0058ad">a 1236 5</text>
<polyline fill="none" stroke="#0058ad" points="316,-81.5 316,-110.5 "/>
<text text-anchor="middle" x="360" y="-92.3" font-family="Times,serif" font-size="14.00" fill="#0058ad">r 1235 [3]</text>
<polyline fill="none" stroke="#0058ad" points="404,-81.5 404,-110.5 "/>
<text text-anchor="middle" x="443.5" y="-92.3" font-family="Times,serif" font-size="14.00" fill="#0058ad">a 1211 5</text>
<polyline fill="none" stroke="#0058ad" points="483,-81.5 483,-110.5 "/>
<text text-anchor="middle" x="522.5" y="-92.3" font-family="Times,serif" font-size="14.00" fill="#0058ad">r 1233 []</text>
<polyline fill="none" stroke="#0058ad" points="562,-81.5 562,-110.5 "/>
<text text-anchor="middle" x="612.5" y="-92.3" font-family="Times,serif" font-size="14.00" fill="#0058ad">r 1230 [1 4]</text>
<polyline fill="none" stroke="#0058ad" points="663,-81.5 663,-110.5 "/>
<text text-anchor="middle" x="702.5" y="-92.3" font-family="Times,serif" font-size="14.00" fill="#0058ad">a 1235 4</text>
<polyline fill="none" stroke="#0058ad" points="742,-81.5 742,-110.5 "/>
<text text-anchor="middle" x="781.5" y="-92.3" font-family="Times,serif" font-size="14.00" fill="#0058ad">r 1237 []</text>
</g>
<!-- T2972 -->
<g id="node2" class="node">
<title>T2972</title>
<polygon fill="none" stroke="#0058ad" points="345.5,-0.5 345.5,-29.5 1065.5,-29.5 1065.5,-0.5 345.5,-0.5"/>
<text text-anchor="middle" x="396" y="-11.3" font-family="Times,serif" font-size="14.00" fill="#0058ad">r 1214 [1 2]</text>
<polyline fill="none" stroke="#0058ad" points="446.5,-0.5 446.5,-29.5 "/>
<text text-anchor="middle" x="486" y="-11.3" font-family="Times,serif" font-size="14.00" fill="#0058ad">r 1237 []</text>
<polyline fill="none" stroke="#0058ad" points="525.5,-0.5 525.5,-29.5 "/>
<text text-anchor="middle" x="565" y="-11.3" font-family="Times,serif" font-size="14.00" fill="#0058ad">a 1237 1</text>
<polyline fill="none" stroke="#0058ad" points="604.5,-0.5 604.5,-29.5 "/>
<text text-anchor="middle" x="644" y="-11.3" font-family="Times,serif" font-size="14.00" fill="#0058ad">a 1237 2</text>
<polyline fill="none" stroke="#0058ad" points="683.5,-0.5 683.5,-29.5 "/>
<text text-anchor="middle" x="734" y="-11.3" font-family="Times,serif" font-size="14.00" fill="#0058ad">r 1211 [1 4]</text>
<polyline fill="none" stroke="#0058ad" points="784.5,-0.5 784.5,-29.5 "/>
<text text-anchor="middle" x="835" y="-11.3" font-family="Times,serif" font-size="14.00" fill="#0058ad">r 1237 [1 2]</text>
<polyline fill="none" stroke="#0058ad" points="885.5,-0.5 885.5,-29.5 "/>
<text text-anchor="middle" x="936" y="-11.3" font-family="Times,serif" font-size="14.00" fill="#0058ad">r 1237 [1 2]</text>
<polyline fill="none" stroke="#0058ad" points="986.5,-0.5 986.5,-29.5 "/>
<text text-anchor="middle" x="1026" y="-11.3" font-family="Times,serif" font-size="14.00" fill="#0058ad">a 1237 3</text>
</g>
<!-- T2970&#45;&gt;T2972 -->
<g id="edge1" class="edge">
<title>T2970:f9&#45;&gt;T2972:f2</title>
<path fill="none" stroke="#5b00c0" d="M781.5,-81C781.5,-58.94 609.37,-55.37 571.72,-37.35"/>
<polygon fill="#5b00c0" stroke="#5b00c0" points="574,-34.68 564.5,-30 569.01,-39.59 574,-34.68"/>
<text text-anchor="middle" x="738" y="-51.8" font-family="Times,serif" font-size="14.00" fill="#5b00c0">rw</text>
</g>
<!-- T2972&#45;&gt;T2970 -->
<g id="edge2" class="edge">
<title>T2972:f4&#45;&gt;T2970:f5</title>
<path fill="none" stroke="#5b00c0" d="M734.5,-30C734.5,-45.79 609.06,-45.3 593.5,-48 529.92,-59.03 452.5,-17.7 444.23,-70.81"/>
<polygon fill="#5b00c0" stroke="#5b00c0" points="440.72,-70.78 443.5,-81 447.7,-71.27 440.72,-70.78"/>
<text text-anchor="middle" x="603" y="-51.8" font-family="Times,serif" font-size="14.00" fill="#5b00c0">rw</text>
</g>
</g>
</svg>
