<?xml version="1.0" encoding="UTF-8" standalone="no"?>
<!DOCTYPE svg PUBLIC "-//W3C//DTD SVG 1.1//EN"
 "http://www.w3.org/Graphics/SVG/1.1/DTD/svg11.dtd">
<!-- Generated by graphviz version 2.43.0 (0)
 -->
<!-- Title: a_graph Pages: 1 -->
<svg width="789pt" height="119pt"
 viewBox="0.00 0.00 789.00 119.00" xmlns="http://www.w3.org/2000/svg" xmlns:xlink="http://www.w3.org/1999/xlink">
<g id="graph0" class="graph" transform="scale(1 1) rotate(0) translate(4 115)">
<title>a_graph</title>
<polygon fill="white" stroke="transparent" points="-4,4 -4,-115 785,-115 785,4 -4,4"/>
<!-- T991 -->
<g id="node1" class="node">
<title>T991</title>
<polygon fill="none" stroke="#0058ad" points="133,-81.5 133,-110.5 584,-110.5 584,-81.5 133,-81.5"/>
<text text-anchor="middle" x="172.5" y="-92.3" font-family="Times,serif" font-size="14.00" fill="#0058ad">r 415 [1]</text>
<polyline fill="none" stroke="#0058ad" points="212,-81.5 212,-110.5 "/>
<text text-anchor="middle" x="247" y="-92.3" font-family="Times,serif" font-size="14.00" fill="#0058ad">a 407 2</text>
<polyline fill="none" stroke="#0058ad" points="282,-81.5 282,-110.5 "/>
<text text-anchor="middle" x="317" y="-92.3" font-family="Times,serif" font-size="14.00" fill="#0058ad">r 416 []</text>
<polyline fill="none" stroke="#0058ad" points="352,-81.5 352,-110.5 "/>
<text text-anchor="middle" x="387" y="-92.3" font-family="Times,serif" font-size="14.00" fill="#0058ad">a 415 3</text>
<polyline fill="none" stroke="#0058ad" points="422,-81.5 422,-110.5 "/>
<text text-anchor="middle" x="468" y="-92.3" font-family="Times,serif" font-size="14.00" fill="#0058ad">r 415 [1 3]</text>
<polyline fill="none" stroke="#0058ad" points="514,-81.5 514,-110.5 "/>
<text text-anchor="middle" x="549" y="-92.3" font-family="Times,serif" font-size="14.00" fill="#0058ad">r 417 []</text>
</g>
<!-- T990 -->
<g id="node2" class="node">
<title>T990</title>
<polygon fill="none" stroke="#0058ad" points="0,-0.5 0,-29.5 781,-29.5 781,-0.5 0,-0.5"/>
<text text-anchor="middle" x="35" y="-11.3" font-family="Times,serif" font-size="14.00" fill="#0058ad">r 416 []</text>
<polyline fill="none" stroke="#0058ad" points="70,-0.5 70,-29.5 "/>
<text text-anchor="middle" x="105" y="-11.3" font-family="Times,serif" font-size="14.00" fill="#0058ad">r 416 []</text>
<polyline fill="none" stroke="#0058ad" points="140,-0.5 140,-29.5 "/>
<text text-anchor="middle" x="175" y="-11.3" font-family="Times,serif" font-size="14.00" fill="#0058ad">r 416 []</text>
<polyline fill="none" stroke="#0058ad" points="210,-0.5 210,-29.5 "/>
<text text-anchor="middle" x="245" y="-11.3" font-family="Times,serif" font-size="14.00" fill="#0058ad">r 416 []</text>
<polyline fill="none" stroke="#0058ad" points="280,-0.5 280,-29.5 "/>
<text text-anchor="middle" x="315" y="-11.3" font-family="Times,serif" font-size="14.00" fill="#0058ad">a 416 3</text>
<polyline fill="none" stroke="#0058ad" points="350,-0.5 350,-29.5 "/>
<text text-anchor="middle" x="389.5" y="-11.3" font-family="Times,serif" font-size="14.00" fill="#0058ad">r 415 [1]</text>
<polyline fill="none" stroke="#0058ad" points="429,-0.5 429,-29.5 "/>
<text text-anchor="middle" x="464" y="-11.3" font-family="Times,serif" font-size="14.00" fill="#0058ad">a 416 4</text>
<polyline fill="none" stroke="#0058ad" points="499,-0.5 499,-29.5 "/>
<text text-anchor="middle" x="534" y="-11.3" font-family="Times,serif" font-size="14.00" fill="#0058ad">a 416 5</text>
<polyline fill="none" stroke="#0058ad" points="569,-0.5 569,-29.5 "/>
<text text-anchor="middle" x="622" y="-11.3" font-family="Times,serif" font-size="14.00" fill="#0058ad">r 416 [3 4 5]</text>
<polyline fill="none" stroke="#0058ad" points="675,-0.5 675,-29.5 "/>
<text text-anchor="middle" x="728" y="-11.3" font-family="Times,serif" font-size="14.00" fill="#0058ad">r 416 [3 4 5]</text>
</g>
<!-- T991&#45;&gt;T990 -->
<g id="edge1" class="edge">
<title>T991:f2&#45;&gt;T990:f4</title>
<path fill="none" stroke="#5b00c0" d="M316.5,-81C316.5,-62.21 315.13,-55.12 314.66,-40.36"/>
<polygon fill="#5b00c0" stroke="#5b00c0" points="318.15,-39.95 314.5,-30 311.15,-40.05 318.15,-39.95"/>
<text text-anchor="middle" x="326" y="-51.8" font-family="Times,serif" font-size="14.00" fill="#5b00c0">rw</text>
</g>
<!-- T990&#45;&gt;T991 -->
<g id="edge2" class="edge">
<title>T990:f5&#45;&gt;T991:f3</title>
<path fill="none" stroke="#5b00c0" d="M389.5,-30C389.5,-48.79 388.13,-55.88 387.66,-70.64"/>
<polygon fill="#5b00c0" stroke="#5b00c0" points="384.15,-70.95 387.5,-81 391.15,-71.05 384.15,-70.95"/>
<text text-anchor="middle" x="398" y="-51.8" font-family="Times,serif" font-size="14.00" fill="#5b00c0">rw</text>
</g>
</g>
</svg>
