<?xml version="1.0" encoding="UTF-8" standalone="no"?>
<!DOCTYPE svg PUBLIC "-//W3C//DTD SVG 1.1//EN"
 "http://www.w3.org/Graphics/SVG/1.1/DTD/svg11.dtd">
<!-- Generated by graphviz version 2.43.0 (0)
 -->
<!-- Title: a_graph Pages: 1 -->
<svg width="1291pt" height="200pt"
 viewBox="0.00 0.00 1290.50 200.00" xmlns="http://www.w3.org/2000/svg" xmlns:xlink="http://www.w3.org/1999/xlink">
<g id="graph0" class="graph" transform="scale(1 1) rotate(0) translate(4 196)">
<title>a_graph</title>
<polygon fill="white" stroke="transparent" points="-4,4 -4,-196 1286.5,-196 1286.5,4 -4,4"/>
<!-- T197 -->
<g id="node1" class="node">
<title>T197</title>
<polygon fill="none" stroke="#0058ad" points="383,-162.5 383,-191.5 1011,-191.5 1011,-162.5 383,-162.5"/>
<text text-anchor="middle" x="418" y="-173.3" font-family="Times,serif" font-size="14.00" fill="#0058ad">r 78 [1]</text>
<polyline fill="none" stroke="#0058ad" points="453,-162.5 453,-191.5 "/>
<text text-anchor="middle" x="483.5" y="-173.3" font-family="Times,serif" font-size="14.00" fill="#0058ad">a 82 5</text>
<polyline fill="none" stroke="#0058ad" points="514,-162.5 514,-191.5 "/>
<text text-anchor="middle" x="549" y="-173.3" font-family="Times,serif" font-size="14.00" fill="#0058ad">r 79 [1]</text>
<polyline fill="none" stroke="#0058ad" points="584,-162.5 584,-191.5 "/>
<text text-anchor="middle" x="619" y="-173.3" font-family="Times,serif" font-size="14.00" fill="#0058ad">r 78 [1]</text>
<polyline fill="none" stroke="#0058ad" points="654,-162.5 654,-191.5 "/>
<text text-anchor="middle" x="684.5" y="-173.3" font-family="Times,serif" font-size="14.00" fill="#0058ad">a 75 3</text>
<polyline fill="none" stroke="#0058ad" points="715,-162.5 715,-191.5 "/>
<text text-anchor="middle" x="745.5" y="-173.3" font-family="Times,serif" font-size="14.00" fill="#0058ad">r 84 []</text>
<polyline fill="none" stroke="#0058ad" points="776,-162.5 776,-191.5 "/>
<text text-anchor="middle" x="806.5" y="-173.3" font-family="Times,serif" font-size="14.00" fill="#0058ad">a 75 4</text>
<polyline fill="none" stroke="#0058ad" points="837,-162.5 837,-191.5 "/>
<text text-anchor="middle" x="867.5" y="-173.3" font-family="Times,serif" font-size="14.00" fill="#0058ad">r 85 []</text>
<polyline fill="none" stroke="#0058ad" points="898,-162.5 898,-191.5 "/>
<text text-anchor="middle" x="924" y="-173.3" font-family="Times,serif" font-size="14.00" fill="#0058ad">a 1 3</text>
<polyline fill="none" stroke="#0058ad" points="950,-162.5 950,-191.5 "/>
<text text-anchor="middle" x="980.5" y="-173.3" font-family="Times,serif" font-size="14.00" fill="#0058ad">r 84 []</text>
</g>
<!-- T204 -->
<g id="node2" class="node">
<title>T204</title>
<polygon fill="none" stroke="#0058ad" points="0,-0.5 0,-29.5 818,-29.5 818,-0.5 0,-0.5"/>
<text text-anchor="middle" x="30.5" y="-11.3" font-family="Times,serif" font-size="14.00" fill="#0058ad">r 86 []</text>
<polyline fill="none" stroke="#0058ad" points="61,-0.5 61,-29.5 "/>
<text text-anchor="middle" x="91.5" y="-11.3" font-family="Times,serif" font-size="14.00" fill="#0058ad">a 86 2</text>
<polyline fill="none" stroke="#0058ad" points="122,-0.5 122,-29.5 "/>
<text text-anchor="middle" x="152.5" y="-11.3" font-family="Times,serif" font-size="14.00" fill="#0058ad">a 86 3</text>
<polyline fill="none" stroke="#0058ad" points="183,-0.5 183,-29.5 "/>
<text text-anchor="middle" x="213.5" y="-11.3" font-family="Times,serif" font-size="14.00" fill="#0058ad">a 86 4</text>
<polyline fill="none" stroke="#0058ad" points="244,-0.5 244,-29.5 "/>
<text text-anchor="middle" x="274.5" y="-11.3" font-family="Times,serif" font-size="14.00" fill="#0058ad">a 86 5</text>
<polyline fill="none" stroke="#0058ad" points="305,-0.5 305,-29.5 "/>
<text text-anchor="middle" x="335.5" y="-11.3" font-family="Times,serif" font-size="14.00" fill="#0058ad">r 88 []</text>
<polyline fill="none" stroke="#0058ad" points="366,-0.5 366,-29.5 "/>
<text text-anchor="middle" x="421" y="-11.3" font-family="Times,serif" font-size="14.00" fill="#0058ad">r 86 [2 3 4 5]</text>
<polyline fill="none" stroke="#0058ad" points="476,-0.5 476,-29.5 "/>
<text text-anchor="middle" x="506.5" y="-11.3" font-family="Times,serif" font-size="14.00" fill="#0058ad">a 78 3</text>
<polyline fill="none" stroke="#0058ad" points="537,-0.5 537,-29.5 "/>
<text text-anchor="middle" x="592" y="-11.3" font-family="Times,serif" font-size="14.00" fill="#0058ad">r 86 [2 3 4 5]</text>
<polyline fill="none" stroke="#0058ad" points="647,-0.5 647,-29.5 "/>
<text text-anchor="middle" x="677.5" y="-11.3" font-family="Times,serif" font-size="14.00" fill="#0058ad">r 75 []</text>
<polyline fill="none" stroke="#0058ad" points="708,-0.5 708,-29.5 "/>
<text text-anchor="middle" x="763" y="-11.3" font-family="Times,serif" font-size="14.00" fill="#0058ad">r 86 [2 3 4 5]</text>
</g>
<!-- T197&#45;&gt;T204 -->
<g id="edge1" class="edge">
<title>T197:f0&#45;&gt;T204:f7</title>
<path fill="none" stroke="#5b00c0" d="M418,-162C418,-94.84 498.19,-100 506.33,-40.18"/>
<polygon fill="#5b00c0" stroke="#5b00c0" points="509.84,-40.21 507,-30 502.86,-39.75 509.84,-40.21"/>
<text text-anchor="middle" x="492.5" y="-92.3" font-family="Times,serif" font-size="14.00" fill="#5b00c0">rw</text>
</g>
<!-- T198 -->
<g id="node3" class="node">
<title>T198</title>
<polygon fill="none" stroke="#0058ad" points="715.5,-81.5 715.5,-110.5 1282.5,-110.5 1282.5,-81.5 715.5,-81.5"/>
<text text-anchor="middle" x="746" y="-92.3" font-family="Times,serif" font-size="14.00" fill="#0058ad">r 84 []</text>
<polyline fill="none" stroke="#0058ad" points="776.5,-81.5 776.5,-110.5 "/>
<text text-anchor="middle" x="807" y="-92.3" font-family="Times,serif" font-size="14.00" fill="#0058ad">r 84 []</text>
<polyline fill="none" stroke="#0058ad" points="837.5,-81.5 837.5,-110.5 "/>
<text text-anchor="middle" x="868" y="-92.3" font-family="Times,serif" font-size="14.00" fill="#0058ad">a 85 1</text>
<polyline fill="none" stroke="#0058ad" points="898.5,-81.5 898.5,-110.5 "/>
<text text-anchor="middle" x="929" y="-92.3" font-family="Times,serif" font-size="14.00" fill="#0058ad">r 84 []</text>
<polyline fill="none" stroke="#0058ad" points="959.5,-81.5 959.5,-110.5 "/>
<text text-anchor="middle" x="994.5" y="-92.3" font-family="Times,serif" font-size="14.00" fill="#0058ad">r 85 [1]</text>
<polyline fill="none" stroke="#0058ad" points="1029.5,-81.5 1029.5,-110.5 "/>
<text text-anchor="middle" x="1060" y="-92.3" font-family="Times,serif" font-size="14.00" fill="#0058ad">a 85 2</text>
<polyline fill="none" stroke="#0058ad" points="1090.5,-81.5 1090.5,-110.5 "/>
<text text-anchor="middle" x="1121" y="-92.3" font-family="Times,serif" font-size="14.00" fill="#0058ad">a 85 3</text>
<polyline fill="none" stroke="#0058ad" points="1151.5,-81.5 1151.5,-110.5 "/>
<text text-anchor="middle" x="1182" y="-92.3" font-family="Times,serif" font-size="14.00" fill="#0058ad">a 85 4</text>
<polyline fill="none" stroke="#0058ad" points="1212.5,-81.5 1212.5,-110.5 "/>
<text text-anchor="middle" x="1247.5" y="-92.3" font-family="Times,serif" font-size="14.00" fill="#0058ad">r 78 [1]</text>
</g>
<!-- T197&#45;&gt;T198 -->
<g id="edge2" class="edge">
<title>T197:f7&#45;&gt;T198:f2</title>
<path fill="none" stroke="#5b00c0" d="M868,-162C868,-143.23 868,-136.12 868,-121.35"/>
<polygon fill="#5b00c0" stroke="#5b00c0" points="871.5,-121 868,-111 864.5,-121 871.5,-121"/>
<text text-anchor="middle" x="877.5" y="-132.8" font-family="Times,serif" font-size="14.00" fill="#5b00c0">rw</text>
</g>
<!-- T204&#45;&gt;T197 -->
<g id="edge3" class="edge">
<title>T204:f9&#45;&gt;T197:f4</title>
<path fill="none" stroke="#5b00c0" d="M678,-30C678,-85.17 683.3,-101.35 683.94,-151.8"/>
<polygon fill="#5b00c0" stroke="#5b00c0" points="680.44,-152.02 684,-162 687.44,-151.98 680.44,-152.02"/>
<text text-anchor="middle" x="691.5" y="-92.3" font-family="Times,serif" font-size="14.00" fill="#5b00c0">rw</text>
</g>
<!-- T198&#45;&gt;T204 -->
<g id="edge4" class="edge">
<title>T198:f8&#45;&gt;T204:f7</title>
<path fill="none" stroke="#5b00c0" d="M1248,-81C1248,-61.74 602.15,-51.97 516.37,-33.97"/>
<polygon fill="#5b00c0" stroke="#5b00c0" points="517.57,-30.68 507,-30 514.84,-37.13 517.57,-30.68"/>
<text text-anchor="middle" x="1058.5" y="-51.8" font-family="Times,serif" font-size="14.00" fill="#5b00c0">rw</text>
</g>
</g>
</svg>
