<?xml version="1.0" encoding="UTF-8" standalone="no"?>
<!DOCTYPE svg PUBLIC "-//W3C//DTD SVG 1.1//EN"
 "http://www.w3.org/Graphics/SVG/1.1/DTD/svg11.dtd">
<!-- Generated by graphviz version 2.43.0 (0)
 -->
<!-- Title: a_graph Pages: 1 -->
<svg width="797pt" height="119pt"
 viewBox="0.00 0.00 797.00 119.00" xmlns="http://www.w3.org/2000/svg" xmlns:xlink="http://www.w3.org/1999/xlink">
<g id="graph0" class="graph" transform="scale(1 1) rotate(0) translate(4 115)">
<title>a_graph</title>
<polygon fill="white" stroke="transparent" points="-4,4 -4,-115 793,-115 793,4 -4,4"/>
<!-- T1932 -->
<g id="node1" class="node">
<title>T1932</title>
<polygon fill="none" stroke="#0058ad" points="204.5,-81.5 204.5,-110.5 752.5,-110.5 752.5,-81.5 204.5,-81.5"/>
<text text-anchor="middle" x="239.5" y="-92.3" font-family="Times,serif" font-size="14.00" fill="#0058ad">a 778 4</text>
<polyline fill="none" stroke="#0058ad" points="274.5,-81.5 274.5,-110.5 "/>
<text text-anchor="middle" x="314" y="-92.3" font-family="Times,serif" font-size="14.00" fill="#0058ad">r 797 [1]</text>
<polyline fill="none" stroke="#0058ad" points="353.5,-81.5 353.5,-110.5 "/>
<text text-anchor="middle" x="388.5" y="-92.3" font-family="Times,serif" font-size="14.00" fill="#0058ad">a 797 4</text>
<polyline fill="none" stroke="#0058ad" points="423.5,-81.5 423.5,-110.5 "/>
<text text-anchor="middle" x="458.5" y="-92.3" font-family="Times,serif" font-size="14.00" fill="#0058ad">r 798 []</text>
<polyline fill="none" stroke="#0058ad" points="493.5,-81.5 493.5,-110.5 "/>
<text text-anchor="middle" x="553" y="-92.3" font-family="Times,serif" font-size="14.00" fill="#0058ad">r 795 [1 2 4 5]</text>
<polyline fill="none" stroke="#0058ad" points="612.5,-81.5 612.5,-110.5 "/>
<text text-anchor="middle" x="647.5" y="-92.3" font-family="Times,serif" font-size="14.00" fill="#0058ad">a 797 5</text>
<polyline fill="none" stroke="#0058ad" points="682.5,-81.5 682.5,-110.5 "/>
<text text-anchor="middle" x="717.5" y="-92.3" font-family="Times,serif" font-size="14.00" fill="#0058ad">r 799 []</text>
</g>
<!-- T1937 -->
<g id="node2" class="node">
<title>T1937</title>
<polygon fill="none" stroke="#0058ad" points="0,-0.5 0,-29.5 789,-29.5 789,-0.5 0,-0.5"/>
<text text-anchor="middle" x="35" y="-11.3" font-family="Times,serif" font-size="14.00" fill="#0058ad">a 798 2</text>
<polyline fill="none" stroke="#0058ad" points="70,-0.5 70,-29.5 "/>
<text text-anchor="middle" x="105" y="-11.3" font-family="Times,serif" font-size="14.00" fill="#0058ad">a 799 1</text>
<polyline fill="none" stroke="#0058ad" points="140,-0.5 140,-29.5 "/>
<text text-anchor="middle" x="175" y="-11.3" font-family="Times,serif" font-size="14.00" fill="#0058ad">a 800 1</text>
<polyline fill="none" stroke="#0058ad" points="210,-0.5 210,-29.5 "/>
<text text-anchor="middle" x="245" y="-11.3" font-family="Times,serif" font-size="14.00" fill="#0058ad">a 800 2</text>
<polyline fill="none" stroke="#0058ad" points="280,-0.5 280,-29.5 "/>
<text text-anchor="middle" x="315" y="-11.3" font-family="Times,serif" font-size="14.00" fill="#0058ad">a 799 2</text>
<polyline fill="none" stroke="#0058ad" points="350,-0.5 350,-29.5 "/>
<text text-anchor="middle" x="396" y="-11.3" font-family="Times,serif" font-size="14.00" fill="#0058ad">r 800 [1 2]</text>
<polyline fill="none" stroke="#0058ad" points="442,-0.5 442,-29.5 "/>
<text text-anchor="middle" x="477" y="-11.3" font-family="Times,serif" font-size="14.00" fill="#0058ad">a 800 3</text>
<polyline fill="none" stroke="#0058ad" points="512,-0.5 512,-29.5 "/>
<text text-anchor="middle" x="565" y="-11.3" font-family="Times,serif" font-size="14.00" fill="#0058ad">r 800 [1 2 3]</text>
<polyline fill="none" stroke="#0058ad" points="618,-0.5 618,-29.5 "/>
<text text-anchor="middle" x="664" y="-11.3" font-family="Times,serif" font-size="14.00" fill="#0058ad">r 778 [1 2]</text>
<polyline fill="none" stroke="#0058ad" points="710,-0.5 710,-29.5 "/>
<text text-anchor="middle" x="749.5" y="-11.3" font-family="Times,serif" font-size="14.00" fill="#0058ad">r 798 [2]</text>
</g>
<!-- T1932&#45;&gt;T1937 -->
<g id="edge1" class="edge">
<title>T1932:f3&#45;&gt;T1937:f0</title>
<path fill="none" stroke="#5b00c0" d="M458.5,-81C458.5,-12.3 375.52,-57.62 307.5,-48 294.16,-46.11 89.82,-45.37 43.7,-34.63"/>
<polygon fill="#5b00c0" stroke="#5b00c0" points="45.01,-31.37 34.5,-30 41.86,-37.62 45.01,-31.37"/>
<text text-anchor="middle" x="464" y="-51.8" font-family="Times,serif" font-size="14.00" fill="#5b00c0">rw</text>
</g>
<!-- T1937&#45;&gt;T1932 -->
<g id="edge2" class="edge">
<title>T1937:f8&#45;&gt;T1932:f0</title>
<path fill="none" stroke="#5b00c0" d="M664.5,-30C664.5,-51.13 304.42,-40.95 284.5,-48 264.77,-54.98 246.3,-56.02 241.01,-71.07"/>
<polygon fill="#5b00c0" stroke="#5b00c0" points="237.54,-70.59 239.5,-81 244.46,-71.64 237.54,-70.59"/>
<text text-anchor="middle" x="294" y="-51.8" font-family="Times,serif" font-size="14.00" fill="#5b00c0">rw</text>
</g>
</g>
</svg>
