<?xml version="1.0" encoding="UTF-8" standalone="no"?>
<!DOCTYPE svg PUBLIC "-//W3C//DTD SVG 1.1//EN"
 "http://www.w3.org/Graphics/SVG/1.1/DTD/svg11.dtd">
<!-- Generated by graphviz version 2.43.0 (0)
 -->
<!-- Title: a_graph Pages: 1 -->
<svg width="956pt" height="119pt"
 viewBox="0.00 0.00 955.50 119.00" xmlns="http://www.w3.org/2000/svg" xmlns:xlink="http://www.w3.org/1999/xlink">
<g id="graph0" class="graph" transform="scale(1 1) rotate(0) translate(4 115)">
<title>a_graph</title>
<polygon fill="white" stroke="transparent" points="-4,4 -4,-115 951.5,-115 951.5,4 -4,4"/>
<!-- T2214 -->
<g id="node1" class="node">
<title>T2214</title>
<polygon fill="none" stroke="#0058ad" points="404.5,-81.5 404.5,-110.5 947.5,-110.5 947.5,-81.5 404.5,-81.5"/>
<text text-anchor="middle" x="439.5" y="-92.3" font-family="Times,serif" font-size="14.00" fill="#0058ad">r 914 []</text>
<polyline fill="none" stroke="#0058ad" points="474.5,-81.5 474.5,-110.5 "/>
<text text-anchor="middle" x="509.5" y="-92.3" font-family="Times,serif" font-size="14.00" fill="#0058ad">a 914 1</text>
<polyline fill="none" stroke="#0058ad" points="544.5,-81.5 544.5,-110.5 "/>
<text text-anchor="middle" x="579.5" y="-92.3" font-family="Times,serif" font-size="14.00" fill="#0058ad">r 912 []</text>
<polyline fill="none" stroke="#0058ad" points="614.5,-81.5 614.5,-110.5 "/>
<text text-anchor="middle" x="649.5" y="-92.3" font-family="Times,serif" font-size="14.00" fill="#0058ad">a 914 2</text>
<polyline fill="none" stroke="#0058ad" points="684.5,-81.5 684.5,-110.5 "/>
<text text-anchor="middle" x="724" y="-92.3" font-family="Times,serif" font-size="14.00" fill="#0058ad">r 906 [1]</text>
<polyline fill="none" stroke="#0058ad" points="763.5,-81.5 763.5,-110.5 "/>
<text text-anchor="middle" x="809.5" y="-92.3" font-family="Times,serif" font-size="14.00" fill="#0058ad">r 914 [1 2]</text>
<polyline fill="none" stroke="#0058ad" points="855.5,-81.5 855.5,-110.5 "/>
<text text-anchor="middle" x="901.5" y="-92.3" font-family="Times,serif" font-size="14.00" fill="#0058ad">r 914 [1 2]</text>
</g>
<!-- T2215 -->
<g id="node2" class="node">
<title>T2215</title>
<polygon fill="none" stroke="#0058ad" points="0,-0.5 0,-29.5 722,-29.5 722,-0.5 0,-0.5"/>
<text text-anchor="middle" x="35" y="-11.3" font-family="Times,serif" font-size="14.00" fill="#0058ad">r 913 []</text>
<polyline fill="none" stroke="#0058ad" points="70,-0.5 70,-29.5 "/>
<text text-anchor="middle" x="105" y="-11.3" font-family="Times,serif" font-size="14.00" fill="#0058ad">a 913 2</text>
<polyline fill="none" stroke="#0058ad" points="140,-0.5 140,-29.5 "/>
<text text-anchor="middle" x="175" y="-11.3" font-family="Times,serif" font-size="14.00" fill="#0058ad">a 913 3</text>
<polyline fill="none" stroke="#0058ad" points="210,-0.5 210,-29.5 "/>
<text text-anchor="middle" x="256" y="-11.3" font-family="Times,serif" font-size="14.00" fill="#0058ad">r 913 [2 3]</text>
<polyline fill="none" stroke="#0058ad" points="302,-0.5 302,-29.5 "/>
<text text-anchor="middle" x="337" y="-11.3" font-family="Times,serif" font-size="14.00" fill="#0058ad">a 913 4</text>
<polyline fill="none" stroke="#0058ad" points="372,-0.5 372,-29.5 "/>
<text text-anchor="middle" x="407" y="-11.3" font-family="Times,serif" font-size="14.00" fill="#0058ad">a 913 5</text>
<polyline fill="none" stroke="#0058ad" points="442,-0.5 442,-29.5 "/>
<text text-anchor="middle" x="477" y="-11.3" font-family="Times,serif" font-size="14.00" fill="#0058ad">r 912 []</text>
<polyline fill="none" stroke="#0058ad" points="512,-0.5 512,-29.5 "/>
<text text-anchor="middle" x="547" y="-11.3" font-family="Times,serif" font-size="14.00" fill="#0058ad">a 906 5</text>
<polyline fill="none" stroke="#0058ad" points="582,-0.5 582,-29.5 "/>
<text text-anchor="middle" x="617" y="-11.3" font-family="Times,serif" font-size="14.00" fill="#0058ad">a 912 2</text>
<polyline fill="none" stroke="#0058ad" points="652,-0.5 652,-29.5 "/>
<text text-anchor="middle" x="687" y="-11.3" font-family="Times,serif" font-size="14.00" fill="#0058ad">r 914 []</text>
</g>
<!-- T2214&#45;&gt;T2215 -->
<g id="edge1" class="edge">
<title>T2214:f4&#45;&gt;T2215:f7</title>
<path fill="none" stroke="#5b00c0" d="M724,-81C724,-63.01 587.27,-53.06 554.16,-37.01"/>
<polygon fill="#5b00c0" stroke="#5b00c0" points="556.59,-34.5 547,-30 551.69,-39.5 556.59,-34.5"/>
<text text-anchor="middle" x="685.5" y="-51.8" font-family="Times,serif" font-size="14.00" fill="#5b00c0">rw</text>
</g>
<!-- T2215&#45;&gt;T2214 -->
<g id="edge2" class="edge">
<title>T2215:f9&#45;&gt;T2214:f1</title>
<path fill="none" stroke="#5b00c0" d="M687,-30C687,-56.09 595.75,-39.76 571,-48 545.09,-56.63 517.05,-51.52 510.45,-71.02"/>
<polygon fill="#5b00c0" stroke="#5b00c0" points="506.97,-70.6 509,-81 513.9,-71.61 506.97,-70.6"/>
<text text-anchor="middle" x="580.5" y="-51.8" font-family="Times,serif" font-size="14.00" fill="#5b00c0">rw</text>
</g>
</g>
</svg>
