<?xml version="1.0" encoding="UTF-8" standalone="no"?>
<!DOCTYPE svg PUBLIC "-//W3C//DTD SVG 1.1//EN"
 "http://www.w3.org/Graphics/SVG/1.1/DTD/svg11.dtd">
<!-- Generated by graphviz version 2.43.0 (0)
 -->
<!-- Title: a_graph Pages: 1 -->
<svg width="1032pt" height="119pt"
 viewBox="0.00 0.00 1032.00 119.00" xmlns="http://www.w3.org/2000/svg" xmlns:xlink="http://www.w3.org/1999/xlink">
<g id="graph0" class="graph" transform="scale(1 1) rotate(0) translate(4 115)">
<title>a_graph</title>
<polygon fill="white" stroke="transparent" points="-4,4 -4,-115 1028,-115 1028,4 -4,4"/>
<!-- T2910 -->
<g id="node1" class="node">
<title>T2910</title>
<polygon fill="none" stroke="#0058ad" points="0,-81.5 0,-110.5 1024,-110.5 1024,-81.5 0,-81.5"/>
<text text-anchor="middle" x="39.5" y="-92.3" font-family="Times,serif" font-size="14.00" fill="#0058ad">a 1210 1</text>
<polyline fill="none" stroke="#0058ad" points="79,-81.5 79,-110.5 "/>
<text text-anchor="middle" x="118.5" y="-92.3" font-family="Times,serif" font-size="14.00" fill="#0058ad">a 1204 3</text>
<polyline fill="none" stroke="#0058ad" points="158,-81.5 158,-110.5 "/>
<text text-anchor="middle" x="202" y="-92.3" font-family="Times,serif" font-size="14.00" fill="#0058ad">r 1207 [1]</text>
<polyline fill="none" stroke="#0058ad" points="246,-81.5 246,-110.5 "/>
<text text-anchor="middle" x="290" y="-92.3" font-family="Times,serif" font-size="14.00" fill="#0058ad">r 1207 [1]</text>
<polyline fill="none" stroke="#0058ad" points="334,-81.5 334,-110.5 "/>
<text text-anchor="middle" x="373.5" y="-92.3" font-family="Times,serif" font-size="14.00" fill="#0058ad">a 1210 2</text>
<polyline fill="none" stroke="#0058ad" points="413,-81.5 413,-110.5 "/>
<text text-anchor="middle" x="457" y="-92.3" font-family="Times,serif" font-size="14.00" fill="#0058ad">r 1204 [3]</text>
<polyline fill="none" stroke="#0058ad" points="501,-81.5 501,-110.5 "/>
<text text-anchor="middle" x="540.5" y="-92.3" font-family="Times,serif" font-size="14.00" fill="#0058ad">a 1210 3</text>
<polyline fill="none" stroke="#0058ad" points="580,-81.5 580,-110.5 "/>
<text text-anchor="middle" x="619.5" y="-92.3" font-family="Times,serif" font-size="14.00" fill="#0058ad">a 1210 4</text>
<polyline fill="none" stroke="#0058ad" points="659,-81.5 659,-110.5 "/>
<text text-anchor="middle" x="723" y="-92.3" font-family="Times,serif" font-size="14.00" fill="#0058ad">r 1210 [1 2 3 4]</text>
<polyline fill="none" stroke="#0058ad" points="787,-81.5 787,-110.5 "/>
<text text-anchor="middle" x="826.5" y="-92.3" font-family="Times,serif" font-size="14.00" fill="#0058ad">r 1209 []</text>
<polyline fill="none" stroke="#0058ad" points="866,-81.5 866,-110.5 "/>
<text text-anchor="middle" x="905.5" y="-92.3" font-family="Times,serif" font-size="14.00" fill="#0058ad">a 1210 5</text>
<polyline fill="none" stroke="#0058ad" points="945,-81.5 945,-110.5 "/>
<text text-anchor="middle" x="984.5" y="-92.3" font-family="Times,serif" font-size="14.00" fill="#0058ad">a 1212 1</text>
</g>
<!-- T2912 -->
<g id="node2" class="node">
<title>T2912</title>
<polygon fill="none" stroke="#0058ad" points="289,-0.5 289,-29.5 939,-29.5 939,-0.5 289,-0.5"/>
<text text-anchor="middle" x="328.5" y="-11.3" font-family="Times,serif" font-size="14.00" fill="#0058ad">r 1210 []</text>
<polyline fill="none" stroke="#0058ad" points="368,-0.5 368,-29.5 "/>
<text text-anchor="middle" x="407.5" y="-11.3" font-family="Times,serif" font-size="14.00" fill="#0058ad">a 1213 1</text>
<polyline fill="none" stroke="#0058ad" points="447,-0.5 447,-29.5 "/>
<text text-anchor="middle" x="486.5" y="-11.3" font-family="Times,serif" font-size="14.00" fill="#0058ad">r 1209 []</text>
<polyline fill="none" stroke="#0058ad" points="526,-0.5 526,-29.5 "/>
<text text-anchor="middle" x="570" y="-11.3" font-family="Times,serif" font-size="14.00" fill="#0058ad">r 1213 [1]</text>
<polyline fill="none" stroke="#0058ad" points="614,-0.5 614,-29.5 "/>
<text text-anchor="middle" x="653.5" y="-11.3" font-family="Times,serif" font-size="14.00" fill="#0058ad">a 1209 3</text>
<polyline fill="none" stroke="#0058ad" points="693,-0.5 693,-29.5 "/>
<text text-anchor="middle" x="732.5" y="-11.3" font-family="Times,serif" font-size="14.00" fill="#0058ad">r 1212 []</text>
<polyline fill="none" stroke="#0058ad" points="772,-0.5 772,-29.5 "/>
<text text-anchor="middle" x="816" y="-11.3" font-family="Times,serif" font-size="14.00" fill="#0058ad">r 1213 [1]</text>
<polyline fill="none" stroke="#0058ad" points="860,-0.5 860,-29.5 "/>
<text text-anchor="middle" x="899.5" y="-11.3" font-family="Times,serif" font-size="14.00" fill="#0058ad">a 1209 4</text>
</g>
<!-- T2910&#45;&gt;T2912 -->
<g id="edge1" class="edge">
<title>T2910:f9&#45;&gt;T2912:f4</title>
<path fill="none" stroke="#5b00c0" d="M827,-81C827,-4.6 669.84,-100.33 655.1,-40.06"/>
<polygon fill="#5b00c0" stroke="#5b00c0" points="658.57,-39.56 654,-30 651.61,-40.32 658.57,-39.56"/>
<text text-anchor="middle" x="831.5" y="-51.8" font-family="Times,serif" font-size="14.00" fill="#5b00c0">rw</text>
</g>
<!-- T2912&#45;&gt;T2910 -->
<g id="edge2" class="edge">
<title>T2912:f0&#45;&gt;T2910:f0</title>
<path fill="none" stroke="#5b00c0" d="M288,-15C234.22,-15 61.73,-22.73 41.04,-71.13"/>
<polygon fill="#5b00c0" stroke="#5b00c0" points="37.59,-70.5 39,-81 44.45,-71.91 37.59,-70.5"/>
<text text-anchor="middle" x="73.5" y="-51.8" font-family="Times,serif" font-size="14.00" fill="#5b00c0">rw</text>
</g>
</g>
</svg>
