<?xml version="1.0" encoding="UTF-8" standalone="no"?>
<!DOCTYPE svg PUBLIC "-//W3C//DTD SVG 1.1//EN"
 "http://www.w3.org/Graphics/SVG/1.1/DTD/svg11.dtd">
<!-- Generated by graphviz version 2.43.0 (0)
 -->
<!-- Title: a_graph Pages: 1 -->
<svg width="583pt" height="119pt"
 viewBox="0.00 0.00 583.00 119.00" xmlns="http://www.w3.org/2000/svg" xmlns:xlink="http://www.w3.org/1999/xlink">
<g id="graph0" class="graph" transform="scale(1 1) rotate(0) translate(4 115)">
<title>a_graph</title>
<polygon fill="white" stroke="transparent" points="-4,4 -4,-115 579,-115 579,4 -4,4"/>
<!-- T2461 -->
<g id="node1" class="node">
<title>T2461</title>
<polygon fill="none" stroke="#0058ad" points="79,-81.5 79,-110.5 562,-110.5 562,-81.5 79,-81.5"/>
<text text-anchor="middle" x="118.5" y="-92.3" font-family="Times,serif" font-size="14.00" fill="#0058ad">a 1015 4</text>
<polyline fill="none" stroke="#0058ad" points="158,-81.5 158,-110.5 "/>
<text text-anchor="middle" x="197.5" y="-92.3" font-family="Times,serif" font-size="14.00" fill="#0058ad">a 1021 4</text>
<polyline fill="none" stroke="#0058ad" points="237,-81.5 237,-110.5 "/>
<text text-anchor="middle" x="276.5" y="-92.3" font-family="Times,serif" font-size="14.00" fill="#0058ad">a 1015 5</text>
<polyline fill="none" stroke="#0058ad" points="316,-81.5 316,-110.5 "/>
<text text-anchor="middle" x="355.5" y="-92.3" font-family="Times,serif" font-size="14.00" fill="#0058ad">r 1000 []</text>
<polyline fill="none" stroke="#0058ad" points="395,-81.5 395,-110.5 "/>
<text text-anchor="middle" x="439" y="-92.3" font-family="Times,serif" font-size="14.00" fill="#0058ad">r 1021 [4]</text>
<polyline fill="none" stroke="#0058ad" points="483,-81.5 483,-110.5 "/>
<text text-anchor="middle" x="522.5" y="-92.3" font-family="Times,serif" font-size="14.00" fill="#0058ad">a 1021 5</text>
</g>
<!-- T2462 -->
<g id="node2" class="node">
<title>T2462</title>
<polygon fill="none" stroke="#0058ad" points="0,-0.5 0,-29.5 575,-29.5 575,-0.5 0,-0.5"/>
<text text-anchor="middle" x="39.5" y="-11.3" font-family="Times,serif" font-size="14.00" fill="#0058ad">a 1020 4</text>
<polyline fill="none" stroke="#0058ad" points="79,-0.5 79,-29.5 "/>
<text text-anchor="middle" x="118.5" y="-11.3" font-family="Times,serif" font-size="14.00" fill="#0058ad">a 1020 5</text>
<polyline fill="none" stroke="#0058ad" points="158,-0.5 158,-29.5 "/>
<text text-anchor="middle" x="197.5" y="-11.3" font-family="Times,serif" font-size="14.00" fill="#0058ad">r 1021 []</text>
<polyline fill="none" stroke="#0058ad" points="237,-0.5 237,-29.5 "/>
<text text-anchor="middle" x="276.5" y="-11.3" font-family="Times,serif" font-size="14.00" fill="#0058ad">r 1022 []</text>
<polyline fill="none" stroke="#0058ad" points="316,-0.5 316,-29.5 "/>
<text text-anchor="middle" x="355.5" y="-11.3" font-family="Times,serif" font-size="14.00" fill="#0058ad">a 1000 2</text>
<polyline fill="none" stroke="#0058ad" points="395,-0.5 395,-29.5 "/>
<text text-anchor="middle" x="434.5" y="-11.3" font-family="Times,serif" font-size="14.00" fill="#0058ad">r 1023 []</text>
<polyline fill="none" stroke="#0058ad" points="474,-0.5 474,-29.5 "/>
<text text-anchor="middle" x="524.5" y="-11.3" font-family="Times,serif" font-size="14.00" fill="#0058ad">r 1020 [4 5]</text>
</g>
<!-- T2461&#45;&gt;T2462 -->
<g id="edge1" class="edge">
<title>T2461:f3&#45;&gt;T2462:f4</title>
<path fill="none" stroke="#5b00c0" d="M355.5,-81C355.5,-62.23 355.5,-55.12 355.5,-40.35"/>
<polygon fill="#5b00c0" stroke="#5b00c0" points="359,-40 355.5,-30 352,-40 359,-40"/>
<text text-anchor="middle" x="365" y="-51.8" font-family="Times,serif" font-size="14.00" fill="#5b00c0">rw</text>
</g>
<!-- T2462&#45;&gt;T2461 -->
<g id="edge2" class="edge">
<title>T2462:f2&#45;&gt;T2461:f1</title>
<path fill="none" stroke="#5b00c0" d="M197.5,-30C197.5,-48.77 197.5,-55.88 197.5,-70.65"/>
<polygon fill="#5b00c0" stroke="#5b00c0" points="194,-71 197.5,-81 201,-71 194,-71"/>
<text text-anchor="middle" x="207" y="-51.8" font-family="Times,serif" font-size="14.00" fill="#5b00c0">rw</text>
</g>
</g>
</svg>
