<?xml version="1.0" encoding="UTF-8" standalone="no"?>
<!DOCTYPE svg PUBLIC "-//W3C//DTD SVG 1.1//EN"
 "http://www.w3.org/Graphics/SVG/1.1/DTD/svg11.dtd">
<!-- Generated by graphviz version 2.43.0 (0)
 -->
<!-- Title: a_graph Pages: 1 -->
<svg width="1045pt" height="119pt"
 viewBox="0.00 0.00 1045.00 119.00" xmlns="http://www.w3.org/2000/svg" xmlns:xlink="http://www.w3.org/1999/xlink">
<g id="graph0" class="graph" transform="scale(1 1) rotate(0) translate(4 115)">
<title>a_graph</title>
<polygon fill="white" stroke="transparent" points="-4,4 -4,-115 1041,-115 1041,4 -4,4"/>
<!-- T3385 -->
<g id="node1" class="node">
<title>T3385</title>
<polygon fill="none" stroke="#0058ad" points="0,-81.5 0,-110.5 1037,-110.5 1037,-81.5 0,-81.5"/>
<text text-anchor="middle" x="39.5" y="-92.3" font-family="Times,serif" font-size="14.00" fill="#0058ad">a 1400 5</text>
<polyline fill="none" stroke="#0058ad" points="79,-81.5 79,-110.5 "/>
<text text-anchor="middle" x="118.5" y="-92.3" font-family="Times,serif" font-size="14.00" fill="#0058ad">r 1403 []</text>
<polyline fill="none" stroke="#0058ad" points="158,-81.5 158,-110.5 "/>
<text text-anchor="middle" x="197.5" y="-92.3" font-family="Times,serif" font-size="14.00" fill="#0058ad">a 1394 5</text>
<polyline fill="none" stroke="#0058ad" points="237,-81.5 237,-110.5 "/>
<text text-anchor="middle" x="276.5" y="-92.3" font-family="Times,serif" font-size="14.00" fill="#0058ad">r 1403 []</text>
<polyline fill="none" stroke="#0058ad" points="316,-81.5 316,-110.5 "/>
<text text-anchor="middle" x="355.5" y="-92.3" font-family="Times,serif" font-size="14.00" fill="#0058ad">r 1372 []</text>
<polyline fill="none" stroke="#0058ad" points="395,-81.5 395,-110.5 "/>
<text text-anchor="middle" x="434.5" y="-92.3" font-family="Times,serif" font-size="14.00" fill="#0058ad">a 1403 1</text>
<polyline fill="none" stroke="#0058ad" points="474,-81.5 474,-110.5 "/>
<text text-anchor="middle" x="518" y="-92.3" font-family="Times,serif" font-size="14.00" fill="#0058ad">r 1403 [1]</text>
<polyline fill="none" stroke="#0058ad" points="562,-81.5 562,-110.5 "/>
<text text-anchor="middle" x="601.5" y="-92.3" font-family="Times,serif" font-size="14.00" fill="#0058ad">a 1403 2</text>
<polyline fill="none" stroke="#0058ad" points="641,-81.5 641,-110.5 "/>
<text text-anchor="middle" x="698.5" y="-92.3" font-family="Times,serif" font-size="14.00" fill="#0058ad">r 1400 [1 2 5]</text>
<polyline fill="none" stroke="#0058ad" points="756,-81.5 756,-110.5 "/>
<text text-anchor="middle" x="806.5" y="-92.3" font-family="Times,serif" font-size="14.00" fill="#0058ad">r 1403 [1 2]</text>
<polyline fill="none" stroke="#0058ad" points="857,-81.5 857,-110.5 "/>
<text text-anchor="middle" x="896.5" y="-92.3" font-family="Times,serif" font-size="14.00" fill="#0058ad">r 1401 []</text>
<polyline fill="none" stroke="#0058ad" points="936,-81.5 936,-110.5 "/>
<text text-anchor="middle" x="986.5" y="-92.3" font-family="Times,serif" font-size="14.00" fill="#0058ad">r 1403 [1 2]</text>
</g>
<!-- T3382 -->
<g id="node2" class="node">
<title>T3382</title>
<polygon fill="none" stroke="#0058ad" points="217,-0.5 217,-29.5 858,-29.5 858,-0.5 217,-0.5"/>
<text text-anchor="middle" x="267.5" y="-11.3" font-family="Times,serif" font-size="14.00" fill="#0058ad">r 1394 [3 4]</text>
<polyline fill="none" stroke="#0058ad" points="318,-0.5 318,-29.5 "/>
<text text-anchor="middle" x="368.5" y="-11.3" font-family="Times,serif" font-size="14.00" fill="#0058ad">r 1402 [1 2]</text>
<polyline fill="none" stroke="#0058ad" points="419,-0.5 419,-29.5 "/>
<text text-anchor="middle" x="469.5" y="-11.3" font-family="Times,serif" font-size="14.00" fill="#0058ad">r 1400 [1 2]</text>
<polyline fill="none" stroke="#0058ad" points="520,-0.5 520,-29.5 "/>
<text text-anchor="middle" x="559.5" y="-11.3" font-family="Times,serif" font-size="14.00" fill="#0058ad">a 1402 5</text>
<polyline fill="none" stroke="#0058ad" points="599,-0.5 599,-29.5 "/>
<text text-anchor="middle" x="638.5" y="-11.3" font-family="Times,serif" font-size="14.00" fill="#0058ad">a 1401 1</text>
<polyline fill="none" stroke="#0058ad" points="678,-0.5 678,-29.5 "/>
<text text-anchor="middle" x="717.5" y="-11.3" font-family="Times,serif" font-size="14.00" fill="#0058ad">r 1403 []</text>
<polyline fill="none" stroke="#0058ad" points="757,-0.5 757,-29.5 "/>
<text text-anchor="middle" x="807.5" y="-11.3" font-family="Times,serif" font-size="14.00" fill="#0058ad">r 1400 [1 2]</text>
</g>
<!-- T3385&#45;&gt;T3382 -->
<g id="edge1" class="edge">
<title>T3385:f10&#45;&gt;T3382:f4</title>
<path fill="none" stroke="#5b00c0" d="M896.5,-81C896.5,32.23 654.37,-135.75 639.24,-40.1"/>
<polygon fill="#5b00c0" stroke="#5b00c0" points="642.72,-39.72 638.5,-30 635.74,-40.23 642.72,-39.72"/>
<text text-anchor="middle" x="901" y="-51.8" font-family="Times,serif" font-size="14.00" fill="#5b00c0">rw</text>
</g>
<!-- T3382&#45;&gt;T3385 -->
<g id="edge2" class="edge">
<title>T3382:f2&#45;&gt;T3385:f0</title>
<path fill="none" stroke="#5b00c0" d="M469.5,-30C469.5,-218.88 55.31,99.24 39.94,-70.82"/>
<polygon fill="#5b00c0" stroke="#5b00c0" points="36.43,-70.86 39.5,-81 43.43,-71.16 36.43,-70.86"/>
<text text-anchor="middle" x="476" y="-51.8" font-family="Times,serif" font-size="14.00" fill="#5b00c0">rw</text>
</g>
</g>
</svg>
