<?xml version="1.0" encoding="UTF-8" standalone="no"?>
<!DOCTYPE svg PUBLIC "-//W3C//DTD SVG 1.1//EN"
 "http://www.w3.org/Graphics/SVG/1.1/DTD/svg11.dtd">
<!-- Generated by graphviz version 2.43.0 (0)
 -->
<!-- Title: a_graph Pages: 1 -->
<svg width="764pt" height="119pt"
 viewBox="0.00 0.00 763.50 119.00" xmlns="http://www.w3.org/2000/svg" xmlns:xlink="http://www.w3.org/1999/xlink">
<g id="graph0" class="graph" transform="scale(1 1) rotate(0) translate(4 115)">
<title>a_graph</title>
<polygon fill="white" stroke="transparent" points="-4,4 -4,-115 759.5,-115 759.5,4 -4,4"/>
<!-- T1437 -->
<g id="node1" class="node">
<title>T1437</title>
<polygon fill="none" stroke="#0058ad" points="67.5,-81.5 67.5,-110.5 755.5,-110.5 755.5,-81.5 67.5,-81.5"/>
<text text-anchor="middle" x="102.5" y="-92.3" font-family="Times,serif" font-size="14.00" fill="#0058ad">a 595 3</text>
<polyline fill="none" stroke="#0058ad" points="137.5,-81.5 137.5,-110.5 "/>
<text text-anchor="middle" x="183.5" y="-92.3" font-family="Times,serif" font-size="14.00" fill="#0058ad">r 586 [1 3]</text>
<polyline fill="none" stroke="#0058ad" points="229.5,-81.5 229.5,-110.5 "/>
<text text-anchor="middle" x="264.5" y="-92.3" font-family="Times,serif" font-size="14.00" fill="#0058ad">r 594 []</text>
<polyline fill="none" stroke="#0058ad" points="299.5,-81.5 299.5,-110.5 "/>
<text text-anchor="middle" x="334.5" y="-92.3" font-family="Times,serif" font-size="14.00" fill="#0058ad">a 584 3</text>
<polyline fill="none" stroke="#0058ad" points="369.5,-81.5 369.5,-110.5 "/>
<text text-anchor="middle" x="404.5" y="-92.3" font-family="Times,serif" font-size="14.00" fill="#0058ad">r 597 []</text>
<polyline fill="none" stroke="#0058ad" points="439.5,-81.5 439.5,-110.5 "/>
<text text-anchor="middle" x="474.5" y="-92.3" font-family="Times,serif" font-size="14.00" fill="#0058ad">r 597 []</text>
<polyline fill="none" stroke="#0058ad" points="509.5,-81.5 509.5,-110.5 "/>
<text text-anchor="middle" x="544.5" y="-92.3" font-family="Times,serif" font-size="14.00" fill="#0058ad">a 595 4</text>
<polyline fill="none" stroke="#0058ad" points="579.5,-81.5 579.5,-110.5 "/>
<text text-anchor="middle" x="614.5" y="-92.3" font-family="Times,serif" font-size="14.00" fill="#0058ad">a 595 5</text>
<polyline fill="none" stroke="#0058ad" points="649.5,-81.5 649.5,-110.5 "/>
<text text-anchor="middle" x="702.5" y="-92.3" font-family="Times,serif" font-size="14.00" fill="#0058ad">r 595 [3 4 5]</text>
</g>
<!-- T1435 -->
<g id="node2" class="node">
<title>T1435</title>
<polygon fill="none" stroke="#0058ad" points="0,-0.5 0,-29.5 517,-29.5 517,-0.5 0,-0.5"/>
<text text-anchor="middle" x="35" y="-11.3" font-family="Times,serif" font-size="14.00" fill="#0058ad">r 597 []</text>
<polyline fill="none" stroke="#0058ad" points="70,-0.5 70,-29.5 "/>
<text text-anchor="middle" x="105" y="-11.3" font-family="Times,serif" font-size="14.00" fill="#0058ad">r 595 []</text>
<polyline fill="none" stroke="#0058ad" points="140,-0.5 140,-29.5 "/>
<text text-anchor="middle" x="175" y="-11.3" font-family="Times,serif" font-size="14.00" fill="#0058ad">a 598 1</text>
<polyline fill="none" stroke="#0058ad" points="210,-0.5 210,-29.5 "/>
<text text-anchor="middle" x="249.5" y="-11.3" font-family="Times,serif" font-size="14.00" fill="#0058ad">r 598 [1]</text>
<polyline fill="none" stroke="#0058ad" points="289,-0.5 289,-29.5 "/>
<text text-anchor="middle" x="328.5" y="-11.3" font-family="Times,serif" font-size="14.00" fill="#0058ad">r 598 [1]</text>
<polyline fill="none" stroke="#0058ad" points="368,-0.5 368,-29.5 "/>
<text text-anchor="middle" x="403" y="-11.3" font-family="Times,serif" font-size="14.00" fill="#0058ad">a 597 1</text>
<polyline fill="none" stroke="#0058ad" points="438,-0.5 438,-29.5 "/>
<text text-anchor="middle" x="477.5" y="-11.3" font-family="Times,serif" font-size="14.00" fill="#0058ad">r 598 [1]</text>
</g>
<!-- T1437&#45;&gt;T1435 -->
<g id="edge1" class="edge">
<title>T1437:f4&#45;&gt;T1435:f5</title>
<path fill="none" stroke="#5b00c0" d="M404.5,-81C404.5,-62.23 403.81,-55.12 403.58,-40.35"/>
<polygon fill="#5b00c0" stroke="#5b00c0" points="407.08,-39.97 403.5,-30 400.08,-40.03 407.08,-39.97"/>
<text text-anchor="middle" x="413" y="-51.8" font-family="Times,serif" font-size="14.00" fill="#5b00c0">rw</text>
</g>
<!-- T1435&#45;&gt;T1437 -->
<g id="edge2" class="edge">
<title>T1435:f1&#45;&gt;T1437:f0</title>
<path fill="none" stroke="#5b00c0" d="M104.5,-30C104.5,-48.79 103.13,-55.88 102.66,-70.64"/>
<polygon fill="#5b00c0" stroke="#5b00c0" points="99.15,-70.95 102.5,-81 106.15,-71.05 99.15,-70.95"/>
<text text-anchor="middle" x="114" y="-51.8" font-family="Times,serif" font-size="14.00" fill="#5b00c0">rw</text>
</g>
</g>
</svg>
