<?xml version="1.0" encoding="UTF-8" standalone="no"?>
<!DOCTYPE svg PUBLIC "-//W3C//DTD SVG 1.1//EN"
 "http://www.w3.org/Graphics/SVG/1.1/DTD/svg11.dtd">
<!-- Generated by graphviz version 2.43.0 (0)
 -->
<!-- Title: a_graph Pages: 1 -->
<svg width="1064pt" height="200pt"
 viewBox="0.00 0.00 1063.50 200.00" xmlns="http://www.w3.org/2000/svg" xmlns:xlink="http://www.w3.org/1999/xlink">
<g id="graph0" class="graph" transform="scale(1 1) rotate(0) translate(4 196)">
<title>a_graph</title>
<polygon fill="white" stroke="transparent" points="-4,4 -4,-196 1059.5,-196 1059.5,4 -4,4"/>
<!-- T1523 -->
<g id="node1" class="node">
<title>T1523</title>
<polygon fill="none" stroke="#0058ad" points="263,-162.5 263,-191.5 797,-191.5 797,-162.5 263,-162.5"/>
<text text-anchor="middle" x="309" y="-173.3" font-family="Times,serif" font-size="14.00" fill="#0058ad">r 627 [1 2]</text>
<polyline fill="none" stroke="#0058ad" points="355,-162.5 355,-191.5 "/>
<text text-anchor="middle" x="390" y="-173.3" font-family="Times,serif" font-size="14.00" fill="#0058ad">a 636 1</text>
<polyline fill="none" stroke="#0058ad" points="425,-162.5 425,-191.5 "/>
<text text-anchor="middle" x="460" y="-173.3" font-family="Times,serif" font-size="14.00" fill="#0058ad">r 634 []</text>
<polyline fill="none" stroke="#0058ad" points="495,-162.5 495,-191.5 "/>
<text text-anchor="middle" x="530" y="-173.3" font-family="Times,serif" font-size="14.00" fill="#0058ad">a 636 2</text>
<polyline fill="none" stroke="#0058ad" points="565,-162.5 565,-191.5 "/>
<text text-anchor="middle" x="611" y="-173.3" font-family="Times,serif" font-size="14.00" fill="#0058ad">r 636 [1 2]</text>
<polyline fill="none" stroke="#0058ad" points="657,-162.5 657,-191.5 "/>
<text text-anchor="middle" x="692" y="-173.3" font-family="Times,serif" font-size="14.00" fill="#0058ad">a 627 4</text>
<polyline fill="none" stroke="#0058ad" points="727,-162.5 727,-191.5 "/>
<text text-anchor="middle" x="762" y="-173.3" font-family="Times,serif" font-size="14.00" fill="#0058ad">a 636 3</text>
</g>
<!-- T1522 -->
<g id="node3" class="node">
<title>T1522</title>
<polygon fill="none" stroke="#0058ad" points="0,-81.5 0,-110.5 798,-110.5 798,-81.5 0,-81.5"/>
<text text-anchor="middle" x="35" y="-92.3" font-family="Times,serif" font-size="14.00" fill="#0058ad">a 634 1</text>
<polyline fill="none" stroke="#0058ad" points="70,-81.5 70,-110.5 "/>
<text text-anchor="middle" x="105" y="-92.3" font-family="Times,serif" font-size="14.00" fill="#0058ad">a 634 2</text>
<polyline fill="none" stroke="#0058ad" points="140,-81.5 140,-110.5 "/>
<text text-anchor="middle" x="186" y="-92.3" font-family="Times,serif" font-size="14.00" fill="#0058ad">r 634 [1 2]</text>
<polyline fill="none" stroke="#0058ad" points="232,-81.5 232,-110.5 "/>
<text text-anchor="middle" x="278" y="-92.3" font-family="Times,serif" font-size="14.00" fill="#0058ad">r 634 [1 2]</text>
<polyline fill="none" stroke="#0058ad" points="324,-81.5 324,-110.5 "/>
<text text-anchor="middle" x="359" y="-92.3" font-family="Times,serif" font-size="14.00" fill="#0058ad">a 635 1</text>
<polyline fill="none" stroke="#0058ad" points="394,-81.5 394,-110.5 "/>
<text text-anchor="middle" x="429" y="-92.3" font-family="Times,serif" font-size="14.00" fill="#0058ad">a 635 2</text>
<polyline fill="none" stroke="#0058ad" points="464,-81.5 464,-110.5 "/>
<text text-anchor="middle" x="503.5" y="-92.3" font-family="Times,serif" font-size="14.00" fill="#0058ad">r 627 [1]</text>
<polyline fill="none" stroke="#0058ad" points="543,-81.5 543,-110.5 "/>
<text text-anchor="middle" x="582.5" y="-92.3" font-family="Times,serif" font-size="14.00" fill="#0058ad">r 627 [1]</text>
<polyline fill="none" stroke="#0058ad" points="622,-81.5 622,-110.5 "/>
<text text-anchor="middle" x="657" y="-92.3" font-family="Times,serif" font-size="14.00" fill="#0058ad">a 634 3</text>
<polyline fill="none" stroke="#0058ad" points="692,-81.5 692,-110.5 "/>
<text text-anchor="middle" x="745" y="-92.3" font-family="Times,serif" font-size="14.00" fill="#0058ad">r 634 [1 2 3]</text>
</g>
<!-- T1523&#45;&gt;T1522 -->
<g id="edge1" class="edge">
<title>T1523:f2&#45;&gt;T1522:f0</title>
<path fill="none" stroke="#5b00c0" d="M460,-162C460,24.71 50.63,-289.2 35.43,-121.06"/>
<polygon fill="#5b00c0" stroke="#5b00c0" points="38.93,-120.84 35,-111 31.93,-121.14 38.93,-120.84"/>
<text text-anchor="middle" x="468.5" y="-132.8" font-family="Times,serif" font-size="14.00" fill="#5b00c0">rw</text>
</g>
<!-- T1517 -->
<g id="node2" class="node">
<title>T1517</title>
<polygon fill="none" stroke="#0058ad" points="564.5,-0.5 564.5,-29.5 1055.5,-29.5 1055.5,-0.5 564.5,-0.5"/>
<text text-anchor="middle" x="599.5" y="-11.3" font-family="Times,serif" font-size="14.00" fill="#0058ad">a 633 4</text>
<polyline fill="none" stroke="#0058ad" points="634.5,-0.5 634.5,-29.5 "/>
<text text-anchor="middle" x="669.5" y="-11.3" font-family="Times,serif" font-size="14.00" fill="#0058ad">a 627 2</text>
<polyline fill="none" stroke="#0058ad" points="704.5,-0.5 704.5,-29.5 "/>
<text text-anchor="middle" x="739.5" y="-11.3" font-family="Times,serif" font-size="14.00" fill="#0058ad">a 633 5</text>
<polyline fill="none" stroke="#0058ad" points="774.5,-0.5 774.5,-29.5 "/>
<text text-anchor="middle" x="834" y="-11.3" font-family="Times,serif" font-size="14.00" fill="#0058ad">r 631 [1 2 3 4]</text>
<polyline fill="none" stroke="#0058ad" points="893.5,-0.5 893.5,-29.5 "/>
<text text-anchor="middle" x="928.5" y="-11.3" font-family="Times,serif" font-size="14.00" fill="#0058ad">a 628 1</text>
<polyline fill="none" stroke="#0058ad" points="963.5,-0.5 963.5,-29.5 "/>
<text text-anchor="middle" x="1009.5" y="-11.3" font-family="Times,serif" font-size="14.00" fill="#0058ad">r 633 [4 5]</text>
</g>
<!-- T1517&#45;&gt;T1523 -->
<g id="edge2" class="edge">
<title>T1517:f1&#45;&gt;T1523:f5</title>
<path fill="none" stroke="#c02700" d="M669,-30C669,-46.35 797.66,-67.59 807,-81 814.62,-91.94 814.27,-99.82 807,-111 778.66,-154.57 703.62,-112.88 693.21,-151.73"/>
<polygon fill="#c02700" stroke="#c02700" points="689.69,-151.66 692,-162 696.64,-152.48 689.69,-151.66"/>
<text text-anchor="middle" x="825.5" y="-92.3" font-family="Times,serif" font-size="14.00" fill="#c02700">ww</text>
</g>
<!-- T1522&#45;&gt;T1517 -->
<g id="edge3" class="edge">
<title>T1522:f6&#45;&gt;T1517:f1</title>
<path fill="none" stroke="#5b00c0" d="M504,-81C504,-7.99 653.28,-97.17 667.86,-40"/>
<polygon fill="#5b00c0" stroke="#5b00c0" points="671.34,-40.33 669,-30 664.39,-39.54 671.34,-40.33"/>
<text text-anchor="middle" x="674.5" y="-51.8" font-family="Times,serif" font-size="14.00" fill="#5b00c0">rw</text>
</g>
</g>
</svg>
