<?xml version="1.0" encoding="UTF-8" standalone="no"?>
<!DOCTYPE svg PUBLIC "-//W3C//DTD SVG 1.1//EN"
 "http://www.w3.org/Graphics/SVG/1.1/DTD/svg11.dtd">
<!-- Generated by graphviz version 2.43.0 (0)
 -->
<!-- Title: a_graph Pages: 1 -->
<svg width="941pt" height="119pt"
 viewBox="0.00 0.00 941.00 119.00" xmlns="http://www.w3.org/2000/svg" xmlns:xlink="http://www.w3.org/1999/xlink">
<g id="graph0" class="graph" transform="scale(1 1) rotate(0) translate(4 115)">
<title>a_graph</title>
<polygon fill="white" stroke="transparent" points="-4,4 -4,-115 937,-115 937,4 -4,4"/>
<!-- T3303 -->
<g id="node1" class="node">
<title>T3303</title>
<polygon fill="none" stroke="#0058ad" points="0,-81.5 0,-110.5 809,-110.5 809,-81.5 0,-81.5"/>
<text text-anchor="middle" x="64" y="-92.3" font-family="Times,serif" font-size="14.00" fill="#0058ad">r 1359 [1 2 3 4]</text>
<polyline fill="none" stroke="#0058ad" points="128,-81.5 128,-110.5 "/>
<text text-anchor="middle" x="167.5" y="-92.3" font-family="Times,serif" font-size="14.00" fill="#0058ad">r 1370 []</text>
<polyline fill="none" stroke="#0058ad" points="207,-81.5 207,-110.5 "/>
<text text-anchor="middle" x="246.5" y="-92.3" font-family="Times,serif" font-size="14.00" fill="#0058ad">a 1361 4</text>
<polyline fill="none" stroke="#0058ad" points="286,-81.5 286,-110.5 "/>
<text text-anchor="middle" x="325.5" y="-92.3" font-family="Times,serif" font-size="14.00" fill="#0058ad">a 1368 1</text>
<polyline fill="none" stroke="#0058ad" points="365,-81.5 365,-110.5 "/>
<text text-anchor="middle" x="429" y="-92.3" font-family="Times,serif" font-size="14.00" fill="#0058ad">r 1359 [1 2 3 4]</text>
<polyline fill="none" stroke="#0058ad" points="493,-81.5 493,-110.5 "/>
<text text-anchor="middle" x="532.5" y="-92.3" font-family="Times,serif" font-size="14.00" fill="#0058ad">a 1368 2</text>
<polyline fill="none" stroke="#0058ad" points="572,-81.5 572,-110.5 "/>
<text text-anchor="middle" x="611.5" y="-92.3" font-family="Times,serif" font-size="14.00" fill="#0058ad">a 1361 5</text>
<polyline fill="none" stroke="#0058ad" points="651,-81.5 651,-110.5 "/>
<text text-anchor="middle" x="690.5" y="-92.3" font-family="Times,serif" font-size="14.00" fill="#0058ad">r 1371 []</text>
<polyline fill="none" stroke="#0058ad" points="730,-81.5 730,-110.5 "/>
<text text-anchor="middle" x="769.5" y="-92.3" font-family="Times,serif" font-size="14.00" fill="#0058ad">r 1370 []</text>
</g>
<!-- T3302 -->
<g id="node2" class="node">
<title>T3302</title>
<polygon fill="none" stroke="#0058ad" points="98,-0.5 98,-29.5 933,-29.5 933,-0.5 98,-0.5"/>
<text text-anchor="middle" x="137.5" y="-11.3" font-family="Times,serif" font-size="14.00" fill="#0058ad">a 1370 1</text>
<polyline fill="none" stroke="#0058ad" points="177,-0.5 177,-29.5 "/>
<text text-anchor="middle" x="216.5" y="-11.3" font-family="Times,serif" font-size="14.00" fill="#0058ad">r 1371 []</text>
<polyline fill="none" stroke="#0058ad" points="256,-0.5 256,-29.5 "/>
<text text-anchor="middle" x="295.5" y="-11.3" font-family="Times,serif" font-size="14.00" fill="#0058ad">r 1361 []</text>
<polyline fill="none" stroke="#0058ad" points="335,-0.5 335,-29.5 "/>
<text text-anchor="middle" x="379" y="-11.3" font-family="Times,serif" font-size="14.00" fill="#0058ad">r 1370 [1]</text>
<polyline fill="none" stroke="#0058ad" points="423,-0.5 423,-29.5 "/>
<text text-anchor="middle" x="462.5" y="-11.3" font-family="Times,serif" font-size="14.00" fill="#0058ad">a 1371 1</text>
<polyline fill="none" stroke="#0058ad" points="502,-0.5 502,-29.5 "/>
<text text-anchor="middle" x="541.5" y="-11.3" font-family="Times,serif" font-size="14.00" fill="#0058ad">a 1370 2</text>
<polyline fill="none" stroke="#0058ad" points="581,-0.5 581,-29.5 "/>
<text text-anchor="middle" x="620.5" y="-11.3" font-family="Times,serif" font-size="14.00" fill="#0058ad">a 1370 3</text>
<polyline fill="none" stroke="#0058ad" points="660,-0.5 660,-29.5 "/>
<text text-anchor="middle" x="699.5" y="-11.3" font-family="Times,serif" font-size="14.00" fill="#0058ad">r 1368 []</text>
<polyline fill="none" stroke="#0058ad" points="739,-0.5 739,-29.5 "/>
<text text-anchor="middle" x="796.5" y="-11.3" font-family="Times,serif" font-size="14.00" fill="#0058ad">r 1370 [1 2 3]</text>
<polyline fill="none" stroke="#0058ad" points="854,-0.5 854,-29.5 "/>
<text text-anchor="middle" x="893.5" y="-11.3" font-family="Times,serif" font-size="14.00" fill="#0058ad">r 1368 []</text>
</g>
<!-- T3303&#45;&gt;T3302 -->
<g id="edge1" class="edge">
<title>T3303:f1&#45;&gt;T3302:f0</title>
<path fill="none" stroke="#5b00c0" d="M167.5,-81C167.5,-58.61 145.75,-56.44 139.29,-40.05"/>
<polygon fill="#5b00c0" stroke="#5b00c0" points="142.7,-39.23 137.5,-30 135.8,-40.46 142.7,-39.23"/>
<text text-anchor="middle" x="170" y="-51.8" font-family="Times,serif" font-size="14.00" fill="#5b00c0">rw</text>
</g>
<!-- T3302&#45;&gt;T3303 -->
<g id="edge2" class="edge">
<title>T3302:f2&#45;&gt;T3303:f2</title>
<path fill="none" stroke="#5b00c0" d="M295.5,-30C295.5,-57.5 257.98,-51.86 248.61,-71.07"/>
<polygon fill="#5b00c0" stroke="#5b00c0" points="245.15,-70.49 246.5,-81 252,-71.94 245.15,-70.49"/>
<text text-anchor="middle" x="296" y="-51.8" font-family="Times,serif" font-size="14.00" fill="#5b00c0">rw</text>
</g>
</g>
</svg>
