<?xml version="1.0" encoding="UTF-8" standalone="no"?>
<!DOCTYPE svg PUBLIC "-//W3C//DTD SVG 1.1//EN"
 "http://www.w3.org/Graphics/SVG/1.1/DTD/svg11.dtd">
<!-- Generated by graphviz version 2.43.0 (0)
 -->
<!-- Title: a_graph Pages: 1 -->
<svg width="700pt" height="119pt"
 viewBox="0.00 0.00 700.00 119.00" xmlns="http://www.w3.org/2000/svg" xmlns:xlink="http://www.w3.org/1999/xlink">
<g id="graph0" class="graph" transform="scale(1 1) rotate(0) translate(4 115)">
<title>a_graph</title>
<polygon fill="white" stroke="transparent" points="-4,4 -4,-115 696,-115 696,4 -4,4"/>
<!-- T524 -->
<g id="node1" class="node">
<title>T524</title>
<polygon fill="none" stroke="#0058ad" points="0,-81.5 0,-110.5 692,-110.5 692,-81.5 0,-81.5"/>
<text text-anchor="middle" x="39.5" y="-92.3" font-family="Times,serif" font-size="14.00" fill="#0058ad">r 215 [1]</text>
<polyline fill="none" stroke="#0058ad" points="79,-81.5 79,-110.5 "/>
<text text-anchor="middle" x="114" y="-92.3" font-family="Times,serif" font-size="14.00" fill="#0058ad">a 215 4</text>
<polyline fill="none" stroke="#0058ad" points="149,-81.5 149,-110.5 "/>
<text text-anchor="middle" x="184" y="-92.3" font-family="Times,serif" font-size="14.00" fill="#0058ad">r 214 []</text>
<polyline fill="none" stroke="#0058ad" points="219,-81.5 219,-110.5 "/>
<text text-anchor="middle" x="254" y="-92.3" font-family="Times,serif" font-size="14.00" fill="#0058ad">r 216 []</text>
<polyline fill="none" stroke="#0058ad" points="289,-81.5 289,-110.5 "/>
<text text-anchor="middle" x="324" y="-92.3" font-family="Times,serif" font-size="14.00" fill="#0058ad">a 208 3</text>
<polyline fill="none" stroke="#0058ad" points="359,-81.5 359,-110.5 "/>
<text text-anchor="middle" x="405" y="-92.3" font-family="Times,serif" font-size="14.00" fill="#0058ad">r 215 [1 4]</text>
<polyline fill="none" stroke="#0058ad" points="451,-81.5 451,-110.5 "/>
<text text-anchor="middle" x="486" y="-92.3" font-family="Times,serif" font-size="14.00" fill="#0058ad">a 208 4</text>
<polyline fill="none" stroke="#0058ad" points="521,-81.5 521,-110.5 "/>
<text text-anchor="middle" x="560.5" y="-92.3" font-family="Times,serif" font-size="14.00" fill="#0058ad">r 167 [2]</text>
<polyline fill="none" stroke="#0058ad" points="600,-81.5 600,-110.5 "/>
<text text-anchor="middle" x="646" y="-92.3" font-family="Times,serif" font-size="14.00" fill="#0058ad">r 215 [1 4]</text>
</g>
<!-- T526 -->
<g id="node2" class="node">
<title>T526</title>
<polygon fill="none" stroke="#0058ad" points="72.5,-0.5 72.5,-29.5 519.5,-29.5 519.5,-0.5 72.5,-0.5"/>
<text text-anchor="middle" x="112" y="-11.3" font-family="Times,serif" font-size="14.00" fill="#0058ad">r 215 [1]</text>
<polyline fill="none" stroke="#0058ad" points="151.5,-0.5 151.5,-29.5 "/>
<text text-anchor="middle" x="186.5" y="-11.3" font-family="Times,serif" font-size="14.00" fill="#0058ad">r 216 []</text>
<polyline fill="none" stroke="#0058ad" points="221.5,-0.5 221.5,-29.5 "/>
<text text-anchor="middle" x="256.5" y="-11.3" font-family="Times,serif" font-size="14.00" fill="#0058ad">a 216 3</text>
<polyline fill="none" stroke="#0058ad" points="291.5,-0.5 291.5,-29.5 "/>
<text text-anchor="middle" x="331" y="-11.3" font-family="Times,serif" font-size="14.00" fill="#0058ad">r 215 [1]</text>
<polyline fill="none" stroke="#0058ad" points="370.5,-0.5 370.5,-29.5 "/>
<text text-anchor="middle" x="405.5" y="-11.3" font-family="Times,serif" font-size="14.00" fill="#0058ad">a 193 5</text>
<polyline fill="none" stroke="#0058ad" points="440.5,-0.5 440.5,-29.5 "/>
<text text-anchor="middle" x="480" y="-11.3" font-family="Times,serif" font-size="14.00" fill="#0058ad">r 215 [1]</text>
</g>
<!-- T524&#45;&gt;T526 -->
<g id="edge1" class="edge">
<title>T524:f3&#45;&gt;T526:f2</title>
<path fill="none" stroke="#5b00c0" d="M254,-81C254,-62.21 255.37,-55.12 255.84,-40.36"/>
<polygon fill="#5b00c0" stroke="#5b00c0" points="259.35,-40.05 256,-30 252.35,-39.95 259.35,-40.05"/>
<text text-anchor="middle" x="265.5" y="-51.8" font-family="Times,serif" font-size="14.00" fill="#5b00c0">rw</text>
</g>
<!-- T526&#45;&gt;T524 -->
<g id="edge2" class="edge">
<title>T526:f0&#45;&gt;T524:f1</title>
<path fill="none" stroke="#5b00c0" d="M112,-30C112,-48.79 113.37,-55.88 113.84,-70.64"/>
<polygon fill="#5b00c0" stroke="#5b00c0" points="110.35,-71.05 114,-81 117.35,-70.95 110.35,-71.05"/>
<text text-anchor="middle" x="123.5" y="-51.8" font-family="Times,serif" font-size="14.00" fill="#5b00c0">rw</text>
</g>
</g>
</svg>
