<?xml version="1.0" encoding="UTF-8" standalone="no"?>
<!DOCTYPE svg PUBLIC "-//W3C//DTD SVG 1.1//EN"
 "http://www.w3.org/Graphics/SVG/1.1/DTD/svg11.dtd">
<!-- Generated by graphviz version 2.43.0 (0)
 -->
<!-- Title: a_graph Pages: 1 -->
<svg width="1116pt" height="119pt"
 viewBox="0.00 0.00 1115.50 119.00" xmlns="http://www.w3.org/2000/svg" xmlns:xlink="http://www.w3.org/1999/xlink">
<g id="graph0" class="graph" transform="scale(1 1) rotate(0) translate(4 115)">
<title>a_graph</title>
<polygon fill="white" stroke="transparent" points="-4,4 -4,-115 1111.5,-115 1111.5,4 -4,4"/>
<!-- T3418 -->
<g id="node1" class="node">
<title>T3418</title>
<polygon fill="none" stroke="#0058ad" points="207.5,-81.5 207.5,-110.5 1107.5,-110.5 1107.5,-81.5 207.5,-81.5"/>
<text text-anchor="middle" x="247" y="-92.3" font-family="Times,serif" font-size="14.00" fill="#0058ad">r 1410 []</text>
<polyline fill="none" stroke="#0058ad" points="286.5,-81.5 286.5,-110.5 "/>
<text text-anchor="middle" x="326" y="-92.3" font-family="Times,serif" font-size="14.00" fill="#0058ad">r 1416 []</text>
<polyline fill="none" stroke="#0058ad" points="365.5,-81.5 365.5,-110.5 "/>
<text text-anchor="middle" x="405" y="-92.3" font-family="Times,serif" font-size="14.00" fill="#0058ad">a 1417 1</text>
<polyline fill="none" stroke="#0058ad" points="444.5,-81.5 444.5,-110.5 "/>
<text text-anchor="middle" x="484" y="-92.3" font-family="Times,serif" font-size="14.00" fill="#0058ad">a 1412 3</text>
<polyline fill="none" stroke="#0058ad" points="523.5,-81.5 523.5,-110.5 "/>
<text text-anchor="middle" x="563" y="-92.3" font-family="Times,serif" font-size="14.00" fill="#0058ad">r 1413 []</text>
<polyline fill="none" stroke="#0058ad" points="602.5,-81.5 602.5,-110.5 "/>
<text text-anchor="middle" x="642" y="-92.3" font-family="Times,serif" font-size="14.00" fill="#0058ad">a 1412 4</text>
<polyline fill="none" stroke="#0058ad" points="681.5,-81.5 681.5,-110.5 "/>
<text text-anchor="middle" x="725.5" y="-92.3" font-family="Times,serif" font-size="14.00" fill="#0058ad">r 1417 [1]</text>
<polyline fill="none" stroke="#0058ad" points="769.5,-81.5 769.5,-110.5 "/>
<text text-anchor="middle" x="820" y="-92.3" font-family="Times,serif" font-size="14.00" fill="#0058ad">r 1412 [3 4]</text>
<polyline fill="none" stroke="#0058ad" points="870.5,-81.5 870.5,-110.5 "/>
<text text-anchor="middle" x="910" y="-92.3" font-family="Times,serif" font-size="14.00" fill="#0058ad">a 1412 5</text>
<polyline fill="none" stroke="#0058ad" points="949.5,-81.5 949.5,-110.5 "/>
<text text-anchor="middle" x="989" y="-92.3" font-family="Times,serif" font-size="14.00" fill="#0058ad">a 1417 2</text>
<polyline fill="none" stroke="#0058ad" points="1028.5,-81.5 1028.5,-110.5 "/>
<text text-anchor="middle" x="1068" y="-92.3" font-family="Times,serif" font-size="14.00" fill="#0058ad">a 1413 1</text>
</g>
<!-- T3415 -->
<g id="node2" class="node">
<title>T3415</title>
<polygon fill="none" stroke="#0058ad" points="0,-0.5 0,-29.5 869,-29.5 869,-0.5 0,-0.5"/>
<text text-anchor="middle" x="39.5" y="-11.3" font-family="Times,serif" font-size="14.00" fill="#0058ad">r 1416 []</text>
<polyline fill="none" stroke="#0058ad" points="79,-0.5 79,-29.5 "/>
<text text-anchor="middle" x="118.5" y="-11.3" font-family="Times,serif" font-size="14.00" fill="#0058ad">r 1416 []</text>
<polyline fill="none" stroke="#0058ad" points="158,-0.5 158,-29.5 "/>
<text text-anchor="middle" x="197.5" y="-11.3" font-family="Times,serif" font-size="14.00" fill="#0058ad">r 1413 []</text>
<polyline fill="none" stroke="#0058ad" points="237,-0.5 237,-29.5 "/>
<text text-anchor="middle" x="276.5" y="-11.3" font-family="Times,serif" font-size="14.00" fill="#0058ad">a 1416 2</text>
<polyline fill="none" stroke="#0058ad" points="316,-0.5 316,-29.5 "/>
<text text-anchor="middle" x="355.5" y="-11.3" font-family="Times,serif" font-size="14.00" fill="#0058ad">a 1416 3</text>
<polyline fill="none" stroke="#0058ad" points="395,-0.5 395,-29.5 "/>
<text text-anchor="middle" x="434.5" y="-11.3" font-family="Times,serif" font-size="14.00" fill="#0058ad">r 1410 []</text>
<polyline fill="none" stroke="#0058ad" points="474,-0.5 474,-29.5 "/>
<text text-anchor="middle" x="513.5" y="-11.3" font-family="Times,serif" font-size="14.00" fill="#0058ad">r 1412 []</text>
<polyline fill="none" stroke="#0058ad" points="553,-0.5 553,-29.5 "/>
<text text-anchor="middle" x="592.5" y="-11.3" font-family="Times,serif" font-size="14.00" fill="#0058ad">a 1416 4</text>
<polyline fill="none" stroke="#0058ad" points="632,-0.5 632,-29.5 "/>
<text text-anchor="middle" x="671.5" y="-11.3" font-family="Times,serif" font-size="14.00" fill="#0058ad">r 1412 []</text>
<polyline fill="none" stroke="#0058ad" points="711,-0.5 711,-29.5 "/>
<text text-anchor="middle" x="750.5" y="-11.3" font-family="Times,serif" font-size="14.00" fill="#0058ad">a 1416 5</text>
<polyline fill="none" stroke="#0058ad" points="790,-0.5 790,-29.5 "/>
<text text-anchor="middle" x="829.5" y="-11.3" font-family="Times,serif" font-size="14.00" fill="#0058ad">a 1410 2</text>
</g>
<!-- T3418&#45;&gt;T3415 -->
<g id="edge1" class="edge">
<title>T3418:f1&#45;&gt;T3415:f3</title>
<path fill="none" stroke="#5b00c0" d="M325.5,-81C325.5,-53.5 287.98,-59.14 278.61,-39.93"/>
<polygon fill="#5b00c0" stroke="#5b00c0" points="282,-39.06 276.5,-30 275.15,-40.51 282,-39.06"/>
<text text-anchor="middle" x="326" y="-51.8" font-family="Times,serif" font-size="14.00" fill="#5b00c0">rw</text>
</g>
<!-- T3415&#45;&gt;T3418 -->
<g id="edge2" class="edge">
<title>T3415:f6&#45;&gt;T3418:f3</title>
<path fill="none" stroke="#5b00c0" d="M513.5,-30C513.5,-52.39 491.75,-54.56 485.29,-70.95"/>
<polygon fill="#5b00c0" stroke="#5b00c0" points="481.8,-70.54 483.5,-81 488.7,-71.77 481.8,-70.54"/>
<text text-anchor="middle" x="515" y="-51.8" font-family="Times,serif" font-size="14.00" fill="#5b00c0">rw</text>
</g>
</g>
</svg>
