<?xml version="1.0" encoding="UTF-8" standalone="no"?>
<!DOCTYPE svg PUBLIC "-//W3C//DTD SVG 1.1//EN"
 "http://www.w3.org/Graphics/SVG/1.1/DTD/svg11.dtd">
<!-- Generated by graphviz version 2.43.0 (0)
 -->
<!-- Title: a_graph Pages: 1 -->
<svg width="889pt" height="119pt"
 viewBox="0.00 0.00 888.50 119.00" xmlns="http://www.w3.org/2000/svg" xmlns:xlink="http://www.w3.org/1999/xlink">
<g id="graph0" class="graph" transform="scale(1 1) rotate(0) translate(4 115)">
<title>a_graph</title>
<polygon fill="white" stroke="transparent" points="-4,4 -4,-115 884.5,-115 884.5,4 -4,4"/>
<!-- T2704 -->
<g id="node1" class="node">
<title>T2704</title>
<polygon fill="none" stroke="#0058ad" points="168.5,-81.5 168.5,-110.5 880.5,-110.5 880.5,-81.5 168.5,-81.5"/>
<text text-anchor="middle" x="208" y="-92.3" font-family="Times,serif" font-size="14.00" fill="#0058ad">a 1121 3</text>
<polyline fill="none" stroke="#0058ad" points="247.5,-81.5 247.5,-110.5 "/>
<text text-anchor="middle" x="287" y="-92.3" font-family="Times,serif" font-size="14.00" fill="#0058ad">a 1121 4</text>
<polyline fill="none" stroke="#0058ad" points="326.5,-81.5 326.5,-110.5 "/>
<text text-anchor="middle" x="377" y="-92.3" font-family="Times,serif" font-size="14.00" fill="#0058ad">r 1121 [3 4]</text>
<polyline fill="none" stroke="#0058ad" points="427.5,-81.5 427.5,-110.5 "/>
<text text-anchor="middle" x="467" y="-92.3" font-family="Times,serif" font-size="14.00" fill="#0058ad">r 1118 []</text>
<polyline fill="none" stroke="#0058ad" points="506.5,-81.5 506.5,-110.5 "/>
<text text-anchor="middle" x="564" y="-92.3" font-family="Times,serif" font-size="14.00" fill="#0058ad">r 1078 [1 2 3]</text>
<polyline fill="none" stroke="#0058ad" points="621.5,-81.5 621.5,-110.5 "/>
<text text-anchor="middle" x="661" y="-92.3" font-family="Times,serif" font-size="14.00" fill="#0058ad">a 1119 1</text>
<polyline fill="none" stroke="#0058ad" points="700.5,-81.5 700.5,-110.5 "/>
<text text-anchor="middle" x="740" y="-92.3" font-family="Times,serif" font-size="14.00" fill="#0058ad">a 1120 3</text>
<polyline fill="none" stroke="#0058ad" points="779.5,-81.5 779.5,-110.5 "/>
<text text-anchor="middle" x="830" y="-92.3" font-family="Times,serif" font-size="14.00" fill="#0058ad">r 1121 [3 4]</text>
</g>
<!-- T2702 -->
<g id="node2" class="node">
<title>T2702</title>
<polygon fill="none" stroke="#0058ad" points="0,-0.5 0,-29.5 747,-29.5 747,-0.5 0,-0.5"/>
<text text-anchor="middle" x="39.5" y="-11.3" font-family="Times,serif" font-size="14.00" fill="#0058ad">r 1117 []</text>
<polyline fill="none" stroke="#0058ad" points="79,-0.5 79,-29.5 "/>
<text text-anchor="middle" x="118.5" y="-11.3" font-family="Times,serif" font-size="14.00" fill="#0058ad">r 1117 []</text>
<polyline fill="none" stroke="#0058ad" points="158,-0.5 158,-29.5 "/>
<text text-anchor="middle" x="197.5" y="-11.3" font-family="Times,serif" font-size="14.00" fill="#0058ad">r 1112 []</text>
<polyline fill="none" stroke="#0058ad" points="237,-0.5 237,-29.5 "/>
<text text-anchor="middle" x="294.5" y="-11.3" font-family="Times,serif" font-size="14.00" fill="#0058ad">r 1078 [1 2 3]</text>
<polyline fill="none" stroke="#0058ad" points="352,-0.5 352,-29.5 "/>
<text text-anchor="middle" x="391.5" y="-11.3" font-family="Times,serif" font-size="14.00" fill="#0058ad">a 1118 2</text>
<polyline fill="none" stroke="#0058ad" points="431,-0.5 431,-29.5 "/>
<text text-anchor="middle" x="470.5" y="-11.3" font-family="Times,serif" font-size="14.00" fill="#0058ad">a 1117 3</text>
<polyline fill="none" stroke="#0058ad" points="510,-0.5 510,-29.5 "/>
<text text-anchor="middle" x="549.5" y="-11.3" font-family="Times,serif" font-size="14.00" fill="#0058ad">a 1117 4</text>
<polyline fill="none" stroke="#0058ad" points="589,-0.5 589,-29.5 "/>
<text text-anchor="middle" x="628.5" y="-11.3" font-family="Times,serif" font-size="14.00" fill="#0058ad">a 1117 5</text>
<polyline fill="none" stroke="#0058ad" points="668,-0.5 668,-29.5 "/>
<text text-anchor="middle" x="707.5" y="-11.3" font-family="Times,serif" font-size="14.00" fill="#0058ad">r 1119 []</text>
</g>
<!-- T2704&#45;&gt;T2702 -->
<g id="edge1" class="edge">
<title>T2704:f3&#45;&gt;T2702:f4</title>
<path fill="none" stroke="#5b00c0" d="M466.5,-81C466.5,-44.63 405.43,-65.19 393.51,-39.94"/>
<polygon fill="#5b00c0" stroke="#5b00c0" points="396.91,-39.11 391.5,-30 390.05,-40.49 396.91,-39.11"/>
<text text-anchor="middle" x="466" y="-51.8" font-family="Times,serif" font-size="14.00" fill="#5b00c0">rw</text>
</g>
<!-- T2702&#45;&gt;T2704 -->
<g id="edge2" class="edge">
<title>T2702:f8&#45;&gt;T2704:f5</title>
<path fill="none" stroke="#5b00c0" d="M707.5,-30C707.5,-56.47 672.91,-52.43 663.72,-70.79"/>
<polygon fill="#5b00c0" stroke="#5b00c0" points="660.2,-70.48 661.5,-81 667.04,-71.97 660.2,-70.48"/>
<text text-anchor="middle" x="708" y="-51.8" font-family="Times,serif" font-size="14.00" fill="#5b00c0">rw</text>
</g>
</g>
</svg>
