<?xml version="1.0" encoding="UTF-8" standalone="no"?>
<!DOCTYPE svg PUBLIC "-//W3C//DTD SVG 1.1//EN"
 "http://www.w3.org/Graphics/SVG/1.1/DTD/svg11.dtd">
<!-- Generated by graphviz version 2.43.0 (0)
 -->
<!-- Title: a_graph Pages: 1 -->
<svg width="812pt" height="119pt"
 viewBox="0.00 0.00 812.00 119.00" xmlns="http://www.w3.org/2000/svg" xmlns:xlink="http://www.w3.org/1999/xlink">
<g id="graph0" class="graph" transform="scale(1 1) rotate(0) translate(4 115)">
<title>a_graph</title>
<polygon fill="white" stroke="transparent" points="-4,4 -4,-115 808,-115 808,4 -4,4"/>
<!-- T1510 -->
<g id="node1" class="node">
<title>T1510</title>
<polygon fill="none" stroke="#0058ad" points="0,-81.5 0,-110.5 429,-110.5 429,-81.5 0,-81.5"/>
<text text-anchor="middle" x="35" y="-92.3" font-family="Times,serif" font-size="14.00" fill="#0058ad">r 631 []</text>
<polyline fill="none" stroke="#0058ad" points="70,-81.5 70,-110.5 "/>
<text text-anchor="middle" x="105" y="-92.3" font-family="Times,serif" font-size="14.00" fill="#0058ad">a 631 1</text>
<polyline fill="none" stroke="#0058ad" points="140,-81.5 140,-110.5 "/>
<text text-anchor="middle" x="179.5" y="-92.3" font-family="Times,serif" font-size="14.00" fill="#0058ad">r 629 [1]</text>
<polyline fill="none" stroke="#0058ad" points="219,-81.5 219,-110.5 "/>
<text text-anchor="middle" x="254" y="-92.3" font-family="Times,serif" font-size="14.00" fill="#0058ad">a 631 2</text>
<polyline fill="none" stroke="#0058ad" points="289,-81.5 289,-110.5 "/>
<text text-anchor="middle" x="324" y="-92.3" font-family="Times,serif" font-size="14.00" fill="#0058ad">a 627 1</text>
<polyline fill="none" stroke="#0058ad" points="359,-81.5 359,-110.5 "/>
<text text-anchor="middle" x="394" y="-92.3" font-family="Times,serif" font-size="14.00" fill="#0058ad">a 632 1</text>
</g>
<!-- T1508 -->
<g id="node2" class="node">
<title>T1508</title>
<polygon fill="none" stroke="#0058ad" points="23,-0.5 23,-29.5 804,-29.5 804,-0.5 23,-0.5"/>
<text text-anchor="middle" x="62.5" y="-11.3" font-family="Times,serif" font-size="14.00" fill="#0058ad">r 629 [1]</text>
<polyline fill="none" stroke="#0058ad" points="102,-0.5 102,-29.5 "/>
<text text-anchor="middle" x="137" y="-11.3" font-family="Times,serif" font-size="14.00" fill="#0058ad">a 629 4</text>
<polyline fill="none" stroke="#0058ad" points="172,-0.5 172,-29.5 "/>
<text text-anchor="middle" x="207" y="-11.3" font-family="Times,serif" font-size="14.00" fill="#0058ad">a 629 5</text>
<polyline fill="none" stroke="#0058ad" points="242,-0.5 242,-29.5 "/>
<text text-anchor="middle" x="295" y="-11.3" font-family="Times,serif" font-size="14.00" fill="#0058ad">r 629 [1 4 5]</text>
<polyline fill="none" stroke="#0058ad" points="348,-0.5 348,-29.5 "/>
<text text-anchor="middle" x="383" y="-11.3" font-family="Times,serif" font-size="14.00" fill="#0058ad">a 630 4</text>
<polyline fill="none" stroke="#0058ad" points="418,-0.5 418,-29.5 "/>
<text text-anchor="middle" x="453" y="-11.3" font-family="Times,serif" font-size="14.00" fill="#0058ad">r 627 []</text>
<polyline fill="none" stroke="#0058ad" points="488,-0.5 488,-29.5 "/>
<text text-anchor="middle" x="523" y="-11.3" font-family="Times,serif" font-size="14.00" fill="#0058ad">a 630 5</text>
<polyline fill="none" stroke="#0058ad" points="558,-0.5 558,-29.5 "/>
<text text-anchor="middle" x="593" y="-11.3" font-family="Times,serif" font-size="14.00" fill="#0058ad">r 627 []</text>
<polyline fill="none" stroke="#0058ad" points="628,-0.5 628,-29.5 "/>
<text text-anchor="middle" x="663" y="-11.3" font-family="Times,serif" font-size="14.00" fill="#0058ad">r 627 []</text>
<polyline fill="none" stroke="#0058ad" points="698,-0.5 698,-29.5 "/>
<text text-anchor="middle" x="751" y="-11.3" font-family="Times,serif" font-size="14.00" fill="#0058ad">r 629 [1 4 5]</text>
</g>
<!-- T1510&#45;&gt;T1508 -->
<g id="edge1" class="edge">
<title>T1510:f2&#45;&gt;T1508:f1</title>
<path fill="none" stroke="#5b00c0" d="M179.5,-81C179.5,-55.29 147.16,-58.11 138.57,-39.98"/>
<polygon fill="#5b00c0" stroke="#5b00c0" points="141.96,-39.08 136.5,-30 135.11,-40.5 141.96,-39.08"/>
<text text-anchor="middle" x="180" y="-51.8" font-family="Times,serif" font-size="14.00" fill="#5b00c0">rw</text>
</g>
<!-- T1508&#45;&gt;T1510 -->
<g id="edge2" class="edge">
<title>T1508:f5&#45;&gt;T1510:f4</title>
<path fill="none" stroke="#5b00c0" d="M453.5,-30C453.5,-87.8 340.12,-27.86 325.95,-70.94"/>
<polygon fill="#5b00c0" stroke="#5b00c0" points="322.46,-70.6 324.5,-81 329.39,-71.6 322.46,-70.6"/>
<text text-anchor="middle" x="456" y="-51.8" font-family="Times,serif" font-size="14.00" fill="#5b00c0">rw</text>
</g>
</g>
</svg>
