<?xml version="1.0" encoding="UTF-8" standalone="no"?>
<!DOCTYPE svg PUBLIC "-//W3C//DTD SVG 1.1//EN"
 "http://www.w3.org/Graphics/SVG/1.1/DTD/svg11.dtd">
<!-- Generated by graphviz version 2.43.0 (0)
 -->
<!-- Title: a_graph Pages: 1 -->
<svg width="960pt" height="119pt"
 viewBox="0.00 0.00 960.00 119.00" xmlns="http://www.w3.org/2000/svg" xmlns:xlink="http://www.w3.org/1999/xlink">
<g id="graph0" class="graph" transform="scale(1 1) rotate(0) translate(4 115)">
<title>a_graph</title>
<polygon fill="white" stroke="transparent" points="-4,4 -4,-115 956,-115 956,4 -4,4"/>
<!-- T570 -->
<g id="node1" class="node">
<title>T570</title>
<polygon fill="none" stroke="#0058ad" points="76,-81.5 76,-110.5 952,-110.5 952,-81.5 76,-81.5"/>
<text text-anchor="middle" x="111" y="-92.3" font-family="Times,serif" font-size="14.00" fill="#0058ad">r 232 []</text>
<polyline fill="none" stroke="#0058ad" points="146,-81.5 146,-110.5 "/>
<text text-anchor="middle" x="181" y="-92.3" font-family="Times,serif" font-size="14.00" fill="#0058ad">r 233 []</text>
<polyline fill="none" stroke="#0058ad" points="216,-81.5 216,-110.5 "/>
<text text-anchor="middle" x="251" y="-92.3" font-family="Times,serif" font-size="14.00" fill="#0058ad">a 231 1</text>
<polyline fill="none" stroke="#0058ad" points="286,-81.5 286,-110.5 "/>
<text text-anchor="middle" x="321" y="-92.3" font-family="Times,serif" font-size="14.00" fill="#0058ad">a 231 2</text>
<polyline fill="none" stroke="#0058ad" points="356,-81.5 356,-110.5 "/>
<text text-anchor="middle" x="391" y="-92.3" font-family="Times,serif" font-size="14.00" fill="#0058ad">a 231 3</text>
<polyline fill="none" stroke="#0058ad" points="426,-81.5 426,-110.5 "/>
<text text-anchor="middle" x="461" y="-92.3" font-family="Times,serif" font-size="14.00" fill="#0058ad">r 233 []</text>
<polyline fill="none" stroke="#0058ad" points="496,-81.5 496,-110.5 "/>
<text text-anchor="middle" x="531" y="-92.3" font-family="Times,serif" font-size="14.00" fill="#0058ad">r 234 []</text>
<polyline fill="none" stroke="#0058ad" points="566,-81.5 566,-110.5 "/>
<text text-anchor="middle" x="601" y="-92.3" font-family="Times,serif" font-size="14.00" fill="#0058ad">r 234 []</text>
<polyline fill="none" stroke="#0058ad" points="636,-81.5 636,-110.5 "/>
<text text-anchor="middle" x="671" y="-92.3" font-family="Times,serif" font-size="14.00" fill="#0058ad">a 221 4</text>
<polyline fill="none" stroke="#0058ad" points="706,-81.5 706,-110.5 "/>
<text text-anchor="middle" x="759" y="-92.3" font-family="Times,serif" font-size="14.00" fill="#0058ad">r 210 [1 3 4]</text>
<polyline fill="none" stroke="#0058ad" points="812,-81.5 812,-110.5 "/>
<text text-anchor="middle" x="847" y="-92.3" font-family="Times,serif" font-size="14.00" fill="#0058ad">r 234 []</text>
<polyline fill="none" stroke="#0058ad" points="882,-81.5 882,-110.5 "/>
<text text-anchor="middle" x="917" y="-92.3" font-family="Times,serif" font-size="14.00" fill="#0058ad">r 234 []</text>
</g>
<!-- T569 -->
<g id="node2" class="node">
<title>T569</title>
<polygon fill="none" stroke="#0058ad" points="0,-0.5 0,-29.5 898,-29.5 898,-0.5 0,-0.5"/>
<text text-anchor="middle" x="35" y="-11.3" font-family="Times,serif" font-size="14.00" fill="#0058ad">r 232 []</text>
<polyline fill="none" stroke="#0058ad" points="70,-0.5 70,-29.5 "/>
<text text-anchor="middle" x="105" y="-11.3" font-family="Times,serif" font-size="14.00" fill="#0058ad">a 167 5</text>
<polyline fill="none" stroke="#0058ad" points="140,-0.5 140,-29.5 "/>
<text text-anchor="middle" x="186" y="-11.3" font-family="Times,serif" font-size="14.00" fill="#0058ad">r 221 [2 3]</text>
<polyline fill="none" stroke="#0058ad" points="232,-0.5 232,-29.5 "/>
<text text-anchor="middle" x="267" y="-11.3" font-family="Times,serif" font-size="14.00" fill="#0058ad">r 232 []</text>
<polyline fill="none" stroke="#0058ad" points="302,-0.5 302,-29.5 "/>
<text text-anchor="middle" x="337" y="-11.3" font-family="Times,serif" font-size="14.00" fill="#0058ad">a 232 1</text>
<polyline fill="none" stroke="#0058ad" points="372,-0.5 372,-29.5 "/>
<text text-anchor="middle" x="407" y="-11.3" font-family="Times,serif" font-size="14.00" fill="#0058ad">a 225 2</text>
<polyline fill="none" stroke="#0058ad" points="442,-0.5 442,-29.5 "/>
<text text-anchor="middle" x="477" y="-11.3" font-family="Times,serif" font-size="14.00" fill="#0058ad">a 232 2</text>
<polyline fill="none" stroke="#0058ad" points="512,-0.5 512,-29.5 "/>
<text text-anchor="middle" x="547" y="-11.3" font-family="Times,serif" font-size="14.00" fill="#0058ad">a 232 3</text>
<polyline fill="none" stroke="#0058ad" points="582,-0.5 582,-29.5 "/>
<text text-anchor="middle" x="617" y="-11.3" font-family="Times,serif" font-size="14.00" fill="#0058ad">a 233 1</text>
<polyline fill="none" stroke="#0058ad" points="652,-0.5 652,-29.5 "/>
<text text-anchor="middle" x="705" y="-11.3" font-family="Times,serif" font-size="14.00" fill="#0058ad">r 232 [1 2 3]</text>
<polyline fill="none" stroke="#0058ad" points="758,-0.5 758,-29.5 "/>
<text text-anchor="middle" x="793" y="-11.3" font-family="Times,serif" font-size="14.00" fill="#0058ad">a 232 4</text>
<polyline fill="none" stroke="#0058ad" points="828,-0.5 828,-29.5 "/>
<text text-anchor="middle" x="863" y="-11.3" font-family="Times,serif" font-size="14.00" fill="#0058ad">a 232 5</text>
</g>
<!-- T570&#45;&gt;T569 -->
<g id="edge1" class="edge">
<title>T570:f0&#45;&gt;T569:f4</title>
<path fill="none" stroke="#5b00c0" d="M111,-81C111,18.15 320.54,-121.83 336.09,-40.42"/>
<polygon fill="#5b00c0" stroke="#5b00c0" points="339.62,-40.27 337,-30 332.64,-39.66 339.62,-40.27"/>
<text text-anchor="middle" x="342.5" y="-51.8" font-family="Times,serif" font-size="14.00" fill="#5b00c0">rw</text>
</g>
<!-- T569&#45;&gt;T570 -->
<g id="edge2" class="edge">
<title>T569:f2&#45;&gt;T570:f8</title>
<path fill="none" stroke="#5b00c0" d="M186,-30C186,-30.77 591.22,-72.04 660.87,-79.77"/>
<polygon fill="#5b00c0" stroke="#5b00c0" points="660.65,-83.27 671,-81 661.5,-76.32 660.65,-83.27"/>
<text text-anchor="middle" x="509.5" y="-51.8" font-family="Times,serif" font-size="14.00" fill="#5b00c0">rw</text>
</g>
</g>
</svg>
