<?xml version="1.0" encoding="UTF-8" standalone="no"?>
<!DOCTYPE svg PUBLIC "-//W3C//DTD SVG 1.1//EN"
 "http://www.w3.org/Graphics/SVG/1.1/DTD/svg11.dtd">
<!-- Generated by graphviz version 2.43.0 (0)
 -->
<!-- Title: a_graph Pages: 1 -->
<svg width="827pt" height="119pt"
 viewBox="0.00 0.00 827.00 119.00" xmlns="http://www.w3.org/2000/svg" xmlns:xlink="http://www.w3.org/1999/xlink">
<g id="graph0" class="graph" transform="scale(1 1) rotate(0) translate(4 115)">
<title>a_graph</title>
<polygon fill="white" stroke="transparent" points="-4,4 -4,-115 823,-115 823,4 -4,4"/>
<!-- T301 -->
<g id="node1" class="node">
<title>T301</title>
<polygon fill="none" stroke="#0058ad" points="48,-81.5 48,-110.5 819,-110.5 819,-81.5 48,-81.5"/>
<text text-anchor="middle" x="87.5" y="-92.3" font-family="Times,serif" font-size="14.00" fill="#0058ad">r 123 [1]</text>
<polyline fill="none" stroke="#0058ad" points="127,-81.5 127,-110.5 "/>
<text text-anchor="middle" x="162" y="-92.3" font-family="Times,serif" font-size="14.00" fill="#0058ad">a 123 2</text>
<polyline fill="none" stroke="#0058ad" points="197,-81.5 197,-110.5 "/>
<text text-anchor="middle" x="232" y="-92.3" font-family="Times,serif" font-size="14.00" fill="#0058ad">a 118 2</text>
<polyline fill="none" stroke="#0058ad" points="267,-81.5 267,-110.5 "/>
<text text-anchor="middle" x="306.5" y="-92.3" font-family="Times,serif" font-size="14.00" fill="#0058ad">r 108 [4]</text>
<polyline fill="none" stroke="#0058ad" points="346,-81.5 346,-110.5 "/>
<text text-anchor="middle" x="381" y="-92.3" font-family="Times,serif" font-size="14.00" fill="#0058ad">a 125 1</text>
<polyline fill="none" stroke="#0058ad" points="416,-81.5 416,-110.5 "/>
<text text-anchor="middle" x="462" y="-92.3" font-family="Times,serif" font-size="14.00" fill="#0058ad">r 116 [1 2]</text>
<polyline fill="none" stroke="#0058ad" points="508,-81.5 508,-110.5 "/>
<text text-anchor="middle" x="543" y="-92.3" font-family="Times,serif" font-size="14.00" fill="#0058ad">a 118 3</text>
<polyline fill="none" stroke="#0058ad" points="578,-81.5 578,-110.5 "/>
<text text-anchor="middle" x="624" y="-92.3" font-family="Times,serif" font-size="14.00" fill="#0058ad">r 116 [1 2]</text>
<polyline fill="none" stroke="#0058ad" points="670,-81.5 670,-110.5 "/>
<text text-anchor="middle" x="709.5" y="-92.3" font-family="Times,serif" font-size="14.00" fill="#0058ad">r 125 [1]</text>
<polyline fill="none" stroke="#0058ad" points="749,-81.5 749,-110.5 "/>
<text text-anchor="middle" x="784" y="-92.3" font-family="Times,serif" font-size="14.00" fill="#0058ad">a 118 4</text>
</g>
<!-- T297 -->
<g id="node2" class="node">
<title>T297</title>
<polygon fill="none" stroke="#0058ad" points="0,-0.5 0,-29.5 701,-29.5 701,-0.5 0,-0.5"/>
<text text-anchor="middle" x="35" y="-11.3" font-family="Times,serif" font-size="14.00" fill="#0058ad">a 108 5</text>
<polyline fill="none" stroke="#0058ad" points="70,-0.5 70,-29.5 "/>
<text text-anchor="middle" x="116" y="-11.3" font-family="Times,serif" font-size="14.00" fill="#0058ad">r 124 [1 2]</text>
<polyline fill="none" stroke="#0058ad" points="162,-0.5 162,-29.5 "/>
<text text-anchor="middle" x="208" y="-11.3" font-family="Times,serif" font-size="14.00" fill="#0058ad">r 124 [1 2]</text>
<polyline fill="none" stroke="#0058ad" points="254,-0.5 254,-29.5 "/>
<text text-anchor="middle" x="289" y="-11.3" font-family="Times,serif" font-size="14.00" fill="#0058ad">a 124 3</text>
<polyline fill="none" stroke="#0058ad" points="324,-0.5 324,-29.5 "/>
<text text-anchor="middle" x="359" y="-11.3" font-family="Times,serif" font-size="14.00" fill="#0058ad">a 124 4</text>
<polyline fill="none" stroke="#0058ad" points="394,-0.5 394,-29.5 "/>
<text text-anchor="middle" x="433.5" y="-11.3" font-family="Times,serif" font-size="14.00" fill="#0058ad">r 123 [1]</text>
<polyline fill="none" stroke="#0058ad" points="473,-0.5 473,-29.5 "/>
<text text-anchor="middle" x="508" y="-11.3" font-family="Times,serif" font-size="14.00" fill="#0058ad">a 124 5</text>
<polyline fill="none" stroke="#0058ad" points="543,-0.5 543,-29.5 "/>
<text text-anchor="middle" x="582.5" y="-11.3" font-family="Times,serif" font-size="14.00" fill="#0058ad">r 123 [1]</text>
<polyline fill="none" stroke="#0058ad" points="622,-0.5 622,-29.5 "/>
<text text-anchor="middle" x="661.5" y="-11.3" font-family="Times,serif" font-size="14.00" fill="#0058ad">r 123 [1]</text>
</g>
<!-- T301&#45;&gt;T297 -->
<g id="edge1" class="edge">
<title>T301:f3&#45;&gt;T297:f0</title>
<path fill="none" stroke="#5b00c0" d="M306.5,-81C306.5,-35.88 254.56,-57.69 210.5,-48 193.85,-44.34 73.72,-48.27 42.11,-36.56"/>
<polygon fill="#5b00c0" stroke="#5b00c0" points="44.36,-33.88 34.5,-30 39.78,-39.18 44.36,-33.88"/>
<text text-anchor="middle" x="311" y="-51.8" font-family="Times,serif" font-size="14.00" fill="#5b00c0">rw</text>
</g>
<!-- T297&#45;&gt;T301 -->
<g id="edge2" class="edge">
<title>T297:f5&#45;&gt;T301:f1</title>
<path fill="none" stroke="#5b00c0" d="M433.5,-30C433.5,-57.41 211.7,-35.14 187.5,-48 174.49,-54.91 165.82,-59.84 162.75,-70.78"/>
<polygon fill="#5b00c0" stroke="#5b00c0" points="159.24,-70.65 161.5,-81 166.18,-71.5 159.24,-70.65"/>
<text text-anchor="middle" x="197" y="-51.8" font-family="Times,serif" font-size="14.00" fill="#5b00c0">rw</text>
</g>
</g>
</svg>
