<?xml version="1.0" encoding="UTF-8" standalone="no"?>
<!DOCTYPE svg PUBLIC "-//W3C//DTD SVG 1.1//EN"
 "http://www.w3.org/Graphics/SVG/1.1/DTD/svg11.dtd">
<!-- Generated by graphviz version 2.43.0 (0)
 -->
<!-- Title: a_graph Pages: 1 -->
<svg width="2756pt" height="119pt"
 viewBox="0.00 0.00 2756.00 119.00" xmlns="http://www.w3.org/2000/svg" xmlns:xlink="http://www.w3.org/1999/xlink">
<g id="graph0" class="graph" transform="scale(1 1) rotate(0) translate(4 115)">
<title>a_graph</title>
<polygon fill="white" stroke="transparent" points="-4,4 -4,-115 2752,-115 2752,4 -4,4"/>
<!-- T1776 -->
<g id="node1" class="node">
<title>T1776</title>
<polygon fill="none" stroke="#0058ad" points="1649,-81.5 1649,-110.5 2115,-110.5 2115,-81.5 1649,-81.5"/>
<text text-anchor="middle" x="1776" y="-92.3" font-family="Times,serif" font-size="14.00" fill="#0058ad">r 136 [1 2 3 4 5 6 7 8 9 10 11 12]</text>
<polyline fill="none" stroke="#0058ad" points="1903,-81.5 1903,-110.5 "/>
<text text-anchor="middle" x="1969.5" y="-92.3" font-family="Times,serif" font-size="14.00" fill="#0058ad">r 137 [1 2 3 4 5]</text>
<polyline fill="none" stroke="#0058ad" points="2036,-81.5 2036,-110.5 "/>
<text text-anchor="middle" x="2075.5" y="-92.3" font-family="Times,serif" font-size="14.00" fill="#0058ad">a 136 17</text>
</g>
<!-- T1777 -->
<g id="node2" class="node">
<title>T1777</title>
<polygon fill="none" stroke="#0058ad" points="0,-0.5 0,-29.5 2748,-29.5 2748,-0.5 0,-0.5"/>
<text text-anchor="middle" x="273.5" y="-11.3" font-family="Times,serif" font-size="14.00" fill="#0058ad">r 132 [1 2 3 4 5 6 7 8 9 10 11 12 13 14 15 16 17 18 19 20 21 22 23 24 25]</text>
<polyline fill="none" stroke="#0058ad" points="547,-0.5 547,-29.5 "/>
<text text-anchor="middle" x="613.5" y="-11.3" font-family="Times,serif" font-size="14.00" fill="#0058ad">r 137 [1 2 3 4 5]</text>
<polyline fill="none" stroke="#0058ad" points="680,-0.5 680,-29.5 "/>
<text text-anchor="middle" x="953.5" y="-11.3" font-family="Times,serif" font-size="14.00" fill="#0058ad">r 132 [1 2 3 4 5 6 7 8 9 10 11 12 13 14 15 16 17 18 19 20 21 22 23 24 25]</text>
<polyline fill="none" stroke="#0058ad" points="1227,-0.5 1227,-29.5 "/>
<text text-anchor="middle" x="1354" y="-11.3" font-family="Times,serif" font-size="14.00" fill="#0058ad">r 136 [1 2 3 4 5 6 7 8 9 10 11 12]</text>
<polyline fill="none" stroke="#0058ad" points="1481,-0.5 1481,-29.5 "/>
<text text-anchor="middle" x="1608" y="-11.3" font-family="Times,serif" font-size="14.00" fill="#0058ad">r 136 [1 2 3 4 5 6 7 8 9 10 11 12]</text>
<polyline fill="none" stroke="#0058ad" points="1735,-0.5 1735,-29.5 "/>
<text text-anchor="middle" x="1801.5" y="-11.3" font-family="Times,serif" font-size="14.00" fill="#0058ad">r 137 [1 2 3 4 5]</text>
<polyline fill="none" stroke="#0058ad" points="1868,-0.5 1868,-29.5 "/>
<text text-anchor="middle" x="1995" y="-11.3" font-family="Times,serif" font-size="14.00" fill="#0058ad">r 136 [1 2 3 4 5 6 7 8 9 10 11 12]</text>
<polyline fill="none" stroke="#0058ad" points="2122,-0.5 2122,-29.5 "/>
<text text-anchor="middle" x="2395.5" y="-11.3" font-family="Times,serif" font-size="14.00" fill="#0058ad">r 132 [1 2 3 4 5 6 7 8 9 10 11 12 13 14 15 16 17 18 19 20 21 22 23 24 25]</text>
<polyline fill="none" stroke="#0058ad" points="2669,-0.5 2669,-29.5 "/>
<text text-anchor="middle" x="2708.5" y="-11.3" font-family="Times,serif" font-size="14.00" fill="#0058ad">a 137 11</text>
</g>
<!-- T1776&#45;&gt;T1777 -->
<g id="edge1" class="edge">
<title>T1776:f1&#45;&gt;T1777:f8</title>
<path fill="none" stroke="#5b00c0" d="M1970,-81C1970,-54.74 1993.99,-55.99 2019,-48 2035.98,-42.57 2617.77,-48.25 2699.5,-33.67"/>
<polygon fill="#5b00c0" stroke="#5b00c0" points="2700.93,-36.87 2709,-30 2698.41,-30.34 2700.93,-36.87"/>
<text text-anchor="middle" x="2028.5" y="-51.8" font-family="Times,serif" font-size="14.00" fill="#5b00c0">rw</text>
</g>
<!-- T1777&#45;&gt;T1776 -->
<g id="edge2" class="edge">
<title>T1777:f3&#45;&gt;T1776:f2</title>
<path fill="none" stroke="#5b00c0" d="M1354,-30C1354,-49.01 2020.28,-41.11 2038,-48 2055.27,-54.71 2070,-57.6 2074.55,-71.1"/>
<polygon fill="#5b00c0" stroke="#5b00c0" points="2071.09,-71.61 2076,-81 2078.01,-70.6 2071.09,-71.61"/>
<text text-anchor="middle" x="2078.5" y="-51.8" font-family="Times,serif" font-size="14.00" fill="#5b00c0">rw</text>
</g>
</g>
</svg>
