<?xml version="1.0" encoding="UTF-8" standalone="no"?>
<!DOCTYPE svg PUBLIC "-//W3C//DTD SVG 1.1//EN"
 "http://www.w3.org/Graphics/SVG/1.1/DTD/svg11.dtd">
<!-- Generated by graphviz version 2.43.0 (0)
 -->
<!-- Title: a_graph Pages: 1 -->
<svg width="2763pt" height="119pt"
 viewBox="0.00 0.00 2763.00 119.00" xmlns="http://www.w3.org/2000/svg" xmlns:xlink="http://www.w3.org/1999/xlink">
<g id="graph0" class="graph" transform="scale(1 1) rotate(0) translate(4 115)">
<title>a_graph</title>
<polygon fill="white" stroke="transparent" points="-4,4 -4,-115 2759,-115 2759,4 -4,4"/>
<!-- T1887 -->
<g id="node1" class="node">
<title>T1887</title>
<polygon fill="none" stroke="#0058ad" points="0,-81.5 0,-110.5 2755,-110.5 2755,-81.5 0,-81.5"/>
<text text-anchor="middle" x="35" y="-92.3" font-family="Times,serif" font-size="14.00" fill="#0058ad">a 73 26</text>
<polyline fill="none" stroke="#0058ad" points="70,-81.5 70,-110.5 "/>
<text text-anchor="middle" x="332" y="-92.3" font-family="Times,serif" font-size="14.00" fill="#0058ad">r 73 [1 2 3 4 5 6 7 8 11 12 13 14 15 16 17 18 19 20 21 22 23 24 25 26]</text>
<polyline fill="none" stroke="#0058ad" points="594,-81.5 594,-110.5 "/>
<text text-anchor="middle" x="856" y="-92.3" font-family="Times,serif" font-size="14.00" fill="#0058ad">r 73 [1 2 3 4 5 6 7 8 11 12 13 14 15 16 17 18 19 20 21 22 23 24 25 26]</text>
<polyline fill="none" stroke="#0058ad" points="1118,-81.5 1118,-110.5 "/>
<text text-anchor="middle" x="1153" y="-92.3" font-family="Times,serif" font-size="14.00" fill="#0058ad">a 73 27</text>
<polyline fill="none" stroke="#0058ad" points="1188,-81.5 1188,-110.5 "/>
<text text-anchor="middle" x="1461.5" y="-92.3" font-family="Times,serif" font-size="14.00" fill="#0058ad">r 73 [1 2 3 4 5 6 7 8 11 12 13 14 15 16 17 18 19 20 21 22 23 24 25 26 27]</text>
<polyline fill="none" stroke="#0058ad" points="1735,-81.5 1735,-110.5 "/>
<text text-anchor="middle" x="1936.5" y="-92.3" font-family="Times,serif" font-size="14.00" fill="#0058ad">r 72 [1 2 3 4 5 6 7 8 9 10 12 13 14 15 16 17 18 19 20]</text>
<polyline fill="none" stroke="#0058ad" points="2138,-81.5 2138,-110.5 "/>
<text text-anchor="middle" x="2411.5" y="-92.3" font-family="Times,serif" font-size="14.00" fill="#0058ad">r 73 [1 2 3 4 5 6 7 8 11 12 13 14 15 16 17 18 19 20 21 22 23 24 25 26 27]</text>
<polyline fill="none" stroke="#0058ad" points="2685,-81.5 2685,-110.5 "/>
<text text-anchor="middle" x="2720" y="-92.3" font-family="Times,serif" font-size="14.00" fill="#0058ad">a 73 28</text>
</g>
<!-- T1886 -->
<g id="node2" class="node">
<title>T1886</title>
<polygon fill="none" stroke="#0058ad" points="480.5,-0.5 480.5,-29.5 1624.5,-29.5 1624.5,-0.5 480.5,-0.5"/>
<text text-anchor="middle" x="731.5" y="-11.3" font-family="Times,serif" font-size="14.00" fill="#0058ad">r 73 [1 2 3 4 5 6 7 8 11 12 13 14 15 16 17 18 19 20 21 22 23 24 25]</text>
<polyline fill="none" stroke="#0058ad" points="982.5,-0.5 982.5,-29.5 "/>
<text text-anchor="middle" x="1233.5" y="-11.3" font-family="Times,serif" font-size="14.00" fill="#0058ad">r 73 [1 2 3 4 5 6 7 8 11 12 13 14 15 16 17 18 19 20 21 22 23 24 25]</text>
<polyline fill="none" stroke="#0058ad" points="1484.5,-0.5 1484.5,-29.5 "/>
<text text-anchor="middle" x="1519.5" y="-11.3" font-family="Times,serif" font-size="14.00" fill="#0058ad">a 72 21</text>
<polyline fill="none" stroke="#0058ad" points="1554.5,-0.5 1554.5,-29.5 "/>
<text text-anchor="middle" x="1589.5" y="-11.3" font-family="Times,serif" font-size="14.00" fill="#0058ad">a 72 22</text>
</g>
<!-- T1887&#45;&gt;T1886 -->
<g id="edge1" class="edge">
<title>T1887:f5&#45;&gt;T1886:f2</title>
<path fill="none" stroke="#5b00c0" d="M1936.5,-81C1936.5,102.07 1535.63,-204.31 1519.97,-40.37"/>
<polygon fill="#5b00c0" stroke="#5b00c0" points="1523.45,-39.83 1519.5,-30 1516.46,-40.15 1523.45,-39.83"/>
<text text-anchor="middle" x="1944" y="-51.8" font-family="Times,serif" font-size="14.00" fill="#5b00c0">rw</text>
</g>
<!-- T1886&#45;&gt;T1887 -->
<g id="edge2" class="edge">
<title>T1886:f0&#45;&gt;T1887:f0</title>
<path fill="none" stroke="#5b00c0" d="M479.5,-15C432.64,-15 82.53,-29.08 38.95,-72.02"/>
<polygon fill="#5b00c0" stroke="#5b00c0" points="35.8,-70.49 34.5,-81 42.08,-73.59 35.8,-70.49"/>
<text text-anchor="middle" x="112" y="-51.8" font-family="Times,serif" font-size="14.00" fill="#5b00c0">rw</text>
</g>
</g>
</svg>
