<?xml version="1.0" encoding="UTF-8" standalone="no"?>
<!DOCTYPE svg PUBLIC "-//W3C//DTD SVG 1.1//EN"
 "http://www.w3.org/Graphics/SVG/1.1/DTD/svg11.dtd">
<!-- Generated by graphviz version 2.43.0 (0)
 -->
<!-- Title: a_graph Pages: 1 -->
<svg width="1341pt" height="119pt"
 viewBox="0.00 0.00 1340.50 119.00" xmlns="http://www.w3.org/2000/svg" xmlns:xlink="http://www.w3.org/1999/xlink">
<g id="graph0" class="graph" transform="scale(1 1) rotate(0) translate(4 115)">
<title>a_graph</title>
<polygon fill="white" stroke="transparent" points="-4,4 -4,-115 1336.5,-115 1336.5,4 -4,4"/>
<!-- T1510 -->
<g id="node1" class="node">
<title>T1510</title>
<polygon fill="none" stroke="#0058ad" points="0,-81.5 0,-110.5 816,-110.5 816,-81.5 0,-81.5"/>
<text text-anchor="middle" x="48.5" y="-92.3" font-family="Times,serif" font-size="14.00" fill="#0058ad">r 60 [1 2 3]</text>
<polyline fill="none" stroke="#0058ad" points="97,-81.5 97,-110.5 "/>
<text text-anchor="middle" x="145.5" y="-92.3" font-family="Times,serif" font-size="14.00" fill="#0058ad">r 60 [1 2 3]</text>
<polyline fill="none" stroke="#0058ad" points="194,-81.5 194,-110.5 "/>
<text text-anchor="middle" x="242.5" y="-92.3" font-family="Times,serif" font-size="14.00" fill="#0058ad">r 60 [1 2 3]</text>
<polyline fill="none" stroke="#0058ad" points="291,-81.5 291,-110.5 "/>
<text text-anchor="middle" x="339.5" y="-92.3" font-family="Times,serif" font-size="14.00" fill="#0058ad">r 60 [1 2 3]</text>
<polyline fill="none" stroke="#0058ad" points="388,-81.5 388,-110.5 "/>
<text text-anchor="middle" x="567" y="-92.3" font-family="Times,serif" font-size="14.00" fill="#0058ad">r 54 [1 2 3 4 5 6 7 8 9 11 12 13 14 15 16 17 18]</text>
<polyline fill="none" stroke="#0058ad" points="746,-81.5 746,-110.5 "/>
<text text-anchor="middle" x="781" y="-92.3" font-family="Times,serif" font-size="14.00" fill="#0058ad">a 59 18</text>
</g>
<!-- T1511 -->
<g id="node2" class="node">
<title>T1511</title>
<polygon fill="none" stroke="#0058ad" points="245.5,-0.5 245.5,-29.5 1332.5,-29.5 1332.5,-0.5 245.5,-0.5"/>
<text text-anchor="middle" x="276" y="-11.3" font-family="Times,serif" font-size="14.00" fill="#0058ad">a 60 4</text>
<polyline fill="none" stroke="#0058ad" points="306.5,-0.5 306.5,-29.5 "/>
<text text-anchor="middle" x="361.5" y="-11.3" font-family="Times,serif" font-size="14.00" fill="#0058ad">r 60 [1 2 3 4]</text>
<polyline fill="none" stroke="#0058ad" points="416.5,-0.5 416.5,-29.5 "/>
<text text-anchor="middle" x="447" y="-11.3" font-family="Times,serif" font-size="14.00" fill="#0058ad">a 60 5</text>
<polyline fill="none" stroke="#0058ad" points="477.5,-0.5 477.5,-29.5 "/>
<text text-anchor="middle" x="645" y="-11.3" font-family="Times,serif" font-size="14.00" fill="#0058ad">r 59 [1 2 3 4 5 6 7 8 9 10 11 12 13 14 16 17]</text>
<polyline fill="none" stroke="#0058ad" points="812.5,-0.5 812.5,-29.5 "/>
<text text-anchor="middle" x="874.5" y="-11.3" font-family="Times,serif" font-size="14.00" fill="#0058ad">r 60 [1 2 3 4 5]</text>
<polyline fill="none" stroke="#0058ad" points="936.5,-0.5 936.5,-29.5 "/>
<text text-anchor="middle" x="967" y="-11.3" font-family="Times,serif" font-size="14.00" fill="#0058ad">a 60 6</text>
<polyline fill="none" stroke="#0058ad" points="997.5,-0.5 997.5,-29.5 "/>
<text text-anchor="middle" x="1165" y="-11.3" font-family="Times,serif" font-size="14.00" fill="#0058ad">r 59 [1 2 3 4 5 6 7 8 9 10 11 12 13 14 16 17]</text>
</g>
<!-- T1510&#45;&gt;T1511 -->
<g id="edge1" class="edge">
<title>T1510:f0&#45;&gt;T1511:f0</title>
<path fill="none" stroke="#5b00c0" d="M48,-81C48,-38 179.32,-17.69 233.88,-15.25"/>
<polygon fill="#5b00c0" stroke="#5b00c0" points="234.09,-18.75 244,-15 233.92,-11.75 234.09,-18.75"/>
<text text-anchor="middle" x="87.5" y="-51.8" font-family="Times,serif" font-size="14.00" fill="#5b00c0">rw</text>
</g>
<!-- T1511&#45;&gt;T1510 -->
<g id="edge2" class="edge">
<title>T1511:f3&#45;&gt;T1510:f5</title>
<path fill="none" stroke="#5b00c0" d="M645,-30C645,-90.77 765.53,-25.11 779.65,-71.06"/>
<polygon fill="#5b00c0" stroke="#5b00c0" points="776.19,-71.56 781,-81 783.13,-70.62 776.19,-71.56"/>
<text text-anchor="middle" x="782.5" y="-51.8" font-family="Times,serif" font-size="14.00" fill="#5b00c0">rw</text>
</g>
</g>
</svg>
