<?xml version="1.0" encoding="UTF-8" standalone="no"?>
<!DOCTYPE svg PUBLIC "-//W3C//DTD SVG 1.1//EN"
 "http://www.w3.org/Graphics/SVG/1.1/DTD/svg11.dtd">
<!-- Generated by graphviz version 2.43.0 (0)
 -->
<!-- Title: a_graph Pages: 1 -->
<svg width="613pt" height="119pt"
 viewBox="0.00 0.00 613.00 119.00" xmlns="http://www.w3.org/2000/svg" xmlns:xlink="http://www.w3.org/1999/xlink">
<g id="graph0" class="graph" transform="scale(1 1) rotate(0) translate(4 115)">
<title>a_graph</title>
<polygon fill="white" stroke="transparent" points="-4,4 -4,-115 609,-115 609,4 -4,4"/>
<!-- T2249 -->
<g id="node1" class="node">
<title>T2249</title>
<polygon fill="none" stroke="#0058ad" points="27.5,-81.5 27.5,-110.5 399.5,-110.5 399.5,-81.5 27.5,-81.5"/>
<text text-anchor="middle" x="62.5" y="-92.3" font-family="Times,serif" font-size="14.00" fill="#0058ad">a 947 2</text>
<polyline fill="none" stroke="#0058ad" points="97.5,-81.5 97.5,-110.5 "/>
<text text-anchor="middle" x="143.5" y="-92.3" font-family="Times,serif" font-size="14.00" fill="#0058ad">r 946 [1 2]</text>
<polyline fill="none" stroke="#0058ad" points="189.5,-81.5 189.5,-110.5 "/>
<text text-anchor="middle" x="224.5" y="-92.3" font-family="Times,serif" font-size="14.00" fill="#0058ad">a 946 3</text>
<polyline fill="none" stroke="#0058ad" points="259.5,-81.5 259.5,-110.5 "/>
<text text-anchor="middle" x="294.5" y="-92.3" font-family="Times,serif" font-size="14.00" fill="#0058ad">r 948 []</text>
<polyline fill="none" stroke="#0058ad" points="329.5,-81.5 329.5,-110.5 "/>
<text text-anchor="middle" x="364.5" y="-92.3" font-family="Times,serif" font-size="14.00" fill="#0058ad">a 947 3</text>
</g>
<!-- T2251 -->
<g id="node2" class="node">
<title>T2251</title>
<polygon fill="none" stroke="#0058ad" points="0,-0.5 0,-29.5 605,-29.5 605,-0.5 0,-0.5"/>
<text text-anchor="middle" x="39.5" y="-11.3" font-family="Times,serif" font-size="14.00" fill="#0058ad">r 947 [1]</text>
<polyline fill="none" stroke="#0058ad" points="79,-0.5 79,-29.5 "/>
<text text-anchor="middle" x="114" y="-11.3" font-family="Times,serif" font-size="14.00" fill="#0058ad">r 948 []</text>
<polyline fill="none" stroke="#0058ad" points="149,-0.5 149,-29.5 "/>
<text text-anchor="middle" x="184" y="-11.3" font-family="Times,serif" font-size="14.00" fill="#0058ad">r 948 []</text>
<polyline fill="none" stroke="#0058ad" points="219,-0.5 219,-29.5 "/>
<text text-anchor="middle" x="258.5" y="-11.3" font-family="Times,serif" font-size="14.00" fill="#0058ad">r 947 [1]</text>
<polyline fill="none" stroke="#0058ad" points="298,-0.5 298,-29.5 "/>
<text text-anchor="middle" x="333" y="-11.3" font-family="Times,serif" font-size="14.00" fill="#0058ad">a 948 1</text>
<polyline fill="none" stroke="#0058ad" points="368,-0.5 368,-29.5 "/>
<text text-anchor="middle" x="407.5" y="-11.3" font-family="Times,serif" font-size="14.00" fill="#0058ad">r 947 [1]</text>
<polyline fill="none" stroke="#0058ad" points="447,-0.5 447,-29.5 "/>
<text text-anchor="middle" x="486.5" y="-11.3" font-family="Times,serif" font-size="14.00" fill="#0058ad">r 947 [1]</text>
<polyline fill="none" stroke="#0058ad" points="526,-0.5 526,-29.5 "/>
<text text-anchor="middle" x="565.5" y="-11.3" font-family="Times,serif" font-size="14.00" fill="#0058ad">r 948 [1]</text>
</g>
<!-- T2249&#45;&gt;T2251 -->
<g id="edge1" class="edge">
<title>T2249:f3&#45;&gt;T2251:f4</title>
<path fill="none" stroke="#5b00c0" d="M294.5,-81C294.5,-56.48 323.3,-57.51 331.4,-40.18"/>
<polygon fill="#5b00c0" stroke="#5b00c0" points="334.91,-40.5 333.5,-30 328.05,-39.09 334.91,-40.5"/>
<text text-anchor="middle" x="334" y="-51.8" font-family="Times,serif" font-size="14.00" fill="#5b00c0">rw</text>
</g>
<!-- T2251&#45;&gt;T2249 -->
<g id="edge2" class="edge">
<title>T2251:f0&#45;&gt;T2249:f0</title>
<path fill="none" stroke="#5b00c0" d="M39.5,-30C39.5,-50.98 55.87,-55.16 60.99,-70.89"/>
<polygon fill="#5b00c0" stroke="#5b00c0" points="57.56,-71.63 62.5,-81 64.48,-70.59 57.56,-71.63"/>
<text text-anchor="middle" x="67" y="-51.8" font-family="Times,serif" font-size="14.00" fill="#5b00c0">rw</text>
</g>
</g>
</svg>
