<?xml version="1.0" encoding="UTF-8" standalone="no"?>
<!DOCTYPE svg PUBLIC "-//W3C//DTD SVG 1.1//EN"
 "http://www.w3.org/Graphics/SVG/1.1/DTD/svg11.dtd">
<!-- Generated by graphviz version 2.43.0 (0)
 -->
<!-- Title: a_graph Pages: 1 -->
<svg width="411pt" height="119pt"
 viewBox="0.00 0.00 411.00 119.00" xmlns="http://www.w3.org/2000/svg" xmlns:xlink="http://www.w3.org/1999/xlink">
<g id="graph0" class="graph" transform="scale(1 1) rotate(0) translate(4 115)">
<title>a_graph</title>
<polygon fill="white" stroke="transparent" points="-4,4 -4,-115 407,-115 407,4 -4,4"/>
<!-- T2194 -->
<g id="node1" class="node">
<title>T2194</title>
<polygon fill="none" stroke="#0058ad" points="51.5,-81.5 51.5,-110.5 331.5,-110.5 331.5,-81.5 51.5,-81.5"/>
<text text-anchor="middle" x="86.5" y="-92.3" font-family="Times,serif" font-size="14.00" fill="#0058ad">a 922 3</text>
<polyline fill="none" stroke="#0058ad" points="121.5,-81.5 121.5,-110.5 "/>
<text text-anchor="middle" x="156.5" y="-92.3" font-family="Times,serif" font-size="14.00" fill="#0058ad">r 924 []</text>
<polyline fill="none" stroke="#0058ad" points="191.5,-81.5 191.5,-110.5 "/>
<text text-anchor="middle" x="226.5" y="-92.3" font-family="Times,serif" font-size="14.00" fill="#0058ad">r 924 []</text>
<polyline fill="none" stroke="#0058ad" points="261.5,-81.5 261.5,-110.5 "/>
<text text-anchor="middle" x="296.5" y="-92.3" font-family="Times,serif" font-size="14.00" fill="#0058ad">a 918 3</text>
</g>
<!-- T2195 -->
<g id="node2" class="node">
<title>T2195</title>
<polygon fill="none" stroke="#0058ad" points="0,-0.5 0,-29.5 403,-29.5 403,-0.5 0,-0.5"/>
<text text-anchor="middle" x="35" y="-11.3" font-family="Times,serif" font-size="14.00" fill="#0058ad">a 924 1</text>
<polyline fill="none" stroke="#0058ad" points="70,-0.5 70,-29.5 "/>
<text text-anchor="middle" x="116" y="-11.3" font-family="Times,serif" font-size="14.00" fill="#0058ad">r 918 [1 2]</text>
<polyline fill="none" stroke="#0058ad" points="162,-0.5 162,-29.5 "/>
<text text-anchor="middle" x="208" y="-11.3" font-family="Times,serif" font-size="14.00" fill="#0058ad">r 922 [1 2]</text>
<polyline fill="none" stroke="#0058ad" points="254,-0.5 254,-29.5 "/>
<text text-anchor="middle" x="293.5" y="-11.3" font-family="Times,serif" font-size="14.00" fill="#0058ad">r 924 [1]</text>
<polyline fill="none" stroke="#0058ad" points="333,-0.5 333,-29.5 "/>
<text text-anchor="middle" x="368" y="-11.3" font-family="Times,serif" font-size="14.00" fill="#0058ad">a 925 1</text>
</g>
<!-- T2194&#45;&gt;T2195 -->
<g id="edge1" class="edge">
<title>T2194:f1&#45;&gt;T2195:f0</title>
<path fill="none" stroke="#5b00c0" d="M156.5,-81C156.5,-57.95 137.22,-58.09 116.5,-48 86.75,-33.52 45.29,-59.9 36.27,-40.05"/>
<polygon fill="#5b00c0" stroke="#5b00c0" points="39.68,-39.24 34.5,-30 32.79,-40.46 39.68,-39.24"/>
<text text-anchor="middle" x="158" y="-51.8" font-family="Times,serif" font-size="14.00" fill="#5b00c0">rw</text>
</g>
<!-- T2195&#45;&gt;T2194 -->
<g id="edge2" class="edge">
<title>T2195:f2&#45;&gt;T2194:f0</title>
<path fill="none" stroke="#5b00c0" d="M208.5,-30C208.5,-55.87 112.28,-30.21 93.5,-48 85.34,-55.73 85.48,-62 86.06,-70.97"/>
<polygon fill="#5b00c0" stroke="#5b00c0" points="82.57,-71.16 86.5,-81 89.56,-70.86 82.57,-71.16"/>
<text text-anchor="middle" x="103" y="-51.8" font-family="Times,serif" font-size="14.00" fill="#5b00c0">rw</text>
</g>
</g>
</svg>
