<?xml version="1.0" encoding="UTF-8" standalone="no"?>
<!DOCTYPE svg PUBLIC "-//W3C//DTD SVG 1.1//EN"
 "http://www.w3.org/Graphics/SVG/1.1/DTD/svg11.dtd">
<!-- Generated by graphviz version 2.43.0 (0)
 -->
<!-- Title: a_graph Pages: 1 -->
<svg width="1008pt" height="119pt"
 viewBox="0.00 0.00 1008.00 119.00" xmlns="http://www.w3.org/2000/svg" xmlns:xlink="http://www.w3.org/1999/xlink">
<g id="graph0" class="graph" transform="scale(1 1) rotate(0) translate(4 115)">
<title>a_graph</title>
<polygon fill="white" stroke="transparent" points="-4,4 -4,-115 1004,-115 1004,4 -4,4"/>
<!-- T1197 -->
<g id="node1" class="node">
<title>T1197</title>
<polygon fill="none" stroke="#0058ad" points="125,-81.5 125,-110.5 557,-110.5 557,-81.5 125,-81.5"/>
<text text-anchor="middle" x="160" y="-92.3" font-family="Times,serif" font-size="14.00" fill="#0058ad">a 45 16</text>
<polyline fill="none" stroke="#0058ad" points="195,-81.5 195,-110.5 "/>
<text text-anchor="middle" x="225.5" y="-92.3" font-family="Times,serif" font-size="14.00" fill="#0058ad">a 46 6</text>
<polyline fill="none" stroke="#0058ad" points="256,-81.5 256,-110.5 "/>
<text text-anchor="middle" x="338" y="-92.3" font-family="Times,serif" font-size="14.00" fill="#0058ad">r 47 [1 2 3 4 5 6 7 8]</text>
<polyline fill="none" stroke="#0058ad" points="420,-81.5 420,-110.5 "/>
<text text-anchor="middle" x="488.5" y="-92.3" font-family="Times,serif" font-size="14.00" fill="#0058ad">r 46 [1 2 3 4 5 6]</text>
</g>
<!-- T1196 -->
<g id="node2" class="node">
<title>T1196</title>
<polygon fill="none" stroke="#0058ad" points="0,-0.5 0,-29.5 1000,-29.5 1000,-0.5 0,-0.5"/>
<text text-anchor="middle" x="156.5" y="-11.3" font-family="Times,serif" font-size="14.00" fill="#0058ad">r 45 [1 2 3 4 5 6 7 8 9 10 11 12 13 14 15]</text>
<polyline fill="none" stroke="#0058ad" points="313,-0.5 313,-29.5 "/>
<text text-anchor="middle" x="343.5" y="-11.3" font-family="Times,serif" font-size="14.00" fill="#0058ad">a 47 9</text>
<polyline fill="none" stroke="#0058ad" points="374,-0.5 374,-29.5 "/>
<text text-anchor="middle" x="530.5" y="-11.3" font-family="Times,serif" font-size="14.00" fill="#0058ad">r 45 [1 2 3 4 5 6 7 8 9 10 11 12 13 14 15]</text>
<polyline fill="none" stroke="#0058ad" points="687,-0.5 687,-29.5 "/>
<text text-anchor="middle" x="843.5" y="-11.3" font-family="Times,serif" font-size="14.00" fill="#0058ad">r 45 [1 2 3 4 5 6 7 8 9 10 11 12 13 14 15]</text>
</g>
<!-- T1197&#45;&gt;T1196 -->
<g id="edge1" class="edge">
<title>T1197:f2&#45;&gt;T1196:f1</title>
<path fill="none" stroke="#5b00c0" d="M338,-81C338,-62.14 341.43,-55.16 342.61,-40.38"/>
<polygon fill="#5b00c0" stroke="#5b00c0" points="346.12,-40.13 343,-30 339.12,-39.86 346.12,-40.13"/>
<text text-anchor="middle" x="351.5" y="-51.8" font-family="Times,serif" font-size="14.00" fill="#5b00c0">rw</text>
</g>
<!-- T1196&#45;&gt;T1197 -->
<g id="edge2" class="edge">
<title>T1196:f0&#45;&gt;T1197:f0</title>
<path fill="none" stroke="#5b00c0" d="M156,-30C156,-48.83 158.74,-55.86 159.69,-70.63"/>
<polygon fill="#5b00c0" stroke="#5b00c0" points="156.2,-71.11 160,-81 163.2,-70.9 156.2,-71.11"/>
<text text-anchor="middle" x="168.5" y="-51.8" font-family="Times,serif" font-size="14.00" fill="#5b00c0">rw</text>
</g>
</g>
</svg>
