<?xml version="1.0" encoding="UTF-8" standalone="no"?>
<!DOCTYPE svg PUBLIC "-//W3C//DTD SVG 1.1//EN"
 "http://www.w3.org/Graphics/SVG/1.1/DTD/svg11.dtd">
<!-- Generated by graphviz version 2.43.0 (0)
 -->
<!-- Title: a_graph Pages: 1 -->
<svg width="924pt" height="119pt"
 viewBox="0.00 0.00 923.50 119.00" xmlns="http://www.w3.org/2000/svg" xmlns:xlink="http://www.w3.org/1999/xlink">
<g id="graph0" class="graph" transform="scale(1 1) rotate(0) translate(4 115)">
<title>a_graph</title>
<polygon fill="white" stroke="transparent" points="-4,4 -4,-115 919.5,-115 919.5,4 -4,4"/>
<!-- T3391 -->
<g id="node1" class="node">
<title>T3391</title>
<polygon fill="none" stroke="#0058ad" points="0,-81.5 0,-110.5 742,-110.5 742,-81.5 0,-81.5"/>
<text text-anchor="middle" x="50.5" y="-92.3" font-family="Times,serif" font-size="14.00" fill="#0058ad">r 1403 [1 2]</text>
<polyline fill="none" stroke="#0058ad" points="101,-81.5 101,-110.5 "/>
<text text-anchor="middle" x="140.5" y="-92.3" font-family="Times,serif" font-size="14.00" fill="#0058ad">a 1404 2</text>
<polyline fill="none" stroke="#0058ad" points="180,-81.5 180,-110.5 "/>
<text text-anchor="middle" x="224" y="-92.3" font-family="Times,serif" font-size="14.00" fill="#0058ad">r 1404 [2]</text>
<polyline fill="none" stroke="#0058ad" points="268,-81.5 268,-110.5 "/>
<text text-anchor="middle" x="307.5" y="-92.3" font-family="Times,serif" font-size="14.00" fill="#0058ad">r 1405 []</text>
<polyline fill="none" stroke="#0058ad" points="347,-81.5 347,-110.5 "/>
<text text-anchor="middle" x="386.5" y="-92.3" font-family="Times,serif" font-size="14.00" fill="#0058ad">a 1406 1</text>
<polyline fill="none" stroke="#0058ad" points="426,-81.5 426,-110.5 "/>
<text text-anchor="middle" x="465.5" y="-92.3" font-family="Times,serif" font-size="14.00" fill="#0058ad">r 1405 []</text>
<polyline fill="none" stroke="#0058ad" points="505,-81.5 505,-110.5 "/>
<text text-anchor="middle" x="544.5" y="-92.3" font-family="Times,serif" font-size="14.00" fill="#0058ad">a 1405 4</text>
<polyline fill="none" stroke="#0058ad" points="584,-81.5 584,-110.5 "/>
<text text-anchor="middle" x="623.5" y="-92.3" font-family="Times,serif" font-size="14.00" fill="#0058ad">a 1406 2</text>
<polyline fill="none" stroke="#0058ad" points="663,-81.5 663,-110.5 "/>
<text text-anchor="middle" x="702.5" y="-92.3" font-family="Times,serif" font-size="14.00" fill="#0058ad">a 1406 3</text>
</g>
<!-- T3393 -->
<g id="node2" class="node">
<title>T3393</title>
<polygon fill="none" stroke="#0058ad" points="290.5,-0.5 290.5,-29.5 915.5,-29.5 915.5,-0.5 290.5,-0.5"/>
<text text-anchor="middle" x="348" y="-11.3" font-family="Times,serif" font-size="14.00" fill="#0058ad">r 1406 [1 2 3]</text>
<polyline fill="none" stroke="#0058ad" points="405.5,-0.5 405.5,-29.5 "/>
<text text-anchor="middle" x="463" y="-11.3" font-family="Times,serif" font-size="14.00" fill="#0058ad">r 1406 [1 2 3]</text>
<polyline fill="none" stroke="#0058ad" points="520.5,-0.5 520.5,-29.5 "/>
<text text-anchor="middle" x="560" y="-11.3" font-family="Times,serif" font-size="14.00" fill="#0058ad">a 1406 4</text>
<polyline fill="none" stroke="#0058ad" points="599.5,-0.5 599.5,-29.5 "/>
<text text-anchor="middle" x="639" y="-11.3" font-family="Times,serif" font-size="14.00" fill="#0058ad">a 1406 5</text>
<polyline fill="none" stroke="#0058ad" points="678.5,-0.5 678.5,-29.5 "/>
<text text-anchor="middle" x="718" y="-11.3" font-family="Times,serif" font-size="14.00" fill="#0058ad">r 1405 []</text>
<polyline fill="none" stroke="#0058ad" points="757.5,-0.5 757.5,-29.5 "/>
<text text-anchor="middle" x="797" y="-11.3" font-family="Times,serif" font-size="14.00" fill="#0058ad">r 1405 []</text>
<polyline fill="none" stroke="#0058ad" points="836.5,-0.5 836.5,-29.5 "/>
<text text-anchor="middle" x="876" y="-11.3" font-family="Times,serif" font-size="14.00" fill="#0058ad">r 1405 []</text>
</g>
<!-- T3391&#45;&gt;T3393 -->
<g id="edge1" class="edge">
<title>T3391:f8&#45;&gt;T3393:f2</title>
<path fill="none" stroke="#c02700" d="M703,-81C703,-43.77 661.16,-60.26 626,-48 601.33,-39.4 570.32,-54.74 562.08,-39.93"/>
<polygon fill="#c02700" stroke="#c02700" points="565.48,-39.07 560,-30 558.63,-40.51 565.48,-39.07"/>
<text text-anchor="middle" x="708.5" y="-51.8" font-family="Times,serif" font-size="14.00" fill="#c02700">ww</text>
</g>
<!-- T3393&#45;&gt;T3391 -->
<g id="edge2" class="edge">
<title>T3393:f4&#45;&gt;T3391:f6</title>
<path fill="none" stroke="#5b00c0" d="M718,-30C718,-55.87 627.42,-39.46 603,-48 578.72,-56.49 552.93,-52.77 546.51,-70.97"/>
<polygon fill="#5b00c0" stroke="#5b00c0" points="543.03,-70.59 545,-81 549.95,-71.63 543.03,-70.59"/>
<text text-anchor="middle" x="612.5" y="-51.8" font-family="Times,serif" font-size="14.00" fill="#5b00c0">rw</text>
</g>
</g>
</svg>
