<?xml version="1.0" encoding="UTF-8" standalone="no"?>
<!DOCTYPE svg PUBLIC "-//W3C//DTD SVG 1.1//EN"
 "http://www.w3.org/Graphics/SVG/1.1/DTD/svg11.dtd">
<!-- Generated by graphviz version 2.43.0 (0)
 -->
<!-- Title: a_graph Pages: 1 -->
<svg width="1022pt" height="119pt"
 viewBox="0.00 0.00 1022.00 119.00" xmlns="http://www.w3.org/2000/svg" xmlns:xlink="http://www.w3.org/1999/xlink">
<g id="graph0" class="graph" transform="scale(1 1) rotate(0) translate(4 115)">
<title>a_graph</title>
<polygon fill="white" stroke="transparent" points="-4,4 -4,-115 1018,-115 1018,4 -4,4"/>
<!-- T1047 -->
<g id="node1" class="node">
<title>T1047</title>
<polygon fill="none" stroke="#0058ad" points="0,-81.5 0,-110.5 1014,-110.5 1014,-81.5 0,-81.5"/>
<text text-anchor="middle" x="35" y="-92.3" font-family="Times,serif" font-size="14.00" fill="#0058ad">a 40 12</text>
<polyline fill="none" stroke="#0058ad" points="70,-81.5 70,-110.5 "/>
<text text-anchor="middle" x="105" y="-92.3" font-family="Times,serif" font-size="14.00" fill="#0058ad">a 40 13</text>
<polyline fill="none" stroke="#0058ad" points="140,-81.5 140,-110.5 "/>
<text text-anchor="middle" x="274" y="-92.3" font-family="Times,serif" font-size="14.00" fill="#0058ad">r 40 [1 2 3 4 5 6 7 8 9 10 11 12 13]</text>
<polyline fill="none" stroke="#0058ad" points="408,-81.5 408,-110.5 "/>
<text text-anchor="middle" x="470" y="-92.3" font-family="Times,serif" font-size="14.00" fill="#0058ad">r 39 [1 2 3 4 5]</text>
<polyline fill="none" stroke="#0058ad" points="532,-81.5 532,-110.5 "/>
<text text-anchor="middle" x="567" y="-92.3" font-family="Times,serif" font-size="14.00" fill="#0058ad">a 40 14</text>
<polyline fill="none" stroke="#0058ad" points="602,-81.5 602,-110.5 "/>
<text text-anchor="middle" x="747" y="-92.3" font-family="Times,serif" font-size="14.00" fill="#0058ad">r 40 [1 2 3 4 5 6 7 8 9 10 11 12 13 14]</text>
<polyline fill="none" stroke="#0058ad" points="892,-81.5 892,-110.5 "/>
<text text-anchor="middle" x="922.5" y="-92.3" font-family="Times,serif" font-size="14.00" fill="#0058ad">r 41 []</text>
<polyline fill="none" stroke="#0058ad" points="953,-81.5 953,-110.5 "/>
<text text-anchor="middle" x="983.5" y="-92.3" font-family="Times,serif" font-size="14.00" fill="#0058ad">a 39 6</text>
</g>
<!-- T1046 -->
<g id="node2" class="node">
<title>T1046</title>
<polygon fill="none" stroke="#0058ad" points="251,-0.5 251,-29.5 981,-29.5 981,-0.5 251,-0.5"/>
<text text-anchor="middle" x="362.5" y="-11.3" font-family="Times,serif" font-size="14.00" fill="#0058ad">r 40 [1 2 3 4 5 6 7 8 9 10 11]</text>
<polyline fill="none" stroke="#0058ad" points="474,-0.5 474,-29.5 "/>
<text text-anchor="middle" x="585.5" y="-11.3" font-family="Times,serif" font-size="14.00" fill="#0058ad">r 40 [1 2 3 4 5 6 7 8 9 10 11]</text>
<polyline fill="none" stroke="#0058ad" points="697,-0.5 697,-29.5 "/>
<text text-anchor="middle" x="727.5" y="-11.3" font-family="Times,serif" font-size="14.00" fill="#0058ad">a 41 1</text>
<polyline fill="none" stroke="#0058ad" points="758,-0.5 758,-29.5 "/>
<text text-anchor="middle" x="869.5" y="-11.3" font-family="Times,serif" font-size="14.00" fill="#0058ad">r 40 [1 2 3 4 5 6 7 8 9 10 11]</text>
</g>
<!-- T1047&#45;&gt;T1046 -->
<g id="edge1" class="edge">
<title>T1047:f6&#45;&gt;T1046:f2</title>
<path fill="none" stroke="#5b00c0" d="M923,-81C923,4.73 744.4,-108.97 729.05,-40.38"/>
<polygon fill="#5b00c0" stroke="#5b00c0" points="732.49,-39.6 728,-30 725.52,-40.3 732.49,-39.6"/>
<text text-anchor="middle" x="926.5" y="-51.8" font-family="Times,serif" font-size="14.00" fill="#5b00c0">rw</text>
</g>
<!-- T1046&#45;&gt;T1047 -->
<g id="edge2" class="edge">
<title>T1046:f0&#45;&gt;T1047:f0</title>
<path fill="none" stroke="#5b00c0" d="M250,-15C203.44,-15 57.02,-28.91 37.22,-71.22"/>
<polygon fill="#5b00c0" stroke="#5b00c0" points="33.8,-70.47 35,-81 40.63,-72.03 33.8,-70.47"/>
<text text-anchor="middle" x="73.5" y="-51.8" font-family="Times,serif" font-size="14.00" fill="#5b00c0">rw</text>
</g>
</g>
</svg>
