<?xml version="1.0" encoding="UTF-8" standalone="no"?>
<!DOCTYPE svg PUBLIC "-//W3C//DTD SVG 1.1//EN"
 "http://www.w3.org/Graphics/SVG/1.1/DTD/svg11.dtd">
<!-- Generated by graphviz version 2.43.0 (0)
 -->
<!-- Title: a_graph Pages: 1 -->
<svg width="1924pt" height="119pt"
 viewBox="0.00 0.00 1924.00 119.00" xmlns="http://www.w3.org/2000/svg" xmlns:xlink="http://www.w3.org/1999/xlink">
<g id="graph0" class="graph" transform="scale(1 1) rotate(0) translate(4 115)">
<title>a_graph</title>
<polygon fill="white" stroke="transparent" points="-4,4 -4,-115 1920,-115 1920,4 -4,4"/>
<!-- T430 -->
<g id="node1" class="node">
<title>T430</title>
<polygon fill="none" stroke="#0058ad" points="454,-81.5 454,-110.5 1916,-110.5 1916,-81.5 454,-81.5"/>
<text text-anchor="middle" x="489" y="-92.3" font-family="Times,serif" font-size="14.00" fill="#0058ad">a 17 14</text>
<polyline fill="none" stroke="#0058ad" points="524,-81.5 524,-110.5 "/>
<text text-anchor="middle" x="559" y="-92.3" font-family="Times,serif" font-size="14.00" fill="#0058ad">a 15 21</text>
<polyline fill="none" stroke="#0058ad" points="594,-81.5 594,-110.5 "/>
<text text-anchor="middle" x="737" y="-92.3" font-family="Times,serif" font-size="14.00" fill="#0058ad">r 16 [2 3 4 5 7 8 9 10 11 13 14 15 16]</text>
<polyline fill="none" stroke="#0058ad" points="880,-81.5 880,-110.5 "/>
<text text-anchor="middle" x="1023" y="-92.3" font-family="Times,serif" font-size="14.00" fill="#0058ad">r 16 [2 3 4 5 7 8 9 10 11 13 14 15 16]</text>
<polyline fill="none" stroke="#0058ad" points="1166,-81.5 1166,-110.5 "/>
<text text-anchor="middle" x="1304.5" y="-92.3" font-family="Times,serif" font-size="14.00" fill="#0058ad">r 17 [1 2 3 4 5 6 8 9 10 11 12 13 14]</text>
<polyline fill="none" stroke="#0058ad" points="1443,-81.5 1443,-110.5 "/>
<text text-anchor="middle" x="1644.5" y="-92.3" font-family="Times,serif" font-size="14.00" fill="#0058ad">r 15 [1 2 3 4 5 6 7 8 9 10 12 13 14 15 16 18 19 20 21]</text>
<polyline fill="none" stroke="#0058ad" points="1846,-81.5 1846,-110.5 "/>
<text text-anchor="middle" x="1881" y="-92.3" font-family="Times,serif" font-size="14.00" fill="#0058ad">a 17 15</text>
</g>
<!-- T429 -->
<g id="node2" class="node">
<title>T429</title>
<polygon fill="none" stroke="#0058ad" points="0,-0.5 0,-29.5 1320,-29.5 1320,-0.5 0,-0.5"/>
<text text-anchor="middle" x="35" y="-11.3" font-family="Times,serif" font-size="14.00" fill="#0058ad">a 16 17</text>
<polyline fill="none" stroke="#0058ad" points="70,-0.5 70,-29.5 "/>
<text text-anchor="middle" x="260" y="-11.3" font-family="Times,serif" font-size="14.00" fill="#0058ad">r 15 [1 2 3 4 5 6 7 8 9 10 12 13 14 15 16 18 19 20]</text>
<polyline fill="none" stroke="#0058ad" points="450,-0.5 450,-29.5 "/>
<text text-anchor="middle" x="604" y="-11.3" font-family="Times,serif" font-size="14.00" fill="#0058ad">r 16 [2 3 4 5 7 8 9 10 11 13 14 15 16 17]</text>
<polyline fill="none" stroke="#0058ad" points="758,-0.5 758,-29.5 "/>
<text text-anchor="middle" x="912" y="-11.3" font-family="Times,serif" font-size="14.00" fill="#0058ad">r 16 [2 3 4 5 7 8 9 10 11 13 14 15 16 17]</text>
<polyline fill="none" stroke="#0058ad" points="1066,-0.5 1066,-29.5 "/>
<text text-anchor="middle" x="1193" y="-11.3" font-family="Times,serif" font-size="14.00" fill="#0058ad">r 17 [1 2 3 4 5 6 8 9 10 11 12 13]</text>
</g>
<!-- T430&#45;&gt;T429 -->
<g id="edge1" class="edge">
<title>T430:f2&#45;&gt;T429:f0</title>
<path fill="none" stroke="#5b00c0" d="M737,-81C737,-2.72 641.79,-56.69 564,-48 550.59,-46.5 116.03,-44.98 44.82,-33.36"/>
<polygon fill="#5b00c0" stroke="#5b00c0" points="45.59,-29.93 35,-30 43.33,-36.55 45.59,-29.93"/>
<text text-anchor="middle" x="744.5" y="-51.8" font-family="Times,serif" font-size="14.00" fill="#5b00c0">rw</text>
</g>
<!-- T429&#45;&gt;T430 -->
<g id="edge2" class="edge">
<title>T429:f4&#45;&gt;T430:f0</title>
<path fill="none" stroke="#5b00c0" d="M1193,-30C1193,-48.12 558.33,-42.71 541,-48 518.5,-54.87 496.27,-54.09 490.46,-71.11"/>
<polygon fill="#5b00c0" stroke="#5b00c0" points="487,-70.6 489,-81 493.92,-71.62 487,-70.6"/>
<text text-anchor="middle" x="550.5" y="-51.8" font-family="Times,serif" font-size="14.00" fill="#5b00c0">rw</text>
</g>
</g>
</svg>
