<?xml version="1.0" encoding="UTF-8" standalone="no"?>
<!DOCTYPE svg PUBLIC "-//W3C//DTD SVG 1.1//EN"
 "http://www.w3.org/Graphics/SVG/1.1/DTD/svg11.dtd">
<!-- Generated by graphviz version 2.43.0 (0)
 -->
<!-- Title: a_graph Pages: 1 -->
<svg width="1594pt" height="119pt"
 viewBox="0.00 0.00 1593.50 119.00" xmlns="http://www.w3.org/2000/svg" xmlns:xlink="http://www.w3.org/1999/xlink">
<g id="graph0" class="graph" transform="scale(1 1) rotate(0) translate(4 115)">
<title>a_graph</title>
<polygon fill="white" stroke="transparent" points="-4,4 -4,-115 1589.5,-115 1589.5,4 -4,4"/>
<!-- T2728 -->
<g id="node1" class="node">
<title>T2728</title>
<polygon fill="none" stroke="#0058ad" points="247.5,-81.5 247.5,-110.5 1585.5,-110.5 1585.5,-81.5 247.5,-81.5"/>
<text text-anchor="middle" x="287" y="-92.3" font-family="Times,serif" font-size="14.00" fill="#0058ad">a 102 23</text>
<polyline fill="none" stroke="#0058ad" points="326.5,-81.5 326.5,-110.5 "/>
<text text-anchor="middle" x="442.5" y="-92.3" font-family="Times,serif" font-size="14.00" fill="#0058ad">r 100 [1 2 3 4 5 6 7 8 9 10 11]</text>
<polyline fill="none" stroke="#0058ad" points="558.5,-81.5 558.5,-110.5 "/>
<text text-anchor="middle" x="809.5" y="-92.3" font-family="Times,serif" font-size="14.00" fill="#0058ad">r 102 [1 2 3 4 5 6 7 8 9 10 11 12 13 14 15 16 17 18 19 20 21 22 23]</text>
<polyline fill="none" stroke="#0058ad" points="1060.5,-81.5 1060.5,-110.5 "/>
<text text-anchor="middle" x="1100" y="-92.3" font-family="Times,serif" font-size="14.00" fill="#0058ad">a 101 16</text>
<polyline fill="none" stroke="#0058ad" points="1139.5,-81.5 1139.5,-110.5 "/>
<text text-anchor="middle" x="1179" y="-92.3" font-family="Times,serif" font-size="14.00" fill="#0058ad">a 101 17</text>
<polyline fill="none" stroke="#0058ad" points="1218.5,-81.5 1218.5,-110.5 "/>
<text text-anchor="middle" x="1402" y="-92.3" font-family="Times,serif" font-size="14.00" fill="#0058ad">r 101 [1 2 3 4 5 6 7 8 9 10 11 12 13 14 15 16 17]</text>
</g>
<!-- T2727 -->
<g id="node2" class="node">
<title>T2727</title>
<polygon fill="none" stroke="#0058ad" points="0,-0.5 0,-29.5 1037,-29.5 1037,-0.5 0,-0.5"/>
<text text-anchor="middle" x="239.5" y="-11.3" font-family="Times,serif" font-size="14.00" fill="#0058ad">r 102 [1 2 3 4 5 6 7 8 9 10 11 12 13 14 15 16 17 18 19 20 21 22]</text>
<polyline fill="none" stroke="#0058ad" points="479,-0.5 479,-29.5 "/>
<text text-anchor="middle" x="518.5" y="-11.3" font-family="Times,serif" font-size="14.00" fill="#0058ad">a 100 12</text>
<polyline fill="none" stroke="#0058ad" points="558,-0.5 558,-29.5 "/>
<text text-anchor="middle" x="797.5" y="-11.3" font-family="Times,serif" font-size="14.00" fill="#0058ad">r 102 [1 2 3 4 5 6 7 8 9 10 11 12 13 14 15 16 17 18 19 20 21 22]</text>
</g>
<!-- T2728&#45;&gt;T2727 -->
<g id="edge1" class="edge">
<title>T2728:f1&#45;&gt;T2727:f1</title>
<path fill="none" stroke="#5b00c0" d="M442.5,-81C442.5,-44.29 504.38,-65.43 516.47,-40.02"/>
<polygon fill="#5b00c0" stroke="#5b00c0" points="519.94,-40.5 518.5,-30 513.08,-39.1 519.94,-40.5"/>
<text text-anchor="middle" x="519" y="-51.8" font-family="Times,serif" font-size="14.00" fill="#5b00c0">rw</text>
</g>
<!-- T2727&#45;&gt;T2728 -->
<g id="edge2" class="edge">
<title>T2727:f0&#45;&gt;T2728:f0</title>
<path fill="none" stroke="#5b00c0" d="M239.5,-30C239.5,-55.12 223.19,-85.32 236.56,-93.73"/>
<polygon fill="#5b00c0" stroke="#5b00c0" points="235.97,-97.19 246.5,-96 237.53,-90.36 235.97,-97.19"/>
<text text-anchor="middle" x="247" y="-51.8" font-family="Times,serif" font-size="14.00" fill="#5b00c0">rw</text>
</g>
</g>
</svg>
