<?xml version="1.0" encoding="UTF-8" standalone="no"?>
<!DOCTYPE svg PUBLIC "-//W3C//DTD SVG 1.1//EN"
 "http://www.w3.org/Graphics/SVG/1.1/DTD/svg11.dtd">
<!-- Generated by graphviz version 2.43.0 (0)
 -->
<!-- Title: a_graph Pages: 1 -->
<svg width="1289pt" height="200pt"
 viewBox="0.00 0.00 1289.00 200.00" xmlns="http://www.w3.org/2000/svg" xmlns:xlink="http://www.w3.org/1999/xlink">
<g id="graph0" class="graph" transform="scale(1 1) rotate(0) translate(4 196)">
<title>a_graph</title>
<polygon fill="white" stroke="transparent" points="-4,4 -4,-196 1285,-196 1285,4 -4,4"/>
<!-- T1368 -->
<g id="node1" class="node">
<title>T1368</title>
<polygon fill="none" stroke="#0058ad" points="146.5,-162.5 146.5,-191.5 286.5,-191.5 286.5,-162.5 146.5,-162.5"/>
<text text-anchor="middle" x="181.5" y="-173.3" font-family="Times,serif" font-size="14.00" fill="#0058ad">a 50 19</text>
<polyline fill="none" stroke="#0058ad" points="216.5,-162.5 216.5,-191.5 "/>
<text text-anchor="middle" x="251.5" y="-173.3" font-family="Times,serif" font-size="14.00" fill="#0058ad">a 50 20</text>
</g>
<!-- T1371 -->
<g id="node3" class="node">
<title>T1371</title>
<polygon fill="none" stroke="#0058ad" points="146.5,-81.5 146.5,-110.5 792.5,-110.5 792.5,-81.5 146.5,-81.5"/>
<text text-anchor="middle" x="235.5" y="-92.3" font-family="Times,serif" font-size="14.00" fill="#0058ad">r 51 [1 2 3 4 5 6 7 8 9]</text>
<polyline fill="none" stroke="#0058ad" points="324.5,-81.5 324.5,-110.5 "/>
<text text-anchor="middle" x="469.5" y="-92.3" font-family="Times,serif" font-size="14.00" fill="#0058ad">r 50 [1 2 3 4 5 6 7 8 9 10 11 12 19 20]</text>
<polyline fill="none" stroke="#0058ad" points="614.5,-81.5 614.5,-110.5 "/>
<text text-anchor="middle" x="703.5" y="-92.3" font-family="Times,serif" font-size="14.00" fill="#0058ad">r 51 [1 2 3 4 5 6 7 8 9]</text>
</g>
<!-- T1368&#45;&gt;T1371 -->
<g id="edge1" class="edge">
<title>T1368:f1&#45;&gt;T1371:f1</title>
<path fill="none" stroke="#c000a5" d="M287.5,-177C327.16,-177 448.37,-157.47 467.07,-120.71"/>
<polygon fill="#c000a5" stroke="#c000a5" points="470.47,-121.55 469.5,-111 463.68,-119.85 470.47,-121.55"/>
<text text-anchor="middle" x="470" y="-132.8" font-family="Times,serif" font-size="14.00" fill="#c000a5">wr</text>
</g>
<!-- T1481 -->
<g id="node2" class="node">
<title>T1481</title>
<polygon fill="none" stroke="#0058ad" points="0,-0.5 0,-29.5 1281,-29.5 1281,-0.5 0,-0.5"/>
<text text-anchor="middle" x="35" y="-11.3" font-family="Times,serif" font-size="14.00" fill="#0058ad">a 51 10</text>
<polyline fill="none" stroke="#0058ad" points="70,-0.5 70,-29.5 "/>
<text text-anchor="middle" x="105" y="-11.3" font-family="Times,serif" font-size="14.00" fill="#0058ad">a 51 11</text>
<polyline fill="none" stroke="#0058ad" points="140,-0.5 140,-29.5 "/>
<text text-anchor="middle" x="262.5" y="-11.3" font-family="Times,serif" font-size="14.00" fill="#0058ad">r 50 [1 2 3 4 5 6 7 8 9 10 11 12]</text>
<polyline fill="none" stroke="#0058ad" points="385,-0.5 385,-29.5 "/>
<text text-anchor="middle" x="496.5" y="-11.3" font-family="Times,serif" font-size="14.00" fill="#0058ad">r 51 [1 2 3 4 5 6 7 8 9 10 11]</text>
<polyline fill="none" stroke="#0058ad" points="608,-0.5 608,-29.5 "/>
<text text-anchor="middle" x="944.5" y="-11.3" font-family="Times,serif" font-size="14.00" fill="#0058ad">r 45 [1 2 3 4 5 6 7 8 9 10 11 12 13 14 15 16 17 18 19 20 21 22 23 24 25 26 27 28 29 30 31]</text>
</g>
<!-- T1481&#45;&gt;T1368 -->
<g id="edge2" class="edge">
<title>T1481:f2&#45;&gt;T1368:f0</title>
<path fill="none" stroke="#5b00c0" d="M262.5,-30C262.5,-61.15 145.76,-26.21 123.5,-48 84.45,-86.22 86.86,-166.48 135.51,-176.06"/>
<polygon fill="#5b00c0" stroke="#5b00c0" points="135.22,-179.55 145.5,-177 135.87,-172.58 135.22,-179.55"/>
<text text-anchor="middle" x="112" y="-92.3" font-family="Times,serif" font-size="14.00" fill="#5b00c0">rw</text>
</g>
<!-- T1371&#45;&gt;T1481 -->
<g id="edge3" class="edge">
<title>T1371:f0&#45;&gt;T1481:f0</title>
<path fill="none" stroke="#5b00c0" d="M235.5,-81C235.5,-29.11 173.87,-60.49 123.5,-48 107.43,-44.02 57.84,-48.03 40.53,-38.47"/>
<polygon fill="#5b00c0" stroke="#5b00c0" points="43.15,-36.11 34.5,-30 37.45,-40.18 43.15,-36.11"/>
<text text-anchor="middle" x="241" y="-51.8" font-family="Times,serif" font-size="14.00" fill="#5b00c0">rw</text>
</g>
</g>
</svg>
