<?xml version="1.0" encoding="UTF-8" standalone="no"?>
<!DOCTYPE svg PUBLIC "-//W3C//DTD SVG 1.1//EN"
 "http://www.w3.org/Graphics/SVG/1.1/DTD/svg11.dtd">
<!-- Generated by graphviz version 2.43.0 (0)
 -->
<!-- Title: a_graph Pages: 1 -->
<svg width="2117pt" height="119pt"
 viewBox="0.00 0.00 2116.50 119.00" xmlns="http://www.w3.org/2000/svg" xmlns:xlink="http://www.w3.org/1999/xlink">
<g id="graph0" class="graph" transform="scale(1 1) rotate(0) translate(4 115)">
<title>a_graph</title>
<polygon fill="white" stroke="transparent" points="-4,4 -4,-115 2112.5,-115 2112.5,4 -4,4"/>
<!-- T2274 -->
<g id="node1" class="node">
<title>T2274</title>
<polygon fill="none" stroke="#0058ad" points="0,-81.5 0,-110.5 1295,-110.5 1295,-81.5 0,-81.5"/>
<text text-anchor="middle" x="30.5" y="-92.3" font-family="Times,serif" font-size="14.00" fill="#0058ad">r 85 []</text>
<polyline fill="none" stroke="#0058ad" points="61,-81.5 61,-110.5 "/>
<text text-anchor="middle" x="96" y="-92.3" font-family="Times,serif" font-size="14.00" fill="#0058ad">a 83 23</text>
<polyline fill="none" stroke="#0058ad" points="131,-81.5 131,-110.5 "/>
<text text-anchor="middle" x="166" y="-92.3" font-family="Times,serif" font-size="14.00" fill="#0058ad">a 83 24</text>
<polyline fill="none" stroke="#0058ad" points="201,-81.5 201,-110.5 "/>
<text text-anchor="middle" x="231.5" y="-92.3" font-family="Times,serif" font-size="14.00" fill="#0058ad">a 85 1</text>
<polyline fill="none" stroke="#0058ad" points="262,-81.5 262,-110.5 "/>
<text text-anchor="middle" x="490.5" y="-92.3" font-family="Times,serif" font-size="14.00" fill="#0058ad">r 83 [1 2 3 4 5 6 7 8 11 13 14 15 16 17 18 19 20 21 22 23 24]</text>
<polyline fill="none" stroke="#0058ad" points="719,-81.5 719,-110.5 "/>
<text text-anchor="middle" x="749.5" y="-92.3" font-family="Times,serif" font-size="14.00" fill="#0058ad">a 85 2</text>
<polyline fill="none" stroke="#0058ad" points="780,-81.5 780,-110.5 "/>
<text text-anchor="middle" x="1037.5" y="-92.3" font-family="Times,serif" font-size="14.00" fill="#0058ad">r 78 [1 2 3 4 5 6 7 8 9 10 11 12 13 14 15 16 17 19 20 21 22 23 24 25]</text>
</g>
<!-- T2273 -->
<g id="node2" class="node">
<title>T2273</title>
<polygon fill="none" stroke="#0058ad" points="150.5,-0.5 150.5,-29.5 2108.5,-29.5 2108.5,-0.5 150.5,-0.5"/>
<text text-anchor="middle" x="185.5" y="-11.3" font-family="Times,serif" font-size="14.00" fill="#0058ad">a 78 26</text>
<polyline fill="none" stroke="#0058ad" points="220.5,-0.5 220.5,-29.5 "/>
<text text-anchor="middle" x="255.5" y="-11.3" font-family="Times,serif" font-size="14.00" fill="#0058ad">a 78 27</text>
<polyline fill="none" stroke="#0058ad" points="290.5,-0.5 290.5,-29.5 "/>
<text text-anchor="middle" x="496.5" y="-11.3" font-family="Times,serif" font-size="14.00" fill="#0058ad">r 83 [1 2 3 4 5 6 7 8 11 13 14 15 16 17 18 19 20 21 22]</text>
<polyline fill="none" stroke="#0058ad" points="702.5,-0.5 702.5,-29.5 "/>
<text text-anchor="middle" x="737.5" y="-11.3" font-family="Times,serif" font-size="14.00" fill="#0058ad">a 84 32</text>
<polyline fill="none" stroke="#0058ad" points="772.5,-0.5 772.5,-29.5 "/>
<text text-anchor="middle" x="1106.5" y="-11.3" font-family="Times,serif" font-size="14.00" fill="#0058ad">r 84 [3 4 5 6 7 8 9 10 11 12 13 14 15 16 17 18 19 20 21 22 23 24 25 26 27 28 29 30 31 32]</text>
<polyline fill="none" stroke="#0058ad" points="1440.5,-0.5 1440.5,-29.5 "/>
<text text-anchor="middle" x="1774.5" y="-11.3" font-family="Times,serif" font-size="14.00" fill="#0058ad">r 84 [3 4 5 6 7 8 9 10 11 12 13 14 15 16 17 18 19 20 21 22 23 24 25 26 27 28 29 30 31 32]</text>
</g>
<!-- T2274&#45;&gt;T2273 -->
<g id="edge1" class="edge">
<title>T2274:f6&#45;&gt;T2273:f0</title>
<path fill="none" stroke="#5b00c0" d="M1037.5,-81C1037.5,-58.75 287.11,-54.23 194.78,-34.16"/>
<polygon fill="#5b00c0" stroke="#5b00c0" points="196.06,-30.89 185.5,-30 193.19,-37.28 196.06,-30.89"/>
<text text-anchor="middle" x="818" y="-51.8" font-family="Times,serif" font-size="14.00" fill="#5b00c0">rw</text>
</g>
<!-- T2273&#45;&gt;T2274 -->
<g id="edge2" class="edge">
<title>T2273:f2&#45;&gt;T2274:f1</title>
<path fill="none" stroke="#5b00c0" d="M496.5,-30C496.5,-40.2 165.74,-64.68 105.02,-77.5"/>
<polygon fill="#5b00c0" stroke="#5b00c0" points="103.68,-74.26 95.5,-81 106.09,-80.83 103.68,-74.26"/>
<text text-anchor="middle" x="376" y="-51.8" font-family="Times,serif" font-size="14.00" fill="#5b00c0">rw</text>
</g>
</g>
</svg>
