<?xml version="1.0" encoding="UTF-8" standalone="no"?>
<!DOCTYPE svg PUBLIC "-//W3C//DTD SVG 1.1//EN"
 "http://www.w3.org/Graphics/SVG/1.1/DTD/svg11.dtd">
<!-- Generated by graphviz version 2.43.0 (0)
 -->
<!-- Title: a_graph Pages: 1 -->
<svg width="1394pt" height="119pt"
 viewBox="0.00 0.00 1393.60 119.00" xmlns="http://www.w3.org/2000/svg" xmlns:xlink="http://www.w3.org/1999/xlink">
<g id="graph0" class="graph" transform="scale(1 1) rotate(0) translate(4 115)">
<title>a_graph</title>
<polygon fill="white" stroke="transparent" points="-4,4 -4,-115 1389.6,-115 1389.6,4 -4,4"/>
<!-- T1292 -->
<g id="node1" class="node">
<title>T1292</title>
<polygon fill="none" stroke="#0058ad" points="0,-81.5 0,-110.5 1342,-110.5 1342,-81.5 0,-81.5"/>
<text text-anchor="middle" x="35" y="-92.3" font-family="Times,serif" font-size="14.00" fill="#0058ad">a 36 31</text>
<polyline fill="none" stroke="#0058ad" points="70,-81.5 70,-110.5 "/>
<text text-anchor="middle" x="370.5" y="-92.3" font-family="Times,serif" font-size="14.00" fill="#0058ad">r 44 [8 9 10 11 12 13 14 15 16 17 18 19 20 21 22 23 24 25 26 27 28 29 30 32 31]</text>
<polyline fill="none" stroke="#0058ad" points="671,-81.5 671,-110.5 "/>
<text text-anchor="middle" x="971.5" y="-92.3" font-family="Times,serif" font-size="14.00" fill="#0058ad">r 44 [8 9 10 11 12 13 14 15 16 17 18 19 20 21 22 23 24 25 26 27 28 29 30 32 31]</text>
<polyline fill="none" stroke="#0058ad" points="1272,-81.5 1272,-110.5 "/>
<text text-anchor="middle" x="1307" y="-92.3" font-family="Times,serif" font-size="14.00" fill="#0058ad">a 43 14</text>
</g>
<!-- T1293 -->
<g id="node2" class="node">
<title>T1293</title>
<polygon fill="none" stroke="#0058ad" points="475,-0.5 475,-29.5 1381,-29.5 1381,-0.5 475,-0.5"/>
<text text-anchor="middle" x="505.5" y="-11.3" font-family="Times,serif" font-size="14.00" fill="#0058ad">a 44 1</text>
<polyline fill="none" stroke="#0058ad" points="536,-0.5 536,-29.5 "/>
<text text-anchor="middle" x="566.5" y="-11.3" font-family="Times,serif" font-size="14.00" fill="#0058ad">a 44 2</text>
<polyline fill="none" stroke="#0058ad" points="597,-0.5 597,-29.5 "/>
<text text-anchor="middle" x="627.5" y="-11.3" font-family="Times,serif" font-size="14.00" fill="#0058ad">a 44 3</text>
<polyline fill="none" stroke="#0058ad" points="658,-0.5 658,-29.5 "/>
<text text-anchor="middle" x="688.5" y="-11.3" font-family="Times,serif" font-size="14.00" fill="#0058ad">a 44 4</text>
<polyline fill="none" stroke="#0058ad" points="719,-0.5 719,-29.5 "/>
<text text-anchor="middle" x="749.5" y="-11.3" font-family="Times,serif" font-size="14.00" fill="#0058ad">a 44 5</text>
<polyline fill="none" stroke="#0058ad" points="780,-0.5 780,-29.5 "/>
<text text-anchor="middle" x="1080.5" y="-11.3" font-family="Times,serif" font-size="14.00" fill="#0058ad">r 43 [1 3 4 5 8 11 15 16 17 18 19 20 22 23 24 25 26 27 28 29 30 31 32 21 7 10 6]</text>
</g>
<!-- T1292&#45;&gt;T1293 -->
<g id="edge1" class="edge">
<title>T1292:f1&#45;&gt;T1293:f0</title>
<path fill="none" stroke="#5b00c0" d="M370,-81C370,-29.68 413.29,-16.58 463.81,-15.14"/>
<polygon fill="#5b00c0" stroke="#5b00c0" points="464.05,-18.64 474,-15 463.95,-11.64 464.05,-18.64"/>
<text text-anchor="middle" x="387.5" y="-51.8" font-family="Times,serif" font-size="14.00" fill="#5b00c0">rw</text>
</g>
<!-- T1293&#45;&gt;T1292 -->
<g id="edge2" class="edge">
<title>T1293:f5&#45;&gt;T1292:f3</title>
<path fill="none" stroke="#5b00c0" d="M1382,-15C1388.68,-15 1384.3,-24.19 1381,-30 1363.19,-61.33 1317.27,-45.12 1308.47,-71"/>
<polygon fill="#5b00c0" stroke="#5b00c0" points="1304.99,-70.6 1307,-81 1311.92,-71.62 1304.99,-70.6"/>
<text text-anchor="middle" x="1367.5" y="-51.8" font-family="Times,serif" font-size="14.00" fill="#5b00c0">rw</text>
</g>
</g>
</svg>
