<?xml version="1.0" encoding="UTF-8" standalone="no"?>
<!DOCTYPE svg PUBLIC "-//W3C//DTD SVG 1.1//EN"
 "http://www.w3.org/Graphics/SVG/1.1/DTD/svg11.dtd">
<!-- Generated by graphviz version 2.43.0 (0)
 -->
<!-- Title: a_graph Pages: 1 -->
<svg width="1153pt" height="119pt"
 viewBox="0.00 0.00 1153.00 119.00" xmlns="http://www.w3.org/2000/svg" xmlns:xlink="http://www.w3.org/1999/xlink">
<g id="graph0" class="graph" transform="scale(1 1) rotate(0) translate(4 115)">
<title>a_graph</title>
<polygon fill="white" stroke="transparent" points="-4,4 -4,-115 1149,-115 1149,4 -4,4"/>
<!-- T332 -->
<g id="node1" class="node">
<title>T332</title>
<polygon fill="none" stroke="#0058ad" points="199,-81.5 199,-110.5 1145,-110.5 1145,-81.5 199,-81.5"/>
<text text-anchor="middle" x="254" y="-92.3" font-family="Times,serif" font-size="14.00" fill="#0058ad">r 13 [1 2 3 4]</text>
<polyline fill="none" stroke="#0058ad" points="309,-81.5 309,-110.5 "/>
<text text-anchor="middle" x="339.5" y="-92.3" font-family="Times,serif" font-size="14.00" fill="#0058ad">a 9 28</text>
<polyline fill="none" stroke="#0058ad" points="370,-81.5 370,-110.5 "/>
<text text-anchor="middle" x="405" y="-92.3" font-family="Times,serif" font-size="14.00" fill="#0058ad">a 12 21</text>
<polyline fill="none" stroke="#0058ad" points="440,-81.5 440,-110.5 "/>
<text text-anchor="middle" x="641.5" y="-92.3" font-family="Times,serif" font-size="14.00" fill="#0058ad">r 12 [1 2 3 4 5 6 7 8 9 10 11 12 13 14 16 17 18 19 21]</text>
<polyline fill="none" stroke="#0058ad" points="843,-81.5 843,-110.5 "/>
<text text-anchor="middle" x="878" y="-92.3" font-family="Times,serif" font-size="14.00" fill="#0058ad">a 12 22</text>
<polyline fill="none" stroke="#0058ad" points="913,-81.5 913,-110.5 "/>
<text text-anchor="middle" x="968" y="-92.3" font-family="Times,serif" font-size="14.00" fill="#0058ad">r 13 [1 2 3 4]</text>
<polyline fill="none" stroke="#0058ad" points="1023,-81.5 1023,-110.5 "/>
<text text-anchor="middle" x="1053.5" y="-92.3" font-family="Times,serif" font-size="14.00" fill="#0058ad">a 9 29</text>
<polyline fill="none" stroke="#0058ad" points="1084,-81.5 1084,-110.5 "/>
<text text-anchor="middle" x="1114.5" y="-92.3" font-family="Times,serif" font-size="14.00" fill="#0058ad">a 9 30</text>
</g>
<!-- T333 -->
<g id="node2" class="node">
<title>T333</title>
<polygon fill="none" stroke="#0058ad" points="0,-0.5 0,-29.5 830,-29.5 830,-0.5 0,-0.5"/>
<text text-anchor="middle" x="190" y="-11.3" font-family="Times,serif" font-size="14.00" fill="#0058ad">r 12 [1 2 3 4 5 6 7 8 9 10 11 12 13 14 16 17 18 19]</text>
<polyline fill="none" stroke="#0058ad" points="380,-0.5 380,-29.5 "/>
<text text-anchor="middle" x="415" y="-11.3" font-family="Times,serif" font-size="14.00" fill="#0058ad">a 13 11</text>
<polyline fill="none" stroke="#0058ad" points="450,-0.5 450,-29.5 "/>
<text text-anchor="middle" x="485" y="-11.3" font-family="Times,serif" font-size="14.00" fill="#0058ad">a 13 12</text>
<polyline fill="none" stroke="#0058ad" points="520,-0.5 520,-29.5 "/>
<text text-anchor="middle" x="597.5" y="-11.3" font-family="Times,serif" font-size="14.00" fill="#0058ad">r 13 [1 2 3 4 11 12]</text>
<polyline fill="none" stroke="#0058ad" points="675,-0.5 675,-29.5 "/>
<text text-anchor="middle" x="752.5" y="-11.3" font-family="Times,serif" font-size="14.00" fill="#0058ad">r 13 [1 2 3 4 11 12]</text>
</g>
<!-- T332&#45;&gt;T333 -->
<g id="edge1" class="edge">
<title>T332:f0&#45;&gt;T333:f1</title>
<path fill="none" stroke="#5b00c0" d="M254,-81C254,-41.3 299.11,-59.83 337,-48 350.66,-43.73 392.84,-46.2 408.8,-38.05"/>
<polygon fill="#5b00c0" stroke="#5b00c0" points="411.67,-40.06 415,-30 406.13,-35.79 411.67,-40.06"/>
<text text-anchor="middle" x="346.5" y="-51.8" font-family="Times,serif" font-size="14.00" fill="#5b00c0">rw</text>
</g>
<!-- T333&#45;&gt;T332 -->
<g id="edge2" class="edge">
<title>T333:f0&#45;&gt;T332:f2</title>
<path fill="none" stroke="#5b00c0" d="M190,-30C190,-48.55 338.57,-41.63 356,-48 377,-55.67 397.77,-55.17 403.47,-71.06"/>
<polygon fill="#5b00c0" stroke="#5b00c0" points="400.02,-71.65 405,-81 406.94,-70.58 400.02,-71.65"/>
<text text-anchor="middle" x="407.5" y="-51.8" font-family="Times,serif" font-size="14.00" fill="#5b00c0">rw</text>
</g>
</g>
</svg>
