<?xml version="1.0" encoding="UTF-8" standalone="no"?>
<!DOCTYPE svg PUBLIC "-//W3C//DTD SVG 1.1//EN"
 "http://www.w3.org/Graphics/SVG/1.1/DTD/svg11.dtd">
<!-- Generated by graphviz version 2.43.0 (0)
 -->
<!-- Title: a_graph Pages: 1 -->
<svg width="447pt" height="119pt"
 viewBox="0.00 0.00 447.00 119.00" xmlns="http://www.w3.org/2000/svg" xmlns:xlink="http://www.w3.org/1999/xlink">
<g id="graph0" class="graph" transform="scale(1 1) rotate(0) translate(4 115)">
<title>a_graph</title>
<polygon fill="white" stroke="transparent" points="-4,4 -4,-115 443,-115 443,4 -4,4"/>
<!-- T879 -->
<g id="node1" class="node">
<title>T879</title>
<polygon fill="none" stroke="#0058ad" points="75,-81.5 75,-110.5 439,-110.5 439,-81.5 75,-81.5"/>
<text text-anchor="middle" x="113.5" y="-92.3" font-family="Times,serif" font-size="14.00" fill="#0058ad">r 391 nil</text>
<polyline fill="none" stroke="#0058ad" points="152,-81.5 152,-110.5 "/>
<text text-anchor="middle" x="189" y="-92.3" font-family="Times,serif" font-size="14.00" fill="#0058ad">w 391 1</text>
<polyline fill="none" stroke="#0058ad" points="226,-81.5 226,-110.5 "/>
<text text-anchor="middle" x="260" y="-92.3" font-family="Times,serif" font-size="14.00" fill="#0058ad">r 391 1</text>
<polyline fill="none" stroke="#0058ad" points="294,-81.5 294,-110.5 "/>
<text text-anchor="middle" x="332.5" y="-92.3" font-family="Times,serif" font-size="14.00" fill="#0058ad">r 390 nil</text>
<polyline fill="none" stroke="#0058ad" points="371,-81.5 371,-110.5 "/>
<text text-anchor="middle" x="405" y="-92.3" font-family="Times,serif" font-size="14.00" fill="#0058ad">r 391 1</text>
</g>
<!-- T878 -->
<g id="node2" class="node">
<title>T878</title>
<polygon fill="none" stroke="#0058ad" points="0,-0.5 0,-29.5 376,-29.5 376,-0.5 0,-0.5"/>
<text text-anchor="middle" x="37" y="-11.3" font-family="Times,serif" font-size="14.00" fill="#0058ad">w 385 3</text>
<polyline fill="none" stroke="#0058ad" points="74,-0.5 74,-29.5 "/>
<text text-anchor="middle" x="111" y="-11.3" font-family="Times,serif" font-size="14.00" fill="#0058ad">w 390 1</text>
<polyline fill="none" stroke="#0058ad" points="148,-0.5 148,-29.5 "/>
<text text-anchor="middle" x="186.5" y="-11.3" font-family="Times,serif" font-size="14.00" fill="#0058ad">r 391 nil</text>
<polyline fill="none" stroke="#0058ad" points="225,-0.5 225,-29.5 "/>
<text text-anchor="middle" x="263.5" y="-11.3" font-family="Times,serif" font-size="14.00" fill="#0058ad">r 391 nil</text>
<polyline fill="none" stroke="#0058ad" points="302,-0.5 302,-29.5 "/>
<text text-anchor="middle" x="339" y="-11.3" font-family="Times,serif" font-size="14.00" fill="#0058ad">w 390 2</text>
</g>
<!-- T879&#45;&gt;T878 -->
<g id="edge1" class="edge">
<title>T879:f3&#45;&gt;T878:f4</title>
<path fill="none" stroke="#5b00c0" d="M333,-81C333,-62.1 337.11,-55.18 338.53,-40.4"/>
<polygon fill="#5b00c0" stroke="#5b00c0" points="342.04,-40.15 339,-30 335.05,-39.83 342.04,-40.15"/>
<text text-anchor="middle" x="346.5" y="-51.8" font-family="Times,serif" font-size="14.00" fill="#5b00c0">rw</text>
</g>
<!-- T878&#45;&gt;T879 -->
<g id="edge2" class="edge">
<title>T878:f2&#45;&gt;T879:f1</title>
<path fill="none" stroke="#5b00c0" d="M186,-30C186,-48.8 188.06,-55.87 188.76,-70.64"/>
<polygon fill="#5b00c0" stroke="#5b00c0" points="185.27,-71.08 189,-81 192.27,-70.92 185.27,-71.08"/>
<text text-anchor="middle" x="197.5" y="-51.8" font-family="Times,serif" font-size="14.00" fill="#5b00c0">rw</text>
</g>
</g>
</svg>
