<?xml version="1.0" encoding="UTF-8" standalone="no"?>
<!DOCTYPE svg PUBLIC "-//W3C//DTD SVG 1.1//EN"
 "http://www.w3.org/Graphics/SVG/1.1/DTD/svg11.dtd">
<!-- Generated by graphviz version 2.43.0 (0)
 -->
<!-- Title: a_graph Pages: 1 -->
<svg width="647pt" height="119pt"
 viewBox="0.00 0.00 647.00 119.00" xmlns="http://www.w3.org/2000/svg" xmlns:xlink="http://www.w3.org/1999/xlink">
<g id="graph0" class="graph" transform="scale(1 1) rotate(0) translate(4 115)">
<title>a_graph</title>
<polygon fill="white" stroke="transparent" points="-4,4 -4,-115 643,-115 643,4 -4,4"/>
<!-- T2200 -->
<g id="node1" class="node">
<title>T2200</title>
<polygon fill="none" stroke="#0058ad" points="390,-81.5 390,-110.5 557,-110.5 557,-81.5 390,-81.5"/>
<text text-anchor="middle" x="425" y="-92.3" font-family="Times,serif" font-size="14.00" fill="#0058ad">a 83 15</text>
<polyline fill="none" stroke="#0058ad" points="460,-81.5 460,-110.5 "/>
<text text-anchor="middle" x="508.5" y="-92.3" font-family="Times,serif" font-size="14.00" fill="#0058ad">r 84 [1 2 3]</text>
</g>
<!-- T2201 -->
<g id="node2" class="node">
<title>T2201</title>
<polygon fill="none" stroke="#0058ad" points="0,-0.5 0,-29.5 639,-29.5 639,-0.5 0,-0.5"/>
<text text-anchor="middle" x="127" y="-11.3" font-family="Times,serif" font-size="14.00" fill="#0058ad">r 83 [1 2 3 4 5 6 8 9 10 11 13 14]</text>
<polyline fill="none" stroke="#0058ad" points="254,-0.5 254,-29.5 "/>
<text text-anchor="middle" x="289" y="-11.3" font-family="Times,serif" font-size="14.00" fill="#0058ad">a 80 16</text>
<polyline fill="none" stroke="#0058ad" points="324,-0.5 324,-29.5 "/>
<text text-anchor="middle" x="451" y="-11.3" font-family="Times,serif" font-size="14.00" fill="#0058ad">r 83 [1 2 3 4 5 6 8 9 10 11 13 14]</text>
<polyline fill="none" stroke="#0058ad" points="578,-0.5 578,-29.5 "/>
<text text-anchor="middle" x="608.5" y="-11.3" font-family="Times,serif" font-size="14.00" fill="#0058ad">a 84 4</text>
</g>
<!-- T2200&#45;&gt;T2201 -->
<g id="edge1" class="edge">
<title>T2200:f1&#45;&gt;T2201:f3</title>
<path fill="none" stroke="#5b00c0" d="M558.5,-96C591.85,-96 605.82,-72.02 608.14,-40.13"/>
<polygon fill="#5b00c0" stroke="#5b00c0" points="611.65,-40.12 608.5,-30 604.65,-39.87 611.65,-40.12"/>
<text text-anchor="middle" x="616" y="-51.8" font-family="Times,serif" font-size="14.00" fill="#5b00c0">rw</text>
</g>
<!-- T2201&#45;&gt;T2200 -->
<g id="edge2" class="edge">
<title>T2201:f0&#45;&gt;T2200:f0</title>
<path fill="none" stroke="#5b00c0" d="M126.5,-30C126.5,-86.99 308.47,-95.26 378.3,-95.95"/>
<polygon fill="#5b00c0" stroke="#5b00c0" points="378.48,-99.45 388.5,-96 378.52,-92.45 378.48,-99.45"/>
<text text-anchor="middle" x="161" y="-51.8" font-family="Times,serif" font-size="14.00" fill="#5b00c0">rw</text>
</g>
</g>
</svg>
