<?xml version="1.0" encoding="UTF-8" standalone="no"?>
<!DOCTYPE svg PUBLIC "-//W3C//DTD SVG 1.1//EN"
 "http://www.w3.org/Graphics/SVG/1.1/DTD/svg11.dtd">
<!-- Generated by graphviz version 2.43.0 (0)
 -->
<!-- Title: a_graph Pages: 1 -->
<svg width="1524pt" height="119pt"
 viewBox="0.00 0.00 1523.50 119.00" xmlns="http://www.w3.org/2000/svg" xmlns:xlink="http://www.w3.org/1999/xlink">
<g id="graph0" class="graph" transform="scale(1 1) rotate(0) translate(4 115)">
<title>a_graph</title>
<polygon fill="white" stroke="transparent" points="-4,4 -4,-115 1519.5,-115 1519.5,4 -4,4"/>
<!-- T5253 -->
<g id="node1" class="node">
<title>T5253</title>
<polygon fill="none" stroke="#0058ad" points="349.5,-81.5 349.5,-110.5 1515.5,-110.5 1515.5,-81.5 349.5,-81.5"/>
<text text-anchor="middle" x="389" y="-92.3" font-family="Times,serif" font-size="14.00" fill="#0058ad">a 200 20</text>
<polyline fill="none" stroke="#0058ad" points="428.5,-81.5 428.5,-110.5 "/>
<text text-anchor="middle" x="463.5" y="-92.3" font-family="Times,serif" font-size="14.00" fill="#0058ad">r 201 []</text>
<polyline fill="none" stroke="#0058ad" points="498.5,-81.5 498.5,-110.5 "/>
<text text-anchor="middle" x="715.5" y="-92.3" font-family="Times,serif" font-size="14.00" fill="#0058ad">r 200 [1 2 3 4 5 6 7 8 9 10 11 12 13 14 15 16 17 18 19 20]</text>
<polyline fill="none" stroke="#0058ad" points="932.5,-81.5 932.5,-110.5 "/>
<text text-anchor="middle" x="967.5" y="-92.3" font-family="Times,serif" font-size="14.00" fill="#0058ad">r 201 []</text>
<polyline fill="none" stroke="#0058ad" points="1002.5,-81.5 1002.5,-110.5 "/>
<text text-anchor="middle" x="1219.5" y="-92.3" font-family="Times,serif" font-size="14.00" fill="#0058ad">r 200 [1 2 3 4 5 6 7 8 9 10 11 12 13 14 15 16 17 18 19 20]</text>
<polyline fill="none" stroke="#0058ad" points="1436.5,-81.5 1436.5,-110.5 "/>
<text text-anchor="middle" x="1476" y="-92.3" font-family="Times,serif" font-size="14.00" fill="#0058ad">a 200 21</text>
</g>
<!-- T5252 -->
<g id="node2" class="node">
<title>T5252</title>
<polygon fill="none" stroke="#0058ad" points="0,-0.5 0,-29.5 919,-29.5 919,-0.5 0,-0.5"/>
<text text-anchor="middle" x="39.5" y="-11.3" font-family="Times,serif" font-size="14.00" fill="#0058ad">a 198 10</text>
<polyline fill="none" stroke="#0058ad" points="79,-0.5 79,-29.5 "/>
<text text-anchor="middle" x="285" y="-11.3" font-family="Times,serif" font-size="14.00" fill="#0058ad">r 200 [1 2 3 4 5 6 7 8 9 10 11 12 13 14 15 16 17 18 19]</text>
<polyline fill="none" stroke="#0058ad" points="491,-0.5 491,-29.5 "/>
<text text-anchor="middle" x="526" y="-11.3" font-family="Times,serif" font-size="14.00" fill="#0058ad">a 201 1</text>
<polyline fill="none" stroke="#0058ad" points="561,-0.5 561,-29.5 "/>
<text text-anchor="middle" x="600.5" y="-11.3" font-family="Times,serif" font-size="14.00" fill="#0058ad">r 201 [1]</text>
<polyline fill="none" stroke="#0058ad" points="640,-0.5 640,-29.5 "/>
<text text-anchor="middle" x="675" y="-11.3" font-family="Times,serif" font-size="14.00" fill="#0058ad">a 201 2</text>
<polyline fill="none" stroke="#0058ad" points="710,-0.5 710,-29.5 "/>
<text text-anchor="middle" x="814.5" y="-11.3" font-family="Times,serif" font-size="14.00" fill="#0058ad">r 198 [1 2 3 4 5 6 7 8 9 10]</text>
</g>
<!-- T5253&#45;&gt;T5252 -->
<g id="edge1" class="edge">
<title>T5253:f1&#45;&gt;T5252:f2</title>
<path fill="none" stroke="#5b00c0" d="M463.5,-81C463.5,-48.92 513.47,-62.1 524.4,-39.92"/>
<polygon fill="#5b00c0" stroke="#5b00c0" points="527.86,-40.51 526.5,-30 521.01,-39.06 527.86,-40.51"/>
<text text-anchor="middle" x="525" y="-51.8" font-family="Times,serif" font-size="14.00" fill="#5b00c0">rw</text>
</g>
<!-- T5252&#45;&gt;T5253 -->
<g id="edge2" class="edge">
<title>T5252:f1&#45;&gt;T5253:f0</title>
<path fill="none" stroke="#5b00c0" d="M284.5,-30C284.5,-67.35 303.83,-91.56 338.36,-95.45"/>
<polygon fill="#5b00c0" stroke="#5b00c0" points="338.32,-98.95 348.5,-96 338.7,-91.96 338.32,-98.95"/>
<text text-anchor="middle" x="301" y="-51.8" font-family="Times,serif" font-size="14.00" fill="#5b00c0">rw</text>
</g>
</g>
</svg>
