<?xml version="1.0" encoding="UTF-8" standalone="no"?>
<!DOCTYPE svg PUBLIC "-//W3C//DTD SVG 1.1//EN"
 "http://www.w3.org/Graphics/SVG/1.1/DTD/svg11.dtd">
<!-- Generated by graphviz version 2.43.0 (0)
 -->
<!-- Title: a_graph Pages: 1 -->
<svg width="2353pt" height="119pt"
 viewBox="0.00 0.00 2353.00 119.00" xmlns="http://www.w3.org/2000/svg" xmlns:xlink="http://www.w3.org/1999/xlink">
<g id="graph0" class="graph" transform="scale(1 1) rotate(0) translate(4 115)">
<title>a_graph</title>
<polygon fill="white" stroke="transparent" points="-4,4 -4,-115 2349,-115 2349,4 -4,4"/>
<!-- T381 -->
<g id="node1" class="node">
<title>T381</title>
<polygon fill="none" stroke="#0058ad" points="0,-81.5 0,-110.5 2345,-110.5 2345,-81.5 0,-81.5"/>
<text text-anchor="middle" x="30.5" y="-92.3" font-family="Times,serif" font-size="14.00" fill="#0058ad">a 14 3</text>
<polyline fill="none" stroke="#0058ad" points="61,-81.5 61,-110.5 "/>
<text text-anchor="middle" x="109.5" y="-92.3" font-family="Times,serif" font-size="14.00" fill="#0058ad">r 14 [1 2 3]</text>
<polyline fill="none" stroke="#0058ad" points="158,-81.5 158,-110.5 "/>
<text text-anchor="middle" x="415.5" y="-92.3" font-family="Times,serif" font-size="14.00" fill="#0058ad">r 10 [1 2 3 4 5 6 7 8 9 10 11 12 13 14 15 16 17 18 19 20 21 22 23 24]</text>
<polyline fill="none" stroke="#0058ad" points="673,-81.5 673,-110.5 "/>
<text text-anchor="middle" x="930.5" y="-92.3" font-family="Times,serif" font-size="14.00" fill="#0058ad">r 10 [1 2 3 4 5 6 7 8 9 10 11 12 13 14 15 16 17 18 19 20 21 22 23 24]</text>
<polyline fill="none" stroke="#0058ad" points="1188,-81.5 1188,-110.5 "/>
<text text-anchor="middle" x="1218.5" y="-92.3" font-family="Times,serif" font-size="14.00" fill="#0058ad">a 14 4</text>
<polyline fill="none" stroke="#0058ad" points="1249,-81.5 1249,-110.5 "/>
<text text-anchor="middle" x="1495.5" y="-92.3" font-family="Times,serif" font-size="14.00" fill="#0058ad">r 12 [1 2 3 4 5 6 7 8 9 10 11 12 13 14 15 16 17 18 19 20 21 22 23]</text>
<polyline fill="none" stroke="#0058ad" points="1742,-81.5 1742,-110.5 "/>
<text text-anchor="middle" x="1988.5" y="-92.3" font-family="Times,serif" font-size="14.00" fill="#0058ad">r 12 [1 2 3 4 5 6 7 8 9 10 11 12 13 14 15 16 17 18 19 20 21 22 23]</text>
<polyline fill="none" stroke="#0058ad" points="2235,-81.5 2235,-110.5 "/>
<text text-anchor="middle" x="2290" y="-92.3" font-family="Times,serif" font-size="14.00" fill="#0058ad">r 14 [1 2 3 4]</text>
</g>
<!-- T380 -->
<g id="node2" class="node">
<title>T380</title>
<polygon fill="none" stroke="#0058ad" points="857.5,-0.5 857.5,-29.5 1701.5,-29.5 1701.5,-0.5 857.5,-0.5"/>
<text text-anchor="middle" x="899" y="-11.3" font-family="Times,serif" font-size="14.00" fill="#0058ad">r 14 [1 2]</text>
<polyline fill="none" stroke="#0058ad" points="940.5,-0.5 940.5,-29.5 "/>
<text text-anchor="middle" x="975.5" y="-11.3" font-family="Times,serif" font-size="14.00" fill="#0058ad">a 12 24</text>
<polyline fill="none" stroke="#0058ad" points="1010.5,-0.5 1010.5,-29.5 "/>
<text text-anchor="middle" x="1045.5" y="-11.3" font-family="Times,serif" font-size="14.00" fill="#0058ad">a 10 25</text>
<polyline fill="none" stroke="#0058ad" points="1080.5,-0.5 1080.5,-29.5 "/>
<text text-anchor="middle" x="1349.5" y="-11.3" font-family="Times,serif" font-size="14.00" fill="#0058ad">r 10 [1 2 3 4 5 6 7 8 9 10 11 12 13 14 15 16 17 18 19 20 21 22 23 24 25]</text>
<polyline fill="none" stroke="#0058ad" points="1618.5,-0.5 1618.5,-29.5 "/>
<text text-anchor="middle" x="1660" y="-11.3" font-family="Times,serif" font-size="14.00" fill="#0058ad">r 14 [1 2]</text>
</g>
<!-- T381&#45;&gt;T380 -->
<g id="edge1" class="edge">
<title>T381:f5&#45;&gt;T380:f1</title>
<path fill="none" stroke="#5b00c0" d="M1495.5,-81C1495.5,147.7 991.12,-249.85 975.85,-40.11"/>
<polygon fill="#5b00c0" stroke="#5b00c0" points="979.35,-39.87 975.5,-30 972.35,-40.12 979.35,-39.87"/>
<text text-anchor="middle" x="1502" y="-51.8" font-family="Times,serif" font-size="14.00" fill="#5b00c0">rw</text>
</g>
<!-- T380&#45;&gt;T381 -->
<g id="edge2" class="edge">
<title>T380:f0&#45;&gt;T381:f0</title>
<path fill="none" stroke="#5b00c0" d="M856.5,-15C813.07,-15 116.5,-32.77 37.73,-73.43"/>
<polygon fill="#5b00c0" stroke="#5b00c0" points="34.88,-71.35 30.5,-81 39.94,-76.19 34.88,-71.35"/>
<text text-anchor="middle" x="190" y="-51.8" font-family="Times,serif" font-size="14.00" fill="#5b00c0">rw</text>
</g>
</g>
</svg>
