<?xml version="1.0" encoding="UTF-8" standalone="no"?>
<!DOCTYPE svg PUBLIC "-//W3C//DTD SVG 1.1//EN"
 "http://www.w3.org/Graphics/SVG/1.1/DTD/svg11.dtd">
<!-- Generated by graphviz version 2.43.0 (0)
 -->
<!-- Title: a_graph Pages: 1 -->
<svg width="3310pt" height="119pt"
 viewBox="0.00 0.00 3310.00 119.00" xmlns="http://www.w3.org/2000/svg" xmlns:xlink="http://www.w3.org/1999/xlink">
<g id="graph0" class="graph" transform="scale(1 1) rotate(0) translate(4 115)">
<title>a_graph</title>
<polygon fill="white" stroke="transparent" points="-4,4 -4,-115 3306,-115 3306,4 -4,4"/>
<!-- T3070 -->
<g id="node1" class="node">
<title>T3070</title>
<polygon fill="none" stroke="#0058ad" points="1116,-81.5 1116,-110.5 2632,-110.5 2632,-81.5 1116,-81.5"/>
<text text-anchor="middle" x="1310.5" y="-92.3" font-family="Times,serif" font-size="14.00" fill="#0058ad">r 116 [1 2 3 4 5 6 7 8 9 10 11 12 13 14 15 16 17 18]</text>
<polyline fill="none" stroke="#0058ad" points="1505,-81.5 1505,-110.5 "/>
<text text-anchor="middle" x="1834.5" y="-92.3" font-family="Times,serif" font-size="14.00" fill="#0058ad">r 115 [1 2 3 4 5 6 7 8 9 10 11 12 13 14 15 16 17 18 19 20 21 22 23 24 25 26 27 28 29 30]</text>
<polyline fill="none" stroke="#0058ad" points="2164,-81.5 2164,-110.5 "/>
<text text-anchor="middle" x="2358.5" y="-92.3" font-family="Times,serif" font-size="14.00" fill="#0058ad">r 116 [1 2 3 4 5 6 7 8 9 10 11 12 13 14 15 16 17 18]</text>
<polyline fill="none" stroke="#0058ad" points="2553,-81.5 2553,-110.5 "/>
<text text-anchor="middle" x="2592.5" y="-92.3" font-family="Times,serif" font-size="14.00" fill="#0058ad">a 115 31</text>
</g>
<!-- T3071 -->
<g id="node2" class="node">
<title>T3071</title>
<polygon fill="none" stroke="#0058ad" points="0,-0.5 0,-29.5 3302,-29.5 3302,-0.5 0,-0.5"/>
<text text-anchor="middle" x="194.5" y="-11.3" font-family="Times,serif" font-size="14.00" fill="#0058ad">r 116 [1 2 3 4 5 6 7 8 9 10 11 12 13 14 15 16 17 18]</text>
<polyline fill="none" stroke="#0058ad" points="389,-0.5 389,-29.5 "/>
<text text-anchor="middle" x="718.5" y="-11.3" font-family="Times,serif" font-size="14.00" fill="#0058ad">r 115 [1 2 3 4 5 6 7 8 9 10 11 12 13 14 15 16 17 18 19 20 21 22 23 24 25 26 27 28 29 30]</text>
<polyline fill="none" stroke="#0058ad" points="1048,-0.5 1048,-29.5 "/>
<text text-anchor="middle" x="1377.5" y="-11.3" font-family="Times,serif" font-size="14.00" fill="#0058ad">r 115 [1 2 3 4 5 6 7 8 9 10 11 12 13 14 15 16 17 18 19 20 21 22 23 24 25 26 27 28 29 30]</text>
<polyline fill="none" stroke="#0058ad" points="1707,-0.5 1707,-29.5 "/>
<text text-anchor="middle" x="1901.5" y="-11.3" font-family="Times,serif" font-size="14.00" fill="#0058ad">r 116 [1 2 3 4 5 6 7 8 9 10 11 12 13 14 15 16 17 18]</text>
<polyline fill="none" stroke="#0058ad" points="2096,-0.5 2096,-29.5 "/>
<text text-anchor="middle" x="2425.5" y="-11.3" font-family="Times,serif" font-size="14.00" fill="#0058ad">r 115 [1 2 3 4 5 6 7 8 9 10 11 12 13 14 15 16 17 18 19 20 21 22 23 24 25 26 27 28 29 30]</text>
<polyline fill="none" stroke="#0058ad" points="2755,-0.5 2755,-29.5 "/>
<text text-anchor="middle" x="2949.5" y="-11.3" font-family="Times,serif" font-size="14.00" fill="#0058ad">r 116 [1 2 3 4 5 6 7 8 9 10 11 12 13 14 15 16 17 18]</text>
<polyline fill="none" stroke="#0058ad" points="3144,-0.5 3144,-29.5 "/>
<text text-anchor="middle" x="3183.5" y="-11.3" font-family="Times,serif" font-size="14.00" fill="#0058ad">a 116 19</text>
<polyline fill="none" stroke="#0058ad" points="3223,-0.5 3223,-29.5 "/>
<text text-anchor="middle" x="3262.5" y="-11.3" font-family="Times,serif" font-size="14.00" fill="#0058ad">a 116 20</text>
</g>
<!-- T3070&#45;&gt;T3071 -->
<g id="edge1" class="edge">
<title>T3070:f0&#45;&gt;T3071:f6</title>
<path fill="none" stroke="#5b00c0" d="M1310,-81C1310,22.51 2137.53,-50.82 2241,-48 2253.3,-47.66 3074.76,-43.63 3174.18,-32.29"/>
<polygon fill="#5b00c0" stroke="#5b00c0" points="3175.05,-35.68 3184,-30 3173.47,-28.86 3175.05,-35.68"/>
<text text-anchor="middle" x="2250.5" y="-51.8" font-family="Times,serif" font-size="14.00" fill="#5b00c0">rw</text>
</g>
<!-- T3071&#45;&gt;T3070 -->
<g id="edge2" class="edge">
<title>T3071:f1&#45;&gt;T3070:f3</title>
<path fill="none" stroke="#5b00c0" d="M718,-30C718,-51.42 2238.61,-46.82 2260,-48 2405.02,-56.02 2584.37,61.99 2592.7,-70.99"/>
<polygon fill="#5b00c0" stroke="#5b00c0" points="2589.2,-71.11 2593,-81 2596.2,-70.9 2589.2,-71.11"/>
<text text-anchor="middle" x="2600.5" y="-51.8" font-family="Times,serif" font-size="14.00" fill="#5b00c0">rw</text>
</g>
</g>
</svg>
