<?xml version="1.0" encoding="UTF-8" standalone="no"?>
<!DOCTYPE svg PUBLIC "-//W3C//DTD SVG 1.1//EN"
 "http://www.w3.org/Graphics/SVG/1.1/DTD/svg11.dtd">
<!-- Generated by graphviz version 2.43.0 (0)
 -->
<!-- Title: a_graph Pages: 1 -->
<svg width="2968pt" height="119pt"
 viewBox="0.00 0.00 2968.00 119.00" xmlns="http://www.w3.org/2000/svg" xmlns:xlink="http://www.w3.org/1999/xlink">
<g id="graph0" class="graph" transform="scale(1 1) rotate(0) translate(4 115)">
<title>a_graph</title>
<polygon fill="white" stroke="transparent" points="-4,4 -4,-115 2964,-115 2964,4 -4,4"/>
<!-- T1870 -->
<g id="node1" class="node">
<title>T1870</title>
<polygon fill="none" stroke="#0058ad" points="766.5,-81.5 766.5,-110.5 2213.5,-110.5 2213.5,-81.5 766.5,-81.5"/>
<text text-anchor="middle" x="961" y="-92.3" font-family="Times,serif" font-size="14.00" fill="#0058ad">r 70 [2 3 4 5 6 7 8 9 10 11 12 13 14 15 16 17 18 19]</text>
<polyline fill="none" stroke="#0058ad" points="1155.5,-81.5 1155.5,-110.5 "/>
<text text-anchor="middle" x="1190.5" y="-92.3" font-family="Times,serif" font-size="14.00" fill="#0058ad">a 71 23</text>
<polyline fill="none" stroke="#0058ad" points="1225.5,-81.5 1225.5,-110.5 "/>
<text text-anchor="middle" x="1420" y="-92.3" font-family="Times,serif" font-size="14.00" fill="#0058ad">r 70 [2 3 4 5 6 7 8 9 10 11 12 13 14 15 16 17 18 19]</text>
<polyline fill="none" stroke="#0058ad" points="1614.5,-81.5 1614.5,-110.5 "/>
<text text-anchor="middle" x="1809" y="-92.3" font-family="Times,serif" font-size="14.00" fill="#0058ad">r 70 [2 3 4 5 6 7 8 9 10 11 12 13 14 15 16 17 18 19]</text>
<polyline fill="none" stroke="#0058ad" points="2003.5,-81.5 2003.5,-110.5 "/>
<text text-anchor="middle" x="2038.5" y="-92.3" font-family="Times,serif" font-size="14.00" fill="#0058ad">a 71 24</text>
<polyline fill="none" stroke="#0058ad" points="2073.5,-81.5 2073.5,-110.5 "/>
<text text-anchor="middle" x="2108.5" y="-92.3" font-family="Times,serif" font-size="14.00" fill="#0058ad">a 69 18</text>
<polyline fill="none" stroke="#0058ad" points="2143.5,-81.5 2143.5,-110.5 "/>
<text text-anchor="middle" x="2178.5" y="-92.3" font-family="Times,serif" font-size="14.00" fill="#0058ad">a 69 19</text>
</g>
<!-- T1871 -->
<g id="node2" class="node">
<title>T1871</title>
<polygon fill="none" stroke="#0058ad" points="0,-0.5 0,-29.5 2960,-29.5 2960,-0.5 0,-0.5"/>
<text text-anchor="middle" x="235" y="-11.3" font-family="Times,serif" font-size="14.00" fill="#0058ad">r 71 [1 2 3 4 5 6 7 8 9 10 11 12 13 14 15 16 17 18 19 20 21 22]</text>
<polyline fill="none" stroke="#0058ad" points="470,-0.5 470,-29.5 "/>
<text text-anchor="middle" x="705" y="-11.3" font-family="Times,serif" font-size="14.00" fill="#0058ad">r 71 [1 2 3 4 5 6 7 8 9 10 11 12 13 14 15 16 17 18 19 20 21 22]</text>
<polyline fill="none" stroke="#0058ad" points="940,-0.5 940,-29.5 "/>
<text text-anchor="middle" x="1175" y="-11.3" font-family="Times,serif" font-size="14.00" fill="#0058ad">r 71 [1 2 3 4 5 6 7 8 9 10 11 12 13 14 15 16 17 18 19 20 21 22]</text>
<polyline fill="none" stroke="#0058ad" points="1410,-0.5 1410,-29.5 "/>
<text text-anchor="middle" x="1645" y="-11.3" font-family="Times,serif" font-size="14.00" fill="#0058ad">r 71 [1 2 3 4 5 6 7 8 9 10 11 12 13 14 15 16 17 18 19 20 21 22]</text>
<polyline fill="none" stroke="#0058ad" points="1880,-0.5 1880,-29.5 "/>
<text text-anchor="middle" x="1915" y="-11.3" font-family="Times,serif" font-size="14.00" fill="#0058ad">a 70 20</text>
<polyline fill="none" stroke="#0058ad" points="1950,-0.5 1950,-29.5 "/>
<text text-anchor="middle" x="2185" y="-11.3" font-family="Times,serif" font-size="14.00" fill="#0058ad">r 71 [1 2 3 4 5 6 7 8 9 10 11 12 13 14 15 16 17 18 19 20 21 22]</text>
<polyline fill="none" stroke="#0058ad" points="2420,-0.5 2420,-29.5 "/>
<text text-anchor="middle" x="2655" y="-11.3" font-family="Times,serif" font-size="14.00" fill="#0058ad">r 71 [1 2 3 4 5 6 7 8 9 10 11 12 13 14 15 16 17 18 19 20 21 22]</text>
<polyline fill="none" stroke="#0058ad" points="2890,-0.5 2890,-29.5 "/>
<text text-anchor="middle" x="2925" y="-11.3" font-family="Times,serif" font-size="14.00" fill="#0058ad">a 70 21</text>
</g>
<!-- T1870&#45;&gt;T1871 -->
<g id="edge1" class="edge">
<title>T1870:f0&#45;&gt;T1871:f4</title>
<path fill="none" stroke="#5b00c0" d="M961,-81C961,-16.64 1038.15,-56.09 1102,-48 1122.97,-45.34 1816.28,-51.67 1905.56,-34"/>
<polygon fill="#5b00c0" stroke="#5b00c0" points="1907.16,-37.13 1915,-30 1904.43,-30.68 1907.16,-37.13"/>
<text text-anchor="middle" x="1111.5" y="-51.8" font-family="Times,serif" font-size="14.00" fill="#5b00c0">rw</text>
</g>
<!-- T1871&#45;&gt;T1870 -->
<g id="edge2" class="edge">
<title>T1871:f0&#45;&gt;T1870:f1</title>
<path fill="none" stroke="#5b00c0" d="M235,-30C235,-54.62 1097.05,-42.31 1121,-48 1150.33,-54.97 1181.9,-48.8 1188.67,-71.01"/>
<polygon fill="#5b00c0" stroke="#5b00c0" points="1185.21,-71.55 1190,-81 1192.15,-70.63 1185.21,-71.55"/>
<text text-anchor="middle" x="1193.5" y="-51.8" font-family="Times,serif" font-size="14.00" fill="#5b00c0">rw</text>
</g>
</g>
</svg>
