<?xml version="1.0" encoding="UTF-8" standalone="no"?>
<!DOCTYPE svg PUBLIC "-//W3C//DTD SVG 1.1//EN"
 "http://www.w3.org/Graphics/SVG/1.1/DTD/svg11.dtd">
<!-- Generated by graphviz version 2.43.0 (0)
 -->
<!-- Title: a_graph Pages: 1 -->
<svg width="2079pt" height="119pt"
 viewBox="0.00 0.00 2079.00 119.00" xmlns="http://www.w3.org/2000/svg" xmlns:xlink="http://www.w3.org/1999/xlink">
<g id="graph0" class="graph" transform="scale(1 1) rotate(0) translate(4 115)">
<title>a_graph</title>
<polygon fill="white" stroke="transparent" points="-4,4 -4,-115 2075,-115 2075,4 -4,4"/>
<!-- T1530 -->
<g id="node1" class="node">
<title>T1530</title>
<polygon fill="none" stroke="#0058ad" points="300.5,-81.5 300.5,-110.5 2008.5,-110.5 2008.5,-81.5 300.5,-81.5"/>
<text text-anchor="middle" x="335.5" y="-92.3" font-family="Times,serif" font-size="14.00" fill="#0058ad">a 56 29</text>
<polyline fill="none" stroke="#0058ad" points="370.5,-81.5 370.5,-110.5 "/>
<text text-anchor="middle" x="405.5" y="-92.3" font-family="Times,serif" font-size="14.00" fill="#0058ad">a 56 30</text>
<polyline fill="none" stroke="#0058ad" points="440.5,-81.5 440.5,-110.5 "/>
<text text-anchor="middle" x="585.5" y="-92.3" font-family="Times,serif" font-size="14.00" fill="#0058ad">r 55 [1 2 3 4 5 6 7 8 9 10 11 12 13 14]</text>
<polyline fill="none" stroke="#0058ad" points="730.5,-81.5 730.5,-110.5 "/>
<text text-anchor="middle" x="1044.5" y="-92.3" font-family="Times,serif" font-size="14.00" fill="#0058ad">r 58 [1 2 3 4 5 6 7 8 9 10 11 12 14 15 16 17 18 19 20 21 22 23 24 25 26 27 28 29 30]</text>
<polyline fill="none" stroke="#0058ad" points="1358.5,-81.5 1358.5,-110.5 "/>
<text text-anchor="middle" x="1683.5" y="-92.3" font-family="Times,serif" font-size="14.00" fill="#0058ad">r 56 [1 2 3 4 5 6 7 8 9 10 11 12 13 14 15 16 17 18 19 20 21 22 23 24 25 26 27 28 29 30]</text>
</g>
<!-- T1531 -->
<g id="node2" class="node">
<title>T1531</title>
<polygon fill="none" stroke="#0058ad" points="0,-0.5 0,-29.5 2071,-29.5 2071,-0.5 0,-0.5"/>
<text text-anchor="middle" x="302.5" y="-11.3" font-family="Times,serif" font-size="14.00" fill="#0058ad">r 56 [1 2 3 4 5 6 7 8 9 10 11 12 13 14 15 16 17 18 19 20 21 22 23 24 25 26 27 28]</text>
<polyline fill="none" stroke="#0058ad" points="605,-0.5 605,-29.5 "/>
<text text-anchor="middle" x="640" y="-11.3" font-family="Times,serif" font-size="14.00" fill="#0058ad">a 55 15</text>
<polyline fill="none" stroke="#0058ad" points="675,-0.5 675,-29.5 "/>
<text text-anchor="middle" x="989" y="-11.3" font-family="Times,serif" font-size="14.00" fill="#0058ad">r 58 [1 2 3 4 5 6 7 8 9 10 11 12 14 15 16 17 18 19 20 21 22 23 24 25 26 27 28 29 30]</text>
<polyline fill="none" stroke="#0058ad" points="1303,-0.5 1303,-29.5 "/>
<text text-anchor="middle" x="1617" y="-11.3" font-family="Times,serif" font-size="14.00" fill="#0058ad">r 58 [1 2 3 4 5 6 7 8 9 10 11 12 14 15 16 17 18 19 20 21 22 23 24 25 26 27 28 29 30]</text>
<polyline fill="none" stroke="#0058ad" points="1931,-0.5 1931,-29.5 "/>
<text text-anchor="middle" x="1966" y="-11.3" font-family="Times,serif" font-size="14.00" fill="#0058ad">a 58 31</text>
<polyline fill="none" stroke="#0058ad" points="2001,-0.5 2001,-29.5 "/>
<text text-anchor="middle" x="2036" y="-11.3" font-family="Times,serif" font-size="14.00" fill="#0058ad">a 58 32</text>
</g>
<!-- T1530&#45;&gt;T1531 -->
<g id="edge1" class="edge">
<title>T1530:f2&#45;&gt;T1531:f1</title>
<path fill="none" stroke="#5b00c0" d="M585.5,-81C585.5,-51.99 627.21,-60.08 637.32,-40.05"/>
<polygon fill="#5b00c0" stroke="#5b00c0" points="640.8,-40.52 639.5,-30 633.96,-39.03 640.8,-40.52"/>
<text text-anchor="middle" x="639" y="-51.8" font-family="Times,serif" font-size="14.00" fill="#5b00c0">rw</text>
</g>
<!-- T1531&#45;&gt;T1530 -->
<g id="edge2" class="edge">
<title>T1531:f0&#45;&gt;T1530:f0</title>
<path fill="none" stroke="#5b00c0" d="M302.5,-30C302.5,-52.99 326.43,-54.23 333.53,-70.76"/>
<polygon fill="#5b00c0" stroke="#5b00c0" points="330.18,-71.84 335.5,-81 337.05,-70.52 330.18,-71.84"/>
<text text-anchor="middle" x="338" y="-51.8" font-family="Times,serif" font-size="14.00" fill="#5b00c0">rw</text>
</g>
</g>
</svg>
